M48
; DRILL file {KiCad 7.0.7} date Fri Nov 10 12:58:00 2023
; FORMAT={-:-/ absolute / inch / decimal}
; #@! TF.CreationDate,2023-11-10T12:58:00-06:00
; #@! TF.GenerationSoftware,Kicad,Pcbnew,7.0.7
; #@! TF.FileFunction,Plated,1,4,PTH
FMAT,2
INCH
; #@! TA.AperFunction,Plated,PTH,ViaDrill
T1C0.0157
; #@! TA.AperFunction,Plated,PTH,ComponentDrill
T2C0.0276
; #@! TA.AperFunction,Plated,PTH,ComponentDrill
T3C0.0315
; #@! TA.AperFunction,Plated,PTH,ComponentDrill
T4C0.0350
; #@! TA.AperFunction,Plated,PTH,ComponentDrill
T5C0.0354
; #@! TA.AperFunction,Plated,PTH,ComponentDrill
T6C0.0402
; #@! TA.AperFunction,Plated,PTH,ComponentDrill
T7C0.0472
; #@! TA.AperFunction,Plated,PTH,ComponentDrill
T8C0.0512
; #@! TA.AperFunction,Plated,PTH,ComponentDrill
T9C0.0550
; #@! TA.AperFunction,Plated,PTH,ComponentDrill
T10C0.0630
; #@! TA.AperFunction,Plated,PTH,ComponentDrill
T11C0.0700
; #@! TA.AperFunction,Plated,PTH,ComponentDrill
T12C0.0787
; #@! TA.AperFunction,Plated,PTH,ComponentDrill
T13C0.0900
; #@! TA.AperFunction,Plated,PTH,ComponentDrill
T14C0.1280
; #@! TA.AperFunction,Plated,PTH,ComponentDrill
T15C0.3600
%
G90
G05
T1
X6.7Y-9.12
X6.71Y-7.4
X6.72Y-5.7
X6.72Y-6.58
X6.72Y-8.3
X6.98Y-6.64
X7.01Y-5.78
X7.01Y-8.3626
X7.02Y-5.58
X7.02Y-6.41
X7.02Y-7.3
X7.02Y-7.5
X7.02Y-9.05
X7.04Y-8.18
X7.24Y-9.35
X7.66Y-4.17
X7.76Y-4.54
X8.11Y-5.72
X8.2469Y-5.63
X8.32Y-4.17
X8.4Y-4.54
X8.53Y-5.7
X8.66Y-5.62
X8.96Y-4.18
X9.06Y-4.54
X9.2Y-5.69
X9.34Y-5.62
X9.61Y-4.18
X9.69Y-5.68
X9.7Y-4.54
X9.83Y-5.61
X10.29Y-4.18
X10.45Y-4.495
X10.98Y-4.18
X11.17Y-4.53
X11.68Y-4.18
X11.87Y-4.53
X12.38Y-4.18
X12.57Y-4.53
X13.08Y-4.18
X13.29Y-4.53
X13.43Y-5.02
X13.77Y-4.18
X14.35Y-6.87
X14.3501Y-5.87
X14.354Y-6.7041
X14.37Y-6.03
X14.38Y-7.55
X14.4109Y-8.39
X14.42Y-7.75
X14.42Y-8.58
X14.57Y-4.98
X14.57Y-4.98
X14.68Y-6.82
X14.69Y-5.956
X14.7Y-7.64
X14.7Y-8.48
X14.76Y-5.23
T2
X10.0425Y-7.2106
X10.0425Y-7.2894
X10.1213Y-7.2106
X10.1213Y-7.2894
X10.2Y-7.2106
X10.2Y-7.2894
T3
X9.9461Y-5.5
X9.9461Y-5.6
X9.9461Y-5.7
X9.9461Y-5.8
X9.9461Y-5.9
X9.9461Y-6.0
X9.9461Y-6.1
X9.9461Y-6.2
X9.9461Y-6.3
X9.9461Y-6.4
X9.9461Y-6.5
X9.9461Y-6.6
X9.9461Y-6.7
X9.9461Y-6.8
X9.9461Y-6.9
X9.9461Y-7.0
X9.9461Y-7.1
X9.9461Y-7.2
X9.9461Y-7.3
X9.9461Y-7.4
X9.9461Y-7.5
X9.9461Y-7.6
X9.9461Y-7.7
X9.9461Y-7.8
X10.52Y-5.2124
X10.52Y-5.2911
X10.5461Y-5.5
X10.5461Y-5.6
X10.5461Y-5.7
X10.5461Y-5.8
X10.5461Y-5.9
X10.5461Y-6.0
X10.5461Y-6.1
X10.5461Y-6.2
X10.5461Y-6.3
X10.5461Y-6.4
X10.5461Y-6.5
X10.5461Y-6.6
X10.5461Y-6.7
X10.5461Y-6.8
X10.5461Y-6.9
X10.5461Y-7.0
X10.5461Y-7.1
X10.5461Y-7.2
X10.5461Y-7.3
X10.5461Y-7.4
X10.5461Y-7.5
X10.5461Y-7.6
X10.5461Y-7.7
X10.5461Y-7.8
X11.0924Y-5.21
X11.1711Y-5.21
X11.6716Y-5.18
X11.77Y-5.18
X13.6024Y-9.1
X13.6811Y-9.1
T4
X13.915Y-5.34
X13.915Y-5.44
X13.915Y-5.54
T5
X7.086Y-4.7295
X7.136Y-4.6295
X7.186Y-4.7295
X7.236Y-4.6295
X7.286Y-4.7295
X7.336Y-4.6295
X7.386Y-4.7295
X7.436Y-4.6295
T6
X7.012Y-4.25
X7.112Y-4.1795
X7.41Y-4.25
X7.51Y-4.1795
T7
X8.383Y-6.91
X8.3847Y-6.2
X8.6783Y-6.91
X8.68Y-6.2
X9.09Y-6.21
X9.1117Y-6.92
X9.3853Y-6.21
X9.407Y-6.92
T8
X10.72Y-9.1042
X10.72Y-9.3042
X11.02Y-9.1042
X11.02Y-9.3042
T9
X10.955Y-5.45
X10.955Y-5.85
X10.955Y-6.25
X10.955Y-6.59
X10.955Y-6.99
X10.955Y-7.39
X11.755Y-5.75
X11.755Y-5.95
X11.755Y-6.25
X11.755Y-6.89
X11.755Y-7.09
X11.755Y-7.39
T10
X6.9509Y-4.4996
X7.571Y-4.4996
T11
X12.395Y-7.48
X12.545Y-5.48
X12.695Y-5.48
X12.695Y-7.48
X12.845Y-5.48
X12.995Y-7.48
T13
X12.395Y-5.48
X12.995Y-5.48
T14
X7.036Y-4.3795
X7.486Y-4.3795
T15
X8.95Y-9.0
X12.82Y-8.99
T12
G00X7.2363Y-6.0613
M15
G01X7.2363Y-6.1439
M16
G05
G00X7.2375Y-5.1883
M15
G01X7.2375Y-5.271
M16
G05
G00X7.2401Y-6.9632
M15
G01X7.2401Y-7.0458
M16
G05
G00X7.2401Y-7.8132
M15
G01X7.2401Y-7.8958
M16
G05
G00X7.2401Y-8.6632
M15
G01X7.2401Y-8.7458
M16
G05
G00X7.5463Y-6.0613
M15
G01X7.5463Y-6.1439
M16
G05
G00X7.5475Y-5.1883
M15
G01X7.5475Y-5.271
M16
G05
G00X7.5501Y-6.9632
M15
G01X7.5501Y-7.0458
M16
G05
G00X7.5501Y-7.8132
M15
G01X7.5501Y-7.8958
M16
G05
G00X7.5501Y-8.6632
M15
G01X7.5501Y-8.7458
M16
G05
G00X8.1668Y-4.6608
M15
G01X8.0842Y-4.6608
M16
G05
G00X8.1668Y-4.9708
M15
G01X8.0842Y-4.9708
M16
G05
G00X8.8218Y-4.66
M15
G01X8.7392Y-4.66
M16
G05
G00X8.8218Y-4.97
M15
G01X8.7392Y-4.97
M16
G05
G00X9.4713Y-4.66
M15
G01X9.3887Y-4.66
M16
G05
G00X9.4713Y-4.97
M15
G01X9.3887Y-4.97
M16
G05
G00X10.1168Y-4.6519
M15
G01X10.0342Y-4.6519
M16
G05
G00X10.1168Y-4.9619
M15
G01X10.0342Y-4.9619
M16
G05
G00X10.7967Y-4.6619
M15
G01X10.714Y-4.6619
M16
G05
G00X10.7967Y-4.9719
M15
G01X10.714Y-4.9719
M16
G05
G00X11.4967Y-4.6619
M15
G01X11.414Y-4.6619
M16
G05
G00X11.4967Y-4.9719
M15
G01X11.414Y-4.9719
M16
G05
G00X12.1967Y-4.6619
M15
G01X12.114Y-4.6619
M16
G05
G00X12.1967Y-4.9719
M15
G01X12.114Y-4.9719
M16
G05
G00X12.8967Y-4.6619
M15
G01X12.814Y-4.6619
M16
G05
G00X12.8967Y-4.9719
M15
G01X12.814Y-4.9719
M16
G05
G00X13.5967Y-4.6619
M15
G01X13.514Y-4.6619
M16
G05
G00X13.5967Y-4.9719
M15
G01X13.514Y-4.9719
M16
G05
G00X13.8241Y-6.4068
M15
G01X13.8241Y-6.3242
M16
G05
G00X13.8241Y-7.2568
M15
G01X13.8241Y-7.1742
M16
G05
G00X13.8241Y-8.1068
M15
G01X13.8241Y-8.0242
M16
G05
G00X13.8241Y-8.9368
M15
G01X13.8241Y-8.8542
M16
G05
G00X14.1341Y-6.4068
M15
G01X14.1341Y-6.3242
M16
G05
G00X14.1341Y-7.2568
M15
G01X14.1341Y-7.1742
M16
G05
G00X14.1341Y-8.1068
M15
G01X14.1341Y-8.0242
M16
G05
G00X14.1341Y-8.9368
M15
G01X14.1341Y-8.8542
M16
G05
G00X14.2967Y-4.6619
M15
G01X14.214Y-4.6619
M16
G05
G00X14.2967Y-4.9719
M15
G01X14.214Y-4.9719
M16
G05
T0
M30
