%TF.GenerationSoftware,KiCad,Pcbnew,7.0.7*%
%TF.CreationDate,2023-11-05T16:26:51-06:00*%
%TF.ProjectId,PowerBoard_2024,506f7765-7242-46f6-9172-645f32303234,rev?*%
%TF.SameCoordinates,Original*%
%TF.FileFunction,Paste,Top*%
%TF.FilePolarity,Positive*%
%FSLAX46Y46*%
G04 Gerber Fmt 4.6, Leading zero omitted, Abs format (unit mm)*
G04 Created by KiCad (PCBNEW 7.0.7) date 2023-11-05 16:26:51*
%MOMM*%
%LPD*%
G01*
G04 APERTURE LIST*
G04 Aperture macros list*
%AMRoundRect*
0 Rectangle with rounded corners*
0 $1 Rounding radius*
0 $2 $3 $4 $5 $6 $7 $8 $9 X,Y pos of 4 corners*
0 Add a 4 corners polygon primitive as box body*
4,1,4,$2,$3,$4,$5,$6,$7,$8,$9,$2,$3,0*
0 Add four circle primitives for the rounded corners*
1,1,$1+$1,$2,$3*
1,1,$1+$1,$4,$5*
1,1,$1+$1,$6,$7*
1,1,$1+$1,$8,$9*
0 Add four rect primitives between the rounded corners*
20,1,$1+$1,$2,$3,$4,$5,0*
20,1,$1+$1,$4,$5,$6,$7,0*
20,1,$1+$1,$6,$7,$8,$9,0*
20,1,$1+$1,$8,$9,$2,$3,0*%
G04 Aperture macros list end*
%ADD10RoundRect,0.237500X-0.250000X-0.237500X0.250000X-0.237500X0.250000X0.237500X-0.250000X0.237500X0*%
%ADD11RoundRect,0.237500X0.250000X0.237500X-0.250000X0.237500X-0.250000X-0.237500X0.250000X-0.237500X0*%
%ADD12RoundRect,0.237500X-0.287500X-0.237500X0.287500X-0.237500X0.287500X0.237500X-0.287500X0.237500X0*%
%ADD13RoundRect,0.237500X-0.237500X0.300000X-0.237500X-0.300000X0.237500X-0.300000X0.237500X0.300000X0*%
%ADD14RoundRect,0.237500X-0.300000X-0.237500X0.300000X-0.237500X0.300000X0.237500X-0.300000X0.237500X0*%
%ADD15RoundRect,0.150000X0.150000X-0.675000X0.150000X0.675000X-0.150000X0.675000X-0.150000X-0.675000X0*%
%ADD16RoundRect,0.237500X0.300000X0.237500X-0.300000X0.237500X-0.300000X-0.237500X0.300000X-0.237500X0*%
%ADD17RoundRect,0.237500X0.237500X-0.287500X0.237500X0.287500X-0.237500X0.287500X-0.237500X-0.287500X0*%
%ADD18RoundRect,0.100000X0.100000X-0.712500X0.100000X0.712500X-0.100000X0.712500X-0.100000X-0.712500X0*%
%ADD19RoundRect,0.250000X0.850000X0.350000X-0.850000X0.350000X-0.850000X-0.350000X0.850000X-0.350000X0*%
%ADD20RoundRect,0.250000X1.275000X1.125000X-1.275000X1.125000X-1.275000X-1.125000X1.275000X-1.125000X0*%
%ADD21RoundRect,0.237500X0.237500X-0.300000X0.237500X0.300000X-0.237500X0.300000X-0.237500X-0.300000X0*%
%ADD22RoundRect,0.150000X0.587500X0.150000X-0.587500X0.150000X-0.587500X-0.150000X0.587500X-0.150000X0*%
%ADD23RoundRect,0.237500X0.237500X-0.250000X0.237500X0.250000X-0.237500X0.250000X-0.237500X-0.250000X0*%
%ADD24RoundRect,0.250000X-0.650000X0.412500X-0.650000X-0.412500X0.650000X-0.412500X0.650000X0.412500X0*%
%ADD25RoundRect,0.237500X-0.237500X0.250000X-0.237500X-0.250000X0.237500X-0.250000X0.237500X0.250000X0*%
%ADD26RoundRect,0.150000X-0.825000X-0.150000X0.825000X-0.150000X0.825000X0.150000X-0.825000X0.150000X0*%
%ADD27RoundRect,0.250000X-0.412500X-0.650000X0.412500X-0.650000X0.412500X0.650000X-0.412500X0.650000X0*%
%ADD28RoundRect,0.237500X0.287500X0.237500X-0.287500X0.237500X-0.287500X-0.237500X0.287500X-0.237500X0*%
%ADD29RoundRect,0.150000X-0.587500X-0.150000X0.587500X-0.150000X0.587500X0.150000X-0.587500X0.150000X0*%
%ADD30RoundRect,0.150000X0.825000X0.150000X-0.825000X0.150000X-0.825000X-0.150000X0.825000X-0.150000X0*%
%ADD31RoundRect,0.150000X0.150000X-0.825000X0.150000X0.825000X-0.150000X0.825000X-0.150000X-0.825000X0*%
%ADD32RoundRect,0.250000X-0.850000X-0.350000X0.850000X-0.350000X0.850000X0.350000X-0.850000X0.350000X0*%
%ADD33RoundRect,0.250000X-1.275000X-1.125000X1.275000X-1.125000X1.275000X1.125000X-1.275000X1.125000X0*%
%ADD34RoundRect,0.150000X0.150000X-0.587500X0.150000X0.587500X-0.150000X0.587500X-0.150000X-0.587500X0*%
%ADD35RoundRect,0.150000X-0.150000X0.587500X-0.150000X-0.587500X0.150000X-0.587500X0.150000X0.587500X0*%
G04 APERTURE END LIST*
D10*
%TO.C,R58*%
X345189000Y-167386000D03*
X347014000Y-167386000D03*
%TD*%
D11*
%TO.C,R15*%
X192635500Y-193548000D03*
X190810500Y-193548000D03*
%TD*%
D12*
%TO.C,D4*%
X266079000Y-124714000D03*
X267829000Y-124714000D03*
%TD*%
D13*
%TO.C,C22*%
X198628000Y-107087500D03*
X198628000Y-108812500D03*
%TD*%
D14*
%TO.C,C26*%
X171556500Y-209296000D03*
X173281500Y-209296000D03*
%TD*%
D12*
%TO.C,D20*%
X364885000Y-184658000D03*
X366635000Y-184658000D03*
%TD*%
D10*
%TO.C,R65*%
X284329500Y-121920000D03*
X286154500Y-121920000D03*
%TD*%
D11*
%TO.C,R36*%
X176934500Y-134112000D03*
X175109500Y-134112000D03*
%TD*%
D14*
%TO.C,C37*%
X368607000Y-218694000D03*
X370332000Y-218694000D03*
%TD*%
D10*
%TO.C,R62*%
X345189000Y-188722000D03*
X347014000Y-188722000D03*
%TD*%
D15*
%TO.C,U11*%
X245618000Y-118280000D03*
X246888000Y-118280000D03*
X248158000Y-118280000D03*
X249428000Y-118280000D03*
X249428000Y-113030000D03*
X248158000Y-113030000D03*
X246888000Y-113030000D03*
X245618000Y-113030000D03*
%TD*%
D16*
%TO.C,C20*%
X173948000Y-165809700D03*
X172223000Y-165809700D03*
%TD*%
D17*
%TO.C,D12*%
X207518000Y-112240000D03*
X207518000Y-110490000D03*
%TD*%
D18*
%TO.C,Q20*%
X211242000Y-132619000D03*
X211892000Y-132619000D03*
X212542000Y-132619000D03*
X213192000Y-132619000D03*
X213192000Y-128394000D03*
X212542000Y-128394000D03*
X211892000Y-128394000D03*
X211242000Y-128394000D03*
%TD*%
D19*
%TO.C,Q14*%
X196650000Y-212083000D03*
D20*
X192025000Y-211328000D03*
X192025000Y-208278000D03*
X188675000Y-211328000D03*
X188675000Y-208278000D03*
D19*
X196650000Y-207523000D03*
%TD*%
D11*
%TO.C,R32*%
X177659000Y-201169000D03*
X175834000Y-201169000D03*
%TD*%
D10*
%TO.C,R59*%
X349864500Y-167386000D03*
X351689500Y-167386000D03*
%TD*%
D15*
%TO.C,U10*%
X212598000Y-118449000D03*
X213868000Y-118449000D03*
X215138000Y-118449000D03*
X216408000Y-118449000D03*
X216408000Y-113199000D03*
X215138000Y-113199000D03*
X213868000Y-113199000D03*
X212598000Y-113199000D03*
%TD*%
D13*
%TO.C,C45*%
X318516000Y-107495000D03*
X318516000Y-109220000D03*
%TD*%
D12*
%TO.C,D5*%
X319635500Y-124968000D03*
X321385500Y-124968000D03*
%TD*%
D11*
%TO.C,R29*%
X192532000Y-215392000D03*
X190707000Y-215392000D03*
%TD*%
D10*
%TO.C,R64*%
X364847500Y-203454000D03*
X366672500Y-203454000D03*
%TD*%
D18*
%TO.C,Q12*%
X227993300Y-132619000D03*
X228643300Y-132619000D03*
X229293300Y-132619000D03*
X229943300Y-132619000D03*
X229943300Y-128394000D03*
X229293300Y-128394000D03*
X228643300Y-128394000D03*
X227993300Y-128394000D03*
%TD*%
D21*
%TO.C,C52*%
X280416000Y-109220000D03*
X280416000Y-107495000D03*
%TD*%
D22*
%TO.C,Q25*%
X366421500Y-213040000D03*
X366421500Y-211140000D03*
X364546500Y-212090000D03*
%TD*%
D23*
%TO.C,R40*%
X216916000Y-135024500D03*
X216916000Y-133199500D03*
%TD*%
D12*
%TO.C,D21*%
X364985500Y-206502000D03*
X366735500Y-206502000D03*
%TD*%
D24*
%TO.C,C49*%
X261874000Y-131787500D03*
X261874000Y-134912500D03*
%TD*%
D23*
%TO.C,R8*%
X342392000Y-112672500D03*
X342392000Y-110847500D03*
%TD*%
D17*
%TO.C,D8*%
X363347000Y-112635000D03*
X363347000Y-110885000D03*
%TD*%
D14*
%TO.C,C18*%
X171556500Y-187452000D03*
X173281500Y-187452000D03*
%TD*%
D21*
%TO.C,C32*%
X245618000Y-109066500D03*
X245618000Y-107341500D03*
%TD*%
D19*
%TO.C,Q6*%
X196499000Y-190240000D03*
D20*
X191874000Y-189485000D03*
X191874000Y-186435000D03*
X188524000Y-189485000D03*
X188524000Y-186435000D03*
D19*
X196499000Y-185680000D03*
%TD*%
D23*
%TO.C,R24*%
X233934000Y-135024500D03*
X233934000Y-133199500D03*
%TD*%
D13*
%TO.C,C16*%
X354076000Y-107495000D03*
X354076000Y-109220000D03*
%TD*%
D25*
%TO.C,R13*%
X172419000Y-190603500D03*
X172419000Y-192428500D03*
%TD*%
D13*
%TO.C,C21*%
X231648000Y-107341500D03*
X231648000Y-109066500D03*
%TD*%
D25*
%TO.C,R23*%
X172419000Y-212447500D03*
X172419000Y-214272500D03*
%TD*%
%TO.C,R17*%
X173593500Y-168984700D03*
X173593500Y-170809700D03*
%TD*%
D23*
%TO.C,R47*%
X254000000Y-112418500D03*
X254000000Y-110593500D03*
%TD*%
D11*
%TO.C,R35*%
X192061500Y-149351000D03*
X190236500Y-149351000D03*
%TD*%
D13*
%TO.C,C47*%
X300736000Y-107495000D03*
X300736000Y-109220000D03*
%TD*%
D16*
%TO.C,C41*%
X370332000Y-173482000D03*
X368607000Y-173482000D03*
%TD*%
D26*
%TO.C,U13*%
X360455500Y-152273000D03*
X360455500Y-153543000D03*
X360455500Y-154813000D03*
X360455500Y-156083000D03*
X365405500Y-156083000D03*
X365405500Y-154813000D03*
X365405500Y-153543000D03*
X365405500Y-152273000D03*
%TD*%
D25*
%TO.C,R39*%
X176433000Y-237527500D03*
X176433000Y-239352500D03*
%TD*%
D11*
%TO.C,R14*%
X197104000Y-193548000D03*
X195279000Y-193548000D03*
%TD*%
D25*
%TO.C,R43*%
X252984000Y-132691500D03*
X252984000Y-134516500D03*
%TD*%
D27*
%TO.C,C4*%
X346385500Y-236220000D03*
X349510500Y-236220000D03*
%TD*%
D18*
%TO.C,Q13*%
X196002000Y-132499500D03*
X196652000Y-132499500D03*
X197302000Y-132499500D03*
X197952000Y-132499500D03*
X197952000Y-128274500D03*
X197302000Y-128274500D03*
X196652000Y-128274500D03*
X196002000Y-128274500D03*
%TD*%
D28*
%TO.C,D10*%
X176867500Y-153237700D03*
X175117500Y-153237700D03*
%TD*%
D29*
%TO.C,Q5*%
X175624000Y-190566000D03*
X175624000Y-192466000D03*
X177499000Y-191516000D03*
%TD*%
D13*
%TO.C,C51*%
X265176000Y-107495000D03*
X265176000Y-109220000D03*
%TD*%
%TO.C,C29*%
X215138000Y-107290500D03*
X215138000Y-109015500D03*
%TD*%
D11*
%TO.C,R44*%
X197104000Y-236728000D03*
X195279000Y-236728000D03*
%TD*%
D29*
%TO.C,Q7*%
X176641500Y-168984700D03*
X176641500Y-170884700D03*
X178516500Y-169934700D03*
%TD*%
D16*
%TO.C,C28*%
X174010000Y-143763000D03*
X172285000Y-143763000D03*
%TD*%
D30*
%TO.C,U4*%
X181563000Y-187325000D03*
X181563000Y-186055000D03*
X181563000Y-184785000D03*
X181563000Y-183515000D03*
X176613000Y-183515000D03*
X176613000Y-184785000D03*
X176613000Y-186055000D03*
X176613000Y-187325000D03*
%TD*%
D31*
%TO.C,U21*%
X262636000Y-117394000D03*
X263906000Y-117394000D03*
X265176000Y-117394000D03*
X266446000Y-117394000D03*
X266446000Y-112444000D03*
X265176000Y-112444000D03*
X263906000Y-112444000D03*
X262636000Y-112444000D03*
%TD*%
D23*
%TO.C,R49*%
X369469500Y-149165000D03*
X369469500Y-147340000D03*
%TD*%
D11*
%TO.C,R48*%
X177254500Y-222505000D03*
X175429500Y-222505000D03*
%TD*%
D31*
%TO.C,U23*%
X280416000Y-117394000D03*
X281686000Y-117394000D03*
X282956000Y-117394000D03*
X284226000Y-117394000D03*
X284226000Y-112444000D03*
X282956000Y-112444000D03*
X281686000Y-112444000D03*
X280416000Y-112444000D03*
%TD*%
D10*
%TO.C,R51*%
X350269000Y-146558000D03*
X352094000Y-146558000D03*
%TD*%
%TO.C,R3*%
X319635500Y-122174000D03*
X321460500Y-122174000D03*
%TD*%
D13*
%TO.C,C30*%
X248158000Y-107341500D03*
X248158000Y-109066500D03*
%TD*%
D32*
%TO.C,Q28*%
X345746500Y-170695000D03*
D33*
X350371500Y-171450000D03*
X350371500Y-174500000D03*
X353721500Y-171450000D03*
X353721500Y-174500000D03*
D32*
X345746500Y-175255000D03*
%TD*%
D34*
%TO.C,Q10*%
X203949500Y-140129500D03*
X205849500Y-140129500D03*
X204899500Y-138254500D03*
%TD*%
D23*
%TO.C,R12*%
X360172000Y-112672500D03*
X360172000Y-110847500D03*
%TD*%
D22*
%TO.C,Q29*%
X366421500Y-191704000D03*
X366421500Y-189804000D03*
X364546500Y-190754000D03*
%TD*%
D10*
%TO.C,R21*%
X233021500Y-142826500D03*
X234846500Y-142826500D03*
%TD*%
D25*
%TO.C,R4*%
X369570000Y-129897500D03*
X369570000Y-131722500D03*
%TD*%
D30*
%TO.C,U8*%
X181498000Y-209169000D03*
X181498000Y-207899000D03*
X181498000Y-206629000D03*
X181498000Y-205359000D03*
X176548000Y-205359000D03*
X176548000Y-206629000D03*
X176548000Y-207899000D03*
X176548000Y-209169000D03*
%TD*%
D23*
%TO.C,R6*%
X337058000Y-130706500D03*
X337058000Y-128881500D03*
%TD*%
D22*
%TO.C,Q27*%
X366010500Y-170264500D03*
X366010500Y-168364500D03*
X364135500Y-169314500D03*
%TD*%
D23*
%TO.C,R26*%
X201930000Y-134770500D03*
X201930000Y-132945500D03*
%TD*%
%TO.C,R53*%
X369469500Y-213034000D03*
X369469500Y-211209000D03*
%TD*%
D29*
%TO.C,Q15*%
X176163000Y-146811000D03*
X176163000Y-148711000D03*
X178038000Y-147761000D03*
%TD*%
D25*
%TO.C,R25*%
X236728000Y-133199500D03*
X236728000Y-135024500D03*
%TD*%
D21*
%TO.C,C44*%
X315976000Y-109220000D03*
X315976000Y-107495000D03*
%TD*%
D16*
%TO.C,C43*%
X370332000Y-194818000D03*
X368607000Y-194818000D03*
%TD*%
D19*
%TO.C,Q22*%
X196499000Y-233928000D03*
D20*
X191874000Y-233173000D03*
X191874000Y-230123000D03*
X188524000Y-233173000D03*
X188524000Y-230123000D03*
D19*
X196499000Y-229368000D03*
%TD*%
D26*
%TO.C,U17*%
X360390500Y-194945000D03*
X360390500Y-196215000D03*
X360390500Y-197485000D03*
X360390500Y-198755000D03*
X365340500Y-198755000D03*
X365340500Y-197485000D03*
X365340500Y-196215000D03*
X365340500Y-194945000D03*
%TD*%
D18*
%TO.C,Q4*%
X350561000Y-130382500D03*
X351211000Y-130382500D03*
X351861000Y-130382500D03*
X352511000Y-130382500D03*
X352511000Y-126157500D03*
X351861000Y-126157500D03*
X351211000Y-126157500D03*
X350561000Y-126157500D03*
%TD*%
D27*
%TO.C,C6*%
X346385500Y-239014000D03*
X349510500Y-239014000D03*
%TD*%
D22*
%TO.C,Q23*%
X366264500Y-149032000D03*
X366264500Y-147132000D03*
X364389500Y-148082000D03*
%TD*%
D30*
%TO.C,U5*%
X182164500Y-165809700D03*
X182164500Y-164539700D03*
X182164500Y-163269700D03*
X182164500Y-161999700D03*
X177214500Y-161999700D03*
X177214500Y-163269700D03*
X177214500Y-164539700D03*
X177214500Y-165809700D03*
%TD*%
D11*
%TO.C,R19*%
X192032000Y-171524700D03*
X190207000Y-171524700D03*
%TD*%
D13*
%TO.C,C14*%
X336296000Y-107495000D03*
X336296000Y-109220000D03*
%TD*%
D32*
%TO.C,Q26*%
X345633500Y-213366000D03*
D33*
X350258500Y-214121000D03*
X350258500Y-217171000D03*
X353608500Y-214121000D03*
X353608500Y-217171000D03*
D32*
X345633500Y-217926000D03*
%TD*%
D12*
%TO.C,D22*%
X284339000Y-124714000D03*
X286089000Y-124714000D03*
%TD*%
D14*
%TO.C,C42*%
X368607000Y-197358000D03*
X370332000Y-197358000D03*
%TD*%
D21*
%TO.C,C23*%
X229108000Y-109066500D03*
X229108000Y-107341500D03*
%TD*%
D23*
%TO.C,R42*%
X249936000Y-134516500D03*
X249936000Y-132691500D03*
%TD*%
D34*
%TO.C,Q9*%
X232984000Y-139700000D03*
X234884000Y-139700000D03*
X233934000Y-137825000D03*
%TD*%
D28*
%TO.C,D14*%
X176897000Y-131064000D03*
X175147000Y-131064000D03*
%TD*%
D16*
%TO.C,C36*%
X370332000Y-152146000D03*
X368607000Y-152146000D03*
%TD*%
D14*
%TO.C,C34*%
X171556500Y-231140000D03*
X173281500Y-231140000D03*
%TD*%
D12*
%TO.C,D18*%
X364885000Y-163322000D03*
X366635000Y-163322000D03*
%TD*%
D13*
%TO.C,C12*%
X372618000Y-129947500D03*
X372618000Y-131672500D03*
%TD*%
D10*
%TO.C,R56*%
X364847500Y-224282000D03*
X366672500Y-224282000D03*
%TD*%
D12*
%TO.C,D19*%
X364885000Y-227330000D03*
X366635000Y-227330000D03*
%TD*%
D32*
%TO.C,Q24*%
X345965500Y-149358000D03*
D33*
X350590500Y-150113000D03*
X350590500Y-153163000D03*
X353940500Y-150113000D03*
X353940500Y-153163000D03*
D32*
X345965500Y-153918000D03*
%TD*%
D16*
%TO.C,C17*%
X173281500Y-184912000D03*
X171556500Y-184912000D03*
%TD*%
D32*
%TO.C,Q30*%
X345457500Y-192030000D03*
D33*
X350082500Y-192785000D03*
X350082500Y-195835000D03*
X353432500Y-192785000D03*
X353432500Y-195835000D03*
D32*
X345457500Y-196590000D03*
%TD*%
D11*
%TO.C,R34*%
X196737000Y-149351000D03*
X194912000Y-149351000D03*
%TD*%
D10*
%TO.C,R55*%
X349761000Y-210058000D03*
X351586000Y-210058000D03*
%TD*%
%TO.C,R63*%
X349761000Y-188722000D03*
X351586000Y-188722000D03*
%TD*%
D13*
%TO.C,C53*%
X282956000Y-107495000D03*
X282956000Y-109220000D03*
%TD*%
D11*
%TO.C,R18*%
X196604000Y-171524700D03*
X194779000Y-171524700D03*
%TD*%
D10*
%TO.C,R60*%
X364847500Y-181610000D03*
X366672500Y-181610000D03*
%TD*%
D29*
%TO.C,Q19*%
X179481000Y-237556000D03*
X179481000Y-239456000D03*
X181356000Y-238506000D03*
%TD*%
D16*
%TO.C,C38*%
X370332000Y-216154000D03*
X368607000Y-216154000D03*
%TD*%
D19*
%TO.C,Q16*%
X196189000Y-146043000D03*
D20*
X191564000Y-145288000D03*
X191564000Y-142238000D03*
X188214000Y-145288000D03*
X188214000Y-142238000D03*
D19*
X196189000Y-141483000D03*
%TD*%
D23*
%TO.C,R7*%
X339598000Y-130706500D03*
X339598000Y-128881500D03*
%TD*%
D15*
%TO.C,U2*%
X333756000Y-117544000D03*
X335026000Y-117544000D03*
X336296000Y-117544000D03*
X337566000Y-117544000D03*
X337566000Y-112294000D03*
X336296000Y-112294000D03*
X335026000Y-112294000D03*
X333756000Y-112294000D03*
%TD*%
D14*
%TO.C,C35*%
X368607000Y-154686000D03*
X370332000Y-154686000D03*
%TD*%
D15*
%TO.C,U19*%
X298196000Y-117544000D03*
X299466000Y-117544000D03*
X300736000Y-117544000D03*
X302006000Y-117544000D03*
X302006000Y-112294000D03*
X300736000Y-112294000D03*
X299466000Y-112294000D03*
X298196000Y-112294000D03*
%TD*%
D30*
%TO.C,U9*%
X182226500Y-143509000D03*
X182226500Y-142239000D03*
X182226500Y-140969000D03*
X182226500Y-139699000D03*
X177276500Y-139699000D03*
X177276500Y-140969000D03*
X177276500Y-142239000D03*
X177276500Y-143509000D03*
%TD*%
D13*
%TO.C,C9*%
X372364000Y-138837500D03*
X372364000Y-140562500D03*
%TD*%
D34*
%TO.C,Q17*%
X215966000Y-139621500D03*
X217866000Y-139621500D03*
X216916000Y-137746500D03*
%TD*%
D15*
%TO.C,U18*%
X315976000Y-117544000D03*
X317246000Y-117544000D03*
X318516000Y-117544000D03*
X319786000Y-117544000D03*
X319786000Y-112294000D03*
X318516000Y-112294000D03*
X317246000Y-112294000D03*
X315976000Y-112294000D03*
%TD*%
D28*
%TO.C,D3*%
X371969000Y-142748000D03*
X370219000Y-142748000D03*
%TD*%
D25*
%TO.C,R41*%
X219964000Y-133199500D03*
X219964000Y-135024500D03*
%TD*%
D23*
%TO.C,R31*%
X204470000Y-112287500D03*
X204470000Y-110462500D03*
%TD*%
D35*
%TO.C,Q3*%
X357058000Y-124617000D03*
X355158000Y-124617000D03*
X356108000Y-126492000D03*
%TD*%
D11*
%TO.C,R16*%
X177254500Y-179325000D03*
X175429500Y-179325000D03*
%TD*%
D23*
%TO.C,R46*%
X221107000Y-112418500D03*
X221107000Y-110593500D03*
%TD*%
%TO.C,R11*%
X357378000Y-130706500D03*
X357378000Y-128881500D03*
%TD*%
D25*
%TO.C,R33*%
X173115000Y-146782500D03*
X173115000Y-148607500D03*
%TD*%
D28*
%TO.C,D6*%
X371969000Y-134112000D03*
X370219000Y-134112000D03*
%TD*%
D11*
%TO.C,R5*%
X339240500Y-121412000D03*
X337415500Y-121412000D03*
%TD*%
%TO.C,R20*%
X176905000Y-156285700D03*
X175080000Y-156285700D03*
%TD*%
D21*
%TO.C,C24*%
X196023700Y-108812500D03*
X196023700Y-107087500D03*
%TD*%
D10*
%TO.C,R50*%
X345697000Y-146558000D03*
X347522000Y-146558000D03*
%TD*%
D21*
%TO.C,C50*%
X262636000Y-109220000D03*
X262636000Y-107495000D03*
%TD*%
D28*
%TO.C,D9*%
X177217000Y-176277000D03*
X175467000Y-176277000D03*
%TD*%
D23*
%TO.C,R1*%
X369570000Y-140612500D03*
X369570000Y-138787500D03*
%TD*%
D28*
%TO.C,D17*%
X177217000Y-219457000D03*
X175467000Y-219457000D03*
%TD*%
D10*
%TO.C,R54*%
X345189000Y-210058000D03*
X347014000Y-210058000D03*
%TD*%
D23*
%TO.C,R10*%
X354838000Y-130706500D03*
X354838000Y-128881500D03*
%TD*%
D16*
%TO.C,C33*%
X173281500Y-228600000D03*
X171556500Y-228600000D03*
%TD*%
D26*
%TO.C,U14*%
X360455500Y-216281000D03*
X360455500Y-217551000D03*
X360455500Y-218821000D03*
X360455500Y-220091000D03*
X365405500Y-220091000D03*
X365405500Y-218821000D03*
X365405500Y-217551000D03*
X365405500Y-216281000D03*
%TD*%
D30*
%TO.C,U12*%
X181498000Y-231013000D03*
X181498000Y-229743000D03*
X181498000Y-228473000D03*
X181498000Y-227203000D03*
X176548000Y-227203000D03*
X176548000Y-228473000D03*
X176548000Y-229743000D03*
X176548000Y-231013000D03*
%TD*%
D19*
%TO.C,Q8*%
X195998500Y-168217700D03*
D20*
X191373500Y-167462700D03*
X191373500Y-164412700D03*
X188023500Y-167462700D03*
X188023500Y-164412700D03*
D19*
X195998500Y-163657700D03*
%TD*%
D17*
%TO.C,D16*%
X257048000Y-112381000D03*
X257048000Y-110631000D03*
%TD*%
D15*
%TO.C,U3*%
X351536000Y-117544000D03*
X352806000Y-117544000D03*
X354076000Y-117544000D03*
X355346000Y-117544000D03*
X355346000Y-112294000D03*
X354076000Y-112294000D03*
X352806000Y-112294000D03*
X351536000Y-112294000D03*
%TD*%
D10*
%TO.C,R38*%
X245546000Y-142591000D03*
X247371000Y-142591000D03*
%TD*%
D16*
%TO.C,C25*%
X173281500Y-206756000D03*
X171556500Y-206756000D03*
%TD*%
D18*
%TO.C,Q21*%
X244135000Y-132414500D03*
X244785000Y-132414500D03*
X245435000Y-132414500D03*
X246085000Y-132414500D03*
X246085000Y-128189500D03*
X245435000Y-128189500D03*
X244785000Y-128189500D03*
X244135000Y-128189500D03*
%TD*%
D14*
%TO.C,C40*%
X368607000Y-176022000D03*
X370332000Y-176022000D03*
%TD*%
D23*
%TO.C,R61*%
X369372500Y-191666500D03*
X369372500Y-189841500D03*
%TD*%
%TO.C,R30*%
X237604300Y-112418500D03*
X237604300Y-110593500D03*
%TD*%
%TO.C,R57*%
X368961500Y-170227000D03*
X368961500Y-168402000D03*
%TD*%
D21*
%TO.C,C46*%
X298196000Y-109220000D03*
X298196000Y-107495000D03*
%TD*%
D10*
%TO.C,R2*%
X266041500Y-121920000D03*
X267866500Y-121920000D03*
%TD*%
D27*
%TO.C,C11*%
X280885500Y-128016000D03*
X284010500Y-128016000D03*
%TD*%
D14*
%TO.C,C27*%
X172285000Y-141223000D03*
X174010000Y-141223000D03*
%TD*%
D11*
%TO.C,R45*%
X192127500Y-236728000D03*
X190302500Y-236728000D03*
%TD*%
D10*
%TO.C,R37*%
X216003500Y-142669500D03*
X217828500Y-142669500D03*
%TD*%
D18*
%TO.C,Q2*%
X332740000Y-130382500D03*
X333390000Y-130382500D03*
X334040000Y-130382500D03*
X334690000Y-130382500D03*
X334690000Y-126157500D03*
X334040000Y-126157500D03*
X333390000Y-126157500D03*
X332740000Y-126157500D03*
%TD*%
D21*
%TO.C,C15*%
X351536000Y-109220000D03*
X351536000Y-107495000D03*
%TD*%
D15*
%TO.C,U6*%
X229095300Y-118500000D03*
X230365300Y-118500000D03*
X231635300Y-118500000D03*
X232905300Y-118500000D03*
X232905300Y-113250000D03*
X231635300Y-113250000D03*
X230365300Y-113250000D03*
X229095300Y-113250000D03*
%TD*%
D14*
%TO.C,C19*%
X172223000Y-163269700D03*
X173948000Y-163269700D03*
%TD*%
D25*
%TO.C,R27*%
X204978000Y-132945500D03*
X204978000Y-134770500D03*
%TD*%
D17*
%TO.C,D11*%
X240652300Y-112381000D03*
X240652300Y-110631000D03*
%TD*%
D10*
%TO.C,R52*%
X364847500Y-160274000D03*
X366672500Y-160274000D03*
%TD*%
D21*
%TO.C,C39*%
X177800000Y-125362000D03*
X177800000Y-123637000D03*
%TD*%
D11*
%TO.C,R9*%
X357020500Y-121412000D03*
X355195500Y-121412000D03*
%TD*%
D17*
%TO.C,D15*%
X224155000Y-112381000D03*
X224155000Y-110631000D03*
%TD*%
D21*
%TO.C,C31*%
X212600700Y-109015500D03*
X212600700Y-107290500D03*
%TD*%
D10*
%TO.C,R22*%
X203987000Y-143080500D03*
X205812000Y-143080500D03*
%TD*%
D29*
%TO.C,Q11*%
X175545500Y-212410000D03*
X175545500Y-214310000D03*
X177420500Y-213360000D03*
%TD*%
D21*
%TO.C,C13*%
X333756000Y-109220000D03*
X333756000Y-107495000D03*
%TD*%
D35*
%TO.C,Q1*%
X339278000Y-124617000D03*
X337378000Y-124617000D03*
X338328000Y-126492000D03*
%TD*%
D26*
%TO.C,U16*%
X360455500Y-173609000D03*
X360455500Y-174879000D03*
X360455500Y-176149000D03*
X360455500Y-177419000D03*
X365405500Y-177419000D03*
X365405500Y-176149000D03*
X365405500Y-174879000D03*
X365405500Y-173609000D03*
%TD*%
D17*
%TO.C,D7*%
X345694000Y-112635000D03*
X345694000Y-110885000D03*
%TD*%
D15*
%TO.C,U7*%
X196088000Y-118167000D03*
X197358000Y-118167000D03*
X198628000Y-118167000D03*
X199898000Y-118167000D03*
X199898000Y-112917000D03*
X198628000Y-112917000D03*
X197358000Y-112917000D03*
X196088000Y-112917000D03*
%TD*%
D28*
%TO.C,D13*%
X177584000Y-198121000D03*
X175834000Y-198121000D03*
%TD*%
D11*
%TO.C,R28*%
X197207500Y-215392000D03*
X195382500Y-215392000D03*
%TD*%
D34*
%TO.C,Q18*%
X245430000Y-139543000D03*
X247330000Y-139543000D03*
X246380000Y-137668000D03*
%TD*%
M02*
