%TF.GenerationSoftware,KiCad,Pcbnew,7.0.7*%
%TF.CreationDate,2023-11-10T12:57:54-06:00*%
%TF.ProjectId,PowerBoard_2024,506f7765-7242-46f6-9172-645f32303234,rev?*%
%TF.SameCoordinates,Original*%
%TF.FileFunction,Soldermask,Bot*%
%TF.FilePolarity,Negative*%
%FSLAX46Y46*%
G04 Gerber Fmt 4.6, Leading zero omitted, Abs format (unit mm)*
G04 Created by KiCad (PCBNEW 7.0.7) date 2023-11-10 12:57:54*
%MOMM*%
%LPD*%
G01*
G04 APERTURE LIST*
%ADD10R,2.400000X2.400000*%
%ADD11C,2.400000*%
%ADD12R,1.600000X1.600000*%
%ADD13C,1.600000*%
%ADD14C,3.048000*%
%ADD15C,3.810000*%
%ADD16C,2.946400*%
%ADD17R,2.600000X2.600000*%
%ADD18O,2.600000X2.600000*%
%ADD19C,2.540000*%
%ADD20C,18.288000*%
%ADD21C,1.100000*%
%ADD22C,1.400000*%
%ADD23C,4.000000*%
%ADD24C,2.000000*%
%ADD25C,1.524000*%
%ADD26C,1.308000*%
%ADD27C,1.208000*%
%ADD28O,5.100000X3.000000*%
%ADD29O,3.000000X5.100000*%
G04 APERTURE END LIST*
D10*
%TO.C,C1*%
X212972000Y-157480000D03*
D11*
X220472000Y-157480000D03*
%TD*%
D12*
%TO.C,C2*%
X345500888Y-231140000D03*
D13*
X347500888Y-231140000D03*
%TD*%
D12*
%TO.C,C48*%
X267208000Y-132394888D03*
D13*
X267208000Y-134394888D03*
%TD*%
D14*
%TO.C,VR1*%
X314833000Y-189992000D03*
X322453000Y-189992000D03*
X330073000Y-189992000D03*
D15*
X330073000Y-139192000D03*
D14*
X326263000Y-139192000D03*
X322453000Y-139192000D03*
X318643000Y-139192000D03*
D15*
X314833000Y-139192000D03*
%TD*%
D16*
%TO.C,V6*%
X170114031Y-237689640D03*
%TD*%
D17*
%TO.C,D1*%
X272288000Y-231247000D03*
D18*
X272288000Y-236327000D03*
%TD*%
D19*
%TO.C,U20*%
X298577000Y-187706000D03*
X298577000Y-180086000D03*
X298577000Y-175006000D03*
X278257000Y-167386000D03*
X278257000Y-177546000D03*
X278257000Y-187706000D03*
%TD*%
D20*
%TO.C,V2*%
X227330000Y-228600000D03*
%TD*%
D16*
%TO.C,V4*%
X170180000Y-104344980D03*
%TD*%
%TO.C,V5*%
X373377271Y-237765840D03*
%TD*%
D12*
%TO.C,C8*%
X298958000Y-131572000D03*
D13*
X296458000Y-131572000D03*
%TD*%
D20*
%TO.C,V1*%
X325628000Y-228346000D03*
%TD*%
D10*
%TO.C,C3*%
X231437246Y-175768000D03*
D11*
X238937246Y-175768000D03*
%TD*%
D21*
%TO.C,J1*%
X188874000Y-117590000D03*
X187604000Y-120130000D03*
X186334000Y-117590000D03*
X185064000Y-120130000D03*
X183794000Y-117590000D03*
X182524000Y-120130000D03*
X181254000Y-117590000D03*
X179984000Y-120130000D03*
D22*
X190754000Y-106160000D03*
X188214000Y-107950000D03*
X180644000Y-106160000D03*
X178104000Y-107950000D03*
D23*
X190144000Y-111240000D03*
X178714000Y-111240000D03*
D24*
X192304000Y-114290000D03*
X176554000Y-114290000D03*
%TD*%
D25*
%TO.C,U1*%
X353441000Y-140716000D03*
X353441000Y-138176000D03*
X353441000Y-135636000D03*
%TD*%
D10*
%TO.C,C7*%
X212928754Y-175514000D03*
D11*
X220428754Y-175514000D03*
%TD*%
D12*
%TO.C,C10*%
X281746888Y-132334000D03*
D13*
X283746888Y-132334000D03*
%TD*%
D19*
%TO.C,U22*%
X298577000Y-158750000D03*
X298577000Y-151130000D03*
X298577000Y-146050000D03*
X278257000Y-138430000D03*
X278257000Y-148590000D03*
X278257000Y-158750000D03*
%TD*%
D10*
%TO.C,C5*%
X230886000Y-157734000D03*
D11*
X238386000Y-157734000D03*
%TD*%
D16*
%TO.C,V3*%
X373377271Y-104251000D03*
%TD*%
D17*
%TO.C,D2*%
X279908000Y-231247000D03*
D18*
X279908000Y-236327000D03*
%TD*%
D26*
%TO.C,U15*%
X267870000Y-195580000D03*
X267870000Y-193040000D03*
X267870000Y-190500000D03*
X267870000Y-187960000D03*
X267870000Y-162560000D03*
X252630000Y-193040000D03*
X267870000Y-185420000D03*
X267870000Y-182880000D03*
X267870000Y-180340000D03*
X267870000Y-177800000D03*
X267870000Y-175260000D03*
X267870000Y-172720000D03*
X267870000Y-170180000D03*
X267870000Y-167640000D03*
X267870000Y-165100000D03*
X252630000Y-165100000D03*
X252630000Y-167640000D03*
X252630000Y-170180000D03*
X252630000Y-172720000D03*
X252630000Y-175260000D03*
X252630000Y-177800000D03*
X252630000Y-180340000D03*
X252630000Y-182880000D03*
X252630000Y-185420000D03*
X252630000Y-187960000D03*
X252630000Y-190500000D03*
X267870000Y-160020000D03*
X267870000Y-157480000D03*
X267870000Y-154940000D03*
X267870000Y-152400000D03*
X267870000Y-149860000D03*
X267870000Y-147320000D03*
X267870000Y-144780000D03*
X267870000Y-142240000D03*
X267870000Y-139700000D03*
X252630000Y-139700000D03*
X252630000Y-142240000D03*
X252630000Y-144780000D03*
X252630000Y-147320000D03*
X252630000Y-149860000D03*
X252630000Y-152400000D03*
X252630000Y-154940000D03*
X252630000Y-157480000D03*
X252630000Y-160020000D03*
X267870000Y-198120000D03*
X252630000Y-162560000D03*
X252630000Y-195580000D03*
D27*
X257080000Y-183150000D03*
X257080000Y-185150000D03*
X255080000Y-185150000D03*
X255080000Y-183150000D03*
X259080000Y-183150000D03*
X259080000Y-185150000D03*
D26*
X252630000Y-198120000D03*
%TD*%
D28*
%TO.C,Conn18*%
X308745700Y-126287500D03*
X308745700Y-118413500D03*
%TD*%
D29*
%TO.C,Conn4*%
X351132000Y-225945700D03*
X359006000Y-225945700D03*
%TD*%
%TO.C,Conn3*%
X191772500Y-221094300D03*
X183898500Y-221094300D03*
%TD*%
D28*
%TO.C,Conn19*%
X290965700Y-126287500D03*
X290965700Y-118413500D03*
%TD*%
D29*
%TO.C,Conn9*%
X191677000Y-155006000D03*
X183803000Y-155006000D03*
%TD*%
D28*
%TO.C,Conn10*%
X344305700Y-126287500D03*
X344305700Y-118413500D03*
%TD*%
%TO.C,Conn17*%
X326525700Y-126287500D03*
X326525700Y-118413500D03*
%TD*%
D29*
%TO.C,Conn6*%
X351132000Y-183273700D03*
X359006000Y-183273700D03*
%TD*%
%TO.C,Conn8*%
X191706500Y-132832300D03*
X183832500Y-132832300D03*
%TD*%
%TO.C,Conn1*%
X191772500Y-177914300D03*
X183898500Y-177914300D03*
%TD*%
D28*
%TO.C,Conn16*%
X273185700Y-126287500D03*
X273185700Y-118413500D03*
%TD*%
D29*
%TO.C,Conn7*%
X351132000Y-161683700D03*
X359006000Y-161683700D03*
%TD*%
D28*
%TO.C,Conn12*%
X255917700Y-126033500D03*
X255917700Y-118159500D03*
%TD*%
%TO.C,Conn14*%
X239522000Y-126238000D03*
X239522000Y-118364000D03*
%TD*%
%TO.C,Conn15*%
X206387700Y-126259500D03*
X206387700Y-118385500D03*
%TD*%
D29*
%TO.C,Conn2*%
X191772500Y-199504300D03*
X183898500Y-199504300D03*
%TD*%
D28*
%TO.C,Conn13*%
X223024700Y-126238000D03*
X223024700Y-118364000D03*
%TD*%
D29*
%TO.C,Conn5*%
X351132000Y-204863700D03*
X359006000Y-204863700D03*
%TD*%
D28*
%TO.C,Conn11*%
X362085700Y-126287500D03*
X362085700Y-118413500D03*
%TD*%
M02*
