%TF.GenerationSoftware,KiCad,Pcbnew,7.0.7*%
%TF.CreationDate,2023-11-10T12:57:54-06:00*%
%TF.ProjectId,PowerBoard_2024,506f7765-7242-46f6-9172-645f32303234,rev?*%
%TF.SameCoordinates,Original*%
%TF.FileFunction,Legend,Bot*%
%TF.FilePolarity,Positive*%
%FSLAX46Y46*%
G04 Gerber Fmt 4.6, Leading zero omitted, Abs format (unit mm)*
G04 Created by KiCad (PCBNEW 7.0.7) date 2023-11-10 12:57:54*
%MOMM*%
%LPD*%
G01*
G04 APERTURE LIST*
%ADD10C,0.150000*%
G04 APERTURE END LIST*
D10*
X313955280Y-110563499D02*
X314002900Y-110515880D01*
X314002900Y-110515880D02*
X314050519Y-110373023D01*
X314050519Y-110373023D02*
X314050519Y-110277785D01*
X314050519Y-110277785D02*
X314002900Y-110134928D01*
X314002900Y-110134928D02*
X313907661Y-110039690D01*
X313907661Y-110039690D02*
X313812423Y-109992071D01*
X313812423Y-109992071D02*
X313621947Y-109944452D01*
X313621947Y-109944452D02*
X313479090Y-109944452D01*
X313479090Y-109944452D02*
X313288614Y-109992071D01*
X313288614Y-109992071D02*
X313193376Y-110039690D01*
X313193376Y-110039690D02*
X313098138Y-110134928D01*
X313098138Y-110134928D02*
X313050519Y-110277785D01*
X313050519Y-110277785D02*
X313050519Y-110373023D01*
X313050519Y-110373023D02*
X313098138Y-110515880D01*
X313098138Y-110515880D02*
X313145757Y-110563499D01*
X314050519Y-111134928D02*
X314002900Y-111039690D01*
X314002900Y-111039690D02*
X313955280Y-110992071D01*
X313955280Y-110992071D02*
X313860042Y-110944452D01*
X313860042Y-110944452D02*
X313574328Y-110944452D01*
X313574328Y-110944452D02*
X313479090Y-110992071D01*
X313479090Y-110992071D02*
X313431471Y-111039690D01*
X313431471Y-111039690D02*
X313383852Y-111134928D01*
X313383852Y-111134928D02*
X313383852Y-111277785D01*
X313383852Y-111277785D02*
X313431471Y-111373023D01*
X313431471Y-111373023D02*
X313479090Y-111420642D01*
X313479090Y-111420642D02*
X313574328Y-111468261D01*
X313574328Y-111468261D02*
X313860042Y-111468261D01*
X313860042Y-111468261D02*
X313955280Y-111420642D01*
X313955280Y-111420642D02*
X314002900Y-111373023D01*
X314002900Y-111373023D02*
X314050519Y-111277785D01*
X314050519Y-111277785D02*
X314050519Y-111134928D01*
X313383852Y-111896833D02*
X314050519Y-111896833D01*
X313479090Y-111896833D02*
X313431471Y-111944452D01*
X313431471Y-111944452D02*
X313383852Y-112039690D01*
X313383852Y-112039690D02*
X313383852Y-112182547D01*
X313383852Y-112182547D02*
X313431471Y-112277785D01*
X313431471Y-112277785D02*
X313526709Y-112325404D01*
X313526709Y-112325404D02*
X314050519Y-112325404D01*
X313383852Y-112801595D02*
X314050519Y-112801595D01*
X313479090Y-112801595D02*
X313431471Y-112849214D01*
X313431471Y-112849214D02*
X313383852Y-112944452D01*
X313383852Y-112944452D02*
X313383852Y-113087309D01*
X313383852Y-113087309D02*
X313431471Y-113182547D01*
X313431471Y-113182547D02*
X313526709Y-113230166D01*
X313526709Y-113230166D02*
X314050519Y-113230166D01*
X314050519Y-114230166D02*
X314050519Y-113658738D01*
X314050519Y-113944452D02*
X313050519Y-113944452D01*
X313050519Y-113944452D02*
X313193376Y-113849214D01*
X313193376Y-113849214D02*
X313288614Y-113753976D01*
X313288614Y-113753976D02*
X313336233Y-113658738D01*
X313479090Y-114801595D02*
X313431471Y-114706357D01*
X313431471Y-114706357D02*
X313383852Y-114658738D01*
X313383852Y-114658738D02*
X313288614Y-114611119D01*
X313288614Y-114611119D02*
X313240995Y-114611119D01*
X313240995Y-114611119D02*
X313145757Y-114658738D01*
X313145757Y-114658738D02*
X313098138Y-114706357D01*
X313098138Y-114706357D02*
X313050519Y-114801595D01*
X313050519Y-114801595D02*
X313050519Y-114992071D01*
X313050519Y-114992071D02*
X313098138Y-115087309D01*
X313098138Y-115087309D02*
X313145757Y-115134928D01*
X313145757Y-115134928D02*
X313240995Y-115182547D01*
X313240995Y-115182547D02*
X313288614Y-115182547D01*
X313288614Y-115182547D02*
X313383852Y-115134928D01*
X313383852Y-115134928D02*
X313431471Y-115087309D01*
X313431471Y-115087309D02*
X313479090Y-114992071D01*
X313479090Y-114992071D02*
X313479090Y-114801595D01*
X313479090Y-114801595D02*
X313526709Y-114706357D01*
X313526709Y-114706357D02*
X313574328Y-114658738D01*
X313574328Y-114658738D02*
X313669566Y-114611119D01*
X313669566Y-114611119D02*
X313860042Y-114611119D01*
X313860042Y-114611119D02*
X313955280Y-114658738D01*
X313955280Y-114658738D02*
X314002900Y-114706357D01*
X314002900Y-114706357D02*
X314050519Y-114801595D01*
X314050519Y-114801595D02*
X314050519Y-114992071D01*
X314050519Y-114992071D02*
X314002900Y-115087309D01*
X314002900Y-115087309D02*
X313955280Y-115134928D01*
X313955280Y-115134928D02*
X313860042Y-115182547D01*
X313860042Y-115182547D02*
X313669566Y-115182547D01*
X313669566Y-115182547D02*
X313574328Y-115134928D01*
X313574328Y-115134928D02*
X313526709Y-115087309D01*
X313526709Y-115087309D02*
X313479090Y-114992071D01*
X366379809Y-231155280D02*
X366427428Y-231202900D01*
X366427428Y-231202900D02*
X366570285Y-231250519D01*
X366570285Y-231250519D02*
X366665523Y-231250519D01*
X366665523Y-231250519D02*
X366808380Y-231202900D01*
X366808380Y-231202900D02*
X366903618Y-231107661D01*
X366903618Y-231107661D02*
X366951237Y-231012423D01*
X366951237Y-231012423D02*
X366998856Y-230821947D01*
X366998856Y-230821947D02*
X366998856Y-230679090D01*
X366998856Y-230679090D02*
X366951237Y-230488614D01*
X366951237Y-230488614D02*
X366903618Y-230393376D01*
X366903618Y-230393376D02*
X366808380Y-230298138D01*
X366808380Y-230298138D02*
X366665523Y-230250519D01*
X366665523Y-230250519D02*
X366570285Y-230250519D01*
X366570285Y-230250519D02*
X366427428Y-230298138D01*
X366427428Y-230298138D02*
X366379809Y-230345757D01*
X365808380Y-231250519D02*
X365903618Y-231202900D01*
X365903618Y-231202900D02*
X365951237Y-231155280D01*
X365951237Y-231155280D02*
X365998856Y-231060042D01*
X365998856Y-231060042D02*
X365998856Y-230774328D01*
X365998856Y-230774328D02*
X365951237Y-230679090D01*
X365951237Y-230679090D02*
X365903618Y-230631471D01*
X365903618Y-230631471D02*
X365808380Y-230583852D01*
X365808380Y-230583852D02*
X365665523Y-230583852D01*
X365665523Y-230583852D02*
X365570285Y-230631471D01*
X365570285Y-230631471D02*
X365522666Y-230679090D01*
X365522666Y-230679090D02*
X365475047Y-230774328D01*
X365475047Y-230774328D02*
X365475047Y-231060042D01*
X365475047Y-231060042D02*
X365522666Y-231155280D01*
X365522666Y-231155280D02*
X365570285Y-231202900D01*
X365570285Y-231202900D02*
X365665523Y-231250519D01*
X365665523Y-231250519D02*
X365808380Y-231250519D01*
X365046475Y-230583852D02*
X365046475Y-231250519D01*
X365046475Y-230679090D02*
X364998856Y-230631471D01*
X364998856Y-230631471D02*
X364903618Y-230583852D01*
X364903618Y-230583852D02*
X364760761Y-230583852D01*
X364760761Y-230583852D02*
X364665523Y-230631471D01*
X364665523Y-230631471D02*
X364617904Y-230726709D01*
X364617904Y-230726709D02*
X364617904Y-231250519D01*
X364141713Y-230583852D02*
X364141713Y-231250519D01*
X364141713Y-230679090D02*
X364094094Y-230631471D01*
X364094094Y-230631471D02*
X363998856Y-230583852D01*
X363998856Y-230583852D02*
X363855999Y-230583852D01*
X363855999Y-230583852D02*
X363760761Y-230631471D01*
X363760761Y-230631471D02*
X363713142Y-230726709D01*
X363713142Y-230726709D02*
X363713142Y-231250519D01*
X362808380Y-230583852D02*
X362808380Y-231250519D01*
X363046475Y-230202900D02*
X363284570Y-230917185D01*
X363284570Y-230917185D02*
X362665523Y-230917185D01*
X179831809Y-216513580D02*
X179879428Y-216561200D01*
X179879428Y-216561200D02*
X180022285Y-216608819D01*
X180022285Y-216608819D02*
X180117523Y-216608819D01*
X180117523Y-216608819D02*
X180260380Y-216561200D01*
X180260380Y-216561200D02*
X180355618Y-216465961D01*
X180355618Y-216465961D02*
X180403237Y-216370723D01*
X180403237Y-216370723D02*
X180450856Y-216180247D01*
X180450856Y-216180247D02*
X180450856Y-216037390D01*
X180450856Y-216037390D02*
X180403237Y-215846914D01*
X180403237Y-215846914D02*
X180355618Y-215751676D01*
X180355618Y-215751676D02*
X180260380Y-215656438D01*
X180260380Y-215656438D02*
X180117523Y-215608819D01*
X180117523Y-215608819D02*
X180022285Y-215608819D01*
X180022285Y-215608819D02*
X179879428Y-215656438D01*
X179879428Y-215656438D02*
X179831809Y-215704057D01*
X179260380Y-216608819D02*
X179355618Y-216561200D01*
X179355618Y-216561200D02*
X179403237Y-216513580D01*
X179403237Y-216513580D02*
X179450856Y-216418342D01*
X179450856Y-216418342D02*
X179450856Y-216132628D01*
X179450856Y-216132628D02*
X179403237Y-216037390D01*
X179403237Y-216037390D02*
X179355618Y-215989771D01*
X179355618Y-215989771D02*
X179260380Y-215942152D01*
X179260380Y-215942152D02*
X179117523Y-215942152D01*
X179117523Y-215942152D02*
X179022285Y-215989771D01*
X179022285Y-215989771D02*
X178974666Y-216037390D01*
X178974666Y-216037390D02*
X178927047Y-216132628D01*
X178927047Y-216132628D02*
X178927047Y-216418342D01*
X178927047Y-216418342D02*
X178974666Y-216513580D01*
X178974666Y-216513580D02*
X179022285Y-216561200D01*
X179022285Y-216561200D02*
X179117523Y-216608819D01*
X179117523Y-216608819D02*
X179260380Y-216608819D01*
X178498475Y-215942152D02*
X178498475Y-216608819D01*
X178498475Y-216037390D02*
X178450856Y-215989771D01*
X178450856Y-215989771D02*
X178355618Y-215942152D01*
X178355618Y-215942152D02*
X178212761Y-215942152D01*
X178212761Y-215942152D02*
X178117523Y-215989771D01*
X178117523Y-215989771D02*
X178069904Y-216085009D01*
X178069904Y-216085009D02*
X178069904Y-216608819D01*
X177593713Y-215942152D02*
X177593713Y-216608819D01*
X177593713Y-216037390D02*
X177546094Y-215989771D01*
X177546094Y-215989771D02*
X177450856Y-215942152D01*
X177450856Y-215942152D02*
X177307999Y-215942152D01*
X177307999Y-215942152D02*
X177212761Y-215989771D01*
X177212761Y-215989771D02*
X177165142Y-216085009D01*
X177165142Y-216085009D02*
X177165142Y-216608819D01*
X176784189Y-215608819D02*
X176165142Y-215608819D01*
X176165142Y-215608819D02*
X176498475Y-215989771D01*
X176498475Y-215989771D02*
X176355618Y-215989771D01*
X176355618Y-215989771D02*
X176260380Y-216037390D01*
X176260380Y-216037390D02*
X176212761Y-216085009D01*
X176212761Y-216085009D02*
X176165142Y-216180247D01*
X176165142Y-216180247D02*
X176165142Y-216418342D01*
X176165142Y-216418342D02*
X176212761Y-216513580D01*
X176212761Y-216513580D02*
X176260380Y-216561200D01*
X176260380Y-216561200D02*
X176355618Y-216608819D01*
X176355618Y-216608819D02*
X176641332Y-216608819D01*
X176641332Y-216608819D02*
X176736570Y-216561200D01*
X176736570Y-216561200D02*
X176784189Y-216513580D01*
X296175280Y-110563499D02*
X296222900Y-110515880D01*
X296222900Y-110515880D02*
X296270519Y-110373023D01*
X296270519Y-110373023D02*
X296270519Y-110277785D01*
X296270519Y-110277785D02*
X296222900Y-110134928D01*
X296222900Y-110134928D02*
X296127661Y-110039690D01*
X296127661Y-110039690D02*
X296032423Y-109992071D01*
X296032423Y-109992071D02*
X295841947Y-109944452D01*
X295841947Y-109944452D02*
X295699090Y-109944452D01*
X295699090Y-109944452D02*
X295508614Y-109992071D01*
X295508614Y-109992071D02*
X295413376Y-110039690D01*
X295413376Y-110039690D02*
X295318138Y-110134928D01*
X295318138Y-110134928D02*
X295270519Y-110277785D01*
X295270519Y-110277785D02*
X295270519Y-110373023D01*
X295270519Y-110373023D02*
X295318138Y-110515880D01*
X295318138Y-110515880D02*
X295365757Y-110563499D01*
X296270519Y-111134928D02*
X296222900Y-111039690D01*
X296222900Y-111039690D02*
X296175280Y-110992071D01*
X296175280Y-110992071D02*
X296080042Y-110944452D01*
X296080042Y-110944452D02*
X295794328Y-110944452D01*
X295794328Y-110944452D02*
X295699090Y-110992071D01*
X295699090Y-110992071D02*
X295651471Y-111039690D01*
X295651471Y-111039690D02*
X295603852Y-111134928D01*
X295603852Y-111134928D02*
X295603852Y-111277785D01*
X295603852Y-111277785D02*
X295651471Y-111373023D01*
X295651471Y-111373023D02*
X295699090Y-111420642D01*
X295699090Y-111420642D02*
X295794328Y-111468261D01*
X295794328Y-111468261D02*
X296080042Y-111468261D01*
X296080042Y-111468261D02*
X296175280Y-111420642D01*
X296175280Y-111420642D02*
X296222900Y-111373023D01*
X296222900Y-111373023D02*
X296270519Y-111277785D01*
X296270519Y-111277785D02*
X296270519Y-111134928D01*
X295603852Y-111896833D02*
X296270519Y-111896833D01*
X295699090Y-111896833D02*
X295651471Y-111944452D01*
X295651471Y-111944452D02*
X295603852Y-112039690D01*
X295603852Y-112039690D02*
X295603852Y-112182547D01*
X295603852Y-112182547D02*
X295651471Y-112277785D01*
X295651471Y-112277785D02*
X295746709Y-112325404D01*
X295746709Y-112325404D02*
X296270519Y-112325404D01*
X295603852Y-112801595D02*
X296270519Y-112801595D01*
X295699090Y-112801595D02*
X295651471Y-112849214D01*
X295651471Y-112849214D02*
X295603852Y-112944452D01*
X295603852Y-112944452D02*
X295603852Y-113087309D01*
X295603852Y-113087309D02*
X295651471Y-113182547D01*
X295651471Y-113182547D02*
X295746709Y-113230166D01*
X295746709Y-113230166D02*
X296270519Y-113230166D01*
X296270519Y-114230166D02*
X296270519Y-113658738D01*
X296270519Y-113944452D02*
X295270519Y-113944452D01*
X295270519Y-113944452D02*
X295413376Y-113849214D01*
X295413376Y-113849214D02*
X295508614Y-113753976D01*
X295508614Y-113753976D02*
X295556233Y-113658738D01*
X296270519Y-114706357D02*
X296270519Y-114896833D01*
X296270519Y-114896833D02*
X296222900Y-114992071D01*
X296222900Y-114992071D02*
X296175280Y-115039690D01*
X296175280Y-115039690D02*
X296032423Y-115134928D01*
X296032423Y-115134928D02*
X295841947Y-115182547D01*
X295841947Y-115182547D02*
X295460995Y-115182547D01*
X295460995Y-115182547D02*
X295365757Y-115134928D01*
X295365757Y-115134928D02*
X295318138Y-115087309D01*
X295318138Y-115087309D02*
X295270519Y-114992071D01*
X295270519Y-114992071D02*
X295270519Y-114801595D01*
X295270519Y-114801595D02*
X295318138Y-114706357D01*
X295318138Y-114706357D02*
X295365757Y-114658738D01*
X295365757Y-114658738D02*
X295460995Y-114611119D01*
X295460995Y-114611119D02*
X295699090Y-114611119D01*
X295699090Y-114611119D02*
X295794328Y-114658738D01*
X295794328Y-114658738D02*
X295841947Y-114706357D01*
X295841947Y-114706357D02*
X295889566Y-114801595D01*
X295889566Y-114801595D02*
X295889566Y-114992071D01*
X295889566Y-114992071D02*
X295841947Y-115087309D01*
X295841947Y-115087309D02*
X295794328Y-115134928D01*
X295794328Y-115134928D02*
X295699090Y-115182547D01*
X179323809Y-150473580D02*
X179371428Y-150521200D01*
X179371428Y-150521200D02*
X179514285Y-150568819D01*
X179514285Y-150568819D02*
X179609523Y-150568819D01*
X179609523Y-150568819D02*
X179752380Y-150521200D01*
X179752380Y-150521200D02*
X179847618Y-150425961D01*
X179847618Y-150425961D02*
X179895237Y-150330723D01*
X179895237Y-150330723D02*
X179942856Y-150140247D01*
X179942856Y-150140247D02*
X179942856Y-149997390D01*
X179942856Y-149997390D02*
X179895237Y-149806914D01*
X179895237Y-149806914D02*
X179847618Y-149711676D01*
X179847618Y-149711676D02*
X179752380Y-149616438D01*
X179752380Y-149616438D02*
X179609523Y-149568819D01*
X179609523Y-149568819D02*
X179514285Y-149568819D01*
X179514285Y-149568819D02*
X179371428Y-149616438D01*
X179371428Y-149616438D02*
X179323809Y-149664057D01*
X178752380Y-150568819D02*
X178847618Y-150521200D01*
X178847618Y-150521200D02*
X178895237Y-150473580D01*
X178895237Y-150473580D02*
X178942856Y-150378342D01*
X178942856Y-150378342D02*
X178942856Y-150092628D01*
X178942856Y-150092628D02*
X178895237Y-149997390D01*
X178895237Y-149997390D02*
X178847618Y-149949771D01*
X178847618Y-149949771D02*
X178752380Y-149902152D01*
X178752380Y-149902152D02*
X178609523Y-149902152D01*
X178609523Y-149902152D02*
X178514285Y-149949771D01*
X178514285Y-149949771D02*
X178466666Y-149997390D01*
X178466666Y-149997390D02*
X178419047Y-150092628D01*
X178419047Y-150092628D02*
X178419047Y-150378342D01*
X178419047Y-150378342D02*
X178466666Y-150473580D01*
X178466666Y-150473580D02*
X178514285Y-150521200D01*
X178514285Y-150521200D02*
X178609523Y-150568819D01*
X178609523Y-150568819D02*
X178752380Y-150568819D01*
X177990475Y-149902152D02*
X177990475Y-150568819D01*
X177990475Y-149997390D02*
X177942856Y-149949771D01*
X177942856Y-149949771D02*
X177847618Y-149902152D01*
X177847618Y-149902152D02*
X177704761Y-149902152D01*
X177704761Y-149902152D02*
X177609523Y-149949771D01*
X177609523Y-149949771D02*
X177561904Y-150045009D01*
X177561904Y-150045009D02*
X177561904Y-150568819D01*
X177085713Y-149902152D02*
X177085713Y-150568819D01*
X177085713Y-149997390D02*
X177038094Y-149949771D01*
X177038094Y-149949771D02*
X176942856Y-149902152D01*
X176942856Y-149902152D02*
X176799999Y-149902152D01*
X176799999Y-149902152D02*
X176704761Y-149949771D01*
X176704761Y-149949771D02*
X176657142Y-150045009D01*
X176657142Y-150045009D02*
X176657142Y-150568819D01*
X176133332Y-150568819D02*
X175942856Y-150568819D01*
X175942856Y-150568819D02*
X175847618Y-150521200D01*
X175847618Y-150521200D02*
X175799999Y-150473580D01*
X175799999Y-150473580D02*
X175704761Y-150330723D01*
X175704761Y-150330723D02*
X175657142Y-150140247D01*
X175657142Y-150140247D02*
X175657142Y-149759295D01*
X175657142Y-149759295D02*
X175704761Y-149664057D01*
X175704761Y-149664057D02*
X175752380Y-149616438D01*
X175752380Y-149616438D02*
X175847618Y-149568819D01*
X175847618Y-149568819D02*
X176038094Y-149568819D01*
X176038094Y-149568819D02*
X176133332Y-149616438D01*
X176133332Y-149616438D02*
X176180951Y-149664057D01*
X176180951Y-149664057D02*
X176228570Y-149759295D01*
X176228570Y-149759295D02*
X176228570Y-149997390D01*
X176228570Y-149997390D02*
X176180951Y-150092628D01*
X176180951Y-150092628D02*
X176133332Y-150140247D01*
X176133332Y-150140247D02*
X176038094Y-150187866D01*
X176038094Y-150187866D02*
X175847618Y-150187866D01*
X175847618Y-150187866D02*
X175752380Y-150140247D01*
X175752380Y-150140247D02*
X175704761Y-150092628D01*
X175704761Y-150092628D02*
X175657142Y-149997390D01*
X349515280Y-110563499D02*
X349562900Y-110515880D01*
X349562900Y-110515880D02*
X349610519Y-110373023D01*
X349610519Y-110373023D02*
X349610519Y-110277785D01*
X349610519Y-110277785D02*
X349562900Y-110134928D01*
X349562900Y-110134928D02*
X349467661Y-110039690D01*
X349467661Y-110039690D02*
X349372423Y-109992071D01*
X349372423Y-109992071D02*
X349181947Y-109944452D01*
X349181947Y-109944452D02*
X349039090Y-109944452D01*
X349039090Y-109944452D02*
X348848614Y-109992071D01*
X348848614Y-109992071D02*
X348753376Y-110039690D01*
X348753376Y-110039690D02*
X348658138Y-110134928D01*
X348658138Y-110134928D02*
X348610519Y-110277785D01*
X348610519Y-110277785D02*
X348610519Y-110373023D01*
X348610519Y-110373023D02*
X348658138Y-110515880D01*
X348658138Y-110515880D02*
X348705757Y-110563499D01*
X349610519Y-111134928D02*
X349562900Y-111039690D01*
X349562900Y-111039690D02*
X349515280Y-110992071D01*
X349515280Y-110992071D02*
X349420042Y-110944452D01*
X349420042Y-110944452D02*
X349134328Y-110944452D01*
X349134328Y-110944452D02*
X349039090Y-110992071D01*
X349039090Y-110992071D02*
X348991471Y-111039690D01*
X348991471Y-111039690D02*
X348943852Y-111134928D01*
X348943852Y-111134928D02*
X348943852Y-111277785D01*
X348943852Y-111277785D02*
X348991471Y-111373023D01*
X348991471Y-111373023D02*
X349039090Y-111420642D01*
X349039090Y-111420642D02*
X349134328Y-111468261D01*
X349134328Y-111468261D02*
X349420042Y-111468261D01*
X349420042Y-111468261D02*
X349515280Y-111420642D01*
X349515280Y-111420642D02*
X349562900Y-111373023D01*
X349562900Y-111373023D02*
X349610519Y-111277785D01*
X349610519Y-111277785D02*
X349610519Y-111134928D01*
X348943852Y-111896833D02*
X349610519Y-111896833D01*
X349039090Y-111896833D02*
X348991471Y-111944452D01*
X348991471Y-111944452D02*
X348943852Y-112039690D01*
X348943852Y-112039690D02*
X348943852Y-112182547D01*
X348943852Y-112182547D02*
X348991471Y-112277785D01*
X348991471Y-112277785D02*
X349086709Y-112325404D01*
X349086709Y-112325404D02*
X349610519Y-112325404D01*
X348943852Y-112801595D02*
X349610519Y-112801595D01*
X349039090Y-112801595D02*
X348991471Y-112849214D01*
X348991471Y-112849214D02*
X348943852Y-112944452D01*
X348943852Y-112944452D02*
X348943852Y-113087309D01*
X348943852Y-113087309D02*
X348991471Y-113182547D01*
X348991471Y-113182547D02*
X349086709Y-113230166D01*
X349086709Y-113230166D02*
X349610519Y-113230166D01*
X349610519Y-114230166D02*
X349610519Y-113658738D01*
X349610519Y-113944452D02*
X348610519Y-113944452D01*
X348610519Y-113944452D02*
X348753376Y-113849214D01*
X348753376Y-113849214D02*
X348848614Y-113753976D01*
X348848614Y-113753976D02*
X348896233Y-113658738D01*
X348610519Y-114849214D02*
X348610519Y-114944452D01*
X348610519Y-114944452D02*
X348658138Y-115039690D01*
X348658138Y-115039690D02*
X348705757Y-115087309D01*
X348705757Y-115087309D02*
X348800995Y-115134928D01*
X348800995Y-115134928D02*
X348991471Y-115182547D01*
X348991471Y-115182547D02*
X349229566Y-115182547D01*
X349229566Y-115182547D02*
X349420042Y-115134928D01*
X349420042Y-115134928D02*
X349515280Y-115087309D01*
X349515280Y-115087309D02*
X349562900Y-115039690D01*
X349562900Y-115039690D02*
X349610519Y-114944452D01*
X349610519Y-114944452D02*
X349610519Y-114849214D01*
X349610519Y-114849214D02*
X349562900Y-114753976D01*
X349562900Y-114753976D02*
X349515280Y-114706357D01*
X349515280Y-114706357D02*
X349420042Y-114658738D01*
X349420042Y-114658738D02*
X349229566Y-114611119D01*
X349229566Y-114611119D02*
X348991471Y-114611119D01*
X348991471Y-114611119D02*
X348800995Y-114658738D01*
X348800995Y-114658738D02*
X348705757Y-114706357D01*
X348705757Y-114706357D02*
X348658138Y-114753976D01*
X348658138Y-114753976D02*
X348610519Y-114849214D01*
X331735280Y-110563499D02*
X331782900Y-110515880D01*
X331782900Y-110515880D02*
X331830519Y-110373023D01*
X331830519Y-110373023D02*
X331830519Y-110277785D01*
X331830519Y-110277785D02*
X331782900Y-110134928D01*
X331782900Y-110134928D02*
X331687661Y-110039690D01*
X331687661Y-110039690D02*
X331592423Y-109992071D01*
X331592423Y-109992071D02*
X331401947Y-109944452D01*
X331401947Y-109944452D02*
X331259090Y-109944452D01*
X331259090Y-109944452D02*
X331068614Y-109992071D01*
X331068614Y-109992071D02*
X330973376Y-110039690D01*
X330973376Y-110039690D02*
X330878138Y-110134928D01*
X330878138Y-110134928D02*
X330830519Y-110277785D01*
X330830519Y-110277785D02*
X330830519Y-110373023D01*
X330830519Y-110373023D02*
X330878138Y-110515880D01*
X330878138Y-110515880D02*
X330925757Y-110563499D01*
X331830519Y-111134928D02*
X331782900Y-111039690D01*
X331782900Y-111039690D02*
X331735280Y-110992071D01*
X331735280Y-110992071D02*
X331640042Y-110944452D01*
X331640042Y-110944452D02*
X331354328Y-110944452D01*
X331354328Y-110944452D02*
X331259090Y-110992071D01*
X331259090Y-110992071D02*
X331211471Y-111039690D01*
X331211471Y-111039690D02*
X331163852Y-111134928D01*
X331163852Y-111134928D02*
X331163852Y-111277785D01*
X331163852Y-111277785D02*
X331211471Y-111373023D01*
X331211471Y-111373023D02*
X331259090Y-111420642D01*
X331259090Y-111420642D02*
X331354328Y-111468261D01*
X331354328Y-111468261D02*
X331640042Y-111468261D01*
X331640042Y-111468261D02*
X331735280Y-111420642D01*
X331735280Y-111420642D02*
X331782900Y-111373023D01*
X331782900Y-111373023D02*
X331830519Y-111277785D01*
X331830519Y-111277785D02*
X331830519Y-111134928D01*
X331163852Y-111896833D02*
X331830519Y-111896833D01*
X331259090Y-111896833D02*
X331211471Y-111944452D01*
X331211471Y-111944452D02*
X331163852Y-112039690D01*
X331163852Y-112039690D02*
X331163852Y-112182547D01*
X331163852Y-112182547D02*
X331211471Y-112277785D01*
X331211471Y-112277785D02*
X331306709Y-112325404D01*
X331306709Y-112325404D02*
X331830519Y-112325404D01*
X331163852Y-112801595D02*
X331830519Y-112801595D01*
X331259090Y-112801595D02*
X331211471Y-112849214D01*
X331211471Y-112849214D02*
X331163852Y-112944452D01*
X331163852Y-112944452D02*
X331163852Y-113087309D01*
X331163852Y-113087309D02*
X331211471Y-113182547D01*
X331211471Y-113182547D02*
X331306709Y-113230166D01*
X331306709Y-113230166D02*
X331830519Y-113230166D01*
X331830519Y-114230166D02*
X331830519Y-113658738D01*
X331830519Y-113944452D02*
X330830519Y-113944452D01*
X330830519Y-113944452D02*
X330973376Y-113849214D01*
X330973376Y-113849214D02*
X331068614Y-113753976D01*
X331068614Y-113753976D02*
X331116233Y-113658738D01*
X330830519Y-114563500D02*
X330830519Y-115230166D01*
X330830519Y-115230166D02*
X331830519Y-114801595D01*
X368179809Y-188483280D02*
X368227428Y-188530900D01*
X368227428Y-188530900D02*
X368370285Y-188578519D01*
X368370285Y-188578519D02*
X368465523Y-188578519D01*
X368465523Y-188578519D02*
X368608380Y-188530900D01*
X368608380Y-188530900D02*
X368703618Y-188435661D01*
X368703618Y-188435661D02*
X368751237Y-188340423D01*
X368751237Y-188340423D02*
X368798856Y-188149947D01*
X368798856Y-188149947D02*
X368798856Y-188007090D01*
X368798856Y-188007090D02*
X368751237Y-187816614D01*
X368751237Y-187816614D02*
X368703618Y-187721376D01*
X368703618Y-187721376D02*
X368608380Y-187626138D01*
X368608380Y-187626138D02*
X368465523Y-187578519D01*
X368465523Y-187578519D02*
X368370285Y-187578519D01*
X368370285Y-187578519D02*
X368227428Y-187626138D01*
X368227428Y-187626138D02*
X368179809Y-187673757D01*
X367608380Y-188578519D02*
X367703618Y-188530900D01*
X367703618Y-188530900D02*
X367751237Y-188483280D01*
X367751237Y-188483280D02*
X367798856Y-188388042D01*
X367798856Y-188388042D02*
X367798856Y-188102328D01*
X367798856Y-188102328D02*
X367751237Y-188007090D01*
X367751237Y-188007090D02*
X367703618Y-187959471D01*
X367703618Y-187959471D02*
X367608380Y-187911852D01*
X367608380Y-187911852D02*
X367465523Y-187911852D01*
X367465523Y-187911852D02*
X367370285Y-187959471D01*
X367370285Y-187959471D02*
X367322666Y-188007090D01*
X367322666Y-188007090D02*
X367275047Y-188102328D01*
X367275047Y-188102328D02*
X367275047Y-188388042D01*
X367275047Y-188388042D02*
X367322666Y-188483280D01*
X367322666Y-188483280D02*
X367370285Y-188530900D01*
X367370285Y-188530900D02*
X367465523Y-188578519D01*
X367465523Y-188578519D02*
X367608380Y-188578519D01*
X366846475Y-187911852D02*
X366846475Y-188578519D01*
X366846475Y-188007090D02*
X366798856Y-187959471D01*
X366798856Y-187959471D02*
X366703618Y-187911852D01*
X366703618Y-187911852D02*
X366560761Y-187911852D01*
X366560761Y-187911852D02*
X366465523Y-187959471D01*
X366465523Y-187959471D02*
X366417904Y-188054709D01*
X366417904Y-188054709D02*
X366417904Y-188578519D01*
X365941713Y-187911852D02*
X365941713Y-188578519D01*
X365941713Y-188007090D02*
X365894094Y-187959471D01*
X365894094Y-187959471D02*
X365798856Y-187911852D01*
X365798856Y-187911852D02*
X365655999Y-187911852D01*
X365655999Y-187911852D02*
X365560761Y-187959471D01*
X365560761Y-187959471D02*
X365513142Y-188054709D01*
X365513142Y-188054709D02*
X365513142Y-188578519D01*
X364608380Y-187578519D02*
X364798856Y-187578519D01*
X364798856Y-187578519D02*
X364894094Y-187626138D01*
X364894094Y-187626138D02*
X364941713Y-187673757D01*
X364941713Y-187673757D02*
X365036951Y-187816614D01*
X365036951Y-187816614D02*
X365084570Y-188007090D01*
X365084570Y-188007090D02*
X365084570Y-188388042D01*
X365084570Y-188388042D02*
X365036951Y-188483280D01*
X365036951Y-188483280D02*
X364989332Y-188530900D01*
X364989332Y-188530900D02*
X364894094Y-188578519D01*
X364894094Y-188578519D02*
X364703618Y-188578519D01*
X364703618Y-188578519D02*
X364608380Y-188530900D01*
X364608380Y-188530900D02*
X364560761Y-188483280D01*
X364560761Y-188483280D02*
X364513142Y-188388042D01*
X364513142Y-188388042D02*
X364513142Y-188149947D01*
X364513142Y-188149947D02*
X364560761Y-188054709D01*
X364560761Y-188054709D02*
X364608380Y-188007090D01*
X364608380Y-188007090D02*
X364703618Y-187959471D01*
X364703618Y-187959471D02*
X364894094Y-187959471D01*
X364894094Y-187959471D02*
X364989332Y-188007090D01*
X364989332Y-188007090D02*
X365036951Y-188054709D01*
X365036951Y-188054709D02*
X365084570Y-188149947D01*
X179506309Y-128341880D02*
X179553928Y-128389500D01*
X179553928Y-128389500D02*
X179696785Y-128437119D01*
X179696785Y-128437119D02*
X179792023Y-128437119D01*
X179792023Y-128437119D02*
X179934880Y-128389500D01*
X179934880Y-128389500D02*
X180030118Y-128294261D01*
X180030118Y-128294261D02*
X180077737Y-128199023D01*
X180077737Y-128199023D02*
X180125356Y-128008547D01*
X180125356Y-128008547D02*
X180125356Y-127865690D01*
X180125356Y-127865690D02*
X180077737Y-127675214D01*
X180077737Y-127675214D02*
X180030118Y-127579976D01*
X180030118Y-127579976D02*
X179934880Y-127484738D01*
X179934880Y-127484738D02*
X179792023Y-127437119D01*
X179792023Y-127437119D02*
X179696785Y-127437119D01*
X179696785Y-127437119D02*
X179553928Y-127484738D01*
X179553928Y-127484738D02*
X179506309Y-127532357D01*
X178934880Y-128437119D02*
X179030118Y-128389500D01*
X179030118Y-128389500D02*
X179077737Y-128341880D01*
X179077737Y-128341880D02*
X179125356Y-128246642D01*
X179125356Y-128246642D02*
X179125356Y-127960928D01*
X179125356Y-127960928D02*
X179077737Y-127865690D01*
X179077737Y-127865690D02*
X179030118Y-127818071D01*
X179030118Y-127818071D02*
X178934880Y-127770452D01*
X178934880Y-127770452D02*
X178792023Y-127770452D01*
X178792023Y-127770452D02*
X178696785Y-127818071D01*
X178696785Y-127818071D02*
X178649166Y-127865690D01*
X178649166Y-127865690D02*
X178601547Y-127960928D01*
X178601547Y-127960928D02*
X178601547Y-128246642D01*
X178601547Y-128246642D02*
X178649166Y-128341880D01*
X178649166Y-128341880D02*
X178696785Y-128389500D01*
X178696785Y-128389500D02*
X178792023Y-128437119D01*
X178792023Y-128437119D02*
X178934880Y-128437119D01*
X178172975Y-127770452D02*
X178172975Y-128437119D01*
X178172975Y-127865690D02*
X178125356Y-127818071D01*
X178125356Y-127818071D02*
X178030118Y-127770452D01*
X178030118Y-127770452D02*
X177887261Y-127770452D01*
X177887261Y-127770452D02*
X177792023Y-127818071D01*
X177792023Y-127818071D02*
X177744404Y-127913309D01*
X177744404Y-127913309D02*
X177744404Y-128437119D01*
X177268213Y-127770452D02*
X177268213Y-128437119D01*
X177268213Y-127865690D02*
X177220594Y-127818071D01*
X177220594Y-127818071D02*
X177125356Y-127770452D01*
X177125356Y-127770452D02*
X176982499Y-127770452D01*
X176982499Y-127770452D02*
X176887261Y-127818071D01*
X176887261Y-127818071D02*
X176839642Y-127913309D01*
X176839642Y-127913309D02*
X176839642Y-128437119D01*
X176220594Y-127865690D02*
X176315832Y-127818071D01*
X176315832Y-127818071D02*
X176363451Y-127770452D01*
X176363451Y-127770452D02*
X176411070Y-127675214D01*
X176411070Y-127675214D02*
X176411070Y-127627595D01*
X176411070Y-127627595D02*
X176363451Y-127532357D01*
X176363451Y-127532357D02*
X176315832Y-127484738D01*
X176315832Y-127484738D02*
X176220594Y-127437119D01*
X176220594Y-127437119D02*
X176030118Y-127437119D01*
X176030118Y-127437119D02*
X175934880Y-127484738D01*
X175934880Y-127484738D02*
X175887261Y-127532357D01*
X175887261Y-127532357D02*
X175839642Y-127627595D01*
X175839642Y-127627595D02*
X175839642Y-127675214D01*
X175839642Y-127675214D02*
X175887261Y-127770452D01*
X175887261Y-127770452D02*
X175934880Y-127818071D01*
X175934880Y-127818071D02*
X176030118Y-127865690D01*
X176030118Y-127865690D02*
X176220594Y-127865690D01*
X176220594Y-127865690D02*
X176315832Y-127913309D01*
X176315832Y-127913309D02*
X176363451Y-127960928D01*
X176363451Y-127960928D02*
X176411070Y-128056166D01*
X176411070Y-128056166D02*
X176411070Y-128246642D01*
X176411070Y-128246642D02*
X176363451Y-128341880D01*
X176363451Y-128341880D02*
X176315832Y-128389500D01*
X176315832Y-128389500D02*
X176220594Y-128437119D01*
X176220594Y-128437119D02*
X176030118Y-128437119D01*
X176030118Y-128437119D02*
X175934880Y-128389500D01*
X175934880Y-128389500D02*
X175887261Y-128341880D01*
X175887261Y-128341880D02*
X175839642Y-128246642D01*
X175839642Y-128246642D02*
X175839642Y-128056166D01*
X175839642Y-128056166D02*
X175887261Y-127960928D01*
X175887261Y-127960928D02*
X175934880Y-127913309D01*
X175934880Y-127913309D02*
X176030118Y-127865690D01*
X179572309Y-173423880D02*
X179619928Y-173471500D01*
X179619928Y-173471500D02*
X179762785Y-173519119D01*
X179762785Y-173519119D02*
X179858023Y-173519119D01*
X179858023Y-173519119D02*
X180000880Y-173471500D01*
X180000880Y-173471500D02*
X180096118Y-173376261D01*
X180096118Y-173376261D02*
X180143737Y-173281023D01*
X180143737Y-173281023D02*
X180191356Y-173090547D01*
X180191356Y-173090547D02*
X180191356Y-172947690D01*
X180191356Y-172947690D02*
X180143737Y-172757214D01*
X180143737Y-172757214D02*
X180096118Y-172661976D01*
X180096118Y-172661976D02*
X180000880Y-172566738D01*
X180000880Y-172566738D02*
X179858023Y-172519119D01*
X179858023Y-172519119D02*
X179762785Y-172519119D01*
X179762785Y-172519119D02*
X179619928Y-172566738D01*
X179619928Y-172566738D02*
X179572309Y-172614357D01*
X179000880Y-173519119D02*
X179096118Y-173471500D01*
X179096118Y-173471500D02*
X179143737Y-173423880D01*
X179143737Y-173423880D02*
X179191356Y-173328642D01*
X179191356Y-173328642D02*
X179191356Y-173042928D01*
X179191356Y-173042928D02*
X179143737Y-172947690D01*
X179143737Y-172947690D02*
X179096118Y-172900071D01*
X179096118Y-172900071D02*
X179000880Y-172852452D01*
X179000880Y-172852452D02*
X178858023Y-172852452D01*
X178858023Y-172852452D02*
X178762785Y-172900071D01*
X178762785Y-172900071D02*
X178715166Y-172947690D01*
X178715166Y-172947690D02*
X178667547Y-173042928D01*
X178667547Y-173042928D02*
X178667547Y-173328642D01*
X178667547Y-173328642D02*
X178715166Y-173423880D01*
X178715166Y-173423880D02*
X178762785Y-173471500D01*
X178762785Y-173471500D02*
X178858023Y-173519119D01*
X178858023Y-173519119D02*
X179000880Y-173519119D01*
X178238975Y-172852452D02*
X178238975Y-173519119D01*
X178238975Y-172947690D02*
X178191356Y-172900071D01*
X178191356Y-172900071D02*
X178096118Y-172852452D01*
X178096118Y-172852452D02*
X177953261Y-172852452D01*
X177953261Y-172852452D02*
X177858023Y-172900071D01*
X177858023Y-172900071D02*
X177810404Y-172995309D01*
X177810404Y-172995309D02*
X177810404Y-173519119D01*
X177334213Y-172852452D02*
X177334213Y-173519119D01*
X177334213Y-172947690D02*
X177286594Y-172900071D01*
X177286594Y-172900071D02*
X177191356Y-172852452D01*
X177191356Y-172852452D02*
X177048499Y-172852452D01*
X177048499Y-172852452D02*
X176953261Y-172900071D01*
X176953261Y-172900071D02*
X176905642Y-172995309D01*
X176905642Y-172995309D02*
X176905642Y-173519119D01*
X175905642Y-173519119D02*
X176477070Y-173519119D01*
X176191356Y-173519119D02*
X176191356Y-172519119D01*
X176191356Y-172519119D02*
X176286594Y-172661976D01*
X176286594Y-172661976D02*
X176381832Y-172757214D01*
X176381832Y-172757214D02*
X176477070Y-172804833D01*
X278395280Y-110563499D02*
X278442900Y-110515880D01*
X278442900Y-110515880D02*
X278490519Y-110373023D01*
X278490519Y-110373023D02*
X278490519Y-110277785D01*
X278490519Y-110277785D02*
X278442900Y-110134928D01*
X278442900Y-110134928D02*
X278347661Y-110039690D01*
X278347661Y-110039690D02*
X278252423Y-109992071D01*
X278252423Y-109992071D02*
X278061947Y-109944452D01*
X278061947Y-109944452D02*
X277919090Y-109944452D01*
X277919090Y-109944452D02*
X277728614Y-109992071D01*
X277728614Y-109992071D02*
X277633376Y-110039690D01*
X277633376Y-110039690D02*
X277538138Y-110134928D01*
X277538138Y-110134928D02*
X277490519Y-110277785D01*
X277490519Y-110277785D02*
X277490519Y-110373023D01*
X277490519Y-110373023D02*
X277538138Y-110515880D01*
X277538138Y-110515880D02*
X277585757Y-110563499D01*
X278490519Y-111134928D02*
X278442900Y-111039690D01*
X278442900Y-111039690D02*
X278395280Y-110992071D01*
X278395280Y-110992071D02*
X278300042Y-110944452D01*
X278300042Y-110944452D02*
X278014328Y-110944452D01*
X278014328Y-110944452D02*
X277919090Y-110992071D01*
X277919090Y-110992071D02*
X277871471Y-111039690D01*
X277871471Y-111039690D02*
X277823852Y-111134928D01*
X277823852Y-111134928D02*
X277823852Y-111277785D01*
X277823852Y-111277785D02*
X277871471Y-111373023D01*
X277871471Y-111373023D02*
X277919090Y-111420642D01*
X277919090Y-111420642D02*
X278014328Y-111468261D01*
X278014328Y-111468261D02*
X278300042Y-111468261D01*
X278300042Y-111468261D02*
X278395280Y-111420642D01*
X278395280Y-111420642D02*
X278442900Y-111373023D01*
X278442900Y-111373023D02*
X278490519Y-111277785D01*
X278490519Y-111277785D02*
X278490519Y-111134928D01*
X277823852Y-111896833D02*
X278490519Y-111896833D01*
X277919090Y-111896833D02*
X277871471Y-111944452D01*
X277871471Y-111944452D02*
X277823852Y-112039690D01*
X277823852Y-112039690D02*
X277823852Y-112182547D01*
X277823852Y-112182547D02*
X277871471Y-112277785D01*
X277871471Y-112277785D02*
X277966709Y-112325404D01*
X277966709Y-112325404D02*
X278490519Y-112325404D01*
X277823852Y-112801595D02*
X278490519Y-112801595D01*
X277919090Y-112801595D02*
X277871471Y-112849214D01*
X277871471Y-112849214D02*
X277823852Y-112944452D01*
X277823852Y-112944452D02*
X277823852Y-113087309D01*
X277823852Y-113087309D02*
X277871471Y-113182547D01*
X277871471Y-113182547D02*
X277966709Y-113230166D01*
X277966709Y-113230166D02*
X278490519Y-113230166D01*
X278490519Y-114230166D02*
X278490519Y-113658738D01*
X278490519Y-113944452D02*
X277490519Y-113944452D01*
X277490519Y-113944452D02*
X277633376Y-113849214D01*
X277633376Y-113849214D02*
X277728614Y-113753976D01*
X277728614Y-113753976D02*
X277776233Y-113658738D01*
X277490519Y-115087309D02*
X277490519Y-114896833D01*
X277490519Y-114896833D02*
X277538138Y-114801595D01*
X277538138Y-114801595D02*
X277585757Y-114753976D01*
X277585757Y-114753976D02*
X277728614Y-114658738D01*
X277728614Y-114658738D02*
X277919090Y-114611119D01*
X277919090Y-114611119D02*
X278300042Y-114611119D01*
X278300042Y-114611119D02*
X278395280Y-114658738D01*
X278395280Y-114658738D02*
X278442900Y-114706357D01*
X278442900Y-114706357D02*
X278490519Y-114801595D01*
X278490519Y-114801595D02*
X278490519Y-114992071D01*
X278490519Y-114992071D02*
X278442900Y-115087309D01*
X278442900Y-115087309D02*
X278395280Y-115134928D01*
X278395280Y-115134928D02*
X278300042Y-115182547D01*
X278300042Y-115182547D02*
X278061947Y-115182547D01*
X278061947Y-115182547D02*
X277966709Y-115134928D01*
X277966709Y-115134928D02*
X277919090Y-115087309D01*
X277919090Y-115087309D02*
X277871471Y-114992071D01*
X277871471Y-114992071D02*
X277871471Y-114801595D01*
X277871471Y-114801595D02*
X277919090Y-114706357D01*
X277919090Y-114706357D02*
X277966709Y-114658738D01*
X277966709Y-114658738D02*
X278061947Y-114611119D01*
X366379809Y-166893280D02*
X366427428Y-166940900D01*
X366427428Y-166940900D02*
X366570285Y-166988519D01*
X366570285Y-166988519D02*
X366665523Y-166988519D01*
X366665523Y-166988519D02*
X366808380Y-166940900D01*
X366808380Y-166940900D02*
X366903618Y-166845661D01*
X366903618Y-166845661D02*
X366951237Y-166750423D01*
X366951237Y-166750423D02*
X366998856Y-166559947D01*
X366998856Y-166559947D02*
X366998856Y-166417090D01*
X366998856Y-166417090D02*
X366951237Y-166226614D01*
X366951237Y-166226614D02*
X366903618Y-166131376D01*
X366903618Y-166131376D02*
X366808380Y-166036138D01*
X366808380Y-166036138D02*
X366665523Y-165988519D01*
X366665523Y-165988519D02*
X366570285Y-165988519D01*
X366570285Y-165988519D02*
X366427428Y-166036138D01*
X366427428Y-166036138D02*
X366379809Y-166083757D01*
X365808380Y-166988519D02*
X365903618Y-166940900D01*
X365903618Y-166940900D02*
X365951237Y-166893280D01*
X365951237Y-166893280D02*
X365998856Y-166798042D01*
X365998856Y-166798042D02*
X365998856Y-166512328D01*
X365998856Y-166512328D02*
X365951237Y-166417090D01*
X365951237Y-166417090D02*
X365903618Y-166369471D01*
X365903618Y-166369471D02*
X365808380Y-166321852D01*
X365808380Y-166321852D02*
X365665523Y-166321852D01*
X365665523Y-166321852D02*
X365570285Y-166369471D01*
X365570285Y-166369471D02*
X365522666Y-166417090D01*
X365522666Y-166417090D02*
X365475047Y-166512328D01*
X365475047Y-166512328D02*
X365475047Y-166798042D01*
X365475047Y-166798042D02*
X365522666Y-166893280D01*
X365522666Y-166893280D02*
X365570285Y-166940900D01*
X365570285Y-166940900D02*
X365665523Y-166988519D01*
X365665523Y-166988519D02*
X365808380Y-166988519D01*
X365046475Y-166321852D02*
X365046475Y-166988519D01*
X365046475Y-166417090D02*
X364998856Y-166369471D01*
X364998856Y-166369471D02*
X364903618Y-166321852D01*
X364903618Y-166321852D02*
X364760761Y-166321852D01*
X364760761Y-166321852D02*
X364665523Y-166369471D01*
X364665523Y-166369471D02*
X364617904Y-166464709D01*
X364617904Y-166464709D02*
X364617904Y-166988519D01*
X364141713Y-166321852D02*
X364141713Y-166988519D01*
X364141713Y-166417090D02*
X364094094Y-166369471D01*
X364094094Y-166369471D02*
X363998856Y-166321852D01*
X363998856Y-166321852D02*
X363855999Y-166321852D01*
X363855999Y-166321852D02*
X363760761Y-166369471D01*
X363760761Y-166369471D02*
X363713142Y-166464709D01*
X363713142Y-166464709D02*
X363713142Y-166988519D01*
X363332189Y-165988519D02*
X362665523Y-165988519D01*
X362665523Y-165988519D02*
X363094094Y-166988519D01*
X261127280Y-110309499D02*
X261174900Y-110261880D01*
X261174900Y-110261880D02*
X261222519Y-110119023D01*
X261222519Y-110119023D02*
X261222519Y-110023785D01*
X261222519Y-110023785D02*
X261174900Y-109880928D01*
X261174900Y-109880928D02*
X261079661Y-109785690D01*
X261079661Y-109785690D02*
X260984423Y-109738071D01*
X260984423Y-109738071D02*
X260793947Y-109690452D01*
X260793947Y-109690452D02*
X260651090Y-109690452D01*
X260651090Y-109690452D02*
X260460614Y-109738071D01*
X260460614Y-109738071D02*
X260365376Y-109785690D01*
X260365376Y-109785690D02*
X260270138Y-109880928D01*
X260270138Y-109880928D02*
X260222519Y-110023785D01*
X260222519Y-110023785D02*
X260222519Y-110119023D01*
X260222519Y-110119023D02*
X260270138Y-110261880D01*
X260270138Y-110261880D02*
X260317757Y-110309499D01*
X261222519Y-110880928D02*
X261174900Y-110785690D01*
X261174900Y-110785690D02*
X261127280Y-110738071D01*
X261127280Y-110738071D02*
X261032042Y-110690452D01*
X261032042Y-110690452D02*
X260746328Y-110690452D01*
X260746328Y-110690452D02*
X260651090Y-110738071D01*
X260651090Y-110738071D02*
X260603471Y-110785690D01*
X260603471Y-110785690D02*
X260555852Y-110880928D01*
X260555852Y-110880928D02*
X260555852Y-111023785D01*
X260555852Y-111023785D02*
X260603471Y-111119023D01*
X260603471Y-111119023D02*
X260651090Y-111166642D01*
X260651090Y-111166642D02*
X260746328Y-111214261D01*
X260746328Y-111214261D02*
X261032042Y-111214261D01*
X261032042Y-111214261D02*
X261127280Y-111166642D01*
X261127280Y-111166642D02*
X261174900Y-111119023D01*
X261174900Y-111119023D02*
X261222519Y-111023785D01*
X261222519Y-111023785D02*
X261222519Y-110880928D01*
X260555852Y-111642833D02*
X261222519Y-111642833D01*
X260651090Y-111642833D02*
X260603471Y-111690452D01*
X260603471Y-111690452D02*
X260555852Y-111785690D01*
X260555852Y-111785690D02*
X260555852Y-111928547D01*
X260555852Y-111928547D02*
X260603471Y-112023785D01*
X260603471Y-112023785D02*
X260698709Y-112071404D01*
X260698709Y-112071404D02*
X261222519Y-112071404D01*
X260555852Y-112547595D02*
X261222519Y-112547595D01*
X260651090Y-112547595D02*
X260603471Y-112595214D01*
X260603471Y-112595214D02*
X260555852Y-112690452D01*
X260555852Y-112690452D02*
X260555852Y-112833309D01*
X260555852Y-112833309D02*
X260603471Y-112928547D01*
X260603471Y-112928547D02*
X260698709Y-112976166D01*
X260698709Y-112976166D02*
X261222519Y-112976166D01*
X261222519Y-113976166D02*
X261222519Y-113404738D01*
X261222519Y-113690452D02*
X260222519Y-113690452D01*
X260222519Y-113690452D02*
X260365376Y-113595214D01*
X260365376Y-113595214D02*
X260460614Y-113499976D01*
X260460614Y-113499976D02*
X260508233Y-113404738D01*
X260317757Y-114357119D02*
X260270138Y-114404738D01*
X260270138Y-114404738D02*
X260222519Y-114499976D01*
X260222519Y-114499976D02*
X260222519Y-114738071D01*
X260222519Y-114738071D02*
X260270138Y-114833309D01*
X260270138Y-114833309D02*
X260317757Y-114880928D01*
X260317757Y-114880928D02*
X260412995Y-114928547D01*
X260412995Y-114928547D02*
X260508233Y-114928547D01*
X260508233Y-114928547D02*
X260651090Y-114880928D01*
X260651090Y-114880928D02*
X261222519Y-114309500D01*
X261222519Y-114309500D02*
X261222519Y-114928547D01*
X244731580Y-110513999D02*
X244779200Y-110466380D01*
X244779200Y-110466380D02*
X244826819Y-110323523D01*
X244826819Y-110323523D02*
X244826819Y-110228285D01*
X244826819Y-110228285D02*
X244779200Y-110085428D01*
X244779200Y-110085428D02*
X244683961Y-109990190D01*
X244683961Y-109990190D02*
X244588723Y-109942571D01*
X244588723Y-109942571D02*
X244398247Y-109894952D01*
X244398247Y-109894952D02*
X244255390Y-109894952D01*
X244255390Y-109894952D02*
X244064914Y-109942571D01*
X244064914Y-109942571D02*
X243969676Y-109990190D01*
X243969676Y-109990190D02*
X243874438Y-110085428D01*
X243874438Y-110085428D02*
X243826819Y-110228285D01*
X243826819Y-110228285D02*
X243826819Y-110323523D01*
X243826819Y-110323523D02*
X243874438Y-110466380D01*
X243874438Y-110466380D02*
X243922057Y-110513999D01*
X244826819Y-111085428D02*
X244779200Y-110990190D01*
X244779200Y-110990190D02*
X244731580Y-110942571D01*
X244731580Y-110942571D02*
X244636342Y-110894952D01*
X244636342Y-110894952D02*
X244350628Y-110894952D01*
X244350628Y-110894952D02*
X244255390Y-110942571D01*
X244255390Y-110942571D02*
X244207771Y-110990190D01*
X244207771Y-110990190D02*
X244160152Y-111085428D01*
X244160152Y-111085428D02*
X244160152Y-111228285D01*
X244160152Y-111228285D02*
X244207771Y-111323523D01*
X244207771Y-111323523D02*
X244255390Y-111371142D01*
X244255390Y-111371142D02*
X244350628Y-111418761D01*
X244350628Y-111418761D02*
X244636342Y-111418761D01*
X244636342Y-111418761D02*
X244731580Y-111371142D01*
X244731580Y-111371142D02*
X244779200Y-111323523D01*
X244779200Y-111323523D02*
X244826819Y-111228285D01*
X244826819Y-111228285D02*
X244826819Y-111085428D01*
X244160152Y-111847333D02*
X244826819Y-111847333D01*
X244255390Y-111847333D02*
X244207771Y-111894952D01*
X244207771Y-111894952D02*
X244160152Y-111990190D01*
X244160152Y-111990190D02*
X244160152Y-112133047D01*
X244160152Y-112133047D02*
X244207771Y-112228285D01*
X244207771Y-112228285D02*
X244303009Y-112275904D01*
X244303009Y-112275904D02*
X244826819Y-112275904D01*
X244160152Y-112752095D02*
X244826819Y-112752095D01*
X244255390Y-112752095D02*
X244207771Y-112799714D01*
X244207771Y-112799714D02*
X244160152Y-112894952D01*
X244160152Y-112894952D02*
X244160152Y-113037809D01*
X244160152Y-113037809D02*
X244207771Y-113133047D01*
X244207771Y-113133047D02*
X244303009Y-113180666D01*
X244303009Y-113180666D02*
X244826819Y-113180666D01*
X244826819Y-114180666D02*
X244826819Y-113609238D01*
X244826819Y-113894952D02*
X243826819Y-113894952D01*
X243826819Y-113894952D02*
X243969676Y-113799714D01*
X243969676Y-113799714D02*
X244064914Y-113704476D01*
X244064914Y-113704476D02*
X244112533Y-113609238D01*
X244160152Y-115037809D02*
X244826819Y-115037809D01*
X243779200Y-114799714D02*
X244493485Y-114561619D01*
X244493485Y-114561619D02*
X244493485Y-115180666D01*
X211687580Y-110493999D02*
X211735200Y-110446380D01*
X211735200Y-110446380D02*
X211782819Y-110303523D01*
X211782819Y-110303523D02*
X211782819Y-110208285D01*
X211782819Y-110208285D02*
X211735200Y-110065428D01*
X211735200Y-110065428D02*
X211639961Y-109970190D01*
X211639961Y-109970190D02*
X211544723Y-109922571D01*
X211544723Y-109922571D02*
X211354247Y-109874952D01*
X211354247Y-109874952D02*
X211211390Y-109874952D01*
X211211390Y-109874952D02*
X211020914Y-109922571D01*
X211020914Y-109922571D02*
X210925676Y-109970190D01*
X210925676Y-109970190D02*
X210830438Y-110065428D01*
X210830438Y-110065428D02*
X210782819Y-110208285D01*
X210782819Y-110208285D02*
X210782819Y-110303523D01*
X210782819Y-110303523D02*
X210830438Y-110446380D01*
X210830438Y-110446380D02*
X210878057Y-110493999D01*
X211782819Y-111065428D02*
X211735200Y-110970190D01*
X211735200Y-110970190D02*
X211687580Y-110922571D01*
X211687580Y-110922571D02*
X211592342Y-110874952D01*
X211592342Y-110874952D02*
X211306628Y-110874952D01*
X211306628Y-110874952D02*
X211211390Y-110922571D01*
X211211390Y-110922571D02*
X211163771Y-110970190D01*
X211163771Y-110970190D02*
X211116152Y-111065428D01*
X211116152Y-111065428D02*
X211116152Y-111208285D01*
X211116152Y-111208285D02*
X211163771Y-111303523D01*
X211163771Y-111303523D02*
X211211390Y-111351142D01*
X211211390Y-111351142D02*
X211306628Y-111398761D01*
X211306628Y-111398761D02*
X211592342Y-111398761D01*
X211592342Y-111398761D02*
X211687580Y-111351142D01*
X211687580Y-111351142D02*
X211735200Y-111303523D01*
X211735200Y-111303523D02*
X211782819Y-111208285D01*
X211782819Y-111208285D02*
X211782819Y-111065428D01*
X211116152Y-111827333D02*
X211782819Y-111827333D01*
X211211390Y-111827333D02*
X211163771Y-111874952D01*
X211163771Y-111874952D02*
X211116152Y-111970190D01*
X211116152Y-111970190D02*
X211116152Y-112113047D01*
X211116152Y-112113047D02*
X211163771Y-112208285D01*
X211163771Y-112208285D02*
X211259009Y-112255904D01*
X211259009Y-112255904D02*
X211782819Y-112255904D01*
X211116152Y-112732095D02*
X211782819Y-112732095D01*
X211211390Y-112732095D02*
X211163771Y-112779714D01*
X211163771Y-112779714D02*
X211116152Y-112874952D01*
X211116152Y-112874952D02*
X211116152Y-113017809D01*
X211116152Y-113017809D02*
X211163771Y-113113047D01*
X211163771Y-113113047D02*
X211259009Y-113160666D01*
X211259009Y-113160666D02*
X211782819Y-113160666D01*
X211782819Y-114160666D02*
X211782819Y-113589238D01*
X211782819Y-113874952D02*
X210782819Y-113874952D01*
X210782819Y-113874952D02*
X210925676Y-113779714D01*
X210925676Y-113779714D02*
X211020914Y-113684476D01*
X211020914Y-113684476D02*
X211068533Y-113589238D01*
X210782819Y-115065428D02*
X210782819Y-114589238D01*
X210782819Y-114589238D02*
X211259009Y-114541619D01*
X211259009Y-114541619D02*
X211211390Y-114589238D01*
X211211390Y-114589238D02*
X211163771Y-114684476D01*
X211163771Y-114684476D02*
X211163771Y-114922571D01*
X211163771Y-114922571D02*
X211211390Y-115017809D01*
X211211390Y-115017809D02*
X211259009Y-115065428D01*
X211259009Y-115065428D02*
X211354247Y-115113047D01*
X211354247Y-115113047D02*
X211592342Y-115113047D01*
X211592342Y-115113047D02*
X211687580Y-115065428D01*
X211687580Y-115065428D02*
X211735200Y-115017809D01*
X211735200Y-115017809D02*
X211782819Y-114922571D01*
X211782819Y-114922571D02*
X211782819Y-114684476D01*
X211782819Y-114684476D02*
X211735200Y-114589238D01*
X211735200Y-114589238D02*
X211687580Y-114541619D01*
X179577809Y-194923580D02*
X179625428Y-194971200D01*
X179625428Y-194971200D02*
X179768285Y-195018819D01*
X179768285Y-195018819D02*
X179863523Y-195018819D01*
X179863523Y-195018819D02*
X180006380Y-194971200D01*
X180006380Y-194971200D02*
X180101618Y-194875961D01*
X180101618Y-194875961D02*
X180149237Y-194780723D01*
X180149237Y-194780723D02*
X180196856Y-194590247D01*
X180196856Y-194590247D02*
X180196856Y-194447390D01*
X180196856Y-194447390D02*
X180149237Y-194256914D01*
X180149237Y-194256914D02*
X180101618Y-194161676D01*
X180101618Y-194161676D02*
X180006380Y-194066438D01*
X180006380Y-194066438D02*
X179863523Y-194018819D01*
X179863523Y-194018819D02*
X179768285Y-194018819D01*
X179768285Y-194018819D02*
X179625428Y-194066438D01*
X179625428Y-194066438D02*
X179577809Y-194114057D01*
X179006380Y-195018819D02*
X179101618Y-194971200D01*
X179101618Y-194971200D02*
X179149237Y-194923580D01*
X179149237Y-194923580D02*
X179196856Y-194828342D01*
X179196856Y-194828342D02*
X179196856Y-194542628D01*
X179196856Y-194542628D02*
X179149237Y-194447390D01*
X179149237Y-194447390D02*
X179101618Y-194399771D01*
X179101618Y-194399771D02*
X179006380Y-194352152D01*
X179006380Y-194352152D02*
X178863523Y-194352152D01*
X178863523Y-194352152D02*
X178768285Y-194399771D01*
X178768285Y-194399771D02*
X178720666Y-194447390D01*
X178720666Y-194447390D02*
X178673047Y-194542628D01*
X178673047Y-194542628D02*
X178673047Y-194828342D01*
X178673047Y-194828342D02*
X178720666Y-194923580D01*
X178720666Y-194923580D02*
X178768285Y-194971200D01*
X178768285Y-194971200D02*
X178863523Y-195018819D01*
X178863523Y-195018819D02*
X179006380Y-195018819D01*
X178244475Y-194352152D02*
X178244475Y-195018819D01*
X178244475Y-194447390D02*
X178196856Y-194399771D01*
X178196856Y-194399771D02*
X178101618Y-194352152D01*
X178101618Y-194352152D02*
X177958761Y-194352152D01*
X177958761Y-194352152D02*
X177863523Y-194399771D01*
X177863523Y-194399771D02*
X177815904Y-194495009D01*
X177815904Y-194495009D02*
X177815904Y-195018819D01*
X177339713Y-194352152D02*
X177339713Y-195018819D01*
X177339713Y-194447390D02*
X177292094Y-194399771D01*
X177292094Y-194399771D02*
X177196856Y-194352152D01*
X177196856Y-194352152D02*
X177053999Y-194352152D01*
X177053999Y-194352152D02*
X176958761Y-194399771D01*
X176958761Y-194399771D02*
X176911142Y-194495009D01*
X176911142Y-194495009D02*
X176911142Y-195018819D01*
X176482570Y-194114057D02*
X176434951Y-194066438D01*
X176434951Y-194066438D02*
X176339713Y-194018819D01*
X176339713Y-194018819D02*
X176101618Y-194018819D01*
X176101618Y-194018819D02*
X176006380Y-194066438D01*
X176006380Y-194066438D02*
X175958761Y-194114057D01*
X175958761Y-194114057D02*
X175911142Y-194209295D01*
X175911142Y-194209295D02*
X175911142Y-194304533D01*
X175911142Y-194304533D02*
X175958761Y-194447390D01*
X175958761Y-194447390D02*
X176530189Y-195018819D01*
X176530189Y-195018819D02*
X175911142Y-195018819D01*
X228234280Y-110513999D02*
X228281900Y-110466380D01*
X228281900Y-110466380D02*
X228329519Y-110323523D01*
X228329519Y-110323523D02*
X228329519Y-110228285D01*
X228329519Y-110228285D02*
X228281900Y-110085428D01*
X228281900Y-110085428D02*
X228186661Y-109990190D01*
X228186661Y-109990190D02*
X228091423Y-109942571D01*
X228091423Y-109942571D02*
X227900947Y-109894952D01*
X227900947Y-109894952D02*
X227758090Y-109894952D01*
X227758090Y-109894952D02*
X227567614Y-109942571D01*
X227567614Y-109942571D02*
X227472376Y-109990190D01*
X227472376Y-109990190D02*
X227377138Y-110085428D01*
X227377138Y-110085428D02*
X227329519Y-110228285D01*
X227329519Y-110228285D02*
X227329519Y-110323523D01*
X227329519Y-110323523D02*
X227377138Y-110466380D01*
X227377138Y-110466380D02*
X227424757Y-110513999D01*
X228329519Y-111085428D02*
X228281900Y-110990190D01*
X228281900Y-110990190D02*
X228234280Y-110942571D01*
X228234280Y-110942571D02*
X228139042Y-110894952D01*
X228139042Y-110894952D02*
X227853328Y-110894952D01*
X227853328Y-110894952D02*
X227758090Y-110942571D01*
X227758090Y-110942571D02*
X227710471Y-110990190D01*
X227710471Y-110990190D02*
X227662852Y-111085428D01*
X227662852Y-111085428D02*
X227662852Y-111228285D01*
X227662852Y-111228285D02*
X227710471Y-111323523D01*
X227710471Y-111323523D02*
X227758090Y-111371142D01*
X227758090Y-111371142D02*
X227853328Y-111418761D01*
X227853328Y-111418761D02*
X228139042Y-111418761D01*
X228139042Y-111418761D02*
X228234280Y-111371142D01*
X228234280Y-111371142D02*
X228281900Y-111323523D01*
X228281900Y-111323523D02*
X228329519Y-111228285D01*
X228329519Y-111228285D02*
X228329519Y-111085428D01*
X227662852Y-111847333D02*
X228329519Y-111847333D01*
X227758090Y-111847333D02*
X227710471Y-111894952D01*
X227710471Y-111894952D02*
X227662852Y-111990190D01*
X227662852Y-111990190D02*
X227662852Y-112133047D01*
X227662852Y-112133047D02*
X227710471Y-112228285D01*
X227710471Y-112228285D02*
X227805709Y-112275904D01*
X227805709Y-112275904D02*
X228329519Y-112275904D01*
X227662852Y-112752095D02*
X228329519Y-112752095D01*
X227758090Y-112752095D02*
X227710471Y-112799714D01*
X227710471Y-112799714D02*
X227662852Y-112894952D01*
X227662852Y-112894952D02*
X227662852Y-113037809D01*
X227662852Y-113037809D02*
X227710471Y-113133047D01*
X227710471Y-113133047D02*
X227805709Y-113180666D01*
X227805709Y-113180666D02*
X228329519Y-113180666D01*
X228329519Y-114180666D02*
X228329519Y-113609238D01*
X228329519Y-113894952D02*
X227329519Y-113894952D01*
X227329519Y-113894952D02*
X227472376Y-113799714D01*
X227472376Y-113799714D02*
X227567614Y-113704476D01*
X227567614Y-113704476D02*
X227615233Y-113609238D01*
X227329519Y-114514000D02*
X227329519Y-115133047D01*
X227329519Y-115133047D02*
X227710471Y-114799714D01*
X227710471Y-114799714D02*
X227710471Y-114942571D01*
X227710471Y-114942571D02*
X227758090Y-115037809D01*
X227758090Y-115037809D02*
X227805709Y-115085428D01*
X227805709Y-115085428D02*
X227900947Y-115133047D01*
X227900947Y-115133047D02*
X228139042Y-115133047D01*
X228139042Y-115133047D02*
X228234280Y-115085428D01*
X228234280Y-115085428D02*
X228281900Y-115037809D01*
X228281900Y-115037809D02*
X228329519Y-114942571D01*
X228329519Y-114942571D02*
X228329519Y-114656857D01*
X228329519Y-114656857D02*
X228281900Y-114561619D01*
X228281900Y-114561619D02*
X228234280Y-114514000D01*
X366379809Y-210163580D02*
X366427428Y-210211200D01*
X366427428Y-210211200D02*
X366570285Y-210258819D01*
X366570285Y-210258819D02*
X366665523Y-210258819D01*
X366665523Y-210258819D02*
X366808380Y-210211200D01*
X366808380Y-210211200D02*
X366903618Y-210115961D01*
X366903618Y-210115961D02*
X366951237Y-210020723D01*
X366951237Y-210020723D02*
X366998856Y-209830247D01*
X366998856Y-209830247D02*
X366998856Y-209687390D01*
X366998856Y-209687390D02*
X366951237Y-209496914D01*
X366951237Y-209496914D02*
X366903618Y-209401676D01*
X366903618Y-209401676D02*
X366808380Y-209306438D01*
X366808380Y-209306438D02*
X366665523Y-209258819D01*
X366665523Y-209258819D02*
X366570285Y-209258819D01*
X366570285Y-209258819D02*
X366427428Y-209306438D01*
X366427428Y-209306438D02*
X366379809Y-209354057D01*
X365808380Y-210258819D02*
X365903618Y-210211200D01*
X365903618Y-210211200D02*
X365951237Y-210163580D01*
X365951237Y-210163580D02*
X365998856Y-210068342D01*
X365998856Y-210068342D02*
X365998856Y-209782628D01*
X365998856Y-209782628D02*
X365951237Y-209687390D01*
X365951237Y-209687390D02*
X365903618Y-209639771D01*
X365903618Y-209639771D02*
X365808380Y-209592152D01*
X365808380Y-209592152D02*
X365665523Y-209592152D01*
X365665523Y-209592152D02*
X365570285Y-209639771D01*
X365570285Y-209639771D02*
X365522666Y-209687390D01*
X365522666Y-209687390D02*
X365475047Y-209782628D01*
X365475047Y-209782628D02*
X365475047Y-210068342D01*
X365475047Y-210068342D02*
X365522666Y-210163580D01*
X365522666Y-210163580D02*
X365570285Y-210211200D01*
X365570285Y-210211200D02*
X365665523Y-210258819D01*
X365665523Y-210258819D02*
X365808380Y-210258819D01*
X365046475Y-209592152D02*
X365046475Y-210258819D01*
X365046475Y-209687390D02*
X364998856Y-209639771D01*
X364998856Y-209639771D02*
X364903618Y-209592152D01*
X364903618Y-209592152D02*
X364760761Y-209592152D01*
X364760761Y-209592152D02*
X364665523Y-209639771D01*
X364665523Y-209639771D02*
X364617904Y-209735009D01*
X364617904Y-209735009D02*
X364617904Y-210258819D01*
X364141713Y-209592152D02*
X364141713Y-210258819D01*
X364141713Y-209687390D02*
X364094094Y-209639771D01*
X364094094Y-209639771D02*
X363998856Y-209592152D01*
X363998856Y-209592152D02*
X363855999Y-209592152D01*
X363855999Y-209592152D02*
X363760761Y-209639771D01*
X363760761Y-209639771D02*
X363713142Y-209735009D01*
X363713142Y-209735009D02*
X363713142Y-210258819D01*
X362760761Y-209258819D02*
X363236951Y-209258819D01*
X363236951Y-209258819D02*
X363284570Y-209735009D01*
X363284570Y-209735009D02*
X363236951Y-209687390D01*
X363236951Y-209687390D02*
X363141713Y-209639771D01*
X363141713Y-209639771D02*
X362903618Y-209639771D01*
X362903618Y-209639771D02*
X362808380Y-209687390D01*
X362808380Y-209687390D02*
X362760761Y-209735009D01*
X362760761Y-209735009D02*
X362713142Y-209830247D01*
X362713142Y-209830247D02*
X362713142Y-210068342D01*
X362713142Y-210068342D02*
X362760761Y-210163580D01*
X362760761Y-210163580D02*
X362808380Y-210211200D01*
X362808380Y-210211200D02*
X362903618Y-210258819D01*
X362903618Y-210258819D02*
X363141713Y-210258819D01*
X363141713Y-210258819D02*
X363236951Y-210211200D01*
X363236951Y-210211200D02*
X363284570Y-210163580D01*
X367295280Y-110563499D02*
X367342900Y-110515880D01*
X367342900Y-110515880D02*
X367390519Y-110373023D01*
X367390519Y-110373023D02*
X367390519Y-110277785D01*
X367390519Y-110277785D02*
X367342900Y-110134928D01*
X367342900Y-110134928D02*
X367247661Y-110039690D01*
X367247661Y-110039690D02*
X367152423Y-109992071D01*
X367152423Y-109992071D02*
X366961947Y-109944452D01*
X366961947Y-109944452D02*
X366819090Y-109944452D01*
X366819090Y-109944452D02*
X366628614Y-109992071D01*
X366628614Y-109992071D02*
X366533376Y-110039690D01*
X366533376Y-110039690D02*
X366438138Y-110134928D01*
X366438138Y-110134928D02*
X366390519Y-110277785D01*
X366390519Y-110277785D02*
X366390519Y-110373023D01*
X366390519Y-110373023D02*
X366438138Y-110515880D01*
X366438138Y-110515880D02*
X366485757Y-110563499D01*
X367390519Y-111134928D02*
X367342900Y-111039690D01*
X367342900Y-111039690D02*
X367295280Y-110992071D01*
X367295280Y-110992071D02*
X367200042Y-110944452D01*
X367200042Y-110944452D02*
X366914328Y-110944452D01*
X366914328Y-110944452D02*
X366819090Y-110992071D01*
X366819090Y-110992071D02*
X366771471Y-111039690D01*
X366771471Y-111039690D02*
X366723852Y-111134928D01*
X366723852Y-111134928D02*
X366723852Y-111277785D01*
X366723852Y-111277785D02*
X366771471Y-111373023D01*
X366771471Y-111373023D02*
X366819090Y-111420642D01*
X366819090Y-111420642D02*
X366914328Y-111468261D01*
X366914328Y-111468261D02*
X367200042Y-111468261D01*
X367200042Y-111468261D02*
X367295280Y-111420642D01*
X367295280Y-111420642D02*
X367342900Y-111373023D01*
X367342900Y-111373023D02*
X367390519Y-111277785D01*
X367390519Y-111277785D02*
X367390519Y-111134928D01*
X366723852Y-111896833D02*
X367390519Y-111896833D01*
X366819090Y-111896833D02*
X366771471Y-111944452D01*
X366771471Y-111944452D02*
X366723852Y-112039690D01*
X366723852Y-112039690D02*
X366723852Y-112182547D01*
X366723852Y-112182547D02*
X366771471Y-112277785D01*
X366771471Y-112277785D02*
X366866709Y-112325404D01*
X366866709Y-112325404D02*
X367390519Y-112325404D01*
X366723852Y-112801595D02*
X367390519Y-112801595D01*
X366819090Y-112801595D02*
X366771471Y-112849214D01*
X366771471Y-112849214D02*
X366723852Y-112944452D01*
X366723852Y-112944452D02*
X366723852Y-113087309D01*
X366723852Y-113087309D02*
X366771471Y-113182547D01*
X366771471Y-113182547D02*
X366866709Y-113230166D01*
X366866709Y-113230166D02*
X367390519Y-113230166D01*
X367390519Y-114230166D02*
X367390519Y-113658738D01*
X367390519Y-113944452D02*
X366390519Y-113944452D01*
X366390519Y-113944452D02*
X366533376Y-113849214D01*
X366533376Y-113849214D02*
X366628614Y-113753976D01*
X366628614Y-113753976D02*
X366676233Y-113658738D01*
X367390519Y-115182547D02*
X367390519Y-114611119D01*
X367390519Y-114896833D02*
X366390519Y-114896833D01*
X366390519Y-114896833D02*
X366533376Y-114801595D01*
X366533376Y-114801595D02*
X366628614Y-114706357D01*
X366628614Y-114706357D02*
X366676233Y-114611119D01*
%TO.C,Conn18*%
X304935700Y-90219500D02*
X312809700Y-90219500D01*
X304910300Y-90219500D02*
X304910300Y-99109500D01*
X312809700Y-97941100D02*
X312809700Y-99109500D01*
X312809700Y-97966500D02*
X312809700Y-90219500D01*
X310498300Y-100252500D02*
X311666700Y-100252500D01*
X307221700Y-100252500D02*
X310523700Y-100252500D01*
X307221700Y-100252500D02*
X306078700Y-100252500D01*
X312809700Y-102538500D02*
X312809700Y-114832100D01*
X304935700Y-102538500D02*
X304935700Y-101395500D01*
X304935700Y-102538500D02*
X304935700Y-114832100D01*
X312809700Y-102563900D02*
X312809700Y-101370100D01*
X312809700Y-114857500D02*
X304935700Y-114857500D01*
X306078700Y-100252500D02*
G75*
G03*
X304935700Y-99109500I-1143000J0D01*
G01*
X312809700Y-99134900D02*
G75*
G03*
X311692100Y-100252500I-2J-1117598D01*
G01*
X304935700Y-101395500D02*
G75*
G03*
X306078700Y-100252500I0J1143000D01*
G01*
X311692100Y-100252500D02*
G75*
G03*
X312809700Y-101370100I1117598J-2D01*
G01*
%TO.C,Conn4*%
X387200000Y-222135700D02*
X387200000Y-230009700D01*
X387200000Y-222110300D02*
X378310000Y-222110300D01*
X379478400Y-230009700D02*
X378310000Y-230009700D01*
X379453000Y-230009700D02*
X387200000Y-230009700D01*
X377167000Y-227698300D02*
X377167000Y-228866700D01*
X377167000Y-224421700D02*
X377167000Y-227723700D01*
X377167000Y-224421700D02*
X377167000Y-223278700D01*
X374881000Y-230009700D02*
X362587400Y-230009700D01*
X374881000Y-222135700D02*
X376024000Y-222135700D01*
X374881000Y-222135700D02*
X362587400Y-222135700D01*
X374855600Y-230009700D02*
X376049400Y-230009700D01*
X362562000Y-230009700D02*
X362562000Y-222135700D01*
X377167000Y-223278700D02*
G75*
G03*
X378310000Y-222135700I0J1143000D01*
G01*
X378284600Y-230009700D02*
G75*
G03*
X377167000Y-228892100I-1117598J2D01*
G01*
X376024000Y-222135700D02*
G75*
G03*
X377167000Y-223278700I1143000J0D01*
G01*
X377167000Y-228892100D02*
G75*
G03*
X376049400Y-230009700I-2J-1117598D01*
G01*
%TO.C,Conn3*%
X155704500Y-224904300D02*
X155704500Y-217030300D01*
X155704500Y-224929700D02*
X164594500Y-224929700D01*
X163426100Y-217030300D02*
X164594500Y-217030300D01*
X163451500Y-217030300D02*
X155704500Y-217030300D01*
X165737500Y-219341700D02*
X165737500Y-218173300D01*
X165737500Y-222618300D02*
X165737500Y-219316300D01*
X165737500Y-222618300D02*
X165737500Y-223761300D01*
X168023500Y-217030300D02*
X180317100Y-217030300D01*
X168023500Y-224904300D02*
X166880500Y-224904300D01*
X168023500Y-224904300D02*
X180317100Y-224904300D01*
X168048900Y-217030300D02*
X166855100Y-217030300D01*
X180342500Y-217030300D02*
X180342500Y-224904300D01*
X165737500Y-223761300D02*
G75*
G03*
X164594500Y-224904300I0J-1143000D01*
G01*
X164619900Y-217030300D02*
G75*
G03*
X165737500Y-218147900I1117598J-2D01*
G01*
X166880500Y-224904300D02*
G75*
G03*
X165737500Y-223761300I-1143000J0D01*
G01*
X165737500Y-218147900D02*
G75*
G03*
X166855100Y-217030300I2J1117598D01*
G01*
%TO.C,Conn19*%
X287155700Y-90219500D02*
X295029700Y-90219500D01*
X287130300Y-90219500D02*
X287130300Y-99109500D01*
X295029700Y-97941100D02*
X295029700Y-99109500D01*
X295029700Y-97966500D02*
X295029700Y-90219500D01*
X292718300Y-100252500D02*
X293886700Y-100252500D01*
X289441700Y-100252500D02*
X292743700Y-100252500D01*
X289441700Y-100252500D02*
X288298700Y-100252500D01*
X295029700Y-102538500D02*
X295029700Y-114832100D01*
X287155700Y-102538500D02*
X287155700Y-101395500D01*
X287155700Y-102538500D02*
X287155700Y-114832100D01*
X295029700Y-102563900D02*
X295029700Y-101370100D01*
X295029700Y-114857500D02*
X287155700Y-114857500D01*
X288298700Y-100252500D02*
G75*
G03*
X287155700Y-99109500I-1143000J0D01*
G01*
X295029700Y-99134900D02*
G75*
G03*
X293912100Y-100252500I-2J-1117598D01*
G01*
X287155700Y-101395500D02*
G75*
G03*
X288298700Y-100252500I0J1143000D01*
G01*
X293912100Y-100252500D02*
G75*
G03*
X295029700Y-101370100I1117598J-2D01*
G01*
%TO.C,Conn9*%
X155609000Y-158816000D02*
X155609000Y-150942000D01*
X155609000Y-158841400D02*
X164499000Y-158841400D01*
X163330600Y-150942000D02*
X164499000Y-150942000D01*
X163356000Y-150942000D02*
X155609000Y-150942000D01*
X165642000Y-153253400D02*
X165642000Y-152085000D01*
X165642000Y-156530000D02*
X165642000Y-153228000D01*
X165642000Y-156530000D02*
X165642000Y-157673000D01*
X167928000Y-150942000D02*
X180221600Y-150942000D01*
X167928000Y-158816000D02*
X166785000Y-158816000D01*
X167928000Y-158816000D02*
X180221600Y-158816000D01*
X167953400Y-150942000D02*
X166759600Y-150942000D01*
X180247000Y-150942000D02*
X180247000Y-158816000D01*
X165642000Y-157673000D02*
G75*
G03*
X164499000Y-158816000I0J-1143000D01*
G01*
X164524400Y-150942000D02*
G75*
G03*
X165642000Y-152059600I1117598J-2D01*
G01*
X166785000Y-158816000D02*
G75*
G03*
X165642000Y-157673000I-1143000J0D01*
G01*
X165642000Y-152059600D02*
G75*
G03*
X166759600Y-150942000I2J1117598D01*
G01*
%TO.C,Conn10*%
X340495700Y-90219500D02*
X348369700Y-90219500D01*
X340470300Y-90219500D02*
X340470300Y-99109500D01*
X348369700Y-97941100D02*
X348369700Y-99109500D01*
X348369700Y-97966500D02*
X348369700Y-90219500D01*
X346058300Y-100252500D02*
X347226700Y-100252500D01*
X342781700Y-100252500D02*
X346083700Y-100252500D01*
X342781700Y-100252500D02*
X341638700Y-100252500D01*
X348369700Y-102538500D02*
X348369700Y-114832100D01*
X340495700Y-102538500D02*
X340495700Y-101395500D01*
X340495700Y-102538500D02*
X340495700Y-114832100D01*
X348369700Y-102563900D02*
X348369700Y-101370100D01*
X348369700Y-114857500D02*
X340495700Y-114857500D01*
X341638700Y-100252500D02*
G75*
G03*
X340495700Y-99109500I-1143000J0D01*
G01*
X348369700Y-99134900D02*
G75*
G03*
X347252100Y-100252500I-2J-1117598D01*
G01*
X340495700Y-101395500D02*
G75*
G03*
X341638700Y-100252500I0J1143000D01*
G01*
X347252100Y-100252500D02*
G75*
G03*
X348369700Y-101370100I1117598J-2D01*
G01*
%TO.C,Conn17*%
X322715700Y-90219500D02*
X330589700Y-90219500D01*
X322690300Y-90219500D02*
X322690300Y-99109500D01*
X330589700Y-97941100D02*
X330589700Y-99109500D01*
X330589700Y-97966500D02*
X330589700Y-90219500D01*
X328278300Y-100252500D02*
X329446700Y-100252500D01*
X325001700Y-100252500D02*
X328303700Y-100252500D01*
X325001700Y-100252500D02*
X323858700Y-100252500D01*
X330589700Y-102538500D02*
X330589700Y-114832100D01*
X322715700Y-102538500D02*
X322715700Y-101395500D01*
X322715700Y-102538500D02*
X322715700Y-114832100D01*
X330589700Y-102563900D02*
X330589700Y-101370100D01*
X330589700Y-114857500D02*
X322715700Y-114857500D01*
X323858700Y-100252500D02*
G75*
G03*
X322715700Y-99109500I-1143000J0D01*
G01*
X330589700Y-99134900D02*
G75*
G03*
X329472100Y-100252500I-2J-1117598D01*
G01*
X322715700Y-101395500D02*
G75*
G03*
X323858700Y-100252500I0J1143000D01*
G01*
X329472100Y-100252500D02*
G75*
G03*
X330589700Y-101370100I1117598J-2D01*
G01*
%TO.C,Conn6*%
X387200000Y-179463700D02*
X387200000Y-187337700D01*
X387200000Y-179438300D02*
X378310000Y-179438300D01*
X379478400Y-187337700D02*
X378310000Y-187337700D01*
X379453000Y-187337700D02*
X387200000Y-187337700D01*
X377167000Y-185026300D02*
X377167000Y-186194700D01*
X377167000Y-181749700D02*
X377167000Y-185051700D01*
X377167000Y-181749700D02*
X377167000Y-180606700D01*
X374881000Y-187337700D02*
X362587400Y-187337700D01*
X374881000Y-179463700D02*
X376024000Y-179463700D01*
X374881000Y-179463700D02*
X362587400Y-179463700D01*
X374855600Y-187337700D02*
X376049400Y-187337700D01*
X362562000Y-187337700D02*
X362562000Y-179463700D01*
X377167000Y-180606700D02*
G75*
G03*
X378310000Y-179463700I0J1143000D01*
G01*
X378284600Y-187337700D02*
G75*
G03*
X377167000Y-186220100I-1117598J2D01*
G01*
X376024000Y-179463700D02*
G75*
G03*
X377167000Y-180606700I1143000J0D01*
G01*
X377167000Y-186220100D02*
G75*
G03*
X376049400Y-187337700I-2J-1117598D01*
G01*
%TO.C,Conn8*%
X155638500Y-136642300D02*
X155638500Y-128768300D01*
X155638500Y-136667700D02*
X164528500Y-136667700D01*
X163360100Y-128768300D02*
X164528500Y-128768300D01*
X163385500Y-128768300D02*
X155638500Y-128768300D01*
X165671500Y-131079700D02*
X165671500Y-129911300D01*
X165671500Y-134356300D02*
X165671500Y-131054300D01*
X165671500Y-134356300D02*
X165671500Y-135499300D01*
X167957500Y-128768300D02*
X180251100Y-128768300D01*
X167957500Y-136642300D02*
X166814500Y-136642300D01*
X167957500Y-136642300D02*
X180251100Y-136642300D01*
X167982900Y-128768300D02*
X166789100Y-128768300D01*
X180276500Y-128768300D02*
X180276500Y-136642300D01*
X165671500Y-135499300D02*
G75*
G03*
X164528500Y-136642300I0J-1143000D01*
G01*
X164553900Y-128768300D02*
G75*
G03*
X165671500Y-129885900I1117598J-2D01*
G01*
X166814500Y-136642300D02*
G75*
G03*
X165671500Y-135499300I-1143000J0D01*
G01*
X165671500Y-129885900D02*
G75*
G03*
X166789100Y-128768300I2J1117598D01*
G01*
%TO.C,Conn1*%
X155704500Y-181724300D02*
X155704500Y-173850300D01*
X155704500Y-181749700D02*
X164594500Y-181749700D01*
X163426100Y-173850300D02*
X164594500Y-173850300D01*
X163451500Y-173850300D02*
X155704500Y-173850300D01*
X165737500Y-176161700D02*
X165737500Y-174993300D01*
X165737500Y-179438300D02*
X165737500Y-176136300D01*
X165737500Y-179438300D02*
X165737500Y-180581300D01*
X168023500Y-173850300D02*
X180317100Y-173850300D01*
X168023500Y-181724300D02*
X166880500Y-181724300D01*
X168023500Y-181724300D02*
X180317100Y-181724300D01*
X168048900Y-173850300D02*
X166855100Y-173850300D01*
X180342500Y-173850300D02*
X180342500Y-181724300D01*
X165737500Y-180581300D02*
G75*
G03*
X164594500Y-181724300I0J-1143000D01*
G01*
X164619900Y-173850300D02*
G75*
G03*
X165737500Y-174967900I1117598J-2D01*
G01*
X166880500Y-181724300D02*
G75*
G03*
X165737500Y-180581300I-1143000J0D01*
G01*
X165737500Y-174967900D02*
G75*
G03*
X166855100Y-173850300I2J1117598D01*
G01*
%TO.C,Conn16*%
X269375700Y-90219500D02*
X277249700Y-90219500D01*
X269350300Y-90219500D02*
X269350300Y-99109500D01*
X277249700Y-97941100D02*
X277249700Y-99109500D01*
X277249700Y-97966500D02*
X277249700Y-90219500D01*
X274938300Y-100252500D02*
X276106700Y-100252500D01*
X271661700Y-100252500D02*
X274963700Y-100252500D01*
X271661700Y-100252500D02*
X270518700Y-100252500D01*
X277249700Y-102538500D02*
X277249700Y-114832100D01*
X269375700Y-102538500D02*
X269375700Y-101395500D01*
X269375700Y-102538500D02*
X269375700Y-114832100D01*
X277249700Y-102563900D02*
X277249700Y-101370100D01*
X277249700Y-114857500D02*
X269375700Y-114857500D01*
X270518700Y-100252500D02*
G75*
G03*
X269375700Y-99109500I-1143000J0D01*
G01*
X277249700Y-99134900D02*
G75*
G03*
X276132100Y-100252500I-2J-1117598D01*
G01*
X269375700Y-101395500D02*
G75*
G03*
X270518700Y-100252500I0J1143000D01*
G01*
X276132100Y-100252500D02*
G75*
G03*
X277249700Y-101370100I1117598J-2D01*
G01*
%TO.C,Conn7*%
X387200000Y-157873700D02*
X387200000Y-165747700D01*
X387200000Y-157848300D02*
X378310000Y-157848300D01*
X379478400Y-165747700D02*
X378310000Y-165747700D01*
X379453000Y-165747700D02*
X387200000Y-165747700D01*
X377167000Y-163436300D02*
X377167000Y-164604700D01*
X377167000Y-160159700D02*
X377167000Y-163461700D01*
X377167000Y-160159700D02*
X377167000Y-159016700D01*
X374881000Y-165747700D02*
X362587400Y-165747700D01*
X374881000Y-157873700D02*
X376024000Y-157873700D01*
X374881000Y-157873700D02*
X362587400Y-157873700D01*
X374855600Y-165747700D02*
X376049400Y-165747700D01*
X362562000Y-165747700D02*
X362562000Y-157873700D01*
X377167000Y-159016700D02*
G75*
G03*
X378310000Y-157873700I0J1143000D01*
G01*
X378284600Y-165747700D02*
G75*
G03*
X377167000Y-164630100I-1117598J2D01*
G01*
X376024000Y-157873700D02*
G75*
G03*
X377167000Y-159016700I1143000J0D01*
G01*
X377167000Y-164630100D02*
G75*
G03*
X376049400Y-165747700I-2J-1117598D01*
G01*
%TO.C,Conn12*%
X252107700Y-89965500D02*
X259981700Y-89965500D01*
X252082300Y-89965500D02*
X252082300Y-98855500D01*
X259981700Y-97687100D02*
X259981700Y-98855500D01*
X259981700Y-97712500D02*
X259981700Y-89965500D01*
X257670300Y-99998500D02*
X258838700Y-99998500D01*
X254393700Y-99998500D02*
X257695700Y-99998500D01*
X254393700Y-99998500D02*
X253250700Y-99998500D01*
X259981700Y-102284500D02*
X259981700Y-114578100D01*
X252107700Y-102284500D02*
X252107700Y-101141500D01*
X252107700Y-102284500D02*
X252107700Y-114578100D01*
X259981700Y-102309900D02*
X259981700Y-101116100D01*
X259981700Y-114603500D02*
X252107700Y-114603500D01*
X253250700Y-99998500D02*
G75*
G03*
X252107700Y-98855500I-1143000J0D01*
G01*
X259981700Y-98880900D02*
G75*
G03*
X258864100Y-99998500I-2J-1117598D01*
G01*
X252107700Y-101141500D02*
G75*
G03*
X253250700Y-99998500I0J1143000D01*
G01*
X258864100Y-99998500D02*
G75*
G03*
X259981700Y-101116100I1117598J-2D01*
G01*
%TO.C,Conn14*%
X235712000Y-90170000D02*
X243586000Y-90170000D01*
X235686600Y-90170000D02*
X235686600Y-99060000D01*
X243586000Y-97891600D02*
X243586000Y-99060000D01*
X243586000Y-97917000D02*
X243586000Y-90170000D01*
X241274600Y-100203000D02*
X242443000Y-100203000D01*
X237998000Y-100203000D02*
X241300000Y-100203000D01*
X237998000Y-100203000D02*
X236855000Y-100203000D01*
X243586000Y-102489000D02*
X243586000Y-114782600D01*
X235712000Y-102489000D02*
X235712000Y-101346000D01*
X235712000Y-102489000D02*
X235712000Y-114782600D01*
X243586000Y-102514400D02*
X243586000Y-101320600D01*
X243586000Y-114808000D02*
X235712000Y-114808000D01*
X236855000Y-100203000D02*
G75*
G03*
X235712000Y-99060000I-1143000J0D01*
G01*
X243586000Y-99085400D02*
G75*
G03*
X242468400Y-100203000I-2J-1117598D01*
G01*
X235712000Y-101346000D02*
G75*
G03*
X236855000Y-100203000I0J1143000D01*
G01*
X242468400Y-100203000D02*
G75*
G03*
X243586000Y-101320600I1117598J-2D01*
G01*
%TO.C,Conn15*%
X202577700Y-90191500D02*
X210451700Y-90191500D01*
X202552300Y-90191500D02*
X202552300Y-99081500D01*
X210451700Y-97913100D02*
X210451700Y-99081500D01*
X210451700Y-97938500D02*
X210451700Y-90191500D01*
X208140300Y-100224500D02*
X209308700Y-100224500D01*
X204863700Y-100224500D02*
X208165700Y-100224500D01*
X204863700Y-100224500D02*
X203720700Y-100224500D01*
X210451700Y-102510500D02*
X210451700Y-114804100D01*
X202577700Y-102510500D02*
X202577700Y-101367500D01*
X202577700Y-102510500D02*
X202577700Y-114804100D01*
X210451700Y-102535900D02*
X210451700Y-101342100D01*
X210451700Y-114829500D02*
X202577700Y-114829500D01*
X203720700Y-100224500D02*
G75*
G03*
X202577700Y-99081500I-1143000J0D01*
G01*
X210451700Y-99106900D02*
G75*
G03*
X209334100Y-100224500I-2J-1117598D01*
G01*
X202577700Y-101367500D02*
G75*
G03*
X203720700Y-100224500I0J1143000D01*
G01*
X209334100Y-100224500D02*
G75*
G03*
X210451700Y-101342100I1117598J-2D01*
G01*
%TO.C,Conn2*%
X155704500Y-203314300D02*
X155704500Y-195440300D01*
X155704500Y-203339700D02*
X164594500Y-203339700D01*
X163426100Y-195440300D02*
X164594500Y-195440300D01*
X163451500Y-195440300D02*
X155704500Y-195440300D01*
X165737500Y-197751700D02*
X165737500Y-196583300D01*
X165737500Y-201028300D02*
X165737500Y-197726300D01*
X165737500Y-201028300D02*
X165737500Y-202171300D01*
X168023500Y-195440300D02*
X180317100Y-195440300D01*
X168023500Y-203314300D02*
X166880500Y-203314300D01*
X168023500Y-203314300D02*
X180317100Y-203314300D01*
X168048900Y-195440300D02*
X166855100Y-195440300D01*
X180342500Y-195440300D02*
X180342500Y-203314300D01*
X165737500Y-202171300D02*
G75*
G03*
X164594500Y-203314300I0J-1143000D01*
G01*
X164619900Y-195440300D02*
G75*
G03*
X165737500Y-196557900I1117598J-2D01*
G01*
X166880500Y-203314300D02*
G75*
G03*
X165737500Y-202171300I-1143000J0D01*
G01*
X165737500Y-196557900D02*
G75*
G03*
X166855100Y-195440300I2J1117598D01*
G01*
%TO.C,Conn13*%
X219214700Y-90170000D02*
X227088700Y-90170000D01*
X219189300Y-90170000D02*
X219189300Y-99060000D01*
X227088700Y-97891600D02*
X227088700Y-99060000D01*
X227088700Y-97917000D02*
X227088700Y-90170000D01*
X224777300Y-100203000D02*
X225945700Y-100203000D01*
X221500700Y-100203000D02*
X224802700Y-100203000D01*
X221500700Y-100203000D02*
X220357700Y-100203000D01*
X227088700Y-102489000D02*
X227088700Y-114782600D01*
X219214700Y-102489000D02*
X219214700Y-101346000D01*
X219214700Y-102489000D02*
X219214700Y-114782600D01*
X227088700Y-102514400D02*
X227088700Y-101320600D01*
X227088700Y-114808000D02*
X219214700Y-114808000D01*
X220357700Y-100203000D02*
G75*
G03*
X219214700Y-99060000I-1143000J0D01*
G01*
X227088700Y-99085400D02*
G75*
G03*
X225971100Y-100203000I-2J-1117598D01*
G01*
X219214700Y-101346000D02*
G75*
G03*
X220357700Y-100203000I0J1143000D01*
G01*
X225971100Y-100203000D02*
G75*
G03*
X227088700Y-101320600I1117598J-2D01*
G01*
%TO.C,Conn5*%
X387200000Y-201053700D02*
X387200000Y-208927700D01*
X387200000Y-201028300D02*
X378310000Y-201028300D01*
X379478400Y-208927700D02*
X378310000Y-208927700D01*
X379453000Y-208927700D02*
X387200000Y-208927700D01*
X377167000Y-206616300D02*
X377167000Y-207784700D01*
X377167000Y-203339700D02*
X377167000Y-206641700D01*
X377167000Y-203339700D02*
X377167000Y-202196700D01*
X374881000Y-208927700D02*
X362587400Y-208927700D01*
X374881000Y-201053700D02*
X376024000Y-201053700D01*
X374881000Y-201053700D02*
X362587400Y-201053700D01*
X374855600Y-208927700D02*
X376049400Y-208927700D01*
X362562000Y-208927700D02*
X362562000Y-201053700D01*
X377167000Y-202196700D02*
G75*
G03*
X378310000Y-201053700I0J1143000D01*
G01*
X378284600Y-208927700D02*
G75*
G03*
X377167000Y-207810100I-1117598J2D01*
G01*
X376024000Y-201053700D02*
G75*
G03*
X377167000Y-202196700I1143000J0D01*
G01*
X377167000Y-207810100D02*
G75*
G03*
X376049400Y-208927700I-2J-1117598D01*
G01*
%TO.C,Conn11*%
X358275700Y-90219500D02*
X366149700Y-90219500D01*
X358250300Y-90219500D02*
X358250300Y-99109500D01*
X366149700Y-97941100D02*
X366149700Y-99109500D01*
X366149700Y-97966500D02*
X366149700Y-90219500D01*
X363838300Y-100252500D02*
X365006700Y-100252500D01*
X360561700Y-100252500D02*
X363863700Y-100252500D01*
X360561700Y-100252500D02*
X359418700Y-100252500D01*
X366149700Y-102538500D02*
X366149700Y-114832100D01*
X358275700Y-102538500D02*
X358275700Y-101395500D01*
X358275700Y-102538500D02*
X358275700Y-114832100D01*
X366149700Y-102563900D02*
X366149700Y-101370100D01*
X366149700Y-114857500D02*
X358275700Y-114857500D01*
X359418700Y-100252500D02*
G75*
G03*
X358275700Y-99109500I-1143000J0D01*
G01*
X366149700Y-99134900D02*
G75*
G03*
X365032100Y-100252500I-2J-1117598D01*
G01*
X358275700Y-101395500D02*
G75*
G03*
X359418700Y-100252500I0J1143000D01*
G01*
X365032100Y-100252500D02*
G75*
G03*
X366149700Y-101370100I1117598J-2D01*
G01*
%TD*%
M02*
