M48
; DRILL file {KiCad 7.0.7} date Sun Nov  5 16:26:56 2023
; FORMAT={-:-/ absolute / inch / decimal}
; #@! TF.CreationDate,2023-11-05T16:26:56-06:00
; #@! TF.GenerationSoftware,Kicad,Pcbnew,7.0.7
; #@! TF.FileFunction,Plated,1,4,PTH
FMAT,2
INCH
; #@! TA.AperFunction,Plated,PTH,ViaDrill
T1C0.0157
; #@! TA.AperFunction,Plated,PTH,ComponentDrill
T2C0.0276
; #@! TA.AperFunction,Plated,PTH,ComponentDrill
T3C0.0315
; #@! TA.AperFunction,Plated,PTH,ComponentDrill
T4C0.0350
; #@! TA.AperFunction,Plated,PTH,ComponentDrill
T5C0.0354
; #@! TA.AperFunction,Plated,PTH,ComponentDrill
T6C0.0402
; #@! TA.AperFunction,Plated,PTH,ComponentDrill
T7C0.0472
; #@! TA.AperFunction,Plated,PTH,ComponentDrill
T8C0.0512
; #@! TA.AperFunction,Plated,PTH,ComponentDrill
T9C0.0550
; #@! TA.AperFunction,Plated,PTH,ComponentDrill
T10C0.0630
; #@! TA.AperFunction,Plated,PTH,ComponentDrill
T11C0.0700
; #@! TA.AperFunction,Plated,PTH,ComponentDrill
T12C0.0787
; #@! TA.AperFunction,Plated,PTH,ComponentDrill
T13C0.0900
; #@! TA.AperFunction,Plated,PTH,ComponentDrill
T14C0.1280
; #@! TA.AperFunction,Plated,PTH,ComponentDrill
T15C0.3600
%
G90
G05
T1
X6.69Y-5.61
X6.69Y-6.48
X6.69Y-7.33
X6.69Y-8.19
X6.69Y-9.05
X7.04Y-9.05
X7.05Y-7.33
X7.05Y-8.18
X7.05Y-8.33
X7.06Y-7.49
X7.0697Y-5.6
X7.0698Y-6.4802
X7.07Y-5.76
X7.09Y-6.64
X7.09Y-9.26
X7.64Y-4.17
X7.74Y-4.54
X8.03Y-5.72
X8.1669Y-5.63
X8.3Y-4.17
X8.38Y-4.54
X8.51Y-5.7
X8.64Y-5.62
X8.94Y-4.18
X9.04Y-4.54
X9.18Y-5.69
X9.32Y-5.62
X9.59Y-4.18
X9.67Y-5.68
X9.68Y-4.54
X9.81Y-5.61
X10.27Y-4.18
X10.43Y-4.53
X10.96Y-4.18
X11.15Y-4.53
X11.66Y-4.18
X11.85Y-4.53
X12.36Y-4.18
X12.55Y-4.53
X13.06Y-4.18
X13.27Y-4.53
X13.41Y-5.02
X13.75Y-4.18
X14.26Y-8.39
X14.27Y-5.87
X14.27Y-6.7
X14.28Y-7.55
X14.29Y-6.87
X14.29Y-7.71
X14.29Y-8.55
X14.3Y-6.03
X14.55Y-4.98
X14.55Y-4.98
X14.7Y-6.04
X14.7Y-6.88
X14.7Y-7.72
X14.7Y-8.56
X14.74Y-5.23
T2
X10.0225Y-7.2106
X10.0225Y-7.2894
X10.1013Y-7.2106
X10.1013Y-7.2894
X10.18Y-7.2106
X10.18Y-7.2894
T3
X9.9261Y-5.5
X9.9261Y-5.6
X9.9261Y-5.7
X9.9261Y-5.8
X9.9261Y-5.9
X9.9261Y-6.0
X9.9261Y-6.1
X9.9261Y-6.2
X9.9261Y-6.3
X9.9261Y-6.4
X9.9261Y-6.5
X9.9261Y-6.6
X9.9261Y-6.7
X9.9261Y-6.8
X9.9261Y-6.9
X9.9261Y-7.0
X9.9261Y-7.1
X9.9261Y-7.2
X9.9261Y-7.3
X9.9261Y-7.4
X9.9261Y-7.5
X9.9261Y-7.6
X9.9261Y-7.7
X9.9261Y-7.8
X10.5Y-5.2124
X10.5Y-5.2911
X10.5261Y-5.5
X10.5261Y-5.6
X10.5261Y-5.7
X10.5261Y-5.8
X10.5261Y-5.9
X10.5261Y-6.0
X10.5261Y-6.1
X10.5261Y-6.2
X10.5261Y-6.3
X10.5261Y-6.4
X10.5261Y-6.5
X10.5261Y-6.6
X10.5261Y-6.7
X10.5261Y-6.8
X10.5261Y-6.9
X10.5261Y-7.0
X10.5261Y-7.1
X10.5261Y-7.2
X10.5261Y-7.3
X10.5261Y-7.4
X10.5261Y-7.5
X10.5261Y-7.6
X10.5261Y-7.7
X10.5261Y-7.8
X11.0724Y-5.21
X11.1511Y-5.21
X11.6516Y-5.18
X11.75Y-5.18
X13.66Y-9.12
X13.7387Y-9.12
T4
X13.895Y-5.34
X13.895Y-5.44
X13.895Y-5.54
T5
X7.066Y-4.7295
X7.116Y-4.6295
X7.166Y-4.7295
X7.216Y-4.6295
X7.266Y-4.7295
X7.316Y-4.6295
X7.366Y-4.7295
X7.416Y-4.6295
T6
X6.992Y-4.25
X7.092Y-4.1795
X7.39Y-4.25
X7.49Y-4.1795
T7
X8.363Y-6.91
X8.3647Y-6.2
X8.6583Y-6.91
X8.66Y-6.2
X9.07Y-6.21
X9.0917Y-6.92
X9.3653Y-6.21
X9.387Y-6.92
T8
X10.7Y-9.1042
X10.7Y-9.3042
X11.0Y-9.1042
X11.0Y-9.3042
T9
X10.935Y-5.45
X10.935Y-5.85
X10.935Y-6.25
X10.935Y-6.59
X10.935Y-6.99
X10.935Y-7.39
X11.735Y-5.75
X11.735Y-5.95
X11.735Y-6.25
X11.735Y-6.89
X11.735Y-7.09
X11.735Y-7.39
T10
X6.9309Y-4.4996
X7.551Y-4.4996
T11
X12.375Y-7.48
X12.525Y-5.48
X12.675Y-5.48
X12.675Y-7.48
X12.825Y-5.48
X12.975Y-7.48
T13
X12.375Y-5.48
X12.975Y-5.48
T14
X7.016Y-4.3795
X7.466Y-4.3795
T15
X8.93Y-9.0
X12.8Y-8.99
T12
G00X7.2163Y-6.0613
M15
G01X7.2163Y-6.1439
M16
G05
G00X7.2175Y-5.1883
M15
G01X7.2175Y-5.271
M16
G05
G00X7.2201Y-6.9632
M15
G01X7.2201Y-7.0458
M16
G05
G00X7.2201Y-7.8132
M15
G01X7.2201Y-7.8958
M16
G05
G00X7.2201Y-8.6632
M15
G01X7.2201Y-8.7458
M16
G05
G00X7.5263Y-6.0613
M15
G01X7.5263Y-6.1439
M16
G05
G00X7.5275Y-5.1883
M15
G01X7.5275Y-5.271
M16
G05
G00X7.5301Y-6.9632
M15
G01X7.5301Y-7.0458
M16
G05
G00X7.5301Y-7.8132
M15
G01X7.5301Y-7.8958
M16
G05
G00X7.5301Y-8.6632
M15
G01X7.5301Y-8.7458
M16
G05
G00X8.1468Y-4.6608
M15
G01X8.0642Y-4.6608
M16
G05
G00X8.1468Y-4.9708
M15
G01X8.0642Y-4.9708
M16
G05
G00X8.8018Y-4.66
M15
G01X8.7192Y-4.66
M16
G05
G00X8.8018Y-4.97
M15
G01X8.7192Y-4.97
M16
G05
G00X9.4513Y-4.66
M15
G01X9.3687Y-4.66
M16
G05
G00X9.4513Y-4.97
M15
G01X9.3687Y-4.97
M16
G05
G00X10.0968Y-4.6519
M15
G01X10.0142Y-4.6519
M16
G05
G00X10.0968Y-4.9619
M15
G01X10.0142Y-4.9619
M16
G05
G00X10.7767Y-4.6619
M15
G01X10.694Y-4.6619
M16
G05
G00X10.7767Y-4.9719
M15
G01X10.694Y-4.9719
M16
G05
G00X11.4767Y-4.6619
M15
G01X11.394Y-4.6619
M16
G05
G00X11.4767Y-4.9719
M15
G01X11.394Y-4.9719
M16
G05
G00X12.1767Y-4.6619
M15
G01X12.094Y-4.6619
M16
G05
G00X12.1767Y-4.9719
M15
G01X12.094Y-4.9719
M16
G05
G00X12.8767Y-4.6619
M15
G01X12.794Y-4.6619
M16
G05
G00X12.8767Y-4.9719
M15
G01X12.794Y-4.9719
M16
G05
G00X13.5767Y-4.6619
M15
G01X13.494Y-4.6619
M16
G05
G00X13.5767Y-4.9719
M15
G01X13.494Y-4.9719
M16
G05
G00X13.8041Y-6.4068
M15
G01X13.8041Y-6.3242
M16
G05
G00X13.8041Y-7.2568
M15
G01X13.8041Y-7.1742
M16
G05
G00X13.8041Y-8.1068
M15
G01X13.8041Y-8.0242
M16
G05
G00X13.8041Y-8.9368
M15
G01X13.8041Y-8.8542
M16
G05
G00X14.1141Y-6.4068
M15
G01X14.1141Y-6.3242
M16
G05
G00X14.1141Y-7.2568
M15
G01X14.1141Y-7.1742
M16
G05
G00X14.1141Y-8.1068
M15
G01X14.1141Y-8.0242
M16
G05
G00X14.1141Y-8.9368
M15
G01X14.1141Y-8.8542
M16
G05
G00X14.2767Y-4.6619
M15
G01X14.194Y-4.6619
M16
G05
G00X14.2767Y-4.9719
M15
G01X14.194Y-4.9719
M16
G05
T0
M30
