%TF.GenerationSoftware,KiCad,Pcbnew,7.0.5*%
%TF.CreationDate,2023-11-14T15:32:51-06:00*%
%TF.ProjectId,PowerBoard_2024,506f7765-7242-46f6-9172-645f32303234,rev?*%
%TF.SameCoordinates,Original*%
%TF.FileFunction,Soldermask,Top*%
%TF.FilePolarity,Negative*%
%FSLAX46Y46*%
G04 Gerber Fmt 4.6, Leading zero omitted, Abs format (unit mm)*
G04 Created by KiCad (PCBNEW 7.0.5) date 2023-11-14 15:32:51*
%MOMM*%
%LPD*%
G01*
G04 APERTURE LIST*
G04 Aperture macros list*
%AMRoundRect*
0 Rectangle with rounded corners*
0 $1 Rounding radius*
0 $2 $3 $4 $5 $6 $7 $8 $9 X,Y pos of 4 corners*
0 Add a 4 corners polygon primitive as box body*
4,1,4,$2,$3,$4,$5,$6,$7,$8,$9,$2,$3,0*
0 Add four circle primitives for the rounded corners*
1,1,$1+$1,$2,$3*
1,1,$1+$1,$4,$5*
1,1,$1+$1,$6,$7*
1,1,$1+$1,$8,$9*
0 Add four rect primitives between the rounded corners*
20,1,$1+$1,$2,$3,$4,$5,0*
20,1,$1+$1,$4,$5,$6,$7,0*
20,1,$1+$1,$6,$7,$8,$9,0*
20,1,$1+$1,$8,$9,$2,$3,0*%
G04 Aperture macros list end*
%ADD10RoundRect,0.250000X-0.650000X0.412500X-0.650000X-0.412500X0.650000X-0.412500X0.650000X0.412500X0*%
%ADD11RoundRect,0.237500X-0.250000X-0.237500X0.250000X-0.237500X0.250000X0.237500X-0.250000X0.237500X0*%
%ADD12RoundRect,0.237500X0.250000X0.237500X-0.250000X0.237500X-0.250000X-0.237500X0.250000X-0.237500X0*%
%ADD13RoundRect,0.237500X-0.287500X-0.237500X0.287500X-0.237500X0.287500X0.237500X-0.287500X0.237500X0*%
%ADD14RoundRect,0.237500X-0.237500X0.300000X-0.237500X-0.300000X0.237500X-0.300000X0.237500X0.300000X0*%
%ADD15RoundRect,0.237500X-0.300000X-0.237500X0.300000X-0.237500X0.300000X0.237500X-0.300000X0.237500X0*%
%ADD16R,2.400000X2.400000*%
%ADD17C,2.400000*%
%ADD18R,1.600000X1.600000*%
%ADD19C,1.600000*%
%ADD20RoundRect,0.150000X0.150000X-0.675000X0.150000X0.675000X-0.150000X0.675000X-0.150000X-0.675000X0*%
%ADD21RoundRect,0.237500X0.300000X0.237500X-0.300000X0.237500X-0.300000X-0.237500X0.300000X-0.237500X0*%
%ADD22RoundRect,0.237500X0.237500X-0.287500X0.237500X0.287500X-0.237500X0.287500X-0.237500X-0.287500X0*%
%ADD23RoundRect,0.250000X0.850000X0.350000X-0.850000X0.350000X-0.850000X-0.350000X0.850000X-0.350000X0*%
%ADD24RoundRect,0.249997X2.950003X2.650003X-2.950003X2.650003X-2.950003X-2.650003X2.950003X-2.650003X0*%
%ADD25RoundRect,0.150000X0.150000X-0.825000X0.150000X0.825000X-0.150000X0.825000X-0.150000X-0.825000X0*%
%ADD26C,3.048000*%
%ADD27C,3.810000*%
%ADD28RoundRect,0.237500X0.237500X-0.300000X0.237500X0.300000X-0.237500X0.300000X-0.237500X-0.300000X0*%
%ADD29RoundRect,0.150000X0.587500X0.150000X-0.587500X0.150000X-0.587500X-0.150000X0.587500X-0.150000X0*%
%ADD30RoundRect,0.237500X0.237500X-0.250000X0.237500X0.250000X-0.237500X0.250000X-0.237500X-0.250000X0*%
%ADD31RoundRect,0.237500X-0.237500X0.250000X-0.237500X-0.250000X0.237500X-0.250000X0.237500X0.250000X0*%
%ADD32C,2.946400*%
%ADD33R,2.600000X2.600000*%
%ADD34O,2.600000X2.600000*%
%ADD35RoundRect,0.150000X-0.825000X-0.150000X0.825000X-0.150000X0.825000X0.150000X-0.825000X0.150000X0*%
%ADD36RoundRect,0.250000X-0.412500X-0.650000X0.412500X-0.650000X0.412500X0.650000X-0.412500X0.650000X0*%
%ADD37RoundRect,0.237500X0.287500X0.237500X-0.287500X0.237500X-0.287500X-0.237500X0.287500X-0.237500X0*%
%ADD38RoundRect,0.150000X-0.587500X-0.150000X0.587500X-0.150000X0.587500X0.150000X-0.587500X0.150000X0*%
%ADD39C,2.540000*%
%ADD40C,18.288000*%
%ADD41RoundRect,0.150000X0.825000X0.150000X-0.825000X0.150000X-0.825000X-0.150000X0.825000X-0.150000X0*%
%ADD42RoundRect,0.250000X-0.850000X-0.350000X0.850000X-0.350000X0.850000X0.350000X-0.850000X0.350000X0*%
%ADD43RoundRect,0.249997X-2.950003X-2.650003X2.950003X-2.650003X2.950003X2.650003X-2.950003X2.650003X0*%
%ADD44RoundRect,0.150000X0.150000X-0.587500X0.150000X0.587500X-0.150000X0.587500X-0.150000X-0.587500X0*%
%ADD45RoundRect,0.150000X-0.150000X0.587500X-0.150000X-0.587500X0.150000X-0.587500X0.150000X0.587500X0*%
%ADD46C,1.100000*%
%ADD47C,1.400000*%
%ADD48C,4.000000*%
%ADD49C,2.000000*%
%ADD50C,1.524000*%
%ADD51C,1.308000*%
%ADD52C,1.208000*%
%ADD53O,5.100000X3.000000*%
%ADD54O,3.000000X5.100000*%
G04 APERTURE END LIST*
D10*
%TO.C,C9*%
X373380000Y-138137500D03*
X373380000Y-141262500D03*
%TD*%
D11*
%TO.C,R58*%
X343672500Y-167385000D03*
X345497500Y-167385000D03*
%TD*%
D12*
%TO.C,R15*%
X194956500Y-193549000D03*
X193131500Y-193549000D03*
%TD*%
D13*
%TO.C,D4*%
X266587000Y-126492000D03*
X268337000Y-126492000D03*
%TD*%
D14*
%TO.C,C22*%
X199136000Y-107087500D03*
X199136000Y-108812500D03*
%TD*%
D15*
%TO.C,C26*%
X170587500Y-207772000D03*
X172312500Y-207772000D03*
%TD*%
D13*
%TO.C,D20*%
X365393000Y-185674000D03*
X367143000Y-185674000D03*
%TD*%
D16*
%TO.C,C1*%
X212972000Y-157480000D03*
D17*
X220472000Y-157480000D03*
%TD*%
D18*
%TO.C,C2*%
X345500888Y-231140000D03*
D19*
X347500888Y-231140000D03*
%TD*%
D11*
%TO.C,R65*%
X284837500Y-121920000D03*
X286662500Y-121920000D03*
%TD*%
D12*
%TO.C,R36*%
X177442500Y-133096000D03*
X175617500Y-133096000D03*
%TD*%
D15*
%TO.C,C37*%
X370993500Y-220472000D03*
X372718500Y-220472000D03*
%TD*%
D11*
%TO.C,R62*%
X343672500Y-188721000D03*
X345497500Y-188721000D03*
%TD*%
D18*
%TO.C,C48*%
X267208000Y-132394888D03*
D19*
X267208000Y-134394888D03*
%TD*%
D20*
%TO.C,U11*%
X246126000Y-118280000D03*
X247396000Y-118280000D03*
X248666000Y-118280000D03*
X249936000Y-118280000D03*
X249936000Y-113030000D03*
X248666000Y-113030000D03*
X247396000Y-113030000D03*
X246126000Y-113030000D03*
%TD*%
D21*
%TO.C,C20*%
X172566500Y-164846000D03*
X170841500Y-164846000D03*
%TD*%
D22*
%TO.C,D12*%
X208026000Y-112240000D03*
X208026000Y-110490000D03*
%TD*%
D23*
%TO.C,Q14*%
X198971000Y-212084000D03*
D24*
X192671000Y-209804000D03*
D23*
X198971000Y-207524000D03*
%TD*%
D25*
%TO.C,Q21*%
X243967000Y-132842000D03*
X245237000Y-132842000D03*
X246507000Y-132842000D03*
X247777000Y-132842000D03*
X247777000Y-127892000D03*
X246507000Y-127892000D03*
X245237000Y-127892000D03*
X243967000Y-127892000D03*
%TD*%
D12*
%TO.C,R32*%
X177950500Y-199389000D03*
X176125500Y-199389000D03*
%TD*%
D11*
%TO.C,R59*%
X348348000Y-167385000D03*
X350173000Y-167385000D03*
%TD*%
D20*
%TO.C,U10*%
X213106000Y-118449000D03*
X214376000Y-118449000D03*
X215646000Y-118449000D03*
X216916000Y-118449000D03*
X216916000Y-113199000D03*
X215646000Y-113199000D03*
X214376000Y-113199000D03*
X213106000Y-113199000D03*
%TD*%
D14*
%TO.C,C45*%
X319024000Y-107495000D03*
X319024000Y-109220000D03*
%TD*%
D13*
%TO.C,D5*%
X320143500Y-124968000D03*
X321893500Y-124968000D03*
%TD*%
D12*
%TO.C,R29*%
X194853000Y-215393000D03*
X193028000Y-215393000D03*
%TD*%
D26*
%TO.C,VR1*%
X314833000Y-189992000D03*
X322453000Y-189992000D03*
X330073000Y-189992000D03*
D27*
X330073000Y-139192000D03*
D26*
X326263000Y-139192000D03*
X322453000Y-139192000D03*
X318643000Y-139192000D03*
D27*
X314833000Y-139192000D03*
%TD*%
D11*
%TO.C,R64*%
X365609500Y-204978000D03*
X367434500Y-204978000D03*
%TD*%
D28*
%TO.C,C52*%
X280924000Y-109220000D03*
X280924000Y-107495000D03*
%TD*%
D29*
%TO.C,Q25*%
X369491500Y-213040000D03*
X369491500Y-211140000D03*
X367616500Y-212090000D03*
%TD*%
D30*
%TO.C,R40*%
X217424000Y-135024500D03*
X217424000Y-133199500D03*
%TD*%
D13*
%TO.C,D21*%
X365644000Y-207772000D03*
X367394000Y-207772000D03*
%TD*%
D10*
%TO.C,C49*%
X262382000Y-131787500D03*
X262382000Y-134912500D03*
%TD*%
D30*
%TO.C,R8*%
X342900000Y-112672500D03*
X342900000Y-110847500D03*
%TD*%
D22*
%TO.C,D8*%
X363855000Y-112635000D03*
X363855000Y-110885000D03*
%TD*%
D15*
%TO.C,C18*%
X170333500Y-185420000D03*
X172058500Y-185420000D03*
%TD*%
D28*
%TO.C,C32*%
X246126000Y-109066500D03*
X246126000Y-107341500D03*
%TD*%
D23*
%TO.C,Q6*%
X198820000Y-190241000D03*
D24*
X192520000Y-187961000D03*
D23*
X198820000Y-185681000D03*
%TD*%
D30*
%TO.C,R24*%
X234442000Y-135024500D03*
X234442000Y-133199500D03*
%TD*%
D14*
%TO.C,C16*%
X354584000Y-107495000D03*
X354584000Y-109220000D03*
%TD*%
D31*
%TO.C,R13*%
X171625500Y-190603500D03*
X171625500Y-192428500D03*
%TD*%
D32*
%TO.C,V6*%
X170114031Y-237689640D03*
%TD*%
D14*
%TO.C,C21*%
X232156000Y-107341500D03*
X232156000Y-109066500D03*
%TD*%
D31*
%TO.C,R23*%
X171196000Y-212447500D03*
X171196000Y-214272500D03*
%TD*%
%TO.C,R17*%
X170766500Y-168722000D03*
X170766500Y-170547000D03*
%TD*%
D30*
%TO.C,R47*%
X254508000Y-112418500D03*
X254508000Y-110593500D03*
%TD*%
D12*
%TO.C,R35*%
X194382500Y-149352000D03*
X192557500Y-149352000D03*
%TD*%
D33*
%TO.C,D1*%
X272288000Y-231247000D03*
D34*
X272288000Y-236327000D03*
%TD*%
D14*
%TO.C,C47*%
X301244000Y-107495000D03*
X301244000Y-109220000D03*
%TD*%
D21*
%TO.C,C41*%
X372210500Y-175514000D03*
X370485500Y-175514000D03*
%TD*%
D25*
%TO.C,Q12*%
X227965000Y-132777000D03*
X229235000Y-132777000D03*
X230505000Y-132777000D03*
X231775000Y-132777000D03*
X231775000Y-127827000D03*
X230505000Y-127827000D03*
X229235000Y-127827000D03*
X227965000Y-127827000D03*
%TD*%
D35*
%TO.C,U13*%
X362523000Y-154559000D03*
X362523000Y-155829000D03*
X362523000Y-157099000D03*
X362523000Y-158369000D03*
X367473000Y-158369000D03*
X367473000Y-157099000D03*
X367473000Y-155829000D03*
X367473000Y-154559000D03*
%TD*%
D31*
%TO.C,R39*%
X176941000Y-237527500D03*
X176941000Y-239352500D03*
%TD*%
D12*
%TO.C,R14*%
X199425000Y-193549000D03*
X197600000Y-193549000D03*
%TD*%
D31*
%TO.C,R43*%
X253492000Y-132691500D03*
X253492000Y-134516500D03*
%TD*%
D36*
%TO.C,C4*%
X344922388Y-235712000D03*
X348047388Y-235712000D03*
%TD*%
D37*
%TO.C,D10*%
X177405000Y-152400000D03*
X175655000Y-152400000D03*
%TD*%
D38*
%TO.C,Q5*%
X174830500Y-190566000D03*
X174830500Y-192466000D03*
X176705500Y-191516000D03*
%TD*%
D14*
%TO.C,C51*%
X265684000Y-107495000D03*
X265684000Y-109220000D03*
%TD*%
%TO.C,C29*%
X215646000Y-107290500D03*
X215646000Y-109015500D03*
%TD*%
D39*
%TO.C,U20*%
X298577000Y-187706000D03*
X298577000Y-180086000D03*
X298577000Y-175006000D03*
X278257000Y-167386000D03*
X278257000Y-177546000D03*
X278257000Y-187706000D03*
%TD*%
D40*
%TO.C,V2*%
X227330000Y-228600000D03*
%TD*%
D12*
%TO.C,R44*%
X199425000Y-238506000D03*
X197600000Y-238506000D03*
%TD*%
D38*
%TO.C,Q7*%
X173814500Y-168722000D03*
X173814500Y-170622000D03*
X175689500Y-169672000D03*
%TD*%
D21*
%TO.C,C28*%
X172566500Y-142240000D03*
X170841500Y-142240000D03*
%TD*%
D41*
%TO.C,U4*%
X180464000Y-184277000D03*
X180464000Y-183007000D03*
X180464000Y-181737000D03*
X180464000Y-180467000D03*
X175514000Y-180467000D03*
X175514000Y-181737000D03*
X175514000Y-183007000D03*
X175514000Y-184277000D03*
%TD*%
D25*
%TO.C,U21*%
X263144000Y-117394000D03*
X264414000Y-117394000D03*
X265684000Y-117394000D03*
X266954000Y-117394000D03*
X266954000Y-112444000D03*
X265684000Y-112444000D03*
X264414000Y-112444000D03*
X263144000Y-112444000D03*
%TD*%
D30*
%TO.C,R49*%
X370997000Y-149165000D03*
X370997000Y-147340000D03*
%TD*%
D12*
%TO.C,R48*%
X177696500Y-221234000D03*
X175871500Y-221234000D03*
%TD*%
D25*
%TO.C,U23*%
X280924000Y-117394000D03*
X282194000Y-117394000D03*
X283464000Y-117394000D03*
X284734000Y-117394000D03*
X284734000Y-112444000D03*
X283464000Y-112444000D03*
X282194000Y-112444000D03*
X280924000Y-112444000D03*
%TD*%
D11*
%TO.C,R51*%
X348752500Y-145288000D03*
X350577500Y-145288000D03*
%TD*%
%TO.C,R3*%
X320143500Y-122174000D03*
X321968500Y-122174000D03*
%TD*%
D14*
%TO.C,C30*%
X248666000Y-107341500D03*
X248666000Y-109066500D03*
%TD*%
D42*
%TO.C,Q28*%
X344230000Y-170694000D03*
D43*
X350530000Y-172974000D03*
D42*
X344230000Y-175254000D03*
%TD*%
D44*
%TO.C,Q10*%
X205981500Y-140129500D03*
X207881500Y-140129500D03*
X206931500Y-138254500D03*
%TD*%
D30*
%TO.C,R12*%
X360680000Y-112672500D03*
X360680000Y-110847500D03*
%TD*%
D32*
%TO.C,V4*%
X170180000Y-104344980D03*
%TD*%
D29*
%TO.C,Q29*%
X368729500Y-191704000D03*
X368729500Y-189804000D03*
X366854500Y-190754000D03*
%TD*%
D11*
%TO.C,R21*%
X233529500Y-142826500D03*
X235354500Y-142826500D03*
%TD*%
D31*
%TO.C,R4*%
X370078000Y-129897500D03*
X370078000Y-131722500D03*
%TD*%
D41*
%TO.C,U8*%
X180529000Y-205994000D03*
X180529000Y-204724000D03*
X180529000Y-203454000D03*
X180529000Y-202184000D03*
X175579000Y-202184000D03*
X175579000Y-203454000D03*
X175579000Y-204724000D03*
X175579000Y-205994000D03*
%TD*%
D32*
%TO.C,V5*%
X373377271Y-237765840D03*
%TD*%
D30*
%TO.C,R6*%
X337566000Y-130706500D03*
X337566000Y-128881500D03*
%TD*%
D25*
%TO.C,Q13*%
X197866000Y-132777000D03*
X199136000Y-132777000D03*
X200406000Y-132777000D03*
X201676000Y-132777000D03*
X201676000Y-127827000D03*
X200406000Y-127827000D03*
X199136000Y-127827000D03*
X197866000Y-127827000D03*
%TD*%
D29*
%TO.C,Q27*%
X368143000Y-170368000D03*
X368143000Y-168468000D03*
X366268000Y-169418000D03*
%TD*%
D25*
%TO.C,Q20*%
X210947000Y-132777000D03*
X212217000Y-132777000D03*
X213487000Y-132777000D03*
X214757000Y-132777000D03*
X214757000Y-127827000D03*
X213487000Y-127827000D03*
X212217000Y-127827000D03*
X210947000Y-127827000D03*
%TD*%
D30*
%TO.C,R26*%
X203962000Y-134770500D03*
X203962000Y-132945500D03*
%TD*%
%TO.C,R53*%
X372539500Y-213034000D03*
X372539500Y-211209000D03*
%TD*%
D38*
%TO.C,Q15*%
X174576500Y-146878000D03*
X174576500Y-148778000D03*
X176451500Y-147828000D03*
%TD*%
D31*
%TO.C,R25*%
X237236000Y-133199500D03*
X237236000Y-135024500D03*
%TD*%
D28*
%TO.C,C44*%
X316484000Y-109220000D03*
X316484000Y-107495000D03*
%TD*%
D21*
%TO.C,C43*%
X372464500Y-196596000D03*
X370739500Y-196596000D03*
%TD*%
D23*
%TO.C,Q22*%
X198820000Y-233929000D03*
D24*
X192520000Y-231649000D03*
D23*
X198820000Y-229369000D03*
%TD*%
D35*
%TO.C,U17*%
X362842000Y-198628000D03*
X362842000Y-199898000D03*
X362842000Y-201168000D03*
X362842000Y-202438000D03*
X367792000Y-202438000D03*
X367792000Y-201168000D03*
X367792000Y-199898000D03*
X367792000Y-198628000D03*
%TD*%
D36*
%TO.C,C6*%
X344922388Y-238506000D03*
X348047388Y-238506000D03*
%TD*%
D29*
%TO.C,Q23*%
X367792000Y-149032000D03*
X367792000Y-147132000D03*
X365917000Y-148082000D03*
%TD*%
D41*
%TO.C,U5*%
X180275000Y-161925000D03*
X180275000Y-160655000D03*
X180275000Y-159385000D03*
X180275000Y-158115000D03*
X175325000Y-158115000D03*
X175325000Y-159385000D03*
X175325000Y-160655000D03*
X175325000Y-161925000D03*
%TD*%
D12*
%TO.C,R19*%
X194353000Y-171525700D03*
X192528000Y-171525700D03*
%TD*%
D14*
%TO.C,C14*%
X336804000Y-107495000D03*
X336804000Y-109220000D03*
%TD*%
D42*
%TO.C,Q26*%
X344117000Y-213365000D03*
D43*
X350417000Y-215645000D03*
D42*
X344117000Y-217925000D03*
%TD*%
D13*
%TO.C,D22*%
X284847000Y-124714000D03*
X286597000Y-124714000D03*
%TD*%
D15*
%TO.C,C42*%
X370739500Y-199136000D03*
X372464500Y-199136000D03*
%TD*%
D18*
%TO.C,C8*%
X298958000Y-131572000D03*
D19*
X296458000Y-131572000D03*
%TD*%
D28*
%TO.C,C23*%
X229616000Y-109066500D03*
X229616000Y-107341500D03*
%TD*%
D30*
%TO.C,R42*%
X250444000Y-134516500D03*
X250444000Y-132691500D03*
%TD*%
D44*
%TO.C,Q9*%
X233492000Y-139700000D03*
X235392000Y-139700000D03*
X234442000Y-137825000D03*
%TD*%
D37*
%TO.C,D14*%
X177405000Y-130302000D03*
X175655000Y-130302000D03*
%TD*%
D21*
%TO.C,C36*%
X372464500Y-153670000D03*
X370739500Y-153670000D03*
%TD*%
D15*
%TO.C,C34*%
X170841500Y-229362000D03*
X172566500Y-229362000D03*
%TD*%
D13*
%TO.C,D18*%
X365647000Y-164084000D03*
X367397000Y-164084000D03*
%TD*%
D14*
%TO.C,C12*%
X373126000Y-129947500D03*
X373126000Y-131672500D03*
%TD*%
D11*
%TO.C,R56*%
X365609500Y-226060000D03*
X367434500Y-226060000D03*
%TD*%
D13*
%TO.C,D19*%
X365684500Y-228854000D03*
X367434500Y-228854000D03*
%TD*%
D42*
%TO.C,Q24*%
X344449000Y-149357000D03*
D43*
X350749000Y-151637000D03*
D42*
X344449000Y-153917000D03*
%TD*%
D21*
%TO.C,C17*%
X172058500Y-182880000D03*
X170333500Y-182880000D03*
%TD*%
D42*
%TO.C,Q30*%
X343941000Y-192029000D03*
D43*
X350241000Y-194309000D03*
D42*
X343941000Y-196589000D03*
%TD*%
D12*
%TO.C,R34*%
X199058000Y-149352000D03*
X197233000Y-149352000D03*
%TD*%
D25*
%TO.C,Q2*%
X331597000Y-130491000D03*
X332867000Y-130491000D03*
X334137000Y-130491000D03*
X335407000Y-130491000D03*
X335407000Y-125541000D03*
X334137000Y-125541000D03*
X332867000Y-125541000D03*
X331597000Y-125541000D03*
%TD*%
D40*
%TO.C,V1*%
X325628000Y-228346000D03*
%TD*%
D11*
%TO.C,R55*%
X348244500Y-210057000D03*
X350069500Y-210057000D03*
%TD*%
%TO.C,R63*%
X347829500Y-188722000D03*
X349654500Y-188722000D03*
%TD*%
D14*
%TO.C,C53*%
X283464000Y-107495000D03*
X283464000Y-109220000D03*
%TD*%
D12*
%TO.C,R18*%
X198925000Y-171525700D03*
X197100000Y-171525700D03*
%TD*%
D11*
%TO.C,R60*%
X365355500Y-182880000D03*
X367180500Y-182880000D03*
%TD*%
D38*
%TO.C,Q19*%
X179989000Y-237556000D03*
X179989000Y-239456000D03*
X181864000Y-238506000D03*
%TD*%
D21*
%TO.C,C38*%
X372718500Y-217932000D03*
X370993500Y-217932000D03*
%TD*%
D23*
%TO.C,Q16*%
X198510000Y-146044000D03*
D24*
X192210000Y-143764000D03*
D23*
X198510000Y-141484000D03*
%TD*%
D30*
%TO.C,R7*%
X340106000Y-130706500D03*
X340106000Y-128881500D03*
%TD*%
D20*
%TO.C,U2*%
X334264000Y-117544000D03*
X335534000Y-117544000D03*
X336804000Y-117544000D03*
X338074000Y-117544000D03*
X338074000Y-112294000D03*
X336804000Y-112294000D03*
X335534000Y-112294000D03*
X334264000Y-112294000D03*
%TD*%
D15*
%TO.C,C35*%
X370739500Y-156210000D03*
X372464500Y-156210000D03*
%TD*%
D20*
%TO.C,U19*%
X298704000Y-117544000D03*
X299974000Y-117544000D03*
X301244000Y-117544000D03*
X302514000Y-117544000D03*
X302514000Y-112294000D03*
X301244000Y-112294000D03*
X299974000Y-112294000D03*
X298704000Y-112294000D03*
%TD*%
D41*
%TO.C,U9*%
X180021000Y-140081000D03*
X180021000Y-138811000D03*
X180021000Y-137541000D03*
X180021000Y-136271000D03*
X175071000Y-136271000D03*
X175071000Y-137541000D03*
X175071000Y-138811000D03*
X175071000Y-140081000D03*
%TD*%
D44*
%TO.C,Q17*%
X216474000Y-139621500D03*
X218374000Y-139621500D03*
X217424000Y-137746500D03*
%TD*%
D20*
%TO.C,U18*%
X316484000Y-117544000D03*
X317754000Y-117544000D03*
X319024000Y-117544000D03*
X320294000Y-117544000D03*
X320294000Y-112294000D03*
X319024000Y-112294000D03*
X317754000Y-112294000D03*
X316484000Y-112294000D03*
%TD*%
D37*
%TO.C,D3*%
X372223000Y-143256000D03*
X370473000Y-143256000D03*
%TD*%
D16*
%TO.C,C3*%
X231437246Y-175768000D03*
D17*
X238937246Y-175768000D03*
%TD*%
D31*
%TO.C,R41*%
X220472000Y-133199500D03*
X220472000Y-135024500D03*
%TD*%
D30*
%TO.C,R31*%
X204978000Y-112287500D03*
X204978000Y-110462500D03*
%TD*%
D45*
%TO.C,Q3*%
X357566000Y-124617000D03*
X355666000Y-124617000D03*
X356616000Y-126492000D03*
%TD*%
D12*
%TO.C,R16*%
X177696500Y-178054000D03*
X175871500Y-178054000D03*
%TD*%
D30*
%TO.C,R46*%
X221615000Y-112418500D03*
X221615000Y-110593500D03*
%TD*%
%TO.C,R11*%
X357886000Y-130706500D03*
X357886000Y-128881500D03*
%TD*%
D31*
%TO.C,R33*%
X171528500Y-146849500D03*
X171528500Y-148674500D03*
%TD*%
D37*
%TO.C,D6*%
X372477000Y-134112000D03*
X370727000Y-134112000D03*
%TD*%
D12*
%TO.C,R5*%
X339748500Y-121412000D03*
X337923500Y-121412000D03*
%TD*%
D46*
%TO.C,J1*%
X188874000Y-117590000D03*
X187604000Y-120130000D03*
X186334000Y-117590000D03*
X185064000Y-120130000D03*
X183794000Y-117590000D03*
X182524000Y-120130000D03*
X181254000Y-117590000D03*
X179984000Y-120130000D03*
D47*
X190754000Y-106160000D03*
X188214000Y-107950000D03*
X180644000Y-106160000D03*
X178104000Y-107950000D03*
D48*
X190144000Y-111240000D03*
X178714000Y-111240000D03*
D49*
X192304000Y-114290000D03*
X176554000Y-114290000D03*
%TD*%
D12*
%TO.C,R20*%
X177442500Y-154940000D03*
X175617500Y-154940000D03*
%TD*%
D28*
%TO.C,C24*%
X196531700Y-108812500D03*
X196531700Y-107087500D03*
%TD*%
D11*
%TO.C,R50*%
X344180500Y-145288000D03*
X346005500Y-145288000D03*
%TD*%
D28*
%TO.C,C50*%
X263144000Y-109220000D03*
X263144000Y-107495000D03*
%TD*%
D37*
%TO.C,D9*%
X177659000Y-175006000D03*
X175909000Y-175006000D03*
%TD*%
D30*
%TO.C,R1*%
X370078000Y-140612500D03*
X370078000Y-138787500D03*
%TD*%
D25*
%TO.C,Q4*%
X348869000Y-130237000D03*
X350139000Y-130237000D03*
X351409000Y-130237000D03*
X352679000Y-130237000D03*
X352679000Y-125287000D03*
X351409000Y-125287000D03*
X350139000Y-125287000D03*
X348869000Y-125287000D03*
%TD*%
D37*
%TO.C,D17*%
X177659000Y-218186000D03*
X175909000Y-218186000D03*
%TD*%
D11*
%TO.C,R54*%
X343672500Y-210057000D03*
X345497500Y-210057000D03*
%TD*%
D30*
%TO.C,R10*%
X355346000Y-130706500D03*
X355346000Y-128881500D03*
%TD*%
D21*
%TO.C,C33*%
X172566500Y-226822000D03*
X170841500Y-226822000D03*
%TD*%
D35*
%TO.C,U14*%
X362842000Y-219837000D03*
X362842000Y-221107000D03*
X362842000Y-222377000D03*
X362842000Y-223647000D03*
X367792000Y-223647000D03*
X367792000Y-222377000D03*
X367792000Y-221107000D03*
X367792000Y-219837000D03*
%TD*%
D41*
%TO.C,U12*%
X180210000Y-228727000D03*
X180210000Y-227457000D03*
X180210000Y-226187000D03*
X180210000Y-224917000D03*
X175260000Y-224917000D03*
X175260000Y-226187000D03*
X175260000Y-227457000D03*
X175260000Y-228727000D03*
%TD*%
D50*
%TO.C,U1*%
X353441000Y-140716000D03*
X353441000Y-138176000D03*
X353441000Y-135636000D03*
%TD*%
D23*
%TO.C,Q8*%
X198319500Y-168218700D03*
D24*
X192019500Y-165938700D03*
D23*
X198319500Y-163658700D03*
%TD*%
D16*
%TO.C,C7*%
X212928754Y-175514000D03*
D17*
X220428754Y-175514000D03*
%TD*%
D18*
%TO.C,C10*%
X281746888Y-132334000D03*
D19*
X283746888Y-132334000D03*
%TD*%
D39*
%TO.C,U22*%
X298577000Y-158750000D03*
X298577000Y-151130000D03*
X298577000Y-146050000D03*
X278257000Y-138430000D03*
X278257000Y-148590000D03*
X278257000Y-158750000D03*
%TD*%
D22*
%TO.C,D16*%
X257556000Y-112381000D03*
X257556000Y-110631000D03*
%TD*%
D16*
%TO.C,C5*%
X230886000Y-157734000D03*
D17*
X238386000Y-157734000D03*
%TD*%
D20*
%TO.C,U3*%
X352044000Y-117544000D03*
X353314000Y-117544000D03*
X354584000Y-117544000D03*
X355854000Y-117544000D03*
X355854000Y-112294000D03*
X354584000Y-112294000D03*
X353314000Y-112294000D03*
X352044000Y-112294000D03*
%TD*%
D11*
%TO.C,R38*%
X246054000Y-142591000D03*
X247879000Y-142591000D03*
%TD*%
D21*
%TO.C,C25*%
X172312500Y-205232000D03*
X170587500Y-205232000D03*
%TD*%
D15*
%TO.C,C40*%
X370485500Y-177800000D03*
X372210500Y-177800000D03*
%TD*%
D30*
%TO.C,R61*%
X371680500Y-191666500D03*
X371680500Y-189841500D03*
%TD*%
%TO.C,R30*%
X238112300Y-112418500D03*
X238112300Y-110593500D03*
%TD*%
D32*
%TO.C,V3*%
X373377271Y-104251000D03*
%TD*%
D30*
%TO.C,R57*%
X371094000Y-170330500D03*
X371094000Y-168505500D03*
%TD*%
D28*
%TO.C,C46*%
X298704000Y-109220000D03*
X298704000Y-107495000D03*
%TD*%
D11*
%TO.C,R2*%
X266549500Y-123698000D03*
X268374500Y-123698000D03*
%TD*%
D36*
%TO.C,C11*%
X281393500Y-128016000D03*
X284518500Y-128016000D03*
%TD*%
D33*
%TO.C,D2*%
X279908000Y-231247000D03*
D34*
X279908000Y-236327000D03*
%TD*%
D15*
%TO.C,C27*%
X170841500Y-139700000D03*
X172566500Y-139700000D03*
%TD*%
D12*
%TO.C,R45*%
X194448500Y-238506000D03*
X192623500Y-238506000D03*
%TD*%
D11*
%TO.C,R37*%
X216511500Y-142669500D03*
X218336500Y-142669500D03*
%TD*%
D28*
%TO.C,C15*%
X352044000Y-109220000D03*
X352044000Y-107495000D03*
%TD*%
D20*
%TO.C,U6*%
X229603300Y-118500000D03*
X230873300Y-118500000D03*
X232143300Y-118500000D03*
X233413300Y-118500000D03*
X233413300Y-113250000D03*
X232143300Y-113250000D03*
X230873300Y-113250000D03*
X229603300Y-113250000D03*
%TD*%
D15*
%TO.C,C19*%
X170841500Y-162306000D03*
X172566500Y-162306000D03*
%TD*%
D31*
%TO.C,R27*%
X207010000Y-132945500D03*
X207010000Y-134770500D03*
%TD*%
D22*
%TO.C,D11*%
X241160300Y-112381000D03*
X241160300Y-110631000D03*
%TD*%
D11*
%TO.C,R52*%
X365609500Y-161290000D03*
X367434500Y-161290000D03*
%TD*%
D28*
%TO.C,C39*%
X178308000Y-125362000D03*
X178308000Y-123637000D03*
%TD*%
D12*
%TO.C,R9*%
X357528500Y-121412000D03*
X355703500Y-121412000D03*
%TD*%
D22*
%TO.C,D15*%
X224663000Y-112381000D03*
X224663000Y-110631000D03*
%TD*%
D28*
%TO.C,C31*%
X213108700Y-109015500D03*
X213108700Y-107290500D03*
%TD*%
D11*
%TO.C,R22*%
X206019000Y-143080500D03*
X207844000Y-143080500D03*
%TD*%
D38*
%TO.C,Q11*%
X174498000Y-212410000D03*
X174498000Y-214310000D03*
X176373000Y-213360000D03*
%TD*%
D51*
%TO.C,U15*%
X267870000Y-195580000D03*
X267870000Y-193040000D03*
X267870000Y-190500000D03*
X267870000Y-187960000D03*
X267870000Y-162560000D03*
X252630000Y-193040000D03*
X267870000Y-185420000D03*
X267870000Y-182880000D03*
X267870000Y-180340000D03*
X267870000Y-177800000D03*
X267870000Y-175260000D03*
X267870000Y-172720000D03*
X267870000Y-170180000D03*
X267870000Y-167640000D03*
X267870000Y-165100000D03*
X252630000Y-165100000D03*
X252630000Y-167640000D03*
X252630000Y-170180000D03*
X252630000Y-172720000D03*
X252630000Y-175260000D03*
X252630000Y-177800000D03*
X252630000Y-180340000D03*
X252630000Y-182880000D03*
X252630000Y-185420000D03*
X252630000Y-187960000D03*
X252630000Y-190500000D03*
X267870000Y-160020000D03*
X267870000Y-157480000D03*
X267870000Y-154940000D03*
X267870000Y-152400000D03*
X267870000Y-149860000D03*
X267870000Y-147320000D03*
X267870000Y-144780000D03*
X267870000Y-142240000D03*
X267870000Y-139700000D03*
X252630000Y-139700000D03*
X252630000Y-142240000D03*
X252630000Y-144780000D03*
X252630000Y-147320000D03*
X252630000Y-149860000D03*
X252630000Y-152400000D03*
X252630000Y-154940000D03*
X252630000Y-157480000D03*
X252630000Y-160020000D03*
X267870000Y-198120000D03*
X252630000Y-162560000D03*
X252630000Y-195580000D03*
D52*
X257080000Y-183150000D03*
X257080000Y-185150000D03*
X255080000Y-185150000D03*
X255080000Y-183150000D03*
X259080000Y-183150000D03*
X259080000Y-185150000D03*
D51*
X252630000Y-198120000D03*
%TD*%
D28*
%TO.C,C13*%
X334264000Y-109220000D03*
X334264000Y-107495000D03*
%TD*%
D45*
%TO.C,Q1*%
X339786000Y-124617000D03*
X337886000Y-124617000D03*
X338836000Y-126492000D03*
%TD*%
D35*
%TO.C,U16*%
X362588000Y-176784000D03*
X362588000Y-178054000D03*
X362588000Y-179324000D03*
X362588000Y-180594000D03*
X367538000Y-180594000D03*
X367538000Y-179324000D03*
X367538000Y-178054000D03*
X367538000Y-176784000D03*
%TD*%
D22*
%TO.C,D7*%
X346202000Y-112635000D03*
X346202000Y-110885000D03*
%TD*%
D20*
%TO.C,U7*%
X196596000Y-118167000D03*
X197866000Y-118167000D03*
X199136000Y-118167000D03*
X200406000Y-118167000D03*
X200406000Y-112917000D03*
X199136000Y-112917000D03*
X197866000Y-112917000D03*
X196596000Y-112917000D03*
%TD*%
D37*
%TO.C,D13*%
X177875500Y-196850000D03*
X176125500Y-196850000D03*
%TD*%
D12*
%TO.C,R28*%
X199528500Y-215393000D03*
X197703500Y-215393000D03*
%TD*%
D44*
%TO.C,Q18*%
X245938000Y-139543000D03*
X247838000Y-139543000D03*
X246888000Y-137668000D03*
%TD*%
D53*
%TO.C,Conn18*%
X308745700Y-126287500D03*
X308745700Y-118413500D03*
%TD*%
D54*
%TO.C,Conn4*%
X351132000Y-225945700D03*
X359006000Y-225945700D03*
%TD*%
%TO.C,Conn3*%
X191772500Y-221094300D03*
X183898500Y-221094300D03*
%TD*%
D53*
%TO.C,Conn19*%
X290965700Y-126287500D03*
X290965700Y-118413500D03*
%TD*%
D54*
%TO.C,Conn9*%
X191677000Y-155006000D03*
X183803000Y-155006000D03*
%TD*%
D53*
%TO.C,Conn10*%
X344305700Y-126287500D03*
X344305700Y-118413500D03*
%TD*%
%TO.C,Conn17*%
X326525700Y-126287500D03*
X326525700Y-118413500D03*
%TD*%
D54*
%TO.C,Conn6*%
X351132000Y-183273700D03*
X359006000Y-183273700D03*
%TD*%
%TO.C,Conn8*%
X191706500Y-132832300D03*
X183832500Y-132832300D03*
%TD*%
%TO.C,Conn1*%
X191772500Y-177914300D03*
X183898500Y-177914300D03*
%TD*%
D53*
%TO.C,Conn16*%
X273185700Y-126287500D03*
X273185700Y-118413500D03*
%TD*%
D54*
%TO.C,Conn7*%
X351132000Y-161683700D03*
X359006000Y-161683700D03*
%TD*%
D53*
%TO.C,Conn12*%
X255917700Y-126033500D03*
X255917700Y-118159500D03*
%TD*%
%TO.C,Conn14*%
X239522000Y-126238000D03*
X239522000Y-118364000D03*
%TD*%
%TO.C,Conn15*%
X206387700Y-126259500D03*
X206387700Y-118385500D03*
%TD*%
D54*
%TO.C,Conn2*%
X191772500Y-199504300D03*
X183898500Y-199504300D03*
%TD*%
D53*
%TO.C,Conn13*%
X223024700Y-126238000D03*
X223024700Y-118364000D03*
%TD*%
D54*
%TO.C,Conn5*%
X351132000Y-204863700D03*
X359006000Y-204863700D03*
%TD*%
D53*
%TO.C,Conn11*%
X362085700Y-126287500D03*
X362085700Y-118413500D03*
%TD*%
M02*
