%TF.GenerationSoftware,KiCad,Pcbnew,7.0.7*%
%TF.CreationDate,2023-11-05T16:26:51-06:00*%
%TF.ProjectId,PowerBoard_2024,506f7765-7242-46f6-9172-645f32303234,rev?*%
%TF.SameCoordinates,Original*%
%TF.FileFunction,Legend,Bot*%
%TF.FilePolarity,Positive*%
%FSLAX46Y46*%
G04 Gerber Fmt 4.6, Leading zero omitted, Abs format (unit mm)*
G04 Created by KiCad (PCBNEW 7.0.7) date 2023-11-05 16:26:51*
%MOMM*%
%LPD*%
G01*
G04 APERTURE LIST*
%ADD10C,0.150000*%
G04 APERTURE END LIST*
D10*
X313447280Y-110563499D02*
X313494900Y-110515880D01*
X313494900Y-110515880D02*
X313542519Y-110373023D01*
X313542519Y-110373023D02*
X313542519Y-110277785D01*
X313542519Y-110277785D02*
X313494900Y-110134928D01*
X313494900Y-110134928D02*
X313399661Y-110039690D01*
X313399661Y-110039690D02*
X313304423Y-109992071D01*
X313304423Y-109992071D02*
X313113947Y-109944452D01*
X313113947Y-109944452D02*
X312971090Y-109944452D01*
X312971090Y-109944452D02*
X312780614Y-109992071D01*
X312780614Y-109992071D02*
X312685376Y-110039690D01*
X312685376Y-110039690D02*
X312590138Y-110134928D01*
X312590138Y-110134928D02*
X312542519Y-110277785D01*
X312542519Y-110277785D02*
X312542519Y-110373023D01*
X312542519Y-110373023D02*
X312590138Y-110515880D01*
X312590138Y-110515880D02*
X312637757Y-110563499D01*
X313542519Y-111134928D02*
X313494900Y-111039690D01*
X313494900Y-111039690D02*
X313447280Y-110992071D01*
X313447280Y-110992071D02*
X313352042Y-110944452D01*
X313352042Y-110944452D02*
X313066328Y-110944452D01*
X313066328Y-110944452D02*
X312971090Y-110992071D01*
X312971090Y-110992071D02*
X312923471Y-111039690D01*
X312923471Y-111039690D02*
X312875852Y-111134928D01*
X312875852Y-111134928D02*
X312875852Y-111277785D01*
X312875852Y-111277785D02*
X312923471Y-111373023D01*
X312923471Y-111373023D02*
X312971090Y-111420642D01*
X312971090Y-111420642D02*
X313066328Y-111468261D01*
X313066328Y-111468261D02*
X313352042Y-111468261D01*
X313352042Y-111468261D02*
X313447280Y-111420642D01*
X313447280Y-111420642D02*
X313494900Y-111373023D01*
X313494900Y-111373023D02*
X313542519Y-111277785D01*
X313542519Y-111277785D02*
X313542519Y-111134928D01*
X312875852Y-111896833D02*
X313542519Y-111896833D01*
X312971090Y-111896833D02*
X312923471Y-111944452D01*
X312923471Y-111944452D02*
X312875852Y-112039690D01*
X312875852Y-112039690D02*
X312875852Y-112182547D01*
X312875852Y-112182547D02*
X312923471Y-112277785D01*
X312923471Y-112277785D02*
X313018709Y-112325404D01*
X313018709Y-112325404D02*
X313542519Y-112325404D01*
X312875852Y-112801595D02*
X313542519Y-112801595D01*
X312971090Y-112801595D02*
X312923471Y-112849214D01*
X312923471Y-112849214D02*
X312875852Y-112944452D01*
X312875852Y-112944452D02*
X312875852Y-113087309D01*
X312875852Y-113087309D02*
X312923471Y-113182547D01*
X312923471Y-113182547D02*
X313018709Y-113230166D01*
X313018709Y-113230166D02*
X313542519Y-113230166D01*
X313542519Y-114230166D02*
X313542519Y-113658738D01*
X313542519Y-113944452D02*
X312542519Y-113944452D01*
X312542519Y-113944452D02*
X312685376Y-113849214D01*
X312685376Y-113849214D02*
X312780614Y-113753976D01*
X312780614Y-113753976D02*
X312828233Y-113658738D01*
X312971090Y-114801595D02*
X312923471Y-114706357D01*
X312923471Y-114706357D02*
X312875852Y-114658738D01*
X312875852Y-114658738D02*
X312780614Y-114611119D01*
X312780614Y-114611119D02*
X312732995Y-114611119D01*
X312732995Y-114611119D02*
X312637757Y-114658738D01*
X312637757Y-114658738D02*
X312590138Y-114706357D01*
X312590138Y-114706357D02*
X312542519Y-114801595D01*
X312542519Y-114801595D02*
X312542519Y-114992071D01*
X312542519Y-114992071D02*
X312590138Y-115087309D01*
X312590138Y-115087309D02*
X312637757Y-115134928D01*
X312637757Y-115134928D02*
X312732995Y-115182547D01*
X312732995Y-115182547D02*
X312780614Y-115182547D01*
X312780614Y-115182547D02*
X312875852Y-115134928D01*
X312875852Y-115134928D02*
X312923471Y-115087309D01*
X312923471Y-115087309D02*
X312971090Y-114992071D01*
X312971090Y-114992071D02*
X312971090Y-114801595D01*
X312971090Y-114801595D02*
X313018709Y-114706357D01*
X313018709Y-114706357D02*
X313066328Y-114658738D01*
X313066328Y-114658738D02*
X313161566Y-114611119D01*
X313161566Y-114611119D02*
X313352042Y-114611119D01*
X313352042Y-114611119D02*
X313447280Y-114658738D01*
X313447280Y-114658738D02*
X313494900Y-114706357D01*
X313494900Y-114706357D02*
X313542519Y-114801595D01*
X313542519Y-114801595D02*
X313542519Y-114992071D01*
X313542519Y-114992071D02*
X313494900Y-115087309D01*
X313494900Y-115087309D02*
X313447280Y-115134928D01*
X313447280Y-115134928D02*
X313352042Y-115182547D01*
X313352042Y-115182547D02*
X313161566Y-115182547D01*
X313161566Y-115182547D02*
X313066328Y-115134928D01*
X313066328Y-115134928D02*
X313018709Y-115087309D01*
X313018709Y-115087309D02*
X312971090Y-114992071D01*
X365871809Y-231155280D02*
X365919428Y-231202900D01*
X365919428Y-231202900D02*
X366062285Y-231250519D01*
X366062285Y-231250519D02*
X366157523Y-231250519D01*
X366157523Y-231250519D02*
X366300380Y-231202900D01*
X366300380Y-231202900D02*
X366395618Y-231107661D01*
X366395618Y-231107661D02*
X366443237Y-231012423D01*
X366443237Y-231012423D02*
X366490856Y-230821947D01*
X366490856Y-230821947D02*
X366490856Y-230679090D01*
X366490856Y-230679090D02*
X366443237Y-230488614D01*
X366443237Y-230488614D02*
X366395618Y-230393376D01*
X366395618Y-230393376D02*
X366300380Y-230298138D01*
X366300380Y-230298138D02*
X366157523Y-230250519D01*
X366157523Y-230250519D02*
X366062285Y-230250519D01*
X366062285Y-230250519D02*
X365919428Y-230298138D01*
X365919428Y-230298138D02*
X365871809Y-230345757D01*
X365300380Y-231250519D02*
X365395618Y-231202900D01*
X365395618Y-231202900D02*
X365443237Y-231155280D01*
X365443237Y-231155280D02*
X365490856Y-231060042D01*
X365490856Y-231060042D02*
X365490856Y-230774328D01*
X365490856Y-230774328D02*
X365443237Y-230679090D01*
X365443237Y-230679090D02*
X365395618Y-230631471D01*
X365395618Y-230631471D02*
X365300380Y-230583852D01*
X365300380Y-230583852D02*
X365157523Y-230583852D01*
X365157523Y-230583852D02*
X365062285Y-230631471D01*
X365062285Y-230631471D02*
X365014666Y-230679090D01*
X365014666Y-230679090D02*
X364967047Y-230774328D01*
X364967047Y-230774328D02*
X364967047Y-231060042D01*
X364967047Y-231060042D02*
X365014666Y-231155280D01*
X365014666Y-231155280D02*
X365062285Y-231202900D01*
X365062285Y-231202900D02*
X365157523Y-231250519D01*
X365157523Y-231250519D02*
X365300380Y-231250519D01*
X364538475Y-230583852D02*
X364538475Y-231250519D01*
X364538475Y-230679090D02*
X364490856Y-230631471D01*
X364490856Y-230631471D02*
X364395618Y-230583852D01*
X364395618Y-230583852D02*
X364252761Y-230583852D01*
X364252761Y-230583852D02*
X364157523Y-230631471D01*
X364157523Y-230631471D02*
X364109904Y-230726709D01*
X364109904Y-230726709D02*
X364109904Y-231250519D01*
X363633713Y-230583852D02*
X363633713Y-231250519D01*
X363633713Y-230679090D02*
X363586094Y-230631471D01*
X363586094Y-230631471D02*
X363490856Y-230583852D01*
X363490856Y-230583852D02*
X363347999Y-230583852D01*
X363347999Y-230583852D02*
X363252761Y-230631471D01*
X363252761Y-230631471D02*
X363205142Y-230726709D01*
X363205142Y-230726709D02*
X363205142Y-231250519D01*
X362300380Y-230583852D02*
X362300380Y-231250519D01*
X362538475Y-230202900D02*
X362776570Y-230917185D01*
X362776570Y-230917185D02*
X362157523Y-230917185D01*
X179064309Y-214063880D02*
X179111928Y-214111500D01*
X179111928Y-214111500D02*
X179254785Y-214159119D01*
X179254785Y-214159119D02*
X179350023Y-214159119D01*
X179350023Y-214159119D02*
X179492880Y-214111500D01*
X179492880Y-214111500D02*
X179588118Y-214016261D01*
X179588118Y-214016261D02*
X179635737Y-213921023D01*
X179635737Y-213921023D02*
X179683356Y-213730547D01*
X179683356Y-213730547D02*
X179683356Y-213587690D01*
X179683356Y-213587690D02*
X179635737Y-213397214D01*
X179635737Y-213397214D02*
X179588118Y-213301976D01*
X179588118Y-213301976D02*
X179492880Y-213206738D01*
X179492880Y-213206738D02*
X179350023Y-213159119D01*
X179350023Y-213159119D02*
X179254785Y-213159119D01*
X179254785Y-213159119D02*
X179111928Y-213206738D01*
X179111928Y-213206738D02*
X179064309Y-213254357D01*
X178492880Y-214159119D02*
X178588118Y-214111500D01*
X178588118Y-214111500D02*
X178635737Y-214063880D01*
X178635737Y-214063880D02*
X178683356Y-213968642D01*
X178683356Y-213968642D02*
X178683356Y-213682928D01*
X178683356Y-213682928D02*
X178635737Y-213587690D01*
X178635737Y-213587690D02*
X178588118Y-213540071D01*
X178588118Y-213540071D02*
X178492880Y-213492452D01*
X178492880Y-213492452D02*
X178350023Y-213492452D01*
X178350023Y-213492452D02*
X178254785Y-213540071D01*
X178254785Y-213540071D02*
X178207166Y-213587690D01*
X178207166Y-213587690D02*
X178159547Y-213682928D01*
X178159547Y-213682928D02*
X178159547Y-213968642D01*
X178159547Y-213968642D02*
X178207166Y-214063880D01*
X178207166Y-214063880D02*
X178254785Y-214111500D01*
X178254785Y-214111500D02*
X178350023Y-214159119D01*
X178350023Y-214159119D02*
X178492880Y-214159119D01*
X177730975Y-213492452D02*
X177730975Y-214159119D01*
X177730975Y-213587690D02*
X177683356Y-213540071D01*
X177683356Y-213540071D02*
X177588118Y-213492452D01*
X177588118Y-213492452D02*
X177445261Y-213492452D01*
X177445261Y-213492452D02*
X177350023Y-213540071D01*
X177350023Y-213540071D02*
X177302404Y-213635309D01*
X177302404Y-213635309D02*
X177302404Y-214159119D01*
X176826213Y-213492452D02*
X176826213Y-214159119D01*
X176826213Y-213587690D02*
X176778594Y-213540071D01*
X176778594Y-213540071D02*
X176683356Y-213492452D01*
X176683356Y-213492452D02*
X176540499Y-213492452D01*
X176540499Y-213492452D02*
X176445261Y-213540071D01*
X176445261Y-213540071D02*
X176397642Y-213635309D01*
X176397642Y-213635309D02*
X176397642Y-214159119D01*
X176016689Y-213159119D02*
X175397642Y-213159119D01*
X175397642Y-213159119D02*
X175730975Y-213540071D01*
X175730975Y-213540071D02*
X175588118Y-213540071D01*
X175588118Y-213540071D02*
X175492880Y-213587690D01*
X175492880Y-213587690D02*
X175445261Y-213635309D01*
X175445261Y-213635309D02*
X175397642Y-213730547D01*
X175397642Y-213730547D02*
X175397642Y-213968642D01*
X175397642Y-213968642D02*
X175445261Y-214063880D01*
X175445261Y-214063880D02*
X175492880Y-214111500D01*
X175492880Y-214111500D02*
X175588118Y-214159119D01*
X175588118Y-214159119D02*
X175873832Y-214159119D01*
X175873832Y-214159119D02*
X175969070Y-214111500D01*
X175969070Y-214111500D02*
X176016689Y-214063880D01*
X295667280Y-110563499D02*
X295714900Y-110515880D01*
X295714900Y-110515880D02*
X295762519Y-110373023D01*
X295762519Y-110373023D02*
X295762519Y-110277785D01*
X295762519Y-110277785D02*
X295714900Y-110134928D01*
X295714900Y-110134928D02*
X295619661Y-110039690D01*
X295619661Y-110039690D02*
X295524423Y-109992071D01*
X295524423Y-109992071D02*
X295333947Y-109944452D01*
X295333947Y-109944452D02*
X295191090Y-109944452D01*
X295191090Y-109944452D02*
X295000614Y-109992071D01*
X295000614Y-109992071D02*
X294905376Y-110039690D01*
X294905376Y-110039690D02*
X294810138Y-110134928D01*
X294810138Y-110134928D02*
X294762519Y-110277785D01*
X294762519Y-110277785D02*
X294762519Y-110373023D01*
X294762519Y-110373023D02*
X294810138Y-110515880D01*
X294810138Y-110515880D02*
X294857757Y-110563499D01*
X295762519Y-111134928D02*
X295714900Y-111039690D01*
X295714900Y-111039690D02*
X295667280Y-110992071D01*
X295667280Y-110992071D02*
X295572042Y-110944452D01*
X295572042Y-110944452D02*
X295286328Y-110944452D01*
X295286328Y-110944452D02*
X295191090Y-110992071D01*
X295191090Y-110992071D02*
X295143471Y-111039690D01*
X295143471Y-111039690D02*
X295095852Y-111134928D01*
X295095852Y-111134928D02*
X295095852Y-111277785D01*
X295095852Y-111277785D02*
X295143471Y-111373023D01*
X295143471Y-111373023D02*
X295191090Y-111420642D01*
X295191090Y-111420642D02*
X295286328Y-111468261D01*
X295286328Y-111468261D02*
X295572042Y-111468261D01*
X295572042Y-111468261D02*
X295667280Y-111420642D01*
X295667280Y-111420642D02*
X295714900Y-111373023D01*
X295714900Y-111373023D02*
X295762519Y-111277785D01*
X295762519Y-111277785D02*
X295762519Y-111134928D01*
X295095852Y-111896833D02*
X295762519Y-111896833D01*
X295191090Y-111896833D02*
X295143471Y-111944452D01*
X295143471Y-111944452D02*
X295095852Y-112039690D01*
X295095852Y-112039690D02*
X295095852Y-112182547D01*
X295095852Y-112182547D02*
X295143471Y-112277785D01*
X295143471Y-112277785D02*
X295238709Y-112325404D01*
X295238709Y-112325404D02*
X295762519Y-112325404D01*
X295095852Y-112801595D02*
X295762519Y-112801595D01*
X295191090Y-112801595D02*
X295143471Y-112849214D01*
X295143471Y-112849214D02*
X295095852Y-112944452D01*
X295095852Y-112944452D02*
X295095852Y-113087309D01*
X295095852Y-113087309D02*
X295143471Y-113182547D01*
X295143471Y-113182547D02*
X295238709Y-113230166D01*
X295238709Y-113230166D02*
X295762519Y-113230166D01*
X295762519Y-114230166D02*
X295762519Y-113658738D01*
X295762519Y-113944452D02*
X294762519Y-113944452D01*
X294762519Y-113944452D02*
X294905376Y-113849214D01*
X294905376Y-113849214D02*
X295000614Y-113753976D01*
X295000614Y-113753976D02*
X295048233Y-113658738D01*
X295762519Y-114706357D02*
X295762519Y-114896833D01*
X295762519Y-114896833D02*
X295714900Y-114992071D01*
X295714900Y-114992071D02*
X295667280Y-115039690D01*
X295667280Y-115039690D02*
X295524423Y-115134928D01*
X295524423Y-115134928D02*
X295333947Y-115182547D01*
X295333947Y-115182547D02*
X294952995Y-115182547D01*
X294952995Y-115182547D02*
X294857757Y-115134928D01*
X294857757Y-115134928D02*
X294810138Y-115087309D01*
X294810138Y-115087309D02*
X294762519Y-114992071D01*
X294762519Y-114992071D02*
X294762519Y-114801595D01*
X294762519Y-114801595D02*
X294810138Y-114706357D01*
X294810138Y-114706357D02*
X294857757Y-114658738D01*
X294857757Y-114658738D02*
X294952995Y-114611119D01*
X294952995Y-114611119D02*
X295191090Y-114611119D01*
X295191090Y-114611119D02*
X295286328Y-114658738D01*
X295286328Y-114658738D02*
X295333947Y-114706357D01*
X295333947Y-114706357D02*
X295381566Y-114801595D01*
X295381566Y-114801595D02*
X295381566Y-114992071D01*
X295381566Y-114992071D02*
X295333947Y-115087309D01*
X295333947Y-115087309D02*
X295286328Y-115134928D01*
X295286328Y-115134928D02*
X295191090Y-115182547D01*
X178998309Y-152725880D02*
X179045928Y-152773500D01*
X179045928Y-152773500D02*
X179188785Y-152821119D01*
X179188785Y-152821119D02*
X179284023Y-152821119D01*
X179284023Y-152821119D02*
X179426880Y-152773500D01*
X179426880Y-152773500D02*
X179522118Y-152678261D01*
X179522118Y-152678261D02*
X179569737Y-152583023D01*
X179569737Y-152583023D02*
X179617356Y-152392547D01*
X179617356Y-152392547D02*
X179617356Y-152249690D01*
X179617356Y-152249690D02*
X179569737Y-152059214D01*
X179569737Y-152059214D02*
X179522118Y-151963976D01*
X179522118Y-151963976D02*
X179426880Y-151868738D01*
X179426880Y-151868738D02*
X179284023Y-151821119D01*
X179284023Y-151821119D02*
X179188785Y-151821119D01*
X179188785Y-151821119D02*
X179045928Y-151868738D01*
X179045928Y-151868738D02*
X178998309Y-151916357D01*
X178426880Y-152821119D02*
X178522118Y-152773500D01*
X178522118Y-152773500D02*
X178569737Y-152725880D01*
X178569737Y-152725880D02*
X178617356Y-152630642D01*
X178617356Y-152630642D02*
X178617356Y-152344928D01*
X178617356Y-152344928D02*
X178569737Y-152249690D01*
X178569737Y-152249690D02*
X178522118Y-152202071D01*
X178522118Y-152202071D02*
X178426880Y-152154452D01*
X178426880Y-152154452D02*
X178284023Y-152154452D01*
X178284023Y-152154452D02*
X178188785Y-152202071D01*
X178188785Y-152202071D02*
X178141166Y-152249690D01*
X178141166Y-152249690D02*
X178093547Y-152344928D01*
X178093547Y-152344928D02*
X178093547Y-152630642D01*
X178093547Y-152630642D02*
X178141166Y-152725880D01*
X178141166Y-152725880D02*
X178188785Y-152773500D01*
X178188785Y-152773500D02*
X178284023Y-152821119D01*
X178284023Y-152821119D02*
X178426880Y-152821119D01*
X177664975Y-152154452D02*
X177664975Y-152821119D01*
X177664975Y-152249690D02*
X177617356Y-152202071D01*
X177617356Y-152202071D02*
X177522118Y-152154452D01*
X177522118Y-152154452D02*
X177379261Y-152154452D01*
X177379261Y-152154452D02*
X177284023Y-152202071D01*
X177284023Y-152202071D02*
X177236404Y-152297309D01*
X177236404Y-152297309D02*
X177236404Y-152821119D01*
X176760213Y-152154452D02*
X176760213Y-152821119D01*
X176760213Y-152249690D02*
X176712594Y-152202071D01*
X176712594Y-152202071D02*
X176617356Y-152154452D01*
X176617356Y-152154452D02*
X176474499Y-152154452D01*
X176474499Y-152154452D02*
X176379261Y-152202071D01*
X176379261Y-152202071D02*
X176331642Y-152297309D01*
X176331642Y-152297309D02*
X176331642Y-152821119D01*
X175807832Y-152821119D02*
X175617356Y-152821119D01*
X175617356Y-152821119D02*
X175522118Y-152773500D01*
X175522118Y-152773500D02*
X175474499Y-152725880D01*
X175474499Y-152725880D02*
X175379261Y-152583023D01*
X175379261Y-152583023D02*
X175331642Y-152392547D01*
X175331642Y-152392547D02*
X175331642Y-152011595D01*
X175331642Y-152011595D02*
X175379261Y-151916357D01*
X175379261Y-151916357D02*
X175426880Y-151868738D01*
X175426880Y-151868738D02*
X175522118Y-151821119D01*
X175522118Y-151821119D02*
X175712594Y-151821119D01*
X175712594Y-151821119D02*
X175807832Y-151868738D01*
X175807832Y-151868738D02*
X175855451Y-151916357D01*
X175855451Y-151916357D02*
X175903070Y-152011595D01*
X175903070Y-152011595D02*
X175903070Y-152249690D01*
X175903070Y-152249690D02*
X175855451Y-152344928D01*
X175855451Y-152344928D02*
X175807832Y-152392547D01*
X175807832Y-152392547D02*
X175712594Y-152440166D01*
X175712594Y-152440166D02*
X175522118Y-152440166D01*
X175522118Y-152440166D02*
X175426880Y-152392547D01*
X175426880Y-152392547D02*
X175379261Y-152344928D01*
X175379261Y-152344928D02*
X175331642Y-152249690D01*
X349007280Y-110563499D02*
X349054900Y-110515880D01*
X349054900Y-110515880D02*
X349102519Y-110373023D01*
X349102519Y-110373023D02*
X349102519Y-110277785D01*
X349102519Y-110277785D02*
X349054900Y-110134928D01*
X349054900Y-110134928D02*
X348959661Y-110039690D01*
X348959661Y-110039690D02*
X348864423Y-109992071D01*
X348864423Y-109992071D02*
X348673947Y-109944452D01*
X348673947Y-109944452D02*
X348531090Y-109944452D01*
X348531090Y-109944452D02*
X348340614Y-109992071D01*
X348340614Y-109992071D02*
X348245376Y-110039690D01*
X348245376Y-110039690D02*
X348150138Y-110134928D01*
X348150138Y-110134928D02*
X348102519Y-110277785D01*
X348102519Y-110277785D02*
X348102519Y-110373023D01*
X348102519Y-110373023D02*
X348150138Y-110515880D01*
X348150138Y-110515880D02*
X348197757Y-110563499D01*
X349102519Y-111134928D02*
X349054900Y-111039690D01*
X349054900Y-111039690D02*
X349007280Y-110992071D01*
X349007280Y-110992071D02*
X348912042Y-110944452D01*
X348912042Y-110944452D02*
X348626328Y-110944452D01*
X348626328Y-110944452D02*
X348531090Y-110992071D01*
X348531090Y-110992071D02*
X348483471Y-111039690D01*
X348483471Y-111039690D02*
X348435852Y-111134928D01*
X348435852Y-111134928D02*
X348435852Y-111277785D01*
X348435852Y-111277785D02*
X348483471Y-111373023D01*
X348483471Y-111373023D02*
X348531090Y-111420642D01*
X348531090Y-111420642D02*
X348626328Y-111468261D01*
X348626328Y-111468261D02*
X348912042Y-111468261D01*
X348912042Y-111468261D02*
X349007280Y-111420642D01*
X349007280Y-111420642D02*
X349054900Y-111373023D01*
X349054900Y-111373023D02*
X349102519Y-111277785D01*
X349102519Y-111277785D02*
X349102519Y-111134928D01*
X348435852Y-111896833D02*
X349102519Y-111896833D01*
X348531090Y-111896833D02*
X348483471Y-111944452D01*
X348483471Y-111944452D02*
X348435852Y-112039690D01*
X348435852Y-112039690D02*
X348435852Y-112182547D01*
X348435852Y-112182547D02*
X348483471Y-112277785D01*
X348483471Y-112277785D02*
X348578709Y-112325404D01*
X348578709Y-112325404D02*
X349102519Y-112325404D01*
X348435852Y-112801595D02*
X349102519Y-112801595D01*
X348531090Y-112801595D02*
X348483471Y-112849214D01*
X348483471Y-112849214D02*
X348435852Y-112944452D01*
X348435852Y-112944452D02*
X348435852Y-113087309D01*
X348435852Y-113087309D02*
X348483471Y-113182547D01*
X348483471Y-113182547D02*
X348578709Y-113230166D01*
X348578709Y-113230166D02*
X349102519Y-113230166D01*
X349102519Y-114230166D02*
X349102519Y-113658738D01*
X349102519Y-113944452D02*
X348102519Y-113944452D01*
X348102519Y-113944452D02*
X348245376Y-113849214D01*
X348245376Y-113849214D02*
X348340614Y-113753976D01*
X348340614Y-113753976D02*
X348388233Y-113658738D01*
X348102519Y-114849214D02*
X348102519Y-114944452D01*
X348102519Y-114944452D02*
X348150138Y-115039690D01*
X348150138Y-115039690D02*
X348197757Y-115087309D01*
X348197757Y-115087309D02*
X348292995Y-115134928D01*
X348292995Y-115134928D02*
X348483471Y-115182547D01*
X348483471Y-115182547D02*
X348721566Y-115182547D01*
X348721566Y-115182547D02*
X348912042Y-115134928D01*
X348912042Y-115134928D02*
X349007280Y-115087309D01*
X349007280Y-115087309D02*
X349054900Y-115039690D01*
X349054900Y-115039690D02*
X349102519Y-114944452D01*
X349102519Y-114944452D02*
X349102519Y-114849214D01*
X349102519Y-114849214D02*
X349054900Y-114753976D01*
X349054900Y-114753976D02*
X349007280Y-114706357D01*
X349007280Y-114706357D02*
X348912042Y-114658738D01*
X348912042Y-114658738D02*
X348721566Y-114611119D01*
X348721566Y-114611119D02*
X348483471Y-114611119D01*
X348483471Y-114611119D02*
X348292995Y-114658738D01*
X348292995Y-114658738D02*
X348197757Y-114706357D01*
X348197757Y-114706357D02*
X348150138Y-114753976D01*
X348150138Y-114753976D02*
X348102519Y-114849214D01*
X331227280Y-110563499D02*
X331274900Y-110515880D01*
X331274900Y-110515880D02*
X331322519Y-110373023D01*
X331322519Y-110373023D02*
X331322519Y-110277785D01*
X331322519Y-110277785D02*
X331274900Y-110134928D01*
X331274900Y-110134928D02*
X331179661Y-110039690D01*
X331179661Y-110039690D02*
X331084423Y-109992071D01*
X331084423Y-109992071D02*
X330893947Y-109944452D01*
X330893947Y-109944452D02*
X330751090Y-109944452D01*
X330751090Y-109944452D02*
X330560614Y-109992071D01*
X330560614Y-109992071D02*
X330465376Y-110039690D01*
X330465376Y-110039690D02*
X330370138Y-110134928D01*
X330370138Y-110134928D02*
X330322519Y-110277785D01*
X330322519Y-110277785D02*
X330322519Y-110373023D01*
X330322519Y-110373023D02*
X330370138Y-110515880D01*
X330370138Y-110515880D02*
X330417757Y-110563499D01*
X331322519Y-111134928D02*
X331274900Y-111039690D01*
X331274900Y-111039690D02*
X331227280Y-110992071D01*
X331227280Y-110992071D02*
X331132042Y-110944452D01*
X331132042Y-110944452D02*
X330846328Y-110944452D01*
X330846328Y-110944452D02*
X330751090Y-110992071D01*
X330751090Y-110992071D02*
X330703471Y-111039690D01*
X330703471Y-111039690D02*
X330655852Y-111134928D01*
X330655852Y-111134928D02*
X330655852Y-111277785D01*
X330655852Y-111277785D02*
X330703471Y-111373023D01*
X330703471Y-111373023D02*
X330751090Y-111420642D01*
X330751090Y-111420642D02*
X330846328Y-111468261D01*
X330846328Y-111468261D02*
X331132042Y-111468261D01*
X331132042Y-111468261D02*
X331227280Y-111420642D01*
X331227280Y-111420642D02*
X331274900Y-111373023D01*
X331274900Y-111373023D02*
X331322519Y-111277785D01*
X331322519Y-111277785D02*
X331322519Y-111134928D01*
X330655852Y-111896833D02*
X331322519Y-111896833D01*
X330751090Y-111896833D02*
X330703471Y-111944452D01*
X330703471Y-111944452D02*
X330655852Y-112039690D01*
X330655852Y-112039690D02*
X330655852Y-112182547D01*
X330655852Y-112182547D02*
X330703471Y-112277785D01*
X330703471Y-112277785D02*
X330798709Y-112325404D01*
X330798709Y-112325404D02*
X331322519Y-112325404D01*
X330655852Y-112801595D02*
X331322519Y-112801595D01*
X330751090Y-112801595D02*
X330703471Y-112849214D01*
X330703471Y-112849214D02*
X330655852Y-112944452D01*
X330655852Y-112944452D02*
X330655852Y-113087309D01*
X330655852Y-113087309D02*
X330703471Y-113182547D01*
X330703471Y-113182547D02*
X330798709Y-113230166D01*
X330798709Y-113230166D02*
X331322519Y-113230166D01*
X331322519Y-114230166D02*
X331322519Y-113658738D01*
X331322519Y-113944452D02*
X330322519Y-113944452D01*
X330322519Y-113944452D02*
X330465376Y-113849214D01*
X330465376Y-113849214D02*
X330560614Y-113753976D01*
X330560614Y-113753976D02*
X330608233Y-113658738D01*
X330322519Y-114563500D02*
X330322519Y-115230166D01*
X330322519Y-115230166D02*
X331322519Y-114801595D01*
X365871809Y-188483280D02*
X365919428Y-188530900D01*
X365919428Y-188530900D02*
X366062285Y-188578519D01*
X366062285Y-188578519D02*
X366157523Y-188578519D01*
X366157523Y-188578519D02*
X366300380Y-188530900D01*
X366300380Y-188530900D02*
X366395618Y-188435661D01*
X366395618Y-188435661D02*
X366443237Y-188340423D01*
X366443237Y-188340423D02*
X366490856Y-188149947D01*
X366490856Y-188149947D02*
X366490856Y-188007090D01*
X366490856Y-188007090D02*
X366443237Y-187816614D01*
X366443237Y-187816614D02*
X366395618Y-187721376D01*
X366395618Y-187721376D02*
X366300380Y-187626138D01*
X366300380Y-187626138D02*
X366157523Y-187578519D01*
X366157523Y-187578519D02*
X366062285Y-187578519D01*
X366062285Y-187578519D02*
X365919428Y-187626138D01*
X365919428Y-187626138D02*
X365871809Y-187673757D01*
X365300380Y-188578519D02*
X365395618Y-188530900D01*
X365395618Y-188530900D02*
X365443237Y-188483280D01*
X365443237Y-188483280D02*
X365490856Y-188388042D01*
X365490856Y-188388042D02*
X365490856Y-188102328D01*
X365490856Y-188102328D02*
X365443237Y-188007090D01*
X365443237Y-188007090D02*
X365395618Y-187959471D01*
X365395618Y-187959471D02*
X365300380Y-187911852D01*
X365300380Y-187911852D02*
X365157523Y-187911852D01*
X365157523Y-187911852D02*
X365062285Y-187959471D01*
X365062285Y-187959471D02*
X365014666Y-188007090D01*
X365014666Y-188007090D02*
X364967047Y-188102328D01*
X364967047Y-188102328D02*
X364967047Y-188388042D01*
X364967047Y-188388042D02*
X365014666Y-188483280D01*
X365014666Y-188483280D02*
X365062285Y-188530900D01*
X365062285Y-188530900D02*
X365157523Y-188578519D01*
X365157523Y-188578519D02*
X365300380Y-188578519D01*
X364538475Y-187911852D02*
X364538475Y-188578519D01*
X364538475Y-188007090D02*
X364490856Y-187959471D01*
X364490856Y-187959471D02*
X364395618Y-187911852D01*
X364395618Y-187911852D02*
X364252761Y-187911852D01*
X364252761Y-187911852D02*
X364157523Y-187959471D01*
X364157523Y-187959471D02*
X364109904Y-188054709D01*
X364109904Y-188054709D02*
X364109904Y-188578519D01*
X363633713Y-187911852D02*
X363633713Y-188578519D01*
X363633713Y-188007090D02*
X363586094Y-187959471D01*
X363586094Y-187959471D02*
X363490856Y-187911852D01*
X363490856Y-187911852D02*
X363347999Y-187911852D01*
X363347999Y-187911852D02*
X363252761Y-187959471D01*
X363252761Y-187959471D02*
X363205142Y-188054709D01*
X363205142Y-188054709D02*
X363205142Y-188578519D01*
X362300380Y-187578519D02*
X362490856Y-187578519D01*
X362490856Y-187578519D02*
X362586094Y-187626138D01*
X362586094Y-187626138D02*
X362633713Y-187673757D01*
X362633713Y-187673757D02*
X362728951Y-187816614D01*
X362728951Y-187816614D02*
X362776570Y-188007090D01*
X362776570Y-188007090D02*
X362776570Y-188388042D01*
X362776570Y-188388042D02*
X362728951Y-188483280D01*
X362728951Y-188483280D02*
X362681332Y-188530900D01*
X362681332Y-188530900D02*
X362586094Y-188578519D01*
X362586094Y-188578519D02*
X362395618Y-188578519D01*
X362395618Y-188578519D02*
X362300380Y-188530900D01*
X362300380Y-188530900D02*
X362252761Y-188483280D01*
X362252761Y-188483280D02*
X362205142Y-188388042D01*
X362205142Y-188388042D02*
X362205142Y-188149947D01*
X362205142Y-188149947D02*
X362252761Y-188054709D01*
X362252761Y-188054709D02*
X362300380Y-188007090D01*
X362300380Y-188007090D02*
X362395618Y-187959471D01*
X362395618Y-187959471D02*
X362586094Y-187959471D01*
X362586094Y-187959471D02*
X362681332Y-188007090D01*
X362681332Y-188007090D02*
X362728951Y-188054709D01*
X362728951Y-188054709D02*
X362776570Y-188149947D01*
X178998309Y-128341880D02*
X179045928Y-128389500D01*
X179045928Y-128389500D02*
X179188785Y-128437119D01*
X179188785Y-128437119D02*
X179284023Y-128437119D01*
X179284023Y-128437119D02*
X179426880Y-128389500D01*
X179426880Y-128389500D02*
X179522118Y-128294261D01*
X179522118Y-128294261D02*
X179569737Y-128199023D01*
X179569737Y-128199023D02*
X179617356Y-128008547D01*
X179617356Y-128008547D02*
X179617356Y-127865690D01*
X179617356Y-127865690D02*
X179569737Y-127675214D01*
X179569737Y-127675214D02*
X179522118Y-127579976D01*
X179522118Y-127579976D02*
X179426880Y-127484738D01*
X179426880Y-127484738D02*
X179284023Y-127437119D01*
X179284023Y-127437119D02*
X179188785Y-127437119D01*
X179188785Y-127437119D02*
X179045928Y-127484738D01*
X179045928Y-127484738D02*
X178998309Y-127532357D01*
X178426880Y-128437119D02*
X178522118Y-128389500D01*
X178522118Y-128389500D02*
X178569737Y-128341880D01*
X178569737Y-128341880D02*
X178617356Y-128246642D01*
X178617356Y-128246642D02*
X178617356Y-127960928D01*
X178617356Y-127960928D02*
X178569737Y-127865690D01*
X178569737Y-127865690D02*
X178522118Y-127818071D01*
X178522118Y-127818071D02*
X178426880Y-127770452D01*
X178426880Y-127770452D02*
X178284023Y-127770452D01*
X178284023Y-127770452D02*
X178188785Y-127818071D01*
X178188785Y-127818071D02*
X178141166Y-127865690D01*
X178141166Y-127865690D02*
X178093547Y-127960928D01*
X178093547Y-127960928D02*
X178093547Y-128246642D01*
X178093547Y-128246642D02*
X178141166Y-128341880D01*
X178141166Y-128341880D02*
X178188785Y-128389500D01*
X178188785Y-128389500D02*
X178284023Y-128437119D01*
X178284023Y-128437119D02*
X178426880Y-128437119D01*
X177664975Y-127770452D02*
X177664975Y-128437119D01*
X177664975Y-127865690D02*
X177617356Y-127818071D01*
X177617356Y-127818071D02*
X177522118Y-127770452D01*
X177522118Y-127770452D02*
X177379261Y-127770452D01*
X177379261Y-127770452D02*
X177284023Y-127818071D01*
X177284023Y-127818071D02*
X177236404Y-127913309D01*
X177236404Y-127913309D02*
X177236404Y-128437119D01*
X176760213Y-127770452D02*
X176760213Y-128437119D01*
X176760213Y-127865690D02*
X176712594Y-127818071D01*
X176712594Y-127818071D02*
X176617356Y-127770452D01*
X176617356Y-127770452D02*
X176474499Y-127770452D01*
X176474499Y-127770452D02*
X176379261Y-127818071D01*
X176379261Y-127818071D02*
X176331642Y-127913309D01*
X176331642Y-127913309D02*
X176331642Y-128437119D01*
X175712594Y-127865690D02*
X175807832Y-127818071D01*
X175807832Y-127818071D02*
X175855451Y-127770452D01*
X175855451Y-127770452D02*
X175903070Y-127675214D01*
X175903070Y-127675214D02*
X175903070Y-127627595D01*
X175903070Y-127627595D02*
X175855451Y-127532357D01*
X175855451Y-127532357D02*
X175807832Y-127484738D01*
X175807832Y-127484738D02*
X175712594Y-127437119D01*
X175712594Y-127437119D02*
X175522118Y-127437119D01*
X175522118Y-127437119D02*
X175426880Y-127484738D01*
X175426880Y-127484738D02*
X175379261Y-127532357D01*
X175379261Y-127532357D02*
X175331642Y-127627595D01*
X175331642Y-127627595D02*
X175331642Y-127675214D01*
X175331642Y-127675214D02*
X175379261Y-127770452D01*
X175379261Y-127770452D02*
X175426880Y-127818071D01*
X175426880Y-127818071D02*
X175522118Y-127865690D01*
X175522118Y-127865690D02*
X175712594Y-127865690D01*
X175712594Y-127865690D02*
X175807832Y-127913309D01*
X175807832Y-127913309D02*
X175855451Y-127960928D01*
X175855451Y-127960928D02*
X175903070Y-128056166D01*
X175903070Y-128056166D02*
X175903070Y-128246642D01*
X175903070Y-128246642D02*
X175855451Y-128341880D01*
X175855451Y-128341880D02*
X175807832Y-128389500D01*
X175807832Y-128389500D02*
X175712594Y-128437119D01*
X175712594Y-128437119D02*
X175522118Y-128437119D01*
X175522118Y-128437119D02*
X175426880Y-128389500D01*
X175426880Y-128389500D02*
X175379261Y-128341880D01*
X175379261Y-128341880D02*
X175331642Y-128246642D01*
X175331642Y-128246642D02*
X175331642Y-128056166D01*
X175331642Y-128056166D02*
X175379261Y-127960928D01*
X175379261Y-127960928D02*
X175426880Y-127913309D01*
X175426880Y-127913309D02*
X175522118Y-127865690D01*
X179064309Y-173423880D02*
X179111928Y-173471500D01*
X179111928Y-173471500D02*
X179254785Y-173519119D01*
X179254785Y-173519119D02*
X179350023Y-173519119D01*
X179350023Y-173519119D02*
X179492880Y-173471500D01*
X179492880Y-173471500D02*
X179588118Y-173376261D01*
X179588118Y-173376261D02*
X179635737Y-173281023D01*
X179635737Y-173281023D02*
X179683356Y-173090547D01*
X179683356Y-173090547D02*
X179683356Y-172947690D01*
X179683356Y-172947690D02*
X179635737Y-172757214D01*
X179635737Y-172757214D02*
X179588118Y-172661976D01*
X179588118Y-172661976D02*
X179492880Y-172566738D01*
X179492880Y-172566738D02*
X179350023Y-172519119D01*
X179350023Y-172519119D02*
X179254785Y-172519119D01*
X179254785Y-172519119D02*
X179111928Y-172566738D01*
X179111928Y-172566738D02*
X179064309Y-172614357D01*
X178492880Y-173519119D02*
X178588118Y-173471500D01*
X178588118Y-173471500D02*
X178635737Y-173423880D01*
X178635737Y-173423880D02*
X178683356Y-173328642D01*
X178683356Y-173328642D02*
X178683356Y-173042928D01*
X178683356Y-173042928D02*
X178635737Y-172947690D01*
X178635737Y-172947690D02*
X178588118Y-172900071D01*
X178588118Y-172900071D02*
X178492880Y-172852452D01*
X178492880Y-172852452D02*
X178350023Y-172852452D01*
X178350023Y-172852452D02*
X178254785Y-172900071D01*
X178254785Y-172900071D02*
X178207166Y-172947690D01*
X178207166Y-172947690D02*
X178159547Y-173042928D01*
X178159547Y-173042928D02*
X178159547Y-173328642D01*
X178159547Y-173328642D02*
X178207166Y-173423880D01*
X178207166Y-173423880D02*
X178254785Y-173471500D01*
X178254785Y-173471500D02*
X178350023Y-173519119D01*
X178350023Y-173519119D02*
X178492880Y-173519119D01*
X177730975Y-172852452D02*
X177730975Y-173519119D01*
X177730975Y-172947690D02*
X177683356Y-172900071D01*
X177683356Y-172900071D02*
X177588118Y-172852452D01*
X177588118Y-172852452D02*
X177445261Y-172852452D01*
X177445261Y-172852452D02*
X177350023Y-172900071D01*
X177350023Y-172900071D02*
X177302404Y-172995309D01*
X177302404Y-172995309D02*
X177302404Y-173519119D01*
X176826213Y-172852452D02*
X176826213Y-173519119D01*
X176826213Y-172947690D02*
X176778594Y-172900071D01*
X176778594Y-172900071D02*
X176683356Y-172852452D01*
X176683356Y-172852452D02*
X176540499Y-172852452D01*
X176540499Y-172852452D02*
X176445261Y-172900071D01*
X176445261Y-172900071D02*
X176397642Y-172995309D01*
X176397642Y-172995309D02*
X176397642Y-173519119D01*
X175397642Y-173519119D02*
X175969070Y-173519119D01*
X175683356Y-173519119D02*
X175683356Y-172519119D01*
X175683356Y-172519119D02*
X175778594Y-172661976D01*
X175778594Y-172661976D02*
X175873832Y-172757214D01*
X175873832Y-172757214D02*
X175969070Y-172804833D01*
X277887280Y-110563499D02*
X277934900Y-110515880D01*
X277934900Y-110515880D02*
X277982519Y-110373023D01*
X277982519Y-110373023D02*
X277982519Y-110277785D01*
X277982519Y-110277785D02*
X277934900Y-110134928D01*
X277934900Y-110134928D02*
X277839661Y-110039690D01*
X277839661Y-110039690D02*
X277744423Y-109992071D01*
X277744423Y-109992071D02*
X277553947Y-109944452D01*
X277553947Y-109944452D02*
X277411090Y-109944452D01*
X277411090Y-109944452D02*
X277220614Y-109992071D01*
X277220614Y-109992071D02*
X277125376Y-110039690D01*
X277125376Y-110039690D02*
X277030138Y-110134928D01*
X277030138Y-110134928D02*
X276982519Y-110277785D01*
X276982519Y-110277785D02*
X276982519Y-110373023D01*
X276982519Y-110373023D02*
X277030138Y-110515880D01*
X277030138Y-110515880D02*
X277077757Y-110563499D01*
X277982519Y-111134928D02*
X277934900Y-111039690D01*
X277934900Y-111039690D02*
X277887280Y-110992071D01*
X277887280Y-110992071D02*
X277792042Y-110944452D01*
X277792042Y-110944452D02*
X277506328Y-110944452D01*
X277506328Y-110944452D02*
X277411090Y-110992071D01*
X277411090Y-110992071D02*
X277363471Y-111039690D01*
X277363471Y-111039690D02*
X277315852Y-111134928D01*
X277315852Y-111134928D02*
X277315852Y-111277785D01*
X277315852Y-111277785D02*
X277363471Y-111373023D01*
X277363471Y-111373023D02*
X277411090Y-111420642D01*
X277411090Y-111420642D02*
X277506328Y-111468261D01*
X277506328Y-111468261D02*
X277792042Y-111468261D01*
X277792042Y-111468261D02*
X277887280Y-111420642D01*
X277887280Y-111420642D02*
X277934900Y-111373023D01*
X277934900Y-111373023D02*
X277982519Y-111277785D01*
X277982519Y-111277785D02*
X277982519Y-111134928D01*
X277315852Y-111896833D02*
X277982519Y-111896833D01*
X277411090Y-111896833D02*
X277363471Y-111944452D01*
X277363471Y-111944452D02*
X277315852Y-112039690D01*
X277315852Y-112039690D02*
X277315852Y-112182547D01*
X277315852Y-112182547D02*
X277363471Y-112277785D01*
X277363471Y-112277785D02*
X277458709Y-112325404D01*
X277458709Y-112325404D02*
X277982519Y-112325404D01*
X277315852Y-112801595D02*
X277982519Y-112801595D01*
X277411090Y-112801595D02*
X277363471Y-112849214D01*
X277363471Y-112849214D02*
X277315852Y-112944452D01*
X277315852Y-112944452D02*
X277315852Y-113087309D01*
X277315852Y-113087309D02*
X277363471Y-113182547D01*
X277363471Y-113182547D02*
X277458709Y-113230166D01*
X277458709Y-113230166D02*
X277982519Y-113230166D01*
X277982519Y-114230166D02*
X277982519Y-113658738D01*
X277982519Y-113944452D02*
X276982519Y-113944452D01*
X276982519Y-113944452D02*
X277125376Y-113849214D01*
X277125376Y-113849214D02*
X277220614Y-113753976D01*
X277220614Y-113753976D02*
X277268233Y-113658738D01*
X276982519Y-115087309D02*
X276982519Y-114896833D01*
X276982519Y-114896833D02*
X277030138Y-114801595D01*
X277030138Y-114801595D02*
X277077757Y-114753976D01*
X277077757Y-114753976D02*
X277220614Y-114658738D01*
X277220614Y-114658738D02*
X277411090Y-114611119D01*
X277411090Y-114611119D02*
X277792042Y-114611119D01*
X277792042Y-114611119D02*
X277887280Y-114658738D01*
X277887280Y-114658738D02*
X277934900Y-114706357D01*
X277934900Y-114706357D02*
X277982519Y-114801595D01*
X277982519Y-114801595D02*
X277982519Y-114992071D01*
X277982519Y-114992071D02*
X277934900Y-115087309D01*
X277934900Y-115087309D02*
X277887280Y-115134928D01*
X277887280Y-115134928D02*
X277792042Y-115182547D01*
X277792042Y-115182547D02*
X277553947Y-115182547D01*
X277553947Y-115182547D02*
X277458709Y-115134928D01*
X277458709Y-115134928D02*
X277411090Y-115087309D01*
X277411090Y-115087309D02*
X277363471Y-114992071D01*
X277363471Y-114992071D02*
X277363471Y-114801595D01*
X277363471Y-114801595D02*
X277411090Y-114706357D01*
X277411090Y-114706357D02*
X277458709Y-114658738D01*
X277458709Y-114658738D02*
X277553947Y-114611119D01*
X365871809Y-166893280D02*
X365919428Y-166940900D01*
X365919428Y-166940900D02*
X366062285Y-166988519D01*
X366062285Y-166988519D02*
X366157523Y-166988519D01*
X366157523Y-166988519D02*
X366300380Y-166940900D01*
X366300380Y-166940900D02*
X366395618Y-166845661D01*
X366395618Y-166845661D02*
X366443237Y-166750423D01*
X366443237Y-166750423D02*
X366490856Y-166559947D01*
X366490856Y-166559947D02*
X366490856Y-166417090D01*
X366490856Y-166417090D02*
X366443237Y-166226614D01*
X366443237Y-166226614D02*
X366395618Y-166131376D01*
X366395618Y-166131376D02*
X366300380Y-166036138D01*
X366300380Y-166036138D02*
X366157523Y-165988519D01*
X366157523Y-165988519D02*
X366062285Y-165988519D01*
X366062285Y-165988519D02*
X365919428Y-166036138D01*
X365919428Y-166036138D02*
X365871809Y-166083757D01*
X365300380Y-166988519D02*
X365395618Y-166940900D01*
X365395618Y-166940900D02*
X365443237Y-166893280D01*
X365443237Y-166893280D02*
X365490856Y-166798042D01*
X365490856Y-166798042D02*
X365490856Y-166512328D01*
X365490856Y-166512328D02*
X365443237Y-166417090D01*
X365443237Y-166417090D02*
X365395618Y-166369471D01*
X365395618Y-166369471D02*
X365300380Y-166321852D01*
X365300380Y-166321852D02*
X365157523Y-166321852D01*
X365157523Y-166321852D02*
X365062285Y-166369471D01*
X365062285Y-166369471D02*
X365014666Y-166417090D01*
X365014666Y-166417090D02*
X364967047Y-166512328D01*
X364967047Y-166512328D02*
X364967047Y-166798042D01*
X364967047Y-166798042D02*
X365014666Y-166893280D01*
X365014666Y-166893280D02*
X365062285Y-166940900D01*
X365062285Y-166940900D02*
X365157523Y-166988519D01*
X365157523Y-166988519D02*
X365300380Y-166988519D01*
X364538475Y-166321852D02*
X364538475Y-166988519D01*
X364538475Y-166417090D02*
X364490856Y-166369471D01*
X364490856Y-166369471D02*
X364395618Y-166321852D01*
X364395618Y-166321852D02*
X364252761Y-166321852D01*
X364252761Y-166321852D02*
X364157523Y-166369471D01*
X364157523Y-166369471D02*
X364109904Y-166464709D01*
X364109904Y-166464709D02*
X364109904Y-166988519D01*
X363633713Y-166321852D02*
X363633713Y-166988519D01*
X363633713Y-166417090D02*
X363586094Y-166369471D01*
X363586094Y-166369471D02*
X363490856Y-166321852D01*
X363490856Y-166321852D02*
X363347999Y-166321852D01*
X363347999Y-166321852D02*
X363252761Y-166369471D01*
X363252761Y-166369471D02*
X363205142Y-166464709D01*
X363205142Y-166464709D02*
X363205142Y-166988519D01*
X362824189Y-165988519D02*
X362157523Y-165988519D01*
X362157523Y-165988519D02*
X362586094Y-166988519D01*
X260619280Y-110309499D02*
X260666900Y-110261880D01*
X260666900Y-110261880D02*
X260714519Y-110119023D01*
X260714519Y-110119023D02*
X260714519Y-110023785D01*
X260714519Y-110023785D02*
X260666900Y-109880928D01*
X260666900Y-109880928D02*
X260571661Y-109785690D01*
X260571661Y-109785690D02*
X260476423Y-109738071D01*
X260476423Y-109738071D02*
X260285947Y-109690452D01*
X260285947Y-109690452D02*
X260143090Y-109690452D01*
X260143090Y-109690452D02*
X259952614Y-109738071D01*
X259952614Y-109738071D02*
X259857376Y-109785690D01*
X259857376Y-109785690D02*
X259762138Y-109880928D01*
X259762138Y-109880928D02*
X259714519Y-110023785D01*
X259714519Y-110023785D02*
X259714519Y-110119023D01*
X259714519Y-110119023D02*
X259762138Y-110261880D01*
X259762138Y-110261880D02*
X259809757Y-110309499D01*
X260714519Y-110880928D02*
X260666900Y-110785690D01*
X260666900Y-110785690D02*
X260619280Y-110738071D01*
X260619280Y-110738071D02*
X260524042Y-110690452D01*
X260524042Y-110690452D02*
X260238328Y-110690452D01*
X260238328Y-110690452D02*
X260143090Y-110738071D01*
X260143090Y-110738071D02*
X260095471Y-110785690D01*
X260095471Y-110785690D02*
X260047852Y-110880928D01*
X260047852Y-110880928D02*
X260047852Y-111023785D01*
X260047852Y-111023785D02*
X260095471Y-111119023D01*
X260095471Y-111119023D02*
X260143090Y-111166642D01*
X260143090Y-111166642D02*
X260238328Y-111214261D01*
X260238328Y-111214261D02*
X260524042Y-111214261D01*
X260524042Y-111214261D02*
X260619280Y-111166642D01*
X260619280Y-111166642D02*
X260666900Y-111119023D01*
X260666900Y-111119023D02*
X260714519Y-111023785D01*
X260714519Y-111023785D02*
X260714519Y-110880928D01*
X260047852Y-111642833D02*
X260714519Y-111642833D01*
X260143090Y-111642833D02*
X260095471Y-111690452D01*
X260095471Y-111690452D02*
X260047852Y-111785690D01*
X260047852Y-111785690D02*
X260047852Y-111928547D01*
X260047852Y-111928547D02*
X260095471Y-112023785D01*
X260095471Y-112023785D02*
X260190709Y-112071404D01*
X260190709Y-112071404D02*
X260714519Y-112071404D01*
X260047852Y-112547595D02*
X260714519Y-112547595D01*
X260143090Y-112547595D02*
X260095471Y-112595214D01*
X260095471Y-112595214D02*
X260047852Y-112690452D01*
X260047852Y-112690452D02*
X260047852Y-112833309D01*
X260047852Y-112833309D02*
X260095471Y-112928547D01*
X260095471Y-112928547D02*
X260190709Y-112976166D01*
X260190709Y-112976166D02*
X260714519Y-112976166D01*
X260714519Y-113976166D02*
X260714519Y-113404738D01*
X260714519Y-113690452D02*
X259714519Y-113690452D01*
X259714519Y-113690452D02*
X259857376Y-113595214D01*
X259857376Y-113595214D02*
X259952614Y-113499976D01*
X259952614Y-113499976D02*
X260000233Y-113404738D01*
X259809757Y-114357119D02*
X259762138Y-114404738D01*
X259762138Y-114404738D02*
X259714519Y-114499976D01*
X259714519Y-114499976D02*
X259714519Y-114738071D01*
X259714519Y-114738071D02*
X259762138Y-114833309D01*
X259762138Y-114833309D02*
X259809757Y-114880928D01*
X259809757Y-114880928D02*
X259904995Y-114928547D01*
X259904995Y-114928547D02*
X260000233Y-114928547D01*
X260000233Y-114928547D02*
X260143090Y-114880928D01*
X260143090Y-114880928D02*
X260714519Y-114309500D01*
X260714519Y-114309500D02*
X260714519Y-114928547D01*
X244223580Y-110513999D02*
X244271200Y-110466380D01*
X244271200Y-110466380D02*
X244318819Y-110323523D01*
X244318819Y-110323523D02*
X244318819Y-110228285D01*
X244318819Y-110228285D02*
X244271200Y-110085428D01*
X244271200Y-110085428D02*
X244175961Y-109990190D01*
X244175961Y-109990190D02*
X244080723Y-109942571D01*
X244080723Y-109942571D02*
X243890247Y-109894952D01*
X243890247Y-109894952D02*
X243747390Y-109894952D01*
X243747390Y-109894952D02*
X243556914Y-109942571D01*
X243556914Y-109942571D02*
X243461676Y-109990190D01*
X243461676Y-109990190D02*
X243366438Y-110085428D01*
X243366438Y-110085428D02*
X243318819Y-110228285D01*
X243318819Y-110228285D02*
X243318819Y-110323523D01*
X243318819Y-110323523D02*
X243366438Y-110466380D01*
X243366438Y-110466380D02*
X243414057Y-110513999D01*
X244318819Y-111085428D02*
X244271200Y-110990190D01*
X244271200Y-110990190D02*
X244223580Y-110942571D01*
X244223580Y-110942571D02*
X244128342Y-110894952D01*
X244128342Y-110894952D02*
X243842628Y-110894952D01*
X243842628Y-110894952D02*
X243747390Y-110942571D01*
X243747390Y-110942571D02*
X243699771Y-110990190D01*
X243699771Y-110990190D02*
X243652152Y-111085428D01*
X243652152Y-111085428D02*
X243652152Y-111228285D01*
X243652152Y-111228285D02*
X243699771Y-111323523D01*
X243699771Y-111323523D02*
X243747390Y-111371142D01*
X243747390Y-111371142D02*
X243842628Y-111418761D01*
X243842628Y-111418761D02*
X244128342Y-111418761D01*
X244128342Y-111418761D02*
X244223580Y-111371142D01*
X244223580Y-111371142D02*
X244271200Y-111323523D01*
X244271200Y-111323523D02*
X244318819Y-111228285D01*
X244318819Y-111228285D02*
X244318819Y-111085428D01*
X243652152Y-111847333D02*
X244318819Y-111847333D01*
X243747390Y-111847333D02*
X243699771Y-111894952D01*
X243699771Y-111894952D02*
X243652152Y-111990190D01*
X243652152Y-111990190D02*
X243652152Y-112133047D01*
X243652152Y-112133047D02*
X243699771Y-112228285D01*
X243699771Y-112228285D02*
X243795009Y-112275904D01*
X243795009Y-112275904D02*
X244318819Y-112275904D01*
X243652152Y-112752095D02*
X244318819Y-112752095D01*
X243747390Y-112752095D02*
X243699771Y-112799714D01*
X243699771Y-112799714D02*
X243652152Y-112894952D01*
X243652152Y-112894952D02*
X243652152Y-113037809D01*
X243652152Y-113037809D02*
X243699771Y-113133047D01*
X243699771Y-113133047D02*
X243795009Y-113180666D01*
X243795009Y-113180666D02*
X244318819Y-113180666D01*
X244318819Y-114180666D02*
X244318819Y-113609238D01*
X244318819Y-113894952D02*
X243318819Y-113894952D01*
X243318819Y-113894952D02*
X243461676Y-113799714D01*
X243461676Y-113799714D02*
X243556914Y-113704476D01*
X243556914Y-113704476D02*
X243604533Y-113609238D01*
X243652152Y-115037809D02*
X244318819Y-115037809D01*
X243271200Y-114799714D02*
X243985485Y-114561619D01*
X243985485Y-114561619D02*
X243985485Y-115180666D01*
X211179580Y-110493999D02*
X211227200Y-110446380D01*
X211227200Y-110446380D02*
X211274819Y-110303523D01*
X211274819Y-110303523D02*
X211274819Y-110208285D01*
X211274819Y-110208285D02*
X211227200Y-110065428D01*
X211227200Y-110065428D02*
X211131961Y-109970190D01*
X211131961Y-109970190D02*
X211036723Y-109922571D01*
X211036723Y-109922571D02*
X210846247Y-109874952D01*
X210846247Y-109874952D02*
X210703390Y-109874952D01*
X210703390Y-109874952D02*
X210512914Y-109922571D01*
X210512914Y-109922571D02*
X210417676Y-109970190D01*
X210417676Y-109970190D02*
X210322438Y-110065428D01*
X210322438Y-110065428D02*
X210274819Y-110208285D01*
X210274819Y-110208285D02*
X210274819Y-110303523D01*
X210274819Y-110303523D02*
X210322438Y-110446380D01*
X210322438Y-110446380D02*
X210370057Y-110493999D01*
X211274819Y-111065428D02*
X211227200Y-110970190D01*
X211227200Y-110970190D02*
X211179580Y-110922571D01*
X211179580Y-110922571D02*
X211084342Y-110874952D01*
X211084342Y-110874952D02*
X210798628Y-110874952D01*
X210798628Y-110874952D02*
X210703390Y-110922571D01*
X210703390Y-110922571D02*
X210655771Y-110970190D01*
X210655771Y-110970190D02*
X210608152Y-111065428D01*
X210608152Y-111065428D02*
X210608152Y-111208285D01*
X210608152Y-111208285D02*
X210655771Y-111303523D01*
X210655771Y-111303523D02*
X210703390Y-111351142D01*
X210703390Y-111351142D02*
X210798628Y-111398761D01*
X210798628Y-111398761D02*
X211084342Y-111398761D01*
X211084342Y-111398761D02*
X211179580Y-111351142D01*
X211179580Y-111351142D02*
X211227200Y-111303523D01*
X211227200Y-111303523D02*
X211274819Y-111208285D01*
X211274819Y-111208285D02*
X211274819Y-111065428D01*
X210608152Y-111827333D02*
X211274819Y-111827333D01*
X210703390Y-111827333D02*
X210655771Y-111874952D01*
X210655771Y-111874952D02*
X210608152Y-111970190D01*
X210608152Y-111970190D02*
X210608152Y-112113047D01*
X210608152Y-112113047D02*
X210655771Y-112208285D01*
X210655771Y-112208285D02*
X210751009Y-112255904D01*
X210751009Y-112255904D02*
X211274819Y-112255904D01*
X210608152Y-112732095D02*
X211274819Y-112732095D01*
X210703390Y-112732095D02*
X210655771Y-112779714D01*
X210655771Y-112779714D02*
X210608152Y-112874952D01*
X210608152Y-112874952D02*
X210608152Y-113017809D01*
X210608152Y-113017809D02*
X210655771Y-113113047D01*
X210655771Y-113113047D02*
X210751009Y-113160666D01*
X210751009Y-113160666D02*
X211274819Y-113160666D01*
X211274819Y-114160666D02*
X211274819Y-113589238D01*
X211274819Y-113874952D02*
X210274819Y-113874952D01*
X210274819Y-113874952D02*
X210417676Y-113779714D01*
X210417676Y-113779714D02*
X210512914Y-113684476D01*
X210512914Y-113684476D02*
X210560533Y-113589238D01*
X210274819Y-115065428D02*
X210274819Y-114589238D01*
X210274819Y-114589238D02*
X210751009Y-114541619D01*
X210751009Y-114541619D02*
X210703390Y-114589238D01*
X210703390Y-114589238D02*
X210655771Y-114684476D01*
X210655771Y-114684476D02*
X210655771Y-114922571D01*
X210655771Y-114922571D02*
X210703390Y-115017809D01*
X210703390Y-115017809D02*
X210751009Y-115065428D01*
X210751009Y-115065428D02*
X210846247Y-115113047D01*
X210846247Y-115113047D02*
X211084342Y-115113047D01*
X211084342Y-115113047D02*
X211179580Y-115065428D01*
X211179580Y-115065428D02*
X211227200Y-115017809D01*
X211227200Y-115017809D02*
X211274819Y-114922571D01*
X211274819Y-114922571D02*
X211274819Y-114684476D01*
X211274819Y-114684476D02*
X211227200Y-114589238D01*
X211227200Y-114589238D02*
X211179580Y-114541619D01*
X180996880Y-179774690D02*
X181044500Y-179727071D01*
X181044500Y-179727071D02*
X181092119Y-179584214D01*
X181092119Y-179584214D02*
X181092119Y-179488976D01*
X181092119Y-179488976D02*
X181044500Y-179346119D01*
X181044500Y-179346119D02*
X180949261Y-179250881D01*
X180949261Y-179250881D02*
X180854023Y-179203262D01*
X180854023Y-179203262D02*
X180663547Y-179155643D01*
X180663547Y-179155643D02*
X180520690Y-179155643D01*
X180520690Y-179155643D02*
X180330214Y-179203262D01*
X180330214Y-179203262D02*
X180234976Y-179250881D01*
X180234976Y-179250881D02*
X180139738Y-179346119D01*
X180139738Y-179346119D02*
X180092119Y-179488976D01*
X180092119Y-179488976D02*
X180092119Y-179584214D01*
X180092119Y-179584214D02*
X180139738Y-179727071D01*
X180139738Y-179727071D02*
X180187357Y-179774690D01*
X181092119Y-180346119D02*
X181044500Y-180250881D01*
X181044500Y-180250881D02*
X180996880Y-180203262D01*
X180996880Y-180203262D02*
X180901642Y-180155643D01*
X180901642Y-180155643D02*
X180615928Y-180155643D01*
X180615928Y-180155643D02*
X180520690Y-180203262D01*
X180520690Y-180203262D02*
X180473071Y-180250881D01*
X180473071Y-180250881D02*
X180425452Y-180346119D01*
X180425452Y-180346119D02*
X180425452Y-180488976D01*
X180425452Y-180488976D02*
X180473071Y-180584214D01*
X180473071Y-180584214D02*
X180520690Y-180631833D01*
X180520690Y-180631833D02*
X180615928Y-180679452D01*
X180615928Y-180679452D02*
X180901642Y-180679452D01*
X180901642Y-180679452D02*
X180996880Y-180631833D01*
X180996880Y-180631833D02*
X181044500Y-180584214D01*
X181044500Y-180584214D02*
X181092119Y-180488976D01*
X181092119Y-180488976D02*
X181092119Y-180346119D01*
X180425452Y-181108024D02*
X181092119Y-181108024D01*
X180520690Y-181108024D02*
X180473071Y-181155643D01*
X180473071Y-181155643D02*
X180425452Y-181250881D01*
X180425452Y-181250881D02*
X180425452Y-181393738D01*
X180425452Y-181393738D02*
X180473071Y-181488976D01*
X180473071Y-181488976D02*
X180568309Y-181536595D01*
X180568309Y-181536595D02*
X181092119Y-181536595D01*
X180425452Y-182012786D02*
X181092119Y-182012786D01*
X180520690Y-182012786D02*
X180473071Y-182060405D01*
X180473071Y-182060405D02*
X180425452Y-182155643D01*
X180425452Y-182155643D02*
X180425452Y-182298500D01*
X180425452Y-182298500D02*
X180473071Y-182393738D01*
X180473071Y-182393738D02*
X180568309Y-182441357D01*
X180568309Y-182441357D02*
X181092119Y-182441357D01*
X180187357Y-182869929D02*
X180139738Y-182917548D01*
X180139738Y-182917548D02*
X180092119Y-183012786D01*
X180092119Y-183012786D02*
X180092119Y-183250881D01*
X180092119Y-183250881D02*
X180139738Y-183346119D01*
X180139738Y-183346119D02*
X180187357Y-183393738D01*
X180187357Y-183393738D02*
X180282595Y-183441357D01*
X180282595Y-183441357D02*
X180377833Y-183441357D01*
X180377833Y-183441357D02*
X180520690Y-183393738D01*
X180520690Y-183393738D02*
X181092119Y-182822310D01*
X181092119Y-182822310D02*
X181092119Y-183441357D01*
X227726280Y-110513999D02*
X227773900Y-110466380D01*
X227773900Y-110466380D02*
X227821519Y-110323523D01*
X227821519Y-110323523D02*
X227821519Y-110228285D01*
X227821519Y-110228285D02*
X227773900Y-110085428D01*
X227773900Y-110085428D02*
X227678661Y-109990190D01*
X227678661Y-109990190D02*
X227583423Y-109942571D01*
X227583423Y-109942571D02*
X227392947Y-109894952D01*
X227392947Y-109894952D02*
X227250090Y-109894952D01*
X227250090Y-109894952D02*
X227059614Y-109942571D01*
X227059614Y-109942571D02*
X226964376Y-109990190D01*
X226964376Y-109990190D02*
X226869138Y-110085428D01*
X226869138Y-110085428D02*
X226821519Y-110228285D01*
X226821519Y-110228285D02*
X226821519Y-110323523D01*
X226821519Y-110323523D02*
X226869138Y-110466380D01*
X226869138Y-110466380D02*
X226916757Y-110513999D01*
X227821519Y-111085428D02*
X227773900Y-110990190D01*
X227773900Y-110990190D02*
X227726280Y-110942571D01*
X227726280Y-110942571D02*
X227631042Y-110894952D01*
X227631042Y-110894952D02*
X227345328Y-110894952D01*
X227345328Y-110894952D02*
X227250090Y-110942571D01*
X227250090Y-110942571D02*
X227202471Y-110990190D01*
X227202471Y-110990190D02*
X227154852Y-111085428D01*
X227154852Y-111085428D02*
X227154852Y-111228285D01*
X227154852Y-111228285D02*
X227202471Y-111323523D01*
X227202471Y-111323523D02*
X227250090Y-111371142D01*
X227250090Y-111371142D02*
X227345328Y-111418761D01*
X227345328Y-111418761D02*
X227631042Y-111418761D01*
X227631042Y-111418761D02*
X227726280Y-111371142D01*
X227726280Y-111371142D02*
X227773900Y-111323523D01*
X227773900Y-111323523D02*
X227821519Y-111228285D01*
X227821519Y-111228285D02*
X227821519Y-111085428D01*
X227154852Y-111847333D02*
X227821519Y-111847333D01*
X227250090Y-111847333D02*
X227202471Y-111894952D01*
X227202471Y-111894952D02*
X227154852Y-111990190D01*
X227154852Y-111990190D02*
X227154852Y-112133047D01*
X227154852Y-112133047D02*
X227202471Y-112228285D01*
X227202471Y-112228285D02*
X227297709Y-112275904D01*
X227297709Y-112275904D02*
X227821519Y-112275904D01*
X227154852Y-112752095D02*
X227821519Y-112752095D01*
X227250090Y-112752095D02*
X227202471Y-112799714D01*
X227202471Y-112799714D02*
X227154852Y-112894952D01*
X227154852Y-112894952D02*
X227154852Y-113037809D01*
X227154852Y-113037809D02*
X227202471Y-113133047D01*
X227202471Y-113133047D02*
X227297709Y-113180666D01*
X227297709Y-113180666D02*
X227821519Y-113180666D01*
X227821519Y-114180666D02*
X227821519Y-113609238D01*
X227821519Y-113894952D02*
X226821519Y-113894952D01*
X226821519Y-113894952D02*
X226964376Y-113799714D01*
X226964376Y-113799714D02*
X227059614Y-113704476D01*
X227059614Y-113704476D02*
X227107233Y-113609238D01*
X226821519Y-114514000D02*
X226821519Y-115133047D01*
X226821519Y-115133047D02*
X227202471Y-114799714D01*
X227202471Y-114799714D02*
X227202471Y-114942571D01*
X227202471Y-114942571D02*
X227250090Y-115037809D01*
X227250090Y-115037809D02*
X227297709Y-115085428D01*
X227297709Y-115085428D02*
X227392947Y-115133047D01*
X227392947Y-115133047D02*
X227631042Y-115133047D01*
X227631042Y-115133047D02*
X227726280Y-115085428D01*
X227726280Y-115085428D02*
X227773900Y-115037809D01*
X227773900Y-115037809D02*
X227821519Y-114942571D01*
X227821519Y-114942571D02*
X227821519Y-114656857D01*
X227821519Y-114656857D02*
X227773900Y-114561619D01*
X227773900Y-114561619D02*
X227726280Y-114514000D01*
X365871809Y-209565280D02*
X365919428Y-209612900D01*
X365919428Y-209612900D02*
X366062285Y-209660519D01*
X366062285Y-209660519D02*
X366157523Y-209660519D01*
X366157523Y-209660519D02*
X366300380Y-209612900D01*
X366300380Y-209612900D02*
X366395618Y-209517661D01*
X366395618Y-209517661D02*
X366443237Y-209422423D01*
X366443237Y-209422423D02*
X366490856Y-209231947D01*
X366490856Y-209231947D02*
X366490856Y-209089090D01*
X366490856Y-209089090D02*
X366443237Y-208898614D01*
X366443237Y-208898614D02*
X366395618Y-208803376D01*
X366395618Y-208803376D02*
X366300380Y-208708138D01*
X366300380Y-208708138D02*
X366157523Y-208660519D01*
X366157523Y-208660519D02*
X366062285Y-208660519D01*
X366062285Y-208660519D02*
X365919428Y-208708138D01*
X365919428Y-208708138D02*
X365871809Y-208755757D01*
X365300380Y-209660519D02*
X365395618Y-209612900D01*
X365395618Y-209612900D02*
X365443237Y-209565280D01*
X365443237Y-209565280D02*
X365490856Y-209470042D01*
X365490856Y-209470042D02*
X365490856Y-209184328D01*
X365490856Y-209184328D02*
X365443237Y-209089090D01*
X365443237Y-209089090D02*
X365395618Y-209041471D01*
X365395618Y-209041471D02*
X365300380Y-208993852D01*
X365300380Y-208993852D02*
X365157523Y-208993852D01*
X365157523Y-208993852D02*
X365062285Y-209041471D01*
X365062285Y-209041471D02*
X365014666Y-209089090D01*
X365014666Y-209089090D02*
X364967047Y-209184328D01*
X364967047Y-209184328D02*
X364967047Y-209470042D01*
X364967047Y-209470042D02*
X365014666Y-209565280D01*
X365014666Y-209565280D02*
X365062285Y-209612900D01*
X365062285Y-209612900D02*
X365157523Y-209660519D01*
X365157523Y-209660519D02*
X365300380Y-209660519D01*
X364538475Y-208993852D02*
X364538475Y-209660519D01*
X364538475Y-209089090D02*
X364490856Y-209041471D01*
X364490856Y-209041471D02*
X364395618Y-208993852D01*
X364395618Y-208993852D02*
X364252761Y-208993852D01*
X364252761Y-208993852D02*
X364157523Y-209041471D01*
X364157523Y-209041471D02*
X364109904Y-209136709D01*
X364109904Y-209136709D02*
X364109904Y-209660519D01*
X363633713Y-208993852D02*
X363633713Y-209660519D01*
X363633713Y-209089090D02*
X363586094Y-209041471D01*
X363586094Y-209041471D02*
X363490856Y-208993852D01*
X363490856Y-208993852D02*
X363347999Y-208993852D01*
X363347999Y-208993852D02*
X363252761Y-209041471D01*
X363252761Y-209041471D02*
X363205142Y-209136709D01*
X363205142Y-209136709D02*
X363205142Y-209660519D01*
X362252761Y-208660519D02*
X362728951Y-208660519D01*
X362728951Y-208660519D02*
X362776570Y-209136709D01*
X362776570Y-209136709D02*
X362728951Y-209089090D01*
X362728951Y-209089090D02*
X362633713Y-209041471D01*
X362633713Y-209041471D02*
X362395618Y-209041471D01*
X362395618Y-209041471D02*
X362300380Y-209089090D01*
X362300380Y-209089090D02*
X362252761Y-209136709D01*
X362252761Y-209136709D02*
X362205142Y-209231947D01*
X362205142Y-209231947D02*
X362205142Y-209470042D01*
X362205142Y-209470042D02*
X362252761Y-209565280D01*
X362252761Y-209565280D02*
X362300380Y-209612900D01*
X362300380Y-209612900D02*
X362395618Y-209660519D01*
X362395618Y-209660519D02*
X362633713Y-209660519D01*
X362633713Y-209660519D02*
X362728951Y-209612900D01*
X362728951Y-209612900D02*
X362776570Y-209565280D01*
X366787280Y-110563499D02*
X366834900Y-110515880D01*
X366834900Y-110515880D02*
X366882519Y-110373023D01*
X366882519Y-110373023D02*
X366882519Y-110277785D01*
X366882519Y-110277785D02*
X366834900Y-110134928D01*
X366834900Y-110134928D02*
X366739661Y-110039690D01*
X366739661Y-110039690D02*
X366644423Y-109992071D01*
X366644423Y-109992071D02*
X366453947Y-109944452D01*
X366453947Y-109944452D02*
X366311090Y-109944452D01*
X366311090Y-109944452D02*
X366120614Y-109992071D01*
X366120614Y-109992071D02*
X366025376Y-110039690D01*
X366025376Y-110039690D02*
X365930138Y-110134928D01*
X365930138Y-110134928D02*
X365882519Y-110277785D01*
X365882519Y-110277785D02*
X365882519Y-110373023D01*
X365882519Y-110373023D02*
X365930138Y-110515880D01*
X365930138Y-110515880D02*
X365977757Y-110563499D01*
X366882519Y-111134928D02*
X366834900Y-111039690D01*
X366834900Y-111039690D02*
X366787280Y-110992071D01*
X366787280Y-110992071D02*
X366692042Y-110944452D01*
X366692042Y-110944452D02*
X366406328Y-110944452D01*
X366406328Y-110944452D02*
X366311090Y-110992071D01*
X366311090Y-110992071D02*
X366263471Y-111039690D01*
X366263471Y-111039690D02*
X366215852Y-111134928D01*
X366215852Y-111134928D02*
X366215852Y-111277785D01*
X366215852Y-111277785D02*
X366263471Y-111373023D01*
X366263471Y-111373023D02*
X366311090Y-111420642D01*
X366311090Y-111420642D02*
X366406328Y-111468261D01*
X366406328Y-111468261D02*
X366692042Y-111468261D01*
X366692042Y-111468261D02*
X366787280Y-111420642D01*
X366787280Y-111420642D02*
X366834900Y-111373023D01*
X366834900Y-111373023D02*
X366882519Y-111277785D01*
X366882519Y-111277785D02*
X366882519Y-111134928D01*
X366215852Y-111896833D02*
X366882519Y-111896833D01*
X366311090Y-111896833D02*
X366263471Y-111944452D01*
X366263471Y-111944452D02*
X366215852Y-112039690D01*
X366215852Y-112039690D02*
X366215852Y-112182547D01*
X366215852Y-112182547D02*
X366263471Y-112277785D01*
X366263471Y-112277785D02*
X366358709Y-112325404D01*
X366358709Y-112325404D02*
X366882519Y-112325404D01*
X366215852Y-112801595D02*
X366882519Y-112801595D01*
X366311090Y-112801595D02*
X366263471Y-112849214D01*
X366263471Y-112849214D02*
X366215852Y-112944452D01*
X366215852Y-112944452D02*
X366215852Y-113087309D01*
X366215852Y-113087309D02*
X366263471Y-113182547D01*
X366263471Y-113182547D02*
X366358709Y-113230166D01*
X366358709Y-113230166D02*
X366882519Y-113230166D01*
X366882519Y-114230166D02*
X366882519Y-113658738D01*
X366882519Y-113944452D02*
X365882519Y-113944452D01*
X365882519Y-113944452D02*
X366025376Y-113849214D01*
X366025376Y-113849214D02*
X366120614Y-113753976D01*
X366120614Y-113753976D02*
X366168233Y-113658738D01*
X366882519Y-115182547D02*
X366882519Y-114611119D01*
X366882519Y-114896833D02*
X365882519Y-114896833D01*
X365882519Y-114896833D02*
X366025376Y-114801595D01*
X366025376Y-114801595D02*
X366120614Y-114706357D01*
X366120614Y-114706357D02*
X366168233Y-114611119D01*
%TO.C,Conn18*%
X304427700Y-90219500D02*
X312301700Y-90219500D01*
X304402300Y-90219500D02*
X304402300Y-99109500D01*
X312301700Y-97941100D02*
X312301700Y-99109500D01*
X312301700Y-97966500D02*
X312301700Y-90219500D01*
X309990300Y-100252500D02*
X311158700Y-100252500D01*
X306713700Y-100252500D02*
X310015700Y-100252500D01*
X306713700Y-100252500D02*
X305570700Y-100252500D01*
X312301700Y-102538500D02*
X312301700Y-114832100D01*
X304427700Y-102538500D02*
X304427700Y-101395500D01*
X304427700Y-102538500D02*
X304427700Y-114832100D01*
X312301700Y-102563900D02*
X312301700Y-101370100D01*
X312301700Y-114857500D02*
X304427700Y-114857500D01*
X305570700Y-100252500D02*
G75*
G03*
X304427700Y-99109500I-1143000J0D01*
G01*
X312301700Y-99134900D02*
G75*
G03*
X311184100Y-100252500I-2J-1117598D01*
G01*
X304427700Y-101395500D02*
G75*
G03*
X305570700Y-100252500I0J1143000D01*
G01*
X311184100Y-100252500D02*
G75*
G03*
X312301700Y-101370100I1117598J-2D01*
G01*
%TO.C,Conn4*%
X386692000Y-222135700D02*
X386692000Y-230009700D01*
X386692000Y-222110300D02*
X377802000Y-222110300D01*
X378970400Y-230009700D02*
X377802000Y-230009700D01*
X378945000Y-230009700D02*
X386692000Y-230009700D01*
X376659000Y-227698300D02*
X376659000Y-228866700D01*
X376659000Y-224421700D02*
X376659000Y-227723700D01*
X376659000Y-224421700D02*
X376659000Y-223278700D01*
X374373000Y-230009700D02*
X362079400Y-230009700D01*
X374373000Y-222135700D02*
X375516000Y-222135700D01*
X374373000Y-222135700D02*
X362079400Y-222135700D01*
X374347600Y-230009700D02*
X375541400Y-230009700D01*
X362054000Y-230009700D02*
X362054000Y-222135700D01*
X376659000Y-223278700D02*
G75*
G03*
X377802000Y-222135700I0J1143000D01*
G01*
X377776600Y-230009700D02*
G75*
G03*
X376659000Y-228892100I-1117598J2D01*
G01*
X375516000Y-222135700D02*
G75*
G03*
X376659000Y-223278700I1143000J0D01*
G01*
X376659000Y-228892100D02*
G75*
G03*
X375541400Y-230009700I-2J-1117598D01*
G01*
%TO.C,Conn3*%
X155196500Y-224904300D02*
X155196500Y-217030300D01*
X155196500Y-224929700D02*
X164086500Y-224929700D01*
X162918100Y-217030300D02*
X164086500Y-217030300D01*
X162943500Y-217030300D02*
X155196500Y-217030300D01*
X165229500Y-219341700D02*
X165229500Y-218173300D01*
X165229500Y-222618300D02*
X165229500Y-219316300D01*
X165229500Y-222618300D02*
X165229500Y-223761300D01*
X167515500Y-217030300D02*
X179809100Y-217030300D01*
X167515500Y-224904300D02*
X166372500Y-224904300D01*
X167515500Y-224904300D02*
X179809100Y-224904300D01*
X167540900Y-217030300D02*
X166347100Y-217030300D01*
X179834500Y-217030300D02*
X179834500Y-224904300D01*
X165229500Y-223761300D02*
G75*
G03*
X164086500Y-224904300I0J-1143000D01*
G01*
X164111900Y-217030300D02*
G75*
G03*
X165229500Y-218147900I1117598J-2D01*
G01*
X166372500Y-224904300D02*
G75*
G03*
X165229500Y-223761300I-1143000J0D01*
G01*
X165229500Y-218147900D02*
G75*
G03*
X166347100Y-217030300I2J1117598D01*
G01*
%TO.C,Conn19*%
X286647700Y-90219500D02*
X294521700Y-90219500D01*
X286622300Y-90219500D02*
X286622300Y-99109500D01*
X294521700Y-97941100D02*
X294521700Y-99109500D01*
X294521700Y-97966500D02*
X294521700Y-90219500D01*
X292210300Y-100252500D02*
X293378700Y-100252500D01*
X288933700Y-100252500D02*
X292235700Y-100252500D01*
X288933700Y-100252500D02*
X287790700Y-100252500D01*
X294521700Y-102538500D02*
X294521700Y-114832100D01*
X286647700Y-102538500D02*
X286647700Y-101395500D01*
X286647700Y-102538500D02*
X286647700Y-114832100D01*
X294521700Y-102563900D02*
X294521700Y-101370100D01*
X294521700Y-114857500D02*
X286647700Y-114857500D01*
X287790700Y-100252500D02*
G75*
G03*
X286647700Y-99109500I-1143000J0D01*
G01*
X294521700Y-99134900D02*
G75*
G03*
X293404100Y-100252500I-2J-1117598D01*
G01*
X286647700Y-101395500D02*
G75*
G03*
X287790700Y-100252500I0J1143000D01*
G01*
X293404100Y-100252500D02*
G75*
G03*
X294521700Y-101370100I1117598J-2D01*
G01*
%TO.C,Conn9*%
X155101000Y-158816000D02*
X155101000Y-150942000D01*
X155101000Y-158841400D02*
X163991000Y-158841400D01*
X162822600Y-150942000D02*
X163991000Y-150942000D01*
X162848000Y-150942000D02*
X155101000Y-150942000D01*
X165134000Y-153253400D02*
X165134000Y-152085000D01*
X165134000Y-156530000D02*
X165134000Y-153228000D01*
X165134000Y-156530000D02*
X165134000Y-157673000D01*
X167420000Y-150942000D02*
X179713600Y-150942000D01*
X167420000Y-158816000D02*
X166277000Y-158816000D01*
X167420000Y-158816000D02*
X179713600Y-158816000D01*
X167445400Y-150942000D02*
X166251600Y-150942000D01*
X179739000Y-150942000D02*
X179739000Y-158816000D01*
X165134000Y-157673000D02*
G75*
G03*
X163991000Y-158816000I0J-1143000D01*
G01*
X164016400Y-150942000D02*
G75*
G03*
X165134000Y-152059600I1117598J-2D01*
G01*
X166277000Y-158816000D02*
G75*
G03*
X165134000Y-157673000I-1143000J0D01*
G01*
X165134000Y-152059600D02*
G75*
G03*
X166251600Y-150942000I2J1117598D01*
G01*
%TO.C,Conn10*%
X339987700Y-90219500D02*
X347861700Y-90219500D01*
X339962300Y-90219500D02*
X339962300Y-99109500D01*
X347861700Y-97941100D02*
X347861700Y-99109500D01*
X347861700Y-97966500D02*
X347861700Y-90219500D01*
X345550300Y-100252500D02*
X346718700Y-100252500D01*
X342273700Y-100252500D02*
X345575700Y-100252500D01*
X342273700Y-100252500D02*
X341130700Y-100252500D01*
X347861700Y-102538500D02*
X347861700Y-114832100D01*
X339987700Y-102538500D02*
X339987700Y-101395500D01*
X339987700Y-102538500D02*
X339987700Y-114832100D01*
X347861700Y-102563900D02*
X347861700Y-101370100D01*
X347861700Y-114857500D02*
X339987700Y-114857500D01*
X341130700Y-100252500D02*
G75*
G03*
X339987700Y-99109500I-1143000J0D01*
G01*
X347861700Y-99134900D02*
G75*
G03*
X346744100Y-100252500I-2J-1117598D01*
G01*
X339987700Y-101395500D02*
G75*
G03*
X341130700Y-100252500I0J1143000D01*
G01*
X346744100Y-100252500D02*
G75*
G03*
X347861700Y-101370100I1117598J-2D01*
G01*
%TO.C,Conn17*%
X322207700Y-90219500D02*
X330081700Y-90219500D01*
X322182300Y-90219500D02*
X322182300Y-99109500D01*
X330081700Y-97941100D02*
X330081700Y-99109500D01*
X330081700Y-97966500D02*
X330081700Y-90219500D01*
X327770300Y-100252500D02*
X328938700Y-100252500D01*
X324493700Y-100252500D02*
X327795700Y-100252500D01*
X324493700Y-100252500D02*
X323350700Y-100252500D01*
X330081700Y-102538500D02*
X330081700Y-114832100D01*
X322207700Y-102538500D02*
X322207700Y-101395500D01*
X322207700Y-102538500D02*
X322207700Y-114832100D01*
X330081700Y-102563900D02*
X330081700Y-101370100D01*
X330081700Y-114857500D02*
X322207700Y-114857500D01*
X323350700Y-100252500D02*
G75*
G03*
X322207700Y-99109500I-1143000J0D01*
G01*
X330081700Y-99134900D02*
G75*
G03*
X328964100Y-100252500I-2J-1117598D01*
G01*
X322207700Y-101395500D02*
G75*
G03*
X323350700Y-100252500I0J1143000D01*
G01*
X328964100Y-100252500D02*
G75*
G03*
X330081700Y-101370100I1117598J-2D01*
G01*
%TO.C,Conn6*%
X386692000Y-179463700D02*
X386692000Y-187337700D01*
X386692000Y-179438300D02*
X377802000Y-179438300D01*
X378970400Y-187337700D02*
X377802000Y-187337700D01*
X378945000Y-187337700D02*
X386692000Y-187337700D01*
X376659000Y-185026300D02*
X376659000Y-186194700D01*
X376659000Y-181749700D02*
X376659000Y-185051700D01*
X376659000Y-181749700D02*
X376659000Y-180606700D01*
X374373000Y-187337700D02*
X362079400Y-187337700D01*
X374373000Y-179463700D02*
X375516000Y-179463700D01*
X374373000Y-179463700D02*
X362079400Y-179463700D01*
X374347600Y-187337700D02*
X375541400Y-187337700D01*
X362054000Y-187337700D02*
X362054000Y-179463700D01*
X376659000Y-180606700D02*
G75*
G03*
X377802000Y-179463700I0J1143000D01*
G01*
X377776600Y-187337700D02*
G75*
G03*
X376659000Y-186220100I-1117598J2D01*
G01*
X375516000Y-179463700D02*
G75*
G03*
X376659000Y-180606700I1143000J0D01*
G01*
X376659000Y-186220100D02*
G75*
G03*
X375541400Y-187337700I-2J-1117598D01*
G01*
%TO.C,Conn8*%
X155130500Y-136642300D02*
X155130500Y-128768300D01*
X155130500Y-136667700D02*
X164020500Y-136667700D01*
X162852100Y-128768300D02*
X164020500Y-128768300D01*
X162877500Y-128768300D02*
X155130500Y-128768300D01*
X165163500Y-131079700D02*
X165163500Y-129911300D01*
X165163500Y-134356300D02*
X165163500Y-131054300D01*
X165163500Y-134356300D02*
X165163500Y-135499300D01*
X167449500Y-128768300D02*
X179743100Y-128768300D01*
X167449500Y-136642300D02*
X166306500Y-136642300D01*
X167449500Y-136642300D02*
X179743100Y-136642300D01*
X167474900Y-128768300D02*
X166281100Y-128768300D01*
X179768500Y-128768300D02*
X179768500Y-136642300D01*
X165163500Y-135499300D02*
G75*
G03*
X164020500Y-136642300I0J-1143000D01*
G01*
X164045900Y-128768300D02*
G75*
G03*
X165163500Y-129885900I1117598J-2D01*
G01*
X166306500Y-136642300D02*
G75*
G03*
X165163500Y-135499300I-1143000J0D01*
G01*
X165163500Y-129885900D02*
G75*
G03*
X166281100Y-128768300I2J1117598D01*
G01*
%TO.C,Conn1*%
X155196500Y-181724300D02*
X155196500Y-173850300D01*
X155196500Y-181749700D02*
X164086500Y-181749700D01*
X162918100Y-173850300D02*
X164086500Y-173850300D01*
X162943500Y-173850300D02*
X155196500Y-173850300D01*
X165229500Y-176161700D02*
X165229500Y-174993300D01*
X165229500Y-179438300D02*
X165229500Y-176136300D01*
X165229500Y-179438300D02*
X165229500Y-180581300D01*
X167515500Y-173850300D02*
X179809100Y-173850300D01*
X167515500Y-181724300D02*
X166372500Y-181724300D01*
X167515500Y-181724300D02*
X179809100Y-181724300D01*
X167540900Y-173850300D02*
X166347100Y-173850300D01*
X179834500Y-173850300D02*
X179834500Y-181724300D01*
X165229500Y-180581300D02*
G75*
G03*
X164086500Y-181724300I0J-1143000D01*
G01*
X164111900Y-173850300D02*
G75*
G03*
X165229500Y-174967900I1117598J-2D01*
G01*
X166372500Y-181724300D02*
G75*
G03*
X165229500Y-180581300I-1143000J0D01*
G01*
X165229500Y-174967900D02*
G75*
G03*
X166347100Y-173850300I2J1117598D01*
G01*
%TO.C,Conn16*%
X268867700Y-90219500D02*
X276741700Y-90219500D01*
X268842300Y-90219500D02*
X268842300Y-99109500D01*
X276741700Y-97941100D02*
X276741700Y-99109500D01*
X276741700Y-97966500D02*
X276741700Y-90219500D01*
X274430300Y-100252500D02*
X275598700Y-100252500D01*
X271153700Y-100252500D02*
X274455700Y-100252500D01*
X271153700Y-100252500D02*
X270010700Y-100252500D01*
X276741700Y-102538500D02*
X276741700Y-114832100D01*
X268867700Y-102538500D02*
X268867700Y-101395500D01*
X268867700Y-102538500D02*
X268867700Y-114832100D01*
X276741700Y-102563900D02*
X276741700Y-101370100D01*
X276741700Y-114857500D02*
X268867700Y-114857500D01*
X270010700Y-100252500D02*
G75*
G03*
X268867700Y-99109500I-1143000J0D01*
G01*
X276741700Y-99134900D02*
G75*
G03*
X275624100Y-100252500I-2J-1117598D01*
G01*
X268867700Y-101395500D02*
G75*
G03*
X270010700Y-100252500I0J1143000D01*
G01*
X275624100Y-100252500D02*
G75*
G03*
X276741700Y-101370100I1117598J-2D01*
G01*
%TO.C,Conn7*%
X386692000Y-157873700D02*
X386692000Y-165747700D01*
X386692000Y-157848300D02*
X377802000Y-157848300D01*
X378970400Y-165747700D02*
X377802000Y-165747700D01*
X378945000Y-165747700D02*
X386692000Y-165747700D01*
X376659000Y-163436300D02*
X376659000Y-164604700D01*
X376659000Y-160159700D02*
X376659000Y-163461700D01*
X376659000Y-160159700D02*
X376659000Y-159016700D01*
X374373000Y-165747700D02*
X362079400Y-165747700D01*
X374373000Y-157873700D02*
X375516000Y-157873700D01*
X374373000Y-157873700D02*
X362079400Y-157873700D01*
X374347600Y-165747700D02*
X375541400Y-165747700D01*
X362054000Y-165747700D02*
X362054000Y-157873700D01*
X376659000Y-159016700D02*
G75*
G03*
X377802000Y-157873700I0J1143000D01*
G01*
X377776600Y-165747700D02*
G75*
G03*
X376659000Y-164630100I-1117598J2D01*
G01*
X375516000Y-157873700D02*
G75*
G03*
X376659000Y-159016700I1143000J0D01*
G01*
X376659000Y-164630100D02*
G75*
G03*
X375541400Y-165747700I-2J-1117598D01*
G01*
%TO.C,Conn12*%
X251599700Y-89965500D02*
X259473700Y-89965500D01*
X251574300Y-89965500D02*
X251574300Y-98855500D01*
X259473700Y-97687100D02*
X259473700Y-98855500D01*
X259473700Y-97712500D02*
X259473700Y-89965500D01*
X257162300Y-99998500D02*
X258330700Y-99998500D01*
X253885700Y-99998500D02*
X257187700Y-99998500D01*
X253885700Y-99998500D02*
X252742700Y-99998500D01*
X259473700Y-102284500D02*
X259473700Y-114578100D01*
X251599700Y-102284500D02*
X251599700Y-101141500D01*
X251599700Y-102284500D02*
X251599700Y-114578100D01*
X259473700Y-102309900D02*
X259473700Y-101116100D01*
X259473700Y-114603500D02*
X251599700Y-114603500D01*
X252742700Y-99998500D02*
G75*
G03*
X251599700Y-98855500I-1143000J0D01*
G01*
X259473700Y-98880900D02*
G75*
G03*
X258356100Y-99998500I-2J-1117598D01*
G01*
X251599700Y-101141500D02*
G75*
G03*
X252742700Y-99998500I0J1143000D01*
G01*
X258356100Y-99998500D02*
G75*
G03*
X259473700Y-101116100I1117598J-2D01*
G01*
%TO.C,Conn14*%
X235204000Y-90170000D02*
X243078000Y-90170000D01*
X235178600Y-90170000D02*
X235178600Y-99060000D01*
X243078000Y-97891600D02*
X243078000Y-99060000D01*
X243078000Y-97917000D02*
X243078000Y-90170000D01*
X240766600Y-100203000D02*
X241935000Y-100203000D01*
X237490000Y-100203000D02*
X240792000Y-100203000D01*
X237490000Y-100203000D02*
X236347000Y-100203000D01*
X243078000Y-102489000D02*
X243078000Y-114782600D01*
X235204000Y-102489000D02*
X235204000Y-101346000D01*
X235204000Y-102489000D02*
X235204000Y-114782600D01*
X243078000Y-102514400D02*
X243078000Y-101320600D01*
X243078000Y-114808000D02*
X235204000Y-114808000D01*
X236347000Y-100203000D02*
G75*
G03*
X235204000Y-99060000I-1143000J0D01*
G01*
X243078000Y-99085400D02*
G75*
G03*
X241960400Y-100203000I-2J-1117598D01*
G01*
X235204000Y-101346000D02*
G75*
G03*
X236347000Y-100203000I0J1143000D01*
G01*
X241960400Y-100203000D02*
G75*
G03*
X243078000Y-101320600I1117598J-2D01*
G01*
%TO.C,Conn15*%
X202069700Y-90191500D02*
X209943700Y-90191500D01*
X202044300Y-90191500D02*
X202044300Y-99081500D01*
X209943700Y-97913100D02*
X209943700Y-99081500D01*
X209943700Y-97938500D02*
X209943700Y-90191500D01*
X207632300Y-100224500D02*
X208800700Y-100224500D01*
X204355700Y-100224500D02*
X207657700Y-100224500D01*
X204355700Y-100224500D02*
X203212700Y-100224500D01*
X209943700Y-102510500D02*
X209943700Y-114804100D01*
X202069700Y-102510500D02*
X202069700Y-101367500D01*
X202069700Y-102510500D02*
X202069700Y-114804100D01*
X209943700Y-102535900D02*
X209943700Y-101342100D01*
X209943700Y-114829500D02*
X202069700Y-114829500D01*
X203212700Y-100224500D02*
G75*
G03*
X202069700Y-99081500I-1143000J0D01*
G01*
X209943700Y-99106900D02*
G75*
G03*
X208826100Y-100224500I-2J-1117598D01*
G01*
X202069700Y-101367500D02*
G75*
G03*
X203212700Y-100224500I0J1143000D01*
G01*
X208826100Y-100224500D02*
G75*
G03*
X209943700Y-101342100I1117598J-2D01*
G01*
%TO.C,Conn2*%
X155196500Y-203314300D02*
X155196500Y-195440300D01*
X155196500Y-203339700D02*
X164086500Y-203339700D01*
X162918100Y-195440300D02*
X164086500Y-195440300D01*
X162943500Y-195440300D02*
X155196500Y-195440300D01*
X165229500Y-197751700D02*
X165229500Y-196583300D01*
X165229500Y-201028300D02*
X165229500Y-197726300D01*
X165229500Y-201028300D02*
X165229500Y-202171300D01*
X167515500Y-195440300D02*
X179809100Y-195440300D01*
X167515500Y-203314300D02*
X166372500Y-203314300D01*
X167515500Y-203314300D02*
X179809100Y-203314300D01*
X167540900Y-195440300D02*
X166347100Y-195440300D01*
X179834500Y-195440300D02*
X179834500Y-203314300D01*
X165229500Y-202171300D02*
G75*
G03*
X164086500Y-203314300I0J-1143000D01*
G01*
X164111900Y-195440300D02*
G75*
G03*
X165229500Y-196557900I1117598J-2D01*
G01*
X166372500Y-203314300D02*
G75*
G03*
X165229500Y-202171300I-1143000J0D01*
G01*
X165229500Y-196557900D02*
G75*
G03*
X166347100Y-195440300I2J1117598D01*
G01*
%TO.C,Conn13*%
X218706700Y-90170000D02*
X226580700Y-90170000D01*
X218681300Y-90170000D02*
X218681300Y-99060000D01*
X226580700Y-97891600D02*
X226580700Y-99060000D01*
X226580700Y-97917000D02*
X226580700Y-90170000D01*
X224269300Y-100203000D02*
X225437700Y-100203000D01*
X220992700Y-100203000D02*
X224294700Y-100203000D01*
X220992700Y-100203000D02*
X219849700Y-100203000D01*
X226580700Y-102489000D02*
X226580700Y-114782600D01*
X218706700Y-102489000D02*
X218706700Y-101346000D01*
X218706700Y-102489000D02*
X218706700Y-114782600D01*
X226580700Y-102514400D02*
X226580700Y-101320600D01*
X226580700Y-114808000D02*
X218706700Y-114808000D01*
X219849700Y-100203000D02*
G75*
G03*
X218706700Y-99060000I-1143000J0D01*
G01*
X226580700Y-99085400D02*
G75*
G03*
X225463100Y-100203000I-2J-1117598D01*
G01*
X218706700Y-101346000D02*
G75*
G03*
X219849700Y-100203000I0J1143000D01*
G01*
X225463100Y-100203000D02*
G75*
G03*
X226580700Y-101320600I1117598J-2D01*
G01*
%TO.C,Conn5*%
X386692000Y-201053700D02*
X386692000Y-208927700D01*
X386692000Y-201028300D02*
X377802000Y-201028300D01*
X378970400Y-208927700D02*
X377802000Y-208927700D01*
X378945000Y-208927700D02*
X386692000Y-208927700D01*
X376659000Y-206616300D02*
X376659000Y-207784700D01*
X376659000Y-203339700D02*
X376659000Y-206641700D01*
X376659000Y-203339700D02*
X376659000Y-202196700D01*
X374373000Y-208927700D02*
X362079400Y-208927700D01*
X374373000Y-201053700D02*
X375516000Y-201053700D01*
X374373000Y-201053700D02*
X362079400Y-201053700D01*
X374347600Y-208927700D02*
X375541400Y-208927700D01*
X362054000Y-208927700D02*
X362054000Y-201053700D01*
X376659000Y-202196700D02*
G75*
G03*
X377802000Y-201053700I0J1143000D01*
G01*
X377776600Y-208927700D02*
G75*
G03*
X376659000Y-207810100I-1117598J2D01*
G01*
X375516000Y-201053700D02*
G75*
G03*
X376659000Y-202196700I1143000J0D01*
G01*
X376659000Y-207810100D02*
G75*
G03*
X375541400Y-208927700I-2J-1117598D01*
G01*
%TO.C,Conn11*%
X357767700Y-90219500D02*
X365641700Y-90219500D01*
X357742300Y-90219500D02*
X357742300Y-99109500D01*
X365641700Y-97941100D02*
X365641700Y-99109500D01*
X365641700Y-97966500D02*
X365641700Y-90219500D01*
X363330300Y-100252500D02*
X364498700Y-100252500D01*
X360053700Y-100252500D02*
X363355700Y-100252500D01*
X360053700Y-100252500D02*
X358910700Y-100252500D01*
X365641700Y-102538500D02*
X365641700Y-114832100D01*
X357767700Y-102538500D02*
X357767700Y-101395500D01*
X357767700Y-102538500D02*
X357767700Y-114832100D01*
X365641700Y-102563900D02*
X365641700Y-101370100D01*
X365641700Y-114857500D02*
X357767700Y-114857500D01*
X358910700Y-100252500D02*
G75*
G03*
X357767700Y-99109500I-1143000J0D01*
G01*
X365641700Y-99134900D02*
G75*
G03*
X364524100Y-100252500I-2J-1117598D01*
G01*
X357767700Y-101395500D02*
G75*
G03*
X358910700Y-100252500I0J1143000D01*
G01*
X364524100Y-100252500D02*
G75*
G03*
X365641700Y-101370100I1117598J-2D01*
G01*
%TD*%
M02*
