M48
; DRILL file {KiCad (5.1.6)-1} date 12/14/20 15:31:54
; FORMAT={-:-/ absolute / inch / decimal}
; #@! TF.CreationDate,2020-12-14T15:31:54-06:00
; #@! TF.GenerationSoftware,Kicad,Pcbnew,(5.1.6)-1
; #@! TF.FileFunction,Plated,1,2,PTH
FMAT,2
INCH
T1C0.0157
T2C0.0315
T3C0.0350
T4C0.0354
T5C0.0472
T6C0.0630
T7C0.0660
T8C0.1616
T9C0.1616
T10C0.3600
%
G90
G05
T1
X4.13Y-0.85
X4.36Y-1.6
X4.43Y-1.65
X4.47Y-1.65
X4.51Y-1.47
X4.51Y-1.57
X4.7Y-0.55
X4.7Y-0.66
X4.81Y-0.86
X4.87Y-0.86
X5.04Y-1.59
X5.15Y-1.59
X5.32Y-1.26
X5.32Y-1.3
X5.55Y-0.71
X5.79Y-1.38
X5.97Y-0.4
X5.97Y-1.01
X6.06Y-0.72
X6.31Y-1.55
X6.36Y-1.63
X6.4Y-0.52
X6.4Y-0.58
X6.49Y-1.3
X6.56Y-0.58
X6.56Y-1.3
X6.86Y-1.66
X7.07Y-1.04
X7.12Y-0.56
X7.12Y-0.67
X7.38Y-0.74
X7.38Y-0.92
X7.68Y-3.44
X7.74Y-4.83
X7.74Y-4.98
X7.74Y-5.17
X7.75Y-3.15
X7.76Y-2.2
X7.76Y-2.35
X7.77Y-3.46
X7.78Y-5.71
X7.83Y-3.03
X7.88Y-1.12
X7.95Y-1.12
X8.05Y-4.86
X8.05Y-5.71
X8.06Y-2.2
X8.1Y-3.94
X8.11Y-3.1
X8.47Y-4.34
X8.49Y-1.67
X8.49Y-2.57
X8.49Y-3.43
X8.49Y-5.16
X8.53Y-1.64
T2
X7.49Y-6.6416
X7.49Y-6.74
X6.41Y-6.55
X6.41Y-6.6484
X3.81Y-2.6821
X3.81Y-2.7806
X3.81Y-2.36
X3.81Y-2.4584
T3
X7.19Y-6.54
X7.19Y-6.64
X7.19Y-6.74
X3.58Y-1.63
X3.68Y-1.63
X3.78Y-1.63
T4
X3.2Y-0.46
X3.2Y-0.56
X3.2Y-0.66
X3.2Y-0.76
X3.2Y-0.86
X3.2Y-0.96
X3.2Y-1.06
X3.2Y-1.16
X3.2Y-1.26
X3.2Y-1.36
X3.66Y-0.96
X3.66Y-1.06
X3.66Y-1.16
X3.66Y-1.26
X3.66Y-1.36
T5
X4.59Y-5.61
X4.59Y-5.8069
X5.68Y-5.62
X5.68Y-5.8169
X6.24Y-5.62
X6.24Y-5.8169
X5.14Y-5.61
X5.14Y-5.8069
T6
X7.14Y-6.24
X7.34Y-6.24
X7.14Y-5.98
X7.34Y-5.98
T7
X7.14Y-1.82
X7.14Y-1.955
X7.67Y-1.82
X7.67Y-1.955
X6.51Y-1.56
X6.51Y-2.09
X6.645Y-1.56
X6.645Y-2.09
X7.13Y-5.31
X7.13Y-5.445
X7.66Y-5.31
X7.66Y-5.445
X7.16Y-2.75
X7.16Y-2.885
X7.69Y-2.75
X7.69Y-2.885
X4.04Y-1.595
X4.04Y-2.125
X4.175Y-1.595
X4.175Y-2.125
X7.15Y-3.59
X7.15Y-3.725
X7.68Y-3.59
X7.68Y-3.725
X5.32Y-1.58
X5.32Y-2.11
X5.455Y-1.58
X5.455Y-2.11
X5.95Y-1.56
X5.95Y-2.09
X6.085Y-1.56
X6.085Y-2.09
X7.13Y-4.47
X7.13Y-4.605
X7.66Y-4.47
X7.66Y-4.605
X4.77Y-1.6
X4.77Y-2.13
X4.905Y-1.6
X4.905Y-2.13
T8
X8.4485Y-4.749
X8.4285Y-5.599
X5.144Y-0.5165
X8.4485Y-2.149
X7.619Y-0.5315
X8.4585Y-3.909
X4.454Y-0.5065
X6.87Y-0.5215
X8.4485Y-3.029
X6.22Y-0.541
T9
X6.87Y-0.2105
X8.7595Y-4.749
X7.619Y-0.2205
X6.22Y-0.23
X5.144Y-0.2055
X8.7595Y-2.149
X8.7695Y-3.909
X4.454Y-0.1955
X8.7595Y-3.029
X8.7395Y-5.599
T10
X4.1Y-6.4
X8.07Y-6.39
T0
M30
