%TF.GenerationSoftware,KiCad,Pcbnew,(5.1.6)-1*%
%TF.CreationDate,2020-12-14T15:31:43-06:00*%
%TF.ProjectId,PackVoltage_2021_Rev1,5061636b-566f-46c7-9461-67655f323032,rev?*%
%TF.SameCoordinates,Original*%
%TF.FileFunction,Soldermask,Bot*%
%TF.FilePolarity,Negative*%
%FSLAX46Y46*%
G04 Gerber Fmt 4.6, Leading zero omitted, Abs format (unit mm)*
G04 Created by KiCad (PCBNEW (5.1.6)-1) date 2020-12-14 15:31:43*
%MOMM*%
%LPD*%
G01*
G04 APERTURE LIST*
%ADD10C,3.046400*%
%ADD11C,1.624000*%
%ADD12O,3.300000X3.300000*%
%ADD13R,3.300000X3.300000*%
%ADD14C,2.500000*%
%ADD15R,2.500000X2.500000*%
%ADD16C,1.700000*%
%ADD17R,1.700000X1.700000*%
%ADD18C,5.180000*%
%ADD19C,2.919400*%
%ADD20C,18.388000*%
G04 APERTURE END LIST*
D10*
%TO.C,REF\u002A\u002A*%
X80208120Y-173791880D03*
%TD*%
%TO.C,REF\u002A\u002A*%
X224591880Y-173791880D03*
%TD*%
%TO.C,REF\u002A\u002A*%
X224591880Y-4008120D03*
%TD*%
%TO.C,REF\u002A\u002A*%
X80208120Y-4008120D03*
%TD*%
D11*
%TO.C,Conn6*%
X92964000Y-24384000D03*
X92964000Y-26924000D03*
X92964000Y-29464000D03*
X92964000Y-32004000D03*
X92964000Y-34544000D03*
%TD*%
%TO.C,Conn5*%
X81280000Y-11684000D03*
X81280000Y-14224000D03*
X81280000Y-16764000D03*
X81280000Y-19304000D03*
X81280000Y-21844000D03*
X81280000Y-24384000D03*
X81280000Y-26924000D03*
X81280000Y-29464000D03*
X81280000Y-32004000D03*
X81280000Y-34544000D03*
%TD*%
D12*
%TO.C,D2*%
X186436000Y-151892000D03*
D13*
X181356000Y-151892000D03*
%TD*%
D12*
%TO.C,D1*%
X186436000Y-158496000D03*
D13*
X181356000Y-158496000D03*
%TD*%
D14*
%TO.C,C1*%
X130556000Y-147494000D03*
D15*
X130556000Y-142494000D03*
%TD*%
%TO.C,C2*%
X158496000Y-142748000D03*
D14*
X158496000Y-147748000D03*
%TD*%
%TO.C,C3*%
X116586000Y-147494000D03*
D15*
X116586000Y-142494000D03*
%TD*%
%TO.C,C4*%
X144272000Y-142748000D03*
D14*
X144272000Y-147748000D03*
%TD*%
D16*
%TO.C,C16*%
X162814000Y-168870000D03*
D17*
X162814000Y-166370000D03*
%TD*%
%TO.C,C17*%
X96774000Y-68126242D03*
D16*
X96774000Y-70626242D03*
%TD*%
D17*
%TO.C,C31*%
X96774000Y-59944000D03*
D16*
X96774000Y-62444000D03*
%TD*%
%TO.C,C32*%
X190246000Y-168696000D03*
D17*
X190246000Y-171196000D03*
%TD*%
D18*
%TO.C,Conn1*%
X113131000Y-4966000D03*
X113131000Y-12866000D03*
%TD*%
%TO.C,Conn2*%
X221983000Y-142214000D03*
X214083000Y-142214000D03*
%TD*%
%TO.C,Conn3*%
X130657000Y-13120000D03*
X130657000Y-5220000D03*
%TD*%
%TO.C,Conn4*%
X214591000Y-120624000D03*
X222491000Y-120624000D03*
%TD*%
%TO.C,Conn7*%
X157988000Y-5842000D03*
X157988000Y-13742000D03*
%TD*%
%TO.C,Conn8*%
X222491000Y-76936000D03*
X214591000Y-76936000D03*
%TD*%
%TO.C,Conn9*%
X174498000Y-13247000D03*
X174498000Y-5347000D03*
%TD*%
%TO.C,Conn10*%
X193522000Y-13501000D03*
X193522000Y-5601000D03*
%TD*%
%TO.C,Conn11*%
X214845000Y-99288000D03*
X222745000Y-99288000D03*
%TD*%
%TO.C,Conn12*%
X222491000Y-54584000D03*
X214591000Y-54584000D03*
%TD*%
D19*
%TO.C,F1*%
X124587000Y-54102000D03*
X121158000Y-54102000D03*
X121158000Y-40640000D03*
X124587000Y-40640000D03*
%TD*%
%TO.C,F2*%
X138557000Y-40132000D03*
X135128000Y-40132000D03*
X135128000Y-53594000D03*
X138557000Y-53594000D03*
%TD*%
%TO.C,F3*%
X106045000Y-40513000D03*
X102616000Y-40513000D03*
X102616000Y-53975000D03*
X106045000Y-53975000D03*
%TD*%
%TO.C,F4*%
X154559000Y-53086000D03*
X151130000Y-53086000D03*
X151130000Y-39624000D03*
X154559000Y-39624000D03*
%TD*%
%TO.C,F5*%
X181356000Y-49657000D03*
X181356000Y-46228000D03*
X194818000Y-46228000D03*
X194818000Y-49657000D03*
%TD*%
%TO.C,F6*%
X194564000Y-116967000D03*
X194564000Y-113538000D03*
X181102000Y-113538000D03*
X181102000Y-116967000D03*
%TD*%
%TO.C,F7*%
X195326000Y-73279000D03*
X195326000Y-69850000D03*
X181864000Y-69850000D03*
X181864000Y-73279000D03*
%TD*%
%TO.C,F8*%
X194564000Y-138303000D03*
X194564000Y-134874000D03*
X181102000Y-134874000D03*
X181102000Y-138303000D03*
%TD*%
%TO.C,F9*%
X168783000Y-53086000D03*
X165354000Y-53086000D03*
X165354000Y-39624000D03*
X168783000Y-39624000D03*
%TD*%
%TO.C,F10*%
X181610000Y-94615000D03*
X181610000Y-91186000D03*
X195072000Y-91186000D03*
X195072000Y-94615000D03*
%TD*%
D20*
%TO.C,GND1*%
X204978000Y-162306000D03*
%TD*%
D11*
%TO.C,U12*%
X96012000Y-41402000D03*
X93472000Y-41402000D03*
X90932000Y-41402000D03*
%TD*%
%TO.C,U13*%
X182626000Y-166116000D03*
X182626000Y-168656000D03*
X182626000Y-171196000D03*
%TD*%
D20*
%TO.C,V1*%
X104140000Y-162560000D03*
%TD*%
M02*
