%TF.GenerationSoftware,KiCad,Pcbnew,(5.1.6)-1*%
%TF.CreationDate,2020-12-14T15:31:43-06:00*%
%TF.ProjectId,PackVoltage_2021_Rev1,5061636b-566f-46c7-9461-67655f323032,rev?*%
%TF.SameCoordinates,Original*%
%TF.FileFunction,Soldermask,Top*%
%TF.FilePolarity,Negative*%
%FSLAX46Y46*%
G04 Gerber Fmt 4.6, Leading zero omitted, Abs format (unit mm)*
G04 Created by KiCad (PCBNEW (5.1.6)-1) date 2020-12-14 15:31:43*
%MOMM*%
%LPD*%
G01*
G04 APERTURE LIST*
%ADD10C,3.046400*%
%ADD11C,1.624000*%
%ADD12R,1.090600X1.878000*%
%ADD13R,0.750000X1.660000*%
%ADD14C,0.100000*%
%ADD15R,0.840000X1.290000*%
%ADD16R,1.650000X0.700000*%
%ADD17R,1.660000X0.750000*%
%ADD18O,3.300000X3.300000*%
%ADD19R,3.300000X3.300000*%
%ADD20R,0.700000X1.650000*%
%ADD21C,2.500000*%
%ADD22R,2.500000X2.500000*%
%ADD23C,1.700000*%
%ADD24R,1.700000X1.700000*%
%ADD25C,5.180000*%
%ADD26C,2.919400*%
%ADD27C,18.388000*%
%ADD28R,2.600000X2.600000*%
G04 APERTURE END LIST*
D10*
%TO.C,REF\u002A\u002A*%
X80208120Y-173791880D03*
%TD*%
%TO.C,REF\u002A\u002A*%
X224591880Y-173791880D03*
%TD*%
%TO.C,REF\u002A\u002A*%
X224591880Y-4008120D03*
%TD*%
%TO.C,REF\u002A\u002A*%
X80208120Y-4008120D03*
%TD*%
D11*
%TO.C,Conn6*%
X92964000Y-24384000D03*
X92964000Y-26924000D03*
X92964000Y-29464000D03*
X92964000Y-32004000D03*
X92964000Y-34544000D03*
%TD*%
%TO.C,Conn5*%
X81280000Y-11684000D03*
X81280000Y-14224000D03*
X81280000Y-16764000D03*
X81280000Y-19304000D03*
X81280000Y-21844000D03*
X81280000Y-24384000D03*
X81280000Y-26924000D03*
X81280000Y-29464000D03*
X81280000Y-32004000D03*
X81280000Y-34544000D03*
%TD*%
%TO.C,R8*%
G36*
G01*
X151883500Y-21015000D02*
X152408500Y-21015000D01*
G75*
G02*
X152671000Y-21277500I0J-262500D01*
G01*
X152671000Y-21902500D01*
G75*
G02*
X152408500Y-22165000I-262500J0D01*
G01*
X151883500Y-22165000D01*
G75*
G02*
X151621000Y-21902500I0J262500D01*
G01*
X151621000Y-21277500D01*
G75*
G02*
X151883500Y-21015000I262500J0D01*
G01*
G37*
G36*
G01*
X151883500Y-19265000D02*
X152408500Y-19265000D01*
G75*
G02*
X152671000Y-19527500I0J-262500D01*
G01*
X152671000Y-20152500D01*
G75*
G02*
X152408500Y-20415000I-262500J0D01*
G01*
X151883500Y-20415000D01*
G75*
G02*
X151621000Y-20152500I0J262500D01*
G01*
X151621000Y-19527500D01*
G75*
G02*
X151883500Y-19265000I262500J0D01*
G01*
G37*
%TD*%
%TO.C,R9*%
G36*
G01*
X100846500Y-22814000D02*
X100321500Y-22814000D01*
G75*
G02*
X100059000Y-22551500I0J262500D01*
G01*
X100059000Y-21926500D01*
G75*
G02*
X100321500Y-21664000I262500J0D01*
G01*
X100846500Y-21664000D01*
G75*
G02*
X101109000Y-21926500I0J-262500D01*
G01*
X101109000Y-22551500D01*
G75*
G02*
X100846500Y-22814000I-262500J0D01*
G01*
G37*
G36*
G01*
X100846500Y-24564000D02*
X100321500Y-24564000D01*
G75*
G02*
X100059000Y-24301500I0J262500D01*
G01*
X100059000Y-23676500D01*
G75*
G02*
X100321500Y-23414000I262500J0D01*
G01*
X100846500Y-23414000D01*
G75*
G02*
X101109000Y-23676500I0J-262500D01*
G01*
X101109000Y-24301500D01*
G75*
G02*
X100846500Y-24564000I-262500J0D01*
G01*
G37*
%TD*%
%TO.C,R7*%
G36*
G01*
X118372500Y-22814000D02*
X117847500Y-22814000D01*
G75*
G02*
X117585000Y-22551500I0J262500D01*
G01*
X117585000Y-21926500D01*
G75*
G02*
X117847500Y-21664000I262500J0D01*
G01*
X118372500Y-21664000D01*
G75*
G02*
X118635000Y-21926500I0J-262500D01*
G01*
X118635000Y-22551500D01*
G75*
G02*
X118372500Y-22814000I-262500J0D01*
G01*
G37*
G36*
G01*
X118372500Y-24564000D02*
X117847500Y-24564000D01*
G75*
G02*
X117585000Y-24301500I0J262500D01*
G01*
X117585000Y-23676500D01*
G75*
G02*
X117847500Y-23414000I262500J0D01*
G01*
X118372500Y-23414000D01*
G75*
G02*
X118635000Y-23676500I0J-262500D01*
G01*
X118635000Y-24301500D01*
G75*
G02*
X118372500Y-24564000I-262500J0D01*
G01*
G37*
%TD*%
%TO.C,R3*%
G36*
G01*
X116340500Y-32974000D02*
X115815500Y-32974000D01*
G75*
G02*
X115553000Y-32711500I0J262500D01*
G01*
X115553000Y-32086500D01*
G75*
G02*
X115815500Y-31824000I262500J0D01*
G01*
X116340500Y-31824000D01*
G75*
G02*
X116603000Y-32086500I0J-262500D01*
G01*
X116603000Y-32711500D01*
G75*
G02*
X116340500Y-32974000I-262500J0D01*
G01*
G37*
G36*
G01*
X116340500Y-34724000D02*
X115815500Y-34724000D01*
G75*
G02*
X115553000Y-34461500I0J262500D01*
G01*
X115553000Y-33836500D01*
G75*
G02*
X115815500Y-33574000I262500J0D01*
G01*
X116340500Y-33574000D01*
G75*
G02*
X116603000Y-33836500I0J-262500D01*
G01*
X116603000Y-34461500D01*
G75*
G02*
X116340500Y-34724000I-262500J0D01*
G01*
G37*
%TD*%
%TO.C,R1*%
G36*
G01*
X134158000Y-30742500D02*
X134158000Y-30217500D01*
G75*
G02*
X134420500Y-29955000I262500J0D01*
G01*
X135045500Y-29955000D01*
G75*
G02*
X135308000Y-30217500I0J-262500D01*
G01*
X135308000Y-30742500D01*
G75*
G02*
X135045500Y-31005000I-262500J0D01*
G01*
X134420500Y-31005000D01*
G75*
G02*
X134158000Y-30742500I0J262500D01*
G01*
G37*
G36*
G01*
X132408000Y-30742500D02*
X132408000Y-30217500D01*
G75*
G02*
X132670500Y-29955000I262500J0D01*
G01*
X133295500Y-29955000D01*
G75*
G02*
X133558000Y-30217500I0J-262500D01*
G01*
X133558000Y-30742500D01*
G75*
G02*
X133295500Y-31005000I-262500J0D01*
G01*
X132670500Y-31005000D01*
G75*
G02*
X132408000Y-30742500I0J262500D01*
G01*
G37*
%TD*%
%TO.C,D4*%
G36*
G01*
X153661500Y-21001000D02*
X154186500Y-21001000D01*
G75*
G02*
X154449000Y-21263500I0J-262500D01*
G01*
X154449000Y-21888500D01*
G75*
G02*
X154186500Y-22151000I-262500J0D01*
G01*
X153661500Y-22151000D01*
G75*
G02*
X153399000Y-21888500I0J262500D01*
G01*
X153399000Y-21263500D01*
G75*
G02*
X153661500Y-21001000I262500J0D01*
G01*
G37*
G36*
G01*
X153661500Y-19251000D02*
X154186500Y-19251000D01*
G75*
G02*
X154449000Y-19513500I0J-262500D01*
G01*
X154449000Y-20138500D01*
G75*
G02*
X154186500Y-20401000I-262500J0D01*
G01*
X153661500Y-20401000D01*
G75*
G02*
X153399000Y-20138500I0J262500D01*
G01*
X153399000Y-19513500D01*
G75*
G02*
X153661500Y-19251000I262500J0D01*
G01*
G37*
%TD*%
%TO.C,D5*%
G36*
G01*
X100321500Y-19858000D02*
X100846500Y-19858000D01*
G75*
G02*
X101109000Y-20120500I0J-262500D01*
G01*
X101109000Y-20745500D01*
G75*
G02*
X100846500Y-21008000I-262500J0D01*
G01*
X100321500Y-21008000D01*
G75*
G02*
X100059000Y-20745500I0J262500D01*
G01*
X100059000Y-20120500D01*
G75*
G02*
X100321500Y-19858000I262500J0D01*
G01*
G37*
G36*
G01*
X100321500Y-18108000D02*
X100846500Y-18108000D01*
G75*
G02*
X101109000Y-18370500I0J-262500D01*
G01*
X101109000Y-18995500D01*
G75*
G02*
X100846500Y-19258000I-262500J0D01*
G01*
X100321500Y-19258000D01*
G75*
G02*
X100059000Y-18995500I0J262500D01*
G01*
X100059000Y-18370500D01*
G75*
G02*
X100321500Y-18108000I262500J0D01*
G01*
G37*
%TD*%
%TO.C,D3*%
G36*
G01*
X117847500Y-19858000D02*
X118372500Y-19858000D01*
G75*
G02*
X118635000Y-20120500I0J-262500D01*
G01*
X118635000Y-20745500D01*
G75*
G02*
X118372500Y-21008000I-262500J0D01*
G01*
X117847500Y-21008000D01*
G75*
G02*
X117585000Y-20745500I0J262500D01*
G01*
X117585000Y-20120500D01*
G75*
G02*
X117847500Y-19858000I262500J0D01*
G01*
G37*
G36*
G01*
X117847500Y-18108000D02*
X118372500Y-18108000D01*
G75*
G02*
X118635000Y-18370500I0J-262500D01*
G01*
X118635000Y-18995500D01*
G75*
G02*
X118372500Y-19258000I-262500J0D01*
G01*
X117847500Y-19258000D01*
G75*
G02*
X117585000Y-18995500I0J262500D01*
G01*
X117585000Y-18370500D01*
G75*
G02*
X117847500Y-18108000I262500J0D01*
G01*
G37*
%TD*%
%TO.C,C7*%
G36*
G01*
X115815500Y-38908000D02*
X116340500Y-38908000D01*
G75*
G02*
X116603000Y-39170500I0J-262500D01*
G01*
X116603000Y-39795500D01*
G75*
G02*
X116340500Y-40058000I-262500J0D01*
G01*
X115815500Y-40058000D01*
G75*
G02*
X115553000Y-39795500I0J262500D01*
G01*
X115553000Y-39170500D01*
G75*
G02*
X115815500Y-38908000I262500J0D01*
G01*
G37*
G36*
G01*
X115815500Y-37158000D02*
X116340500Y-37158000D01*
G75*
G02*
X116603000Y-37420500I0J-262500D01*
G01*
X116603000Y-38045500D01*
G75*
G02*
X116340500Y-38308000I-262500J0D01*
G01*
X115815500Y-38308000D01*
G75*
G02*
X115553000Y-38045500I0J262500D01*
G01*
X115553000Y-37420500D01*
G75*
G02*
X115815500Y-37158000I262500J0D01*
G01*
G37*
%TD*%
%TO.C,C5*%
G36*
G01*
X133866500Y-33228000D02*
X133341500Y-33228000D01*
G75*
G02*
X133079000Y-32965500I0J262500D01*
G01*
X133079000Y-32340500D01*
G75*
G02*
X133341500Y-32078000I262500J0D01*
G01*
X133866500Y-32078000D01*
G75*
G02*
X134129000Y-32340500I0J-262500D01*
G01*
X134129000Y-32965500D01*
G75*
G02*
X133866500Y-33228000I-262500J0D01*
G01*
G37*
G36*
G01*
X133866500Y-34978000D02*
X133341500Y-34978000D01*
G75*
G02*
X133079000Y-34715500I0J262500D01*
G01*
X133079000Y-34090500D01*
G75*
G02*
X133341500Y-33828000I262500J0D01*
G01*
X133866500Y-33828000D01*
G75*
G02*
X134129000Y-34090500I0J-262500D01*
G01*
X134129000Y-34715500D01*
G75*
G02*
X133866500Y-34978000I-262500J0D01*
G01*
G37*
%TD*%
D12*
%TO.C,U24*%
X152400000Y-130200400D03*
X154940000Y-130200400D03*
X157480000Y-130200400D03*
X160020000Y-130200400D03*
X162560000Y-130200400D03*
X165100000Y-130200400D03*
X167640000Y-130200400D03*
X170180000Y-130200400D03*
X172720000Y-130200400D03*
X175260000Y-130200400D03*
X152400000Y-124307600D03*
X154940000Y-124307600D03*
X157480000Y-124307600D03*
X160020000Y-124307600D03*
X162560000Y-124307600D03*
X165100000Y-124307600D03*
X167640000Y-124307600D03*
X170180000Y-124307600D03*
X172720000Y-124307600D03*
X175260000Y-124307600D03*
X152400000Y-81127600D03*
X154940000Y-81127600D03*
X157480000Y-81127600D03*
X160020000Y-81127600D03*
X162560000Y-81127600D03*
X165100000Y-81127600D03*
X167640000Y-81127600D03*
X170180000Y-81127600D03*
X172720000Y-81127600D03*
X175260000Y-81127600D03*
X152400000Y-87020400D03*
X154940000Y-87020400D03*
X157480000Y-87020400D03*
X160020000Y-87020400D03*
X162560000Y-87020400D03*
X165100000Y-87020400D03*
X167640000Y-87020400D03*
X170180000Y-87020400D03*
X172720000Y-87020400D03*
X175260000Y-87020400D03*
X106680000Y-130200400D03*
X109220000Y-130200400D03*
X111760000Y-130200400D03*
X88900000Y-124307600D03*
X91440000Y-124307600D03*
X93980000Y-124307600D03*
X96520000Y-124307600D03*
X99060000Y-124307600D03*
X101600000Y-124307600D03*
X104140000Y-124307600D03*
X106680000Y-124307600D03*
X109220000Y-124307600D03*
X111760000Y-124307600D03*
X88900000Y-81127600D03*
X93980000Y-81127600D03*
X99060000Y-81127600D03*
X101600000Y-81127600D03*
X104140000Y-81127600D03*
X106680000Y-81127600D03*
X109220000Y-81127600D03*
X88900000Y-87020400D03*
X93980000Y-87020400D03*
X104140000Y-87020400D03*
X106680000Y-87020400D03*
X109220000Y-87020400D03*
X111760000Y-87020400D03*
X99060000Y-87020400D03*
X96520000Y-87020400D03*
X91440000Y-81127600D03*
X104140000Y-130200400D03*
X101600000Y-130200400D03*
X91440000Y-87020400D03*
X96520000Y-81127600D03*
X93980000Y-130200400D03*
X96520000Y-130200400D03*
X101600000Y-87020400D03*
X99060000Y-130200400D03*
X91440000Y-130200400D03*
X88900000Y-130200400D03*
X111760000Y-81127600D03*
%TD*%
D13*
%TO.C,U6*%
X104841000Y-19638000D03*
X105791000Y-19638000D03*
X106741000Y-19638000D03*
X106741000Y-16938000D03*
X104841000Y-16938000D03*
%TD*%
D14*
%TO.C,Q3*%
G36*
X102864345Y-23427344D02*
G01*
X102868328Y-23414212D01*
X102874797Y-23402110D01*
X102883503Y-23391503D01*
X102894110Y-23382797D01*
X102906212Y-23376328D01*
X102919344Y-23372345D01*
X102933000Y-23371000D01*
X107633000Y-23371000D01*
X107646656Y-23372345D01*
X107659788Y-23376328D01*
X107671890Y-23382797D01*
X107682497Y-23391503D01*
X107691203Y-23402110D01*
X107697672Y-23414212D01*
X107701655Y-23427344D01*
X107703000Y-23441000D01*
X107703000Y-24991000D01*
X107701655Y-25004656D01*
X107697672Y-25017788D01*
X107691203Y-25029890D01*
X107682497Y-25040497D01*
X107671890Y-25049203D01*
X107659788Y-25055672D01*
X107646656Y-25059655D01*
X107633000Y-25061000D01*
X107453000Y-25061000D01*
X107453000Y-28066000D01*
X107451655Y-28079656D01*
X107447672Y-28092788D01*
X107441203Y-28104890D01*
X107432497Y-28115497D01*
X107421890Y-28124203D01*
X107409788Y-28130672D01*
X107396656Y-28134655D01*
X107383000Y-28136000D01*
X103183000Y-28136000D01*
X103169344Y-28134655D01*
X103156212Y-28130672D01*
X103144110Y-28124203D01*
X103133503Y-28115497D01*
X103124797Y-28104890D01*
X103118328Y-28092788D01*
X103114345Y-28079656D01*
X103113000Y-28066000D01*
X103113000Y-25061000D01*
X102933000Y-25061000D01*
X102919344Y-25059655D01*
X102906212Y-25055672D01*
X102894110Y-25049203D01*
X102883503Y-25040497D01*
X102874797Y-25029890D01*
X102868328Y-25017788D01*
X102864345Y-25004656D01*
X102863000Y-24991000D01*
X102863000Y-23441000D01*
X102864345Y-23427344D01*
G37*
D15*
X107193000Y-29686000D03*
X105923000Y-29686000D03*
X103373000Y-29686000D03*
X104643000Y-29686000D03*
%TD*%
D16*
%TO.C,U3*%
X107823000Y-35560000D03*
X107823000Y-33020000D03*
X107823000Y-31750000D03*
X113223000Y-31750000D03*
X113223000Y-33020000D03*
X113223000Y-34290000D03*
X113223000Y-35560000D03*
%TD*%
%TO.C,C10*%
G36*
G01*
X108532000Y-39124500D02*
X108532000Y-38599500D01*
G75*
G02*
X108794500Y-38337000I262500J0D01*
G01*
X109419500Y-38337000D01*
G75*
G02*
X109682000Y-38599500I0J-262500D01*
G01*
X109682000Y-39124500D01*
G75*
G02*
X109419500Y-39387000I-262500J0D01*
G01*
X108794500Y-39387000D01*
G75*
G02*
X108532000Y-39124500I0J262500D01*
G01*
G37*
G36*
G01*
X110282000Y-39124500D02*
X110282000Y-38599500D01*
G75*
G02*
X110544500Y-38337000I262500J0D01*
G01*
X111169500Y-38337000D01*
G75*
G02*
X111432000Y-38599500I0J-262500D01*
G01*
X111432000Y-39124500D01*
G75*
G02*
X111169500Y-39387000I-262500J0D01*
G01*
X110544500Y-39387000D01*
G75*
G02*
X110282000Y-39124500I0J262500D01*
G01*
G37*
%TD*%
%TO.C,R6*%
G36*
G01*
X114234608Y-25136000D02*
X111317392Y-25136000D01*
G75*
G02*
X111051000Y-24869608I0J266392D01*
G01*
X111051000Y-23777392D01*
G75*
G02*
X111317392Y-23511000I266392J0D01*
G01*
X114234608Y-23511000D01*
G75*
G02*
X114501000Y-23777392I0J-266392D01*
G01*
X114501000Y-24869608D01*
G75*
G02*
X114234608Y-25136000I-266392J0D01*
G01*
G37*
G36*
G01*
X114234608Y-19161000D02*
X111317392Y-19161000D01*
G75*
G02*
X111051000Y-18894608I0J266392D01*
G01*
X111051000Y-17802392D01*
G75*
G02*
X111317392Y-17536000I266392J0D01*
G01*
X114234608Y-17536000D01*
G75*
G02*
X114501000Y-17802392I0J-266392D01*
G01*
X114501000Y-18894608D01*
G75*
G02*
X114234608Y-19161000I-266392J0D01*
G01*
G37*
%TD*%
%TO.C,R4*%
G36*
G01*
X131633608Y-19288000D02*
X128716392Y-19288000D01*
G75*
G02*
X128450000Y-19021608I0J266392D01*
G01*
X128450000Y-17929392D01*
G75*
G02*
X128716392Y-17663000I266392J0D01*
G01*
X131633608Y-17663000D01*
G75*
G02*
X131900000Y-17929392I0J-266392D01*
G01*
X131900000Y-19021608D01*
G75*
G02*
X131633608Y-19288000I-266392J0D01*
G01*
G37*
G36*
G01*
X131633608Y-25263000D02*
X128716392Y-25263000D01*
G75*
G02*
X128450000Y-24996608I0J266392D01*
G01*
X128450000Y-23904392D01*
G75*
G02*
X128716392Y-23638000I266392J0D01*
G01*
X131633608Y-23638000D01*
G75*
G02*
X131900000Y-23904392I0J-266392D01*
G01*
X131900000Y-24996608D01*
G75*
G02*
X131633608Y-25263000I-266392J0D01*
G01*
G37*
%TD*%
%TO.C,U1*%
X130622000Y-35687000D03*
X130622000Y-34417000D03*
X130622000Y-33147000D03*
X130622000Y-31877000D03*
X125222000Y-31877000D03*
X125222000Y-33147000D03*
X125222000Y-35687000D03*
%TD*%
%TO.C,C8*%
G36*
G01*
X117302000Y-41139500D02*
X117302000Y-41664500D01*
G75*
G02*
X117039500Y-41927000I-262500J0D01*
G01*
X116414500Y-41927000D01*
G75*
G02*
X116152000Y-41664500I0J262500D01*
G01*
X116152000Y-41139500D01*
G75*
G02*
X116414500Y-40877000I262500J0D01*
G01*
X117039500Y-40877000D01*
G75*
G02*
X117302000Y-41139500I0J-262500D01*
G01*
G37*
G36*
G01*
X119052000Y-41139500D02*
X119052000Y-41664500D01*
G75*
G02*
X118789500Y-41927000I-262500J0D01*
G01*
X118164500Y-41927000D01*
G75*
G02*
X117902000Y-41664500I0J262500D01*
G01*
X117902000Y-41139500D01*
G75*
G02*
X118164500Y-40877000I262500J0D01*
G01*
X118789500Y-40877000D01*
G75*
G02*
X119052000Y-41139500I0J-262500D01*
G01*
G37*
%TD*%
D13*
%TO.C,U4*%
X122240000Y-17065000D03*
X124140000Y-17065000D03*
X124140000Y-19765000D03*
X123190000Y-19765000D03*
X122240000Y-19765000D03*
%TD*%
D15*
%TO.C,Q1*%
X122042000Y-29813000D03*
X120772000Y-29813000D03*
X123322000Y-29813000D03*
X124592000Y-29813000D03*
D14*
G36*
X120263345Y-23554344D02*
G01*
X120267328Y-23541212D01*
X120273797Y-23529110D01*
X120282503Y-23518503D01*
X120293110Y-23509797D01*
X120305212Y-23503328D01*
X120318344Y-23499345D01*
X120332000Y-23498000D01*
X125032000Y-23498000D01*
X125045656Y-23499345D01*
X125058788Y-23503328D01*
X125070890Y-23509797D01*
X125081497Y-23518503D01*
X125090203Y-23529110D01*
X125096672Y-23541212D01*
X125100655Y-23554344D01*
X125102000Y-23568000D01*
X125102000Y-25118000D01*
X125100655Y-25131656D01*
X125096672Y-25144788D01*
X125090203Y-25156890D01*
X125081497Y-25167497D01*
X125070890Y-25176203D01*
X125058788Y-25182672D01*
X125045656Y-25186655D01*
X125032000Y-25188000D01*
X124852000Y-25188000D01*
X124852000Y-28193000D01*
X124850655Y-28206656D01*
X124846672Y-28219788D01*
X124840203Y-28231890D01*
X124831497Y-28242497D01*
X124820890Y-28251203D01*
X124808788Y-28257672D01*
X124795656Y-28261655D01*
X124782000Y-28263000D01*
X120582000Y-28263000D01*
X120568344Y-28261655D01*
X120555212Y-28257672D01*
X120543110Y-28251203D01*
X120532503Y-28242497D01*
X120523797Y-28231890D01*
X120517328Y-28219788D01*
X120513345Y-28206656D01*
X120512000Y-28193000D01*
X120512000Y-25188000D01*
X120332000Y-25188000D01*
X120318344Y-25186655D01*
X120305212Y-25182672D01*
X120293110Y-25176203D01*
X120282503Y-25167497D01*
X120273797Y-25156890D01*
X120267328Y-25144788D01*
X120263345Y-25131656D01*
X120262000Y-25118000D01*
X120262000Y-23568000D01*
X120263345Y-23554344D01*
G37*
%TD*%
D13*
%TO.C,U5*%
X141036000Y-16082000D03*
X141986000Y-16082000D03*
X142936000Y-16082000D03*
X142936000Y-13382000D03*
X141036000Y-13382000D03*
%TD*%
%TO.C,R2*%
G36*
G01*
X152027500Y-27894000D02*
X151502500Y-27894000D01*
G75*
G02*
X151240000Y-27631500I0J262500D01*
G01*
X151240000Y-27006500D01*
G75*
G02*
X151502500Y-26744000I262500J0D01*
G01*
X152027500Y-26744000D01*
G75*
G02*
X152290000Y-27006500I0J-262500D01*
G01*
X152290000Y-27631500D01*
G75*
G02*
X152027500Y-27894000I-262500J0D01*
G01*
G37*
G36*
G01*
X152027500Y-29644000D02*
X151502500Y-29644000D01*
G75*
G02*
X151240000Y-29381500I0J262500D01*
G01*
X151240000Y-28756500D01*
G75*
G02*
X151502500Y-28494000I262500J0D01*
G01*
X152027500Y-28494000D01*
G75*
G02*
X152290000Y-28756500I0J-262500D01*
G01*
X152290000Y-29381500D01*
G75*
G02*
X152027500Y-29644000I-262500J0D01*
G01*
G37*
%TD*%
D16*
%TO.C,U2*%
X144018000Y-32004000D03*
X144018000Y-29464000D03*
X144018000Y-28194000D03*
X149418000Y-28194000D03*
X149418000Y-29464000D03*
X149418000Y-30734000D03*
X149418000Y-32004000D03*
%TD*%
%TO.C,C9*%
G36*
G01*
X137848000Y-34154500D02*
X137848000Y-34679500D01*
G75*
G02*
X137585500Y-34942000I-262500J0D01*
G01*
X136960500Y-34942000D01*
G75*
G02*
X136698000Y-34679500I0J262500D01*
G01*
X136698000Y-34154500D01*
G75*
G02*
X136960500Y-33892000I262500J0D01*
G01*
X137585500Y-33892000D01*
G75*
G02*
X137848000Y-34154500I0J-262500D01*
G01*
G37*
G36*
G01*
X136098000Y-34154500D02*
X136098000Y-34679500D01*
G75*
G02*
X135835500Y-34942000I-262500J0D01*
G01*
X135210500Y-34942000D01*
G75*
G02*
X134948000Y-34679500I0J262500D01*
G01*
X134948000Y-34154500D01*
G75*
G02*
X135210500Y-33892000I262500J0D01*
G01*
X135835500Y-33892000D01*
G75*
G02*
X136098000Y-34154500I0J-262500D01*
G01*
G37*
%TD*%
%TO.C,C6*%
G36*
G01*
X151502500Y-32304000D02*
X152027500Y-32304000D01*
G75*
G02*
X152290000Y-32566500I0J-262500D01*
G01*
X152290000Y-33191500D01*
G75*
G02*
X152027500Y-33454000I-262500J0D01*
G01*
X151502500Y-33454000D01*
G75*
G02*
X151240000Y-33191500I0J262500D01*
G01*
X151240000Y-32566500D01*
G75*
G02*
X151502500Y-32304000I262500J0D01*
G01*
G37*
G36*
G01*
X151502500Y-30554000D02*
X152027500Y-30554000D01*
G75*
G02*
X152290000Y-30816500I0J-262500D01*
G01*
X152290000Y-31441500D01*
G75*
G02*
X152027500Y-31704000I-262500J0D01*
G01*
X151502500Y-31704000D01*
G75*
G02*
X151240000Y-31441500I0J262500D01*
G01*
X151240000Y-30816500D01*
G75*
G02*
X151502500Y-30554000I262500J0D01*
G01*
G37*
%TD*%
%TO.C,R5*%
G36*
G01*
X150429608Y-21580000D02*
X147512392Y-21580000D01*
G75*
G02*
X147246000Y-21313608I0J266392D01*
G01*
X147246000Y-20221392D01*
G75*
G02*
X147512392Y-19955000I266392J0D01*
G01*
X150429608Y-19955000D01*
G75*
G02*
X150696000Y-20221392I0J-266392D01*
G01*
X150696000Y-21313608D01*
G75*
G02*
X150429608Y-21580000I-266392J0D01*
G01*
G37*
G36*
G01*
X150429608Y-15605000D02*
X147512392Y-15605000D01*
G75*
G02*
X147246000Y-15338608I0J266392D01*
G01*
X147246000Y-14246392D01*
G75*
G02*
X147512392Y-13980000I266392J0D01*
G01*
X150429608Y-13980000D01*
G75*
G02*
X150696000Y-14246392I0J-266392D01*
G01*
X150696000Y-15338608D01*
G75*
G02*
X150429608Y-15605000I-266392J0D01*
G01*
G37*
%TD*%
D14*
%TO.C,Q2*%
G36*
X139059345Y-19871344D02*
G01*
X139063328Y-19858212D01*
X139069797Y-19846110D01*
X139078503Y-19835503D01*
X139089110Y-19826797D01*
X139101212Y-19820328D01*
X139114344Y-19816345D01*
X139128000Y-19815000D01*
X143828000Y-19815000D01*
X143841656Y-19816345D01*
X143854788Y-19820328D01*
X143866890Y-19826797D01*
X143877497Y-19835503D01*
X143886203Y-19846110D01*
X143892672Y-19858212D01*
X143896655Y-19871344D01*
X143898000Y-19885000D01*
X143898000Y-21435000D01*
X143896655Y-21448656D01*
X143892672Y-21461788D01*
X143886203Y-21473890D01*
X143877497Y-21484497D01*
X143866890Y-21493203D01*
X143854788Y-21499672D01*
X143841656Y-21503655D01*
X143828000Y-21505000D01*
X143648000Y-21505000D01*
X143648000Y-24510000D01*
X143646655Y-24523656D01*
X143642672Y-24536788D01*
X143636203Y-24548890D01*
X143627497Y-24559497D01*
X143616890Y-24568203D01*
X143604788Y-24574672D01*
X143591656Y-24578655D01*
X143578000Y-24580000D01*
X139378000Y-24580000D01*
X139364344Y-24578655D01*
X139351212Y-24574672D01*
X139339110Y-24568203D01*
X139328503Y-24559497D01*
X139319797Y-24548890D01*
X139313328Y-24536788D01*
X139309345Y-24523656D01*
X139308000Y-24510000D01*
X139308000Y-21505000D01*
X139128000Y-21505000D01*
X139114344Y-21503655D01*
X139101212Y-21499672D01*
X139089110Y-21493203D01*
X139078503Y-21484497D01*
X139069797Y-21473890D01*
X139063328Y-21461788D01*
X139059345Y-21448656D01*
X139058000Y-21435000D01*
X139058000Y-19885000D01*
X139059345Y-19871344D01*
G37*
D15*
X143388000Y-26130000D03*
X142118000Y-26130000D03*
X139568000Y-26130000D03*
X140838000Y-26130000D03*
%TD*%
%TO.C,Q4*%
X157348000Y-25114000D03*
X156078000Y-25114000D03*
X158628000Y-25114000D03*
X159898000Y-25114000D03*
D14*
G36*
X155569345Y-18855344D02*
G01*
X155573328Y-18842212D01*
X155579797Y-18830110D01*
X155588503Y-18819503D01*
X155599110Y-18810797D01*
X155611212Y-18804328D01*
X155624344Y-18800345D01*
X155638000Y-18799000D01*
X160338000Y-18799000D01*
X160351656Y-18800345D01*
X160364788Y-18804328D01*
X160376890Y-18810797D01*
X160387497Y-18819503D01*
X160396203Y-18830110D01*
X160402672Y-18842212D01*
X160406655Y-18855344D01*
X160408000Y-18869000D01*
X160408000Y-20419000D01*
X160406655Y-20432656D01*
X160402672Y-20445788D01*
X160396203Y-20457890D01*
X160387497Y-20468497D01*
X160376890Y-20477203D01*
X160364788Y-20483672D01*
X160351656Y-20487655D01*
X160338000Y-20489000D01*
X160158000Y-20489000D01*
X160158000Y-23494000D01*
X160156655Y-23507656D01*
X160152672Y-23520788D01*
X160146203Y-23532890D01*
X160137497Y-23543497D01*
X160126890Y-23552203D01*
X160114788Y-23558672D01*
X160101656Y-23562655D01*
X160088000Y-23564000D01*
X155888000Y-23564000D01*
X155874344Y-23562655D01*
X155861212Y-23558672D01*
X155849110Y-23552203D01*
X155838503Y-23543497D01*
X155829797Y-23532890D01*
X155823328Y-23520788D01*
X155819345Y-23507656D01*
X155818000Y-23494000D01*
X155818000Y-20489000D01*
X155638000Y-20489000D01*
X155624344Y-20487655D01*
X155611212Y-20483672D01*
X155599110Y-20477203D01*
X155588503Y-20468497D01*
X155579797Y-20457890D01*
X155573328Y-20445788D01*
X155569345Y-20432656D01*
X155568000Y-20419000D01*
X155568000Y-18869000D01*
X155569345Y-18855344D01*
G37*
%TD*%
%TO.C,D6*%
G36*
G01*
X183822000Y-21073500D02*
X183822000Y-21598500D01*
G75*
G02*
X183559500Y-21861000I-262500J0D01*
G01*
X182934500Y-21861000D01*
G75*
G02*
X182672000Y-21598500I0J262500D01*
G01*
X182672000Y-21073500D01*
G75*
G02*
X182934500Y-20811000I262500J0D01*
G01*
X183559500Y-20811000D01*
G75*
G02*
X183822000Y-21073500I0J-262500D01*
G01*
G37*
G36*
G01*
X182072000Y-21073500D02*
X182072000Y-21598500D01*
G75*
G02*
X181809500Y-21861000I-262500J0D01*
G01*
X181184500Y-21861000D01*
G75*
G02*
X180922000Y-21598500I0J262500D01*
G01*
X180922000Y-21073500D01*
G75*
G02*
X181184500Y-20811000I262500J0D01*
G01*
X181809500Y-20811000D01*
G75*
G02*
X182072000Y-21073500I0J-262500D01*
G01*
G37*
%TD*%
%TO.C,C11*%
G36*
G01*
X167968000Y-31504500D02*
X167968000Y-30979500D01*
G75*
G02*
X168230500Y-30717000I262500J0D01*
G01*
X168855500Y-30717000D01*
G75*
G02*
X169118000Y-30979500I0J-262500D01*
G01*
X169118000Y-31504500D01*
G75*
G02*
X168855500Y-31767000I-262500J0D01*
G01*
X168230500Y-31767000D01*
G75*
G02*
X167968000Y-31504500I0J262500D01*
G01*
G37*
G36*
G01*
X169718000Y-31504500D02*
X169718000Y-30979500D01*
G75*
G02*
X169980500Y-30717000I262500J0D01*
G01*
X170605500Y-30717000D01*
G75*
G02*
X170868000Y-30979500I0J-262500D01*
G01*
X170868000Y-31504500D01*
G75*
G02*
X170605500Y-31767000I-262500J0D01*
G01*
X169980500Y-31767000D01*
G75*
G02*
X169718000Y-31504500I0J262500D01*
G01*
G37*
%TD*%
%TO.C,C13*%
G36*
G01*
X159699000Y-37854500D02*
X159699000Y-37329500D01*
G75*
G02*
X159961500Y-37067000I262500J0D01*
G01*
X160586500Y-37067000D01*
G75*
G02*
X160849000Y-37329500I0J-262500D01*
G01*
X160849000Y-37854500D01*
G75*
G02*
X160586500Y-38117000I-262500J0D01*
G01*
X159961500Y-38117000D01*
G75*
G02*
X159699000Y-37854500I0J262500D01*
G01*
G37*
G36*
G01*
X157949000Y-37854500D02*
X157949000Y-37329500D01*
G75*
G02*
X158211500Y-37067000I262500J0D01*
G01*
X158836500Y-37067000D01*
G75*
G02*
X159099000Y-37329500I0J-262500D01*
G01*
X159099000Y-37854500D01*
G75*
G02*
X158836500Y-38117000I-262500J0D01*
G01*
X158211500Y-38117000D01*
G75*
G02*
X157949000Y-37854500I0J262500D01*
G01*
G37*
%TD*%
D17*
%TO.C,U9*%
X165434000Y-16576000D03*
X165434000Y-18476000D03*
X162734000Y-18476000D03*
X162734000Y-17526000D03*
X162734000Y-16576000D03*
%TD*%
D16*
%TO.C,U7*%
X165928000Y-31750000D03*
X165928000Y-30480000D03*
X165928000Y-29210000D03*
X165928000Y-27940000D03*
X160528000Y-27940000D03*
X160528000Y-29210000D03*
X160528000Y-31750000D03*
%TD*%
%TO.C,R14*%
G36*
G01*
X178100000Y-21598500D02*
X178100000Y-21073500D01*
G75*
G02*
X178362500Y-20811000I262500J0D01*
G01*
X178987500Y-20811000D01*
G75*
G02*
X179250000Y-21073500I0J-262500D01*
G01*
X179250000Y-21598500D01*
G75*
G02*
X178987500Y-21861000I-262500J0D01*
G01*
X178362500Y-21861000D01*
G75*
G02*
X178100000Y-21598500I0J262500D01*
G01*
G37*
G36*
G01*
X176350000Y-21598500D02*
X176350000Y-21073500D01*
G75*
G02*
X176612500Y-20811000I262500J0D01*
G01*
X177237500Y-20811000D01*
G75*
G02*
X177500000Y-21073500I0J-262500D01*
G01*
X177500000Y-21598500D01*
G75*
G02*
X177237500Y-21861000I-262500J0D01*
G01*
X176612500Y-21861000D01*
G75*
G02*
X176350000Y-21598500I0J262500D01*
G01*
G37*
%TD*%
%TO.C,R12*%
G36*
G01*
X167976500Y-23302608D02*
X167976500Y-20385392D01*
G75*
G02*
X168242892Y-20119000I266392J0D01*
G01*
X169335108Y-20119000D01*
G75*
G02*
X169601500Y-20385392I0J-266392D01*
G01*
X169601500Y-23302608D01*
G75*
G02*
X169335108Y-23569000I-266392J0D01*
G01*
X168242892Y-23569000D01*
G75*
G02*
X167976500Y-23302608I0J266392D01*
G01*
G37*
G36*
G01*
X162001500Y-23302608D02*
X162001500Y-20385392D01*
G75*
G02*
X162267892Y-20119000I266392J0D01*
G01*
X163360108Y-20119000D01*
G75*
G02*
X163626500Y-20385392I0J-266392D01*
G01*
X163626500Y-23302608D01*
G75*
G02*
X163360108Y-23569000I-266392J0D01*
G01*
X162267892Y-23569000D01*
G75*
G02*
X162001500Y-23302608I0J266392D01*
G01*
G37*
%TD*%
%TO.C,R10*%
G36*
G01*
X167968000Y-29472500D02*
X167968000Y-28947500D01*
G75*
G02*
X168230500Y-28685000I262500J0D01*
G01*
X168855500Y-28685000D01*
G75*
G02*
X169118000Y-28947500I0J-262500D01*
G01*
X169118000Y-29472500D01*
G75*
G02*
X168855500Y-29735000I-262500J0D01*
G01*
X168230500Y-29735000D01*
G75*
G02*
X167968000Y-29472500I0J262500D01*
G01*
G37*
G36*
G01*
X169718000Y-29472500D02*
X169718000Y-28947500D01*
G75*
G02*
X169980500Y-28685000I262500J0D01*
G01*
X170605500Y-28685000D01*
G75*
G02*
X170868000Y-28947500I0J-262500D01*
G01*
X170868000Y-29472500D01*
G75*
G02*
X170605500Y-29735000I-262500J0D01*
G01*
X169980500Y-29735000D01*
G75*
G02*
X169718000Y-29472500I0J262500D01*
G01*
G37*
%TD*%
D18*
%TO.C,D2*%
X186436000Y-151892000D03*
D19*
X181356000Y-151892000D03*
%TD*%
D18*
%TO.C,D1*%
X186436000Y-158496000D03*
D19*
X181356000Y-158496000D03*
%TD*%
D15*
%TO.C,Q5*%
X200655000Y-45126000D03*
X199385000Y-45126000D03*
X201935000Y-45126000D03*
X203205000Y-45126000D03*
D14*
G36*
X198876345Y-38867344D02*
G01*
X198880328Y-38854212D01*
X198886797Y-38842110D01*
X198895503Y-38831503D01*
X198906110Y-38822797D01*
X198918212Y-38816328D01*
X198931344Y-38812345D01*
X198945000Y-38811000D01*
X203645000Y-38811000D01*
X203658656Y-38812345D01*
X203671788Y-38816328D01*
X203683890Y-38822797D01*
X203694497Y-38831503D01*
X203703203Y-38842110D01*
X203709672Y-38854212D01*
X203713655Y-38867344D01*
X203715000Y-38881000D01*
X203715000Y-40431000D01*
X203713655Y-40444656D01*
X203709672Y-40457788D01*
X203703203Y-40469890D01*
X203694497Y-40480497D01*
X203683890Y-40489203D01*
X203671788Y-40495672D01*
X203658656Y-40499655D01*
X203645000Y-40501000D01*
X203465000Y-40501000D01*
X203465000Y-43506000D01*
X203463655Y-43519656D01*
X203459672Y-43532788D01*
X203453203Y-43544890D01*
X203444497Y-43555497D01*
X203433890Y-43564203D01*
X203421788Y-43570672D01*
X203408656Y-43574655D01*
X203395000Y-43576000D01*
X199195000Y-43576000D01*
X199181344Y-43574655D01*
X199168212Y-43570672D01*
X199156110Y-43564203D01*
X199145503Y-43555497D01*
X199136797Y-43544890D01*
X199130328Y-43532788D01*
X199126345Y-43519656D01*
X199125000Y-43506000D01*
X199125000Y-40501000D01*
X198945000Y-40501000D01*
X198931344Y-40499655D01*
X198918212Y-40495672D01*
X198906110Y-40489203D01*
X198895503Y-40480497D01*
X198886797Y-40469890D01*
X198880328Y-40457788D01*
X198876345Y-40444656D01*
X198875000Y-40431000D01*
X198875000Y-38881000D01*
X198876345Y-38867344D01*
G37*
%TD*%
%TO.C,D7*%
G36*
G01*
X214584000Y-39869500D02*
X214584000Y-40394500D01*
G75*
G02*
X214321500Y-40657000I-262500J0D01*
G01*
X213696500Y-40657000D01*
G75*
G02*
X213434000Y-40394500I0J262500D01*
G01*
X213434000Y-39869500D01*
G75*
G02*
X213696500Y-39607000I262500J0D01*
G01*
X214321500Y-39607000D01*
G75*
G02*
X214584000Y-39869500I0J-262500D01*
G01*
G37*
G36*
G01*
X216334000Y-39869500D02*
X216334000Y-40394500D01*
G75*
G02*
X216071500Y-40657000I-262500J0D01*
G01*
X215446500Y-40657000D01*
G75*
G02*
X215184000Y-40394500I0J262500D01*
G01*
X215184000Y-39869500D01*
G75*
G02*
X215446500Y-39607000I262500J0D01*
G01*
X216071500Y-39607000D01*
G75*
G02*
X216334000Y-39869500I0J-262500D01*
G01*
G37*
%TD*%
%TO.C,C12*%
G36*
G01*
X200840000Y-57395500D02*
X200840000Y-57920500D01*
G75*
G02*
X200577500Y-58183000I-262500J0D01*
G01*
X199952500Y-58183000D01*
G75*
G02*
X199690000Y-57920500I0J262500D01*
G01*
X199690000Y-57395500D01*
G75*
G02*
X199952500Y-57133000I262500J0D01*
G01*
X200577500Y-57133000D01*
G75*
G02*
X200840000Y-57395500I0J-262500D01*
G01*
G37*
G36*
G01*
X199090000Y-57395500D02*
X199090000Y-57920500D01*
G75*
G02*
X198827500Y-58183000I-262500J0D01*
G01*
X198202500Y-58183000D01*
G75*
G02*
X197940000Y-57920500I0J262500D01*
G01*
X197940000Y-57395500D01*
G75*
G02*
X198202500Y-57133000I262500J0D01*
G01*
X198827500Y-57133000D01*
G75*
G02*
X199090000Y-57395500I0J-262500D01*
G01*
G37*
%TD*%
%TO.C,C14*%
G36*
G01*
X193539500Y-53894000D02*
X194064500Y-53894000D01*
G75*
G02*
X194327000Y-54156500I0J-262500D01*
G01*
X194327000Y-54781500D01*
G75*
G02*
X194064500Y-55044000I-262500J0D01*
G01*
X193539500Y-55044000D01*
G75*
G02*
X193277000Y-54781500I0J262500D01*
G01*
X193277000Y-54156500D01*
G75*
G02*
X193539500Y-53894000I262500J0D01*
G01*
G37*
G36*
G01*
X193539500Y-52144000D02*
X194064500Y-52144000D01*
G75*
G02*
X194327000Y-52406500I0J-262500D01*
G01*
X194327000Y-53031500D01*
G75*
G02*
X194064500Y-53294000I-262500J0D01*
G01*
X193539500Y-53294000D01*
G75*
G02*
X193277000Y-53031500I0J262500D01*
G01*
X193277000Y-52406500D01*
G75*
G02*
X193539500Y-52144000I262500J0D01*
G01*
G37*
%TD*%
D20*
%TO.C,U8*%
X199390000Y-49878000D03*
X201930000Y-49878000D03*
X203200000Y-49878000D03*
X203200000Y-55278000D03*
X201930000Y-55278000D03*
X200660000Y-55278000D03*
X199390000Y-55278000D03*
%TD*%
D13*
%TO.C,U10*%
X213802000Y-43608000D03*
X212852000Y-43608000D03*
X211902000Y-43608000D03*
X211902000Y-46308000D03*
X213802000Y-46308000D03*
%TD*%
%TO.C,R15*%
G36*
G01*
X209116000Y-40394500D02*
X209116000Y-39869500D01*
G75*
G02*
X209378500Y-39607000I262500J0D01*
G01*
X210003500Y-39607000D01*
G75*
G02*
X210266000Y-39869500I0J-262500D01*
G01*
X210266000Y-40394500D01*
G75*
G02*
X210003500Y-40657000I-262500J0D01*
G01*
X209378500Y-40657000D01*
G75*
G02*
X209116000Y-40394500I0J262500D01*
G01*
G37*
G36*
G01*
X210866000Y-40394500D02*
X210866000Y-39869500D01*
G75*
G02*
X211128500Y-39607000I262500J0D01*
G01*
X211753500Y-39607000D01*
G75*
G02*
X212016000Y-39869500I0J-262500D01*
G01*
X212016000Y-40394500D01*
G75*
G02*
X211753500Y-40657000I-262500J0D01*
G01*
X211128500Y-40657000D01*
G75*
G02*
X210866000Y-40394500I0J262500D01*
G01*
G37*
%TD*%
%TO.C,R11*%
G36*
G01*
X202004000Y-57920500D02*
X202004000Y-57395500D01*
G75*
G02*
X202266500Y-57133000I262500J0D01*
G01*
X202891500Y-57133000D01*
G75*
G02*
X203154000Y-57395500I0J-262500D01*
G01*
X203154000Y-57920500D01*
G75*
G02*
X202891500Y-58183000I-262500J0D01*
G01*
X202266500Y-58183000D01*
G75*
G02*
X202004000Y-57920500I0J262500D01*
G01*
G37*
G36*
G01*
X203754000Y-57920500D02*
X203754000Y-57395500D01*
G75*
G02*
X204016500Y-57133000I262500J0D01*
G01*
X204641500Y-57133000D01*
G75*
G02*
X204904000Y-57395500I0J-262500D01*
G01*
X204904000Y-57920500D01*
G75*
G02*
X204641500Y-58183000I-262500J0D01*
G01*
X204016500Y-58183000D01*
G75*
G02*
X203754000Y-57920500I0J262500D01*
G01*
G37*
%TD*%
%TO.C,R13*%
G36*
G01*
X206567392Y-48022000D02*
X209484608Y-48022000D01*
G75*
G02*
X209751000Y-48288392I0J-266392D01*
G01*
X209751000Y-49380608D01*
G75*
G02*
X209484608Y-49647000I-266392J0D01*
G01*
X206567392Y-49647000D01*
G75*
G02*
X206301000Y-49380608I0J266392D01*
G01*
X206301000Y-48288392D01*
G75*
G02*
X206567392Y-48022000I266392J0D01*
G01*
G37*
G36*
G01*
X206567392Y-42047000D02*
X209484608Y-42047000D01*
G75*
G02*
X209751000Y-42313392I0J-266392D01*
G01*
X209751000Y-43405608D01*
G75*
G02*
X209484608Y-43672000I-266392J0D01*
G01*
X206567392Y-43672000D01*
G75*
G02*
X206301000Y-43405608I0J266392D01*
G01*
X206301000Y-42313392D01*
G75*
G02*
X206567392Y-42047000I266392J0D01*
G01*
G37*
%TD*%
D15*
%TO.C,Q7*%
X201798000Y-67732000D03*
X200528000Y-67732000D03*
X203078000Y-67732000D03*
X204348000Y-67732000D03*
D14*
G36*
X200019345Y-61473344D02*
G01*
X200023328Y-61460212D01*
X200029797Y-61448110D01*
X200038503Y-61437503D01*
X200049110Y-61428797D01*
X200061212Y-61422328D01*
X200074344Y-61418345D01*
X200088000Y-61417000D01*
X204788000Y-61417000D01*
X204801656Y-61418345D01*
X204814788Y-61422328D01*
X204826890Y-61428797D01*
X204837497Y-61437503D01*
X204846203Y-61448110D01*
X204852672Y-61460212D01*
X204856655Y-61473344D01*
X204858000Y-61487000D01*
X204858000Y-63037000D01*
X204856655Y-63050656D01*
X204852672Y-63063788D01*
X204846203Y-63075890D01*
X204837497Y-63086497D01*
X204826890Y-63095203D01*
X204814788Y-63101672D01*
X204801656Y-63105655D01*
X204788000Y-63107000D01*
X204608000Y-63107000D01*
X204608000Y-66112000D01*
X204606655Y-66125656D01*
X204602672Y-66138788D01*
X204596203Y-66150890D01*
X204587497Y-66161497D01*
X204576890Y-66170203D01*
X204564788Y-66176672D01*
X204551656Y-66180655D01*
X204538000Y-66182000D01*
X200338000Y-66182000D01*
X200324344Y-66180655D01*
X200311212Y-66176672D01*
X200299110Y-66170203D01*
X200288503Y-66161497D01*
X200279797Y-66150890D01*
X200273328Y-66138788D01*
X200269345Y-66125656D01*
X200268000Y-66112000D01*
X200268000Y-63107000D01*
X200088000Y-63107000D01*
X200074344Y-63105655D01*
X200061212Y-63101672D01*
X200049110Y-63095203D01*
X200038503Y-63086497D01*
X200029797Y-63075890D01*
X200023328Y-63063788D01*
X200019345Y-63050656D01*
X200018000Y-63037000D01*
X200018000Y-61487000D01*
X200019345Y-61473344D01*
G37*
%TD*%
%TO.C,D15*%
G36*
G01*
X214330000Y-62475500D02*
X214330000Y-63000500D01*
G75*
G02*
X214067500Y-63263000I-262500J0D01*
G01*
X213442500Y-63263000D01*
G75*
G02*
X213180000Y-63000500I0J262500D01*
G01*
X213180000Y-62475500D01*
G75*
G02*
X213442500Y-62213000I262500J0D01*
G01*
X214067500Y-62213000D01*
G75*
G02*
X214330000Y-62475500I0J-262500D01*
G01*
G37*
G36*
G01*
X216080000Y-62475500D02*
X216080000Y-63000500D01*
G75*
G02*
X215817500Y-63263000I-262500J0D01*
G01*
X215192500Y-63263000D01*
G75*
G02*
X214930000Y-63000500I0J262500D01*
G01*
X214930000Y-62475500D01*
G75*
G02*
X215192500Y-62213000I262500J0D01*
G01*
X215817500Y-62213000D01*
G75*
G02*
X216080000Y-62475500I0J-262500D01*
G01*
G37*
%TD*%
%TO.C,C22*%
G36*
G01*
X200586000Y-80001500D02*
X200586000Y-80526500D01*
G75*
G02*
X200323500Y-80789000I-262500J0D01*
G01*
X199698500Y-80789000D01*
G75*
G02*
X199436000Y-80526500I0J262500D01*
G01*
X199436000Y-80001500D01*
G75*
G02*
X199698500Y-79739000I262500J0D01*
G01*
X200323500Y-79739000D01*
G75*
G02*
X200586000Y-80001500I0J-262500D01*
G01*
G37*
G36*
G01*
X198836000Y-80001500D02*
X198836000Y-80526500D01*
G75*
G02*
X198573500Y-80789000I-262500J0D01*
G01*
X197948500Y-80789000D01*
G75*
G02*
X197686000Y-80526500I0J262500D01*
G01*
X197686000Y-80001500D01*
G75*
G02*
X197948500Y-79739000I262500J0D01*
G01*
X198573500Y-79739000D01*
G75*
G02*
X198836000Y-80001500I0J-262500D01*
G01*
G37*
%TD*%
%TO.C,C25*%
G36*
G01*
X193285500Y-76500000D02*
X193810500Y-76500000D01*
G75*
G02*
X194073000Y-76762500I0J-262500D01*
G01*
X194073000Y-77387500D01*
G75*
G02*
X193810500Y-77650000I-262500J0D01*
G01*
X193285500Y-77650000D01*
G75*
G02*
X193023000Y-77387500I0J262500D01*
G01*
X193023000Y-76762500D01*
G75*
G02*
X193285500Y-76500000I262500J0D01*
G01*
G37*
G36*
G01*
X193285500Y-74750000D02*
X193810500Y-74750000D01*
G75*
G02*
X194073000Y-75012500I0J-262500D01*
G01*
X194073000Y-75637500D01*
G75*
G02*
X193810500Y-75900000I-262500J0D01*
G01*
X193285500Y-75900000D01*
G75*
G02*
X193023000Y-75637500I0J262500D01*
G01*
X193023000Y-75012500D01*
G75*
G02*
X193285500Y-74750000I262500J0D01*
G01*
G37*
%TD*%
D20*
%TO.C,U15*%
X200533000Y-72484000D03*
X203073000Y-72484000D03*
X204343000Y-72484000D03*
X204343000Y-77884000D03*
X203073000Y-77884000D03*
X201803000Y-77884000D03*
X200533000Y-77884000D03*
%TD*%
D13*
%TO.C,U18*%
X213548000Y-66214000D03*
X212598000Y-66214000D03*
X211648000Y-66214000D03*
X211648000Y-68914000D03*
X213548000Y-68914000D03*
%TD*%
%TO.C,R26*%
G36*
G01*
X208862000Y-63000500D02*
X208862000Y-62475500D01*
G75*
G02*
X209124500Y-62213000I262500J0D01*
G01*
X209749500Y-62213000D01*
G75*
G02*
X210012000Y-62475500I0J-262500D01*
G01*
X210012000Y-63000500D01*
G75*
G02*
X209749500Y-63263000I-262500J0D01*
G01*
X209124500Y-63263000D01*
G75*
G02*
X208862000Y-63000500I0J262500D01*
G01*
G37*
G36*
G01*
X210612000Y-63000500D02*
X210612000Y-62475500D01*
G75*
G02*
X210874500Y-62213000I262500J0D01*
G01*
X211499500Y-62213000D01*
G75*
G02*
X211762000Y-62475500I0J-262500D01*
G01*
X211762000Y-63000500D01*
G75*
G02*
X211499500Y-63263000I-262500J0D01*
G01*
X210874500Y-63263000D01*
G75*
G02*
X210612000Y-63000500I0J262500D01*
G01*
G37*
%TD*%
%TO.C,R20*%
G36*
G01*
X201750000Y-80526500D02*
X201750000Y-80001500D01*
G75*
G02*
X202012500Y-79739000I262500J0D01*
G01*
X202637500Y-79739000D01*
G75*
G02*
X202900000Y-80001500I0J-262500D01*
G01*
X202900000Y-80526500D01*
G75*
G02*
X202637500Y-80789000I-262500J0D01*
G01*
X202012500Y-80789000D01*
G75*
G02*
X201750000Y-80526500I0J262500D01*
G01*
G37*
G36*
G01*
X203500000Y-80526500D02*
X203500000Y-80001500D01*
G75*
G02*
X203762500Y-79739000I262500J0D01*
G01*
X204387500Y-79739000D01*
G75*
G02*
X204650000Y-80001500I0J-262500D01*
G01*
X204650000Y-80526500D01*
G75*
G02*
X204387500Y-80789000I-262500J0D01*
G01*
X203762500Y-80789000D01*
G75*
G02*
X203500000Y-80526500I0J262500D01*
G01*
G37*
%TD*%
%TO.C,R23*%
G36*
G01*
X206313392Y-70628000D02*
X209230608Y-70628000D01*
G75*
G02*
X209497000Y-70894392I0J-266392D01*
G01*
X209497000Y-71986608D01*
G75*
G02*
X209230608Y-72253000I-266392J0D01*
G01*
X206313392Y-72253000D01*
G75*
G02*
X206047000Y-71986608I0J266392D01*
G01*
X206047000Y-70894392D01*
G75*
G02*
X206313392Y-70628000I266392J0D01*
G01*
G37*
G36*
G01*
X206313392Y-64653000D02*
X209230608Y-64653000D01*
G75*
G02*
X209497000Y-64919392I0J-266392D01*
G01*
X209497000Y-66011608D01*
G75*
G02*
X209230608Y-66278000I-266392J0D01*
G01*
X206313392Y-66278000D01*
G75*
G02*
X206047000Y-66011608I0J266392D01*
G01*
X206047000Y-64919392D01*
G75*
G02*
X206313392Y-64653000I266392J0D01*
G01*
G37*
%TD*%
D15*
%TO.C,Q10*%
X201671000Y-89830000D03*
X200401000Y-89830000D03*
X202951000Y-89830000D03*
X204221000Y-89830000D03*
D14*
G36*
X199892345Y-83571344D02*
G01*
X199896328Y-83558212D01*
X199902797Y-83546110D01*
X199911503Y-83535503D01*
X199922110Y-83526797D01*
X199934212Y-83520328D01*
X199947344Y-83516345D01*
X199961000Y-83515000D01*
X204661000Y-83515000D01*
X204674656Y-83516345D01*
X204687788Y-83520328D01*
X204699890Y-83526797D01*
X204710497Y-83535503D01*
X204719203Y-83546110D01*
X204725672Y-83558212D01*
X204729655Y-83571344D01*
X204731000Y-83585000D01*
X204731000Y-85135000D01*
X204729655Y-85148656D01*
X204725672Y-85161788D01*
X204719203Y-85173890D01*
X204710497Y-85184497D01*
X204699890Y-85193203D01*
X204687788Y-85199672D01*
X204674656Y-85203655D01*
X204661000Y-85205000D01*
X204481000Y-85205000D01*
X204481000Y-88210000D01*
X204479655Y-88223656D01*
X204475672Y-88236788D01*
X204469203Y-88248890D01*
X204460497Y-88259497D01*
X204449890Y-88268203D01*
X204437788Y-88274672D01*
X204424656Y-88278655D01*
X204411000Y-88280000D01*
X200211000Y-88280000D01*
X200197344Y-88278655D01*
X200184212Y-88274672D01*
X200172110Y-88268203D01*
X200161503Y-88259497D01*
X200152797Y-88248890D01*
X200146328Y-88236788D01*
X200142345Y-88223656D01*
X200141000Y-88210000D01*
X200141000Y-85205000D01*
X199961000Y-85205000D01*
X199947344Y-85203655D01*
X199934212Y-85199672D01*
X199922110Y-85193203D01*
X199911503Y-85184497D01*
X199902797Y-85173890D01*
X199896328Y-85161788D01*
X199892345Y-85148656D01*
X199891000Y-85135000D01*
X199891000Y-83585000D01*
X199892345Y-83571344D01*
G37*
%TD*%
%TO.C,D18*%
G36*
G01*
X214584000Y-84319500D02*
X214584000Y-84844500D01*
G75*
G02*
X214321500Y-85107000I-262500J0D01*
G01*
X213696500Y-85107000D01*
G75*
G02*
X213434000Y-84844500I0J262500D01*
G01*
X213434000Y-84319500D01*
G75*
G02*
X213696500Y-84057000I262500J0D01*
G01*
X214321500Y-84057000D01*
G75*
G02*
X214584000Y-84319500I0J-262500D01*
G01*
G37*
G36*
G01*
X216334000Y-84319500D02*
X216334000Y-84844500D01*
G75*
G02*
X216071500Y-85107000I-262500J0D01*
G01*
X215446500Y-85107000D01*
G75*
G02*
X215184000Y-84844500I0J262500D01*
G01*
X215184000Y-84319500D01*
G75*
G02*
X215446500Y-84057000I262500J0D01*
G01*
X216071500Y-84057000D01*
G75*
G02*
X216334000Y-84319500I0J-262500D01*
G01*
G37*
%TD*%
%TO.C,C28*%
G36*
G01*
X201856000Y-102099500D02*
X201856000Y-102624500D01*
G75*
G02*
X201593500Y-102887000I-262500J0D01*
G01*
X200968500Y-102887000D01*
G75*
G02*
X200706000Y-102624500I0J262500D01*
G01*
X200706000Y-102099500D01*
G75*
G02*
X200968500Y-101837000I262500J0D01*
G01*
X201593500Y-101837000D01*
G75*
G02*
X201856000Y-102099500I0J-262500D01*
G01*
G37*
G36*
G01*
X200106000Y-102099500D02*
X200106000Y-102624500D01*
G75*
G02*
X199843500Y-102887000I-262500J0D01*
G01*
X199218500Y-102887000D01*
G75*
G02*
X198956000Y-102624500I0J262500D01*
G01*
X198956000Y-102099500D01*
G75*
G02*
X199218500Y-101837000I262500J0D01*
G01*
X199843500Y-101837000D01*
G75*
G02*
X200106000Y-102099500I0J-262500D01*
G01*
G37*
%TD*%
%TO.C,C30*%
G36*
G01*
X194555500Y-98598000D02*
X195080500Y-98598000D01*
G75*
G02*
X195343000Y-98860500I0J-262500D01*
G01*
X195343000Y-99485500D01*
G75*
G02*
X195080500Y-99748000I-262500J0D01*
G01*
X194555500Y-99748000D01*
G75*
G02*
X194293000Y-99485500I0J262500D01*
G01*
X194293000Y-98860500D01*
G75*
G02*
X194555500Y-98598000I262500J0D01*
G01*
G37*
G36*
G01*
X194555500Y-96848000D02*
X195080500Y-96848000D01*
G75*
G02*
X195343000Y-97110500I0J-262500D01*
G01*
X195343000Y-97735500D01*
G75*
G02*
X195080500Y-97998000I-262500J0D01*
G01*
X194555500Y-97998000D01*
G75*
G02*
X194293000Y-97735500I0J262500D01*
G01*
X194293000Y-97110500D01*
G75*
G02*
X194555500Y-96848000I262500J0D01*
G01*
G37*
%TD*%
D20*
%TO.C,U21*%
X200406000Y-94582000D03*
X202946000Y-94582000D03*
X204216000Y-94582000D03*
X204216000Y-99982000D03*
X202946000Y-99982000D03*
X201676000Y-99982000D03*
X200406000Y-99982000D03*
%TD*%
D13*
%TO.C,U23*%
X213802000Y-88058000D03*
X212852000Y-88058000D03*
X211902000Y-88058000D03*
X211902000Y-90758000D03*
X213802000Y-90758000D03*
%TD*%
%TO.C,R33*%
G36*
G01*
X209116000Y-84844500D02*
X209116000Y-84319500D01*
G75*
G02*
X209378500Y-84057000I262500J0D01*
G01*
X210003500Y-84057000D01*
G75*
G02*
X210266000Y-84319500I0J-262500D01*
G01*
X210266000Y-84844500D01*
G75*
G02*
X210003500Y-85107000I-262500J0D01*
G01*
X209378500Y-85107000D01*
G75*
G02*
X209116000Y-84844500I0J262500D01*
G01*
G37*
G36*
G01*
X210866000Y-84844500D02*
X210866000Y-84319500D01*
G75*
G02*
X211128500Y-84057000I262500J0D01*
G01*
X211753500Y-84057000D01*
G75*
G02*
X212016000Y-84319500I0J-262500D01*
G01*
X212016000Y-84844500D01*
G75*
G02*
X211753500Y-85107000I-262500J0D01*
G01*
X211128500Y-85107000D01*
G75*
G02*
X210866000Y-84844500I0J262500D01*
G01*
G37*
%TD*%
%TO.C,R29*%
G36*
G01*
X203020000Y-102624500D02*
X203020000Y-102099500D01*
G75*
G02*
X203282500Y-101837000I262500J0D01*
G01*
X203907500Y-101837000D01*
G75*
G02*
X204170000Y-102099500I0J-262500D01*
G01*
X204170000Y-102624500D01*
G75*
G02*
X203907500Y-102887000I-262500J0D01*
G01*
X203282500Y-102887000D01*
G75*
G02*
X203020000Y-102624500I0J262500D01*
G01*
G37*
G36*
G01*
X204770000Y-102624500D02*
X204770000Y-102099500D01*
G75*
G02*
X205032500Y-101837000I262500J0D01*
G01*
X205657500Y-101837000D01*
G75*
G02*
X205920000Y-102099500I0J-262500D01*
G01*
X205920000Y-102624500D01*
G75*
G02*
X205657500Y-102887000I-262500J0D01*
G01*
X205032500Y-102887000D01*
G75*
G02*
X204770000Y-102624500I0J262500D01*
G01*
G37*
%TD*%
%TO.C,R31*%
G36*
G01*
X206567392Y-92472000D02*
X209484608Y-92472000D01*
G75*
G02*
X209751000Y-92738392I0J-266392D01*
G01*
X209751000Y-93830608D01*
G75*
G02*
X209484608Y-94097000I-266392J0D01*
G01*
X206567392Y-94097000D01*
G75*
G02*
X206301000Y-93830608I0J266392D01*
G01*
X206301000Y-92738392D01*
G75*
G02*
X206567392Y-92472000I266392J0D01*
G01*
G37*
G36*
G01*
X206567392Y-86497000D02*
X209484608Y-86497000D01*
G75*
G02*
X209751000Y-86763392I0J-266392D01*
G01*
X209751000Y-87855608D01*
G75*
G02*
X209484608Y-88122000I-266392J0D01*
G01*
X206567392Y-88122000D01*
G75*
G02*
X206301000Y-87855608I0J266392D01*
G01*
X206301000Y-86763392D01*
G75*
G02*
X206567392Y-86497000I266392J0D01*
G01*
G37*
%TD*%
D21*
%TO.C,C1*%
X130556000Y-147494000D03*
D22*
X130556000Y-142494000D03*
%TD*%
%TO.C,C2*%
X158496000Y-142748000D03*
D21*
X158496000Y-147748000D03*
%TD*%
%TO.C,C3*%
X116586000Y-147494000D03*
D22*
X116586000Y-142494000D03*
%TD*%
%TO.C,C4*%
X144272000Y-142748000D03*
D21*
X144272000Y-147748000D03*
%TD*%
D23*
%TO.C,C16*%
X162814000Y-168870000D03*
D24*
X162814000Y-166370000D03*
%TD*%
%TO.C,C17*%
X96774000Y-68126242D03*
D23*
X96774000Y-70626242D03*
%TD*%
%TO.C,C19*%
G36*
G01*
X93031000Y-66539500D02*
X93031000Y-67064500D01*
G75*
G02*
X92768500Y-67327000I-262500J0D01*
G01*
X92143500Y-67327000D01*
G75*
G02*
X91881000Y-67064500I0J262500D01*
G01*
X91881000Y-66539500D01*
G75*
G02*
X92143500Y-66277000I262500J0D01*
G01*
X92768500Y-66277000D01*
G75*
G02*
X93031000Y-66539500I0J-262500D01*
G01*
G37*
G36*
G01*
X91281000Y-66539500D02*
X91281000Y-67064500D01*
G75*
G02*
X91018500Y-67327000I-262500J0D01*
G01*
X90393500Y-67327000D01*
G75*
G02*
X90131000Y-67064500I0J262500D01*
G01*
X90131000Y-66539500D01*
G75*
G02*
X90393500Y-66277000I262500J0D01*
G01*
X91018500Y-66277000D01*
G75*
G02*
X91281000Y-66539500I0J-262500D01*
G01*
G37*
%TD*%
%TO.C,C20*%
G36*
G01*
X182051000Y-175268500D02*
X182051000Y-174743500D01*
G75*
G02*
X182313500Y-174481000I262500J0D01*
G01*
X182938500Y-174481000D01*
G75*
G02*
X183201000Y-174743500I0J-262500D01*
G01*
X183201000Y-175268500D01*
G75*
G02*
X182938500Y-175531000I-262500J0D01*
G01*
X182313500Y-175531000D01*
G75*
G02*
X182051000Y-175268500I0J262500D01*
G01*
G37*
G36*
G01*
X183801000Y-175268500D02*
X183801000Y-174743500D01*
G75*
G02*
X184063500Y-174481000I262500J0D01*
G01*
X184688500Y-174481000D01*
G75*
G02*
X184951000Y-174743500I0J-262500D01*
G01*
X184951000Y-175268500D01*
G75*
G02*
X184688500Y-175531000I-262500J0D01*
G01*
X184063500Y-175531000D01*
G75*
G02*
X183801000Y-175268500I0J262500D01*
G01*
G37*
%TD*%
%TO.C,C21*%
G36*
G01*
X198836000Y-124705500D02*
X198836000Y-125230500D01*
G75*
G02*
X198573500Y-125493000I-262500J0D01*
G01*
X197948500Y-125493000D01*
G75*
G02*
X197686000Y-125230500I0J262500D01*
G01*
X197686000Y-124705500D01*
G75*
G02*
X197948500Y-124443000I262500J0D01*
G01*
X198573500Y-124443000D01*
G75*
G02*
X198836000Y-124705500I0J-262500D01*
G01*
G37*
G36*
G01*
X200586000Y-124705500D02*
X200586000Y-125230500D01*
G75*
G02*
X200323500Y-125493000I-262500J0D01*
G01*
X199698500Y-125493000D01*
G75*
G02*
X199436000Y-125230500I0J262500D01*
G01*
X199436000Y-124705500D01*
G75*
G02*
X199698500Y-124443000I262500J0D01*
G01*
X200323500Y-124443000D01*
G75*
G02*
X200586000Y-124705500I0J-262500D01*
G01*
G37*
%TD*%
%TO.C,C23*%
G36*
G01*
X200016500Y-145997000D02*
X200541500Y-145997000D01*
G75*
G02*
X200804000Y-146259500I0J-262500D01*
G01*
X200804000Y-146884500D01*
G75*
G02*
X200541500Y-147147000I-262500J0D01*
G01*
X200016500Y-147147000D01*
G75*
G02*
X199754000Y-146884500I0J262500D01*
G01*
X199754000Y-146259500D01*
G75*
G02*
X200016500Y-145997000I262500J0D01*
G01*
G37*
G36*
G01*
X200016500Y-147747000D02*
X200541500Y-147747000D01*
G75*
G02*
X200804000Y-148009500I0J-262500D01*
G01*
X200804000Y-148634500D01*
G75*
G02*
X200541500Y-148897000I-262500J0D01*
G01*
X200016500Y-148897000D01*
G75*
G02*
X199754000Y-148634500I0J262500D01*
G01*
X199754000Y-148009500D01*
G75*
G02*
X200016500Y-147747000I262500J0D01*
G01*
G37*
%TD*%
%TO.C,C24*%
G36*
G01*
X193285500Y-119454000D02*
X193810500Y-119454000D01*
G75*
G02*
X194073000Y-119716500I0J-262500D01*
G01*
X194073000Y-120341500D01*
G75*
G02*
X193810500Y-120604000I-262500J0D01*
G01*
X193285500Y-120604000D01*
G75*
G02*
X193023000Y-120341500I0J262500D01*
G01*
X193023000Y-119716500D01*
G75*
G02*
X193285500Y-119454000I262500J0D01*
G01*
G37*
G36*
G01*
X193285500Y-121204000D02*
X193810500Y-121204000D01*
G75*
G02*
X194073000Y-121466500I0J-262500D01*
G01*
X194073000Y-122091500D01*
G75*
G02*
X193810500Y-122354000I-262500J0D01*
G01*
X193285500Y-122354000D01*
G75*
G02*
X193023000Y-122091500I0J262500D01*
G01*
X193023000Y-121466500D01*
G75*
G02*
X193285500Y-121204000I262500J0D01*
G01*
G37*
%TD*%
%TO.C,C26*%
G36*
G01*
X194428500Y-142413000D02*
X194953500Y-142413000D01*
G75*
G02*
X195216000Y-142675500I0J-262500D01*
G01*
X195216000Y-143300500D01*
G75*
G02*
X194953500Y-143563000I-262500J0D01*
G01*
X194428500Y-143563000D01*
G75*
G02*
X194166000Y-143300500I0J262500D01*
G01*
X194166000Y-142675500D01*
G75*
G02*
X194428500Y-142413000I262500J0D01*
G01*
G37*
G36*
G01*
X194428500Y-140663000D02*
X194953500Y-140663000D01*
G75*
G02*
X195216000Y-140925500I0J-262500D01*
G01*
X195216000Y-141550500D01*
G75*
G02*
X194953500Y-141813000I-262500J0D01*
G01*
X194428500Y-141813000D01*
G75*
G02*
X194166000Y-141550500I0J262500D01*
G01*
X194166000Y-140925500D01*
G75*
G02*
X194428500Y-140663000I262500J0D01*
G01*
G37*
%TD*%
%TO.C,C27*%
G36*
G01*
X188768000Y-40902500D02*
X188768000Y-40377500D01*
G75*
G02*
X189030500Y-40115000I262500J0D01*
G01*
X189655500Y-40115000D01*
G75*
G02*
X189918000Y-40377500I0J-262500D01*
G01*
X189918000Y-40902500D01*
G75*
G02*
X189655500Y-41165000I-262500J0D01*
G01*
X189030500Y-41165000D01*
G75*
G02*
X188768000Y-40902500I0J262500D01*
G01*
G37*
G36*
G01*
X187018000Y-40902500D02*
X187018000Y-40377500D01*
G75*
G02*
X187280500Y-40115000I262500J0D01*
G01*
X187905500Y-40115000D01*
G75*
G02*
X188168000Y-40377500I0J-262500D01*
G01*
X188168000Y-40902500D01*
G75*
G02*
X187905500Y-41165000I-262500J0D01*
G01*
X187280500Y-41165000D01*
G75*
G02*
X187018000Y-40902500I0J262500D01*
G01*
G37*
%TD*%
%TO.C,C29*%
G36*
G01*
X172728500Y-34865000D02*
X172203500Y-34865000D01*
G75*
G02*
X171941000Y-34602500I0J262500D01*
G01*
X171941000Y-33977500D01*
G75*
G02*
X172203500Y-33715000I262500J0D01*
G01*
X172728500Y-33715000D01*
G75*
G02*
X172991000Y-33977500I0J-262500D01*
G01*
X172991000Y-34602500D01*
G75*
G02*
X172728500Y-34865000I-262500J0D01*
G01*
G37*
G36*
G01*
X172728500Y-33115000D02*
X172203500Y-33115000D01*
G75*
G02*
X171941000Y-32852500I0J262500D01*
G01*
X171941000Y-32227500D01*
G75*
G02*
X172203500Y-31965000I262500J0D01*
G01*
X172728500Y-31965000D01*
G75*
G02*
X172991000Y-32227500I0J-262500D01*
G01*
X172991000Y-32852500D01*
G75*
G02*
X172728500Y-33115000I-262500J0D01*
G01*
G37*
%TD*%
D24*
%TO.C,C31*%
X96774000Y-59944000D03*
D23*
X96774000Y-62444000D03*
%TD*%
%TO.C,C32*%
X190246000Y-168696000D03*
D24*
X190246000Y-171196000D03*
%TD*%
D25*
%TO.C,Conn1*%
X113131000Y-4966000D03*
X113131000Y-12866000D03*
%TD*%
%TO.C,Conn2*%
X221983000Y-142214000D03*
X214083000Y-142214000D03*
%TD*%
%TO.C,Conn3*%
X130657000Y-13120000D03*
X130657000Y-5220000D03*
%TD*%
%TO.C,Conn4*%
X214591000Y-120624000D03*
X222491000Y-120624000D03*
%TD*%
%TO.C,Conn7*%
X157988000Y-5842000D03*
X157988000Y-13742000D03*
%TD*%
%TO.C,Conn8*%
X222491000Y-76936000D03*
X214591000Y-76936000D03*
%TD*%
%TO.C,Conn9*%
X174498000Y-13247000D03*
X174498000Y-5347000D03*
%TD*%
%TO.C,Conn10*%
X193522000Y-13501000D03*
X193522000Y-5601000D03*
%TD*%
%TO.C,Conn11*%
X214845000Y-99288000D03*
X222745000Y-99288000D03*
%TD*%
%TO.C,Conn12*%
X222491000Y-54584000D03*
X214591000Y-54584000D03*
%TD*%
%TO.C,D12*%
G36*
G01*
X209050500Y-148883000D02*
X208525500Y-148883000D01*
G75*
G02*
X208263000Y-148620500I0J262500D01*
G01*
X208263000Y-147995500D01*
G75*
G02*
X208525500Y-147733000I262500J0D01*
G01*
X209050500Y-147733000D01*
G75*
G02*
X209313000Y-147995500I0J-262500D01*
G01*
X209313000Y-148620500D01*
G75*
G02*
X209050500Y-148883000I-262500J0D01*
G01*
G37*
G36*
G01*
X209050500Y-147133000D02*
X208525500Y-147133000D01*
G75*
G02*
X208263000Y-146870500I0J262500D01*
G01*
X208263000Y-146245500D01*
G75*
G02*
X208525500Y-145983000I262500J0D01*
G01*
X209050500Y-145983000D01*
G75*
G02*
X209313000Y-146245500I0J-262500D01*
G01*
X209313000Y-146870500D01*
G75*
G02*
X209050500Y-147133000I-262500J0D01*
G01*
G37*
%TD*%
%TO.C,D13*%
G36*
G01*
X90940500Y-64696000D02*
X90415500Y-64696000D01*
G75*
G02*
X90153000Y-64433500I0J262500D01*
G01*
X90153000Y-63808500D01*
G75*
G02*
X90415500Y-63546000I262500J0D01*
G01*
X90940500Y-63546000D01*
G75*
G02*
X91203000Y-63808500I0J-262500D01*
G01*
X91203000Y-64433500D01*
G75*
G02*
X90940500Y-64696000I-262500J0D01*
G01*
G37*
G36*
G01*
X90940500Y-62946000D02*
X90415500Y-62946000D01*
G75*
G02*
X90153000Y-62683500I0J262500D01*
G01*
X90153000Y-62058500D01*
G75*
G02*
X90415500Y-61796000I262500J0D01*
G01*
X90940500Y-61796000D01*
G75*
G02*
X91203000Y-62058500I0J-262500D01*
G01*
X91203000Y-62683500D01*
G75*
G02*
X90940500Y-62946000I-262500J0D01*
G01*
G37*
%TD*%
%TO.C,D14*%
G36*
G01*
X216080000Y-107179500D02*
X216080000Y-107704500D01*
G75*
G02*
X215817500Y-107967000I-262500J0D01*
G01*
X215192500Y-107967000D01*
G75*
G02*
X214930000Y-107704500I0J262500D01*
G01*
X214930000Y-107179500D01*
G75*
G02*
X215192500Y-106917000I262500J0D01*
G01*
X215817500Y-106917000D01*
G75*
G02*
X216080000Y-107179500I0J-262500D01*
G01*
G37*
G36*
G01*
X214330000Y-107179500D02*
X214330000Y-107704500D01*
G75*
G02*
X214067500Y-107967000I-262500J0D01*
G01*
X213442500Y-107967000D01*
G75*
G02*
X213180000Y-107704500I0J262500D01*
G01*
X213180000Y-107179500D01*
G75*
G02*
X213442500Y-106917000I262500J0D01*
G01*
X214067500Y-106917000D01*
G75*
G02*
X214330000Y-107179500I0J-262500D01*
G01*
G37*
%TD*%
%TO.C,D16*%
G36*
G01*
X214076000Y-128261500D02*
X214076000Y-128786500D01*
G75*
G02*
X213813500Y-129049000I-262500J0D01*
G01*
X213188500Y-129049000D01*
G75*
G02*
X212926000Y-128786500I0J262500D01*
G01*
X212926000Y-128261500D01*
G75*
G02*
X213188500Y-127999000I262500J0D01*
G01*
X213813500Y-127999000D01*
G75*
G02*
X214076000Y-128261500I0J-262500D01*
G01*
G37*
G36*
G01*
X215826000Y-128261500D02*
X215826000Y-128786500D01*
G75*
G02*
X215563500Y-129049000I-262500J0D01*
G01*
X214938500Y-129049000D01*
G75*
G02*
X214676000Y-128786500I0J262500D01*
G01*
X214676000Y-128261500D01*
G75*
G02*
X214938500Y-127999000I262500J0D01*
G01*
X215563500Y-127999000D01*
G75*
G02*
X215826000Y-128261500I0J-262500D01*
G01*
G37*
%TD*%
%TO.C,D17*%
G36*
G01*
X200755000Y-30217500D02*
X200755000Y-30742500D01*
G75*
G02*
X200492500Y-31005000I-262500J0D01*
G01*
X199867500Y-31005000D01*
G75*
G02*
X199605000Y-30742500I0J262500D01*
G01*
X199605000Y-30217500D01*
G75*
G02*
X199867500Y-29955000I262500J0D01*
G01*
X200492500Y-29955000D01*
G75*
G02*
X200755000Y-30217500I0J-262500D01*
G01*
G37*
G36*
G01*
X202505000Y-30217500D02*
X202505000Y-30742500D01*
G75*
G02*
X202242500Y-31005000I-262500J0D01*
G01*
X201617500Y-31005000D01*
G75*
G02*
X201355000Y-30742500I0J262500D01*
G01*
X201355000Y-30217500D01*
G75*
G02*
X201617500Y-29955000I262500J0D01*
G01*
X202242500Y-29955000D01*
G75*
G02*
X202505000Y-30217500I0J-262500D01*
G01*
G37*
%TD*%
D26*
%TO.C,F1*%
X124587000Y-54102000D03*
X121158000Y-54102000D03*
X121158000Y-40640000D03*
X124587000Y-40640000D03*
%TD*%
%TO.C,F2*%
X138557000Y-40132000D03*
X135128000Y-40132000D03*
X135128000Y-53594000D03*
X138557000Y-53594000D03*
%TD*%
%TO.C,F3*%
X106045000Y-40513000D03*
X102616000Y-40513000D03*
X102616000Y-53975000D03*
X106045000Y-53975000D03*
%TD*%
%TO.C,F4*%
X154559000Y-53086000D03*
X151130000Y-53086000D03*
X151130000Y-39624000D03*
X154559000Y-39624000D03*
%TD*%
%TO.C,F5*%
X181356000Y-49657000D03*
X181356000Y-46228000D03*
X194818000Y-46228000D03*
X194818000Y-49657000D03*
%TD*%
%TO.C,F6*%
X194564000Y-116967000D03*
X194564000Y-113538000D03*
X181102000Y-113538000D03*
X181102000Y-116967000D03*
%TD*%
%TO.C,F7*%
X195326000Y-73279000D03*
X195326000Y-69850000D03*
X181864000Y-69850000D03*
X181864000Y-73279000D03*
%TD*%
%TO.C,F8*%
X194564000Y-138303000D03*
X194564000Y-134874000D03*
X181102000Y-134874000D03*
X181102000Y-138303000D03*
%TD*%
%TO.C,F9*%
X168783000Y-53086000D03*
X165354000Y-53086000D03*
X165354000Y-39624000D03*
X168783000Y-39624000D03*
%TD*%
%TO.C,F10*%
X181610000Y-94615000D03*
X181610000Y-91186000D03*
X195072000Y-91186000D03*
X195072000Y-94615000D03*
%TD*%
D27*
%TO.C,GND1*%
X204978000Y-162306000D03*
%TD*%
D28*
%TO.C,J3V1*%
X90932000Y-71374000D03*
%TD*%
%TO.C,J5V1*%
X212598000Y-148336000D03*
%TD*%
D14*
%TO.C,Q6*%
G36*
X198622345Y-106177344D02*
G01*
X198626328Y-106164212D01*
X198632797Y-106152110D01*
X198641503Y-106141503D01*
X198652110Y-106132797D01*
X198664212Y-106126328D01*
X198677344Y-106122345D01*
X198691000Y-106121000D01*
X203391000Y-106121000D01*
X203404656Y-106122345D01*
X203417788Y-106126328D01*
X203429890Y-106132797D01*
X203440497Y-106141503D01*
X203449203Y-106152110D01*
X203455672Y-106164212D01*
X203459655Y-106177344D01*
X203461000Y-106191000D01*
X203461000Y-107741000D01*
X203459655Y-107754656D01*
X203455672Y-107767788D01*
X203449203Y-107779890D01*
X203440497Y-107790497D01*
X203429890Y-107799203D01*
X203417788Y-107805672D01*
X203404656Y-107809655D01*
X203391000Y-107811000D01*
X203211000Y-107811000D01*
X203211000Y-110816000D01*
X203209655Y-110829656D01*
X203205672Y-110842788D01*
X203199203Y-110854890D01*
X203190497Y-110865497D01*
X203179890Y-110874203D01*
X203167788Y-110880672D01*
X203154656Y-110884655D01*
X203141000Y-110886000D01*
X198941000Y-110886000D01*
X198927344Y-110884655D01*
X198914212Y-110880672D01*
X198902110Y-110874203D01*
X198891503Y-110865497D01*
X198882797Y-110854890D01*
X198876328Y-110842788D01*
X198872345Y-110829656D01*
X198871000Y-110816000D01*
X198871000Y-107811000D01*
X198691000Y-107811000D01*
X198677344Y-107809655D01*
X198664212Y-107805672D01*
X198652110Y-107799203D01*
X198641503Y-107790497D01*
X198632797Y-107779890D01*
X198626328Y-107767788D01*
X198622345Y-107754656D01*
X198621000Y-107741000D01*
X198621000Y-106191000D01*
X198622345Y-106177344D01*
G37*
D15*
X202951000Y-112436000D03*
X201681000Y-112436000D03*
X199131000Y-112436000D03*
X200401000Y-112436000D03*
%TD*%
%TO.C,Q8*%
X200655000Y-133264000D03*
X199385000Y-133264000D03*
X201935000Y-133264000D03*
X203205000Y-133264000D03*
D14*
G36*
X198876345Y-127005344D02*
G01*
X198880328Y-126992212D01*
X198886797Y-126980110D01*
X198895503Y-126969503D01*
X198906110Y-126960797D01*
X198918212Y-126954328D01*
X198931344Y-126950345D01*
X198945000Y-126949000D01*
X203645000Y-126949000D01*
X203658656Y-126950345D01*
X203671788Y-126954328D01*
X203683890Y-126960797D01*
X203694497Y-126969503D01*
X203703203Y-126980110D01*
X203709672Y-126992212D01*
X203713655Y-127005344D01*
X203715000Y-127019000D01*
X203715000Y-128569000D01*
X203713655Y-128582656D01*
X203709672Y-128595788D01*
X203703203Y-128607890D01*
X203694497Y-128618497D01*
X203683890Y-128627203D01*
X203671788Y-128633672D01*
X203658656Y-128637655D01*
X203645000Y-128639000D01*
X203465000Y-128639000D01*
X203465000Y-131644000D01*
X203463655Y-131657656D01*
X203459672Y-131670788D01*
X203453203Y-131682890D01*
X203444497Y-131693497D01*
X203433890Y-131702203D01*
X203421788Y-131708672D01*
X203408656Y-131712655D01*
X203395000Y-131714000D01*
X199195000Y-131714000D01*
X199181344Y-131712655D01*
X199168212Y-131708672D01*
X199156110Y-131702203D01*
X199145503Y-131693497D01*
X199136797Y-131682890D01*
X199130328Y-131670788D01*
X199126345Y-131657656D01*
X199125000Y-131644000D01*
X199125000Y-128639000D01*
X198945000Y-128639000D01*
X198931344Y-128637655D01*
X198918212Y-128633672D01*
X198906110Y-128627203D01*
X198895503Y-128618497D01*
X198886797Y-128607890D01*
X198880328Y-128595788D01*
X198876345Y-128582656D01*
X198875000Y-128569000D01*
X198875000Y-127019000D01*
X198876345Y-127005344D01*
G37*
%TD*%
%TO.C,Q9*%
G36*
X174619345Y-28253344D02*
G01*
X174623328Y-28240212D01*
X174629797Y-28228110D01*
X174638503Y-28217503D01*
X174649110Y-28208797D01*
X174661212Y-28202328D01*
X174674344Y-28198345D01*
X174688000Y-28197000D01*
X179388000Y-28197000D01*
X179401656Y-28198345D01*
X179414788Y-28202328D01*
X179426890Y-28208797D01*
X179437497Y-28217503D01*
X179446203Y-28228110D01*
X179452672Y-28240212D01*
X179456655Y-28253344D01*
X179458000Y-28267000D01*
X179458000Y-29817000D01*
X179456655Y-29830656D01*
X179452672Y-29843788D01*
X179446203Y-29855890D01*
X179437497Y-29866497D01*
X179426890Y-29875203D01*
X179414788Y-29881672D01*
X179401656Y-29885655D01*
X179388000Y-29887000D01*
X179208000Y-29887000D01*
X179208000Y-32892000D01*
X179206655Y-32905656D01*
X179202672Y-32918788D01*
X179196203Y-32930890D01*
X179187497Y-32941497D01*
X179176890Y-32950203D01*
X179164788Y-32956672D01*
X179151656Y-32960655D01*
X179138000Y-32962000D01*
X174938000Y-32962000D01*
X174924344Y-32960655D01*
X174911212Y-32956672D01*
X174899110Y-32950203D01*
X174888503Y-32941497D01*
X174879797Y-32930890D01*
X174873328Y-32918788D01*
X174869345Y-32905656D01*
X174868000Y-32892000D01*
X174868000Y-29887000D01*
X174688000Y-29887000D01*
X174674344Y-29885655D01*
X174661212Y-29881672D01*
X174649110Y-29875203D01*
X174638503Y-29866497D01*
X174629797Y-29855890D01*
X174623328Y-29843788D01*
X174619345Y-29830656D01*
X174618000Y-29817000D01*
X174618000Y-28267000D01*
X174619345Y-28253344D01*
G37*
D15*
X178948000Y-34512000D03*
X177678000Y-34512000D03*
X175128000Y-34512000D03*
X176398000Y-34512000D03*
%TD*%
%TO.C,R17*%
G36*
G01*
X205985500Y-147761000D02*
X206510500Y-147761000D01*
G75*
G02*
X206773000Y-148023500I0J-262500D01*
G01*
X206773000Y-148648500D01*
G75*
G02*
X206510500Y-148911000I-262500J0D01*
G01*
X205985500Y-148911000D01*
G75*
G02*
X205723000Y-148648500I0J262500D01*
G01*
X205723000Y-148023500D01*
G75*
G02*
X205985500Y-147761000I262500J0D01*
G01*
G37*
G36*
G01*
X205985500Y-146011000D02*
X206510500Y-146011000D01*
G75*
G02*
X206773000Y-146273500I0J-262500D01*
G01*
X206773000Y-146898500D01*
G75*
G02*
X206510500Y-147161000I-262500J0D01*
G01*
X205985500Y-147161000D01*
G75*
G02*
X205723000Y-146898500I0J262500D01*
G01*
X205723000Y-146273500D01*
G75*
G02*
X205985500Y-146011000I262500J0D01*
G01*
G37*
%TD*%
%TO.C,R18*%
G36*
G01*
X91881000Y-60206500D02*
X91881000Y-59681500D01*
G75*
G02*
X92143500Y-59419000I262500J0D01*
G01*
X92768500Y-59419000D01*
G75*
G02*
X93031000Y-59681500I0J-262500D01*
G01*
X93031000Y-60206500D01*
G75*
G02*
X92768500Y-60469000I-262500J0D01*
G01*
X92143500Y-60469000D01*
G75*
G02*
X91881000Y-60206500I0J262500D01*
G01*
G37*
G36*
G01*
X90131000Y-60206500D02*
X90131000Y-59681500D01*
G75*
G02*
X90393500Y-59419000I262500J0D01*
G01*
X91018500Y-59419000D01*
G75*
G02*
X91281000Y-59681500I0J-262500D01*
G01*
X91281000Y-60206500D01*
G75*
G02*
X91018500Y-60469000I-262500J0D01*
G01*
X90393500Y-60469000D01*
G75*
G02*
X90131000Y-60206500I0J262500D01*
G01*
G37*
%TD*%
%TO.C,R19*%
G36*
G01*
X203500000Y-125230500D02*
X203500000Y-124705500D01*
G75*
G02*
X203762500Y-124443000I262500J0D01*
G01*
X204387500Y-124443000D01*
G75*
G02*
X204650000Y-124705500I0J-262500D01*
G01*
X204650000Y-125230500D01*
G75*
G02*
X204387500Y-125493000I-262500J0D01*
G01*
X203762500Y-125493000D01*
G75*
G02*
X203500000Y-125230500I0J262500D01*
G01*
G37*
G36*
G01*
X201750000Y-125230500D02*
X201750000Y-124705500D01*
G75*
G02*
X202012500Y-124443000I262500J0D01*
G01*
X202637500Y-124443000D01*
G75*
G02*
X202900000Y-124705500I0J-262500D01*
G01*
X202900000Y-125230500D01*
G75*
G02*
X202637500Y-125493000I-262500J0D01*
G01*
X202012500Y-125493000D01*
G75*
G02*
X201750000Y-125230500I0J262500D01*
G01*
G37*
%TD*%
%TO.C,R21*%
G36*
G01*
X202175500Y-145997000D02*
X202700500Y-145997000D01*
G75*
G02*
X202963000Y-146259500I0J-262500D01*
G01*
X202963000Y-146884500D01*
G75*
G02*
X202700500Y-147147000I-262500J0D01*
G01*
X202175500Y-147147000D01*
G75*
G02*
X201913000Y-146884500I0J262500D01*
G01*
X201913000Y-146259500D01*
G75*
G02*
X202175500Y-145997000I262500J0D01*
G01*
G37*
G36*
G01*
X202175500Y-147747000D02*
X202700500Y-147747000D01*
G75*
G02*
X202963000Y-148009500I0J-262500D01*
G01*
X202963000Y-148634500D01*
G75*
G02*
X202700500Y-148897000I-262500J0D01*
G01*
X202175500Y-148897000D01*
G75*
G02*
X201913000Y-148634500I0J262500D01*
G01*
X201913000Y-148009500D01*
G75*
G02*
X202175500Y-147747000I262500J0D01*
G01*
G37*
%TD*%
%TO.C,R22*%
G36*
G01*
X206313392Y-109357000D02*
X209230608Y-109357000D01*
G75*
G02*
X209497000Y-109623392I0J-266392D01*
G01*
X209497000Y-110715608D01*
G75*
G02*
X209230608Y-110982000I-266392J0D01*
G01*
X206313392Y-110982000D01*
G75*
G02*
X206047000Y-110715608I0J266392D01*
G01*
X206047000Y-109623392D01*
G75*
G02*
X206313392Y-109357000I266392J0D01*
G01*
G37*
G36*
G01*
X206313392Y-115332000D02*
X209230608Y-115332000D01*
G75*
G02*
X209497000Y-115598392I0J-266392D01*
G01*
X209497000Y-116690608D01*
G75*
G02*
X209230608Y-116957000I-266392J0D01*
G01*
X206313392Y-116957000D01*
G75*
G02*
X206047000Y-116690608I0J266392D01*
G01*
X206047000Y-115598392D01*
G75*
G02*
X206313392Y-115332000I266392J0D01*
G01*
G37*
%TD*%
%TO.C,R24*%
G36*
G01*
X206059392Y-135906000D02*
X208976608Y-135906000D01*
G75*
G02*
X209243000Y-136172392I0J-266392D01*
G01*
X209243000Y-137264608D01*
G75*
G02*
X208976608Y-137531000I-266392J0D01*
G01*
X206059392Y-137531000D01*
G75*
G02*
X205793000Y-137264608I0J266392D01*
G01*
X205793000Y-136172392D01*
G75*
G02*
X206059392Y-135906000I266392J0D01*
G01*
G37*
G36*
G01*
X206059392Y-129931000D02*
X208976608Y-129931000D01*
G75*
G02*
X209243000Y-130197392I0J-266392D01*
G01*
X209243000Y-131289608D01*
G75*
G02*
X208976608Y-131556000I-266392J0D01*
G01*
X206059392Y-131556000D01*
G75*
G02*
X205793000Y-131289608I0J266392D01*
G01*
X205793000Y-130197392D01*
G75*
G02*
X206059392Y-129931000I266392J0D01*
G01*
G37*
%TD*%
%TO.C,R25*%
G36*
G01*
X210612000Y-107704500D02*
X210612000Y-107179500D01*
G75*
G02*
X210874500Y-106917000I262500J0D01*
G01*
X211499500Y-106917000D01*
G75*
G02*
X211762000Y-107179500I0J-262500D01*
G01*
X211762000Y-107704500D01*
G75*
G02*
X211499500Y-107967000I-262500J0D01*
G01*
X210874500Y-107967000D01*
G75*
G02*
X210612000Y-107704500I0J262500D01*
G01*
G37*
G36*
G01*
X208862000Y-107704500D02*
X208862000Y-107179500D01*
G75*
G02*
X209124500Y-106917000I262500J0D01*
G01*
X209749500Y-106917000D01*
G75*
G02*
X210012000Y-107179500I0J-262500D01*
G01*
X210012000Y-107704500D01*
G75*
G02*
X209749500Y-107967000I-262500J0D01*
G01*
X209124500Y-107967000D01*
G75*
G02*
X208862000Y-107704500I0J262500D01*
G01*
G37*
%TD*%
%TO.C,R27*%
G36*
G01*
X208862000Y-128786500D02*
X208862000Y-128261500D01*
G75*
G02*
X209124500Y-127999000I262500J0D01*
G01*
X209749500Y-127999000D01*
G75*
G02*
X210012000Y-128261500I0J-262500D01*
G01*
X210012000Y-128786500D01*
G75*
G02*
X209749500Y-129049000I-262500J0D01*
G01*
X209124500Y-129049000D01*
G75*
G02*
X208862000Y-128786500I0J262500D01*
G01*
G37*
G36*
G01*
X210612000Y-128786500D02*
X210612000Y-128261500D01*
G75*
G02*
X210874500Y-127999000I262500J0D01*
G01*
X211499500Y-127999000D01*
G75*
G02*
X211762000Y-128261500I0J-262500D01*
G01*
X211762000Y-128786500D01*
G75*
G02*
X211499500Y-129049000I-262500J0D01*
G01*
X210874500Y-129049000D01*
G75*
G02*
X210612000Y-128786500I0J262500D01*
G01*
G37*
%TD*%
%TO.C,R28*%
G36*
G01*
X188768000Y-38870500D02*
X188768000Y-38345500D01*
G75*
G02*
X189030500Y-38083000I262500J0D01*
G01*
X189655500Y-38083000D01*
G75*
G02*
X189918000Y-38345500I0J-262500D01*
G01*
X189918000Y-38870500D01*
G75*
G02*
X189655500Y-39133000I-262500J0D01*
G01*
X189030500Y-39133000D01*
G75*
G02*
X188768000Y-38870500I0J262500D01*
G01*
G37*
G36*
G01*
X187018000Y-38870500D02*
X187018000Y-38345500D01*
G75*
G02*
X187280500Y-38083000I262500J0D01*
G01*
X187905500Y-38083000D01*
G75*
G02*
X188168000Y-38345500I0J-262500D01*
G01*
X188168000Y-38870500D01*
G75*
G02*
X187905500Y-39133000I-262500J0D01*
G01*
X187280500Y-39133000D01*
G75*
G02*
X187018000Y-38870500I0J262500D01*
G01*
G37*
%TD*%
%TO.C,R30*%
G36*
G01*
X181051500Y-32700608D02*
X181051500Y-29783392D01*
G75*
G02*
X181317892Y-29517000I266392J0D01*
G01*
X182410108Y-29517000D01*
G75*
G02*
X182676500Y-29783392I0J-266392D01*
G01*
X182676500Y-32700608D01*
G75*
G02*
X182410108Y-32967000I-266392J0D01*
G01*
X181317892Y-32967000D01*
G75*
G02*
X181051500Y-32700608I0J266392D01*
G01*
G37*
G36*
G01*
X187026500Y-32700608D02*
X187026500Y-29783392D01*
G75*
G02*
X187292892Y-29517000I266392J0D01*
G01*
X188385108Y-29517000D01*
G75*
G02*
X188651500Y-29783392I0J-266392D01*
G01*
X188651500Y-32700608D01*
G75*
G02*
X188385108Y-32967000I-266392J0D01*
G01*
X187292892Y-32967000D01*
G75*
G02*
X187026500Y-32700608I0J266392D01*
G01*
G37*
%TD*%
%TO.C,R32*%
G36*
G01*
X195287000Y-30742500D02*
X195287000Y-30217500D01*
G75*
G02*
X195549500Y-29955000I262500J0D01*
G01*
X196174500Y-29955000D01*
G75*
G02*
X196437000Y-30217500I0J-262500D01*
G01*
X196437000Y-30742500D01*
G75*
G02*
X196174500Y-31005000I-262500J0D01*
G01*
X195549500Y-31005000D01*
G75*
G02*
X195287000Y-30742500I0J262500D01*
G01*
G37*
G36*
G01*
X197037000Y-30742500D02*
X197037000Y-30217500D01*
G75*
G02*
X197299500Y-29955000I262500J0D01*
G01*
X197924500Y-29955000D01*
G75*
G02*
X198187000Y-30217500I0J-262500D01*
G01*
X198187000Y-30742500D01*
G75*
G02*
X197924500Y-31005000I-262500J0D01*
G01*
X197299500Y-31005000D01*
G75*
G02*
X197037000Y-30742500I0J262500D01*
G01*
G37*
%TD*%
D11*
%TO.C,U12*%
X96012000Y-41402000D03*
X93472000Y-41402000D03*
X90932000Y-41402000D03*
%TD*%
%TO.C,U13*%
X182626000Y-166116000D03*
X182626000Y-168656000D03*
X182626000Y-171196000D03*
%TD*%
D20*
%TO.C,U14*%
X199136000Y-122588000D03*
X200406000Y-122588000D03*
X201676000Y-122588000D03*
X202946000Y-122588000D03*
X202946000Y-117188000D03*
X201676000Y-117188000D03*
X199136000Y-117188000D03*
%TD*%
%TO.C,U16*%
X199263000Y-138778000D03*
X201803000Y-138778000D03*
X203073000Y-138778000D03*
X203073000Y-144178000D03*
X201803000Y-144178000D03*
X200533000Y-144178000D03*
X199263000Y-144178000D03*
%TD*%
D13*
%TO.C,U17*%
X213548000Y-113618000D03*
X211648000Y-113618000D03*
X211648000Y-110918000D03*
X212598000Y-110918000D03*
X213548000Y-110918000D03*
%TD*%
%TO.C,U19*%
X214183000Y-132000000D03*
X213233000Y-132000000D03*
X212283000Y-132000000D03*
X212283000Y-134700000D03*
X214183000Y-134700000D03*
%TD*%
D16*
%TO.C,U20*%
X179578000Y-41148000D03*
X179578000Y-38608000D03*
X179578000Y-37338000D03*
X184978000Y-37338000D03*
X184978000Y-38608000D03*
X184978000Y-39878000D03*
X184978000Y-41148000D03*
%TD*%
D17*
%TO.C,U22*%
X181784000Y-25974000D03*
X181784000Y-26924000D03*
X181784000Y-27874000D03*
X184484000Y-27874000D03*
X184484000Y-25974000D03*
%TD*%
D27*
%TO.C,V1*%
X104140000Y-162560000D03*
%TD*%
M02*
