%TF.GenerationSoftware,KiCad,Pcbnew,(5.1.6)-1*%
%TF.CreationDate,2022-03-18T21:22:57-05:00*%
%TF.ProjectId,PackVoltage_2022_Rev1,5061636b-566f-46c7-9461-67655f323032,rev?*%
%TF.SameCoordinates,Original*%
%TF.FileFunction,Soldermask,Bot*%
%TF.FilePolarity,Negative*%
%FSLAX46Y46*%
G04 Gerber Fmt 4.6, Leading zero omitted, Abs format (unit mm)*
G04 Created by KiCad (PCBNEW (5.1.6)-1) date 2022-03-18 21:22:57*
%MOMM*%
%LPD*%
G01*
G04 APERTURE LIST*
%ADD10C,2.946400*%
%ADD11O,5.100000X3.000000*%
%ADD12O,3.000000X5.100000*%
%ADD13C,1.524000*%
%ADD14C,3.450000*%
%ADD15C,18.288000*%
%ADD16C,1.308000*%
%ADD17C,1.258000*%
%ADD18C,1.208000*%
%ADD19C,1.358000*%
%ADD20R,1.358000X1.358000*%
%ADD21C,1.100000*%
%ADD22C,4.000000*%
%ADD23C,1.400000*%
%ADD24C,2.000000*%
%ADD25C,2.819400*%
%ADD26O,2.600000X2.600000*%
%ADD27R,2.600000X2.600000*%
%ADD28O,1.350000X1.350000*%
%ADD29R,1.350000X1.350000*%
%ADD30C,2.400000*%
%ADD31R,2.400000X2.400000*%
G04 APERTURE END LIST*
D10*
%TO.C,REF\u002A\u002A*%
X-21590000Y-29464000D03*
%TD*%
%TO.C,REF\u002A\u002A*%
X-21590000Y-148971000D03*
%TD*%
%TO.C,REF\u002A\u002A*%
X224282000Y-148971000D03*
%TD*%
%TO.C,REF\u002A\u002A*%
X224282000Y-29464000D03*
%TD*%
D11*
%TO.C,Conn12*%
X60864000Y-43492000D03*
X60864000Y-51366000D03*
%TD*%
D12*
%TO.C,Conn11*%
X-7562000Y-133192000D03*
X312000Y-133192000D03*
%TD*%
D11*
%TO.C,Conn10*%
X79152000Y-43492000D03*
X79152000Y-51366000D03*
%TD*%
%TO.C,Conn9*%
X97440000Y-43492000D03*
X97440000Y-51366000D03*
%TD*%
%TO.C,Conn8*%
X115728000Y-43492000D03*
X115728000Y-51366000D03*
%TD*%
%TO.C,Conn7*%
X133889000Y-43492000D03*
X133889000Y-51366000D03*
%TD*%
%TO.C,Conn6*%
X151923000Y-43492000D03*
X151923000Y-51366000D03*
%TD*%
%TO.C,Conn5*%
X170211000Y-43492000D03*
X170211000Y-51366000D03*
%TD*%
%TO.C,Conn4*%
X188372000Y-43492000D03*
X188372000Y-51366000D03*
%TD*%
%TO.C,Conn3*%
X42322000Y-43492000D03*
X42322000Y-51366000D03*
%TD*%
D13*
%TO.C,Conn2*%
X-13716000Y-67056000D03*
X-13716000Y-69596000D03*
X-13716000Y-72136000D03*
X-13716000Y-74676000D03*
D14*
X-22352000Y-65786000D03*
X-22352000Y-88646000D03*
D13*
X-13716000Y-77216000D03*
X-13716000Y-79756000D03*
X-13716000Y-82296000D03*
X-13716000Y-84836000D03*
X-13716000Y-87376000D03*
%TD*%
%TO.C,Conn1*%
X-13716000Y-38989000D03*
X-13716000Y-41529000D03*
X-13716000Y-44069000D03*
X-13716000Y-46609000D03*
D14*
X-22352000Y-37719000D03*
X-22352000Y-60579000D03*
D13*
X-13716000Y-49149000D03*
X-13716000Y-51689000D03*
X-13716000Y-54229000D03*
X-13716000Y-56769000D03*
X-13716000Y-59309000D03*
%TD*%
D15*
%TO.C,V1*%
X209296000Y-112522000D03*
%TD*%
D16*
%TO.C,U20*%
X11811000Y-68707000D03*
X11811000Y-71247000D03*
X11811000Y-73787000D03*
X11811000Y-76327000D03*
X11811000Y-78867000D03*
X11811000Y-81407000D03*
X11811000Y-83947000D03*
X11811000Y-86487000D03*
X11811000Y-89027000D03*
X-3429000Y-89027000D03*
X-3429000Y-86487000D03*
X-3429000Y-83947000D03*
X-3429000Y-81407000D03*
X-3429000Y-78867000D03*
X-3429000Y-76327000D03*
X-3429000Y-73787000D03*
X-3429000Y-71247000D03*
X-3429000Y-68707000D03*
X11811000Y-30607000D03*
X11811000Y-33147000D03*
X11811000Y-35687000D03*
X11811000Y-38227000D03*
X11811000Y-40767000D03*
X11811000Y-43307000D03*
X11811000Y-45847000D03*
X11811000Y-48387000D03*
X11811000Y-50927000D03*
X11811000Y-53467000D03*
X11811000Y-56007000D03*
X11811000Y-58547000D03*
X11811000Y-61087000D03*
X11811000Y-63627000D03*
X-3429000Y-66167000D03*
X-3429000Y-63627000D03*
X-3429000Y-61087000D03*
X-3429000Y-58547000D03*
X-3429000Y-56007000D03*
X-3429000Y-53467000D03*
X-3429000Y-50927000D03*
X-3429000Y-48387000D03*
X-3429000Y-45847000D03*
X-3429000Y-43307000D03*
X-3429000Y-40767000D03*
X-3429000Y-38227000D03*
X-3429000Y-35687000D03*
D17*
X-379000Y-47117000D03*
X-379000Y-44577000D03*
X-379000Y-42037000D03*
X-379000Y-39497000D03*
X-379000Y-36957000D03*
D18*
X5361000Y-43577000D03*
X7361000Y-43577000D03*
X5361000Y-45577000D03*
X7361000Y-45577000D03*
X9361000Y-43577000D03*
X9361000Y-45577000D03*
D16*
X11811000Y-66167000D03*
X6731000Y-76327000D03*
X9271000Y-33147000D03*
X9271000Y-76327000D03*
X4191000Y-76327000D03*
X1651000Y-76327000D03*
X-889000Y-76327000D03*
X-3429000Y-33147000D03*
X-3429000Y-30607000D03*
%TD*%
D19*
%TO.C,U2*%
X22959000Y-94615000D03*
X22959000Y-97155000D03*
D20*
X22959000Y-99695000D03*
%TD*%
D19*
%TO.C,U1*%
X33881000Y-94615000D03*
X33881000Y-97155000D03*
D20*
X33881000Y-99695000D03*
%TD*%
D21*
%TO.C,J1*%
X22223000Y-45639000D03*
X24763000Y-45639000D03*
X27303000Y-45639000D03*
X29843000Y-45639000D03*
X23493000Y-43099000D03*
X26033000Y-43099000D03*
X28573000Y-43099000D03*
X31113000Y-43099000D03*
D22*
X20953000Y-36749000D03*
X32383000Y-36749000D03*
D23*
X22883000Y-31669000D03*
X30453000Y-33459000D03*
X20343000Y-33459000D03*
X32993000Y-31669000D03*
D24*
X34543000Y-39799000D03*
X18793000Y-39799000D03*
%TD*%
D15*
%TO.C,GND1*%
X209296000Y-44450000D03*
%TD*%
D25*
%TO.C,F10*%
X46228000Y-88138000D03*
X42799000Y-88138000D03*
X42799000Y-74676000D03*
X46228000Y-74676000D03*
%TD*%
%TO.C,F9*%
X95377000Y-88138000D03*
X91948000Y-88138000D03*
X91948000Y-74676000D03*
X95377000Y-74676000D03*
%TD*%
%TO.C,F8*%
X113665000Y-88138000D03*
X110236000Y-88138000D03*
X110236000Y-74676000D03*
X113665000Y-74676000D03*
%TD*%
%TO.C,F7*%
X77216000Y-88138000D03*
X73787000Y-88138000D03*
X73787000Y-74676000D03*
X77216000Y-74676000D03*
%TD*%
%TO.C,F6*%
X58928000Y-88138000D03*
X55499000Y-88138000D03*
X55499000Y-74676000D03*
X58928000Y-74676000D03*
%TD*%
%TO.C,F5*%
X11557000Y-135001000D03*
X11557000Y-131572000D03*
X25019000Y-131572000D03*
X25019000Y-135001000D03*
%TD*%
%TO.C,F4*%
X131953000Y-88138000D03*
X128524000Y-88138000D03*
X128524000Y-74676000D03*
X131953000Y-74676000D03*
%TD*%
%TO.C,F3*%
X150368000Y-88138000D03*
X146939000Y-88138000D03*
X146939000Y-74676000D03*
X150368000Y-74676000D03*
%TD*%
%TO.C,F2*%
X168656000Y-88138000D03*
X165227000Y-88138000D03*
X165227000Y-74676000D03*
X168656000Y-74676000D03*
%TD*%
%TO.C,F1*%
X186817000Y-88138000D03*
X183388000Y-88138000D03*
X183388000Y-74676000D03*
X186817000Y-74676000D03*
%TD*%
D26*
%TO.C,D4*%
X215392000Y-60960000D03*
D27*
X215392000Y-66040000D03*
%TD*%
D26*
%TO.C,D3*%
X202565000Y-60960000D03*
D27*
X202565000Y-66040000D03*
%TD*%
D28*
%TO.C,Conn13*%
X28512000Y-48800000D03*
X28512000Y-50800000D03*
X30512000Y-48800000D03*
X30512000Y-50800000D03*
X32512000Y-48800000D03*
D29*
X32512000Y-50800000D03*
%TD*%
D30*
%TO.C,C8*%
X220265000Y-92456000D03*
D31*
X215265000Y-92456000D03*
%TD*%
D30*
%TO.C,C7*%
X206422000Y-92329000D03*
D31*
X201422000Y-92329000D03*
%TD*%
D30*
%TO.C,C6*%
X220265000Y-77470000D03*
D31*
X215265000Y-77470000D03*
%TD*%
D30*
%TO.C,C5*%
X206422000Y-77470000D03*
D31*
X201422000Y-77470000D03*
%TD*%
M02*
