%TF.GenerationSoftware,KiCad,Pcbnew,(5.1.6)-1*%
%TF.CreationDate,2022-03-18T21:22:57-05:00*%
%TF.ProjectId,PackVoltage_2022_Rev1,5061636b-566f-46c7-9461-67655f323032,rev?*%
%TF.SameCoordinates,Original*%
%TF.FileFunction,Soldermask,Top*%
%TF.FilePolarity,Negative*%
%FSLAX46Y46*%
G04 Gerber Fmt 4.6, Leading zero omitted, Abs format (unit mm)*
G04 Created by KiCad (PCBNEW (5.1.6)-1) date 2022-03-18 21:22:57*
%MOMM*%
%LPD*%
G01*
G04 APERTURE LIST*
%ADD10C,2.946400*%
%ADD11O,5.100000X3.000000*%
%ADD12O,3.000000X5.100000*%
%ADD13C,1.524000*%
%ADD14C,3.450000*%
%ADD15C,18.288000*%
%ADD16C,1.308000*%
%ADD17C,1.258000*%
%ADD18C,1.208000*%
%ADD19R,0.650000X1.060000*%
%ADD20C,1.358000*%
%ADD21R,1.358000X1.358000*%
%ADD22C,0.100000*%
%ADD23R,0.500000X0.930000*%
%ADD24C,1.100000*%
%ADD25C,4.000000*%
%ADD26C,1.400000*%
%ADD27C,2.000000*%
%ADD28C,2.819400*%
%ADD29O,2.600000X2.600000*%
%ADD30R,2.600000X2.600000*%
%ADD31O,1.350000X1.350000*%
%ADD32R,1.350000X1.350000*%
%ADD33C,2.400000*%
%ADD34R,2.400000X2.400000*%
G04 APERTURE END LIST*
D10*
%TO.C,REF\u002A\u002A*%
X-21590000Y-29464000D03*
%TD*%
%TO.C,REF\u002A\u002A*%
X-21590000Y-148971000D03*
%TD*%
%TO.C,REF\u002A\u002A*%
X224282000Y-148971000D03*
%TD*%
%TO.C,REF\u002A\u002A*%
X224282000Y-29464000D03*
%TD*%
%TO.C,C4*%
G36*
G01*
X33398000Y-89645500D02*
X33398000Y-89170500D01*
G75*
G02*
X33635500Y-88933000I237500J0D01*
G01*
X34235500Y-88933000D01*
G75*
G02*
X34473000Y-89170500I0J-237500D01*
G01*
X34473000Y-89645500D01*
G75*
G02*
X34235500Y-89883000I-237500J0D01*
G01*
X33635500Y-89883000D01*
G75*
G02*
X33398000Y-89645500I0J237500D01*
G01*
G37*
G36*
G01*
X35123000Y-89645500D02*
X35123000Y-89170500D01*
G75*
G02*
X35360500Y-88933000I237500J0D01*
G01*
X35960500Y-88933000D01*
G75*
G02*
X36198000Y-89170500I0J-237500D01*
G01*
X36198000Y-89645500D01*
G75*
G02*
X35960500Y-89883000I-237500J0D01*
G01*
X35360500Y-89883000D01*
G75*
G02*
X35123000Y-89645500I0J237500D01*
G01*
G37*
%TD*%
%TO.C,C3*%
G36*
G01*
X22603000Y-89772500D02*
X22603000Y-89297500D01*
G75*
G02*
X22840500Y-89060000I237500J0D01*
G01*
X23440500Y-89060000D01*
G75*
G02*
X23678000Y-89297500I0J-237500D01*
G01*
X23678000Y-89772500D01*
G75*
G02*
X23440500Y-90010000I-237500J0D01*
G01*
X22840500Y-90010000D01*
G75*
G02*
X22603000Y-89772500I0J237500D01*
G01*
G37*
G36*
G01*
X24328000Y-89772500D02*
X24328000Y-89297500D01*
G75*
G02*
X24565500Y-89060000I237500J0D01*
G01*
X25165500Y-89060000D01*
G75*
G02*
X25403000Y-89297500I0J-237500D01*
G01*
X25403000Y-89772500D01*
G75*
G02*
X25165500Y-90010000I-237500J0D01*
G01*
X24565500Y-90010000D01*
G75*
G02*
X24328000Y-89772500I0J237500D01*
G01*
G37*
%TD*%
D11*
%TO.C,Conn12*%
X60864000Y-43492000D03*
X60864000Y-51366000D03*
%TD*%
D12*
%TO.C,Conn11*%
X-7562000Y-133192000D03*
X312000Y-133192000D03*
%TD*%
D11*
%TO.C,Conn10*%
X79152000Y-43492000D03*
X79152000Y-51366000D03*
%TD*%
%TO.C,Conn9*%
X97440000Y-43492000D03*
X97440000Y-51366000D03*
%TD*%
%TO.C,Conn8*%
X115728000Y-43492000D03*
X115728000Y-51366000D03*
%TD*%
%TO.C,Conn7*%
X133889000Y-43492000D03*
X133889000Y-51366000D03*
%TD*%
%TO.C,Conn6*%
X151923000Y-43492000D03*
X151923000Y-51366000D03*
%TD*%
%TO.C,Conn5*%
X170211000Y-43492000D03*
X170211000Y-51366000D03*
%TD*%
%TO.C,Conn4*%
X188372000Y-43492000D03*
X188372000Y-51366000D03*
%TD*%
%TO.C,Conn3*%
X42322000Y-43492000D03*
X42322000Y-51366000D03*
%TD*%
D13*
%TO.C,Conn2*%
X-13716000Y-67056000D03*
X-13716000Y-69596000D03*
X-13716000Y-72136000D03*
X-13716000Y-74676000D03*
D14*
X-22352000Y-65786000D03*
X-22352000Y-88646000D03*
D13*
X-13716000Y-77216000D03*
X-13716000Y-79756000D03*
X-13716000Y-82296000D03*
X-13716000Y-84836000D03*
X-13716000Y-87376000D03*
%TD*%
%TO.C,Conn1*%
X-13716000Y-38989000D03*
X-13716000Y-41529000D03*
X-13716000Y-44069000D03*
X-13716000Y-46609000D03*
D14*
X-22352000Y-37719000D03*
X-22352000Y-60579000D03*
D13*
X-13716000Y-49149000D03*
X-13716000Y-51689000D03*
X-13716000Y-54229000D03*
X-13716000Y-56769000D03*
X-13716000Y-59309000D03*
%TD*%
D15*
%TO.C,V1*%
X209296000Y-112522000D03*
%TD*%
D16*
%TO.C,U20*%
X11811000Y-68707000D03*
X11811000Y-71247000D03*
X11811000Y-73787000D03*
X11811000Y-76327000D03*
X11811000Y-78867000D03*
X11811000Y-81407000D03*
X11811000Y-83947000D03*
X11811000Y-86487000D03*
X11811000Y-89027000D03*
X-3429000Y-89027000D03*
X-3429000Y-86487000D03*
X-3429000Y-83947000D03*
X-3429000Y-81407000D03*
X-3429000Y-78867000D03*
X-3429000Y-76327000D03*
X-3429000Y-73787000D03*
X-3429000Y-71247000D03*
X-3429000Y-68707000D03*
X11811000Y-30607000D03*
X11811000Y-33147000D03*
X11811000Y-35687000D03*
X11811000Y-38227000D03*
X11811000Y-40767000D03*
X11811000Y-43307000D03*
X11811000Y-45847000D03*
X11811000Y-48387000D03*
X11811000Y-50927000D03*
X11811000Y-53467000D03*
X11811000Y-56007000D03*
X11811000Y-58547000D03*
X11811000Y-61087000D03*
X11811000Y-63627000D03*
X-3429000Y-66167000D03*
X-3429000Y-63627000D03*
X-3429000Y-61087000D03*
X-3429000Y-58547000D03*
X-3429000Y-56007000D03*
X-3429000Y-53467000D03*
X-3429000Y-50927000D03*
X-3429000Y-48387000D03*
X-3429000Y-45847000D03*
X-3429000Y-43307000D03*
X-3429000Y-40767000D03*
X-3429000Y-38227000D03*
X-3429000Y-35687000D03*
D17*
X-379000Y-47117000D03*
X-379000Y-44577000D03*
X-379000Y-42037000D03*
X-379000Y-39497000D03*
X-379000Y-36957000D03*
D18*
X5361000Y-43577000D03*
X7361000Y-43577000D03*
X5361000Y-45577000D03*
X7361000Y-45577000D03*
X9361000Y-43577000D03*
X9361000Y-45577000D03*
D16*
X11811000Y-66167000D03*
X6731000Y-76327000D03*
X9271000Y-33147000D03*
X9271000Y-76327000D03*
X4191000Y-76327000D03*
X1651000Y-76327000D03*
X-889000Y-76327000D03*
X-3429000Y-33147000D03*
X-3429000Y-30607000D03*
%TD*%
%TO.C,U19*%
G36*
G01*
X38584000Y-73302000D02*
X38584000Y-73002000D01*
G75*
G02*
X38734000Y-72852000I150000J0D01*
G01*
X40384000Y-72852000D01*
G75*
G02*
X40534000Y-73002000I0J-150000D01*
G01*
X40534000Y-73302000D01*
G75*
G02*
X40384000Y-73452000I-150000J0D01*
G01*
X38734000Y-73452000D01*
G75*
G02*
X38584000Y-73302000I0J150000D01*
G01*
G37*
G36*
G01*
X38584000Y-74572000D02*
X38584000Y-74272000D01*
G75*
G02*
X38734000Y-74122000I150000J0D01*
G01*
X40384000Y-74122000D01*
G75*
G02*
X40534000Y-74272000I0J-150000D01*
G01*
X40534000Y-74572000D01*
G75*
G02*
X40384000Y-74722000I-150000J0D01*
G01*
X38734000Y-74722000D01*
G75*
G02*
X38584000Y-74572000I0J150000D01*
G01*
G37*
G36*
G01*
X38584000Y-75842000D02*
X38584000Y-75542000D01*
G75*
G02*
X38734000Y-75392000I150000J0D01*
G01*
X40384000Y-75392000D01*
G75*
G02*
X40534000Y-75542000I0J-150000D01*
G01*
X40534000Y-75842000D01*
G75*
G02*
X40384000Y-75992000I-150000J0D01*
G01*
X38734000Y-75992000D01*
G75*
G02*
X38584000Y-75842000I0J150000D01*
G01*
G37*
G36*
G01*
X38584000Y-77112000D02*
X38584000Y-76812000D01*
G75*
G02*
X38734000Y-76662000I150000J0D01*
G01*
X40384000Y-76662000D01*
G75*
G02*
X40534000Y-76812000I0J-150000D01*
G01*
X40534000Y-77112000D01*
G75*
G02*
X40384000Y-77262000I-150000J0D01*
G01*
X38734000Y-77262000D01*
G75*
G02*
X38584000Y-77112000I0J150000D01*
G01*
G37*
G36*
G01*
X33634000Y-77112000D02*
X33634000Y-76812000D01*
G75*
G02*
X33784000Y-76662000I150000J0D01*
G01*
X35434000Y-76662000D01*
G75*
G02*
X35584000Y-76812000I0J-150000D01*
G01*
X35584000Y-77112000D01*
G75*
G02*
X35434000Y-77262000I-150000J0D01*
G01*
X33784000Y-77262000D01*
G75*
G02*
X33634000Y-77112000I0J150000D01*
G01*
G37*
G36*
G01*
X33634000Y-75842000D02*
X33634000Y-75542000D01*
G75*
G02*
X33784000Y-75392000I150000J0D01*
G01*
X35434000Y-75392000D01*
G75*
G02*
X35584000Y-75542000I0J-150000D01*
G01*
X35584000Y-75842000D01*
G75*
G02*
X35434000Y-75992000I-150000J0D01*
G01*
X33784000Y-75992000D01*
G75*
G02*
X33634000Y-75842000I0J150000D01*
G01*
G37*
G36*
G01*
X33634000Y-74572000D02*
X33634000Y-74272000D01*
G75*
G02*
X33784000Y-74122000I150000J0D01*
G01*
X35434000Y-74122000D01*
G75*
G02*
X35584000Y-74272000I0J-150000D01*
G01*
X35584000Y-74572000D01*
G75*
G02*
X35434000Y-74722000I-150000J0D01*
G01*
X33784000Y-74722000D01*
G75*
G02*
X33634000Y-74572000I0J150000D01*
G01*
G37*
G36*
G01*
X33634000Y-73302000D02*
X33634000Y-73002000D01*
G75*
G02*
X33784000Y-72852000I150000J0D01*
G01*
X35434000Y-72852000D01*
G75*
G02*
X35584000Y-73002000I0J-150000D01*
G01*
X35584000Y-73302000D01*
G75*
G02*
X35434000Y-73452000I-150000J0D01*
G01*
X33784000Y-73452000D01*
G75*
G02*
X33634000Y-73302000I0J150000D01*
G01*
G37*
%TD*%
D19*
%TO.C,U18*%
X91252000Y-57193000D03*
X93152000Y-57193000D03*
X93152000Y-59393000D03*
X92202000Y-59393000D03*
X91252000Y-59393000D03*
%TD*%
%TO.C,U17*%
X109540000Y-57193000D03*
X111440000Y-57193000D03*
X111440000Y-59393000D03*
X110490000Y-59393000D03*
X109540000Y-59393000D03*
%TD*%
%TO.C,U16*%
X72964000Y-57193000D03*
X74864000Y-57193000D03*
X74864000Y-59393000D03*
X73914000Y-59393000D03*
X72964000Y-59393000D03*
%TD*%
%TO.C,U15*%
X54676000Y-57193000D03*
X56576000Y-57193000D03*
X56576000Y-59393000D03*
X55626000Y-59393000D03*
X54676000Y-59393000D03*
%TD*%
%TO.C,U14*%
G36*
G01*
X90528000Y-67032000D02*
X90828000Y-67032000D01*
G75*
G02*
X90978000Y-67182000I0J-150000D01*
G01*
X90978000Y-68832000D01*
G75*
G02*
X90828000Y-68982000I-150000J0D01*
G01*
X90528000Y-68982000D01*
G75*
G02*
X90378000Y-68832000I0J150000D01*
G01*
X90378000Y-67182000D01*
G75*
G02*
X90528000Y-67032000I150000J0D01*
G01*
G37*
G36*
G01*
X89258000Y-67032000D02*
X89558000Y-67032000D01*
G75*
G02*
X89708000Y-67182000I0J-150000D01*
G01*
X89708000Y-68832000D01*
G75*
G02*
X89558000Y-68982000I-150000J0D01*
G01*
X89258000Y-68982000D01*
G75*
G02*
X89108000Y-68832000I0J150000D01*
G01*
X89108000Y-67182000D01*
G75*
G02*
X89258000Y-67032000I150000J0D01*
G01*
G37*
G36*
G01*
X87988000Y-67032000D02*
X88288000Y-67032000D01*
G75*
G02*
X88438000Y-67182000I0J-150000D01*
G01*
X88438000Y-68832000D01*
G75*
G02*
X88288000Y-68982000I-150000J0D01*
G01*
X87988000Y-68982000D01*
G75*
G02*
X87838000Y-68832000I0J150000D01*
G01*
X87838000Y-67182000D01*
G75*
G02*
X87988000Y-67032000I150000J0D01*
G01*
G37*
G36*
G01*
X86718000Y-67032000D02*
X87018000Y-67032000D01*
G75*
G02*
X87168000Y-67182000I0J-150000D01*
G01*
X87168000Y-68832000D01*
G75*
G02*
X87018000Y-68982000I-150000J0D01*
G01*
X86718000Y-68982000D01*
G75*
G02*
X86568000Y-68832000I0J150000D01*
G01*
X86568000Y-67182000D01*
G75*
G02*
X86718000Y-67032000I150000J0D01*
G01*
G37*
G36*
G01*
X86718000Y-62082000D02*
X87018000Y-62082000D01*
G75*
G02*
X87168000Y-62232000I0J-150000D01*
G01*
X87168000Y-63882000D01*
G75*
G02*
X87018000Y-64032000I-150000J0D01*
G01*
X86718000Y-64032000D01*
G75*
G02*
X86568000Y-63882000I0J150000D01*
G01*
X86568000Y-62232000D01*
G75*
G02*
X86718000Y-62082000I150000J0D01*
G01*
G37*
G36*
G01*
X87988000Y-62082000D02*
X88288000Y-62082000D01*
G75*
G02*
X88438000Y-62232000I0J-150000D01*
G01*
X88438000Y-63882000D01*
G75*
G02*
X88288000Y-64032000I-150000J0D01*
G01*
X87988000Y-64032000D01*
G75*
G02*
X87838000Y-63882000I0J150000D01*
G01*
X87838000Y-62232000D01*
G75*
G02*
X87988000Y-62082000I150000J0D01*
G01*
G37*
G36*
G01*
X89258000Y-62082000D02*
X89558000Y-62082000D01*
G75*
G02*
X89708000Y-62232000I0J-150000D01*
G01*
X89708000Y-63882000D01*
G75*
G02*
X89558000Y-64032000I-150000J0D01*
G01*
X89258000Y-64032000D01*
G75*
G02*
X89108000Y-63882000I0J150000D01*
G01*
X89108000Y-62232000D01*
G75*
G02*
X89258000Y-62082000I150000J0D01*
G01*
G37*
G36*
G01*
X90528000Y-62082000D02*
X90828000Y-62082000D01*
G75*
G02*
X90978000Y-62232000I0J-150000D01*
G01*
X90978000Y-63882000D01*
G75*
G02*
X90828000Y-64032000I-150000J0D01*
G01*
X90528000Y-64032000D01*
G75*
G02*
X90378000Y-63882000I0J150000D01*
G01*
X90378000Y-62232000D01*
G75*
G02*
X90528000Y-62082000I150000J0D01*
G01*
G37*
%TD*%
%TO.C,U13*%
G36*
G01*
X108816000Y-67032000D02*
X109116000Y-67032000D01*
G75*
G02*
X109266000Y-67182000I0J-150000D01*
G01*
X109266000Y-68832000D01*
G75*
G02*
X109116000Y-68982000I-150000J0D01*
G01*
X108816000Y-68982000D01*
G75*
G02*
X108666000Y-68832000I0J150000D01*
G01*
X108666000Y-67182000D01*
G75*
G02*
X108816000Y-67032000I150000J0D01*
G01*
G37*
G36*
G01*
X107546000Y-67032000D02*
X107846000Y-67032000D01*
G75*
G02*
X107996000Y-67182000I0J-150000D01*
G01*
X107996000Y-68832000D01*
G75*
G02*
X107846000Y-68982000I-150000J0D01*
G01*
X107546000Y-68982000D01*
G75*
G02*
X107396000Y-68832000I0J150000D01*
G01*
X107396000Y-67182000D01*
G75*
G02*
X107546000Y-67032000I150000J0D01*
G01*
G37*
G36*
G01*
X106276000Y-67032000D02*
X106576000Y-67032000D01*
G75*
G02*
X106726000Y-67182000I0J-150000D01*
G01*
X106726000Y-68832000D01*
G75*
G02*
X106576000Y-68982000I-150000J0D01*
G01*
X106276000Y-68982000D01*
G75*
G02*
X106126000Y-68832000I0J150000D01*
G01*
X106126000Y-67182000D01*
G75*
G02*
X106276000Y-67032000I150000J0D01*
G01*
G37*
G36*
G01*
X105006000Y-67032000D02*
X105306000Y-67032000D01*
G75*
G02*
X105456000Y-67182000I0J-150000D01*
G01*
X105456000Y-68832000D01*
G75*
G02*
X105306000Y-68982000I-150000J0D01*
G01*
X105006000Y-68982000D01*
G75*
G02*
X104856000Y-68832000I0J150000D01*
G01*
X104856000Y-67182000D01*
G75*
G02*
X105006000Y-67032000I150000J0D01*
G01*
G37*
G36*
G01*
X105006000Y-62082000D02*
X105306000Y-62082000D01*
G75*
G02*
X105456000Y-62232000I0J-150000D01*
G01*
X105456000Y-63882000D01*
G75*
G02*
X105306000Y-64032000I-150000J0D01*
G01*
X105006000Y-64032000D01*
G75*
G02*
X104856000Y-63882000I0J150000D01*
G01*
X104856000Y-62232000D01*
G75*
G02*
X105006000Y-62082000I150000J0D01*
G01*
G37*
G36*
G01*
X106276000Y-62082000D02*
X106576000Y-62082000D01*
G75*
G02*
X106726000Y-62232000I0J-150000D01*
G01*
X106726000Y-63882000D01*
G75*
G02*
X106576000Y-64032000I-150000J0D01*
G01*
X106276000Y-64032000D01*
G75*
G02*
X106126000Y-63882000I0J150000D01*
G01*
X106126000Y-62232000D01*
G75*
G02*
X106276000Y-62082000I150000J0D01*
G01*
G37*
G36*
G01*
X107546000Y-62082000D02*
X107846000Y-62082000D01*
G75*
G02*
X107996000Y-62232000I0J-150000D01*
G01*
X107996000Y-63882000D01*
G75*
G02*
X107846000Y-64032000I-150000J0D01*
G01*
X107546000Y-64032000D01*
G75*
G02*
X107396000Y-63882000I0J150000D01*
G01*
X107396000Y-62232000D01*
G75*
G02*
X107546000Y-62082000I150000J0D01*
G01*
G37*
G36*
G01*
X108816000Y-62082000D02*
X109116000Y-62082000D01*
G75*
G02*
X109266000Y-62232000I0J-150000D01*
G01*
X109266000Y-63882000D01*
G75*
G02*
X109116000Y-64032000I-150000J0D01*
G01*
X108816000Y-64032000D01*
G75*
G02*
X108666000Y-63882000I0J150000D01*
G01*
X108666000Y-62232000D01*
G75*
G02*
X108816000Y-62082000I150000J0D01*
G01*
G37*
%TD*%
%TO.C,U12*%
G36*
G01*
X72367000Y-67032000D02*
X72667000Y-67032000D01*
G75*
G02*
X72817000Y-67182000I0J-150000D01*
G01*
X72817000Y-68832000D01*
G75*
G02*
X72667000Y-68982000I-150000J0D01*
G01*
X72367000Y-68982000D01*
G75*
G02*
X72217000Y-68832000I0J150000D01*
G01*
X72217000Y-67182000D01*
G75*
G02*
X72367000Y-67032000I150000J0D01*
G01*
G37*
G36*
G01*
X71097000Y-67032000D02*
X71397000Y-67032000D01*
G75*
G02*
X71547000Y-67182000I0J-150000D01*
G01*
X71547000Y-68832000D01*
G75*
G02*
X71397000Y-68982000I-150000J0D01*
G01*
X71097000Y-68982000D01*
G75*
G02*
X70947000Y-68832000I0J150000D01*
G01*
X70947000Y-67182000D01*
G75*
G02*
X71097000Y-67032000I150000J0D01*
G01*
G37*
G36*
G01*
X69827000Y-67032000D02*
X70127000Y-67032000D01*
G75*
G02*
X70277000Y-67182000I0J-150000D01*
G01*
X70277000Y-68832000D01*
G75*
G02*
X70127000Y-68982000I-150000J0D01*
G01*
X69827000Y-68982000D01*
G75*
G02*
X69677000Y-68832000I0J150000D01*
G01*
X69677000Y-67182000D01*
G75*
G02*
X69827000Y-67032000I150000J0D01*
G01*
G37*
G36*
G01*
X68557000Y-67032000D02*
X68857000Y-67032000D01*
G75*
G02*
X69007000Y-67182000I0J-150000D01*
G01*
X69007000Y-68832000D01*
G75*
G02*
X68857000Y-68982000I-150000J0D01*
G01*
X68557000Y-68982000D01*
G75*
G02*
X68407000Y-68832000I0J150000D01*
G01*
X68407000Y-67182000D01*
G75*
G02*
X68557000Y-67032000I150000J0D01*
G01*
G37*
G36*
G01*
X68557000Y-62082000D02*
X68857000Y-62082000D01*
G75*
G02*
X69007000Y-62232000I0J-150000D01*
G01*
X69007000Y-63882000D01*
G75*
G02*
X68857000Y-64032000I-150000J0D01*
G01*
X68557000Y-64032000D01*
G75*
G02*
X68407000Y-63882000I0J150000D01*
G01*
X68407000Y-62232000D01*
G75*
G02*
X68557000Y-62082000I150000J0D01*
G01*
G37*
G36*
G01*
X69827000Y-62082000D02*
X70127000Y-62082000D01*
G75*
G02*
X70277000Y-62232000I0J-150000D01*
G01*
X70277000Y-63882000D01*
G75*
G02*
X70127000Y-64032000I-150000J0D01*
G01*
X69827000Y-64032000D01*
G75*
G02*
X69677000Y-63882000I0J150000D01*
G01*
X69677000Y-62232000D01*
G75*
G02*
X69827000Y-62082000I150000J0D01*
G01*
G37*
G36*
G01*
X71097000Y-62082000D02*
X71397000Y-62082000D01*
G75*
G02*
X71547000Y-62232000I0J-150000D01*
G01*
X71547000Y-63882000D01*
G75*
G02*
X71397000Y-64032000I-150000J0D01*
G01*
X71097000Y-64032000D01*
G75*
G02*
X70947000Y-63882000I0J150000D01*
G01*
X70947000Y-62232000D01*
G75*
G02*
X71097000Y-62082000I150000J0D01*
G01*
G37*
G36*
G01*
X72367000Y-62082000D02*
X72667000Y-62082000D01*
G75*
G02*
X72817000Y-62232000I0J-150000D01*
G01*
X72817000Y-63882000D01*
G75*
G02*
X72667000Y-64032000I-150000J0D01*
G01*
X72367000Y-64032000D01*
G75*
G02*
X72217000Y-63882000I0J150000D01*
G01*
X72217000Y-62232000D01*
G75*
G02*
X72367000Y-62082000I150000J0D01*
G01*
G37*
%TD*%
%TO.C,U11*%
G36*
G01*
X54079000Y-67032000D02*
X54379000Y-67032000D01*
G75*
G02*
X54529000Y-67182000I0J-150000D01*
G01*
X54529000Y-68832000D01*
G75*
G02*
X54379000Y-68982000I-150000J0D01*
G01*
X54079000Y-68982000D01*
G75*
G02*
X53929000Y-68832000I0J150000D01*
G01*
X53929000Y-67182000D01*
G75*
G02*
X54079000Y-67032000I150000J0D01*
G01*
G37*
G36*
G01*
X52809000Y-67032000D02*
X53109000Y-67032000D01*
G75*
G02*
X53259000Y-67182000I0J-150000D01*
G01*
X53259000Y-68832000D01*
G75*
G02*
X53109000Y-68982000I-150000J0D01*
G01*
X52809000Y-68982000D01*
G75*
G02*
X52659000Y-68832000I0J150000D01*
G01*
X52659000Y-67182000D01*
G75*
G02*
X52809000Y-67032000I150000J0D01*
G01*
G37*
G36*
G01*
X51539000Y-67032000D02*
X51839000Y-67032000D01*
G75*
G02*
X51989000Y-67182000I0J-150000D01*
G01*
X51989000Y-68832000D01*
G75*
G02*
X51839000Y-68982000I-150000J0D01*
G01*
X51539000Y-68982000D01*
G75*
G02*
X51389000Y-68832000I0J150000D01*
G01*
X51389000Y-67182000D01*
G75*
G02*
X51539000Y-67032000I150000J0D01*
G01*
G37*
G36*
G01*
X50269000Y-67032000D02*
X50569000Y-67032000D01*
G75*
G02*
X50719000Y-67182000I0J-150000D01*
G01*
X50719000Y-68832000D01*
G75*
G02*
X50569000Y-68982000I-150000J0D01*
G01*
X50269000Y-68982000D01*
G75*
G02*
X50119000Y-68832000I0J150000D01*
G01*
X50119000Y-67182000D01*
G75*
G02*
X50269000Y-67032000I150000J0D01*
G01*
G37*
G36*
G01*
X50269000Y-62082000D02*
X50569000Y-62082000D01*
G75*
G02*
X50719000Y-62232000I0J-150000D01*
G01*
X50719000Y-63882000D01*
G75*
G02*
X50569000Y-64032000I-150000J0D01*
G01*
X50269000Y-64032000D01*
G75*
G02*
X50119000Y-63882000I0J150000D01*
G01*
X50119000Y-62232000D01*
G75*
G02*
X50269000Y-62082000I150000J0D01*
G01*
G37*
G36*
G01*
X51539000Y-62082000D02*
X51839000Y-62082000D01*
G75*
G02*
X51989000Y-62232000I0J-150000D01*
G01*
X51989000Y-63882000D01*
G75*
G02*
X51839000Y-64032000I-150000J0D01*
G01*
X51539000Y-64032000D01*
G75*
G02*
X51389000Y-63882000I0J150000D01*
G01*
X51389000Y-62232000D01*
G75*
G02*
X51539000Y-62082000I150000J0D01*
G01*
G37*
G36*
G01*
X52809000Y-62082000D02*
X53109000Y-62082000D01*
G75*
G02*
X53259000Y-62232000I0J-150000D01*
G01*
X53259000Y-63882000D01*
G75*
G02*
X53109000Y-64032000I-150000J0D01*
G01*
X52809000Y-64032000D01*
G75*
G02*
X52659000Y-63882000I0J150000D01*
G01*
X52659000Y-62232000D01*
G75*
G02*
X52809000Y-62082000I150000J0D01*
G01*
G37*
G36*
G01*
X54079000Y-62082000D02*
X54379000Y-62082000D01*
G75*
G02*
X54529000Y-62232000I0J-150000D01*
G01*
X54529000Y-63882000D01*
G75*
G02*
X54379000Y-64032000I-150000J0D01*
G01*
X54079000Y-64032000D01*
G75*
G02*
X53929000Y-63882000I0J150000D01*
G01*
X53929000Y-62232000D01*
G75*
G02*
X54079000Y-62082000I150000J0D01*
G01*
G37*
%TD*%
%TO.C,U10*%
X127828000Y-57193000D03*
X129728000Y-57193000D03*
X129728000Y-59393000D03*
X128778000Y-59393000D03*
X127828000Y-59393000D03*
%TD*%
%TO.C,U9*%
X146116000Y-57193000D03*
X148016000Y-57193000D03*
X148016000Y-59393000D03*
X147066000Y-59393000D03*
X146116000Y-59393000D03*
%TD*%
%TO.C,U8*%
X164404000Y-57193000D03*
X166304000Y-57193000D03*
X166304000Y-59393000D03*
X165354000Y-59393000D03*
X164404000Y-59393000D03*
%TD*%
%TO.C,U7*%
X182565000Y-57193000D03*
X184465000Y-57193000D03*
X184465000Y-59393000D03*
X183515000Y-59393000D03*
X182565000Y-59393000D03*
%TD*%
%TO.C,U6*%
G36*
G01*
X127104000Y-67032000D02*
X127404000Y-67032000D01*
G75*
G02*
X127554000Y-67182000I0J-150000D01*
G01*
X127554000Y-68832000D01*
G75*
G02*
X127404000Y-68982000I-150000J0D01*
G01*
X127104000Y-68982000D01*
G75*
G02*
X126954000Y-68832000I0J150000D01*
G01*
X126954000Y-67182000D01*
G75*
G02*
X127104000Y-67032000I150000J0D01*
G01*
G37*
G36*
G01*
X125834000Y-67032000D02*
X126134000Y-67032000D01*
G75*
G02*
X126284000Y-67182000I0J-150000D01*
G01*
X126284000Y-68832000D01*
G75*
G02*
X126134000Y-68982000I-150000J0D01*
G01*
X125834000Y-68982000D01*
G75*
G02*
X125684000Y-68832000I0J150000D01*
G01*
X125684000Y-67182000D01*
G75*
G02*
X125834000Y-67032000I150000J0D01*
G01*
G37*
G36*
G01*
X124564000Y-67032000D02*
X124864000Y-67032000D01*
G75*
G02*
X125014000Y-67182000I0J-150000D01*
G01*
X125014000Y-68832000D01*
G75*
G02*
X124864000Y-68982000I-150000J0D01*
G01*
X124564000Y-68982000D01*
G75*
G02*
X124414000Y-68832000I0J150000D01*
G01*
X124414000Y-67182000D01*
G75*
G02*
X124564000Y-67032000I150000J0D01*
G01*
G37*
G36*
G01*
X123294000Y-67032000D02*
X123594000Y-67032000D01*
G75*
G02*
X123744000Y-67182000I0J-150000D01*
G01*
X123744000Y-68832000D01*
G75*
G02*
X123594000Y-68982000I-150000J0D01*
G01*
X123294000Y-68982000D01*
G75*
G02*
X123144000Y-68832000I0J150000D01*
G01*
X123144000Y-67182000D01*
G75*
G02*
X123294000Y-67032000I150000J0D01*
G01*
G37*
G36*
G01*
X123294000Y-62082000D02*
X123594000Y-62082000D01*
G75*
G02*
X123744000Y-62232000I0J-150000D01*
G01*
X123744000Y-63882000D01*
G75*
G02*
X123594000Y-64032000I-150000J0D01*
G01*
X123294000Y-64032000D01*
G75*
G02*
X123144000Y-63882000I0J150000D01*
G01*
X123144000Y-62232000D01*
G75*
G02*
X123294000Y-62082000I150000J0D01*
G01*
G37*
G36*
G01*
X124564000Y-62082000D02*
X124864000Y-62082000D01*
G75*
G02*
X125014000Y-62232000I0J-150000D01*
G01*
X125014000Y-63882000D01*
G75*
G02*
X124864000Y-64032000I-150000J0D01*
G01*
X124564000Y-64032000D01*
G75*
G02*
X124414000Y-63882000I0J150000D01*
G01*
X124414000Y-62232000D01*
G75*
G02*
X124564000Y-62082000I150000J0D01*
G01*
G37*
G36*
G01*
X125834000Y-62082000D02*
X126134000Y-62082000D01*
G75*
G02*
X126284000Y-62232000I0J-150000D01*
G01*
X126284000Y-63882000D01*
G75*
G02*
X126134000Y-64032000I-150000J0D01*
G01*
X125834000Y-64032000D01*
G75*
G02*
X125684000Y-63882000I0J150000D01*
G01*
X125684000Y-62232000D01*
G75*
G02*
X125834000Y-62082000I150000J0D01*
G01*
G37*
G36*
G01*
X127104000Y-62082000D02*
X127404000Y-62082000D01*
G75*
G02*
X127554000Y-62232000I0J-150000D01*
G01*
X127554000Y-63882000D01*
G75*
G02*
X127404000Y-64032000I-150000J0D01*
G01*
X127104000Y-64032000D01*
G75*
G02*
X126954000Y-63882000I0J150000D01*
G01*
X126954000Y-62232000D01*
G75*
G02*
X127104000Y-62082000I150000J0D01*
G01*
G37*
%TD*%
%TO.C,U5*%
G36*
G01*
X145519000Y-67032000D02*
X145819000Y-67032000D01*
G75*
G02*
X145969000Y-67182000I0J-150000D01*
G01*
X145969000Y-68832000D01*
G75*
G02*
X145819000Y-68982000I-150000J0D01*
G01*
X145519000Y-68982000D01*
G75*
G02*
X145369000Y-68832000I0J150000D01*
G01*
X145369000Y-67182000D01*
G75*
G02*
X145519000Y-67032000I150000J0D01*
G01*
G37*
G36*
G01*
X144249000Y-67032000D02*
X144549000Y-67032000D01*
G75*
G02*
X144699000Y-67182000I0J-150000D01*
G01*
X144699000Y-68832000D01*
G75*
G02*
X144549000Y-68982000I-150000J0D01*
G01*
X144249000Y-68982000D01*
G75*
G02*
X144099000Y-68832000I0J150000D01*
G01*
X144099000Y-67182000D01*
G75*
G02*
X144249000Y-67032000I150000J0D01*
G01*
G37*
G36*
G01*
X142979000Y-67032000D02*
X143279000Y-67032000D01*
G75*
G02*
X143429000Y-67182000I0J-150000D01*
G01*
X143429000Y-68832000D01*
G75*
G02*
X143279000Y-68982000I-150000J0D01*
G01*
X142979000Y-68982000D01*
G75*
G02*
X142829000Y-68832000I0J150000D01*
G01*
X142829000Y-67182000D01*
G75*
G02*
X142979000Y-67032000I150000J0D01*
G01*
G37*
G36*
G01*
X141709000Y-67032000D02*
X142009000Y-67032000D01*
G75*
G02*
X142159000Y-67182000I0J-150000D01*
G01*
X142159000Y-68832000D01*
G75*
G02*
X142009000Y-68982000I-150000J0D01*
G01*
X141709000Y-68982000D01*
G75*
G02*
X141559000Y-68832000I0J150000D01*
G01*
X141559000Y-67182000D01*
G75*
G02*
X141709000Y-67032000I150000J0D01*
G01*
G37*
G36*
G01*
X141709000Y-62082000D02*
X142009000Y-62082000D01*
G75*
G02*
X142159000Y-62232000I0J-150000D01*
G01*
X142159000Y-63882000D01*
G75*
G02*
X142009000Y-64032000I-150000J0D01*
G01*
X141709000Y-64032000D01*
G75*
G02*
X141559000Y-63882000I0J150000D01*
G01*
X141559000Y-62232000D01*
G75*
G02*
X141709000Y-62082000I150000J0D01*
G01*
G37*
G36*
G01*
X142979000Y-62082000D02*
X143279000Y-62082000D01*
G75*
G02*
X143429000Y-62232000I0J-150000D01*
G01*
X143429000Y-63882000D01*
G75*
G02*
X143279000Y-64032000I-150000J0D01*
G01*
X142979000Y-64032000D01*
G75*
G02*
X142829000Y-63882000I0J150000D01*
G01*
X142829000Y-62232000D01*
G75*
G02*
X142979000Y-62082000I150000J0D01*
G01*
G37*
G36*
G01*
X144249000Y-62082000D02*
X144549000Y-62082000D01*
G75*
G02*
X144699000Y-62232000I0J-150000D01*
G01*
X144699000Y-63882000D01*
G75*
G02*
X144549000Y-64032000I-150000J0D01*
G01*
X144249000Y-64032000D01*
G75*
G02*
X144099000Y-63882000I0J150000D01*
G01*
X144099000Y-62232000D01*
G75*
G02*
X144249000Y-62082000I150000J0D01*
G01*
G37*
G36*
G01*
X145519000Y-62082000D02*
X145819000Y-62082000D01*
G75*
G02*
X145969000Y-62232000I0J-150000D01*
G01*
X145969000Y-63882000D01*
G75*
G02*
X145819000Y-64032000I-150000J0D01*
G01*
X145519000Y-64032000D01*
G75*
G02*
X145369000Y-63882000I0J150000D01*
G01*
X145369000Y-62232000D01*
G75*
G02*
X145519000Y-62082000I150000J0D01*
G01*
G37*
%TD*%
%TO.C,U4*%
G36*
G01*
X163807000Y-67032000D02*
X164107000Y-67032000D01*
G75*
G02*
X164257000Y-67182000I0J-150000D01*
G01*
X164257000Y-68832000D01*
G75*
G02*
X164107000Y-68982000I-150000J0D01*
G01*
X163807000Y-68982000D01*
G75*
G02*
X163657000Y-68832000I0J150000D01*
G01*
X163657000Y-67182000D01*
G75*
G02*
X163807000Y-67032000I150000J0D01*
G01*
G37*
G36*
G01*
X162537000Y-67032000D02*
X162837000Y-67032000D01*
G75*
G02*
X162987000Y-67182000I0J-150000D01*
G01*
X162987000Y-68832000D01*
G75*
G02*
X162837000Y-68982000I-150000J0D01*
G01*
X162537000Y-68982000D01*
G75*
G02*
X162387000Y-68832000I0J150000D01*
G01*
X162387000Y-67182000D01*
G75*
G02*
X162537000Y-67032000I150000J0D01*
G01*
G37*
G36*
G01*
X161267000Y-67032000D02*
X161567000Y-67032000D01*
G75*
G02*
X161717000Y-67182000I0J-150000D01*
G01*
X161717000Y-68832000D01*
G75*
G02*
X161567000Y-68982000I-150000J0D01*
G01*
X161267000Y-68982000D01*
G75*
G02*
X161117000Y-68832000I0J150000D01*
G01*
X161117000Y-67182000D01*
G75*
G02*
X161267000Y-67032000I150000J0D01*
G01*
G37*
G36*
G01*
X159997000Y-67032000D02*
X160297000Y-67032000D01*
G75*
G02*
X160447000Y-67182000I0J-150000D01*
G01*
X160447000Y-68832000D01*
G75*
G02*
X160297000Y-68982000I-150000J0D01*
G01*
X159997000Y-68982000D01*
G75*
G02*
X159847000Y-68832000I0J150000D01*
G01*
X159847000Y-67182000D01*
G75*
G02*
X159997000Y-67032000I150000J0D01*
G01*
G37*
G36*
G01*
X159997000Y-62082000D02*
X160297000Y-62082000D01*
G75*
G02*
X160447000Y-62232000I0J-150000D01*
G01*
X160447000Y-63882000D01*
G75*
G02*
X160297000Y-64032000I-150000J0D01*
G01*
X159997000Y-64032000D01*
G75*
G02*
X159847000Y-63882000I0J150000D01*
G01*
X159847000Y-62232000D01*
G75*
G02*
X159997000Y-62082000I150000J0D01*
G01*
G37*
G36*
G01*
X161267000Y-62082000D02*
X161567000Y-62082000D01*
G75*
G02*
X161717000Y-62232000I0J-150000D01*
G01*
X161717000Y-63882000D01*
G75*
G02*
X161567000Y-64032000I-150000J0D01*
G01*
X161267000Y-64032000D01*
G75*
G02*
X161117000Y-63882000I0J150000D01*
G01*
X161117000Y-62232000D01*
G75*
G02*
X161267000Y-62082000I150000J0D01*
G01*
G37*
G36*
G01*
X162537000Y-62082000D02*
X162837000Y-62082000D01*
G75*
G02*
X162987000Y-62232000I0J-150000D01*
G01*
X162987000Y-63882000D01*
G75*
G02*
X162837000Y-64032000I-150000J0D01*
G01*
X162537000Y-64032000D01*
G75*
G02*
X162387000Y-63882000I0J150000D01*
G01*
X162387000Y-62232000D01*
G75*
G02*
X162537000Y-62082000I150000J0D01*
G01*
G37*
G36*
G01*
X163807000Y-62082000D02*
X164107000Y-62082000D01*
G75*
G02*
X164257000Y-62232000I0J-150000D01*
G01*
X164257000Y-63882000D01*
G75*
G02*
X164107000Y-64032000I-150000J0D01*
G01*
X163807000Y-64032000D01*
G75*
G02*
X163657000Y-63882000I0J150000D01*
G01*
X163657000Y-62232000D01*
G75*
G02*
X163807000Y-62082000I150000J0D01*
G01*
G37*
%TD*%
%TO.C,U3*%
G36*
G01*
X182095000Y-67032000D02*
X182395000Y-67032000D01*
G75*
G02*
X182545000Y-67182000I0J-150000D01*
G01*
X182545000Y-68832000D01*
G75*
G02*
X182395000Y-68982000I-150000J0D01*
G01*
X182095000Y-68982000D01*
G75*
G02*
X181945000Y-68832000I0J150000D01*
G01*
X181945000Y-67182000D01*
G75*
G02*
X182095000Y-67032000I150000J0D01*
G01*
G37*
G36*
G01*
X180825000Y-67032000D02*
X181125000Y-67032000D01*
G75*
G02*
X181275000Y-67182000I0J-150000D01*
G01*
X181275000Y-68832000D01*
G75*
G02*
X181125000Y-68982000I-150000J0D01*
G01*
X180825000Y-68982000D01*
G75*
G02*
X180675000Y-68832000I0J150000D01*
G01*
X180675000Y-67182000D01*
G75*
G02*
X180825000Y-67032000I150000J0D01*
G01*
G37*
G36*
G01*
X179555000Y-67032000D02*
X179855000Y-67032000D01*
G75*
G02*
X180005000Y-67182000I0J-150000D01*
G01*
X180005000Y-68832000D01*
G75*
G02*
X179855000Y-68982000I-150000J0D01*
G01*
X179555000Y-68982000D01*
G75*
G02*
X179405000Y-68832000I0J150000D01*
G01*
X179405000Y-67182000D01*
G75*
G02*
X179555000Y-67032000I150000J0D01*
G01*
G37*
G36*
G01*
X178285000Y-67032000D02*
X178585000Y-67032000D01*
G75*
G02*
X178735000Y-67182000I0J-150000D01*
G01*
X178735000Y-68832000D01*
G75*
G02*
X178585000Y-68982000I-150000J0D01*
G01*
X178285000Y-68982000D01*
G75*
G02*
X178135000Y-68832000I0J150000D01*
G01*
X178135000Y-67182000D01*
G75*
G02*
X178285000Y-67032000I150000J0D01*
G01*
G37*
G36*
G01*
X178285000Y-62082000D02*
X178585000Y-62082000D01*
G75*
G02*
X178735000Y-62232000I0J-150000D01*
G01*
X178735000Y-63882000D01*
G75*
G02*
X178585000Y-64032000I-150000J0D01*
G01*
X178285000Y-64032000D01*
G75*
G02*
X178135000Y-63882000I0J150000D01*
G01*
X178135000Y-62232000D01*
G75*
G02*
X178285000Y-62082000I150000J0D01*
G01*
G37*
G36*
G01*
X179555000Y-62082000D02*
X179855000Y-62082000D01*
G75*
G02*
X180005000Y-62232000I0J-150000D01*
G01*
X180005000Y-63882000D01*
G75*
G02*
X179855000Y-64032000I-150000J0D01*
G01*
X179555000Y-64032000D01*
G75*
G02*
X179405000Y-63882000I0J150000D01*
G01*
X179405000Y-62232000D01*
G75*
G02*
X179555000Y-62082000I150000J0D01*
G01*
G37*
G36*
G01*
X180825000Y-62082000D02*
X181125000Y-62082000D01*
G75*
G02*
X181275000Y-62232000I0J-150000D01*
G01*
X181275000Y-63882000D01*
G75*
G02*
X181125000Y-64032000I-150000J0D01*
G01*
X180825000Y-64032000D01*
G75*
G02*
X180675000Y-63882000I0J150000D01*
G01*
X180675000Y-62232000D01*
G75*
G02*
X180825000Y-62082000I150000J0D01*
G01*
G37*
G36*
G01*
X182095000Y-62082000D02*
X182395000Y-62082000D01*
G75*
G02*
X182545000Y-62232000I0J-150000D01*
G01*
X182545000Y-63882000D01*
G75*
G02*
X182395000Y-64032000I-150000J0D01*
G01*
X182095000Y-64032000D01*
G75*
G02*
X181945000Y-63882000I0J150000D01*
G01*
X181945000Y-62232000D01*
G75*
G02*
X182095000Y-62082000I150000J0D01*
G01*
G37*
%TD*%
D20*
%TO.C,U2*%
X22959000Y-94615000D03*
X22959000Y-97155000D03*
D21*
X22959000Y-99695000D03*
%TD*%
D20*
%TO.C,U1*%
X33881000Y-94615000D03*
X33881000Y-97155000D03*
D21*
X33881000Y-99695000D03*
%TD*%
%TO.C,R29*%
G36*
G01*
X47354500Y-57868000D02*
X46879500Y-57868000D01*
G75*
G02*
X46642000Y-57630500I0J237500D01*
G01*
X46642000Y-57130500D01*
G75*
G02*
X46879500Y-56893000I237500J0D01*
G01*
X47354500Y-56893000D01*
G75*
G02*
X47592000Y-57130500I0J-237500D01*
G01*
X47592000Y-57630500D01*
G75*
G02*
X47354500Y-57868000I-237500J0D01*
G01*
G37*
G36*
G01*
X47354500Y-59693000D02*
X46879500Y-59693000D01*
G75*
G02*
X46642000Y-59455500I0J237500D01*
G01*
X46642000Y-58955500D01*
G75*
G02*
X46879500Y-58718000I237500J0D01*
G01*
X47354500Y-58718000D01*
G75*
G02*
X47592000Y-58955500I0J-237500D01*
G01*
X47592000Y-59455500D01*
G75*
G02*
X47354500Y-59693000I-237500J0D01*
G01*
G37*
%TD*%
%TO.C,R28*%
G36*
G01*
X30336500Y-72981000D02*
X29861500Y-72981000D01*
G75*
G02*
X29624000Y-72743500I0J237500D01*
G01*
X29624000Y-72243500D01*
G75*
G02*
X29861500Y-72006000I237500J0D01*
G01*
X30336500Y-72006000D01*
G75*
G02*
X30574000Y-72243500I0J-237500D01*
G01*
X30574000Y-72743500D01*
G75*
G02*
X30336500Y-72981000I-237500J0D01*
G01*
G37*
G36*
G01*
X30336500Y-74806000D02*
X29861500Y-74806000D01*
G75*
G02*
X29624000Y-74568500I0J237500D01*
G01*
X29624000Y-74068500D01*
G75*
G02*
X29861500Y-73831000I237500J0D01*
G01*
X30336500Y-73831000D01*
G75*
G02*
X30574000Y-74068500I0J-237500D01*
G01*
X30574000Y-74568500D01*
G75*
G02*
X30336500Y-74806000I-237500J0D01*
G01*
G37*
%TD*%
%TO.C,R27*%
G36*
G01*
X98580001Y-57467000D02*
X95729999Y-57467000D01*
G75*
G02*
X95480000Y-57217001I0J249999D01*
G01*
X95480000Y-56316999D01*
G75*
G02*
X95729999Y-56067000I249999J0D01*
G01*
X98580001Y-56067000D01*
G75*
G02*
X98830000Y-56316999I0J-249999D01*
G01*
X98830000Y-57217001D01*
G75*
G02*
X98580001Y-57467000I-249999J0D01*
G01*
G37*
G36*
G01*
X98580001Y-63567000D02*
X95729999Y-63567000D01*
G75*
G02*
X95480000Y-63317001I0J249999D01*
G01*
X95480000Y-62416999D01*
G75*
G02*
X95729999Y-62167000I249999J0D01*
G01*
X98580001Y-62167000D01*
G75*
G02*
X98830000Y-62416999I0J-249999D01*
G01*
X98830000Y-63317001D01*
G75*
G02*
X98580001Y-63567000I-249999J0D01*
G01*
G37*
%TD*%
%TO.C,R26*%
G36*
G01*
X101616500Y-65449000D02*
X102091500Y-65449000D01*
G75*
G02*
X102329000Y-65686500I0J-237500D01*
G01*
X102329000Y-66186500D01*
G75*
G02*
X102091500Y-66424000I-237500J0D01*
G01*
X101616500Y-66424000D01*
G75*
G02*
X101379000Y-66186500I0J237500D01*
G01*
X101379000Y-65686500D01*
G75*
G02*
X101616500Y-65449000I237500J0D01*
G01*
G37*
G36*
G01*
X101616500Y-63624000D02*
X102091500Y-63624000D01*
G75*
G02*
X102329000Y-63861500I0J-237500D01*
G01*
X102329000Y-64361500D01*
G75*
G02*
X102091500Y-64599000I-237500J0D01*
G01*
X101616500Y-64599000D01*
G75*
G02*
X101379000Y-64361500I0J237500D01*
G01*
X101379000Y-63861500D01*
G75*
G02*
X101616500Y-63624000I237500J0D01*
G01*
G37*
%TD*%
%TO.C,R25*%
G36*
G01*
X116741001Y-57467000D02*
X113890999Y-57467000D01*
G75*
G02*
X113641000Y-57217001I0J249999D01*
G01*
X113641000Y-56316999D01*
G75*
G02*
X113890999Y-56067000I249999J0D01*
G01*
X116741001Y-56067000D01*
G75*
G02*
X116991000Y-56316999I0J-249999D01*
G01*
X116991000Y-57217001D01*
G75*
G02*
X116741001Y-57467000I-249999J0D01*
G01*
G37*
G36*
G01*
X116741001Y-63567000D02*
X113890999Y-63567000D01*
G75*
G02*
X113641000Y-63317001I0J249999D01*
G01*
X113641000Y-62416999D01*
G75*
G02*
X113890999Y-62167000I249999J0D01*
G01*
X116741001Y-62167000D01*
G75*
G02*
X116991000Y-62416999I0J-249999D01*
G01*
X116991000Y-63317001D01*
G75*
G02*
X116741001Y-63567000I-249999J0D01*
G01*
G37*
%TD*%
%TO.C,R24*%
G36*
G01*
X80165001Y-57467000D02*
X77314999Y-57467000D01*
G75*
G02*
X77065000Y-57217001I0J249999D01*
G01*
X77065000Y-56316999D01*
G75*
G02*
X77314999Y-56067000I249999J0D01*
G01*
X80165001Y-56067000D01*
G75*
G02*
X80415000Y-56316999I0J-249999D01*
G01*
X80415000Y-57217001D01*
G75*
G02*
X80165001Y-57467000I-249999J0D01*
G01*
G37*
G36*
G01*
X80165001Y-63567000D02*
X77314999Y-63567000D01*
G75*
G02*
X77065000Y-63317001I0J249999D01*
G01*
X77065000Y-62416999D01*
G75*
G02*
X77314999Y-62167000I249999J0D01*
G01*
X80165001Y-62167000D01*
G75*
G02*
X80415000Y-62416999I0J-249999D01*
G01*
X80415000Y-63317001D01*
G75*
G02*
X80165001Y-63567000I-249999J0D01*
G01*
G37*
%TD*%
%TO.C,R23*%
G36*
G01*
X61877001Y-57467000D02*
X59026999Y-57467000D01*
G75*
G02*
X58777000Y-57217001I0J249999D01*
G01*
X58777000Y-56316999D01*
G75*
G02*
X59026999Y-56067000I249999J0D01*
G01*
X61877001Y-56067000D01*
G75*
G02*
X62127000Y-56316999I0J-249999D01*
G01*
X62127000Y-57217001D01*
G75*
G02*
X61877001Y-57467000I-249999J0D01*
G01*
G37*
G36*
G01*
X61877001Y-63567000D02*
X59026999Y-63567000D01*
G75*
G02*
X58777000Y-63317001I0J249999D01*
G01*
X58777000Y-62416999D01*
G75*
G02*
X59026999Y-62167000I249999J0D01*
G01*
X61877001Y-62167000D01*
G75*
G02*
X62127000Y-62416999I0J-249999D01*
G01*
X62127000Y-63317001D01*
G75*
G02*
X61877001Y-63567000I-249999J0D01*
G01*
G37*
%TD*%
%TO.C,R22*%
G36*
G01*
X119523500Y-65449000D02*
X119998500Y-65449000D01*
G75*
G02*
X120236000Y-65686500I0J-237500D01*
G01*
X120236000Y-66186500D01*
G75*
G02*
X119998500Y-66424000I-237500J0D01*
G01*
X119523500Y-66424000D01*
G75*
G02*
X119286000Y-66186500I0J237500D01*
G01*
X119286000Y-65686500D01*
G75*
G02*
X119523500Y-65449000I237500J0D01*
G01*
G37*
G36*
G01*
X119523500Y-63624000D02*
X119998500Y-63624000D01*
G75*
G02*
X120236000Y-63861500I0J-237500D01*
G01*
X120236000Y-64361500D01*
G75*
G02*
X119998500Y-64599000I-237500J0D01*
G01*
X119523500Y-64599000D01*
G75*
G02*
X119286000Y-64361500I0J237500D01*
G01*
X119286000Y-63861500D01*
G75*
G02*
X119523500Y-63624000I237500J0D01*
G01*
G37*
%TD*%
%TO.C,R21*%
G36*
G01*
X83074500Y-65449000D02*
X83549500Y-65449000D01*
G75*
G02*
X83787000Y-65686500I0J-237500D01*
G01*
X83787000Y-66186500D01*
G75*
G02*
X83549500Y-66424000I-237500J0D01*
G01*
X83074500Y-66424000D01*
G75*
G02*
X82837000Y-66186500I0J237500D01*
G01*
X82837000Y-65686500D01*
G75*
G02*
X83074500Y-65449000I237500J0D01*
G01*
G37*
G36*
G01*
X83074500Y-63624000D02*
X83549500Y-63624000D01*
G75*
G02*
X83787000Y-63861500I0J-237500D01*
G01*
X83787000Y-64361500D01*
G75*
G02*
X83549500Y-64599000I-237500J0D01*
G01*
X83074500Y-64599000D01*
G75*
G02*
X82837000Y-64361500I0J237500D01*
G01*
X82837000Y-63861500D01*
G75*
G02*
X83074500Y-63624000I237500J0D01*
G01*
G37*
%TD*%
%TO.C,R20*%
G36*
G01*
X64659500Y-65449000D02*
X65134500Y-65449000D01*
G75*
G02*
X65372000Y-65686500I0J-237500D01*
G01*
X65372000Y-66186500D01*
G75*
G02*
X65134500Y-66424000I-237500J0D01*
G01*
X64659500Y-66424000D01*
G75*
G02*
X64422000Y-66186500I0J237500D01*
G01*
X64422000Y-65686500D01*
G75*
G02*
X64659500Y-65449000I237500J0D01*
G01*
G37*
G36*
G01*
X64659500Y-63624000D02*
X65134500Y-63624000D01*
G75*
G02*
X65372000Y-63861500I0J-237500D01*
G01*
X65372000Y-64361500D01*
G75*
G02*
X65134500Y-64599000I-237500J0D01*
G01*
X64659500Y-64599000D01*
G75*
G02*
X64422000Y-64361500I0J237500D01*
G01*
X64422000Y-63861500D01*
G75*
G02*
X64659500Y-63624000I237500J0D01*
G01*
G37*
%TD*%
%TO.C,R19*%
G36*
G01*
X88690000Y-57387500D02*
X88690000Y-56912500D01*
G75*
G02*
X88927500Y-56675000I237500J0D01*
G01*
X89427500Y-56675000D01*
G75*
G02*
X89665000Y-56912500I0J-237500D01*
G01*
X89665000Y-57387500D01*
G75*
G02*
X89427500Y-57625000I-237500J0D01*
G01*
X88927500Y-57625000D01*
G75*
G02*
X88690000Y-57387500I0J237500D01*
G01*
G37*
G36*
G01*
X86865000Y-57387500D02*
X86865000Y-56912500D01*
G75*
G02*
X87102500Y-56675000I237500J0D01*
G01*
X87602500Y-56675000D01*
G75*
G02*
X87840000Y-56912500I0J-237500D01*
G01*
X87840000Y-57387500D01*
G75*
G02*
X87602500Y-57625000I-237500J0D01*
G01*
X87102500Y-57625000D01*
G75*
G02*
X86865000Y-57387500I0J237500D01*
G01*
G37*
%TD*%
%TO.C,R18*%
G36*
G01*
X106978000Y-57387500D02*
X106978000Y-56912500D01*
G75*
G02*
X107215500Y-56675000I237500J0D01*
G01*
X107715500Y-56675000D01*
G75*
G02*
X107953000Y-56912500I0J-237500D01*
G01*
X107953000Y-57387500D01*
G75*
G02*
X107715500Y-57625000I-237500J0D01*
G01*
X107215500Y-57625000D01*
G75*
G02*
X106978000Y-57387500I0J237500D01*
G01*
G37*
G36*
G01*
X105153000Y-57387500D02*
X105153000Y-56912500D01*
G75*
G02*
X105390500Y-56675000I237500J0D01*
G01*
X105890500Y-56675000D01*
G75*
G02*
X106128000Y-56912500I0J-237500D01*
G01*
X106128000Y-57387500D01*
G75*
G02*
X105890500Y-57625000I-237500J0D01*
G01*
X105390500Y-57625000D01*
G75*
G02*
X105153000Y-57387500I0J237500D01*
G01*
G37*
%TD*%
%TO.C,R17*%
G36*
G01*
X70402000Y-57387500D02*
X70402000Y-56912500D01*
G75*
G02*
X70639500Y-56675000I237500J0D01*
G01*
X71139500Y-56675000D01*
G75*
G02*
X71377000Y-56912500I0J-237500D01*
G01*
X71377000Y-57387500D01*
G75*
G02*
X71139500Y-57625000I-237500J0D01*
G01*
X70639500Y-57625000D01*
G75*
G02*
X70402000Y-57387500I0J237500D01*
G01*
G37*
G36*
G01*
X68577000Y-57387500D02*
X68577000Y-56912500D01*
G75*
G02*
X68814500Y-56675000I237500J0D01*
G01*
X69314500Y-56675000D01*
G75*
G02*
X69552000Y-56912500I0J-237500D01*
G01*
X69552000Y-57387500D01*
G75*
G02*
X69314500Y-57625000I-237500J0D01*
G01*
X68814500Y-57625000D01*
G75*
G02*
X68577000Y-57387500I0J237500D01*
G01*
G37*
%TD*%
%TO.C,R16*%
G36*
G01*
X51987000Y-57387500D02*
X51987000Y-56912500D01*
G75*
G02*
X52224500Y-56675000I237500J0D01*
G01*
X52724500Y-56675000D01*
G75*
G02*
X52962000Y-56912500I0J-237500D01*
G01*
X52962000Y-57387500D01*
G75*
G02*
X52724500Y-57625000I-237500J0D01*
G01*
X52224500Y-57625000D01*
G75*
G02*
X51987000Y-57387500I0J237500D01*
G01*
G37*
G36*
G01*
X50162000Y-57387500D02*
X50162000Y-56912500D01*
G75*
G02*
X50399500Y-56675000I237500J0D01*
G01*
X50899500Y-56675000D01*
G75*
G02*
X51137000Y-56912500I0J-237500D01*
G01*
X51137000Y-57387500D01*
G75*
G02*
X50899500Y-57625000I-237500J0D01*
G01*
X50399500Y-57625000D01*
G75*
G02*
X50162000Y-57387500I0J237500D01*
G01*
G37*
%TD*%
%TO.C,R14*%
G36*
G01*
X135029001Y-57465000D02*
X132178999Y-57465000D01*
G75*
G02*
X131929000Y-57215001I0J249999D01*
G01*
X131929000Y-56314999D01*
G75*
G02*
X132178999Y-56065000I249999J0D01*
G01*
X135029001Y-56065000D01*
G75*
G02*
X135279000Y-56314999I0J-249999D01*
G01*
X135279000Y-57215001D01*
G75*
G02*
X135029001Y-57465000I-249999J0D01*
G01*
G37*
G36*
G01*
X135029001Y-63565000D02*
X132178999Y-63565000D01*
G75*
G02*
X131929000Y-63315001I0J249999D01*
G01*
X131929000Y-62414999D01*
G75*
G02*
X132178999Y-62165000I249999J0D01*
G01*
X135029001Y-62165000D01*
G75*
G02*
X135279000Y-62414999I0J-249999D01*
G01*
X135279000Y-63315001D01*
G75*
G02*
X135029001Y-63565000I-249999J0D01*
G01*
G37*
%TD*%
%TO.C,R13*%
G36*
G01*
X137811500Y-65449000D02*
X138286500Y-65449000D01*
G75*
G02*
X138524000Y-65686500I0J-237500D01*
G01*
X138524000Y-66186500D01*
G75*
G02*
X138286500Y-66424000I-237500J0D01*
G01*
X137811500Y-66424000D01*
G75*
G02*
X137574000Y-66186500I0J237500D01*
G01*
X137574000Y-65686500D01*
G75*
G02*
X137811500Y-65449000I237500J0D01*
G01*
G37*
G36*
G01*
X137811500Y-63624000D02*
X138286500Y-63624000D01*
G75*
G02*
X138524000Y-63861500I0J-237500D01*
G01*
X138524000Y-64361500D01*
G75*
G02*
X138286500Y-64599000I-237500J0D01*
G01*
X137811500Y-64599000D01*
G75*
G02*
X137574000Y-64361500I0J237500D01*
G01*
X137574000Y-63861500D01*
G75*
G02*
X137811500Y-63624000I237500J0D01*
G01*
G37*
%TD*%
%TO.C,R12*%
G36*
G01*
X153317001Y-57467000D02*
X150466999Y-57467000D01*
G75*
G02*
X150217000Y-57217001I0J249999D01*
G01*
X150217000Y-56316999D01*
G75*
G02*
X150466999Y-56067000I249999J0D01*
G01*
X153317001Y-56067000D01*
G75*
G02*
X153567000Y-56316999I0J-249999D01*
G01*
X153567000Y-57217001D01*
G75*
G02*
X153317001Y-57467000I-249999J0D01*
G01*
G37*
G36*
G01*
X153317001Y-63567000D02*
X150466999Y-63567000D01*
G75*
G02*
X150217000Y-63317001I0J249999D01*
G01*
X150217000Y-62416999D01*
G75*
G02*
X150466999Y-62167000I249999J0D01*
G01*
X153317001Y-62167000D01*
G75*
G02*
X153567000Y-62416999I0J-249999D01*
G01*
X153567000Y-63317001D01*
G75*
G02*
X153317001Y-63567000I-249999J0D01*
G01*
G37*
%TD*%
%TO.C,R11*%
G36*
G01*
X171605001Y-57467000D02*
X168754999Y-57467000D01*
G75*
G02*
X168505000Y-57217001I0J249999D01*
G01*
X168505000Y-56316999D01*
G75*
G02*
X168754999Y-56067000I249999J0D01*
G01*
X171605001Y-56067000D01*
G75*
G02*
X171855000Y-56316999I0J-249999D01*
G01*
X171855000Y-57217001D01*
G75*
G02*
X171605001Y-57467000I-249999J0D01*
G01*
G37*
G36*
G01*
X171605001Y-63567000D02*
X168754999Y-63567000D01*
G75*
G02*
X168505000Y-63317001I0J249999D01*
G01*
X168505000Y-62416999D01*
G75*
G02*
X168754999Y-62167000I249999J0D01*
G01*
X171605001Y-62167000D01*
G75*
G02*
X171855000Y-62416999I0J-249999D01*
G01*
X171855000Y-63317001D01*
G75*
G02*
X171605001Y-63567000I-249999J0D01*
G01*
G37*
%TD*%
%TO.C,R10*%
G36*
G01*
X156099500Y-65449000D02*
X156574500Y-65449000D01*
G75*
G02*
X156812000Y-65686500I0J-237500D01*
G01*
X156812000Y-66186500D01*
G75*
G02*
X156574500Y-66424000I-237500J0D01*
G01*
X156099500Y-66424000D01*
G75*
G02*
X155862000Y-66186500I0J237500D01*
G01*
X155862000Y-65686500D01*
G75*
G02*
X156099500Y-65449000I237500J0D01*
G01*
G37*
G36*
G01*
X156099500Y-63624000D02*
X156574500Y-63624000D01*
G75*
G02*
X156812000Y-63861500I0J-237500D01*
G01*
X156812000Y-64361500D01*
G75*
G02*
X156574500Y-64599000I-237500J0D01*
G01*
X156099500Y-64599000D01*
G75*
G02*
X155862000Y-64361500I0J237500D01*
G01*
X155862000Y-63861500D01*
G75*
G02*
X156099500Y-63624000I237500J0D01*
G01*
G37*
%TD*%
%TO.C,R9*%
G36*
G01*
X189766001Y-57467000D02*
X186915999Y-57467000D01*
G75*
G02*
X186666000Y-57217001I0J249999D01*
G01*
X186666000Y-56316999D01*
G75*
G02*
X186915999Y-56067000I249999J0D01*
G01*
X189766001Y-56067000D01*
G75*
G02*
X190016000Y-56316999I0J-249999D01*
G01*
X190016000Y-57217001D01*
G75*
G02*
X189766001Y-57467000I-249999J0D01*
G01*
G37*
G36*
G01*
X189766001Y-63567000D02*
X186915999Y-63567000D01*
G75*
G02*
X186666000Y-63317001I0J249999D01*
G01*
X186666000Y-62416999D01*
G75*
G02*
X186915999Y-62167000I249999J0D01*
G01*
X189766001Y-62167000D01*
G75*
G02*
X190016000Y-62416999I0J-249999D01*
G01*
X190016000Y-63317001D01*
G75*
G02*
X189766001Y-63567000I-249999J0D01*
G01*
G37*
%TD*%
%TO.C,R8*%
G36*
G01*
X174895500Y-65449000D02*
X175370500Y-65449000D01*
G75*
G02*
X175608000Y-65686500I0J-237500D01*
G01*
X175608000Y-66186500D01*
G75*
G02*
X175370500Y-66424000I-237500J0D01*
G01*
X174895500Y-66424000D01*
G75*
G02*
X174658000Y-66186500I0J237500D01*
G01*
X174658000Y-65686500D01*
G75*
G02*
X174895500Y-65449000I237500J0D01*
G01*
G37*
G36*
G01*
X174895500Y-63624000D02*
X175370500Y-63624000D01*
G75*
G02*
X175608000Y-63861500I0J-237500D01*
G01*
X175608000Y-64361500D01*
G75*
G02*
X175370500Y-64599000I-237500J0D01*
G01*
X174895500Y-64599000D01*
G75*
G02*
X174658000Y-64361500I0J237500D01*
G01*
X174658000Y-63861500D01*
G75*
G02*
X174895500Y-63624000I237500J0D01*
G01*
G37*
%TD*%
%TO.C,R7*%
G36*
G01*
X193056500Y-65322000D02*
X193531500Y-65322000D01*
G75*
G02*
X193769000Y-65559500I0J-237500D01*
G01*
X193769000Y-66059500D01*
G75*
G02*
X193531500Y-66297000I-237500J0D01*
G01*
X193056500Y-66297000D01*
G75*
G02*
X192819000Y-66059500I0J237500D01*
G01*
X192819000Y-65559500D01*
G75*
G02*
X193056500Y-65322000I237500J0D01*
G01*
G37*
G36*
G01*
X193056500Y-63497000D02*
X193531500Y-63497000D01*
G75*
G02*
X193769000Y-63734500I0J-237500D01*
G01*
X193769000Y-64234500D01*
G75*
G02*
X193531500Y-64472000I-237500J0D01*
G01*
X193056500Y-64472000D01*
G75*
G02*
X192819000Y-64234500I0J237500D01*
G01*
X192819000Y-63734500D01*
G75*
G02*
X193056500Y-63497000I237500J0D01*
G01*
G37*
%TD*%
%TO.C,R6*%
G36*
G01*
X125266000Y-57387500D02*
X125266000Y-56912500D01*
G75*
G02*
X125503500Y-56675000I237500J0D01*
G01*
X126003500Y-56675000D01*
G75*
G02*
X126241000Y-56912500I0J-237500D01*
G01*
X126241000Y-57387500D01*
G75*
G02*
X126003500Y-57625000I-237500J0D01*
G01*
X125503500Y-57625000D01*
G75*
G02*
X125266000Y-57387500I0J237500D01*
G01*
G37*
G36*
G01*
X123441000Y-57387500D02*
X123441000Y-56912500D01*
G75*
G02*
X123678500Y-56675000I237500J0D01*
G01*
X124178500Y-56675000D01*
G75*
G02*
X124416000Y-56912500I0J-237500D01*
G01*
X124416000Y-57387500D01*
G75*
G02*
X124178500Y-57625000I-237500J0D01*
G01*
X123678500Y-57625000D01*
G75*
G02*
X123441000Y-57387500I0J237500D01*
G01*
G37*
%TD*%
%TO.C,R5*%
G36*
G01*
X143554000Y-57387500D02*
X143554000Y-56912500D01*
G75*
G02*
X143791500Y-56675000I237500J0D01*
G01*
X144291500Y-56675000D01*
G75*
G02*
X144529000Y-56912500I0J-237500D01*
G01*
X144529000Y-57387500D01*
G75*
G02*
X144291500Y-57625000I-237500J0D01*
G01*
X143791500Y-57625000D01*
G75*
G02*
X143554000Y-57387500I0J237500D01*
G01*
G37*
G36*
G01*
X141729000Y-57387500D02*
X141729000Y-56912500D01*
G75*
G02*
X141966500Y-56675000I237500J0D01*
G01*
X142466500Y-56675000D01*
G75*
G02*
X142704000Y-56912500I0J-237500D01*
G01*
X142704000Y-57387500D01*
G75*
G02*
X142466500Y-57625000I-237500J0D01*
G01*
X141966500Y-57625000D01*
G75*
G02*
X141729000Y-57387500I0J237500D01*
G01*
G37*
%TD*%
%TO.C,R4*%
G36*
G01*
X161842000Y-57387500D02*
X161842000Y-56912500D01*
G75*
G02*
X162079500Y-56675000I237500J0D01*
G01*
X162579500Y-56675000D01*
G75*
G02*
X162817000Y-56912500I0J-237500D01*
G01*
X162817000Y-57387500D01*
G75*
G02*
X162579500Y-57625000I-237500J0D01*
G01*
X162079500Y-57625000D01*
G75*
G02*
X161842000Y-57387500I0J237500D01*
G01*
G37*
G36*
G01*
X160017000Y-57387500D02*
X160017000Y-56912500D01*
G75*
G02*
X160254500Y-56675000I237500J0D01*
G01*
X160754500Y-56675000D01*
G75*
G02*
X160992000Y-56912500I0J-237500D01*
G01*
X160992000Y-57387500D01*
G75*
G02*
X160754500Y-57625000I-237500J0D01*
G01*
X160254500Y-57625000D01*
G75*
G02*
X160017000Y-57387500I0J237500D01*
G01*
G37*
%TD*%
%TO.C,R3*%
G36*
G01*
X180130000Y-57514500D02*
X180130000Y-57039500D01*
G75*
G02*
X180367500Y-56802000I237500J0D01*
G01*
X180867500Y-56802000D01*
G75*
G02*
X181105000Y-57039500I0J-237500D01*
G01*
X181105000Y-57514500D01*
G75*
G02*
X180867500Y-57752000I-237500J0D01*
G01*
X180367500Y-57752000D01*
G75*
G02*
X180130000Y-57514500I0J237500D01*
G01*
G37*
G36*
G01*
X178305000Y-57514500D02*
X178305000Y-57039500D01*
G75*
G02*
X178542500Y-56802000I237500J0D01*
G01*
X179042500Y-56802000D01*
G75*
G02*
X179280000Y-57039500I0J-237500D01*
G01*
X179280000Y-57514500D01*
G75*
G02*
X179042500Y-57752000I-237500J0D01*
G01*
X178542500Y-57752000D01*
G75*
G02*
X178305000Y-57514500I0J237500D01*
G01*
G37*
%TD*%
%TO.C,R2*%
G36*
G01*
X29588000Y-89645500D02*
X29588000Y-89170500D01*
G75*
G02*
X29825500Y-88933000I237500J0D01*
G01*
X30325500Y-88933000D01*
G75*
G02*
X30563000Y-89170500I0J-237500D01*
G01*
X30563000Y-89645500D01*
G75*
G02*
X30325500Y-89883000I-237500J0D01*
G01*
X29825500Y-89883000D01*
G75*
G02*
X29588000Y-89645500I0J237500D01*
G01*
G37*
G36*
G01*
X31413000Y-89645500D02*
X31413000Y-89170500D01*
G75*
G02*
X31650500Y-88933000I237500J0D01*
G01*
X32150500Y-88933000D01*
G75*
G02*
X32388000Y-89170500I0J-237500D01*
G01*
X32388000Y-89645500D01*
G75*
G02*
X32150500Y-89883000I-237500J0D01*
G01*
X31650500Y-89883000D01*
G75*
G02*
X31413000Y-89645500I0J237500D01*
G01*
G37*
%TD*%
%TO.C,R1*%
G36*
G01*
X18816500Y-89772500D02*
X18816500Y-89297500D01*
G75*
G02*
X19054000Y-89060000I237500J0D01*
G01*
X19554000Y-89060000D01*
G75*
G02*
X19791500Y-89297500I0J-237500D01*
G01*
X19791500Y-89772500D01*
G75*
G02*
X19554000Y-90010000I-237500J0D01*
G01*
X19054000Y-90010000D01*
G75*
G02*
X18816500Y-89772500I0J237500D01*
G01*
G37*
G36*
G01*
X20641500Y-89772500D02*
X20641500Y-89297500D01*
G75*
G02*
X20879000Y-89060000I237500J0D01*
G01*
X21379000Y-89060000D01*
G75*
G02*
X21616500Y-89297500I0J-237500D01*
G01*
X21616500Y-89772500D01*
G75*
G02*
X21379000Y-90010000I-237500J0D01*
G01*
X20879000Y-90010000D01*
G75*
G02*
X20641500Y-89772500I0J237500D01*
G01*
G37*
%TD*%
D22*
%TO.C,Q9*%
G36*
X40467039Y-60887755D02*
G01*
X40464194Y-60897134D01*
X40459573Y-60905779D01*
X40453355Y-60913355D01*
X40445779Y-60919573D01*
X40437134Y-60924194D01*
X40427755Y-60927039D01*
X40418000Y-60928000D01*
X40018000Y-60928000D01*
X40008245Y-60927039D01*
X39998866Y-60924194D01*
X39990221Y-60919573D01*
X39982645Y-60913355D01*
X39976427Y-60905779D01*
X39971806Y-60897134D01*
X39968961Y-60887755D01*
X39968000Y-60878000D01*
X39968000Y-60308000D01*
X39818000Y-60308000D01*
X39818000Y-60878000D01*
X39817039Y-60887755D01*
X39814194Y-60897134D01*
X39809573Y-60905779D01*
X39803355Y-60913355D01*
X39795779Y-60919573D01*
X39787134Y-60924194D01*
X39777755Y-60927039D01*
X39768000Y-60928000D01*
X39368000Y-60928000D01*
X39358245Y-60927039D01*
X39348866Y-60924194D01*
X39340221Y-60919573D01*
X39332645Y-60913355D01*
X39326427Y-60905779D01*
X39321806Y-60897134D01*
X39318961Y-60887755D01*
X39318000Y-60878000D01*
X39318000Y-60308000D01*
X39168000Y-60308000D01*
X39168000Y-60878000D01*
X39167039Y-60887755D01*
X39164194Y-60897134D01*
X39159573Y-60905779D01*
X39153355Y-60913355D01*
X39145779Y-60919573D01*
X39137134Y-60924194D01*
X39127755Y-60927039D01*
X39118000Y-60928000D01*
X38718000Y-60928000D01*
X38708245Y-60927039D01*
X38698866Y-60924194D01*
X38690221Y-60919573D01*
X38682645Y-60913355D01*
X38676427Y-60905779D01*
X38671806Y-60897134D01*
X38668961Y-60887755D01*
X38668000Y-60878000D01*
X38668000Y-60308000D01*
X38518000Y-60308000D01*
X38518000Y-60878000D01*
X38517039Y-60887755D01*
X38514194Y-60897134D01*
X38509573Y-60905779D01*
X38503355Y-60913355D01*
X38495779Y-60919573D01*
X38487134Y-60924194D01*
X38477755Y-60927039D01*
X38468000Y-60928000D01*
X38068000Y-60928000D01*
X38058245Y-60927039D01*
X38048866Y-60924194D01*
X38040221Y-60919573D01*
X38032645Y-60913355D01*
X38026427Y-60905779D01*
X38021806Y-60897134D01*
X38018961Y-60887755D01*
X38018000Y-60878000D01*
X38018000Y-60258000D01*
X38018961Y-60248245D01*
X38021806Y-60238866D01*
X38026427Y-60230221D01*
X38032645Y-60222645D01*
X38040221Y-60216427D01*
X38048866Y-60211806D01*
X38058245Y-60208961D01*
X38068000Y-60208000D01*
X38068000Y-58408000D01*
X38068961Y-58398245D01*
X38071806Y-58388866D01*
X38076427Y-58380221D01*
X38082645Y-58372645D01*
X38090221Y-58366427D01*
X38098866Y-58361806D01*
X38108245Y-58358961D01*
X38118000Y-58358000D01*
X40368000Y-58358000D01*
X40377755Y-58358961D01*
X40387134Y-58361806D01*
X40395779Y-58366427D01*
X40403355Y-58372645D01*
X40409573Y-58380221D01*
X40414194Y-58388866D01*
X40417039Y-58398245D01*
X40418000Y-58408000D01*
X40418000Y-60208000D01*
X40427755Y-60208961D01*
X40437134Y-60211806D01*
X40445779Y-60216427D01*
X40453355Y-60222645D01*
X40459573Y-60230221D01*
X40464194Y-60238866D01*
X40467039Y-60248245D01*
X40468000Y-60258000D01*
X40468000Y-60878000D01*
X40467039Y-60887755D01*
G37*
D23*
X38268000Y-57393000D03*
X38918000Y-57393000D03*
X40218000Y-57393000D03*
X39568000Y-57393000D03*
%TD*%
D22*
%TO.C,Q8*%
G36*
X95839039Y-69523755D02*
G01*
X95836194Y-69533134D01*
X95831573Y-69541779D01*
X95825355Y-69549355D01*
X95817779Y-69555573D01*
X95809134Y-69560194D01*
X95799755Y-69563039D01*
X95790000Y-69564000D01*
X95390000Y-69564000D01*
X95380245Y-69563039D01*
X95370866Y-69560194D01*
X95362221Y-69555573D01*
X95354645Y-69549355D01*
X95348427Y-69541779D01*
X95343806Y-69533134D01*
X95340961Y-69523755D01*
X95340000Y-69514000D01*
X95340000Y-68944000D01*
X95190000Y-68944000D01*
X95190000Y-69514000D01*
X95189039Y-69523755D01*
X95186194Y-69533134D01*
X95181573Y-69541779D01*
X95175355Y-69549355D01*
X95167779Y-69555573D01*
X95159134Y-69560194D01*
X95149755Y-69563039D01*
X95140000Y-69564000D01*
X94740000Y-69564000D01*
X94730245Y-69563039D01*
X94720866Y-69560194D01*
X94712221Y-69555573D01*
X94704645Y-69549355D01*
X94698427Y-69541779D01*
X94693806Y-69533134D01*
X94690961Y-69523755D01*
X94690000Y-69514000D01*
X94690000Y-68944000D01*
X94540000Y-68944000D01*
X94540000Y-69514000D01*
X94539039Y-69523755D01*
X94536194Y-69533134D01*
X94531573Y-69541779D01*
X94525355Y-69549355D01*
X94517779Y-69555573D01*
X94509134Y-69560194D01*
X94499755Y-69563039D01*
X94490000Y-69564000D01*
X94090000Y-69564000D01*
X94080245Y-69563039D01*
X94070866Y-69560194D01*
X94062221Y-69555573D01*
X94054645Y-69549355D01*
X94048427Y-69541779D01*
X94043806Y-69533134D01*
X94040961Y-69523755D01*
X94040000Y-69514000D01*
X94040000Y-68944000D01*
X93890000Y-68944000D01*
X93890000Y-69514000D01*
X93889039Y-69523755D01*
X93886194Y-69533134D01*
X93881573Y-69541779D01*
X93875355Y-69549355D01*
X93867779Y-69555573D01*
X93859134Y-69560194D01*
X93849755Y-69563039D01*
X93840000Y-69564000D01*
X93440000Y-69564000D01*
X93430245Y-69563039D01*
X93420866Y-69560194D01*
X93412221Y-69555573D01*
X93404645Y-69549355D01*
X93398427Y-69541779D01*
X93393806Y-69533134D01*
X93390961Y-69523755D01*
X93390000Y-69514000D01*
X93390000Y-68894000D01*
X93390961Y-68884245D01*
X93393806Y-68874866D01*
X93398427Y-68866221D01*
X93404645Y-68858645D01*
X93412221Y-68852427D01*
X93420866Y-68847806D01*
X93430245Y-68844961D01*
X93440000Y-68844000D01*
X93440000Y-67044000D01*
X93440961Y-67034245D01*
X93443806Y-67024866D01*
X93448427Y-67016221D01*
X93454645Y-67008645D01*
X93462221Y-67002427D01*
X93470866Y-66997806D01*
X93480245Y-66994961D01*
X93490000Y-66994000D01*
X95740000Y-66994000D01*
X95749755Y-66994961D01*
X95759134Y-66997806D01*
X95767779Y-67002427D01*
X95775355Y-67008645D01*
X95781573Y-67016221D01*
X95786194Y-67024866D01*
X95789039Y-67034245D01*
X95790000Y-67044000D01*
X95790000Y-68844000D01*
X95799755Y-68844961D01*
X95809134Y-68847806D01*
X95817779Y-68852427D01*
X95825355Y-68858645D01*
X95831573Y-68866221D01*
X95836194Y-68874866D01*
X95839039Y-68884245D01*
X95840000Y-68894000D01*
X95840000Y-69514000D01*
X95839039Y-69523755D01*
G37*
D23*
X93640000Y-66029000D03*
X94290000Y-66029000D03*
X95590000Y-66029000D03*
X94940000Y-66029000D03*
%TD*%
D22*
%TO.C,Q7*%
G36*
X114000039Y-69523755D02*
G01*
X113997194Y-69533134D01*
X113992573Y-69541779D01*
X113986355Y-69549355D01*
X113978779Y-69555573D01*
X113970134Y-69560194D01*
X113960755Y-69563039D01*
X113951000Y-69564000D01*
X113551000Y-69564000D01*
X113541245Y-69563039D01*
X113531866Y-69560194D01*
X113523221Y-69555573D01*
X113515645Y-69549355D01*
X113509427Y-69541779D01*
X113504806Y-69533134D01*
X113501961Y-69523755D01*
X113501000Y-69514000D01*
X113501000Y-68944000D01*
X113351000Y-68944000D01*
X113351000Y-69514000D01*
X113350039Y-69523755D01*
X113347194Y-69533134D01*
X113342573Y-69541779D01*
X113336355Y-69549355D01*
X113328779Y-69555573D01*
X113320134Y-69560194D01*
X113310755Y-69563039D01*
X113301000Y-69564000D01*
X112901000Y-69564000D01*
X112891245Y-69563039D01*
X112881866Y-69560194D01*
X112873221Y-69555573D01*
X112865645Y-69549355D01*
X112859427Y-69541779D01*
X112854806Y-69533134D01*
X112851961Y-69523755D01*
X112851000Y-69514000D01*
X112851000Y-68944000D01*
X112701000Y-68944000D01*
X112701000Y-69514000D01*
X112700039Y-69523755D01*
X112697194Y-69533134D01*
X112692573Y-69541779D01*
X112686355Y-69549355D01*
X112678779Y-69555573D01*
X112670134Y-69560194D01*
X112660755Y-69563039D01*
X112651000Y-69564000D01*
X112251000Y-69564000D01*
X112241245Y-69563039D01*
X112231866Y-69560194D01*
X112223221Y-69555573D01*
X112215645Y-69549355D01*
X112209427Y-69541779D01*
X112204806Y-69533134D01*
X112201961Y-69523755D01*
X112201000Y-69514000D01*
X112201000Y-68944000D01*
X112051000Y-68944000D01*
X112051000Y-69514000D01*
X112050039Y-69523755D01*
X112047194Y-69533134D01*
X112042573Y-69541779D01*
X112036355Y-69549355D01*
X112028779Y-69555573D01*
X112020134Y-69560194D01*
X112010755Y-69563039D01*
X112001000Y-69564000D01*
X111601000Y-69564000D01*
X111591245Y-69563039D01*
X111581866Y-69560194D01*
X111573221Y-69555573D01*
X111565645Y-69549355D01*
X111559427Y-69541779D01*
X111554806Y-69533134D01*
X111551961Y-69523755D01*
X111551000Y-69514000D01*
X111551000Y-68894000D01*
X111551961Y-68884245D01*
X111554806Y-68874866D01*
X111559427Y-68866221D01*
X111565645Y-68858645D01*
X111573221Y-68852427D01*
X111581866Y-68847806D01*
X111591245Y-68844961D01*
X111601000Y-68844000D01*
X111601000Y-67044000D01*
X111601961Y-67034245D01*
X111604806Y-67024866D01*
X111609427Y-67016221D01*
X111615645Y-67008645D01*
X111623221Y-67002427D01*
X111631866Y-66997806D01*
X111641245Y-66994961D01*
X111651000Y-66994000D01*
X113901000Y-66994000D01*
X113910755Y-66994961D01*
X113920134Y-66997806D01*
X113928779Y-67002427D01*
X113936355Y-67008645D01*
X113942573Y-67016221D01*
X113947194Y-67024866D01*
X113950039Y-67034245D01*
X113951000Y-67044000D01*
X113951000Y-68844000D01*
X113960755Y-68844961D01*
X113970134Y-68847806D01*
X113978779Y-68852427D01*
X113986355Y-68858645D01*
X113992573Y-68866221D01*
X113997194Y-68874866D01*
X114000039Y-68884245D01*
X114001000Y-68894000D01*
X114001000Y-69514000D01*
X114000039Y-69523755D01*
G37*
D23*
X111801000Y-66029000D03*
X112451000Y-66029000D03*
X113751000Y-66029000D03*
X113101000Y-66029000D03*
%TD*%
D22*
%TO.C,Q6*%
G36*
X77424039Y-69523755D02*
G01*
X77421194Y-69533134D01*
X77416573Y-69541779D01*
X77410355Y-69549355D01*
X77402779Y-69555573D01*
X77394134Y-69560194D01*
X77384755Y-69563039D01*
X77375000Y-69564000D01*
X76975000Y-69564000D01*
X76965245Y-69563039D01*
X76955866Y-69560194D01*
X76947221Y-69555573D01*
X76939645Y-69549355D01*
X76933427Y-69541779D01*
X76928806Y-69533134D01*
X76925961Y-69523755D01*
X76925000Y-69514000D01*
X76925000Y-68944000D01*
X76775000Y-68944000D01*
X76775000Y-69514000D01*
X76774039Y-69523755D01*
X76771194Y-69533134D01*
X76766573Y-69541779D01*
X76760355Y-69549355D01*
X76752779Y-69555573D01*
X76744134Y-69560194D01*
X76734755Y-69563039D01*
X76725000Y-69564000D01*
X76325000Y-69564000D01*
X76315245Y-69563039D01*
X76305866Y-69560194D01*
X76297221Y-69555573D01*
X76289645Y-69549355D01*
X76283427Y-69541779D01*
X76278806Y-69533134D01*
X76275961Y-69523755D01*
X76275000Y-69514000D01*
X76275000Y-68944000D01*
X76125000Y-68944000D01*
X76125000Y-69514000D01*
X76124039Y-69523755D01*
X76121194Y-69533134D01*
X76116573Y-69541779D01*
X76110355Y-69549355D01*
X76102779Y-69555573D01*
X76094134Y-69560194D01*
X76084755Y-69563039D01*
X76075000Y-69564000D01*
X75675000Y-69564000D01*
X75665245Y-69563039D01*
X75655866Y-69560194D01*
X75647221Y-69555573D01*
X75639645Y-69549355D01*
X75633427Y-69541779D01*
X75628806Y-69533134D01*
X75625961Y-69523755D01*
X75625000Y-69514000D01*
X75625000Y-68944000D01*
X75475000Y-68944000D01*
X75475000Y-69514000D01*
X75474039Y-69523755D01*
X75471194Y-69533134D01*
X75466573Y-69541779D01*
X75460355Y-69549355D01*
X75452779Y-69555573D01*
X75444134Y-69560194D01*
X75434755Y-69563039D01*
X75425000Y-69564000D01*
X75025000Y-69564000D01*
X75015245Y-69563039D01*
X75005866Y-69560194D01*
X74997221Y-69555573D01*
X74989645Y-69549355D01*
X74983427Y-69541779D01*
X74978806Y-69533134D01*
X74975961Y-69523755D01*
X74975000Y-69514000D01*
X74975000Y-68894000D01*
X74975961Y-68884245D01*
X74978806Y-68874866D01*
X74983427Y-68866221D01*
X74989645Y-68858645D01*
X74997221Y-68852427D01*
X75005866Y-68847806D01*
X75015245Y-68844961D01*
X75025000Y-68844000D01*
X75025000Y-67044000D01*
X75025961Y-67034245D01*
X75028806Y-67024866D01*
X75033427Y-67016221D01*
X75039645Y-67008645D01*
X75047221Y-67002427D01*
X75055866Y-66997806D01*
X75065245Y-66994961D01*
X75075000Y-66994000D01*
X77325000Y-66994000D01*
X77334755Y-66994961D01*
X77344134Y-66997806D01*
X77352779Y-67002427D01*
X77360355Y-67008645D01*
X77366573Y-67016221D01*
X77371194Y-67024866D01*
X77374039Y-67034245D01*
X77375000Y-67044000D01*
X77375000Y-68844000D01*
X77384755Y-68844961D01*
X77394134Y-68847806D01*
X77402779Y-68852427D01*
X77410355Y-68858645D01*
X77416573Y-68866221D01*
X77421194Y-68874866D01*
X77424039Y-68884245D01*
X77425000Y-68894000D01*
X77425000Y-69514000D01*
X77424039Y-69523755D01*
G37*
D23*
X75225000Y-66029000D03*
X75875000Y-66029000D03*
X77175000Y-66029000D03*
X76525000Y-66029000D03*
%TD*%
D22*
%TO.C,Q5*%
G36*
X59136039Y-69523755D02*
G01*
X59133194Y-69533134D01*
X59128573Y-69541779D01*
X59122355Y-69549355D01*
X59114779Y-69555573D01*
X59106134Y-69560194D01*
X59096755Y-69563039D01*
X59087000Y-69564000D01*
X58687000Y-69564000D01*
X58677245Y-69563039D01*
X58667866Y-69560194D01*
X58659221Y-69555573D01*
X58651645Y-69549355D01*
X58645427Y-69541779D01*
X58640806Y-69533134D01*
X58637961Y-69523755D01*
X58637000Y-69514000D01*
X58637000Y-68944000D01*
X58487000Y-68944000D01*
X58487000Y-69514000D01*
X58486039Y-69523755D01*
X58483194Y-69533134D01*
X58478573Y-69541779D01*
X58472355Y-69549355D01*
X58464779Y-69555573D01*
X58456134Y-69560194D01*
X58446755Y-69563039D01*
X58437000Y-69564000D01*
X58037000Y-69564000D01*
X58027245Y-69563039D01*
X58017866Y-69560194D01*
X58009221Y-69555573D01*
X58001645Y-69549355D01*
X57995427Y-69541779D01*
X57990806Y-69533134D01*
X57987961Y-69523755D01*
X57987000Y-69514000D01*
X57987000Y-68944000D01*
X57837000Y-68944000D01*
X57837000Y-69514000D01*
X57836039Y-69523755D01*
X57833194Y-69533134D01*
X57828573Y-69541779D01*
X57822355Y-69549355D01*
X57814779Y-69555573D01*
X57806134Y-69560194D01*
X57796755Y-69563039D01*
X57787000Y-69564000D01*
X57387000Y-69564000D01*
X57377245Y-69563039D01*
X57367866Y-69560194D01*
X57359221Y-69555573D01*
X57351645Y-69549355D01*
X57345427Y-69541779D01*
X57340806Y-69533134D01*
X57337961Y-69523755D01*
X57337000Y-69514000D01*
X57337000Y-68944000D01*
X57187000Y-68944000D01*
X57187000Y-69514000D01*
X57186039Y-69523755D01*
X57183194Y-69533134D01*
X57178573Y-69541779D01*
X57172355Y-69549355D01*
X57164779Y-69555573D01*
X57156134Y-69560194D01*
X57146755Y-69563039D01*
X57137000Y-69564000D01*
X56737000Y-69564000D01*
X56727245Y-69563039D01*
X56717866Y-69560194D01*
X56709221Y-69555573D01*
X56701645Y-69549355D01*
X56695427Y-69541779D01*
X56690806Y-69533134D01*
X56687961Y-69523755D01*
X56687000Y-69514000D01*
X56687000Y-68894000D01*
X56687961Y-68884245D01*
X56690806Y-68874866D01*
X56695427Y-68866221D01*
X56701645Y-68858645D01*
X56709221Y-68852427D01*
X56717866Y-68847806D01*
X56727245Y-68844961D01*
X56737000Y-68844000D01*
X56737000Y-67044000D01*
X56737961Y-67034245D01*
X56740806Y-67024866D01*
X56745427Y-67016221D01*
X56751645Y-67008645D01*
X56759221Y-67002427D01*
X56767866Y-66997806D01*
X56777245Y-66994961D01*
X56787000Y-66994000D01*
X59037000Y-66994000D01*
X59046755Y-66994961D01*
X59056134Y-66997806D01*
X59064779Y-67002427D01*
X59072355Y-67008645D01*
X59078573Y-67016221D01*
X59083194Y-67024866D01*
X59086039Y-67034245D01*
X59087000Y-67044000D01*
X59087000Y-68844000D01*
X59096755Y-68844961D01*
X59106134Y-68847806D01*
X59114779Y-68852427D01*
X59122355Y-68858645D01*
X59128573Y-68866221D01*
X59133194Y-68874866D01*
X59136039Y-68884245D01*
X59137000Y-68894000D01*
X59137000Y-69514000D01*
X59136039Y-69523755D01*
G37*
D23*
X56937000Y-66029000D03*
X57587000Y-66029000D03*
X58887000Y-66029000D03*
X58237000Y-66029000D03*
%TD*%
D22*
%TO.C,Q4*%
G36*
X132288039Y-69523755D02*
G01*
X132285194Y-69533134D01*
X132280573Y-69541779D01*
X132274355Y-69549355D01*
X132266779Y-69555573D01*
X132258134Y-69560194D01*
X132248755Y-69563039D01*
X132239000Y-69564000D01*
X131839000Y-69564000D01*
X131829245Y-69563039D01*
X131819866Y-69560194D01*
X131811221Y-69555573D01*
X131803645Y-69549355D01*
X131797427Y-69541779D01*
X131792806Y-69533134D01*
X131789961Y-69523755D01*
X131789000Y-69514000D01*
X131789000Y-68944000D01*
X131639000Y-68944000D01*
X131639000Y-69514000D01*
X131638039Y-69523755D01*
X131635194Y-69533134D01*
X131630573Y-69541779D01*
X131624355Y-69549355D01*
X131616779Y-69555573D01*
X131608134Y-69560194D01*
X131598755Y-69563039D01*
X131589000Y-69564000D01*
X131189000Y-69564000D01*
X131179245Y-69563039D01*
X131169866Y-69560194D01*
X131161221Y-69555573D01*
X131153645Y-69549355D01*
X131147427Y-69541779D01*
X131142806Y-69533134D01*
X131139961Y-69523755D01*
X131139000Y-69514000D01*
X131139000Y-68944000D01*
X130989000Y-68944000D01*
X130989000Y-69514000D01*
X130988039Y-69523755D01*
X130985194Y-69533134D01*
X130980573Y-69541779D01*
X130974355Y-69549355D01*
X130966779Y-69555573D01*
X130958134Y-69560194D01*
X130948755Y-69563039D01*
X130939000Y-69564000D01*
X130539000Y-69564000D01*
X130529245Y-69563039D01*
X130519866Y-69560194D01*
X130511221Y-69555573D01*
X130503645Y-69549355D01*
X130497427Y-69541779D01*
X130492806Y-69533134D01*
X130489961Y-69523755D01*
X130489000Y-69514000D01*
X130489000Y-68944000D01*
X130339000Y-68944000D01*
X130339000Y-69514000D01*
X130338039Y-69523755D01*
X130335194Y-69533134D01*
X130330573Y-69541779D01*
X130324355Y-69549355D01*
X130316779Y-69555573D01*
X130308134Y-69560194D01*
X130298755Y-69563039D01*
X130289000Y-69564000D01*
X129889000Y-69564000D01*
X129879245Y-69563039D01*
X129869866Y-69560194D01*
X129861221Y-69555573D01*
X129853645Y-69549355D01*
X129847427Y-69541779D01*
X129842806Y-69533134D01*
X129839961Y-69523755D01*
X129839000Y-69514000D01*
X129839000Y-68894000D01*
X129839961Y-68884245D01*
X129842806Y-68874866D01*
X129847427Y-68866221D01*
X129853645Y-68858645D01*
X129861221Y-68852427D01*
X129869866Y-68847806D01*
X129879245Y-68844961D01*
X129889000Y-68844000D01*
X129889000Y-67044000D01*
X129889961Y-67034245D01*
X129892806Y-67024866D01*
X129897427Y-67016221D01*
X129903645Y-67008645D01*
X129911221Y-67002427D01*
X129919866Y-66997806D01*
X129929245Y-66994961D01*
X129939000Y-66994000D01*
X132189000Y-66994000D01*
X132198755Y-66994961D01*
X132208134Y-66997806D01*
X132216779Y-67002427D01*
X132224355Y-67008645D01*
X132230573Y-67016221D01*
X132235194Y-67024866D01*
X132238039Y-67034245D01*
X132239000Y-67044000D01*
X132239000Y-68844000D01*
X132248755Y-68844961D01*
X132258134Y-68847806D01*
X132266779Y-68852427D01*
X132274355Y-68858645D01*
X132280573Y-68866221D01*
X132285194Y-68874866D01*
X132288039Y-68884245D01*
X132289000Y-68894000D01*
X132289000Y-69514000D01*
X132288039Y-69523755D01*
G37*
D23*
X130089000Y-66029000D03*
X130739000Y-66029000D03*
X132039000Y-66029000D03*
X131389000Y-66029000D03*
%TD*%
D22*
%TO.C,Q3*%
G36*
X150576039Y-69523755D02*
G01*
X150573194Y-69533134D01*
X150568573Y-69541779D01*
X150562355Y-69549355D01*
X150554779Y-69555573D01*
X150546134Y-69560194D01*
X150536755Y-69563039D01*
X150527000Y-69564000D01*
X150127000Y-69564000D01*
X150117245Y-69563039D01*
X150107866Y-69560194D01*
X150099221Y-69555573D01*
X150091645Y-69549355D01*
X150085427Y-69541779D01*
X150080806Y-69533134D01*
X150077961Y-69523755D01*
X150077000Y-69514000D01*
X150077000Y-68944000D01*
X149927000Y-68944000D01*
X149927000Y-69514000D01*
X149926039Y-69523755D01*
X149923194Y-69533134D01*
X149918573Y-69541779D01*
X149912355Y-69549355D01*
X149904779Y-69555573D01*
X149896134Y-69560194D01*
X149886755Y-69563039D01*
X149877000Y-69564000D01*
X149477000Y-69564000D01*
X149467245Y-69563039D01*
X149457866Y-69560194D01*
X149449221Y-69555573D01*
X149441645Y-69549355D01*
X149435427Y-69541779D01*
X149430806Y-69533134D01*
X149427961Y-69523755D01*
X149427000Y-69514000D01*
X149427000Y-68944000D01*
X149277000Y-68944000D01*
X149277000Y-69514000D01*
X149276039Y-69523755D01*
X149273194Y-69533134D01*
X149268573Y-69541779D01*
X149262355Y-69549355D01*
X149254779Y-69555573D01*
X149246134Y-69560194D01*
X149236755Y-69563039D01*
X149227000Y-69564000D01*
X148827000Y-69564000D01*
X148817245Y-69563039D01*
X148807866Y-69560194D01*
X148799221Y-69555573D01*
X148791645Y-69549355D01*
X148785427Y-69541779D01*
X148780806Y-69533134D01*
X148777961Y-69523755D01*
X148777000Y-69514000D01*
X148777000Y-68944000D01*
X148627000Y-68944000D01*
X148627000Y-69514000D01*
X148626039Y-69523755D01*
X148623194Y-69533134D01*
X148618573Y-69541779D01*
X148612355Y-69549355D01*
X148604779Y-69555573D01*
X148596134Y-69560194D01*
X148586755Y-69563039D01*
X148577000Y-69564000D01*
X148177000Y-69564000D01*
X148167245Y-69563039D01*
X148157866Y-69560194D01*
X148149221Y-69555573D01*
X148141645Y-69549355D01*
X148135427Y-69541779D01*
X148130806Y-69533134D01*
X148127961Y-69523755D01*
X148127000Y-69514000D01*
X148127000Y-68894000D01*
X148127961Y-68884245D01*
X148130806Y-68874866D01*
X148135427Y-68866221D01*
X148141645Y-68858645D01*
X148149221Y-68852427D01*
X148157866Y-68847806D01*
X148167245Y-68844961D01*
X148177000Y-68844000D01*
X148177000Y-67044000D01*
X148177961Y-67034245D01*
X148180806Y-67024866D01*
X148185427Y-67016221D01*
X148191645Y-67008645D01*
X148199221Y-67002427D01*
X148207866Y-66997806D01*
X148217245Y-66994961D01*
X148227000Y-66994000D01*
X150477000Y-66994000D01*
X150486755Y-66994961D01*
X150496134Y-66997806D01*
X150504779Y-67002427D01*
X150512355Y-67008645D01*
X150518573Y-67016221D01*
X150523194Y-67024866D01*
X150526039Y-67034245D01*
X150527000Y-67044000D01*
X150527000Y-68844000D01*
X150536755Y-68844961D01*
X150546134Y-68847806D01*
X150554779Y-68852427D01*
X150562355Y-68858645D01*
X150568573Y-68866221D01*
X150573194Y-68874866D01*
X150576039Y-68884245D01*
X150577000Y-68894000D01*
X150577000Y-69514000D01*
X150576039Y-69523755D01*
G37*
D23*
X148377000Y-66029000D03*
X149027000Y-66029000D03*
X150327000Y-66029000D03*
X149677000Y-66029000D03*
%TD*%
D22*
%TO.C,Q2*%
G36*
X168864039Y-69523755D02*
G01*
X168861194Y-69533134D01*
X168856573Y-69541779D01*
X168850355Y-69549355D01*
X168842779Y-69555573D01*
X168834134Y-69560194D01*
X168824755Y-69563039D01*
X168815000Y-69564000D01*
X168415000Y-69564000D01*
X168405245Y-69563039D01*
X168395866Y-69560194D01*
X168387221Y-69555573D01*
X168379645Y-69549355D01*
X168373427Y-69541779D01*
X168368806Y-69533134D01*
X168365961Y-69523755D01*
X168365000Y-69514000D01*
X168365000Y-68944000D01*
X168215000Y-68944000D01*
X168215000Y-69514000D01*
X168214039Y-69523755D01*
X168211194Y-69533134D01*
X168206573Y-69541779D01*
X168200355Y-69549355D01*
X168192779Y-69555573D01*
X168184134Y-69560194D01*
X168174755Y-69563039D01*
X168165000Y-69564000D01*
X167765000Y-69564000D01*
X167755245Y-69563039D01*
X167745866Y-69560194D01*
X167737221Y-69555573D01*
X167729645Y-69549355D01*
X167723427Y-69541779D01*
X167718806Y-69533134D01*
X167715961Y-69523755D01*
X167715000Y-69514000D01*
X167715000Y-68944000D01*
X167565000Y-68944000D01*
X167565000Y-69514000D01*
X167564039Y-69523755D01*
X167561194Y-69533134D01*
X167556573Y-69541779D01*
X167550355Y-69549355D01*
X167542779Y-69555573D01*
X167534134Y-69560194D01*
X167524755Y-69563039D01*
X167515000Y-69564000D01*
X167115000Y-69564000D01*
X167105245Y-69563039D01*
X167095866Y-69560194D01*
X167087221Y-69555573D01*
X167079645Y-69549355D01*
X167073427Y-69541779D01*
X167068806Y-69533134D01*
X167065961Y-69523755D01*
X167065000Y-69514000D01*
X167065000Y-68944000D01*
X166915000Y-68944000D01*
X166915000Y-69514000D01*
X166914039Y-69523755D01*
X166911194Y-69533134D01*
X166906573Y-69541779D01*
X166900355Y-69549355D01*
X166892779Y-69555573D01*
X166884134Y-69560194D01*
X166874755Y-69563039D01*
X166865000Y-69564000D01*
X166465000Y-69564000D01*
X166455245Y-69563039D01*
X166445866Y-69560194D01*
X166437221Y-69555573D01*
X166429645Y-69549355D01*
X166423427Y-69541779D01*
X166418806Y-69533134D01*
X166415961Y-69523755D01*
X166415000Y-69514000D01*
X166415000Y-68894000D01*
X166415961Y-68884245D01*
X166418806Y-68874866D01*
X166423427Y-68866221D01*
X166429645Y-68858645D01*
X166437221Y-68852427D01*
X166445866Y-68847806D01*
X166455245Y-68844961D01*
X166465000Y-68844000D01*
X166465000Y-67044000D01*
X166465961Y-67034245D01*
X166468806Y-67024866D01*
X166473427Y-67016221D01*
X166479645Y-67008645D01*
X166487221Y-67002427D01*
X166495866Y-66997806D01*
X166505245Y-66994961D01*
X166515000Y-66994000D01*
X168765000Y-66994000D01*
X168774755Y-66994961D01*
X168784134Y-66997806D01*
X168792779Y-67002427D01*
X168800355Y-67008645D01*
X168806573Y-67016221D01*
X168811194Y-67024866D01*
X168814039Y-67034245D01*
X168815000Y-67044000D01*
X168815000Y-68844000D01*
X168824755Y-68844961D01*
X168834134Y-68847806D01*
X168842779Y-68852427D01*
X168850355Y-68858645D01*
X168856573Y-68866221D01*
X168861194Y-68874866D01*
X168864039Y-68884245D01*
X168865000Y-68894000D01*
X168865000Y-69514000D01*
X168864039Y-69523755D01*
G37*
D23*
X166665000Y-66029000D03*
X167315000Y-66029000D03*
X168615000Y-66029000D03*
X167965000Y-66029000D03*
%TD*%
D22*
%TO.C,Q1*%
G36*
X187025039Y-69523755D02*
G01*
X187022194Y-69533134D01*
X187017573Y-69541779D01*
X187011355Y-69549355D01*
X187003779Y-69555573D01*
X186995134Y-69560194D01*
X186985755Y-69563039D01*
X186976000Y-69564000D01*
X186576000Y-69564000D01*
X186566245Y-69563039D01*
X186556866Y-69560194D01*
X186548221Y-69555573D01*
X186540645Y-69549355D01*
X186534427Y-69541779D01*
X186529806Y-69533134D01*
X186526961Y-69523755D01*
X186526000Y-69514000D01*
X186526000Y-68944000D01*
X186376000Y-68944000D01*
X186376000Y-69514000D01*
X186375039Y-69523755D01*
X186372194Y-69533134D01*
X186367573Y-69541779D01*
X186361355Y-69549355D01*
X186353779Y-69555573D01*
X186345134Y-69560194D01*
X186335755Y-69563039D01*
X186326000Y-69564000D01*
X185926000Y-69564000D01*
X185916245Y-69563039D01*
X185906866Y-69560194D01*
X185898221Y-69555573D01*
X185890645Y-69549355D01*
X185884427Y-69541779D01*
X185879806Y-69533134D01*
X185876961Y-69523755D01*
X185876000Y-69514000D01*
X185876000Y-68944000D01*
X185726000Y-68944000D01*
X185726000Y-69514000D01*
X185725039Y-69523755D01*
X185722194Y-69533134D01*
X185717573Y-69541779D01*
X185711355Y-69549355D01*
X185703779Y-69555573D01*
X185695134Y-69560194D01*
X185685755Y-69563039D01*
X185676000Y-69564000D01*
X185276000Y-69564000D01*
X185266245Y-69563039D01*
X185256866Y-69560194D01*
X185248221Y-69555573D01*
X185240645Y-69549355D01*
X185234427Y-69541779D01*
X185229806Y-69533134D01*
X185226961Y-69523755D01*
X185226000Y-69514000D01*
X185226000Y-68944000D01*
X185076000Y-68944000D01*
X185076000Y-69514000D01*
X185075039Y-69523755D01*
X185072194Y-69533134D01*
X185067573Y-69541779D01*
X185061355Y-69549355D01*
X185053779Y-69555573D01*
X185045134Y-69560194D01*
X185035755Y-69563039D01*
X185026000Y-69564000D01*
X184626000Y-69564000D01*
X184616245Y-69563039D01*
X184606866Y-69560194D01*
X184598221Y-69555573D01*
X184590645Y-69549355D01*
X184584427Y-69541779D01*
X184579806Y-69533134D01*
X184576961Y-69523755D01*
X184576000Y-69514000D01*
X184576000Y-68894000D01*
X184576961Y-68884245D01*
X184579806Y-68874866D01*
X184584427Y-68866221D01*
X184590645Y-68858645D01*
X184598221Y-68852427D01*
X184606866Y-68847806D01*
X184616245Y-68844961D01*
X184626000Y-68844000D01*
X184626000Y-67044000D01*
X184626961Y-67034245D01*
X184629806Y-67024866D01*
X184634427Y-67016221D01*
X184640645Y-67008645D01*
X184648221Y-67002427D01*
X184656866Y-66997806D01*
X184666245Y-66994961D01*
X184676000Y-66994000D01*
X186926000Y-66994000D01*
X186935755Y-66994961D01*
X186945134Y-66997806D01*
X186953779Y-67002427D01*
X186961355Y-67008645D01*
X186967573Y-67016221D01*
X186972194Y-67024866D01*
X186975039Y-67034245D01*
X186976000Y-67044000D01*
X186976000Y-68844000D01*
X186985755Y-68844961D01*
X186995134Y-68847806D01*
X187003779Y-68852427D01*
X187011355Y-68858645D01*
X187017573Y-68866221D01*
X187022194Y-68874866D01*
X187025039Y-68884245D01*
X187026000Y-68894000D01*
X187026000Y-69514000D01*
X187025039Y-69523755D01*
G37*
D23*
X184826000Y-66029000D03*
X185476000Y-66029000D03*
X186776000Y-66029000D03*
X186126000Y-66029000D03*
%TD*%
D24*
%TO.C,J1*%
X22223000Y-45639000D03*
X24763000Y-45639000D03*
X27303000Y-45639000D03*
X29843000Y-45639000D03*
X23493000Y-43099000D03*
X26033000Y-43099000D03*
X28573000Y-43099000D03*
X31113000Y-43099000D03*
D25*
X20953000Y-36749000D03*
X32383000Y-36749000D03*
D26*
X22883000Y-31669000D03*
X30453000Y-33459000D03*
X20343000Y-33459000D03*
X32993000Y-31669000D03*
D27*
X34543000Y-39799000D03*
X18793000Y-39799000D03*
%TD*%
D15*
%TO.C,GND1*%
X209296000Y-44450000D03*
%TD*%
D28*
%TO.C,F10*%
X46228000Y-88138000D03*
X42799000Y-88138000D03*
X42799000Y-74676000D03*
X46228000Y-74676000D03*
%TD*%
%TO.C,F9*%
X95377000Y-88138000D03*
X91948000Y-88138000D03*
X91948000Y-74676000D03*
X95377000Y-74676000D03*
%TD*%
%TO.C,F8*%
X113665000Y-88138000D03*
X110236000Y-88138000D03*
X110236000Y-74676000D03*
X113665000Y-74676000D03*
%TD*%
%TO.C,F7*%
X77216000Y-88138000D03*
X73787000Y-88138000D03*
X73787000Y-74676000D03*
X77216000Y-74676000D03*
%TD*%
%TO.C,F6*%
X58928000Y-88138000D03*
X55499000Y-88138000D03*
X55499000Y-74676000D03*
X58928000Y-74676000D03*
%TD*%
%TO.C,F5*%
X11557000Y-135001000D03*
X11557000Y-131572000D03*
X25019000Y-131572000D03*
X25019000Y-135001000D03*
%TD*%
%TO.C,F4*%
X131953000Y-88138000D03*
X128524000Y-88138000D03*
X128524000Y-74676000D03*
X131953000Y-74676000D03*
%TD*%
%TO.C,F3*%
X150368000Y-88138000D03*
X146939000Y-88138000D03*
X146939000Y-74676000D03*
X150368000Y-74676000D03*
%TD*%
%TO.C,F2*%
X168656000Y-88138000D03*
X165227000Y-88138000D03*
X165227000Y-74676000D03*
X168656000Y-74676000D03*
%TD*%
%TO.C,F1*%
X186817000Y-88138000D03*
X183388000Y-88138000D03*
X183388000Y-74676000D03*
X186817000Y-74676000D03*
%TD*%
%TO.C,D14*%
G36*
G01*
X47354500Y-61499000D02*
X46879500Y-61499000D01*
G75*
G02*
X46642000Y-61261500I0J237500D01*
G01*
X46642000Y-60686500D01*
G75*
G02*
X46879500Y-60449000I237500J0D01*
G01*
X47354500Y-60449000D01*
G75*
G02*
X47592000Y-60686500I0J-237500D01*
G01*
X47592000Y-61261500D01*
G75*
G02*
X47354500Y-61499000I-237500J0D01*
G01*
G37*
G36*
G01*
X47354500Y-63249000D02*
X46879500Y-63249000D01*
G75*
G02*
X46642000Y-63011500I0J237500D01*
G01*
X46642000Y-62436500D01*
G75*
G02*
X46879500Y-62199000I237500J0D01*
G01*
X47354500Y-62199000D01*
G75*
G02*
X47592000Y-62436500I0J-237500D01*
G01*
X47592000Y-63011500D01*
G75*
G02*
X47354500Y-63249000I-237500J0D01*
G01*
G37*
%TD*%
%TO.C,D13*%
G36*
G01*
X101616500Y-61437000D02*
X102091500Y-61437000D01*
G75*
G02*
X102329000Y-61674500I0J-237500D01*
G01*
X102329000Y-62249500D01*
G75*
G02*
X102091500Y-62487000I-237500J0D01*
G01*
X101616500Y-62487000D01*
G75*
G02*
X101379000Y-62249500I0J237500D01*
G01*
X101379000Y-61674500D01*
G75*
G02*
X101616500Y-61437000I237500J0D01*
G01*
G37*
G36*
G01*
X101616500Y-59687000D02*
X102091500Y-59687000D01*
G75*
G02*
X102329000Y-59924500I0J-237500D01*
G01*
X102329000Y-60499500D01*
G75*
G02*
X102091500Y-60737000I-237500J0D01*
G01*
X101616500Y-60737000D01*
G75*
G02*
X101379000Y-60499500I0J237500D01*
G01*
X101379000Y-59924500D01*
G75*
G02*
X101616500Y-59687000I237500J0D01*
G01*
G37*
%TD*%
%TO.C,D12*%
G36*
G01*
X119523500Y-61691000D02*
X119998500Y-61691000D01*
G75*
G02*
X120236000Y-61928500I0J-237500D01*
G01*
X120236000Y-62503500D01*
G75*
G02*
X119998500Y-62741000I-237500J0D01*
G01*
X119523500Y-62741000D01*
G75*
G02*
X119286000Y-62503500I0J237500D01*
G01*
X119286000Y-61928500D01*
G75*
G02*
X119523500Y-61691000I237500J0D01*
G01*
G37*
G36*
G01*
X119523500Y-59941000D02*
X119998500Y-59941000D01*
G75*
G02*
X120236000Y-60178500I0J-237500D01*
G01*
X120236000Y-60753500D01*
G75*
G02*
X119998500Y-60991000I-237500J0D01*
G01*
X119523500Y-60991000D01*
G75*
G02*
X119286000Y-60753500I0J237500D01*
G01*
X119286000Y-60178500D01*
G75*
G02*
X119523500Y-59941000I237500J0D01*
G01*
G37*
%TD*%
%TO.C,D11*%
G36*
G01*
X83111000Y-61685500D02*
X83586000Y-61685500D01*
G75*
G02*
X83823500Y-61923000I0J-237500D01*
G01*
X83823500Y-62498000D01*
G75*
G02*
X83586000Y-62735500I-237500J0D01*
G01*
X83111000Y-62735500D01*
G75*
G02*
X82873500Y-62498000I0J237500D01*
G01*
X82873500Y-61923000D01*
G75*
G02*
X83111000Y-61685500I237500J0D01*
G01*
G37*
G36*
G01*
X83111000Y-59935500D02*
X83586000Y-59935500D01*
G75*
G02*
X83823500Y-60173000I0J-237500D01*
G01*
X83823500Y-60748000D01*
G75*
G02*
X83586000Y-60985500I-237500J0D01*
G01*
X83111000Y-60985500D01*
G75*
G02*
X82873500Y-60748000I0J237500D01*
G01*
X82873500Y-60173000D01*
G75*
G02*
X83111000Y-59935500I237500J0D01*
G01*
G37*
%TD*%
%TO.C,D10*%
G36*
G01*
X64659500Y-61691000D02*
X65134500Y-61691000D01*
G75*
G02*
X65372000Y-61928500I0J-237500D01*
G01*
X65372000Y-62503500D01*
G75*
G02*
X65134500Y-62741000I-237500J0D01*
G01*
X64659500Y-62741000D01*
G75*
G02*
X64422000Y-62503500I0J237500D01*
G01*
X64422000Y-61928500D01*
G75*
G02*
X64659500Y-61691000I237500J0D01*
G01*
G37*
G36*
G01*
X64659500Y-59941000D02*
X65134500Y-59941000D01*
G75*
G02*
X65372000Y-60178500I0J-237500D01*
G01*
X65372000Y-60753500D01*
G75*
G02*
X65134500Y-60991000I-237500J0D01*
G01*
X64659500Y-60991000D01*
G75*
G02*
X64422000Y-60753500I0J237500D01*
G01*
X64422000Y-60178500D01*
G75*
G02*
X64659500Y-59941000I237500J0D01*
G01*
G37*
%TD*%
%TO.C,D8*%
G36*
G01*
X137811500Y-61564000D02*
X138286500Y-61564000D01*
G75*
G02*
X138524000Y-61801500I0J-237500D01*
G01*
X138524000Y-62376500D01*
G75*
G02*
X138286500Y-62614000I-237500J0D01*
G01*
X137811500Y-62614000D01*
G75*
G02*
X137574000Y-62376500I0J237500D01*
G01*
X137574000Y-61801500D01*
G75*
G02*
X137811500Y-61564000I237500J0D01*
G01*
G37*
G36*
G01*
X137811500Y-59814000D02*
X138286500Y-59814000D01*
G75*
G02*
X138524000Y-60051500I0J-237500D01*
G01*
X138524000Y-60626500D01*
G75*
G02*
X138286500Y-60864000I-237500J0D01*
G01*
X137811500Y-60864000D01*
G75*
G02*
X137574000Y-60626500I0J237500D01*
G01*
X137574000Y-60051500D01*
G75*
G02*
X137811500Y-59814000I237500J0D01*
G01*
G37*
%TD*%
%TO.C,D7*%
G36*
G01*
X156099500Y-61564000D02*
X156574500Y-61564000D01*
G75*
G02*
X156812000Y-61801500I0J-237500D01*
G01*
X156812000Y-62376500D01*
G75*
G02*
X156574500Y-62614000I-237500J0D01*
G01*
X156099500Y-62614000D01*
G75*
G02*
X155862000Y-62376500I0J237500D01*
G01*
X155862000Y-61801500D01*
G75*
G02*
X156099500Y-61564000I237500J0D01*
G01*
G37*
G36*
G01*
X156099500Y-59814000D02*
X156574500Y-59814000D01*
G75*
G02*
X156812000Y-60051500I0J-237500D01*
G01*
X156812000Y-60626500D01*
G75*
G02*
X156574500Y-60864000I-237500J0D01*
G01*
X156099500Y-60864000D01*
G75*
G02*
X155862000Y-60626500I0J237500D01*
G01*
X155862000Y-60051500D01*
G75*
G02*
X156099500Y-59814000I237500J0D01*
G01*
G37*
%TD*%
%TO.C,D6*%
G36*
G01*
X174895500Y-61691000D02*
X175370500Y-61691000D01*
G75*
G02*
X175608000Y-61928500I0J-237500D01*
G01*
X175608000Y-62503500D01*
G75*
G02*
X175370500Y-62741000I-237500J0D01*
G01*
X174895500Y-62741000D01*
G75*
G02*
X174658000Y-62503500I0J237500D01*
G01*
X174658000Y-61928500D01*
G75*
G02*
X174895500Y-61691000I237500J0D01*
G01*
G37*
G36*
G01*
X174895500Y-59941000D02*
X175370500Y-59941000D01*
G75*
G02*
X175608000Y-60178500I0J-237500D01*
G01*
X175608000Y-60753500D01*
G75*
G02*
X175370500Y-60991000I-237500J0D01*
G01*
X174895500Y-60991000D01*
G75*
G02*
X174658000Y-60753500I0J237500D01*
G01*
X174658000Y-60178500D01*
G75*
G02*
X174895500Y-59941000I237500J0D01*
G01*
G37*
%TD*%
%TO.C,D5*%
G36*
G01*
X193056500Y-61324000D02*
X193531500Y-61324000D01*
G75*
G02*
X193769000Y-61561500I0J-237500D01*
G01*
X193769000Y-62136500D01*
G75*
G02*
X193531500Y-62374000I-237500J0D01*
G01*
X193056500Y-62374000D01*
G75*
G02*
X192819000Y-62136500I0J237500D01*
G01*
X192819000Y-61561500D01*
G75*
G02*
X193056500Y-61324000I237500J0D01*
G01*
G37*
G36*
G01*
X193056500Y-59574000D02*
X193531500Y-59574000D01*
G75*
G02*
X193769000Y-59811500I0J-237500D01*
G01*
X193769000Y-60386500D01*
G75*
G02*
X193531500Y-60624000I-237500J0D01*
G01*
X193056500Y-60624000D01*
G75*
G02*
X192819000Y-60386500I0J237500D01*
G01*
X192819000Y-59811500D01*
G75*
G02*
X193056500Y-59574000I237500J0D01*
G01*
G37*
%TD*%
D29*
%TO.C,D4*%
X215392000Y-60960000D03*
D30*
X215392000Y-66040000D03*
%TD*%
D29*
%TO.C,D3*%
X202565000Y-60960000D03*
D30*
X202565000Y-66040000D03*
%TD*%
%TO.C,D2*%
G36*
G01*
X32388000Y-87265500D02*
X32388000Y-87740500D01*
G75*
G02*
X32150500Y-87978000I-237500J0D01*
G01*
X31575500Y-87978000D01*
G75*
G02*
X31338000Y-87740500I0J237500D01*
G01*
X31338000Y-87265500D01*
G75*
G02*
X31575500Y-87028000I237500J0D01*
G01*
X32150500Y-87028000D01*
G75*
G02*
X32388000Y-87265500I0J-237500D01*
G01*
G37*
G36*
G01*
X30638000Y-87265500D02*
X30638000Y-87740500D01*
G75*
G02*
X30400500Y-87978000I-237500J0D01*
G01*
X29825500Y-87978000D01*
G75*
G02*
X29588000Y-87740500I0J237500D01*
G01*
X29588000Y-87265500D01*
G75*
G02*
X29825500Y-87028000I237500J0D01*
G01*
X30400500Y-87028000D01*
G75*
G02*
X30638000Y-87265500I0J-237500D01*
G01*
G37*
%TD*%
%TO.C,D1*%
G36*
G01*
X21593000Y-87392500D02*
X21593000Y-87867500D01*
G75*
G02*
X21355500Y-88105000I-237500J0D01*
G01*
X20780500Y-88105000D01*
G75*
G02*
X20543000Y-87867500I0J237500D01*
G01*
X20543000Y-87392500D01*
G75*
G02*
X20780500Y-87155000I237500J0D01*
G01*
X21355500Y-87155000D01*
G75*
G02*
X21593000Y-87392500I0J-237500D01*
G01*
G37*
G36*
G01*
X19843000Y-87392500D02*
X19843000Y-87867500D01*
G75*
G02*
X19605500Y-88105000I-237500J0D01*
G01*
X19030500Y-88105000D01*
G75*
G02*
X18793000Y-87867500I0J237500D01*
G01*
X18793000Y-87392500D01*
G75*
G02*
X19030500Y-87155000I237500J0D01*
G01*
X19605500Y-87155000D01*
G75*
G02*
X19843000Y-87392500I0J-237500D01*
G01*
G37*
%TD*%
D31*
%TO.C,Conn13*%
X28512000Y-48800000D03*
X28512000Y-50800000D03*
X30512000Y-48800000D03*
X30512000Y-50800000D03*
X32512000Y-48800000D03*
D32*
X32512000Y-50800000D03*
%TD*%
%TO.C,C27*%
G36*
G01*
X20811500Y-49332000D02*
X20336500Y-49332000D01*
G75*
G02*
X20099000Y-49094500I0J237500D01*
G01*
X20099000Y-48494500D01*
G75*
G02*
X20336500Y-48257000I237500J0D01*
G01*
X20811500Y-48257000D01*
G75*
G02*
X21049000Y-48494500I0J-237500D01*
G01*
X21049000Y-49094500D01*
G75*
G02*
X20811500Y-49332000I-237500J0D01*
G01*
G37*
G36*
G01*
X20811500Y-51057000D02*
X20336500Y-51057000D01*
G75*
G02*
X20099000Y-50819500I0J237500D01*
G01*
X20099000Y-50219500D01*
G75*
G02*
X20336500Y-49982000I237500J0D01*
G01*
X20811500Y-49982000D01*
G75*
G02*
X21049000Y-50219500I0J-237500D01*
G01*
X21049000Y-50819500D01*
G75*
G02*
X20811500Y-51057000I-237500J0D01*
G01*
G37*
%TD*%
%TO.C,C26*%
G36*
G01*
X37521000Y-63262500D02*
X37521000Y-63737500D01*
G75*
G02*
X37283500Y-63975000I-237500J0D01*
G01*
X36683500Y-63975000D01*
G75*
G02*
X36446000Y-63737500I0J237500D01*
G01*
X36446000Y-63262500D01*
G75*
G02*
X36683500Y-63025000I237500J0D01*
G01*
X37283500Y-63025000D01*
G75*
G02*
X37521000Y-63262500I0J-237500D01*
G01*
G37*
G36*
G01*
X39246000Y-63262500D02*
X39246000Y-63737500D01*
G75*
G02*
X39008500Y-63975000I-237500J0D01*
G01*
X38408500Y-63975000D01*
G75*
G02*
X38171000Y-63737500I0J237500D01*
G01*
X38171000Y-63262500D01*
G75*
G02*
X38408500Y-63025000I237500J0D01*
G01*
X39008500Y-63025000D01*
G75*
G02*
X39246000Y-63262500I0J-237500D01*
G01*
G37*
%TD*%
%TO.C,C25*%
G36*
G01*
X32368500Y-73081000D02*
X31893500Y-73081000D01*
G75*
G02*
X31656000Y-72843500I0J237500D01*
G01*
X31656000Y-72243500D01*
G75*
G02*
X31893500Y-72006000I237500J0D01*
G01*
X32368500Y-72006000D01*
G75*
G02*
X32606000Y-72243500I0J-237500D01*
G01*
X32606000Y-72843500D01*
G75*
G02*
X32368500Y-73081000I-237500J0D01*
G01*
G37*
G36*
G01*
X32368500Y-74806000D02*
X31893500Y-74806000D01*
G75*
G02*
X31656000Y-74568500I0J237500D01*
G01*
X31656000Y-73968500D01*
G75*
G02*
X31893500Y-73731000I237500J0D01*
G01*
X32368500Y-73731000D01*
G75*
G02*
X32606000Y-73968500I0J-237500D01*
G01*
X32606000Y-74568500D01*
G75*
G02*
X32368500Y-74806000I-237500J0D01*
G01*
G37*
%TD*%
%TO.C,C24*%
G36*
G01*
X88281500Y-71699000D02*
X88756500Y-71699000D01*
G75*
G02*
X88994000Y-71936500I0J-237500D01*
G01*
X88994000Y-72536500D01*
G75*
G02*
X88756500Y-72774000I-237500J0D01*
G01*
X88281500Y-72774000D01*
G75*
G02*
X88044000Y-72536500I0J237500D01*
G01*
X88044000Y-71936500D01*
G75*
G02*
X88281500Y-71699000I237500J0D01*
G01*
G37*
G36*
G01*
X88281500Y-69974000D02*
X88756500Y-69974000D01*
G75*
G02*
X88994000Y-70211500I0J-237500D01*
G01*
X88994000Y-70811500D01*
G75*
G02*
X88756500Y-71049000I-237500J0D01*
G01*
X88281500Y-71049000D01*
G75*
G02*
X88044000Y-70811500I0J237500D01*
G01*
X88044000Y-70211500D01*
G75*
G02*
X88281500Y-69974000I237500J0D01*
G01*
G37*
%TD*%
%TO.C,C23*%
G36*
G01*
X106569500Y-71672500D02*
X107044500Y-71672500D01*
G75*
G02*
X107282000Y-71910000I0J-237500D01*
G01*
X107282000Y-72510000D01*
G75*
G02*
X107044500Y-72747500I-237500J0D01*
G01*
X106569500Y-72747500D01*
G75*
G02*
X106332000Y-72510000I0J237500D01*
G01*
X106332000Y-71910000D01*
G75*
G02*
X106569500Y-71672500I237500J0D01*
G01*
G37*
G36*
G01*
X106569500Y-69947500D02*
X107044500Y-69947500D01*
G75*
G02*
X107282000Y-70185000I0J-237500D01*
G01*
X107282000Y-70785000D01*
G75*
G02*
X107044500Y-71022500I-237500J0D01*
G01*
X106569500Y-71022500D01*
G75*
G02*
X106332000Y-70785000I0J237500D01*
G01*
X106332000Y-70185000D01*
G75*
G02*
X106569500Y-69947500I237500J0D01*
G01*
G37*
%TD*%
%TO.C,C22*%
G36*
G01*
X70120500Y-71699000D02*
X70595500Y-71699000D01*
G75*
G02*
X70833000Y-71936500I0J-237500D01*
G01*
X70833000Y-72536500D01*
G75*
G02*
X70595500Y-72774000I-237500J0D01*
G01*
X70120500Y-72774000D01*
G75*
G02*
X69883000Y-72536500I0J237500D01*
G01*
X69883000Y-71936500D01*
G75*
G02*
X70120500Y-71699000I237500J0D01*
G01*
G37*
G36*
G01*
X70120500Y-69974000D02*
X70595500Y-69974000D01*
G75*
G02*
X70833000Y-70211500I0J-237500D01*
G01*
X70833000Y-70811500D01*
G75*
G02*
X70595500Y-71049000I-237500J0D01*
G01*
X70120500Y-71049000D01*
G75*
G02*
X69883000Y-70811500I0J237500D01*
G01*
X69883000Y-70211500D01*
G75*
G02*
X70120500Y-69974000I237500J0D01*
G01*
G37*
%TD*%
%TO.C,C21*%
G36*
G01*
X51832500Y-71699000D02*
X52307500Y-71699000D01*
G75*
G02*
X52545000Y-71936500I0J-237500D01*
G01*
X52545000Y-72536500D01*
G75*
G02*
X52307500Y-72774000I-237500J0D01*
G01*
X51832500Y-72774000D01*
G75*
G02*
X51595000Y-72536500I0J237500D01*
G01*
X51595000Y-71936500D01*
G75*
G02*
X51832500Y-71699000I237500J0D01*
G01*
G37*
G36*
G01*
X51832500Y-69974000D02*
X52307500Y-69974000D01*
G75*
G02*
X52545000Y-70211500I0J-237500D01*
G01*
X52545000Y-70811500D01*
G75*
G02*
X52307500Y-71049000I-237500J0D01*
G01*
X51832500Y-71049000D01*
G75*
G02*
X51595000Y-70811500I0J237500D01*
G01*
X51595000Y-70211500D01*
G75*
G02*
X51832500Y-69974000I237500J0D01*
G01*
G37*
%TD*%
%TO.C,C20*%
G36*
G01*
X87940000Y-58888000D02*
X87940000Y-59363000D01*
G75*
G02*
X87702500Y-59600500I-237500J0D01*
G01*
X87102500Y-59600500D01*
G75*
G02*
X86865000Y-59363000I0J237500D01*
G01*
X86865000Y-58888000D01*
G75*
G02*
X87102500Y-58650500I237500J0D01*
G01*
X87702500Y-58650500D01*
G75*
G02*
X87940000Y-58888000I0J-237500D01*
G01*
G37*
G36*
G01*
X89665000Y-58888000D02*
X89665000Y-59363000D01*
G75*
G02*
X89427500Y-59600500I-237500J0D01*
G01*
X88827500Y-59600500D01*
G75*
G02*
X88590000Y-59363000I0J237500D01*
G01*
X88590000Y-58888000D01*
G75*
G02*
X88827500Y-58650500I237500J0D01*
G01*
X89427500Y-58650500D01*
G75*
G02*
X89665000Y-58888000I0J-237500D01*
G01*
G37*
%TD*%
%TO.C,C19*%
G36*
G01*
X106228000Y-59071500D02*
X106228000Y-59546500D01*
G75*
G02*
X105990500Y-59784000I-237500J0D01*
G01*
X105390500Y-59784000D01*
G75*
G02*
X105153000Y-59546500I0J237500D01*
G01*
X105153000Y-59071500D01*
G75*
G02*
X105390500Y-58834000I237500J0D01*
G01*
X105990500Y-58834000D01*
G75*
G02*
X106228000Y-59071500I0J-237500D01*
G01*
G37*
G36*
G01*
X107953000Y-59071500D02*
X107953000Y-59546500D01*
G75*
G02*
X107715500Y-59784000I-237500J0D01*
G01*
X107115500Y-59784000D01*
G75*
G02*
X106878000Y-59546500I0J237500D01*
G01*
X106878000Y-59071500D01*
G75*
G02*
X107115500Y-58834000I237500J0D01*
G01*
X107715500Y-58834000D01*
G75*
G02*
X107953000Y-59071500I0J-237500D01*
G01*
G37*
%TD*%
%TO.C,C18*%
G36*
G01*
X69652000Y-58817500D02*
X69652000Y-59292500D01*
G75*
G02*
X69414500Y-59530000I-237500J0D01*
G01*
X68814500Y-59530000D01*
G75*
G02*
X68577000Y-59292500I0J237500D01*
G01*
X68577000Y-58817500D01*
G75*
G02*
X68814500Y-58580000I237500J0D01*
G01*
X69414500Y-58580000D01*
G75*
G02*
X69652000Y-58817500I0J-237500D01*
G01*
G37*
G36*
G01*
X71377000Y-58817500D02*
X71377000Y-59292500D01*
G75*
G02*
X71139500Y-59530000I-237500J0D01*
G01*
X70539500Y-59530000D01*
G75*
G02*
X70302000Y-59292500I0J237500D01*
G01*
X70302000Y-58817500D01*
G75*
G02*
X70539500Y-58580000I237500J0D01*
G01*
X71139500Y-58580000D01*
G75*
G02*
X71377000Y-58817500I0J-237500D01*
G01*
G37*
%TD*%
%TO.C,C17*%
G36*
G01*
X51237000Y-58817500D02*
X51237000Y-59292500D01*
G75*
G02*
X50999500Y-59530000I-237500J0D01*
G01*
X50399500Y-59530000D01*
G75*
G02*
X50162000Y-59292500I0J237500D01*
G01*
X50162000Y-58817500D01*
G75*
G02*
X50399500Y-58580000I237500J0D01*
G01*
X50999500Y-58580000D01*
G75*
G02*
X51237000Y-58817500I0J-237500D01*
G01*
G37*
G36*
G01*
X52962000Y-58817500D02*
X52962000Y-59292500D01*
G75*
G02*
X52724500Y-59530000I-237500J0D01*
G01*
X52124500Y-59530000D01*
G75*
G02*
X51887000Y-59292500I0J237500D01*
G01*
X51887000Y-58817500D01*
G75*
G02*
X52124500Y-58580000I237500J0D01*
G01*
X52724500Y-58580000D01*
G75*
G02*
X52962000Y-58817500I0J-237500D01*
G01*
G37*
%TD*%
%TO.C,C16*%
G36*
G01*
X124857500Y-71725500D02*
X125332500Y-71725500D01*
G75*
G02*
X125570000Y-71963000I0J-237500D01*
G01*
X125570000Y-72563000D01*
G75*
G02*
X125332500Y-72800500I-237500J0D01*
G01*
X124857500Y-72800500D01*
G75*
G02*
X124620000Y-72563000I0J237500D01*
G01*
X124620000Y-71963000D01*
G75*
G02*
X124857500Y-71725500I237500J0D01*
G01*
G37*
G36*
G01*
X124857500Y-70000500D02*
X125332500Y-70000500D01*
G75*
G02*
X125570000Y-70238000I0J-237500D01*
G01*
X125570000Y-70838000D01*
G75*
G02*
X125332500Y-71075500I-237500J0D01*
G01*
X124857500Y-71075500D01*
G75*
G02*
X124620000Y-70838000I0J237500D01*
G01*
X124620000Y-70238000D01*
G75*
G02*
X124857500Y-70000500I237500J0D01*
G01*
G37*
%TD*%
%TO.C,C15*%
G36*
G01*
X143272500Y-71826000D02*
X143747500Y-71826000D01*
G75*
G02*
X143985000Y-72063500I0J-237500D01*
G01*
X143985000Y-72663500D01*
G75*
G02*
X143747500Y-72901000I-237500J0D01*
G01*
X143272500Y-72901000D01*
G75*
G02*
X143035000Y-72663500I0J237500D01*
G01*
X143035000Y-72063500D01*
G75*
G02*
X143272500Y-71826000I237500J0D01*
G01*
G37*
G36*
G01*
X143272500Y-70101000D02*
X143747500Y-70101000D01*
G75*
G02*
X143985000Y-70338500I0J-237500D01*
G01*
X143985000Y-70938500D01*
G75*
G02*
X143747500Y-71176000I-237500J0D01*
G01*
X143272500Y-71176000D01*
G75*
G02*
X143035000Y-70938500I0J237500D01*
G01*
X143035000Y-70338500D01*
G75*
G02*
X143272500Y-70101000I237500J0D01*
G01*
G37*
%TD*%
%TO.C,C14*%
G36*
G01*
X161687500Y-71826000D02*
X162162500Y-71826000D01*
G75*
G02*
X162400000Y-72063500I0J-237500D01*
G01*
X162400000Y-72663500D01*
G75*
G02*
X162162500Y-72901000I-237500J0D01*
G01*
X161687500Y-72901000D01*
G75*
G02*
X161450000Y-72663500I0J237500D01*
G01*
X161450000Y-72063500D01*
G75*
G02*
X161687500Y-71826000I237500J0D01*
G01*
G37*
G36*
G01*
X161687500Y-70101000D02*
X162162500Y-70101000D01*
G75*
G02*
X162400000Y-70338500I0J-237500D01*
G01*
X162400000Y-70938500D01*
G75*
G02*
X162162500Y-71176000I-237500J0D01*
G01*
X161687500Y-71176000D01*
G75*
G02*
X161450000Y-70938500I0J237500D01*
G01*
X161450000Y-70338500D01*
G75*
G02*
X161687500Y-70101000I237500J0D01*
G01*
G37*
%TD*%
%TO.C,C13*%
G36*
G01*
X180102500Y-71699000D02*
X180577500Y-71699000D01*
G75*
G02*
X180815000Y-71936500I0J-237500D01*
G01*
X180815000Y-72536500D01*
G75*
G02*
X180577500Y-72774000I-237500J0D01*
G01*
X180102500Y-72774000D01*
G75*
G02*
X179865000Y-72536500I0J237500D01*
G01*
X179865000Y-71936500D01*
G75*
G02*
X180102500Y-71699000I237500J0D01*
G01*
G37*
G36*
G01*
X180102500Y-69974000D02*
X180577500Y-69974000D01*
G75*
G02*
X180815000Y-70211500I0J-237500D01*
G01*
X180815000Y-70811500D01*
G75*
G02*
X180577500Y-71049000I-237500J0D01*
G01*
X180102500Y-71049000D01*
G75*
G02*
X179865000Y-70811500I0J237500D01*
G01*
X179865000Y-70211500D01*
G75*
G02*
X180102500Y-69974000I237500J0D01*
G01*
G37*
%TD*%
%TO.C,C12*%
G36*
G01*
X124516000Y-59071500D02*
X124516000Y-59546500D01*
G75*
G02*
X124278500Y-59784000I-237500J0D01*
G01*
X123678500Y-59784000D01*
G75*
G02*
X123441000Y-59546500I0J237500D01*
G01*
X123441000Y-59071500D01*
G75*
G02*
X123678500Y-58834000I237500J0D01*
G01*
X124278500Y-58834000D01*
G75*
G02*
X124516000Y-59071500I0J-237500D01*
G01*
G37*
G36*
G01*
X126241000Y-59071500D02*
X126241000Y-59546500D01*
G75*
G02*
X126003500Y-59784000I-237500J0D01*
G01*
X125403500Y-59784000D01*
G75*
G02*
X125166000Y-59546500I0J237500D01*
G01*
X125166000Y-59071500D01*
G75*
G02*
X125403500Y-58834000I237500J0D01*
G01*
X126003500Y-58834000D01*
G75*
G02*
X126241000Y-59071500I0J-237500D01*
G01*
G37*
%TD*%
%TO.C,C11*%
G36*
G01*
X142758500Y-59103000D02*
X142758500Y-59578000D01*
G75*
G02*
X142521000Y-59815500I-237500J0D01*
G01*
X141921000Y-59815500D01*
G75*
G02*
X141683500Y-59578000I0J237500D01*
G01*
X141683500Y-59103000D01*
G75*
G02*
X141921000Y-58865500I237500J0D01*
G01*
X142521000Y-58865500D01*
G75*
G02*
X142758500Y-59103000I0J-237500D01*
G01*
G37*
G36*
G01*
X144483500Y-59103000D02*
X144483500Y-59578000D01*
G75*
G02*
X144246000Y-59815500I-237500J0D01*
G01*
X143646000Y-59815500D01*
G75*
G02*
X143408500Y-59578000I0J237500D01*
G01*
X143408500Y-59103000D01*
G75*
G02*
X143646000Y-58865500I237500J0D01*
G01*
X144246000Y-58865500D01*
G75*
G02*
X144483500Y-59103000I0J-237500D01*
G01*
G37*
%TD*%
%TO.C,C10*%
G36*
G01*
X161092000Y-58944500D02*
X161092000Y-59419500D01*
G75*
G02*
X160854500Y-59657000I-237500J0D01*
G01*
X160254500Y-59657000D01*
G75*
G02*
X160017000Y-59419500I0J237500D01*
G01*
X160017000Y-58944500D01*
G75*
G02*
X160254500Y-58707000I237500J0D01*
G01*
X160854500Y-58707000D01*
G75*
G02*
X161092000Y-58944500I0J-237500D01*
G01*
G37*
G36*
G01*
X162817000Y-58944500D02*
X162817000Y-59419500D01*
G75*
G02*
X162579500Y-59657000I-237500J0D01*
G01*
X161979500Y-59657000D01*
G75*
G02*
X161742000Y-59419500I0J237500D01*
G01*
X161742000Y-58944500D01*
G75*
G02*
X161979500Y-58707000I237500J0D01*
G01*
X162579500Y-58707000D01*
G75*
G02*
X162817000Y-58944500I0J-237500D01*
G01*
G37*
%TD*%
%TO.C,C9*%
G36*
G01*
X179380000Y-59452500D02*
X179380000Y-59927500D01*
G75*
G02*
X179142500Y-60165000I-237500J0D01*
G01*
X178542500Y-60165000D01*
G75*
G02*
X178305000Y-59927500I0J237500D01*
G01*
X178305000Y-59452500D01*
G75*
G02*
X178542500Y-59215000I237500J0D01*
G01*
X179142500Y-59215000D01*
G75*
G02*
X179380000Y-59452500I0J-237500D01*
G01*
G37*
G36*
G01*
X181105000Y-59452500D02*
X181105000Y-59927500D01*
G75*
G02*
X180867500Y-60165000I-237500J0D01*
G01*
X180267500Y-60165000D01*
G75*
G02*
X180030000Y-59927500I0J237500D01*
G01*
X180030000Y-59452500D01*
G75*
G02*
X180267500Y-59215000I237500J0D01*
G01*
X180867500Y-59215000D01*
G75*
G02*
X181105000Y-59452500I0J-237500D01*
G01*
G37*
%TD*%
D33*
%TO.C,C8*%
X220265000Y-92456000D03*
D34*
X215265000Y-92456000D03*
%TD*%
D33*
%TO.C,C7*%
X206422000Y-92329000D03*
D34*
X201422000Y-92329000D03*
%TD*%
D33*
%TO.C,C6*%
X220265000Y-77470000D03*
D34*
X215265000Y-77470000D03*
%TD*%
D33*
%TO.C,C5*%
X206422000Y-77470000D03*
D34*
X201422000Y-77470000D03*
%TD*%
%TO.C,C2*%
G36*
G01*
X26907500Y-99698000D02*
X26432500Y-99698000D01*
G75*
G02*
X26195000Y-99460500I0J237500D01*
G01*
X26195000Y-98860500D01*
G75*
G02*
X26432500Y-98623000I237500J0D01*
G01*
X26907500Y-98623000D01*
G75*
G02*
X27145000Y-98860500I0J-237500D01*
G01*
X27145000Y-99460500D01*
G75*
G02*
X26907500Y-99698000I-237500J0D01*
G01*
G37*
G36*
G01*
X26907500Y-97973000D02*
X26432500Y-97973000D01*
G75*
G02*
X26195000Y-97735500I0J237500D01*
G01*
X26195000Y-97135500D01*
G75*
G02*
X26432500Y-96898000I237500J0D01*
G01*
X26907500Y-96898000D01*
G75*
G02*
X27145000Y-97135500I0J-237500D01*
G01*
X27145000Y-97735500D01*
G75*
G02*
X26907500Y-97973000I-237500J0D01*
G01*
G37*
%TD*%
%TO.C,C1*%
G36*
G01*
X37829500Y-99671500D02*
X37354500Y-99671500D01*
G75*
G02*
X37117000Y-99434000I0J237500D01*
G01*
X37117000Y-98834000D01*
G75*
G02*
X37354500Y-98596500I237500J0D01*
G01*
X37829500Y-98596500D01*
G75*
G02*
X38067000Y-98834000I0J-237500D01*
G01*
X38067000Y-99434000D01*
G75*
G02*
X37829500Y-99671500I-237500J0D01*
G01*
G37*
G36*
G01*
X37829500Y-97946500D02*
X37354500Y-97946500D01*
G75*
G02*
X37117000Y-97709000I0J237500D01*
G01*
X37117000Y-97109000D01*
G75*
G02*
X37354500Y-96871500I237500J0D01*
G01*
X37829500Y-96871500D01*
G75*
G02*
X38067000Y-97109000I0J-237500D01*
G01*
X38067000Y-97709000D01*
G75*
G02*
X37829500Y-97946500I-237500J0D01*
G01*
G37*
%TD*%
M02*
