M48
; DRILL file {KiCad (5.1.6)-1} date 03/18/22 21:04:43
; FORMAT={-:-/ absolute / inch / decimal}
; #@! TF.CreationDate,2022-03-18T21:04:43-05:00
; #@! TF.GenerationSoftware,Kicad,Pcbnew,(5.1.6)-1
; #@! TF.FileFunction,Plated,1,2,PTH
FMAT,2
INCH
T1C0.0157
T2C0.0276
T3C0.0295
T4C0.0315
T5C0.0335
T6C0.0354
T7C0.0402
T8C0.0472
T9C0.0512
T10C0.0630
T11C0.0660
T12C0.0787
T13C0.1280
T14C0.3600
%
G90
G05
T1
X0.6Y-2.1
X0.6Y-2.25
X0.6Y-2.4
X0.6Y-2.55
X0.6Y-2.7
X0.75Y-2.25
X0.75Y-2.4
X0.75Y-2.55
X0.75Y-2.7
X0.835Y-3.39
X0.9Y-2.4
X0.9Y-2.55
X0.9Y-2.7
X1.04Y-3.525
X1.05Y-2.55
X1.05Y-2.7
X1.2Y-2.7
X1.255Y-3.39
X1.315Y-2.505
X1.315Y-2.555
X1.315Y-2.605
X1.36Y-2.805
X1.39Y-2.73
X1.39Y-3.125
X1.4Y-4.3
X1.4Y-4.8
X1.4Y-5.3
X1.43Y-2.765
X1.43Y-3.46
X1.46Y-2.26
X1.46Y-2.44
X1.465Y-3.52
X1.47Y-3.125
X1.475Y-3.03
X1.525Y-1.89
X1.525Y-2.59
X1.525Y-2.64
X1.525Y-2.685
X1.525Y-2.73
X1.855Y-2.54
X1.88Y-1.26
X1.88Y-1.54
X1.9Y-3.8
X1.9Y-4.3
X1.9Y-4.8
X1.9Y-5.3
X1.975Y-2.06
X2.015Y-2.39
X2.02Y-1.4
X2.05Y-2.92
X2.135Y-2.4
X2.14Y-1.26
X2.14Y-1.54
X2.19Y-2.425
X2.4Y-3.8
X2.4Y-4.3
X2.4Y-4.8
X2.4Y-5.3
X2.62Y-1.26
X2.62Y-1.54
X2.7Y-2.065
X2.74Y-2.395
X2.76Y-1.4
X2.77Y-2.925
X2.855Y-2.39
X2.88Y-1.26
X2.88Y-1.54
X2.9Y-3.8
X2.9Y-4.3
X2.9Y-4.8
X2.9Y-5.3
X2.9088Y-2.4288
X3.36Y-1.26
X3.36Y-1.54
X3.4Y-3.8
X3.4Y-4.3
X3.4Y-4.8
X3.4Y-5.3
X3.42Y-2.05
X3.46Y-2.395
X3.485Y-2.935
X3.5Y-1.4
X3.57Y-2.4
X3.62Y-1.26
X3.62Y-1.54
X3.63Y-2.4226
X3.9Y-3.8
X3.9Y-4.3
X3.9Y-4.8
X3.9Y-5.3
X4.08Y-1.26
X4.08Y-1.54
X4.14Y-2.05
X4.18Y-2.4
X4.205Y-2.925
X4.22Y-1.4
X4.295Y-2.4
X4.34Y-1.26
X4.34Y-1.54
X4.3488Y-2.4238
X4.4Y-3.8
X4.4Y-4.3
X4.4Y-4.8
X4.4Y-5.3
X4.8Y-1.26
X4.8Y-1.54
X4.86Y-2.04
X4.9Y-2.4
X4.9Y-3.8
X4.9Y-4.3
X4.9Y-4.8
X4.9Y-5.3
X4.925Y-2.925
X4.94Y-1.4
X5.015Y-2.4
X5.06Y-1.26
X5.06Y-1.54
X5.0688Y-2.4238
X5.4Y-3.8
X5.4Y-4.3
X5.4Y-4.8
X5.4Y-5.3
X5.5Y-1.26
X5.5Y-1.54
X5.58Y-2.035
X5.62Y-2.4
X5.64Y-1.4
X5.65Y-2.93
X5.734Y-2.399
X5.76Y-1.26
X5.76Y-1.54
X5.7888Y-2.4288
X5.9Y-3.8
X5.9Y-4.3
X5.9Y-4.8
X5.9Y-5.3
X6.22Y-1.26
X6.22Y-1.54
X6.3Y-2.025
X6.34Y-2.395
X6.36Y-1.4
X6.375Y-2.93
X6.4Y-3.8
X6.4Y-4.3
X6.4Y-4.8
X6.4Y-5.3
X6.449Y-2.399
X6.48Y-1.26
X6.48Y-1.54
X6.5088Y-2.4288
X6.9Y-3.8
X6.9Y-4.3
X6.9Y-4.8
X6.9Y-5.3
X6.94Y-1.26
X6.94Y-1.54
X7.015Y-2.015
X7.065Y-2.405
X7.08Y-1.4
X7.1Y-2.925
X7.173Y-2.401
X7.2Y-1.26
X7.2Y-1.54
X7.225Y-2.43
X7.4Y-3.8
X7.4Y-4.3
X7.4Y-4.8
X7.4Y-5.3
X7.9Y-5.3
X8.4Y-5.3
T2
X0.2111Y-1.7156
X0.2111Y-1.7944
X0.2898Y-1.7156
X0.2898Y-1.7944
X0.3685Y-1.7156
X0.3685Y-1.7944
T3
X-0.0149Y-1.455
X-0.0149Y-1.555
X-0.0149Y-1.655
X-0.0149Y-1.755
X-0.0149Y-1.855
T4
X-0.135Y-1.205
X-0.135Y-1.305
X-0.135Y-1.405
X-0.135Y-1.505
X-0.135Y-1.605
X-0.135Y-1.705
X-0.135Y-1.805
X-0.135Y-1.905
X-0.135Y-2.005
X-0.135Y-2.105
X-0.135Y-2.205
X-0.135Y-2.305
X-0.135Y-2.405
X-0.135Y-2.505
X-0.135Y-2.605
X-0.135Y-2.705
X-0.135Y-2.805
X-0.135Y-2.905
X-0.135Y-3.005
X-0.135Y-3.105
X-0.135Y-3.205
X-0.135Y-3.305
X-0.135Y-3.405
X-0.135Y-3.505
X-0.035Y-3.005
X0.065Y-3.005
X0.165Y-3.005
X0.265Y-3.005
X0.365Y-1.305
X0.365Y-3.005
X0.465Y-1.205
X0.465Y-1.305
X0.465Y-1.405
X0.465Y-1.505
X0.465Y-1.605
X0.465Y-1.705
X0.465Y-1.805
X0.465Y-1.905
X0.465Y-2.005
X0.465Y-2.105
X0.465Y-2.205
X0.465Y-2.305
X0.465Y-2.405
X0.465Y-2.505
X0.465Y-2.605
X0.465Y-2.705
X0.465Y-2.805
X0.465Y-2.905
X0.465Y-3.005
X0.465Y-3.105
X0.465Y-3.205
X0.465Y-3.305
X0.465Y-3.405
X0.465Y-3.505
X1.1225Y-1.9213
X1.1225Y-2.0
X1.2013Y-1.9213
X1.2013Y-2.0
X1.28Y-1.9213
X1.28Y-2.0
T5
X0.9039Y-3.725
X0.9039Y-3.825
X0.9039Y-3.925
X1.3339Y-3.725
X1.3339Y-3.825
X1.3339Y-3.925
T6
X-0.54Y-2.64
X-0.54Y-2.74
X-0.54Y-2.84
X-0.54Y-2.94
X-0.54Y-3.04
X-0.54Y-3.14
X-0.54Y-3.24
X-0.54Y-3.34
X-0.54Y-3.44
X-0.54Y-1.535
X-0.54Y-1.635
X-0.54Y-1.735
X-0.54Y-1.835
X-0.54Y-1.935
X-0.54Y-2.035
X-0.54Y-2.135
X-0.54Y-2.235
X-0.54Y-2.335
X0.8749Y-1.7968
X0.9249Y-1.6968
X0.9749Y-1.7968
X1.0249Y-1.6968
X1.0749Y-1.7968
X1.1249Y-1.6968
X1.1749Y-1.7968
X1.2249Y-1.6968
T7
X0.8009Y-1.3173
X0.9009Y-1.2468
X1.1989Y-1.3173
X1.2989Y-1.2468
T8
X7.93Y-3.635
X8.1269Y-3.635
X8.475Y-3.64
X8.6719Y-3.64
X8.475Y-3.05
X8.6719Y-3.05
X7.93Y-3.05
X8.1269Y-3.05
T9
X8.48Y-2.4
X8.48Y-2.6
X7.975Y-2.4
X7.975Y-2.6
T10
X0.7399Y-1.5669
X1.36Y-1.5669
T11
X2.905Y-2.94
X2.905Y-3.47
X3.04Y-2.94
X3.04Y-3.47
X5.06Y-2.94
X5.06Y-3.47
X5.195Y-2.94
X5.195Y-3.47
X4.34Y-2.94
X4.34Y-3.47
X4.475Y-2.94
X4.475Y-3.47
X0.455Y-5.18
X0.455Y-5.315
X0.985Y-5.18
X0.985Y-5.315
X3.62Y-2.94
X3.62Y-3.47
X3.755Y-2.94
X3.755Y-3.47
X2.185Y-2.94
X2.185Y-3.47
X2.32Y-2.94
X2.32Y-3.47
X7.22Y-2.94
X7.22Y-3.47
X7.355Y-2.94
X7.355Y-3.47
X5.785Y-2.94
X5.785Y-3.47
X5.92Y-2.94
X5.92Y-3.47
X1.685Y-2.94
X1.685Y-3.47
X1.82Y-2.94
X1.82Y-3.47
X6.505Y-2.94
X6.505Y-3.47
X6.64Y-2.94
X6.64Y-3.47
T13
X0.8249Y-1.4468
X1.2749Y-1.4468
T14
X8.24Y-1.75
X8.24Y-4.43
T12
G00X4.5976Y-1.7123
M15
G01X4.5149Y-1.7123
M16
G05
G00X4.5976Y-2.0223
M15
G01X4.5149Y-2.0223
M16
G05
G00X3.8776Y-1.7123
M15
G01X3.7949Y-1.7123
M16
G05
G00X3.8776Y-2.0223
M15
G01X3.7949Y-2.0223
M16
G05
G00X7.4576Y-1.7123
M15
G01X7.3749Y-1.7123
M16
G05
G00X7.4576Y-2.0223
M15
G01X7.3749Y-2.0223
M16
G05
G00X5.3126Y-1.7123
M15
G01X5.2299Y-1.7123
M16
G05
G00X5.3126Y-2.0223
M15
G01X5.2299Y-2.0223
M16
G05
G00X-0.2977Y-5.2024
M15
G01X-0.2977Y-5.2851
M16
G05
G00X0.0123Y-5.2024
M15
G01X0.0123Y-5.2851
M16
G05
G00X2.4376Y-1.7123
M15
G01X2.3549Y-1.7123
M16
G05
G00X2.4376Y-2.0223
M15
G01X2.3549Y-2.0223
M16
G05
G00X1.7076Y-1.7123
M15
G01X1.6249Y-1.7123
M16
G05
G00X1.7076Y-2.0223
M15
G01X1.6249Y-2.0223
M16
G05
G00X3.1576Y-1.7123
M15
G01X3.0749Y-1.7123
M16
G05
G00X3.1576Y-2.0223
M15
G01X3.0749Y-2.0223
M16
G05
G00X6.7426Y-1.7123
M15
G01X6.6599Y-1.7123
M16
G05
G00X6.7426Y-2.0223
M15
G01X6.6599Y-2.0223
M16
G05
G00X6.0226Y-1.7123
M15
G01X5.9399Y-1.7123
M16
G05
G00X6.0226Y-2.0223
M15
G01X5.9399Y-2.0223
M16
G05
T0
M30
