%TF.GenerationSoftware,KiCad,Pcbnew,(5.1.8)-1*%
%TF.CreationDate,2020-11-29T21:51:29-06:00*%
%TF.ProjectId,PackVoltage_2021_Rev1,5061636b-566f-46c7-9461-67655f323032,rev?*%
%TF.SameCoordinates,Original*%
%TF.FileFunction,Paste,Top*%
%TF.FilePolarity,Positive*%
%FSLAX46Y46*%
G04 Gerber Fmt 4.6, Leading zero omitted, Abs format (unit mm)*
G04 Created by KiCad (PCBNEW (5.1.8)-1) date 2020-11-29 21:51:29*
%MOMM*%
%LPD*%
G01*
G04 APERTURE LIST*
%ADD10R,0.990600X1.778000*%
%ADD11R,0.650000X1.560000*%
%ADD12R,1.550000X0.600000*%
%ADD13R,4.600000X1.100000*%
%ADD14R,4.550000X5.250000*%
%ADD15R,5.250000X4.550000*%
%ADD16R,1.100000X4.600000*%
%ADD17R,0.900000X0.600000*%
%ADD18R,0.600000X0.900000*%
%ADD19R,0.600000X1.050000*%
%ADD20R,1.050000X0.600000*%
%ADD21C,5.080000*%
%ADD22R,1.560000X0.650000*%
%ADD23R,0.600000X1.550000*%
G04 APERTURE END LIST*
D10*
%TO.C,U24*%
X137795000Y-146456400D03*
X140335000Y-146456400D03*
X142875000Y-146456400D03*
X145415000Y-146456400D03*
X147955000Y-146456400D03*
X150495000Y-146456400D03*
X153035000Y-146456400D03*
X155575000Y-146456400D03*
X158115000Y-146456400D03*
X160655000Y-146456400D03*
X137795000Y-140563600D03*
X140335000Y-140563600D03*
X142875000Y-140563600D03*
X145415000Y-140563600D03*
X147955000Y-140563600D03*
X150495000Y-140563600D03*
X153035000Y-140563600D03*
X155575000Y-140563600D03*
X158115000Y-140563600D03*
X160655000Y-140563600D03*
X137795000Y-97383600D03*
X140335000Y-97383600D03*
X142875000Y-97383600D03*
X145415000Y-97383600D03*
X147955000Y-97383600D03*
X150495000Y-97383600D03*
X153035000Y-97383600D03*
X155575000Y-97383600D03*
X158115000Y-97383600D03*
X160655000Y-97383600D03*
X137795000Y-103276400D03*
X140335000Y-103276400D03*
X142875000Y-103276400D03*
X145415000Y-103276400D03*
X147955000Y-103276400D03*
X150495000Y-103276400D03*
X153035000Y-103276400D03*
X155575000Y-103276400D03*
X158115000Y-103276400D03*
X160655000Y-103276400D03*
X92075000Y-146456400D03*
X94615000Y-146456400D03*
X97155000Y-146456400D03*
X74295000Y-140563600D03*
X76835000Y-140563600D03*
X79375000Y-140563600D03*
X81915000Y-140563600D03*
X84455000Y-140563600D03*
X86995000Y-140563600D03*
X89535000Y-140563600D03*
X92075000Y-140563600D03*
X94615000Y-140563600D03*
X97155000Y-140563600D03*
X74295000Y-97383600D03*
X79375000Y-97383600D03*
X84455000Y-97383600D03*
X86995000Y-97383600D03*
X89535000Y-97383600D03*
X92075000Y-97383600D03*
X94615000Y-97383600D03*
X74295000Y-103276400D03*
X79375000Y-103276400D03*
X89535000Y-103276400D03*
X92075000Y-103276400D03*
X94615000Y-103276400D03*
X97155000Y-103276400D03*
X84455000Y-103276400D03*
X81915000Y-103276400D03*
X76835000Y-97383600D03*
X89535000Y-146456400D03*
X86995000Y-146456400D03*
X76835000Y-103276400D03*
X81915000Y-97383600D03*
X79375000Y-146456400D03*
X81915000Y-146456400D03*
X86995000Y-103276400D03*
X84455000Y-146456400D03*
X76835000Y-146456400D03*
X74295000Y-146456400D03*
X97155000Y-97383600D03*
%TD*%
D11*
%TO.C,U17*%
X46903600Y-81454000D03*
X48803600Y-81454000D03*
X48803600Y-84154000D03*
X47853600Y-84154000D03*
X46903600Y-84154000D03*
%TD*%
D12*
%TO.C,U14*%
X60850800Y-91059000D03*
X60850800Y-88519000D03*
X60850800Y-87249000D03*
X66250800Y-87249000D03*
X66250800Y-88519000D03*
X66250800Y-89789000D03*
X66250800Y-91059000D03*
%TD*%
D13*
%TO.C,R31*%
X226635000Y-100711000D03*
X226635000Y-105791000D03*
D14*
X238210000Y-106026000D03*
X233360000Y-100476000D03*
X238210000Y-100476000D03*
X233360000Y-106026000D03*
%TD*%
%TO.C,R24*%
X61249600Y-48596600D03*
X66099600Y-43046600D03*
X61249600Y-43046600D03*
X66099600Y-48596600D03*
D13*
X54524600Y-48361600D03*
X54524600Y-43281600D03*
%TD*%
%TO.C,R23*%
X226635000Y-128651000D03*
X226635000Y-133731000D03*
D14*
X238210000Y-133966000D03*
X233360000Y-128416000D03*
X238210000Y-128416000D03*
X233360000Y-133966000D03*
%TD*%
%TO.C,R15*%
G36*
G01*
X217440500Y-57133000D02*
X217915500Y-57133000D01*
G75*
G02*
X218153000Y-57370500I0J-237500D01*
G01*
X218153000Y-57945500D01*
G75*
G02*
X217915500Y-58183000I-237500J0D01*
G01*
X217440500Y-58183000D01*
G75*
G02*
X217203000Y-57945500I0J237500D01*
G01*
X217203000Y-57370500D01*
G75*
G02*
X217440500Y-57133000I237500J0D01*
G01*
G37*
G36*
G01*
X217440500Y-55383000D02*
X217915500Y-55383000D01*
G75*
G02*
X218153000Y-55620500I0J-237500D01*
G01*
X218153000Y-56195500D01*
G75*
G02*
X217915500Y-56433000I-237500J0D01*
G01*
X217440500Y-56433000D01*
G75*
G02*
X217203000Y-56195500I0J237500D01*
G01*
X217203000Y-55620500D01*
G75*
G02*
X217440500Y-55383000I237500J0D01*
G01*
G37*
%TD*%
D15*
%TO.C,R13*%
X221723000Y-34290000D03*
X216173000Y-29440000D03*
X216173000Y-34290000D03*
X221723000Y-29440000D03*
D16*
X221488000Y-41015000D03*
X216408000Y-41015000D03*
%TD*%
%TO.C,R11*%
G36*
G01*
X214966000Y-58022500D02*
X214966000Y-57547500D01*
G75*
G02*
X215203500Y-57310000I237500J0D01*
G01*
X215778500Y-57310000D01*
G75*
G02*
X216016000Y-57547500I0J-237500D01*
G01*
X216016000Y-58022500D01*
G75*
G02*
X215778500Y-58260000I-237500J0D01*
G01*
X215203500Y-58260000D01*
G75*
G02*
X214966000Y-58022500I0J237500D01*
G01*
G37*
G36*
G01*
X213216000Y-58022500D02*
X213216000Y-57547500D01*
G75*
G02*
X213453500Y-57310000I237500J0D01*
G01*
X214028500Y-57310000D01*
G75*
G02*
X214266000Y-57547500I0J-237500D01*
G01*
X214266000Y-58022500D01*
G75*
G02*
X214028500Y-58260000I-237500J0D01*
G01*
X213453500Y-58260000D01*
G75*
G02*
X213216000Y-58022500I0J237500D01*
G01*
G37*
%TD*%
D17*
%TO.C,Q10*%
X222130000Y-100715000D03*
X222130000Y-99865000D03*
X222130000Y-101565000D03*
X219830000Y-100715000D03*
X219830000Y-99865000D03*
X219830000Y-101565000D03*
X220980000Y-101565000D03*
X220980000Y-99865000D03*
D18*
X222860000Y-103415000D03*
X219100000Y-103415000D03*
X221580000Y-103415000D03*
D19*
X221620000Y-97695000D03*
X222890000Y-97695000D03*
X220340000Y-97695000D03*
X219070000Y-97695000D03*
D18*
X220380000Y-103415000D03*
D17*
X220980000Y-100715000D03*
%TD*%
%TO.C,Q7*%
X222130000Y-128401000D03*
X222130000Y-127551000D03*
X222130000Y-129251000D03*
X219830000Y-128401000D03*
X219830000Y-127551000D03*
X219830000Y-129251000D03*
X220980000Y-129251000D03*
X220980000Y-127551000D03*
D18*
X222860000Y-131101000D03*
X219100000Y-131101000D03*
X221580000Y-131101000D03*
D19*
X221620000Y-125381000D03*
X222890000Y-125381000D03*
X220340000Y-125381000D03*
X219070000Y-125381000D03*
D18*
X220380000Y-131101000D03*
D17*
X220980000Y-128401000D03*
%TD*%
%TO.C,Q6*%
X56438800Y-87648200D03*
D18*
X57038800Y-84948200D03*
D19*
X58348800Y-90668200D03*
X57078800Y-90668200D03*
X54528800Y-90668200D03*
X55798800Y-90668200D03*
D18*
X55838800Y-84948200D03*
X58318800Y-84948200D03*
X54558800Y-84948200D03*
D17*
X56438800Y-88498200D03*
X56438800Y-86798200D03*
X57588800Y-86798200D03*
X57588800Y-88498200D03*
X57588800Y-87648200D03*
X55288800Y-86798200D03*
X55288800Y-88498200D03*
X55288800Y-87648200D03*
%TD*%
D18*
%TO.C,Q5*%
X216031000Y-46355000D03*
D17*
X218731000Y-46955000D03*
D20*
X213011000Y-48265000D03*
X213011000Y-46995000D03*
X213011000Y-44445000D03*
X213011000Y-45715000D03*
D17*
X218731000Y-45755000D03*
X218731000Y-48235000D03*
X218731000Y-44475000D03*
D18*
X215181000Y-46355000D03*
X216881000Y-46355000D03*
X216881000Y-47505000D03*
X215181000Y-47505000D03*
X216031000Y-47505000D03*
X216881000Y-45205000D03*
X215181000Y-45205000D03*
X216031000Y-45205000D03*
%TD*%
%TO.C,D7*%
G36*
G01*
X175848500Y-90123000D02*
X175848500Y-90598000D01*
G75*
G02*
X175611000Y-90835500I-237500J0D01*
G01*
X175036000Y-90835500D01*
G75*
G02*
X174798500Y-90598000I0J237500D01*
G01*
X174798500Y-90123000D01*
G75*
G02*
X175036000Y-89885500I237500J0D01*
G01*
X175611000Y-89885500D01*
G75*
G02*
X175848500Y-90123000I0J-237500D01*
G01*
G37*
G36*
G01*
X177598500Y-90123000D02*
X177598500Y-90598000D01*
G75*
G02*
X177361000Y-90835500I-237500J0D01*
G01*
X176786000Y-90835500D01*
G75*
G02*
X176548500Y-90598000I0J237500D01*
G01*
X176548500Y-90123000D01*
G75*
G02*
X176786000Y-89885500I237500J0D01*
G01*
X177361000Y-89885500D01*
G75*
G02*
X177598500Y-90123000I0J-237500D01*
G01*
G37*
%TD*%
%TO.C,C14*%
G36*
G01*
X209185500Y-52088500D02*
X209660500Y-52088500D01*
G75*
G02*
X209898000Y-52326000I0J-237500D01*
G01*
X209898000Y-52901000D01*
G75*
G02*
X209660500Y-53138500I-237500J0D01*
G01*
X209185500Y-53138500D01*
G75*
G02*
X208948000Y-52901000I0J237500D01*
G01*
X208948000Y-52326000D01*
G75*
G02*
X209185500Y-52088500I237500J0D01*
G01*
G37*
G36*
G01*
X209185500Y-50338500D02*
X209660500Y-50338500D01*
G75*
G02*
X209898000Y-50576000I0J-237500D01*
G01*
X209898000Y-51151000D01*
G75*
G02*
X209660500Y-51388500I-237500J0D01*
G01*
X209185500Y-51388500D01*
G75*
G02*
X208948000Y-51151000I0J237500D01*
G01*
X208948000Y-50576000D01*
G75*
G02*
X209185500Y-50338500I237500J0D01*
G01*
G37*
%TD*%
%TO.C,C12*%
G36*
G01*
X210216000Y-57547500D02*
X210216000Y-58022500D01*
G75*
G02*
X209978500Y-58260000I-237500J0D01*
G01*
X209403500Y-58260000D01*
G75*
G02*
X209166000Y-58022500I0J237500D01*
G01*
X209166000Y-57547500D01*
G75*
G02*
X209403500Y-57310000I237500J0D01*
G01*
X209978500Y-57310000D01*
G75*
G02*
X210216000Y-57547500I0J-237500D01*
G01*
G37*
G36*
G01*
X211966000Y-57547500D02*
X211966000Y-58022500D01*
G75*
G02*
X211728500Y-58260000I-237500J0D01*
G01*
X211153500Y-58260000D01*
G75*
G02*
X210916000Y-58022500I0J237500D01*
G01*
X210916000Y-57547500D01*
G75*
G02*
X211153500Y-57310000I237500J0D01*
G01*
X211728500Y-57310000D01*
G75*
G02*
X211966000Y-57547500I0J-237500D01*
G01*
G37*
%TD*%
%TO.C,Q4*%
X183900000Y-45720000D03*
D17*
X186600000Y-46320000D03*
D20*
X180880000Y-47630000D03*
X180880000Y-46360000D03*
X180880000Y-43810000D03*
X180880000Y-45080000D03*
D17*
X186600000Y-45120000D03*
X186600000Y-47600000D03*
X186600000Y-43840000D03*
D18*
X183050000Y-45720000D03*
X184750000Y-45720000D03*
X184750000Y-46870000D03*
X183050000Y-46870000D03*
X183900000Y-46870000D03*
X184750000Y-44570000D03*
X183050000Y-44570000D03*
X183900000Y-44570000D03*
%TD*%
%TO.C,Q3*%
X84840000Y-45720000D03*
D17*
X87540000Y-46320000D03*
D20*
X81820000Y-47630000D03*
X81820000Y-46360000D03*
X81820000Y-43810000D03*
X81820000Y-45080000D03*
D17*
X87540000Y-45120000D03*
X87540000Y-47600000D03*
X87540000Y-43840000D03*
D18*
X83990000Y-45720000D03*
X85690000Y-45720000D03*
X85690000Y-46870000D03*
X83990000Y-46870000D03*
X84840000Y-46870000D03*
X85690000Y-44570000D03*
X83990000Y-44570000D03*
X84840000Y-44570000D03*
%TD*%
%TO.C,Q1*%
X117860000Y-45720000D03*
D17*
X120560000Y-46320000D03*
D20*
X114840000Y-47630000D03*
X114840000Y-46360000D03*
X114840000Y-43810000D03*
X114840000Y-45080000D03*
D17*
X120560000Y-45120000D03*
X120560000Y-47600000D03*
X120560000Y-43840000D03*
D18*
X117010000Y-45720000D03*
X118710000Y-45720000D03*
X118710000Y-46870000D03*
X117010000Y-46870000D03*
X117860000Y-46870000D03*
X118710000Y-44570000D03*
X117010000Y-44570000D03*
X117860000Y-44570000D03*
%TD*%
%TO.C,Q2*%
X150880000Y-45720000D03*
D17*
X153580000Y-46320000D03*
D20*
X147860000Y-47630000D03*
X147860000Y-46360000D03*
X147860000Y-43810000D03*
X147860000Y-45080000D03*
D17*
X153580000Y-45120000D03*
X153580000Y-47600000D03*
X153580000Y-43840000D03*
D18*
X150030000Y-45720000D03*
X151730000Y-45720000D03*
X151730000Y-46870000D03*
X150030000Y-46870000D03*
X150880000Y-46870000D03*
X151730000Y-44570000D03*
X150030000Y-44570000D03*
X150880000Y-44570000D03*
%TD*%
%TO.C,D18*%
G36*
G01*
X175799000Y-93107500D02*
X175799000Y-93582500D01*
G75*
G02*
X175561500Y-93820000I-237500J0D01*
G01*
X174986500Y-93820000D01*
G75*
G02*
X174749000Y-93582500I0J237500D01*
G01*
X174749000Y-93107500D01*
G75*
G02*
X174986500Y-92870000I237500J0D01*
G01*
X175561500Y-92870000D01*
G75*
G02*
X175799000Y-93107500I0J-237500D01*
G01*
G37*
G36*
G01*
X177549000Y-93107500D02*
X177549000Y-93582500D01*
G75*
G02*
X177311500Y-93820000I-237500J0D01*
G01*
X176736500Y-93820000D01*
G75*
G02*
X176499000Y-93582500I0J237500D01*
G01*
X176499000Y-93107500D01*
G75*
G02*
X176736500Y-92870000I237500J0D01*
G01*
X177311500Y-92870000D01*
G75*
G02*
X177549000Y-93107500I0J-237500D01*
G01*
G37*
%TD*%
%TO.C,D16*%
G36*
G01*
X180930000Y-81644500D02*
X180930000Y-81169500D01*
G75*
G02*
X181167500Y-80932000I237500J0D01*
G01*
X181742500Y-80932000D01*
G75*
G02*
X181980000Y-81169500I0J-237500D01*
G01*
X181980000Y-81644500D01*
G75*
G02*
X181742500Y-81882000I-237500J0D01*
G01*
X181167500Y-81882000D01*
G75*
G02*
X180930000Y-81644500I0J237500D01*
G01*
G37*
G36*
G01*
X179180000Y-81644500D02*
X179180000Y-81169500D01*
G75*
G02*
X179417500Y-80932000I237500J0D01*
G01*
X179992500Y-80932000D01*
G75*
G02*
X180230000Y-81169500I0J-237500D01*
G01*
X180230000Y-81644500D01*
G75*
G02*
X179992500Y-81882000I-237500J0D01*
G01*
X179417500Y-81882000D01*
G75*
G02*
X179180000Y-81644500I0J237500D01*
G01*
G37*
%TD*%
%TO.C,D15*%
G36*
G01*
X180930000Y-93582500D02*
X180930000Y-93107500D01*
G75*
G02*
X181167500Y-92870000I237500J0D01*
G01*
X181742500Y-92870000D01*
G75*
G02*
X181980000Y-93107500I0J-237500D01*
G01*
X181980000Y-93582500D01*
G75*
G02*
X181742500Y-93820000I-237500J0D01*
G01*
X181167500Y-93820000D01*
G75*
G02*
X180930000Y-93582500I0J237500D01*
G01*
G37*
G36*
G01*
X179180000Y-93582500D02*
X179180000Y-93107500D01*
G75*
G02*
X179417500Y-92870000I237500J0D01*
G01*
X179992500Y-92870000D01*
G75*
G02*
X180230000Y-93107500I0J-237500D01*
G01*
X180230000Y-93582500D01*
G75*
G02*
X179992500Y-93820000I-237500J0D01*
G01*
X179417500Y-93820000D01*
G75*
G02*
X179180000Y-93582500I0J237500D01*
G01*
G37*
%TD*%
%TO.C,D14*%
G36*
G01*
X175862500Y-81169500D02*
X175862500Y-81644500D01*
G75*
G02*
X175625000Y-81882000I-237500J0D01*
G01*
X175050000Y-81882000D01*
G75*
G02*
X174812500Y-81644500I0J237500D01*
G01*
X174812500Y-81169500D01*
G75*
G02*
X175050000Y-80932000I237500J0D01*
G01*
X175625000Y-80932000D01*
G75*
G02*
X175862500Y-81169500I0J-237500D01*
G01*
G37*
G36*
G01*
X177612500Y-81169500D02*
X177612500Y-81644500D01*
G75*
G02*
X177375000Y-81882000I-237500J0D01*
G01*
X176800000Y-81882000D01*
G75*
G02*
X176562500Y-81644500I0J237500D01*
G01*
X176562500Y-81169500D01*
G75*
G02*
X176800000Y-80932000I237500J0D01*
G01*
X177375000Y-80932000D01*
G75*
G02*
X177612500Y-81169500I0J-237500D01*
G01*
G37*
%TD*%
%TO.C,D13*%
G36*
G01*
X167861500Y-89361000D02*
X167861500Y-89836000D01*
G75*
G02*
X167624000Y-90073500I-237500J0D01*
G01*
X167049000Y-90073500D01*
G75*
G02*
X166811500Y-89836000I0J237500D01*
G01*
X166811500Y-89361000D01*
G75*
G02*
X167049000Y-89123500I237500J0D01*
G01*
X167624000Y-89123500D01*
G75*
G02*
X167861500Y-89361000I0J-237500D01*
G01*
G37*
G36*
G01*
X169611500Y-89361000D02*
X169611500Y-89836000D01*
G75*
G02*
X169374000Y-90073500I-237500J0D01*
G01*
X168799000Y-90073500D01*
G75*
G02*
X168561500Y-89836000I0J237500D01*
G01*
X168561500Y-89361000D01*
G75*
G02*
X168799000Y-89123500I237500J0D01*
G01*
X169374000Y-89123500D01*
G75*
G02*
X169611500Y-89361000I0J-237500D01*
G01*
G37*
%TD*%
%TO.C,D12*%
G36*
G01*
X167784000Y-85043000D02*
X167784000Y-85518000D01*
G75*
G02*
X167546500Y-85755500I-237500J0D01*
G01*
X166971500Y-85755500D01*
G75*
G02*
X166734000Y-85518000I0J237500D01*
G01*
X166734000Y-85043000D01*
G75*
G02*
X166971500Y-84805500I237500J0D01*
G01*
X167546500Y-84805500D01*
G75*
G02*
X167784000Y-85043000I0J-237500D01*
G01*
G37*
G36*
G01*
X169534000Y-85043000D02*
X169534000Y-85518000D01*
G75*
G02*
X169296500Y-85755500I-237500J0D01*
G01*
X168721500Y-85755500D01*
G75*
G02*
X168484000Y-85518000I0J237500D01*
G01*
X168484000Y-85043000D01*
G75*
G02*
X168721500Y-84805500I237500J0D01*
G01*
X169296500Y-84805500D01*
G75*
G02*
X169534000Y-85043000I0J-237500D01*
G01*
G37*
%TD*%
%TO.C,D2*%
G36*
G01*
X200502000Y-117077500D02*
X200502000Y-116602500D01*
G75*
G02*
X200739500Y-116365000I237500J0D01*
G01*
X201314500Y-116365000D01*
G75*
G02*
X201552000Y-116602500I0J-237500D01*
G01*
X201552000Y-117077500D01*
G75*
G02*
X201314500Y-117315000I-237500J0D01*
G01*
X200739500Y-117315000D01*
G75*
G02*
X200502000Y-117077500I0J237500D01*
G01*
G37*
G36*
G01*
X198752000Y-117077500D02*
X198752000Y-116602500D01*
G75*
G02*
X198989500Y-116365000I237500J0D01*
G01*
X199564500Y-116365000D01*
G75*
G02*
X199802000Y-116602500I0J-237500D01*
G01*
X199802000Y-117077500D01*
G75*
G02*
X199564500Y-117315000I-237500J0D01*
G01*
X198989500Y-117315000D01*
G75*
G02*
X198752000Y-117077500I0J237500D01*
G01*
G37*
%TD*%
%TO.C,D1*%
G36*
G01*
X200502000Y-114791500D02*
X200502000Y-114316500D01*
G75*
G02*
X200739500Y-114079000I237500J0D01*
G01*
X201314500Y-114079000D01*
G75*
G02*
X201552000Y-114316500I0J-237500D01*
G01*
X201552000Y-114791500D01*
G75*
G02*
X201314500Y-115029000I-237500J0D01*
G01*
X200739500Y-115029000D01*
G75*
G02*
X200502000Y-114791500I0J237500D01*
G01*
G37*
G36*
G01*
X198752000Y-114791500D02*
X198752000Y-114316500D01*
G75*
G02*
X198989500Y-114079000I237500J0D01*
G01*
X199564500Y-114079000D01*
G75*
G02*
X199802000Y-114316500I0J-237500D01*
G01*
X199802000Y-114791500D01*
G75*
G02*
X199564500Y-115029000I-237500J0D01*
G01*
X198989500Y-115029000D01*
G75*
G02*
X198752000Y-114791500I0J237500D01*
G01*
G37*
%TD*%
D21*
%TO.C,Conn12*%
X229108000Y-52197000D03*
X229108000Y-44323000D03*
%TD*%
%TO.C,Conn11*%
X222631000Y-113919000D03*
X214757000Y-113919000D03*
%TD*%
%TO.C,Conn8*%
X223266000Y-141351000D03*
X215392000Y-141351000D03*
%TD*%
%TO.C,Conn4*%
X63627000Y-73025000D03*
X55753000Y-73025000D03*
%TD*%
%TO.C,Conn3*%
X131445000Y-52324000D03*
X131445000Y-44450000D03*
%TD*%
%TO.C,Conn2*%
X64262000Y-56515000D03*
X56388000Y-56515000D03*
%TD*%
%TO.C,C21*%
G36*
G01*
X68698100Y-91981800D02*
X69173100Y-91981800D01*
G75*
G02*
X69410600Y-92219300I0J-237500D01*
G01*
X69410600Y-92794300D01*
G75*
G02*
X69173100Y-93031800I-237500J0D01*
G01*
X68698100Y-93031800D01*
G75*
G02*
X68460600Y-92794300I0J237500D01*
G01*
X68460600Y-92219300D01*
G75*
G02*
X68698100Y-91981800I237500J0D01*
G01*
G37*
G36*
G01*
X68698100Y-90231800D02*
X69173100Y-90231800D01*
G75*
G02*
X69410600Y-90469300I0J-237500D01*
G01*
X69410600Y-91044300D01*
G75*
G02*
X69173100Y-91281800I-237500J0D01*
G01*
X68698100Y-91281800D01*
G75*
G02*
X68460600Y-91044300I0J237500D01*
G01*
X68460600Y-90469300D01*
G75*
G02*
X68698100Y-90231800I237500J0D01*
G01*
G37*
%TD*%
%TO.C,C22*%
G36*
G01*
X209920000Y-125238500D02*
X209920000Y-125713500D01*
G75*
G02*
X209682500Y-125951000I-237500J0D01*
G01*
X209107500Y-125951000D01*
G75*
G02*
X208870000Y-125713500I0J237500D01*
G01*
X208870000Y-125238500D01*
G75*
G02*
X209107500Y-125001000I237500J0D01*
G01*
X209682500Y-125001000D01*
G75*
G02*
X209920000Y-125238500I0J-237500D01*
G01*
G37*
G36*
G01*
X208170000Y-125238500D02*
X208170000Y-125713500D01*
G75*
G02*
X207932500Y-125951000I-237500J0D01*
G01*
X207357500Y-125951000D01*
G75*
G02*
X207120000Y-125713500I0J237500D01*
G01*
X207120000Y-125238500D01*
G75*
G02*
X207357500Y-125001000I237500J0D01*
G01*
X207932500Y-125001000D01*
G75*
G02*
X208170000Y-125238500I0J-237500D01*
G01*
G37*
%TD*%
%TO.C,C24*%
G36*
G01*
X52990000Y-93742500D02*
X52990000Y-94217500D01*
G75*
G02*
X52752500Y-94455000I-237500J0D01*
G01*
X52177500Y-94455000D01*
G75*
G02*
X51940000Y-94217500I0J237500D01*
G01*
X51940000Y-93742500D01*
G75*
G02*
X52177500Y-93505000I237500J0D01*
G01*
X52752500Y-93505000D01*
G75*
G02*
X52990000Y-93742500I0J-237500D01*
G01*
G37*
G36*
G01*
X54740000Y-93742500D02*
X54740000Y-94217500D01*
G75*
G02*
X54502500Y-94455000I-237500J0D01*
G01*
X53927500Y-94455000D01*
G75*
G02*
X53690000Y-94217500I0J237500D01*
G01*
X53690000Y-93742500D01*
G75*
G02*
X53927500Y-93505000I237500J0D01*
G01*
X54502500Y-93505000D01*
G75*
G02*
X54740000Y-93742500I0J-237500D01*
G01*
G37*
%TD*%
%TO.C,C25*%
G36*
G01*
X227595000Y-120633500D02*
X227595000Y-120158500D01*
G75*
G02*
X227832500Y-119921000I237500J0D01*
G01*
X228407500Y-119921000D01*
G75*
G02*
X228645000Y-120158500I0J-237500D01*
G01*
X228645000Y-120633500D01*
G75*
G02*
X228407500Y-120871000I-237500J0D01*
G01*
X227832500Y-120871000D01*
G75*
G02*
X227595000Y-120633500I0J237500D01*
G01*
G37*
G36*
G01*
X229345000Y-120633500D02*
X229345000Y-120158500D01*
G75*
G02*
X229582500Y-119921000I237500J0D01*
G01*
X230157500Y-119921000D01*
G75*
G02*
X230395000Y-120158500I0J-237500D01*
G01*
X230395000Y-120633500D01*
G75*
G02*
X230157500Y-120871000I-237500J0D01*
G01*
X229582500Y-120871000D01*
G75*
G02*
X229345000Y-120633500I0J237500D01*
G01*
G37*
%TD*%
%TO.C,C28*%
G36*
G01*
X209787500Y-97666000D02*
X209312500Y-97666000D01*
G75*
G02*
X209075000Y-97428500I0J237500D01*
G01*
X209075000Y-96853500D01*
G75*
G02*
X209312500Y-96616000I237500J0D01*
G01*
X209787500Y-96616000D01*
G75*
G02*
X210025000Y-96853500I0J-237500D01*
G01*
X210025000Y-97428500D01*
G75*
G02*
X209787500Y-97666000I-237500J0D01*
G01*
G37*
G36*
G01*
X209787500Y-95916000D02*
X209312500Y-95916000D01*
G75*
G02*
X209075000Y-95678500I0J237500D01*
G01*
X209075000Y-95103500D01*
G75*
G02*
X209312500Y-94866000I237500J0D01*
G01*
X209787500Y-94866000D01*
G75*
G02*
X210025000Y-95103500I0J-237500D01*
G01*
X210025000Y-95678500D01*
G75*
G02*
X209787500Y-95916000I-237500J0D01*
G01*
G37*
%TD*%
%TO.C,C30*%
G36*
G01*
X226565000Y-93963500D02*
X226565000Y-93488500D01*
G75*
G02*
X226802500Y-93251000I237500J0D01*
G01*
X227377500Y-93251000D01*
G75*
G02*
X227615000Y-93488500I0J-237500D01*
G01*
X227615000Y-93963500D01*
G75*
G02*
X227377500Y-94201000I-237500J0D01*
G01*
X226802500Y-94201000D01*
G75*
G02*
X226565000Y-93963500I0J237500D01*
G01*
G37*
G36*
G01*
X228315000Y-93963500D02*
X228315000Y-93488500D01*
G75*
G02*
X228552500Y-93251000I237500J0D01*
G01*
X229127500Y-93251000D01*
G75*
G02*
X229365000Y-93488500I0J-237500D01*
G01*
X229365000Y-93963500D01*
G75*
G02*
X229127500Y-94201000I-237500J0D01*
G01*
X228552500Y-94201000D01*
G75*
G02*
X228315000Y-93963500I0J237500D01*
G01*
G37*
%TD*%
%TO.C,R7*%
G36*
G01*
X121174500Y-51263000D02*
X121649500Y-51263000D01*
G75*
G02*
X121887000Y-51500500I0J-237500D01*
G01*
X121887000Y-52075500D01*
G75*
G02*
X121649500Y-52313000I-237500J0D01*
G01*
X121174500Y-52313000D01*
G75*
G02*
X120937000Y-52075500I0J237500D01*
G01*
X120937000Y-51500500D01*
G75*
G02*
X121174500Y-51263000I237500J0D01*
G01*
G37*
G36*
G01*
X121174500Y-49513000D02*
X121649500Y-49513000D01*
G75*
G02*
X121887000Y-49750500I0J-237500D01*
G01*
X121887000Y-50325500D01*
G75*
G02*
X121649500Y-50563000I-237500J0D01*
G01*
X121174500Y-50563000D01*
G75*
G02*
X120937000Y-50325500I0J237500D01*
G01*
X120937000Y-49750500D01*
G75*
G02*
X121174500Y-49513000I237500J0D01*
G01*
G37*
%TD*%
%TO.C,R9*%
G36*
G01*
X87138500Y-51009000D02*
X87613500Y-51009000D01*
G75*
G02*
X87851000Y-51246500I0J-237500D01*
G01*
X87851000Y-51821500D01*
G75*
G02*
X87613500Y-52059000I-237500J0D01*
G01*
X87138500Y-52059000D01*
G75*
G02*
X86901000Y-51821500I0J237500D01*
G01*
X86901000Y-51246500D01*
G75*
G02*
X87138500Y-51009000I237500J0D01*
G01*
G37*
G36*
G01*
X87138500Y-49259000D02*
X87613500Y-49259000D01*
G75*
G02*
X87851000Y-49496500I0J-237500D01*
G01*
X87851000Y-50071500D01*
G75*
G02*
X87613500Y-50309000I-237500J0D01*
G01*
X87138500Y-50309000D01*
G75*
G02*
X86901000Y-50071500I0J237500D01*
G01*
X86901000Y-49496500D01*
G75*
G02*
X87138500Y-49259000I237500J0D01*
G01*
G37*
%TD*%
%TO.C,R14*%
G36*
G01*
X187087500Y-51150000D02*
X187562500Y-51150000D01*
G75*
G02*
X187800000Y-51387500I0J-237500D01*
G01*
X187800000Y-51962500D01*
G75*
G02*
X187562500Y-52200000I-237500J0D01*
G01*
X187087500Y-52200000D01*
G75*
G02*
X186850000Y-51962500I0J237500D01*
G01*
X186850000Y-51387500D01*
G75*
G02*
X187087500Y-51150000I237500J0D01*
G01*
G37*
G36*
G01*
X187087500Y-49400000D02*
X187562500Y-49400000D01*
G75*
G02*
X187800000Y-49637500I0J-237500D01*
G01*
X187800000Y-50212500D01*
G75*
G02*
X187562500Y-50450000I-237500J0D01*
G01*
X187087500Y-50450000D01*
G75*
G02*
X186850000Y-50212500I0J237500D01*
G01*
X186850000Y-49637500D01*
G75*
G02*
X187087500Y-49400000I237500J0D01*
G01*
G37*
%TD*%
%TO.C,R19*%
G36*
G01*
X69122300Y-87624200D02*
X68647300Y-87624200D01*
G75*
G02*
X68409800Y-87386700I0J237500D01*
G01*
X68409800Y-86811700D01*
G75*
G02*
X68647300Y-86574200I237500J0D01*
G01*
X69122300Y-86574200D01*
G75*
G02*
X69359800Y-86811700I0J-237500D01*
G01*
X69359800Y-87386700D01*
G75*
G02*
X69122300Y-87624200I-237500J0D01*
G01*
G37*
G36*
G01*
X69122300Y-89374200D02*
X68647300Y-89374200D01*
G75*
G02*
X68409800Y-89136700I0J237500D01*
G01*
X68409800Y-88561700D01*
G75*
G02*
X68647300Y-88324200I237500J0D01*
G01*
X69122300Y-88324200D01*
G75*
G02*
X69359800Y-88561700I0J-237500D01*
G01*
X69359800Y-89136700D01*
G75*
G02*
X69122300Y-89374200I-237500J0D01*
G01*
G37*
%TD*%
%TO.C,R20*%
G36*
G01*
X213095000Y-129048500D02*
X213095000Y-129523500D01*
G75*
G02*
X212857500Y-129761000I-237500J0D01*
G01*
X212282500Y-129761000D01*
G75*
G02*
X212045000Y-129523500I0J237500D01*
G01*
X212045000Y-129048500D01*
G75*
G02*
X212282500Y-128811000I237500J0D01*
G01*
X212857500Y-128811000D01*
G75*
G02*
X213095000Y-129048500I0J-237500D01*
G01*
G37*
G36*
G01*
X211345000Y-129048500D02*
X211345000Y-129523500D01*
G75*
G02*
X211107500Y-129761000I-237500J0D01*
G01*
X210532500Y-129761000D01*
G75*
G02*
X210295000Y-129523500I0J237500D01*
G01*
X210295000Y-129048500D01*
G75*
G02*
X210532500Y-128811000I237500J0D01*
G01*
X211107500Y-128811000D01*
G75*
G02*
X211345000Y-129048500I0J-237500D01*
G01*
G37*
%TD*%
%TO.C,R25*%
G36*
G01*
X63455000Y-81873100D02*
X63455000Y-81398100D01*
G75*
G02*
X63692500Y-81160600I237500J0D01*
G01*
X64267500Y-81160600D01*
G75*
G02*
X64505000Y-81398100I0J-237500D01*
G01*
X64505000Y-81873100D01*
G75*
G02*
X64267500Y-82110600I-237500J0D01*
G01*
X63692500Y-82110600D01*
G75*
G02*
X63455000Y-81873100I0J237500D01*
G01*
G37*
G36*
G01*
X61705000Y-81873100D02*
X61705000Y-81398100D01*
G75*
G02*
X61942500Y-81160600I237500J0D01*
G01*
X62517500Y-81160600D01*
G75*
G02*
X62755000Y-81398100I0J-237500D01*
G01*
X62755000Y-81873100D01*
G75*
G02*
X62517500Y-82110600I-237500J0D01*
G01*
X61942500Y-82110600D01*
G75*
G02*
X61705000Y-81873100I0J237500D01*
G01*
G37*
%TD*%
%TO.C,R26*%
G36*
G01*
X214393000Y-132350500D02*
X214393000Y-132825500D01*
G75*
G02*
X214155500Y-133063000I-237500J0D01*
G01*
X213580500Y-133063000D01*
G75*
G02*
X213343000Y-132825500I0J237500D01*
G01*
X213343000Y-132350500D01*
G75*
G02*
X213580500Y-132113000I237500J0D01*
G01*
X214155500Y-132113000D01*
G75*
G02*
X214393000Y-132350500I0J-237500D01*
G01*
G37*
G36*
G01*
X212643000Y-132350500D02*
X212643000Y-132825500D01*
G75*
G02*
X212405500Y-133063000I-237500J0D01*
G01*
X211830500Y-133063000D01*
G75*
G02*
X211593000Y-132825500I0J237500D01*
G01*
X211593000Y-132350500D01*
G75*
G02*
X211830500Y-132113000I237500J0D01*
G01*
X212405500Y-132113000D01*
G75*
G02*
X212643000Y-132350500I0J-237500D01*
G01*
G37*
%TD*%
%TO.C,R29*%
G36*
G01*
X209312500Y-98281000D02*
X209787500Y-98281000D01*
G75*
G02*
X210025000Y-98518500I0J-237500D01*
G01*
X210025000Y-99093500D01*
G75*
G02*
X209787500Y-99331000I-237500J0D01*
G01*
X209312500Y-99331000D01*
G75*
G02*
X209075000Y-99093500I0J237500D01*
G01*
X209075000Y-98518500D01*
G75*
G02*
X209312500Y-98281000I237500J0D01*
G01*
G37*
G36*
G01*
X209312500Y-100031000D02*
X209787500Y-100031000D01*
G75*
G02*
X210025000Y-100268500I0J-237500D01*
G01*
X210025000Y-100843500D01*
G75*
G02*
X209787500Y-101081000I-237500J0D01*
G01*
X209312500Y-101081000D01*
G75*
G02*
X209075000Y-100843500I0J237500D01*
G01*
X209075000Y-100268500D01*
G75*
G02*
X209312500Y-100031000I237500J0D01*
G01*
G37*
%TD*%
%TO.C,R33*%
G36*
G01*
X216030000Y-101108500D02*
X216030000Y-101583500D01*
G75*
G02*
X215792500Y-101821000I-237500J0D01*
G01*
X215217500Y-101821000D01*
G75*
G02*
X214980000Y-101583500I0J237500D01*
G01*
X214980000Y-101108500D01*
G75*
G02*
X215217500Y-100871000I237500J0D01*
G01*
X215792500Y-100871000D01*
G75*
G02*
X216030000Y-101108500I0J-237500D01*
G01*
G37*
G36*
G01*
X214280000Y-101108500D02*
X214280000Y-101583500D01*
G75*
G02*
X214042500Y-101821000I-237500J0D01*
G01*
X213467500Y-101821000D01*
G75*
G02*
X213230000Y-101583500I0J237500D01*
G01*
X213230000Y-101108500D01*
G75*
G02*
X213467500Y-100871000I237500J0D01*
G01*
X214042500Y-100871000D01*
G75*
G02*
X214280000Y-101108500I0J-237500D01*
G01*
G37*
%TD*%
D12*
%TO.C,U15*%
X211295000Y-123444000D03*
X211295000Y-124714000D03*
X211295000Y-125984000D03*
X211295000Y-127254000D03*
X216695000Y-127254000D03*
X216695000Y-125984000D03*
X216695000Y-123444000D03*
%TD*%
%TO.C,U21*%
X211549000Y-95885000D03*
X211549000Y-97155000D03*
X211549000Y-98425000D03*
X211549000Y-99695000D03*
X216949000Y-99695000D03*
X216949000Y-98425000D03*
X216949000Y-95885000D03*
%TD*%
%TO.C,R10*%
G36*
G01*
X182835000Y-58657500D02*
X182835000Y-58182500D01*
G75*
G02*
X183072500Y-57945000I237500J0D01*
G01*
X183647500Y-57945000D01*
G75*
G02*
X183885000Y-58182500I0J-237500D01*
G01*
X183885000Y-58657500D01*
G75*
G02*
X183647500Y-58895000I-237500J0D01*
G01*
X183072500Y-58895000D01*
G75*
G02*
X182835000Y-58657500I0J237500D01*
G01*
G37*
G36*
G01*
X181085000Y-58657500D02*
X181085000Y-58182500D01*
G75*
G02*
X181322500Y-57945000I237500J0D01*
G01*
X181897500Y-57945000D01*
G75*
G02*
X182135000Y-58182500I0J-237500D01*
G01*
X182135000Y-58657500D01*
G75*
G02*
X181897500Y-58895000I-237500J0D01*
G01*
X181322500Y-58895000D01*
G75*
G02*
X181085000Y-58657500I0J237500D01*
G01*
G37*
%TD*%
%TO.C,C11*%
G36*
G01*
X178466000Y-58182500D02*
X178466000Y-58657500D01*
G75*
G02*
X178228500Y-58895000I-237500J0D01*
G01*
X177653500Y-58895000D01*
G75*
G02*
X177416000Y-58657500I0J237500D01*
G01*
X177416000Y-58182500D01*
G75*
G02*
X177653500Y-57945000I237500J0D01*
G01*
X178228500Y-57945000D01*
G75*
G02*
X178466000Y-58182500I0J-237500D01*
G01*
G37*
G36*
G01*
X180216000Y-58182500D02*
X180216000Y-58657500D01*
G75*
G02*
X179978500Y-58895000I-237500J0D01*
G01*
X179403500Y-58895000D01*
G75*
G02*
X179166000Y-58657500I0J237500D01*
G01*
X179166000Y-58182500D01*
G75*
G02*
X179403500Y-57945000I237500J0D01*
G01*
X179978500Y-57945000D01*
G75*
G02*
X180216000Y-58182500I0J-237500D01*
G01*
G37*
%TD*%
%TO.C,C13*%
G36*
G01*
X176927500Y-51545000D02*
X177402500Y-51545000D01*
G75*
G02*
X177640000Y-51782500I0J-237500D01*
G01*
X177640000Y-52357500D01*
G75*
G02*
X177402500Y-52595000I-237500J0D01*
G01*
X176927500Y-52595000D01*
G75*
G02*
X176690000Y-52357500I0J237500D01*
G01*
X176690000Y-51782500D01*
G75*
G02*
X176927500Y-51545000I237500J0D01*
G01*
G37*
G36*
G01*
X176927500Y-49795000D02*
X177402500Y-49795000D01*
G75*
G02*
X177640000Y-50032500I0J-237500D01*
G01*
X177640000Y-50607500D01*
G75*
G02*
X177402500Y-50845000I-237500J0D01*
G01*
X176927500Y-50845000D01*
G75*
G02*
X176690000Y-50607500I0J237500D01*
G01*
X176690000Y-50032500D01*
G75*
G02*
X176927500Y-49795000I237500J0D01*
G01*
G37*
%TD*%
D21*
%TO.C,Conn7*%
X164465000Y-52324000D03*
X164465000Y-44450000D03*
%TD*%
D22*
%TO.C,U5*%
X157005000Y-36835000D03*
X157005000Y-38735000D03*
X154305000Y-38735000D03*
X154305000Y-37785000D03*
X154305000Y-36835000D03*
%TD*%
D23*
%TO.C,U2*%
X146050000Y-50165000D03*
X148590000Y-50165000D03*
X149860000Y-50165000D03*
X149860000Y-55565000D03*
X148590000Y-55565000D03*
X147320000Y-55565000D03*
X146050000Y-55565000D03*
%TD*%
%TO.C,C6*%
G36*
G01*
X145446000Y-58182500D02*
X145446000Y-58657500D01*
G75*
G02*
X145208500Y-58895000I-237500J0D01*
G01*
X144633500Y-58895000D01*
G75*
G02*
X144396000Y-58657500I0J237500D01*
G01*
X144396000Y-58182500D01*
G75*
G02*
X144633500Y-57945000I237500J0D01*
G01*
X145208500Y-57945000D01*
G75*
G02*
X145446000Y-58182500I0J-237500D01*
G01*
G37*
G36*
G01*
X147196000Y-58182500D02*
X147196000Y-58657500D01*
G75*
G02*
X146958500Y-58895000I-237500J0D01*
G01*
X146383500Y-58895000D01*
G75*
G02*
X146146000Y-58657500I0J237500D01*
G01*
X146146000Y-58182500D01*
G75*
G02*
X146383500Y-57945000I237500J0D01*
G01*
X146958500Y-57945000D01*
G75*
G02*
X147196000Y-58182500I0J-237500D01*
G01*
G37*
%TD*%
%TO.C,R2*%
G36*
G01*
X149815000Y-58657500D02*
X149815000Y-58182500D01*
G75*
G02*
X150052500Y-57945000I237500J0D01*
G01*
X150627500Y-57945000D01*
G75*
G02*
X150865000Y-58182500I0J-237500D01*
G01*
X150865000Y-58657500D01*
G75*
G02*
X150627500Y-58895000I-237500J0D01*
G01*
X150052500Y-58895000D01*
G75*
G02*
X149815000Y-58657500I0J237500D01*
G01*
G37*
G36*
G01*
X148065000Y-58657500D02*
X148065000Y-58182500D01*
G75*
G02*
X148302500Y-57945000I237500J0D01*
G01*
X148877500Y-57945000D01*
G75*
G02*
X149115000Y-58182500I0J-237500D01*
G01*
X149115000Y-58657500D01*
G75*
G02*
X148877500Y-58895000I-237500J0D01*
G01*
X148302500Y-58895000D01*
G75*
G02*
X148065000Y-58657500I0J237500D01*
G01*
G37*
%TD*%
%TO.C,C9*%
G36*
G01*
X144034500Y-52053000D02*
X144509500Y-52053000D01*
G75*
G02*
X144747000Y-52290500I0J-237500D01*
G01*
X144747000Y-52865500D01*
G75*
G02*
X144509500Y-53103000I-237500J0D01*
G01*
X144034500Y-53103000D01*
G75*
G02*
X143797000Y-52865500I0J237500D01*
G01*
X143797000Y-52290500D01*
G75*
G02*
X144034500Y-52053000I237500J0D01*
G01*
G37*
G36*
G01*
X144034500Y-50303000D02*
X144509500Y-50303000D01*
G75*
G02*
X144747000Y-50540500I0J-237500D01*
G01*
X144747000Y-51115500D01*
G75*
G02*
X144509500Y-51353000I-237500J0D01*
G01*
X144034500Y-51353000D01*
G75*
G02*
X143797000Y-51115500I0J237500D01*
G01*
X143797000Y-50540500D01*
G75*
G02*
X144034500Y-50303000I237500J0D01*
G01*
G37*
%TD*%
D22*
%TO.C,U4*%
X123905000Y-36515000D03*
X123905000Y-38415000D03*
X121205000Y-38415000D03*
X121205000Y-37465000D03*
X121205000Y-36515000D03*
%TD*%
D23*
%TO.C,U1*%
X113030000Y-50165000D03*
X115570000Y-50165000D03*
X116840000Y-50165000D03*
X116840000Y-55565000D03*
X115570000Y-55565000D03*
X114300000Y-55565000D03*
X113030000Y-55565000D03*
%TD*%
%TO.C,C5*%
G36*
G01*
X112426000Y-58182500D02*
X112426000Y-58657500D01*
G75*
G02*
X112188500Y-58895000I-237500J0D01*
G01*
X111613500Y-58895000D01*
G75*
G02*
X111376000Y-58657500I0J237500D01*
G01*
X111376000Y-58182500D01*
G75*
G02*
X111613500Y-57945000I237500J0D01*
G01*
X112188500Y-57945000D01*
G75*
G02*
X112426000Y-58182500I0J-237500D01*
G01*
G37*
G36*
G01*
X114176000Y-58182500D02*
X114176000Y-58657500D01*
G75*
G02*
X113938500Y-58895000I-237500J0D01*
G01*
X113363500Y-58895000D01*
G75*
G02*
X113126000Y-58657500I0J237500D01*
G01*
X113126000Y-58182500D01*
G75*
G02*
X113363500Y-57945000I237500J0D01*
G01*
X113938500Y-57945000D01*
G75*
G02*
X114176000Y-58182500I0J-237500D01*
G01*
G37*
%TD*%
%TO.C,R1*%
G36*
G01*
X116795000Y-58657500D02*
X116795000Y-58182500D01*
G75*
G02*
X117032500Y-57945000I237500J0D01*
G01*
X117607500Y-57945000D01*
G75*
G02*
X117845000Y-58182500I0J-237500D01*
G01*
X117845000Y-58657500D01*
G75*
G02*
X117607500Y-58895000I-237500J0D01*
G01*
X117032500Y-58895000D01*
G75*
G02*
X116795000Y-58657500I0J237500D01*
G01*
G37*
G36*
G01*
X115045000Y-58657500D02*
X115045000Y-58182500D01*
G75*
G02*
X115282500Y-57945000I237500J0D01*
G01*
X115857500Y-57945000D01*
G75*
G02*
X116095000Y-58182500I0J-237500D01*
G01*
X116095000Y-58657500D01*
G75*
G02*
X115857500Y-58895000I-237500J0D01*
G01*
X115282500Y-58895000D01*
G75*
G02*
X115045000Y-58657500I0J237500D01*
G01*
G37*
%TD*%
%TO.C,C8*%
G36*
G01*
X110887500Y-52053000D02*
X111362500Y-52053000D01*
G75*
G02*
X111600000Y-52290500I0J-237500D01*
G01*
X111600000Y-52865500D01*
G75*
G02*
X111362500Y-53103000I-237500J0D01*
G01*
X110887500Y-53103000D01*
G75*
G02*
X110650000Y-52865500I0J237500D01*
G01*
X110650000Y-52290500D01*
G75*
G02*
X110887500Y-52053000I237500J0D01*
G01*
G37*
G36*
G01*
X110887500Y-50303000D02*
X111362500Y-50303000D01*
G75*
G02*
X111600000Y-50540500I0J-237500D01*
G01*
X111600000Y-51115500D01*
G75*
G02*
X111362500Y-51353000I-237500J0D01*
G01*
X110887500Y-51353000D01*
G75*
G02*
X110650000Y-51115500I0J237500D01*
G01*
X110650000Y-50540500D01*
G75*
G02*
X110887500Y-50303000I237500J0D01*
G01*
G37*
%TD*%
%TO.C,D3*%
G36*
G01*
X180930000Y-84692500D02*
X180930000Y-84217500D01*
G75*
G02*
X181167500Y-83980000I237500J0D01*
G01*
X181742500Y-83980000D01*
G75*
G02*
X181980000Y-84217500I0J-237500D01*
G01*
X181980000Y-84692500D01*
G75*
G02*
X181742500Y-84930000I-237500J0D01*
G01*
X181167500Y-84930000D01*
G75*
G02*
X180930000Y-84692500I0J237500D01*
G01*
G37*
G36*
G01*
X179180000Y-84692500D02*
X179180000Y-84217500D01*
G75*
G02*
X179417500Y-83980000I237500J0D01*
G01*
X179992500Y-83980000D01*
G75*
G02*
X180230000Y-84217500I0J-237500D01*
G01*
X180230000Y-84692500D01*
G75*
G02*
X179992500Y-84930000I-237500J0D01*
G01*
X179417500Y-84930000D01*
G75*
G02*
X179180000Y-84692500I0J237500D01*
G01*
G37*
%TD*%
D21*
%TO.C,Conn1*%
X98425000Y-52324000D03*
X98425000Y-44450000D03*
%TD*%
D22*
%TO.C,U6*%
X90885000Y-36515000D03*
X90885000Y-38415000D03*
X88185000Y-38415000D03*
X88185000Y-37465000D03*
X88185000Y-36515000D03*
%TD*%
D23*
%TO.C,U3*%
X80010000Y-50165000D03*
X82550000Y-50165000D03*
X83820000Y-50165000D03*
X83820000Y-55565000D03*
X82550000Y-55565000D03*
X81280000Y-55565000D03*
X80010000Y-55565000D03*
%TD*%
%TO.C,C7*%
G36*
G01*
X79406000Y-58182500D02*
X79406000Y-58657500D01*
G75*
G02*
X79168500Y-58895000I-237500J0D01*
G01*
X78593500Y-58895000D01*
G75*
G02*
X78356000Y-58657500I0J237500D01*
G01*
X78356000Y-58182500D01*
G75*
G02*
X78593500Y-57945000I237500J0D01*
G01*
X79168500Y-57945000D01*
G75*
G02*
X79406000Y-58182500I0J-237500D01*
G01*
G37*
G36*
G01*
X81156000Y-58182500D02*
X81156000Y-58657500D01*
G75*
G02*
X80918500Y-58895000I-237500J0D01*
G01*
X80343500Y-58895000D01*
G75*
G02*
X80106000Y-58657500I0J237500D01*
G01*
X80106000Y-58182500D01*
G75*
G02*
X80343500Y-57945000I237500J0D01*
G01*
X80918500Y-57945000D01*
G75*
G02*
X81156000Y-58182500I0J-237500D01*
G01*
G37*
%TD*%
%TO.C,R3*%
G36*
G01*
X83775000Y-58657500D02*
X83775000Y-58182500D01*
G75*
G02*
X84012500Y-57945000I237500J0D01*
G01*
X84587500Y-57945000D01*
G75*
G02*
X84825000Y-58182500I0J-237500D01*
G01*
X84825000Y-58657500D01*
G75*
G02*
X84587500Y-58895000I-237500J0D01*
G01*
X84012500Y-58895000D01*
G75*
G02*
X83775000Y-58657500I0J237500D01*
G01*
G37*
G36*
G01*
X82025000Y-58657500D02*
X82025000Y-58182500D01*
G75*
G02*
X82262500Y-57945000I237500J0D01*
G01*
X82837500Y-57945000D01*
G75*
G02*
X83075000Y-58182500I0J-237500D01*
G01*
X83075000Y-58657500D01*
G75*
G02*
X82837500Y-58895000I-237500J0D01*
G01*
X82262500Y-58895000D01*
G75*
G02*
X82025000Y-58657500I0J237500D01*
G01*
G37*
%TD*%
%TO.C,C10*%
G36*
G01*
X77867500Y-52053000D02*
X78342500Y-52053000D01*
G75*
G02*
X78580000Y-52290500I0J-237500D01*
G01*
X78580000Y-52865500D01*
G75*
G02*
X78342500Y-53103000I-237500J0D01*
G01*
X77867500Y-53103000D01*
G75*
G02*
X77630000Y-52865500I0J237500D01*
G01*
X77630000Y-52290500D01*
G75*
G02*
X77867500Y-52053000I237500J0D01*
G01*
G37*
G36*
G01*
X77867500Y-50303000D02*
X78342500Y-50303000D01*
G75*
G02*
X78580000Y-50540500I0J-237500D01*
G01*
X78580000Y-51115500D01*
G75*
G02*
X78342500Y-51353000I-237500J0D01*
G01*
X77867500Y-51353000D01*
G75*
G02*
X77630000Y-51115500I0J237500D01*
G01*
X77630000Y-50540500D01*
G75*
G02*
X77867500Y-50303000I237500J0D01*
G01*
G37*
%TD*%
%TO.C,D5*%
G36*
G01*
X175735500Y-84217500D02*
X175735500Y-84692500D01*
G75*
G02*
X175498000Y-84930000I-237500J0D01*
G01*
X174923000Y-84930000D01*
G75*
G02*
X174685500Y-84692500I0J237500D01*
G01*
X174685500Y-84217500D01*
G75*
G02*
X174923000Y-83980000I237500J0D01*
G01*
X175498000Y-83980000D01*
G75*
G02*
X175735500Y-84217500I0J-237500D01*
G01*
G37*
G36*
G01*
X177485500Y-84217500D02*
X177485500Y-84692500D01*
G75*
G02*
X177248000Y-84930000I-237500J0D01*
G01*
X176673000Y-84930000D01*
G75*
G02*
X176435500Y-84692500I0J237500D01*
G01*
X176435500Y-84217500D01*
G75*
G02*
X176673000Y-83980000I237500J0D01*
G01*
X177248000Y-83980000D01*
G75*
G02*
X177485500Y-84217500I0J-237500D01*
G01*
G37*
%TD*%
%TO.C,D6*%
G36*
G01*
X180930000Y-87677000D02*
X180930000Y-87202000D01*
G75*
G02*
X181167500Y-86964500I237500J0D01*
G01*
X181742500Y-86964500D01*
G75*
G02*
X181980000Y-87202000I0J-237500D01*
G01*
X181980000Y-87677000D01*
G75*
G02*
X181742500Y-87914500I-237500J0D01*
G01*
X181167500Y-87914500D01*
G75*
G02*
X180930000Y-87677000I0J237500D01*
G01*
G37*
G36*
G01*
X179180000Y-87677000D02*
X179180000Y-87202000D01*
G75*
G02*
X179417500Y-86964500I237500J0D01*
G01*
X179992500Y-86964500D01*
G75*
G02*
X180230000Y-87202000I0J-237500D01*
G01*
X180230000Y-87677000D01*
G75*
G02*
X179992500Y-87914500I-237500J0D01*
G01*
X179417500Y-87914500D01*
G75*
G02*
X179180000Y-87677000I0J237500D01*
G01*
G37*
%TD*%
%TO.C,D4*%
G36*
G01*
X175749500Y-87202000D02*
X175749500Y-87677000D01*
G75*
G02*
X175512000Y-87914500I-237500J0D01*
G01*
X174937000Y-87914500D01*
G75*
G02*
X174699500Y-87677000I0J237500D01*
G01*
X174699500Y-87202000D01*
G75*
G02*
X174937000Y-86964500I237500J0D01*
G01*
X175512000Y-86964500D01*
G75*
G02*
X175749500Y-87202000I0J-237500D01*
G01*
G37*
G36*
G01*
X177499500Y-87202000D02*
X177499500Y-87677000D01*
G75*
G02*
X177262000Y-87914500I-237500J0D01*
G01*
X176687000Y-87914500D01*
G75*
G02*
X176449500Y-87677000I0J237500D01*
G01*
X176449500Y-87202000D01*
G75*
G02*
X176687000Y-86964500I237500J0D01*
G01*
X177262000Y-86964500D01*
G75*
G02*
X177499500Y-87202000I0J-237500D01*
G01*
G37*
%TD*%
%TO.C,R8*%
G36*
G01*
X153940500Y-50896000D02*
X154415500Y-50896000D01*
G75*
G02*
X154653000Y-51133500I0J-237500D01*
G01*
X154653000Y-51708500D01*
G75*
G02*
X154415500Y-51946000I-237500J0D01*
G01*
X153940500Y-51946000D01*
G75*
G02*
X153703000Y-51708500I0J237500D01*
G01*
X153703000Y-51133500D01*
G75*
G02*
X153940500Y-50896000I237500J0D01*
G01*
G37*
G36*
G01*
X153940500Y-49146000D02*
X154415500Y-49146000D01*
G75*
G02*
X154653000Y-49383500I0J-237500D01*
G01*
X154653000Y-49958500D01*
G75*
G02*
X154415500Y-50196000I-237500J0D01*
G01*
X153940500Y-50196000D01*
G75*
G02*
X153703000Y-49958500I0J237500D01*
G01*
X153703000Y-49383500D01*
G75*
G02*
X153940500Y-49146000I237500J0D01*
G01*
G37*
%TD*%
D21*
%TO.C,Conn9*%
X196850000Y-52324000D03*
X196850000Y-44450000D03*
%TD*%
D23*
%TO.C,U7*%
X179070000Y-50165000D03*
X181610000Y-50165000D03*
X182880000Y-50165000D03*
X182880000Y-55565000D03*
X181610000Y-55565000D03*
X180340000Y-55565000D03*
X179070000Y-55565000D03*
%TD*%
D22*
%TO.C,U9*%
X189945000Y-36515000D03*
X189945000Y-38415000D03*
X187245000Y-38415000D03*
X187245000Y-37465000D03*
X187245000Y-36515000D03*
%TD*%
D23*
%TO.C,U8*%
X211201000Y-50165000D03*
X213741000Y-50165000D03*
X215011000Y-50165000D03*
X215011000Y-55565000D03*
X213741000Y-55565000D03*
X212471000Y-55565000D03*
X211201000Y-55565000D03*
%TD*%
D21*
%TO.C,Conn10*%
X214503000Y-65278000D03*
X222377000Y-65278000D03*
%TD*%
%TO.C,D17*%
G36*
G01*
X180930000Y-90661500D02*
X180930000Y-90186500D01*
G75*
G02*
X181167500Y-89949000I237500J0D01*
G01*
X181742500Y-89949000D01*
G75*
G02*
X181980000Y-90186500I0J-237500D01*
G01*
X181980000Y-90661500D01*
G75*
G02*
X181742500Y-90899000I-237500J0D01*
G01*
X181167500Y-90899000D01*
G75*
G02*
X180930000Y-90661500I0J237500D01*
G01*
G37*
G36*
G01*
X179180000Y-90661500D02*
X179180000Y-90186500D01*
G75*
G02*
X179417500Y-89949000I237500J0D01*
G01*
X179992500Y-89949000D01*
G75*
G02*
X180230000Y-90186500I0J-237500D01*
G01*
X180230000Y-90661500D01*
G75*
G02*
X179992500Y-90899000I-237500J0D01*
G01*
X179417500Y-90899000D01*
G75*
G02*
X179180000Y-90661500I0J237500D01*
G01*
G37*
%TD*%
%TO.C,R32*%
G36*
G01*
X215550000Y-77994500D02*
X215550000Y-78469500D01*
G75*
G02*
X215312500Y-78707000I-237500J0D01*
G01*
X214737500Y-78707000D01*
G75*
G02*
X214500000Y-78469500I0J237500D01*
G01*
X214500000Y-77994500D01*
G75*
G02*
X214737500Y-77757000I237500J0D01*
G01*
X215312500Y-77757000D01*
G75*
G02*
X215550000Y-77994500I0J-237500D01*
G01*
G37*
G36*
G01*
X217300000Y-77994500D02*
X217300000Y-78469500D01*
G75*
G02*
X217062500Y-78707000I-237500J0D01*
G01*
X216487500Y-78707000D01*
G75*
G02*
X216250000Y-78469500I0J237500D01*
G01*
X216250000Y-77994500D01*
G75*
G02*
X216487500Y-77757000I237500J0D01*
G01*
X217062500Y-77757000D01*
G75*
G02*
X217300000Y-77994500I0J-237500D01*
G01*
G37*
%TD*%
D11*
%TO.C,U22*%
X216855000Y-72945000D03*
X218755000Y-72945000D03*
X218755000Y-75645000D03*
X217805000Y-75645000D03*
X216855000Y-75645000D03*
%TD*%
M02*
