%TF.GenerationSoftware,KiCad,Pcbnew,(5.1.6)-1*%
%TF.CreationDate,2020-11-27T16:41:01-06:00*%
%TF.ProjectId,PackVoltage_2021_Rev1,5061636b-566f-46c7-9461-67655f323032,rev?*%
%TF.SameCoordinates,Original*%
%TF.FileFunction,Soldermask,Bot*%
%TF.FilePolarity,Negative*%
%FSLAX46Y46*%
G04 Gerber Fmt 4.6, Leading zero omitted, Abs format (unit mm)*
G04 Created by KiCad (PCBNEW (5.1.6)-1) date 2020-11-27 16:41:01*
%MOMM*%
%LPD*%
G01*
G04 APERTURE LIST*
%ADD10C,2.919400*%
%ADD11C,3.046400*%
%ADD12C,1.624000*%
%ADD13C,3.550000*%
%ADD14C,1.700000*%
%ADD15R,1.700000X1.700000*%
%ADD16R,0.750000X1.660000*%
%ADD17R,9.499999X10.900001*%
%ADD18R,4.700000X1.200000*%
%ADD19C,0.100000*%
%ADD20R,0.840000X1.290000*%
%ADD21R,10.900001X9.499999*%
%ADD22R,1.200000X4.700000*%
%ADD23C,2.500000*%
%ADD24R,2.500000X2.500000*%
%ADD25C,5.180000*%
%ADD26C,18.388000*%
%ADD27R,2.600000X2.600000*%
%ADD28R,1.650000X0.700000*%
%ADD29R,1.660000X0.750000*%
G04 APERTURE END LIST*
D10*
%TO.C,F10*%
X205232000Y-97790000D03*
X205232000Y-94361000D03*
X191770000Y-94361000D03*
X191770000Y-97790000D03*
%TD*%
D11*
%TO.C,REF\u002A\u002A*%
X42219880Y-149550120D03*
%TD*%
%TO.C,REF\u002A\u002A*%
X42219880Y-30789880D03*
%TD*%
%TO.C,REF\u002A\u002A*%
X237180120Y-30789880D03*
%TD*%
%TO.C,REF\u002A\u002A*%
X237180120Y-149550120D03*
%TD*%
D12*
%TO.C,U13*%
X145796000Y-124968000D03*
X145796000Y-122428000D03*
X145796000Y-119888000D03*
%TD*%
%TO.C,U12*%
X127000000Y-124968000D03*
X127000000Y-122428000D03*
X127000000Y-119888000D03*
%TD*%
D13*
%TO.C,Conn6*%
X45466000Y-113284000D03*
X45466000Y-103124000D03*
D12*
X54102000Y-112014000D03*
X54102000Y-109474000D03*
X54102000Y-106934000D03*
X54102000Y-104394000D03*
%TD*%
%TO.C,Conn5*%
X54102000Y-141986000D03*
X54102000Y-139446000D03*
X54102000Y-136906000D03*
X54102000Y-134366000D03*
X54102000Y-131826000D03*
D13*
X45466000Y-143256000D03*
X45466000Y-117856000D03*
D12*
X54102000Y-129286000D03*
X54102000Y-126746000D03*
X54102000Y-124206000D03*
X54102000Y-121666000D03*
X54102000Y-119126000D03*
%TD*%
D14*
%TO.C,C32*%
X153376000Y-131064000D03*
D15*
X150876000Y-131064000D03*
%TD*%
D14*
%TO.C,C31*%
X137501000Y-131445000D03*
D15*
X135001000Y-131445000D03*
%TD*%
%TO.C,C20*%
G36*
G01*
X147057500Y-136698000D02*
X147582500Y-136698000D01*
G75*
G02*
X147845000Y-136960500I0J-262500D01*
G01*
X147845000Y-137585500D01*
G75*
G02*
X147582500Y-137848000I-262500J0D01*
G01*
X147057500Y-137848000D01*
G75*
G02*
X146795000Y-137585500I0J262500D01*
G01*
X146795000Y-136960500D01*
G75*
G02*
X147057500Y-136698000I262500J0D01*
G01*
G37*
G36*
G01*
X147057500Y-134948000D02*
X147582500Y-134948000D01*
G75*
G02*
X147845000Y-135210500I0J-262500D01*
G01*
X147845000Y-135835500D01*
G75*
G02*
X147582500Y-136098000I-262500J0D01*
G01*
X147057500Y-136098000D01*
G75*
G02*
X146795000Y-135835500I0J262500D01*
G01*
X146795000Y-135210500D01*
G75*
G02*
X147057500Y-134948000I262500J0D01*
G01*
G37*
%TD*%
%TO.C,C19*%
G36*
G01*
X127626500Y-136063000D02*
X128151500Y-136063000D01*
G75*
G02*
X128414000Y-136325500I0J-262500D01*
G01*
X128414000Y-136950500D01*
G75*
G02*
X128151500Y-137213000I-262500J0D01*
G01*
X127626500Y-137213000D01*
G75*
G02*
X127364000Y-136950500I0J262500D01*
G01*
X127364000Y-136325500D01*
G75*
G02*
X127626500Y-136063000I262500J0D01*
G01*
G37*
G36*
G01*
X127626500Y-134313000D02*
X128151500Y-134313000D01*
G75*
G02*
X128414000Y-134575500I0J-262500D01*
G01*
X128414000Y-135200500D01*
G75*
G02*
X128151500Y-135463000I-262500J0D01*
G01*
X127626500Y-135463000D01*
G75*
G02*
X127364000Y-135200500I0J262500D01*
G01*
X127364000Y-134575500D01*
G75*
G02*
X127626500Y-134313000I262500J0D01*
G01*
G37*
%TD*%
D14*
%TO.C,C17*%
X153670000Y-107355000D03*
D15*
X153670000Y-109855000D03*
%TD*%
D14*
%TO.C,C16*%
X133985000Y-107355000D03*
D15*
X133985000Y-109855000D03*
%TD*%
D16*
%TO.C,U23*%
X215712000Y-103298000D03*
X216662000Y-103298000D03*
X217612000Y-103298000D03*
X217612000Y-105998000D03*
X215712000Y-105998000D03*
%TD*%
%TO.C,U19*%
X47970400Y-47120800D03*
X49870400Y-47120800D03*
X49870400Y-44420800D03*
X48920400Y-44420800D03*
X47970400Y-44420800D03*
%TD*%
%TO.C,U18*%
X215966000Y-130810000D03*
X216916000Y-130810000D03*
X217866000Y-130810000D03*
X217866000Y-133510000D03*
X215966000Y-133510000D03*
%TD*%
D17*
%TO.C,R22*%
X64604200Y-82480200D03*
D18*
X55454200Y-79940200D03*
X55454200Y-85020200D03*
%TD*%
D19*
%TO.C,Q8*%
G36*
X57282655Y-44085856D02*
G01*
X57278672Y-44098988D01*
X57272203Y-44111090D01*
X57263497Y-44121697D01*
X57252890Y-44130403D01*
X57240788Y-44136872D01*
X57227656Y-44140855D01*
X57214000Y-44142200D01*
X52514000Y-44142200D01*
X52500344Y-44140855D01*
X52487212Y-44136872D01*
X52475110Y-44130403D01*
X52464503Y-44121697D01*
X52455797Y-44111090D01*
X52449328Y-44098988D01*
X52445345Y-44085856D01*
X52444000Y-44072200D01*
X52444000Y-42522200D01*
X52445345Y-42508544D01*
X52449328Y-42495412D01*
X52455797Y-42483310D01*
X52464503Y-42472703D01*
X52475110Y-42463997D01*
X52487212Y-42457528D01*
X52500344Y-42453545D01*
X52514000Y-42452200D01*
X52694000Y-42452200D01*
X52694000Y-39447200D01*
X52695345Y-39433544D01*
X52699328Y-39420412D01*
X52705797Y-39408310D01*
X52714503Y-39397703D01*
X52725110Y-39388997D01*
X52737212Y-39382528D01*
X52750344Y-39378545D01*
X52764000Y-39377200D01*
X56964000Y-39377200D01*
X56977656Y-39378545D01*
X56990788Y-39382528D01*
X57002890Y-39388997D01*
X57013497Y-39397703D01*
X57022203Y-39408310D01*
X57028672Y-39420412D01*
X57032655Y-39433544D01*
X57034000Y-39447200D01*
X57034000Y-42452200D01*
X57214000Y-42452200D01*
X57227656Y-42453545D01*
X57240788Y-42457528D01*
X57252890Y-42463997D01*
X57263497Y-42472703D01*
X57272203Y-42483310D01*
X57278672Y-42495412D01*
X57282655Y-42508544D01*
X57284000Y-42522200D01*
X57284000Y-44072200D01*
X57282655Y-44085856D01*
G37*
D20*
X56774000Y-37827200D03*
X55504000Y-37827200D03*
X52954000Y-37827200D03*
X54224000Y-37827200D03*
%TD*%
D21*
%TO.C,R12*%
X187198000Y-53540000D03*
D22*
X189738000Y-44390000D03*
X184658000Y-44390000D03*
%TD*%
D23*
%TO.C,C4*%
X168554400Y-105236000D03*
D24*
X168554400Y-110236000D03*
%TD*%
D23*
%TO.C,C3*%
X168021000Y-124126000D03*
D24*
X168021000Y-119126000D03*
%TD*%
D23*
%TO.C,C2*%
X182626000Y-124126000D03*
D24*
X182626000Y-119126000D03*
%TD*%
D23*
%TO.C,C1*%
X182676800Y-105134400D03*
D24*
X182676800Y-110134400D03*
%TD*%
D25*
%TO.C,Conn12*%
X229108000Y-52197000D03*
X229108000Y-44323000D03*
%TD*%
%TO.C,Conn11*%
X222631000Y-113919000D03*
X214757000Y-113919000D03*
%TD*%
%TO.C,Conn8*%
X223266000Y-141351000D03*
X215392000Y-141351000D03*
%TD*%
%TO.C,Conn4*%
X63627000Y-73025000D03*
X55753000Y-73025000D03*
%TD*%
%TO.C,Conn3*%
X131445000Y-52324000D03*
X131445000Y-44450000D03*
%TD*%
%TO.C,Conn2*%
X64262000Y-56515000D03*
X56388000Y-56515000D03*
%TD*%
%TO.C,C23*%
G36*
G01*
X68080500Y-36326800D02*
X67555500Y-36326800D01*
G75*
G02*
X67293000Y-36064300I0J262500D01*
G01*
X67293000Y-35439300D01*
G75*
G02*
X67555500Y-35176800I262500J0D01*
G01*
X68080500Y-35176800D01*
G75*
G02*
X68343000Y-35439300I0J-262500D01*
G01*
X68343000Y-36064300D01*
G75*
G02*
X68080500Y-36326800I-262500J0D01*
G01*
G37*
G36*
G01*
X68080500Y-38076800D02*
X67555500Y-38076800D01*
G75*
G02*
X67293000Y-37814300I0J262500D01*
G01*
X67293000Y-37189300D01*
G75*
G02*
X67555500Y-36926800I262500J0D01*
G01*
X68080500Y-36926800D01*
G75*
G02*
X68343000Y-37189300I0J-262500D01*
G01*
X68343000Y-37814300D01*
G75*
G02*
X68080500Y-38076800I-262500J0D01*
G01*
G37*
%TD*%
%TO.C,C26*%
G36*
G01*
X60752000Y-35568500D02*
X60752000Y-35043500D01*
G75*
G02*
X61014500Y-34781000I262500J0D01*
G01*
X61639500Y-34781000D01*
G75*
G02*
X61902000Y-35043500I0J-262500D01*
G01*
X61902000Y-35568500D01*
G75*
G02*
X61639500Y-35831000I-262500J0D01*
G01*
X61014500Y-35831000D01*
G75*
G02*
X60752000Y-35568500I0J262500D01*
G01*
G37*
G36*
G01*
X59002000Y-35568500D02*
X59002000Y-35043500D01*
G75*
G02*
X59264500Y-34781000I262500J0D01*
G01*
X59889500Y-34781000D01*
G75*
G02*
X60152000Y-35043500I0J-262500D01*
G01*
X60152000Y-35568500D01*
G75*
G02*
X59889500Y-35831000I-262500J0D01*
G01*
X59264500Y-35831000D01*
G75*
G02*
X59002000Y-35568500I0J262500D01*
G01*
G37*
%TD*%
D10*
%TO.C,F6*%
X86995000Y-89916000D03*
X86995000Y-93345000D03*
X73533000Y-93345000D03*
X73533000Y-89916000D03*
%TD*%
%TO.C,F7*%
X206502000Y-123190000D03*
X206502000Y-119761000D03*
X193040000Y-119761000D03*
X193040000Y-123190000D03*
%TD*%
%TO.C,F8*%
X50038000Y-33020000D03*
X50038000Y-29591000D03*
X63500000Y-29591000D03*
X63500000Y-33020000D03*
%TD*%
D26*
%TO.C,GND1*%
X173609000Y-142875000D03*
%TD*%
D27*
%TO.C,J3V1*%
X123317000Y-135001000D03*
%TD*%
%TO.C,J5V1*%
X141541500Y-135128000D03*
%TD*%
%TO.C,R17*%
G36*
G01*
X150122500Y-136098000D02*
X149597500Y-136098000D01*
G75*
G02*
X149335000Y-135835500I0J262500D01*
G01*
X149335000Y-135210500D01*
G75*
G02*
X149597500Y-134948000I262500J0D01*
G01*
X150122500Y-134948000D01*
G75*
G02*
X150385000Y-135210500I0J-262500D01*
G01*
X150385000Y-135835500D01*
G75*
G02*
X150122500Y-136098000I-262500J0D01*
G01*
G37*
G36*
G01*
X150122500Y-137848000D02*
X149597500Y-137848000D01*
G75*
G02*
X149335000Y-137585500I0J262500D01*
G01*
X149335000Y-136960500D01*
G75*
G02*
X149597500Y-136698000I262500J0D01*
G01*
X150122500Y-136698000D01*
G75*
G02*
X150385000Y-136960500I0J-262500D01*
G01*
X150385000Y-137585500D01*
G75*
G02*
X150122500Y-137848000I-262500J0D01*
G01*
G37*
%TD*%
%TO.C,R18*%
G36*
G01*
X131453500Y-135209000D02*
X130928500Y-135209000D01*
G75*
G02*
X130666000Y-134946500I0J262500D01*
G01*
X130666000Y-134321500D01*
G75*
G02*
X130928500Y-134059000I262500J0D01*
G01*
X131453500Y-134059000D01*
G75*
G02*
X131716000Y-134321500I0J-262500D01*
G01*
X131716000Y-134946500D01*
G75*
G02*
X131453500Y-135209000I-262500J0D01*
G01*
G37*
G36*
G01*
X131453500Y-136959000D02*
X130928500Y-136959000D01*
G75*
G02*
X130666000Y-136696500I0J262500D01*
G01*
X130666000Y-136071500D01*
G75*
G02*
X130928500Y-135809000I262500J0D01*
G01*
X131453500Y-135809000D01*
G75*
G02*
X131716000Y-136071500I0J-262500D01*
G01*
X131716000Y-136696500D01*
G75*
G02*
X131453500Y-136959000I-262500J0D01*
G01*
G37*
%TD*%
%TO.C,R21*%
G36*
G01*
X67504700Y-40432000D02*
X68029700Y-40432000D01*
G75*
G02*
X68292200Y-40694500I0J-262500D01*
G01*
X68292200Y-41319500D01*
G75*
G02*
X68029700Y-41582000I-262500J0D01*
G01*
X67504700Y-41582000D01*
G75*
G02*
X67242200Y-41319500I0J262500D01*
G01*
X67242200Y-40694500D01*
G75*
G02*
X67504700Y-40432000I262500J0D01*
G01*
G37*
G36*
G01*
X67504700Y-38682000D02*
X68029700Y-38682000D01*
G75*
G02*
X68292200Y-38944500I0J-262500D01*
G01*
X68292200Y-39569500D01*
G75*
G02*
X68029700Y-39832000I-262500J0D01*
G01*
X67504700Y-39832000D01*
G75*
G02*
X67242200Y-39569500I0J262500D01*
G01*
X67242200Y-38944500D01*
G75*
G02*
X67504700Y-38682000I262500J0D01*
G01*
G37*
%TD*%
%TO.C,R27*%
G36*
G01*
X59427500Y-46782000D02*
X59952500Y-46782000D01*
G75*
G02*
X60215000Y-47044500I0J-262500D01*
G01*
X60215000Y-47669500D01*
G75*
G02*
X59952500Y-47932000I-262500J0D01*
G01*
X59427500Y-47932000D01*
G75*
G02*
X59165000Y-47669500I0J262500D01*
G01*
X59165000Y-47044500D01*
G75*
G02*
X59427500Y-46782000I262500J0D01*
G01*
G37*
G36*
G01*
X59427500Y-45032000D02*
X59952500Y-45032000D01*
G75*
G02*
X60215000Y-45294500I0J-262500D01*
G01*
X60215000Y-45919500D01*
G75*
G02*
X59952500Y-46182000I-262500J0D01*
G01*
X59427500Y-46182000D01*
G75*
G02*
X59165000Y-45919500I0J262500D01*
G01*
X59165000Y-45294500D01*
G75*
G02*
X59427500Y-45032000I262500J0D01*
G01*
G37*
%TD*%
D28*
%TO.C,U16*%
X59834800Y-37007800D03*
X59834800Y-39547800D03*
X59834800Y-40817800D03*
X65234800Y-40817800D03*
X65234800Y-39547800D03*
X65234800Y-38277800D03*
X65234800Y-37007800D03*
%TD*%
D26*
%TO.C,V1*%
X193929000Y-142875000D03*
%TD*%
D10*
%TO.C,F4*%
X174625000Y-68707000D03*
X171196000Y-68707000D03*
X171196000Y-55245000D03*
X174625000Y-55245000D03*
%TD*%
D25*
%TO.C,Conn7*%
X164465000Y-52324000D03*
X164465000Y-44450000D03*
%TD*%
D10*
%TO.C,F2*%
X141605000Y-69342000D03*
X138176000Y-69342000D03*
X138176000Y-55880000D03*
X141605000Y-55880000D03*
%TD*%
D21*
%TO.C,R5*%
X154940000Y-53975000D03*
D22*
X157480000Y-44825000D03*
X152400000Y-44825000D03*
%TD*%
D10*
%TO.C,F1*%
X109220000Y-69342000D03*
X105791000Y-69342000D03*
X105791000Y-55880000D03*
X109220000Y-55880000D03*
%TD*%
D21*
%TO.C,R4*%
X121920000Y-53975000D03*
D22*
X124460000Y-44825000D03*
X119380000Y-44825000D03*
%TD*%
D25*
%TO.C,Conn1*%
X98425000Y-52324000D03*
X98425000Y-44450000D03*
%TD*%
D10*
%TO.C,F3*%
X74549000Y-69215000D03*
X71120000Y-69215000D03*
X71120000Y-55753000D03*
X74549000Y-55753000D03*
%TD*%
D21*
%TO.C,R6*%
X88900000Y-53975000D03*
D22*
X91440000Y-44825000D03*
X86360000Y-44825000D03*
%TD*%
D25*
%TO.C,Conn9*%
X196850000Y-52324000D03*
X196850000Y-44450000D03*
%TD*%
D10*
%TO.C,F5*%
X206756000Y-68580000D03*
X203327000Y-68580000D03*
X203327000Y-55118000D03*
X206756000Y-55118000D03*
%TD*%
D29*
%TO.C,U10*%
X221441000Y-49845000D03*
X221441000Y-47945000D03*
X218741000Y-47945000D03*
X218741000Y-48895000D03*
X218741000Y-49845000D03*
%TD*%
D25*
%TO.C,Conn10*%
X214503000Y-65278000D03*
X222377000Y-65278000D03*
%TD*%
%TO.C,C27*%
G36*
G01*
X209033500Y-83979000D02*
X209558500Y-83979000D01*
G75*
G02*
X209821000Y-84241500I0J-262500D01*
G01*
X209821000Y-84866500D01*
G75*
G02*
X209558500Y-85129000I-262500J0D01*
G01*
X209033500Y-85129000D01*
G75*
G02*
X208771000Y-84866500I0J262500D01*
G01*
X208771000Y-84241500D01*
G75*
G02*
X209033500Y-83979000I262500J0D01*
G01*
G37*
G36*
G01*
X209033500Y-82229000D02*
X209558500Y-82229000D01*
G75*
G02*
X209821000Y-82491500I0J-262500D01*
G01*
X209821000Y-83116500D01*
G75*
G02*
X209558500Y-83379000I-262500J0D01*
G01*
X209033500Y-83379000D01*
G75*
G02*
X208771000Y-83116500I0J262500D01*
G01*
X208771000Y-82491500D01*
G75*
G02*
X209033500Y-82229000I262500J0D01*
G01*
G37*
%TD*%
D19*
%TO.C,Q9*%
G36*
X218566345Y-75951344D02*
G01*
X218570328Y-75938212D01*
X218576797Y-75926110D01*
X218585503Y-75915503D01*
X218596110Y-75906797D01*
X218608212Y-75900328D01*
X218621344Y-75896345D01*
X218635000Y-75895000D01*
X223335000Y-75895000D01*
X223348656Y-75896345D01*
X223361788Y-75900328D01*
X223373890Y-75906797D01*
X223384497Y-75915503D01*
X223393203Y-75926110D01*
X223399672Y-75938212D01*
X223403655Y-75951344D01*
X223405000Y-75965000D01*
X223405000Y-77515000D01*
X223403655Y-77528656D01*
X223399672Y-77541788D01*
X223393203Y-77553890D01*
X223384497Y-77564497D01*
X223373890Y-77573203D01*
X223361788Y-77579672D01*
X223348656Y-77583655D01*
X223335000Y-77585000D01*
X223155000Y-77585000D01*
X223155000Y-80590000D01*
X223153655Y-80603656D01*
X223149672Y-80616788D01*
X223143203Y-80628890D01*
X223134497Y-80639497D01*
X223123890Y-80648203D01*
X223111788Y-80654672D01*
X223098656Y-80658655D01*
X223085000Y-80660000D01*
X218885000Y-80660000D01*
X218871344Y-80658655D01*
X218858212Y-80654672D01*
X218846110Y-80648203D01*
X218835503Y-80639497D01*
X218826797Y-80628890D01*
X218820328Y-80616788D01*
X218816345Y-80603656D01*
X218815000Y-80590000D01*
X218815000Y-77585000D01*
X218635000Y-77585000D01*
X218621344Y-77583655D01*
X218608212Y-77579672D01*
X218596110Y-77573203D01*
X218585503Y-77564497D01*
X218576797Y-77553890D01*
X218570328Y-77541788D01*
X218566345Y-77528656D01*
X218565000Y-77515000D01*
X218565000Y-75965000D01*
X218566345Y-75951344D01*
G37*
D20*
X219075000Y-82210000D03*
X220345000Y-82210000D03*
X222895000Y-82210000D03*
X221625000Y-82210000D03*
%TD*%
%TO.C,R28*%
G36*
G01*
X209558500Y-79851000D02*
X209033500Y-79851000D01*
G75*
G02*
X208771000Y-79588500I0J262500D01*
G01*
X208771000Y-78963500D01*
G75*
G02*
X209033500Y-78701000I262500J0D01*
G01*
X209558500Y-78701000D01*
G75*
G02*
X209821000Y-78963500I0J-262500D01*
G01*
X209821000Y-79588500D01*
G75*
G02*
X209558500Y-79851000I-262500J0D01*
G01*
G37*
G36*
G01*
X209558500Y-81601000D02*
X209033500Y-81601000D01*
G75*
G02*
X208771000Y-81338500I0J262500D01*
G01*
X208771000Y-80713500D01*
G75*
G02*
X209033500Y-80451000I262500J0D01*
G01*
X209558500Y-80451000D01*
G75*
G02*
X209821000Y-80713500I0J-262500D01*
G01*
X209821000Y-81338500D01*
G75*
G02*
X209558500Y-81601000I-262500J0D01*
G01*
G37*
%TD*%
D17*
%TO.C,R30*%
X236220000Y-75565000D03*
D18*
X227070000Y-73025000D03*
X227070000Y-78105000D03*
%TD*%
%TO.C,C29*%
G36*
G01*
X229662000Y-85860500D02*
X229662000Y-85335500D01*
G75*
G02*
X229924500Y-85073000I262500J0D01*
G01*
X230549500Y-85073000D01*
G75*
G02*
X230812000Y-85335500I0J-262500D01*
G01*
X230812000Y-85860500D01*
G75*
G02*
X230549500Y-86123000I-262500J0D01*
G01*
X229924500Y-86123000D01*
G75*
G02*
X229662000Y-85860500I0J262500D01*
G01*
G37*
G36*
G01*
X227912000Y-85860500D02*
X227912000Y-85335500D01*
G75*
G02*
X228174500Y-85073000I262500J0D01*
G01*
X228799500Y-85073000D01*
G75*
G02*
X229062000Y-85335500I0J-262500D01*
G01*
X229062000Y-85860500D01*
G75*
G02*
X228799500Y-86123000I-262500J0D01*
G01*
X228174500Y-86123000D01*
G75*
G02*
X227912000Y-85860500I0J262500D01*
G01*
G37*
%TD*%
D28*
%TO.C,U20*%
X216535000Y-83820000D03*
X216535000Y-81280000D03*
X216535000Y-80010000D03*
X211135000Y-80010000D03*
X211135000Y-81280000D03*
X211135000Y-82550000D03*
X211135000Y-83820000D03*
%TD*%
D10*
%TO.C,F9*%
X191516000Y-83947000D03*
X191516000Y-80518000D03*
X204978000Y-80518000D03*
X204978000Y-83947000D03*
%TD*%
M02*
