M48
; DRILL file {KiCad (5.1.8)-1} date 11/29/20 21:51:36
; FORMAT={-:-/ absolute / inch / decimal}
; #@! TF.CreationDate,2020-11-29T21:51:36-06:00
; #@! TF.GenerationSoftware,Kicad,Pcbnew,(5.1.8)-1
; #@! TF.FileFunction,Plated,1,2,PTH
FMAT,2
INCH
T1C0.0157
T2C0.0315
T3C0.0350
T4C0.0354
T5C0.0472
T6C0.0660
T7C0.1598
T8C0.3600
%
G90
G05
T1
X1.6Y-1.4
X1.6Y-1.5
X1.65Y-1.45
X1.65Y-1.55
X1.7Y-1.4
X1.7Y-1.5
X1.75Y-1.45
X1.75Y-1.55
X1.75Y-2.55
X1.75Y-2.65
X1.8Y-1.4
X1.8Y-1.5
X1.8Y-2.5
X1.8Y-2.6
X1.81Y-3.52
X1.85Y-1.15
X1.85Y-1.25
X1.85Y-1.35
X1.85Y-1.45
X1.85Y-1.55
X1.85Y-2.55
X1.85Y-2.65
X1.89Y-1.2
X1.89Y-1.3
X1.9Y-1.4
X1.9Y-1.5
X1.9Y-1.67
X1.9Y-2.49
X1.9Y-2.6
X1.94Y-3.37
X1.94Y-3.43
X1.94Y-3.49
X1.95Y-1.45
X1.95Y-2.55
X1.95Y-2.65
X1.97Y-2.27
X1.97Y-2.34
X1.97Y-2.42
X1.97Y-2.48
X1.9725Y-1.5775
X1.98Y-1.92
X1.98Y-2.0
X1.99Y-3.34
X1.99Y-3.4
X1.99Y-3.46
X2.0Y-1.4
X2.0Y-1.5
X2.0Y-2.6
X2.01Y-3.59
X2.015Y-1.7575
X2.0175Y-1.655
X2.02Y-1.96
X2.02Y-2.03
X2.04Y-3.3225
X2.04Y-3.37
X2.04Y-3.43
X2.04Y-3.49
X2.05Y-2.48
X2.05Y-2.55
X2.05Y-2.65
X2.05Y-3.65
X2.05Y-3.75
X2.07Y-2.4
X2.09Y-3.4
X2.09Y-3.46
X2.1Y-2.6
X2.125Y-1.175
X2.125Y-1.275
X2.125Y-1.375
X2.14Y-2.05
X2.15Y-2.55
X2.15Y-2.65
X2.15Y-3.65
X2.1525Y-1.77
X2.17Y-2.1
X2.175Y-1.125
X2.175Y-1.225
X2.175Y-1.325
X2.175Y-1.425
X2.2Y-2.05
X2.2Y-2.6
X2.2Y-3.7
X2.2Y-3.8
X2.22Y-2.5
X2.225Y-1.175
X2.225Y-1.275
X2.225Y-1.375
X2.25Y-2.55
X2.25Y-2.65
X2.25Y-3.65
X2.25Y-3.75
X2.27Y-2.45
X2.275Y-1.125
X2.275Y-1.225
X2.275Y-1.325
X2.275Y-1.425
X2.3Y-2.6
X2.3Y-3.7
X2.3Y-3.8
X2.325Y-1.175
X2.325Y-1.275
X2.34Y-2.45
X2.35Y-2.55
X2.35Y-2.65
X2.35Y-3.65
X2.35Y-3.75
X2.375Y-1.125
X2.375Y-1.225
X2.375Y-1.325
X2.375Y-2.725
X2.375Y-2.825
X2.375Y-2.925
X2.4Y-2.09
X2.4Y-2.18
X2.4Y-2.27
X2.4Y-2.35
X2.4Y-2.6
X2.4Y-3.7
X2.4Y-3.8
X2.425Y-2.775
X2.425Y-3.0
X2.43Y-2.45
X2.45Y-2.55
X2.45Y-2.65
X2.45Y-3.75
X2.475Y-2.725
X2.48Y-2.09
X2.48Y-2.35
X2.5Y-2.45
X2.5Y-2.6
X2.5Y-3.7
X2.5Y-3.8
X2.51Y-3.51
X2.55Y-2.55
X2.55Y-2.65
X2.55Y-3.75
X2.56Y-2.45
X2.575Y-1.125
X2.575Y-1.225
X2.575Y-1.325
X2.575Y-2.725
X2.575Y-3.0
X2.58Y-2.35
X2.6Y-2.6
X2.6Y-3.7
X2.6Y-3.8
X2.625Y-2.925
X2.64Y-2.44
X2.64Y-3.63
X2.65Y-2.55
X2.65Y-2.65
X2.65Y-3.75
X2.67Y-2.06
X2.6728Y-2.4689
X2.675Y-3.0
X2.7Y-2.6
X2.7Y-3.7
X2.7Y-3.8
X2.7037Y-2.3963
X2.725Y-2.925
X2.75Y-3.75
X2.76Y-3.47
X2.76Y-3.54
X2.775Y-1.5
X2.775Y-1.6
X2.775Y-1.7
X2.775Y-1.8
X2.775Y-1.9
X2.775Y-2.0
X2.775Y-2.1
X2.775Y-2.275
X2.775Y-3.0
X2.79Y-2.34
X2.8Y-3.28
X2.8Y-3.8
X2.825Y-1.55
X2.825Y-1.65
X2.825Y-1.75
X2.825Y-1.85
X2.825Y-1.95
X2.825Y-2.05
X2.87Y-2.34
X2.875Y-1.5
X2.875Y-1.6
X2.875Y-1.7
X2.875Y-1.8
X2.875Y-1.9
X2.875Y-2.0
X2.875Y-2.1
X2.875Y-2.275
X2.89Y-3.28
X2.925Y-1.55
X2.925Y-1.65
X2.925Y-1.75
X2.925Y-1.85
X2.925Y-1.95
X2.925Y-2.05
X2.96Y-2.34
X2.975Y-1.5
X2.975Y-1.6
X2.975Y-1.7
X2.975Y-1.8
X2.975Y-1.9
X2.975Y-2.0
X2.975Y-2.1
X2.975Y-2.275
X2.99Y-3.28
X3.025Y-1.55
X3.025Y-1.65
X3.025Y-1.75
X3.025Y-1.85
X3.025Y-1.95
X3.0713Y-2.3963
X3.075Y-1.5
X3.075Y-1.6
X3.075Y-1.7
X3.075Y-1.8
X3.075Y-1.9
X3.075Y-3.95
X3.125Y-1.55
X3.125Y-1.65
X3.125Y-1.75
X3.125Y-1.85
X3.175Y-1.5
X3.175Y-1.6
X3.175Y-1.7
X3.175Y-1.8
X3.19Y-3.425
X3.195Y-3.28
X3.2Y-2.4378
X3.2Y-2.91
X3.2Y-3.0
X3.2Y-3.11
X3.225Y-1.55
X3.225Y-1.65
X3.24Y-2.4689
X3.24Y-3.77
X3.275Y-4.575
X3.3Y-1.55
X3.32Y-2.5
X3.32Y-3.77
X3.35Y-1.5
X3.35Y-1.6
X3.375Y-4.675
X3.39Y-3.03
X3.39Y-3.14
X3.4Y-1.55
X3.4Y-1.65
X3.45Y-1.6
X3.45Y-2.34
X3.45Y-2.9411
X3.475Y-4.575
X3.475Y-4.775
X3.49Y-2.34
X3.49Y-2.9722
X3.525Y-3.35
X3.525Y-3.775
X3.575Y-4.675
X3.575Y-4.875
X3.6Y-1.575
X3.625Y-2.425
X3.65Y-1.44
X3.65Y-1.525
X3.65Y-1.625
X3.65Y-1.725
X3.65Y-1.825
X3.675Y-4.575
X3.675Y-4.775
X3.675Y-4.975
X3.7Y-1.575
X3.7Y-1.675
X3.7Y-1.775
X3.7Y-1.875
X3.75Y-1.525
X3.75Y-1.625
X3.75Y-1.725
X3.75Y-1.825
X3.76Y-1.96
X3.76Y-2.15
X3.76Y-2.23
X3.76Y-2.3
X3.775Y-2.425
X3.8Y-1.345
X3.8Y-1.575
X3.8Y-1.875
X3.82Y-3.9
X3.83Y-2.23
X3.83Y-2.3
X3.85Y-1.525
X3.85Y-1.625
X3.9Y-1.575
X3.9Y-2.23
X3.9Y-2.3
X3.92Y-1.345
X3.925Y-2.425
X3.95Y-1.525
X3.95Y-1.625
X3.97Y-1.96
X3.97Y-2.16
X3.97Y-2.23
X3.97Y-2.3
X4.0Y-1.575
X4.0Y-1.675
X4.0Y-1.775
X4.0Y-1.875
X4.0Y-4.85
X4.0Y-5.05
X4.0Y-5.25
X4.05Y-1.525
X4.05Y-1.625
X4.05Y-1.725
X4.05Y-1.825
X4.06Y-1.98
X4.06Y-3.33
X4.1Y-4.95
X4.1Y-5.15
X4.12Y-1.45
X4.125Y-2.05
X4.175Y-2.1
X4.2Y-1.35
X4.2Y-4.85
X4.2Y-5.05
X4.2Y-5.25
X4.225Y-1.55
X4.225Y-1.65
X4.225Y-1.75
X4.225Y-1.85
X4.225Y-1.95
X4.225Y-2.05
X4.275Y-1.5
X4.275Y-1.6
X4.275Y-1.7
X4.275Y-1.8
X4.275Y-1.9
X4.275Y-2.0
X4.275Y-2.1
X4.3Y-1.35
X4.3Y-4.95
X4.3Y-5.175
X4.325Y-1.55
X4.325Y-1.65
X4.325Y-1.75
X4.325Y-1.85
X4.325Y-1.95
X4.325Y-2.05
X4.375Y-1.5
X4.375Y-1.6
X4.375Y-1.7
X4.375Y-1.8
X4.375Y-1.9
X4.4Y-1.35
X4.4Y-5.05
X4.4Y-5.25
X4.42Y-2.18
X4.425Y-1.55
X4.425Y-1.65
X4.425Y-1.75
X4.425Y-1.85
X4.475Y-1.5
X4.475Y-1.6
X4.475Y-1.7
X4.5Y-1.35
X4.5Y-5.15
X4.525Y-1.55
X4.525Y-1.65
X4.6Y-1.35
X4.6Y-1.55
X4.6Y-5.25
X4.675Y-1.55
X4.7Y-1.35
X4.74Y-2.3337
X4.74Y-2.3959
X4.775Y-3.0034
X4.78Y-2.3337
X4.8Y-1.35
X4.9Y-1.35
X4.9Y-2.45
X4.925Y-4.8
X4.925Y-4.85
X4.95Y-1.4406
X4.95Y-1.525
X4.96Y-5.36
X5.0Y-1.35
X5.0Y-1.45
X5.0Y-1.575
X5.0Y-1.675
X5.0Y-1.775
X5.0Y-1.875
X5.05Y-1.525
X5.05Y-1.625
X5.05Y-1.725
X5.05Y-1.825
X5.05Y-2.45
X5.075Y-1.975
X5.075Y-2.175
X5.075Y-2.275
X5.1Y-1.35
X5.1Y-1.45
X5.1Y-1.575
X5.1Y-1.875
X5.1Y-4.8
X5.1Y-4.85
X5.1Y-5.36
X5.11Y-3.94
X5.125Y-2.225
X5.125Y-2.325
X5.15Y-1.525
X5.15Y-1.625
X5.175Y-2.275
X5.2Y-1.35
X5.2Y-1.45
X5.2Y-1.575
X5.2Y-2.45
X5.215Y-4.2
X5.215Y-4.25
X5.225Y-2.225
X5.225Y-2.325
X5.235Y-5.375
X5.25Y-1.525
X5.25Y-1.625
X5.275Y-1.975
X5.275Y-2.175
X5.275Y-2.275
X5.3Y-1.35
X5.3Y-1.45
X5.3Y-1.575
X5.3Y-1.675
X5.3Y-1.775
X5.3Y-1.875
X5.325Y-1.95
X5.3359Y-2.33
X5.34Y-3.04
X5.34Y-4.2
X5.34Y-4.25
X5.35Y-1.525
X5.35Y-1.625
X5.35Y-1.725
X5.35Y-1.825
X5.36Y-5.035
X5.36Y-5.235
X5.41Y-5.085
X5.425Y-2.05
X5.425Y-2.3
X5.46Y-5.035
X5.46Y-5.135
X5.46Y-5.235
X5.475Y-2.1
X5.51Y-5.085
X5.51Y-5.185
X5.525Y-1.55
X5.525Y-1.65
X5.525Y-1.75
X5.525Y-1.85
X5.525Y-1.95
X5.525Y-2.05
X5.525Y-2.3
X5.56Y-5.035
X5.56Y-5.135
X5.56Y-5.235
X5.575Y-1.5
X5.575Y-1.6
X5.575Y-1.7
X5.575Y-1.8
X5.575Y-1.9
X5.575Y-2.0
X5.575Y-2.1
X5.6Y-1.35
X5.6Y-1.43
X5.62Y-2.9411
X5.62Y-3.76
X5.625Y-1.55
X5.625Y-1.65
X5.625Y-1.75
X5.625Y-1.85
X5.625Y-1.95
X5.625Y-2.05
X5.625Y-2.3
X5.67Y-3.98
X5.67Y-3.98
X5.675Y-1.5
X5.675Y-1.6
X5.675Y-1.7
X5.675Y-1.8
X5.675Y-1.9
X5.675Y-4.8
X5.675Y-4.85
X5.7Y-1.35
X5.7Y-1.43
X5.72Y-2.2
X5.72Y-3.33
X5.72Y-3.76
X5.725Y-1.55
X5.725Y-1.65
X5.725Y-1.75
X5.725Y-1.85
X5.725Y-3.09
X5.725Y-3.14
X5.725Y-3.265
X5.77Y-3.98
X5.775Y-1.5
X5.775Y-1.6
X5.775Y-1.7
X5.775Y-1.8
X5.7989Y-3.0711
X5.8Y-1.35
X5.8Y-1.43
X5.8Y-4.8
X5.8Y-4.85
X5.82Y-3.76
X5.825Y-1.55
X5.825Y-1.65
X5.83Y-3.03
X5.83Y-5.61
X5.83Y-5.69
X5.88Y-3.12
X5.88Y-3.99
X5.89Y-3.025
X5.9Y-1.35
X5.9Y-1.43
X5.9Y-1.55
X5.925Y-1.625
X5.93Y-2.4
X5.93Y-3.76
X5.97Y-2.3337
X5.975Y-1.55
X5.985Y-4.2
X5.985Y-4.25
X6.0Y-1.35
X6.0Y-1.625
X6.005Y-3.025
X6.01Y-5.09
X6.01Y-5.22
X6.02Y-1.45
X6.07Y-2.3337
X6.07Y-3.0122
X6.07Y-5.09
X6.07Y-5.22
X6.075Y-1.625
X6.1Y-1.35
X6.11Y-4.2
X6.11Y-4.25
X6.11Y-5.12
X6.11Y-5.18
X6.13Y-3.41
X6.13Y-3.76
X6.18Y-3.97
X6.18Y-4.06
X6.2Y-1.35
X6.23Y-3.25
X6.23Y-3.91
X6.25Y-1.525
X6.25Y-1.625
X6.25Y-1.725
X6.25Y-1.825
X6.25Y-2.45
X6.2598Y-1.4502
X6.27Y-4.07
X6.3Y-1.35
X6.3Y-1.575
X6.3Y-1.675
X6.3Y-1.775
X6.3Y-1.875
X6.32Y-5.66
X6.35Y-1.525
X6.35Y-1.625
X6.35Y-1.725
X6.35Y-1.825
X6.35Y-2.125
X6.35Y-2.225
X6.35Y-2.325
X6.375Y-1.95
X6.375Y-2.45
X6.4Y-1.35
X6.4Y-1.575
X6.4Y-1.875
X6.4Y-2.27
X6.43Y-3.36
X6.435Y-2.225
X6.435Y-2.325
X6.45Y-1.525
X6.45Y-1.625
X6.47Y-3.54
X6.47Y-5.06
X6.485Y-2.275
X6.5Y-1.35
X6.5Y-1.575
X6.5Y-2.45
X6.52Y-4.14
X6.535Y-2.225
X6.535Y-2.325
X6.55Y-1.525
X6.55Y-1.625
X6.55Y-4.23
X6.55Y-4.825
X6.55Y-4.975
X6.55Y-5.06
X6.575Y-1.95
X6.585Y-2.175
X6.585Y-2.275
X6.6Y-1.35
X6.6Y-1.575
X6.6Y-1.675
X6.6Y-1.775
X6.6Y-1.875
X6.61Y-5.18
X6.625Y-4.975
X6.64Y-2.33
X6.64Y-3.0434
X6.645Y-5.065
X6.65Y-1.525
X6.65Y-1.625
X6.65Y-1.725
X6.65Y-1.825
X6.65Y-1.95
X6.7Y-4.825
X6.7Y-4.9
X6.71Y-3.0122
X6.71Y-3.44
X6.71Y-4.23
X6.725Y-2.075
X6.725Y-2.275
X6.74Y-3.67
X6.76Y-2.95
X6.76Y-3.33
X6.77Y-4.14
X6.775Y-2.025
X6.775Y-4.825
X6.825Y-1.575
X6.825Y-1.675
X6.825Y-1.775
X6.825Y-1.875
X6.825Y-1.975
X6.825Y-2.075
X6.825Y-2.275
X6.85Y-4.24
X6.875Y-1.525
X6.875Y-1.625
X6.875Y-1.725
X6.875Y-1.825
X6.875Y-1.925
X6.875Y-2.025
X6.9Y-1.35
X6.91Y-4.14
X6.925Y-1.575
X6.925Y-1.675
X6.925Y-1.775
X6.925Y-1.875
X6.925Y-1.975
X6.925Y-2.075
X6.925Y-2.275
X6.975Y-1.525
X6.975Y-1.625
X6.975Y-1.725
X6.975Y-1.825
X6.975Y-1.925
X6.99Y-4.23
X7.0Y-1.35
X7.01Y-2.17
X7.02Y-3.03
X7.02Y-3.17
X7.02Y-3.3
X7.02Y-3.42
X7.02Y-3.55
X7.02Y-3.66
X7.025Y-1.575
X7.025Y-1.675
X7.025Y-1.775
X7.025Y-1.875
X7.05Y-4.14
X7.075Y-1.525
X7.075Y-1.625
X7.09Y-4.785
X7.09Y-4.885
X7.09Y-4.985
X7.1Y-1.35
X7.12Y-4.23
X7.125Y-1.575
X7.125Y-1.675
X7.15Y-2.91
X7.15Y-3.15
X7.19Y-4.78
X7.19Y-4.985
X7.2Y-1.35
X7.2Y-1.575
X7.2Y-2.91
X7.2Y-3.29
X7.24Y-4.23
X7.25Y-1.525
X7.25Y-1.625
X7.26Y-2.92
X7.26Y-3.17
X7.26Y-3.29
X7.27Y-1.68
X7.27Y-1.755
X7.28Y-4.15
X7.28Y-5.07
X7.28Y-5.18
X7.29Y-4.785
X7.29Y-4.885
X7.29Y-4.985
X7.3Y-1.35
X7.3Y-1.575
X7.31Y-1.45
X7.32Y-2.34
X7.32Y-3.96
X7.34Y-4.23
X7.35Y-1.625
X7.36Y-3.54
X7.36Y-3.91
X7.375Y-2.34
X7.375Y-3.435
X7.4Y-1.35
X7.4Y-3.64
X7.4Y-3.8
X7.4Y-4.15
X7.41Y-3.37
X7.425Y-2.96
X7.44Y-2.9
X7.44Y-3.25
X7.45Y-2.475
X7.45Y-3.5
X7.45Y-3.54
X7.45Y-3.59
X7.45Y-3.69
X7.46Y-4.17
X7.5Y-1.35
X7.5Y-1.575
X7.5Y-2.425
X7.55Y-1.4406
X7.55Y-1.525
X7.55Y-1.625
X7.55Y-1.725
X7.55Y-1.825
X7.55Y-2.475
X7.6Y-1.575
X7.6Y-1.68
X7.6Y-1.77
X7.6Y-1.87
X7.6Y-2.425
X7.615Y-1.95
X7.615Y-2.05
X7.615Y-2.15
X7.615Y-2.25
X7.65Y-1.525
X7.65Y-1.625
X7.65Y-1.825
X7.65Y-2.475
X7.665Y-2.2
X7.665Y-2.3
X7.7Y-1.575
X7.7Y-1.87
X7.7Y-2.425
X7.715Y-2.25
X7.75Y-1.525
X7.75Y-1.625
X7.765Y-2.2
X7.765Y-2.3
X7.8Y-1.575
X7.815Y-2.25
X7.85Y-1.525
X7.85Y-1.625
X7.865Y-2.0
X7.865Y-2.1
X7.865Y-2.2
X7.865Y-2.3
X7.9Y-1.575
X7.9Y-1.675
X7.9Y-1.775
X7.9Y-1.875
X7.9Y-2.97
X7.9Y-3.69
X7.91Y-2.34
X7.925Y-4.65
X7.925Y-5.05
X7.94Y-4.15
X7.95Y-4.02
X7.99Y-2.075
X7.99Y-2.275
X8.0Y-3.66
X8.0Y-3.79
X8.0Y-3.9
X8.01Y-4.15
X8.04Y-2.025
X8.06Y-4.0
X8.062Y-4.242
X8.075Y-4.44
X8.09Y-1.575
X8.09Y-1.675
X8.09Y-1.775
X8.09Y-1.875
X8.09Y-1.975
X8.09Y-2.075
X8.09Y-2.275
X8.11Y-2.94
X8.12Y-3.0511
X8.14Y-1.525
X8.14Y-1.625
X8.14Y-1.725
X8.14Y-1.825
X8.14Y-1.925
X8.14Y-2.025
X8.14Y-4.01
X8.15Y-3.64
X8.175Y-2.475
X8.18Y-3.76
X8.18Y-3.84
X8.19Y-1.575
X8.19Y-1.675
X8.19Y-1.775
X8.19Y-1.875
X8.19Y-1.975
X8.19Y-2.075
X8.19Y-2.275
X8.2Y-3.05
X8.2Y-3.69
X8.21Y-4.99
X8.225Y-2.425
X8.225Y-3.425
X8.225Y-3.525
X8.225Y-4.74
X8.225Y-4.84
X8.24Y-1.525
X8.24Y-1.625
X8.24Y-1.725
X8.24Y-1.825
X8.24Y-1.925
X8.25Y-3.64
X8.25Y-4.01
X8.25Y-4.615
X8.25Y-5.01
X8.27Y-3.05
X8.275Y-2.475
X8.275Y-3.475
X8.275Y-4.69
X8.275Y-4.79
X8.275Y-5.39
X8.275Y-5.49
X8.275Y-5.59
X8.275Y-5.69
X8.275Y-5.79
X8.29Y-1.575
X8.29Y-1.675
X8.29Y-1.775
X8.29Y-1.875
X8.29Y-4.06
X8.3Y-3.69
X8.3Y-4.54
X8.3Y-5.27
X8.31Y-3.0811
X8.31Y-3.33
X8.32Y-2.1
X8.325Y-2.425
X8.325Y-3.425
X8.325Y-3.525
X8.325Y-4.74
X8.325Y-5.44
X8.325Y-5.54
X8.325Y-5.64
X8.325Y-5.74
X8.34Y-1.525
X8.34Y-1.625
X8.34Y-1.725
X8.34Y-1.825
X8.35Y-3.64
X8.35Y-4.615
X8.375Y-2.7
X8.375Y-2.8
X8.375Y-3.475
X8.375Y-4.69
X8.375Y-4.79
X8.375Y-5.39
X8.375Y-5.69
X8.375Y-5.79
X8.39Y-1.575
X8.39Y-1.675
X8.4Y-3.69
X8.41Y-4.87
X8.42Y-2.1
X8.42Y-2.92
X8.42Y-3.9
X8.425Y-2.75
X8.425Y-3.425
X8.425Y-3.525
X8.425Y-4.74
X8.425Y-4.965
X8.425Y-5.34
X8.425Y-5.44
X8.425Y-5.74
X8.4294Y-2.3294
X8.43Y-3.23
X8.44Y-4.05
X8.45Y-3.64
X8.45Y-4.615
X8.45Y-5.09
X8.475Y-2.7
X8.475Y-2.8
X8.475Y-3.475
X8.475Y-4.69
X8.475Y-4.79
X8.475Y-5.39
X8.475Y-5.69
X8.475Y-5.79
X8.5Y-3.03
X8.5Y-3.69
X8.5Y-4.365
X8.51Y-2.19
X8.51Y-2.37
X8.515Y-1.825
X8.525Y-3.425
X8.525Y-3.525
X8.525Y-4.74
X8.525Y-5.34
X8.525Y-5.44
X8.525Y-5.74
X8.55Y-3.64
X8.55Y-4.615
X8.575Y-3.375
X8.575Y-3.475
X8.575Y-4.29
X8.575Y-4.365
X8.575Y-4.69
X8.575Y-4.79
X8.575Y-4.89
X8.575Y-5.39
X8.575Y-5.69
X8.575Y-5.79
X8.59Y-1.53
X8.59Y-1.63
X8.6Y-3.69
X8.62Y-2.04
X8.625Y-2.45
X8.625Y-2.65
X8.625Y-2.75
X8.625Y-3.325
X8.625Y-3.425
X8.625Y-3.525
X8.625Y-4.165
X8.625Y-4.74
X8.625Y-4.84
X8.64Y-1.58
X8.64Y-1.68
X8.64Y-5.25
X8.65Y-3.64
X8.65Y-3.74
X8.65Y-4.215
X8.65Y-4.315
X8.65Y-4.415
X8.65Y-4.615
X8.665Y-2.15
X8.665Y-2.25
X8.67Y-5.5
X8.67Y-5.67
X8.675Y-2.4
X8.675Y-2.7
X8.675Y-2.8
X8.675Y-2.9
X8.675Y-3.275
X8.675Y-3.375
X8.675Y-3.475
X8.675Y-4.69
X8.675Y-4.79
X8.675Y-4.89
X8.68Y-5.31
X8.68Y-5.41
X8.7Y-3.69
X8.7Y-3.79
X8.7Y-4.165
X8.7Y-4.265
X8.7Y-4.365
X8.715Y-2.1
X8.715Y-2.2
X8.72Y-5.36
X8.725Y-2.45
X8.725Y-2.75
X8.725Y-2.85
X8.725Y-3.325
X8.725Y-3.425
X8.725Y-3.525
X8.725Y-4.74
X8.725Y-4.84
X8.73Y-5.25
X8.75Y-3.64
X8.75Y-3.74
X8.75Y-4.215
X8.75Y-4.315
X8.75Y-4.615
X8.765Y-1.575
X8.765Y-2.15
X8.765Y-2.25
X8.77Y-5.31
X8.77Y-5.41
X8.775Y-2.4
X8.775Y-2.7
X8.775Y-2.8
X8.775Y-2.9
X8.775Y-3.275
X8.775Y-3.375
X8.775Y-3.475
X8.775Y-4.69
X8.775Y-4.79
X8.775Y-4.89
X8.79Y-1.875
X8.8Y-3.69
X8.8Y-3.79
X8.8Y-4.165
X8.8Y-4.265
X8.8Y-4.365
X8.815Y-1.525
X8.815Y-1.625
X8.815Y-1.725
X8.815Y-1.825
X8.815Y-2.0
X8.815Y-2.1
X8.815Y-2.2
X8.825Y-2.45
X8.825Y-2.75
X8.825Y-2.85
X8.825Y-3.225
X8.825Y-3.325
X8.825Y-3.425
X8.825Y-3.525
X8.825Y-4.74
X8.825Y-4.84
X8.825Y-4.94
X8.83Y-5.12
X8.84Y-4.06
X8.85Y-3.64
X8.85Y-3.74
X8.85Y-3.84
X8.85Y-4.215
X8.85Y-4.315
X8.85Y-4.615
X8.865Y-1.575
X8.865Y-1.675
X8.865Y-1.775
X8.865Y-1.875
X8.865Y-1.95
X8.865Y-2.05
X8.865Y-2.15
X8.865Y-2.25
X8.87Y-5.41
X8.875Y-2.4
X8.875Y-2.5
X8.875Y-2.6
X8.875Y-2.7
X8.875Y-2.8
X8.875Y-3.0
X8.875Y-3.15
X8.875Y-3.275
X8.875Y-3.375
X8.875Y-3.475
X8.875Y-4.69
X8.875Y-4.79
X8.875Y-4.89
X8.88Y-5.17
X8.89Y-4.02
X8.9Y-3.79
X8.9Y-4.265
X8.9Y-4.365
X8.9Y-4.465
X8.9Y-4.565
X8.915Y-1.525
X8.915Y-1.625
X8.915Y-1.825
X8.915Y-2.0
X8.915Y-2.1
X8.915Y-2.2
X8.92Y-5.48
X8.92Y-5.59
X8.92Y-5.69
X8.925Y-2.45
X8.925Y-2.55
X8.925Y-2.65
X8.925Y-2.75
X8.925Y-3.225
X8.925Y-3.325
X8.925Y-3.425
X8.925Y-3.525
X8.925Y-4.74
X8.925Y-4.84
X8.925Y-4.94
X8.93Y-5.12
X8.94Y-4.06
X8.95Y-3.0
X8.95Y-3.15
X8.95Y-3.74
X8.95Y-3.84
X8.95Y-4.215
X8.95Y-4.315
X8.95Y-4.415
X8.95Y-4.515
X8.95Y-4.615
X8.95Y-4.615
X8.965Y-1.575
X8.965Y-1.875
X8.965Y-2.25
X8.97Y-5.41
X8.97Y-5.53
X8.97Y-5.64
X8.975Y-2.4
X8.975Y-2.5
X8.975Y-2.6
X8.975Y-2.7
X8.975Y-2.8
X8.975Y-3.275
X8.975Y-3.475
X8.975Y-4.69
X8.975Y-4.79
X8.975Y-4.89
X8.98Y-5.17
X9.015Y-1.525
X9.015Y-1.625
X9.015Y-2.2
X9.065Y-1.575
X9.065Y-2.25
X9.115Y-1.525
X9.115Y-1.625
X9.115Y-1.825
X9.115Y-2.2
X9.165Y-1.575
X9.165Y-1.675
X9.165Y-1.775
X9.165Y-1.875
X9.165Y-1.95
X9.165Y-2.15
X9.165Y-2.25
X9.215Y-1.525
X9.215Y-1.625
X9.215Y-1.725
X9.215Y-1.825
X9.215Y-2.0
X9.215Y-2.1
X9.215Y-2.2
X9.265Y-1.95
X9.265Y-2.05
X9.265Y-2.15
X9.265Y-2.25
T2
X5.275Y-4.2266
X5.275Y-4.325
X5.94Y-5.16
X6.0384Y-5.16
X6.05Y-4.2266
X6.05Y-4.325
X5.315Y-5.175
X5.4134Y-5.175
T3
X5.0Y-4.72
X5.0Y-4.82
X5.0Y-4.92
X5.74Y-4.72
X5.74Y-4.82
X5.74Y-4.92
T4
X2.13Y-4.69
X2.13Y-4.79
X2.13Y-4.89
X2.13Y-4.99
X2.13Y-5.09
X2.13Y-5.19
X2.13Y-5.29
X2.13Y-5.39
X2.13Y-5.49
X2.13Y-5.59
X2.13Y-4.11
X2.13Y-4.21
X2.13Y-4.31
X2.13Y-4.41
T5
X7.19Y-4.69
X7.19Y-4.8869
X7.192Y-4.1391
X7.192Y-4.336
X6.615Y-4.69
X6.615Y-4.8869
X6.636Y-4.1431
X6.636Y-4.34
T6
X6.74Y-2.175
X6.74Y-2.705
X6.875Y-2.175
X6.875Y-2.705
X5.44Y-2.2
X5.44Y-2.73
X5.575Y-2.2
X5.575Y-2.73
X1.97Y-1.165
X1.97Y-1.3
X2.5Y-1.165
X2.5Y-1.3
X2.895Y-3.54
X2.895Y-3.675
X3.425Y-3.54
X3.425Y-3.675
X4.165Y-2.2
X4.165Y-2.73
X4.3Y-2.2
X4.3Y-2.73
X7.54Y-3.17
X7.54Y-3.305
X8.07Y-3.17
X8.07Y-3.305
X7.6Y-4.715
X7.6Y-4.85
X8.13Y-4.715
X8.13Y-4.85
X7.55Y-3.715
X7.55Y-3.85
X8.08Y-3.715
X8.08Y-3.85
X8.005Y-2.17
X8.005Y-2.7
X8.14Y-2.17
X8.14Y-2.7
X2.8Y-2.195
X2.8Y-2.725
X2.935Y-2.195
X2.935Y-2.725
T7
X8.455Y-4.485
X8.765Y-4.485
X8.445Y-2.57
X8.755Y-2.57
X8.48Y-5.565
X8.79Y-5.565
X6.475Y-1.75
X6.475Y-2.06
X7.75Y-1.75
X7.75Y-2.06
X2.22Y-2.225
X2.53Y-2.225
X3.875Y-1.75
X3.875Y-2.06
X2.195Y-2.875
X2.505Y-2.875
X9.02Y-1.745
X9.02Y-2.055
X5.175Y-1.75
X5.175Y-2.06
T8
X7.635Y-5.625
X6.835Y-5.625
T0
M30
