%TF.GenerationSoftware,KiCad,Pcbnew,(5.1.6)-1*%
%TF.CreationDate,2020-11-27T16:41:01-06:00*%
%TF.ProjectId,PackVoltage_2021_Rev1,5061636b-566f-46c7-9461-67655f323032,rev?*%
%TF.SameCoordinates,Original*%
%TF.FileFunction,Soldermask,Top*%
%TF.FilePolarity,Negative*%
%FSLAX46Y46*%
G04 Gerber Fmt 4.6, Leading zero omitted, Abs format (unit mm)*
G04 Created by KiCad (PCBNEW (5.1.6)-1) date 2020-11-27 16:41:01*
%MOMM*%
%LPD*%
G01*
G04 APERTURE LIST*
%ADD10C,2.919400*%
%ADD11C,3.046400*%
%ADD12R,1.090600X1.878000*%
%ADD13C,1.624000*%
%ADD14C,3.550000*%
%ADD15C,1.700000*%
%ADD16R,1.700000X1.700000*%
%ADD17R,0.750000X1.660000*%
%ADD18R,1.650000X0.700000*%
%ADD19R,4.700000X1.200000*%
%ADD20R,9.499999X10.900001*%
%ADD21R,10.900001X9.499999*%
%ADD22R,1.200000X4.700000*%
%ADD23R,0.840000X1.290000*%
%ADD24C,0.100000*%
%ADD25R,1.290000X0.840000*%
%ADD26C,2.500000*%
%ADD27R,2.500000X2.500000*%
%ADD28C,5.180000*%
%ADD29C,18.388000*%
%ADD30R,1.660000X0.750000*%
%ADD31R,0.700000X1.650000*%
G04 APERTURE END LIST*
D10*
%TO.C,F10*%
X205232000Y-97790000D03*
X205232000Y-94361000D03*
X191770000Y-94361000D03*
X191770000Y-97790000D03*
%TD*%
D11*
%TO.C,REF\u002A\u002A*%
X42219880Y-149550120D03*
%TD*%
%TO.C,REF\u002A\u002A*%
X42219880Y-30789880D03*
%TD*%
%TO.C,REF\u002A\u002A*%
X237180120Y-30789880D03*
%TD*%
%TO.C,REF\u002A\u002A*%
X237180120Y-149550120D03*
%TD*%
D12*
%TO.C,U24*%
X137795000Y-146456400D03*
X140335000Y-146456400D03*
X142875000Y-146456400D03*
X145415000Y-146456400D03*
X147955000Y-146456400D03*
X150495000Y-146456400D03*
X153035000Y-146456400D03*
X155575000Y-146456400D03*
X158115000Y-146456400D03*
X160655000Y-146456400D03*
X137795000Y-140563600D03*
X140335000Y-140563600D03*
X142875000Y-140563600D03*
X145415000Y-140563600D03*
X147955000Y-140563600D03*
X150495000Y-140563600D03*
X153035000Y-140563600D03*
X155575000Y-140563600D03*
X158115000Y-140563600D03*
X160655000Y-140563600D03*
X137795000Y-97383600D03*
X140335000Y-97383600D03*
X142875000Y-97383600D03*
X145415000Y-97383600D03*
X147955000Y-97383600D03*
X150495000Y-97383600D03*
X153035000Y-97383600D03*
X155575000Y-97383600D03*
X158115000Y-97383600D03*
X160655000Y-97383600D03*
X137795000Y-103276400D03*
X140335000Y-103276400D03*
X142875000Y-103276400D03*
X145415000Y-103276400D03*
X147955000Y-103276400D03*
X150495000Y-103276400D03*
X153035000Y-103276400D03*
X155575000Y-103276400D03*
X158115000Y-103276400D03*
X160655000Y-103276400D03*
X92075000Y-146456400D03*
X94615000Y-146456400D03*
X97155000Y-146456400D03*
X74295000Y-140563600D03*
X76835000Y-140563600D03*
X79375000Y-140563600D03*
X81915000Y-140563600D03*
X84455000Y-140563600D03*
X86995000Y-140563600D03*
X89535000Y-140563600D03*
X92075000Y-140563600D03*
X94615000Y-140563600D03*
X97155000Y-140563600D03*
X74295000Y-97383600D03*
X79375000Y-97383600D03*
X84455000Y-97383600D03*
X86995000Y-97383600D03*
X89535000Y-97383600D03*
X92075000Y-97383600D03*
X94615000Y-97383600D03*
X74295000Y-103276400D03*
X79375000Y-103276400D03*
X89535000Y-103276400D03*
X92075000Y-103276400D03*
X94615000Y-103276400D03*
X97155000Y-103276400D03*
X84455000Y-103276400D03*
X81915000Y-103276400D03*
X76835000Y-97383600D03*
X89535000Y-146456400D03*
X86995000Y-146456400D03*
X76835000Y-103276400D03*
X81915000Y-97383600D03*
X79375000Y-146456400D03*
X81915000Y-146456400D03*
X86995000Y-103276400D03*
X84455000Y-146456400D03*
X76835000Y-146456400D03*
X74295000Y-146456400D03*
X97155000Y-97383600D03*
%TD*%
D13*
%TO.C,U13*%
X145796000Y-124968000D03*
X145796000Y-122428000D03*
X145796000Y-119888000D03*
%TD*%
%TO.C,U12*%
X127000000Y-124968000D03*
X127000000Y-122428000D03*
X127000000Y-119888000D03*
%TD*%
D14*
%TO.C,Conn6*%
X45466000Y-113284000D03*
X45466000Y-103124000D03*
D13*
X54102000Y-112014000D03*
X54102000Y-109474000D03*
X54102000Y-106934000D03*
X54102000Y-104394000D03*
%TD*%
%TO.C,Conn5*%
X54102000Y-141986000D03*
X54102000Y-139446000D03*
X54102000Y-136906000D03*
X54102000Y-134366000D03*
X54102000Y-131826000D03*
D14*
X45466000Y-143256000D03*
X45466000Y-117856000D03*
D13*
X54102000Y-129286000D03*
X54102000Y-126746000D03*
X54102000Y-124206000D03*
X54102000Y-121666000D03*
X54102000Y-119126000D03*
%TD*%
D15*
%TO.C,C32*%
X153376000Y-131064000D03*
D16*
X150876000Y-131064000D03*
%TD*%
D15*
%TO.C,C31*%
X137501000Y-131445000D03*
D16*
X135001000Y-131445000D03*
%TD*%
D15*
%TO.C,C17*%
X153670000Y-107355000D03*
D16*
X153670000Y-109855000D03*
%TD*%
D15*
%TO.C,C16*%
X133985000Y-107355000D03*
D16*
X133985000Y-109855000D03*
%TD*%
D17*
%TO.C,U17*%
X46903600Y-81454000D03*
X48803600Y-81454000D03*
X48803600Y-84154000D03*
X47853600Y-84154000D03*
X46903600Y-84154000D03*
%TD*%
D18*
%TO.C,U14*%
X60850800Y-91059000D03*
X60850800Y-88519000D03*
X60850800Y-87249000D03*
X66250800Y-87249000D03*
X66250800Y-88519000D03*
X66250800Y-89789000D03*
X66250800Y-91059000D03*
%TD*%
D19*
%TO.C,R31*%
X226635000Y-100711000D03*
X226635000Y-105791000D03*
D20*
X235785000Y-103251000D03*
%TD*%
%TO.C,R24*%
X63674600Y-45821600D03*
D19*
X54524600Y-48361600D03*
X54524600Y-43281600D03*
%TD*%
%TO.C,R23*%
X226635000Y-128651000D03*
X226635000Y-133731000D03*
D20*
X235785000Y-131191000D03*
%TD*%
%TO.C,R15*%
G36*
G01*
X217415500Y-57083000D02*
X217940500Y-57083000D01*
G75*
G02*
X218203000Y-57345500I0J-262500D01*
G01*
X218203000Y-57970500D01*
G75*
G02*
X217940500Y-58233000I-262500J0D01*
G01*
X217415500Y-58233000D01*
G75*
G02*
X217153000Y-57970500I0J262500D01*
G01*
X217153000Y-57345500D01*
G75*
G02*
X217415500Y-57083000I262500J0D01*
G01*
G37*
G36*
G01*
X217415500Y-55333000D02*
X217940500Y-55333000D01*
G75*
G02*
X218203000Y-55595500I0J-262500D01*
G01*
X218203000Y-56220500D01*
G75*
G02*
X217940500Y-56483000I-262500J0D01*
G01*
X217415500Y-56483000D01*
G75*
G02*
X217153000Y-56220500I0J262500D01*
G01*
X217153000Y-55595500D01*
G75*
G02*
X217415500Y-55333000I262500J0D01*
G01*
G37*
%TD*%
D21*
%TO.C,R13*%
X218948000Y-31865000D03*
D22*
X221488000Y-41015000D03*
X216408000Y-41015000D03*
%TD*%
%TO.C,R11*%
G36*
G01*
X214916000Y-58047500D02*
X214916000Y-57522500D01*
G75*
G02*
X215178500Y-57260000I262500J0D01*
G01*
X215803500Y-57260000D01*
G75*
G02*
X216066000Y-57522500I0J-262500D01*
G01*
X216066000Y-58047500D01*
G75*
G02*
X215803500Y-58310000I-262500J0D01*
G01*
X215178500Y-58310000D01*
G75*
G02*
X214916000Y-58047500I0J262500D01*
G01*
G37*
G36*
G01*
X213166000Y-58047500D02*
X213166000Y-57522500D01*
G75*
G02*
X213428500Y-57260000I262500J0D01*
G01*
X214053500Y-57260000D01*
G75*
G02*
X214316000Y-57522500I0J-262500D01*
G01*
X214316000Y-58047500D01*
G75*
G02*
X214053500Y-58310000I-262500J0D01*
G01*
X213428500Y-58310000D01*
G75*
G02*
X213166000Y-58047500I0J262500D01*
G01*
G37*
%TD*%
D23*
%TO.C,Q10*%
X221620000Y-97695000D03*
X222890000Y-97695000D03*
X220340000Y-97695000D03*
X219070000Y-97695000D03*
D24*
G36*
X223398655Y-103953656D02*
G01*
X223394672Y-103966788D01*
X223388203Y-103978890D01*
X223379497Y-103989497D01*
X223368890Y-103998203D01*
X223356788Y-104004672D01*
X223343656Y-104008655D01*
X223330000Y-104010000D01*
X218630000Y-104010000D01*
X218616344Y-104008655D01*
X218603212Y-104004672D01*
X218591110Y-103998203D01*
X218580503Y-103989497D01*
X218571797Y-103978890D01*
X218565328Y-103966788D01*
X218561345Y-103953656D01*
X218560000Y-103940000D01*
X218560000Y-102390000D01*
X218561345Y-102376344D01*
X218565328Y-102363212D01*
X218571797Y-102351110D01*
X218580503Y-102340503D01*
X218591110Y-102331797D01*
X218603212Y-102325328D01*
X218616344Y-102321345D01*
X218630000Y-102320000D01*
X218810000Y-102320000D01*
X218810000Y-99315000D01*
X218811345Y-99301344D01*
X218815328Y-99288212D01*
X218821797Y-99276110D01*
X218830503Y-99265503D01*
X218841110Y-99256797D01*
X218853212Y-99250328D01*
X218866344Y-99246345D01*
X218880000Y-99245000D01*
X223080000Y-99245000D01*
X223093656Y-99246345D01*
X223106788Y-99250328D01*
X223118890Y-99256797D01*
X223129497Y-99265503D01*
X223138203Y-99276110D01*
X223144672Y-99288212D01*
X223148655Y-99301344D01*
X223150000Y-99315000D01*
X223150000Y-102320000D01*
X223330000Y-102320000D01*
X223343656Y-102321345D01*
X223356788Y-102325328D01*
X223368890Y-102331797D01*
X223379497Y-102340503D01*
X223388203Y-102351110D01*
X223394672Y-102363212D01*
X223398655Y-102376344D01*
X223400000Y-102390000D01*
X223400000Y-103940000D01*
X223398655Y-103953656D01*
G37*
%TD*%
D23*
%TO.C,Q7*%
X221620000Y-125381000D03*
X222890000Y-125381000D03*
X220340000Y-125381000D03*
X219070000Y-125381000D03*
D24*
G36*
X223398655Y-131639656D02*
G01*
X223394672Y-131652788D01*
X223388203Y-131664890D01*
X223379497Y-131675497D01*
X223368890Y-131684203D01*
X223356788Y-131690672D01*
X223343656Y-131694655D01*
X223330000Y-131696000D01*
X218630000Y-131696000D01*
X218616344Y-131694655D01*
X218603212Y-131690672D01*
X218591110Y-131684203D01*
X218580503Y-131675497D01*
X218571797Y-131664890D01*
X218565328Y-131652788D01*
X218561345Y-131639656D01*
X218560000Y-131626000D01*
X218560000Y-130076000D01*
X218561345Y-130062344D01*
X218565328Y-130049212D01*
X218571797Y-130037110D01*
X218580503Y-130026503D01*
X218591110Y-130017797D01*
X218603212Y-130011328D01*
X218616344Y-130007345D01*
X218630000Y-130006000D01*
X218810000Y-130006000D01*
X218810000Y-127001000D01*
X218811345Y-126987344D01*
X218815328Y-126974212D01*
X218821797Y-126962110D01*
X218830503Y-126951503D01*
X218841110Y-126942797D01*
X218853212Y-126936328D01*
X218866344Y-126932345D01*
X218880000Y-126931000D01*
X223080000Y-126931000D01*
X223093656Y-126932345D01*
X223106788Y-126936328D01*
X223118890Y-126942797D01*
X223129497Y-126951503D01*
X223138203Y-126962110D01*
X223144672Y-126974212D01*
X223148655Y-126987344D01*
X223150000Y-127001000D01*
X223150000Y-130006000D01*
X223330000Y-130006000D01*
X223343656Y-130007345D01*
X223356788Y-130011328D01*
X223368890Y-130017797D01*
X223379497Y-130026503D01*
X223388203Y-130037110D01*
X223394672Y-130049212D01*
X223398655Y-130062344D01*
X223400000Y-130076000D01*
X223400000Y-131626000D01*
X223398655Y-131639656D01*
G37*
%TD*%
%TO.C,Q6*%
G36*
X54020145Y-84409544D02*
G01*
X54024128Y-84396412D01*
X54030597Y-84384310D01*
X54039303Y-84373703D01*
X54049910Y-84364997D01*
X54062012Y-84358528D01*
X54075144Y-84354545D01*
X54088800Y-84353200D01*
X58788800Y-84353200D01*
X58802456Y-84354545D01*
X58815588Y-84358528D01*
X58827690Y-84364997D01*
X58838297Y-84373703D01*
X58847003Y-84384310D01*
X58853472Y-84396412D01*
X58857455Y-84409544D01*
X58858800Y-84423200D01*
X58858800Y-85973200D01*
X58857455Y-85986856D01*
X58853472Y-85999988D01*
X58847003Y-86012090D01*
X58838297Y-86022697D01*
X58827690Y-86031403D01*
X58815588Y-86037872D01*
X58802456Y-86041855D01*
X58788800Y-86043200D01*
X58608800Y-86043200D01*
X58608800Y-89048200D01*
X58607455Y-89061856D01*
X58603472Y-89074988D01*
X58597003Y-89087090D01*
X58588297Y-89097697D01*
X58577690Y-89106403D01*
X58565588Y-89112872D01*
X58552456Y-89116855D01*
X58538800Y-89118200D01*
X54338800Y-89118200D01*
X54325144Y-89116855D01*
X54312012Y-89112872D01*
X54299910Y-89106403D01*
X54289303Y-89097697D01*
X54280597Y-89087090D01*
X54274128Y-89074988D01*
X54270145Y-89061856D01*
X54268800Y-89048200D01*
X54268800Y-86043200D01*
X54088800Y-86043200D01*
X54075144Y-86041855D01*
X54062012Y-86037872D01*
X54049910Y-86031403D01*
X54039303Y-86022697D01*
X54030597Y-86012090D01*
X54024128Y-85999988D01*
X54020145Y-85986856D01*
X54018800Y-85973200D01*
X54018800Y-84423200D01*
X54020145Y-84409544D01*
G37*
D23*
X58348800Y-90668200D03*
X57078800Y-90668200D03*
X54528800Y-90668200D03*
X55798800Y-90668200D03*
%TD*%
D24*
%TO.C,Q5*%
G36*
X219269656Y-43936345D02*
G01*
X219282788Y-43940328D01*
X219294890Y-43946797D01*
X219305497Y-43955503D01*
X219314203Y-43966110D01*
X219320672Y-43978212D01*
X219324655Y-43991344D01*
X219326000Y-44005000D01*
X219326000Y-48705000D01*
X219324655Y-48718656D01*
X219320672Y-48731788D01*
X219314203Y-48743890D01*
X219305497Y-48754497D01*
X219294890Y-48763203D01*
X219282788Y-48769672D01*
X219269656Y-48773655D01*
X219256000Y-48775000D01*
X217706000Y-48775000D01*
X217692344Y-48773655D01*
X217679212Y-48769672D01*
X217667110Y-48763203D01*
X217656503Y-48754497D01*
X217647797Y-48743890D01*
X217641328Y-48731788D01*
X217637345Y-48718656D01*
X217636000Y-48705000D01*
X217636000Y-48525000D01*
X214631000Y-48525000D01*
X214617344Y-48523655D01*
X214604212Y-48519672D01*
X214592110Y-48513203D01*
X214581503Y-48504497D01*
X214572797Y-48493890D01*
X214566328Y-48481788D01*
X214562345Y-48468656D01*
X214561000Y-48455000D01*
X214561000Y-44255000D01*
X214562345Y-44241344D01*
X214566328Y-44228212D01*
X214572797Y-44216110D01*
X214581503Y-44205503D01*
X214592110Y-44196797D01*
X214604212Y-44190328D01*
X214617344Y-44186345D01*
X214631000Y-44185000D01*
X217636000Y-44185000D01*
X217636000Y-44005000D01*
X217637345Y-43991344D01*
X217641328Y-43978212D01*
X217647797Y-43966110D01*
X217656503Y-43955503D01*
X217667110Y-43946797D01*
X217679212Y-43940328D01*
X217692344Y-43936345D01*
X217706000Y-43935000D01*
X219256000Y-43935000D01*
X219269656Y-43936345D01*
G37*
D25*
X213011000Y-48265000D03*
X213011000Y-46995000D03*
X213011000Y-44445000D03*
X213011000Y-45715000D03*
%TD*%
%TO.C,D7*%
G36*
G01*
X175898500Y-90098000D02*
X175898500Y-90623000D01*
G75*
G02*
X175636000Y-90885500I-262500J0D01*
G01*
X175011000Y-90885500D01*
G75*
G02*
X174748500Y-90623000I0J262500D01*
G01*
X174748500Y-90098000D01*
G75*
G02*
X175011000Y-89835500I262500J0D01*
G01*
X175636000Y-89835500D01*
G75*
G02*
X175898500Y-90098000I0J-262500D01*
G01*
G37*
G36*
G01*
X177648500Y-90098000D02*
X177648500Y-90623000D01*
G75*
G02*
X177386000Y-90885500I-262500J0D01*
G01*
X176761000Y-90885500D01*
G75*
G02*
X176498500Y-90623000I0J262500D01*
G01*
X176498500Y-90098000D01*
G75*
G02*
X176761000Y-89835500I262500J0D01*
G01*
X177386000Y-89835500D01*
G75*
G02*
X177648500Y-90098000I0J-262500D01*
G01*
G37*
%TD*%
%TO.C,C14*%
G36*
G01*
X209160500Y-52038500D02*
X209685500Y-52038500D01*
G75*
G02*
X209948000Y-52301000I0J-262500D01*
G01*
X209948000Y-52926000D01*
G75*
G02*
X209685500Y-53188500I-262500J0D01*
G01*
X209160500Y-53188500D01*
G75*
G02*
X208898000Y-52926000I0J262500D01*
G01*
X208898000Y-52301000D01*
G75*
G02*
X209160500Y-52038500I262500J0D01*
G01*
G37*
G36*
G01*
X209160500Y-50288500D02*
X209685500Y-50288500D01*
G75*
G02*
X209948000Y-50551000I0J-262500D01*
G01*
X209948000Y-51176000D01*
G75*
G02*
X209685500Y-51438500I-262500J0D01*
G01*
X209160500Y-51438500D01*
G75*
G02*
X208898000Y-51176000I0J262500D01*
G01*
X208898000Y-50551000D01*
G75*
G02*
X209160500Y-50288500I262500J0D01*
G01*
G37*
%TD*%
%TO.C,C12*%
G36*
G01*
X210266000Y-57522500D02*
X210266000Y-58047500D01*
G75*
G02*
X210003500Y-58310000I-262500J0D01*
G01*
X209378500Y-58310000D01*
G75*
G02*
X209116000Y-58047500I0J262500D01*
G01*
X209116000Y-57522500D01*
G75*
G02*
X209378500Y-57260000I262500J0D01*
G01*
X210003500Y-57260000D01*
G75*
G02*
X210266000Y-57522500I0J-262500D01*
G01*
G37*
G36*
G01*
X212016000Y-57522500D02*
X212016000Y-58047500D01*
G75*
G02*
X211753500Y-58310000I-262500J0D01*
G01*
X211128500Y-58310000D01*
G75*
G02*
X210866000Y-58047500I0J262500D01*
G01*
X210866000Y-57522500D01*
G75*
G02*
X211128500Y-57260000I262500J0D01*
G01*
X211753500Y-57260000D01*
G75*
G02*
X212016000Y-57522500I0J-262500D01*
G01*
G37*
%TD*%
D24*
%TO.C,Q4*%
G36*
X187138656Y-43301345D02*
G01*
X187151788Y-43305328D01*
X187163890Y-43311797D01*
X187174497Y-43320503D01*
X187183203Y-43331110D01*
X187189672Y-43343212D01*
X187193655Y-43356344D01*
X187195000Y-43370000D01*
X187195000Y-48070000D01*
X187193655Y-48083656D01*
X187189672Y-48096788D01*
X187183203Y-48108890D01*
X187174497Y-48119497D01*
X187163890Y-48128203D01*
X187151788Y-48134672D01*
X187138656Y-48138655D01*
X187125000Y-48140000D01*
X185575000Y-48140000D01*
X185561344Y-48138655D01*
X185548212Y-48134672D01*
X185536110Y-48128203D01*
X185525503Y-48119497D01*
X185516797Y-48108890D01*
X185510328Y-48096788D01*
X185506345Y-48083656D01*
X185505000Y-48070000D01*
X185505000Y-47890000D01*
X182500000Y-47890000D01*
X182486344Y-47888655D01*
X182473212Y-47884672D01*
X182461110Y-47878203D01*
X182450503Y-47869497D01*
X182441797Y-47858890D01*
X182435328Y-47846788D01*
X182431345Y-47833656D01*
X182430000Y-47820000D01*
X182430000Y-43620000D01*
X182431345Y-43606344D01*
X182435328Y-43593212D01*
X182441797Y-43581110D01*
X182450503Y-43570503D01*
X182461110Y-43561797D01*
X182473212Y-43555328D01*
X182486344Y-43551345D01*
X182500000Y-43550000D01*
X185505000Y-43550000D01*
X185505000Y-43370000D01*
X185506345Y-43356344D01*
X185510328Y-43343212D01*
X185516797Y-43331110D01*
X185525503Y-43320503D01*
X185536110Y-43311797D01*
X185548212Y-43305328D01*
X185561344Y-43301345D01*
X185575000Y-43300000D01*
X187125000Y-43300000D01*
X187138656Y-43301345D01*
G37*
D25*
X180880000Y-47630000D03*
X180880000Y-46360000D03*
X180880000Y-43810000D03*
X180880000Y-45080000D03*
%TD*%
D24*
%TO.C,Q3*%
G36*
X88078656Y-43301345D02*
G01*
X88091788Y-43305328D01*
X88103890Y-43311797D01*
X88114497Y-43320503D01*
X88123203Y-43331110D01*
X88129672Y-43343212D01*
X88133655Y-43356344D01*
X88135000Y-43370000D01*
X88135000Y-48070000D01*
X88133655Y-48083656D01*
X88129672Y-48096788D01*
X88123203Y-48108890D01*
X88114497Y-48119497D01*
X88103890Y-48128203D01*
X88091788Y-48134672D01*
X88078656Y-48138655D01*
X88065000Y-48140000D01*
X86515000Y-48140000D01*
X86501344Y-48138655D01*
X86488212Y-48134672D01*
X86476110Y-48128203D01*
X86465503Y-48119497D01*
X86456797Y-48108890D01*
X86450328Y-48096788D01*
X86446345Y-48083656D01*
X86445000Y-48070000D01*
X86445000Y-47890000D01*
X83440000Y-47890000D01*
X83426344Y-47888655D01*
X83413212Y-47884672D01*
X83401110Y-47878203D01*
X83390503Y-47869497D01*
X83381797Y-47858890D01*
X83375328Y-47846788D01*
X83371345Y-47833656D01*
X83370000Y-47820000D01*
X83370000Y-43620000D01*
X83371345Y-43606344D01*
X83375328Y-43593212D01*
X83381797Y-43581110D01*
X83390503Y-43570503D01*
X83401110Y-43561797D01*
X83413212Y-43555328D01*
X83426344Y-43551345D01*
X83440000Y-43550000D01*
X86445000Y-43550000D01*
X86445000Y-43370000D01*
X86446345Y-43356344D01*
X86450328Y-43343212D01*
X86456797Y-43331110D01*
X86465503Y-43320503D01*
X86476110Y-43311797D01*
X86488212Y-43305328D01*
X86501344Y-43301345D01*
X86515000Y-43300000D01*
X88065000Y-43300000D01*
X88078656Y-43301345D01*
G37*
D25*
X81820000Y-47630000D03*
X81820000Y-46360000D03*
X81820000Y-43810000D03*
X81820000Y-45080000D03*
%TD*%
D24*
%TO.C,Q1*%
G36*
X121098656Y-43301345D02*
G01*
X121111788Y-43305328D01*
X121123890Y-43311797D01*
X121134497Y-43320503D01*
X121143203Y-43331110D01*
X121149672Y-43343212D01*
X121153655Y-43356344D01*
X121155000Y-43370000D01*
X121155000Y-48070000D01*
X121153655Y-48083656D01*
X121149672Y-48096788D01*
X121143203Y-48108890D01*
X121134497Y-48119497D01*
X121123890Y-48128203D01*
X121111788Y-48134672D01*
X121098656Y-48138655D01*
X121085000Y-48140000D01*
X119535000Y-48140000D01*
X119521344Y-48138655D01*
X119508212Y-48134672D01*
X119496110Y-48128203D01*
X119485503Y-48119497D01*
X119476797Y-48108890D01*
X119470328Y-48096788D01*
X119466345Y-48083656D01*
X119465000Y-48070000D01*
X119465000Y-47890000D01*
X116460000Y-47890000D01*
X116446344Y-47888655D01*
X116433212Y-47884672D01*
X116421110Y-47878203D01*
X116410503Y-47869497D01*
X116401797Y-47858890D01*
X116395328Y-47846788D01*
X116391345Y-47833656D01*
X116390000Y-47820000D01*
X116390000Y-43620000D01*
X116391345Y-43606344D01*
X116395328Y-43593212D01*
X116401797Y-43581110D01*
X116410503Y-43570503D01*
X116421110Y-43561797D01*
X116433212Y-43555328D01*
X116446344Y-43551345D01*
X116460000Y-43550000D01*
X119465000Y-43550000D01*
X119465000Y-43370000D01*
X119466345Y-43356344D01*
X119470328Y-43343212D01*
X119476797Y-43331110D01*
X119485503Y-43320503D01*
X119496110Y-43311797D01*
X119508212Y-43305328D01*
X119521344Y-43301345D01*
X119535000Y-43300000D01*
X121085000Y-43300000D01*
X121098656Y-43301345D01*
G37*
D25*
X114840000Y-47630000D03*
X114840000Y-46360000D03*
X114840000Y-43810000D03*
X114840000Y-45080000D03*
%TD*%
D24*
%TO.C,Q2*%
G36*
X154118656Y-43301345D02*
G01*
X154131788Y-43305328D01*
X154143890Y-43311797D01*
X154154497Y-43320503D01*
X154163203Y-43331110D01*
X154169672Y-43343212D01*
X154173655Y-43356344D01*
X154175000Y-43370000D01*
X154175000Y-48070000D01*
X154173655Y-48083656D01*
X154169672Y-48096788D01*
X154163203Y-48108890D01*
X154154497Y-48119497D01*
X154143890Y-48128203D01*
X154131788Y-48134672D01*
X154118656Y-48138655D01*
X154105000Y-48140000D01*
X152555000Y-48140000D01*
X152541344Y-48138655D01*
X152528212Y-48134672D01*
X152516110Y-48128203D01*
X152505503Y-48119497D01*
X152496797Y-48108890D01*
X152490328Y-48096788D01*
X152486345Y-48083656D01*
X152485000Y-48070000D01*
X152485000Y-47890000D01*
X149480000Y-47890000D01*
X149466344Y-47888655D01*
X149453212Y-47884672D01*
X149441110Y-47878203D01*
X149430503Y-47869497D01*
X149421797Y-47858890D01*
X149415328Y-47846788D01*
X149411345Y-47833656D01*
X149410000Y-47820000D01*
X149410000Y-43620000D01*
X149411345Y-43606344D01*
X149415328Y-43593212D01*
X149421797Y-43581110D01*
X149430503Y-43570503D01*
X149441110Y-43561797D01*
X149453212Y-43555328D01*
X149466344Y-43551345D01*
X149480000Y-43550000D01*
X152485000Y-43550000D01*
X152485000Y-43370000D01*
X152486345Y-43356344D01*
X152490328Y-43343212D01*
X152496797Y-43331110D01*
X152505503Y-43320503D01*
X152516110Y-43311797D01*
X152528212Y-43305328D01*
X152541344Y-43301345D01*
X152555000Y-43300000D01*
X154105000Y-43300000D01*
X154118656Y-43301345D01*
G37*
D25*
X147860000Y-47630000D03*
X147860000Y-46360000D03*
X147860000Y-43810000D03*
X147860000Y-45080000D03*
%TD*%
%TO.C,D18*%
G36*
G01*
X175849000Y-93082500D02*
X175849000Y-93607500D01*
G75*
G02*
X175586500Y-93870000I-262500J0D01*
G01*
X174961500Y-93870000D01*
G75*
G02*
X174699000Y-93607500I0J262500D01*
G01*
X174699000Y-93082500D01*
G75*
G02*
X174961500Y-92820000I262500J0D01*
G01*
X175586500Y-92820000D01*
G75*
G02*
X175849000Y-93082500I0J-262500D01*
G01*
G37*
G36*
G01*
X177599000Y-93082500D02*
X177599000Y-93607500D01*
G75*
G02*
X177336500Y-93870000I-262500J0D01*
G01*
X176711500Y-93870000D01*
G75*
G02*
X176449000Y-93607500I0J262500D01*
G01*
X176449000Y-93082500D01*
G75*
G02*
X176711500Y-92820000I262500J0D01*
G01*
X177336500Y-92820000D01*
G75*
G02*
X177599000Y-93082500I0J-262500D01*
G01*
G37*
%TD*%
%TO.C,D16*%
G36*
G01*
X180880000Y-81669500D02*
X180880000Y-81144500D01*
G75*
G02*
X181142500Y-80882000I262500J0D01*
G01*
X181767500Y-80882000D01*
G75*
G02*
X182030000Y-81144500I0J-262500D01*
G01*
X182030000Y-81669500D01*
G75*
G02*
X181767500Y-81932000I-262500J0D01*
G01*
X181142500Y-81932000D01*
G75*
G02*
X180880000Y-81669500I0J262500D01*
G01*
G37*
G36*
G01*
X179130000Y-81669500D02*
X179130000Y-81144500D01*
G75*
G02*
X179392500Y-80882000I262500J0D01*
G01*
X180017500Y-80882000D01*
G75*
G02*
X180280000Y-81144500I0J-262500D01*
G01*
X180280000Y-81669500D01*
G75*
G02*
X180017500Y-81932000I-262500J0D01*
G01*
X179392500Y-81932000D01*
G75*
G02*
X179130000Y-81669500I0J262500D01*
G01*
G37*
%TD*%
%TO.C,D15*%
G36*
G01*
X180880000Y-93607500D02*
X180880000Y-93082500D01*
G75*
G02*
X181142500Y-92820000I262500J0D01*
G01*
X181767500Y-92820000D01*
G75*
G02*
X182030000Y-93082500I0J-262500D01*
G01*
X182030000Y-93607500D01*
G75*
G02*
X181767500Y-93870000I-262500J0D01*
G01*
X181142500Y-93870000D01*
G75*
G02*
X180880000Y-93607500I0J262500D01*
G01*
G37*
G36*
G01*
X179130000Y-93607500D02*
X179130000Y-93082500D01*
G75*
G02*
X179392500Y-92820000I262500J0D01*
G01*
X180017500Y-92820000D01*
G75*
G02*
X180280000Y-93082500I0J-262500D01*
G01*
X180280000Y-93607500D01*
G75*
G02*
X180017500Y-93870000I-262500J0D01*
G01*
X179392500Y-93870000D01*
G75*
G02*
X179130000Y-93607500I0J262500D01*
G01*
G37*
%TD*%
%TO.C,D14*%
G36*
G01*
X175912500Y-81144500D02*
X175912500Y-81669500D01*
G75*
G02*
X175650000Y-81932000I-262500J0D01*
G01*
X175025000Y-81932000D01*
G75*
G02*
X174762500Y-81669500I0J262500D01*
G01*
X174762500Y-81144500D01*
G75*
G02*
X175025000Y-80882000I262500J0D01*
G01*
X175650000Y-80882000D01*
G75*
G02*
X175912500Y-81144500I0J-262500D01*
G01*
G37*
G36*
G01*
X177662500Y-81144500D02*
X177662500Y-81669500D01*
G75*
G02*
X177400000Y-81932000I-262500J0D01*
G01*
X176775000Y-81932000D01*
G75*
G02*
X176512500Y-81669500I0J262500D01*
G01*
X176512500Y-81144500D01*
G75*
G02*
X176775000Y-80882000I262500J0D01*
G01*
X177400000Y-80882000D01*
G75*
G02*
X177662500Y-81144500I0J-262500D01*
G01*
G37*
%TD*%
%TO.C,D13*%
G36*
G01*
X167911500Y-89336000D02*
X167911500Y-89861000D01*
G75*
G02*
X167649000Y-90123500I-262500J0D01*
G01*
X167024000Y-90123500D01*
G75*
G02*
X166761500Y-89861000I0J262500D01*
G01*
X166761500Y-89336000D01*
G75*
G02*
X167024000Y-89073500I262500J0D01*
G01*
X167649000Y-89073500D01*
G75*
G02*
X167911500Y-89336000I0J-262500D01*
G01*
G37*
G36*
G01*
X169661500Y-89336000D02*
X169661500Y-89861000D01*
G75*
G02*
X169399000Y-90123500I-262500J0D01*
G01*
X168774000Y-90123500D01*
G75*
G02*
X168511500Y-89861000I0J262500D01*
G01*
X168511500Y-89336000D01*
G75*
G02*
X168774000Y-89073500I262500J0D01*
G01*
X169399000Y-89073500D01*
G75*
G02*
X169661500Y-89336000I0J-262500D01*
G01*
G37*
%TD*%
%TO.C,D12*%
G36*
G01*
X167834000Y-85018000D02*
X167834000Y-85543000D01*
G75*
G02*
X167571500Y-85805500I-262500J0D01*
G01*
X166946500Y-85805500D01*
G75*
G02*
X166684000Y-85543000I0J262500D01*
G01*
X166684000Y-85018000D01*
G75*
G02*
X166946500Y-84755500I262500J0D01*
G01*
X167571500Y-84755500D01*
G75*
G02*
X167834000Y-85018000I0J-262500D01*
G01*
G37*
G36*
G01*
X169584000Y-85018000D02*
X169584000Y-85543000D01*
G75*
G02*
X169321500Y-85805500I-262500J0D01*
G01*
X168696500Y-85805500D01*
G75*
G02*
X168434000Y-85543000I0J262500D01*
G01*
X168434000Y-85018000D01*
G75*
G02*
X168696500Y-84755500I262500J0D01*
G01*
X169321500Y-84755500D01*
G75*
G02*
X169584000Y-85018000I0J-262500D01*
G01*
G37*
%TD*%
%TO.C,D2*%
G36*
G01*
X200452000Y-117102500D02*
X200452000Y-116577500D01*
G75*
G02*
X200714500Y-116315000I262500J0D01*
G01*
X201339500Y-116315000D01*
G75*
G02*
X201602000Y-116577500I0J-262500D01*
G01*
X201602000Y-117102500D01*
G75*
G02*
X201339500Y-117365000I-262500J0D01*
G01*
X200714500Y-117365000D01*
G75*
G02*
X200452000Y-117102500I0J262500D01*
G01*
G37*
G36*
G01*
X198702000Y-117102500D02*
X198702000Y-116577500D01*
G75*
G02*
X198964500Y-116315000I262500J0D01*
G01*
X199589500Y-116315000D01*
G75*
G02*
X199852000Y-116577500I0J-262500D01*
G01*
X199852000Y-117102500D01*
G75*
G02*
X199589500Y-117365000I-262500J0D01*
G01*
X198964500Y-117365000D01*
G75*
G02*
X198702000Y-117102500I0J262500D01*
G01*
G37*
%TD*%
%TO.C,D1*%
G36*
G01*
X200452000Y-114816500D02*
X200452000Y-114291500D01*
G75*
G02*
X200714500Y-114029000I262500J0D01*
G01*
X201339500Y-114029000D01*
G75*
G02*
X201602000Y-114291500I0J-262500D01*
G01*
X201602000Y-114816500D01*
G75*
G02*
X201339500Y-115079000I-262500J0D01*
G01*
X200714500Y-115079000D01*
G75*
G02*
X200452000Y-114816500I0J262500D01*
G01*
G37*
G36*
G01*
X198702000Y-114816500D02*
X198702000Y-114291500D01*
G75*
G02*
X198964500Y-114029000I262500J0D01*
G01*
X199589500Y-114029000D01*
G75*
G02*
X199852000Y-114291500I0J-262500D01*
G01*
X199852000Y-114816500D01*
G75*
G02*
X199589500Y-115079000I-262500J0D01*
G01*
X198964500Y-115079000D01*
G75*
G02*
X198702000Y-114816500I0J262500D01*
G01*
G37*
%TD*%
D26*
%TO.C,C4*%
X168554400Y-105236000D03*
D27*
X168554400Y-110236000D03*
%TD*%
D26*
%TO.C,C3*%
X168021000Y-124126000D03*
D27*
X168021000Y-119126000D03*
%TD*%
D26*
%TO.C,C2*%
X182626000Y-124126000D03*
D27*
X182626000Y-119126000D03*
%TD*%
D26*
%TO.C,C1*%
X182676800Y-105134400D03*
D27*
X182676800Y-110134400D03*
%TD*%
D28*
%TO.C,Conn12*%
X229108000Y-52197000D03*
X229108000Y-44323000D03*
%TD*%
%TO.C,Conn11*%
X222631000Y-113919000D03*
X214757000Y-113919000D03*
%TD*%
%TO.C,Conn8*%
X223266000Y-141351000D03*
X215392000Y-141351000D03*
%TD*%
%TO.C,Conn4*%
X63627000Y-73025000D03*
X55753000Y-73025000D03*
%TD*%
%TO.C,Conn3*%
X131445000Y-52324000D03*
X131445000Y-44450000D03*
%TD*%
%TO.C,Conn2*%
X64262000Y-56515000D03*
X56388000Y-56515000D03*
%TD*%
%TO.C,C21*%
G36*
G01*
X68673100Y-91931800D02*
X69198100Y-91931800D01*
G75*
G02*
X69460600Y-92194300I0J-262500D01*
G01*
X69460600Y-92819300D01*
G75*
G02*
X69198100Y-93081800I-262500J0D01*
G01*
X68673100Y-93081800D01*
G75*
G02*
X68410600Y-92819300I0J262500D01*
G01*
X68410600Y-92194300D01*
G75*
G02*
X68673100Y-91931800I262500J0D01*
G01*
G37*
G36*
G01*
X68673100Y-90181800D02*
X69198100Y-90181800D01*
G75*
G02*
X69460600Y-90444300I0J-262500D01*
G01*
X69460600Y-91069300D01*
G75*
G02*
X69198100Y-91331800I-262500J0D01*
G01*
X68673100Y-91331800D01*
G75*
G02*
X68410600Y-91069300I0J262500D01*
G01*
X68410600Y-90444300D01*
G75*
G02*
X68673100Y-90181800I262500J0D01*
G01*
G37*
%TD*%
%TO.C,C22*%
G36*
G01*
X209970000Y-125213500D02*
X209970000Y-125738500D01*
G75*
G02*
X209707500Y-126001000I-262500J0D01*
G01*
X209082500Y-126001000D01*
G75*
G02*
X208820000Y-125738500I0J262500D01*
G01*
X208820000Y-125213500D01*
G75*
G02*
X209082500Y-124951000I262500J0D01*
G01*
X209707500Y-124951000D01*
G75*
G02*
X209970000Y-125213500I0J-262500D01*
G01*
G37*
G36*
G01*
X208220000Y-125213500D02*
X208220000Y-125738500D01*
G75*
G02*
X207957500Y-126001000I-262500J0D01*
G01*
X207332500Y-126001000D01*
G75*
G02*
X207070000Y-125738500I0J262500D01*
G01*
X207070000Y-125213500D01*
G75*
G02*
X207332500Y-124951000I262500J0D01*
G01*
X207957500Y-124951000D01*
G75*
G02*
X208220000Y-125213500I0J-262500D01*
G01*
G37*
%TD*%
%TO.C,C24*%
G36*
G01*
X53040000Y-93717500D02*
X53040000Y-94242500D01*
G75*
G02*
X52777500Y-94505000I-262500J0D01*
G01*
X52152500Y-94505000D01*
G75*
G02*
X51890000Y-94242500I0J262500D01*
G01*
X51890000Y-93717500D01*
G75*
G02*
X52152500Y-93455000I262500J0D01*
G01*
X52777500Y-93455000D01*
G75*
G02*
X53040000Y-93717500I0J-262500D01*
G01*
G37*
G36*
G01*
X54790000Y-93717500D02*
X54790000Y-94242500D01*
G75*
G02*
X54527500Y-94505000I-262500J0D01*
G01*
X53902500Y-94505000D01*
G75*
G02*
X53640000Y-94242500I0J262500D01*
G01*
X53640000Y-93717500D01*
G75*
G02*
X53902500Y-93455000I262500J0D01*
G01*
X54527500Y-93455000D01*
G75*
G02*
X54790000Y-93717500I0J-262500D01*
G01*
G37*
%TD*%
%TO.C,C25*%
G36*
G01*
X227545000Y-120658500D02*
X227545000Y-120133500D01*
G75*
G02*
X227807500Y-119871000I262500J0D01*
G01*
X228432500Y-119871000D01*
G75*
G02*
X228695000Y-120133500I0J-262500D01*
G01*
X228695000Y-120658500D01*
G75*
G02*
X228432500Y-120921000I-262500J0D01*
G01*
X227807500Y-120921000D01*
G75*
G02*
X227545000Y-120658500I0J262500D01*
G01*
G37*
G36*
G01*
X229295000Y-120658500D02*
X229295000Y-120133500D01*
G75*
G02*
X229557500Y-119871000I262500J0D01*
G01*
X230182500Y-119871000D01*
G75*
G02*
X230445000Y-120133500I0J-262500D01*
G01*
X230445000Y-120658500D01*
G75*
G02*
X230182500Y-120921000I-262500J0D01*
G01*
X229557500Y-120921000D01*
G75*
G02*
X229295000Y-120658500I0J262500D01*
G01*
G37*
%TD*%
%TO.C,C28*%
G36*
G01*
X209812500Y-97716000D02*
X209287500Y-97716000D01*
G75*
G02*
X209025000Y-97453500I0J262500D01*
G01*
X209025000Y-96828500D01*
G75*
G02*
X209287500Y-96566000I262500J0D01*
G01*
X209812500Y-96566000D01*
G75*
G02*
X210075000Y-96828500I0J-262500D01*
G01*
X210075000Y-97453500D01*
G75*
G02*
X209812500Y-97716000I-262500J0D01*
G01*
G37*
G36*
G01*
X209812500Y-95966000D02*
X209287500Y-95966000D01*
G75*
G02*
X209025000Y-95703500I0J262500D01*
G01*
X209025000Y-95078500D01*
G75*
G02*
X209287500Y-94816000I262500J0D01*
G01*
X209812500Y-94816000D01*
G75*
G02*
X210075000Y-95078500I0J-262500D01*
G01*
X210075000Y-95703500D01*
G75*
G02*
X209812500Y-95966000I-262500J0D01*
G01*
G37*
%TD*%
%TO.C,C30*%
G36*
G01*
X226515000Y-93988500D02*
X226515000Y-93463500D01*
G75*
G02*
X226777500Y-93201000I262500J0D01*
G01*
X227402500Y-93201000D01*
G75*
G02*
X227665000Y-93463500I0J-262500D01*
G01*
X227665000Y-93988500D01*
G75*
G02*
X227402500Y-94251000I-262500J0D01*
G01*
X226777500Y-94251000D01*
G75*
G02*
X226515000Y-93988500I0J262500D01*
G01*
G37*
G36*
G01*
X228265000Y-93988500D02*
X228265000Y-93463500D01*
G75*
G02*
X228527500Y-93201000I262500J0D01*
G01*
X229152500Y-93201000D01*
G75*
G02*
X229415000Y-93463500I0J-262500D01*
G01*
X229415000Y-93988500D01*
G75*
G02*
X229152500Y-94251000I-262500J0D01*
G01*
X228527500Y-94251000D01*
G75*
G02*
X228265000Y-93988500I0J262500D01*
G01*
G37*
%TD*%
D10*
%TO.C,F6*%
X86995000Y-89916000D03*
X86995000Y-93345000D03*
X73533000Y-93345000D03*
X73533000Y-89916000D03*
%TD*%
%TO.C,F7*%
X206502000Y-123190000D03*
X206502000Y-119761000D03*
X193040000Y-119761000D03*
X193040000Y-123190000D03*
%TD*%
%TO.C,F8*%
X50038000Y-33020000D03*
X50038000Y-29591000D03*
X63500000Y-29591000D03*
X63500000Y-33020000D03*
%TD*%
D29*
%TO.C,GND1*%
X173609000Y-142875000D03*
%TD*%
%TO.C,R7*%
G36*
G01*
X121149500Y-51213000D02*
X121674500Y-51213000D01*
G75*
G02*
X121937000Y-51475500I0J-262500D01*
G01*
X121937000Y-52100500D01*
G75*
G02*
X121674500Y-52363000I-262500J0D01*
G01*
X121149500Y-52363000D01*
G75*
G02*
X120887000Y-52100500I0J262500D01*
G01*
X120887000Y-51475500D01*
G75*
G02*
X121149500Y-51213000I262500J0D01*
G01*
G37*
G36*
G01*
X121149500Y-49463000D02*
X121674500Y-49463000D01*
G75*
G02*
X121937000Y-49725500I0J-262500D01*
G01*
X121937000Y-50350500D01*
G75*
G02*
X121674500Y-50613000I-262500J0D01*
G01*
X121149500Y-50613000D01*
G75*
G02*
X120887000Y-50350500I0J262500D01*
G01*
X120887000Y-49725500D01*
G75*
G02*
X121149500Y-49463000I262500J0D01*
G01*
G37*
%TD*%
%TO.C,R9*%
G36*
G01*
X87113500Y-50959000D02*
X87638500Y-50959000D01*
G75*
G02*
X87901000Y-51221500I0J-262500D01*
G01*
X87901000Y-51846500D01*
G75*
G02*
X87638500Y-52109000I-262500J0D01*
G01*
X87113500Y-52109000D01*
G75*
G02*
X86851000Y-51846500I0J262500D01*
G01*
X86851000Y-51221500D01*
G75*
G02*
X87113500Y-50959000I262500J0D01*
G01*
G37*
G36*
G01*
X87113500Y-49209000D02*
X87638500Y-49209000D01*
G75*
G02*
X87901000Y-49471500I0J-262500D01*
G01*
X87901000Y-50096500D01*
G75*
G02*
X87638500Y-50359000I-262500J0D01*
G01*
X87113500Y-50359000D01*
G75*
G02*
X86851000Y-50096500I0J262500D01*
G01*
X86851000Y-49471500D01*
G75*
G02*
X87113500Y-49209000I262500J0D01*
G01*
G37*
%TD*%
%TO.C,R14*%
G36*
G01*
X187062500Y-51100000D02*
X187587500Y-51100000D01*
G75*
G02*
X187850000Y-51362500I0J-262500D01*
G01*
X187850000Y-51987500D01*
G75*
G02*
X187587500Y-52250000I-262500J0D01*
G01*
X187062500Y-52250000D01*
G75*
G02*
X186800000Y-51987500I0J262500D01*
G01*
X186800000Y-51362500D01*
G75*
G02*
X187062500Y-51100000I262500J0D01*
G01*
G37*
G36*
G01*
X187062500Y-49350000D02*
X187587500Y-49350000D01*
G75*
G02*
X187850000Y-49612500I0J-262500D01*
G01*
X187850000Y-50237500D01*
G75*
G02*
X187587500Y-50500000I-262500J0D01*
G01*
X187062500Y-50500000D01*
G75*
G02*
X186800000Y-50237500I0J262500D01*
G01*
X186800000Y-49612500D01*
G75*
G02*
X187062500Y-49350000I262500J0D01*
G01*
G37*
%TD*%
%TO.C,R19*%
G36*
G01*
X69147300Y-87674200D02*
X68622300Y-87674200D01*
G75*
G02*
X68359800Y-87411700I0J262500D01*
G01*
X68359800Y-86786700D01*
G75*
G02*
X68622300Y-86524200I262500J0D01*
G01*
X69147300Y-86524200D01*
G75*
G02*
X69409800Y-86786700I0J-262500D01*
G01*
X69409800Y-87411700D01*
G75*
G02*
X69147300Y-87674200I-262500J0D01*
G01*
G37*
G36*
G01*
X69147300Y-89424200D02*
X68622300Y-89424200D01*
G75*
G02*
X68359800Y-89161700I0J262500D01*
G01*
X68359800Y-88536700D01*
G75*
G02*
X68622300Y-88274200I262500J0D01*
G01*
X69147300Y-88274200D01*
G75*
G02*
X69409800Y-88536700I0J-262500D01*
G01*
X69409800Y-89161700D01*
G75*
G02*
X69147300Y-89424200I-262500J0D01*
G01*
G37*
%TD*%
%TO.C,R20*%
G36*
G01*
X213145000Y-129023500D02*
X213145000Y-129548500D01*
G75*
G02*
X212882500Y-129811000I-262500J0D01*
G01*
X212257500Y-129811000D01*
G75*
G02*
X211995000Y-129548500I0J262500D01*
G01*
X211995000Y-129023500D01*
G75*
G02*
X212257500Y-128761000I262500J0D01*
G01*
X212882500Y-128761000D01*
G75*
G02*
X213145000Y-129023500I0J-262500D01*
G01*
G37*
G36*
G01*
X211395000Y-129023500D02*
X211395000Y-129548500D01*
G75*
G02*
X211132500Y-129811000I-262500J0D01*
G01*
X210507500Y-129811000D01*
G75*
G02*
X210245000Y-129548500I0J262500D01*
G01*
X210245000Y-129023500D01*
G75*
G02*
X210507500Y-128761000I262500J0D01*
G01*
X211132500Y-128761000D01*
G75*
G02*
X211395000Y-129023500I0J-262500D01*
G01*
G37*
%TD*%
%TO.C,R25*%
G36*
G01*
X63405000Y-81898100D02*
X63405000Y-81373100D01*
G75*
G02*
X63667500Y-81110600I262500J0D01*
G01*
X64292500Y-81110600D01*
G75*
G02*
X64555000Y-81373100I0J-262500D01*
G01*
X64555000Y-81898100D01*
G75*
G02*
X64292500Y-82160600I-262500J0D01*
G01*
X63667500Y-82160600D01*
G75*
G02*
X63405000Y-81898100I0J262500D01*
G01*
G37*
G36*
G01*
X61655000Y-81898100D02*
X61655000Y-81373100D01*
G75*
G02*
X61917500Y-81110600I262500J0D01*
G01*
X62542500Y-81110600D01*
G75*
G02*
X62805000Y-81373100I0J-262500D01*
G01*
X62805000Y-81898100D01*
G75*
G02*
X62542500Y-82160600I-262500J0D01*
G01*
X61917500Y-82160600D01*
G75*
G02*
X61655000Y-81898100I0J262500D01*
G01*
G37*
%TD*%
%TO.C,R26*%
G36*
G01*
X214443000Y-132325500D02*
X214443000Y-132850500D01*
G75*
G02*
X214180500Y-133113000I-262500J0D01*
G01*
X213555500Y-133113000D01*
G75*
G02*
X213293000Y-132850500I0J262500D01*
G01*
X213293000Y-132325500D01*
G75*
G02*
X213555500Y-132063000I262500J0D01*
G01*
X214180500Y-132063000D01*
G75*
G02*
X214443000Y-132325500I0J-262500D01*
G01*
G37*
G36*
G01*
X212693000Y-132325500D02*
X212693000Y-132850500D01*
G75*
G02*
X212430500Y-133113000I-262500J0D01*
G01*
X211805500Y-133113000D01*
G75*
G02*
X211543000Y-132850500I0J262500D01*
G01*
X211543000Y-132325500D01*
G75*
G02*
X211805500Y-132063000I262500J0D01*
G01*
X212430500Y-132063000D01*
G75*
G02*
X212693000Y-132325500I0J-262500D01*
G01*
G37*
%TD*%
%TO.C,R29*%
G36*
G01*
X209287500Y-98231000D02*
X209812500Y-98231000D01*
G75*
G02*
X210075000Y-98493500I0J-262500D01*
G01*
X210075000Y-99118500D01*
G75*
G02*
X209812500Y-99381000I-262500J0D01*
G01*
X209287500Y-99381000D01*
G75*
G02*
X209025000Y-99118500I0J262500D01*
G01*
X209025000Y-98493500D01*
G75*
G02*
X209287500Y-98231000I262500J0D01*
G01*
G37*
G36*
G01*
X209287500Y-99981000D02*
X209812500Y-99981000D01*
G75*
G02*
X210075000Y-100243500I0J-262500D01*
G01*
X210075000Y-100868500D01*
G75*
G02*
X209812500Y-101131000I-262500J0D01*
G01*
X209287500Y-101131000D01*
G75*
G02*
X209025000Y-100868500I0J262500D01*
G01*
X209025000Y-100243500D01*
G75*
G02*
X209287500Y-99981000I262500J0D01*
G01*
G37*
%TD*%
%TO.C,R33*%
G36*
G01*
X216080000Y-101083500D02*
X216080000Y-101608500D01*
G75*
G02*
X215817500Y-101871000I-262500J0D01*
G01*
X215192500Y-101871000D01*
G75*
G02*
X214930000Y-101608500I0J262500D01*
G01*
X214930000Y-101083500D01*
G75*
G02*
X215192500Y-100821000I262500J0D01*
G01*
X215817500Y-100821000D01*
G75*
G02*
X216080000Y-101083500I0J-262500D01*
G01*
G37*
G36*
G01*
X214330000Y-101083500D02*
X214330000Y-101608500D01*
G75*
G02*
X214067500Y-101871000I-262500J0D01*
G01*
X213442500Y-101871000D01*
G75*
G02*
X213180000Y-101608500I0J262500D01*
G01*
X213180000Y-101083500D01*
G75*
G02*
X213442500Y-100821000I262500J0D01*
G01*
X214067500Y-100821000D01*
G75*
G02*
X214330000Y-101083500I0J-262500D01*
G01*
G37*
%TD*%
D18*
%TO.C,U15*%
X211295000Y-123444000D03*
X211295000Y-124714000D03*
X211295000Y-125984000D03*
X211295000Y-127254000D03*
X216695000Y-127254000D03*
X216695000Y-125984000D03*
X216695000Y-123444000D03*
%TD*%
%TO.C,U21*%
X211549000Y-95885000D03*
X211549000Y-97155000D03*
X211549000Y-98425000D03*
X211549000Y-99695000D03*
X216949000Y-99695000D03*
X216949000Y-98425000D03*
X216949000Y-95885000D03*
%TD*%
D29*
%TO.C,V1*%
X193929000Y-142875000D03*
%TD*%
%TO.C,R10*%
G36*
G01*
X182785000Y-58682500D02*
X182785000Y-58157500D01*
G75*
G02*
X183047500Y-57895000I262500J0D01*
G01*
X183672500Y-57895000D01*
G75*
G02*
X183935000Y-58157500I0J-262500D01*
G01*
X183935000Y-58682500D01*
G75*
G02*
X183672500Y-58945000I-262500J0D01*
G01*
X183047500Y-58945000D01*
G75*
G02*
X182785000Y-58682500I0J262500D01*
G01*
G37*
G36*
G01*
X181035000Y-58682500D02*
X181035000Y-58157500D01*
G75*
G02*
X181297500Y-57895000I262500J0D01*
G01*
X181922500Y-57895000D01*
G75*
G02*
X182185000Y-58157500I0J-262500D01*
G01*
X182185000Y-58682500D01*
G75*
G02*
X181922500Y-58945000I-262500J0D01*
G01*
X181297500Y-58945000D01*
G75*
G02*
X181035000Y-58682500I0J262500D01*
G01*
G37*
%TD*%
%TO.C,C11*%
G36*
G01*
X178516000Y-58157500D02*
X178516000Y-58682500D01*
G75*
G02*
X178253500Y-58945000I-262500J0D01*
G01*
X177628500Y-58945000D01*
G75*
G02*
X177366000Y-58682500I0J262500D01*
G01*
X177366000Y-58157500D01*
G75*
G02*
X177628500Y-57895000I262500J0D01*
G01*
X178253500Y-57895000D01*
G75*
G02*
X178516000Y-58157500I0J-262500D01*
G01*
G37*
G36*
G01*
X180266000Y-58157500D02*
X180266000Y-58682500D01*
G75*
G02*
X180003500Y-58945000I-262500J0D01*
G01*
X179378500Y-58945000D01*
G75*
G02*
X179116000Y-58682500I0J262500D01*
G01*
X179116000Y-58157500D01*
G75*
G02*
X179378500Y-57895000I262500J0D01*
G01*
X180003500Y-57895000D01*
G75*
G02*
X180266000Y-58157500I0J-262500D01*
G01*
G37*
%TD*%
%TO.C,C13*%
G36*
G01*
X176902500Y-51495000D02*
X177427500Y-51495000D01*
G75*
G02*
X177690000Y-51757500I0J-262500D01*
G01*
X177690000Y-52382500D01*
G75*
G02*
X177427500Y-52645000I-262500J0D01*
G01*
X176902500Y-52645000D01*
G75*
G02*
X176640000Y-52382500I0J262500D01*
G01*
X176640000Y-51757500D01*
G75*
G02*
X176902500Y-51495000I262500J0D01*
G01*
G37*
G36*
G01*
X176902500Y-49745000D02*
X177427500Y-49745000D01*
G75*
G02*
X177690000Y-50007500I0J-262500D01*
G01*
X177690000Y-50632500D01*
G75*
G02*
X177427500Y-50895000I-262500J0D01*
G01*
X176902500Y-50895000D01*
G75*
G02*
X176640000Y-50632500I0J262500D01*
G01*
X176640000Y-50007500D01*
G75*
G02*
X176902500Y-49745000I262500J0D01*
G01*
G37*
%TD*%
D10*
%TO.C,F4*%
X174625000Y-68707000D03*
X171196000Y-68707000D03*
X171196000Y-55245000D03*
X174625000Y-55245000D03*
%TD*%
D28*
%TO.C,Conn7*%
X164465000Y-52324000D03*
X164465000Y-44450000D03*
%TD*%
D30*
%TO.C,U5*%
X157005000Y-36835000D03*
X157005000Y-38735000D03*
X154305000Y-38735000D03*
X154305000Y-37785000D03*
X154305000Y-36835000D03*
%TD*%
D31*
%TO.C,U2*%
X146050000Y-50165000D03*
X148590000Y-50165000D03*
X149860000Y-50165000D03*
X149860000Y-55565000D03*
X148590000Y-55565000D03*
X147320000Y-55565000D03*
X146050000Y-55565000D03*
%TD*%
%TO.C,C6*%
G36*
G01*
X145496000Y-58157500D02*
X145496000Y-58682500D01*
G75*
G02*
X145233500Y-58945000I-262500J0D01*
G01*
X144608500Y-58945000D01*
G75*
G02*
X144346000Y-58682500I0J262500D01*
G01*
X144346000Y-58157500D01*
G75*
G02*
X144608500Y-57895000I262500J0D01*
G01*
X145233500Y-57895000D01*
G75*
G02*
X145496000Y-58157500I0J-262500D01*
G01*
G37*
G36*
G01*
X147246000Y-58157500D02*
X147246000Y-58682500D01*
G75*
G02*
X146983500Y-58945000I-262500J0D01*
G01*
X146358500Y-58945000D01*
G75*
G02*
X146096000Y-58682500I0J262500D01*
G01*
X146096000Y-58157500D01*
G75*
G02*
X146358500Y-57895000I262500J0D01*
G01*
X146983500Y-57895000D01*
G75*
G02*
X147246000Y-58157500I0J-262500D01*
G01*
G37*
%TD*%
D10*
%TO.C,F2*%
X141605000Y-69342000D03*
X138176000Y-69342000D03*
X138176000Y-55880000D03*
X141605000Y-55880000D03*
%TD*%
%TO.C,R2*%
G36*
G01*
X149765000Y-58682500D02*
X149765000Y-58157500D01*
G75*
G02*
X150027500Y-57895000I262500J0D01*
G01*
X150652500Y-57895000D01*
G75*
G02*
X150915000Y-58157500I0J-262500D01*
G01*
X150915000Y-58682500D01*
G75*
G02*
X150652500Y-58945000I-262500J0D01*
G01*
X150027500Y-58945000D01*
G75*
G02*
X149765000Y-58682500I0J262500D01*
G01*
G37*
G36*
G01*
X148015000Y-58682500D02*
X148015000Y-58157500D01*
G75*
G02*
X148277500Y-57895000I262500J0D01*
G01*
X148902500Y-57895000D01*
G75*
G02*
X149165000Y-58157500I0J-262500D01*
G01*
X149165000Y-58682500D01*
G75*
G02*
X148902500Y-58945000I-262500J0D01*
G01*
X148277500Y-58945000D01*
G75*
G02*
X148015000Y-58682500I0J262500D01*
G01*
G37*
%TD*%
%TO.C,C9*%
G36*
G01*
X144009500Y-52003000D02*
X144534500Y-52003000D01*
G75*
G02*
X144797000Y-52265500I0J-262500D01*
G01*
X144797000Y-52890500D01*
G75*
G02*
X144534500Y-53153000I-262500J0D01*
G01*
X144009500Y-53153000D01*
G75*
G02*
X143747000Y-52890500I0J262500D01*
G01*
X143747000Y-52265500D01*
G75*
G02*
X144009500Y-52003000I262500J0D01*
G01*
G37*
G36*
G01*
X144009500Y-50253000D02*
X144534500Y-50253000D01*
G75*
G02*
X144797000Y-50515500I0J-262500D01*
G01*
X144797000Y-51140500D01*
G75*
G02*
X144534500Y-51403000I-262500J0D01*
G01*
X144009500Y-51403000D01*
G75*
G02*
X143747000Y-51140500I0J262500D01*
G01*
X143747000Y-50515500D01*
G75*
G02*
X144009500Y-50253000I262500J0D01*
G01*
G37*
%TD*%
D30*
%TO.C,U4*%
X123905000Y-36515000D03*
X123905000Y-38415000D03*
X121205000Y-38415000D03*
X121205000Y-37465000D03*
X121205000Y-36515000D03*
%TD*%
D31*
%TO.C,U1*%
X113030000Y-50165000D03*
X115570000Y-50165000D03*
X116840000Y-50165000D03*
X116840000Y-55565000D03*
X115570000Y-55565000D03*
X114300000Y-55565000D03*
X113030000Y-55565000D03*
%TD*%
%TO.C,C5*%
G36*
G01*
X112476000Y-58157500D02*
X112476000Y-58682500D01*
G75*
G02*
X112213500Y-58945000I-262500J0D01*
G01*
X111588500Y-58945000D01*
G75*
G02*
X111326000Y-58682500I0J262500D01*
G01*
X111326000Y-58157500D01*
G75*
G02*
X111588500Y-57895000I262500J0D01*
G01*
X112213500Y-57895000D01*
G75*
G02*
X112476000Y-58157500I0J-262500D01*
G01*
G37*
G36*
G01*
X114226000Y-58157500D02*
X114226000Y-58682500D01*
G75*
G02*
X113963500Y-58945000I-262500J0D01*
G01*
X113338500Y-58945000D01*
G75*
G02*
X113076000Y-58682500I0J262500D01*
G01*
X113076000Y-58157500D01*
G75*
G02*
X113338500Y-57895000I262500J0D01*
G01*
X113963500Y-57895000D01*
G75*
G02*
X114226000Y-58157500I0J-262500D01*
G01*
G37*
%TD*%
D10*
%TO.C,F1*%
X109220000Y-69342000D03*
X105791000Y-69342000D03*
X105791000Y-55880000D03*
X109220000Y-55880000D03*
%TD*%
%TO.C,R1*%
G36*
G01*
X116745000Y-58682500D02*
X116745000Y-58157500D01*
G75*
G02*
X117007500Y-57895000I262500J0D01*
G01*
X117632500Y-57895000D01*
G75*
G02*
X117895000Y-58157500I0J-262500D01*
G01*
X117895000Y-58682500D01*
G75*
G02*
X117632500Y-58945000I-262500J0D01*
G01*
X117007500Y-58945000D01*
G75*
G02*
X116745000Y-58682500I0J262500D01*
G01*
G37*
G36*
G01*
X114995000Y-58682500D02*
X114995000Y-58157500D01*
G75*
G02*
X115257500Y-57895000I262500J0D01*
G01*
X115882500Y-57895000D01*
G75*
G02*
X116145000Y-58157500I0J-262500D01*
G01*
X116145000Y-58682500D01*
G75*
G02*
X115882500Y-58945000I-262500J0D01*
G01*
X115257500Y-58945000D01*
G75*
G02*
X114995000Y-58682500I0J262500D01*
G01*
G37*
%TD*%
%TO.C,C8*%
G36*
G01*
X110862500Y-52003000D02*
X111387500Y-52003000D01*
G75*
G02*
X111650000Y-52265500I0J-262500D01*
G01*
X111650000Y-52890500D01*
G75*
G02*
X111387500Y-53153000I-262500J0D01*
G01*
X110862500Y-53153000D01*
G75*
G02*
X110600000Y-52890500I0J262500D01*
G01*
X110600000Y-52265500D01*
G75*
G02*
X110862500Y-52003000I262500J0D01*
G01*
G37*
G36*
G01*
X110862500Y-50253000D02*
X111387500Y-50253000D01*
G75*
G02*
X111650000Y-50515500I0J-262500D01*
G01*
X111650000Y-51140500D01*
G75*
G02*
X111387500Y-51403000I-262500J0D01*
G01*
X110862500Y-51403000D01*
G75*
G02*
X110600000Y-51140500I0J262500D01*
G01*
X110600000Y-50515500D01*
G75*
G02*
X110862500Y-50253000I262500J0D01*
G01*
G37*
%TD*%
%TO.C,D3*%
G36*
G01*
X180880000Y-84717500D02*
X180880000Y-84192500D01*
G75*
G02*
X181142500Y-83930000I262500J0D01*
G01*
X181767500Y-83930000D01*
G75*
G02*
X182030000Y-84192500I0J-262500D01*
G01*
X182030000Y-84717500D01*
G75*
G02*
X181767500Y-84980000I-262500J0D01*
G01*
X181142500Y-84980000D01*
G75*
G02*
X180880000Y-84717500I0J262500D01*
G01*
G37*
G36*
G01*
X179130000Y-84717500D02*
X179130000Y-84192500D01*
G75*
G02*
X179392500Y-83930000I262500J0D01*
G01*
X180017500Y-83930000D01*
G75*
G02*
X180280000Y-84192500I0J-262500D01*
G01*
X180280000Y-84717500D01*
G75*
G02*
X180017500Y-84980000I-262500J0D01*
G01*
X179392500Y-84980000D01*
G75*
G02*
X179130000Y-84717500I0J262500D01*
G01*
G37*
%TD*%
D28*
%TO.C,Conn1*%
X98425000Y-52324000D03*
X98425000Y-44450000D03*
%TD*%
D30*
%TO.C,U6*%
X90885000Y-36515000D03*
X90885000Y-38415000D03*
X88185000Y-38415000D03*
X88185000Y-37465000D03*
X88185000Y-36515000D03*
%TD*%
D31*
%TO.C,U3*%
X80010000Y-50165000D03*
X82550000Y-50165000D03*
X83820000Y-50165000D03*
X83820000Y-55565000D03*
X82550000Y-55565000D03*
X81280000Y-55565000D03*
X80010000Y-55565000D03*
%TD*%
%TO.C,C7*%
G36*
G01*
X79456000Y-58157500D02*
X79456000Y-58682500D01*
G75*
G02*
X79193500Y-58945000I-262500J0D01*
G01*
X78568500Y-58945000D01*
G75*
G02*
X78306000Y-58682500I0J262500D01*
G01*
X78306000Y-58157500D01*
G75*
G02*
X78568500Y-57895000I262500J0D01*
G01*
X79193500Y-57895000D01*
G75*
G02*
X79456000Y-58157500I0J-262500D01*
G01*
G37*
G36*
G01*
X81206000Y-58157500D02*
X81206000Y-58682500D01*
G75*
G02*
X80943500Y-58945000I-262500J0D01*
G01*
X80318500Y-58945000D01*
G75*
G02*
X80056000Y-58682500I0J262500D01*
G01*
X80056000Y-58157500D01*
G75*
G02*
X80318500Y-57895000I262500J0D01*
G01*
X80943500Y-57895000D01*
G75*
G02*
X81206000Y-58157500I0J-262500D01*
G01*
G37*
%TD*%
D10*
%TO.C,F3*%
X74549000Y-69215000D03*
X71120000Y-69215000D03*
X71120000Y-55753000D03*
X74549000Y-55753000D03*
%TD*%
%TO.C,R3*%
G36*
G01*
X83725000Y-58682500D02*
X83725000Y-58157500D01*
G75*
G02*
X83987500Y-57895000I262500J0D01*
G01*
X84612500Y-57895000D01*
G75*
G02*
X84875000Y-58157500I0J-262500D01*
G01*
X84875000Y-58682500D01*
G75*
G02*
X84612500Y-58945000I-262500J0D01*
G01*
X83987500Y-58945000D01*
G75*
G02*
X83725000Y-58682500I0J262500D01*
G01*
G37*
G36*
G01*
X81975000Y-58682500D02*
X81975000Y-58157500D01*
G75*
G02*
X82237500Y-57895000I262500J0D01*
G01*
X82862500Y-57895000D01*
G75*
G02*
X83125000Y-58157500I0J-262500D01*
G01*
X83125000Y-58682500D01*
G75*
G02*
X82862500Y-58945000I-262500J0D01*
G01*
X82237500Y-58945000D01*
G75*
G02*
X81975000Y-58682500I0J262500D01*
G01*
G37*
%TD*%
%TO.C,C10*%
G36*
G01*
X77842500Y-52003000D02*
X78367500Y-52003000D01*
G75*
G02*
X78630000Y-52265500I0J-262500D01*
G01*
X78630000Y-52890500D01*
G75*
G02*
X78367500Y-53153000I-262500J0D01*
G01*
X77842500Y-53153000D01*
G75*
G02*
X77580000Y-52890500I0J262500D01*
G01*
X77580000Y-52265500D01*
G75*
G02*
X77842500Y-52003000I262500J0D01*
G01*
G37*
G36*
G01*
X77842500Y-50253000D02*
X78367500Y-50253000D01*
G75*
G02*
X78630000Y-50515500I0J-262500D01*
G01*
X78630000Y-51140500D01*
G75*
G02*
X78367500Y-51403000I-262500J0D01*
G01*
X77842500Y-51403000D01*
G75*
G02*
X77580000Y-51140500I0J262500D01*
G01*
X77580000Y-50515500D01*
G75*
G02*
X77842500Y-50253000I262500J0D01*
G01*
G37*
%TD*%
%TO.C,D5*%
G36*
G01*
X175785500Y-84192500D02*
X175785500Y-84717500D01*
G75*
G02*
X175523000Y-84980000I-262500J0D01*
G01*
X174898000Y-84980000D01*
G75*
G02*
X174635500Y-84717500I0J262500D01*
G01*
X174635500Y-84192500D01*
G75*
G02*
X174898000Y-83930000I262500J0D01*
G01*
X175523000Y-83930000D01*
G75*
G02*
X175785500Y-84192500I0J-262500D01*
G01*
G37*
G36*
G01*
X177535500Y-84192500D02*
X177535500Y-84717500D01*
G75*
G02*
X177273000Y-84980000I-262500J0D01*
G01*
X176648000Y-84980000D01*
G75*
G02*
X176385500Y-84717500I0J262500D01*
G01*
X176385500Y-84192500D01*
G75*
G02*
X176648000Y-83930000I262500J0D01*
G01*
X177273000Y-83930000D01*
G75*
G02*
X177535500Y-84192500I0J-262500D01*
G01*
G37*
%TD*%
%TO.C,D6*%
G36*
G01*
X180880000Y-87702000D02*
X180880000Y-87177000D01*
G75*
G02*
X181142500Y-86914500I262500J0D01*
G01*
X181767500Y-86914500D01*
G75*
G02*
X182030000Y-87177000I0J-262500D01*
G01*
X182030000Y-87702000D01*
G75*
G02*
X181767500Y-87964500I-262500J0D01*
G01*
X181142500Y-87964500D01*
G75*
G02*
X180880000Y-87702000I0J262500D01*
G01*
G37*
G36*
G01*
X179130000Y-87702000D02*
X179130000Y-87177000D01*
G75*
G02*
X179392500Y-86914500I262500J0D01*
G01*
X180017500Y-86914500D01*
G75*
G02*
X180280000Y-87177000I0J-262500D01*
G01*
X180280000Y-87702000D01*
G75*
G02*
X180017500Y-87964500I-262500J0D01*
G01*
X179392500Y-87964500D01*
G75*
G02*
X179130000Y-87702000I0J262500D01*
G01*
G37*
%TD*%
%TO.C,D4*%
G36*
G01*
X175799500Y-87177000D02*
X175799500Y-87702000D01*
G75*
G02*
X175537000Y-87964500I-262500J0D01*
G01*
X174912000Y-87964500D01*
G75*
G02*
X174649500Y-87702000I0J262500D01*
G01*
X174649500Y-87177000D01*
G75*
G02*
X174912000Y-86914500I262500J0D01*
G01*
X175537000Y-86914500D01*
G75*
G02*
X175799500Y-87177000I0J-262500D01*
G01*
G37*
G36*
G01*
X177549500Y-87177000D02*
X177549500Y-87702000D01*
G75*
G02*
X177287000Y-87964500I-262500J0D01*
G01*
X176662000Y-87964500D01*
G75*
G02*
X176399500Y-87702000I0J262500D01*
G01*
X176399500Y-87177000D01*
G75*
G02*
X176662000Y-86914500I262500J0D01*
G01*
X177287000Y-86914500D01*
G75*
G02*
X177549500Y-87177000I0J-262500D01*
G01*
G37*
%TD*%
%TO.C,R8*%
G36*
G01*
X153915500Y-50846000D02*
X154440500Y-50846000D01*
G75*
G02*
X154703000Y-51108500I0J-262500D01*
G01*
X154703000Y-51733500D01*
G75*
G02*
X154440500Y-51996000I-262500J0D01*
G01*
X153915500Y-51996000D01*
G75*
G02*
X153653000Y-51733500I0J262500D01*
G01*
X153653000Y-51108500D01*
G75*
G02*
X153915500Y-50846000I262500J0D01*
G01*
G37*
G36*
G01*
X153915500Y-49096000D02*
X154440500Y-49096000D01*
G75*
G02*
X154703000Y-49358500I0J-262500D01*
G01*
X154703000Y-49983500D01*
G75*
G02*
X154440500Y-50246000I-262500J0D01*
G01*
X153915500Y-50246000D01*
G75*
G02*
X153653000Y-49983500I0J262500D01*
G01*
X153653000Y-49358500D01*
G75*
G02*
X153915500Y-49096000I262500J0D01*
G01*
G37*
%TD*%
D28*
%TO.C,Conn9*%
X196850000Y-52324000D03*
X196850000Y-44450000D03*
%TD*%
D10*
%TO.C,F5*%
X206756000Y-68580000D03*
X203327000Y-68580000D03*
X203327000Y-55118000D03*
X206756000Y-55118000D03*
%TD*%
D31*
%TO.C,U7*%
X179070000Y-50165000D03*
X181610000Y-50165000D03*
X182880000Y-50165000D03*
X182880000Y-55565000D03*
X181610000Y-55565000D03*
X180340000Y-55565000D03*
X179070000Y-55565000D03*
%TD*%
D30*
%TO.C,U9*%
X189945000Y-36515000D03*
X189945000Y-38415000D03*
X187245000Y-38415000D03*
X187245000Y-37465000D03*
X187245000Y-36515000D03*
%TD*%
D31*
%TO.C,U8*%
X211201000Y-50165000D03*
X213741000Y-50165000D03*
X215011000Y-50165000D03*
X215011000Y-55565000D03*
X213741000Y-55565000D03*
X212471000Y-55565000D03*
X211201000Y-55565000D03*
%TD*%
D28*
%TO.C,Conn10*%
X214503000Y-65278000D03*
X222377000Y-65278000D03*
%TD*%
%TO.C,D17*%
G36*
G01*
X180880000Y-90686500D02*
X180880000Y-90161500D01*
G75*
G02*
X181142500Y-89899000I262500J0D01*
G01*
X181767500Y-89899000D01*
G75*
G02*
X182030000Y-90161500I0J-262500D01*
G01*
X182030000Y-90686500D01*
G75*
G02*
X181767500Y-90949000I-262500J0D01*
G01*
X181142500Y-90949000D01*
G75*
G02*
X180880000Y-90686500I0J262500D01*
G01*
G37*
G36*
G01*
X179130000Y-90686500D02*
X179130000Y-90161500D01*
G75*
G02*
X179392500Y-89899000I262500J0D01*
G01*
X180017500Y-89899000D01*
G75*
G02*
X180280000Y-90161500I0J-262500D01*
G01*
X180280000Y-90686500D01*
G75*
G02*
X180017500Y-90949000I-262500J0D01*
G01*
X179392500Y-90949000D01*
G75*
G02*
X179130000Y-90686500I0J262500D01*
G01*
G37*
%TD*%
%TO.C,R32*%
G36*
G01*
X215600000Y-77969500D02*
X215600000Y-78494500D01*
G75*
G02*
X215337500Y-78757000I-262500J0D01*
G01*
X214712500Y-78757000D01*
G75*
G02*
X214450000Y-78494500I0J262500D01*
G01*
X214450000Y-77969500D01*
G75*
G02*
X214712500Y-77707000I262500J0D01*
G01*
X215337500Y-77707000D01*
G75*
G02*
X215600000Y-77969500I0J-262500D01*
G01*
G37*
G36*
G01*
X217350000Y-77969500D02*
X217350000Y-78494500D01*
G75*
G02*
X217087500Y-78757000I-262500J0D01*
G01*
X216462500Y-78757000D01*
G75*
G02*
X216200000Y-78494500I0J262500D01*
G01*
X216200000Y-77969500D01*
G75*
G02*
X216462500Y-77707000I262500J0D01*
G01*
X217087500Y-77707000D01*
G75*
G02*
X217350000Y-77969500I0J-262500D01*
G01*
G37*
%TD*%
D17*
%TO.C,U22*%
X216855000Y-72945000D03*
X218755000Y-72945000D03*
X218755000Y-75645000D03*
X217805000Y-75645000D03*
X216855000Y-75645000D03*
%TD*%
D10*
%TO.C,F9*%
X191516000Y-83947000D03*
X191516000Y-80518000D03*
X204978000Y-80518000D03*
X204978000Y-83947000D03*
%TD*%
M02*
