M48
; DRILL file {KiCad (6.0.7)} date Sat Nov 19 14:58:57 2022
; FORMAT={-:-/ absolute / metric / decimal}
; #@! TF.CreationDate,2022-11-19T14:58:57-06:00
; #@! TF.GenerationSoftware,Kicad,Pcbnew,(6.0.7)
; #@! TF.FileFunction,Plated,1,2,PTH
FMAT,2
METRIC
; #@! TA.AperFunction,Plated,PTH,ViaDrill
T1C0.400
; #@! TA.AperFunction,Plated,PTH,ComponentDrill
T2C0.700
; #@! TA.AperFunction,Plated,PTH,ComponentDrill
T3C0.750
; #@! TA.AperFunction,Plated,PTH,ComponentDrill
T4C0.800
; #@! TA.AperFunction,Plated,PTH,ComponentDrill
T5C0.889
; #@! TA.AperFunction,Plated,PTH,ComponentDrill
T6C0.900
; #@! TA.AperFunction,Plated,PTH,ComponentDrill
T7C1.020
; #@! TA.AperFunction,Plated,PTH,ComponentDrill
T8C1.200
; #@! TA.AperFunction,Plated,PTH,ComponentDrill
T9C1.300
; #@! TA.AperFunction,Plated,PTH,ComponentDrill
T10C1.600
; #@! TA.AperFunction,Plated,PTH,ComponentDrill
T11C1.676
; #@! TA.AperFunction,Plated,PTH,ComponentDrill
T12C2.000
; #@! TA.AperFunction,Plated,PTH,ComponentDrill
T13C3.250
; #@! TA.AperFunction,Plated,PTH,ComponentDrill
T14C9.144
%
G90
G05
T1
X77.216Y-56.642
X91.44Y-56.642
X105.156Y-56.642
X118.872Y-56.896
X133.096Y-56.896
X146.812Y-56.896
X160.909Y-56.642
X165.862Y-56.642
X183.642Y-56.896
X201.676Y-56.896
X219.71Y-56.642
X237.998Y-56.896
X255.524Y-56.896
X273.812Y-56.896
X291.846Y-56.896
X309.626Y-56.642
T2
X252.809Y-159.412
X252.809Y-161.412
X252.809Y-163.412
X254.809Y-159.412
X254.809Y-161.412
X254.809Y-163.412
T3
X251.269Y-153.672
X253.809Y-153.672
X256.349Y-153.672
X258.889Y-153.672
X261.429Y-153.672
T4
X209.359Y-150.622
X209.359Y-165.862
X211.899Y-150.622
X211.899Y-165.862
X214.439Y-150.622
X214.439Y-165.862
X216.98Y-150.622
X216.98Y-165.862
X219.519Y-150.622
X219.519Y-165.862
X222.059Y-150.622
X222.059Y-153.162
X222.059Y-155.702
X222.059Y-158.242
X222.059Y-160.782
X222.059Y-163.322
X222.059Y-165.862
X224.599Y-150.622
X224.599Y-165.862
X227.139Y-150.622
X227.139Y-165.862
X229.679Y-150.622
X229.679Y-165.862
X232.219Y-150.622
X232.219Y-165.862
X234.76Y-150.622
X234.76Y-165.862
X237.299Y-150.622
X237.299Y-165.862
X239.839Y-150.622
X239.839Y-165.862
X242.379Y-150.622
X242.379Y-165.862
X244.919Y-150.622
X244.919Y-165.862
X247.459Y-150.622
X247.459Y-165.862
X249.999Y-150.622
X249.999Y-165.862
X252.539Y-150.622
X252.539Y-165.862
X255.079Y-150.622
X255.079Y-165.862
X257.62Y-150.622
X257.62Y-165.862
X260.159Y-150.622
X260.159Y-165.862
X262.7Y-150.622
X262.7Y-165.862
X265.239Y-150.622
X265.239Y-163.322
X265.239Y-165.862
X267.779Y-150.622
X267.779Y-165.862
X326.055Y-161.1
X326.055Y-163.1
X326.055Y-165.1
X328.055Y-161.1
X328.055Y-163.1
X328.055Y-165.1
T5
X200.025Y-147.574
X200.025Y-150.114
X200.025Y-152.654
T6
X331.115Y-154.725
X331.115Y-157.265
X331.115Y-159.805
X331.115Y-162.345
X333.655Y-155.995
X333.655Y-158.535
X333.655Y-161.075
X333.655Y-163.615
T7
X343.295Y-152.845
X343.295Y-162.955
X345.085Y-155.385
X345.085Y-165.495
T8
X41.656Y-146.304
X41.656Y-151.304
X56.388Y-146.088
X56.388Y-151.088
X71.12Y-146.304
X71.12Y-151.304
X85.852Y-146.304
X85.852Y-151.304
T9
X24.384Y-146.235
X24.384Y-151.315
X32.004Y-146.235
X32.004Y-151.315
T10
X336.955Y-151.295
X336.955Y-167.045
T11
X43.396Y-57.125
X43.396Y-70.587
X46.825Y-57.125
X46.825Y-70.587
X56.248Y-57.125
X56.248Y-70.587
X59.677Y-57.125
X59.677Y-70.587
X67.831Y-57.125
X67.831Y-70.587
X71.26Y-57.125
X71.26Y-70.587
X81.648Y-57.125
X81.648Y-70.587
X85.077Y-57.125
X85.077Y-70.587
X95.313Y-57.125
X95.313Y-70.587
X98.742Y-57.125
X98.742Y-70.587
X109.233Y-57.175
X109.233Y-70.637
X112.662Y-57.175
X112.662Y-70.637
X123.406Y-57.125
X123.406Y-70.587
X126.835Y-57.125
X126.835Y-70.587
X137.63Y-57.125
X137.63Y-70.587
X141.059Y-57.125
X141.059Y-70.587
X151.295Y-57.175
X151.295Y-70.637
X154.724Y-57.175
X154.724Y-70.637
X173.329Y-57.086
X173.329Y-70.548
X176.758Y-57.086
X176.758Y-70.548
X191.175Y-57.249
X191.175Y-70.711
X194.604Y-57.249
X194.604Y-70.711
X208.801Y-57.175
X208.801Y-70.637
X212.23Y-57.175
X212.23Y-70.637
X227.139Y-57.051
X227.139Y-70.513
X230.569Y-57.051
X230.569Y-70.513
X245.226Y-57.097
X245.226Y-70.559
X248.655Y-57.097
X248.655Y-70.559
X263.106Y-57.074
X263.106Y-70.536
X266.535Y-57.074
X266.535Y-70.536
X280.988Y-57.226
X280.988Y-70.688
X284.416Y-57.226
X284.416Y-70.688
X298.818Y-57.125
X298.818Y-70.587
X302.247Y-57.125
X302.247Y-70.587
X317.083Y-56.877
X317.083Y-70.339
X320.512Y-56.877
X320.512Y-70.339
T13
X340.005Y-153.455
X340.005Y-164.885
T14
X32.512Y-102.616
X336.804Y-102.108
T12
X44.616Y-25.734G85X44.616Y-27.834
G05
X44.616Y-33.634G85X44.616Y-35.734
G05
X57.824Y-25.734G85X57.824Y-27.834
G05
X57.824Y-33.634G85X57.824Y-35.734
G05
X71.54Y-25.593G85X71.54Y-27.693
G05
X71.54Y-33.493G85X71.54Y-35.593
G05
X85.457Y-25.48G85X85.457Y-27.58
G05
X85.457Y-33.38G85X85.457Y-35.48
G05
X99.226Y-25.34G85X99.226Y-27.44
G05
X99.226Y-33.24G85X99.226Y-35.34
G05
X113.196Y-25.533G85X113.196Y-27.633
G05
X113.196Y-33.433G85X113.196Y-35.533
G05
X127.166Y-25.455G85X127.166Y-27.555
G05
X127.166Y-33.355G85X127.166Y-35.455
G05
X141.136Y-25.734G85X141.136Y-27.834
G05
X141.136Y-33.634G85X141.136Y-35.734
G05
X155.106Y-25.594G85X155.106Y-27.694
G05
X155.106Y-33.494G85X155.106Y-35.594
G05
X170.84Y-25.543G85X170.84Y-27.643
G05
X170.84Y-33.443G85X170.84Y-35.543
G05
X188.89Y-25.706G85X188.89Y-27.806
G05
X188.89Y-33.606G85X188.89Y-35.706
G05
X206.617Y-25.683G85X206.617Y-27.783
G05
X206.617Y-33.583G85X206.617Y-35.683
G05
X224.905Y-25.508G85X224.905Y-27.608
G05
X224.905Y-33.408G85X224.905Y-35.508
G05
X242.89Y-25.503G85X242.89Y-27.603
G05
X242.89Y-33.403G85X242.89Y-35.503
G05
X260.719Y-25.429G85X260.719Y-27.529
G05
X260.719Y-33.329G85X260.719Y-35.429
G05
X278.804Y-25.531G85X278.804Y-27.631
G05
X278.804Y-33.431G85X278.804Y-35.531
G05
X296.762Y-25.378G85X296.762Y-27.478
G05
X296.762Y-33.278G85X296.762Y-35.378
G05
X314.722Y-25.332G85X314.722Y-27.432
G05
X314.722Y-33.232G85X314.722Y-35.332
G05
T0
M30
