G04 #@! TF.GenerationSoftware,KiCad,Pcbnew,(6.0.7)*
G04 #@! TF.CreationDate,2023-03-20T21:13:55-05:00*
G04 #@! TF.ProjectId,2023 Powerboard,32303233-2050-46f7-9765-72626f617264,rev?*
G04 #@! TF.SameCoordinates,Original*
G04 #@! TF.FileFunction,Legend,Bot*
G04 #@! TF.FilePolarity,Positive*
%FSLAX46Y46*%
G04 Gerber Fmt 4.6, Leading zero omitted, Abs format (unit mm)*
G04 Created by KiCad (PCBNEW (6.0.7)) date 2023-03-20 21:13:55*
%MOMM*%
%LPD*%
G01*
G04 APERTURE LIST*
%ADD10C,1.270000*%
%ADD11C,0.150000*%
%ADD12R,2.600000X2.600000*%
%ADD13O,2.600000X2.600000*%
%ADD14R,2.400000X2.400000*%
%ADD15C,2.400000*%
%ADD16O,3.000000X5.100000*%
%ADD17C,2.946400*%
%ADD18C,2.819400*%
%ADD19C,18.288000*%
%ADD20C,1.308000*%
%ADD21C,1.208000*%
%ADD22C,1.524000*%
%ADD23C,1.100000*%
%ADD24C,1.400000*%
%ADD25C,4.000000*%
%ADD26C,2.000000*%
%ADD27O,5.100000X3.000000*%
G04 APERTURE END LIST*
D10*
X86009238Y-158266190D02*
X86009238Y-148106190D01*
X82138761Y-148106190D01*
X81171142Y-148590000D01*
X80687333Y-149073809D01*
X80203523Y-150041428D01*
X80203523Y-151492857D01*
X80687333Y-152460476D01*
X81171142Y-152944285D01*
X82138761Y-153428095D01*
X86009238Y-153428095D01*
X77300666Y-148106190D02*
X73914000Y-158266190D01*
X70527333Y-148106190D01*
X158108952Y-148590000D02*
X159076571Y-148106190D01*
X160528000Y-148106190D01*
X161979428Y-148590000D01*
X162947047Y-149557619D01*
X163430857Y-150525238D01*
X163914666Y-152460476D01*
X163914666Y-153911904D01*
X163430857Y-155847142D01*
X162947047Y-156814761D01*
X161979428Y-157782380D01*
X160528000Y-158266190D01*
X159560380Y-158266190D01*
X158108952Y-157782380D01*
X157625142Y-157298571D01*
X157625142Y-153911904D01*
X159560380Y-153911904D01*
X153270857Y-158266190D02*
X153270857Y-148106190D01*
X147465142Y-158266190D01*
X147465142Y-148106190D01*
X142627047Y-158266190D02*
X142627047Y-148106190D01*
X140208000Y-148106190D01*
X138756571Y-148590000D01*
X137788952Y-149557619D01*
X137305142Y-150525238D01*
X136821333Y-152460476D01*
X136821333Y-153911904D01*
X137305142Y-155847142D01*
X137788952Y-156814761D01*
X138756571Y-157782380D01*
X140208000Y-158266190D01*
X142627047Y-158266190D01*
D11*
X255015809Y-117705142D02*
X255063428Y-117752761D01*
X255206285Y-117800380D01*
X255301523Y-117800380D01*
X255444380Y-117752761D01*
X255539619Y-117657523D01*
X255587238Y-117562285D01*
X255634857Y-117371809D01*
X255634857Y-117228952D01*
X255587238Y-117038476D01*
X255539619Y-116943238D01*
X255444380Y-116848000D01*
X255301523Y-116800380D01*
X255206285Y-116800380D01*
X255063428Y-116848000D01*
X255015809Y-116895619D01*
X254444380Y-117800380D02*
X254539619Y-117752761D01*
X254587238Y-117705142D01*
X254634857Y-117609904D01*
X254634857Y-117324190D01*
X254587238Y-117228952D01*
X254539619Y-117181333D01*
X254444380Y-117133714D01*
X254301523Y-117133714D01*
X254206285Y-117181333D01*
X254158666Y-117228952D01*
X254111047Y-117324190D01*
X254111047Y-117609904D01*
X254158666Y-117705142D01*
X254206285Y-117752761D01*
X254301523Y-117800380D01*
X254444380Y-117800380D01*
X253682476Y-117133714D02*
X253682476Y-117800380D01*
X253682476Y-117228952D02*
X253634857Y-117181333D01*
X253539619Y-117133714D01*
X253396761Y-117133714D01*
X253301523Y-117181333D01*
X253253904Y-117276571D01*
X253253904Y-117800380D01*
X252777714Y-117133714D02*
X252777714Y-117800380D01*
X252777714Y-117228952D02*
X252730095Y-117181333D01*
X252634857Y-117133714D01*
X252492000Y-117133714D01*
X252396761Y-117181333D01*
X252349142Y-117276571D01*
X252349142Y-117800380D01*
X251444380Y-116800380D02*
X251634857Y-116800380D01*
X251730095Y-116848000D01*
X251777714Y-116895619D01*
X251872952Y-117038476D01*
X251920571Y-117228952D01*
X251920571Y-117609904D01*
X251872952Y-117705142D01*
X251825333Y-117752761D01*
X251730095Y-117800380D01*
X251539619Y-117800380D01*
X251444380Y-117752761D01*
X251396761Y-117705142D01*
X251349142Y-117609904D01*
X251349142Y-117371809D01*
X251396761Y-117276571D01*
X251444380Y-117228952D01*
X251539619Y-117181333D01*
X251730095Y-117181333D01*
X251825333Y-117228952D01*
X251872952Y-117276571D01*
X251920571Y-117371809D01*
X255190809Y-92402842D02*
X255238428Y-92450461D01*
X255381285Y-92498080D01*
X255476523Y-92498080D01*
X255619380Y-92450461D01*
X255714619Y-92355223D01*
X255762238Y-92259985D01*
X255809857Y-92069509D01*
X255809857Y-91926652D01*
X255762238Y-91736176D01*
X255714619Y-91640938D01*
X255619380Y-91545700D01*
X255476523Y-91498080D01*
X255381285Y-91498080D01*
X255238428Y-91545700D01*
X255190809Y-91593319D01*
X254619380Y-92498080D02*
X254714619Y-92450461D01*
X254762238Y-92402842D01*
X254809857Y-92307604D01*
X254809857Y-92021890D01*
X254762238Y-91926652D01*
X254714619Y-91879033D01*
X254619380Y-91831414D01*
X254476523Y-91831414D01*
X254381285Y-91879033D01*
X254333666Y-91926652D01*
X254286047Y-92021890D01*
X254286047Y-92307604D01*
X254333666Y-92402842D01*
X254381285Y-92450461D01*
X254476523Y-92498080D01*
X254619380Y-92498080D01*
X253857476Y-91831414D02*
X253857476Y-92498080D01*
X253857476Y-91926652D02*
X253809857Y-91879033D01*
X253714619Y-91831414D01*
X253571761Y-91831414D01*
X253476523Y-91879033D01*
X253428904Y-91974271D01*
X253428904Y-92498080D01*
X252952714Y-91831414D02*
X252952714Y-92498080D01*
X252952714Y-91926652D02*
X252905095Y-91879033D01*
X252809857Y-91831414D01*
X252667000Y-91831414D01*
X252571761Y-91879033D01*
X252524142Y-91974271D01*
X252524142Y-92498080D01*
X251571761Y-91498080D02*
X252047952Y-91498080D01*
X252095571Y-91974271D01*
X252047952Y-91926652D01*
X251952714Y-91879033D01*
X251714619Y-91879033D01*
X251619380Y-91926652D01*
X251571761Y-91974271D01*
X251524142Y-92069509D01*
X251524142Y-92307604D01*
X251571761Y-92402842D01*
X251619380Y-92450461D01*
X251714619Y-92498080D01*
X251952714Y-92498080D01*
X252047952Y-92450461D01*
X252095571Y-92402842D01*
X30194309Y-150624142D02*
X30241928Y-150671761D01*
X30384785Y-150719380D01*
X30480023Y-150719380D01*
X30622880Y-150671761D01*
X30718119Y-150576523D01*
X30765738Y-150481285D01*
X30813357Y-150290809D01*
X30813357Y-150147952D01*
X30765738Y-149957476D01*
X30718119Y-149862238D01*
X30622880Y-149767000D01*
X30480023Y-149719380D01*
X30384785Y-149719380D01*
X30241928Y-149767000D01*
X30194309Y-149814619D01*
X29622880Y-150719380D02*
X29718119Y-150671761D01*
X29765738Y-150624142D01*
X29813357Y-150528904D01*
X29813357Y-150243190D01*
X29765738Y-150147952D01*
X29718119Y-150100333D01*
X29622880Y-150052714D01*
X29480023Y-150052714D01*
X29384785Y-150100333D01*
X29337166Y-150147952D01*
X29289547Y-150243190D01*
X29289547Y-150528904D01*
X29337166Y-150624142D01*
X29384785Y-150671761D01*
X29480023Y-150719380D01*
X29622880Y-150719380D01*
X28860976Y-150052714D02*
X28860976Y-150719380D01*
X28860976Y-150147952D02*
X28813357Y-150100333D01*
X28718119Y-150052714D01*
X28575261Y-150052714D01*
X28480023Y-150100333D01*
X28432404Y-150195571D01*
X28432404Y-150719380D01*
X27956214Y-150052714D02*
X27956214Y-150719380D01*
X27956214Y-150147952D02*
X27908595Y-150100333D01*
X27813357Y-150052714D01*
X27670500Y-150052714D01*
X27575261Y-150100333D01*
X27527642Y-150195571D01*
X27527642Y-150719380D01*
X27146690Y-149719380D02*
X26527642Y-149719380D01*
X26860976Y-150100333D01*
X26718119Y-150100333D01*
X26622880Y-150147952D01*
X26575261Y-150195571D01*
X26527642Y-150290809D01*
X26527642Y-150528904D01*
X26575261Y-150624142D01*
X26622880Y-150671761D01*
X26718119Y-150719380D01*
X27003833Y-150719380D01*
X27099071Y-150671761D01*
X27146690Y-150624142D01*
X200672842Y-31823500D02*
X200720461Y-31775880D01*
X200768080Y-31633023D01*
X200768080Y-31537785D01*
X200720461Y-31394928D01*
X200625223Y-31299690D01*
X200529985Y-31252071D01*
X200339509Y-31204452D01*
X200196652Y-31204452D01*
X200006176Y-31252071D01*
X199910938Y-31299690D01*
X199815700Y-31394928D01*
X199768080Y-31537785D01*
X199768080Y-31633023D01*
X199815700Y-31775880D01*
X199863319Y-31823500D01*
X200768080Y-32394928D02*
X200720461Y-32299690D01*
X200672842Y-32252071D01*
X200577604Y-32204452D01*
X200291890Y-32204452D01*
X200196652Y-32252071D01*
X200149033Y-32299690D01*
X200101414Y-32394928D01*
X200101414Y-32537785D01*
X200149033Y-32633023D01*
X200196652Y-32680642D01*
X200291890Y-32728261D01*
X200577604Y-32728261D01*
X200672842Y-32680642D01*
X200720461Y-32633023D01*
X200768080Y-32537785D01*
X200768080Y-32394928D01*
X200101414Y-33156833D02*
X200768080Y-33156833D01*
X200196652Y-33156833D02*
X200149033Y-33204452D01*
X200101414Y-33299690D01*
X200101414Y-33442547D01*
X200149033Y-33537785D01*
X200244271Y-33585404D01*
X200768080Y-33585404D01*
X200101414Y-34061595D02*
X200768080Y-34061595D01*
X200196652Y-34061595D02*
X200149033Y-34109214D01*
X200101414Y-34204452D01*
X200101414Y-34347309D01*
X200149033Y-34442547D01*
X200244271Y-34490166D01*
X200768080Y-34490166D01*
X200768080Y-35490166D02*
X200768080Y-34918738D01*
X200768080Y-35204452D02*
X199768080Y-35204452D01*
X199910938Y-35109214D01*
X200006176Y-35013976D01*
X200053795Y-34918738D01*
X199768080Y-35823500D02*
X199768080Y-36442547D01*
X200149033Y-36109214D01*
X200149033Y-36252071D01*
X200196652Y-36347309D01*
X200244271Y-36394928D01*
X200339509Y-36442547D01*
X200577604Y-36442547D01*
X200672842Y-36394928D01*
X200720461Y-36347309D01*
X200768080Y-36252071D01*
X200768080Y-35966357D01*
X200720461Y-35871119D01*
X200672842Y-35823500D01*
X30134209Y-126078342D02*
X30181828Y-126125961D01*
X30324685Y-126173580D01*
X30419923Y-126173580D01*
X30562780Y-126125961D01*
X30658019Y-126030723D01*
X30705638Y-125935485D01*
X30753257Y-125745009D01*
X30753257Y-125602152D01*
X30705638Y-125411676D01*
X30658019Y-125316438D01*
X30562780Y-125221200D01*
X30419923Y-125173580D01*
X30324685Y-125173580D01*
X30181828Y-125221200D01*
X30134209Y-125268819D01*
X29562780Y-126173580D02*
X29658019Y-126125961D01*
X29705638Y-126078342D01*
X29753257Y-125983104D01*
X29753257Y-125697390D01*
X29705638Y-125602152D01*
X29658019Y-125554533D01*
X29562780Y-125506914D01*
X29419923Y-125506914D01*
X29324685Y-125554533D01*
X29277066Y-125602152D01*
X29229447Y-125697390D01*
X29229447Y-125983104D01*
X29277066Y-126078342D01*
X29324685Y-126125961D01*
X29419923Y-126173580D01*
X29562780Y-126173580D01*
X28800876Y-125506914D02*
X28800876Y-126173580D01*
X28800876Y-125602152D02*
X28753257Y-125554533D01*
X28658019Y-125506914D01*
X28515161Y-125506914D01*
X28419923Y-125554533D01*
X28372304Y-125649771D01*
X28372304Y-126173580D01*
X27896114Y-125506914D02*
X27896114Y-126173580D01*
X27896114Y-125602152D02*
X27848495Y-125554533D01*
X27753257Y-125506914D01*
X27610400Y-125506914D01*
X27515161Y-125554533D01*
X27467542Y-125649771D01*
X27467542Y-126173580D01*
X27038971Y-125268819D02*
X26991352Y-125221200D01*
X26896114Y-125173580D01*
X26658019Y-125173580D01*
X26562780Y-125221200D01*
X26515161Y-125268819D01*
X26467542Y-125364057D01*
X26467542Y-125459295D01*
X26515161Y-125602152D01*
X27086590Y-126173580D01*
X26467542Y-126173580D01*
X172732842Y-31823500D02*
X172780461Y-31775880D01*
X172828080Y-31633023D01*
X172828080Y-31537785D01*
X172780461Y-31394928D01*
X172685223Y-31299690D01*
X172589985Y-31252071D01*
X172399509Y-31204452D01*
X172256652Y-31204452D01*
X172066176Y-31252071D01*
X171970938Y-31299690D01*
X171875700Y-31394928D01*
X171828080Y-31537785D01*
X171828080Y-31633023D01*
X171875700Y-31775880D01*
X171923319Y-31823500D01*
X172828080Y-32394928D02*
X172780461Y-32299690D01*
X172732842Y-32252071D01*
X172637604Y-32204452D01*
X172351890Y-32204452D01*
X172256652Y-32252071D01*
X172209033Y-32299690D01*
X172161414Y-32394928D01*
X172161414Y-32537785D01*
X172209033Y-32633023D01*
X172256652Y-32680642D01*
X172351890Y-32728261D01*
X172637604Y-32728261D01*
X172732842Y-32680642D01*
X172780461Y-32633023D01*
X172828080Y-32537785D01*
X172828080Y-32394928D01*
X172161414Y-33156833D02*
X172828080Y-33156833D01*
X172256652Y-33156833D02*
X172209033Y-33204452D01*
X172161414Y-33299690D01*
X172161414Y-33442547D01*
X172209033Y-33537785D01*
X172304271Y-33585404D01*
X172828080Y-33585404D01*
X172161414Y-34061595D02*
X172828080Y-34061595D01*
X172256652Y-34061595D02*
X172209033Y-34109214D01*
X172161414Y-34204452D01*
X172161414Y-34347309D01*
X172209033Y-34442547D01*
X172304271Y-34490166D01*
X172828080Y-34490166D01*
X172828080Y-35490166D02*
X172828080Y-34918738D01*
X172828080Y-35204452D02*
X171828080Y-35204452D01*
X171970938Y-35109214D01*
X172066176Y-35013976D01*
X172113795Y-34918738D01*
X171828080Y-36394928D02*
X171828080Y-35918738D01*
X172304271Y-35871119D01*
X172256652Y-35918738D01*
X172209033Y-36013976D01*
X172209033Y-36252071D01*
X172256652Y-36347309D01*
X172304271Y-36394928D01*
X172399509Y-36442547D01*
X172637604Y-36442547D01*
X172732842Y-36394928D01*
X172780461Y-36347309D01*
X172828080Y-36252071D01*
X172828080Y-36013976D01*
X172780461Y-35918738D01*
X172732842Y-35871119D01*
X30194309Y-101094142D02*
X30241928Y-101141761D01*
X30384785Y-101189380D01*
X30480023Y-101189380D01*
X30622880Y-101141761D01*
X30718119Y-101046523D01*
X30765738Y-100951285D01*
X30813357Y-100760809D01*
X30813357Y-100617952D01*
X30765738Y-100427476D01*
X30718119Y-100332238D01*
X30622880Y-100237000D01*
X30480023Y-100189380D01*
X30384785Y-100189380D01*
X30241928Y-100237000D01*
X30194309Y-100284619D01*
X29622880Y-101189380D02*
X29718119Y-101141761D01*
X29765738Y-101094142D01*
X29813357Y-100998904D01*
X29813357Y-100713190D01*
X29765738Y-100617952D01*
X29718119Y-100570333D01*
X29622880Y-100522714D01*
X29480023Y-100522714D01*
X29384785Y-100570333D01*
X29337166Y-100617952D01*
X29289547Y-100713190D01*
X29289547Y-100998904D01*
X29337166Y-101094142D01*
X29384785Y-101141761D01*
X29480023Y-101189380D01*
X29622880Y-101189380D01*
X28860976Y-100522714D02*
X28860976Y-101189380D01*
X28860976Y-100617952D02*
X28813357Y-100570333D01*
X28718119Y-100522714D01*
X28575261Y-100522714D01*
X28480023Y-100570333D01*
X28432404Y-100665571D01*
X28432404Y-101189380D01*
X27956214Y-100522714D02*
X27956214Y-101189380D01*
X27956214Y-100617952D02*
X27908595Y-100570333D01*
X27813357Y-100522714D01*
X27670500Y-100522714D01*
X27575261Y-100570333D01*
X27527642Y-100665571D01*
X27527642Y-101189380D01*
X26527642Y-101189380D02*
X27099071Y-101189380D01*
X26813357Y-101189380D02*
X26813357Y-100189380D01*
X26908595Y-100332238D01*
X27003833Y-100427476D01*
X27099071Y-100475095D01*
X30479809Y-76468842D02*
X30527428Y-76516461D01*
X30670285Y-76564080D01*
X30765523Y-76564080D01*
X30908380Y-76516461D01*
X31003619Y-76421223D01*
X31051238Y-76325985D01*
X31098857Y-76135509D01*
X31098857Y-75992652D01*
X31051238Y-75802176D01*
X31003619Y-75706938D01*
X30908380Y-75611700D01*
X30765523Y-75564080D01*
X30670285Y-75564080D01*
X30527428Y-75611700D01*
X30479809Y-75659319D01*
X29908380Y-76564080D02*
X30003619Y-76516461D01*
X30051238Y-76468842D01*
X30098857Y-76373604D01*
X30098857Y-76087890D01*
X30051238Y-75992652D01*
X30003619Y-75945033D01*
X29908380Y-75897414D01*
X29765523Y-75897414D01*
X29670285Y-75945033D01*
X29622666Y-75992652D01*
X29575047Y-76087890D01*
X29575047Y-76373604D01*
X29622666Y-76468842D01*
X29670285Y-76516461D01*
X29765523Y-76564080D01*
X29908380Y-76564080D01*
X29146476Y-75897414D02*
X29146476Y-76564080D01*
X29146476Y-75992652D02*
X29098857Y-75945033D01*
X29003619Y-75897414D01*
X28860761Y-75897414D01*
X28765523Y-75945033D01*
X28717904Y-76040271D01*
X28717904Y-76564080D01*
X28241714Y-75897414D02*
X28241714Y-76564080D01*
X28241714Y-75992652D02*
X28194095Y-75945033D01*
X28098857Y-75897414D01*
X27956000Y-75897414D01*
X27860761Y-75945033D01*
X27813142Y-76040271D01*
X27813142Y-76564080D01*
X27194095Y-75992652D02*
X27289333Y-75945033D01*
X27336952Y-75897414D01*
X27384571Y-75802176D01*
X27384571Y-75754557D01*
X27336952Y-75659319D01*
X27289333Y-75611700D01*
X27194095Y-75564080D01*
X27003619Y-75564080D01*
X26908380Y-75611700D01*
X26860761Y-75659319D01*
X26813142Y-75754557D01*
X26813142Y-75802176D01*
X26860761Y-75897414D01*
X26908380Y-75945033D01*
X27003619Y-75992652D01*
X27194095Y-75992652D01*
X27289333Y-76040271D01*
X27336952Y-76087890D01*
X27384571Y-76183128D01*
X27384571Y-76373604D01*
X27336952Y-76468842D01*
X27289333Y-76516461D01*
X27194095Y-76564080D01*
X27003619Y-76564080D01*
X26908380Y-76516461D01*
X26860761Y-76468842D01*
X26813142Y-76373604D01*
X26813142Y-76183128D01*
X26860761Y-76087890D01*
X26908380Y-76040271D01*
X27003619Y-75992652D01*
X116852842Y-31823500D02*
X116900461Y-31775880D01*
X116948080Y-31633023D01*
X116948080Y-31537785D01*
X116900461Y-31394928D01*
X116805223Y-31299690D01*
X116709985Y-31252071D01*
X116519509Y-31204452D01*
X116376652Y-31204452D01*
X116186176Y-31252071D01*
X116090938Y-31299690D01*
X115995700Y-31394928D01*
X115948080Y-31537785D01*
X115948080Y-31633023D01*
X115995700Y-31775880D01*
X116043319Y-31823500D01*
X116948080Y-32394928D02*
X116900461Y-32299690D01*
X116852842Y-32252071D01*
X116757604Y-32204452D01*
X116471890Y-32204452D01*
X116376652Y-32252071D01*
X116329033Y-32299690D01*
X116281414Y-32394928D01*
X116281414Y-32537785D01*
X116329033Y-32633023D01*
X116376652Y-32680642D01*
X116471890Y-32728261D01*
X116757604Y-32728261D01*
X116852842Y-32680642D01*
X116900461Y-32633023D01*
X116948080Y-32537785D01*
X116948080Y-32394928D01*
X116281414Y-33156833D02*
X116948080Y-33156833D01*
X116376652Y-33156833D02*
X116329033Y-33204452D01*
X116281414Y-33299690D01*
X116281414Y-33442547D01*
X116329033Y-33537785D01*
X116424271Y-33585404D01*
X116948080Y-33585404D01*
X116281414Y-34061595D02*
X116948080Y-34061595D01*
X116376652Y-34061595D02*
X116329033Y-34109214D01*
X116281414Y-34204452D01*
X116281414Y-34347309D01*
X116329033Y-34442547D01*
X116424271Y-34490166D01*
X116948080Y-34490166D01*
X116948080Y-35490166D02*
X116948080Y-34918738D01*
X116948080Y-35204452D02*
X115948080Y-35204452D01*
X116090938Y-35109214D01*
X116186176Y-35013976D01*
X116233795Y-34918738D01*
X116948080Y-36442547D02*
X116948080Y-35871119D01*
X116948080Y-36156833D02*
X115948080Y-36156833D01*
X116090938Y-36061595D01*
X116186176Y-35966357D01*
X116233795Y-35871119D01*
X30743500Y-47437442D02*
X30791119Y-47485061D01*
X30933976Y-47532680D01*
X31029214Y-47532680D01*
X31172071Y-47485061D01*
X31267309Y-47389823D01*
X31314928Y-47294585D01*
X31362547Y-47104109D01*
X31362547Y-46961252D01*
X31314928Y-46770776D01*
X31267309Y-46675538D01*
X31172071Y-46580300D01*
X31029214Y-46532680D01*
X30933976Y-46532680D01*
X30791119Y-46580300D01*
X30743500Y-46627919D01*
X30172071Y-47532680D02*
X30267309Y-47485061D01*
X30314928Y-47437442D01*
X30362547Y-47342204D01*
X30362547Y-47056490D01*
X30314928Y-46961252D01*
X30267309Y-46913633D01*
X30172071Y-46866014D01*
X30029214Y-46866014D01*
X29933976Y-46913633D01*
X29886357Y-46961252D01*
X29838738Y-47056490D01*
X29838738Y-47342204D01*
X29886357Y-47437442D01*
X29933976Y-47485061D01*
X30029214Y-47532680D01*
X30172071Y-47532680D01*
X29410166Y-46866014D02*
X29410166Y-47532680D01*
X29410166Y-46961252D02*
X29362547Y-46913633D01*
X29267309Y-46866014D01*
X29124452Y-46866014D01*
X29029214Y-46913633D01*
X28981595Y-47008871D01*
X28981595Y-47532680D01*
X28505404Y-46866014D02*
X28505404Y-47532680D01*
X28505404Y-46961252D02*
X28457785Y-46913633D01*
X28362547Y-46866014D01*
X28219690Y-46866014D01*
X28124452Y-46913633D01*
X28076833Y-47008871D01*
X28076833Y-47532680D01*
X27076833Y-47532680D02*
X27648261Y-47532680D01*
X27362547Y-47532680D02*
X27362547Y-46532680D01*
X27457785Y-46675538D01*
X27553023Y-46770776D01*
X27648261Y-46818395D01*
X26505404Y-46961252D02*
X26600642Y-46913633D01*
X26648261Y-46866014D01*
X26695880Y-46770776D01*
X26695880Y-46723157D01*
X26648261Y-46627919D01*
X26600642Y-46580300D01*
X26505404Y-46532680D01*
X26314928Y-46532680D01*
X26219690Y-46580300D01*
X26172071Y-46627919D01*
X26124452Y-46723157D01*
X26124452Y-46770776D01*
X26172071Y-46866014D01*
X26219690Y-46913633D01*
X26314928Y-46961252D01*
X26505404Y-46961252D01*
X26600642Y-47008871D01*
X26648261Y-47056490D01*
X26695880Y-47151728D01*
X26695880Y-47342204D01*
X26648261Y-47437442D01*
X26600642Y-47485061D01*
X26505404Y-47532680D01*
X26314928Y-47532680D01*
X26219690Y-47485061D01*
X26172071Y-47437442D01*
X26124452Y-47342204D01*
X26124452Y-47151728D01*
X26172071Y-47056490D01*
X26219690Y-47008871D01*
X26314928Y-46961252D01*
X144792842Y-31823500D02*
X144840461Y-31775880D01*
X144888080Y-31633023D01*
X144888080Y-31537785D01*
X144840461Y-31394928D01*
X144745223Y-31299690D01*
X144649985Y-31252071D01*
X144459509Y-31204452D01*
X144316652Y-31204452D01*
X144126176Y-31252071D01*
X144030938Y-31299690D01*
X143935700Y-31394928D01*
X143888080Y-31537785D01*
X143888080Y-31633023D01*
X143935700Y-31775880D01*
X143983319Y-31823500D01*
X144888080Y-32394928D02*
X144840461Y-32299690D01*
X144792842Y-32252071D01*
X144697604Y-32204452D01*
X144411890Y-32204452D01*
X144316652Y-32252071D01*
X144269033Y-32299690D01*
X144221414Y-32394928D01*
X144221414Y-32537785D01*
X144269033Y-32633023D01*
X144316652Y-32680642D01*
X144411890Y-32728261D01*
X144697604Y-32728261D01*
X144792842Y-32680642D01*
X144840461Y-32633023D01*
X144888080Y-32537785D01*
X144888080Y-32394928D01*
X144221414Y-33156833D02*
X144888080Y-33156833D01*
X144316652Y-33156833D02*
X144269033Y-33204452D01*
X144221414Y-33299690D01*
X144221414Y-33442547D01*
X144269033Y-33537785D01*
X144364271Y-33585404D01*
X144888080Y-33585404D01*
X144221414Y-34061595D02*
X144888080Y-34061595D01*
X144316652Y-34061595D02*
X144269033Y-34109214D01*
X144221414Y-34204452D01*
X144221414Y-34347309D01*
X144269033Y-34442547D01*
X144364271Y-34490166D01*
X144888080Y-34490166D01*
X144888080Y-35490166D02*
X144888080Y-34918738D01*
X144888080Y-35204452D02*
X143888080Y-35204452D01*
X144030938Y-35109214D01*
X144126176Y-35013976D01*
X144173795Y-34918738D01*
X143983319Y-35871119D02*
X143935700Y-35918738D01*
X143888080Y-36013976D01*
X143888080Y-36252071D01*
X143935700Y-36347309D01*
X143983319Y-36394928D01*
X144078557Y-36442547D01*
X144173795Y-36442547D01*
X144316652Y-36394928D01*
X144888080Y-35823500D01*
X144888080Y-36442547D01*
X30743500Y-67249442D02*
X30791119Y-67297061D01*
X30933976Y-67344680D01*
X31029214Y-67344680D01*
X31172071Y-67297061D01*
X31267309Y-67201823D01*
X31314928Y-67106585D01*
X31362547Y-66916109D01*
X31362547Y-66773252D01*
X31314928Y-66582776D01*
X31267309Y-66487538D01*
X31172071Y-66392300D01*
X31029214Y-66344680D01*
X30933976Y-66344680D01*
X30791119Y-66392300D01*
X30743500Y-66439919D01*
X30172071Y-67344680D02*
X30267309Y-67297061D01*
X30314928Y-67249442D01*
X30362547Y-67154204D01*
X30362547Y-66868490D01*
X30314928Y-66773252D01*
X30267309Y-66725633D01*
X30172071Y-66678014D01*
X30029214Y-66678014D01*
X29933976Y-66725633D01*
X29886357Y-66773252D01*
X29838738Y-66868490D01*
X29838738Y-67154204D01*
X29886357Y-67249442D01*
X29933976Y-67297061D01*
X30029214Y-67344680D01*
X30172071Y-67344680D01*
X29410166Y-66678014D02*
X29410166Y-67344680D01*
X29410166Y-66773252D02*
X29362547Y-66725633D01*
X29267309Y-66678014D01*
X29124452Y-66678014D01*
X29029214Y-66725633D01*
X28981595Y-66820871D01*
X28981595Y-67344680D01*
X28505404Y-66678014D02*
X28505404Y-67344680D01*
X28505404Y-66773252D02*
X28457785Y-66725633D01*
X28362547Y-66678014D01*
X28219690Y-66678014D01*
X28124452Y-66725633D01*
X28076833Y-66820871D01*
X28076833Y-67344680D01*
X27076833Y-67344680D02*
X27648261Y-67344680D01*
X27362547Y-67344680D02*
X27362547Y-66344680D01*
X27457785Y-66487538D01*
X27553023Y-66582776D01*
X27648261Y-66630395D01*
X26743500Y-66344680D02*
X26076833Y-66344680D01*
X26505404Y-67344680D01*
X88912842Y-31823500D02*
X88960461Y-31775880D01*
X89008080Y-31633023D01*
X89008080Y-31537785D01*
X88960461Y-31394928D01*
X88865223Y-31299690D01*
X88769985Y-31252071D01*
X88579509Y-31204452D01*
X88436652Y-31204452D01*
X88246176Y-31252071D01*
X88150938Y-31299690D01*
X88055700Y-31394928D01*
X88008080Y-31537785D01*
X88008080Y-31633023D01*
X88055700Y-31775880D01*
X88103319Y-31823500D01*
X89008080Y-32394928D02*
X88960461Y-32299690D01*
X88912842Y-32252071D01*
X88817604Y-32204452D01*
X88531890Y-32204452D01*
X88436652Y-32252071D01*
X88389033Y-32299690D01*
X88341414Y-32394928D01*
X88341414Y-32537785D01*
X88389033Y-32633023D01*
X88436652Y-32680642D01*
X88531890Y-32728261D01*
X88817604Y-32728261D01*
X88912842Y-32680642D01*
X88960461Y-32633023D01*
X89008080Y-32537785D01*
X89008080Y-32394928D01*
X88341414Y-33156833D02*
X89008080Y-33156833D01*
X88436652Y-33156833D02*
X88389033Y-33204452D01*
X88341414Y-33299690D01*
X88341414Y-33442547D01*
X88389033Y-33537785D01*
X88484271Y-33585404D01*
X89008080Y-33585404D01*
X88341414Y-34061595D02*
X89008080Y-34061595D01*
X88436652Y-34061595D02*
X88389033Y-34109214D01*
X88341414Y-34204452D01*
X88341414Y-34347309D01*
X88389033Y-34442547D01*
X88484271Y-34490166D01*
X89008080Y-34490166D01*
X89008080Y-35490166D02*
X89008080Y-34918738D01*
X89008080Y-35204452D02*
X88008080Y-35204452D01*
X88150938Y-35109214D01*
X88246176Y-35013976D01*
X88293795Y-34918738D01*
X88008080Y-36109214D02*
X88008080Y-36204452D01*
X88055700Y-36299690D01*
X88103319Y-36347309D01*
X88198557Y-36394928D01*
X88389033Y-36442547D01*
X88627128Y-36442547D01*
X88817604Y-36394928D01*
X88912842Y-36347309D01*
X88960461Y-36299690D01*
X89008080Y-36204452D01*
X89008080Y-36109214D01*
X88960461Y-36013976D01*
X88912842Y-35966357D01*
X88817604Y-35918738D01*
X88627128Y-35871119D01*
X88389033Y-35871119D01*
X88198557Y-35918738D01*
X88103319Y-35966357D01*
X88055700Y-36013976D01*
X88008080Y-36109214D01*
X60972842Y-31823500D02*
X61020461Y-31775880D01*
X61068080Y-31633023D01*
X61068080Y-31537785D01*
X61020461Y-31394928D01*
X60925223Y-31299690D01*
X60829985Y-31252071D01*
X60639509Y-31204452D01*
X60496652Y-31204452D01*
X60306176Y-31252071D01*
X60210938Y-31299690D01*
X60115700Y-31394928D01*
X60068080Y-31537785D01*
X60068080Y-31633023D01*
X60115700Y-31775880D01*
X60163319Y-31823500D01*
X61068080Y-32394928D02*
X61020461Y-32299690D01*
X60972842Y-32252071D01*
X60877604Y-32204452D01*
X60591890Y-32204452D01*
X60496652Y-32252071D01*
X60449033Y-32299690D01*
X60401414Y-32394928D01*
X60401414Y-32537785D01*
X60449033Y-32633023D01*
X60496652Y-32680642D01*
X60591890Y-32728261D01*
X60877604Y-32728261D01*
X60972842Y-32680642D01*
X61020461Y-32633023D01*
X61068080Y-32537785D01*
X61068080Y-32394928D01*
X60401414Y-33156833D02*
X61068080Y-33156833D01*
X60496652Y-33156833D02*
X60449033Y-33204452D01*
X60401414Y-33299690D01*
X60401414Y-33442547D01*
X60449033Y-33537785D01*
X60544271Y-33585404D01*
X61068080Y-33585404D01*
X60401414Y-34061595D02*
X61068080Y-34061595D01*
X60496652Y-34061595D02*
X60449033Y-34109214D01*
X60401414Y-34204452D01*
X60401414Y-34347309D01*
X60449033Y-34442547D01*
X60544271Y-34490166D01*
X61068080Y-34490166D01*
X61068080Y-35490166D02*
X61068080Y-34918738D01*
X61068080Y-35204452D02*
X60068080Y-35204452D01*
X60210938Y-35109214D01*
X60306176Y-35013976D01*
X60353795Y-34918738D01*
X60401414Y-36347309D02*
X61068080Y-36347309D01*
X60020461Y-36109214D02*
X60734747Y-35871119D01*
X60734747Y-36490166D01*
X255212009Y-67256842D02*
X255259628Y-67304461D01*
X255402485Y-67352080D01*
X255497723Y-67352080D01*
X255640580Y-67304461D01*
X255735819Y-67209223D01*
X255783438Y-67113985D01*
X255831057Y-66923509D01*
X255831057Y-66780652D01*
X255783438Y-66590176D01*
X255735819Y-66494938D01*
X255640580Y-66399700D01*
X255497723Y-66352080D01*
X255402485Y-66352080D01*
X255259628Y-66399700D01*
X255212009Y-66447319D01*
X254640580Y-67352080D02*
X254735819Y-67304461D01*
X254783438Y-67256842D01*
X254831057Y-67161604D01*
X254831057Y-66875890D01*
X254783438Y-66780652D01*
X254735819Y-66733033D01*
X254640580Y-66685414D01*
X254497723Y-66685414D01*
X254402485Y-66733033D01*
X254354866Y-66780652D01*
X254307247Y-66875890D01*
X254307247Y-67161604D01*
X254354866Y-67256842D01*
X254402485Y-67304461D01*
X254497723Y-67352080D01*
X254640580Y-67352080D01*
X253878676Y-66685414D02*
X253878676Y-67352080D01*
X253878676Y-66780652D02*
X253831057Y-66733033D01*
X253735819Y-66685414D01*
X253592961Y-66685414D01*
X253497723Y-66733033D01*
X253450104Y-66828271D01*
X253450104Y-67352080D01*
X252973914Y-66685414D02*
X252973914Y-67352080D01*
X252973914Y-66780652D02*
X252926295Y-66733033D01*
X252831057Y-66685414D01*
X252688200Y-66685414D01*
X252592961Y-66733033D01*
X252545342Y-66828271D01*
X252545342Y-67352080D01*
X251640580Y-66685414D02*
X251640580Y-67352080D01*
X251878676Y-66304461D02*
X252116771Y-67018747D01*
X251497723Y-67018747D01*
X276011000Y-108531700D02*
X276011000Y-116405700D01*
X263692000Y-108531700D02*
X251398400Y-108531700D01*
X265978000Y-110817700D02*
X265978000Y-114119700D01*
X276011000Y-108506300D02*
X267121000Y-108506300D01*
X268289400Y-116405700D02*
X267121000Y-116405700D01*
X251373000Y-116405700D02*
X251373000Y-108531700D01*
X263692000Y-108531700D02*
X264835000Y-108531700D01*
X265978000Y-110817700D02*
X265978000Y-109674700D01*
X265978000Y-114094300D02*
X265978000Y-115262700D01*
X263692000Y-116405700D02*
X251398400Y-116405700D01*
X263666600Y-116405700D02*
X264860400Y-116405700D01*
X268264000Y-116405700D02*
X276011000Y-116405700D01*
X265978000Y-109674700D02*
G75*
G03*
X267121000Y-108531700I0J1143000D01*
G01*
X265978000Y-115288100D02*
G75*
G03*
X264860400Y-116405700I-2J-1117598D01*
G01*
X267095600Y-116405700D02*
G75*
G03*
X265978000Y-115288100I-1117598J2D01*
G01*
X264835000Y-108531700D02*
G75*
G03*
X265978000Y-109674700I1143000J0D01*
G01*
X251373000Y-91259700D02*
X251373000Y-83385700D01*
X263692000Y-83385700D02*
X251398400Y-83385700D01*
X265978000Y-85671700D02*
X265978000Y-84528700D01*
X265978000Y-88948300D02*
X265978000Y-90116700D01*
X268289400Y-91259700D02*
X267121000Y-91259700D01*
X263692000Y-91259700D02*
X251398400Y-91259700D01*
X263666600Y-91259700D02*
X264860400Y-91259700D01*
X268264000Y-91259700D02*
X276011000Y-91259700D01*
X276011000Y-83360300D02*
X267121000Y-83360300D01*
X276011000Y-83385700D02*
X276011000Y-91259700D01*
X265978000Y-85671700D02*
X265978000Y-88973700D01*
X263692000Y-83385700D02*
X264835000Y-83385700D01*
X267095600Y-91259700D02*
G75*
G03*
X265978000Y-90142100I-1117598J2D01*
G01*
X265978000Y-90142100D02*
G75*
G03*
X264860400Y-91259700I-2J-1117598D01*
G01*
X265978000Y-84528700D02*
G75*
G03*
X267121000Y-83385700I0J1143000D01*
G01*
X264835000Y-83385700D02*
G75*
G03*
X265978000Y-84528700I1143000J0D01*
G01*
X13943300Y-151229900D02*
X15111700Y-151229900D01*
X18540700Y-159103900D02*
X17397700Y-159103900D01*
X18566100Y-151229900D02*
X17372300Y-151229900D01*
X18540700Y-151229900D02*
X30834300Y-151229900D01*
X16254700Y-156817900D02*
X16254700Y-153515900D01*
X30859700Y-151229900D02*
X30859700Y-159103900D01*
X6221700Y-159129300D02*
X15111700Y-159129300D01*
X16254700Y-156817900D02*
X16254700Y-157960900D01*
X16254700Y-153541300D02*
X16254700Y-152372900D01*
X13968700Y-151229900D02*
X6221700Y-151229900D01*
X6221700Y-159103900D02*
X6221700Y-151229900D01*
X18540700Y-159103900D02*
X30834300Y-159103900D01*
X15137100Y-151229900D02*
G75*
G03*
X16254700Y-152347500I1117598J-2D01*
G01*
X16254700Y-157960900D02*
G75*
G03*
X15111700Y-159103900I0J-1143000D01*
G01*
X17397700Y-159103900D02*
G75*
G03*
X16254700Y-157960900I-1143000J0D01*
G01*
X16254700Y-152347500D02*
G75*
G03*
X17372300Y-151229900I2J1117598D01*
G01*
X197218300Y-21512500D02*
X198386700Y-21512500D01*
X199529700Y-19226500D02*
X199529700Y-11479500D01*
X193941700Y-21512500D02*
X192798700Y-21512500D01*
X199529700Y-19201100D02*
X199529700Y-20369500D01*
X191630300Y-11479500D02*
X191630300Y-20369500D01*
X193941700Y-21512500D02*
X197243700Y-21512500D01*
X199529700Y-23823900D02*
X199529700Y-22630100D01*
X191655700Y-11479500D02*
X199529700Y-11479500D01*
X191655700Y-23798500D02*
X191655700Y-36092100D01*
X191655700Y-23798500D02*
X191655700Y-22655500D01*
X199529700Y-23798500D02*
X199529700Y-36092100D01*
X199529700Y-36117500D02*
X191655700Y-36117500D01*
X199529700Y-20394900D02*
G75*
G03*
X198412100Y-21512500I-2J-1117598D01*
G01*
X191655700Y-22655500D02*
G75*
G03*
X192798700Y-21512500I0J1143000D01*
G01*
X192798700Y-21512500D02*
G75*
G03*
X191655700Y-20369500I-1143000J0D01*
G01*
X198412100Y-21512500D02*
G75*
G03*
X199529700Y-22630100I1117598J-2D01*
G01*
X18585400Y-134381200D02*
X17442400Y-134381200D01*
X16299400Y-132095200D02*
X16299400Y-128793200D01*
X14013400Y-126507200D02*
X6266400Y-126507200D01*
X16299400Y-128818600D02*
X16299400Y-127650200D01*
X18610800Y-126507200D02*
X17417000Y-126507200D01*
X30904400Y-126507200D02*
X30904400Y-134381200D01*
X13988000Y-126507200D02*
X15156400Y-126507200D01*
X6266400Y-134406600D02*
X15156400Y-134406600D01*
X16299400Y-132095200D02*
X16299400Y-133238200D01*
X18585400Y-126507200D02*
X30879000Y-126507200D01*
X18585400Y-134381200D02*
X30879000Y-134381200D01*
X6266400Y-134381200D02*
X6266400Y-126507200D01*
X15181800Y-126507200D02*
G75*
G03*
X16299400Y-127624800I1117598J-2D01*
G01*
X16299400Y-127624800D02*
G75*
G03*
X17417000Y-126507200I2J1117598D01*
G01*
X16299400Y-133238200D02*
G75*
G03*
X15156400Y-134381200I0J-1143000D01*
G01*
X17442400Y-134381200D02*
G75*
G03*
X16299400Y-133238200I-1143000J0D01*
G01*
X163715700Y-23798500D02*
X163715700Y-36092100D01*
X171589700Y-23798500D02*
X171589700Y-36092100D01*
X163715700Y-11479500D02*
X171589700Y-11479500D01*
X163715700Y-23798500D02*
X163715700Y-22655500D01*
X171589700Y-23823900D02*
X171589700Y-22630100D01*
X166001700Y-21512500D02*
X169303700Y-21512500D01*
X169278300Y-21512500D02*
X170446700Y-21512500D01*
X166001700Y-21512500D02*
X164858700Y-21512500D01*
X171589700Y-36117500D02*
X163715700Y-36117500D01*
X163690300Y-11479500D02*
X163690300Y-20369500D01*
X171589700Y-19226500D02*
X171589700Y-11479500D01*
X171589700Y-19201100D02*
X171589700Y-20369500D01*
X164858700Y-21512500D02*
G75*
G03*
X163715700Y-20369500I-1143000J0D01*
G01*
X163715700Y-22655500D02*
G75*
G03*
X164858700Y-21512500I0J1143000D01*
G01*
X171589700Y-20394900D02*
G75*
G03*
X170472100Y-21512500I-2J-1117598D01*
G01*
X170472100Y-21512500D02*
G75*
G03*
X171589700Y-22630100I1117598J-2D01*
G01*
X14019500Y-101668500D02*
X6272500Y-101668500D01*
X18616900Y-101668500D02*
X17423100Y-101668500D01*
X6272500Y-109567900D02*
X15162500Y-109567900D01*
X6272500Y-109542500D02*
X6272500Y-101668500D01*
X16305500Y-107256500D02*
X16305500Y-103954500D01*
X16305500Y-103979900D02*
X16305500Y-102811500D01*
X13994100Y-101668500D02*
X15162500Y-101668500D01*
X16305500Y-107256500D02*
X16305500Y-108399500D01*
X18591500Y-101668500D02*
X30885100Y-101668500D01*
X30910500Y-101668500D02*
X30910500Y-109542500D01*
X18591500Y-109542500D02*
X17448500Y-109542500D01*
X18591500Y-109542500D02*
X30885100Y-109542500D01*
X16305500Y-102786100D02*
G75*
G03*
X17423100Y-101668500I2J1117598D01*
G01*
X17448500Y-109542500D02*
G75*
G03*
X16305500Y-108399500I-1143000J0D01*
G01*
X15187900Y-101668500D02*
G75*
G03*
X16305500Y-102786100I1117598J-2D01*
G01*
X16305500Y-108399500D02*
G75*
G03*
X15162500Y-109542500I0J-1143000D01*
G01*
X14146500Y-76988000D02*
X6399500Y-76988000D01*
X6399500Y-84862000D02*
X6399500Y-76988000D01*
X18718500Y-84862000D02*
X31012100Y-84862000D01*
X16432500Y-82576000D02*
X16432500Y-83719000D01*
X18718500Y-76988000D02*
X31012100Y-76988000D01*
X16432500Y-79299400D02*
X16432500Y-78131000D01*
X14121100Y-76988000D02*
X15289500Y-76988000D01*
X31037500Y-76988000D02*
X31037500Y-84862000D01*
X18718500Y-84862000D02*
X17575500Y-84862000D01*
X16432500Y-82576000D02*
X16432500Y-79274000D01*
X6399500Y-84887400D02*
X15289500Y-84887400D01*
X18743900Y-76988000D02*
X17550100Y-76988000D01*
X16432500Y-83719000D02*
G75*
G03*
X15289500Y-84862000I0J-1143000D01*
G01*
X17575500Y-84862000D02*
G75*
G03*
X16432500Y-83719000I-1143000J0D01*
G01*
X16432500Y-78105600D02*
G75*
G03*
X17550100Y-76988000I2J1117598D01*
G01*
X15314900Y-76988000D02*
G75*
G03*
X16432500Y-78105600I1117598J-2D01*
G01*
X115709700Y-23798500D02*
X115709700Y-36092100D01*
X110121700Y-21512500D02*
X113423700Y-21512500D01*
X115709700Y-36117500D02*
X107835700Y-36117500D01*
X107835700Y-23798500D02*
X107835700Y-22655500D01*
X113398300Y-21512500D02*
X114566700Y-21512500D01*
X110121700Y-21512500D02*
X108978700Y-21512500D01*
X107810300Y-11479500D02*
X107810300Y-20369500D01*
X107835700Y-11479500D02*
X115709700Y-11479500D01*
X115709700Y-19226500D02*
X115709700Y-11479500D01*
X115709700Y-19201100D02*
X115709700Y-20369500D01*
X115709700Y-23823900D02*
X115709700Y-22630100D01*
X107835700Y-23798500D02*
X107835700Y-36092100D01*
X114592100Y-21512500D02*
G75*
G03*
X115709700Y-22630100I1117598J-2D01*
G01*
X107835700Y-22655500D02*
G75*
G03*
X108978700Y-21512500I0J1143000D01*
G01*
X108978700Y-21512500D02*
G75*
G03*
X107835700Y-20369500I-1143000J0D01*
G01*
X115709700Y-20394900D02*
G75*
G03*
X114592100Y-21512500I-2J-1117598D01*
G01*
X18743900Y-47866300D02*
X17550100Y-47866300D01*
X16432500Y-50177700D02*
X16432500Y-49009300D01*
X16432500Y-53454300D02*
X16432500Y-50152300D01*
X14121100Y-47866300D02*
X15289500Y-47866300D01*
X18718500Y-55740300D02*
X17575500Y-55740300D01*
X31037500Y-47866300D02*
X31037500Y-55740300D01*
X18718500Y-55740300D02*
X31012100Y-55740300D01*
X18718500Y-47866300D02*
X31012100Y-47866300D01*
X16432500Y-53454300D02*
X16432500Y-54597300D01*
X14146500Y-47866300D02*
X6399500Y-47866300D01*
X6399500Y-55740300D02*
X6399500Y-47866300D01*
X6399500Y-55765700D02*
X15289500Y-55765700D01*
X16432500Y-48983900D02*
G75*
G03*
X17550100Y-47866300I2J1117598D01*
G01*
X16432500Y-54597300D02*
G75*
G03*
X15289500Y-55740300I0J-1143000D01*
G01*
X17575500Y-55740300D02*
G75*
G03*
X16432500Y-54597300I-1143000J0D01*
G01*
X15314900Y-47866300D02*
G75*
G03*
X16432500Y-48983900I1117598J-2D01*
G01*
X138061700Y-21512500D02*
X141363700Y-21512500D01*
X135775700Y-23798500D02*
X135775700Y-36092100D01*
X135775700Y-23798500D02*
X135775700Y-22655500D01*
X138061700Y-21512500D02*
X136918700Y-21512500D01*
X143649700Y-19201100D02*
X143649700Y-20369500D01*
X143649700Y-36117500D02*
X135775700Y-36117500D01*
X143649700Y-19226500D02*
X143649700Y-11479500D01*
X135775700Y-11479500D02*
X143649700Y-11479500D01*
X143649700Y-23823900D02*
X143649700Y-22630100D01*
X135750300Y-11479500D02*
X135750300Y-20369500D01*
X141338300Y-21512500D02*
X142506700Y-21512500D01*
X143649700Y-23798500D02*
X143649700Y-36092100D01*
X136918700Y-21512500D02*
G75*
G03*
X135775700Y-20369500I-1143000J0D01*
G01*
X143649700Y-20394900D02*
G75*
G03*
X142532100Y-21512500I-2J-1117598D01*
G01*
X142532100Y-21512500D02*
G75*
G03*
X143649700Y-22630100I1117598J-2D01*
G01*
X135775700Y-22655500D02*
G75*
G03*
X136918700Y-21512500I0J1143000D01*
G01*
X18743900Y-67678300D02*
X17550100Y-67678300D01*
X31037500Y-67678300D02*
X31037500Y-75552300D01*
X16432500Y-73266300D02*
X16432500Y-69964300D01*
X16432500Y-73266300D02*
X16432500Y-74409300D01*
X18718500Y-75552300D02*
X17575500Y-75552300D01*
X18718500Y-75552300D02*
X31012100Y-75552300D01*
X6399500Y-75552300D02*
X6399500Y-67678300D01*
X6399500Y-75577700D02*
X15289500Y-75577700D01*
X14121100Y-67678300D02*
X15289500Y-67678300D01*
X14146500Y-67678300D02*
X6399500Y-67678300D01*
X18718500Y-67678300D02*
X31012100Y-67678300D01*
X16432500Y-69989700D02*
X16432500Y-68821300D01*
X17575500Y-75552300D02*
G75*
G03*
X16432500Y-74409300I-1143000J0D01*
G01*
X16432500Y-74409300D02*
G75*
G03*
X15289500Y-75552300I0J-1143000D01*
G01*
X15314900Y-67678300D02*
G75*
G03*
X16432500Y-68795900I1117598J-2D01*
G01*
X16432500Y-68795900D02*
G75*
G03*
X17550100Y-67678300I2J1117598D01*
G01*
X79895700Y-11479500D02*
X87769700Y-11479500D01*
X79870300Y-11479500D02*
X79870300Y-20369500D01*
X87769700Y-23798500D02*
X87769700Y-36092100D01*
X82181700Y-21512500D02*
X85483700Y-21512500D01*
X87769700Y-19226500D02*
X87769700Y-11479500D01*
X87769700Y-36117500D02*
X79895700Y-36117500D01*
X79895700Y-23798500D02*
X79895700Y-22655500D01*
X82181700Y-21512500D02*
X81038700Y-21512500D01*
X85458300Y-21512500D02*
X86626700Y-21512500D01*
X87769700Y-23823900D02*
X87769700Y-22630100D01*
X79895700Y-23798500D02*
X79895700Y-36092100D01*
X87769700Y-19201100D02*
X87769700Y-20369500D01*
X79895700Y-22655500D02*
G75*
G03*
X81038700Y-21512500I0J1143000D01*
G01*
X87769700Y-20394900D02*
G75*
G03*
X86652100Y-21512500I-2J-1117598D01*
G01*
X86652100Y-21512500D02*
G75*
G03*
X87769700Y-22630100I1117598J-2D01*
G01*
X81038700Y-21512500D02*
G75*
G03*
X79895700Y-20369500I-1143000J0D01*
G01*
X59829700Y-23823900D02*
X59829700Y-22630100D01*
X59829700Y-19226500D02*
X59829700Y-11479500D01*
X59829700Y-36117500D02*
X51955700Y-36117500D01*
X54241700Y-21512500D02*
X53098700Y-21512500D01*
X51955700Y-23798500D02*
X51955700Y-36092100D01*
X51930300Y-11479500D02*
X51930300Y-20369500D01*
X57518300Y-21512500D02*
X58686700Y-21512500D01*
X51955700Y-11479500D02*
X59829700Y-11479500D01*
X59829700Y-23798500D02*
X59829700Y-36092100D01*
X51955700Y-23798500D02*
X51955700Y-22655500D01*
X54241700Y-21512500D02*
X57543700Y-21512500D01*
X59829700Y-19201100D02*
X59829700Y-20369500D01*
X51955700Y-22655500D02*
G75*
G03*
X53098700Y-21512500I0J1143000D01*
G01*
X58712100Y-21512500D02*
G75*
G03*
X59829700Y-22630100I1117598J-2D01*
G01*
X53098700Y-21512500D02*
G75*
G03*
X51955700Y-20369500I-1143000J0D01*
G01*
X59829700Y-20394900D02*
G75*
G03*
X58712100Y-21512500I-2J-1117598D01*
G01*
X263713200Y-66113700D02*
X251419600Y-66113700D01*
X263687800Y-66113700D02*
X264881600Y-66113700D01*
X268310600Y-66113700D02*
X267142200Y-66113700D01*
X276032200Y-58239700D02*
X276032200Y-66113700D01*
X265999200Y-60525700D02*
X265999200Y-63827700D01*
X265999200Y-60525700D02*
X265999200Y-59382700D01*
X265999200Y-63802300D02*
X265999200Y-64970700D01*
X263713200Y-58239700D02*
X251419600Y-58239700D01*
X263713200Y-58239700D02*
X264856200Y-58239700D01*
X276032200Y-58214300D02*
X267142200Y-58214300D01*
X268285200Y-66113700D02*
X276032200Y-66113700D01*
X251394200Y-66113700D02*
X251394200Y-58239700D01*
X267116800Y-66113700D02*
G75*
G03*
X265999200Y-64996100I-1117598J2D01*
G01*
X265999200Y-64996100D02*
G75*
G03*
X264881600Y-66113700I-2J-1117598D01*
G01*
X265999200Y-59382700D02*
G75*
G03*
X267142200Y-58239700I0J1143000D01*
G01*
X264856200Y-58239700D02*
G75*
G03*
X265999200Y-59382700I1143000J0D01*
G01*
%LPC*%
D12*
X114554000Y-168295000D03*
D13*
X114554000Y-163215000D03*
D14*
X97282000Y-168402000D03*
D15*
X104782000Y-168402000D03*
D16*
X104989400Y-113918100D03*
X104989400Y-121818100D03*
D17*
X20375880Y-174442120D03*
D18*
X227576800Y-56141700D03*
X227576800Y-52712700D03*
X241038800Y-56141700D03*
X241038800Y-52712700D03*
D17*
X268306420Y-25825580D03*
D18*
X156486900Y-101612100D03*
X159915900Y-101612100D03*
X159915900Y-115074100D03*
X156486900Y-115074100D03*
X54451500Y-136514800D03*
X54451500Y-139943800D03*
X40989500Y-139943800D03*
X40989500Y-136514800D03*
X227483600Y-106484500D03*
X227483600Y-103055500D03*
X240945600Y-103055500D03*
X240945600Y-106484500D03*
X213717619Y-52800500D03*
X217146619Y-52800500D03*
X213717619Y-39338500D03*
X217146619Y-39338500D03*
X54832500Y-86894000D03*
X54832500Y-90323000D03*
X41370500Y-86894000D03*
X41370500Y-90323000D03*
D14*
X97282000Y-150114000D03*
D15*
X104782000Y-150114000D03*
D18*
X227585200Y-77807900D03*
X227585200Y-81236900D03*
X241047200Y-81236900D03*
X241047200Y-77807900D03*
X48261100Y-59898043D03*
X48261100Y-63327043D03*
X34799100Y-59898043D03*
X34799100Y-63327043D03*
D19*
X78486000Y-168402000D03*
D14*
X131826000Y-168402000D03*
D15*
X124326000Y-168402000D03*
D16*
X133126200Y-113799600D03*
X133126200Y-121699600D03*
D18*
X77406500Y-52705000D03*
X73977500Y-52705000D03*
X73977500Y-39243000D03*
X77406500Y-39243000D03*
D17*
X20574000Y-25400000D03*
D18*
X133286500Y-52705000D03*
X129857500Y-52705000D03*
X129857500Y-39243000D03*
X133286500Y-39243000D03*
X54503000Y-115062000D03*
X54503000Y-111633000D03*
X41041000Y-115062000D03*
X41041000Y-111633000D03*
X185737500Y-52705000D03*
X189166500Y-52705000D03*
X189166500Y-39243000D03*
X185737500Y-39243000D03*
X102057200Y-53008500D03*
X105486200Y-53008500D03*
X102057200Y-39546500D03*
X105486200Y-39546500D03*
D16*
X178471500Y-123838000D03*
X178471500Y-115938000D03*
D19*
X150622000Y-168402000D03*
D18*
X157875486Y-52721400D03*
X161304486Y-52721400D03*
X161304486Y-39259400D03*
X157875486Y-39259400D03*
D20*
X243840000Y-151892000D03*
X241300000Y-151892000D03*
X238760000Y-151892000D03*
X236220000Y-151892000D03*
X210820000Y-151892000D03*
X241300000Y-167132000D03*
X233680000Y-151892000D03*
X231140000Y-151892000D03*
X228600000Y-151892000D03*
X226060000Y-151892000D03*
X223520000Y-151892000D03*
X220980000Y-151892000D03*
X218440000Y-151892000D03*
X215900000Y-151892000D03*
X213360000Y-151892000D03*
X213360000Y-167132000D03*
X215900000Y-167132000D03*
X218440000Y-167132000D03*
X220980000Y-167132000D03*
X223520000Y-167132000D03*
X226060000Y-167132000D03*
X228600000Y-167132000D03*
X231140000Y-167132000D03*
X233680000Y-167132000D03*
X236220000Y-167132000D03*
X238760000Y-167132000D03*
X208280000Y-151892000D03*
X205740000Y-151892000D03*
X203200000Y-151892000D03*
X200660000Y-151892000D03*
X198120000Y-151892000D03*
X195580000Y-151892000D03*
X193040000Y-151892000D03*
X190500000Y-151892000D03*
X187960000Y-151892000D03*
X187960000Y-167132000D03*
X190500000Y-167132000D03*
X193040000Y-167132000D03*
X195580000Y-167132000D03*
X198120000Y-167132000D03*
X200660000Y-167132000D03*
X203200000Y-167132000D03*
X205740000Y-167132000D03*
X208280000Y-167132000D03*
X246380000Y-151892000D03*
X210820000Y-167132000D03*
X243840000Y-167132000D03*
D21*
X231410000Y-162682000D03*
X233410000Y-162682000D03*
X233410000Y-164682000D03*
X231410000Y-164682000D03*
X231410000Y-160682000D03*
X233410000Y-160682000D03*
D20*
X246380000Y-167132000D03*
D22*
X172720000Y-158369000D03*
X175260000Y-158369000D03*
X177800000Y-158369000D03*
D18*
X48307100Y-43612539D03*
X48307100Y-40183539D03*
X34845100Y-43612539D03*
X34845100Y-40183539D03*
X139827000Y-101854000D03*
X143256000Y-101854000D03*
X139827000Y-115316000D03*
X143256000Y-115316000D03*
D23*
X255163500Y-163689500D03*
X252623500Y-162419500D03*
X255163500Y-161149500D03*
X252623500Y-159879500D03*
X255163500Y-158609500D03*
X252623500Y-157339500D03*
X255163500Y-156069500D03*
X252623500Y-154799500D03*
D24*
X266593500Y-165569500D03*
X264803500Y-163029500D03*
X266593500Y-155459500D03*
X264803500Y-152919500D03*
D25*
X261513500Y-164959500D03*
X261513500Y-153529500D03*
D26*
X258463500Y-151369500D03*
X258463500Y-167119500D03*
D14*
X131826000Y-150114000D03*
D15*
X124326000Y-150114000D03*
D17*
X268306420Y-174580420D03*
D12*
X114554000Y-150007000D03*
D13*
X114554000Y-144927000D03*
D18*
X54324500Y-161062000D03*
X54324500Y-164491000D03*
X40862500Y-164491000D03*
X40862500Y-161062000D03*
X115118100Y-101453100D03*
X111689100Y-101453100D03*
X115118100Y-114915100D03*
X111689100Y-114915100D03*
D16*
X239943000Y-112341700D03*
X247817000Y-112341700D03*
X239943000Y-87195700D03*
X247817000Y-87195700D03*
X42289700Y-155293900D03*
X34415700Y-155293900D03*
D27*
X195465700Y-47547500D03*
X195465700Y-39673500D03*
D16*
X42334400Y-130571200D03*
X34460400Y-130571200D03*
D27*
X167525700Y-47547500D03*
X167525700Y-39673500D03*
D16*
X42340500Y-105732500D03*
X34466500Y-105732500D03*
X42467500Y-81052000D03*
X34593500Y-81052000D03*
D27*
X111645700Y-47547500D03*
X111645700Y-39673500D03*
D16*
X42467500Y-51930300D03*
X34593500Y-51930300D03*
D27*
X139585700Y-47547500D03*
X139585700Y-39673500D03*
D16*
X42467500Y-71742300D03*
X34593500Y-71742300D03*
D27*
X83705700Y-47547500D03*
X83705700Y-39673500D03*
X55765700Y-47547500D03*
X55765700Y-39673500D03*
D16*
X239964200Y-62049700D03*
X247838200Y-62049700D03*
M02*
