G04 #@! TF.GenerationSoftware,KiCad,Pcbnew,(6.0.6)*
G04 #@! TF.CreationDate,2023-04-22T01:10:45-05:00*
G04 #@! TF.ProjectId,2023 Powerboard,32303233-2050-46f7-9765-72626f617264,rev?*
G04 #@! TF.SameCoordinates,Original*
G04 #@! TF.FileFunction,Legend,Bot*
G04 #@! TF.FilePolarity,Positive*
%FSLAX46Y46*%
G04 Gerber Fmt 4.6, Leading zero omitted, Abs format (unit mm)*
G04 Created by KiCad (PCBNEW (6.0.6)) date 2023-04-22 01:10:45*
%MOMM*%
%LPD*%
G01*
G04 APERTURE LIST*
%ADD10C,1.270000*%
%ADD11C,0.150000*%
%ADD12R,2.600000X2.600000*%
%ADD13O,2.600000X2.600000*%
%ADD14R,2.400000X2.400000*%
%ADD15C,2.400000*%
%ADD16O,3.000000X5.100000*%
%ADD17C,2.946400*%
%ADD18C,3.048000*%
%ADD19C,3.810000*%
%ADD20C,2.819400*%
%ADD21R,1.600000X1.600000*%
%ADD22C,1.600000*%
%ADD23C,18.288000*%
%ADD24R,2.000000X2.000000*%
%ADD25C,2.000000*%
%ADD26C,1.308000*%
%ADD27C,1.258000*%
%ADD28C,1.208000*%
%ADD29C,1.524000*%
%ADD30C,1.100000*%
%ADD31C,1.400000*%
%ADD32C,4.000000*%
%ADD33O,5.100000X3.000000*%
G04 APERTURE END LIST*
D10*
X86009238Y-158266190D02*
X86009238Y-148106190D01*
X82138761Y-148106190D01*
X81171142Y-148590000D01*
X80687333Y-149073809D01*
X80203523Y-150041428D01*
X80203523Y-151492857D01*
X80687333Y-152460476D01*
X81171142Y-152944285D01*
X82138761Y-153428095D01*
X86009238Y-153428095D01*
X77300666Y-148106190D02*
X73914000Y-158266190D01*
X70527333Y-148106190D01*
X158108952Y-148590000D02*
X159076571Y-148106190D01*
X160528000Y-148106190D01*
X161979428Y-148590000D01*
X162947047Y-149557619D01*
X163430857Y-150525238D01*
X163914666Y-152460476D01*
X163914666Y-153911904D01*
X163430857Y-155847142D01*
X162947047Y-156814761D01*
X161979428Y-157782380D01*
X160528000Y-158266190D01*
X159560380Y-158266190D01*
X158108952Y-157782380D01*
X157625142Y-157298571D01*
X157625142Y-153911904D01*
X159560380Y-153911904D01*
X153270857Y-158266190D02*
X153270857Y-148106190D01*
X147465142Y-158266190D01*
X147465142Y-148106190D01*
X142627047Y-158266190D02*
X142627047Y-148106190D01*
X140208000Y-148106190D01*
X138756571Y-148590000D01*
X137788952Y-149557619D01*
X137305142Y-150525238D01*
X136821333Y-152460476D01*
X136821333Y-153911904D01*
X137305142Y-155847142D01*
X137788952Y-156814761D01*
X138756571Y-157782380D01*
X140208000Y-158266190D01*
X142627047Y-158266190D01*
D11*
X261373109Y-142439342D02*
X261420728Y-142486961D01*
X261563585Y-142534580D01*
X261658823Y-142534580D01*
X261801680Y-142486961D01*
X261896919Y-142391723D01*
X261944538Y-142296485D01*
X261992157Y-142106009D01*
X261992157Y-141963152D01*
X261944538Y-141772676D01*
X261896919Y-141677438D01*
X261801680Y-141582200D01*
X261658823Y-141534580D01*
X261563585Y-141534580D01*
X261420728Y-141582200D01*
X261373109Y-141629819D01*
X260801680Y-142534580D02*
X260896919Y-142486961D01*
X260944538Y-142439342D01*
X260992157Y-142344104D01*
X260992157Y-142058390D01*
X260944538Y-141963152D01*
X260896919Y-141915533D01*
X260801680Y-141867914D01*
X260658823Y-141867914D01*
X260563585Y-141915533D01*
X260515966Y-141963152D01*
X260468347Y-142058390D01*
X260468347Y-142344104D01*
X260515966Y-142439342D01*
X260563585Y-142486961D01*
X260658823Y-142534580D01*
X260801680Y-142534580D01*
X260039776Y-141867914D02*
X260039776Y-142534580D01*
X260039776Y-141963152D02*
X259992157Y-141915533D01*
X259896919Y-141867914D01*
X259754061Y-141867914D01*
X259658823Y-141915533D01*
X259611204Y-142010771D01*
X259611204Y-142534580D01*
X259135014Y-141867914D02*
X259135014Y-142534580D01*
X259135014Y-141963152D02*
X259087395Y-141915533D01*
X258992157Y-141867914D01*
X258849300Y-141867914D01*
X258754061Y-141915533D01*
X258706442Y-142010771D01*
X258706442Y-142534580D01*
X257801680Y-141534580D02*
X257992157Y-141534580D01*
X258087395Y-141582200D01*
X258135014Y-141629819D01*
X258230252Y-141772676D01*
X258277871Y-141963152D01*
X258277871Y-142344104D01*
X258230252Y-142439342D01*
X258182633Y-142486961D01*
X258087395Y-142534580D01*
X257896919Y-142534580D01*
X257801680Y-142486961D01*
X257754061Y-142439342D01*
X257706442Y-142344104D01*
X257706442Y-142106009D01*
X257754061Y-142010771D01*
X257801680Y-141963152D01*
X257896919Y-141915533D01*
X258087395Y-141915533D01*
X258182633Y-141963152D01*
X258230252Y-142010771D01*
X258277871Y-142106009D01*
X261548109Y-117137042D02*
X261595728Y-117184661D01*
X261738585Y-117232280D01*
X261833823Y-117232280D01*
X261976680Y-117184661D01*
X262071919Y-117089423D01*
X262119538Y-116994185D01*
X262167157Y-116803709D01*
X262167157Y-116660852D01*
X262119538Y-116470376D01*
X262071919Y-116375138D01*
X261976680Y-116279900D01*
X261833823Y-116232280D01*
X261738585Y-116232280D01*
X261595728Y-116279900D01*
X261548109Y-116327519D01*
X260976680Y-117232280D02*
X261071919Y-117184661D01*
X261119538Y-117137042D01*
X261167157Y-117041804D01*
X261167157Y-116756090D01*
X261119538Y-116660852D01*
X261071919Y-116613233D01*
X260976680Y-116565614D01*
X260833823Y-116565614D01*
X260738585Y-116613233D01*
X260690966Y-116660852D01*
X260643347Y-116756090D01*
X260643347Y-117041804D01*
X260690966Y-117137042D01*
X260738585Y-117184661D01*
X260833823Y-117232280D01*
X260976680Y-117232280D01*
X260214776Y-116565614D02*
X260214776Y-117232280D01*
X260214776Y-116660852D02*
X260167157Y-116613233D01*
X260071919Y-116565614D01*
X259929061Y-116565614D01*
X259833823Y-116613233D01*
X259786204Y-116708471D01*
X259786204Y-117232280D01*
X259310014Y-116565614D02*
X259310014Y-117232280D01*
X259310014Y-116660852D02*
X259262395Y-116613233D01*
X259167157Y-116565614D01*
X259024300Y-116565614D01*
X258929061Y-116613233D01*
X258881442Y-116708471D01*
X258881442Y-117232280D01*
X257929061Y-116232280D02*
X258405252Y-116232280D01*
X258452871Y-116708471D01*
X258405252Y-116660852D01*
X258310014Y-116613233D01*
X258071919Y-116613233D01*
X257976680Y-116660852D01*
X257929061Y-116708471D01*
X257881442Y-116803709D01*
X257881442Y-117041804D01*
X257929061Y-117137042D01*
X257976680Y-117184661D01*
X258071919Y-117232280D01*
X258310014Y-117232280D01*
X258405252Y-117184661D01*
X258452871Y-117137042D01*
X72771142Y-40872000D02*
X72818761Y-40824380D01*
X72866380Y-40681523D01*
X72866380Y-40586285D01*
X72818761Y-40443428D01*
X72723523Y-40348190D01*
X72628285Y-40300571D01*
X72437809Y-40252952D01*
X72294952Y-40252952D01*
X72104476Y-40300571D01*
X72009238Y-40348190D01*
X71914000Y-40443428D01*
X71866380Y-40586285D01*
X71866380Y-40681523D01*
X71914000Y-40824380D01*
X71961619Y-40872000D01*
X72866380Y-41443428D02*
X72818761Y-41348190D01*
X72771142Y-41300571D01*
X72675904Y-41252952D01*
X72390190Y-41252952D01*
X72294952Y-41300571D01*
X72247333Y-41348190D01*
X72199714Y-41443428D01*
X72199714Y-41586285D01*
X72247333Y-41681523D01*
X72294952Y-41729142D01*
X72390190Y-41776761D01*
X72675904Y-41776761D01*
X72771142Y-41729142D01*
X72818761Y-41681523D01*
X72866380Y-41586285D01*
X72866380Y-41443428D01*
X72199714Y-42205333D02*
X72866380Y-42205333D01*
X72294952Y-42205333D02*
X72247333Y-42252952D01*
X72199714Y-42348190D01*
X72199714Y-42491047D01*
X72247333Y-42586285D01*
X72342571Y-42633904D01*
X72866380Y-42633904D01*
X72199714Y-43110095D02*
X72866380Y-43110095D01*
X72294952Y-43110095D02*
X72247333Y-43157714D01*
X72199714Y-43252952D01*
X72199714Y-43395809D01*
X72247333Y-43491047D01*
X72342571Y-43538666D01*
X72866380Y-43538666D01*
X71961619Y-43967238D02*
X71914000Y-44014857D01*
X71866380Y-44110095D01*
X71866380Y-44348190D01*
X71914000Y-44443428D01*
X71961619Y-44491047D01*
X72056857Y-44538666D01*
X72152095Y-44538666D01*
X72294952Y-44491047D01*
X72866380Y-43919619D01*
X72866380Y-44538666D01*
X71866380Y-45157714D02*
X71866380Y-45252952D01*
X71914000Y-45348190D01*
X71961619Y-45395809D01*
X72056857Y-45443428D01*
X72247333Y-45491047D01*
X72485428Y-45491047D01*
X72675904Y-45443428D01*
X72771142Y-45395809D01*
X72818761Y-45348190D01*
X72866380Y-45252952D01*
X72866380Y-45157714D01*
X72818761Y-45062476D01*
X72771142Y-45014857D01*
X72675904Y-44967238D01*
X72485428Y-44919619D01*
X72247333Y-44919619D01*
X72056857Y-44967238D01*
X71961619Y-45014857D01*
X71914000Y-45062476D01*
X71866380Y-45157714D01*
X30194309Y-150624142D02*
X30241928Y-150671761D01*
X30384785Y-150719380D01*
X30480023Y-150719380D01*
X30622880Y-150671761D01*
X30718119Y-150576523D01*
X30765738Y-150481285D01*
X30813357Y-150290809D01*
X30813357Y-150147952D01*
X30765738Y-149957476D01*
X30718119Y-149862238D01*
X30622880Y-149767000D01*
X30480023Y-149719380D01*
X30384785Y-149719380D01*
X30241928Y-149767000D01*
X30194309Y-149814619D01*
X29622880Y-150719380D02*
X29718119Y-150671761D01*
X29765738Y-150624142D01*
X29813357Y-150528904D01*
X29813357Y-150243190D01*
X29765738Y-150147952D01*
X29718119Y-150100333D01*
X29622880Y-150052714D01*
X29480023Y-150052714D01*
X29384785Y-150100333D01*
X29337166Y-150147952D01*
X29289547Y-150243190D01*
X29289547Y-150528904D01*
X29337166Y-150624142D01*
X29384785Y-150671761D01*
X29480023Y-150719380D01*
X29622880Y-150719380D01*
X28860976Y-150052714D02*
X28860976Y-150719380D01*
X28860976Y-150147952D02*
X28813357Y-150100333D01*
X28718119Y-150052714D01*
X28575261Y-150052714D01*
X28480023Y-150100333D01*
X28432404Y-150195571D01*
X28432404Y-150719380D01*
X27956214Y-150052714D02*
X27956214Y-150719380D01*
X27956214Y-150147952D02*
X27908595Y-150100333D01*
X27813357Y-150052714D01*
X27670500Y-150052714D01*
X27575261Y-150100333D01*
X27527642Y-150195571D01*
X27527642Y-150719380D01*
X27146690Y-149719380D02*
X26527642Y-149719380D01*
X26860976Y-150100333D01*
X26718119Y-150100333D01*
X26622880Y-150147952D01*
X26575261Y-150195571D01*
X26527642Y-150290809D01*
X26527642Y-150528904D01*
X26575261Y-150624142D01*
X26622880Y-150671761D01*
X26718119Y-150719380D01*
X27003833Y-150719380D01*
X27099071Y-150671761D01*
X27146690Y-150624142D01*
X54114842Y-40967500D02*
X54162461Y-40919880D01*
X54210080Y-40777023D01*
X54210080Y-40681785D01*
X54162461Y-40538928D01*
X54067223Y-40443690D01*
X53971985Y-40396071D01*
X53781509Y-40348452D01*
X53638652Y-40348452D01*
X53448176Y-40396071D01*
X53352938Y-40443690D01*
X53257700Y-40538928D01*
X53210080Y-40681785D01*
X53210080Y-40777023D01*
X53257700Y-40919880D01*
X53305319Y-40967500D01*
X54210080Y-41538928D02*
X54162461Y-41443690D01*
X54114842Y-41396071D01*
X54019604Y-41348452D01*
X53733890Y-41348452D01*
X53638652Y-41396071D01*
X53591033Y-41443690D01*
X53543414Y-41538928D01*
X53543414Y-41681785D01*
X53591033Y-41777023D01*
X53638652Y-41824642D01*
X53733890Y-41872261D01*
X54019604Y-41872261D01*
X54114842Y-41824642D01*
X54162461Y-41777023D01*
X54210080Y-41681785D01*
X54210080Y-41538928D01*
X53543414Y-42300833D02*
X54210080Y-42300833D01*
X53638652Y-42300833D02*
X53591033Y-42348452D01*
X53543414Y-42443690D01*
X53543414Y-42586547D01*
X53591033Y-42681785D01*
X53686271Y-42729404D01*
X54210080Y-42729404D01*
X53543414Y-43205595D02*
X54210080Y-43205595D01*
X53638652Y-43205595D02*
X53591033Y-43253214D01*
X53543414Y-43348452D01*
X53543414Y-43491309D01*
X53591033Y-43586547D01*
X53686271Y-43634166D01*
X54210080Y-43634166D01*
X53305319Y-44062738D02*
X53257700Y-44110357D01*
X53210080Y-44205595D01*
X53210080Y-44443690D01*
X53257700Y-44538928D01*
X53305319Y-44586547D01*
X53400557Y-44634166D01*
X53495795Y-44634166D01*
X53638652Y-44586547D01*
X54210080Y-44015119D01*
X54210080Y-44634166D01*
X54210080Y-45586547D02*
X54210080Y-45015119D01*
X54210080Y-45300833D02*
X53210080Y-45300833D01*
X53352938Y-45205595D01*
X53448176Y-45110357D01*
X53495795Y-45015119D01*
X256806842Y-40967500D02*
X256854461Y-40919880D01*
X256902080Y-40777023D01*
X256902080Y-40681785D01*
X256854461Y-40538928D01*
X256759223Y-40443690D01*
X256663985Y-40396071D01*
X256473509Y-40348452D01*
X256330652Y-40348452D01*
X256140176Y-40396071D01*
X256044938Y-40443690D01*
X255949700Y-40538928D01*
X255902080Y-40681785D01*
X255902080Y-40777023D01*
X255949700Y-40919880D01*
X255997319Y-40967500D01*
X256902080Y-41538928D02*
X256854461Y-41443690D01*
X256806842Y-41396071D01*
X256711604Y-41348452D01*
X256425890Y-41348452D01*
X256330652Y-41396071D01*
X256283033Y-41443690D01*
X256235414Y-41538928D01*
X256235414Y-41681785D01*
X256283033Y-41777023D01*
X256330652Y-41824642D01*
X256425890Y-41872261D01*
X256711604Y-41872261D01*
X256806842Y-41824642D01*
X256854461Y-41777023D01*
X256902080Y-41681785D01*
X256902080Y-41538928D01*
X256235414Y-42300833D02*
X256902080Y-42300833D01*
X256330652Y-42300833D02*
X256283033Y-42348452D01*
X256235414Y-42443690D01*
X256235414Y-42586547D01*
X256283033Y-42681785D01*
X256378271Y-42729404D01*
X256902080Y-42729404D01*
X256235414Y-43205595D02*
X256902080Y-43205595D01*
X256330652Y-43205595D02*
X256283033Y-43253214D01*
X256235414Y-43348452D01*
X256235414Y-43491309D01*
X256283033Y-43586547D01*
X256378271Y-43634166D01*
X256902080Y-43634166D01*
X256902080Y-44634166D02*
X256902080Y-44062738D01*
X256902080Y-44348452D02*
X255902080Y-44348452D01*
X256044938Y-44253214D01*
X256140176Y-44157976D01*
X256187795Y-44062738D01*
X255902080Y-44967500D02*
X255902080Y-45586547D01*
X256283033Y-45253214D01*
X256283033Y-45396071D01*
X256330652Y-45491309D01*
X256378271Y-45538928D01*
X256473509Y-45586547D01*
X256711604Y-45586547D01*
X256806842Y-45538928D01*
X256854461Y-45491309D01*
X256902080Y-45396071D01*
X256902080Y-45110357D01*
X256854461Y-45015119D01*
X256806842Y-44967500D01*
X30134209Y-126078342D02*
X30181828Y-126125961D01*
X30324685Y-126173580D01*
X30419923Y-126173580D01*
X30562780Y-126125961D01*
X30658019Y-126030723D01*
X30705638Y-125935485D01*
X30753257Y-125745009D01*
X30753257Y-125602152D01*
X30705638Y-125411676D01*
X30658019Y-125316438D01*
X30562780Y-125221200D01*
X30419923Y-125173580D01*
X30324685Y-125173580D01*
X30181828Y-125221200D01*
X30134209Y-125268819D01*
X29562780Y-126173580D02*
X29658019Y-126125961D01*
X29705638Y-126078342D01*
X29753257Y-125983104D01*
X29753257Y-125697390D01*
X29705638Y-125602152D01*
X29658019Y-125554533D01*
X29562780Y-125506914D01*
X29419923Y-125506914D01*
X29324685Y-125554533D01*
X29277066Y-125602152D01*
X29229447Y-125697390D01*
X29229447Y-125983104D01*
X29277066Y-126078342D01*
X29324685Y-126125961D01*
X29419923Y-126173580D01*
X29562780Y-126173580D01*
X28800876Y-125506914D02*
X28800876Y-126173580D01*
X28800876Y-125602152D02*
X28753257Y-125554533D01*
X28658019Y-125506914D01*
X28515161Y-125506914D01*
X28419923Y-125554533D01*
X28372304Y-125649771D01*
X28372304Y-126173580D01*
X27896114Y-125506914D02*
X27896114Y-126173580D01*
X27896114Y-125602152D02*
X27848495Y-125554533D01*
X27753257Y-125506914D01*
X27610400Y-125506914D01*
X27515161Y-125554533D01*
X27467542Y-125649771D01*
X27467542Y-126173580D01*
X27038971Y-125268819D02*
X26991352Y-125221200D01*
X26896114Y-125173580D01*
X26658019Y-125173580D01*
X26562780Y-125221200D01*
X26515161Y-125268819D01*
X26467542Y-125364057D01*
X26467542Y-125459295D01*
X26515161Y-125602152D01*
X27086590Y-126173580D01*
X26467542Y-126173580D01*
X30194309Y-101094142D02*
X30241928Y-101141761D01*
X30384785Y-101189380D01*
X30480023Y-101189380D01*
X30622880Y-101141761D01*
X30718119Y-101046523D01*
X30765738Y-100951285D01*
X30813357Y-100760809D01*
X30813357Y-100617952D01*
X30765738Y-100427476D01*
X30718119Y-100332238D01*
X30622880Y-100237000D01*
X30480023Y-100189380D01*
X30384785Y-100189380D01*
X30241928Y-100237000D01*
X30194309Y-100284619D01*
X29622880Y-101189380D02*
X29718119Y-101141761D01*
X29765738Y-101094142D01*
X29813357Y-100998904D01*
X29813357Y-100713190D01*
X29765738Y-100617952D01*
X29718119Y-100570333D01*
X29622880Y-100522714D01*
X29480023Y-100522714D01*
X29384785Y-100570333D01*
X29337166Y-100617952D01*
X29289547Y-100713190D01*
X29289547Y-100998904D01*
X29337166Y-101094142D01*
X29384785Y-101141761D01*
X29480023Y-101189380D01*
X29622880Y-101189380D01*
X28860976Y-100522714D02*
X28860976Y-101189380D01*
X28860976Y-100617952D02*
X28813357Y-100570333D01*
X28718119Y-100522714D01*
X28575261Y-100522714D01*
X28480023Y-100570333D01*
X28432404Y-100665571D01*
X28432404Y-101189380D01*
X27956214Y-100522714D02*
X27956214Y-101189380D01*
X27956214Y-100617952D02*
X27908595Y-100570333D01*
X27813357Y-100522714D01*
X27670500Y-100522714D01*
X27575261Y-100570333D01*
X27527642Y-100665571D01*
X27527642Y-101189380D01*
X26527642Y-101189380D02*
X27099071Y-101189380D01*
X26813357Y-101189380D02*
X26813357Y-100189380D01*
X26908595Y-100332238D01*
X27003833Y-100427476D01*
X27099071Y-100475095D01*
X30479809Y-76468842D02*
X30527428Y-76516461D01*
X30670285Y-76564080D01*
X30765523Y-76564080D01*
X30908380Y-76516461D01*
X31003619Y-76421223D01*
X31051238Y-76325985D01*
X31098857Y-76135509D01*
X31098857Y-75992652D01*
X31051238Y-75802176D01*
X31003619Y-75706938D01*
X30908380Y-75611700D01*
X30765523Y-75564080D01*
X30670285Y-75564080D01*
X30527428Y-75611700D01*
X30479809Y-75659319D01*
X29908380Y-76564080D02*
X30003619Y-76516461D01*
X30051238Y-76468842D01*
X30098857Y-76373604D01*
X30098857Y-76087890D01*
X30051238Y-75992652D01*
X30003619Y-75945033D01*
X29908380Y-75897414D01*
X29765523Y-75897414D01*
X29670285Y-75945033D01*
X29622666Y-75992652D01*
X29575047Y-76087890D01*
X29575047Y-76373604D01*
X29622666Y-76468842D01*
X29670285Y-76516461D01*
X29765523Y-76564080D01*
X29908380Y-76564080D01*
X29146476Y-75897414D02*
X29146476Y-76564080D01*
X29146476Y-75992652D02*
X29098857Y-75945033D01*
X29003619Y-75897414D01*
X28860761Y-75897414D01*
X28765523Y-75945033D01*
X28717904Y-76040271D01*
X28717904Y-76564080D01*
X28241714Y-75897414D02*
X28241714Y-76564080D01*
X28241714Y-75992652D02*
X28194095Y-75945033D01*
X28098857Y-75897414D01*
X27956000Y-75897414D01*
X27860761Y-75945033D01*
X27813142Y-76040271D01*
X27813142Y-76564080D01*
X27194095Y-75992652D02*
X27289333Y-75945033D01*
X27336952Y-75897414D01*
X27384571Y-75802176D01*
X27384571Y-75754557D01*
X27336952Y-75659319D01*
X27289333Y-75611700D01*
X27194095Y-75564080D01*
X27003619Y-75564080D01*
X26908380Y-75611700D01*
X26860761Y-75659319D01*
X26813142Y-75754557D01*
X26813142Y-75802176D01*
X26860761Y-75897414D01*
X26908380Y-75945033D01*
X27003619Y-75992652D01*
X27194095Y-75992652D01*
X27289333Y-76040271D01*
X27336952Y-76087890D01*
X27384571Y-76183128D01*
X27384571Y-76373604D01*
X27336952Y-76468842D01*
X27289333Y-76516461D01*
X27194095Y-76564080D01*
X27003619Y-76564080D01*
X26908380Y-76516461D01*
X26860761Y-76468842D01*
X26813142Y-76373604D01*
X26813142Y-76183128D01*
X26860761Y-76087890D01*
X26908380Y-76040271D01*
X27003619Y-75992652D01*
X212102842Y-40967500D02*
X212150461Y-40919880D01*
X212198080Y-40777023D01*
X212198080Y-40681785D01*
X212150461Y-40538928D01*
X212055223Y-40443690D01*
X211959985Y-40396071D01*
X211769509Y-40348452D01*
X211626652Y-40348452D01*
X211436176Y-40396071D01*
X211340938Y-40443690D01*
X211245700Y-40538928D01*
X211198080Y-40681785D01*
X211198080Y-40777023D01*
X211245700Y-40919880D01*
X211293319Y-40967500D01*
X212198080Y-41538928D02*
X212150461Y-41443690D01*
X212102842Y-41396071D01*
X212007604Y-41348452D01*
X211721890Y-41348452D01*
X211626652Y-41396071D01*
X211579033Y-41443690D01*
X211531414Y-41538928D01*
X211531414Y-41681785D01*
X211579033Y-41777023D01*
X211626652Y-41824642D01*
X211721890Y-41872261D01*
X212007604Y-41872261D01*
X212102842Y-41824642D01*
X212150461Y-41777023D01*
X212198080Y-41681785D01*
X212198080Y-41538928D01*
X211531414Y-42300833D02*
X212198080Y-42300833D01*
X211626652Y-42300833D02*
X211579033Y-42348452D01*
X211531414Y-42443690D01*
X211531414Y-42586547D01*
X211579033Y-42681785D01*
X211674271Y-42729404D01*
X212198080Y-42729404D01*
X211531414Y-43205595D02*
X212198080Y-43205595D01*
X211626652Y-43205595D02*
X211579033Y-43253214D01*
X211531414Y-43348452D01*
X211531414Y-43491309D01*
X211579033Y-43586547D01*
X211674271Y-43634166D01*
X212198080Y-43634166D01*
X212198080Y-44634166D02*
X212198080Y-44062738D01*
X212198080Y-44348452D02*
X211198080Y-44348452D01*
X211340938Y-44253214D01*
X211436176Y-44157976D01*
X211483795Y-44062738D01*
X212198080Y-45586547D02*
X212198080Y-45015119D01*
X212198080Y-45300833D02*
X211198080Y-45300833D01*
X211340938Y-45205595D01*
X211436176Y-45110357D01*
X211483795Y-45015119D01*
X35572842Y-40967500D02*
X35620461Y-40919880D01*
X35668080Y-40777023D01*
X35668080Y-40681785D01*
X35620461Y-40538928D01*
X35525223Y-40443690D01*
X35429985Y-40396071D01*
X35239509Y-40348452D01*
X35096652Y-40348452D01*
X34906176Y-40396071D01*
X34810938Y-40443690D01*
X34715700Y-40538928D01*
X34668080Y-40681785D01*
X34668080Y-40777023D01*
X34715700Y-40919880D01*
X34763319Y-40967500D01*
X35668080Y-41538928D02*
X35620461Y-41443690D01*
X35572842Y-41396071D01*
X35477604Y-41348452D01*
X35191890Y-41348452D01*
X35096652Y-41396071D01*
X35049033Y-41443690D01*
X35001414Y-41538928D01*
X35001414Y-41681785D01*
X35049033Y-41777023D01*
X35096652Y-41824642D01*
X35191890Y-41872261D01*
X35477604Y-41872261D01*
X35572842Y-41824642D01*
X35620461Y-41777023D01*
X35668080Y-41681785D01*
X35668080Y-41538928D01*
X35001414Y-42300833D02*
X35668080Y-42300833D01*
X35096652Y-42300833D02*
X35049033Y-42348452D01*
X35001414Y-42443690D01*
X35001414Y-42586547D01*
X35049033Y-42681785D01*
X35144271Y-42729404D01*
X35668080Y-42729404D01*
X35001414Y-43205595D02*
X35668080Y-43205595D01*
X35096652Y-43205595D02*
X35049033Y-43253214D01*
X35001414Y-43348452D01*
X35001414Y-43491309D01*
X35049033Y-43586547D01*
X35144271Y-43634166D01*
X35668080Y-43634166D01*
X35668080Y-44634166D02*
X35668080Y-44062738D01*
X35668080Y-44348452D02*
X34668080Y-44348452D01*
X34810938Y-44253214D01*
X34906176Y-44157976D01*
X34953795Y-44062738D01*
X35096652Y-45205595D02*
X35049033Y-45110357D01*
X35001414Y-45062738D01*
X34906176Y-45015119D01*
X34858557Y-45015119D01*
X34763319Y-45062738D01*
X34715700Y-45110357D01*
X34668080Y-45205595D01*
X34668080Y-45396071D01*
X34715700Y-45491309D01*
X34763319Y-45538928D01*
X34858557Y-45586547D01*
X34906176Y-45586547D01*
X35001414Y-45538928D01*
X35049033Y-45491309D01*
X35096652Y-45396071D01*
X35096652Y-45205595D01*
X35144271Y-45110357D01*
X35191890Y-45062738D01*
X35287128Y-45015119D01*
X35477604Y-45015119D01*
X35572842Y-45062738D01*
X35620461Y-45110357D01*
X35668080Y-45205595D01*
X35668080Y-45396071D01*
X35620461Y-45491309D01*
X35572842Y-45538928D01*
X35477604Y-45586547D01*
X35287128Y-45586547D01*
X35191890Y-45538928D01*
X35144271Y-45491309D01*
X35096652Y-45396071D01*
X234454842Y-40967500D02*
X234502461Y-40919880D01*
X234550080Y-40777023D01*
X234550080Y-40681785D01*
X234502461Y-40538928D01*
X234407223Y-40443690D01*
X234311985Y-40396071D01*
X234121509Y-40348452D01*
X233978652Y-40348452D01*
X233788176Y-40396071D01*
X233692938Y-40443690D01*
X233597700Y-40538928D01*
X233550080Y-40681785D01*
X233550080Y-40777023D01*
X233597700Y-40919880D01*
X233645319Y-40967500D01*
X234550080Y-41538928D02*
X234502461Y-41443690D01*
X234454842Y-41396071D01*
X234359604Y-41348452D01*
X234073890Y-41348452D01*
X233978652Y-41396071D01*
X233931033Y-41443690D01*
X233883414Y-41538928D01*
X233883414Y-41681785D01*
X233931033Y-41777023D01*
X233978652Y-41824642D01*
X234073890Y-41872261D01*
X234359604Y-41872261D01*
X234454842Y-41824642D01*
X234502461Y-41777023D01*
X234550080Y-41681785D01*
X234550080Y-41538928D01*
X233883414Y-42300833D02*
X234550080Y-42300833D01*
X233978652Y-42300833D02*
X233931033Y-42348452D01*
X233883414Y-42443690D01*
X233883414Y-42586547D01*
X233931033Y-42681785D01*
X234026271Y-42729404D01*
X234550080Y-42729404D01*
X233883414Y-43205595D02*
X234550080Y-43205595D01*
X233978652Y-43205595D02*
X233931033Y-43253214D01*
X233883414Y-43348452D01*
X233883414Y-43491309D01*
X233931033Y-43586547D01*
X234026271Y-43634166D01*
X234550080Y-43634166D01*
X234550080Y-44634166D02*
X234550080Y-44062738D01*
X234550080Y-44348452D02*
X233550080Y-44348452D01*
X233692938Y-44253214D01*
X233788176Y-44157976D01*
X233835795Y-44062738D01*
X233645319Y-45015119D02*
X233597700Y-45062738D01*
X233550080Y-45157976D01*
X233550080Y-45396071D01*
X233597700Y-45491309D01*
X233645319Y-45538928D01*
X233740557Y-45586547D01*
X233835795Y-45586547D01*
X233978652Y-45538928D01*
X234550080Y-44967500D01*
X234550080Y-45586547D01*
X30743500Y-66995442D02*
X30791119Y-67043061D01*
X30933976Y-67090680D01*
X31029214Y-67090680D01*
X31172071Y-67043061D01*
X31267309Y-66947823D01*
X31314928Y-66852585D01*
X31362547Y-66662109D01*
X31362547Y-66519252D01*
X31314928Y-66328776D01*
X31267309Y-66233538D01*
X31172071Y-66138300D01*
X31029214Y-66090680D01*
X30933976Y-66090680D01*
X30791119Y-66138300D01*
X30743500Y-66185919D01*
X30172071Y-67090680D02*
X30267309Y-67043061D01*
X30314928Y-66995442D01*
X30362547Y-66900204D01*
X30362547Y-66614490D01*
X30314928Y-66519252D01*
X30267309Y-66471633D01*
X30172071Y-66424014D01*
X30029214Y-66424014D01*
X29933976Y-66471633D01*
X29886357Y-66519252D01*
X29838738Y-66614490D01*
X29838738Y-66900204D01*
X29886357Y-66995442D01*
X29933976Y-67043061D01*
X30029214Y-67090680D01*
X30172071Y-67090680D01*
X29410166Y-66424014D02*
X29410166Y-67090680D01*
X29410166Y-66519252D02*
X29362547Y-66471633D01*
X29267309Y-66424014D01*
X29124452Y-66424014D01*
X29029214Y-66471633D01*
X28981595Y-66566871D01*
X28981595Y-67090680D01*
X28505404Y-66424014D02*
X28505404Y-67090680D01*
X28505404Y-66519252D02*
X28457785Y-66471633D01*
X28362547Y-66424014D01*
X28219690Y-66424014D01*
X28124452Y-66471633D01*
X28076833Y-66566871D01*
X28076833Y-67090680D01*
X27076833Y-67090680D02*
X27648261Y-67090680D01*
X27362547Y-67090680D02*
X27362547Y-66090680D01*
X27457785Y-66233538D01*
X27553023Y-66328776D01*
X27648261Y-66376395D01*
X26743500Y-66090680D02*
X26076833Y-66090680D01*
X26505404Y-67090680D01*
X95262842Y-40967500D02*
X95310461Y-40919880D01*
X95358080Y-40777023D01*
X95358080Y-40681785D01*
X95310461Y-40538928D01*
X95215223Y-40443690D01*
X95119985Y-40396071D01*
X94929509Y-40348452D01*
X94786652Y-40348452D01*
X94596176Y-40396071D01*
X94500938Y-40443690D01*
X94405700Y-40538928D01*
X94358080Y-40681785D01*
X94358080Y-40777023D01*
X94405700Y-40919880D01*
X94453319Y-40967500D01*
X95358080Y-41538928D02*
X95310461Y-41443690D01*
X95262842Y-41396071D01*
X95167604Y-41348452D01*
X94881890Y-41348452D01*
X94786652Y-41396071D01*
X94739033Y-41443690D01*
X94691414Y-41538928D01*
X94691414Y-41681785D01*
X94739033Y-41777023D01*
X94786652Y-41824642D01*
X94881890Y-41872261D01*
X95167604Y-41872261D01*
X95262842Y-41824642D01*
X95310461Y-41777023D01*
X95358080Y-41681785D01*
X95358080Y-41538928D01*
X94691414Y-42300833D02*
X95358080Y-42300833D01*
X94786652Y-42300833D02*
X94739033Y-42348452D01*
X94691414Y-42443690D01*
X94691414Y-42586547D01*
X94739033Y-42681785D01*
X94834271Y-42729404D01*
X95358080Y-42729404D01*
X94691414Y-43205595D02*
X95358080Y-43205595D01*
X94786652Y-43205595D02*
X94739033Y-43253214D01*
X94691414Y-43348452D01*
X94691414Y-43491309D01*
X94739033Y-43586547D01*
X94834271Y-43634166D01*
X95358080Y-43634166D01*
X95358080Y-44634166D02*
X95358080Y-44062738D01*
X95358080Y-44348452D02*
X94358080Y-44348452D01*
X94500938Y-44253214D01*
X94596176Y-44157976D01*
X94643795Y-44062738D01*
X94358080Y-45253214D02*
X94358080Y-45348452D01*
X94405700Y-45443690D01*
X94453319Y-45491309D01*
X94548557Y-45538928D01*
X94739033Y-45586547D01*
X94977128Y-45586547D01*
X95167604Y-45538928D01*
X95262842Y-45491309D01*
X95310461Y-45443690D01*
X95358080Y-45348452D01*
X95358080Y-45253214D01*
X95310461Y-45157976D01*
X95262842Y-45110357D01*
X95167604Y-45062738D01*
X94977128Y-45015119D01*
X94739033Y-45015119D01*
X94548557Y-45062738D01*
X94453319Y-45110357D01*
X94405700Y-45157976D01*
X94358080Y-45253214D01*
X189750842Y-40967500D02*
X189798461Y-40919880D01*
X189846080Y-40777023D01*
X189846080Y-40681785D01*
X189798461Y-40538928D01*
X189703223Y-40443690D01*
X189607985Y-40396071D01*
X189417509Y-40348452D01*
X189274652Y-40348452D01*
X189084176Y-40396071D01*
X188988938Y-40443690D01*
X188893700Y-40538928D01*
X188846080Y-40681785D01*
X188846080Y-40777023D01*
X188893700Y-40919880D01*
X188941319Y-40967500D01*
X189846080Y-41538928D02*
X189798461Y-41443690D01*
X189750842Y-41396071D01*
X189655604Y-41348452D01*
X189369890Y-41348452D01*
X189274652Y-41396071D01*
X189227033Y-41443690D01*
X189179414Y-41538928D01*
X189179414Y-41681785D01*
X189227033Y-41777023D01*
X189274652Y-41824642D01*
X189369890Y-41872261D01*
X189655604Y-41872261D01*
X189750842Y-41824642D01*
X189798461Y-41777023D01*
X189846080Y-41681785D01*
X189846080Y-41538928D01*
X189179414Y-42300833D02*
X189846080Y-42300833D01*
X189274652Y-42300833D02*
X189227033Y-42348452D01*
X189179414Y-42443690D01*
X189179414Y-42586547D01*
X189227033Y-42681785D01*
X189322271Y-42729404D01*
X189846080Y-42729404D01*
X189179414Y-43205595D02*
X189846080Y-43205595D01*
X189274652Y-43205595D02*
X189227033Y-43253214D01*
X189179414Y-43348452D01*
X189179414Y-43491309D01*
X189227033Y-43586547D01*
X189322271Y-43634166D01*
X189846080Y-43634166D01*
X189846080Y-44634166D02*
X189846080Y-44062738D01*
X189846080Y-44348452D02*
X188846080Y-44348452D01*
X188988938Y-44253214D01*
X189084176Y-44157976D01*
X189131795Y-44062738D01*
X189179414Y-45491309D02*
X189846080Y-45491309D01*
X188798461Y-45253214D02*
X189512747Y-45015119D01*
X189512747Y-45634166D01*
X261569309Y-91991042D02*
X261616928Y-92038661D01*
X261759785Y-92086280D01*
X261855023Y-92086280D01*
X261997880Y-92038661D01*
X262093119Y-91943423D01*
X262140738Y-91848185D01*
X262188357Y-91657709D01*
X262188357Y-91514852D01*
X262140738Y-91324376D01*
X262093119Y-91229138D01*
X261997880Y-91133900D01*
X261855023Y-91086280D01*
X261759785Y-91086280D01*
X261616928Y-91133900D01*
X261569309Y-91181519D01*
X260997880Y-92086280D02*
X261093119Y-92038661D01*
X261140738Y-91991042D01*
X261188357Y-91895804D01*
X261188357Y-91610090D01*
X261140738Y-91514852D01*
X261093119Y-91467233D01*
X260997880Y-91419614D01*
X260855023Y-91419614D01*
X260759785Y-91467233D01*
X260712166Y-91514852D01*
X260664547Y-91610090D01*
X260664547Y-91895804D01*
X260712166Y-91991042D01*
X260759785Y-92038661D01*
X260855023Y-92086280D01*
X260997880Y-92086280D01*
X260235976Y-91419614D02*
X260235976Y-92086280D01*
X260235976Y-91514852D02*
X260188357Y-91467233D01*
X260093119Y-91419614D01*
X259950261Y-91419614D01*
X259855023Y-91467233D01*
X259807404Y-91562471D01*
X259807404Y-92086280D01*
X259331214Y-91419614D02*
X259331214Y-92086280D01*
X259331214Y-91514852D02*
X259283595Y-91467233D01*
X259188357Y-91419614D01*
X259045500Y-91419614D01*
X258950261Y-91467233D01*
X258902642Y-91562471D01*
X258902642Y-92086280D01*
X257997880Y-91419614D02*
X257997880Y-92086280D01*
X258235976Y-91038661D02*
X258474071Y-91752947D01*
X257855023Y-91752947D01*
X282368300Y-133265900D02*
X282368300Y-141139900D01*
X270049300Y-133265900D02*
X257755700Y-133265900D01*
X272335300Y-135551900D02*
X272335300Y-138853900D01*
X282368300Y-133240500D02*
X273478300Y-133240500D01*
X274646700Y-141139900D02*
X273478300Y-141139900D01*
X257730300Y-141139900D02*
X257730300Y-133265900D01*
X270049300Y-133265900D02*
X271192300Y-133265900D01*
X272335300Y-135551900D02*
X272335300Y-134408900D01*
X272335300Y-138828500D02*
X272335300Y-139996900D01*
X270049300Y-141139900D02*
X257755700Y-141139900D01*
X270023900Y-141139900D02*
X271217700Y-141139900D01*
X274621300Y-141139900D02*
X282368300Y-141139900D01*
X272335300Y-134408900D02*
G75*
G03*
X273478300Y-133265900I0J1143000D01*
G01*
X272335300Y-140022300D02*
G75*
G03*
X271217700Y-141139900I-2J-1117598D01*
G01*
X273452900Y-141139900D02*
G75*
G03*
X272335300Y-140022300I-1117598J2D01*
G01*
X271192300Y-133265900D02*
G75*
G03*
X272335300Y-134408900I1143000J0D01*
G01*
X257730300Y-115993900D02*
X257730300Y-108119900D01*
X270049300Y-108119900D02*
X257755700Y-108119900D01*
X272335300Y-110405900D02*
X272335300Y-109262900D01*
X272335300Y-113682500D02*
X272335300Y-114850900D01*
X274646700Y-115993900D02*
X273478300Y-115993900D01*
X270049300Y-115993900D02*
X257755700Y-115993900D01*
X270023900Y-115993900D02*
X271217700Y-115993900D01*
X274621300Y-115993900D02*
X282368300Y-115993900D01*
X282368300Y-108094500D02*
X273478300Y-108094500D01*
X282368300Y-108119900D02*
X282368300Y-115993900D01*
X272335300Y-110405900D02*
X272335300Y-113707900D01*
X270049300Y-108119900D02*
X271192300Y-108119900D01*
X273452900Y-115993900D02*
G75*
G03*
X272335300Y-114876300I-1117598J2D01*
G01*
X272335300Y-114876300D02*
G75*
G03*
X271217700Y-115993900I-2J-1117598D01*
G01*
X272335300Y-109262900D02*
G75*
G03*
X273478300Y-108119900I0J1143000D01*
G01*
X271192300Y-108119900D02*
G75*
G03*
X272335300Y-109262900I1143000J0D01*
G01*
X69316600Y-30561000D02*
X70485000Y-30561000D01*
X63754000Y-20528000D02*
X71628000Y-20528000D01*
X71628000Y-28249600D02*
X71628000Y-29418000D01*
X66040000Y-30561000D02*
X69342000Y-30561000D01*
X71628000Y-28275000D02*
X71628000Y-20528000D01*
X71628000Y-45166000D02*
X63754000Y-45166000D01*
X63754000Y-32847000D02*
X63754000Y-31704000D01*
X71628000Y-32872400D02*
X71628000Y-31678600D01*
X63754000Y-32847000D02*
X63754000Y-45140600D01*
X71628000Y-32847000D02*
X71628000Y-45140600D01*
X63728600Y-20528000D02*
X63728600Y-29418000D01*
X66040000Y-30561000D02*
X64897000Y-30561000D01*
X70510400Y-30561000D02*
G75*
G03*
X71628000Y-31678600I1117598J-2D01*
G01*
X64897000Y-30561000D02*
G75*
G03*
X63754000Y-29418000I-1143000J0D01*
G01*
X63754000Y-31704000D02*
G75*
G03*
X64897000Y-30561000I0J1143000D01*
G01*
X71628000Y-29443400D02*
G75*
G03*
X70510400Y-30561000I-2J-1117598D01*
G01*
X13943300Y-151229900D02*
X15111700Y-151229900D01*
X18540700Y-159103900D02*
X17397700Y-159103900D01*
X18566100Y-151229900D02*
X17372300Y-151229900D01*
X18540700Y-151229900D02*
X30834300Y-151229900D01*
X16254700Y-156817900D02*
X16254700Y-153515900D01*
X30859700Y-151229900D02*
X30859700Y-159103900D01*
X6221700Y-159129300D02*
X15111700Y-159129300D01*
X16254700Y-156817900D02*
X16254700Y-157960900D01*
X16254700Y-153541300D02*
X16254700Y-152372900D01*
X13968700Y-151229900D02*
X6221700Y-151229900D01*
X6221700Y-159103900D02*
X6221700Y-151229900D01*
X18540700Y-159103900D02*
X30834300Y-159103900D01*
X15137100Y-151229900D02*
G75*
G03*
X16254700Y-152347500I1117598J-2D01*
G01*
X16254700Y-157960900D02*
G75*
G03*
X15111700Y-159103900I0J-1143000D01*
G01*
X17397700Y-159103900D02*
G75*
G03*
X16254700Y-157960900I-1143000J0D01*
G01*
X16254700Y-152347500D02*
G75*
G03*
X17372300Y-151229900I2J1117598D01*
G01*
X50660300Y-30656500D02*
X51828700Y-30656500D01*
X45097700Y-20623500D02*
X52971700Y-20623500D01*
X45097700Y-32942500D02*
X45097700Y-45236100D01*
X47383700Y-30656500D02*
X46240700Y-30656500D01*
X45072300Y-20623500D02*
X45072300Y-29513500D01*
X52971700Y-32967900D02*
X52971700Y-31774100D01*
X52971700Y-28345100D02*
X52971700Y-29513500D01*
X45097700Y-32942500D02*
X45097700Y-31799500D01*
X52971700Y-45261500D02*
X45097700Y-45261500D01*
X52971700Y-28370500D02*
X52971700Y-20623500D01*
X47383700Y-30656500D02*
X50685700Y-30656500D01*
X52971700Y-32942500D02*
X52971700Y-45236100D01*
X52971700Y-29538900D02*
G75*
G03*
X51854100Y-30656500I-2J-1117598D01*
G01*
X46240700Y-30656500D02*
G75*
G03*
X45097700Y-29513500I-1143000J0D01*
G01*
X45097700Y-31799500D02*
G75*
G03*
X46240700Y-30656500I0J1143000D01*
G01*
X51854100Y-30656500D02*
G75*
G03*
X52971700Y-31774100I1117598J-2D01*
G01*
X253352300Y-30656500D02*
X254520700Y-30656500D01*
X255663700Y-28370500D02*
X255663700Y-20623500D01*
X250075700Y-30656500D02*
X248932700Y-30656500D01*
X255663700Y-28345100D02*
X255663700Y-29513500D01*
X247764300Y-20623500D02*
X247764300Y-29513500D01*
X250075700Y-30656500D02*
X253377700Y-30656500D01*
X255663700Y-32967900D02*
X255663700Y-31774100D01*
X247789700Y-20623500D02*
X255663700Y-20623500D01*
X247789700Y-32942500D02*
X247789700Y-45236100D01*
X247789700Y-32942500D02*
X247789700Y-31799500D01*
X255663700Y-32942500D02*
X255663700Y-45236100D01*
X255663700Y-45261500D02*
X247789700Y-45261500D01*
X255663700Y-29538900D02*
G75*
G03*
X254546100Y-30656500I-2J-1117598D01*
G01*
X247789700Y-31799500D02*
G75*
G03*
X248932700Y-30656500I0J1143000D01*
G01*
X248932700Y-30656500D02*
G75*
G03*
X247789700Y-29513500I-1143000J0D01*
G01*
X254546100Y-30656500D02*
G75*
G03*
X255663700Y-31774100I1117598J-2D01*
G01*
X18585400Y-134381200D02*
X17442400Y-134381200D01*
X16299400Y-132095200D02*
X16299400Y-128793200D01*
X14013400Y-126507200D02*
X6266400Y-126507200D01*
X16299400Y-128818600D02*
X16299400Y-127650200D01*
X18610800Y-126507200D02*
X17417000Y-126507200D01*
X30904400Y-126507200D02*
X30904400Y-134381200D01*
X13988000Y-126507200D02*
X15156400Y-126507200D01*
X6266400Y-134406600D02*
X15156400Y-134406600D01*
X16299400Y-132095200D02*
X16299400Y-133238200D01*
X18585400Y-126507200D02*
X30879000Y-126507200D01*
X18585400Y-134381200D02*
X30879000Y-134381200D01*
X6266400Y-134381200D02*
X6266400Y-126507200D01*
X15181800Y-126507200D02*
G75*
G03*
X16299400Y-127624800I1117598J-2D01*
G01*
X16299400Y-127624800D02*
G75*
G03*
X17417000Y-126507200I2J1117598D01*
G01*
X16299400Y-133238200D02*
G75*
G03*
X15156400Y-134381200I0J-1143000D01*
G01*
X17442400Y-134381200D02*
G75*
G03*
X16299400Y-133238200I-1143000J0D01*
G01*
X14019500Y-101668500D02*
X6272500Y-101668500D01*
X18616900Y-101668500D02*
X17423100Y-101668500D01*
X6272500Y-109567900D02*
X15162500Y-109567900D01*
X6272500Y-109542500D02*
X6272500Y-101668500D01*
X16305500Y-107256500D02*
X16305500Y-103954500D01*
X16305500Y-103979900D02*
X16305500Y-102811500D01*
X13994100Y-101668500D02*
X15162500Y-101668500D01*
X16305500Y-107256500D02*
X16305500Y-108399500D01*
X18591500Y-101668500D02*
X30885100Y-101668500D01*
X30910500Y-101668500D02*
X30910500Y-109542500D01*
X18591500Y-109542500D02*
X17448500Y-109542500D01*
X18591500Y-109542500D02*
X30885100Y-109542500D01*
X16305500Y-102786100D02*
G75*
G03*
X17423100Y-101668500I2J1117598D01*
G01*
X17448500Y-109542500D02*
G75*
G03*
X16305500Y-108399500I-1143000J0D01*
G01*
X15187900Y-101668500D02*
G75*
G03*
X16305500Y-102786100I1117598J-2D01*
G01*
X16305500Y-108399500D02*
G75*
G03*
X15162500Y-109542500I0J-1143000D01*
G01*
X14146500Y-76988000D02*
X6399500Y-76988000D01*
X6399500Y-84862000D02*
X6399500Y-76988000D01*
X18718500Y-84862000D02*
X31012100Y-84862000D01*
X16432500Y-82576000D02*
X16432500Y-83719000D01*
X18718500Y-76988000D02*
X31012100Y-76988000D01*
X16432500Y-79299400D02*
X16432500Y-78131000D01*
X14121100Y-76988000D02*
X15289500Y-76988000D01*
X31037500Y-76988000D02*
X31037500Y-84862000D01*
X18718500Y-84862000D02*
X17575500Y-84862000D01*
X16432500Y-82576000D02*
X16432500Y-79274000D01*
X6399500Y-84887400D02*
X15289500Y-84887400D01*
X18743900Y-76988000D02*
X17550100Y-76988000D01*
X16432500Y-83719000D02*
G75*
G03*
X15289500Y-84862000I0J-1143000D01*
G01*
X17575500Y-84862000D02*
G75*
G03*
X16432500Y-83719000I-1143000J0D01*
G01*
X16432500Y-78105600D02*
G75*
G03*
X17550100Y-76988000I2J1117598D01*
G01*
X15314900Y-76988000D02*
G75*
G03*
X16432500Y-78105600I1117598J-2D01*
G01*
X210959700Y-32942500D02*
X210959700Y-45236100D01*
X205371700Y-30656500D02*
X208673700Y-30656500D01*
X210959700Y-45261500D02*
X203085700Y-45261500D01*
X203085700Y-32942500D02*
X203085700Y-31799500D01*
X208648300Y-30656500D02*
X209816700Y-30656500D01*
X205371700Y-30656500D02*
X204228700Y-30656500D01*
X203060300Y-20623500D02*
X203060300Y-29513500D01*
X203085700Y-20623500D02*
X210959700Y-20623500D01*
X210959700Y-28370500D02*
X210959700Y-20623500D01*
X210959700Y-28345100D02*
X210959700Y-29513500D01*
X210959700Y-32967900D02*
X210959700Y-31774100D01*
X203085700Y-32942500D02*
X203085700Y-45236100D01*
X209842100Y-30656500D02*
G75*
G03*
X210959700Y-31774100I1117598J-2D01*
G01*
X203085700Y-31799500D02*
G75*
G03*
X204228700Y-30656500I0J1143000D01*
G01*
X204228700Y-30656500D02*
G75*
G03*
X203085700Y-29513500I-1143000J0D01*
G01*
X210959700Y-29538900D02*
G75*
G03*
X209842100Y-30656500I-2J-1117598D01*
G01*
X34429700Y-32967900D02*
X34429700Y-31774100D01*
X32118300Y-30656500D02*
X33286700Y-30656500D01*
X28841700Y-30656500D02*
X32143700Y-30656500D01*
X34429700Y-28345100D02*
X34429700Y-29513500D01*
X26555700Y-32942500D02*
X26555700Y-31799500D01*
X34429700Y-45261500D02*
X26555700Y-45261500D01*
X26555700Y-32942500D02*
X26555700Y-45236100D01*
X34429700Y-32942500D02*
X34429700Y-45236100D01*
X28841700Y-30656500D02*
X27698700Y-30656500D01*
X34429700Y-28370500D02*
X34429700Y-20623500D01*
X26555700Y-20623500D02*
X34429700Y-20623500D01*
X26530300Y-20623500D02*
X26530300Y-29513500D01*
X33312100Y-30656500D02*
G75*
G03*
X34429700Y-31774100I1117598J-2D01*
G01*
X27698700Y-30656500D02*
G75*
G03*
X26555700Y-29513500I-1143000J0D01*
G01*
X26555700Y-31799500D02*
G75*
G03*
X27698700Y-30656500I0J1143000D01*
G01*
X34429700Y-29538900D02*
G75*
G03*
X33312100Y-30656500I-2J-1117598D01*
G01*
X227723700Y-30656500D02*
X231025700Y-30656500D01*
X225437700Y-32942500D02*
X225437700Y-45236100D01*
X225437700Y-32942500D02*
X225437700Y-31799500D01*
X227723700Y-30656500D02*
X226580700Y-30656500D01*
X233311700Y-28345100D02*
X233311700Y-29513500D01*
X233311700Y-45261500D02*
X225437700Y-45261500D01*
X233311700Y-28370500D02*
X233311700Y-20623500D01*
X225437700Y-20623500D02*
X233311700Y-20623500D01*
X233311700Y-32967900D02*
X233311700Y-31774100D01*
X225412300Y-20623500D02*
X225412300Y-29513500D01*
X231000300Y-30656500D02*
X232168700Y-30656500D01*
X233311700Y-32942500D02*
X233311700Y-45236100D01*
X226580700Y-30656500D02*
G75*
G03*
X225437700Y-29513500I-1143000J0D01*
G01*
X233311700Y-29538900D02*
G75*
G03*
X232194100Y-30656500I-2J-1117598D01*
G01*
X232194100Y-30656500D02*
G75*
G03*
X233311700Y-31774100I1117598J-2D01*
G01*
X225437700Y-31799500D02*
G75*
G03*
X226580700Y-30656500I0J1143000D01*
G01*
X18743900Y-67424300D02*
X17550100Y-67424300D01*
X31037500Y-67424300D02*
X31037500Y-75298300D01*
X16432500Y-73012300D02*
X16432500Y-69710300D01*
X16432500Y-73012300D02*
X16432500Y-74155300D01*
X18718500Y-75298300D02*
X17575500Y-75298300D01*
X18718500Y-75298300D02*
X31012100Y-75298300D01*
X6399500Y-75298300D02*
X6399500Y-67424300D01*
X6399500Y-75323700D02*
X15289500Y-75323700D01*
X14121100Y-67424300D02*
X15289500Y-67424300D01*
X14146500Y-67424300D02*
X6399500Y-67424300D01*
X18718500Y-67424300D02*
X31012100Y-67424300D01*
X16432500Y-69735700D02*
X16432500Y-68567300D01*
X17575500Y-75298300D02*
G75*
G03*
X16432500Y-74155300I-1143000J0D01*
G01*
X16432500Y-74155300D02*
G75*
G03*
X15289500Y-75298300I0J-1143000D01*
G01*
X15314900Y-67424300D02*
G75*
G03*
X16432500Y-68541900I1117598J-2D01*
G01*
X16432500Y-68541900D02*
G75*
G03*
X17550100Y-67424300I2J1117598D01*
G01*
X86245700Y-20623500D02*
X94119700Y-20623500D01*
X86220300Y-20623500D02*
X86220300Y-29513500D01*
X94119700Y-32942500D02*
X94119700Y-45236100D01*
X88531700Y-30656500D02*
X91833700Y-30656500D01*
X94119700Y-28370500D02*
X94119700Y-20623500D01*
X94119700Y-45261500D02*
X86245700Y-45261500D01*
X86245700Y-32942500D02*
X86245700Y-31799500D01*
X88531700Y-30656500D02*
X87388700Y-30656500D01*
X91808300Y-30656500D02*
X92976700Y-30656500D01*
X94119700Y-32967900D02*
X94119700Y-31774100D01*
X86245700Y-32942500D02*
X86245700Y-45236100D01*
X94119700Y-28345100D02*
X94119700Y-29513500D01*
X86245700Y-31799500D02*
G75*
G03*
X87388700Y-30656500I0J1143000D01*
G01*
X94119700Y-29538900D02*
G75*
G03*
X93002100Y-30656500I-2J-1117598D01*
G01*
X93002100Y-30656500D02*
G75*
G03*
X94119700Y-31774100I1117598J-2D01*
G01*
X87388700Y-30656500D02*
G75*
G03*
X86245700Y-29513500I-1143000J0D01*
G01*
X188607700Y-32967900D02*
X188607700Y-31774100D01*
X188607700Y-28370500D02*
X188607700Y-20623500D01*
X188607700Y-45261500D02*
X180733700Y-45261500D01*
X183019700Y-30656500D02*
X181876700Y-30656500D01*
X180733700Y-32942500D02*
X180733700Y-45236100D01*
X180708300Y-20623500D02*
X180708300Y-29513500D01*
X186296300Y-30656500D02*
X187464700Y-30656500D01*
X180733700Y-20623500D02*
X188607700Y-20623500D01*
X188607700Y-32942500D02*
X188607700Y-45236100D01*
X180733700Y-32942500D02*
X180733700Y-31799500D01*
X183019700Y-30656500D02*
X186321700Y-30656500D01*
X188607700Y-28345100D02*
X188607700Y-29513500D01*
X180733700Y-31799500D02*
G75*
G03*
X181876700Y-30656500I0J1143000D01*
G01*
X187490100Y-30656500D02*
G75*
G03*
X188607700Y-31774100I1117598J-2D01*
G01*
X181876700Y-30656500D02*
G75*
G03*
X180733700Y-29513500I-1143000J0D01*
G01*
X188607700Y-29538900D02*
G75*
G03*
X187490100Y-30656500I-2J-1117598D01*
G01*
X270070500Y-90847900D02*
X257776900Y-90847900D01*
X270045100Y-90847900D02*
X271238900Y-90847900D01*
X274667900Y-90847900D02*
X273499500Y-90847900D01*
X282389500Y-82973900D02*
X282389500Y-90847900D01*
X272356500Y-85259900D02*
X272356500Y-88561900D01*
X272356500Y-85259900D02*
X272356500Y-84116900D01*
X272356500Y-88536500D02*
X272356500Y-89704900D01*
X270070500Y-82973900D02*
X257776900Y-82973900D01*
X270070500Y-82973900D02*
X271213500Y-82973900D01*
X282389500Y-82948500D02*
X273499500Y-82948500D01*
X274642500Y-90847900D02*
X282389500Y-90847900D01*
X257751500Y-90847900D02*
X257751500Y-82973900D01*
X273474100Y-90847900D02*
G75*
G03*
X272356500Y-89730300I-1117598J2D01*
G01*
X272356500Y-89730300D02*
G75*
G03*
X271238900Y-90847900I-2J-1117598D01*
G01*
X272356500Y-84116900D02*
G75*
G03*
X273499500Y-82973900I0J1143000D01*
G01*
X271213500Y-82973900D02*
G75*
G03*
X272356500Y-84116900I1143000J0D01*
G01*
%LPC*%
D12*
X114554000Y-168295000D03*
D13*
X114554000Y-163215000D03*
D14*
X97282000Y-168402000D03*
D15*
X104782000Y-168402000D03*
D16*
X100267500Y-113906000D03*
X100267500Y-121806000D03*
D17*
X20745580Y-174580420D03*
D18*
X149479000Y-87884000D03*
X157099000Y-87884000D03*
X164719000Y-87884000D03*
D19*
X164719000Y-37084000D03*
D18*
X160909000Y-37084000D03*
X157099000Y-37084000D03*
X153289000Y-37084000D03*
D19*
X149479000Y-37084000D03*
D20*
X233934100Y-80875900D03*
X233934100Y-77446900D03*
X247396100Y-80875900D03*
X247396100Y-77446900D03*
D17*
X268478000Y-34798000D03*
D20*
X54451500Y-136514800D03*
X54451500Y-139943800D03*
X40989500Y-139943800D03*
X40989500Y-136514800D03*
X233840900Y-131218700D03*
X233840900Y-127789700D03*
X247302900Y-127789700D03*
X247302900Y-131218700D03*
X54832500Y-86894000D03*
X54832500Y-90323000D03*
X41370500Y-86894000D03*
X41370500Y-90323000D03*
D14*
X97282000Y-150114000D03*
D15*
X104782000Y-150114000D03*
D20*
X233942500Y-102542100D03*
X233942500Y-105971100D03*
X247404500Y-105971100D03*
X247404500Y-102542100D03*
D21*
X180340000Y-68519113D03*
D22*
X180340000Y-66519113D03*
D23*
X78486000Y-168402000D03*
D14*
X131826000Y-168402000D03*
D15*
X124326000Y-168402000D03*
D16*
X128658300Y-113279500D03*
X128658300Y-121179500D03*
D17*
X20320000Y-34798000D03*
D21*
X129641677Y-50800000D03*
D22*
X127141677Y-50800000D03*
D24*
X130891677Y-63246000D03*
D25*
X125891677Y-63246000D03*
D20*
X54503000Y-115062000D03*
X54503000Y-111633000D03*
X41041000Y-115062000D03*
X41041000Y-111633000D03*
D21*
X129489354Y-38354000D03*
D22*
X126989354Y-38354000D03*
D16*
X167446000Y-123330000D03*
X167446000Y-115430000D03*
D23*
X150622000Y-168402000D03*
D26*
X243840000Y-152540500D03*
X241300000Y-152540500D03*
X238760000Y-152540500D03*
X236220000Y-152540500D03*
X210820000Y-152540500D03*
X241300000Y-167780500D03*
X200660000Y-157620500D03*
X233680000Y-152540500D03*
X231140000Y-152540500D03*
D27*
X240030000Y-155590500D03*
D26*
X228600000Y-152540500D03*
X226060000Y-152540500D03*
X223520000Y-152540500D03*
X220980000Y-152540500D03*
X218440000Y-152540500D03*
X215900000Y-152540500D03*
X213360000Y-152540500D03*
X213360000Y-167780500D03*
X215900000Y-167780500D03*
X218440000Y-167780500D03*
X220980000Y-167780500D03*
X223520000Y-167780500D03*
X226060000Y-167780500D03*
X228600000Y-167780500D03*
X231140000Y-167780500D03*
X233680000Y-167780500D03*
X236220000Y-167780500D03*
X238760000Y-167780500D03*
X208280000Y-152540500D03*
X205740000Y-152540500D03*
X203200000Y-152540500D03*
X200660000Y-152540500D03*
X198120000Y-152540500D03*
X195580000Y-152540500D03*
X193040000Y-152540500D03*
X190500000Y-152540500D03*
X187960000Y-152540500D03*
X187960000Y-167780500D03*
X190500000Y-167780500D03*
X193040000Y-167780500D03*
X195580000Y-167780500D03*
X198120000Y-167780500D03*
X200660000Y-167780500D03*
X203200000Y-167780500D03*
X205740000Y-167780500D03*
X208280000Y-167780500D03*
D27*
X234950000Y-155590500D03*
X237490000Y-155590500D03*
D26*
X246380000Y-152540500D03*
X210820000Y-167780500D03*
X243840000Y-167780500D03*
X200660000Y-160160500D03*
D28*
X231410000Y-163330500D03*
X233410000Y-163330500D03*
D26*
X200660000Y-165240500D03*
X200660000Y-162700500D03*
D28*
X233410000Y-165330500D03*
X231410000Y-165330500D03*
X231410000Y-161330500D03*
X233410000Y-161330500D03*
D27*
X232410000Y-155590500D03*
X229870000Y-155590500D03*
D26*
X200660000Y-155080500D03*
X246380000Y-167780500D03*
X243840000Y-165240500D03*
D29*
X234442000Y-143764000D03*
X236982000Y-143764000D03*
X239522000Y-143764000D03*
D20*
X135359100Y-101333900D03*
X138788100Y-101333900D03*
X135359100Y-114795900D03*
X138788100Y-114795900D03*
D30*
X255163500Y-164338000D03*
X252623500Y-163068000D03*
X255163500Y-161798000D03*
X252623500Y-160528000D03*
X255163500Y-159258000D03*
X252623500Y-157988000D03*
X255163500Y-156718000D03*
X252623500Y-155448000D03*
D31*
X266593500Y-166218000D03*
X264803500Y-163678000D03*
X266593500Y-156108000D03*
X264803500Y-153568000D03*
D32*
X261513500Y-165608000D03*
X261513500Y-154178000D03*
D25*
X258463500Y-152018000D03*
X258463500Y-167768000D03*
D14*
X131826000Y-150114000D03*
D15*
X124326000Y-150114000D03*
D17*
X268306420Y-174580420D03*
D12*
X114554000Y-150007000D03*
D13*
X114554000Y-144927000D03*
D20*
X54324500Y-161062000D03*
X54324500Y-164491000D03*
X40862500Y-164491000D03*
X40862500Y-161062000D03*
X110396200Y-101441000D03*
X106967200Y-101441000D03*
X110396200Y-114903000D03*
X106967200Y-114903000D03*
D16*
X246300300Y-137075900D03*
X254174300Y-137075900D03*
X246300300Y-111929900D03*
X254174300Y-111929900D03*
D33*
X67564000Y-56596000D03*
X67564000Y-48722000D03*
D16*
X42289700Y-155293900D03*
X34415700Y-155293900D03*
D33*
X48907700Y-56691500D03*
X48907700Y-48817500D03*
X251599700Y-56691500D03*
X251599700Y-48817500D03*
D16*
X42334400Y-130571200D03*
X34460400Y-130571200D03*
X42340500Y-105732500D03*
X34466500Y-105732500D03*
X42467500Y-81052000D03*
X34593500Y-81052000D03*
D33*
X206895700Y-56691500D03*
X206895700Y-48817500D03*
X30365700Y-56691500D03*
X30365700Y-48817500D03*
X229247700Y-56691500D03*
X229247700Y-48817500D03*
D16*
X42467500Y-71488300D03*
X34593500Y-71488300D03*
D33*
X90055700Y-56691500D03*
X90055700Y-48817500D03*
X184543700Y-56691500D03*
X184543700Y-48817500D03*
D16*
X246321500Y-86783900D03*
X254195500Y-86783900D03*
M02*
