G04 #@! TF.GenerationSoftware,KiCad,Pcbnew,(6.0.7)*
G04 #@! TF.CreationDate,2022-11-19T14:58:49-06:00*
G04 #@! TF.ProjectId,2023 Powerboard,32303233-2050-46f7-9765-72626f617264,rev?*
G04 #@! TF.SameCoordinates,Original*
G04 #@! TF.FileFunction,Paste,Top*
G04 #@! TF.FilePolarity,Positive*
%FSLAX46Y46*%
G04 Gerber Fmt 4.6, Leading zero omitted, Abs format (unit mm)*
G04 Created by KiCad (PCBNEW (6.0.7)) date 2022-11-19 14:58:49*
%MOMM*%
%LPD*%
G01*
G04 APERTURE LIST*
G04 Aperture macros list*
%AMRoundRect*
0 Rectangle with rounded corners*
0 $1 Rounding radius*
0 $2 $3 $4 $5 $6 $7 $8 $9 X,Y pos of 4 corners*
0 Add a 4 corners polygon primitive as box body*
4,1,4,$2,$3,$4,$5,$6,$7,$8,$9,$2,$3,0*
0 Add four circle primitives for the rounded corners*
1,1,$1+$1,$2,$3*
1,1,$1+$1,$4,$5*
1,1,$1+$1,$6,$7*
1,1,$1+$1,$8,$9*
0 Add four rect primitives between the rounded corners*
20,1,$1+$1,$2,$3,$4,$5,0*
20,1,$1+$1,$4,$5,$6,$7,0*
20,1,$1+$1,$6,$7,$8,$9,0*
20,1,$1+$1,$8,$9,$2,$3,0*%
G04 Aperture macros list end*
%ADD10RoundRect,0.237500X0.237500X-0.287500X0.237500X0.287500X-0.237500X0.287500X-0.237500X-0.287500X0*%
%ADD11RoundRect,0.237500X-0.237500X0.250000X-0.237500X-0.250000X0.237500X-0.250000X0.237500X0.250000X0*%
%ADD12RoundRect,0.237500X0.250000X0.237500X-0.250000X0.237500X-0.250000X-0.237500X0.250000X-0.237500X0*%
%ADD13RoundRect,0.150000X0.150000X-0.587500X0.150000X0.587500X-0.150000X0.587500X-0.150000X-0.587500X0*%
%ADD14RoundRect,0.237500X-0.250000X-0.237500X0.250000X-0.237500X0.250000X0.237500X-0.250000X0.237500X0*%
%ADD15RoundRect,0.150000X0.587500X0.150000X-0.587500X0.150000X-0.587500X-0.150000X0.587500X-0.150000X0*%
%ADD16RoundRect,0.150000X0.150000X-0.675000X0.150000X0.675000X-0.150000X0.675000X-0.150000X-0.675000X0*%
%ADD17RoundRect,0.237500X0.237500X-0.250000X0.237500X0.250000X-0.237500X0.250000X-0.237500X-0.250000X0*%
%ADD18R,2.750000X3.050000*%
%ADD19R,1.200000X2.200000*%
%ADD20RoundRect,0.237500X-0.237500X0.300000X-0.237500X-0.300000X0.237500X-0.300000X0.237500X0.300000X0*%
%ADD21RoundRect,0.237500X-0.300000X-0.237500X0.300000X-0.237500X0.300000X0.237500X-0.300000X0.237500X0*%
%ADD22RoundRect,0.237500X-0.287500X-0.237500X0.287500X-0.237500X0.287500X0.237500X-0.287500X0.237500X0*%
%ADD23RoundRect,0.237500X0.300000X0.237500X-0.300000X0.237500X-0.300000X-0.237500X0.300000X-0.237500X0*%
G04 APERTURE END LIST*
D10*
X238385200Y-49462800D03*
X238385200Y-47712800D03*
D11*
X166336200Y-44140900D03*
X166336200Y-45965900D03*
D12*
X262227700Y-51104800D03*
X260402700Y-51104800D03*
D13*
X293486800Y-56715900D03*
X295386800Y-56715900D03*
X294436800Y-54840900D03*
D12*
X172348900Y-51117200D03*
X170523900Y-51117200D03*
X190195300Y-51280200D03*
X188370300Y-51280200D03*
D11*
X75438000Y-40348500D03*
X75438000Y-42173500D03*
D14*
X99671500Y-47612000D03*
X101496500Y-47612000D03*
D10*
X310047100Y-49081500D03*
X310047100Y-47331500D03*
D14*
X127611500Y-47472600D03*
X129436500Y-47472600D03*
D10*
X145034000Y-45579000D03*
X145034000Y-43829000D03*
D11*
X312460100Y-50859500D03*
X312460100Y-52684500D03*
X131318000Y-47474500D03*
X131318000Y-49299500D03*
X103378000Y-47586100D03*
X103378000Y-49411100D03*
D14*
X71985500Y-47611000D03*
X73810500Y-47611000D03*
X113641500Y-47551200D03*
X115466500Y-47551200D03*
D10*
X103124000Y-45311500D03*
X103124000Y-43561500D03*
D15*
X146835100Y-53528000D03*
X146835100Y-51628000D03*
X144960100Y-52578000D03*
D11*
X220421200Y-44073300D03*
X220421200Y-45898300D03*
D13*
X203316800Y-56868300D03*
X205216800Y-56868300D03*
X204266800Y-54993300D03*
D14*
X85902700Y-47498000D03*
X87727700Y-47498000D03*
D10*
X131064000Y-45299600D03*
X131064000Y-43549600D03*
X62611000Y-43914000D03*
X62611000Y-42164000D03*
X256235200Y-49439800D03*
X256235200Y-47689800D03*
D11*
X274320000Y-44197900D03*
X274320000Y-46022900D03*
D10*
X117094000Y-45632200D03*
X117094000Y-43882200D03*
X89355200Y-45579000D03*
X89355200Y-43829000D03*
D16*
X69723000Y-45410000D03*
X70993000Y-45410000D03*
X72263000Y-45410000D03*
X73533000Y-45410000D03*
X73533000Y-40160000D03*
X72263000Y-40160000D03*
X70993000Y-40160000D03*
X69723000Y-40160000D03*
D12*
X226312100Y-51081800D03*
X224487100Y-51081800D03*
D10*
X159004000Y-45489800D03*
X159004000Y-43739800D03*
D17*
X205486000Y-149399000D03*
X205486000Y-147574000D03*
D12*
X244346200Y-51178600D03*
X242521200Y-51178600D03*
D13*
X257571200Y-56766700D03*
X259471200Y-56766700D03*
X258521200Y-54891700D03*
X239742400Y-56840500D03*
X241642400Y-56840500D03*
X240692400Y-54965500D03*
D15*
X132966700Y-53248600D03*
X132966700Y-51348600D03*
X131091700Y-52298600D03*
D11*
X240692400Y-51180500D03*
X240692400Y-53005500D03*
X184385800Y-44306700D03*
X184385800Y-46131700D03*
D12*
X316166600Y-50883000D03*
X314341600Y-50883000D03*
D11*
X117299200Y-47576100D03*
X117299200Y-49401100D03*
D18*
X169402400Y-44157600D03*
X172452400Y-40807600D03*
X169402400Y-40807600D03*
X172452400Y-44157600D03*
D19*
X168647400Y-48782600D03*
X173207400Y-48782600D03*
D18*
X316271100Y-40631000D03*
X313221100Y-43981000D03*
X313221100Y-40631000D03*
X316271100Y-43981000D03*
D19*
X312466100Y-48606000D03*
X317026100Y-48606000D03*
D20*
X203708000Y-147624000D03*
X203708000Y-149349000D03*
D11*
X256235200Y-44096300D03*
X256235200Y-45921300D03*
D18*
X241504200Y-44200400D03*
X244554200Y-40850400D03*
X244554200Y-44200400D03*
X241504200Y-40850400D03*
D19*
X240749200Y-48825400D03*
X245309200Y-48825400D03*
D12*
X280056600Y-51206400D03*
X278231600Y-51206400D03*
D11*
X145288000Y-47804700D03*
X145288000Y-49629700D03*
D18*
X295196800Y-44126600D03*
X295196800Y-40776600D03*
X298246800Y-44126600D03*
X298246800Y-40776600D03*
D19*
X294441800Y-48751600D03*
X299001800Y-48751600D03*
D13*
X311510100Y-56519500D03*
X313410100Y-56519500D03*
X312460100Y-54644500D03*
X221554000Y-56692900D03*
X223454000Y-56692900D03*
X222504000Y-54817900D03*
D11*
X117094000Y-40288700D03*
X117094000Y-42113700D03*
D16*
X111379000Y-45350200D03*
X112649000Y-45350200D03*
X113919000Y-45350200D03*
X115189000Y-45350200D03*
X115189000Y-40100200D03*
X113919000Y-40100200D03*
X112649000Y-40100200D03*
X111379000Y-40100200D03*
D10*
X292023800Y-49370400D03*
X292023800Y-47620400D03*
D15*
X118897100Y-53327200D03*
X118897100Y-51427200D03*
X117022100Y-52377200D03*
D11*
X159004000Y-40146300D03*
X159004000Y-41971300D03*
D10*
X184385800Y-49650200D03*
X184385800Y-47900200D03*
D11*
X202112000Y-44299500D03*
X202112000Y-46124500D03*
D16*
X125349000Y-45271600D03*
X126619000Y-45271600D03*
X127889000Y-45271600D03*
X129159000Y-45271600D03*
X129159000Y-40021600D03*
X127889000Y-40021600D03*
X126619000Y-40021600D03*
X125349000Y-40021600D03*
D18*
X223467200Y-44170200D03*
X226517200Y-40820200D03*
X223467200Y-40820200D03*
X226517200Y-44170200D03*
D19*
X222712200Y-48795200D03*
X227272200Y-48795200D03*
D11*
X89355200Y-40235500D03*
X89355200Y-42060500D03*
D21*
X326192500Y-152940000D03*
X327917500Y-152940000D03*
D15*
X91259900Y-53398600D03*
X91259900Y-51498600D03*
X89384900Y-52448600D03*
D13*
X185589600Y-56891300D03*
X187489600Y-56891300D03*
X186539600Y-55016300D03*
D16*
X139319000Y-45551000D03*
X140589000Y-45551000D03*
X141859000Y-45551000D03*
X143129000Y-45551000D03*
X143129000Y-40301000D03*
X141859000Y-40301000D03*
X140589000Y-40301000D03*
X139319000Y-40301000D03*
D10*
X205486000Y-152917500D03*
X205486000Y-151167500D03*
D11*
X310047100Y-43738000D03*
X310047100Y-45563000D03*
D22*
X194705000Y-158242000D03*
X196455000Y-158242000D03*
D11*
X145034000Y-40235500D03*
X145034000Y-42060500D03*
D10*
X75438000Y-45692000D03*
X75438000Y-43942000D03*
D16*
X153289000Y-45411000D03*
X154559000Y-45411000D03*
X155829000Y-45411000D03*
X157099000Y-45411000D03*
X157099000Y-40161000D03*
X155829000Y-40161000D03*
X154559000Y-40161000D03*
X153289000Y-40161000D03*
D15*
X105028700Y-53134000D03*
X105028700Y-51234000D03*
X103153700Y-52184000D03*
D11*
X222554800Y-51083700D03*
X222554800Y-52908700D03*
D13*
X275402000Y-56969900D03*
X277302000Y-56969900D03*
X276352000Y-55094900D03*
D10*
X166336200Y-49484400D03*
X166336200Y-47734400D03*
D11*
X103124000Y-39968000D03*
X103124000Y-41793000D03*
X276352000Y-51208300D03*
X276352000Y-53033300D03*
D15*
X77342700Y-53613200D03*
X77342700Y-51713200D03*
X75467700Y-52663200D03*
D11*
X258521200Y-51106700D03*
X258521200Y-52931700D03*
D13*
X167692400Y-56779100D03*
X169592400Y-56779100D03*
X168642400Y-54904100D03*
D11*
X75692000Y-47714500D03*
X75692000Y-49539500D03*
X294436800Y-51005100D03*
X294436800Y-52830100D03*
D16*
X97409000Y-45157000D03*
X98679000Y-45157000D03*
X99949000Y-45157000D03*
X101219000Y-45157000D03*
X101219000Y-39907000D03*
X99949000Y-39907000D03*
X98679000Y-39907000D03*
X97409000Y-39907000D03*
D11*
X131064000Y-39956100D03*
X131064000Y-41781100D03*
D18*
X190502000Y-44368600D03*
X190502000Y-41018600D03*
X187452000Y-44368600D03*
X187452000Y-41018600D03*
D19*
X186697000Y-48993600D03*
X191257000Y-48993600D03*
D12*
X298016300Y-51028600D03*
X296191300Y-51028600D03*
D14*
X141581500Y-47752000D03*
X143406500Y-47752000D03*
X48109500Y-40386000D03*
X49934500Y-40386000D03*
D18*
X280418000Y-44279000D03*
X277368000Y-44279000D03*
X280418000Y-40929000D03*
X277368000Y-40929000D03*
D19*
X276613000Y-48904000D03*
X281173000Y-48904000D03*
D11*
X159359600Y-47612000D03*
X159359600Y-49437000D03*
X168642400Y-51119100D03*
X168642400Y-52944100D03*
D14*
X155602300Y-47561200D03*
X157427300Y-47561200D03*
D11*
X186539600Y-51282100D03*
X186539600Y-53107100D03*
D18*
X205180200Y-40979800D03*
X205180200Y-44329800D03*
X208230200Y-40979800D03*
X208230200Y-44329800D03*
D19*
X204425200Y-48954800D03*
X208985200Y-48954800D03*
D16*
X83640200Y-45297000D03*
X84910200Y-45297000D03*
X86180200Y-45297000D03*
X87450200Y-45297000D03*
X87450200Y-40047000D03*
X86180200Y-40047000D03*
X84910200Y-40047000D03*
X83640200Y-40047000D03*
D12*
X207871700Y-51257200D03*
X206046700Y-51257200D03*
D10*
X49911000Y-43914000D03*
X49911000Y-42164000D03*
D12*
X200048500Y-158242000D03*
X198223500Y-158242000D03*
D11*
X89609200Y-47601500D03*
X89609200Y-49426500D03*
D10*
X220421200Y-49416800D03*
X220421200Y-47666800D03*
D18*
X262333200Y-44145200D03*
X259283200Y-40795200D03*
X259283200Y-44145200D03*
X262333200Y-40795200D03*
D19*
X258528200Y-48770200D03*
X263088200Y-48770200D03*
D11*
X238385200Y-44119300D03*
X238385200Y-45944300D03*
X292023800Y-43923400D03*
X292023800Y-45748400D03*
D10*
X202112000Y-49643000D03*
X202112000Y-47893000D03*
D14*
X60809500Y-40386000D03*
X62634500Y-40386000D03*
D23*
X199998500Y-156210000D03*
X198273500Y-156210000D03*
D11*
X204266800Y-51259100D03*
X204266800Y-53084100D03*
D15*
X160881300Y-53362600D03*
X160881300Y-51462600D03*
X159006300Y-52412600D03*
D10*
X274320000Y-49541400D03*
X274320000Y-47791400D03*
M02*
