G04 #@! TF.GenerationSoftware,KiCad,Pcbnew,(6.0.7)*
G04 #@! TF.CreationDate,2023-03-20T21:13:55-05:00*
G04 #@! TF.ProjectId,2023 Powerboard,32303233-2050-46f7-9765-72626f617264,rev?*
G04 #@! TF.SameCoordinates,Original*
G04 #@! TF.FileFunction,Paste,Top*
G04 #@! TF.FilePolarity,Positive*
%FSLAX46Y46*%
G04 Gerber Fmt 4.6, Leading zero omitted, Abs format (unit mm)*
G04 Created by KiCad (PCBNEW (6.0.7)) date 2023-03-20 21:13:55*
%MOMM*%
%LPD*%
G01*
G04 APERTURE LIST*
G04 Aperture macros list*
%AMRoundRect*
0 Rectangle with rounded corners*
0 $1 Rounding radius*
0 $2 $3 $4 $5 $6 $7 $8 $9 X,Y pos of 4 corners*
0 Add a 4 corners polygon primitive as box body*
4,1,4,$2,$3,$4,$5,$6,$7,$8,$9,$2,$3,0*
0 Add four circle primitives for the rounded corners*
1,1,$1+$1,$2,$3*
1,1,$1+$1,$4,$5*
1,1,$1+$1,$6,$7*
1,1,$1+$1,$8,$9*
0 Add four rect primitives between the rounded corners*
20,1,$1+$1,$2,$3,$4,$5,0*
20,1,$1+$1,$4,$5,$6,$7,0*
20,1,$1+$1,$6,$7,$8,$9,0*
20,1,$1+$1,$8,$9,$2,$3,0*%
G04 Aperture macros list end*
%ADD10RoundRect,0.237500X-0.287500X-0.237500X0.287500X-0.237500X0.287500X0.237500X-0.287500X0.237500X0*%
%ADD11RoundRect,0.237500X0.237500X-0.250000X0.237500X0.250000X-0.237500X0.250000X-0.237500X-0.250000X0*%
%ADD12RoundRect,0.237500X0.250000X0.237500X-0.250000X0.237500X-0.250000X-0.237500X0.250000X-0.237500X0*%
%ADD13RoundRect,0.150000X0.587500X0.150000X-0.587500X0.150000X-0.587500X-0.150000X0.587500X-0.150000X0*%
%ADD14RoundRect,0.237500X-0.250000X-0.237500X0.250000X-0.237500X0.250000X0.237500X-0.250000X0.237500X0*%
%ADD15RoundRect,0.249999X0.450001X1.425001X-0.450001X1.425001X-0.450001X-1.425001X0.450001X-1.425001X0*%
%ADD16RoundRect,0.237500X-0.237500X0.250000X-0.237500X-0.250000X0.237500X-0.250000X0.237500X0.250000X0*%
%ADD17R,0.400000X1.500000*%
%ADD18RoundRect,0.237500X0.287500X0.237500X-0.287500X0.237500X-0.287500X-0.237500X0.287500X-0.237500X0*%
%ADD19RoundRect,0.249999X1.425001X-0.450001X1.425001X0.450001X-1.425001X0.450001X-1.425001X-0.450001X0*%
%ADD20RoundRect,0.237500X0.300000X0.237500X-0.300000X0.237500X-0.300000X-0.237500X0.300000X-0.237500X0*%
%ADD21RoundRect,0.150000X-0.150000X0.587500X-0.150000X-0.587500X0.150000X-0.587500X0.150000X0.587500X0*%
%ADD22R,1.500000X0.400000*%
%ADD23RoundRect,0.150000X0.675000X0.150000X-0.675000X0.150000X-0.675000X-0.150000X0.675000X-0.150000X0*%
%ADD24RoundRect,0.237500X-0.237500X0.300000X-0.237500X-0.300000X0.237500X-0.300000X0.237500X0.300000X0*%
%ADD25RoundRect,0.150000X-0.587500X-0.150000X0.587500X-0.150000X0.587500X0.150000X-0.587500X0.150000X0*%
%ADD26RoundRect,0.237500X-0.300000X-0.237500X0.300000X-0.237500X0.300000X0.237500X-0.300000X0.237500X0*%
%ADD27RoundRect,0.237500X0.237500X-0.300000X0.237500X0.300000X-0.237500X0.300000X-0.237500X-0.300000X0*%
%ADD28R,2.750000X3.050000*%
%ADD29R,1.200000X2.200000*%
%ADD30R,3.050000X2.750000*%
%ADD31R,2.200000X1.200000*%
%ADD32RoundRect,0.237500X0.237500X-0.287500X0.237500X0.287500X-0.237500X0.287500X-0.237500X-0.287500X0*%
%ADD33RoundRect,0.249999X-1.425001X0.450001X-1.425001X-0.450001X1.425001X-0.450001X1.425001X0.450001X0*%
%ADD34RoundRect,0.150000X0.150000X-0.587500X0.150000X0.587500X-0.150000X0.587500X-0.150000X-0.587500X0*%
%ADD35RoundRect,0.237500X-0.237500X0.287500X-0.237500X-0.287500X0.237500X-0.287500X0.237500X0.287500X0*%
%ADD36RoundRect,0.150000X-0.675000X-0.150000X0.675000X-0.150000X0.675000X0.150000X-0.675000X0.150000X0*%
G04 APERTURE END LIST*
D10*
X244705500Y-67498000D03*
X246455500Y-67498000D03*
D11*
X125475400Y-123860600D03*
X125475400Y-122035600D03*
D12*
X120037900Y-105422100D03*
X118212900Y-105422100D03*
D11*
X238743700Y-49360500D03*
X238743700Y-47535500D03*
D13*
X48302400Y-145122900D03*
X48302400Y-143222900D03*
X46427400Y-144172900D03*
D14*
X118466900Y-112534100D03*
X120291900Y-112534100D03*
D15*
X143915900Y-121932100D03*
X137815900Y-121932100D03*
D16*
X43529500Y-93741200D03*
X43529500Y-95566200D03*
D14*
X63603500Y-42672000D03*
X65428500Y-42672000D03*
D12*
X149248500Y-30721086D03*
X147423500Y-30721086D03*
D16*
X162811500Y-115827100D03*
X162811500Y-117652100D03*
D17*
X173875500Y-109201300D03*
X173225500Y-109201300D03*
X172575500Y-109201300D03*
X172575500Y-111861300D03*
X173225500Y-111861300D03*
X173875500Y-111861300D03*
D18*
X37523000Y-125478500D03*
X35773000Y-125478500D03*
D11*
X154931000Y-38758500D03*
X154931000Y-36933500D03*
D18*
X124940000Y-42672000D03*
X123190000Y-42672000D03*
D11*
X50514500Y-120295000D03*
X50514500Y-118470000D03*
D14*
X43379000Y-122176500D03*
X45204000Y-122176500D03*
D12*
X65479300Y-30827561D03*
X63654300Y-30827561D03*
D19*
X34366200Y-165341600D03*
X34366200Y-159241600D03*
D14*
X172313000Y-113833300D03*
X174138000Y-113833300D03*
D12*
X93508200Y-30783500D03*
X91683200Y-30783500D03*
X153049500Y-35052000D03*
X151224500Y-35052000D03*
D17*
X143876000Y-45272000D03*
X144526000Y-45272000D03*
X145176000Y-45272000D03*
X145176000Y-42612000D03*
X144526000Y-42612000D03*
X143876000Y-42612000D03*
D14*
X164693000Y-119533600D03*
X166518000Y-119533600D03*
D20*
X117448500Y-47498000D03*
X115723500Y-47498000D03*
D11*
X71120000Y-38504500D03*
X71120000Y-36679500D03*
X210771700Y-38854000D03*
X210771700Y-37029000D03*
D10*
X164984500Y-111913600D03*
X166734500Y-111913600D03*
D20*
X89508500Y-47498000D03*
X87783500Y-47498000D03*
D21*
X121158000Y-33020000D03*
X119258000Y-33020000D03*
X120208000Y-34895000D03*
D12*
X250049000Y-92644000D03*
X248224000Y-92644000D03*
D21*
X148419900Y-108040600D03*
X146519900Y-108040600D03*
X147469900Y-109915600D03*
D11*
X182880000Y-38758500D03*
X182880000Y-36933500D03*
D12*
X61618500Y-40640000D03*
X59793500Y-40640000D03*
D18*
X152767000Y-42672000D03*
X151017000Y-42672000D03*
D17*
X199707700Y-45479800D03*
X200357700Y-45479800D03*
X201007700Y-45479800D03*
X201007700Y-42819800D03*
X200357700Y-42819800D03*
X199707700Y-42819800D03*
D18*
X41102500Y-37386300D03*
X39352500Y-37386300D03*
D12*
X173378500Y-40752300D03*
X171553500Y-40752300D03*
D10*
X244726700Y-42352000D03*
X246476700Y-42352000D03*
D14*
X31929700Y-174991600D03*
X33754700Y-174991600D03*
D20*
X61568500Y-47244000D03*
X59843500Y-47244000D03*
X141728400Y-130060100D03*
X140003400Y-130060100D03*
D18*
X208598700Y-42767500D03*
X206848700Y-42767500D03*
X180707000Y-42672000D03*
X178957000Y-42672000D03*
D17*
X140469900Y-127834100D03*
X141119900Y-127834100D03*
X141769900Y-127834100D03*
X141769900Y-125174100D03*
X141119900Y-125174100D03*
X140469900Y-125174100D03*
D22*
X253789700Y-55448000D03*
X253789700Y-54798000D03*
X253789700Y-54148000D03*
X251129700Y-54148000D03*
X251129700Y-54798000D03*
X251129700Y-55448000D03*
D23*
X68919000Y-40767000D03*
X68919000Y-39497000D03*
X68919000Y-38227000D03*
X68919000Y-36957000D03*
X63669000Y-36957000D03*
X63669000Y-38227000D03*
X63669000Y-39497000D03*
X63669000Y-40767000D03*
D11*
X238722500Y-99652500D03*
X238722500Y-97827500D03*
D19*
X34639500Y-91099700D03*
X34639500Y-84999700D03*
D18*
X96887000Y-42672000D03*
X95137000Y-42672000D03*
D11*
X167132000Y-160424500D03*
X167132000Y-158599500D03*
D16*
X231610500Y-97827500D03*
X231610500Y-99652500D03*
D11*
X238722500Y-74506500D03*
X238722500Y-72681500D03*
D24*
X42467500Y-66193500D03*
X42467500Y-67918500D03*
D25*
X233488200Y-47498000D03*
X233488200Y-49398000D03*
X235363200Y-48448000D03*
D17*
X60056000Y-45272000D03*
X60706000Y-45272000D03*
X61356000Y-45272000D03*
X61356000Y-42612000D03*
X60706000Y-42612000D03*
X60056000Y-42612000D03*
D26*
X172363000Y-107087600D03*
X174088000Y-107087600D03*
D25*
X233721000Y-72644000D03*
X233721000Y-74544000D03*
X235596000Y-73594000D03*
D24*
X42513500Y-46429800D03*
X42513500Y-48154800D03*
D21*
X149277000Y-32844500D03*
X147377000Y-32844500D03*
X148327000Y-34719500D03*
D24*
X255994500Y-104481500D03*
X255994500Y-106206500D03*
D27*
X26238200Y-163154100D03*
X26238200Y-161429100D03*
D12*
X238720600Y-70852700D03*
X236895600Y-70852700D03*
D20*
X201220200Y-47593500D03*
X199495200Y-47593500D03*
D27*
X26384500Y-113641000D03*
X26384500Y-111916000D03*
X26511500Y-88912200D03*
X26511500Y-87187200D03*
D14*
X32457000Y-100749700D03*
X34282000Y-100749700D03*
D16*
X43402500Y-118470000D03*
X43402500Y-120295000D03*
X231386700Y-47505300D03*
X231386700Y-49330300D03*
D12*
X208993700Y-35147500D03*
X207168700Y-35147500D03*
D28*
X122174400Y-119563100D03*
X119124400Y-122913100D03*
X122174400Y-122913100D03*
X119124400Y-119563100D03*
D29*
X122929400Y-114938100D03*
X118369400Y-114938100D03*
D15*
X115825400Y-121424100D03*
X109725400Y-121424100D03*
D30*
X33023500Y-119127500D03*
X36373500Y-122177500D03*
X33023500Y-122177500D03*
X36373500Y-119127500D03*
D31*
X40998500Y-122932500D03*
X40998500Y-118372500D03*
D22*
X253768500Y-80594000D03*
X253768500Y-79944000D03*
X253768500Y-79294000D03*
X251108500Y-79294000D03*
X251108500Y-79944000D03*
X251108500Y-80594000D03*
D24*
X169164000Y-158649500D03*
X169164000Y-160374500D03*
D12*
X250070200Y-42352000D03*
X248245200Y-42352000D03*
D20*
X173328500Y-47498000D03*
X171603500Y-47498000D03*
D12*
X148382400Y-105930100D03*
X146557400Y-105930100D03*
D30*
X245751500Y-70799000D03*
X249101500Y-73849000D03*
X245751500Y-73849000D03*
X249101500Y-70799000D03*
D31*
X241126500Y-70044000D03*
X241126500Y-74604000D03*
D16*
X43256200Y-167983100D03*
X43256200Y-169808100D03*
D12*
X117498500Y-40640000D03*
X115673500Y-40640000D03*
X125118500Y-35052000D03*
X123293500Y-35052000D03*
D16*
X231610500Y-72681500D03*
X231610500Y-74506500D03*
D30*
X36271900Y-146967900D03*
X32921900Y-146967900D03*
X36271900Y-143917900D03*
X32921900Y-143917900D03*
D31*
X40896900Y-147722900D03*
X40896900Y-143162900D03*
D12*
X121129500Y-31017481D03*
X119304500Y-31017481D03*
D13*
X48404000Y-120332500D03*
X48404000Y-118432500D03*
X46529000Y-119382500D03*
D25*
X233721000Y-97790000D03*
X233721000Y-99690000D03*
X235596000Y-98740000D03*
D14*
X203255200Y-42767500D03*
X205080200Y-42767500D03*
D23*
X208570700Y-40862500D03*
X208570700Y-39592500D03*
X208570700Y-38322500D03*
X208570700Y-37052500D03*
X203320700Y-37052500D03*
X203320700Y-38322500D03*
X203320700Y-39592500D03*
X203320700Y-40862500D03*
D18*
X37421400Y-150268900D03*
X35671400Y-150268900D03*
D21*
X205117700Y-32940000D03*
X203217700Y-32940000D03*
X204167700Y-34815000D03*
D20*
X113637900Y-129552100D03*
X111912900Y-129552100D03*
D14*
X91543500Y-42672000D03*
X93368500Y-42672000D03*
D18*
X37800500Y-100749700D03*
X36050500Y-100749700D03*
D11*
X153565900Y-124265100D03*
X153565900Y-122440100D03*
D23*
X152730000Y-40767000D03*
X152730000Y-39497000D03*
X152730000Y-38227000D03*
X152730000Y-36957000D03*
X147480000Y-36957000D03*
X147480000Y-38227000D03*
X147480000Y-39497000D03*
X147480000Y-40767000D03*
D16*
X34893500Y-46379800D03*
X34893500Y-48204800D03*
D30*
X245751500Y-95945000D03*
X249101500Y-98995000D03*
X249101500Y-95945000D03*
X245751500Y-98995000D03*
D31*
X241126500Y-95190000D03*
X241126500Y-99750000D03*
D14*
X175363500Y-42672000D03*
X177188500Y-42672000D03*
D26*
X252725500Y-168642500D03*
X254450500Y-168642500D03*
D21*
X177226000Y-32844500D03*
X175326000Y-32844500D03*
X176276000Y-34719500D03*
D22*
X28464200Y-161895600D03*
X28464200Y-162545600D03*
X28464200Y-163195600D03*
X31124200Y-163195600D03*
X31124200Y-162545600D03*
X31124200Y-161895600D03*
X28610500Y-112382500D03*
X28610500Y-113032500D03*
X28610500Y-113682500D03*
X31270500Y-113682500D03*
X31270500Y-113032500D03*
X31270500Y-112382500D03*
D13*
X48531000Y-95603700D03*
X48531000Y-93703700D03*
X46656000Y-94653700D03*
D23*
X124799000Y-40767000D03*
X124799000Y-39497000D03*
X124799000Y-38227000D03*
X124799000Y-36957000D03*
X119549000Y-36957000D03*
X119549000Y-38227000D03*
X119549000Y-39497000D03*
X119549000Y-40767000D03*
D12*
X89558500Y-40640000D03*
X87733500Y-40640000D03*
D32*
X167132000Y-163943000D03*
X167132000Y-162193000D03*
D19*
X34512500Y-115828500D03*
X34512500Y-109728500D03*
D33*
X247866500Y-77148000D03*
X247866500Y-83248000D03*
D17*
X171928000Y-45384300D03*
X172578000Y-45384300D03*
X173228000Y-45384300D03*
X173228000Y-42724300D03*
X172578000Y-42724300D03*
X171928000Y-42724300D03*
D14*
X32179500Y-125478500D03*
X34004500Y-125478500D03*
D32*
X183388000Y-163535500D03*
X183388000Y-161785500D03*
D14*
X119483500Y-42672000D03*
X121308500Y-42672000D03*
D18*
X68947000Y-42672000D03*
X67197000Y-42672000D03*
D23*
X96998700Y-40816500D03*
X96998700Y-39546500D03*
X96998700Y-38276500D03*
X96998700Y-37006500D03*
X91748700Y-37006500D03*
X91748700Y-38276500D03*
X91748700Y-39546500D03*
X91748700Y-40816500D03*
D34*
X168465500Y-121741100D03*
X170365500Y-121741100D03*
X169415500Y-119866100D03*
D12*
X238720600Y-95895200D03*
X236895600Y-95895200D03*
D13*
X48257700Y-169845600D03*
X48257700Y-167945600D03*
X46382700Y-168895600D03*
D11*
X50539900Y-95515400D03*
X50539900Y-93690400D03*
D24*
X255994500Y-79335500D03*
X255994500Y-81060500D03*
D12*
X145454900Y-40640000D03*
X143629900Y-40640000D03*
D35*
X125475400Y-118517100D03*
X125475400Y-120267100D03*
D12*
X170328000Y-111913600D03*
X168503000Y-111913600D03*
D14*
X43258100Y-171687700D03*
X45083100Y-171687700D03*
D21*
X65466000Y-32844500D03*
X63566000Y-32844500D03*
X64516000Y-34719500D03*
D22*
X253768500Y-105740000D03*
X253768500Y-105090000D03*
X253768500Y-104440000D03*
X251108500Y-104440000D03*
X251108500Y-105090000D03*
X251108500Y-105740000D03*
D12*
X238741800Y-45654000D03*
X236916800Y-45654000D03*
D21*
X120075400Y-107532600D03*
X118175400Y-107532600D03*
X119125400Y-109407600D03*
D11*
X50368200Y-169706500D03*
X50368200Y-167881500D03*
D12*
X69238500Y-35052000D03*
X67413500Y-35052000D03*
D14*
X43277400Y-146839900D03*
X45102400Y-146839900D03*
X168581600Y-123750000D03*
X170406600Y-123750000D03*
D36*
X165012500Y-113818600D03*
X165012500Y-115088600D03*
X165012500Y-116358600D03*
X165012500Y-117628600D03*
X170262500Y-117628600D03*
X170262500Y-116358600D03*
X170262500Y-115088600D03*
X170262500Y-113818600D03*
D22*
X40241500Y-67706000D03*
X40241500Y-67056000D03*
X40241500Y-66406000D03*
X37581500Y-66406000D03*
X37581500Y-67056000D03*
X37581500Y-67706000D03*
D14*
X147423500Y-42672000D03*
X149248500Y-42672000D03*
D30*
X36500500Y-94398700D03*
X33150500Y-94398700D03*
X36500500Y-97448700D03*
X33150500Y-97448700D03*
D31*
X41125500Y-98203700D03*
X41125500Y-93643700D03*
D16*
X43300900Y-143260400D03*
X43300900Y-145085400D03*
D11*
X127000000Y-38758500D03*
X127000000Y-36933500D03*
D14*
X35713000Y-57150000D03*
X37538000Y-57150000D03*
D30*
X36227200Y-168640600D03*
X36227200Y-171690600D03*
X32877200Y-168640600D03*
X32877200Y-171690600D03*
D31*
X40852200Y-172445600D03*
X40852200Y-167885600D03*
D24*
X256015700Y-54189500D03*
X256015700Y-55914500D03*
D12*
X97318200Y-35101500D03*
X95493200Y-35101500D03*
D27*
X26282900Y-138431400D03*
X26282900Y-136706400D03*
D22*
X40287500Y-47942300D03*
X40287500Y-47292300D03*
X40287500Y-46642300D03*
X37627500Y-46642300D03*
X37627500Y-47292300D03*
X37627500Y-47942300D03*
D12*
X201270200Y-40847800D03*
X199445200Y-40847800D03*
D19*
X34410900Y-140618900D03*
X34410900Y-134518900D03*
D11*
X121919400Y-112430600D03*
X121919400Y-110605600D03*
D17*
X115927000Y-45377919D03*
X116577000Y-45377919D03*
X117227000Y-45377919D03*
X117227000Y-42717919D03*
X116577000Y-42717919D03*
X115927000Y-42717919D03*
D11*
X99199700Y-38808000D03*
X99199700Y-36983000D03*
D33*
X247887700Y-52002000D03*
X247887700Y-58102000D03*
D14*
X43531400Y-97396900D03*
X45356400Y-97396900D03*
D12*
X205052400Y-30778700D03*
X203227400Y-30778700D03*
D28*
X150264900Y-123421100D03*
X150264900Y-120071100D03*
X147214900Y-123421100D03*
X147214900Y-120071100D03*
D29*
X151019900Y-115446100D03*
X146459900Y-115446100D03*
D17*
X87996000Y-45376400D03*
X88646000Y-45376400D03*
X89296000Y-45376400D03*
X89296000Y-42716400D03*
X88646000Y-42716400D03*
X87996000Y-42716400D03*
D22*
X28737500Y-87653700D03*
X28737500Y-88303700D03*
X28737500Y-88953700D03*
X31397500Y-88953700D03*
X31397500Y-88303700D03*
X31397500Y-87653700D03*
D16*
X34847500Y-66143500D03*
X34847500Y-67968500D03*
D20*
X145388500Y-47340586D03*
X143663500Y-47340586D03*
D23*
X180679000Y-40767000D03*
X180679000Y-39497000D03*
X180679000Y-38227000D03*
X180679000Y-36957000D03*
X175429000Y-36957000D03*
X175429000Y-38227000D03*
X175429000Y-39497000D03*
X175429000Y-40767000D03*
D14*
X146557400Y-113042100D03*
X148382400Y-113042100D03*
D18*
X41056500Y-57150000D03*
X39306500Y-57150000D03*
D11*
X50514500Y-144933000D03*
X50514500Y-143108000D03*
D16*
X183388000Y-158192000D03*
X183388000Y-160017000D03*
D12*
X177188500Y-30632400D03*
X175363500Y-30632400D03*
X180998500Y-35052000D03*
X179173500Y-35052000D03*
D10*
X244705500Y-92644000D03*
X246455500Y-92644000D03*
D17*
X112379400Y-127326100D03*
X113029400Y-127326100D03*
X113679400Y-127326100D03*
X113679400Y-124666100D03*
X113029400Y-124666100D03*
X112379400Y-124666100D03*
D22*
X28508900Y-137172900D03*
X28508900Y-137822900D03*
X28508900Y-138472900D03*
X31168900Y-138472900D03*
X31168900Y-137822900D03*
X31168900Y-137172900D03*
D30*
X245772700Y-48703000D03*
X249122700Y-45653000D03*
X245772700Y-45653000D03*
X249122700Y-48703000D03*
D31*
X241147700Y-44898000D03*
X241147700Y-49458000D03*
D12*
X250049000Y-67498000D03*
X248224000Y-67498000D03*
D33*
X247866500Y-102294000D03*
X247866500Y-108394000D03*
D14*
X31974400Y-150268900D03*
X33799400Y-150268900D03*
D35*
X153565900Y-118921600D03*
X153565900Y-120671600D03*
D14*
X35759000Y-37386300D03*
X37584000Y-37386300D03*
D24*
X181356000Y-158242000D03*
X181356000Y-159967000D03*
D11*
X150162300Y-113040200D03*
X150162300Y-111215200D03*
D21*
X93612900Y-32962300D03*
X91712900Y-32962300D03*
X92662900Y-34837300D03*
D18*
X37273200Y-174991600D03*
X35523200Y-174991600D03*
M02*
