M48
; DRILL file {KiCad (6.0.6)} date Sat Apr 22 01:11:08 2023
; FORMAT={-:-/ absolute / inch / decimal}
; #@! TF.CreationDate,2023-04-22T01:11:08-05:00
; #@! TF.GenerationSoftware,Kicad,Pcbnew,(6.0.6)
; #@! TF.FileFunction,Plated,1,4,PTH
FMAT,2
INCH
; #@! TA.AperFunction,Plated,PTH,ViaDrill
T1C0.0157
; #@! TA.AperFunction,Plated,PTH,ComponentDrill
T2C0.0276
; #@! TA.AperFunction,Plated,PTH,ComponentDrill
T3C0.0295
; #@! TA.AperFunction,Plated,PTH,ComponentDrill
T4C0.0315
; #@! TA.AperFunction,Plated,PTH,ComponentDrill
T5C0.0350
; #@! TA.AperFunction,Plated,PTH,ComponentDrill
T6C0.0354
; #@! TA.AperFunction,Plated,PTH,ComponentDrill
T7C0.0394
; #@! TA.AperFunction,Plated,PTH,ComponentDrill
T8C0.0402
; #@! TA.AperFunction,Plated,PTH,ComponentDrill
T9C0.0472
; #@! TA.AperFunction,Plated,PTH,ComponentDrill
T10C0.0512
; #@! TA.AperFunction,Plated,PTH,ComponentDrill
T11C0.0630
; #@! TA.AperFunction,Plated,PTH,ComponentDrill
T12C0.0660
; #@! TA.AperFunction,Plated,PTH,ComponentDrill
T13C0.0700
; #@! TA.AperFunction,Plated,PTH,ComponentDrill
T14C0.0787
; #@! TA.AperFunction,Plated,PTH,ComponentDrill
T15C0.0900
; #@! TA.AperFunction,Plated,PTH,ComponentDrill
T16C0.1280
; #@! TA.AperFunction,Plated,PTH,ComponentDrill
T17C0.3600
%
G90
G05
T1
X1.04Y-3.56
X1.04Y-4.53
X1.04Y-5.51
X1.04Y-6.48
X1.18Y-3.56
X1.23Y-4.37
X1.23Y-5.35
X1.23Y-6.32
X1.275Y-3.7
X1.275Y-3.825
X1.275Y-4.675
X1.275Y-4.825
X1.275Y-5.65
X1.275Y-5.8
X1.275Y-6.625
X1.275Y-6.775
X1.32Y-4.32
X1.32Y-4.56
X1.32Y-5.3
X1.32Y-5.54
X1.32Y-6.27
X1.32Y-6.51
X1.33Y-3.35
X1.33Y-3.59
X1.38Y-5.54
X1.38Y-6.51
X1.39Y-3.35
X1.39Y-3.59
X1.39Y-4.32
X1.39Y-4.56
X1.39Y-5.3
X1.39Y-6.27
X1.45Y-3.7
X1.45Y-3.825
X1.45Y-4.675
X1.45Y-4.825
X1.45Y-5.65
X1.45Y-5.8
X1.45Y-6.625
X1.45Y-6.775
X1.59Y-4.66
X1.59Y-5.64
X1.59Y-6.61
X1.6Y-2.25
X1.6Y-3.69
X1.63Y-5.64
X1.63Y-6.61
X1.64Y-3.69
X1.64Y-4.66
X1.9515Y-6.23
X1.98Y-6.74
X1.99Y-3.82
X1.99Y-4.79
X1.99Y-5.77
X2.0085Y-6.23
X2.32Y-2.25
X2.4898Y-5.2298
X2.63Y-5.23
X2.77Y-2.03
X2.88Y-2.32
X3.1773Y-4.3627
X3.1801Y-4.2299
X3.21Y-2.25
X3.65Y-2.04
X3.77Y-2.32
X3.82Y-4.8
X3.85Y-5.1369
X3.9Y-5.1369
X3.95Y-5.1369
X3.95Y-5.23
X4.0Y-5.23
X4.06Y-5.23
X4.1Y-2.25
X4.11Y-5.23
X4.1391Y-4.7495
X4.1391Y-4.8245
X4.16Y-5.23
X4.35Y-5.1
X4.3741Y-4.7495
X4.3741Y-4.8245
X4.4741Y-4.4995
X4.4741Y-4.5495
X4.4891Y-4.6745
X4.4891Y-4.8745
X4.6Y-4.15
X4.6391Y-4.6745
X4.6391Y-4.8745
X5.2491Y-4.7395
X5.2491Y-4.8195
X5.27Y-5.23
X5.47Y-5.1
X5.4841Y-4.7395
X5.4841Y-4.8195
X5.5941Y-4.4995
X5.5941Y-4.5495
X5.5991Y-4.6795
X5.5991Y-4.8545
X5.72Y-4.15
X5.7491Y-4.6795
X5.7491Y-4.8545
X6.04Y-4.17
X6.35Y-2.32
X6.35Y-4.14
X6.41Y-5.11
X6.41Y-5.55
X6.4123Y-5.8277
X6.47Y-4.33
X7.37Y-2.04
X7.49Y-2.32
X7.81Y-2.24
X7.87Y-5.91
X8.0Y-2.38
X8.0Y-2.48
X8.0998Y-2.5702
X8.2Y-2.68
X8.24Y-5.91
X8.25Y-2.04
X8.37Y-2.32
X8.69Y-2.25
X8.75Y-2.35
X9.14Y-2.04
X9.25Y-2.32
X9.31Y-4.83
X9.36Y-2.78
X9.37Y-3.78
X9.58Y-2.25
X9.63Y-2.38
X9.7203Y-2.9238
X9.7203Y-3.9138
X9.7203Y-4.9038
X9.7703Y-2.9238
X9.7703Y-3.9138
X9.7703Y-4.9038
X9.9003Y-2.7488
X9.9003Y-2.8988
X9.9003Y-3.7488
X9.9003Y-3.8988
X9.9003Y-4.7488
X9.9003Y-4.8988
X9.9703Y-3.0238
X9.9703Y-3.2638
X9.9703Y-4.2538
X9.9703Y-5.0038
X9.9703Y-5.2438
X9.9803Y-4.0138
X10.01Y-2.05
X10.0403Y-3.2638
X10.0403Y-4.2538
X10.0503Y-3.0238
X10.0503Y-4.0138
X10.0503Y-5.0038
X10.0503Y-5.2438
X10.0753Y-2.7488
X10.0753Y-2.8988
X10.0753Y-3.7488
X10.0753Y-3.8988
X10.0753Y-4.7488
X10.0753Y-4.8988
X10.13Y-2.32
X10.14Y-3.22
X10.14Y-4.21
X10.14Y-5.2
X10.33Y-3.05
X10.33Y-4.04
X10.33Y-5.03
X10.51Y-2.38
T2
X9.1106Y-6.3516
X9.1106Y-6.4303
X9.1106Y-6.5091
X9.1894Y-6.3516
X9.1894Y-6.4303
X9.1894Y-6.5091
T3
X9.05Y-6.1256
X9.15Y-6.1256
X9.25Y-6.1256
X9.35Y-6.1256
X9.45Y-6.1256
T4
X4.9996Y-1.51
X5.0056Y-2.0
X5.098Y-1.51
X5.104Y-2.0
X7.1Y-2.6189
X7.1Y-2.6976
X7.4Y-6.0055
X7.4Y-6.6055
X7.5Y-6.0055
X7.5Y-6.6055
X7.6Y-6.0055
X7.6Y-6.6055
X7.7Y-6.0055
X7.7Y-6.6055
X7.8Y-6.0055
X7.8Y-6.6055
X7.9Y-6.0055
X7.9Y-6.1055
X7.9Y-6.2055
X7.9Y-6.3055
X7.9Y-6.4055
X7.9Y-6.5055
X7.9Y-6.6055
X8.0Y-6.0055
X8.0Y-6.6055
X8.1Y-6.0055
X8.1Y-6.6055
X8.2Y-6.0055
X8.2Y-6.6055
X8.3Y-6.0055
X8.3Y-6.6055
X8.4Y-6.0055
X8.4Y-6.6055
X8.5Y-6.0055
X8.5Y-6.6055
X8.6Y-6.0055
X8.6Y-6.6055
X8.7Y-6.0055
X8.7Y-6.6055
X8.8Y-6.0055
X8.8Y-6.6055
X8.9Y-6.0055
X8.9Y-6.6055
X9.0Y-6.0055
X9.0Y-6.6055
X9.1Y-6.0055
X9.1Y-6.6055
X9.2Y-6.0055
X9.2Y-6.6055
X9.3Y-6.0055
X9.3Y-6.6055
X9.4Y-6.0055
X9.4Y-6.6055
X9.5Y-6.0055
X9.5Y-6.6055
X9.6Y-6.0055
X9.6Y-6.5055
X9.6Y-6.6055
X9.7Y-6.0055
X9.7Y-6.6055
T5
X9.23Y-5.66
X9.33Y-5.66
X9.43Y-5.66
T6
X9.9458Y-6.12
X9.9458Y-6.22
X9.9458Y-6.32
X9.9458Y-6.42
X10.0458Y-6.17
X10.0458Y-6.27
X10.0458Y-6.37
X10.0458Y-6.47
T7
X4.9564Y-2.49
X5.1532Y-2.49
T8
X10.4253Y-6.046
X10.4253Y-6.444
X10.4958Y-6.146
X10.4958Y-6.544
T9
X3.83Y-5.91
X3.83Y-6.63
X4.1253Y-5.91
X4.1253Y-6.63
X4.8947Y-5.91
X4.8947Y-6.63
X5.19Y-5.91
X5.19Y-6.63
T10
X4.51Y-5.7058
X4.51Y-5.9058
X4.51Y-6.4258
X4.51Y-6.6258
T11
X10.1757Y-5.985
X10.1757Y-6.605
T12
X1.6088Y-6.341
X1.6088Y-6.476
X1.6138Y-5.3746
X1.6138Y-5.5096
X1.6158Y-4.395
X1.6158Y-4.53
X1.6288Y-3.421
X1.6288Y-3.556
X2.1388Y-6.341
X2.1388Y-6.476
X2.1438Y-5.3746
X2.1438Y-5.5096
X2.1458Y-4.395
X2.1458Y-4.53
X2.1588Y-3.421
X2.1588Y-3.556
X4.2113Y-3.9937
X4.2113Y-4.5237
X4.3463Y-3.9937
X4.3463Y-4.5237
X5.3291Y-3.9895
X5.3291Y-4.5195
X5.4641Y-3.9895
X5.4641Y-4.5195
X9.2063Y-5.0311
X9.2063Y-5.1661
X9.21Y-3.0491
X9.21Y-3.1841
X9.2103Y-4.0371
X9.2103Y-4.1721
X9.7363Y-5.0311
X9.7363Y-5.1661
X9.74Y-3.0491
X9.74Y-3.1841
X9.7403Y-4.0371
X9.7403Y-4.1721
T13
X5.885Y-3.46
X6.035Y-1.46
X6.185Y-1.46
X6.185Y-3.46
X6.335Y-1.46
X6.485Y-3.46
T15
X5.885Y-1.46
X6.485Y-1.46
T16
X10.2958Y-6.07
X10.2958Y-6.52
T17
X3.09Y-6.63
X5.93Y-6.63
T14
G00X1.2368Y-1.9219
M15
G01X1.1542Y-1.9219
M16
G05
G00X1.2368Y-2.2319
M15
G01X1.1542Y-2.2319
M16
G05
G00X1.3549Y-6.0726
M15
G01X1.3549Y-6.1553
M16
G05
G00X1.3567Y-5.0993
M15
G01X1.3567Y-5.1819
M16
G05
G00X1.3569Y-4.1214
M15
G01X1.3569Y-4.204
M16
G05
G00X1.3619Y-2.7732
M15
G01X1.3619Y-2.8558
M16
G05
G00X1.3619Y-3.1497
M15
G01X1.3619Y-3.2324
M16
G05
G00X1.6649Y-6.0726
M15
G01X1.6649Y-6.1553
M16
G05
G00X1.6667Y-5.0993
M15
G01X1.6667Y-5.1819
M16
G05
G00X1.6669Y-4.1214
M15
G01X1.6669Y-4.204
M16
G05
G00X1.6719Y-2.7732
M15
G01X1.6719Y-2.8558
M16
G05
G00X1.6719Y-3.1497
M15
G01X1.6719Y-3.2324
M16
G05
G00X1.9668Y-1.9219
M15
G01X1.8842Y-1.9219
M16
G05
G00X1.9668Y-2.2319
M15
G01X1.8842Y-2.2319
M16
G05
G00X2.7013Y-1.9182
M15
G01X2.6187Y-1.9182
M16
G05
G00X2.7013Y-2.2282
M15
G01X2.6187Y-2.2282
M16
G05
G00X3.5868Y-1.9219
M15
G01X3.5042Y-1.9219
M16
G05
G00X3.5868Y-2.2319
M15
G01X3.5042Y-2.2319
M16
G05
G00X3.9475Y-4.5258
M15
G01X3.9475Y-4.4431
M16
G05
G00X3.9475Y-4.7542
M15
G01X3.9475Y-4.8369
M16
G05
G00X5.0653Y-4.5012
M15
G01X5.0653Y-4.4185
M16
G05
G00X5.0653Y-4.7295
M15
G01X5.0653Y-4.8122
M16
G05
G00X6.5924Y-4.5858
M15
G01X6.5924Y-4.5031
M16
G05
G00X6.5924Y-4.8142
M15
G01X6.5924Y-4.8969
M16
G05
G00X7.3068Y-1.9219
M15
G01X7.2242Y-1.9219
M16
G05
G00X7.3068Y-2.2319
M15
G01X7.2242Y-2.2319
M16
G05
G00X8.1868Y-1.9219
M15
G01X8.1042Y-1.9219
M16
G05
G00X8.1868Y-2.2319
M15
G01X8.1042Y-2.2319
M16
G05
G00X9.0668Y-1.9219
M15
G01X8.9842Y-1.9219
M16
G05
G00X9.0668Y-2.2319
M15
G01X8.9842Y-2.2319
M16
G05
G00X9.6969Y-4.448
M15
G01X9.6969Y-4.3654
M16
G05
G00X9.6969Y-5.438
M15
G01X9.6969Y-5.3554
M16
G05
G00X9.6977Y-3.458
M15
G01X9.6977Y-3.3754
M16
G05
G00X9.9468Y-1.9219
M15
G01X9.8642Y-1.9219
M16
G05
G00X9.9468Y-2.2319
M15
G01X9.8642Y-2.2319
M16
G05
G00X10.0069Y-4.448
M15
G01X10.0069Y-4.3654
M16
G05
G00X10.0069Y-5.438
M15
G01X10.0069Y-5.3554
M16
G05
G00X10.0077Y-3.458
M15
G01X10.0077Y-3.3754
M16
G05
T0
M30
