M48
; DRILL file {KiCad (6.0.7)} date Mon Mar 20 21:14:04 2023
; FORMAT={-:-/ absolute / metric / decimal}
; #@! TF.CreationDate,2023-03-20T21:14:04-05:00
; #@! TF.GenerationSoftware,Kicad,Pcbnew,(6.0.7)
; #@! TF.FileFunction,Plated,1,4,PTH
FMAT,2
METRIC
; #@! TA.AperFunction,Plated,PTH,ViaDrill
T1C0.400
; #@! TA.AperFunction,Plated,PTH,ComponentDrill
T2C0.700
; #@! TA.AperFunction,Plated,PTH,ComponentDrill
T3C0.800
; #@! TA.AperFunction,Plated,PTH,ComponentDrill
T4C0.889
; #@! TA.AperFunction,Plated,PTH,ComponentDrill
T5C0.900
; #@! TA.AperFunction,Plated,PTH,ComponentDrill
T6C1.020
; #@! TA.AperFunction,Plated,PTH,ComponentDrill
T7C1.200
; #@! TA.AperFunction,Plated,PTH,ComponentDrill
T8C1.300
; #@! TA.AperFunction,Plated,PTH,ComponentDrill
T9C1.600
; #@! TA.AperFunction,Plated,PTH,ComponentDrill
T10C1.676
; #@! TA.AperFunction,Plated,PTH,ComponentDrill
T11C2.000
; #@! TA.AperFunction,Plated,PTH,ComponentDrill
T12C3.250
; #@! TA.AperFunction,Plated,PTH,ComponentDrill
T13C9.144
%
G90
G05
T1
X26.416Y-90.932
X26.416Y-115.57
X26.416Y-140.462
X26.416Y-165.1
X31.242Y-110.998
X31.242Y-135.636
X31.242Y-160.274
X31.496Y-86.36
X32.385Y-93.98
X32.385Y-97.155
X32.385Y-118.745
X32.385Y-122.555
X32.385Y-143.51
X32.385Y-147.32
X32.385Y-168.275
X32.385Y-172.085
X33.528Y-109.728
X33.528Y-115.824
X33.528Y-134.62
X33.528Y-140.716
X33.528Y-159.258
X33.528Y-165.354
X33.782Y-85.09
X33.782Y-91.186
X35.052Y-140.716
X35.052Y-165.354
X35.306Y-85.09
X35.306Y-91.186
X35.306Y-109.728
X35.306Y-115.824
X35.306Y-134.62
X35.306Y-159.258
X36.83Y-93.98
X36.83Y-97.155
X36.83Y-118.745
X36.83Y-122.555
X36.83Y-143.51
X36.83Y-147.32
X36.83Y-168.275
X36.83Y-172.085
X37.592Y-69.596
X39.116Y-44.958
X40.386Y-118.364
X40.386Y-143.256
X40.386Y-167.894
X40.64Y-93.726
X41.402Y-143.256
X41.402Y-167.894
X41.656Y-93.726
X41.656Y-118.364
X42.418Y-44.45
X42.418Y-64.262
X50.292Y-171.45
X50.546Y-109.944
X50.546Y-121.92
X50.546Y-146.304
X63.246Y-44.196
X63.5Y-47.244
X67.31Y-30.734
X91.186Y-44.196
X91.44Y-47.498
X95.758Y-30.734
X104.152Y-128.329
X105.15Y-128.276
X105.156Y-129.794
X106.172Y-129.779
X109.855Y-120.65
X109.855Y-122.555
X115.316Y-125.984
X115.57Y-129.794
X115.824Y-120.65
X115.824Y-122.555
X118.364Y-114.3
X118.364Y-115.57
X118.745Y-118.745
X118.745Y-123.825
X118.872Y-44.196
X119.38Y-47.498
X121.666Y-105.41
X122.555Y-118.745
X122.555Y-123.825
X123.19Y-30.988
X137.795Y-120.904
X137.795Y-122.936
X143.256Y-126.492
X143.764Y-120.904
X143.764Y-122.936
X143.764Y-130.048
X146.558Y-114.808
X146.558Y-116.078
X146.685Y-119.38
X146.685Y-123.825
X146.812Y-44.196
X147.32Y-47.244
X149.86Y-105.918
X150.495Y-119.38
X150.495Y-123.825
X151.13Y-30.734
X170.18Y-107.188
X174.752Y-44.196
X175.26Y-47.498
X179.07Y-30.734
X179.324Y-112.014
X179.704Y-167.132
X180.34Y-151.892
X181.153Y-150.876
X181.153Y-165.862
X181.348Y-128.872
X181.864Y-128.016
X182.626Y-127.254
X182.88Y-35.306
X182.88Y-45.682
X186.653Y-128.016
X186.664Y-129.052
X202.692Y-44.45
X203.2Y-47.498
X204.978Y-117.856
X207.01Y-30.734
X215.9Y-171.885
X218.44Y-171.885
X220.98Y-171.885
X223.52Y-138.43
X223.52Y-171.885
X226.06Y-171.885
X228.6Y-170.942
X231.398Y-46.232
X231.648Y-70.866
X231.648Y-96.266
X240.538Y-49.53
X240.538Y-74.676
X240.538Y-99.822
X241.808Y-49.53
X241.808Y-74.676
X241.808Y-99.822
X245.11Y-45.085
X245.11Y-48.895
X245.11Y-70.485
X245.11Y-74.295
X245.11Y-95.885
X245.11Y-99.695
X246.888Y-52.07
X246.888Y-58.166
X246.888Y-83.312
X246.888Y-102.362
X246.888Y-108.458
X247.142Y-77.216
X248.666Y-58.166
X248.666Y-83.312
X248.92Y-52.07
X248.92Y-77.216
X248.92Y-102.362
X248.92Y-108.458
X249.555Y-45.085
X249.555Y-48.895
X249.555Y-70.485
X249.555Y-74.295
X249.555Y-95.885
X249.555Y-99.695
X251.206Y-56.896
X256.032Y-52.324
X256.032Y-77.47
X256.032Y-102.87
X268.695Y-91.186
X269.144Y-116.332
T2
X231.41Y-160.682
X231.41Y-162.682
X231.41Y-164.682
X233.41Y-160.682
X233.41Y-162.682
X233.41Y-164.682
T3
X187.96Y-151.892
X187.96Y-167.132
X190.5Y-151.892
X190.5Y-167.132
X193.04Y-151.892
X193.04Y-167.132
X195.58Y-151.892
X195.58Y-167.132
X198.12Y-151.892
X198.12Y-167.132
X200.66Y-151.892
X200.66Y-167.132
X203.2Y-151.892
X203.2Y-167.132
X205.74Y-151.892
X205.74Y-167.132
X208.28Y-151.892
X208.28Y-167.132
X210.82Y-151.892
X210.82Y-167.132
X213.36Y-151.892
X213.36Y-167.132
X215.9Y-151.892
X215.9Y-167.132
X218.44Y-151.892
X218.44Y-167.132
X220.98Y-151.892
X220.98Y-167.132
X223.52Y-151.892
X223.52Y-167.132
X226.06Y-151.892
X226.06Y-167.132
X228.6Y-151.892
X228.6Y-167.132
X231.14Y-151.892
X231.14Y-167.132
X233.68Y-151.892
X233.68Y-167.132
X236.22Y-151.892
X236.22Y-167.132
X238.76Y-151.892
X238.76Y-167.132
X241.3Y-151.892
X241.3Y-167.132
X243.84Y-151.892
X243.84Y-167.132
X246.38Y-151.892
X246.38Y-167.132
T4
X172.72Y-158.369
X175.26Y-158.369
X177.8Y-158.369
T5
X252.623Y-154.799
X252.623Y-157.339
X252.623Y-159.879
X252.623Y-162.419
X255.163Y-156.07
X255.163Y-158.609
X255.163Y-161.149
X255.163Y-163.689
T6
X264.803Y-152.919
X264.803Y-163.029
X266.594Y-155.459
X266.594Y-165.57
T7
X97.282Y-150.114
X97.282Y-168.402
X104.782Y-150.114
X104.782Y-168.402
X124.326Y-150.114
X124.326Y-168.402
X131.826Y-150.114
X131.826Y-168.402
T8
X114.554Y-144.927
X114.554Y-150.007
X114.554Y-163.215
X114.554Y-168.295
T9
X258.464Y-151.369
X258.464Y-167.119
T10
X34.799Y-59.898
X34.799Y-63.327
X34.845Y-40.184
X34.845Y-43.613
X40.862Y-161.062
X40.862Y-164.491
X40.989Y-136.515
X40.989Y-139.944
X41.041Y-111.633
X41.041Y-115.062
X41.37Y-86.894
X41.37Y-90.323
X48.261Y-59.898
X48.261Y-63.327
X48.307Y-40.184
X48.307Y-43.613
X54.325Y-161.062
X54.325Y-164.491
X54.451Y-136.515
X54.451Y-139.944
X54.503Y-111.633
X54.503Y-115.062
X54.832Y-86.894
X54.832Y-90.323
X73.977Y-39.243
X73.977Y-52.705
X77.406Y-39.243
X77.406Y-52.705
X102.057Y-39.547
X102.057Y-53.008
X105.486Y-39.547
X105.486Y-53.008
X111.689Y-101.453
X111.689Y-114.915
X115.118Y-101.453
X115.118Y-114.915
X129.857Y-39.243
X129.857Y-52.705
X133.286Y-39.243
X133.286Y-52.705
X139.827Y-101.854
X139.827Y-115.316
X143.256Y-101.854
X143.256Y-115.316
X156.487Y-101.612
X156.487Y-115.074
X157.875Y-39.259
X157.875Y-52.721
X159.916Y-101.612
X159.916Y-115.074
X161.304Y-39.259
X161.304Y-52.721
X185.737Y-39.243
X185.737Y-52.705
X189.166Y-39.243
X189.166Y-52.705
X213.718Y-39.338
X213.718Y-52.8
X217.147Y-39.338
X217.147Y-52.8
X227.484Y-103.055
X227.484Y-106.484
X227.577Y-52.713
X227.577Y-56.142
X227.585Y-77.808
X227.585Y-81.237
X240.946Y-103.055
X240.946Y-106.484
X241.039Y-52.713
X241.039Y-56.142
X241.047Y-77.808
X241.047Y-81.237
T12
X261.513Y-153.529
X261.513Y-164.959
T13
X78.486Y-168.402
X150.622Y-168.402
T11
X34.416Y-154.244G85X34.416Y-156.344
G05
X34.46Y-129.521G85X34.46Y-131.621
G05
X34.466Y-104.682G85X34.466Y-106.782
G05
X34.593Y-50.88G85X34.593Y-52.98
G05
X34.593Y-70.692G85X34.593Y-72.792
G05
X34.593Y-80.002G85X34.593Y-82.102
G05
X42.29Y-154.244G85X42.29Y-156.344
G05
X42.334Y-129.521G85X42.334Y-131.621
G05
X42.34Y-104.682G85X42.34Y-106.782
G05
X42.468Y-50.88G85X42.468Y-52.98
G05
X42.468Y-70.692G85X42.468Y-72.792
G05
X42.468Y-80.002G85X42.468Y-82.102
G05
X56.816Y-39.673G85X54.716Y-39.673
G05
X56.816Y-47.547G85X54.716Y-47.547
G05
X84.756Y-39.673G85X82.656Y-39.673
G05
X84.756Y-47.547G85X82.656Y-47.547
G05
X104.989Y-114.968G85X104.989Y-112.868
G05
X104.989Y-120.768G85X104.989Y-122.868
G05
X112.696Y-39.673G85X110.596Y-39.673
G05
X112.696Y-47.547G85X110.596Y-47.547
G05
X133.126Y-114.85G85X133.126Y-112.75
G05
X133.126Y-120.65G85X133.126Y-122.75
G05
X140.636Y-39.673G85X138.536Y-39.673
G05
X140.636Y-47.547G85X138.536Y-47.547
G05
X168.576Y-39.673G85X166.476Y-39.673
G05
X168.576Y-47.547G85X166.476Y-47.547
G05
X178.471Y-116.988G85X178.471Y-114.888
G05
X178.471Y-122.788G85X178.471Y-124.888
G05
X196.516Y-39.673G85X194.416Y-39.673
G05
X196.516Y-47.547G85X194.416Y-47.547
G05
X239.943Y-88.246G85X239.943Y-86.146
G05
X239.943Y-113.392G85X239.943Y-111.292
G05
X239.964Y-63.1G85X239.964Y-61.0
G05
X247.817Y-88.246G85X247.817Y-86.146
G05
X247.817Y-113.392G85X247.817Y-111.292
G05
X247.838Y-63.1G85X247.838Y-61.0
G05
T0
M30
