G04 #@! TF.GenerationSoftware,KiCad,Pcbnew,(6.0.6)*
G04 #@! TF.CreationDate,2023-04-22T01:10:45-05:00*
G04 #@! TF.ProjectId,2023 Powerboard,32303233-2050-46f7-9765-72626f617264,rev?*
G04 #@! TF.SameCoordinates,Original*
G04 #@! TF.FileFunction,Soldermask,Bot*
G04 #@! TF.FilePolarity,Negative*
%FSLAX46Y46*%
G04 Gerber Fmt 4.6, Leading zero omitted, Abs format (unit mm)*
G04 Created by KiCad (PCBNEW (6.0.6)) date 2023-04-22 01:10:45*
%MOMM*%
%LPD*%
G01*
G04 APERTURE LIST*
%ADD10R,2.600000X2.600000*%
%ADD11O,2.600000X2.600000*%
%ADD12R,2.400000X2.400000*%
%ADD13C,2.400000*%
%ADD14O,3.000000X5.100000*%
%ADD15C,2.946400*%
%ADD16C,3.048000*%
%ADD17C,3.810000*%
%ADD18C,2.819400*%
%ADD19R,1.600000X1.600000*%
%ADD20C,1.600000*%
%ADD21C,18.288000*%
%ADD22R,2.000000X2.000000*%
%ADD23C,2.000000*%
%ADD24C,1.308000*%
%ADD25C,1.258000*%
%ADD26C,1.208000*%
%ADD27C,1.524000*%
%ADD28C,1.100000*%
%ADD29C,1.400000*%
%ADD30C,4.000000*%
%ADD31O,5.100000X3.000000*%
G04 APERTURE END LIST*
D10*
X114554000Y-168295000D03*
D11*
X114554000Y-163215000D03*
D12*
X97282000Y-168402000D03*
D13*
X104782000Y-168402000D03*
D14*
X100267500Y-113906000D03*
X100267500Y-121806000D03*
D15*
X20745580Y-174580420D03*
D16*
X149479000Y-87884000D03*
X157099000Y-87884000D03*
X164719000Y-87884000D03*
D17*
X164719000Y-37084000D03*
D16*
X160909000Y-37084000D03*
X157099000Y-37084000D03*
X153289000Y-37084000D03*
D17*
X149479000Y-37084000D03*
D18*
X233934100Y-80875900D03*
X233934100Y-77446900D03*
X247396100Y-80875900D03*
X247396100Y-77446900D03*
D15*
X268478000Y-34798000D03*
D18*
X54451500Y-136514800D03*
X54451500Y-139943800D03*
X40989500Y-139943800D03*
X40989500Y-136514800D03*
X233840900Y-131218700D03*
X233840900Y-127789700D03*
X247302900Y-127789700D03*
X247302900Y-131218700D03*
X54832500Y-86894000D03*
X54832500Y-90323000D03*
X41370500Y-86894000D03*
X41370500Y-90323000D03*
D12*
X97282000Y-150114000D03*
D13*
X104782000Y-150114000D03*
D18*
X233942500Y-102542100D03*
X233942500Y-105971100D03*
X247404500Y-105971100D03*
X247404500Y-102542100D03*
D19*
X180340000Y-68519113D03*
D20*
X180340000Y-66519113D03*
D21*
X78486000Y-168402000D03*
D12*
X131826000Y-168402000D03*
D13*
X124326000Y-168402000D03*
D14*
X128658300Y-113279500D03*
X128658300Y-121179500D03*
D15*
X20320000Y-34798000D03*
D19*
X129641677Y-50800000D03*
D20*
X127141677Y-50800000D03*
D22*
X130891677Y-63246000D03*
D23*
X125891677Y-63246000D03*
D18*
X54503000Y-115062000D03*
X54503000Y-111633000D03*
X41041000Y-115062000D03*
X41041000Y-111633000D03*
D19*
X129489354Y-38354000D03*
D20*
X126989354Y-38354000D03*
D14*
X167446000Y-123330000D03*
X167446000Y-115430000D03*
D21*
X150622000Y-168402000D03*
D24*
X243840000Y-152540500D03*
X241300000Y-152540500D03*
X238760000Y-152540500D03*
X236220000Y-152540500D03*
X210820000Y-152540500D03*
X241300000Y-167780500D03*
X200660000Y-157620500D03*
X233680000Y-152540500D03*
X231140000Y-152540500D03*
D25*
X240030000Y-155590500D03*
D24*
X228600000Y-152540500D03*
X226060000Y-152540500D03*
X223520000Y-152540500D03*
X220980000Y-152540500D03*
X218440000Y-152540500D03*
X215900000Y-152540500D03*
X213360000Y-152540500D03*
X213360000Y-167780500D03*
X215900000Y-167780500D03*
X218440000Y-167780500D03*
X220980000Y-167780500D03*
X223520000Y-167780500D03*
X226060000Y-167780500D03*
X228600000Y-167780500D03*
X231140000Y-167780500D03*
X233680000Y-167780500D03*
X236220000Y-167780500D03*
X238760000Y-167780500D03*
X208280000Y-152540500D03*
X205740000Y-152540500D03*
X203200000Y-152540500D03*
X200660000Y-152540500D03*
X198120000Y-152540500D03*
X195580000Y-152540500D03*
X193040000Y-152540500D03*
X190500000Y-152540500D03*
X187960000Y-152540500D03*
X187960000Y-167780500D03*
X190500000Y-167780500D03*
X193040000Y-167780500D03*
X195580000Y-167780500D03*
X198120000Y-167780500D03*
X200660000Y-167780500D03*
X203200000Y-167780500D03*
X205740000Y-167780500D03*
X208280000Y-167780500D03*
D25*
X234950000Y-155590500D03*
X237490000Y-155590500D03*
D24*
X246380000Y-152540500D03*
X210820000Y-167780500D03*
X243840000Y-167780500D03*
X200660000Y-160160500D03*
D26*
X231410000Y-163330500D03*
X233410000Y-163330500D03*
D24*
X200660000Y-165240500D03*
X200660000Y-162700500D03*
D26*
X233410000Y-165330500D03*
X231410000Y-165330500D03*
X231410000Y-161330500D03*
X233410000Y-161330500D03*
D25*
X232410000Y-155590500D03*
X229870000Y-155590500D03*
D24*
X200660000Y-155080500D03*
X246380000Y-167780500D03*
X243840000Y-165240500D03*
D27*
X234442000Y-143764000D03*
X236982000Y-143764000D03*
X239522000Y-143764000D03*
D18*
X135359100Y-101333900D03*
X138788100Y-101333900D03*
X135359100Y-114795900D03*
X138788100Y-114795900D03*
D28*
X255163500Y-164338000D03*
X252623500Y-163068000D03*
X255163500Y-161798000D03*
X252623500Y-160528000D03*
X255163500Y-159258000D03*
X252623500Y-157988000D03*
X255163500Y-156718000D03*
X252623500Y-155448000D03*
D29*
X266593500Y-166218000D03*
X264803500Y-163678000D03*
X266593500Y-156108000D03*
X264803500Y-153568000D03*
D30*
X261513500Y-165608000D03*
X261513500Y-154178000D03*
D23*
X258463500Y-152018000D03*
X258463500Y-167768000D03*
D12*
X131826000Y-150114000D03*
D13*
X124326000Y-150114000D03*
D15*
X268306420Y-174580420D03*
D10*
X114554000Y-150007000D03*
D11*
X114554000Y-144927000D03*
D18*
X54324500Y-161062000D03*
X54324500Y-164491000D03*
X40862500Y-164491000D03*
X40862500Y-161062000D03*
X110396200Y-101441000D03*
X106967200Y-101441000D03*
X110396200Y-114903000D03*
X106967200Y-114903000D03*
D14*
X246300300Y-137075900D03*
X254174300Y-137075900D03*
X246300300Y-111929900D03*
X254174300Y-111929900D03*
D31*
X67564000Y-56596000D03*
X67564000Y-48722000D03*
D14*
X42289700Y-155293900D03*
X34415700Y-155293900D03*
D31*
X48907700Y-56691500D03*
X48907700Y-48817500D03*
X251599700Y-56691500D03*
X251599700Y-48817500D03*
D14*
X42334400Y-130571200D03*
X34460400Y-130571200D03*
X42340500Y-105732500D03*
X34466500Y-105732500D03*
X42467500Y-81052000D03*
X34593500Y-81052000D03*
D31*
X206895700Y-56691500D03*
X206895700Y-48817500D03*
X30365700Y-56691500D03*
X30365700Y-48817500D03*
X229247700Y-56691500D03*
X229247700Y-48817500D03*
D14*
X42467500Y-71488300D03*
X34593500Y-71488300D03*
D31*
X90055700Y-56691500D03*
X90055700Y-48817500D03*
X184543700Y-56691500D03*
X184543700Y-48817500D03*
D14*
X246321500Y-86783900D03*
X254195500Y-86783900D03*
M02*
