G04 #@! TF.GenerationSoftware,KiCad,Pcbnew,(5.1.4)-1*
G04 #@! TF.CreationDate,2019-11-22T18:45:43-06:00*
G04 #@! TF.ProjectId,PowerBoard_Hardware,506f7765-7242-46f6-9172-645f48617264,rev?*
G04 #@! TF.SameCoordinates,Original*
G04 #@! TF.FileFunction,Soldermask,Bot*
G04 #@! TF.FilePolarity,Negative*
%FSLAX46Y46*%
G04 Gerber Fmt 4.6, Leading zero omitted, Abs format (unit mm)*
G04 Created by KiCad (PCBNEW (5.1.4)-1) date 2019-11-22 18:45:43*
%MOMM*%
%LPD*%
G04 APERTURE LIST*
%ADD10C,0.100000*%
G04 APERTURE END LIST*
D10*
G36*
X141634201Y-124233286D02*
G01*
X143017083Y-124508358D01*
X144690466Y-125201496D01*
X146196471Y-126207777D01*
X147477223Y-127488529D01*
X148483504Y-128994534D01*
X149176642Y-130667917D01*
X149530000Y-132444372D01*
X149530000Y-134255628D01*
X149176642Y-136032083D01*
X148483504Y-137705466D01*
X147477223Y-139211471D01*
X146196471Y-140492223D01*
X144690466Y-141498504D01*
X143017083Y-142191642D01*
X141634201Y-142466714D01*
X141240630Y-142545000D01*
X139429370Y-142545000D01*
X139035799Y-142466714D01*
X137652917Y-142191642D01*
X135979534Y-141498504D01*
X134473529Y-140492223D01*
X133192777Y-139211471D01*
X132186496Y-137705466D01*
X131493358Y-136032083D01*
X131140000Y-134255628D01*
X131140000Y-132444372D01*
X131493358Y-130667917D01*
X132186496Y-128994534D01*
X133192777Y-127488529D01*
X134473529Y-126207777D01*
X135979534Y-125201496D01*
X137652917Y-124508358D01*
X139035799Y-124233286D01*
X139429370Y-124155000D01*
X141240630Y-124155000D01*
X141634201Y-124233286D01*
X141634201Y-124233286D01*
G37*
G36*
X235684237Y-139276967D02*
G01*
X235831473Y-139306254D01*
X236108859Y-139421151D01*
X236358501Y-139587957D01*
X236570803Y-139800259D01*
X236737609Y-140049901D01*
X236852506Y-140327287D01*
X236911080Y-140621759D01*
X236911080Y-140922001D01*
X236852506Y-141216473D01*
X236737609Y-141493859D01*
X236570803Y-141743501D01*
X236358501Y-141955803D01*
X236108859Y-142122609D01*
X235831473Y-142237506D01*
X235684237Y-142266793D01*
X235537002Y-142296080D01*
X235236758Y-142296080D01*
X235089523Y-142266793D01*
X234942287Y-142237506D01*
X234664901Y-142122609D01*
X234415259Y-141955803D01*
X234202957Y-141743501D01*
X234036151Y-141493859D01*
X233921254Y-141216473D01*
X233862680Y-140922001D01*
X233862680Y-140621759D01*
X233921254Y-140327287D01*
X234036151Y-140049901D01*
X234202957Y-139800259D01*
X234415259Y-139587957D01*
X234664901Y-139421151D01*
X234942287Y-139306254D01*
X235089523Y-139276967D01*
X235236758Y-139247680D01*
X235537002Y-139247680D01*
X235684237Y-139276967D01*
X235684237Y-139276967D01*
G37*
G36*
X98285477Y-139276967D02*
G01*
X98432713Y-139306254D01*
X98710099Y-139421151D01*
X98959741Y-139587957D01*
X99172043Y-139800259D01*
X99338849Y-140049901D01*
X99453746Y-140327287D01*
X99512320Y-140621759D01*
X99512320Y-140922001D01*
X99453746Y-141216473D01*
X99338849Y-141493859D01*
X99172043Y-141743501D01*
X98959741Y-141955803D01*
X98710099Y-142122609D01*
X98432713Y-142237506D01*
X98285477Y-142266793D01*
X98138242Y-142296080D01*
X97837998Y-142296080D01*
X97690763Y-142266793D01*
X97543527Y-142237506D01*
X97266141Y-142122609D01*
X97016499Y-141955803D01*
X96804197Y-141743501D01*
X96637391Y-141493859D01*
X96522494Y-141216473D01*
X96463920Y-140922001D01*
X96463920Y-140621759D01*
X96522494Y-140327287D01*
X96637391Y-140049901D01*
X96804197Y-139800259D01*
X97016499Y-139587957D01*
X97266141Y-139421151D01*
X97543527Y-139306254D01*
X97690763Y-139276967D01*
X97837998Y-139247680D01*
X98138242Y-139247680D01*
X98285477Y-139276967D01*
X98285477Y-139276967D01*
G37*
G36*
X213389201Y-123598286D02*
G01*
X214772083Y-123873358D01*
X216445466Y-124566496D01*
X217951471Y-125572777D01*
X219232223Y-126853529D01*
X220238504Y-128359534D01*
X220931642Y-130032917D01*
X221285000Y-131809372D01*
X221285000Y-133620628D01*
X220931642Y-135397083D01*
X220238504Y-137070466D01*
X219232223Y-138576471D01*
X217951471Y-139857223D01*
X216445466Y-140863504D01*
X214772083Y-141556642D01*
X213389201Y-141831714D01*
X212995630Y-141910000D01*
X211184370Y-141910000D01*
X210790799Y-141831714D01*
X209407917Y-141556642D01*
X207734534Y-140863504D01*
X206228529Y-139857223D01*
X204947777Y-138576471D01*
X203941496Y-137070466D01*
X203248358Y-135397083D01*
X202895000Y-133620628D01*
X202895000Y-131809372D01*
X203248358Y-130032917D01*
X203941496Y-128359534D01*
X204947777Y-126853529D01*
X206228529Y-125572777D01*
X207734534Y-124566496D01*
X209407917Y-123873358D01*
X210790799Y-123598286D01*
X211184370Y-123520000D01*
X212995630Y-123520000D01*
X213389201Y-123598286D01*
X213389201Y-123598286D01*
G37*
G36*
X177146000Y-133966000D02*
G01*
X174644000Y-133966000D01*
X174644000Y-131464000D01*
X177146000Y-131464000D01*
X177146000Y-133966000D01*
X177146000Y-133966000D01*
G37*
G36*
X191751000Y-133966000D02*
G01*
X189249000Y-133966000D01*
X189249000Y-131464000D01*
X191751000Y-131464000D01*
X191751000Y-133966000D01*
X191751000Y-133966000D01*
G37*
G36*
X190864903Y-126512075D02*
G01*
X191092571Y-126606378D01*
X191297466Y-126743285D01*
X191471715Y-126917534D01*
X191608622Y-127122429D01*
X191702925Y-127350097D01*
X191751000Y-127591787D01*
X191751000Y-127838213D01*
X191702925Y-128079903D01*
X191608622Y-128307571D01*
X191471715Y-128512466D01*
X191297466Y-128686715D01*
X191092571Y-128823622D01*
X191092570Y-128823623D01*
X191092569Y-128823623D01*
X190864903Y-128917925D01*
X190623214Y-128966000D01*
X190376786Y-128966000D01*
X190135097Y-128917925D01*
X189907431Y-128823623D01*
X189907430Y-128823623D01*
X189907429Y-128823622D01*
X189702534Y-128686715D01*
X189528285Y-128512466D01*
X189391378Y-128307571D01*
X189297075Y-128079903D01*
X189249000Y-127838213D01*
X189249000Y-127591787D01*
X189297075Y-127350097D01*
X189391378Y-127122429D01*
X189528285Y-126917534D01*
X189702534Y-126743285D01*
X189907429Y-126606378D01*
X190135097Y-126512075D01*
X190376786Y-126464000D01*
X190623214Y-126464000D01*
X190864903Y-126512075D01*
X190864903Y-126512075D01*
G37*
G36*
X176259903Y-126512075D02*
G01*
X176487571Y-126606378D01*
X176692466Y-126743285D01*
X176866715Y-126917534D01*
X177003622Y-127122429D01*
X177097925Y-127350097D01*
X177146000Y-127591787D01*
X177146000Y-127838213D01*
X177097925Y-128079903D01*
X177003622Y-128307571D01*
X176866715Y-128512466D01*
X176692466Y-128686715D01*
X176487571Y-128823622D01*
X176487570Y-128823623D01*
X176487569Y-128823623D01*
X176259903Y-128917925D01*
X176018214Y-128966000D01*
X175771786Y-128966000D01*
X175530097Y-128917925D01*
X175302431Y-128823623D01*
X175302430Y-128823623D01*
X175302429Y-128823622D01*
X175097534Y-128686715D01*
X174923285Y-128512466D01*
X174786378Y-128307571D01*
X174692075Y-128079903D01*
X174644000Y-127838213D01*
X174644000Y-127591787D01*
X174692075Y-127350097D01*
X174786378Y-127122429D01*
X174923285Y-126917534D01*
X175097534Y-126743285D01*
X175302429Y-126606378D01*
X175530097Y-126512075D01*
X175771786Y-126464000D01*
X176018214Y-126464000D01*
X176259903Y-126512075D01*
X176259903Y-126512075D01*
G37*
G36*
X173639903Y-115002075D02*
G01*
X173867571Y-115096378D01*
X174072466Y-115233285D01*
X174246715Y-115407534D01*
X174383622Y-115612429D01*
X174477925Y-115840097D01*
X174526000Y-116081787D01*
X174526000Y-116328213D01*
X174477925Y-116569903D01*
X174383622Y-116797571D01*
X174246715Y-117002466D01*
X174072466Y-117176715D01*
X173867571Y-117313622D01*
X173867570Y-117313623D01*
X173867569Y-117313623D01*
X173639903Y-117407925D01*
X173398214Y-117456000D01*
X173151786Y-117456000D01*
X172910097Y-117407925D01*
X172682431Y-117313623D01*
X172682430Y-117313623D01*
X172682429Y-117313622D01*
X172477534Y-117176715D01*
X172303285Y-117002466D01*
X172166378Y-116797571D01*
X172072075Y-116569903D01*
X172024000Y-116328213D01*
X172024000Y-116081787D01*
X172072075Y-115840097D01*
X172166378Y-115612429D01*
X172303285Y-115407534D01*
X172477534Y-115233285D01*
X172682429Y-115096378D01*
X172910097Y-115002075D01*
X173151786Y-114954000D01*
X173398214Y-114954000D01*
X173639903Y-115002075D01*
X173639903Y-115002075D01*
G37*
G36*
X169526000Y-117456000D02*
G01*
X167024000Y-117456000D01*
X167024000Y-114954000D01*
X169526000Y-114954000D01*
X169526000Y-117456000D01*
X169526000Y-117456000D01*
G37*
G36*
X221822908Y-111775380D02*
G01*
X221989767Y-111808570D01*
X222461299Y-112003885D01*
X222704029Y-112166073D01*
X222885666Y-112287438D01*
X223246562Y-112648334D01*
X223367927Y-112829971D01*
X223530115Y-113072701D01*
X223725430Y-113544233D01*
X223725430Y-113544234D01*
X223801481Y-113926567D01*
X223825000Y-114044809D01*
X223825000Y-114555191D01*
X223725430Y-115055767D01*
X223530115Y-115527299D01*
X223473231Y-115612431D01*
X223246562Y-115951666D01*
X222885666Y-116312562D01*
X222704029Y-116433927D01*
X222461299Y-116596115D01*
X221989767Y-116791430D01*
X221822908Y-116824620D01*
X221489193Y-116891000D01*
X220978807Y-116891000D01*
X220645092Y-116824620D01*
X220478233Y-116791430D01*
X220006701Y-116596115D01*
X219763971Y-116433927D01*
X219582334Y-116312562D01*
X219221438Y-115951666D01*
X218994769Y-115612431D01*
X218937885Y-115527299D01*
X218742570Y-115055767D01*
X218643000Y-114555191D01*
X218643000Y-114044809D01*
X218666520Y-113926567D01*
X218742570Y-113544234D01*
X218742570Y-113544233D01*
X218937885Y-113072701D01*
X219100073Y-112829971D01*
X219221438Y-112648334D01*
X219582334Y-112287438D01*
X219763971Y-112166073D01*
X220006701Y-112003885D01*
X220478233Y-111808570D01*
X220645092Y-111775380D01*
X220978807Y-111709000D01*
X221489193Y-111709000D01*
X221822908Y-111775380D01*
X221822908Y-111775380D01*
G37*
G36*
X213948908Y-111775380D02*
G01*
X214115767Y-111808570D01*
X214587299Y-112003885D01*
X214830029Y-112166073D01*
X215011666Y-112287438D01*
X215372562Y-112648334D01*
X215493927Y-112829971D01*
X215656115Y-113072701D01*
X215851430Y-113544233D01*
X215851430Y-113544234D01*
X215927481Y-113926567D01*
X215951000Y-114044809D01*
X215951000Y-114555191D01*
X215851430Y-115055767D01*
X215656115Y-115527299D01*
X215599231Y-115612431D01*
X215372562Y-115951666D01*
X215011666Y-116312562D01*
X214830029Y-116433927D01*
X214587299Y-116596115D01*
X214115767Y-116791430D01*
X213948908Y-116824620D01*
X213615193Y-116891000D01*
X213104807Y-116891000D01*
X212771092Y-116824620D01*
X212604233Y-116791430D01*
X212132701Y-116596115D01*
X211889971Y-116433927D01*
X211708334Y-116312562D01*
X211347438Y-115951666D01*
X211120769Y-115612431D01*
X211063885Y-115527299D01*
X210868570Y-115055767D01*
X210769000Y-114555191D01*
X210769000Y-114044809D01*
X210792520Y-113926567D01*
X210868570Y-113544234D01*
X210868570Y-113544233D01*
X211063885Y-113072701D01*
X211226073Y-112829971D01*
X211347438Y-112648334D01*
X211708334Y-112287438D01*
X211889971Y-112166073D01*
X212132701Y-112003885D01*
X212604233Y-111808570D01*
X212771092Y-111775380D01*
X213104807Y-111709000D01*
X213615193Y-111709000D01*
X213948908Y-111775380D01*
X213948908Y-111775380D01*
G37*
G36*
X102915070Y-111117433D02*
G01*
X103180899Y-111227543D01*
X103180901Y-111227544D01*
X103420142Y-111387400D01*
X103623600Y-111590858D01*
X103783456Y-111830099D01*
X103783457Y-111830101D01*
X103893567Y-112095930D01*
X103949700Y-112378132D01*
X103949700Y-112665868D01*
X103893567Y-112948070D01*
X103841943Y-113072701D01*
X103783456Y-113213901D01*
X103623600Y-113453142D01*
X103420142Y-113656600D01*
X103180901Y-113816456D01*
X103180900Y-113816457D01*
X103180899Y-113816457D01*
X102915070Y-113926567D01*
X102632868Y-113982700D01*
X102345132Y-113982700D01*
X102062930Y-113926567D01*
X101797101Y-113816457D01*
X101797100Y-113816457D01*
X101797099Y-113816456D01*
X101557858Y-113656600D01*
X101354400Y-113453142D01*
X101194544Y-113213901D01*
X101136057Y-113072701D01*
X101084433Y-112948070D01*
X101028300Y-112665868D01*
X101028300Y-112378132D01*
X101084433Y-112095930D01*
X101194543Y-111830101D01*
X101194544Y-111830099D01*
X101354400Y-111590858D01*
X101557858Y-111387400D01*
X101797099Y-111227544D01*
X101797101Y-111227543D01*
X102062930Y-111117433D01*
X102345132Y-111061300D01*
X102632868Y-111061300D01*
X102915070Y-111117433D01*
X102915070Y-111117433D01*
G37*
G36*
X116377070Y-111117433D02*
G01*
X116642899Y-111227543D01*
X116642901Y-111227544D01*
X116882142Y-111387400D01*
X117085600Y-111590858D01*
X117245456Y-111830099D01*
X117245457Y-111830101D01*
X117355567Y-112095930D01*
X117411700Y-112378132D01*
X117411700Y-112665868D01*
X117355567Y-112948070D01*
X117303943Y-113072701D01*
X117245456Y-113213901D01*
X117085600Y-113453142D01*
X116882142Y-113656600D01*
X116642901Y-113816456D01*
X116642900Y-113816457D01*
X116642899Y-113816457D01*
X116377070Y-113926567D01*
X116094868Y-113982700D01*
X115807132Y-113982700D01*
X115524930Y-113926567D01*
X115259101Y-113816457D01*
X115259100Y-113816457D01*
X115259099Y-113816456D01*
X115019858Y-113656600D01*
X114816400Y-113453142D01*
X114656544Y-113213901D01*
X114598057Y-113072701D01*
X114546433Y-112948070D01*
X114490300Y-112665868D01*
X114490300Y-112378132D01*
X114546433Y-112095930D01*
X114656543Y-111830101D01*
X114656544Y-111830099D01*
X114816400Y-111590858D01*
X115019858Y-111387400D01*
X115259099Y-111227544D01*
X115259101Y-111227543D01*
X115524930Y-111117433D01*
X115807132Y-111061300D01*
X116094868Y-111061300D01*
X116377070Y-111117433D01*
X116377070Y-111117433D01*
G37*
G36*
X116377070Y-107688433D02*
G01*
X116532709Y-107752901D01*
X116642901Y-107798544D01*
X116882142Y-107958400D01*
X117085600Y-108161858D01*
X117108146Y-108195601D01*
X117245457Y-108401101D01*
X117355567Y-108666930D01*
X117411700Y-108949132D01*
X117411700Y-109236868D01*
X117355567Y-109519070D01*
X117245457Y-109784899D01*
X117245456Y-109784901D01*
X117085600Y-110024142D01*
X116882142Y-110227600D01*
X116642901Y-110387456D01*
X116642900Y-110387457D01*
X116642899Y-110387457D01*
X116377070Y-110497567D01*
X116094868Y-110553700D01*
X115807132Y-110553700D01*
X115524930Y-110497567D01*
X115259101Y-110387457D01*
X115259100Y-110387457D01*
X115259099Y-110387456D01*
X115019858Y-110227600D01*
X114816400Y-110024142D01*
X114656544Y-109784901D01*
X114656543Y-109784899D01*
X114546433Y-109519070D01*
X114490300Y-109236868D01*
X114490300Y-108949132D01*
X114546433Y-108666930D01*
X114656543Y-108401101D01*
X114793854Y-108195601D01*
X114816400Y-108161858D01*
X115019858Y-107958400D01*
X115259099Y-107798544D01*
X115369291Y-107752901D01*
X115524930Y-107688433D01*
X115807132Y-107632300D01*
X116094868Y-107632300D01*
X116377070Y-107688433D01*
X116377070Y-107688433D01*
G37*
G36*
X102915070Y-107688433D02*
G01*
X103070709Y-107752901D01*
X103180901Y-107798544D01*
X103420142Y-107958400D01*
X103623600Y-108161858D01*
X103646146Y-108195601D01*
X103783457Y-108401101D01*
X103893567Y-108666930D01*
X103949700Y-108949132D01*
X103949700Y-109236868D01*
X103893567Y-109519070D01*
X103783457Y-109784899D01*
X103783456Y-109784901D01*
X103623600Y-110024142D01*
X103420142Y-110227600D01*
X103180901Y-110387456D01*
X103180900Y-110387457D01*
X103180899Y-110387457D01*
X102915070Y-110497567D01*
X102632868Y-110553700D01*
X102345132Y-110553700D01*
X102062930Y-110497567D01*
X101797101Y-110387457D01*
X101797100Y-110387457D01*
X101797099Y-110387456D01*
X101557858Y-110227600D01*
X101354400Y-110024142D01*
X101194544Y-109784901D01*
X101194543Y-109784899D01*
X101084433Y-109519070D01*
X101028300Y-109236868D01*
X101028300Y-108949132D01*
X101084433Y-108666930D01*
X101194543Y-108401101D01*
X101331854Y-108195601D01*
X101354400Y-108161858D01*
X101557858Y-107958400D01*
X101797099Y-107798544D01*
X101907291Y-107752901D01*
X102062930Y-107688433D01*
X102345132Y-107632300D01*
X102632868Y-107632300D01*
X102915070Y-107688433D01*
X102915070Y-107688433D01*
G37*
G36*
X210738070Y-105656433D02*
G01*
X211003899Y-105766543D01*
X211003901Y-105766544D01*
X211243142Y-105926400D01*
X211446600Y-106129858D01*
X211446601Y-106129860D01*
X211606457Y-106369101D01*
X211716567Y-106634930D01*
X211772700Y-106917132D01*
X211772700Y-107204868D01*
X211716567Y-107487070D01*
X211633159Y-107688434D01*
X211606456Y-107752901D01*
X211446600Y-107992142D01*
X211243142Y-108195600D01*
X211003901Y-108355456D01*
X211003900Y-108355457D01*
X211003899Y-108355457D01*
X210738070Y-108465567D01*
X210455868Y-108521700D01*
X210168132Y-108521700D01*
X209885930Y-108465567D01*
X209620101Y-108355457D01*
X209620100Y-108355457D01*
X209620099Y-108355456D01*
X209380858Y-108195600D01*
X209177400Y-107992142D01*
X209017544Y-107752901D01*
X208990841Y-107688434D01*
X208907433Y-107487070D01*
X208851300Y-107204868D01*
X208851300Y-106917132D01*
X208907433Y-106634930D01*
X209017543Y-106369101D01*
X209177399Y-106129860D01*
X209177400Y-106129858D01*
X209380858Y-105926400D01*
X209620099Y-105766544D01*
X209620101Y-105766543D01*
X209885930Y-105656433D01*
X210168132Y-105600300D01*
X210455868Y-105600300D01*
X210738070Y-105656433D01*
X210738070Y-105656433D01*
G37*
G36*
X224200070Y-105656433D02*
G01*
X224465899Y-105766543D01*
X224465901Y-105766544D01*
X224705142Y-105926400D01*
X224908600Y-106129858D01*
X224908601Y-106129860D01*
X225068457Y-106369101D01*
X225178567Y-106634930D01*
X225234700Y-106917132D01*
X225234700Y-107204868D01*
X225178567Y-107487070D01*
X225095159Y-107688434D01*
X225068456Y-107752901D01*
X224908600Y-107992142D01*
X224705142Y-108195600D01*
X224465901Y-108355456D01*
X224465900Y-108355457D01*
X224465899Y-108355457D01*
X224200070Y-108465567D01*
X223917868Y-108521700D01*
X223630132Y-108521700D01*
X223347930Y-108465567D01*
X223082101Y-108355457D01*
X223082100Y-108355457D01*
X223082099Y-108355456D01*
X222842858Y-108195600D01*
X222639400Y-107992142D01*
X222479544Y-107752901D01*
X222452841Y-107688434D01*
X222369433Y-107487070D01*
X222313300Y-107204868D01*
X222313300Y-106917132D01*
X222369433Y-106634930D01*
X222479543Y-106369101D01*
X222639399Y-106129860D01*
X222639400Y-106129858D01*
X222842858Y-105926400D01*
X223082099Y-105766544D01*
X223082101Y-105766543D01*
X223347930Y-105656433D01*
X223630132Y-105600300D01*
X223917868Y-105600300D01*
X224200070Y-105656433D01*
X224200070Y-105656433D01*
G37*
G36*
X224200070Y-102227433D02*
G01*
X224465899Y-102337543D01*
X224465901Y-102337544D01*
X224705142Y-102497400D01*
X224908600Y-102700858D01*
X224913788Y-102708623D01*
X225068457Y-102940101D01*
X225178567Y-103205930D01*
X225234700Y-103488132D01*
X225234700Y-103775868D01*
X225178567Y-104058070D01*
X225068457Y-104323899D01*
X225068456Y-104323901D01*
X224908600Y-104563142D01*
X224705142Y-104766600D01*
X224465901Y-104926456D01*
X224465900Y-104926457D01*
X224465899Y-104926457D01*
X224200070Y-105036567D01*
X223917868Y-105092700D01*
X223630132Y-105092700D01*
X223347930Y-105036567D01*
X223082101Y-104926457D01*
X223082100Y-104926457D01*
X223082099Y-104926456D01*
X222842858Y-104766600D01*
X222639400Y-104563142D01*
X222479544Y-104323901D01*
X222479543Y-104323899D01*
X222369433Y-104058070D01*
X222313300Y-103775868D01*
X222313300Y-103488132D01*
X222369433Y-103205930D01*
X222479543Y-102940101D01*
X222634212Y-102708623D01*
X222639400Y-102700858D01*
X222842858Y-102497400D01*
X223082099Y-102337544D01*
X223082101Y-102337543D01*
X223347930Y-102227433D01*
X223630132Y-102171300D01*
X223917868Y-102171300D01*
X224200070Y-102227433D01*
X224200070Y-102227433D01*
G37*
G36*
X210738070Y-102227433D02*
G01*
X211003899Y-102337543D01*
X211003901Y-102337544D01*
X211243142Y-102497400D01*
X211446600Y-102700858D01*
X211451788Y-102708623D01*
X211606457Y-102940101D01*
X211716567Y-103205930D01*
X211772700Y-103488132D01*
X211772700Y-103775868D01*
X211716567Y-104058070D01*
X211606457Y-104323899D01*
X211606456Y-104323901D01*
X211446600Y-104563142D01*
X211243142Y-104766600D01*
X211003901Y-104926456D01*
X211003900Y-104926457D01*
X211003899Y-104926457D01*
X210738070Y-105036567D01*
X210455868Y-105092700D01*
X210168132Y-105092700D01*
X209885930Y-105036567D01*
X209620101Y-104926457D01*
X209620100Y-104926457D01*
X209620099Y-104926456D01*
X209380858Y-104766600D01*
X209177400Y-104563142D01*
X209017544Y-104323901D01*
X209017543Y-104323899D01*
X208907433Y-104058070D01*
X208851300Y-103775868D01*
X208851300Y-103488132D01*
X208907433Y-103205930D01*
X209017543Y-102940101D01*
X209172212Y-102708623D01*
X209177400Y-102700858D01*
X209380858Y-102497400D01*
X209620099Y-102337544D01*
X209620101Y-102337543D01*
X209885930Y-102227433D01*
X210168132Y-102171300D01*
X210455868Y-102171300D01*
X210738070Y-102227433D01*
X210738070Y-102227433D01*
G37*
G36*
X169526000Y-102851000D02*
G01*
X167024000Y-102851000D01*
X167024000Y-100349000D01*
X169526000Y-100349000D01*
X169526000Y-102851000D01*
X169526000Y-102851000D01*
G37*
G36*
X173639903Y-100397075D02*
G01*
X173867571Y-100491378D01*
X174072466Y-100628285D01*
X174246715Y-100802534D01*
X174383622Y-101007429D01*
X174477925Y-101235097D01*
X174526000Y-101476787D01*
X174526000Y-101723213D01*
X174477925Y-101964903D01*
X174383622Y-102192571D01*
X174246715Y-102397466D01*
X174072466Y-102571715D01*
X173867571Y-102708622D01*
X173867570Y-102708623D01*
X173867569Y-102708623D01*
X173639903Y-102802925D01*
X173398214Y-102851000D01*
X173151786Y-102851000D01*
X172910097Y-102802925D01*
X172682431Y-102708623D01*
X172682430Y-102708623D01*
X172682429Y-102708622D01*
X172477534Y-102571715D01*
X172303285Y-102397466D01*
X172166378Y-102192571D01*
X172072075Y-101964903D01*
X172024000Y-101723213D01*
X172024000Y-101476787D01*
X172072075Y-101235097D01*
X172166378Y-101007429D01*
X172303285Y-100802534D01*
X172477534Y-100628285D01*
X172682429Y-100491378D01*
X172910097Y-100397075D01*
X173151786Y-100349000D01*
X173398214Y-100349000D01*
X173639903Y-100397075D01*
X173639903Y-100397075D01*
G37*
G36*
X112602908Y-92725380D02*
G01*
X112769767Y-92758570D01*
X113241299Y-92953885D01*
X113484029Y-93116073D01*
X113665666Y-93237438D01*
X114026562Y-93598334D01*
X114147927Y-93779971D01*
X114310115Y-94022701D01*
X114505430Y-94494233D01*
X114605000Y-94994809D01*
X114605000Y-95505191D01*
X114505430Y-96005767D01*
X114310115Y-96477299D01*
X114147927Y-96720029D01*
X114026562Y-96901666D01*
X113665666Y-97262562D01*
X113484029Y-97383927D01*
X113241299Y-97546115D01*
X112769767Y-97741430D01*
X112602908Y-97774620D01*
X112269193Y-97841000D01*
X111758807Y-97841000D01*
X111425092Y-97774620D01*
X111258233Y-97741430D01*
X110786701Y-97546115D01*
X110543971Y-97383927D01*
X110362334Y-97262562D01*
X110001438Y-96901666D01*
X109880073Y-96720029D01*
X109717885Y-96477299D01*
X109522570Y-96005767D01*
X109423000Y-95505191D01*
X109423000Y-94994809D01*
X109522570Y-94494233D01*
X109717885Y-94022701D01*
X109880073Y-93779971D01*
X110001438Y-93598334D01*
X110362334Y-93237438D01*
X110543971Y-93116073D01*
X110786701Y-92953885D01*
X111258233Y-92758570D01*
X111425092Y-92725380D01*
X111758807Y-92659000D01*
X112269193Y-92659000D01*
X112602908Y-92725380D01*
X112602908Y-92725380D01*
G37*
G36*
X120476908Y-92725380D02*
G01*
X120643767Y-92758570D01*
X121115299Y-92953885D01*
X121358029Y-93116073D01*
X121539666Y-93237438D01*
X121900562Y-93598334D01*
X122021927Y-93779971D01*
X122184115Y-94022701D01*
X122379430Y-94494233D01*
X122479000Y-94994809D01*
X122479000Y-95505191D01*
X122379430Y-96005767D01*
X122184115Y-96477299D01*
X122021927Y-96720029D01*
X121900562Y-96901666D01*
X121539666Y-97262562D01*
X121358029Y-97383927D01*
X121115299Y-97546115D01*
X120643767Y-97741430D01*
X120476908Y-97774620D01*
X120143193Y-97841000D01*
X119632807Y-97841000D01*
X119299092Y-97774620D01*
X119132233Y-97741430D01*
X118660701Y-97546115D01*
X118417971Y-97383927D01*
X118236334Y-97262562D01*
X117875438Y-96901666D01*
X117754073Y-96720029D01*
X117591885Y-96477299D01*
X117396570Y-96005767D01*
X117297000Y-95505191D01*
X117297000Y-94994809D01*
X117396570Y-94494233D01*
X117591885Y-94022701D01*
X117754073Y-93779971D01*
X117875438Y-93598334D01*
X118236334Y-93237438D01*
X118417971Y-93116073D01*
X118660701Y-92953885D01*
X119132233Y-92758570D01*
X119299092Y-92725380D01*
X119632807Y-92659000D01*
X120143193Y-92659000D01*
X120476908Y-92725380D01*
X120476908Y-92725380D01*
G37*
G36*
X214075908Y-92217380D02*
G01*
X214242767Y-92250570D01*
X214714299Y-92445885D01*
X214957029Y-92608073D01*
X215138666Y-92729438D01*
X215499562Y-93090334D01*
X215597853Y-93237438D01*
X215783115Y-93514701D01*
X215978430Y-93986233D01*
X216078000Y-94486809D01*
X216078000Y-94997191D01*
X215978430Y-95497767D01*
X215783115Y-95969299D01*
X215620927Y-96212029D01*
X215499562Y-96393666D01*
X215138666Y-96754562D01*
X214957029Y-96875927D01*
X214714299Y-97038115D01*
X214242767Y-97233430D01*
X214096314Y-97262561D01*
X213742193Y-97333000D01*
X213231807Y-97333000D01*
X212877686Y-97262561D01*
X212731233Y-97233430D01*
X212259701Y-97038115D01*
X212016971Y-96875927D01*
X211835334Y-96754562D01*
X211474438Y-96393666D01*
X211353073Y-96212029D01*
X211190885Y-95969299D01*
X210995570Y-95497767D01*
X210896000Y-94997191D01*
X210896000Y-94486809D01*
X210995570Y-93986233D01*
X211190885Y-93514701D01*
X211376147Y-93237438D01*
X211474438Y-93090334D01*
X211835334Y-92729438D01*
X212016971Y-92608073D01*
X212259701Y-92445885D01*
X212731233Y-92250570D01*
X212898092Y-92217380D01*
X213231807Y-92151000D01*
X213742193Y-92151000D01*
X214075908Y-92217380D01*
X214075908Y-92217380D01*
G37*
G36*
X221949908Y-92217380D02*
G01*
X222116767Y-92250570D01*
X222588299Y-92445885D01*
X222831029Y-92608073D01*
X223012666Y-92729438D01*
X223373562Y-93090334D01*
X223471853Y-93237438D01*
X223657115Y-93514701D01*
X223852430Y-93986233D01*
X223952000Y-94486809D01*
X223952000Y-94997191D01*
X223852430Y-95497767D01*
X223657115Y-95969299D01*
X223494927Y-96212029D01*
X223373562Y-96393666D01*
X223012666Y-96754562D01*
X222831029Y-96875927D01*
X222588299Y-97038115D01*
X222116767Y-97233430D01*
X221970314Y-97262561D01*
X221616193Y-97333000D01*
X221105807Y-97333000D01*
X220751686Y-97262561D01*
X220605233Y-97233430D01*
X220133701Y-97038115D01*
X219890971Y-96875927D01*
X219709334Y-96754562D01*
X219348438Y-96393666D01*
X219227073Y-96212029D01*
X219064885Y-95969299D01*
X218869570Y-95497767D01*
X218770000Y-94997191D01*
X218770000Y-94486809D01*
X218869570Y-93986233D01*
X219064885Y-93514701D01*
X219250147Y-93237438D01*
X219348438Y-93090334D01*
X219709334Y-92729438D01*
X219890971Y-92608073D01*
X220133701Y-92445885D01*
X220605233Y-92250570D01*
X220772092Y-92217380D01*
X221105807Y-92151000D01*
X221616193Y-92151000D01*
X221949908Y-92217380D01*
X221949908Y-92217380D01*
G37*
G36*
X173678651Y-89177888D02*
G01*
X173989870Y-89272296D01*
X174276680Y-89425599D01*
X174276683Y-89425601D01*
X174276684Y-89425602D01*
X174528082Y-89631918D01*
X174734398Y-89883316D01*
X174734401Y-89883320D01*
X174887704Y-90170130D01*
X174982112Y-90481349D01*
X175013988Y-90805000D01*
X174982112Y-91128651D01*
X174887704Y-91439870D01*
X174734401Y-91726680D01*
X174734399Y-91726683D01*
X174734398Y-91726684D01*
X174528082Y-91978082D01*
X174276684Y-92184398D01*
X174276680Y-92184401D01*
X173989870Y-92337704D01*
X173678651Y-92432112D01*
X173436107Y-92456000D01*
X173273893Y-92456000D01*
X173031349Y-92432112D01*
X172720130Y-92337704D01*
X172433320Y-92184401D01*
X172433316Y-92184398D01*
X172181918Y-91978082D01*
X171975602Y-91726684D01*
X171975601Y-91726683D01*
X171975599Y-91726680D01*
X171822296Y-91439870D01*
X171727888Y-91128651D01*
X171696012Y-90805000D01*
X171727888Y-90481349D01*
X171822296Y-90170130D01*
X171975599Y-89883320D01*
X171975602Y-89883316D01*
X172181918Y-89631918D01*
X172433316Y-89425602D01*
X172433317Y-89425601D01*
X172433320Y-89425599D01*
X172720130Y-89272296D01*
X173031349Y-89177888D01*
X173273893Y-89154000D01*
X173436107Y-89154000D01*
X173678651Y-89177888D01*
X173678651Y-89177888D01*
G37*
G36*
X169926000Y-92456000D02*
G01*
X166624000Y-92456000D01*
X166624000Y-89154000D01*
X169926000Y-89154000D01*
X169926000Y-92456000D01*
X169926000Y-92456000D01*
G37*
G36*
X210738070Y-85336433D02*
G01*
X210961208Y-85428860D01*
X211003901Y-85446544D01*
X211243142Y-85606400D01*
X211446600Y-85809858D01*
X211529502Y-85933930D01*
X211606457Y-86049101D01*
X211716567Y-86314930D01*
X211772700Y-86597132D01*
X211772700Y-86884868D01*
X211716567Y-87167070D01*
X211606457Y-87432899D01*
X211606456Y-87432901D01*
X211446600Y-87672142D01*
X211243142Y-87875600D01*
X211003901Y-88035456D01*
X211003900Y-88035457D01*
X211003899Y-88035457D01*
X210738070Y-88145567D01*
X210455868Y-88201700D01*
X210168132Y-88201700D01*
X209885930Y-88145567D01*
X209620101Y-88035457D01*
X209620100Y-88035457D01*
X209620099Y-88035456D01*
X209380858Y-87875600D01*
X209177400Y-87672142D01*
X209017544Y-87432901D01*
X209017543Y-87432899D01*
X208907433Y-87167070D01*
X208851300Y-86884868D01*
X208851300Y-86597132D01*
X208907433Y-86314930D01*
X209017543Y-86049101D01*
X209094498Y-85933930D01*
X209177400Y-85809858D01*
X209380858Y-85606400D01*
X209620099Y-85446544D01*
X209662792Y-85428860D01*
X209885930Y-85336433D01*
X210168132Y-85280300D01*
X210455868Y-85280300D01*
X210738070Y-85336433D01*
X210738070Y-85336433D01*
G37*
G36*
X224200070Y-85336433D02*
G01*
X224423208Y-85428860D01*
X224465901Y-85446544D01*
X224705142Y-85606400D01*
X224908600Y-85809858D01*
X224991502Y-85933930D01*
X225068457Y-86049101D01*
X225178567Y-86314930D01*
X225234700Y-86597132D01*
X225234700Y-86884868D01*
X225178567Y-87167070D01*
X225068457Y-87432899D01*
X225068456Y-87432901D01*
X224908600Y-87672142D01*
X224705142Y-87875600D01*
X224465901Y-88035456D01*
X224465900Y-88035457D01*
X224465899Y-88035457D01*
X224200070Y-88145567D01*
X223917868Y-88201700D01*
X223630132Y-88201700D01*
X223347930Y-88145567D01*
X223082101Y-88035457D01*
X223082100Y-88035457D01*
X223082099Y-88035456D01*
X222842858Y-87875600D01*
X222639400Y-87672142D01*
X222479544Y-87432901D01*
X222479543Y-87432899D01*
X222369433Y-87167070D01*
X222313300Y-86884868D01*
X222313300Y-86597132D01*
X222369433Y-86314930D01*
X222479543Y-86049101D01*
X222556498Y-85933930D01*
X222639400Y-85809858D01*
X222842858Y-85606400D01*
X223082099Y-85446544D01*
X223124792Y-85428860D01*
X223347930Y-85336433D01*
X223630132Y-85280300D01*
X223917868Y-85280300D01*
X224200070Y-85336433D01*
X224200070Y-85336433D01*
G37*
G36*
X104693070Y-84955433D02*
G01*
X104958899Y-85065543D01*
X104958901Y-85065544D01*
X105198142Y-85225400D01*
X105401600Y-85428858D01*
X105413417Y-85446544D01*
X105561457Y-85668101D01*
X105671567Y-85933930D01*
X105727700Y-86216132D01*
X105727700Y-86503868D01*
X105671567Y-86786070D01*
X105561457Y-87051899D01*
X105561456Y-87051901D01*
X105401600Y-87291142D01*
X105198142Y-87494600D01*
X104958901Y-87654456D01*
X104958900Y-87654457D01*
X104958899Y-87654457D01*
X104693070Y-87764567D01*
X104410868Y-87820700D01*
X104123132Y-87820700D01*
X103840930Y-87764567D01*
X103575101Y-87654457D01*
X103575100Y-87654457D01*
X103575099Y-87654456D01*
X103335858Y-87494600D01*
X103132400Y-87291142D01*
X102972544Y-87051901D01*
X102972543Y-87051899D01*
X102862433Y-86786070D01*
X102806300Y-86503868D01*
X102806300Y-86216132D01*
X102862433Y-85933930D01*
X102972543Y-85668101D01*
X103120583Y-85446544D01*
X103132400Y-85428858D01*
X103335858Y-85225400D01*
X103575099Y-85065544D01*
X103575101Y-85065543D01*
X103840930Y-84955433D01*
X104123132Y-84899300D01*
X104410868Y-84899300D01*
X104693070Y-84955433D01*
X104693070Y-84955433D01*
G37*
G36*
X118155070Y-84955433D02*
G01*
X118420899Y-85065543D01*
X118420901Y-85065544D01*
X118660142Y-85225400D01*
X118863600Y-85428858D01*
X118875417Y-85446544D01*
X119023457Y-85668101D01*
X119133567Y-85933930D01*
X119189700Y-86216132D01*
X119189700Y-86503868D01*
X119133567Y-86786070D01*
X119023457Y-87051899D01*
X119023456Y-87051901D01*
X118863600Y-87291142D01*
X118660142Y-87494600D01*
X118420901Y-87654456D01*
X118420900Y-87654457D01*
X118420899Y-87654457D01*
X118155070Y-87764567D01*
X117872868Y-87820700D01*
X117585132Y-87820700D01*
X117302930Y-87764567D01*
X117037101Y-87654457D01*
X117037100Y-87654457D01*
X117037099Y-87654456D01*
X116797858Y-87494600D01*
X116594400Y-87291142D01*
X116434544Y-87051901D01*
X116434543Y-87051899D01*
X116324433Y-86786070D01*
X116268300Y-86503868D01*
X116268300Y-86216132D01*
X116324433Y-85933930D01*
X116434543Y-85668101D01*
X116582583Y-85446544D01*
X116594400Y-85428858D01*
X116797858Y-85225400D01*
X117037099Y-85065544D01*
X117037101Y-85065543D01*
X117302930Y-84955433D01*
X117585132Y-84899300D01*
X117872868Y-84899300D01*
X118155070Y-84955433D01*
X118155070Y-84955433D01*
G37*
G36*
X235628357Y-83849087D02*
G01*
X235775593Y-83878374D01*
X236052979Y-83993271D01*
X236302621Y-84160077D01*
X236514923Y-84372379D01*
X236681729Y-84622021D01*
X236796626Y-84899407D01*
X236855200Y-85193879D01*
X236855200Y-85494121D01*
X236796626Y-85788593D01*
X236681729Y-86065979D01*
X236581400Y-86216132D01*
X236515386Y-86314929D01*
X236514923Y-86315621D01*
X236302621Y-86527923D01*
X236052979Y-86694729D01*
X235775593Y-86809626D01*
X235628357Y-86838913D01*
X235481122Y-86868200D01*
X235180878Y-86868200D01*
X235033643Y-86838913D01*
X234886407Y-86809626D01*
X234609021Y-86694729D01*
X234359379Y-86527923D01*
X234147077Y-86315621D01*
X234146615Y-86314929D01*
X234080600Y-86216132D01*
X233980271Y-86065979D01*
X233865374Y-85788593D01*
X233806800Y-85494121D01*
X233806800Y-85193879D01*
X233865374Y-84899407D01*
X233980271Y-84622021D01*
X234147077Y-84372379D01*
X234359379Y-84160077D01*
X234609021Y-83993271D01*
X234886407Y-83878374D01*
X235033643Y-83849087D01*
X235180878Y-83819800D01*
X235481122Y-83819800D01*
X235628357Y-83849087D01*
X235628357Y-83849087D01*
G37*
G36*
X173678651Y-82192888D02*
G01*
X173989870Y-82287296D01*
X174276680Y-82440599D01*
X174276683Y-82440601D01*
X174276684Y-82440602D01*
X174528082Y-82646918D01*
X174724232Y-82885929D01*
X174734401Y-82898320D01*
X174887704Y-83185130D01*
X174982112Y-83496349D01*
X175013988Y-83820000D01*
X174982112Y-84143651D01*
X174887704Y-84454870D01*
X174734401Y-84741680D01*
X174734399Y-84741683D01*
X174734398Y-84741684D01*
X174528082Y-84993082D01*
X174283410Y-85193878D01*
X174276680Y-85199401D01*
X173989870Y-85352704D01*
X173678651Y-85447112D01*
X173436107Y-85471000D01*
X173273893Y-85471000D01*
X173031349Y-85447112D01*
X172720130Y-85352704D01*
X172433320Y-85199401D01*
X172426590Y-85193878D01*
X172181918Y-84993082D01*
X171975602Y-84741684D01*
X171975601Y-84741683D01*
X171975599Y-84741680D01*
X171822296Y-84454870D01*
X171727888Y-84143651D01*
X171696012Y-83820000D01*
X171727888Y-83496349D01*
X171822296Y-83185130D01*
X171975599Y-82898320D01*
X171985768Y-82885929D01*
X172181918Y-82646918D01*
X172433316Y-82440602D01*
X172433317Y-82440601D01*
X172433320Y-82440599D01*
X172720130Y-82287296D01*
X173031349Y-82192888D01*
X173273893Y-82169000D01*
X173436107Y-82169000D01*
X173678651Y-82192888D01*
X173678651Y-82192888D01*
G37*
G36*
X169926000Y-85471000D02*
G01*
X166624000Y-85471000D01*
X166624000Y-82169000D01*
X169926000Y-82169000D01*
X169926000Y-85471000D01*
X169926000Y-85471000D01*
G37*
G36*
X210738070Y-81907433D02*
G01*
X210961208Y-81999860D01*
X211003901Y-82017544D01*
X211243142Y-82177400D01*
X211446600Y-82380858D01*
X211529502Y-82504930D01*
X211606457Y-82620101D01*
X211716567Y-82885930D01*
X211772700Y-83168132D01*
X211772700Y-83455868D01*
X211716567Y-83738070D01*
X211658451Y-83878374D01*
X211606456Y-84003901D01*
X211446600Y-84243142D01*
X211243142Y-84446600D01*
X211003901Y-84606456D01*
X211003900Y-84606457D01*
X211003899Y-84606457D01*
X210738070Y-84716567D01*
X210455868Y-84772700D01*
X210168132Y-84772700D01*
X209885930Y-84716567D01*
X209620101Y-84606457D01*
X209620100Y-84606457D01*
X209620099Y-84606456D01*
X209380858Y-84446600D01*
X209177400Y-84243142D01*
X209017544Y-84003901D01*
X208965549Y-83878374D01*
X208907433Y-83738070D01*
X208851300Y-83455868D01*
X208851300Y-83168132D01*
X208907433Y-82885930D01*
X209017543Y-82620101D01*
X209094498Y-82504930D01*
X209177400Y-82380858D01*
X209380858Y-82177400D01*
X209620099Y-82017544D01*
X209662792Y-81999860D01*
X209885930Y-81907433D01*
X210168132Y-81851300D01*
X210455868Y-81851300D01*
X210738070Y-81907433D01*
X210738070Y-81907433D01*
G37*
G36*
X224200070Y-81907433D02*
G01*
X224423208Y-81999860D01*
X224465901Y-82017544D01*
X224705142Y-82177400D01*
X224908600Y-82380858D01*
X224991502Y-82504930D01*
X225068457Y-82620101D01*
X225178567Y-82885930D01*
X225234700Y-83168132D01*
X225234700Y-83455868D01*
X225178567Y-83738070D01*
X225120451Y-83878374D01*
X225068456Y-84003901D01*
X224908600Y-84243142D01*
X224705142Y-84446600D01*
X224465901Y-84606456D01*
X224465900Y-84606457D01*
X224465899Y-84606457D01*
X224200070Y-84716567D01*
X223917868Y-84772700D01*
X223630132Y-84772700D01*
X223347930Y-84716567D01*
X223082101Y-84606457D01*
X223082100Y-84606457D01*
X223082099Y-84606456D01*
X222842858Y-84446600D01*
X222639400Y-84243142D01*
X222479544Y-84003901D01*
X222427549Y-83878374D01*
X222369433Y-83738070D01*
X222313300Y-83455868D01*
X222313300Y-83168132D01*
X222369433Y-82885930D01*
X222479543Y-82620101D01*
X222556498Y-82504930D01*
X222639400Y-82380858D01*
X222842858Y-82177400D01*
X223082099Y-82017544D01*
X223124792Y-81999860D01*
X223347930Y-81907433D01*
X223630132Y-81851300D01*
X223917868Y-81851300D01*
X224200070Y-81907433D01*
X224200070Y-81907433D01*
G37*
G36*
X104693070Y-81526433D02*
G01*
X104958899Y-81636543D01*
X104958901Y-81636544D01*
X105198142Y-81796400D01*
X105401600Y-81999858D01*
X105530579Y-82192889D01*
X105561457Y-82239101D01*
X105671567Y-82504930D01*
X105727700Y-82787132D01*
X105727700Y-83074868D01*
X105671567Y-83357070D01*
X105561457Y-83622899D01*
X105561456Y-83622901D01*
X105401600Y-83862142D01*
X105198142Y-84065600D01*
X104958901Y-84225456D01*
X104958900Y-84225457D01*
X104958899Y-84225457D01*
X104693070Y-84335567D01*
X104410868Y-84391700D01*
X104123132Y-84391700D01*
X103840930Y-84335567D01*
X103575101Y-84225457D01*
X103575100Y-84225457D01*
X103575099Y-84225456D01*
X103335858Y-84065600D01*
X103132400Y-83862142D01*
X102972544Y-83622901D01*
X102972543Y-83622899D01*
X102862433Y-83357070D01*
X102806300Y-83074868D01*
X102806300Y-82787132D01*
X102862433Y-82504930D01*
X102972543Y-82239101D01*
X103003421Y-82192889D01*
X103132400Y-81999858D01*
X103335858Y-81796400D01*
X103575099Y-81636544D01*
X103575101Y-81636543D01*
X103840930Y-81526433D01*
X104123132Y-81470300D01*
X104410868Y-81470300D01*
X104693070Y-81526433D01*
X104693070Y-81526433D01*
G37*
G36*
X118155070Y-81526433D02*
G01*
X118420899Y-81636543D01*
X118420901Y-81636544D01*
X118660142Y-81796400D01*
X118863600Y-81999858D01*
X118992579Y-82192889D01*
X119023457Y-82239101D01*
X119133567Y-82504930D01*
X119189700Y-82787132D01*
X119189700Y-83074868D01*
X119133567Y-83357070D01*
X119023457Y-83622899D01*
X119023456Y-83622901D01*
X118863600Y-83862142D01*
X118660142Y-84065600D01*
X118420901Y-84225456D01*
X118420900Y-84225457D01*
X118420899Y-84225457D01*
X118155070Y-84335567D01*
X117872868Y-84391700D01*
X117585132Y-84391700D01*
X117302930Y-84335567D01*
X117037101Y-84225457D01*
X117037100Y-84225457D01*
X117037099Y-84225456D01*
X116797858Y-84065600D01*
X116594400Y-83862142D01*
X116434544Y-83622901D01*
X116434543Y-83622899D01*
X116324433Y-83357070D01*
X116268300Y-83074868D01*
X116268300Y-82787132D01*
X116324433Y-82504930D01*
X116434543Y-82239101D01*
X116465421Y-82192889D01*
X116594400Y-81999858D01*
X116797858Y-81796400D01*
X117037099Y-81636544D01*
X117037101Y-81636543D01*
X117302930Y-81526433D01*
X117585132Y-81470300D01*
X117872868Y-81470300D01*
X118155070Y-81526433D01*
X118155070Y-81526433D01*
G37*
G36*
X98341357Y-76102087D02*
G01*
X98488593Y-76131374D01*
X98765979Y-76246271D01*
X99015621Y-76413077D01*
X99227923Y-76625379D01*
X99394729Y-76875021D01*
X99509626Y-77152407D01*
X99568200Y-77446879D01*
X99568200Y-77747121D01*
X99509626Y-78041593D01*
X99394729Y-78318979D01*
X99227923Y-78568621D01*
X99015621Y-78780923D01*
X98765979Y-78947729D01*
X98488593Y-79062626D01*
X98341357Y-79091913D01*
X98194122Y-79121200D01*
X97893878Y-79121200D01*
X97746643Y-79091913D01*
X97599407Y-79062626D01*
X97322021Y-78947729D01*
X97072379Y-78780923D01*
X96860077Y-78568621D01*
X96693271Y-78318979D01*
X96578374Y-78041593D01*
X96519800Y-77747121D01*
X96519800Y-77446879D01*
X96578374Y-77152407D01*
X96693271Y-76875021D01*
X96860077Y-76625379D01*
X97072379Y-76413077D01*
X97322021Y-76246271D01*
X97599407Y-76131374D01*
X97746643Y-76102087D01*
X97893878Y-76072800D01*
X98194122Y-76072800D01*
X98341357Y-76102087D01*
X98341357Y-76102087D01*
G37*
G36*
X213821908Y-72151380D02*
G01*
X213988767Y-72184570D01*
X214460299Y-72379885D01*
X214703029Y-72542073D01*
X214884666Y-72663438D01*
X215245562Y-73024334D01*
X215366927Y-73205971D01*
X215529115Y-73448701D01*
X215724430Y-73920233D01*
X215824000Y-74420809D01*
X215824000Y-74931191D01*
X215724430Y-75431767D01*
X215529115Y-75903299D01*
X215376720Y-76131374D01*
X215245562Y-76327666D01*
X214884666Y-76688562D01*
X214703029Y-76809927D01*
X214460299Y-76972115D01*
X213988767Y-77167430D01*
X213821908Y-77200620D01*
X213488193Y-77267000D01*
X212977807Y-77267000D01*
X212644092Y-77200620D01*
X212477233Y-77167430D01*
X212005701Y-76972115D01*
X211762971Y-76809927D01*
X211581334Y-76688562D01*
X211220438Y-76327666D01*
X211089280Y-76131374D01*
X210936885Y-75903299D01*
X210741570Y-75431767D01*
X210642000Y-74931191D01*
X210642000Y-74420809D01*
X210741570Y-73920233D01*
X210936885Y-73448701D01*
X211099073Y-73205971D01*
X211220438Y-73024334D01*
X211581334Y-72663438D01*
X211762971Y-72542073D01*
X212005701Y-72379885D01*
X212477233Y-72184570D01*
X212644092Y-72151380D01*
X212977807Y-72085000D01*
X213488193Y-72085000D01*
X213821908Y-72151380D01*
X213821908Y-72151380D01*
G37*
G36*
X221695908Y-72151380D02*
G01*
X221862767Y-72184570D01*
X222334299Y-72379885D01*
X222577029Y-72542073D01*
X222758666Y-72663438D01*
X223119562Y-73024334D01*
X223240927Y-73205971D01*
X223403115Y-73448701D01*
X223598430Y-73920233D01*
X223698000Y-74420809D01*
X223698000Y-74931191D01*
X223598430Y-75431767D01*
X223403115Y-75903299D01*
X223250720Y-76131374D01*
X223119562Y-76327666D01*
X222758666Y-76688562D01*
X222577029Y-76809927D01*
X222334299Y-76972115D01*
X221862767Y-77167430D01*
X221695908Y-77200620D01*
X221362193Y-77267000D01*
X220851807Y-77267000D01*
X220518092Y-77200620D01*
X220351233Y-77167430D01*
X219879701Y-76972115D01*
X219636971Y-76809927D01*
X219455334Y-76688562D01*
X219094438Y-76327666D01*
X218963280Y-76131374D01*
X218810885Y-75903299D01*
X218615570Y-75431767D01*
X218516000Y-74931191D01*
X218516000Y-74420809D01*
X218615570Y-73920233D01*
X218810885Y-73448701D01*
X218973073Y-73205971D01*
X219094438Y-73024334D01*
X219455334Y-72663438D01*
X219636971Y-72542073D01*
X219879701Y-72379885D01*
X220351233Y-72184570D01*
X220518092Y-72151380D01*
X220851807Y-72085000D01*
X221362193Y-72085000D01*
X221695908Y-72151380D01*
X221695908Y-72151380D01*
G37*
G36*
X120476908Y-66055380D02*
G01*
X120643767Y-66088570D01*
X121115299Y-66283885D01*
X121358029Y-66446073D01*
X121539666Y-66567438D01*
X121900562Y-66928334D01*
X122015980Y-67101070D01*
X122184115Y-67352701D01*
X122379430Y-67824233D01*
X122479000Y-68324809D01*
X122479000Y-68835191D01*
X122379430Y-69335767D01*
X122184115Y-69807299D01*
X122021927Y-70050029D01*
X121900562Y-70231666D01*
X121539666Y-70592562D01*
X121377376Y-70701000D01*
X121115299Y-70876115D01*
X120643767Y-71071430D01*
X120476908Y-71104620D01*
X120143193Y-71171000D01*
X119632807Y-71171000D01*
X119299092Y-71104620D01*
X119132233Y-71071430D01*
X118660701Y-70876115D01*
X118398624Y-70701000D01*
X118236334Y-70592562D01*
X117875438Y-70231666D01*
X117754073Y-70050029D01*
X117591885Y-69807299D01*
X117396570Y-69335767D01*
X117297000Y-68835191D01*
X117297000Y-68324809D01*
X117396570Y-67824233D01*
X117591885Y-67352701D01*
X117760020Y-67101070D01*
X117875438Y-66928334D01*
X118236334Y-66567438D01*
X118417971Y-66446073D01*
X118660701Y-66283885D01*
X119132233Y-66088570D01*
X119299092Y-66055380D01*
X119632807Y-65989000D01*
X120143193Y-65989000D01*
X120476908Y-66055380D01*
X120476908Y-66055380D01*
G37*
G36*
X112602908Y-66055380D02*
G01*
X112769767Y-66088570D01*
X113241299Y-66283885D01*
X113484029Y-66446073D01*
X113665666Y-66567438D01*
X114026562Y-66928334D01*
X114141980Y-67101070D01*
X114310115Y-67352701D01*
X114505430Y-67824233D01*
X114605000Y-68324809D01*
X114605000Y-68835191D01*
X114505430Y-69335767D01*
X114310115Y-69807299D01*
X114147927Y-70050029D01*
X114026562Y-70231666D01*
X113665666Y-70592562D01*
X113503376Y-70701000D01*
X113241299Y-70876115D01*
X112769767Y-71071430D01*
X112602908Y-71104620D01*
X112269193Y-71171000D01*
X111758807Y-71171000D01*
X111425092Y-71104620D01*
X111258233Y-71071430D01*
X110786701Y-70876115D01*
X110524624Y-70701000D01*
X110362334Y-70592562D01*
X110001438Y-70231666D01*
X109880073Y-70050029D01*
X109717885Y-69807299D01*
X109522570Y-69335767D01*
X109423000Y-68835191D01*
X109423000Y-68324809D01*
X109522570Y-67824233D01*
X109717885Y-67352701D01*
X109886020Y-67101070D01*
X110001438Y-66928334D01*
X110362334Y-66567438D01*
X110543971Y-66446073D01*
X110786701Y-66283885D01*
X111258233Y-66088570D01*
X111425092Y-66055380D01*
X111758807Y-65989000D01*
X112269193Y-65989000D01*
X112602908Y-66055380D01*
X112602908Y-66055380D01*
G37*
G36*
X160236000Y-70701000D02*
G01*
X158534000Y-70701000D01*
X158534000Y-68999000D01*
X160236000Y-68999000D01*
X160236000Y-70701000D01*
X160236000Y-70701000D01*
G37*
G36*
X173190000Y-70701000D02*
G01*
X171488000Y-70701000D01*
X171488000Y-68999000D01*
X173190000Y-68999000D01*
X173190000Y-70701000D01*
X173190000Y-70701000D01*
G37*
G36*
X172587228Y-66531703D02*
G01*
X172742100Y-66595853D01*
X172881481Y-66688985D01*
X173000015Y-66807519D01*
X173093147Y-66946900D01*
X173157297Y-67101772D01*
X173190000Y-67266184D01*
X173190000Y-67433816D01*
X173157297Y-67598228D01*
X173093147Y-67753100D01*
X173000015Y-67892481D01*
X172881481Y-68011015D01*
X172742100Y-68104147D01*
X172587228Y-68168297D01*
X172422816Y-68201000D01*
X172255184Y-68201000D01*
X172090772Y-68168297D01*
X171935900Y-68104147D01*
X171796519Y-68011015D01*
X171677985Y-67892481D01*
X171584853Y-67753100D01*
X171520703Y-67598228D01*
X171488000Y-67433816D01*
X171488000Y-67266184D01*
X171520703Y-67101772D01*
X171584853Y-66946900D01*
X171677985Y-66807519D01*
X171796519Y-66688985D01*
X171935900Y-66595853D01*
X172090772Y-66531703D01*
X172255184Y-66499000D01*
X172422816Y-66499000D01*
X172587228Y-66531703D01*
X172587228Y-66531703D01*
G37*
G36*
X159633228Y-66531703D02*
G01*
X159788100Y-66595853D01*
X159927481Y-66688985D01*
X160046015Y-66807519D01*
X160139147Y-66946900D01*
X160203297Y-67101772D01*
X160236000Y-67266184D01*
X160236000Y-67433816D01*
X160203297Y-67598228D01*
X160139147Y-67753100D01*
X160046015Y-67892481D01*
X159927481Y-68011015D01*
X159788100Y-68104147D01*
X159633228Y-68168297D01*
X159468816Y-68201000D01*
X159301184Y-68201000D01*
X159136772Y-68168297D01*
X158981900Y-68104147D01*
X158842519Y-68011015D01*
X158723985Y-67892481D01*
X158630853Y-67753100D01*
X158566703Y-67598228D01*
X158534000Y-67433816D01*
X158534000Y-67266184D01*
X158566703Y-67101772D01*
X158630853Y-66946900D01*
X158723985Y-66807519D01*
X158842519Y-66688985D01*
X158981900Y-66595853D01*
X159136772Y-66531703D01*
X159301184Y-66499000D01*
X159468816Y-66499000D01*
X159633228Y-66531703D01*
X159633228Y-66531703D01*
G37*
G36*
X224073070Y-65270433D02*
G01*
X224338899Y-65380543D01*
X224338901Y-65380544D01*
X224578142Y-65540400D01*
X224781600Y-65743858D01*
X224781601Y-65743860D01*
X224941457Y-65983101D01*
X225051567Y-66248930D01*
X225107700Y-66531132D01*
X225107700Y-66818868D01*
X225051567Y-67101070D01*
X224983174Y-67266185D01*
X224941456Y-67366901D01*
X224781600Y-67606142D01*
X224578142Y-67809600D01*
X224338901Y-67969456D01*
X224338900Y-67969457D01*
X224338899Y-67969457D01*
X224073070Y-68079567D01*
X223790868Y-68135700D01*
X223503132Y-68135700D01*
X223220930Y-68079567D01*
X222955101Y-67969457D01*
X222955100Y-67969457D01*
X222955099Y-67969456D01*
X222715858Y-67809600D01*
X222512400Y-67606142D01*
X222352544Y-67366901D01*
X222310826Y-67266185D01*
X222242433Y-67101070D01*
X222186300Y-66818868D01*
X222186300Y-66531132D01*
X222242433Y-66248930D01*
X222352543Y-65983101D01*
X222512399Y-65743860D01*
X222512400Y-65743858D01*
X222715858Y-65540400D01*
X222955099Y-65380544D01*
X222955101Y-65380543D01*
X223220930Y-65270433D01*
X223503132Y-65214300D01*
X223790868Y-65214300D01*
X224073070Y-65270433D01*
X224073070Y-65270433D01*
G37*
G36*
X210611070Y-65270433D02*
G01*
X210876899Y-65380543D01*
X210876901Y-65380544D01*
X211116142Y-65540400D01*
X211319600Y-65743858D01*
X211319601Y-65743860D01*
X211479457Y-65983101D01*
X211589567Y-66248930D01*
X211645700Y-66531132D01*
X211645700Y-66818868D01*
X211589567Y-67101070D01*
X211521174Y-67266185D01*
X211479456Y-67366901D01*
X211319600Y-67606142D01*
X211116142Y-67809600D01*
X210876901Y-67969456D01*
X210876900Y-67969457D01*
X210876899Y-67969457D01*
X210611070Y-68079567D01*
X210328868Y-68135700D01*
X210041132Y-68135700D01*
X209758930Y-68079567D01*
X209493101Y-67969457D01*
X209493100Y-67969457D01*
X209493099Y-67969456D01*
X209253858Y-67809600D01*
X209050400Y-67606142D01*
X208890544Y-67366901D01*
X208848826Y-67266185D01*
X208780433Y-67101070D01*
X208724300Y-66818868D01*
X208724300Y-66531132D01*
X208780433Y-66248930D01*
X208890543Y-65983101D01*
X209050399Y-65743860D01*
X209050400Y-65743858D01*
X209253858Y-65540400D01*
X209493099Y-65380544D01*
X209493101Y-65380543D01*
X209758930Y-65270433D01*
X210041132Y-65214300D01*
X210328868Y-65214300D01*
X210611070Y-65270433D01*
X210611070Y-65270433D01*
G37*
G36*
X224073070Y-61841433D02*
G01*
X224338899Y-61951543D01*
X224338901Y-61951544D01*
X224578142Y-62111400D01*
X224781600Y-62314858D01*
X224941456Y-62554099D01*
X224941457Y-62554101D01*
X225051567Y-62819930D01*
X225107700Y-63102132D01*
X225107700Y-63389868D01*
X225051567Y-63672070D01*
X224941457Y-63937899D01*
X224941456Y-63937901D01*
X224781600Y-64177142D01*
X224578142Y-64380600D01*
X224338901Y-64540456D01*
X224338900Y-64540457D01*
X224338899Y-64540457D01*
X224073070Y-64650567D01*
X223790868Y-64706700D01*
X223503132Y-64706700D01*
X223220930Y-64650567D01*
X222955101Y-64540457D01*
X222955100Y-64540457D01*
X222955099Y-64540456D01*
X222715858Y-64380600D01*
X222512400Y-64177142D01*
X222352544Y-63937901D01*
X222352543Y-63937899D01*
X222242433Y-63672070D01*
X222186300Y-63389868D01*
X222186300Y-63102132D01*
X222242433Y-62819930D01*
X222352543Y-62554101D01*
X222352544Y-62554099D01*
X222512400Y-62314858D01*
X222715858Y-62111400D01*
X222955099Y-61951544D01*
X222955101Y-61951543D01*
X223220930Y-61841433D01*
X223503132Y-61785300D01*
X223790868Y-61785300D01*
X224073070Y-61841433D01*
X224073070Y-61841433D01*
G37*
G36*
X210611070Y-61841433D02*
G01*
X210876899Y-61951543D01*
X210876901Y-61951544D01*
X211116142Y-62111400D01*
X211319600Y-62314858D01*
X211479456Y-62554099D01*
X211479457Y-62554101D01*
X211589567Y-62819930D01*
X211645700Y-63102132D01*
X211645700Y-63389868D01*
X211589567Y-63672070D01*
X211479457Y-63937899D01*
X211479456Y-63937901D01*
X211319600Y-64177142D01*
X211116142Y-64380600D01*
X210876901Y-64540456D01*
X210876900Y-64540457D01*
X210876899Y-64540457D01*
X210611070Y-64650567D01*
X210328868Y-64706700D01*
X210041132Y-64706700D01*
X209758930Y-64650567D01*
X209493101Y-64540457D01*
X209493100Y-64540457D01*
X209493099Y-64540456D01*
X209253858Y-64380600D01*
X209050400Y-64177142D01*
X208890544Y-63937901D01*
X208890543Y-63937899D01*
X208780433Y-63672070D01*
X208724300Y-63389868D01*
X208724300Y-63102132D01*
X208780433Y-62819930D01*
X208890543Y-62554101D01*
X208890544Y-62554099D01*
X209050400Y-62314858D01*
X209253858Y-62111400D01*
X209493099Y-61951544D01*
X209493101Y-61951543D01*
X209758930Y-61841433D01*
X210041132Y-61785300D01*
X210328868Y-61785300D01*
X210611070Y-61841433D01*
X210611070Y-61841433D01*
G37*
G36*
X158987142Y-61448242D02*
G01*
X159135101Y-61509529D01*
X159268255Y-61598499D01*
X159381501Y-61711745D01*
X159470471Y-61844899D01*
X159531758Y-61992858D01*
X159563000Y-62149925D01*
X159563000Y-62310075D01*
X159531758Y-62467142D01*
X159470471Y-62615101D01*
X159381501Y-62748255D01*
X159268255Y-62861501D01*
X159135101Y-62950471D01*
X158987142Y-63011758D01*
X158830075Y-63043000D01*
X158669925Y-63043000D01*
X158512858Y-63011758D01*
X158364899Y-62950471D01*
X158231745Y-62861501D01*
X158118499Y-62748255D01*
X158029529Y-62615101D01*
X157968242Y-62467142D01*
X157937000Y-62310075D01*
X157937000Y-62149925D01*
X157968242Y-61992858D01*
X158029529Y-61844899D01*
X158118499Y-61711745D01*
X158231745Y-61598499D01*
X158364899Y-61509529D01*
X158512858Y-61448242D01*
X158669925Y-61417000D01*
X158830075Y-61417000D01*
X158987142Y-61448242D01*
X158987142Y-61448242D01*
G37*
G36*
X173592142Y-61448242D02*
G01*
X173740101Y-61509529D01*
X173873255Y-61598499D01*
X173986501Y-61711745D01*
X174075471Y-61844899D01*
X174136758Y-61992858D01*
X174168000Y-62149925D01*
X174168000Y-62310075D01*
X174136758Y-62467142D01*
X174075471Y-62615101D01*
X173986501Y-62748255D01*
X173873255Y-62861501D01*
X173740101Y-62950471D01*
X173592142Y-63011758D01*
X173435075Y-63043000D01*
X173274925Y-63043000D01*
X173117858Y-63011758D01*
X172969899Y-62950471D01*
X172836745Y-62861501D01*
X172723499Y-62748255D01*
X172634529Y-62615101D01*
X172573242Y-62467142D01*
X172542000Y-62310075D01*
X172542000Y-62149925D01*
X172573242Y-61992858D01*
X172634529Y-61844899D01*
X172723499Y-61711745D01*
X172836745Y-61598499D01*
X172969899Y-61509529D01*
X173117858Y-61448242D01*
X173274925Y-61417000D01*
X173435075Y-61417000D01*
X173592142Y-61448242D01*
X173592142Y-61448242D01*
G37*
G36*
X171052142Y-61448242D02*
G01*
X171200101Y-61509529D01*
X171333255Y-61598499D01*
X171446501Y-61711745D01*
X171535471Y-61844899D01*
X171596758Y-61992858D01*
X171628000Y-62149925D01*
X171628000Y-62310075D01*
X171596758Y-62467142D01*
X171535471Y-62615101D01*
X171446501Y-62748255D01*
X171333255Y-62861501D01*
X171200101Y-62950471D01*
X171052142Y-63011758D01*
X170895075Y-63043000D01*
X170734925Y-63043000D01*
X170577858Y-63011758D01*
X170429899Y-62950471D01*
X170296745Y-62861501D01*
X170183499Y-62748255D01*
X170094529Y-62615101D01*
X170033242Y-62467142D01*
X170002000Y-62310075D01*
X170002000Y-62149925D01*
X170033242Y-61992858D01*
X170094529Y-61844899D01*
X170183499Y-61711745D01*
X170296745Y-61598499D01*
X170429899Y-61509529D01*
X170577858Y-61448242D01*
X170734925Y-61417000D01*
X170895075Y-61417000D01*
X171052142Y-61448242D01*
X171052142Y-61448242D01*
G37*
G36*
X176132142Y-61448242D02*
G01*
X176280101Y-61509529D01*
X176413255Y-61598499D01*
X176526501Y-61711745D01*
X176615471Y-61844899D01*
X176676758Y-61992858D01*
X176708000Y-62149925D01*
X176708000Y-62310075D01*
X176676758Y-62467142D01*
X176615471Y-62615101D01*
X176526501Y-62748255D01*
X176413255Y-62861501D01*
X176280101Y-62950471D01*
X176132142Y-63011758D01*
X175975075Y-63043000D01*
X175814925Y-63043000D01*
X175657858Y-63011758D01*
X175509899Y-62950471D01*
X175376745Y-62861501D01*
X175263499Y-62748255D01*
X175174529Y-62615101D01*
X175113242Y-62467142D01*
X175082000Y-62310075D01*
X175082000Y-62149925D01*
X175113242Y-61992858D01*
X175174529Y-61844899D01*
X175263499Y-61711745D01*
X175376745Y-61598499D01*
X175509899Y-61509529D01*
X175657858Y-61448242D01*
X175814925Y-61417000D01*
X175975075Y-61417000D01*
X176132142Y-61448242D01*
X176132142Y-61448242D01*
G37*
G36*
X161527142Y-61448242D02*
G01*
X161675101Y-61509529D01*
X161808255Y-61598499D01*
X161921501Y-61711745D01*
X162010471Y-61844899D01*
X162071758Y-61992858D01*
X162103000Y-62149925D01*
X162103000Y-62310075D01*
X162071758Y-62467142D01*
X162010471Y-62615101D01*
X161921501Y-62748255D01*
X161808255Y-62861501D01*
X161675101Y-62950471D01*
X161527142Y-63011758D01*
X161370075Y-63043000D01*
X161209925Y-63043000D01*
X161052858Y-63011758D01*
X160904899Y-62950471D01*
X160771745Y-62861501D01*
X160658499Y-62748255D01*
X160569529Y-62615101D01*
X160508242Y-62467142D01*
X160477000Y-62310075D01*
X160477000Y-62149925D01*
X160508242Y-61992858D01*
X160569529Y-61844899D01*
X160658499Y-61711745D01*
X160771745Y-61598499D01*
X160904899Y-61509529D01*
X161052858Y-61448242D01*
X161209925Y-61417000D01*
X161370075Y-61417000D01*
X161527142Y-61448242D01*
X161527142Y-61448242D01*
G37*
G36*
X164067142Y-61448242D02*
G01*
X164215101Y-61509529D01*
X164348255Y-61598499D01*
X164461501Y-61711745D01*
X164550471Y-61844899D01*
X164611758Y-61992858D01*
X164643000Y-62149925D01*
X164643000Y-62310075D01*
X164611758Y-62467142D01*
X164550471Y-62615101D01*
X164461501Y-62748255D01*
X164348255Y-62861501D01*
X164215101Y-62950471D01*
X164067142Y-63011758D01*
X163910075Y-63043000D01*
X163749925Y-63043000D01*
X163592858Y-63011758D01*
X163444899Y-62950471D01*
X163311745Y-62861501D01*
X163198499Y-62748255D01*
X163109529Y-62615101D01*
X163048242Y-62467142D01*
X163017000Y-62310075D01*
X163017000Y-62149925D01*
X163048242Y-61992858D01*
X163109529Y-61844899D01*
X163198499Y-61711745D01*
X163311745Y-61598499D01*
X163444899Y-61509529D01*
X163592858Y-61448242D01*
X163749925Y-61417000D01*
X163910075Y-61417000D01*
X164067142Y-61448242D01*
X164067142Y-61448242D01*
G37*
G36*
X103042070Y-58539433D02*
G01*
X103307899Y-58649543D01*
X103307901Y-58649544D01*
X103547142Y-58809400D01*
X103750600Y-59012858D01*
X103750601Y-59012860D01*
X103910457Y-59252101D01*
X104020567Y-59517930D01*
X104076700Y-59800132D01*
X104076700Y-60087868D01*
X104020567Y-60370070D01*
X103910457Y-60635899D01*
X103910456Y-60635901D01*
X103750600Y-60875142D01*
X103547142Y-61078600D01*
X103307901Y-61238456D01*
X103307900Y-61238457D01*
X103307899Y-61238457D01*
X103042070Y-61348567D01*
X102759868Y-61404700D01*
X102472132Y-61404700D01*
X102189930Y-61348567D01*
X101924101Y-61238457D01*
X101924100Y-61238457D01*
X101924099Y-61238456D01*
X101684858Y-61078600D01*
X101481400Y-60875142D01*
X101321544Y-60635901D01*
X101321543Y-60635899D01*
X101211433Y-60370070D01*
X101155300Y-60087868D01*
X101155300Y-59800132D01*
X101211433Y-59517930D01*
X101321543Y-59252101D01*
X101481399Y-59012860D01*
X101481400Y-59012858D01*
X101684858Y-58809400D01*
X101924099Y-58649544D01*
X101924101Y-58649543D01*
X102189930Y-58539433D01*
X102472132Y-58483300D01*
X102759868Y-58483300D01*
X103042070Y-58539433D01*
X103042070Y-58539433D01*
G37*
G36*
X116504070Y-58539433D02*
G01*
X116769899Y-58649543D01*
X116769901Y-58649544D01*
X117009142Y-58809400D01*
X117212600Y-59012858D01*
X117212601Y-59012860D01*
X117372457Y-59252101D01*
X117482567Y-59517930D01*
X117538700Y-59800132D01*
X117538700Y-60087868D01*
X117482567Y-60370070D01*
X117372457Y-60635899D01*
X117372456Y-60635901D01*
X117212600Y-60875142D01*
X117009142Y-61078600D01*
X116769901Y-61238456D01*
X116769900Y-61238457D01*
X116769899Y-61238457D01*
X116504070Y-61348567D01*
X116221868Y-61404700D01*
X115934132Y-61404700D01*
X115651930Y-61348567D01*
X115386101Y-61238457D01*
X115386100Y-61238457D01*
X115386099Y-61238456D01*
X115146858Y-61078600D01*
X114943400Y-60875142D01*
X114783544Y-60635901D01*
X114783543Y-60635899D01*
X114673433Y-60370070D01*
X114617300Y-60087868D01*
X114617300Y-59800132D01*
X114673433Y-59517930D01*
X114783543Y-59252101D01*
X114943399Y-59012860D01*
X114943400Y-59012858D01*
X115146858Y-58809400D01*
X115386099Y-58649544D01*
X115386101Y-58649543D01*
X115651930Y-58539433D01*
X115934132Y-58483300D01*
X116221868Y-58483300D01*
X116504070Y-58539433D01*
X116504070Y-58539433D01*
G37*
G36*
X103042070Y-55110433D02*
G01*
X103263849Y-55202297D01*
X103307901Y-55220544D01*
X103547142Y-55380400D01*
X103750600Y-55583858D01*
X103750601Y-55583860D01*
X103910457Y-55823101D01*
X104020567Y-56088930D01*
X104076700Y-56371132D01*
X104076700Y-56658868D01*
X104020567Y-56941070D01*
X103910457Y-57206899D01*
X103910456Y-57206901D01*
X103750600Y-57446142D01*
X103547142Y-57649600D01*
X103307901Y-57809456D01*
X103307900Y-57809457D01*
X103307899Y-57809457D01*
X103042070Y-57919567D01*
X102759868Y-57975700D01*
X102472132Y-57975700D01*
X102189930Y-57919567D01*
X101924101Y-57809457D01*
X101924100Y-57809457D01*
X101924099Y-57809456D01*
X101684858Y-57649600D01*
X101481400Y-57446142D01*
X101321544Y-57206901D01*
X101321543Y-57206899D01*
X101211433Y-56941070D01*
X101155300Y-56658868D01*
X101155300Y-56371132D01*
X101211433Y-56088930D01*
X101321543Y-55823101D01*
X101481399Y-55583860D01*
X101481400Y-55583858D01*
X101684858Y-55380400D01*
X101924099Y-55220544D01*
X101968151Y-55202297D01*
X102189930Y-55110433D01*
X102472132Y-55054300D01*
X102759868Y-55054300D01*
X103042070Y-55110433D01*
X103042070Y-55110433D01*
G37*
G36*
X116504070Y-55110433D02*
G01*
X116725849Y-55202297D01*
X116769901Y-55220544D01*
X117009142Y-55380400D01*
X117212600Y-55583858D01*
X117212601Y-55583860D01*
X117372457Y-55823101D01*
X117482567Y-56088930D01*
X117538700Y-56371132D01*
X117538700Y-56658868D01*
X117482567Y-56941070D01*
X117372457Y-57206899D01*
X117372456Y-57206901D01*
X117212600Y-57446142D01*
X117009142Y-57649600D01*
X116769901Y-57809456D01*
X116769900Y-57809457D01*
X116769899Y-57809457D01*
X116504070Y-57919567D01*
X116221868Y-57975700D01*
X115934132Y-57975700D01*
X115651930Y-57919567D01*
X115386101Y-57809457D01*
X115386100Y-57809457D01*
X115386099Y-57809456D01*
X115146858Y-57649600D01*
X114943400Y-57446142D01*
X114783544Y-57206901D01*
X114783543Y-57206899D01*
X114673433Y-56941070D01*
X114617300Y-56658868D01*
X114617300Y-56371132D01*
X114673433Y-56088930D01*
X114783543Y-55823101D01*
X114943399Y-55583860D01*
X114943400Y-55583858D01*
X115146858Y-55380400D01*
X115386099Y-55220544D01*
X115430151Y-55202297D01*
X115651930Y-55110433D01*
X115934132Y-55054300D01*
X116221868Y-55054300D01*
X116504070Y-55110433D01*
X116504070Y-55110433D01*
G37*
G36*
X213821908Y-51450380D02*
G01*
X213988767Y-51483570D01*
X214460299Y-51678885D01*
X214703029Y-51841073D01*
X214884666Y-51962438D01*
X215245562Y-52323334D01*
X215366927Y-52504971D01*
X215529115Y-52747701D01*
X215724430Y-53219233D01*
X215824000Y-53719809D01*
X215824000Y-54230191D01*
X215724430Y-54730767D01*
X215529115Y-55202299D01*
X215410112Y-55380399D01*
X215245562Y-55626666D01*
X214884666Y-55987562D01*
X214732959Y-56088929D01*
X214460299Y-56271115D01*
X213988767Y-56466430D01*
X213821908Y-56499620D01*
X213488193Y-56566000D01*
X212977807Y-56566000D01*
X212644092Y-56499620D01*
X212477233Y-56466430D01*
X212005701Y-56271115D01*
X211733041Y-56088929D01*
X211581334Y-55987562D01*
X211220438Y-55626666D01*
X211055888Y-55380399D01*
X210936885Y-55202299D01*
X210741570Y-54730767D01*
X210642000Y-54230191D01*
X210642000Y-53719809D01*
X210741570Y-53219233D01*
X210936885Y-52747701D01*
X211099073Y-52504971D01*
X211220438Y-52323334D01*
X211581334Y-51962438D01*
X211762971Y-51841073D01*
X212005701Y-51678885D01*
X212477233Y-51483570D01*
X212644092Y-51450380D01*
X212977807Y-51384000D01*
X213488193Y-51384000D01*
X213821908Y-51450380D01*
X213821908Y-51450380D01*
G37*
G36*
X221695908Y-51450380D02*
G01*
X221862767Y-51483570D01*
X222334299Y-51678885D01*
X222577029Y-51841073D01*
X222758666Y-51962438D01*
X223119562Y-52323334D01*
X223240927Y-52504971D01*
X223403115Y-52747701D01*
X223598430Y-53219233D01*
X223698000Y-53719809D01*
X223698000Y-54230191D01*
X223598430Y-54730767D01*
X223403115Y-55202299D01*
X223284112Y-55380399D01*
X223119562Y-55626666D01*
X222758666Y-55987562D01*
X222606959Y-56088929D01*
X222334299Y-56271115D01*
X221862767Y-56466430D01*
X221695908Y-56499620D01*
X221362193Y-56566000D01*
X220851807Y-56566000D01*
X220518092Y-56499620D01*
X220351233Y-56466430D01*
X219879701Y-56271115D01*
X219607041Y-56088929D01*
X219455334Y-55987562D01*
X219094438Y-55626666D01*
X218929888Y-55380399D01*
X218810885Y-55202299D01*
X218615570Y-54730767D01*
X218516000Y-54230191D01*
X218516000Y-53719809D01*
X218615570Y-53219233D01*
X218810885Y-52747701D01*
X218973073Y-52504971D01*
X219094438Y-52323334D01*
X219455334Y-51962438D01*
X219636971Y-51841073D01*
X219879701Y-51678885D01*
X220351233Y-51483570D01*
X220518092Y-51450380D01*
X220851807Y-51384000D01*
X221362193Y-51384000D01*
X221695908Y-51450380D01*
X221695908Y-51450380D01*
G37*
G36*
X224073070Y-45458433D02*
G01*
X224338899Y-45568543D01*
X224338901Y-45568544D01*
X224578142Y-45728400D01*
X224781600Y-45931858D01*
X224781601Y-45931860D01*
X224941457Y-46171101D01*
X225051567Y-46436930D01*
X225107700Y-46719132D01*
X225107700Y-47006868D01*
X225051567Y-47289070D01*
X224941457Y-47554899D01*
X224941456Y-47554901D01*
X224781600Y-47794142D01*
X224578142Y-47997600D01*
X224338901Y-48157456D01*
X224338900Y-48157457D01*
X224338899Y-48157457D01*
X224073070Y-48267567D01*
X223790868Y-48323700D01*
X223503132Y-48323700D01*
X223220930Y-48267567D01*
X222955101Y-48157457D01*
X222955100Y-48157457D01*
X222955099Y-48157456D01*
X222715858Y-47997600D01*
X222512400Y-47794142D01*
X222352544Y-47554901D01*
X222352543Y-47554899D01*
X222242433Y-47289070D01*
X222186300Y-47006868D01*
X222186300Y-46719132D01*
X222242433Y-46436930D01*
X222352543Y-46171101D01*
X222512399Y-45931860D01*
X222512400Y-45931858D01*
X222715858Y-45728400D01*
X222955099Y-45568544D01*
X222955101Y-45568543D01*
X223220930Y-45458433D01*
X223503132Y-45402300D01*
X223790868Y-45402300D01*
X224073070Y-45458433D01*
X224073070Y-45458433D01*
G37*
G36*
X210611070Y-45458433D02*
G01*
X210876899Y-45568543D01*
X210876901Y-45568544D01*
X211116142Y-45728400D01*
X211319600Y-45931858D01*
X211319601Y-45931860D01*
X211479457Y-46171101D01*
X211589567Y-46436930D01*
X211645700Y-46719132D01*
X211645700Y-47006868D01*
X211589567Y-47289070D01*
X211479457Y-47554899D01*
X211479456Y-47554901D01*
X211319600Y-47794142D01*
X211116142Y-47997600D01*
X210876901Y-48157456D01*
X210876900Y-48157457D01*
X210876899Y-48157457D01*
X210611070Y-48267567D01*
X210328868Y-48323700D01*
X210041132Y-48323700D01*
X209758930Y-48267567D01*
X209493101Y-48157457D01*
X209493100Y-48157457D01*
X209493099Y-48157456D01*
X209253858Y-47997600D01*
X209050400Y-47794142D01*
X208890544Y-47554901D01*
X208890543Y-47554899D01*
X208780433Y-47289070D01*
X208724300Y-47006868D01*
X208724300Y-46719132D01*
X208780433Y-46436930D01*
X208890543Y-46171101D01*
X209050399Y-45931860D01*
X209050400Y-45931858D01*
X209253858Y-45728400D01*
X209493099Y-45568544D01*
X209493101Y-45568543D01*
X209758930Y-45458433D01*
X210041132Y-45402300D01*
X210328868Y-45402300D01*
X210611070Y-45458433D01*
X210611070Y-45458433D01*
G37*
G36*
X120603908Y-41925380D02*
G01*
X120770767Y-41958570D01*
X121242299Y-42153885D01*
X121460075Y-42299399D01*
X121666666Y-42437438D01*
X122027562Y-42798334D01*
X122127630Y-42948097D01*
X122311115Y-43222701D01*
X122458229Y-43577866D01*
X122506430Y-43694234D01*
X122606000Y-44194807D01*
X122606000Y-44705193D01*
X122579470Y-44838567D01*
X122506430Y-45205767D01*
X122311115Y-45677299D01*
X122148927Y-45920029D01*
X122027562Y-46101666D01*
X121666666Y-46462562D01*
X121485029Y-46583927D01*
X121242299Y-46746115D01*
X120770767Y-46941430D01*
X120603908Y-46974620D01*
X120270193Y-47041000D01*
X119759807Y-47041000D01*
X119426092Y-46974620D01*
X119259233Y-46941430D01*
X118787701Y-46746115D01*
X118544971Y-46583927D01*
X118363334Y-46462562D01*
X118002438Y-46101666D01*
X117881073Y-45920029D01*
X117718885Y-45677299D01*
X117523570Y-45205767D01*
X117450530Y-44838567D01*
X117424000Y-44705193D01*
X117424000Y-44194807D01*
X117523570Y-43694234D01*
X117571771Y-43577866D01*
X117718885Y-43222701D01*
X117902370Y-42948097D01*
X118002438Y-42798334D01*
X118363334Y-42437438D01*
X118569925Y-42299399D01*
X118787701Y-42153885D01*
X119259233Y-41958570D01*
X119426092Y-41925380D01*
X119759807Y-41859000D01*
X120270193Y-41859000D01*
X120603908Y-41925380D01*
X120603908Y-41925380D01*
G37*
G36*
X112729908Y-41925380D02*
G01*
X112896767Y-41958570D01*
X113368299Y-42153885D01*
X113586075Y-42299399D01*
X113792666Y-42437438D01*
X114153562Y-42798334D01*
X114253630Y-42948097D01*
X114437115Y-43222701D01*
X114584229Y-43577866D01*
X114632430Y-43694234D01*
X114732000Y-44194807D01*
X114732000Y-44705193D01*
X114705470Y-44838567D01*
X114632430Y-45205767D01*
X114437115Y-45677299D01*
X114274927Y-45920029D01*
X114153562Y-46101666D01*
X113792666Y-46462562D01*
X113611029Y-46583927D01*
X113368299Y-46746115D01*
X112896767Y-46941430D01*
X112729908Y-46974620D01*
X112396193Y-47041000D01*
X111885807Y-47041000D01*
X111552092Y-46974620D01*
X111385233Y-46941430D01*
X110913701Y-46746115D01*
X110670971Y-46583927D01*
X110489334Y-46462562D01*
X110128438Y-46101666D01*
X110007073Y-45920029D01*
X109844885Y-45677299D01*
X109649570Y-45205767D01*
X109576530Y-44838567D01*
X109550000Y-44705193D01*
X109550000Y-44194807D01*
X109649570Y-43694234D01*
X109697771Y-43577866D01*
X109844885Y-43222701D01*
X110028370Y-42948097D01*
X110128438Y-42798334D01*
X110489334Y-42437438D01*
X110695925Y-42299399D01*
X110913701Y-42153885D01*
X111385233Y-41958570D01*
X111552092Y-41925380D01*
X111885807Y-41859000D01*
X112396193Y-41859000D01*
X112729908Y-41925380D01*
X112729908Y-41925380D01*
G37*
G36*
X224073070Y-42029433D02*
G01*
X224338899Y-42139543D01*
X224338901Y-42139544D01*
X224578142Y-42299400D01*
X224781600Y-42502858D01*
X224941456Y-42742099D01*
X224941457Y-42742101D01*
X225051567Y-43007930D01*
X225107700Y-43290132D01*
X225107700Y-43577868D01*
X225051567Y-43860070D01*
X224941457Y-44125899D01*
X224941456Y-44125901D01*
X224781600Y-44365142D01*
X224578142Y-44568600D01*
X224338901Y-44728456D01*
X224338900Y-44728457D01*
X224338899Y-44728457D01*
X224073070Y-44838567D01*
X223790868Y-44894700D01*
X223503132Y-44894700D01*
X223220930Y-44838567D01*
X222955101Y-44728457D01*
X222955100Y-44728457D01*
X222955099Y-44728456D01*
X222715858Y-44568600D01*
X222512400Y-44365142D01*
X222352544Y-44125901D01*
X222352543Y-44125899D01*
X222242433Y-43860070D01*
X222186300Y-43577868D01*
X222186300Y-43290132D01*
X222242433Y-43007930D01*
X222352543Y-42742101D01*
X222352544Y-42742099D01*
X222512400Y-42502858D01*
X222715858Y-42299400D01*
X222955099Y-42139544D01*
X222955101Y-42139543D01*
X223220930Y-42029433D01*
X223503132Y-41973300D01*
X223790868Y-41973300D01*
X224073070Y-42029433D01*
X224073070Y-42029433D01*
G37*
G36*
X210611070Y-42029433D02*
G01*
X210876899Y-42139543D01*
X210876901Y-42139544D01*
X211116142Y-42299400D01*
X211319600Y-42502858D01*
X211479456Y-42742099D01*
X211479457Y-42742101D01*
X211589567Y-43007930D01*
X211645700Y-43290132D01*
X211645700Y-43577868D01*
X211589567Y-43860070D01*
X211479457Y-44125899D01*
X211479456Y-44125901D01*
X211319600Y-44365142D01*
X211116142Y-44568600D01*
X210876901Y-44728456D01*
X210876900Y-44728457D01*
X210876899Y-44728457D01*
X210611070Y-44838567D01*
X210328868Y-44894700D01*
X210041132Y-44894700D01*
X209758930Y-44838567D01*
X209493101Y-44728457D01*
X209493100Y-44728457D01*
X209493099Y-44728456D01*
X209253858Y-44568600D01*
X209050400Y-44365142D01*
X208890544Y-44125901D01*
X208890543Y-44125899D01*
X208780433Y-43860070D01*
X208724300Y-43577868D01*
X208724300Y-43290132D01*
X208780433Y-43007930D01*
X208890543Y-42742101D01*
X208890544Y-42742099D01*
X209050400Y-42502858D01*
X209253858Y-42299400D01*
X209493099Y-42139544D01*
X209493101Y-42139543D01*
X209758930Y-42029433D01*
X210041132Y-41973300D01*
X210328868Y-41973300D01*
X210611070Y-42029433D01*
X210611070Y-42029433D01*
G37*
G36*
X171666000Y-43396000D02*
G01*
X169964000Y-43396000D01*
X169964000Y-41694000D01*
X171666000Y-41694000D01*
X171666000Y-43396000D01*
X171666000Y-43396000D01*
G37*
G36*
X173563228Y-41726703D02*
G01*
X173718100Y-41790853D01*
X173857481Y-41883985D01*
X173976015Y-42002519D01*
X174069147Y-42141900D01*
X174133297Y-42296772D01*
X174166000Y-42461184D01*
X174166000Y-42628816D01*
X174133297Y-42793228D01*
X174069147Y-42948100D01*
X173976015Y-43087481D01*
X173857481Y-43206015D01*
X173718100Y-43299147D01*
X173563228Y-43363297D01*
X173398816Y-43396000D01*
X173231184Y-43396000D01*
X173066772Y-43363297D01*
X172911900Y-43299147D01*
X172772519Y-43206015D01*
X172653985Y-43087481D01*
X172560853Y-42948100D01*
X172496703Y-42793228D01*
X172464000Y-42628816D01*
X172464000Y-42461184D01*
X172496703Y-42296772D01*
X172560853Y-42141900D01*
X172653985Y-42002519D01*
X172772519Y-41883985D01*
X172911900Y-41790853D01*
X173066772Y-41726703D01*
X173231184Y-41694000D01*
X173398816Y-41694000D01*
X173563228Y-41726703D01*
X173563228Y-41726703D01*
G37*
G36*
X157601228Y-36606703D02*
G01*
X157756100Y-36670853D01*
X157895481Y-36763985D01*
X158014015Y-36882519D01*
X158107147Y-37021900D01*
X158171297Y-37176772D01*
X158204000Y-37341184D01*
X158204000Y-37508816D01*
X158171297Y-37673228D01*
X158107147Y-37828100D01*
X158014015Y-37967481D01*
X157895481Y-38086015D01*
X157756100Y-38179147D01*
X157601228Y-38243297D01*
X157436816Y-38276000D01*
X157269184Y-38276000D01*
X157104772Y-38243297D01*
X156949900Y-38179147D01*
X156810519Y-38086015D01*
X156691985Y-37967481D01*
X156598853Y-37828100D01*
X156534703Y-37673228D01*
X156502000Y-37508816D01*
X156502000Y-37341184D01*
X156534703Y-37176772D01*
X156598853Y-37021900D01*
X156691985Y-36882519D01*
X156810519Y-36763985D01*
X156949900Y-36670853D01*
X157104772Y-36606703D01*
X157269184Y-36574000D01*
X157436816Y-36574000D01*
X157601228Y-36606703D01*
X157601228Y-36606703D01*
G37*
G36*
X235684237Y-32993207D02*
G01*
X235831473Y-33022494D01*
X236108859Y-33137391D01*
X236358501Y-33304197D01*
X236570803Y-33516499D01*
X236737609Y-33766141D01*
X236852506Y-34043527D01*
X236872341Y-34143243D01*
X236904886Y-34306857D01*
X236911080Y-34337999D01*
X236911080Y-34638241D01*
X236852506Y-34932713D01*
X236737609Y-35210099D01*
X236626153Y-35376904D01*
X236581818Y-35443257D01*
X236570803Y-35459741D01*
X236358501Y-35672043D01*
X236108859Y-35838849D01*
X235831473Y-35953746D01*
X235684237Y-35983033D01*
X235537002Y-36012320D01*
X235236758Y-36012320D01*
X235089523Y-35983033D01*
X234942287Y-35953746D01*
X234664901Y-35838849D01*
X234415259Y-35672043D01*
X234202957Y-35459741D01*
X234191943Y-35443257D01*
X234147607Y-35376904D01*
X234036151Y-35210099D01*
X233921254Y-34932713D01*
X233862680Y-34638241D01*
X233862680Y-34337999D01*
X233868875Y-34306857D01*
X233901419Y-34143243D01*
X233921254Y-34043527D01*
X234036151Y-33766141D01*
X234202957Y-33516499D01*
X234415259Y-33304197D01*
X234664901Y-33137391D01*
X234942287Y-33022494D01*
X235089523Y-32993207D01*
X235236758Y-32963920D01*
X235537002Y-32963920D01*
X235684237Y-32993207D01*
X235684237Y-32993207D01*
G37*
G36*
X98285477Y-32993207D02*
G01*
X98432713Y-33022494D01*
X98710099Y-33137391D01*
X98959741Y-33304197D01*
X99172043Y-33516499D01*
X99338849Y-33766141D01*
X99453746Y-34043527D01*
X99473581Y-34143243D01*
X99506126Y-34306857D01*
X99512320Y-34337999D01*
X99512320Y-34638241D01*
X99453746Y-34932713D01*
X99338849Y-35210099D01*
X99227393Y-35376904D01*
X99183058Y-35443257D01*
X99172043Y-35459741D01*
X98959741Y-35672043D01*
X98710099Y-35838849D01*
X98432713Y-35953746D01*
X98285477Y-35983033D01*
X98138242Y-36012320D01*
X97837998Y-36012320D01*
X97690763Y-35983033D01*
X97543527Y-35953746D01*
X97266141Y-35838849D01*
X97016499Y-35672043D01*
X96804197Y-35459741D01*
X96793183Y-35443257D01*
X96748847Y-35376904D01*
X96637391Y-35210099D01*
X96522494Y-34932713D01*
X96463920Y-34638241D01*
X96463920Y-34337999D01*
X96470115Y-34306857D01*
X96502659Y-34143243D01*
X96522494Y-34043527D01*
X96637391Y-33766141D01*
X96804197Y-33516499D01*
X97016499Y-33304197D01*
X97266141Y-33137391D01*
X97543527Y-33022494D01*
X97690763Y-32993207D01*
X97837998Y-32963920D01*
X98138242Y-32963920D01*
X98285477Y-32993207D01*
X98285477Y-32993207D01*
G37*
G36*
X158204000Y-35776000D02*
G01*
X156502000Y-35776000D01*
X156502000Y-34074000D01*
X158204000Y-34074000D01*
X158204000Y-35776000D01*
X158204000Y-35776000D01*
G37*
G36*
X167242142Y-34143242D02*
G01*
X167390101Y-34204529D01*
X167523255Y-34293499D01*
X167636501Y-34406745D01*
X167725471Y-34539899D01*
X167786758Y-34687858D01*
X167818000Y-34844925D01*
X167818000Y-35005075D01*
X167786758Y-35162142D01*
X167725471Y-35310101D01*
X167636501Y-35443255D01*
X167523255Y-35556501D01*
X167390101Y-35645471D01*
X167242142Y-35706758D01*
X167085075Y-35738000D01*
X166924925Y-35738000D01*
X166767858Y-35706758D01*
X166619899Y-35645471D01*
X166486745Y-35556501D01*
X166373499Y-35443255D01*
X166284529Y-35310101D01*
X166223242Y-35162142D01*
X166192000Y-35005075D01*
X166192000Y-34844925D01*
X166223242Y-34687858D01*
X166284529Y-34539899D01*
X166373499Y-34406745D01*
X166486745Y-34293499D01*
X166619899Y-34204529D01*
X166767858Y-34143242D01*
X166924925Y-34112000D01*
X167085075Y-34112000D01*
X167242142Y-34143242D01*
X167242142Y-34143242D01*
G37*
G36*
X164702142Y-34143242D02*
G01*
X164850101Y-34204529D01*
X164983255Y-34293499D01*
X165096501Y-34406745D01*
X165185471Y-34539899D01*
X165246758Y-34687858D01*
X165278000Y-34844925D01*
X165278000Y-35005075D01*
X165246758Y-35162142D01*
X165185471Y-35310101D01*
X165096501Y-35443255D01*
X164983255Y-35556501D01*
X164850101Y-35645471D01*
X164702142Y-35706758D01*
X164545075Y-35738000D01*
X164384925Y-35738000D01*
X164227858Y-35706758D01*
X164079899Y-35645471D01*
X163946745Y-35556501D01*
X163833499Y-35443255D01*
X163744529Y-35310101D01*
X163683242Y-35162142D01*
X163652000Y-35005075D01*
X163652000Y-34844925D01*
X163683242Y-34687858D01*
X163744529Y-34539899D01*
X163833499Y-34406745D01*
X163946745Y-34293499D01*
X164079899Y-34204529D01*
X164227858Y-34143242D01*
X164384925Y-34112000D01*
X164545075Y-34112000D01*
X164702142Y-34143242D01*
X164702142Y-34143242D01*
G37*
G36*
X225281142Y-33762242D02*
G01*
X225429101Y-33823529D01*
X225562255Y-33912499D01*
X225675501Y-34025745D01*
X225764471Y-34158899D01*
X225825758Y-34306858D01*
X225857000Y-34463925D01*
X225857000Y-34624075D01*
X225825758Y-34781142D01*
X225764471Y-34929101D01*
X225675501Y-35062255D01*
X225562255Y-35175501D01*
X225429101Y-35264471D01*
X225281142Y-35325758D01*
X225124075Y-35357000D01*
X224963925Y-35357000D01*
X224806858Y-35325758D01*
X224658899Y-35264471D01*
X224525745Y-35175501D01*
X224412499Y-35062255D01*
X224323529Y-34929101D01*
X224262242Y-34781142D01*
X224231000Y-34624075D01*
X224231000Y-34463925D01*
X224262242Y-34306858D01*
X224323529Y-34158899D01*
X224412499Y-34025745D01*
X224525745Y-33912499D01*
X224658899Y-33823529D01*
X224806858Y-33762242D01*
X224963925Y-33731000D01*
X225124075Y-33731000D01*
X225281142Y-33762242D01*
X225281142Y-33762242D01*
G37*
G36*
X227821142Y-33762242D02*
G01*
X227969101Y-33823529D01*
X228102255Y-33912499D01*
X228215501Y-34025745D01*
X228304471Y-34158899D01*
X228365758Y-34306858D01*
X228397000Y-34463925D01*
X228397000Y-34624075D01*
X228365758Y-34781142D01*
X228304471Y-34929101D01*
X228215501Y-35062255D01*
X228102255Y-35175501D01*
X227969101Y-35264471D01*
X227821142Y-35325758D01*
X227664075Y-35357000D01*
X227503925Y-35357000D01*
X227346858Y-35325758D01*
X227198899Y-35264471D01*
X227065745Y-35175501D01*
X226952499Y-35062255D01*
X226863529Y-34929101D01*
X226802242Y-34781142D01*
X226771000Y-34624075D01*
X226771000Y-34463925D01*
X226802242Y-34306858D01*
X226863529Y-34158899D01*
X226952499Y-34025745D01*
X227065745Y-33912499D01*
X227198899Y-33823529D01*
X227346858Y-33762242D01*
X227503925Y-33731000D01*
X227664075Y-33731000D01*
X227821142Y-33762242D01*
X227821142Y-33762242D01*
G37*
G36*
X210041142Y-33762242D02*
G01*
X210189101Y-33823529D01*
X210322255Y-33912499D01*
X210435501Y-34025745D01*
X210524471Y-34158899D01*
X210585758Y-34306858D01*
X210617000Y-34463925D01*
X210617000Y-34624075D01*
X210585758Y-34781142D01*
X210524471Y-34929101D01*
X210435501Y-35062255D01*
X210322255Y-35175501D01*
X210189101Y-35264471D01*
X210041142Y-35325758D01*
X209884075Y-35357000D01*
X209723925Y-35357000D01*
X209566858Y-35325758D01*
X209418899Y-35264471D01*
X209285745Y-35175501D01*
X209172499Y-35062255D01*
X209083529Y-34929101D01*
X209022242Y-34781142D01*
X208991000Y-34624075D01*
X208991000Y-34463925D01*
X209022242Y-34306858D01*
X209083529Y-34158899D01*
X209172499Y-34025745D01*
X209285745Y-33912499D01*
X209418899Y-33823529D01*
X209566858Y-33762242D01*
X209723925Y-33731000D01*
X209884075Y-33731000D01*
X210041142Y-33762242D01*
X210041142Y-33762242D01*
G37*
G36*
X212581142Y-33762242D02*
G01*
X212729101Y-33823529D01*
X212862255Y-33912499D01*
X212975501Y-34025745D01*
X213064471Y-34158899D01*
X213125758Y-34306858D01*
X213157000Y-34463925D01*
X213157000Y-34624075D01*
X213125758Y-34781142D01*
X213064471Y-34929101D01*
X212975501Y-35062255D01*
X212862255Y-35175501D01*
X212729101Y-35264471D01*
X212581142Y-35325758D01*
X212424075Y-35357000D01*
X212263925Y-35357000D01*
X212106858Y-35325758D01*
X211958899Y-35264471D01*
X211825745Y-35175501D01*
X211712499Y-35062255D01*
X211623529Y-34929101D01*
X211562242Y-34781142D01*
X211531000Y-34624075D01*
X211531000Y-34463925D01*
X211562242Y-34306858D01*
X211623529Y-34158899D01*
X211712499Y-34025745D01*
X211825745Y-33912499D01*
X211958899Y-33823529D01*
X212106858Y-33762242D01*
X212263925Y-33731000D01*
X212424075Y-33731000D01*
X212581142Y-33762242D01*
X212581142Y-33762242D01*
G37*
G36*
X217661142Y-33762242D02*
G01*
X217809101Y-33823529D01*
X217942255Y-33912499D01*
X218055501Y-34025745D01*
X218144471Y-34158899D01*
X218205758Y-34306858D01*
X218237000Y-34463925D01*
X218237000Y-34624075D01*
X218205758Y-34781142D01*
X218144471Y-34929101D01*
X218055501Y-35062255D01*
X217942255Y-35175501D01*
X217809101Y-35264471D01*
X217661142Y-35325758D01*
X217504075Y-35357000D01*
X217343925Y-35357000D01*
X217186858Y-35325758D01*
X217038899Y-35264471D01*
X216905745Y-35175501D01*
X216792499Y-35062255D01*
X216703529Y-34929101D01*
X216642242Y-34781142D01*
X216611000Y-34624075D01*
X216611000Y-34463925D01*
X216642242Y-34306858D01*
X216703529Y-34158899D01*
X216792499Y-34025745D01*
X216905745Y-33912499D01*
X217038899Y-33823529D01*
X217186858Y-33762242D01*
X217343925Y-33731000D01*
X217504075Y-33731000D01*
X217661142Y-33762242D01*
X217661142Y-33762242D01*
G37*
G36*
X220201142Y-33762242D02*
G01*
X220349101Y-33823529D01*
X220482255Y-33912499D01*
X220595501Y-34025745D01*
X220684471Y-34158899D01*
X220745758Y-34306858D01*
X220777000Y-34463925D01*
X220777000Y-34624075D01*
X220745758Y-34781142D01*
X220684471Y-34929101D01*
X220595501Y-35062255D01*
X220482255Y-35175501D01*
X220349101Y-35264471D01*
X220201142Y-35325758D01*
X220044075Y-35357000D01*
X219883925Y-35357000D01*
X219726858Y-35325758D01*
X219578899Y-35264471D01*
X219445745Y-35175501D01*
X219332499Y-35062255D01*
X219243529Y-34929101D01*
X219182242Y-34781142D01*
X219151000Y-34624075D01*
X219151000Y-34463925D01*
X219182242Y-34306858D01*
X219243529Y-34158899D01*
X219332499Y-34025745D01*
X219445745Y-33912499D01*
X219578899Y-33823529D01*
X219726858Y-33762242D01*
X219883925Y-33731000D01*
X220044075Y-33731000D01*
X220201142Y-33762242D01*
X220201142Y-33762242D01*
G37*
G36*
X222741142Y-33762242D02*
G01*
X222889101Y-33823529D01*
X223022255Y-33912499D01*
X223135501Y-34025745D01*
X223224471Y-34158899D01*
X223285758Y-34306858D01*
X223317000Y-34463925D01*
X223317000Y-34624075D01*
X223285758Y-34781142D01*
X223224471Y-34929101D01*
X223135501Y-35062255D01*
X223022255Y-35175501D01*
X222889101Y-35264471D01*
X222741142Y-35325758D01*
X222584075Y-35357000D01*
X222423925Y-35357000D01*
X222266858Y-35325758D01*
X222118899Y-35264471D01*
X221985745Y-35175501D01*
X221872499Y-35062255D01*
X221783529Y-34929101D01*
X221722242Y-34781142D01*
X221691000Y-34624075D01*
X221691000Y-34463925D01*
X221722242Y-34306858D01*
X221783529Y-34158899D01*
X221872499Y-34025745D01*
X221985745Y-33912499D01*
X222118899Y-33823529D01*
X222266858Y-33762242D01*
X222423925Y-33731000D01*
X222584075Y-33731000D01*
X222741142Y-33762242D01*
X222741142Y-33762242D01*
G37*
G36*
X121776142Y-33762242D02*
G01*
X121924101Y-33823529D01*
X122057255Y-33912499D01*
X122170501Y-34025745D01*
X122259471Y-34158899D01*
X122320758Y-34306858D01*
X122352000Y-34463925D01*
X122352000Y-34624075D01*
X122320758Y-34781142D01*
X122259471Y-34929101D01*
X122170501Y-35062255D01*
X122057255Y-35175501D01*
X121924101Y-35264471D01*
X121776142Y-35325758D01*
X121619075Y-35357000D01*
X121458925Y-35357000D01*
X121301858Y-35325758D01*
X121153899Y-35264471D01*
X121020745Y-35175501D01*
X120907499Y-35062255D01*
X120818529Y-34929101D01*
X120757242Y-34781142D01*
X120726000Y-34624075D01*
X120726000Y-34463925D01*
X120757242Y-34306858D01*
X120818529Y-34158899D01*
X120907499Y-34025745D01*
X121020745Y-33912499D01*
X121153899Y-33823529D01*
X121301858Y-33762242D01*
X121458925Y-33731000D01*
X121619075Y-33731000D01*
X121776142Y-33762242D01*
X121776142Y-33762242D01*
G37*
G36*
X119236142Y-33762242D02*
G01*
X119384101Y-33823529D01*
X119517255Y-33912499D01*
X119630501Y-34025745D01*
X119719471Y-34158899D01*
X119780758Y-34306858D01*
X119812000Y-34463925D01*
X119812000Y-34624075D01*
X119780758Y-34781142D01*
X119719471Y-34929101D01*
X119630501Y-35062255D01*
X119517255Y-35175501D01*
X119384101Y-35264471D01*
X119236142Y-35325758D01*
X119079075Y-35357000D01*
X118918925Y-35357000D01*
X118761858Y-35325758D01*
X118613899Y-35264471D01*
X118480745Y-35175501D01*
X118367499Y-35062255D01*
X118278529Y-34929101D01*
X118217242Y-34781142D01*
X118186000Y-34624075D01*
X118186000Y-34463925D01*
X118217242Y-34306858D01*
X118278529Y-34158899D01*
X118367499Y-34025745D01*
X118480745Y-33912499D01*
X118613899Y-33823529D01*
X118761858Y-33762242D01*
X118918925Y-33731000D01*
X119079075Y-33731000D01*
X119236142Y-33762242D01*
X119236142Y-33762242D01*
G37*
G36*
X215121142Y-33762242D02*
G01*
X215269101Y-33823529D01*
X215402255Y-33912499D01*
X215515501Y-34025745D01*
X215604471Y-34158899D01*
X215665758Y-34306858D01*
X215697000Y-34463925D01*
X215697000Y-34624075D01*
X215665758Y-34781142D01*
X215604471Y-34929101D01*
X215515501Y-35062255D01*
X215402255Y-35175501D01*
X215269101Y-35264471D01*
X215121142Y-35325758D01*
X214964075Y-35357000D01*
X214803925Y-35357000D01*
X214646858Y-35325758D01*
X214498899Y-35264471D01*
X214365745Y-35175501D01*
X214252499Y-35062255D01*
X214163529Y-34929101D01*
X214102242Y-34781142D01*
X214071000Y-34624075D01*
X214071000Y-34463925D01*
X214102242Y-34306858D01*
X214163529Y-34158899D01*
X214252499Y-34025745D01*
X214365745Y-33912499D01*
X214498899Y-33823529D01*
X214646858Y-33762242D01*
X214803925Y-33731000D01*
X214964075Y-33731000D01*
X215121142Y-33762242D01*
X215121142Y-33762242D01*
G37*
G36*
X116696142Y-33762242D02*
G01*
X116844101Y-33823529D01*
X116977255Y-33912499D01*
X117090501Y-34025745D01*
X117179471Y-34158899D01*
X117240758Y-34306858D01*
X117272000Y-34463925D01*
X117272000Y-34624075D01*
X117240758Y-34781142D01*
X117179471Y-34929101D01*
X117090501Y-35062255D01*
X116977255Y-35175501D01*
X116844101Y-35264471D01*
X116696142Y-35325758D01*
X116539075Y-35357000D01*
X116378925Y-35357000D01*
X116221858Y-35325758D01*
X116073899Y-35264471D01*
X115940745Y-35175501D01*
X115827499Y-35062255D01*
X115738529Y-34929101D01*
X115677242Y-34781142D01*
X115646000Y-34624075D01*
X115646000Y-34463925D01*
X115677242Y-34306858D01*
X115738529Y-34158899D01*
X115827499Y-34025745D01*
X115940745Y-33912499D01*
X116073899Y-33823529D01*
X116221858Y-33762242D01*
X116378925Y-33731000D01*
X116539075Y-33731000D01*
X116696142Y-33762242D01*
X116696142Y-33762242D01*
G37*
G36*
X114156142Y-33762242D02*
G01*
X114304101Y-33823529D01*
X114437255Y-33912499D01*
X114550501Y-34025745D01*
X114639471Y-34158899D01*
X114700758Y-34306858D01*
X114732000Y-34463925D01*
X114732000Y-34624075D01*
X114700758Y-34781142D01*
X114639471Y-34929101D01*
X114550501Y-35062255D01*
X114437255Y-35175501D01*
X114304101Y-35264471D01*
X114156142Y-35325758D01*
X113999075Y-35357000D01*
X113838925Y-35357000D01*
X113681858Y-35325758D01*
X113533899Y-35264471D01*
X113400745Y-35175501D01*
X113287499Y-35062255D01*
X113198529Y-34929101D01*
X113137242Y-34781142D01*
X113106000Y-34624075D01*
X113106000Y-34463925D01*
X113137242Y-34306858D01*
X113198529Y-34158899D01*
X113287499Y-34025745D01*
X113400745Y-33912499D01*
X113533899Y-33823529D01*
X113681858Y-33762242D01*
X113838925Y-33731000D01*
X113999075Y-33731000D01*
X114156142Y-33762242D01*
X114156142Y-33762242D01*
G37*
G36*
X111616142Y-33762242D02*
G01*
X111764101Y-33823529D01*
X111897255Y-33912499D01*
X112010501Y-34025745D01*
X112099471Y-34158899D01*
X112160758Y-34306858D01*
X112192000Y-34463925D01*
X112192000Y-34624075D01*
X112160758Y-34781142D01*
X112099471Y-34929101D01*
X112010501Y-35062255D01*
X111897255Y-35175501D01*
X111764101Y-35264471D01*
X111616142Y-35325758D01*
X111459075Y-35357000D01*
X111298925Y-35357000D01*
X111141858Y-35325758D01*
X110993899Y-35264471D01*
X110860745Y-35175501D01*
X110747499Y-35062255D01*
X110658529Y-34929101D01*
X110597242Y-34781142D01*
X110566000Y-34624075D01*
X110566000Y-34463925D01*
X110597242Y-34306858D01*
X110658529Y-34158899D01*
X110747499Y-34025745D01*
X110860745Y-33912499D01*
X110993899Y-33823529D01*
X111141858Y-33762242D01*
X111298925Y-33731000D01*
X111459075Y-33731000D01*
X111616142Y-33762242D01*
X111616142Y-33762242D01*
G37*
G36*
X109076142Y-33762242D02*
G01*
X109224101Y-33823529D01*
X109357255Y-33912499D01*
X109470501Y-34025745D01*
X109559471Y-34158899D01*
X109620758Y-34306858D01*
X109652000Y-34463925D01*
X109652000Y-34624075D01*
X109620758Y-34781142D01*
X109559471Y-34929101D01*
X109470501Y-35062255D01*
X109357255Y-35175501D01*
X109224101Y-35264471D01*
X109076142Y-35325758D01*
X108919075Y-35357000D01*
X108758925Y-35357000D01*
X108601858Y-35325758D01*
X108453899Y-35264471D01*
X108320745Y-35175501D01*
X108207499Y-35062255D01*
X108118529Y-34929101D01*
X108057242Y-34781142D01*
X108026000Y-34624075D01*
X108026000Y-34463925D01*
X108057242Y-34306858D01*
X108118529Y-34158899D01*
X108207499Y-34025745D01*
X108320745Y-33912499D01*
X108453899Y-33823529D01*
X108601858Y-33762242D01*
X108758925Y-33731000D01*
X108919075Y-33731000D01*
X109076142Y-33762242D01*
X109076142Y-33762242D01*
G37*
G36*
X106536142Y-33762242D02*
G01*
X106684101Y-33823529D01*
X106817255Y-33912499D01*
X106930501Y-34025745D01*
X107019471Y-34158899D01*
X107080758Y-34306858D01*
X107112000Y-34463925D01*
X107112000Y-34624075D01*
X107080758Y-34781142D01*
X107019471Y-34929101D01*
X106930501Y-35062255D01*
X106817255Y-35175501D01*
X106684101Y-35264471D01*
X106536142Y-35325758D01*
X106379075Y-35357000D01*
X106218925Y-35357000D01*
X106061858Y-35325758D01*
X105913899Y-35264471D01*
X105780745Y-35175501D01*
X105667499Y-35062255D01*
X105578529Y-34929101D01*
X105517242Y-34781142D01*
X105486000Y-34624075D01*
X105486000Y-34463925D01*
X105517242Y-34306858D01*
X105578529Y-34158899D01*
X105667499Y-34025745D01*
X105780745Y-33912499D01*
X105913899Y-33823529D01*
X106061858Y-33762242D01*
X106218925Y-33731000D01*
X106379075Y-33731000D01*
X106536142Y-33762242D01*
X106536142Y-33762242D01*
G37*
M02*
