G04 #@! TF.GenerationSoftware,KiCad,Pcbnew,(5.1.4)-1*
G04 #@! TF.CreationDate,2019-11-22T18:45:42-06:00*
G04 #@! TF.ProjectId,PowerBoard_Hardware,506f7765-7242-46f6-9172-645f48617264,rev?*
G04 #@! TF.SameCoordinates,Original*
G04 #@! TF.FileFunction,Copper,L2,Bot*
G04 #@! TF.FilePolarity,Positive*
%FSLAX46Y46*%
G04 Gerber Fmt 4.6, Leading zero omitted, Abs format (unit mm)*
G04 Created by KiCad (PCBNEW (5.1.4)-1) date 2019-11-22 18:45:42*
%MOMM*%
%LPD*%
G04 APERTURE LIST*
%ADD10C,2.819400*%
%ADD11C,1.524000*%
%ADD12C,18.288000*%
%ADD13C,2.400000*%
%ADD14R,2.400000X2.400000*%
%ADD15C,1.600000*%
%ADD16R,1.600000X1.600000*%
%ADD17C,5.080000*%
%ADD18O,3.200000X3.200000*%
%ADD19R,3.200000X3.200000*%
%ADD20C,0.800000*%
%ADD21C,0.762000*%
%ADD22C,0.254000*%
G04 APERTURE END LIST*
D10*
X117729000Y-82931000D03*
X117729000Y-86360000D03*
X104267000Y-86360000D03*
X104267000Y-82931000D03*
X116078000Y-56515000D03*
X116078000Y-59944000D03*
X102616000Y-59944000D03*
X102616000Y-56515000D03*
X115951000Y-109093000D03*
X115951000Y-112522000D03*
X102489000Y-112522000D03*
X102489000Y-109093000D03*
X210185000Y-46863000D03*
X210185000Y-43434000D03*
X223647000Y-43434000D03*
X223647000Y-46863000D03*
X223647000Y-66675000D03*
X223647000Y-63246000D03*
X210185000Y-63246000D03*
X210185000Y-66675000D03*
X223774000Y-86741000D03*
X223774000Y-83312000D03*
X210312000Y-83312000D03*
X210312000Y-86741000D03*
X223774000Y-107061000D03*
X223774000Y-103632000D03*
X210312000Y-103632000D03*
X210312000Y-107061000D03*
D11*
X227584000Y-34544000D03*
X225044000Y-34544000D03*
X222504000Y-34544000D03*
X219964000Y-34544000D03*
X217424000Y-34544000D03*
X214884000Y-34544000D03*
X212344000Y-34544000D03*
X209804000Y-34544000D03*
D12*
X212090000Y-132715000D03*
X140335000Y-133350000D03*
D11*
X175895000Y-62230000D03*
X173355000Y-62230000D03*
X170815000Y-62230000D03*
D13*
X175895000Y-127715000D03*
D14*
X175895000Y-132715000D03*
D15*
X159385000Y-67350000D03*
D16*
X159385000Y-69850000D03*
D15*
X172339000Y-67350000D03*
D16*
X172339000Y-69850000D03*
D14*
X168275000Y-101600000D03*
D13*
X173275000Y-101600000D03*
X173275000Y-116205000D03*
D14*
X168275000Y-116205000D03*
X190500000Y-132715000D03*
D13*
X190500000Y-127715000D03*
D16*
X170815000Y-42545000D03*
D15*
X173315000Y-42545000D03*
X157353000Y-37425000D03*
D16*
X157353000Y-34925000D03*
D17*
X119888000Y-95250000D03*
X112014000Y-95250000D03*
X112014000Y-68580000D03*
X119888000Y-68580000D03*
X120015000Y-44450000D03*
X112141000Y-44450000D03*
X221107000Y-53975000D03*
X213233000Y-53975000D03*
X221107000Y-74676000D03*
X213233000Y-74676000D03*
X213487000Y-94742000D03*
X221361000Y-94742000D03*
X221234000Y-114300000D03*
X213360000Y-114300000D03*
D18*
X173355000Y-83820000D03*
D19*
X168275000Y-83820000D03*
X168275000Y-90805000D03*
D18*
X173355000Y-90805000D03*
D11*
X163830000Y-62230000D03*
X161290000Y-62230000D03*
X158750000Y-62230000D03*
X164465000Y-34925000D03*
X167005000Y-34925000D03*
X106299000Y-34544000D03*
X108839000Y-34544000D03*
X111379000Y-34544000D03*
X113919000Y-34544000D03*
X116459000Y-34544000D03*
X118999000Y-34544000D03*
X121539000Y-34544000D03*
D20*
X184785000Y-42672000D03*
X184785000Y-63246000D03*
X195707000Y-41910000D03*
X199009000Y-44704000D03*
X195707000Y-43434000D03*
X195453000Y-62484000D03*
X195453000Y-64008000D03*
X199009000Y-65024000D03*
X206375000Y-56388000D03*
X206375000Y-58674000D03*
X206629000Y-76708000D03*
X206629000Y-78740000D03*
X184912000Y-83058000D03*
X195453000Y-83312000D03*
X184785000Y-102616000D03*
X195707000Y-103378000D03*
X202565000Y-57912000D03*
X126238000Y-44831000D03*
X144145000Y-60706000D03*
X132588000Y-60452000D03*
X129540000Y-58420000D03*
X202565000Y-78486000D03*
X202551000Y-98298000D03*
X202438000Y-118364000D03*
X126365000Y-71120000D03*
X144018000Y-86868000D03*
X133350000Y-86868000D03*
X129540000Y-84582000D03*
X144018000Y-113284000D03*
X126379000Y-96774000D03*
X167386000Y-58801000D03*
X167386000Y-55245000D03*
X167386000Y-51689000D03*
X167386000Y-48260000D03*
X179578000Y-54610000D03*
X179578000Y-51689000D03*
X179578000Y-48260000D03*
X181610000Y-120015000D03*
X181610000Y-100330000D03*
X181610000Y-60325000D03*
X181610000Y-80518000D03*
X146050000Y-43561000D03*
X146050000Y-69215000D03*
X146050000Y-95250000D03*
D21*
X181610000Y-60325000D02*
X181610000Y-80518000D01*
X181610000Y-80518000D02*
X181610000Y-120015000D01*
X146050000Y-43561000D02*
X146050000Y-59690000D01*
X146050000Y-59690000D02*
X146685000Y-60325000D01*
X146685000Y-60325000D02*
X146050000Y-60960000D01*
X146050000Y-60960000D02*
X146050000Y-62865000D01*
X146050000Y-62865000D02*
X146050000Y-69215000D01*
X146050000Y-69215000D02*
X146050000Y-95250000D01*
X172720000Y-60325000D02*
X181610000Y-60325000D01*
X170815000Y-62230000D02*
X172720000Y-60325000D01*
X168910000Y-60325000D02*
X170815000Y-62230000D01*
X146685000Y-60325000D02*
X168910000Y-60325000D01*
D22*
G36*
X225552000Y-49657000D02*
G01*
X217805000Y-49657000D01*
X217780224Y-49659440D01*
X217756399Y-49666667D01*
X217734443Y-49678403D01*
X217715197Y-49694197D01*
X217699403Y-49713443D01*
X217687667Y-49735399D01*
X217680440Y-49759224D01*
X217678000Y-49784000D01*
X217678000Y-56515000D01*
X215146469Y-56515000D01*
X215256944Y-56441183D01*
X215699183Y-55998944D01*
X216046648Y-55478926D01*
X216285986Y-54901113D01*
X216408000Y-54287710D01*
X216408000Y-53662290D01*
X216285986Y-53048887D01*
X216046648Y-52471074D01*
X215699183Y-51951056D01*
X215256944Y-51508817D01*
X214736926Y-51161352D01*
X214159113Y-50922014D01*
X213545710Y-50800000D01*
X212920290Y-50800000D01*
X212306887Y-50922014D01*
X211729074Y-51161352D01*
X211209056Y-51508817D01*
X210766817Y-51951056D01*
X210419352Y-52471074D01*
X210312000Y-52730245D01*
X210312000Y-49149000D01*
X212217000Y-49149000D01*
X212241776Y-49146560D01*
X212265601Y-49139333D01*
X212287557Y-49127597D01*
X212306803Y-49111803D01*
X212322597Y-49092557D01*
X212334333Y-49070601D01*
X212341560Y-49046776D01*
X212344000Y-49022000D01*
X212344000Y-41021000D01*
X225552000Y-41021000D01*
X225552000Y-49657000D01*
X225552000Y-49657000D01*
G37*
X225552000Y-49657000D02*
X217805000Y-49657000D01*
X217780224Y-49659440D01*
X217756399Y-49666667D01*
X217734443Y-49678403D01*
X217715197Y-49694197D01*
X217699403Y-49713443D01*
X217687667Y-49735399D01*
X217680440Y-49759224D01*
X217678000Y-49784000D01*
X217678000Y-56515000D01*
X215146469Y-56515000D01*
X215256944Y-56441183D01*
X215699183Y-55998944D01*
X216046648Y-55478926D01*
X216285986Y-54901113D01*
X216408000Y-54287710D01*
X216408000Y-53662290D01*
X216285986Y-53048887D01*
X216046648Y-52471074D01*
X215699183Y-51951056D01*
X215256944Y-51508817D01*
X214736926Y-51161352D01*
X214159113Y-50922014D01*
X213545710Y-50800000D01*
X212920290Y-50800000D01*
X212306887Y-50922014D01*
X211729074Y-51161352D01*
X211209056Y-51508817D01*
X210766817Y-51951056D01*
X210419352Y-52471074D01*
X210312000Y-52730245D01*
X210312000Y-49149000D01*
X212217000Y-49149000D01*
X212241776Y-49146560D01*
X212265601Y-49139333D01*
X212287557Y-49127597D01*
X212306803Y-49111803D01*
X212322597Y-49092557D01*
X212334333Y-49070601D01*
X212341560Y-49046776D01*
X212344000Y-49022000D01*
X212344000Y-41021000D01*
X225552000Y-41021000D01*
X225552000Y-49657000D01*
G36*
X225552000Y-70231000D02*
G01*
X217551000Y-70231000D01*
X217526224Y-70233440D01*
X217502399Y-70240667D01*
X217480443Y-70252403D01*
X217461197Y-70268197D01*
X217445403Y-70287443D01*
X217433667Y-70309399D01*
X217426440Y-70333224D01*
X217424000Y-70358000D01*
X217424000Y-77343000D01*
X214956400Y-77343000D01*
X215256944Y-77142183D01*
X215699183Y-76699944D01*
X216046648Y-76179926D01*
X216285986Y-75602113D01*
X216408000Y-74988710D01*
X216408000Y-74363290D01*
X216285986Y-73749887D01*
X216046648Y-73172074D01*
X215699183Y-72652056D01*
X215256944Y-72209817D01*
X214736926Y-71862352D01*
X214159113Y-71623014D01*
X213545710Y-71501000D01*
X212920290Y-71501000D01*
X212306887Y-71623014D01*
X211729074Y-71862352D01*
X211209056Y-72209817D01*
X210766817Y-72652056D01*
X210566000Y-72952600D01*
X210566000Y-68707000D01*
X212217000Y-68707000D01*
X212241776Y-68704560D01*
X212265601Y-68697333D01*
X212287557Y-68685597D01*
X212306803Y-68669803D01*
X212322597Y-68650557D01*
X212334333Y-68628601D01*
X212341560Y-68604776D01*
X212344000Y-68580000D01*
X212344000Y-61849000D01*
X225552000Y-61849000D01*
X225552000Y-70231000D01*
X225552000Y-70231000D01*
G37*
X225552000Y-70231000D02*
X217551000Y-70231000D01*
X217526224Y-70233440D01*
X217502399Y-70240667D01*
X217480443Y-70252403D01*
X217461197Y-70268197D01*
X217445403Y-70287443D01*
X217433667Y-70309399D01*
X217426440Y-70333224D01*
X217424000Y-70358000D01*
X217424000Y-77343000D01*
X214956400Y-77343000D01*
X215256944Y-77142183D01*
X215699183Y-76699944D01*
X216046648Y-76179926D01*
X216285986Y-75602113D01*
X216408000Y-74988710D01*
X216408000Y-74363290D01*
X216285986Y-73749887D01*
X216046648Y-73172074D01*
X215699183Y-72652056D01*
X215256944Y-72209817D01*
X214736926Y-71862352D01*
X214159113Y-71623014D01*
X213545710Y-71501000D01*
X212920290Y-71501000D01*
X212306887Y-71623014D01*
X211729074Y-71862352D01*
X211209056Y-72209817D01*
X210766817Y-72652056D01*
X210566000Y-72952600D01*
X210566000Y-68707000D01*
X212217000Y-68707000D01*
X212241776Y-68704560D01*
X212265601Y-68697333D01*
X212287557Y-68685597D01*
X212306803Y-68669803D01*
X212322597Y-68650557D01*
X212334333Y-68628601D01*
X212341560Y-68604776D01*
X212344000Y-68580000D01*
X212344000Y-61849000D01*
X225552000Y-61849000D01*
X225552000Y-70231000D01*
G36*
X225298000Y-91059000D02*
G01*
X218059000Y-91059000D01*
X218034224Y-91061440D01*
X218010399Y-91068667D01*
X217988443Y-91080403D01*
X217969197Y-91096197D01*
X217953403Y-91115443D01*
X217941667Y-91137399D01*
X217934440Y-91161224D01*
X217932000Y-91186000D01*
X217932000Y-97409000D01*
X215210400Y-97409000D01*
X215510944Y-97208183D01*
X215953183Y-96765944D01*
X216300648Y-96245926D01*
X216539986Y-95668113D01*
X216662000Y-95054710D01*
X216662000Y-94429290D01*
X216539986Y-93815887D01*
X216300648Y-93238074D01*
X215953183Y-92718056D01*
X215510944Y-92275817D01*
X214990926Y-91928352D01*
X214413113Y-91689014D01*
X213799710Y-91567000D01*
X213174290Y-91567000D01*
X212560887Y-91689014D01*
X211983074Y-91928352D01*
X211463056Y-92275817D01*
X211020817Y-92718056D01*
X210820000Y-93018600D01*
X210820000Y-89027000D01*
X212471000Y-89027000D01*
X212495776Y-89024560D01*
X212519601Y-89017333D01*
X212541557Y-89005597D01*
X212560803Y-88989803D01*
X212576597Y-88970557D01*
X212588333Y-88948601D01*
X212595560Y-88924776D01*
X212598000Y-88900000D01*
X212598000Y-81915000D01*
X225298000Y-81915000D01*
X225298000Y-91059000D01*
X225298000Y-91059000D01*
G37*
X225298000Y-91059000D02*
X218059000Y-91059000D01*
X218034224Y-91061440D01*
X218010399Y-91068667D01*
X217988443Y-91080403D01*
X217969197Y-91096197D01*
X217953403Y-91115443D01*
X217941667Y-91137399D01*
X217934440Y-91161224D01*
X217932000Y-91186000D01*
X217932000Y-97409000D01*
X215210400Y-97409000D01*
X215510944Y-97208183D01*
X215953183Y-96765944D01*
X216300648Y-96245926D01*
X216539986Y-95668113D01*
X216662000Y-95054710D01*
X216662000Y-94429290D01*
X216539986Y-93815887D01*
X216300648Y-93238074D01*
X215953183Y-92718056D01*
X215510944Y-92275817D01*
X214990926Y-91928352D01*
X214413113Y-91689014D01*
X213799710Y-91567000D01*
X213174290Y-91567000D01*
X212560887Y-91689014D01*
X211983074Y-91928352D01*
X211463056Y-92275817D01*
X211020817Y-92718056D01*
X210820000Y-93018600D01*
X210820000Y-89027000D01*
X212471000Y-89027000D01*
X212495776Y-89024560D01*
X212519601Y-89017333D01*
X212541557Y-89005597D01*
X212560803Y-88989803D01*
X212576597Y-88970557D01*
X212588333Y-88948601D01*
X212595560Y-88924776D01*
X212598000Y-88900000D01*
X212598000Y-81915000D01*
X225298000Y-81915000D01*
X225298000Y-91059000D01*
G36*
X236093891Y-31205515D02*
G01*
X236705565Y-31390190D01*
X237269710Y-31690151D01*
X237764856Y-32093982D01*
X238172133Y-32586297D01*
X238476026Y-33148336D01*
X238664969Y-33758709D01*
X238735001Y-34425022D01*
X238735000Y-140810721D01*
X238669485Y-141478892D01*
X238484812Y-142090561D01*
X238184848Y-142654711D01*
X237781018Y-143149855D01*
X237288703Y-143557133D01*
X236726664Y-143861026D01*
X236116292Y-144049969D01*
X235449978Y-144120001D01*
X98076409Y-144119999D01*
X98044000Y-144116807D01*
X98033188Y-144117872D01*
X97384652Y-144075337D01*
X96766956Y-143910377D01*
X96193072Y-143628583D01*
X95684844Y-143240683D01*
X95261645Y-142761461D01*
X94939585Y-142209162D01*
X94730933Y-141604829D01*
X94640826Y-140951067D01*
X94640000Y-140714555D01*
X94640000Y-140564240D01*
X95879920Y-140564240D01*
X95879920Y-140979520D01*
X95960937Y-141386819D01*
X96119857Y-141770487D01*
X96350574Y-142115779D01*
X96644221Y-142409426D01*
X96989513Y-142640143D01*
X97373181Y-142799063D01*
X97780480Y-142880080D01*
X98195760Y-142880080D01*
X98603059Y-142799063D01*
X98986727Y-142640143D01*
X99332019Y-142409426D01*
X99625666Y-142115779D01*
X99856383Y-141770487D01*
X100015303Y-141386819D01*
X100096320Y-140979520D01*
X100096320Y-140564240D01*
X100015303Y-140156941D01*
X99856383Y-139773273D01*
X99625666Y-139427981D01*
X99332019Y-139134334D01*
X98986727Y-138903617D01*
X98603059Y-138744697D01*
X98195760Y-138663680D01*
X97780480Y-138663680D01*
X97373181Y-138744697D01*
X96989513Y-138903617D01*
X96644221Y-139134334D01*
X96350574Y-139427981D01*
X96119857Y-139773273D01*
X95960937Y-140156941D01*
X95879920Y-140564240D01*
X94640000Y-140564240D01*
X94640000Y-131515000D01*
X174056928Y-131515000D01*
X174056928Y-133915000D01*
X174069188Y-134039482D01*
X174105498Y-134159180D01*
X174164463Y-134269494D01*
X174243815Y-134366185D01*
X174340506Y-134445537D01*
X174450820Y-134504502D01*
X174570518Y-134540812D01*
X174695000Y-134553072D01*
X177095000Y-134553072D01*
X177219482Y-134540812D01*
X177339180Y-134504502D01*
X177449494Y-134445537D01*
X177546185Y-134366185D01*
X177625537Y-134269494D01*
X177684502Y-134159180D01*
X177720812Y-134039482D01*
X177733072Y-133915000D01*
X177733072Y-131515000D01*
X188661928Y-131515000D01*
X188661928Y-133915000D01*
X188674188Y-134039482D01*
X188710498Y-134159180D01*
X188769463Y-134269494D01*
X188848815Y-134366185D01*
X188945506Y-134445537D01*
X189055820Y-134504502D01*
X189175518Y-134540812D01*
X189300000Y-134553072D01*
X191700000Y-134553072D01*
X191824482Y-134540812D01*
X191944180Y-134504502D01*
X192054494Y-134445537D01*
X192151185Y-134366185D01*
X192230537Y-134269494D01*
X192289502Y-134159180D01*
X192325812Y-134039482D01*
X192338072Y-133915000D01*
X192338072Y-131751853D01*
X202311000Y-131751853D01*
X202311000Y-133678147D01*
X202686802Y-135567429D01*
X203423963Y-137347093D01*
X204494155Y-138948749D01*
X205856251Y-140310845D01*
X207457907Y-141381037D01*
X209237571Y-142118198D01*
X211126853Y-142494000D01*
X213053147Y-142494000D01*
X214942429Y-142118198D01*
X216722093Y-141381037D01*
X217944516Y-140564240D01*
X233278680Y-140564240D01*
X233278680Y-140979520D01*
X233359697Y-141386819D01*
X233518617Y-141770487D01*
X233749334Y-142115779D01*
X234042981Y-142409426D01*
X234388273Y-142640143D01*
X234771941Y-142799063D01*
X235179240Y-142880080D01*
X235594520Y-142880080D01*
X236001819Y-142799063D01*
X236385487Y-142640143D01*
X236730779Y-142409426D01*
X237024426Y-142115779D01*
X237255143Y-141770487D01*
X237414063Y-141386819D01*
X237495080Y-140979520D01*
X237495080Y-140564240D01*
X237414063Y-140156941D01*
X237255143Y-139773273D01*
X237024426Y-139427981D01*
X236730779Y-139134334D01*
X236385487Y-138903617D01*
X236001819Y-138744697D01*
X235594520Y-138663680D01*
X235179240Y-138663680D01*
X234771941Y-138744697D01*
X234388273Y-138903617D01*
X234042981Y-139134334D01*
X233749334Y-139427981D01*
X233518617Y-139773273D01*
X233359697Y-140156941D01*
X233278680Y-140564240D01*
X217944516Y-140564240D01*
X218323749Y-140310845D01*
X219685845Y-138948749D01*
X220756037Y-137347093D01*
X221493198Y-135567429D01*
X221869000Y-133678147D01*
X221869000Y-131751853D01*
X221493198Y-129862571D01*
X220756037Y-128082907D01*
X219685845Y-126481251D01*
X218323749Y-125119155D01*
X216722093Y-124048963D01*
X214942429Y-123311802D01*
X213053147Y-122936000D01*
X211126853Y-122936000D01*
X209237571Y-123311802D01*
X207457907Y-124048963D01*
X205856251Y-125119155D01*
X204494155Y-126481251D01*
X203423963Y-128082907D01*
X202686802Y-129862571D01*
X202311000Y-131751853D01*
X192338072Y-131751853D01*
X192338072Y-131515000D01*
X192325812Y-131390518D01*
X192289502Y-131270820D01*
X192230537Y-131160506D01*
X192151185Y-131063815D01*
X192054494Y-130984463D01*
X191944180Y-130925498D01*
X191824482Y-130889188D01*
X191700000Y-130876928D01*
X189300000Y-130876928D01*
X189175518Y-130889188D01*
X189055820Y-130925498D01*
X188945506Y-130984463D01*
X188848815Y-131063815D01*
X188769463Y-131160506D01*
X188710498Y-131270820D01*
X188674188Y-131390518D01*
X188661928Y-131515000D01*
X177733072Y-131515000D01*
X177720812Y-131390518D01*
X177684502Y-131270820D01*
X177625537Y-131160506D01*
X177546185Y-131063815D01*
X177449494Y-130984463D01*
X177339180Y-130925498D01*
X177219482Y-130889188D01*
X177095000Y-130876928D01*
X174695000Y-130876928D01*
X174570518Y-130889188D01*
X174450820Y-130925498D01*
X174340506Y-130984463D01*
X174243815Y-131063815D01*
X174164463Y-131160506D01*
X174105498Y-131270820D01*
X174069188Y-131390518D01*
X174056928Y-131515000D01*
X94640000Y-131515000D01*
X94640000Y-127534268D01*
X174060000Y-127534268D01*
X174060000Y-127895732D01*
X174130518Y-128250250D01*
X174268844Y-128584199D01*
X174469662Y-128884744D01*
X174725256Y-129140338D01*
X175025801Y-129341156D01*
X175359750Y-129479482D01*
X175714268Y-129550000D01*
X176075732Y-129550000D01*
X176430250Y-129479482D01*
X176764199Y-129341156D01*
X177064744Y-129140338D01*
X177320338Y-128884744D01*
X177521156Y-128584199D01*
X177659482Y-128250250D01*
X177730000Y-127895732D01*
X177730000Y-127534268D01*
X188665000Y-127534268D01*
X188665000Y-127895732D01*
X188735518Y-128250250D01*
X188873844Y-128584199D01*
X189074662Y-128884744D01*
X189330256Y-129140338D01*
X189630801Y-129341156D01*
X189964750Y-129479482D01*
X190319268Y-129550000D01*
X190680732Y-129550000D01*
X191035250Y-129479482D01*
X191369199Y-129341156D01*
X191669744Y-129140338D01*
X191925338Y-128884744D01*
X192126156Y-128584199D01*
X192264482Y-128250250D01*
X192335000Y-127895732D01*
X192335000Y-127534268D01*
X192264482Y-127179750D01*
X192126156Y-126845801D01*
X191925338Y-126545256D01*
X191669744Y-126289662D01*
X191369199Y-126088844D01*
X191035250Y-125950518D01*
X190680732Y-125880000D01*
X190319268Y-125880000D01*
X189964750Y-125950518D01*
X189630801Y-126088844D01*
X189330256Y-126289662D01*
X189074662Y-126545256D01*
X188873844Y-126845801D01*
X188735518Y-127179750D01*
X188665000Y-127534268D01*
X177730000Y-127534268D01*
X177659482Y-127179750D01*
X177521156Y-126845801D01*
X177320338Y-126545256D01*
X177064744Y-126289662D01*
X176764199Y-126088844D01*
X176430250Y-125950518D01*
X176075732Y-125880000D01*
X175714268Y-125880000D01*
X175359750Y-125950518D01*
X175025801Y-126088844D01*
X174725256Y-126289662D01*
X174469662Y-126545256D01*
X174268844Y-126845801D01*
X174130518Y-127179750D01*
X174060000Y-127534268D01*
X94640000Y-127534268D01*
X94640000Y-115005000D01*
X166436928Y-115005000D01*
X166436928Y-117405000D01*
X166449188Y-117529482D01*
X166485498Y-117649180D01*
X166544463Y-117759494D01*
X166623815Y-117856185D01*
X166720506Y-117935537D01*
X166830820Y-117994502D01*
X166950518Y-118030812D01*
X167075000Y-118043072D01*
X169475000Y-118043072D01*
X169599482Y-118030812D01*
X169719180Y-117994502D01*
X169829494Y-117935537D01*
X169926185Y-117856185D01*
X170005537Y-117759494D01*
X170064502Y-117649180D01*
X170100812Y-117529482D01*
X170113072Y-117405000D01*
X170113072Y-116024268D01*
X171440000Y-116024268D01*
X171440000Y-116385732D01*
X171510518Y-116740250D01*
X171648844Y-117074199D01*
X171849662Y-117374744D01*
X172105256Y-117630338D01*
X172405801Y-117831156D01*
X172739750Y-117969482D01*
X173094268Y-118040000D01*
X173455732Y-118040000D01*
X173810250Y-117969482D01*
X174144199Y-117831156D01*
X174444744Y-117630338D01*
X174700338Y-117374744D01*
X174901156Y-117074199D01*
X175039482Y-116740250D01*
X175110000Y-116385732D01*
X175110000Y-116024268D01*
X175039482Y-115669750D01*
X174901156Y-115335801D01*
X174700338Y-115035256D01*
X174444744Y-114779662D01*
X174144199Y-114578844D01*
X173810250Y-114440518D01*
X173455732Y-114370000D01*
X173094268Y-114370000D01*
X172739750Y-114440518D01*
X172405801Y-114578844D01*
X172105256Y-114779662D01*
X171849662Y-115035256D01*
X171648844Y-115335801D01*
X171510518Y-115669750D01*
X171440000Y-116024268D01*
X170113072Y-116024268D01*
X170113072Y-115005000D01*
X170100812Y-114880518D01*
X170064502Y-114760820D01*
X170005537Y-114650506D01*
X169926185Y-114553815D01*
X169829494Y-114474463D01*
X169719180Y-114415498D01*
X169599482Y-114379188D01*
X169475000Y-114366928D01*
X167075000Y-114366928D01*
X166950518Y-114379188D01*
X166830820Y-114415498D01*
X166720506Y-114474463D01*
X166623815Y-114553815D01*
X166544463Y-114650506D01*
X166485498Y-114760820D01*
X166449188Y-114880518D01*
X166436928Y-115005000D01*
X94640000Y-115005000D01*
X94640000Y-99568000D01*
X100203000Y-99568000D01*
X100203000Y-114300000D01*
X100215201Y-114423882D01*
X100251336Y-114543004D01*
X100310017Y-114652787D01*
X100388987Y-114749013D01*
X100485213Y-114827983D01*
X100594996Y-114886664D01*
X100714118Y-114922799D01*
X100838000Y-114935000D01*
X113538000Y-114935000D01*
X113661882Y-114922799D01*
X113781004Y-114886664D01*
X113890787Y-114827983D01*
X113987013Y-114749013D01*
X114065983Y-114652787D01*
X114124664Y-114543004D01*
X114160799Y-114423882D01*
X114173000Y-114300000D01*
X114173000Y-113541396D01*
X114362778Y-113825420D01*
X114647580Y-114110222D01*
X114982472Y-114333989D01*
X115354583Y-114488123D01*
X115749615Y-114566700D01*
X116152385Y-114566700D01*
X116547417Y-114488123D01*
X116919528Y-114333989D01*
X117254420Y-114110222D01*
X117539222Y-113825420D01*
X117762989Y-113490528D01*
X117917123Y-113118417D01*
X117995700Y-112723385D01*
X117995700Y-112320615D01*
X117917123Y-111925583D01*
X117762989Y-111553472D01*
X117539222Y-111218580D01*
X117254420Y-110933778D01*
X117065431Y-110807500D01*
X117254420Y-110681222D01*
X117539222Y-110396420D01*
X117762989Y-110061528D01*
X117917123Y-109689417D01*
X117995700Y-109294385D01*
X117995700Y-108891615D01*
X117917123Y-108496583D01*
X117762989Y-108124472D01*
X117539222Y-107789580D01*
X117254420Y-107504778D01*
X116970396Y-107315000D01*
X124206000Y-107315000D01*
X124329882Y-107302799D01*
X124449004Y-107266664D01*
X124558787Y-107207983D01*
X124655013Y-107129013D01*
X124733983Y-107032787D01*
X124792664Y-106923004D01*
X124828799Y-106803882D01*
X124841000Y-106680000D01*
X124841000Y-100400000D01*
X166436928Y-100400000D01*
X166436928Y-102800000D01*
X166449188Y-102924482D01*
X166485498Y-103044180D01*
X166544463Y-103154494D01*
X166623815Y-103251185D01*
X166720506Y-103330537D01*
X166830820Y-103389502D01*
X166950518Y-103425812D01*
X167075000Y-103438072D01*
X169475000Y-103438072D01*
X169599482Y-103425812D01*
X169719180Y-103389502D01*
X169829494Y-103330537D01*
X169926185Y-103251185D01*
X170005537Y-103154494D01*
X170064502Y-103044180D01*
X170100812Y-102924482D01*
X170113072Y-102800000D01*
X170113072Y-101419268D01*
X171440000Y-101419268D01*
X171440000Y-101780732D01*
X171510518Y-102135250D01*
X171648844Y-102469199D01*
X171849662Y-102769744D01*
X172105256Y-103025338D01*
X172405801Y-103226156D01*
X172739750Y-103364482D01*
X173094268Y-103435000D01*
X173455732Y-103435000D01*
X173810250Y-103364482D01*
X174144199Y-103226156D01*
X174444744Y-103025338D01*
X174700338Y-102769744D01*
X174901156Y-102469199D01*
X175039482Y-102135250D01*
X175110000Y-101780732D01*
X175110000Y-101419268D01*
X175039482Y-101064750D01*
X174901156Y-100730801D01*
X174700338Y-100430256D01*
X174444744Y-100174662D01*
X174144199Y-99973844D01*
X173810250Y-99835518D01*
X173455732Y-99765000D01*
X173094268Y-99765000D01*
X172739750Y-99835518D01*
X172405801Y-99973844D01*
X172105256Y-100174662D01*
X171849662Y-100430256D01*
X171648844Y-100730801D01*
X171510518Y-101064750D01*
X171440000Y-101419268D01*
X170113072Y-101419268D01*
X170113072Y-100400000D01*
X170100812Y-100275518D01*
X170064502Y-100155820D01*
X170005537Y-100045506D01*
X169926185Y-99948815D01*
X169829494Y-99869463D01*
X169719180Y-99810498D01*
X169599482Y-99774188D01*
X169475000Y-99761928D01*
X167075000Y-99761928D01*
X166950518Y-99774188D01*
X166830820Y-99810498D01*
X166720506Y-99869463D01*
X166623815Y-99948815D01*
X166544463Y-100045506D01*
X166485498Y-100155820D01*
X166449188Y-100275518D01*
X166436928Y-100400000D01*
X124841000Y-100400000D01*
X124841000Y-92202000D01*
X124828799Y-92078118D01*
X124792664Y-91958996D01*
X124733983Y-91849213D01*
X124655013Y-91752987D01*
X124558787Y-91674017D01*
X124449004Y-91615336D01*
X124329882Y-91579201D01*
X124206000Y-91567000D01*
X116078000Y-91567000D01*
X115954118Y-91579201D01*
X115834996Y-91615336D01*
X115725213Y-91674017D01*
X115628987Y-91752987D01*
X115550017Y-91849213D01*
X115491336Y-91958996D01*
X115455201Y-92078118D01*
X115443000Y-92202000D01*
X115443000Y-98933000D01*
X100838000Y-98933000D01*
X100714118Y-98945201D01*
X100594996Y-98981336D01*
X100485213Y-99040017D01*
X100388987Y-99118987D01*
X100310017Y-99215213D01*
X100251336Y-99324996D01*
X100215201Y-99444118D01*
X100203000Y-99568000D01*
X94640000Y-99568000D01*
X94640000Y-77389360D01*
X95935800Y-77389360D01*
X95935800Y-77804640D01*
X96016817Y-78211939D01*
X96175737Y-78595607D01*
X96406454Y-78940899D01*
X96700101Y-79234546D01*
X97045393Y-79465263D01*
X97429061Y-79624183D01*
X97836360Y-79705200D01*
X98251640Y-79705200D01*
X98658939Y-79624183D01*
X99042607Y-79465263D01*
X99387899Y-79234546D01*
X99681546Y-78940899D01*
X99912263Y-78595607D01*
X100071183Y-78211939D01*
X100152200Y-77804640D01*
X100152200Y-77389360D01*
X100071183Y-76982061D01*
X99912263Y-76598393D01*
X99681546Y-76253101D01*
X99387899Y-75959454D01*
X99042607Y-75728737D01*
X98658939Y-75569817D01*
X98251640Y-75488800D01*
X97836360Y-75488800D01*
X97429061Y-75569817D01*
X97045393Y-75728737D01*
X96700101Y-75959454D01*
X96406454Y-76253101D01*
X96175737Y-76598393D01*
X96016817Y-76982061D01*
X95935800Y-77389360D01*
X94640000Y-77389360D01*
X94640000Y-73152000D01*
X100203000Y-73152000D01*
X100203000Y-87884000D01*
X100215201Y-88007882D01*
X100251336Y-88127004D01*
X100310017Y-88236787D01*
X100388987Y-88333013D01*
X100485213Y-88411983D01*
X100594996Y-88470664D01*
X100714118Y-88506799D01*
X100838000Y-88519000D01*
X115570000Y-88519000D01*
X115693882Y-88506799D01*
X115813004Y-88470664D01*
X115922787Y-88411983D01*
X116019013Y-88333013D01*
X116097983Y-88236787D01*
X116156664Y-88127004D01*
X116192799Y-88007882D01*
X116205000Y-87884000D01*
X116205000Y-87727642D01*
X116425580Y-87948222D01*
X116760472Y-88171989D01*
X117132583Y-88326123D01*
X117527615Y-88404700D01*
X117930385Y-88404700D01*
X118325417Y-88326123D01*
X118697528Y-88171989D01*
X119032420Y-87948222D01*
X119317222Y-87663420D01*
X119540989Y-87328528D01*
X119695123Y-86956417D01*
X119773700Y-86561385D01*
X119773700Y-86158615D01*
X119695123Y-85763583D01*
X119540989Y-85391472D01*
X119317222Y-85056580D01*
X119032420Y-84771778D01*
X118843431Y-84645500D01*
X119032420Y-84519222D01*
X119317222Y-84234420D01*
X119540989Y-83899528D01*
X119695123Y-83527417D01*
X119773700Y-83132385D01*
X119773700Y-82729615D01*
X119695123Y-82334583D01*
X119540989Y-81962472D01*
X119339552Y-81661000D01*
X122682000Y-81661000D01*
X122805882Y-81648799D01*
X122925004Y-81612664D01*
X123034787Y-81553983D01*
X123131013Y-81475013D01*
X123209983Y-81378787D01*
X123268664Y-81269004D01*
X123304799Y-81149882D01*
X123317000Y-81026000D01*
X123317000Y-65405000D01*
X123304799Y-65281118D01*
X123268664Y-65161996D01*
X123209983Y-65052213D01*
X123131013Y-64955987D01*
X123034787Y-64877017D01*
X122925004Y-64818336D01*
X122805882Y-64782201D01*
X122682000Y-64770000D01*
X115824000Y-64770000D01*
X115700118Y-64782201D01*
X115580996Y-64818336D01*
X115471213Y-64877017D01*
X115374987Y-64955987D01*
X115296017Y-65052213D01*
X115237336Y-65161996D01*
X115201201Y-65281118D01*
X115189000Y-65405000D01*
X115189000Y-72517000D01*
X100838000Y-72517000D01*
X100714118Y-72529201D01*
X100594996Y-72565336D01*
X100485213Y-72624017D01*
X100388987Y-72702987D01*
X100310017Y-72799213D01*
X100251336Y-72908996D01*
X100215201Y-73028118D01*
X100203000Y-73152000D01*
X94640000Y-73152000D01*
X94640000Y-48006000D01*
X100203000Y-48006000D01*
X100203000Y-61722000D01*
X100215201Y-61845882D01*
X100251336Y-61965004D01*
X100310017Y-62074787D01*
X100388987Y-62171013D01*
X100485213Y-62249983D01*
X100594996Y-62308664D01*
X100714118Y-62344799D01*
X100838000Y-62357000D01*
X114046000Y-62357000D01*
X114169882Y-62344799D01*
X114289004Y-62308664D01*
X114398787Y-62249983D01*
X114495013Y-62171013D01*
X114573983Y-62074787D01*
X114632664Y-61965004D01*
X114668799Y-61845882D01*
X114681000Y-61722000D01*
X114681000Y-61438642D01*
X114774580Y-61532222D01*
X115109472Y-61755989D01*
X115481583Y-61910123D01*
X115876615Y-61988700D01*
X116279385Y-61988700D01*
X116674417Y-61910123D01*
X117046528Y-61755989D01*
X117381420Y-61532222D01*
X117666222Y-61247420D01*
X117889989Y-60912528D01*
X118044123Y-60540417D01*
X118122700Y-60145385D01*
X118122700Y-59742615D01*
X118044123Y-59347583D01*
X117889989Y-58975472D01*
X117666222Y-58640580D01*
X117381420Y-58355778D01*
X117192431Y-58229500D01*
X117381420Y-58103222D01*
X117666222Y-57818420D01*
X117889989Y-57483528D01*
X118044123Y-57111417D01*
X118122700Y-56716385D01*
X118122700Y-56313615D01*
X118044123Y-55918583D01*
X117889989Y-55546472D01*
X117688552Y-55245000D01*
X124714000Y-55245000D01*
X124837882Y-55232799D01*
X124957004Y-55196664D01*
X125066787Y-55137983D01*
X125163013Y-55059013D01*
X125241983Y-54962787D01*
X125300664Y-54853004D01*
X125336799Y-54733882D01*
X125349000Y-54610000D01*
X125349000Y-43459061D01*
X145015000Y-43459061D01*
X145015000Y-43662939D01*
X145034000Y-43758459D01*
X145034001Y-59640088D01*
X145029085Y-59690000D01*
X145048702Y-59889170D01*
X145106799Y-60080687D01*
X145201141Y-60257190D01*
X145256791Y-60324999D01*
X145201140Y-60392810D01*
X145106798Y-60569314D01*
X145063844Y-60710915D01*
X145048702Y-60760830D01*
X145029085Y-60960000D01*
X145034000Y-61009902D01*
X145034001Y-62815089D01*
X145034000Y-62815099D01*
X145034001Y-69017536D01*
X145015000Y-69113061D01*
X145015000Y-69316939D01*
X145034000Y-69412459D01*
X145034001Y-95052536D01*
X145015000Y-95148061D01*
X145015000Y-95351939D01*
X145054774Y-95551898D01*
X145132795Y-95740256D01*
X145246063Y-95909774D01*
X145390226Y-96053937D01*
X145559744Y-96167205D01*
X145748102Y-96245226D01*
X145948061Y-96285000D01*
X146151939Y-96285000D01*
X146351898Y-96245226D01*
X146540256Y-96167205D01*
X146709774Y-96053937D01*
X146853937Y-95909774D01*
X146967205Y-95740256D01*
X147045226Y-95551898D01*
X147085000Y-95351939D01*
X147085000Y-95148061D01*
X147066000Y-95052541D01*
X147066000Y-89205000D01*
X166036928Y-89205000D01*
X166036928Y-92405000D01*
X166049188Y-92529482D01*
X166085498Y-92649180D01*
X166144463Y-92759494D01*
X166223815Y-92856185D01*
X166320506Y-92935537D01*
X166430820Y-92994502D01*
X166550518Y-93030812D01*
X166675000Y-93043072D01*
X169875000Y-93043072D01*
X169999482Y-93030812D01*
X170119180Y-92994502D01*
X170229494Y-92935537D01*
X170326185Y-92856185D01*
X170405537Y-92759494D01*
X170464502Y-92649180D01*
X170500812Y-92529482D01*
X170513072Y-92405000D01*
X170513072Y-90805000D01*
X171109186Y-90805000D01*
X171152339Y-91243137D01*
X171280138Y-91664436D01*
X171487674Y-92052707D01*
X171766970Y-92393030D01*
X172107293Y-92672326D01*
X172495564Y-92879862D01*
X172916863Y-93007661D01*
X173245204Y-93040000D01*
X173464796Y-93040000D01*
X173793137Y-93007661D01*
X174214436Y-92879862D01*
X174602707Y-92672326D01*
X174943030Y-92393030D01*
X175222326Y-92052707D01*
X175429862Y-91664436D01*
X175557661Y-91243137D01*
X175600814Y-90805000D01*
X175557661Y-90366863D01*
X175429862Y-89945564D01*
X175222326Y-89557293D01*
X174943030Y-89216970D01*
X174602707Y-88937674D01*
X174214436Y-88730138D01*
X173793137Y-88602339D01*
X173464796Y-88570000D01*
X173245204Y-88570000D01*
X172916863Y-88602339D01*
X172495564Y-88730138D01*
X172107293Y-88937674D01*
X171766970Y-89216970D01*
X171487674Y-89557293D01*
X171280138Y-89945564D01*
X171152339Y-90366863D01*
X171109186Y-90805000D01*
X170513072Y-90805000D01*
X170513072Y-89205000D01*
X170500812Y-89080518D01*
X170464502Y-88960820D01*
X170405537Y-88850506D01*
X170326185Y-88753815D01*
X170229494Y-88674463D01*
X170119180Y-88615498D01*
X169999482Y-88579188D01*
X169875000Y-88566928D01*
X166675000Y-88566928D01*
X166550518Y-88579188D01*
X166430820Y-88615498D01*
X166320506Y-88674463D01*
X166223815Y-88753815D01*
X166144463Y-88850506D01*
X166085498Y-88960820D01*
X166049188Y-89080518D01*
X166036928Y-89205000D01*
X147066000Y-89205000D01*
X147066000Y-82220000D01*
X166036928Y-82220000D01*
X166036928Y-85420000D01*
X166049188Y-85544482D01*
X166085498Y-85664180D01*
X166144463Y-85774494D01*
X166223815Y-85871185D01*
X166320506Y-85950537D01*
X166430820Y-86009502D01*
X166550518Y-86045812D01*
X166675000Y-86058072D01*
X169875000Y-86058072D01*
X169999482Y-86045812D01*
X170119180Y-86009502D01*
X170229494Y-85950537D01*
X170326185Y-85871185D01*
X170405537Y-85774494D01*
X170464502Y-85664180D01*
X170500812Y-85544482D01*
X170513072Y-85420000D01*
X170513072Y-83820000D01*
X171109186Y-83820000D01*
X171152339Y-84258137D01*
X171280138Y-84679436D01*
X171487674Y-85067707D01*
X171766970Y-85408030D01*
X172107293Y-85687326D01*
X172495564Y-85894862D01*
X172916863Y-86022661D01*
X173245204Y-86055000D01*
X173464796Y-86055000D01*
X173793137Y-86022661D01*
X174214436Y-85894862D01*
X174602707Y-85687326D01*
X174943030Y-85408030D01*
X175222326Y-85067707D01*
X175429862Y-84679436D01*
X175557661Y-84258137D01*
X175600814Y-83820000D01*
X175557661Y-83381863D01*
X175429862Y-82960564D01*
X175222326Y-82572293D01*
X174943030Y-82231970D01*
X174602707Y-81952674D01*
X174214436Y-81745138D01*
X173793137Y-81617339D01*
X173464796Y-81585000D01*
X173245204Y-81585000D01*
X172916863Y-81617339D01*
X172495564Y-81745138D01*
X172107293Y-81952674D01*
X171766970Y-82231970D01*
X171487674Y-82572293D01*
X171280138Y-82960564D01*
X171152339Y-83381863D01*
X171109186Y-83820000D01*
X170513072Y-83820000D01*
X170513072Y-82220000D01*
X170500812Y-82095518D01*
X170464502Y-81975820D01*
X170405537Y-81865506D01*
X170326185Y-81768815D01*
X170229494Y-81689463D01*
X170119180Y-81630498D01*
X169999482Y-81594188D01*
X169875000Y-81581928D01*
X166675000Y-81581928D01*
X166550518Y-81594188D01*
X166430820Y-81630498D01*
X166320506Y-81689463D01*
X166223815Y-81768815D01*
X166144463Y-81865506D01*
X166085498Y-81975820D01*
X166049188Y-82095518D01*
X166036928Y-82220000D01*
X147066000Y-82220000D01*
X147066000Y-69412459D01*
X147085000Y-69316939D01*
X147085000Y-69113061D01*
X147072457Y-69050000D01*
X157946928Y-69050000D01*
X157946928Y-70650000D01*
X157959188Y-70774482D01*
X157995498Y-70894180D01*
X158054463Y-71004494D01*
X158133815Y-71101185D01*
X158230506Y-71180537D01*
X158340820Y-71239502D01*
X158460518Y-71275812D01*
X158585000Y-71288072D01*
X160185000Y-71288072D01*
X160309482Y-71275812D01*
X160429180Y-71239502D01*
X160539494Y-71180537D01*
X160636185Y-71101185D01*
X160715537Y-71004494D01*
X160774502Y-70894180D01*
X160810812Y-70774482D01*
X160823072Y-70650000D01*
X160823072Y-69050000D01*
X170900928Y-69050000D01*
X170900928Y-70650000D01*
X170913188Y-70774482D01*
X170949498Y-70894180D01*
X171008463Y-71004494D01*
X171087815Y-71101185D01*
X171184506Y-71180537D01*
X171294820Y-71239502D01*
X171414518Y-71275812D01*
X171539000Y-71288072D01*
X173139000Y-71288072D01*
X173263482Y-71275812D01*
X173383180Y-71239502D01*
X173493494Y-71180537D01*
X173590185Y-71101185D01*
X173669537Y-71004494D01*
X173728502Y-70894180D01*
X173764812Y-70774482D01*
X173777072Y-70650000D01*
X173777072Y-69050000D01*
X173764812Y-68925518D01*
X173728502Y-68805820D01*
X173669537Y-68695506D01*
X173590185Y-68598815D01*
X173493494Y-68519463D01*
X173383180Y-68460498D01*
X173263482Y-68424188D01*
X173139000Y-68411928D01*
X171539000Y-68411928D01*
X171414518Y-68424188D01*
X171294820Y-68460498D01*
X171184506Y-68519463D01*
X171087815Y-68598815D01*
X171008463Y-68695506D01*
X170949498Y-68805820D01*
X170913188Y-68925518D01*
X170900928Y-69050000D01*
X160823072Y-69050000D01*
X160810812Y-68925518D01*
X160774502Y-68805820D01*
X160715537Y-68695506D01*
X160636185Y-68598815D01*
X160539494Y-68519463D01*
X160429180Y-68460498D01*
X160309482Y-68424188D01*
X160185000Y-68411928D01*
X158585000Y-68411928D01*
X158460518Y-68424188D01*
X158340820Y-68460498D01*
X158230506Y-68519463D01*
X158133815Y-68598815D01*
X158054463Y-68695506D01*
X157995498Y-68805820D01*
X157959188Y-68925518D01*
X157946928Y-69050000D01*
X147072457Y-69050000D01*
X147066000Y-69017541D01*
X147066000Y-61380840D01*
X147105840Y-61341000D01*
X157663854Y-61341000D01*
X157511995Y-61568273D01*
X157406686Y-61822510D01*
X157353000Y-62092408D01*
X157353000Y-62367592D01*
X157406686Y-62637490D01*
X157511995Y-62891727D01*
X157664880Y-63120535D01*
X157859465Y-63315120D01*
X158088273Y-63468005D01*
X158342510Y-63573314D01*
X158612408Y-63627000D01*
X158887592Y-63627000D01*
X159157490Y-63573314D01*
X159411727Y-63468005D01*
X159640535Y-63315120D01*
X159835120Y-63120535D01*
X159988005Y-62891727D01*
X160093314Y-62637490D01*
X160147000Y-62367592D01*
X160147000Y-62092408D01*
X160093314Y-61822510D01*
X159988005Y-61568273D01*
X159836146Y-61341000D01*
X162743854Y-61341000D01*
X162591995Y-61568273D01*
X162486686Y-61822510D01*
X162433000Y-62092408D01*
X162433000Y-62367592D01*
X162486686Y-62637490D01*
X162591995Y-62891727D01*
X162744880Y-63120535D01*
X162939465Y-63315120D01*
X163168273Y-63468005D01*
X163422510Y-63573314D01*
X163692408Y-63627000D01*
X163967592Y-63627000D01*
X164237490Y-63573314D01*
X164491727Y-63468005D01*
X164720535Y-63315120D01*
X164915120Y-63120535D01*
X165068005Y-62891727D01*
X165173314Y-62637490D01*
X165227000Y-62367592D01*
X165227000Y-62092408D01*
X165173314Y-61822510D01*
X165068005Y-61568273D01*
X164916146Y-61341000D01*
X168489160Y-61341000D01*
X169418000Y-62269841D01*
X169418000Y-62367592D01*
X169471686Y-62637490D01*
X169576995Y-62891727D01*
X169729880Y-63120535D01*
X169924465Y-63315120D01*
X170153273Y-63468005D01*
X170407510Y-63573314D01*
X170677408Y-63627000D01*
X170952592Y-63627000D01*
X171222490Y-63573314D01*
X171476727Y-63468005D01*
X171705535Y-63315120D01*
X171900120Y-63120535D01*
X172053005Y-62891727D01*
X172158314Y-62637490D01*
X172212000Y-62367592D01*
X172212000Y-62269840D01*
X173140841Y-61341000D01*
X174808854Y-61341000D01*
X174656995Y-61568273D01*
X174551686Y-61822510D01*
X174498000Y-62092408D01*
X174498000Y-62367592D01*
X174551686Y-62637490D01*
X174656995Y-62891727D01*
X174809880Y-63120535D01*
X175004465Y-63315120D01*
X175233273Y-63468005D01*
X175487510Y-63573314D01*
X175757408Y-63627000D01*
X176032592Y-63627000D01*
X176302490Y-63573314D01*
X176556727Y-63468005D01*
X176785535Y-63315120D01*
X176980120Y-63120535D01*
X177133005Y-62891727D01*
X177238314Y-62637490D01*
X177292000Y-62367592D01*
X177292000Y-62092408D01*
X177238314Y-61822510D01*
X177133005Y-61568273D01*
X176981146Y-61341000D01*
X180594000Y-61341000D01*
X180594001Y-80320536D01*
X180575000Y-80416061D01*
X180575000Y-80619939D01*
X180594000Y-80715459D01*
X180594000Y-100132538D01*
X180575000Y-100228061D01*
X180575000Y-100431939D01*
X180594001Y-100527462D01*
X180594001Y-119817536D01*
X180575000Y-119913061D01*
X180575000Y-120116939D01*
X180614774Y-120316898D01*
X180692795Y-120505256D01*
X180806063Y-120674774D01*
X180950226Y-120818937D01*
X181119744Y-120932205D01*
X181308102Y-121010226D01*
X181508061Y-121050000D01*
X181711939Y-121050000D01*
X181911898Y-121010226D01*
X182100256Y-120932205D01*
X182269774Y-120818937D01*
X182413937Y-120674774D01*
X182527205Y-120505256D01*
X182605226Y-120316898D01*
X182645000Y-120116939D01*
X182645000Y-119913061D01*
X182626000Y-119817541D01*
X182626000Y-103430615D01*
X208267300Y-103430615D01*
X208267300Y-103833385D01*
X208345877Y-104228417D01*
X208500011Y-104600528D01*
X208723778Y-104935420D01*
X209008580Y-105220222D01*
X209197569Y-105346500D01*
X209008580Y-105472778D01*
X208723778Y-105757580D01*
X208500011Y-106092472D01*
X208345877Y-106464583D01*
X208267300Y-106859615D01*
X208267300Y-107262385D01*
X208345877Y-107657417D01*
X208500011Y-108029528D01*
X208723778Y-108364420D01*
X209008580Y-108649222D01*
X209343472Y-108872989D01*
X209715583Y-109027123D01*
X209830214Y-109049925D01*
X209816201Y-109096118D01*
X209804000Y-109220000D01*
X209804000Y-117094000D01*
X209816201Y-117217882D01*
X209852336Y-117337004D01*
X209911017Y-117446787D01*
X209989987Y-117543013D01*
X210086213Y-117621983D01*
X210195996Y-117680664D01*
X210315118Y-117716799D01*
X210439000Y-117729000D01*
X217551000Y-117729000D01*
X217674882Y-117716799D01*
X217794004Y-117680664D01*
X217903787Y-117621983D01*
X218000013Y-117543013D01*
X218078983Y-117446787D01*
X218137664Y-117337004D01*
X218173799Y-117217882D01*
X218186000Y-117094000D01*
X218186000Y-111633000D01*
X225425000Y-111633000D01*
X225548882Y-111620799D01*
X225668004Y-111584664D01*
X225777787Y-111525983D01*
X225874013Y-111447013D01*
X225952983Y-111350787D01*
X226011664Y-111241004D01*
X226047799Y-111121882D01*
X226060000Y-110998000D01*
X226060000Y-101854000D01*
X226047799Y-101730118D01*
X226011664Y-101610996D01*
X225952983Y-101501213D01*
X225874013Y-101404987D01*
X225777787Y-101326017D01*
X225668004Y-101267336D01*
X225548882Y-101231201D01*
X225425000Y-101219000D01*
X212725000Y-101219000D01*
X212601118Y-101231201D01*
X212481996Y-101267336D01*
X212372213Y-101326017D01*
X212275987Y-101404987D01*
X212197017Y-101501213D01*
X212138336Y-101610996D01*
X212102201Y-101730118D01*
X212090000Y-101854000D01*
X212090000Y-102612604D01*
X211900222Y-102328580D01*
X211615420Y-102043778D01*
X211280528Y-101820011D01*
X210908417Y-101665877D01*
X210513385Y-101587300D01*
X210110615Y-101587300D01*
X209715583Y-101665877D01*
X209343472Y-101820011D01*
X209008580Y-102043778D01*
X208723778Y-102328580D01*
X208500011Y-102663472D01*
X208345877Y-103035583D01*
X208267300Y-103430615D01*
X182626000Y-103430615D01*
X182626000Y-100527459D01*
X182645000Y-100431939D01*
X182645000Y-100228061D01*
X182626000Y-100132541D01*
X182626000Y-83110615D01*
X208267300Y-83110615D01*
X208267300Y-83513385D01*
X208345877Y-83908417D01*
X208500011Y-84280528D01*
X208723778Y-84615420D01*
X209008580Y-84900222D01*
X209197569Y-85026500D01*
X209008580Y-85152778D01*
X208723778Y-85437580D01*
X208500011Y-85772472D01*
X208345877Y-86144583D01*
X208267300Y-86539615D01*
X208267300Y-86942385D01*
X208345877Y-87337417D01*
X208500011Y-87709528D01*
X208723778Y-88044420D01*
X209008580Y-88329222D01*
X209343472Y-88552989D01*
X209715583Y-88707123D01*
X210070052Y-88777631D01*
X210058000Y-88900000D01*
X210058000Y-97536000D01*
X210070201Y-97659882D01*
X210106336Y-97779004D01*
X210165017Y-97888787D01*
X210243987Y-97985013D01*
X210340213Y-98063983D01*
X210449996Y-98122664D01*
X210569118Y-98158799D01*
X210693000Y-98171000D01*
X218059000Y-98171000D01*
X218182882Y-98158799D01*
X218302004Y-98122664D01*
X218411787Y-98063983D01*
X218508013Y-97985013D01*
X218586983Y-97888787D01*
X218645664Y-97779004D01*
X218681799Y-97659882D01*
X218694000Y-97536000D01*
X218694000Y-91821000D01*
X225425000Y-91821000D01*
X225548882Y-91808799D01*
X225668004Y-91772664D01*
X225777787Y-91713983D01*
X225874013Y-91635013D01*
X225952983Y-91538787D01*
X226011664Y-91429004D01*
X226047799Y-91309882D01*
X226060000Y-91186000D01*
X226060000Y-85136360D01*
X233222800Y-85136360D01*
X233222800Y-85551640D01*
X233303817Y-85958939D01*
X233462737Y-86342607D01*
X233693454Y-86687899D01*
X233987101Y-86981546D01*
X234332393Y-87212263D01*
X234716061Y-87371183D01*
X235123360Y-87452200D01*
X235538640Y-87452200D01*
X235945939Y-87371183D01*
X236329607Y-87212263D01*
X236674899Y-86981546D01*
X236968546Y-86687899D01*
X237199263Y-86342607D01*
X237358183Y-85958939D01*
X237439200Y-85551640D01*
X237439200Y-85136360D01*
X237358183Y-84729061D01*
X237199263Y-84345393D01*
X236968546Y-84000101D01*
X236674899Y-83706454D01*
X236329607Y-83475737D01*
X235945939Y-83316817D01*
X235538640Y-83235800D01*
X235123360Y-83235800D01*
X234716061Y-83316817D01*
X234332393Y-83475737D01*
X233987101Y-83706454D01*
X233693454Y-84000101D01*
X233462737Y-84345393D01*
X233303817Y-84729061D01*
X233222800Y-85136360D01*
X226060000Y-85136360D01*
X226060000Y-81788000D01*
X226047799Y-81664118D01*
X226011664Y-81544996D01*
X225952983Y-81435213D01*
X225874013Y-81338987D01*
X225777787Y-81260017D01*
X225668004Y-81201336D01*
X225548882Y-81165201D01*
X225425000Y-81153000D01*
X212471000Y-81153000D01*
X212347118Y-81165201D01*
X212227996Y-81201336D01*
X212118213Y-81260017D01*
X212021987Y-81338987D01*
X211943017Y-81435213D01*
X211884336Y-81544996D01*
X211848201Y-81664118D01*
X211836000Y-81788000D01*
X211836000Y-81944358D01*
X211615420Y-81723778D01*
X211280528Y-81500011D01*
X210908417Y-81345877D01*
X210513385Y-81267300D01*
X210110615Y-81267300D01*
X209715583Y-81345877D01*
X209343472Y-81500011D01*
X209008580Y-81723778D01*
X208723778Y-82008580D01*
X208500011Y-82343472D01*
X208345877Y-82715583D01*
X208267300Y-83110615D01*
X182626000Y-83110615D01*
X182626000Y-80715459D01*
X182645000Y-80619939D01*
X182645000Y-80416061D01*
X182626000Y-80320541D01*
X182626000Y-63044615D01*
X208140300Y-63044615D01*
X208140300Y-63447385D01*
X208218877Y-63842417D01*
X208373011Y-64214528D01*
X208596778Y-64549420D01*
X208881580Y-64834222D01*
X209070569Y-64960500D01*
X208881580Y-65086778D01*
X208596778Y-65371580D01*
X208373011Y-65706472D01*
X208218877Y-66078583D01*
X208140300Y-66473615D01*
X208140300Y-66876385D01*
X208218877Y-67271417D01*
X208373011Y-67643528D01*
X208596778Y-67978420D01*
X208881580Y-68263222D01*
X209216472Y-68486989D01*
X209588583Y-68641123D01*
X209804000Y-68683972D01*
X209804000Y-77470000D01*
X209816201Y-77593882D01*
X209852336Y-77713004D01*
X209911017Y-77822787D01*
X209989987Y-77919013D01*
X210086213Y-77997983D01*
X210195996Y-78056664D01*
X210315118Y-78092799D01*
X210439000Y-78105000D01*
X217551000Y-78105000D01*
X217674882Y-78092799D01*
X217794004Y-78056664D01*
X217903787Y-77997983D01*
X218000013Y-77919013D01*
X218078983Y-77822787D01*
X218137664Y-77713004D01*
X218173799Y-77593882D01*
X218186000Y-77470000D01*
X218186000Y-70993000D01*
X225679000Y-70993000D01*
X225802882Y-70980799D01*
X225922004Y-70944664D01*
X226031787Y-70885983D01*
X226128013Y-70807013D01*
X226206983Y-70710787D01*
X226265664Y-70601004D01*
X226301799Y-70481882D01*
X226314000Y-70358000D01*
X226314000Y-61722000D01*
X226301799Y-61598118D01*
X226265664Y-61478996D01*
X226206983Y-61369213D01*
X226128013Y-61272987D01*
X226031787Y-61194017D01*
X225922004Y-61135336D01*
X225802882Y-61099201D01*
X225679000Y-61087000D01*
X212217000Y-61087000D01*
X212093118Y-61099201D01*
X211973996Y-61135336D01*
X211864213Y-61194017D01*
X211767987Y-61272987D01*
X211689017Y-61369213D01*
X211630336Y-61478996D01*
X211594201Y-61598118D01*
X211582000Y-61722000D01*
X211582000Y-61751358D01*
X211488420Y-61657778D01*
X211153528Y-61434011D01*
X210781417Y-61279877D01*
X210386385Y-61201300D01*
X209983615Y-61201300D01*
X209588583Y-61279877D01*
X209216472Y-61434011D01*
X208881580Y-61657778D01*
X208596778Y-61942580D01*
X208373011Y-62277472D01*
X208218877Y-62649583D01*
X208140300Y-63044615D01*
X182626000Y-63044615D01*
X182626000Y-60522459D01*
X182645000Y-60426939D01*
X182645000Y-60223061D01*
X182605226Y-60023102D01*
X182527205Y-59834744D01*
X182413937Y-59665226D01*
X182269774Y-59521063D01*
X182100256Y-59407795D01*
X181911898Y-59329774D01*
X181711939Y-59290000D01*
X181508061Y-59290000D01*
X181412541Y-59309000D01*
X172769902Y-59309000D01*
X172720000Y-59304085D01*
X172670098Y-59309000D01*
X172520829Y-59323702D01*
X172329313Y-59381798D01*
X172152810Y-59476140D01*
X171998104Y-59603104D01*
X171966293Y-59641866D01*
X170815000Y-60793159D01*
X169663712Y-59641872D01*
X169631896Y-59603104D01*
X169477190Y-59476140D01*
X169300687Y-59381798D01*
X169109171Y-59323702D01*
X168959902Y-59309000D01*
X168910000Y-59304085D01*
X168860098Y-59309000D01*
X147105840Y-59309000D01*
X147066000Y-59269160D01*
X147066000Y-43758459D01*
X147085000Y-43662939D01*
X147085000Y-43459061D01*
X147045226Y-43259102D01*
X146967205Y-43070744D01*
X146853937Y-42901226D01*
X146709774Y-42757063D01*
X146540256Y-42643795D01*
X146351898Y-42565774D01*
X146151939Y-42526000D01*
X145948061Y-42526000D01*
X145748102Y-42565774D01*
X145559744Y-42643795D01*
X145390226Y-42757063D01*
X145246063Y-42901226D01*
X145132795Y-43070744D01*
X145054774Y-43259102D01*
X145015000Y-43459061D01*
X125349000Y-43459061D01*
X125349000Y-41745000D01*
X169376928Y-41745000D01*
X169376928Y-43345000D01*
X169389188Y-43469482D01*
X169425498Y-43589180D01*
X169484463Y-43699494D01*
X169563815Y-43796185D01*
X169660506Y-43875537D01*
X169770820Y-43934502D01*
X169890518Y-43970812D01*
X170015000Y-43983072D01*
X171615000Y-43983072D01*
X171739482Y-43970812D01*
X171859180Y-43934502D01*
X171969494Y-43875537D01*
X172066185Y-43796185D01*
X172145537Y-43699494D01*
X172204502Y-43589180D01*
X172240812Y-43469482D01*
X172253072Y-43345000D01*
X172253072Y-43232615D01*
X208140300Y-43232615D01*
X208140300Y-43635385D01*
X208218877Y-44030417D01*
X208373011Y-44402528D01*
X208596778Y-44737420D01*
X208881580Y-45022222D01*
X209070569Y-45148500D01*
X208881580Y-45274778D01*
X208596778Y-45559580D01*
X208373011Y-45894472D01*
X208218877Y-46266583D01*
X208140300Y-46661615D01*
X208140300Y-47064385D01*
X208218877Y-47459417D01*
X208373011Y-47831528D01*
X208596778Y-48166420D01*
X208881580Y-48451222D01*
X209216472Y-48674989D01*
X209583739Y-48827117D01*
X209562201Y-48898118D01*
X209550000Y-49022000D01*
X209550000Y-56642000D01*
X209562201Y-56765882D01*
X209598336Y-56885004D01*
X209657017Y-56994787D01*
X209735987Y-57091013D01*
X209832213Y-57169983D01*
X209941996Y-57228664D01*
X210061118Y-57264799D01*
X210185000Y-57277000D01*
X217805000Y-57277000D01*
X217928882Y-57264799D01*
X218048004Y-57228664D01*
X218157787Y-57169983D01*
X218254013Y-57091013D01*
X218332983Y-56994787D01*
X218391664Y-56885004D01*
X218427799Y-56765882D01*
X218440000Y-56642000D01*
X218440000Y-50419000D01*
X225679000Y-50419000D01*
X225802882Y-50406799D01*
X225922004Y-50370664D01*
X226031787Y-50311983D01*
X226128013Y-50233013D01*
X226206983Y-50136787D01*
X226265664Y-50027004D01*
X226301799Y-49907882D01*
X226314000Y-49784000D01*
X226314000Y-40894000D01*
X226301799Y-40770118D01*
X226265664Y-40650996D01*
X226206983Y-40541213D01*
X226128013Y-40444987D01*
X226031787Y-40366017D01*
X225922004Y-40307336D01*
X225802882Y-40271201D01*
X225679000Y-40259000D01*
X212217000Y-40259000D01*
X212093118Y-40271201D01*
X211973996Y-40307336D01*
X211864213Y-40366017D01*
X211767987Y-40444987D01*
X211689017Y-40541213D01*
X211630336Y-40650996D01*
X211594201Y-40770118D01*
X211582000Y-40894000D01*
X211582000Y-41939358D01*
X211488420Y-41845778D01*
X211153528Y-41622011D01*
X210781417Y-41467877D01*
X210386385Y-41389300D01*
X209983615Y-41389300D01*
X209588583Y-41467877D01*
X209216472Y-41622011D01*
X208881580Y-41845778D01*
X208596778Y-42130580D01*
X208373011Y-42465472D01*
X208218877Y-42837583D01*
X208140300Y-43232615D01*
X172253072Y-43232615D01*
X172253072Y-41745000D01*
X172240812Y-41620518D01*
X172204502Y-41500820D01*
X172145537Y-41390506D01*
X172066185Y-41293815D01*
X171969494Y-41214463D01*
X171859180Y-41155498D01*
X171739482Y-41119188D01*
X171615000Y-41106928D01*
X170015000Y-41106928D01*
X169890518Y-41119188D01*
X169770820Y-41155498D01*
X169660506Y-41214463D01*
X169563815Y-41293815D01*
X169484463Y-41390506D01*
X169425498Y-41500820D01*
X169389188Y-41620518D01*
X169376928Y-41745000D01*
X125349000Y-41745000D01*
X125349000Y-40894000D01*
X125336799Y-40770118D01*
X125300664Y-40650996D01*
X125241983Y-40541213D01*
X125163013Y-40444987D01*
X125066787Y-40366017D01*
X124957004Y-40307336D01*
X124837882Y-40271201D01*
X124714000Y-40259000D01*
X116332000Y-40259000D01*
X116208118Y-40271201D01*
X116088996Y-40307336D01*
X115979213Y-40366017D01*
X115882987Y-40444987D01*
X115804017Y-40541213D01*
X115745336Y-40650996D01*
X115709201Y-40770118D01*
X115697000Y-40894000D01*
X115697000Y-47371000D01*
X100838000Y-47371000D01*
X100714118Y-47383201D01*
X100594996Y-47419336D01*
X100485213Y-47478017D01*
X100388987Y-47556987D01*
X100310017Y-47653213D01*
X100251336Y-47762996D01*
X100215201Y-47882118D01*
X100203000Y-48006000D01*
X94640000Y-48006000D01*
X94640000Y-34576279D01*
X94669003Y-34280480D01*
X95879920Y-34280480D01*
X95879920Y-34695760D01*
X95960937Y-35103059D01*
X96119857Y-35486727D01*
X96350574Y-35832019D01*
X96644221Y-36125666D01*
X96989513Y-36356383D01*
X97373181Y-36515303D01*
X97780480Y-36596320D01*
X98195760Y-36596320D01*
X98603059Y-36515303D01*
X98986727Y-36356383D01*
X99332019Y-36125666D01*
X99625666Y-35832019D01*
X99856383Y-35486727D01*
X100015303Y-35103059D01*
X100096320Y-34695760D01*
X100096320Y-34406408D01*
X104902000Y-34406408D01*
X104902000Y-34681592D01*
X104955686Y-34951490D01*
X105060995Y-35205727D01*
X105213880Y-35434535D01*
X105408465Y-35629120D01*
X105637273Y-35782005D01*
X105891510Y-35887314D01*
X106161408Y-35941000D01*
X106436592Y-35941000D01*
X106706490Y-35887314D01*
X106960727Y-35782005D01*
X107189535Y-35629120D01*
X107384120Y-35434535D01*
X107537005Y-35205727D01*
X107569000Y-35128485D01*
X107600995Y-35205727D01*
X107753880Y-35434535D01*
X107948465Y-35629120D01*
X108177273Y-35782005D01*
X108431510Y-35887314D01*
X108701408Y-35941000D01*
X108976592Y-35941000D01*
X109246490Y-35887314D01*
X109500727Y-35782005D01*
X109729535Y-35629120D01*
X109924120Y-35434535D01*
X110077005Y-35205727D01*
X110109000Y-35128485D01*
X110140995Y-35205727D01*
X110293880Y-35434535D01*
X110488465Y-35629120D01*
X110717273Y-35782005D01*
X110971510Y-35887314D01*
X111241408Y-35941000D01*
X111516592Y-35941000D01*
X111786490Y-35887314D01*
X112040727Y-35782005D01*
X112269535Y-35629120D01*
X112464120Y-35434535D01*
X112617005Y-35205727D01*
X112649000Y-35128485D01*
X112680995Y-35205727D01*
X112833880Y-35434535D01*
X113028465Y-35629120D01*
X113257273Y-35782005D01*
X113511510Y-35887314D01*
X113781408Y-35941000D01*
X114056592Y-35941000D01*
X114326490Y-35887314D01*
X114580727Y-35782005D01*
X114809535Y-35629120D01*
X115004120Y-35434535D01*
X115157005Y-35205727D01*
X115189000Y-35128485D01*
X115220995Y-35205727D01*
X115373880Y-35434535D01*
X115568465Y-35629120D01*
X115797273Y-35782005D01*
X116051510Y-35887314D01*
X116321408Y-35941000D01*
X116596592Y-35941000D01*
X116866490Y-35887314D01*
X117120727Y-35782005D01*
X117349535Y-35629120D01*
X117544120Y-35434535D01*
X117697005Y-35205727D01*
X117729000Y-35128485D01*
X117760995Y-35205727D01*
X117913880Y-35434535D01*
X118108465Y-35629120D01*
X118337273Y-35782005D01*
X118591510Y-35887314D01*
X118861408Y-35941000D01*
X119136592Y-35941000D01*
X119406490Y-35887314D01*
X119660727Y-35782005D01*
X119889535Y-35629120D01*
X120084120Y-35434535D01*
X120237005Y-35205727D01*
X120269000Y-35128485D01*
X120300995Y-35205727D01*
X120453880Y-35434535D01*
X120648465Y-35629120D01*
X120877273Y-35782005D01*
X121131510Y-35887314D01*
X121401408Y-35941000D01*
X121676592Y-35941000D01*
X121946490Y-35887314D01*
X122200727Y-35782005D01*
X122429535Y-35629120D01*
X122624120Y-35434535D01*
X122777005Y-35205727D01*
X122882314Y-34951490D01*
X122936000Y-34681592D01*
X122936000Y-34406408D01*
X122882314Y-34136510D01*
X122877547Y-34125000D01*
X155914928Y-34125000D01*
X155914928Y-35725000D01*
X155927188Y-35849482D01*
X155963498Y-35969180D01*
X156022463Y-36079494D01*
X156101815Y-36176185D01*
X156198506Y-36255537D01*
X156308820Y-36314502D01*
X156428518Y-36350812D01*
X156553000Y-36363072D01*
X158153000Y-36363072D01*
X158277482Y-36350812D01*
X158397180Y-36314502D01*
X158507494Y-36255537D01*
X158604185Y-36176185D01*
X158683537Y-36079494D01*
X158742502Y-35969180D01*
X158778812Y-35849482D01*
X158791072Y-35725000D01*
X158791072Y-34787408D01*
X163068000Y-34787408D01*
X163068000Y-35062592D01*
X163121686Y-35332490D01*
X163226995Y-35586727D01*
X163379880Y-35815535D01*
X163574465Y-36010120D01*
X163803273Y-36163005D01*
X164057510Y-36268314D01*
X164327408Y-36322000D01*
X164602592Y-36322000D01*
X164872490Y-36268314D01*
X165126727Y-36163005D01*
X165355535Y-36010120D01*
X165550120Y-35815535D01*
X165703005Y-35586727D01*
X165808314Y-35332490D01*
X165862000Y-35062592D01*
X165862000Y-34787408D01*
X165808314Y-34517510D01*
X165762294Y-34406408D01*
X208407000Y-34406408D01*
X208407000Y-34681592D01*
X208460686Y-34951490D01*
X208565995Y-35205727D01*
X208718880Y-35434535D01*
X208913465Y-35629120D01*
X209142273Y-35782005D01*
X209396510Y-35887314D01*
X209666408Y-35941000D01*
X209941592Y-35941000D01*
X210211490Y-35887314D01*
X210465727Y-35782005D01*
X210694535Y-35629120D01*
X210889120Y-35434535D01*
X211042005Y-35205727D01*
X211074000Y-35128485D01*
X211105995Y-35205727D01*
X211258880Y-35434535D01*
X211453465Y-35629120D01*
X211682273Y-35782005D01*
X211936510Y-35887314D01*
X212206408Y-35941000D01*
X212481592Y-35941000D01*
X212751490Y-35887314D01*
X213005727Y-35782005D01*
X213234535Y-35629120D01*
X213429120Y-35434535D01*
X213582005Y-35205727D01*
X213614000Y-35128485D01*
X213645995Y-35205727D01*
X213798880Y-35434535D01*
X213993465Y-35629120D01*
X214222273Y-35782005D01*
X214476510Y-35887314D01*
X214746408Y-35941000D01*
X215021592Y-35941000D01*
X215291490Y-35887314D01*
X215545727Y-35782005D01*
X215774535Y-35629120D01*
X215969120Y-35434535D01*
X216122005Y-35205727D01*
X216154000Y-35128485D01*
X216185995Y-35205727D01*
X216338880Y-35434535D01*
X216533465Y-35629120D01*
X216762273Y-35782005D01*
X217016510Y-35887314D01*
X217286408Y-35941000D01*
X217561592Y-35941000D01*
X217831490Y-35887314D01*
X218085727Y-35782005D01*
X218314535Y-35629120D01*
X218509120Y-35434535D01*
X218662005Y-35205727D01*
X218694000Y-35128485D01*
X218725995Y-35205727D01*
X218878880Y-35434535D01*
X219073465Y-35629120D01*
X219302273Y-35782005D01*
X219556510Y-35887314D01*
X219826408Y-35941000D01*
X220101592Y-35941000D01*
X220371490Y-35887314D01*
X220625727Y-35782005D01*
X220854535Y-35629120D01*
X221049120Y-35434535D01*
X221202005Y-35205727D01*
X221234000Y-35128485D01*
X221265995Y-35205727D01*
X221418880Y-35434535D01*
X221613465Y-35629120D01*
X221842273Y-35782005D01*
X222096510Y-35887314D01*
X222366408Y-35941000D01*
X222641592Y-35941000D01*
X222911490Y-35887314D01*
X223165727Y-35782005D01*
X223394535Y-35629120D01*
X223589120Y-35434535D01*
X223742005Y-35205727D01*
X223774000Y-35128485D01*
X223805995Y-35205727D01*
X223958880Y-35434535D01*
X224153465Y-35629120D01*
X224382273Y-35782005D01*
X224636510Y-35887314D01*
X224906408Y-35941000D01*
X225181592Y-35941000D01*
X225451490Y-35887314D01*
X225705727Y-35782005D01*
X225934535Y-35629120D01*
X226129120Y-35434535D01*
X226282005Y-35205727D01*
X226314000Y-35128485D01*
X226345995Y-35205727D01*
X226498880Y-35434535D01*
X226693465Y-35629120D01*
X226922273Y-35782005D01*
X227176510Y-35887314D01*
X227446408Y-35941000D01*
X227721592Y-35941000D01*
X227991490Y-35887314D01*
X228245727Y-35782005D01*
X228474535Y-35629120D01*
X228669120Y-35434535D01*
X228822005Y-35205727D01*
X228927314Y-34951490D01*
X228981000Y-34681592D01*
X228981000Y-34406408D01*
X228955952Y-34280480D01*
X233278680Y-34280480D01*
X233278680Y-34695760D01*
X233359697Y-35103059D01*
X233518617Y-35486727D01*
X233749334Y-35832019D01*
X234042981Y-36125666D01*
X234388273Y-36356383D01*
X234771941Y-36515303D01*
X235179240Y-36596320D01*
X235594520Y-36596320D01*
X236001819Y-36515303D01*
X236385487Y-36356383D01*
X236730779Y-36125666D01*
X237024426Y-35832019D01*
X237255143Y-35486727D01*
X237414063Y-35103059D01*
X237495080Y-34695760D01*
X237495080Y-34280480D01*
X237414063Y-33873181D01*
X237255143Y-33489513D01*
X237024426Y-33144221D01*
X236730779Y-32850574D01*
X236385487Y-32619857D01*
X236001819Y-32460937D01*
X235594520Y-32379920D01*
X235179240Y-32379920D01*
X234771941Y-32460937D01*
X234388273Y-32619857D01*
X234042981Y-32850574D01*
X233749334Y-33144221D01*
X233518617Y-33489513D01*
X233359697Y-33873181D01*
X233278680Y-34280480D01*
X228955952Y-34280480D01*
X228927314Y-34136510D01*
X228822005Y-33882273D01*
X228669120Y-33653465D01*
X228474535Y-33458880D01*
X228245727Y-33305995D01*
X227991490Y-33200686D01*
X227721592Y-33147000D01*
X227446408Y-33147000D01*
X227176510Y-33200686D01*
X226922273Y-33305995D01*
X226693465Y-33458880D01*
X226498880Y-33653465D01*
X226345995Y-33882273D01*
X226314000Y-33959515D01*
X226282005Y-33882273D01*
X226129120Y-33653465D01*
X225934535Y-33458880D01*
X225705727Y-33305995D01*
X225451490Y-33200686D01*
X225181592Y-33147000D01*
X224906408Y-33147000D01*
X224636510Y-33200686D01*
X224382273Y-33305995D01*
X224153465Y-33458880D01*
X223958880Y-33653465D01*
X223805995Y-33882273D01*
X223774000Y-33959515D01*
X223742005Y-33882273D01*
X223589120Y-33653465D01*
X223394535Y-33458880D01*
X223165727Y-33305995D01*
X222911490Y-33200686D01*
X222641592Y-33147000D01*
X222366408Y-33147000D01*
X222096510Y-33200686D01*
X221842273Y-33305995D01*
X221613465Y-33458880D01*
X221418880Y-33653465D01*
X221265995Y-33882273D01*
X221234000Y-33959515D01*
X221202005Y-33882273D01*
X221049120Y-33653465D01*
X220854535Y-33458880D01*
X220625727Y-33305995D01*
X220371490Y-33200686D01*
X220101592Y-33147000D01*
X219826408Y-33147000D01*
X219556510Y-33200686D01*
X219302273Y-33305995D01*
X219073465Y-33458880D01*
X218878880Y-33653465D01*
X218725995Y-33882273D01*
X218694000Y-33959515D01*
X218662005Y-33882273D01*
X218509120Y-33653465D01*
X218314535Y-33458880D01*
X218085727Y-33305995D01*
X217831490Y-33200686D01*
X217561592Y-33147000D01*
X217286408Y-33147000D01*
X217016510Y-33200686D01*
X216762273Y-33305995D01*
X216533465Y-33458880D01*
X216338880Y-33653465D01*
X216185995Y-33882273D01*
X216154000Y-33959515D01*
X216122005Y-33882273D01*
X215969120Y-33653465D01*
X215774535Y-33458880D01*
X215545727Y-33305995D01*
X215291490Y-33200686D01*
X215021592Y-33147000D01*
X214746408Y-33147000D01*
X214476510Y-33200686D01*
X214222273Y-33305995D01*
X213993465Y-33458880D01*
X213798880Y-33653465D01*
X213645995Y-33882273D01*
X213614000Y-33959515D01*
X213582005Y-33882273D01*
X213429120Y-33653465D01*
X213234535Y-33458880D01*
X213005727Y-33305995D01*
X212751490Y-33200686D01*
X212481592Y-33147000D01*
X212206408Y-33147000D01*
X211936510Y-33200686D01*
X211682273Y-33305995D01*
X211453465Y-33458880D01*
X211258880Y-33653465D01*
X211105995Y-33882273D01*
X211074000Y-33959515D01*
X211042005Y-33882273D01*
X210889120Y-33653465D01*
X210694535Y-33458880D01*
X210465727Y-33305995D01*
X210211490Y-33200686D01*
X209941592Y-33147000D01*
X209666408Y-33147000D01*
X209396510Y-33200686D01*
X209142273Y-33305995D01*
X208913465Y-33458880D01*
X208718880Y-33653465D01*
X208565995Y-33882273D01*
X208460686Y-34136510D01*
X208407000Y-34406408D01*
X165762294Y-34406408D01*
X165703005Y-34263273D01*
X165550120Y-34034465D01*
X165355535Y-33839880D01*
X165126727Y-33686995D01*
X164872490Y-33581686D01*
X164602592Y-33528000D01*
X164327408Y-33528000D01*
X164057510Y-33581686D01*
X163803273Y-33686995D01*
X163574465Y-33839880D01*
X163379880Y-34034465D01*
X163226995Y-34263273D01*
X163121686Y-34517510D01*
X163068000Y-34787408D01*
X158791072Y-34787408D01*
X158791072Y-34125000D01*
X158778812Y-34000518D01*
X158742502Y-33880820D01*
X158683537Y-33770506D01*
X158604185Y-33673815D01*
X158507494Y-33594463D01*
X158397180Y-33535498D01*
X158277482Y-33499188D01*
X158153000Y-33486928D01*
X156553000Y-33486928D01*
X156428518Y-33499188D01*
X156308820Y-33535498D01*
X156198506Y-33594463D01*
X156101815Y-33673815D01*
X156022463Y-33770506D01*
X155963498Y-33880820D01*
X155927188Y-34000518D01*
X155914928Y-34125000D01*
X122877547Y-34125000D01*
X122777005Y-33882273D01*
X122624120Y-33653465D01*
X122429535Y-33458880D01*
X122200727Y-33305995D01*
X121946490Y-33200686D01*
X121676592Y-33147000D01*
X121401408Y-33147000D01*
X121131510Y-33200686D01*
X120877273Y-33305995D01*
X120648465Y-33458880D01*
X120453880Y-33653465D01*
X120300995Y-33882273D01*
X120269000Y-33959515D01*
X120237005Y-33882273D01*
X120084120Y-33653465D01*
X119889535Y-33458880D01*
X119660727Y-33305995D01*
X119406490Y-33200686D01*
X119136592Y-33147000D01*
X118861408Y-33147000D01*
X118591510Y-33200686D01*
X118337273Y-33305995D01*
X118108465Y-33458880D01*
X117913880Y-33653465D01*
X117760995Y-33882273D01*
X117729000Y-33959515D01*
X117697005Y-33882273D01*
X117544120Y-33653465D01*
X117349535Y-33458880D01*
X117120727Y-33305995D01*
X116866490Y-33200686D01*
X116596592Y-33147000D01*
X116321408Y-33147000D01*
X116051510Y-33200686D01*
X115797273Y-33305995D01*
X115568465Y-33458880D01*
X115373880Y-33653465D01*
X115220995Y-33882273D01*
X115189000Y-33959515D01*
X115157005Y-33882273D01*
X115004120Y-33653465D01*
X114809535Y-33458880D01*
X114580727Y-33305995D01*
X114326490Y-33200686D01*
X114056592Y-33147000D01*
X113781408Y-33147000D01*
X113511510Y-33200686D01*
X113257273Y-33305995D01*
X113028465Y-33458880D01*
X112833880Y-33653465D01*
X112680995Y-33882273D01*
X112649000Y-33959515D01*
X112617005Y-33882273D01*
X112464120Y-33653465D01*
X112269535Y-33458880D01*
X112040727Y-33305995D01*
X111786490Y-33200686D01*
X111516592Y-33147000D01*
X111241408Y-33147000D01*
X110971510Y-33200686D01*
X110717273Y-33305995D01*
X110488465Y-33458880D01*
X110293880Y-33653465D01*
X110140995Y-33882273D01*
X110109000Y-33959515D01*
X110077005Y-33882273D01*
X109924120Y-33653465D01*
X109729535Y-33458880D01*
X109500727Y-33305995D01*
X109246490Y-33200686D01*
X108976592Y-33147000D01*
X108701408Y-33147000D01*
X108431510Y-33200686D01*
X108177273Y-33305995D01*
X107948465Y-33458880D01*
X107753880Y-33653465D01*
X107600995Y-33882273D01*
X107569000Y-33959515D01*
X107537005Y-33882273D01*
X107384120Y-33653465D01*
X107189535Y-33458880D01*
X106960727Y-33305995D01*
X106706490Y-33200686D01*
X106436592Y-33147000D01*
X106161408Y-33147000D01*
X105891510Y-33200686D01*
X105637273Y-33305995D01*
X105408465Y-33458880D01*
X105213880Y-33653465D01*
X105060995Y-33882273D01*
X104955686Y-34136510D01*
X104902000Y-34406408D01*
X100096320Y-34406408D01*
X100096320Y-34280480D01*
X100015303Y-33873181D01*
X99856383Y-33489513D01*
X99625666Y-33144221D01*
X99332019Y-32850574D01*
X98986727Y-32619857D01*
X98603059Y-32460937D01*
X98195760Y-32379920D01*
X97780480Y-32379920D01*
X97373181Y-32460937D01*
X96989513Y-32619857D01*
X96644221Y-32850574D01*
X96350574Y-33144221D01*
X96119857Y-33489513D01*
X95960937Y-33873181D01*
X95879920Y-34280480D01*
X94669003Y-34280480D01*
X94707933Y-33883442D01*
X94899772Y-33248040D01*
X95211373Y-32662006D01*
X95630870Y-32147653D01*
X96142275Y-31724581D01*
X96726123Y-31408896D01*
X97360170Y-31212625D01*
X98051155Y-31140000D01*
X235425721Y-31140000D01*
X236093891Y-31205515D01*
X236093891Y-31205515D01*
G37*
X236093891Y-31205515D02*
X236705565Y-31390190D01*
X237269710Y-31690151D01*
X237764856Y-32093982D01*
X238172133Y-32586297D01*
X238476026Y-33148336D01*
X238664969Y-33758709D01*
X238735001Y-34425022D01*
X238735000Y-140810721D01*
X238669485Y-141478892D01*
X238484812Y-142090561D01*
X238184848Y-142654711D01*
X237781018Y-143149855D01*
X237288703Y-143557133D01*
X236726664Y-143861026D01*
X236116292Y-144049969D01*
X235449978Y-144120001D01*
X98076409Y-144119999D01*
X98044000Y-144116807D01*
X98033188Y-144117872D01*
X97384652Y-144075337D01*
X96766956Y-143910377D01*
X96193072Y-143628583D01*
X95684844Y-143240683D01*
X95261645Y-142761461D01*
X94939585Y-142209162D01*
X94730933Y-141604829D01*
X94640826Y-140951067D01*
X94640000Y-140714555D01*
X94640000Y-140564240D01*
X95879920Y-140564240D01*
X95879920Y-140979520D01*
X95960937Y-141386819D01*
X96119857Y-141770487D01*
X96350574Y-142115779D01*
X96644221Y-142409426D01*
X96989513Y-142640143D01*
X97373181Y-142799063D01*
X97780480Y-142880080D01*
X98195760Y-142880080D01*
X98603059Y-142799063D01*
X98986727Y-142640143D01*
X99332019Y-142409426D01*
X99625666Y-142115779D01*
X99856383Y-141770487D01*
X100015303Y-141386819D01*
X100096320Y-140979520D01*
X100096320Y-140564240D01*
X100015303Y-140156941D01*
X99856383Y-139773273D01*
X99625666Y-139427981D01*
X99332019Y-139134334D01*
X98986727Y-138903617D01*
X98603059Y-138744697D01*
X98195760Y-138663680D01*
X97780480Y-138663680D01*
X97373181Y-138744697D01*
X96989513Y-138903617D01*
X96644221Y-139134334D01*
X96350574Y-139427981D01*
X96119857Y-139773273D01*
X95960937Y-140156941D01*
X95879920Y-140564240D01*
X94640000Y-140564240D01*
X94640000Y-131515000D01*
X174056928Y-131515000D01*
X174056928Y-133915000D01*
X174069188Y-134039482D01*
X174105498Y-134159180D01*
X174164463Y-134269494D01*
X174243815Y-134366185D01*
X174340506Y-134445537D01*
X174450820Y-134504502D01*
X174570518Y-134540812D01*
X174695000Y-134553072D01*
X177095000Y-134553072D01*
X177219482Y-134540812D01*
X177339180Y-134504502D01*
X177449494Y-134445537D01*
X177546185Y-134366185D01*
X177625537Y-134269494D01*
X177684502Y-134159180D01*
X177720812Y-134039482D01*
X177733072Y-133915000D01*
X177733072Y-131515000D01*
X188661928Y-131515000D01*
X188661928Y-133915000D01*
X188674188Y-134039482D01*
X188710498Y-134159180D01*
X188769463Y-134269494D01*
X188848815Y-134366185D01*
X188945506Y-134445537D01*
X189055820Y-134504502D01*
X189175518Y-134540812D01*
X189300000Y-134553072D01*
X191700000Y-134553072D01*
X191824482Y-134540812D01*
X191944180Y-134504502D01*
X192054494Y-134445537D01*
X192151185Y-134366185D01*
X192230537Y-134269494D01*
X192289502Y-134159180D01*
X192325812Y-134039482D01*
X192338072Y-133915000D01*
X192338072Y-131751853D01*
X202311000Y-131751853D01*
X202311000Y-133678147D01*
X202686802Y-135567429D01*
X203423963Y-137347093D01*
X204494155Y-138948749D01*
X205856251Y-140310845D01*
X207457907Y-141381037D01*
X209237571Y-142118198D01*
X211126853Y-142494000D01*
X213053147Y-142494000D01*
X214942429Y-142118198D01*
X216722093Y-141381037D01*
X217944516Y-140564240D01*
X233278680Y-140564240D01*
X233278680Y-140979520D01*
X233359697Y-141386819D01*
X233518617Y-141770487D01*
X233749334Y-142115779D01*
X234042981Y-142409426D01*
X234388273Y-142640143D01*
X234771941Y-142799063D01*
X235179240Y-142880080D01*
X235594520Y-142880080D01*
X236001819Y-142799063D01*
X236385487Y-142640143D01*
X236730779Y-142409426D01*
X237024426Y-142115779D01*
X237255143Y-141770487D01*
X237414063Y-141386819D01*
X237495080Y-140979520D01*
X237495080Y-140564240D01*
X237414063Y-140156941D01*
X237255143Y-139773273D01*
X237024426Y-139427981D01*
X236730779Y-139134334D01*
X236385487Y-138903617D01*
X236001819Y-138744697D01*
X235594520Y-138663680D01*
X235179240Y-138663680D01*
X234771941Y-138744697D01*
X234388273Y-138903617D01*
X234042981Y-139134334D01*
X233749334Y-139427981D01*
X233518617Y-139773273D01*
X233359697Y-140156941D01*
X233278680Y-140564240D01*
X217944516Y-140564240D01*
X218323749Y-140310845D01*
X219685845Y-138948749D01*
X220756037Y-137347093D01*
X221493198Y-135567429D01*
X221869000Y-133678147D01*
X221869000Y-131751853D01*
X221493198Y-129862571D01*
X220756037Y-128082907D01*
X219685845Y-126481251D01*
X218323749Y-125119155D01*
X216722093Y-124048963D01*
X214942429Y-123311802D01*
X213053147Y-122936000D01*
X211126853Y-122936000D01*
X209237571Y-123311802D01*
X207457907Y-124048963D01*
X205856251Y-125119155D01*
X204494155Y-126481251D01*
X203423963Y-128082907D01*
X202686802Y-129862571D01*
X202311000Y-131751853D01*
X192338072Y-131751853D01*
X192338072Y-131515000D01*
X192325812Y-131390518D01*
X192289502Y-131270820D01*
X192230537Y-131160506D01*
X192151185Y-131063815D01*
X192054494Y-130984463D01*
X191944180Y-130925498D01*
X191824482Y-130889188D01*
X191700000Y-130876928D01*
X189300000Y-130876928D01*
X189175518Y-130889188D01*
X189055820Y-130925498D01*
X188945506Y-130984463D01*
X188848815Y-131063815D01*
X188769463Y-131160506D01*
X188710498Y-131270820D01*
X188674188Y-131390518D01*
X188661928Y-131515000D01*
X177733072Y-131515000D01*
X177720812Y-131390518D01*
X177684502Y-131270820D01*
X177625537Y-131160506D01*
X177546185Y-131063815D01*
X177449494Y-130984463D01*
X177339180Y-130925498D01*
X177219482Y-130889188D01*
X177095000Y-130876928D01*
X174695000Y-130876928D01*
X174570518Y-130889188D01*
X174450820Y-130925498D01*
X174340506Y-130984463D01*
X174243815Y-131063815D01*
X174164463Y-131160506D01*
X174105498Y-131270820D01*
X174069188Y-131390518D01*
X174056928Y-131515000D01*
X94640000Y-131515000D01*
X94640000Y-127534268D01*
X174060000Y-127534268D01*
X174060000Y-127895732D01*
X174130518Y-128250250D01*
X174268844Y-128584199D01*
X174469662Y-128884744D01*
X174725256Y-129140338D01*
X175025801Y-129341156D01*
X175359750Y-129479482D01*
X175714268Y-129550000D01*
X176075732Y-129550000D01*
X176430250Y-129479482D01*
X176764199Y-129341156D01*
X177064744Y-129140338D01*
X177320338Y-128884744D01*
X177521156Y-128584199D01*
X177659482Y-128250250D01*
X177730000Y-127895732D01*
X177730000Y-127534268D01*
X188665000Y-127534268D01*
X188665000Y-127895732D01*
X188735518Y-128250250D01*
X188873844Y-128584199D01*
X189074662Y-128884744D01*
X189330256Y-129140338D01*
X189630801Y-129341156D01*
X189964750Y-129479482D01*
X190319268Y-129550000D01*
X190680732Y-129550000D01*
X191035250Y-129479482D01*
X191369199Y-129341156D01*
X191669744Y-129140338D01*
X191925338Y-128884744D01*
X192126156Y-128584199D01*
X192264482Y-128250250D01*
X192335000Y-127895732D01*
X192335000Y-127534268D01*
X192264482Y-127179750D01*
X192126156Y-126845801D01*
X191925338Y-126545256D01*
X191669744Y-126289662D01*
X191369199Y-126088844D01*
X191035250Y-125950518D01*
X190680732Y-125880000D01*
X190319268Y-125880000D01*
X189964750Y-125950518D01*
X189630801Y-126088844D01*
X189330256Y-126289662D01*
X189074662Y-126545256D01*
X188873844Y-126845801D01*
X188735518Y-127179750D01*
X188665000Y-127534268D01*
X177730000Y-127534268D01*
X177659482Y-127179750D01*
X177521156Y-126845801D01*
X177320338Y-126545256D01*
X177064744Y-126289662D01*
X176764199Y-126088844D01*
X176430250Y-125950518D01*
X176075732Y-125880000D01*
X175714268Y-125880000D01*
X175359750Y-125950518D01*
X175025801Y-126088844D01*
X174725256Y-126289662D01*
X174469662Y-126545256D01*
X174268844Y-126845801D01*
X174130518Y-127179750D01*
X174060000Y-127534268D01*
X94640000Y-127534268D01*
X94640000Y-115005000D01*
X166436928Y-115005000D01*
X166436928Y-117405000D01*
X166449188Y-117529482D01*
X166485498Y-117649180D01*
X166544463Y-117759494D01*
X166623815Y-117856185D01*
X166720506Y-117935537D01*
X166830820Y-117994502D01*
X166950518Y-118030812D01*
X167075000Y-118043072D01*
X169475000Y-118043072D01*
X169599482Y-118030812D01*
X169719180Y-117994502D01*
X169829494Y-117935537D01*
X169926185Y-117856185D01*
X170005537Y-117759494D01*
X170064502Y-117649180D01*
X170100812Y-117529482D01*
X170113072Y-117405000D01*
X170113072Y-116024268D01*
X171440000Y-116024268D01*
X171440000Y-116385732D01*
X171510518Y-116740250D01*
X171648844Y-117074199D01*
X171849662Y-117374744D01*
X172105256Y-117630338D01*
X172405801Y-117831156D01*
X172739750Y-117969482D01*
X173094268Y-118040000D01*
X173455732Y-118040000D01*
X173810250Y-117969482D01*
X174144199Y-117831156D01*
X174444744Y-117630338D01*
X174700338Y-117374744D01*
X174901156Y-117074199D01*
X175039482Y-116740250D01*
X175110000Y-116385732D01*
X175110000Y-116024268D01*
X175039482Y-115669750D01*
X174901156Y-115335801D01*
X174700338Y-115035256D01*
X174444744Y-114779662D01*
X174144199Y-114578844D01*
X173810250Y-114440518D01*
X173455732Y-114370000D01*
X173094268Y-114370000D01*
X172739750Y-114440518D01*
X172405801Y-114578844D01*
X172105256Y-114779662D01*
X171849662Y-115035256D01*
X171648844Y-115335801D01*
X171510518Y-115669750D01*
X171440000Y-116024268D01*
X170113072Y-116024268D01*
X170113072Y-115005000D01*
X170100812Y-114880518D01*
X170064502Y-114760820D01*
X170005537Y-114650506D01*
X169926185Y-114553815D01*
X169829494Y-114474463D01*
X169719180Y-114415498D01*
X169599482Y-114379188D01*
X169475000Y-114366928D01*
X167075000Y-114366928D01*
X166950518Y-114379188D01*
X166830820Y-114415498D01*
X166720506Y-114474463D01*
X166623815Y-114553815D01*
X166544463Y-114650506D01*
X166485498Y-114760820D01*
X166449188Y-114880518D01*
X166436928Y-115005000D01*
X94640000Y-115005000D01*
X94640000Y-99568000D01*
X100203000Y-99568000D01*
X100203000Y-114300000D01*
X100215201Y-114423882D01*
X100251336Y-114543004D01*
X100310017Y-114652787D01*
X100388987Y-114749013D01*
X100485213Y-114827983D01*
X100594996Y-114886664D01*
X100714118Y-114922799D01*
X100838000Y-114935000D01*
X113538000Y-114935000D01*
X113661882Y-114922799D01*
X113781004Y-114886664D01*
X113890787Y-114827983D01*
X113987013Y-114749013D01*
X114065983Y-114652787D01*
X114124664Y-114543004D01*
X114160799Y-114423882D01*
X114173000Y-114300000D01*
X114173000Y-113541396D01*
X114362778Y-113825420D01*
X114647580Y-114110222D01*
X114982472Y-114333989D01*
X115354583Y-114488123D01*
X115749615Y-114566700D01*
X116152385Y-114566700D01*
X116547417Y-114488123D01*
X116919528Y-114333989D01*
X117254420Y-114110222D01*
X117539222Y-113825420D01*
X117762989Y-113490528D01*
X117917123Y-113118417D01*
X117995700Y-112723385D01*
X117995700Y-112320615D01*
X117917123Y-111925583D01*
X117762989Y-111553472D01*
X117539222Y-111218580D01*
X117254420Y-110933778D01*
X117065431Y-110807500D01*
X117254420Y-110681222D01*
X117539222Y-110396420D01*
X117762989Y-110061528D01*
X117917123Y-109689417D01*
X117995700Y-109294385D01*
X117995700Y-108891615D01*
X117917123Y-108496583D01*
X117762989Y-108124472D01*
X117539222Y-107789580D01*
X117254420Y-107504778D01*
X116970396Y-107315000D01*
X124206000Y-107315000D01*
X124329882Y-107302799D01*
X124449004Y-107266664D01*
X124558787Y-107207983D01*
X124655013Y-107129013D01*
X124733983Y-107032787D01*
X124792664Y-106923004D01*
X124828799Y-106803882D01*
X124841000Y-106680000D01*
X124841000Y-100400000D01*
X166436928Y-100400000D01*
X166436928Y-102800000D01*
X166449188Y-102924482D01*
X166485498Y-103044180D01*
X166544463Y-103154494D01*
X166623815Y-103251185D01*
X166720506Y-103330537D01*
X166830820Y-103389502D01*
X166950518Y-103425812D01*
X167075000Y-103438072D01*
X169475000Y-103438072D01*
X169599482Y-103425812D01*
X169719180Y-103389502D01*
X169829494Y-103330537D01*
X169926185Y-103251185D01*
X170005537Y-103154494D01*
X170064502Y-103044180D01*
X170100812Y-102924482D01*
X170113072Y-102800000D01*
X170113072Y-101419268D01*
X171440000Y-101419268D01*
X171440000Y-101780732D01*
X171510518Y-102135250D01*
X171648844Y-102469199D01*
X171849662Y-102769744D01*
X172105256Y-103025338D01*
X172405801Y-103226156D01*
X172739750Y-103364482D01*
X173094268Y-103435000D01*
X173455732Y-103435000D01*
X173810250Y-103364482D01*
X174144199Y-103226156D01*
X174444744Y-103025338D01*
X174700338Y-102769744D01*
X174901156Y-102469199D01*
X175039482Y-102135250D01*
X175110000Y-101780732D01*
X175110000Y-101419268D01*
X175039482Y-101064750D01*
X174901156Y-100730801D01*
X174700338Y-100430256D01*
X174444744Y-100174662D01*
X174144199Y-99973844D01*
X173810250Y-99835518D01*
X173455732Y-99765000D01*
X173094268Y-99765000D01*
X172739750Y-99835518D01*
X172405801Y-99973844D01*
X172105256Y-100174662D01*
X171849662Y-100430256D01*
X171648844Y-100730801D01*
X171510518Y-101064750D01*
X171440000Y-101419268D01*
X170113072Y-101419268D01*
X170113072Y-100400000D01*
X170100812Y-100275518D01*
X170064502Y-100155820D01*
X170005537Y-100045506D01*
X169926185Y-99948815D01*
X169829494Y-99869463D01*
X169719180Y-99810498D01*
X169599482Y-99774188D01*
X169475000Y-99761928D01*
X167075000Y-99761928D01*
X166950518Y-99774188D01*
X166830820Y-99810498D01*
X166720506Y-99869463D01*
X166623815Y-99948815D01*
X166544463Y-100045506D01*
X166485498Y-100155820D01*
X166449188Y-100275518D01*
X166436928Y-100400000D01*
X124841000Y-100400000D01*
X124841000Y-92202000D01*
X124828799Y-92078118D01*
X124792664Y-91958996D01*
X124733983Y-91849213D01*
X124655013Y-91752987D01*
X124558787Y-91674017D01*
X124449004Y-91615336D01*
X124329882Y-91579201D01*
X124206000Y-91567000D01*
X116078000Y-91567000D01*
X115954118Y-91579201D01*
X115834996Y-91615336D01*
X115725213Y-91674017D01*
X115628987Y-91752987D01*
X115550017Y-91849213D01*
X115491336Y-91958996D01*
X115455201Y-92078118D01*
X115443000Y-92202000D01*
X115443000Y-98933000D01*
X100838000Y-98933000D01*
X100714118Y-98945201D01*
X100594996Y-98981336D01*
X100485213Y-99040017D01*
X100388987Y-99118987D01*
X100310017Y-99215213D01*
X100251336Y-99324996D01*
X100215201Y-99444118D01*
X100203000Y-99568000D01*
X94640000Y-99568000D01*
X94640000Y-77389360D01*
X95935800Y-77389360D01*
X95935800Y-77804640D01*
X96016817Y-78211939D01*
X96175737Y-78595607D01*
X96406454Y-78940899D01*
X96700101Y-79234546D01*
X97045393Y-79465263D01*
X97429061Y-79624183D01*
X97836360Y-79705200D01*
X98251640Y-79705200D01*
X98658939Y-79624183D01*
X99042607Y-79465263D01*
X99387899Y-79234546D01*
X99681546Y-78940899D01*
X99912263Y-78595607D01*
X100071183Y-78211939D01*
X100152200Y-77804640D01*
X100152200Y-77389360D01*
X100071183Y-76982061D01*
X99912263Y-76598393D01*
X99681546Y-76253101D01*
X99387899Y-75959454D01*
X99042607Y-75728737D01*
X98658939Y-75569817D01*
X98251640Y-75488800D01*
X97836360Y-75488800D01*
X97429061Y-75569817D01*
X97045393Y-75728737D01*
X96700101Y-75959454D01*
X96406454Y-76253101D01*
X96175737Y-76598393D01*
X96016817Y-76982061D01*
X95935800Y-77389360D01*
X94640000Y-77389360D01*
X94640000Y-73152000D01*
X100203000Y-73152000D01*
X100203000Y-87884000D01*
X100215201Y-88007882D01*
X100251336Y-88127004D01*
X100310017Y-88236787D01*
X100388987Y-88333013D01*
X100485213Y-88411983D01*
X100594996Y-88470664D01*
X100714118Y-88506799D01*
X100838000Y-88519000D01*
X115570000Y-88519000D01*
X115693882Y-88506799D01*
X115813004Y-88470664D01*
X115922787Y-88411983D01*
X116019013Y-88333013D01*
X116097983Y-88236787D01*
X116156664Y-88127004D01*
X116192799Y-88007882D01*
X116205000Y-87884000D01*
X116205000Y-87727642D01*
X116425580Y-87948222D01*
X116760472Y-88171989D01*
X117132583Y-88326123D01*
X117527615Y-88404700D01*
X117930385Y-88404700D01*
X118325417Y-88326123D01*
X118697528Y-88171989D01*
X119032420Y-87948222D01*
X119317222Y-87663420D01*
X119540989Y-87328528D01*
X119695123Y-86956417D01*
X119773700Y-86561385D01*
X119773700Y-86158615D01*
X119695123Y-85763583D01*
X119540989Y-85391472D01*
X119317222Y-85056580D01*
X119032420Y-84771778D01*
X118843431Y-84645500D01*
X119032420Y-84519222D01*
X119317222Y-84234420D01*
X119540989Y-83899528D01*
X119695123Y-83527417D01*
X119773700Y-83132385D01*
X119773700Y-82729615D01*
X119695123Y-82334583D01*
X119540989Y-81962472D01*
X119339552Y-81661000D01*
X122682000Y-81661000D01*
X122805882Y-81648799D01*
X122925004Y-81612664D01*
X123034787Y-81553983D01*
X123131013Y-81475013D01*
X123209983Y-81378787D01*
X123268664Y-81269004D01*
X123304799Y-81149882D01*
X123317000Y-81026000D01*
X123317000Y-65405000D01*
X123304799Y-65281118D01*
X123268664Y-65161996D01*
X123209983Y-65052213D01*
X123131013Y-64955987D01*
X123034787Y-64877017D01*
X122925004Y-64818336D01*
X122805882Y-64782201D01*
X122682000Y-64770000D01*
X115824000Y-64770000D01*
X115700118Y-64782201D01*
X115580996Y-64818336D01*
X115471213Y-64877017D01*
X115374987Y-64955987D01*
X115296017Y-65052213D01*
X115237336Y-65161996D01*
X115201201Y-65281118D01*
X115189000Y-65405000D01*
X115189000Y-72517000D01*
X100838000Y-72517000D01*
X100714118Y-72529201D01*
X100594996Y-72565336D01*
X100485213Y-72624017D01*
X100388987Y-72702987D01*
X100310017Y-72799213D01*
X100251336Y-72908996D01*
X100215201Y-73028118D01*
X100203000Y-73152000D01*
X94640000Y-73152000D01*
X94640000Y-48006000D01*
X100203000Y-48006000D01*
X100203000Y-61722000D01*
X100215201Y-61845882D01*
X100251336Y-61965004D01*
X100310017Y-62074787D01*
X100388987Y-62171013D01*
X100485213Y-62249983D01*
X100594996Y-62308664D01*
X100714118Y-62344799D01*
X100838000Y-62357000D01*
X114046000Y-62357000D01*
X114169882Y-62344799D01*
X114289004Y-62308664D01*
X114398787Y-62249983D01*
X114495013Y-62171013D01*
X114573983Y-62074787D01*
X114632664Y-61965004D01*
X114668799Y-61845882D01*
X114681000Y-61722000D01*
X114681000Y-61438642D01*
X114774580Y-61532222D01*
X115109472Y-61755989D01*
X115481583Y-61910123D01*
X115876615Y-61988700D01*
X116279385Y-61988700D01*
X116674417Y-61910123D01*
X117046528Y-61755989D01*
X117381420Y-61532222D01*
X117666222Y-61247420D01*
X117889989Y-60912528D01*
X118044123Y-60540417D01*
X118122700Y-60145385D01*
X118122700Y-59742615D01*
X118044123Y-59347583D01*
X117889989Y-58975472D01*
X117666222Y-58640580D01*
X117381420Y-58355778D01*
X117192431Y-58229500D01*
X117381420Y-58103222D01*
X117666222Y-57818420D01*
X117889989Y-57483528D01*
X118044123Y-57111417D01*
X118122700Y-56716385D01*
X118122700Y-56313615D01*
X118044123Y-55918583D01*
X117889989Y-55546472D01*
X117688552Y-55245000D01*
X124714000Y-55245000D01*
X124837882Y-55232799D01*
X124957004Y-55196664D01*
X125066787Y-55137983D01*
X125163013Y-55059013D01*
X125241983Y-54962787D01*
X125300664Y-54853004D01*
X125336799Y-54733882D01*
X125349000Y-54610000D01*
X125349000Y-43459061D01*
X145015000Y-43459061D01*
X145015000Y-43662939D01*
X145034000Y-43758459D01*
X145034001Y-59640088D01*
X145029085Y-59690000D01*
X145048702Y-59889170D01*
X145106799Y-60080687D01*
X145201141Y-60257190D01*
X145256791Y-60324999D01*
X145201140Y-60392810D01*
X145106798Y-60569314D01*
X145063844Y-60710915D01*
X145048702Y-60760830D01*
X145029085Y-60960000D01*
X145034000Y-61009902D01*
X145034001Y-62815089D01*
X145034000Y-62815099D01*
X145034001Y-69017536D01*
X145015000Y-69113061D01*
X145015000Y-69316939D01*
X145034000Y-69412459D01*
X145034001Y-95052536D01*
X145015000Y-95148061D01*
X145015000Y-95351939D01*
X145054774Y-95551898D01*
X145132795Y-95740256D01*
X145246063Y-95909774D01*
X145390226Y-96053937D01*
X145559744Y-96167205D01*
X145748102Y-96245226D01*
X145948061Y-96285000D01*
X146151939Y-96285000D01*
X146351898Y-96245226D01*
X146540256Y-96167205D01*
X146709774Y-96053937D01*
X146853937Y-95909774D01*
X146967205Y-95740256D01*
X147045226Y-95551898D01*
X147085000Y-95351939D01*
X147085000Y-95148061D01*
X147066000Y-95052541D01*
X147066000Y-89205000D01*
X166036928Y-89205000D01*
X166036928Y-92405000D01*
X166049188Y-92529482D01*
X166085498Y-92649180D01*
X166144463Y-92759494D01*
X166223815Y-92856185D01*
X166320506Y-92935537D01*
X166430820Y-92994502D01*
X166550518Y-93030812D01*
X166675000Y-93043072D01*
X169875000Y-93043072D01*
X169999482Y-93030812D01*
X170119180Y-92994502D01*
X170229494Y-92935537D01*
X170326185Y-92856185D01*
X170405537Y-92759494D01*
X170464502Y-92649180D01*
X170500812Y-92529482D01*
X170513072Y-92405000D01*
X170513072Y-90805000D01*
X171109186Y-90805000D01*
X171152339Y-91243137D01*
X171280138Y-91664436D01*
X171487674Y-92052707D01*
X171766970Y-92393030D01*
X172107293Y-92672326D01*
X172495564Y-92879862D01*
X172916863Y-93007661D01*
X173245204Y-93040000D01*
X173464796Y-93040000D01*
X173793137Y-93007661D01*
X174214436Y-92879862D01*
X174602707Y-92672326D01*
X174943030Y-92393030D01*
X175222326Y-92052707D01*
X175429862Y-91664436D01*
X175557661Y-91243137D01*
X175600814Y-90805000D01*
X175557661Y-90366863D01*
X175429862Y-89945564D01*
X175222326Y-89557293D01*
X174943030Y-89216970D01*
X174602707Y-88937674D01*
X174214436Y-88730138D01*
X173793137Y-88602339D01*
X173464796Y-88570000D01*
X173245204Y-88570000D01*
X172916863Y-88602339D01*
X172495564Y-88730138D01*
X172107293Y-88937674D01*
X171766970Y-89216970D01*
X171487674Y-89557293D01*
X171280138Y-89945564D01*
X171152339Y-90366863D01*
X171109186Y-90805000D01*
X170513072Y-90805000D01*
X170513072Y-89205000D01*
X170500812Y-89080518D01*
X170464502Y-88960820D01*
X170405537Y-88850506D01*
X170326185Y-88753815D01*
X170229494Y-88674463D01*
X170119180Y-88615498D01*
X169999482Y-88579188D01*
X169875000Y-88566928D01*
X166675000Y-88566928D01*
X166550518Y-88579188D01*
X166430820Y-88615498D01*
X166320506Y-88674463D01*
X166223815Y-88753815D01*
X166144463Y-88850506D01*
X166085498Y-88960820D01*
X166049188Y-89080518D01*
X166036928Y-89205000D01*
X147066000Y-89205000D01*
X147066000Y-82220000D01*
X166036928Y-82220000D01*
X166036928Y-85420000D01*
X166049188Y-85544482D01*
X166085498Y-85664180D01*
X166144463Y-85774494D01*
X166223815Y-85871185D01*
X166320506Y-85950537D01*
X166430820Y-86009502D01*
X166550518Y-86045812D01*
X166675000Y-86058072D01*
X169875000Y-86058072D01*
X169999482Y-86045812D01*
X170119180Y-86009502D01*
X170229494Y-85950537D01*
X170326185Y-85871185D01*
X170405537Y-85774494D01*
X170464502Y-85664180D01*
X170500812Y-85544482D01*
X170513072Y-85420000D01*
X170513072Y-83820000D01*
X171109186Y-83820000D01*
X171152339Y-84258137D01*
X171280138Y-84679436D01*
X171487674Y-85067707D01*
X171766970Y-85408030D01*
X172107293Y-85687326D01*
X172495564Y-85894862D01*
X172916863Y-86022661D01*
X173245204Y-86055000D01*
X173464796Y-86055000D01*
X173793137Y-86022661D01*
X174214436Y-85894862D01*
X174602707Y-85687326D01*
X174943030Y-85408030D01*
X175222326Y-85067707D01*
X175429862Y-84679436D01*
X175557661Y-84258137D01*
X175600814Y-83820000D01*
X175557661Y-83381863D01*
X175429862Y-82960564D01*
X175222326Y-82572293D01*
X174943030Y-82231970D01*
X174602707Y-81952674D01*
X174214436Y-81745138D01*
X173793137Y-81617339D01*
X173464796Y-81585000D01*
X173245204Y-81585000D01*
X172916863Y-81617339D01*
X172495564Y-81745138D01*
X172107293Y-81952674D01*
X171766970Y-82231970D01*
X171487674Y-82572293D01*
X171280138Y-82960564D01*
X171152339Y-83381863D01*
X171109186Y-83820000D01*
X170513072Y-83820000D01*
X170513072Y-82220000D01*
X170500812Y-82095518D01*
X170464502Y-81975820D01*
X170405537Y-81865506D01*
X170326185Y-81768815D01*
X170229494Y-81689463D01*
X170119180Y-81630498D01*
X169999482Y-81594188D01*
X169875000Y-81581928D01*
X166675000Y-81581928D01*
X166550518Y-81594188D01*
X166430820Y-81630498D01*
X166320506Y-81689463D01*
X166223815Y-81768815D01*
X166144463Y-81865506D01*
X166085498Y-81975820D01*
X166049188Y-82095518D01*
X166036928Y-82220000D01*
X147066000Y-82220000D01*
X147066000Y-69412459D01*
X147085000Y-69316939D01*
X147085000Y-69113061D01*
X147072457Y-69050000D01*
X157946928Y-69050000D01*
X157946928Y-70650000D01*
X157959188Y-70774482D01*
X157995498Y-70894180D01*
X158054463Y-71004494D01*
X158133815Y-71101185D01*
X158230506Y-71180537D01*
X158340820Y-71239502D01*
X158460518Y-71275812D01*
X158585000Y-71288072D01*
X160185000Y-71288072D01*
X160309482Y-71275812D01*
X160429180Y-71239502D01*
X160539494Y-71180537D01*
X160636185Y-71101185D01*
X160715537Y-71004494D01*
X160774502Y-70894180D01*
X160810812Y-70774482D01*
X160823072Y-70650000D01*
X160823072Y-69050000D01*
X170900928Y-69050000D01*
X170900928Y-70650000D01*
X170913188Y-70774482D01*
X170949498Y-70894180D01*
X171008463Y-71004494D01*
X171087815Y-71101185D01*
X171184506Y-71180537D01*
X171294820Y-71239502D01*
X171414518Y-71275812D01*
X171539000Y-71288072D01*
X173139000Y-71288072D01*
X173263482Y-71275812D01*
X173383180Y-71239502D01*
X173493494Y-71180537D01*
X173590185Y-71101185D01*
X173669537Y-71004494D01*
X173728502Y-70894180D01*
X173764812Y-70774482D01*
X173777072Y-70650000D01*
X173777072Y-69050000D01*
X173764812Y-68925518D01*
X173728502Y-68805820D01*
X173669537Y-68695506D01*
X173590185Y-68598815D01*
X173493494Y-68519463D01*
X173383180Y-68460498D01*
X173263482Y-68424188D01*
X173139000Y-68411928D01*
X171539000Y-68411928D01*
X171414518Y-68424188D01*
X171294820Y-68460498D01*
X171184506Y-68519463D01*
X171087815Y-68598815D01*
X171008463Y-68695506D01*
X170949498Y-68805820D01*
X170913188Y-68925518D01*
X170900928Y-69050000D01*
X160823072Y-69050000D01*
X160810812Y-68925518D01*
X160774502Y-68805820D01*
X160715537Y-68695506D01*
X160636185Y-68598815D01*
X160539494Y-68519463D01*
X160429180Y-68460498D01*
X160309482Y-68424188D01*
X160185000Y-68411928D01*
X158585000Y-68411928D01*
X158460518Y-68424188D01*
X158340820Y-68460498D01*
X158230506Y-68519463D01*
X158133815Y-68598815D01*
X158054463Y-68695506D01*
X157995498Y-68805820D01*
X157959188Y-68925518D01*
X157946928Y-69050000D01*
X147072457Y-69050000D01*
X147066000Y-69017541D01*
X147066000Y-61380840D01*
X147105840Y-61341000D01*
X157663854Y-61341000D01*
X157511995Y-61568273D01*
X157406686Y-61822510D01*
X157353000Y-62092408D01*
X157353000Y-62367592D01*
X157406686Y-62637490D01*
X157511995Y-62891727D01*
X157664880Y-63120535D01*
X157859465Y-63315120D01*
X158088273Y-63468005D01*
X158342510Y-63573314D01*
X158612408Y-63627000D01*
X158887592Y-63627000D01*
X159157490Y-63573314D01*
X159411727Y-63468005D01*
X159640535Y-63315120D01*
X159835120Y-63120535D01*
X159988005Y-62891727D01*
X160093314Y-62637490D01*
X160147000Y-62367592D01*
X160147000Y-62092408D01*
X160093314Y-61822510D01*
X159988005Y-61568273D01*
X159836146Y-61341000D01*
X162743854Y-61341000D01*
X162591995Y-61568273D01*
X162486686Y-61822510D01*
X162433000Y-62092408D01*
X162433000Y-62367592D01*
X162486686Y-62637490D01*
X162591995Y-62891727D01*
X162744880Y-63120535D01*
X162939465Y-63315120D01*
X163168273Y-63468005D01*
X163422510Y-63573314D01*
X163692408Y-63627000D01*
X163967592Y-63627000D01*
X164237490Y-63573314D01*
X164491727Y-63468005D01*
X164720535Y-63315120D01*
X164915120Y-63120535D01*
X165068005Y-62891727D01*
X165173314Y-62637490D01*
X165227000Y-62367592D01*
X165227000Y-62092408D01*
X165173314Y-61822510D01*
X165068005Y-61568273D01*
X164916146Y-61341000D01*
X168489160Y-61341000D01*
X169418000Y-62269841D01*
X169418000Y-62367592D01*
X169471686Y-62637490D01*
X169576995Y-62891727D01*
X169729880Y-63120535D01*
X169924465Y-63315120D01*
X170153273Y-63468005D01*
X170407510Y-63573314D01*
X170677408Y-63627000D01*
X170952592Y-63627000D01*
X171222490Y-63573314D01*
X171476727Y-63468005D01*
X171705535Y-63315120D01*
X171900120Y-63120535D01*
X172053005Y-62891727D01*
X172158314Y-62637490D01*
X172212000Y-62367592D01*
X172212000Y-62269840D01*
X173140841Y-61341000D01*
X174808854Y-61341000D01*
X174656995Y-61568273D01*
X174551686Y-61822510D01*
X174498000Y-62092408D01*
X174498000Y-62367592D01*
X174551686Y-62637490D01*
X174656995Y-62891727D01*
X174809880Y-63120535D01*
X175004465Y-63315120D01*
X175233273Y-63468005D01*
X175487510Y-63573314D01*
X175757408Y-63627000D01*
X176032592Y-63627000D01*
X176302490Y-63573314D01*
X176556727Y-63468005D01*
X176785535Y-63315120D01*
X176980120Y-63120535D01*
X177133005Y-62891727D01*
X177238314Y-62637490D01*
X177292000Y-62367592D01*
X177292000Y-62092408D01*
X177238314Y-61822510D01*
X177133005Y-61568273D01*
X176981146Y-61341000D01*
X180594000Y-61341000D01*
X180594001Y-80320536D01*
X180575000Y-80416061D01*
X180575000Y-80619939D01*
X180594000Y-80715459D01*
X180594000Y-100132538D01*
X180575000Y-100228061D01*
X180575000Y-100431939D01*
X180594001Y-100527462D01*
X180594001Y-119817536D01*
X180575000Y-119913061D01*
X180575000Y-120116939D01*
X180614774Y-120316898D01*
X180692795Y-120505256D01*
X180806063Y-120674774D01*
X180950226Y-120818937D01*
X181119744Y-120932205D01*
X181308102Y-121010226D01*
X181508061Y-121050000D01*
X181711939Y-121050000D01*
X181911898Y-121010226D01*
X182100256Y-120932205D01*
X182269774Y-120818937D01*
X182413937Y-120674774D01*
X182527205Y-120505256D01*
X182605226Y-120316898D01*
X182645000Y-120116939D01*
X182645000Y-119913061D01*
X182626000Y-119817541D01*
X182626000Y-103430615D01*
X208267300Y-103430615D01*
X208267300Y-103833385D01*
X208345877Y-104228417D01*
X208500011Y-104600528D01*
X208723778Y-104935420D01*
X209008580Y-105220222D01*
X209197569Y-105346500D01*
X209008580Y-105472778D01*
X208723778Y-105757580D01*
X208500011Y-106092472D01*
X208345877Y-106464583D01*
X208267300Y-106859615D01*
X208267300Y-107262385D01*
X208345877Y-107657417D01*
X208500011Y-108029528D01*
X208723778Y-108364420D01*
X209008580Y-108649222D01*
X209343472Y-108872989D01*
X209715583Y-109027123D01*
X209830214Y-109049925D01*
X209816201Y-109096118D01*
X209804000Y-109220000D01*
X209804000Y-117094000D01*
X209816201Y-117217882D01*
X209852336Y-117337004D01*
X209911017Y-117446787D01*
X209989987Y-117543013D01*
X210086213Y-117621983D01*
X210195996Y-117680664D01*
X210315118Y-117716799D01*
X210439000Y-117729000D01*
X217551000Y-117729000D01*
X217674882Y-117716799D01*
X217794004Y-117680664D01*
X217903787Y-117621983D01*
X218000013Y-117543013D01*
X218078983Y-117446787D01*
X218137664Y-117337004D01*
X218173799Y-117217882D01*
X218186000Y-117094000D01*
X218186000Y-111633000D01*
X225425000Y-111633000D01*
X225548882Y-111620799D01*
X225668004Y-111584664D01*
X225777787Y-111525983D01*
X225874013Y-111447013D01*
X225952983Y-111350787D01*
X226011664Y-111241004D01*
X226047799Y-111121882D01*
X226060000Y-110998000D01*
X226060000Y-101854000D01*
X226047799Y-101730118D01*
X226011664Y-101610996D01*
X225952983Y-101501213D01*
X225874013Y-101404987D01*
X225777787Y-101326017D01*
X225668004Y-101267336D01*
X225548882Y-101231201D01*
X225425000Y-101219000D01*
X212725000Y-101219000D01*
X212601118Y-101231201D01*
X212481996Y-101267336D01*
X212372213Y-101326017D01*
X212275987Y-101404987D01*
X212197017Y-101501213D01*
X212138336Y-101610996D01*
X212102201Y-101730118D01*
X212090000Y-101854000D01*
X212090000Y-102612604D01*
X211900222Y-102328580D01*
X211615420Y-102043778D01*
X211280528Y-101820011D01*
X210908417Y-101665877D01*
X210513385Y-101587300D01*
X210110615Y-101587300D01*
X209715583Y-101665877D01*
X209343472Y-101820011D01*
X209008580Y-102043778D01*
X208723778Y-102328580D01*
X208500011Y-102663472D01*
X208345877Y-103035583D01*
X208267300Y-103430615D01*
X182626000Y-103430615D01*
X182626000Y-100527459D01*
X182645000Y-100431939D01*
X182645000Y-100228061D01*
X182626000Y-100132541D01*
X182626000Y-83110615D01*
X208267300Y-83110615D01*
X208267300Y-83513385D01*
X208345877Y-83908417D01*
X208500011Y-84280528D01*
X208723778Y-84615420D01*
X209008580Y-84900222D01*
X209197569Y-85026500D01*
X209008580Y-85152778D01*
X208723778Y-85437580D01*
X208500011Y-85772472D01*
X208345877Y-86144583D01*
X208267300Y-86539615D01*
X208267300Y-86942385D01*
X208345877Y-87337417D01*
X208500011Y-87709528D01*
X208723778Y-88044420D01*
X209008580Y-88329222D01*
X209343472Y-88552989D01*
X209715583Y-88707123D01*
X210070052Y-88777631D01*
X210058000Y-88900000D01*
X210058000Y-97536000D01*
X210070201Y-97659882D01*
X210106336Y-97779004D01*
X210165017Y-97888787D01*
X210243987Y-97985013D01*
X210340213Y-98063983D01*
X210449996Y-98122664D01*
X210569118Y-98158799D01*
X210693000Y-98171000D01*
X218059000Y-98171000D01*
X218182882Y-98158799D01*
X218302004Y-98122664D01*
X218411787Y-98063983D01*
X218508013Y-97985013D01*
X218586983Y-97888787D01*
X218645664Y-97779004D01*
X218681799Y-97659882D01*
X218694000Y-97536000D01*
X218694000Y-91821000D01*
X225425000Y-91821000D01*
X225548882Y-91808799D01*
X225668004Y-91772664D01*
X225777787Y-91713983D01*
X225874013Y-91635013D01*
X225952983Y-91538787D01*
X226011664Y-91429004D01*
X226047799Y-91309882D01*
X226060000Y-91186000D01*
X226060000Y-85136360D01*
X233222800Y-85136360D01*
X233222800Y-85551640D01*
X233303817Y-85958939D01*
X233462737Y-86342607D01*
X233693454Y-86687899D01*
X233987101Y-86981546D01*
X234332393Y-87212263D01*
X234716061Y-87371183D01*
X235123360Y-87452200D01*
X235538640Y-87452200D01*
X235945939Y-87371183D01*
X236329607Y-87212263D01*
X236674899Y-86981546D01*
X236968546Y-86687899D01*
X237199263Y-86342607D01*
X237358183Y-85958939D01*
X237439200Y-85551640D01*
X237439200Y-85136360D01*
X237358183Y-84729061D01*
X237199263Y-84345393D01*
X236968546Y-84000101D01*
X236674899Y-83706454D01*
X236329607Y-83475737D01*
X235945939Y-83316817D01*
X235538640Y-83235800D01*
X235123360Y-83235800D01*
X234716061Y-83316817D01*
X234332393Y-83475737D01*
X233987101Y-83706454D01*
X233693454Y-84000101D01*
X233462737Y-84345393D01*
X233303817Y-84729061D01*
X233222800Y-85136360D01*
X226060000Y-85136360D01*
X226060000Y-81788000D01*
X226047799Y-81664118D01*
X226011664Y-81544996D01*
X225952983Y-81435213D01*
X225874013Y-81338987D01*
X225777787Y-81260017D01*
X225668004Y-81201336D01*
X225548882Y-81165201D01*
X225425000Y-81153000D01*
X212471000Y-81153000D01*
X212347118Y-81165201D01*
X212227996Y-81201336D01*
X212118213Y-81260017D01*
X212021987Y-81338987D01*
X211943017Y-81435213D01*
X211884336Y-81544996D01*
X211848201Y-81664118D01*
X211836000Y-81788000D01*
X211836000Y-81944358D01*
X211615420Y-81723778D01*
X211280528Y-81500011D01*
X210908417Y-81345877D01*
X210513385Y-81267300D01*
X210110615Y-81267300D01*
X209715583Y-81345877D01*
X209343472Y-81500011D01*
X209008580Y-81723778D01*
X208723778Y-82008580D01*
X208500011Y-82343472D01*
X208345877Y-82715583D01*
X208267300Y-83110615D01*
X182626000Y-83110615D01*
X182626000Y-80715459D01*
X182645000Y-80619939D01*
X182645000Y-80416061D01*
X182626000Y-80320541D01*
X182626000Y-63044615D01*
X208140300Y-63044615D01*
X208140300Y-63447385D01*
X208218877Y-63842417D01*
X208373011Y-64214528D01*
X208596778Y-64549420D01*
X208881580Y-64834222D01*
X209070569Y-64960500D01*
X208881580Y-65086778D01*
X208596778Y-65371580D01*
X208373011Y-65706472D01*
X208218877Y-66078583D01*
X208140300Y-66473615D01*
X208140300Y-66876385D01*
X208218877Y-67271417D01*
X208373011Y-67643528D01*
X208596778Y-67978420D01*
X208881580Y-68263222D01*
X209216472Y-68486989D01*
X209588583Y-68641123D01*
X209804000Y-68683972D01*
X209804000Y-77470000D01*
X209816201Y-77593882D01*
X209852336Y-77713004D01*
X209911017Y-77822787D01*
X209989987Y-77919013D01*
X210086213Y-77997983D01*
X210195996Y-78056664D01*
X210315118Y-78092799D01*
X210439000Y-78105000D01*
X217551000Y-78105000D01*
X217674882Y-78092799D01*
X217794004Y-78056664D01*
X217903787Y-77997983D01*
X218000013Y-77919013D01*
X218078983Y-77822787D01*
X218137664Y-77713004D01*
X218173799Y-77593882D01*
X218186000Y-77470000D01*
X218186000Y-70993000D01*
X225679000Y-70993000D01*
X225802882Y-70980799D01*
X225922004Y-70944664D01*
X226031787Y-70885983D01*
X226128013Y-70807013D01*
X226206983Y-70710787D01*
X226265664Y-70601004D01*
X226301799Y-70481882D01*
X226314000Y-70358000D01*
X226314000Y-61722000D01*
X226301799Y-61598118D01*
X226265664Y-61478996D01*
X226206983Y-61369213D01*
X226128013Y-61272987D01*
X226031787Y-61194017D01*
X225922004Y-61135336D01*
X225802882Y-61099201D01*
X225679000Y-61087000D01*
X212217000Y-61087000D01*
X212093118Y-61099201D01*
X211973996Y-61135336D01*
X211864213Y-61194017D01*
X211767987Y-61272987D01*
X211689017Y-61369213D01*
X211630336Y-61478996D01*
X211594201Y-61598118D01*
X211582000Y-61722000D01*
X211582000Y-61751358D01*
X211488420Y-61657778D01*
X211153528Y-61434011D01*
X210781417Y-61279877D01*
X210386385Y-61201300D01*
X209983615Y-61201300D01*
X209588583Y-61279877D01*
X209216472Y-61434011D01*
X208881580Y-61657778D01*
X208596778Y-61942580D01*
X208373011Y-62277472D01*
X208218877Y-62649583D01*
X208140300Y-63044615D01*
X182626000Y-63044615D01*
X182626000Y-60522459D01*
X182645000Y-60426939D01*
X182645000Y-60223061D01*
X182605226Y-60023102D01*
X182527205Y-59834744D01*
X182413937Y-59665226D01*
X182269774Y-59521063D01*
X182100256Y-59407795D01*
X181911898Y-59329774D01*
X181711939Y-59290000D01*
X181508061Y-59290000D01*
X181412541Y-59309000D01*
X172769902Y-59309000D01*
X172720000Y-59304085D01*
X172670098Y-59309000D01*
X172520829Y-59323702D01*
X172329313Y-59381798D01*
X172152810Y-59476140D01*
X171998104Y-59603104D01*
X171966293Y-59641866D01*
X170815000Y-60793159D01*
X169663712Y-59641872D01*
X169631896Y-59603104D01*
X169477190Y-59476140D01*
X169300687Y-59381798D01*
X169109171Y-59323702D01*
X168959902Y-59309000D01*
X168910000Y-59304085D01*
X168860098Y-59309000D01*
X147105840Y-59309000D01*
X147066000Y-59269160D01*
X147066000Y-43758459D01*
X147085000Y-43662939D01*
X147085000Y-43459061D01*
X147045226Y-43259102D01*
X146967205Y-43070744D01*
X146853937Y-42901226D01*
X146709774Y-42757063D01*
X146540256Y-42643795D01*
X146351898Y-42565774D01*
X146151939Y-42526000D01*
X145948061Y-42526000D01*
X145748102Y-42565774D01*
X145559744Y-42643795D01*
X145390226Y-42757063D01*
X145246063Y-42901226D01*
X145132795Y-43070744D01*
X145054774Y-43259102D01*
X145015000Y-43459061D01*
X125349000Y-43459061D01*
X125349000Y-41745000D01*
X169376928Y-41745000D01*
X169376928Y-43345000D01*
X169389188Y-43469482D01*
X169425498Y-43589180D01*
X169484463Y-43699494D01*
X169563815Y-43796185D01*
X169660506Y-43875537D01*
X169770820Y-43934502D01*
X169890518Y-43970812D01*
X170015000Y-43983072D01*
X171615000Y-43983072D01*
X171739482Y-43970812D01*
X171859180Y-43934502D01*
X171969494Y-43875537D01*
X172066185Y-43796185D01*
X172145537Y-43699494D01*
X172204502Y-43589180D01*
X172240812Y-43469482D01*
X172253072Y-43345000D01*
X172253072Y-43232615D01*
X208140300Y-43232615D01*
X208140300Y-43635385D01*
X208218877Y-44030417D01*
X208373011Y-44402528D01*
X208596778Y-44737420D01*
X208881580Y-45022222D01*
X209070569Y-45148500D01*
X208881580Y-45274778D01*
X208596778Y-45559580D01*
X208373011Y-45894472D01*
X208218877Y-46266583D01*
X208140300Y-46661615D01*
X208140300Y-47064385D01*
X208218877Y-47459417D01*
X208373011Y-47831528D01*
X208596778Y-48166420D01*
X208881580Y-48451222D01*
X209216472Y-48674989D01*
X209583739Y-48827117D01*
X209562201Y-48898118D01*
X209550000Y-49022000D01*
X209550000Y-56642000D01*
X209562201Y-56765882D01*
X209598336Y-56885004D01*
X209657017Y-56994787D01*
X209735987Y-57091013D01*
X209832213Y-57169983D01*
X209941996Y-57228664D01*
X210061118Y-57264799D01*
X210185000Y-57277000D01*
X217805000Y-57277000D01*
X217928882Y-57264799D01*
X218048004Y-57228664D01*
X218157787Y-57169983D01*
X218254013Y-57091013D01*
X218332983Y-56994787D01*
X218391664Y-56885004D01*
X218427799Y-56765882D01*
X218440000Y-56642000D01*
X218440000Y-50419000D01*
X225679000Y-50419000D01*
X225802882Y-50406799D01*
X225922004Y-50370664D01*
X226031787Y-50311983D01*
X226128013Y-50233013D01*
X226206983Y-50136787D01*
X226265664Y-50027004D01*
X226301799Y-49907882D01*
X226314000Y-49784000D01*
X226314000Y-40894000D01*
X226301799Y-40770118D01*
X226265664Y-40650996D01*
X226206983Y-40541213D01*
X226128013Y-40444987D01*
X226031787Y-40366017D01*
X225922004Y-40307336D01*
X225802882Y-40271201D01*
X225679000Y-40259000D01*
X212217000Y-40259000D01*
X212093118Y-40271201D01*
X211973996Y-40307336D01*
X211864213Y-40366017D01*
X211767987Y-40444987D01*
X211689017Y-40541213D01*
X211630336Y-40650996D01*
X211594201Y-40770118D01*
X211582000Y-40894000D01*
X211582000Y-41939358D01*
X211488420Y-41845778D01*
X211153528Y-41622011D01*
X210781417Y-41467877D01*
X210386385Y-41389300D01*
X209983615Y-41389300D01*
X209588583Y-41467877D01*
X209216472Y-41622011D01*
X208881580Y-41845778D01*
X208596778Y-42130580D01*
X208373011Y-42465472D01*
X208218877Y-42837583D01*
X208140300Y-43232615D01*
X172253072Y-43232615D01*
X172253072Y-41745000D01*
X172240812Y-41620518D01*
X172204502Y-41500820D01*
X172145537Y-41390506D01*
X172066185Y-41293815D01*
X171969494Y-41214463D01*
X171859180Y-41155498D01*
X171739482Y-41119188D01*
X171615000Y-41106928D01*
X170015000Y-41106928D01*
X169890518Y-41119188D01*
X169770820Y-41155498D01*
X169660506Y-41214463D01*
X169563815Y-41293815D01*
X169484463Y-41390506D01*
X169425498Y-41500820D01*
X169389188Y-41620518D01*
X169376928Y-41745000D01*
X125349000Y-41745000D01*
X125349000Y-40894000D01*
X125336799Y-40770118D01*
X125300664Y-40650996D01*
X125241983Y-40541213D01*
X125163013Y-40444987D01*
X125066787Y-40366017D01*
X124957004Y-40307336D01*
X124837882Y-40271201D01*
X124714000Y-40259000D01*
X116332000Y-40259000D01*
X116208118Y-40271201D01*
X116088996Y-40307336D01*
X115979213Y-40366017D01*
X115882987Y-40444987D01*
X115804017Y-40541213D01*
X115745336Y-40650996D01*
X115709201Y-40770118D01*
X115697000Y-40894000D01*
X115697000Y-47371000D01*
X100838000Y-47371000D01*
X100714118Y-47383201D01*
X100594996Y-47419336D01*
X100485213Y-47478017D01*
X100388987Y-47556987D01*
X100310017Y-47653213D01*
X100251336Y-47762996D01*
X100215201Y-47882118D01*
X100203000Y-48006000D01*
X94640000Y-48006000D01*
X94640000Y-34576279D01*
X94669003Y-34280480D01*
X95879920Y-34280480D01*
X95879920Y-34695760D01*
X95960937Y-35103059D01*
X96119857Y-35486727D01*
X96350574Y-35832019D01*
X96644221Y-36125666D01*
X96989513Y-36356383D01*
X97373181Y-36515303D01*
X97780480Y-36596320D01*
X98195760Y-36596320D01*
X98603059Y-36515303D01*
X98986727Y-36356383D01*
X99332019Y-36125666D01*
X99625666Y-35832019D01*
X99856383Y-35486727D01*
X100015303Y-35103059D01*
X100096320Y-34695760D01*
X100096320Y-34406408D01*
X104902000Y-34406408D01*
X104902000Y-34681592D01*
X104955686Y-34951490D01*
X105060995Y-35205727D01*
X105213880Y-35434535D01*
X105408465Y-35629120D01*
X105637273Y-35782005D01*
X105891510Y-35887314D01*
X106161408Y-35941000D01*
X106436592Y-35941000D01*
X106706490Y-35887314D01*
X106960727Y-35782005D01*
X107189535Y-35629120D01*
X107384120Y-35434535D01*
X107537005Y-35205727D01*
X107569000Y-35128485D01*
X107600995Y-35205727D01*
X107753880Y-35434535D01*
X107948465Y-35629120D01*
X108177273Y-35782005D01*
X108431510Y-35887314D01*
X108701408Y-35941000D01*
X108976592Y-35941000D01*
X109246490Y-35887314D01*
X109500727Y-35782005D01*
X109729535Y-35629120D01*
X109924120Y-35434535D01*
X110077005Y-35205727D01*
X110109000Y-35128485D01*
X110140995Y-35205727D01*
X110293880Y-35434535D01*
X110488465Y-35629120D01*
X110717273Y-35782005D01*
X110971510Y-35887314D01*
X111241408Y-35941000D01*
X111516592Y-35941000D01*
X111786490Y-35887314D01*
X112040727Y-35782005D01*
X112269535Y-35629120D01*
X112464120Y-35434535D01*
X112617005Y-35205727D01*
X112649000Y-35128485D01*
X112680995Y-35205727D01*
X112833880Y-35434535D01*
X113028465Y-35629120D01*
X113257273Y-35782005D01*
X113511510Y-35887314D01*
X113781408Y-35941000D01*
X114056592Y-35941000D01*
X114326490Y-35887314D01*
X114580727Y-35782005D01*
X114809535Y-35629120D01*
X115004120Y-35434535D01*
X115157005Y-35205727D01*
X115189000Y-35128485D01*
X115220995Y-35205727D01*
X115373880Y-35434535D01*
X115568465Y-35629120D01*
X115797273Y-35782005D01*
X116051510Y-35887314D01*
X116321408Y-35941000D01*
X116596592Y-35941000D01*
X116866490Y-35887314D01*
X117120727Y-35782005D01*
X117349535Y-35629120D01*
X117544120Y-35434535D01*
X117697005Y-35205727D01*
X117729000Y-35128485D01*
X117760995Y-35205727D01*
X117913880Y-35434535D01*
X118108465Y-35629120D01*
X118337273Y-35782005D01*
X118591510Y-35887314D01*
X118861408Y-35941000D01*
X119136592Y-35941000D01*
X119406490Y-35887314D01*
X119660727Y-35782005D01*
X119889535Y-35629120D01*
X120084120Y-35434535D01*
X120237005Y-35205727D01*
X120269000Y-35128485D01*
X120300995Y-35205727D01*
X120453880Y-35434535D01*
X120648465Y-35629120D01*
X120877273Y-35782005D01*
X121131510Y-35887314D01*
X121401408Y-35941000D01*
X121676592Y-35941000D01*
X121946490Y-35887314D01*
X122200727Y-35782005D01*
X122429535Y-35629120D01*
X122624120Y-35434535D01*
X122777005Y-35205727D01*
X122882314Y-34951490D01*
X122936000Y-34681592D01*
X122936000Y-34406408D01*
X122882314Y-34136510D01*
X122877547Y-34125000D01*
X155914928Y-34125000D01*
X155914928Y-35725000D01*
X155927188Y-35849482D01*
X155963498Y-35969180D01*
X156022463Y-36079494D01*
X156101815Y-36176185D01*
X156198506Y-36255537D01*
X156308820Y-36314502D01*
X156428518Y-36350812D01*
X156553000Y-36363072D01*
X158153000Y-36363072D01*
X158277482Y-36350812D01*
X158397180Y-36314502D01*
X158507494Y-36255537D01*
X158604185Y-36176185D01*
X158683537Y-36079494D01*
X158742502Y-35969180D01*
X158778812Y-35849482D01*
X158791072Y-35725000D01*
X158791072Y-34787408D01*
X163068000Y-34787408D01*
X163068000Y-35062592D01*
X163121686Y-35332490D01*
X163226995Y-35586727D01*
X163379880Y-35815535D01*
X163574465Y-36010120D01*
X163803273Y-36163005D01*
X164057510Y-36268314D01*
X164327408Y-36322000D01*
X164602592Y-36322000D01*
X164872490Y-36268314D01*
X165126727Y-36163005D01*
X165355535Y-36010120D01*
X165550120Y-35815535D01*
X165703005Y-35586727D01*
X165808314Y-35332490D01*
X165862000Y-35062592D01*
X165862000Y-34787408D01*
X165808314Y-34517510D01*
X165762294Y-34406408D01*
X208407000Y-34406408D01*
X208407000Y-34681592D01*
X208460686Y-34951490D01*
X208565995Y-35205727D01*
X208718880Y-35434535D01*
X208913465Y-35629120D01*
X209142273Y-35782005D01*
X209396510Y-35887314D01*
X209666408Y-35941000D01*
X209941592Y-35941000D01*
X210211490Y-35887314D01*
X210465727Y-35782005D01*
X210694535Y-35629120D01*
X210889120Y-35434535D01*
X211042005Y-35205727D01*
X211074000Y-35128485D01*
X211105995Y-35205727D01*
X211258880Y-35434535D01*
X211453465Y-35629120D01*
X211682273Y-35782005D01*
X211936510Y-35887314D01*
X212206408Y-35941000D01*
X212481592Y-35941000D01*
X212751490Y-35887314D01*
X213005727Y-35782005D01*
X213234535Y-35629120D01*
X213429120Y-35434535D01*
X213582005Y-35205727D01*
X213614000Y-35128485D01*
X213645995Y-35205727D01*
X213798880Y-35434535D01*
X213993465Y-35629120D01*
X214222273Y-35782005D01*
X214476510Y-35887314D01*
X214746408Y-35941000D01*
X215021592Y-35941000D01*
X215291490Y-35887314D01*
X215545727Y-35782005D01*
X215774535Y-35629120D01*
X215969120Y-35434535D01*
X216122005Y-35205727D01*
X216154000Y-35128485D01*
X216185995Y-35205727D01*
X216338880Y-35434535D01*
X216533465Y-35629120D01*
X216762273Y-35782005D01*
X217016510Y-35887314D01*
X217286408Y-35941000D01*
X217561592Y-35941000D01*
X217831490Y-35887314D01*
X218085727Y-35782005D01*
X218314535Y-35629120D01*
X218509120Y-35434535D01*
X218662005Y-35205727D01*
X218694000Y-35128485D01*
X218725995Y-35205727D01*
X218878880Y-35434535D01*
X219073465Y-35629120D01*
X219302273Y-35782005D01*
X219556510Y-35887314D01*
X219826408Y-35941000D01*
X220101592Y-35941000D01*
X220371490Y-35887314D01*
X220625727Y-35782005D01*
X220854535Y-35629120D01*
X221049120Y-35434535D01*
X221202005Y-35205727D01*
X221234000Y-35128485D01*
X221265995Y-35205727D01*
X221418880Y-35434535D01*
X221613465Y-35629120D01*
X221842273Y-35782005D01*
X222096510Y-35887314D01*
X222366408Y-35941000D01*
X222641592Y-35941000D01*
X222911490Y-35887314D01*
X223165727Y-35782005D01*
X223394535Y-35629120D01*
X223589120Y-35434535D01*
X223742005Y-35205727D01*
X223774000Y-35128485D01*
X223805995Y-35205727D01*
X223958880Y-35434535D01*
X224153465Y-35629120D01*
X224382273Y-35782005D01*
X224636510Y-35887314D01*
X224906408Y-35941000D01*
X225181592Y-35941000D01*
X225451490Y-35887314D01*
X225705727Y-35782005D01*
X225934535Y-35629120D01*
X226129120Y-35434535D01*
X226282005Y-35205727D01*
X226314000Y-35128485D01*
X226345995Y-35205727D01*
X226498880Y-35434535D01*
X226693465Y-35629120D01*
X226922273Y-35782005D01*
X227176510Y-35887314D01*
X227446408Y-35941000D01*
X227721592Y-35941000D01*
X227991490Y-35887314D01*
X228245727Y-35782005D01*
X228474535Y-35629120D01*
X228669120Y-35434535D01*
X228822005Y-35205727D01*
X228927314Y-34951490D01*
X228981000Y-34681592D01*
X228981000Y-34406408D01*
X228955952Y-34280480D01*
X233278680Y-34280480D01*
X233278680Y-34695760D01*
X233359697Y-35103059D01*
X233518617Y-35486727D01*
X233749334Y-35832019D01*
X234042981Y-36125666D01*
X234388273Y-36356383D01*
X234771941Y-36515303D01*
X235179240Y-36596320D01*
X235594520Y-36596320D01*
X236001819Y-36515303D01*
X236385487Y-36356383D01*
X236730779Y-36125666D01*
X237024426Y-35832019D01*
X237255143Y-35486727D01*
X237414063Y-35103059D01*
X237495080Y-34695760D01*
X237495080Y-34280480D01*
X237414063Y-33873181D01*
X237255143Y-33489513D01*
X237024426Y-33144221D01*
X236730779Y-32850574D01*
X236385487Y-32619857D01*
X236001819Y-32460937D01*
X235594520Y-32379920D01*
X235179240Y-32379920D01*
X234771941Y-32460937D01*
X234388273Y-32619857D01*
X234042981Y-32850574D01*
X233749334Y-33144221D01*
X233518617Y-33489513D01*
X233359697Y-33873181D01*
X233278680Y-34280480D01*
X228955952Y-34280480D01*
X228927314Y-34136510D01*
X228822005Y-33882273D01*
X228669120Y-33653465D01*
X228474535Y-33458880D01*
X228245727Y-33305995D01*
X227991490Y-33200686D01*
X227721592Y-33147000D01*
X227446408Y-33147000D01*
X227176510Y-33200686D01*
X226922273Y-33305995D01*
X226693465Y-33458880D01*
X226498880Y-33653465D01*
X226345995Y-33882273D01*
X226314000Y-33959515D01*
X226282005Y-33882273D01*
X226129120Y-33653465D01*
X225934535Y-33458880D01*
X225705727Y-33305995D01*
X225451490Y-33200686D01*
X225181592Y-33147000D01*
X224906408Y-33147000D01*
X224636510Y-33200686D01*
X224382273Y-33305995D01*
X224153465Y-33458880D01*
X223958880Y-33653465D01*
X223805995Y-33882273D01*
X223774000Y-33959515D01*
X223742005Y-33882273D01*
X223589120Y-33653465D01*
X223394535Y-33458880D01*
X223165727Y-33305995D01*
X222911490Y-33200686D01*
X222641592Y-33147000D01*
X222366408Y-33147000D01*
X222096510Y-33200686D01*
X221842273Y-33305995D01*
X221613465Y-33458880D01*
X221418880Y-33653465D01*
X221265995Y-33882273D01*
X221234000Y-33959515D01*
X221202005Y-33882273D01*
X221049120Y-33653465D01*
X220854535Y-33458880D01*
X220625727Y-33305995D01*
X220371490Y-33200686D01*
X220101592Y-33147000D01*
X219826408Y-33147000D01*
X219556510Y-33200686D01*
X219302273Y-33305995D01*
X219073465Y-33458880D01*
X218878880Y-33653465D01*
X218725995Y-33882273D01*
X218694000Y-33959515D01*
X218662005Y-33882273D01*
X218509120Y-33653465D01*
X218314535Y-33458880D01*
X218085727Y-33305995D01*
X217831490Y-33200686D01*
X217561592Y-33147000D01*
X217286408Y-33147000D01*
X217016510Y-33200686D01*
X216762273Y-33305995D01*
X216533465Y-33458880D01*
X216338880Y-33653465D01*
X216185995Y-33882273D01*
X216154000Y-33959515D01*
X216122005Y-33882273D01*
X215969120Y-33653465D01*
X215774535Y-33458880D01*
X215545727Y-33305995D01*
X215291490Y-33200686D01*
X215021592Y-33147000D01*
X214746408Y-33147000D01*
X214476510Y-33200686D01*
X214222273Y-33305995D01*
X213993465Y-33458880D01*
X213798880Y-33653465D01*
X213645995Y-33882273D01*
X213614000Y-33959515D01*
X213582005Y-33882273D01*
X213429120Y-33653465D01*
X213234535Y-33458880D01*
X213005727Y-33305995D01*
X212751490Y-33200686D01*
X212481592Y-33147000D01*
X212206408Y-33147000D01*
X211936510Y-33200686D01*
X211682273Y-33305995D01*
X211453465Y-33458880D01*
X211258880Y-33653465D01*
X211105995Y-33882273D01*
X211074000Y-33959515D01*
X211042005Y-33882273D01*
X210889120Y-33653465D01*
X210694535Y-33458880D01*
X210465727Y-33305995D01*
X210211490Y-33200686D01*
X209941592Y-33147000D01*
X209666408Y-33147000D01*
X209396510Y-33200686D01*
X209142273Y-33305995D01*
X208913465Y-33458880D01*
X208718880Y-33653465D01*
X208565995Y-33882273D01*
X208460686Y-34136510D01*
X208407000Y-34406408D01*
X165762294Y-34406408D01*
X165703005Y-34263273D01*
X165550120Y-34034465D01*
X165355535Y-33839880D01*
X165126727Y-33686995D01*
X164872490Y-33581686D01*
X164602592Y-33528000D01*
X164327408Y-33528000D01*
X164057510Y-33581686D01*
X163803273Y-33686995D01*
X163574465Y-33839880D01*
X163379880Y-34034465D01*
X163226995Y-34263273D01*
X163121686Y-34517510D01*
X163068000Y-34787408D01*
X158791072Y-34787408D01*
X158791072Y-34125000D01*
X158778812Y-34000518D01*
X158742502Y-33880820D01*
X158683537Y-33770506D01*
X158604185Y-33673815D01*
X158507494Y-33594463D01*
X158397180Y-33535498D01*
X158277482Y-33499188D01*
X158153000Y-33486928D01*
X156553000Y-33486928D01*
X156428518Y-33499188D01*
X156308820Y-33535498D01*
X156198506Y-33594463D01*
X156101815Y-33673815D01*
X156022463Y-33770506D01*
X155963498Y-33880820D01*
X155927188Y-34000518D01*
X155914928Y-34125000D01*
X122877547Y-34125000D01*
X122777005Y-33882273D01*
X122624120Y-33653465D01*
X122429535Y-33458880D01*
X122200727Y-33305995D01*
X121946490Y-33200686D01*
X121676592Y-33147000D01*
X121401408Y-33147000D01*
X121131510Y-33200686D01*
X120877273Y-33305995D01*
X120648465Y-33458880D01*
X120453880Y-33653465D01*
X120300995Y-33882273D01*
X120269000Y-33959515D01*
X120237005Y-33882273D01*
X120084120Y-33653465D01*
X119889535Y-33458880D01*
X119660727Y-33305995D01*
X119406490Y-33200686D01*
X119136592Y-33147000D01*
X118861408Y-33147000D01*
X118591510Y-33200686D01*
X118337273Y-33305995D01*
X118108465Y-33458880D01*
X117913880Y-33653465D01*
X117760995Y-33882273D01*
X117729000Y-33959515D01*
X117697005Y-33882273D01*
X117544120Y-33653465D01*
X117349535Y-33458880D01*
X117120727Y-33305995D01*
X116866490Y-33200686D01*
X116596592Y-33147000D01*
X116321408Y-33147000D01*
X116051510Y-33200686D01*
X115797273Y-33305995D01*
X115568465Y-33458880D01*
X115373880Y-33653465D01*
X115220995Y-33882273D01*
X115189000Y-33959515D01*
X115157005Y-33882273D01*
X115004120Y-33653465D01*
X114809535Y-33458880D01*
X114580727Y-33305995D01*
X114326490Y-33200686D01*
X114056592Y-33147000D01*
X113781408Y-33147000D01*
X113511510Y-33200686D01*
X113257273Y-33305995D01*
X113028465Y-33458880D01*
X112833880Y-33653465D01*
X112680995Y-33882273D01*
X112649000Y-33959515D01*
X112617005Y-33882273D01*
X112464120Y-33653465D01*
X112269535Y-33458880D01*
X112040727Y-33305995D01*
X111786490Y-33200686D01*
X111516592Y-33147000D01*
X111241408Y-33147000D01*
X110971510Y-33200686D01*
X110717273Y-33305995D01*
X110488465Y-33458880D01*
X110293880Y-33653465D01*
X110140995Y-33882273D01*
X110109000Y-33959515D01*
X110077005Y-33882273D01*
X109924120Y-33653465D01*
X109729535Y-33458880D01*
X109500727Y-33305995D01*
X109246490Y-33200686D01*
X108976592Y-33147000D01*
X108701408Y-33147000D01*
X108431510Y-33200686D01*
X108177273Y-33305995D01*
X107948465Y-33458880D01*
X107753880Y-33653465D01*
X107600995Y-33882273D01*
X107569000Y-33959515D01*
X107537005Y-33882273D01*
X107384120Y-33653465D01*
X107189535Y-33458880D01*
X106960727Y-33305995D01*
X106706490Y-33200686D01*
X106436592Y-33147000D01*
X106161408Y-33147000D01*
X105891510Y-33200686D01*
X105637273Y-33305995D01*
X105408465Y-33458880D01*
X105213880Y-33653465D01*
X105060995Y-33882273D01*
X104955686Y-34136510D01*
X104902000Y-34406408D01*
X100096320Y-34406408D01*
X100096320Y-34280480D01*
X100015303Y-33873181D01*
X99856383Y-33489513D01*
X99625666Y-33144221D01*
X99332019Y-32850574D01*
X98986727Y-32619857D01*
X98603059Y-32460937D01*
X98195760Y-32379920D01*
X97780480Y-32379920D01*
X97373181Y-32460937D01*
X96989513Y-32619857D01*
X96644221Y-32850574D01*
X96350574Y-33144221D01*
X96119857Y-33489513D01*
X95960937Y-33873181D01*
X95879920Y-34280480D01*
X94669003Y-34280480D01*
X94707933Y-33883442D01*
X94899772Y-33248040D01*
X95211373Y-32662006D01*
X95630870Y-32147653D01*
X96142275Y-31724581D01*
X96726123Y-31408896D01*
X97360170Y-31212625D01*
X98051155Y-31140000D01*
X235425721Y-31140000D01*
X236093891Y-31205515D01*
G36*
X225298000Y-110871000D02*
G01*
X217551000Y-110871000D01*
X217526224Y-110873440D01*
X217502399Y-110880667D01*
X217480443Y-110892403D01*
X217461197Y-110908197D01*
X217445403Y-110927443D01*
X217433667Y-110949399D01*
X217426440Y-110973224D01*
X217424000Y-110998000D01*
X217424000Y-116967000D01*
X215083400Y-116967000D01*
X215383944Y-116766183D01*
X215826183Y-116323944D01*
X216173648Y-115803926D01*
X216412986Y-115226113D01*
X216535000Y-114612710D01*
X216535000Y-113987290D01*
X216412986Y-113373887D01*
X216173648Y-112796074D01*
X215826183Y-112276056D01*
X215383944Y-111833817D01*
X214863926Y-111486352D01*
X214286113Y-111247014D01*
X213672710Y-111125000D01*
X213047290Y-111125000D01*
X212433887Y-111247014D01*
X211856074Y-111486352D01*
X211336056Y-111833817D01*
X210893817Y-112276056D01*
X210566000Y-112766669D01*
X210566000Y-109347000D01*
X212725000Y-109347000D01*
X212749776Y-109344560D01*
X212773601Y-109337333D01*
X212795557Y-109325597D01*
X212814803Y-109309803D01*
X212830597Y-109290557D01*
X212842333Y-109268601D01*
X212849560Y-109244776D01*
X212852000Y-109220000D01*
X212852000Y-101981000D01*
X225298000Y-101981000D01*
X225298000Y-110871000D01*
X225298000Y-110871000D01*
G37*
X225298000Y-110871000D02*
X217551000Y-110871000D01*
X217526224Y-110873440D01*
X217502399Y-110880667D01*
X217480443Y-110892403D01*
X217461197Y-110908197D01*
X217445403Y-110927443D01*
X217433667Y-110949399D01*
X217426440Y-110973224D01*
X217424000Y-110998000D01*
X217424000Y-116967000D01*
X215083400Y-116967000D01*
X215383944Y-116766183D01*
X215826183Y-116323944D01*
X216173648Y-115803926D01*
X216412986Y-115226113D01*
X216535000Y-114612710D01*
X216535000Y-113987290D01*
X216412986Y-113373887D01*
X216173648Y-112796074D01*
X215826183Y-112276056D01*
X215383944Y-111833817D01*
X214863926Y-111486352D01*
X214286113Y-111247014D01*
X213672710Y-111125000D01*
X213047290Y-111125000D01*
X212433887Y-111247014D01*
X211856074Y-111486352D01*
X211336056Y-111833817D01*
X210893817Y-112276056D01*
X210566000Y-112766669D01*
X210566000Y-109347000D01*
X212725000Y-109347000D01*
X212749776Y-109344560D01*
X212773601Y-109337333D01*
X212795557Y-109325597D01*
X212814803Y-109309803D01*
X212830597Y-109290557D01*
X212842333Y-109268601D01*
X212849560Y-109244776D01*
X212852000Y-109220000D01*
X212852000Y-101981000D01*
X225298000Y-101981000D01*
X225298000Y-110871000D01*
G36*
X124587000Y-54483000D02*
G01*
X116343232Y-54483000D01*
X116279385Y-54470300D01*
X115876615Y-54470300D01*
X115812768Y-54483000D01*
X114046000Y-54483000D01*
X114021224Y-54485440D01*
X113997399Y-54492667D01*
X113975443Y-54504403D01*
X113956197Y-54520197D01*
X113940403Y-54539443D01*
X113928667Y-54561399D01*
X113921440Y-54585224D01*
X113919000Y-54610000D01*
X113919000Y-61595000D01*
X100965000Y-61595000D01*
X100965000Y-48133000D01*
X116332000Y-48133000D01*
X116356776Y-48130560D01*
X116380601Y-48123333D01*
X116402557Y-48111597D01*
X116421803Y-48095803D01*
X116437597Y-48076557D01*
X116449333Y-48054601D01*
X116456560Y-48030776D01*
X116459000Y-48006000D01*
X116459000Y-44137290D01*
X116840000Y-44137290D01*
X116840000Y-44762710D01*
X116962014Y-45376113D01*
X117201352Y-45953926D01*
X117548817Y-46473944D01*
X117991056Y-46916183D01*
X118511074Y-47263648D01*
X119088887Y-47502986D01*
X119702290Y-47625000D01*
X120327710Y-47625000D01*
X120941113Y-47502986D01*
X121518926Y-47263648D01*
X122038944Y-46916183D01*
X122481183Y-46473944D01*
X122828648Y-45953926D01*
X123067986Y-45376113D01*
X123190000Y-44762710D01*
X123190000Y-44137290D01*
X123067986Y-43523887D01*
X122828648Y-42946074D01*
X122481183Y-42426056D01*
X122038944Y-41983817D01*
X121518926Y-41636352D01*
X120941113Y-41397014D01*
X120327710Y-41275000D01*
X119702290Y-41275000D01*
X119088887Y-41397014D01*
X118511074Y-41636352D01*
X117991056Y-41983817D01*
X117548817Y-42426056D01*
X117201352Y-42946074D01*
X116962014Y-43523887D01*
X116840000Y-44137290D01*
X116459000Y-44137290D01*
X116459000Y-41021000D01*
X124587000Y-41021000D01*
X124587000Y-54483000D01*
X124587000Y-54483000D01*
G37*
X124587000Y-54483000D02*
X116343232Y-54483000D01*
X116279385Y-54470300D01*
X115876615Y-54470300D01*
X115812768Y-54483000D01*
X114046000Y-54483000D01*
X114021224Y-54485440D01*
X113997399Y-54492667D01*
X113975443Y-54504403D01*
X113956197Y-54520197D01*
X113940403Y-54539443D01*
X113928667Y-54561399D01*
X113921440Y-54585224D01*
X113919000Y-54610000D01*
X113919000Y-61595000D01*
X100965000Y-61595000D01*
X100965000Y-48133000D01*
X116332000Y-48133000D01*
X116356776Y-48130560D01*
X116380601Y-48123333D01*
X116402557Y-48111597D01*
X116421803Y-48095803D01*
X116437597Y-48076557D01*
X116449333Y-48054601D01*
X116456560Y-48030776D01*
X116459000Y-48006000D01*
X116459000Y-44137290D01*
X116840000Y-44137290D01*
X116840000Y-44762710D01*
X116962014Y-45376113D01*
X117201352Y-45953926D01*
X117548817Y-46473944D01*
X117991056Y-46916183D01*
X118511074Y-47263648D01*
X119088887Y-47502986D01*
X119702290Y-47625000D01*
X120327710Y-47625000D01*
X120941113Y-47502986D01*
X121518926Y-47263648D01*
X122038944Y-46916183D01*
X122481183Y-46473944D01*
X122828648Y-45953926D01*
X123067986Y-45376113D01*
X123190000Y-44762710D01*
X123190000Y-44137290D01*
X123067986Y-43523887D01*
X122828648Y-42946074D01*
X122481183Y-42426056D01*
X122038944Y-41983817D01*
X121518926Y-41636352D01*
X120941113Y-41397014D01*
X120327710Y-41275000D01*
X119702290Y-41275000D01*
X119088887Y-41397014D01*
X118511074Y-41636352D01*
X117991056Y-41983817D01*
X117548817Y-42426056D01*
X117201352Y-42946074D01*
X116962014Y-43523887D01*
X116840000Y-44137290D01*
X116459000Y-44137290D01*
X116459000Y-41021000D01*
X124587000Y-41021000D01*
X124587000Y-54483000D01*
G36*
X118384074Y-65766352D02*
G01*
X117864056Y-66113817D01*
X117421817Y-66556056D01*
X117074352Y-67076074D01*
X116835014Y-67653887D01*
X116713000Y-68267290D01*
X116713000Y-68892710D01*
X116835014Y-69506113D01*
X117074352Y-70083926D01*
X117421817Y-70603944D01*
X117864056Y-71046183D01*
X118384074Y-71393648D01*
X118961887Y-71632986D01*
X119575290Y-71755000D01*
X120200710Y-71755000D01*
X120814113Y-71632986D01*
X121391926Y-71393648D01*
X121911944Y-71046183D01*
X122354183Y-70603944D01*
X122555000Y-70303400D01*
X122555000Y-80899000D01*
X117994232Y-80899000D01*
X117930385Y-80886300D01*
X117527615Y-80886300D01*
X117463768Y-80899000D01*
X115570000Y-80899000D01*
X115545224Y-80901440D01*
X115521399Y-80908667D01*
X115499443Y-80920403D01*
X115480197Y-80936197D01*
X115464403Y-80955443D01*
X115452667Y-80977399D01*
X115445440Y-81001224D01*
X115443000Y-81026000D01*
X115443000Y-87757000D01*
X100965000Y-87757000D01*
X100965000Y-73279000D01*
X115824000Y-73279000D01*
X115848776Y-73276560D01*
X115872601Y-73269333D01*
X115894557Y-73257597D01*
X115913803Y-73241803D01*
X115929597Y-73222557D01*
X115941333Y-73200601D01*
X115948560Y-73176776D01*
X115951000Y-73152000D01*
X115951000Y-65532000D01*
X118949850Y-65532000D01*
X118384074Y-65766352D01*
X118384074Y-65766352D01*
G37*
X118384074Y-65766352D02*
X117864056Y-66113817D01*
X117421817Y-66556056D01*
X117074352Y-67076074D01*
X116835014Y-67653887D01*
X116713000Y-68267290D01*
X116713000Y-68892710D01*
X116835014Y-69506113D01*
X117074352Y-70083926D01*
X117421817Y-70603944D01*
X117864056Y-71046183D01*
X118384074Y-71393648D01*
X118961887Y-71632986D01*
X119575290Y-71755000D01*
X120200710Y-71755000D01*
X120814113Y-71632986D01*
X121391926Y-71393648D01*
X121911944Y-71046183D01*
X122354183Y-70603944D01*
X122555000Y-70303400D01*
X122555000Y-80899000D01*
X117994232Y-80899000D01*
X117930385Y-80886300D01*
X117527615Y-80886300D01*
X117463768Y-80899000D01*
X115570000Y-80899000D01*
X115545224Y-80901440D01*
X115521399Y-80908667D01*
X115499443Y-80920403D01*
X115480197Y-80936197D01*
X115464403Y-80955443D01*
X115452667Y-80977399D01*
X115445440Y-81001224D01*
X115443000Y-81026000D01*
X115443000Y-87757000D01*
X100965000Y-87757000D01*
X100965000Y-73279000D01*
X115824000Y-73279000D01*
X115848776Y-73276560D01*
X115872601Y-73269333D01*
X115894557Y-73257597D01*
X115913803Y-73241803D01*
X115929597Y-73222557D01*
X115941333Y-73200601D01*
X115948560Y-73176776D01*
X115951000Y-73152000D01*
X115951000Y-65532000D01*
X118949850Y-65532000D01*
X118384074Y-65766352D01*
G36*
X118384074Y-92436352D02*
G01*
X117864056Y-92783817D01*
X117421817Y-93226056D01*
X117074352Y-93746074D01*
X116835014Y-94323887D01*
X116713000Y-94937290D01*
X116713000Y-95562710D01*
X116835014Y-96176113D01*
X117074352Y-96753926D01*
X117421817Y-97273944D01*
X117864056Y-97716183D01*
X118384074Y-98063648D01*
X118961887Y-98302986D01*
X119575290Y-98425000D01*
X120200710Y-98425000D01*
X120814113Y-98302986D01*
X121391926Y-98063648D01*
X121911944Y-97716183D01*
X122354183Y-97273944D01*
X122701648Y-96753926D01*
X122940986Y-96176113D01*
X123063000Y-95562710D01*
X123063000Y-94937290D01*
X122940986Y-94323887D01*
X122701648Y-93746074D01*
X122354183Y-93226056D01*
X121911944Y-92783817D01*
X121391926Y-92436352D01*
X121132755Y-92329000D01*
X124079000Y-92329000D01*
X124079000Y-106553000D01*
X113538000Y-106553000D01*
X113513224Y-106555440D01*
X113489399Y-106562667D01*
X113467443Y-106574403D01*
X113448197Y-106590197D01*
X113432403Y-106609443D01*
X113420667Y-106631399D01*
X113413440Y-106655224D01*
X113411000Y-106680000D01*
X113411000Y-114173000D01*
X100965000Y-114173000D01*
X100965000Y-99695000D01*
X116078000Y-99695000D01*
X116102776Y-99692560D01*
X116126601Y-99685333D01*
X116148557Y-99673597D01*
X116167803Y-99657803D01*
X116183597Y-99638557D01*
X116195333Y-99616601D01*
X116202560Y-99592776D01*
X116205000Y-99568000D01*
X116205000Y-92329000D01*
X118643245Y-92329000D01*
X118384074Y-92436352D01*
X118384074Y-92436352D01*
G37*
X118384074Y-92436352D02*
X117864056Y-92783817D01*
X117421817Y-93226056D01*
X117074352Y-93746074D01*
X116835014Y-94323887D01*
X116713000Y-94937290D01*
X116713000Y-95562710D01*
X116835014Y-96176113D01*
X117074352Y-96753926D01*
X117421817Y-97273944D01*
X117864056Y-97716183D01*
X118384074Y-98063648D01*
X118961887Y-98302986D01*
X119575290Y-98425000D01*
X120200710Y-98425000D01*
X120814113Y-98302986D01*
X121391926Y-98063648D01*
X121911944Y-97716183D01*
X122354183Y-97273944D01*
X122701648Y-96753926D01*
X122940986Y-96176113D01*
X123063000Y-95562710D01*
X123063000Y-94937290D01*
X122940986Y-94323887D01*
X122701648Y-93746074D01*
X122354183Y-93226056D01*
X121911944Y-92783817D01*
X121391926Y-92436352D01*
X121132755Y-92329000D01*
X124079000Y-92329000D01*
X124079000Y-106553000D01*
X113538000Y-106553000D01*
X113513224Y-106555440D01*
X113489399Y-106562667D01*
X113467443Y-106574403D01*
X113448197Y-106590197D01*
X113432403Y-106609443D01*
X113420667Y-106631399D01*
X113413440Y-106655224D01*
X113411000Y-106680000D01*
X113411000Y-114173000D01*
X100965000Y-114173000D01*
X100965000Y-99695000D01*
X116078000Y-99695000D01*
X116102776Y-99692560D01*
X116126601Y-99685333D01*
X116148557Y-99673597D01*
X116167803Y-99657803D01*
X116183597Y-99638557D01*
X116195333Y-99616601D01*
X116202560Y-99592776D01*
X116205000Y-99568000D01*
X116205000Y-92329000D01*
X118643245Y-92329000D01*
X118384074Y-92436352D01*
M02*
