%
M48
M72
T01C0.0150
T02C0.0197
T03C0.0276
T04C0.0300
T05C0.0394
T06C0.0400
T07C0.0512
T08C0.0550
T09C0.0551
T10C0.0600
T11C0.0787
T12C0.0800
T13C0.1260
T14C0.1260
T15C0.1600
T16C0.1700
T17C0.3600
%
T01
X17745Y12470
X19230Y12470
X19230Y18670
X17745Y18670
X17745Y24870
X19230Y24870
X19230Y31070
X17745Y31070
X17745Y37270
X19230Y37270
X19230Y43470
X17745Y43470
X17745Y49670
X19230Y49670
X19260Y55860
X17745Y55870
X26260Y52760
X29280Y54360
X30260Y53860
X30360Y51710
X29280Y48160
X30260Y47660
X30360Y45510
X29280Y41960
X30260Y41460
X30360Y39310
X29280Y35760
X30260Y35260
X30360Y33110
X29280Y29560
X30260Y29060
X30360Y26910
X29280Y23360
X30260Y22860
X30360Y20710
X29280Y17160
X30260Y16660
X30360Y14510
X29260Y10960
X30260Y10460
X30360Y8310
X26260Y9360
X26260Y15560
X26260Y21760
X26260Y27960
X26260Y34160
X26260Y40360
X26260Y46560
X29920Y57320
X30160Y59960
X29260Y60560
X30360Y64300
X30260Y66160
X29260Y66660
X37260Y71360
X38260Y71360
X39260Y71360
X40260Y71360
X41260Y71360
X42260Y71360
X43260Y71360
X44260Y71360
X45260Y71360
X46260Y71360
X45260Y59760
X48860Y53060
X48860Y52060
X48860Y48460
X48860Y47460
X47860Y43560
X57560Y43560
X67460Y60860
X68760Y61060
X70560Y63460
X64960Y62260
X61510Y74960
X60410Y74960
X59510Y74960
X58410Y74960
X60220Y77780
X61720Y77780
X46760Y12210
X46760Y11510
X46760Y10810
X46760Y10110
X46760Y9410
T02
X46460Y58010
T03
X37044Y35760
X35075Y35760
X35075Y30360
X37044Y30360
X37044Y24960
X35075Y24960
X35075Y19560
X37044Y19560
T04
X46160Y46960
X46160Y47960
X46160Y48960
X46160Y51560
X46160Y52560
X46160Y53560
T05
X68660Y44410
X68660Y43410
X68660Y42410
X68660Y41410
X69660Y40910
X69660Y41910
X69660Y42910
X69660Y43910
T06
X69660Y65160
X70660Y65160
X71660Y65160
X71660Y66160
X70660Y66160
X69660Y66160
X68660Y66160
X68660Y65160
X67660Y65160
X67660Y66160
X66660Y66160
X66660Y65160
X65660Y65160
X65660Y66160
X64660Y66160
X64660Y65160
X72660Y65160
X73660Y65160
X73660Y66160
X72660Y66160
X72660Y82160
X73660Y82160
X73660Y83160
X72660Y83160
X71660Y83160
X71660Y82160
X70660Y82160
X70660Y83160
X69660Y83160
X69660Y82160
X68660Y82160
X68660Y83160
X67660Y83160
X67660Y82160
X66660Y82160
X66660Y83160
X65660Y83160
X65660Y82160
X64660Y82160
X64660Y83160
X48660Y83160
X48660Y82160
X47660Y82160
X47660Y83160
X46660Y83160
X46660Y82160
X45660Y82160
X45660Y83160
X44660Y83160
X44660Y82160
X43660Y82160
X43660Y83160
X42660Y83160
X42660Y82160
X41660Y82160
X41660Y83160
X40660Y83160
X40660Y82160
X39660Y82160
X39660Y83160
X39660Y66160
X40660Y66160
X40660Y65160
X39660Y65160
X41660Y65160
X42660Y65160
X43660Y65160
X44660Y65160
X45660Y65160
X45660Y66160
X44660Y66160
X43660Y66160
X42660Y66160
X41660Y66160
X46660Y66160
X47660Y66160
X48660Y66160
X48660Y65160
X47660Y65160
X46660Y65160
X39535Y60448
X39535Y58448
X35485Y58448
X35485Y60448
T07
X48860Y17360
X51860Y17360
X54860Y17360
X64010Y17360
X67010Y17360
X70010Y17360
T08
X48672Y14110
X41672Y14110
X41160Y42260
X34160Y42260
T09
X71210Y14515
X71210Y13105
T10
X50860Y50410
X50860Y53410
X50860Y56410
X70860Y54910
X70860Y53410
X70860Y51910
T11
X70010Y37360
X64010Y37360
X54860Y37360
X48860Y37360
T12
X70860Y50410
X70860Y56410
T13
X62660Y70160
X57660Y82160
T14
X72160Y44910
X72160Y40410
T15
X20760Y40873
X17660Y40873
X17660Y47123
X20760Y47123
X20760Y53373
X17660Y53373
X17660Y59623
X20760Y59623
X20760Y65873
X17660Y65873
X17660Y34623
X20760Y34623
X20760Y28373
X17660Y28373
X17660Y22123
X20760Y22123
X20760Y15873
X17660Y15873
X17660Y9623
X20760Y9623
T16
X13360Y6498
X13360Y12748
X13360Y18998
X13360Y25248
X13360Y31498
X13360Y37748
X13360Y43998
X13360Y50248
X13360Y56498
X13360Y62748
X13360Y68998
X14460Y82810
X71460Y6510
T17
X52260Y9760
X35760Y9760
M30
