G75*
%MOIN*%
%OFA0B0*%
%FSLAX24Y24*%
%IPPOS*%
%LPD*%
%AMOC8*
5,1,8,0,0,1.08239X$1,22.5*
%
%ADD10C,0.0050*%
%ADD11C,0.0120*%
%ADD12C,0.0060*%
%ADD13C,0.0000*%
%ADD14C,0.0110*%
%ADD15C,0.0150*%
%ADD16C,0.0100*%
%ADD17C,0.0080*%
%ADD18C,0.0030*%
%ADD19C,0.0040*%
%ADD20R,0.1575X0.0394*%
%ADD21R,0.0900X0.0250*%
%ADD22R,0.0400X0.2000*%
%ADD23R,0.0850X0.0400*%
%ADD24R,0.1260X0.0413*%
%ADD25R,0.0748X0.0413*%
%ADD26C,0.0020*%
%ADD27R,0.0006X0.0002*%
%ADD28R,0.0004X0.0002*%
%ADD29R,0.0008X0.0002*%
%ADD30R,0.0034X0.0002*%
%ADD31R,0.0006X0.0002*%
%ADD32R,0.0010X0.0002*%
%ADD33R,0.0056X0.0002*%
%ADD34R,0.0008X0.0002*%
%ADD35R,0.0010X0.0002*%
%ADD36R,0.0074X0.0002*%
%ADD37R,0.0094X0.0002*%
%ADD38R,0.0002X0.0002*%
%ADD39R,0.0142X0.0002*%
%ADD40R,0.0154X0.0002*%
%ADD41R,0.0164X0.0002*%
%ADD42R,0.0178X0.0002*%
%ADD43R,0.0188X0.0002*%
%ADD44R,0.0194X0.0002*%
%ADD45R,0.0206X0.0002*%
%ADD46R,0.0214X0.0002*%
%ADD47R,0.0226X0.0002*%
%ADD48R,0.0238X0.0002*%
%ADD49R,0.0246X0.0002*%
%ADD50R,0.0252X0.0002*%
%ADD51R,0.0262X0.0002*%
%ADD52R,0.0270X0.0002*%
%ADD53R,0.0274X0.0002*%
%ADD54R,0.0280X0.0002*%
%ADD55R,0.0286X0.0002*%
%ADD56R,0.0292X0.0002*%
%ADD57R,0.0298X0.0002*%
%ADD58R,0.0304X0.0002*%
%ADD59R,0.0310X0.0002*%
%ADD60R,0.0314X0.0002*%
%ADD61R,0.0318X0.0002*%
%ADD62R,0.0326X0.0002*%
%ADD63R,0.0332X0.0002*%
%ADD64R,0.0338X0.0002*%
%ADD65R,0.0344X0.0002*%
%ADD66R,0.0350X0.0002*%
%ADD67R,0.0354X0.0002*%
%ADD68R,0.0360X0.0002*%
%ADD69R,0.0178X0.0002*%
%ADD70R,0.0128X0.0002*%
%ADD71R,0.0162X0.0002*%
%ADD72R,0.0122X0.0002*%
%ADD73R,0.0150X0.0002*%
%ADD74R,0.0118X0.0002*%
%ADD75R,0.0148X0.0002*%
%ADD76R,0.0114X0.0002*%
%ADD77R,0.0146X0.0002*%
%ADD78R,0.0108X0.0002*%
%ADD79R,0.0108X0.0002*%
%ADD80R,0.0144X0.0002*%
%ADD81R,0.0106X0.0002*%
%ADD82R,0.0144X0.0002*%
%ADD83R,0.0142X0.0002*%
%ADD84R,0.0140X0.0002*%
%ADD85R,0.0138X0.0002*%
%ADD86R,0.0114X0.0002*%
%ADD87R,0.0004X0.0002*%
%ADD88R,0.0132X0.0002*%
%ADD89R,0.0174X0.0002*%
%ADD90R,0.0132X0.0002*%
%ADD91R,0.0202X0.0002*%
%ADD92R,0.0002X0.0002*%
%ADD93R,0.0130X0.0002*%
%ADD94R,0.0208X0.0002*%
%ADD95R,0.0130X0.0002*%
%ADD96R,0.0222X0.0002*%
%ADD97R,0.0002X0.0002*%
%ADD98R,0.0244X0.0002*%
%ADD99R,0.0128X0.0002*%
%ADD100R,0.0256X0.0002*%
%ADD101R,0.0126X0.0002*%
%ADD102R,0.0266X0.0002*%
%ADD103R,0.0276X0.0002*%
%ADD104R,0.0296X0.0002*%
%ADD105R,0.0328X0.0002*%
%ADD106R,0.0126X0.0002*%
%ADD107R,0.0346X0.0002*%
%ADD108R,0.0356X0.0002*%
%ADD109R,0.0124X0.0002*%
%ADD110R,0.0366X0.0002*%
%ADD111R,0.0124X0.0002*%
%ADD112R,0.0386X0.0002*%
%ADD113R,0.0398X0.0002*%
%ADD114R,0.0122X0.0002*%
%ADD115R,0.0406X0.0002*%
%ADD116R,0.0122X0.0002*%
%ADD117R,0.0416X0.0002*%
%ADD118R,0.0424X0.0002*%
%ADD119R,0.0120X0.0002*%
%ADD120R,0.0432X0.0002*%
%ADD121R,0.0120X0.0002*%
%ADD122R,0.0446X0.0002*%
%ADD123R,0.0118X0.0002*%
%ADD124R,0.0456X0.0002*%
%ADD125R,0.0464X0.0002*%
%ADD126R,0.0474X0.0002*%
%ADD127R,0.0484X0.0002*%
%ADD128R,0.0494X0.0002*%
%ADD129R,0.0506X0.0002*%
%ADD130R,0.0514X0.0002*%
%ADD131R,0.0522X0.0002*%
%ADD132R,0.0532X0.0002*%
%ADD133R,0.0538X0.0002*%
%ADD134R,0.0546X0.0002*%
%ADD135R,0.0554X0.0002*%
%ADD136R,0.0560X0.0002*%
%ADD137R,0.0566X0.0002*%
%ADD138R,0.0194X0.0002*%
%ADD139R,0.0366X0.0002*%
%ADD140R,0.0194X0.0002*%
%ADD141R,0.0122X0.0002*%
%ADD142R,0.0196X0.0002*%
%ADD143R,0.0074X0.0002*%
%ADD144R,0.0272X0.0002*%
%ADD145R,0.0196X0.0002*%
%ADD146R,0.0070X0.0002*%
%ADD147R,0.0262X0.0002*%
%ADD148R,0.0198X0.0002*%
%ADD149R,0.0070X0.0002*%
%ADD150R,0.0256X0.0002*%
%ADD151R,0.0202X0.0002*%
%ADD152R,0.0068X0.0002*%
%ADD153R,0.0250X0.0002*%
%ADD154R,0.0068X0.0002*%
%ADD155R,0.0244X0.0002*%
%ADD156R,0.0210X0.0002*%
%ADD157R,0.0066X0.0002*%
%ADD158R,0.0240X0.0002*%
%ADD159R,0.0218X0.0002*%
%ADD160R,0.0236X0.0002*%
%ADD161R,0.0220X0.0002*%
%ADD162R,0.0236X0.0002*%
%ADD163R,0.0228X0.0002*%
%ADD164R,0.0072X0.0002*%
%ADD165R,0.0234X0.0002*%
%ADD166R,0.0312X0.0002*%
%ADD167R,0.0232X0.0002*%
%ADD168R,0.0316X0.0002*%
%ADD169R,0.0232X0.0002*%
%ADD170R,0.0318X0.0002*%
%ADD171R,0.0230X0.0002*%
%ADD172R,0.0324X0.0002*%
%ADD173R,0.0230X0.0002*%
%ADD174R,0.0336X0.0002*%
%ADD175R,0.0342X0.0002*%
%ADD176R,0.0226X0.0002*%
%ADD177R,0.0224X0.0002*%
%ADD178R,0.0124X0.0002*%
%ADD179R,0.0392X0.0002*%
%ADD180R,0.0408X0.0002*%
%ADD181R,0.0446X0.0002*%
%ADD182R,0.0724X0.0002*%
%ADD183R,0.0730X0.0002*%
%ADD184R,0.0192X0.0002*%
%ADD185R,0.0528X0.0002*%
%ADD186R,0.0530X0.0002*%
%ADD187R,0.0530X0.0002*%
%ADD188R,0.0534X0.0002*%
%ADD189R,0.0200X0.0002*%
%ADD190R,0.0534X0.0002*%
%ADD191R,0.0202X0.0002*%
%ADD192R,0.0204X0.0002*%
%ADD193R,0.0544X0.0002*%
%ADD194R,0.0210X0.0002*%
%ADD195R,0.0548X0.0002*%
%ADD196R,0.0566X0.0002*%
%ADD197R,0.0634X0.0002*%
%ADD198R,0.0632X0.0002*%
%ADD199R,0.0634X0.0002*%
%ADD200R,0.0636X0.0002*%
%ADD201R,0.0116X0.0002*%
%ADD202R,0.0638X0.0002*%
%ADD203R,0.0110X0.0002*%
%ADD204R,0.0640X0.0002*%
%ADD205R,0.0644X0.0002*%
%ADD206R,0.0104X0.0002*%
%ADD207R,0.0648X0.0002*%
%ADD208R,0.0104X0.0002*%
%ADD209R,0.0650X0.0002*%
%ADD210R,0.0102X0.0002*%
%ADD211R,0.0654X0.0002*%
%ADD212R,0.0100X0.0002*%
%ADD213R,0.0660X0.0002*%
%ADD214R,0.0098X0.0002*%
%ADD215R,0.0666X0.0002*%
%ADD216R,0.0132X0.0002*%
%ADD217R,0.0092X0.0002*%
%ADD218R,0.0670X0.0002*%
%ADD219R,0.0132X0.0002*%
%ADD220R,0.0090X0.0002*%
%ADD221R,0.0678X0.0002*%
%ADD222R,0.0134X0.0002*%
%ADD223R,0.0086X0.0002*%
%ADD224R,0.0682X0.0002*%
%ADD225R,0.0134X0.0002*%
%ADD226R,0.0084X0.0002*%
%ADD227R,0.0688X0.0002*%
%ADD228R,0.0080X0.0002*%
%ADD229R,0.0690X0.0002*%
%ADD230R,0.0138X0.0002*%
%ADD231R,0.0078X0.0002*%
%ADD232R,0.0002X0.0002*%
%ADD233R,0.0694X0.0002*%
%ADD234R,0.0076X0.0002*%
%ADD235R,0.0840X0.0002*%
%ADD236R,0.0842X0.0002*%
%ADD237R,0.0846X0.0002*%
%ADD238R,0.0078X0.0002*%
%ADD239R,0.0850X0.0002*%
%ADD240R,0.0166X0.0002*%
%ADD241R,0.0674X0.0002*%
%ADD242R,0.0168X0.0002*%
%ADD243R,0.0668X0.0002*%
%ADD244R,0.0080X0.0002*%
%ADD245R,0.0666X0.0002*%
%ADD246R,0.0168X0.0002*%
%ADD247R,0.0664X0.0002*%
%ADD248R,0.0170X0.0002*%
%ADD249R,0.0662X0.0002*%
%ADD250R,0.0076X0.0002*%
%ADD251R,0.0098X0.0002*%
%ADD252R,0.0052X0.0002*%
%ADD253R,0.0662X0.0002*%
%ADD254R,0.0094X0.0002*%
%ADD255R,0.0048X0.0002*%
%ADD256R,0.0092X0.0002*%
%ADD257R,0.0046X0.0002*%
%ADD258R,0.0090X0.0002*%
%ADD259R,0.0042X0.0002*%
%ADD260R,0.0658X0.0002*%
%ADD261R,0.0040X0.0002*%
%ADD262R,0.0656X0.0002*%
%ADD263R,0.0088X0.0002*%
%ADD264R,0.0040X0.0002*%
%ADD265R,0.0652X0.0002*%
%ADD266R,0.0066X0.0002*%
%ADD267R,0.0088X0.0002*%
%ADD268R,0.0038X0.0002*%
%ADD269R,0.0186X0.0002*%
%ADD270R,0.0460X0.0002*%
%ADD271R,0.0038X0.0002*%
%ADD272R,0.0182X0.0002*%
%ADD273R,0.0458X0.0002*%
%ADD274R,0.0064X0.0002*%
%ADD275R,0.0074X0.0002*%
%ADD276R,0.0452X0.0002*%
%ADD277R,0.0062X0.0002*%
%ADD278R,0.0176X0.0002*%
%ADD279R,0.0448X0.0002*%
%ADD280R,0.0176X0.0002*%
%ADD281R,0.0444X0.0002*%
%ADD282R,0.0062X0.0002*%
%ADD283R,0.0074X0.0002*%
%ADD284R,0.0174X0.0002*%
%ADD285R,0.0438X0.0002*%
%ADD286R,0.0060X0.0002*%
%ADD287R,0.0172X0.0002*%
%ADD288R,0.0434X0.0002*%
%ADD289R,0.0062X0.0002*%
%ADD290R,0.0170X0.0002*%
%ADD291R,0.0426X0.0002*%
%ADD292R,0.0036X0.0002*%
%ADD293R,0.0422X0.0002*%
%ADD294R,0.0062X0.0002*%
%ADD295R,0.0412X0.0002*%
%ADD296R,0.0036X0.0002*%
%ADD297R,0.0406X0.0002*%
%ADD298R,0.0058X0.0002*%
%ADD299R,0.0404X0.0002*%
%ADD300R,0.0058X0.0002*%
%ADD301R,0.0402X0.0002*%
%ADD302R,0.0060X0.0002*%
%ADD303R,0.0398X0.0002*%
%ADD304R,0.0394X0.0002*%
%ADD305R,0.0392X0.0002*%
%ADD306R,0.0164X0.0002*%
%ADD307R,0.0388X0.0002*%
%ADD308R,0.0166X0.0002*%
%ADD309R,0.0384X0.0002*%
%ADD310R,0.0380X0.0002*%
%ADD311R,0.0378X0.0002*%
%ADD312R,0.0056X0.0002*%
%ADD313R,0.0376X0.0002*%
%ADD314R,0.0034X0.0002*%
%ADD315R,0.0374X0.0002*%
%ADD316R,0.0034X0.0002*%
%ADD317R,0.0372X0.0002*%
%ADD318R,0.0054X0.0002*%
%ADD319R,0.0034X0.0002*%
%ADD320R,0.0370X0.0002*%
%ADD321R,0.0032X0.0002*%
%ADD322R,0.0172X0.0002*%
%ADD323R,0.0054X0.0002*%
%ADD324R,0.0054X0.0002*%
%ADD325R,0.0172X0.0002*%
%ADD326R,0.0032X0.0002*%
%ADD327R,0.0174X0.0002*%
%ADD328R,0.0364X0.0002*%
%ADD329R,0.0052X0.0002*%
%ADD330R,0.0032X0.0002*%
%ADD331R,0.0360X0.0002*%
%ADD332R,0.0358X0.0002*%
%ADD333R,0.0052X0.0002*%
%ADD334R,0.0356X0.0002*%
%ADD335R,0.0052X0.0002*%
%ADD336R,0.0180X0.0002*%
%ADD337R,0.0354X0.0002*%
%ADD338R,0.0050X0.0002*%
%ADD339R,0.0180X0.0002*%
%ADD340R,0.0348X0.0002*%
%ADD341R,0.0032X0.0002*%
%ADD342R,0.0182X0.0002*%
%ADD343R,0.0344X0.0002*%
%ADD344R,0.0182X0.0002*%
%ADD345R,0.0344X0.0002*%
%ADD346R,0.0050X0.0002*%
%ADD347R,0.0184X0.0002*%
%ADD348R,0.0340X0.0002*%
%ADD349R,0.0054X0.0002*%
%ADD350R,0.0184X0.0002*%
%ADD351R,0.0340X0.0002*%
%ADD352R,0.0184X0.0002*%
%ADD353R,0.0048X0.0002*%
%ADD354R,0.0336X0.0002*%
%ADD355R,0.0044X0.0002*%
%ADD356R,0.0044X0.0002*%
%ADD357R,0.0184X0.0002*%
%ADD358R,0.0332X0.0002*%
%ADD359R,0.0332X0.0002*%
%ADD360R,0.0044X0.0002*%
%ADD361R,0.0330X0.0002*%
%ADD362R,0.0046X0.0002*%
%ADD363R,0.0330X0.0002*%
%ADD364R,0.0328X0.0002*%
%ADD365R,0.0326X0.0002*%
%ADD366R,0.0322X0.0002*%
%ADD367R,0.0320X0.0002*%
%ADD368R,0.0042X0.0002*%
%ADD369R,0.0320X0.0002*%
%ADD370R,0.0042X0.0002*%
%ADD371R,0.0042X0.0002*%
%ADD372R,0.0316X0.0002*%
%ADD373R,0.0064X0.0002*%
%ADD374R,0.0064X0.0002*%
%ADD375R,0.0064X0.0002*%
%ADD376R,0.0314X0.0002*%
%ADD377R,0.0312X0.0002*%
%ADD378R,0.0312X0.0002*%
%ADD379R,0.0346X0.0002*%
%ADD380R,0.0182X0.0002*%
%ADD381R,0.0362X0.0002*%
%ADD382R,0.0388X0.0002*%
%ADD383R,0.0596X0.0002*%
%ADD384R,0.0606X0.0002*%
%ADD385R,0.0616X0.0002*%
%ADD386R,0.0030X0.0002*%
%ADD387R,0.0626X0.0002*%
%ADD388R,0.0642X0.0002*%
%ADD389R,0.0650X0.0002*%
%ADD390R,0.0656X0.0002*%
%ADD391R,0.0664X0.0002*%
%ADD392R,0.0668X0.0002*%
%ADD393R,0.0674X0.0002*%
%ADD394R,0.0680X0.0002*%
%ADD395R,0.0686X0.0002*%
%ADD396R,0.0692X0.0002*%
%ADD397R,0.0698X0.0002*%
%ADD398R,0.0082X0.0002*%
%ADD399R,0.0702X0.0002*%
%ADD400R,0.0304X0.0002*%
%ADD401R,0.0116X0.0002*%
%ADD402R,0.0072X0.0002*%
%ADD403R,0.0284X0.0002*%
%ADD404R,0.0260X0.0002*%
%ADD405R,0.0248X0.0002*%
%ADD406R,0.0242X0.0002*%
%ADD407R,0.0234X0.0002*%
%ADD408R,0.0110X0.0002*%
%ADD409R,0.0220X0.0002*%
%ADD410R,0.0112X0.0002*%
%ADD411R,0.0214X0.0002*%
%ADD412R,0.0206X0.0002*%
%ADD413R,0.0030X0.0002*%
%ADD414R,0.0216X0.0002*%
%ADD415R,0.0224X0.0002*%
%ADD416R,0.0028X0.0002*%
%ADD417R,0.0142X0.0002*%
%ADD418R,0.0240X0.0002*%
%ADD419R,0.0156X0.0002*%
%ADD420R,0.0028X0.0002*%
%ADD421R,0.0160X0.0002*%
%ADD422R,0.0260X0.0002*%
%ADD423R,0.0268X0.0002*%
%ADD424R,0.0026X0.0002*%
%ADD425R,0.0214X0.0002*%
%ADD426R,0.0278X0.0002*%
%ADD427R,0.0024X0.0002*%
%ADD428R,0.0024X0.0002*%
%ADD429R,0.0284X0.0002*%
%ADD430R,0.0022X0.0002*%
%ADD431R,0.0288X0.0002*%
%ADD432R,0.0022X0.0002*%
%ADD433R,0.0290X0.0002*%
%ADD434R,0.0022X0.0002*%
%ADD435R,0.0246X0.0002*%
%ADD436R,0.0294X0.0002*%
%ADD437R,0.0022X0.0002*%
%ADD438R,0.0252X0.0002*%
%ADD439R,0.0020X0.0002*%
%ADD440R,0.0300X0.0002*%
%ADD441R,0.0020X0.0002*%
%ADD442R,0.0262X0.0002*%
%ADD443R,0.0302X0.0002*%
%ADD444R,0.0270X0.0002*%
%ADD445R,0.0306X0.0002*%
%ADD446R,0.0276X0.0002*%
%ADD447R,0.0310X0.0002*%
%ADD448R,0.0282X0.0002*%
%ADD449R,0.0288X0.0002*%
%ADD450R,0.0018X0.0002*%
%ADD451R,0.0298X0.0002*%
%ADD452R,0.0304X0.0002*%
%ADD453R,0.0324X0.0002*%
%ADD454R,0.0018X0.0002*%
%ADD455R,0.0332X0.0002*%
%ADD456R,0.0026X0.0002*%
%ADD457R,0.0334X0.0002*%
%ADD458R,0.0334X0.0002*%
%ADD459R,0.0338X0.0002*%
%ADD460R,0.0016X0.0002*%
%ADD461R,0.0344X0.0002*%
%ADD462R,0.0348X0.0002*%
%ADD463R,0.0016X0.0002*%
%ADD464R,0.0024X0.0002*%
%ADD465R,0.0350X0.0002*%
%ADD466R,0.0352X0.0002*%
%ADD467R,0.0372X0.0002*%
%ADD468R,0.0024X0.0002*%
%ADD469R,0.0014X0.0002*%
%ADD470R,0.0378X0.0002*%
%ADD471R,0.0358X0.0002*%
%ADD472R,0.0014X0.0002*%
%ADD473R,0.0386X0.0002*%
%ADD474R,0.0362X0.0002*%
%ADD475R,0.0364X0.0002*%
%ADD476R,0.0368X0.0002*%
%ADD477R,0.0402X0.0002*%
%ADD478R,0.0368X0.0002*%
%ADD479R,0.0012X0.0002*%
%ADD480R,0.0014X0.0002*%
%ADD481R,0.0414X0.0002*%
%ADD482R,0.0374X0.0002*%
%ADD483R,0.0420X0.0002*%
%ADD484R,0.0376X0.0002*%
%ADD485R,0.0422X0.0002*%
%ADD486R,0.0428X0.0002*%
%ADD487R,0.0380X0.0002*%
%ADD488R,0.0012X0.0002*%
%ADD489R,0.0434X0.0002*%
%ADD490R,0.0382X0.0002*%
%ADD491R,0.0044X0.0002*%
%ADD492R,0.0012X0.0002*%
%ADD493R,0.0012X0.0002*%
%ADD494R,0.0450X0.0002*%
%ADD495R,0.0390X0.0002*%
%ADD496R,0.0454X0.0002*%
%ADD497R,0.0390X0.0002*%
%ADD498R,0.0464X0.0002*%
%ADD499R,0.0396X0.0002*%
%ADD500R,0.0468X0.0002*%
%ADD501R,0.0396X0.0002*%
%ADD502R,0.0474X0.0002*%
%ADD503R,0.0400X0.0002*%
%ADD504R,0.0478X0.0002*%
%ADD505R,0.0400X0.0002*%
%ADD506R,0.0488X0.0002*%
%ADD507R,0.0004X0.0002*%
%ADD508R,0.0498X0.0002*%
%ADD509R,0.0410X0.0002*%
%ADD510R,0.0502X0.0002*%
%ADD511R,0.0410X0.0002*%
%ADD512R,0.0508X0.0002*%
%ADD513R,0.0412X0.0002*%
%ADD514R,0.0512X0.0002*%
%ADD515R,0.0518X0.0002*%
%ADD516R,0.0522X0.0002*%
%ADD517R,0.0418X0.0002*%
%ADD518R,0.0528X0.0002*%
%ADD519R,0.0540X0.0002*%
%ADD520R,0.0424X0.0002*%
%ADD521R,0.0544X0.0002*%
%ADD522R,0.0550X0.0002*%
%ADD523R,0.0428X0.0002*%
%ADD524R,0.0432X0.0002*%
%ADD525R,0.0564X0.0002*%
%ADD526R,0.0568X0.0002*%
%ADD527R,0.0436X0.0002*%
%ADD528R,0.0572X0.0002*%
%ADD529R,0.0436X0.0002*%
%ADD530R,0.0576X0.0002*%
%ADD531R,0.0582X0.0002*%
%ADD532R,0.0440X0.0002*%
%ADD533R,0.0586X0.0002*%
%ADD534R,0.0440X0.0002*%
%ADD535R,0.0590X0.0002*%
%ADD536R,0.0442X0.0002*%
%ADD537R,0.0444X0.0002*%
%ADD538R,0.0598X0.0002*%
%ADD539R,0.0604X0.0002*%
%ADD540R,0.0608X0.0002*%
%ADD541R,0.0448X0.0002*%
%ADD542R,0.0612X0.0002*%
%ADD543R,0.0618X0.0002*%
%ADD544R,0.0452X0.0002*%
%ADD545R,0.0622X0.0002*%
%ADD546R,0.0452X0.0002*%
%ADD547R,0.0630X0.0002*%
%ADD548R,0.0454X0.0002*%
%ADD549R,0.0638X0.0002*%
%ADD550R,0.0458X0.0002*%
%ADD551R,0.0642X0.0002*%
%ADD552R,0.0648X0.0002*%
%ADD553R,0.0462X0.0002*%
%ADD554R,0.0652X0.0002*%
%ADD555R,0.0462X0.0002*%
%ADD556R,0.0464X0.0002*%
%ADD557R,0.0660X0.0002*%
%ADD558R,0.0464X0.0002*%
%ADD559R,0.0664X0.0002*%
%ADD560R,0.0466X0.0002*%
%ADD561R,0.0468X0.0002*%
%ADD562R,0.0014X0.0002*%
%ADD563R,0.0672X0.0002*%
%ADD564R,0.0676X0.0002*%
%ADD565R,0.0470X0.0002*%
%ADD566R,0.0682X0.0002*%
%ADD567R,0.0472X0.0002*%
%ADD568R,0.0472X0.0002*%
%ADD569R,0.0694X0.0002*%
%ADD570R,0.0696X0.0002*%
%ADD571R,0.0476X0.0002*%
%ADD572R,0.0702X0.0002*%
%ADD573R,0.0706X0.0002*%
%ADD574R,0.0478X0.0002*%
%ADD575R,0.0710X0.0002*%
%ADD576R,0.0480X0.0002*%
%ADD577R,0.0714X0.0002*%
%ADD578R,0.0480X0.0002*%
%ADD579R,0.0718X0.0002*%
%ADD580R,0.0724X0.0002*%
%ADD581R,0.0484X0.0002*%
%ADD582R,0.0726X0.0002*%
%ADD583R,0.0486X0.0002*%
%ADD584R,0.0734X0.0002*%
%ADD585R,0.0486X0.0002*%
%ADD586R,0.0738X0.0002*%
%ADD587R,0.0742X0.0002*%
%ADD588R,0.0746X0.0002*%
%ADD589R,0.0488X0.0002*%
%ADD590R,0.0752X0.0002*%
%ADD591R,0.0492X0.0002*%
%ADD592R,0.0756X0.0002*%
%ADD593R,0.0492X0.0002*%
%ADD594R,0.0758X0.0002*%
%ADD595R,0.0762X0.0002*%
%ADD596R,0.0494X0.0002*%
%ADD597R,0.0766X0.0002*%
%ADD598R,0.0770X0.0002*%
%ADD599R,0.0496X0.0002*%
%ADD600R,0.0774X0.0002*%
%ADD601R,0.0496X0.0002*%
%ADD602R,0.0778X0.0002*%
%ADD603R,0.0782X0.0002*%
%ADD604R,0.0498X0.0002*%
%ADD605R,0.0786X0.0002*%
%ADD606R,0.0790X0.0002*%
%ADD607R,0.0794X0.0002*%
%ADD608R,0.0502X0.0002*%
%ADD609R,0.0798X0.0002*%
%ADD610R,0.0502X0.0002*%
%ADD611R,0.0802X0.0002*%
%ADD612R,0.0504X0.0002*%
%ADD613R,0.0806X0.0002*%
%ADD614R,0.0504X0.0002*%
%ADD615R,0.0810X0.0002*%
%ADD616R,0.0814X0.0002*%
%ADD617R,0.0506X0.0002*%
%ADD618R,0.0816X0.0002*%
%ADD619R,0.0820X0.0002*%
%ADD620R,0.0508X0.0002*%
%ADD621R,0.0824X0.0002*%
%ADD622R,0.0828X0.0002*%
%ADD623R,0.0510X0.0002*%
%ADD624R,0.0832X0.0002*%
%ADD625R,0.0510X0.0002*%
%ADD626R,0.0836X0.0002*%
%ADD627R,0.0844X0.0002*%
%ADD628R,0.0512X0.0002*%
%ADD629R,0.0846X0.0002*%
%ADD630R,0.0514X0.0002*%
%ADD631R,0.0850X0.0002*%
%ADD632R,0.0514X0.0002*%
%ADD633R,0.0854X0.0002*%
%ADD634R,0.0858X0.0002*%
%ADD635R,0.0516X0.0002*%
%ADD636R,0.0862X0.0002*%
%ADD637R,0.0516X0.0002*%
%ADD638R,0.0866X0.0002*%
%ADD639R,0.0518X0.0002*%
%ADD640R,0.0870X0.0002*%
%ADD641R,0.0872X0.0002*%
%ADD642R,0.0876X0.0002*%
%ADD643R,0.0520X0.0002*%
%ADD644R,0.0880X0.0002*%
%ADD645R,0.0520X0.0002*%
%ADD646R,0.0884X0.0002*%
%ADD647R,0.0888X0.0002*%
%ADD648R,0.0522X0.0002*%
%ADD649R,0.0892X0.0002*%
%ADD650R,0.0896X0.0002*%
%ADD651R,0.0524X0.0002*%
%ADD652R,0.0900X0.0002*%
%ADD653R,0.0524X0.0002*%
%ADD654R,0.0902X0.0002*%
%ADD655R,0.0526X0.0002*%
%ADD656R,0.0906X0.0002*%
%ADD657R,0.0526X0.0002*%
%ADD658R,0.0910X0.0002*%
%ADD659R,0.0914X0.0002*%
%ADD660R,0.0918X0.0002*%
%ADD661R,0.0920X0.0002*%
%ADD662R,0.0924X0.0002*%
%ADD663R,0.0926X0.0002*%
%ADD664R,0.0930X0.0002*%
%ADD665R,0.0934X0.0002*%
%ADD666R,0.0938X0.0002*%
%ADD667R,0.0532X0.0002*%
%ADD668R,0.0942X0.0002*%
%ADD669R,0.0946X0.0002*%
%ADD670R,0.0950X0.0002*%
%ADD671R,0.0954X0.0002*%
%ADD672R,0.0956X0.0002*%
%ADD673R,0.0958X0.0002*%
%ADD674R,0.0962X0.0002*%
%ADD675R,0.0966X0.0002*%
%ADD676R,0.0536X0.0002*%
%ADD677R,0.0970X0.0002*%
%ADD678R,0.0536X0.0002*%
%ADD679R,0.0974X0.0002*%
%ADD680R,0.0538X0.0002*%
%ADD681R,0.0978X0.0002*%
%ADD682R,0.0980X0.0002*%
%ADD683R,0.0984X0.0002*%
%ADD684R,0.0540X0.0002*%
%ADD685R,0.0986X0.0002*%
%ADD686R,0.0990X0.0002*%
%ADD687R,0.0994X0.0002*%
%ADD688R,0.0998X0.0002*%
%ADD689R,0.1002X0.0002*%
%ADD690R,0.0542X0.0002*%
%ADD691R,0.1006X0.0002*%
%ADD692R,0.0542X0.0002*%
%ADD693R,0.1006X0.0002*%
%ADD694R,0.1010X0.0002*%
%ADD695R,0.0542X0.0002*%
%ADD696R,0.1014X0.0002*%
%ADD697R,0.1018X0.0002*%
%ADD698R,0.0544X0.0002*%
%ADD699R,0.1022X0.0002*%
%ADD700R,0.1026X0.0002*%
%ADD701R,0.1028X0.0002*%
%ADD702R,0.1030X0.0002*%
%ADD703R,0.1034X0.0002*%
%ADD704R,0.1038X0.0002*%
%ADD705R,0.0546X0.0002*%
%ADD706R,0.1042X0.0002*%
%ADD707R,0.1044X0.0002*%
%ADD708R,0.1048X0.0002*%
%ADD709R,0.1052X0.0002*%
%ADD710R,0.1056X0.0002*%
%ADD711R,0.0548X0.0002*%
%ADD712R,0.1058X0.0002*%
%ADD713R,0.1060X0.0002*%
%ADD714R,0.1064X0.0002*%
%ADD715R,0.1068X0.0002*%
%ADD716R,0.1072X0.0002*%
%ADD717R,0.0550X0.0002*%
%ADD718R,0.1074X0.0002*%
%ADD719R,0.1078X0.0002*%
%ADD720R,0.1082X0.0002*%
%ADD721R,0.1084X0.0002*%
%ADD722R,0.0552X0.0002*%
%ADD723R,0.1086X0.0002*%
%ADD724R,0.1090X0.0002*%
%ADD725R,0.1094X0.0002*%
%ADD726R,0.0552X0.0002*%
%ADD727R,0.1098X0.0002*%
%ADD728R,0.0552X0.0002*%
%ADD729R,0.1100X0.0002*%
%ADD730R,0.1104X0.0002*%
%ADD731R,0.1108X0.0002*%
%ADD732R,0.1112X0.0002*%
%ADD733R,0.0554X0.0002*%
%ADD734R,0.1114X0.0002*%
%ADD735R,0.1116X0.0002*%
%ADD736R,0.0554X0.0002*%
%ADD737R,0.1120X0.0002*%
%ADD738R,0.1124X0.0002*%
%ADD739R,0.1126X0.0002*%
%ADD740R,0.1130X0.0002*%
%ADD741R,0.1134X0.0002*%
%ADD742R,0.0556X0.0002*%
%ADD743R,0.1136X0.0002*%
%ADD744R,0.1140X0.0002*%
%ADD745R,0.1144X0.0002*%
%ADD746R,0.0556X0.0002*%
%ADD747R,0.1148X0.0002*%
%ADD748R,0.1148X0.0002*%
%ADD749R,0.1152X0.0002*%
%ADD750R,0.1156X0.0002*%
%ADD751R,0.1158X0.0002*%
%ADD752R,0.1162X0.0002*%
%ADD753R,0.1166X0.0002*%
%ADD754R,0.0558X0.0002*%
%ADD755R,0.1168X0.0002*%
%ADD756R,0.1172X0.0002*%
%ADD757R,0.1176X0.0002*%
%ADD758R,0.0558X0.0002*%
%ADD759R,0.1180X0.0002*%
%ADD760R,0.1184X0.0002*%
%ADD761R,0.1186X0.0002*%
%ADD762R,0.1190X0.0002*%
%ADD763R,0.1194X0.0002*%
%ADD764R,0.1196X0.0002*%
%ADD765R,0.1200X0.0002*%
%ADD766R,0.1204X0.0002*%
%ADD767R,0.1206X0.0002*%
%ADD768R,0.1208X0.0002*%
%ADD769R,0.1212X0.0002*%
%ADD770R,0.1214X0.0002*%
%ADD771R,0.1218X0.0002*%
%ADD772R,0.1222X0.0002*%
%ADD773R,0.0560X0.0002*%
%ADD774R,0.1224X0.0002*%
%ADD775R,0.1228X0.0002*%
%ADD776R,0.1232X0.0002*%
%ADD777R,0.1234X0.0002*%
%ADD778R,0.1238X0.0002*%
%ADD779R,0.1240X0.0002*%
%ADD780R,0.1244X0.0002*%
%ADD781R,0.1246X0.0002*%
%ADD782R,0.1248X0.0002*%
%ADD783R,0.1252X0.0002*%
%ADD784R,0.1256X0.0002*%
%ADD785R,0.1258X0.0002*%
%ADD786R,0.1262X0.0002*%
%ADD787R,0.1264X0.0002*%
%ADD788R,0.1268X0.0002*%
%ADD789R,0.1272X0.0002*%
%ADD790R,0.1274X0.0002*%
%ADD791R,0.1278X0.0002*%
%ADD792R,0.1280X0.0002*%
%ADD793R,0.1284X0.0002*%
%ADD794R,0.1286X0.0002*%
%ADD795R,0.1288X0.0002*%
%ADD796R,0.1292X0.0002*%
%ADD797R,0.1294X0.0002*%
%ADD798R,0.1298X0.0002*%
%ADD799R,0.1300X0.0002*%
%ADD800R,0.1304X0.0002*%
%ADD801R,0.1308X0.0002*%
%ADD802R,0.1310X0.0002*%
%ADD803R,0.1314X0.0002*%
%ADD804R,0.1316X0.0002*%
%ADD805R,0.1320X0.0002*%
%ADD806R,0.1322X0.0002*%
%ADD807R,0.1326X0.0002*%
%ADD808R,0.1326X0.0002*%
%ADD809R,0.1330X0.0002*%
%ADD810R,0.1334X0.0002*%
%ADD811R,0.1336X0.0002*%
%ADD812R,0.1340X0.0002*%
%ADD813R,0.1342X0.0002*%
%ADD814R,0.1346X0.0002*%
%ADD815R,0.1348X0.0002*%
%ADD816R,0.1352X0.0002*%
%ADD817R,0.1354X0.0002*%
%ADD818R,0.1358X0.0002*%
%ADD819R,0.1360X0.0002*%
%ADD820R,0.1364X0.0002*%
%ADD821R,0.1366X0.0002*%
%ADD822R,0.1368X0.0002*%
%ADD823R,0.1370X0.0002*%
%ADD824R,0.1374X0.0002*%
%ADD825R,0.1378X0.0002*%
%ADD826R,0.1380X0.0002*%
%ADD827R,0.1384X0.0002*%
%ADD828R,0.1386X0.0002*%
%ADD829R,0.1390X0.0002*%
%ADD830R,0.1392X0.0002*%
%ADD831R,0.1396X0.0002*%
%ADD832R,0.1398X0.0002*%
%ADD833R,0.1402X0.0002*%
%ADD834R,0.1404X0.0002*%
%ADD835R,0.1408X0.0002*%
%ADD836R,0.1408X0.0002*%
%ADD837R,0.1412X0.0002*%
%ADD838R,0.0554X0.0002*%
%ADD839R,0.1414X0.0002*%
%ADD840R,0.1416X0.0002*%
%ADD841R,0.1420X0.0002*%
%ADD842R,0.0552X0.0002*%
%ADD843R,0.1422X0.0002*%
%ADD844R,0.1426X0.0002*%
%ADD845R,0.1428X0.0002*%
%ADD846R,0.1432X0.0002*%
%ADD847R,0.1434X0.0002*%
%ADD848R,0.1438X0.0002*%
%ADD849R,0.1440X0.0002*%
%ADD850R,0.1444X0.0002*%
%ADD851R,0.1448X0.0002*%
%ADD852R,0.1450X0.0002*%
%ADD853R,0.1454X0.0002*%
%ADD854R,0.1456X0.0002*%
%ADD855R,0.1460X0.0002*%
%ADD856R,0.1462X0.0002*%
%ADD857R,0.1464X0.0002*%
%ADD858R,0.1468X0.0002*%
%ADD859R,0.1470X0.0002*%
%ADD860R,0.1474X0.0002*%
%ADD861R,0.1476X0.0002*%
%ADD862R,0.1480X0.0002*%
%ADD863R,0.1482X0.0002*%
%ADD864R,0.1484X0.0002*%
%ADD865R,0.1486X0.0002*%
%ADD866R,0.1488X0.0002*%
%ADD867R,0.1492X0.0002*%
%ADD868R,0.1494X0.0002*%
%ADD869R,0.1498X0.0002*%
%ADD870R,0.1500X0.0002*%
%ADD871R,0.1502X0.0002*%
%ADD872R,0.1506X0.0002*%
%ADD873R,0.1508X0.0002*%
%ADD874R,0.1512X0.0002*%
%ADD875R,0.1514X0.0002*%
%ADD876R,0.1518X0.0002*%
%ADD877R,0.1518X0.0002*%
%ADD878R,0.1520X0.0002*%
%ADD879R,0.1524X0.0002*%
%ADD880R,0.1526X0.0002*%
%ADD881R,0.1530X0.0002*%
%ADD882R,0.1532X0.0002*%
%ADD883R,0.1534X0.0002*%
%ADD884R,0.1538X0.0002*%
%ADD885R,0.1540X0.0002*%
%ADD886R,0.1544X0.0002*%
%ADD887R,0.1546X0.0002*%
%ADD888R,0.1548X0.0002*%
%ADD889R,0.1552X0.0002*%
%ADD890R,0.1554X0.0002*%
%ADD891R,0.1556X0.0002*%
%ADD892R,0.1558X0.0002*%
%ADD893R,0.1560X0.0002*%
%ADD894R,0.1564X0.0002*%
%ADD895R,0.1566X0.0002*%
%ADD896R,0.1568X0.0002*%
%ADD897R,0.0532X0.0002*%
%ADD898R,0.1572X0.0002*%
%ADD899R,0.0534X0.0002*%
%ADD900R,0.1574X0.0002*%
%ADD901R,0.1576X0.0002*%
%ADD902R,0.1580X0.0002*%
%ADD903R,0.0532X0.0002*%
%ADD904R,0.1582X0.0002*%
%ADD905R,0.1586X0.0002*%
%ADD906R,0.1588X0.0002*%
%ADD907R,0.1590X0.0002*%
%ADD908R,0.1592X0.0002*%
%ADD909R,0.1594X0.0002*%
%ADD910R,0.1596X0.0002*%
%ADD911R,0.1600X0.0002*%
%ADD912R,0.1602X0.0002*%
%ADD913R,0.1604X0.0002*%
%ADD914R,0.1608X0.0002*%
%ADD915R,0.1610X0.0002*%
%ADD916R,0.0524X0.0002*%
%ADD917R,0.1612X0.0002*%
%ADD918R,0.1616X0.0002*%
%ADD919R,0.1618X0.0002*%
%ADD920R,0.1620X0.0002*%
%ADD921R,0.1624X0.0002*%
%ADD922R,0.1624X0.0002*%
%ADD923R,0.1626X0.0002*%
%ADD924R,0.1630X0.0002*%
%ADD925R,0.1632X0.0002*%
%ADD926R,0.1634X0.0002*%
%ADD927R,0.1640X0.0002*%
%ADD928R,0.1642X0.0002*%
%ADD929R,0.1646X0.0002*%
%ADD930R,0.0514X0.0002*%
%ADD931R,0.1648X0.0002*%
%ADD932R,0.1650X0.0002*%
%ADD933R,0.1654X0.0002*%
%ADD934R,0.1656X0.0002*%
%ADD935R,0.1658X0.0002*%
%ADD936R,0.1660X0.0002*%
%ADD937R,0.1662X0.0002*%
%ADD938R,0.1664X0.0002*%
%ADD939R,0.1666X0.0002*%
%ADD940R,0.1670X0.0002*%
%ADD941R,0.1672X0.0002*%
%ADD942R,0.1674X0.0002*%
%ADD943R,0.1678X0.0002*%
%ADD944R,0.1680X0.0002*%
%ADD945R,0.1682X0.0002*%
%ADD946R,0.1686X0.0002*%
%ADD947R,0.1688X0.0002*%
%ADD948R,0.1690X0.0002*%
%ADD949R,0.0500X0.0002*%
%ADD950R,0.1692X0.0002*%
%ADD951R,0.1694X0.0002*%
%ADD952R,0.0500X0.0002*%
%ADD953R,0.1696X0.0002*%
%ADD954R,0.1698X0.0002*%
%ADD955R,0.1702X0.0002*%
%ADD956R,0.1704X0.0002*%
%ADD957R,0.1706X0.0002*%
%ADD958R,0.1708X0.0002*%
%ADD959R,0.1712X0.0002*%
%ADD960R,0.1714X0.0002*%
%ADD961R,0.0492X0.0002*%
%ADD962R,0.1716X0.0002*%
%ADD963R,0.1716X0.0002*%
%ADD964R,0.0490X0.0002*%
%ADD965R,0.1720X0.0002*%
%ADD966R,0.0490X0.0002*%
%ADD967R,0.1720X0.0002*%
%ADD968R,0.1722X0.0002*%
%ADD969R,0.1724X0.0002*%
%ADD970R,0.1726X0.0002*%
%ADD971R,0.1726X0.0002*%
%ADD972R,0.1728X0.0002*%
%ADD973R,0.0482X0.0002*%
%ADD974R,0.1730X0.0002*%
%ADD975R,0.1732X0.0002*%
%ADD976R,0.0482X0.0002*%
%ADD977R,0.1732X0.0002*%
%ADD978R,0.1736X0.0002*%
%ADD979R,0.1738X0.0002*%
%ADD980R,0.1738X0.0002*%
%ADD981R,0.1742X0.0002*%
%ADD982R,0.0476X0.0002*%
%ADD983R,0.1742X0.0002*%
%ADD984R,0.1744X0.0002*%
%ADD985R,0.1744X0.0002*%
%ADD986R,0.1746X0.0002*%
%ADD987R,0.1748X0.0002*%
%ADD988R,0.0472X0.0002*%
%ADD989R,0.1748X0.0002*%
%ADD990R,0.1750X0.0002*%
%ADD991R,0.1750X0.0002*%
%ADD992R,0.1754X0.0002*%
%ADD993R,0.1754X0.0002*%
%ADD994R,0.0466X0.0002*%
%ADD995R,0.1756X0.0002*%
%ADD996R,0.1758X0.0002*%
%ADD997R,0.1760X0.0002*%
%ADD998R,0.1760X0.0002*%
%ADD999R,0.1762X0.0002*%
%ADD1000R,0.0460X0.0002*%
%ADD1001R,0.1766X0.0002*%
%ADD1002R,0.1766X0.0002*%
%ADD1003R,0.1768X0.0002*%
%ADD1004R,0.1768X0.0002*%
%ADD1005R,0.0456X0.0002*%
%ADD1006R,0.1772X0.0002*%
%ADD1007R,0.1772X0.0002*%
%ADD1008R,0.1774X0.0002*%
%ADD1009R,0.0452X0.0002*%
%ADD1010R,0.1774X0.0002*%
%ADD1011R,0.1776X0.0002*%
%ADD1012R,0.1778X0.0002*%
%ADD1013R,0.0450X0.0002*%
%ADD1014R,0.1780X0.0002*%
%ADD1015R,0.1780X0.0002*%
%ADD1016R,0.1782X0.0002*%
%ADD1017R,0.1784X0.0002*%
%ADD1018R,0.1786X0.0002*%
%ADD1019R,0.0444X0.0002*%
%ADD1020R,0.1786X0.0002*%
%ADD1021R,0.0442X0.0002*%
%ADD1022R,0.1788X0.0002*%
%ADD1023R,0.1790X0.0002*%
%ADD1024R,0.1792X0.0002*%
%ADD1025R,0.1792X0.0002*%
%ADD1026R,0.1794X0.0002*%
%ADD1027R,0.1796X0.0002*%
%ADD1028R,0.0434X0.0002*%
%ADD1029R,0.1796X0.0002*%
%ADD1030R,0.0432X0.0002*%
%ADD1031R,0.1800X0.0002*%
%ADD1032R,0.0432X0.0002*%
%ADD1033R,0.1800X0.0002*%
%ADD1034R,0.1802X0.0002*%
%ADD1035R,0.0430X0.0002*%
%ADD1036R,0.1802X0.0002*%
%ADD1037R,0.1804X0.0002*%
%ADD1038R,0.0426X0.0002*%
%ADD1039R,0.1806X0.0002*%
%ADD1040R,0.1808X0.0002*%
%ADD1041R,0.1808X0.0002*%
%ADD1042R,0.1810X0.0002*%
%ADD1043R,0.1810X0.0002*%
%ADD1044R,0.1812X0.0002*%
%ADD1045R,0.1814X0.0002*%
%ADD1046R,0.0420X0.0002*%
%ADD1047R,0.1816X0.0002*%
%ADD1048R,0.1816X0.0002*%
%ADD1049R,0.0416X0.0002*%
%ADD1050R,0.1818X0.0002*%
%ADD1051R,0.0414X0.0002*%
%ADD1052R,0.1820X0.0002*%
%ADD1053R,0.1820X0.0002*%
%ADD1054R,0.1822X0.0002*%
%ADD1055R,0.1824X0.0002*%
%ADD1056R,0.1826X0.0002*%
%ADD1057R,0.0408X0.0002*%
%ADD1058R,0.1826X0.0002*%
%ADD1059R,0.1828X0.0002*%
%ADD1060R,0.0404X0.0002*%
%ADD1061R,0.1828X0.0002*%
%ADD1062R,0.0404X0.0002*%
%ADD1063R,0.1830X0.0002*%
%ADD1064R,0.1830X0.0002*%
%ADD1065R,0.1834X0.0002*%
%ADD1066R,0.0402X0.0002*%
%ADD1067R,0.1834X0.0002*%
%ADD1068R,0.1836X0.0002*%
%ADD1069R,0.1836X0.0002*%
%ADD1070R,0.1838X0.0002*%
%ADD1071R,0.1838X0.0002*%
%ADD1072R,0.0394X0.0002*%
%ADD1073R,0.1840X0.0002*%
%ADD1074R,0.1844X0.0002*%
%ADD1075R,0.1844X0.0002*%
%ADD1076R,0.1846X0.0002*%
%ADD1077R,0.1848X0.0002*%
%ADD1078R,0.1848X0.0002*%
%ADD1079R,0.0382X0.0002*%
%ADD1080R,0.1850X0.0002*%
%ADD1081R,0.0382X0.0002*%
%ADD1082R,0.1850X0.0002*%
%ADD1083R,0.1852X0.0002*%
%ADD1084R,0.1852X0.0002*%
%ADD1085R,0.1854X0.0002*%
%ADD1086R,0.1856X0.0002*%
%ADD1087R,0.1856X0.0002*%
%ADD1088R,0.1858X0.0002*%
%ADD1089R,0.1858X0.0002*%
%ADD1090R,0.0372X0.0002*%
%ADD1091R,0.1860X0.0002*%
%ADD1092R,0.0372X0.0002*%
%ADD1093R,0.1860X0.0002*%
%ADD1094R,0.0370X0.0002*%
%ADD1095R,0.1862X0.0002*%
%ADD1096R,0.1862X0.0002*%
%ADD1097R,0.1864X0.0002*%
%ADD1098R,0.1864X0.0002*%
%ADD1099R,0.1866X0.0002*%
%ADD1100R,0.0362X0.0002*%
%ADD1101R,0.1868X0.0002*%
%ADD1102R,0.0362X0.0002*%
%ADD1103R,0.1870X0.0002*%
%ADD1104R,0.1870X0.0002*%
%ADD1105R,0.1872X0.0002*%
%ADD1106R,0.1872X0.0002*%
%ADD1107R,0.1874X0.0002*%
%ADD1108R,0.1874X0.0002*%
%ADD1109R,0.0352X0.0002*%
%ADD1110R,0.1876X0.0002*%
%ADD1111R,0.0352X0.0002*%
%ADD1112R,0.1876X0.0002*%
%ADD1113R,0.1878X0.0002*%
%ADD1114R,0.1878X0.0002*%
%ADD1115R,0.1880X0.0002*%
%ADD1116R,0.1880X0.0002*%
%ADD1117R,0.1882X0.0002*%
%ADD1118R,0.0342X0.0002*%
%ADD1119R,0.1882X0.0002*%
%ADD1120R,0.1884X0.0002*%
%ADD1121R,0.1884X0.0002*%
%ADD1122R,0.1886X0.0002*%
%ADD1123R,0.0334X0.0002*%
%ADD1124R,0.1888X0.0002*%
%ADD1125R,0.1890X0.0002*%
%ADD1126R,0.1890X0.0002*%
%ADD1127R,0.1892X0.0002*%
%ADD1128R,0.1894X0.0002*%
%ADD1129R,0.1894X0.0002*%
%ADD1130R,0.1896X0.0002*%
%ADD1131R,0.1896X0.0002*%
%ADD1132R,0.0324X0.0002*%
%ADD1133R,0.1898X0.0002*%
%ADD1134R,0.1898X0.0002*%
%ADD1135R,0.1900X0.0002*%
%ADD1136R,0.1900X0.0002*%
%ADD1137R,0.1902X0.0002*%
%ADD1138R,0.1902X0.0002*%
%ADD1139R,0.0314X0.0002*%
%ADD1140R,0.1904X0.0002*%
%ADD1141R,0.0314X0.0002*%
%ADD1142R,0.1904X0.0002*%
%ADD1143R,0.1906X0.0002*%
%ADD1144R,0.1906X0.0002*%
%ADD1145R,0.0308X0.0002*%
%ADD1146R,0.1908X0.0002*%
%ADD1147R,0.1908X0.0002*%
%ADD1148R,0.0306X0.0002*%
%ADD1149R,0.1910X0.0002*%
%ADD1150R,0.0302X0.0002*%
%ADD1151R,0.1912X0.0002*%
%ADD1152R,0.1912X0.0002*%
%ADD1153R,0.1914X0.0002*%
%ADD1154R,0.1914X0.0002*%
%ADD1155R,0.1916X0.0002*%
%ADD1156R,0.0294X0.0002*%
%ADD1157R,0.1916X0.0002*%
%ADD1158R,0.0294X0.0002*%
%ADD1159R,0.1918X0.0002*%
%ADD1160R,0.0292X0.0002*%
%ADD1161R,0.1918X0.0002*%
%ADD1162R,0.1920X0.0002*%
%ADD1163R,0.1920X0.0002*%
%ADD1164R,0.1922X0.0002*%
%ADD1165R,0.0286X0.0002*%
%ADD1166R,0.1922X0.0002*%
%ADD1167R,0.0284X0.0002*%
%ADD1168R,0.1922X0.0002*%
%ADD1169R,0.1922X0.0002*%
%ADD1170R,0.1924X0.0002*%
%ADD1171R,0.0278X0.0002*%
%ADD1172R,0.1924X0.0002*%
%ADD1173R,0.1926X0.0002*%
%ADD1174R,0.1928X0.0002*%
%ADD1175R,0.0272X0.0002*%
%ADD1176R,0.1928X0.0002*%
%ADD1177R,0.1930X0.0002*%
%ADD1178R,0.1932X0.0002*%
%ADD1179R,0.0266X0.0002*%
%ADD1180R,0.1932X0.0002*%
%ADD1181R,0.0264X0.0002*%
%ADD1182R,0.1934X0.0002*%
%ADD1183R,0.1934X0.0002*%
%ADD1184R,0.1936X0.0002*%
%ADD1185R,0.1936X0.0002*%
%ADD1186R,0.0258X0.0002*%
%ADD1187R,0.1938X0.0002*%
%ADD1188R,0.1938X0.0002*%
%ADD1189R,0.0254X0.0002*%
%ADD1190R,0.1940X0.0002*%
%ADD1191R,0.1940X0.0002*%
%ADD1192R,0.0252X0.0002*%
%ADD1193R,0.1942X0.0002*%
%ADD1194R,0.1942X0.0002*%
%ADD1195R,0.0242X0.0002*%
%ADD1196R,0.1944X0.0002*%
%ADD1197R,0.1944X0.0002*%
%ADD1198R,0.1946X0.0002*%
%ADD1199R,0.1948X0.0002*%
%ADD1200R,0.1948X0.0002*%
%ADD1201R,0.0234X0.0002*%
%ADD1202R,0.1950X0.0002*%
%ADD1203R,0.0232X0.0002*%
%ADD1204R,0.1950X0.0002*%
%ADD1205R,0.0232X0.0002*%
%ADD1206R,0.1952X0.0002*%
%ADD1207R,0.1952X0.0002*%
%ADD1208R,0.0222X0.0002*%
%ADD1209R,0.1954X0.0002*%
%ADD1210R,0.1954X0.0002*%
%ADD1211R,0.1956X0.0002*%
%ADD1212R,0.0218X0.0002*%
%ADD1213R,0.1956X0.0002*%
%ADD1214R,0.1958X0.0002*%
%ADD1215R,0.0212X0.0002*%
%ADD1216R,0.1958X0.0002*%
%ADD1217R,0.0208X0.0002*%
%ADD1218R,0.1960X0.0002*%
%ADD1219R,0.1962X0.0002*%
%ADD1220R,0.0204X0.0002*%
%ADD1221R,0.1962X0.0002*%
%ADD1222R,0.0202X0.0002*%
%ADD1223R,0.1964X0.0002*%
%ADD1224R,0.0200X0.0002*%
%ADD1225R,0.1964X0.0002*%
%ADD1226R,0.1964X0.0002*%
%ADD1227R,0.1966X0.0002*%
%ADD1228R,0.0192X0.0002*%
%ADD1229R,0.1966X0.0002*%
%ADD1230R,0.1968X0.0002*%
%ADD1231R,0.0190X0.0002*%
%ADD1232R,0.1968X0.0002*%
%ADD1233R,0.0188X0.0002*%
%ADD1234R,0.1970X0.0002*%
%ADD1235R,0.1970X0.0002*%
%ADD1236R,0.1972X0.0002*%
%ADD1237R,0.1972X0.0002*%
%ADD1238R,0.1974X0.0002*%
%ADD1239R,0.1972X0.0002*%
%ADD1240R,0.0172X0.0002*%
%ADD1241R,0.1974X0.0002*%
%ADD1242R,0.1976X0.0002*%
%ADD1243R,0.1978X0.0002*%
%ADD1244R,0.1978X0.0002*%
%ADD1245R,0.0162X0.0002*%
%ADD1246R,0.0160X0.0002*%
%ADD1247R,0.0158X0.0002*%
%ADD1248R,0.1980X0.0002*%
%ADD1249R,0.0156X0.0002*%
%ADD1250R,0.1980X0.0002*%
%ADD1251R,0.0154X0.0002*%
%ADD1252R,0.1982X0.0002*%
%ADD1253R,0.0152X0.0002*%
%ADD1254R,0.1982X0.0002*%
%ADD1255R,0.0148X0.0002*%
%ADD1256R,0.1982X0.0002*%
%ADD1257R,0.0146X0.0002*%
%ADD1258R,0.1984X0.0002*%
%ADD1259R,0.1984X0.0002*%
%ADD1260R,0.1984X0.0002*%
%ADD1261R,0.1984X0.0002*%
%ADD1262R,0.1986X0.0002*%
%ADD1263R,0.0136X0.0002*%
%ADD1264R,0.1986X0.0002*%
%ADD1265R,0.0134X0.0002*%
%ADD1266R,0.1988X0.0002*%
%ADD1267R,0.0134X0.0002*%
%ADD1268R,0.1988X0.0002*%
%ADD1269R,0.1990X0.0002*%
%ADD1270R,0.1990X0.0002*%
%ADD1271R,0.1992X0.0002*%
%ADD1272R,0.1992X0.0002*%
%ADD1273R,0.1994X0.0002*%
%ADD1274R,0.1992X0.0002*%
%ADD1275R,0.0112X0.0002*%
%ADD1276R,0.1992X0.0002*%
%ADD1277R,0.1994X0.0002*%
%ADD1278R,0.1996X0.0002*%
%ADD1279R,0.1994X0.0002*%
%ADD1280R,0.0102X0.0002*%
%ADD1281R,0.1996X0.0002*%
%ADD1282R,0.0100X0.0002*%
%ADD1283R,0.1998X0.0002*%
%ADD1284R,0.0096X0.0002*%
%ADD1285R,0.1998X0.0002*%
%ADD1286R,0.2000X0.0002*%
%ADD1287R,0.2000X0.0002*%
%ADD1288R,0.0084X0.0002*%
%ADD1289R,0.2002X0.0002*%
%ADD1290R,0.2002X0.0002*%
%ADD1291R,0.2002X0.0002*%
%ADD1292R,0.2002X0.0002*%
%ADD1293R,0.2004X0.0002*%
%ADD1294R,0.2004X0.0002*%
%ADD1295R,0.2006X0.0002*%
%ADD1296R,0.2004X0.0002*%
%ADD1297R,0.2004X0.0002*%
%ADD1298R,0.2006X0.0002*%
%ADD1299R,0.2008X0.0002*%
%ADD1300R,0.2008X0.0002*%
%ADD1301R,0.2010X0.0002*%
%ADD1302R,0.2010X0.0002*%
%ADD1303R,0.2012X0.0002*%
%ADD1304R,0.2012X0.0002*%
%ADD1305R,0.2012X0.0002*%
%ADD1306R,0.2012X0.0002*%
%ADD1307R,0.2014X0.0002*%
%ADD1308R,0.2014X0.0002*%
%ADD1309R,0.2014X0.0002*%
%ADD1310R,0.2016X0.0002*%
%ADD1311R,0.2016X0.0002*%
%ADD1312R,0.2018X0.0002*%
%ADD1313R,0.2018X0.0002*%
%ADD1314R,0.2020X0.0002*%
%ADD1315R,0.2020X0.0002*%
%ADD1316R,0.2022X0.0002*%
%ADD1317R,0.2022X0.0002*%
%ADD1318R,0.2022X0.0002*%
%ADD1319R,0.0082X0.0002*%
%ADD1320R,0.0086X0.0002*%
%ADD1321R,0.2022X0.0002*%
%ADD1322R,0.0094X0.0002*%
%ADD1323R,0.2024X0.0002*%
%ADD1324R,0.0102X0.0002*%
%ADD1325R,0.2024X0.0002*%
%ADD1326R,0.0106X0.0002*%
%ADD1327R,0.0114X0.0002*%
%ADD1328R,0.2024X0.0002*%
%ADD1329R,0.2024X0.0002*%
%ADD1330R,0.0096X0.0002*%
%ADD1331R,0.2026X0.0002*%
%ADD1332R,0.0094X0.0002*%
%ADD1333R,0.2026X0.0002*%
%ADD1334R,0.0092X0.0002*%
%ADD1335R,0.2028X0.0002*%
%ADD1336R,0.2028X0.0002*%
%ADD1337R,0.0084X0.0002*%
%ADD1338R,0.0082X0.0002*%
%ADD1339R,0.0112X0.0002*%
%ADD1340R,0.0112X0.0002*%
%ADD1341R,0.0072X0.0002*%
%ADD1342R,0.0124X0.0002*%
%ADD1343R,0.0072X0.0002*%
%ADD1344R,0.0136X0.0002*%
%ADD1345R,0.0142X0.0002*%
%ADD1346R,0.0152X0.0002*%
%ADD1347R,0.0162X0.0002*%
%ADD1348R,0.0190X0.0002*%
%ADD1349R,0.0192X0.0002*%
%ADD1350R,0.0212X0.0002*%
%ADD1351R,0.0222X0.0002*%
%ADD1352R,0.0224X0.0002*%
%ADD1353R,0.0238X0.0002*%
%ADD1354R,0.0242X0.0002*%
%ADD1355R,0.0250X0.0002*%
%ADD1356R,0.0162X0.0002*%
%ADD1357R,0.0164X0.0002*%
%ADD1358R,0.0102X0.0002*%
%ADD1359R,0.0104X0.0002*%
%ADD1360R,0.1982X0.0002*%
%ADD1361R,0.0158X0.0002*%
%ADD1362R,0.2054X0.0002*%
%ADD1363R,0.2052X0.0002*%
%ADD1364R,0.2052X0.0002*%
%ADD1365R,0.0154X0.0002*%
%ADD1366R,0.2052X0.0002*%
%ADD1367R,0.2050X0.0002*%
%ADD1368R,0.2050X0.0002*%
%ADD1369R,0.2048X0.0002*%
%ADD1370R,0.2046X0.0002*%
%ADD1371R,0.1972X0.0002*%
%ADD1372R,0.1960X0.0002*%
%ADD1373R,0.1952X0.0002*%
%ADD1374R,0.0092X0.0002*%
%ADD1375R,0.0152X0.0002*%
%ADD1376R,0.0154X0.0002*%
%ADD1377R,0.1932X0.0002*%
%ADD1378R,0.0152X0.0002*%
%ADD1379R,0.0150X0.0002*%
%ADD1380R,0.1872X0.0002*%
%ADD1381R,0.1868X0.0002*%
%ADD1382R,0.1852X0.0002*%
%ADD1383R,0.1832X0.0002*%
%ADD1384R,0.0084X0.0002*%
%ADD1385R,0.1804X0.0002*%
%ADD1386R,0.0144X0.0002*%
%ADD1387R,0.1788X0.0002*%
%ADD1388R,0.1784X0.0002*%
%ADD1389R,0.1776X0.0002*%
%ADD1390R,0.0144X0.0002*%
%ADD1391R,0.1752X0.0002*%
%ADD1392R,0.0082X0.0002*%
%ADD1393R,0.1740X0.0002*%
%ADD1394R,0.0140X0.0002*%
%ADD1395R,0.1712X0.0002*%
%ADD1396R,0.1708X0.0002*%
%ADD1397R,0.1700X0.0002*%
%ADD1398R,0.1684X0.0002*%
%ADD1399R,0.1676X0.0002*%
%ADD1400R,0.1668X0.0002*%
%ADD1401R,0.1660X0.0002*%
%ADD1402R,0.1652X0.0002*%
%ADD1403R,0.1644X0.0002*%
%ADD1404R,0.1636X0.0002*%
%ADD1405R,0.1632X0.0002*%
%ADD1406R,0.1628X0.0002*%
%ADD1407R,0.1608X0.0002*%
%ADD1408R,0.1604X0.0002*%
%ADD1409R,0.1576X0.0002*%
%ADD1410R,0.1568X0.0002*%
%ADD1411R,0.1556X0.0002*%
%ADD1412R,0.1552X0.0002*%
%ADD1413R,0.1544X0.0002*%
%ADD1414R,0.1532X0.0002*%
%ADD1415R,0.1528X0.0002*%
%ADD1416R,0.1524X0.0002*%
%ADD1417R,0.1516X0.0002*%
%ADD1418R,0.1496X0.0002*%
%ADD1419R,0.1488X0.0002*%
%ADD1420R,0.1472X0.0002*%
%ADD1421R,0.1464X0.0002*%
%ADD1422R,0.1436X0.0002*%
%ADD1423R,0.1424X0.0002*%
%ADD1424R,0.1412X0.0002*%
%ADD1425R,0.1404X0.0002*%
%ADD1426R,0.1400X0.0002*%
%ADD1427R,0.1392X0.0002*%
%ADD1428R,0.1388X0.0002*%
%ADD1429R,0.1376X0.0002*%
%ADD1430R,0.1368X0.0002*%
%ADD1431R,0.1356X0.0002*%
%ADD1432R,0.1348X0.0002*%
%ADD1433R,0.1328X0.0002*%
%ADD1434R,0.1308X0.0002*%
%ADD1435R,0.1280X0.0002*%
%ADD1436R,0.1272X0.0002*%
%ADD1437R,0.1264X0.0002*%
%ADD1438R,0.1260X0.0002*%
%ADD1439R,0.1252X0.0002*%
%ADD1440R,0.1244X0.0002*%
%ADD1441R,0.1236X0.0002*%
%ADD1442R,0.1228X0.0002*%
%ADD1443R,0.1220X0.0002*%
%ADD1444R,0.1216X0.0002*%
%ADD1445R,0.1200X0.0002*%
%ADD1446R,0.1192X0.0002*%
%ADD1447R,0.1184X0.0002*%
%ADD1448R,0.1176X0.0002*%
%ADD1449R,0.1160X0.0002*%
%ADD1450R,0.1152X0.0002*%
%ADD1451R,0.1136X0.0002*%
%ADD1452R,0.1128X0.0002*%
%ADD1453R,0.1120X0.0002*%
%ADD1454R,0.1100X0.0002*%
%ADD1455R,0.1092X0.0002*%
%ADD1456R,0.1084X0.0002*%
%ADD1457R,0.1076X0.0002*%
%ADD1458R,0.1068X0.0002*%
%ADD1459R,0.1048X0.0002*%
%ADD1460R,0.1040X0.0002*%
%ADD1461R,0.1032X0.0002*%
%ADD1462R,0.1020X0.0002*%
%ADD1463R,0.1012X0.0002*%
%ADD1464R,0.1004X0.0002*%
%ADD1465R,0.0992X0.0002*%
%ADD1466R,0.0972X0.0002*%
%ADD1467R,0.0964X0.0002*%
%ADD1468R,0.0952X0.0002*%
%ADD1469R,0.0944X0.0002*%
%ADD1470R,0.0932X0.0002*%
%ADD1471R,0.0912X0.0002*%
%ADD1472R,0.0900X0.0002*%
%ADD1473R,0.0880X0.0002*%
%ADD1474R,0.0868X0.0002*%
%ADD1475R,0.0856X0.0002*%
%ADD1476R,0.0844X0.0002*%
%ADD1477R,0.0808X0.0002*%
%ADD1478R,0.0796X0.0002*%
%ADD1479R,0.0784X0.0002*%
%ADD1480R,0.0772X0.0002*%
%ADD1481R,0.0760X0.0002*%
%ADD1482R,0.0744X0.0002*%
%ADD1483R,0.0732X0.0002*%
%ADD1484R,0.0720X0.0002*%
%ADD1485R,0.0704X0.0002*%
%ADD1486R,0.0688X0.0002*%
%ADD1487R,0.0628X0.0002*%
%ADD1488R,0.0612X0.0002*%
%ADD1489R,0.0596X0.0002*%
%ADD1490R,0.0580X0.0002*%
%ADD1491R,0.0114X0.0002*%
%ADD1492R,0.0104X0.0002*%
%ADD1493R,0.0300X0.0340*%
D10*
X035075Y019560D02*
X035863Y019560D01*
X035863Y019166D01*
X035863Y019560D02*
X035863Y019954D01*
X036256Y019757D02*
X036256Y019560D01*
X036256Y019363D01*
X036256Y019560D02*
X037044Y019560D01*
X036453Y019166D02*
X036427Y019168D01*
X036402Y019173D01*
X036378Y019181D01*
X036355Y019192D01*
X036333Y019207D01*
X036314Y019224D01*
X036297Y019243D01*
X036282Y019265D01*
X036271Y019288D01*
X036263Y019312D01*
X036258Y019337D01*
X036256Y019363D01*
X033599Y019560D02*
X033601Y019659D01*
X033607Y019758D01*
X033617Y019857D01*
X033631Y019955D01*
X033649Y020052D01*
X033671Y020149D01*
X033696Y020245D01*
X033726Y020339D01*
X033759Y020433D01*
X033796Y020525D01*
X033837Y020615D01*
X033881Y020704D01*
X033929Y020790D01*
X033980Y020875D01*
X034035Y020958D01*
X034093Y021038D01*
X034154Y021116D01*
X034218Y021192D01*
X034285Y021265D01*
X034355Y021335D01*
X034428Y021402D01*
X034504Y021466D01*
X034582Y021527D01*
X034662Y021585D01*
X034745Y021640D01*
X034829Y021691D01*
X034916Y021739D01*
X035005Y021783D01*
X035095Y021824D01*
X035187Y021861D01*
X035281Y021894D01*
X035375Y021924D01*
X035471Y021949D01*
X035568Y021971D01*
X035665Y021989D01*
X035763Y022003D01*
X035862Y022013D01*
X035961Y022019D01*
X036060Y022021D01*
X036159Y022019D01*
X036258Y022013D01*
X036357Y022003D01*
X036455Y021989D01*
X036552Y021971D01*
X036649Y021949D01*
X036745Y021924D01*
X036839Y021894D01*
X036933Y021861D01*
X037025Y021824D01*
X037115Y021783D01*
X037204Y021739D01*
X037290Y021691D01*
X037375Y021640D01*
X037458Y021585D01*
X037538Y021527D01*
X037616Y021466D01*
X037692Y021402D01*
X037765Y021335D01*
X037835Y021265D01*
X037902Y021192D01*
X037966Y021116D01*
X038027Y021038D01*
X038085Y020958D01*
X038140Y020875D01*
X038191Y020791D01*
X038239Y020704D01*
X038283Y020615D01*
X038324Y020525D01*
X038361Y020433D01*
X038394Y020339D01*
X038424Y020245D01*
X038449Y020149D01*
X038471Y020052D01*
X038489Y019955D01*
X038503Y019857D01*
X038513Y019758D01*
X038519Y019659D01*
X038521Y019560D01*
X038519Y019461D01*
X038513Y019362D01*
X038503Y019263D01*
X038489Y019165D01*
X038471Y019068D01*
X038449Y018971D01*
X038424Y018875D01*
X038394Y018781D01*
X038361Y018687D01*
X038324Y018595D01*
X038283Y018505D01*
X038239Y018416D01*
X038191Y018330D01*
X038140Y018245D01*
X038085Y018162D01*
X038027Y018082D01*
X037966Y018004D01*
X037902Y017928D01*
X037835Y017855D01*
X037765Y017785D01*
X037692Y017718D01*
X037616Y017654D01*
X037538Y017593D01*
X037458Y017535D01*
X037375Y017480D01*
X037291Y017429D01*
X037204Y017381D01*
X037115Y017337D01*
X037025Y017296D01*
X036933Y017259D01*
X036839Y017226D01*
X036745Y017196D01*
X036649Y017171D01*
X036552Y017149D01*
X036455Y017131D01*
X036357Y017117D01*
X036258Y017107D01*
X036159Y017101D01*
X036060Y017099D01*
X035961Y017101D01*
X035862Y017107D01*
X035763Y017117D01*
X035665Y017131D01*
X035568Y017149D01*
X035471Y017171D01*
X035375Y017196D01*
X035281Y017226D01*
X035187Y017259D01*
X035095Y017296D01*
X035005Y017337D01*
X034916Y017381D01*
X034830Y017429D01*
X034745Y017480D01*
X034662Y017535D01*
X034582Y017593D01*
X034504Y017654D01*
X034428Y017718D01*
X034355Y017785D01*
X034285Y017855D01*
X034218Y017928D01*
X034154Y018004D01*
X034093Y018082D01*
X034035Y018162D01*
X033980Y018245D01*
X033929Y018329D01*
X033881Y018416D01*
X033837Y018505D01*
X033796Y018595D01*
X033759Y018687D01*
X033726Y018781D01*
X033696Y018875D01*
X033671Y018971D01*
X033649Y019068D01*
X033631Y019165D01*
X033617Y019263D01*
X033607Y019362D01*
X033601Y019461D01*
X033599Y019560D01*
X036256Y019757D02*
X036258Y019783D01*
X036263Y019808D01*
X036271Y019832D01*
X036282Y019856D01*
X036297Y019877D01*
X036314Y019896D01*
X036333Y019913D01*
X036355Y019928D01*
X036378Y019939D01*
X036402Y019947D01*
X036427Y019952D01*
X036453Y019954D01*
X035863Y024566D02*
X035863Y024960D01*
X035863Y025354D01*
X035863Y024960D02*
X035075Y024960D01*
X033599Y024960D02*
X033601Y025059D01*
X033607Y025158D01*
X033617Y025257D01*
X033631Y025355D01*
X033649Y025452D01*
X033671Y025549D01*
X033696Y025645D01*
X033726Y025739D01*
X033759Y025833D01*
X033796Y025925D01*
X033837Y026015D01*
X033881Y026104D01*
X033929Y026190D01*
X033980Y026275D01*
X034035Y026358D01*
X034093Y026438D01*
X034154Y026516D01*
X034218Y026592D01*
X034285Y026665D01*
X034355Y026735D01*
X034428Y026802D01*
X034504Y026866D01*
X034582Y026927D01*
X034662Y026985D01*
X034745Y027040D01*
X034829Y027091D01*
X034916Y027139D01*
X035005Y027183D01*
X035095Y027224D01*
X035187Y027261D01*
X035281Y027294D01*
X035375Y027324D01*
X035471Y027349D01*
X035568Y027371D01*
X035665Y027389D01*
X035763Y027403D01*
X035862Y027413D01*
X035961Y027419D01*
X036060Y027421D01*
X036159Y027419D01*
X036258Y027413D01*
X036357Y027403D01*
X036455Y027389D01*
X036552Y027371D01*
X036649Y027349D01*
X036745Y027324D01*
X036839Y027294D01*
X036933Y027261D01*
X037025Y027224D01*
X037115Y027183D01*
X037204Y027139D01*
X037290Y027091D01*
X037375Y027040D01*
X037458Y026985D01*
X037538Y026927D01*
X037616Y026866D01*
X037692Y026802D01*
X037765Y026735D01*
X037835Y026665D01*
X037902Y026592D01*
X037966Y026516D01*
X038027Y026438D01*
X038085Y026358D01*
X038140Y026275D01*
X038191Y026191D01*
X038239Y026104D01*
X038283Y026015D01*
X038324Y025925D01*
X038361Y025833D01*
X038394Y025739D01*
X038424Y025645D01*
X038449Y025549D01*
X038471Y025452D01*
X038489Y025355D01*
X038503Y025257D01*
X038513Y025158D01*
X038519Y025059D01*
X038521Y024960D01*
X038519Y024861D01*
X038513Y024762D01*
X038503Y024663D01*
X038489Y024565D01*
X038471Y024468D01*
X038449Y024371D01*
X038424Y024275D01*
X038394Y024181D01*
X038361Y024087D01*
X038324Y023995D01*
X038283Y023905D01*
X038239Y023816D01*
X038191Y023730D01*
X038140Y023645D01*
X038085Y023562D01*
X038027Y023482D01*
X037966Y023404D01*
X037902Y023328D01*
X037835Y023255D01*
X037765Y023185D01*
X037692Y023118D01*
X037616Y023054D01*
X037538Y022993D01*
X037458Y022935D01*
X037375Y022880D01*
X037291Y022829D01*
X037204Y022781D01*
X037115Y022737D01*
X037025Y022696D01*
X036933Y022659D01*
X036839Y022626D01*
X036745Y022596D01*
X036649Y022571D01*
X036552Y022549D01*
X036455Y022531D01*
X036357Y022517D01*
X036258Y022507D01*
X036159Y022501D01*
X036060Y022499D01*
X035961Y022501D01*
X035862Y022507D01*
X035763Y022517D01*
X035665Y022531D01*
X035568Y022549D01*
X035471Y022571D01*
X035375Y022596D01*
X035281Y022626D01*
X035187Y022659D01*
X035095Y022696D01*
X035005Y022737D01*
X034916Y022781D01*
X034830Y022829D01*
X034745Y022880D01*
X034662Y022935D01*
X034582Y022993D01*
X034504Y023054D01*
X034428Y023118D01*
X034355Y023185D01*
X034285Y023255D01*
X034218Y023328D01*
X034154Y023404D01*
X034093Y023482D01*
X034035Y023562D01*
X033980Y023645D01*
X033929Y023729D01*
X033881Y023816D01*
X033837Y023905D01*
X033796Y023995D01*
X033759Y024087D01*
X033726Y024181D01*
X033696Y024275D01*
X033671Y024371D01*
X033649Y024468D01*
X033631Y024565D01*
X033617Y024663D01*
X033607Y024762D01*
X033601Y024861D01*
X033599Y024960D01*
X036256Y024960D02*
X036256Y024763D01*
X036256Y024960D02*
X036256Y025157D01*
X036256Y024960D02*
X037044Y024960D01*
X036453Y025354D02*
X036427Y025352D01*
X036402Y025347D01*
X036378Y025339D01*
X036355Y025328D01*
X036333Y025313D01*
X036314Y025296D01*
X036297Y025277D01*
X036282Y025256D01*
X036271Y025232D01*
X036263Y025208D01*
X036258Y025183D01*
X036256Y025157D01*
X036256Y024763D02*
X036258Y024737D01*
X036263Y024712D01*
X036271Y024688D01*
X036282Y024665D01*
X036297Y024643D01*
X036314Y024624D01*
X036333Y024607D01*
X036355Y024592D01*
X036378Y024581D01*
X036402Y024573D01*
X036427Y024568D01*
X036453Y024566D01*
X035863Y029966D02*
X035863Y030360D01*
X035863Y030754D01*
X035863Y030360D02*
X035075Y030360D01*
X033599Y030360D02*
X033601Y030459D01*
X033607Y030558D01*
X033617Y030657D01*
X033631Y030755D01*
X033649Y030852D01*
X033671Y030949D01*
X033696Y031045D01*
X033726Y031139D01*
X033759Y031233D01*
X033796Y031325D01*
X033837Y031415D01*
X033881Y031504D01*
X033929Y031590D01*
X033980Y031675D01*
X034035Y031758D01*
X034093Y031838D01*
X034154Y031916D01*
X034218Y031992D01*
X034285Y032065D01*
X034355Y032135D01*
X034428Y032202D01*
X034504Y032266D01*
X034582Y032327D01*
X034662Y032385D01*
X034745Y032440D01*
X034829Y032491D01*
X034916Y032539D01*
X035005Y032583D01*
X035095Y032624D01*
X035187Y032661D01*
X035281Y032694D01*
X035375Y032724D01*
X035471Y032749D01*
X035568Y032771D01*
X035665Y032789D01*
X035763Y032803D01*
X035862Y032813D01*
X035961Y032819D01*
X036060Y032821D01*
X036159Y032819D01*
X036258Y032813D01*
X036357Y032803D01*
X036455Y032789D01*
X036552Y032771D01*
X036649Y032749D01*
X036745Y032724D01*
X036839Y032694D01*
X036933Y032661D01*
X037025Y032624D01*
X037115Y032583D01*
X037204Y032539D01*
X037290Y032491D01*
X037375Y032440D01*
X037458Y032385D01*
X037538Y032327D01*
X037616Y032266D01*
X037692Y032202D01*
X037765Y032135D01*
X037835Y032065D01*
X037902Y031992D01*
X037966Y031916D01*
X038027Y031838D01*
X038085Y031758D01*
X038140Y031675D01*
X038191Y031591D01*
X038239Y031504D01*
X038283Y031415D01*
X038324Y031325D01*
X038361Y031233D01*
X038394Y031139D01*
X038424Y031045D01*
X038449Y030949D01*
X038471Y030852D01*
X038489Y030755D01*
X038503Y030657D01*
X038513Y030558D01*
X038519Y030459D01*
X038521Y030360D01*
X038519Y030261D01*
X038513Y030162D01*
X038503Y030063D01*
X038489Y029965D01*
X038471Y029868D01*
X038449Y029771D01*
X038424Y029675D01*
X038394Y029581D01*
X038361Y029487D01*
X038324Y029395D01*
X038283Y029305D01*
X038239Y029216D01*
X038191Y029130D01*
X038140Y029045D01*
X038085Y028962D01*
X038027Y028882D01*
X037966Y028804D01*
X037902Y028728D01*
X037835Y028655D01*
X037765Y028585D01*
X037692Y028518D01*
X037616Y028454D01*
X037538Y028393D01*
X037458Y028335D01*
X037375Y028280D01*
X037291Y028229D01*
X037204Y028181D01*
X037115Y028137D01*
X037025Y028096D01*
X036933Y028059D01*
X036839Y028026D01*
X036745Y027996D01*
X036649Y027971D01*
X036552Y027949D01*
X036455Y027931D01*
X036357Y027917D01*
X036258Y027907D01*
X036159Y027901D01*
X036060Y027899D01*
X035961Y027901D01*
X035862Y027907D01*
X035763Y027917D01*
X035665Y027931D01*
X035568Y027949D01*
X035471Y027971D01*
X035375Y027996D01*
X035281Y028026D01*
X035187Y028059D01*
X035095Y028096D01*
X035005Y028137D01*
X034916Y028181D01*
X034830Y028229D01*
X034745Y028280D01*
X034662Y028335D01*
X034582Y028393D01*
X034504Y028454D01*
X034428Y028518D01*
X034355Y028585D01*
X034285Y028655D01*
X034218Y028728D01*
X034154Y028804D01*
X034093Y028882D01*
X034035Y028962D01*
X033980Y029045D01*
X033929Y029129D01*
X033881Y029216D01*
X033837Y029305D01*
X033796Y029395D01*
X033759Y029487D01*
X033726Y029581D01*
X033696Y029675D01*
X033671Y029771D01*
X033649Y029868D01*
X033631Y029965D01*
X033617Y030063D01*
X033607Y030162D01*
X033601Y030261D01*
X033599Y030360D01*
X036256Y030360D02*
X036256Y030163D01*
X036256Y030360D02*
X036256Y030557D01*
X036256Y030360D02*
X037044Y030360D01*
X036453Y030754D02*
X036427Y030752D01*
X036402Y030747D01*
X036378Y030739D01*
X036355Y030728D01*
X036333Y030713D01*
X036314Y030696D01*
X036297Y030677D01*
X036282Y030656D01*
X036271Y030632D01*
X036263Y030608D01*
X036258Y030583D01*
X036256Y030557D01*
X036256Y030163D02*
X036258Y030137D01*
X036263Y030112D01*
X036271Y030088D01*
X036282Y030065D01*
X036297Y030043D01*
X036314Y030024D01*
X036333Y030007D01*
X036355Y029992D01*
X036378Y029981D01*
X036402Y029973D01*
X036427Y029968D01*
X036453Y029966D01*
X035863Y035366D02*
X035863Y035760D01*
X035863Y036154D01*
X035863Y035760D02*
X035075Y035760D01*
X033599Y035760D02*
X033601Y035859D01*
X033607Y035958D01*
X033617Y036057D01*
X033631Y036155D01*
X033649Y036252D01*
X033671Y036349D01*
X033696Y036445D01*
X033726Y036539D01*
X033759Y036633D01*
X033796Y036725D01*
X033837Y036815D01*
X033881Y036904D01*
X033929Y036990D01*
X033980Y037075D01*
X034035Y037158D01*
X034093Y037238D01*
X034154Y037316D01*
X034218Y037392D01*
X034285Y037465D01*
X034355Y037535D01*
X034428Y037602D01*
X034504Y037666D01*
X034582Y037727D01*
X034662Y037785D01*
X034745Y037840D01*
X034829Y037891D01*
X034916Y037939D01*
X035005Y037983D01*
X035095Y038024D01*
X035187Y038061D01*
X035281Y038094D01*
X035375Y038124D01*
X035471Y038149D01*
X035568Y038171D01*
X035665Y038189D01*
X035763Y038203D01*
X035862Y038213D01*
X035961Y038219D01*
X036060Y038221D01*
X036159Y038219D01*
X036258Y038213D01*
X036357Y038203D01*
X036455Y038189D01*
X036552Y038171D01*
X036649Y038149D01*
X036745Y038124D01*
X036839Y038094D01*
X036933Y038061D01*
X037025Y038024D01*
X037115Y037983D01*
X037204Y037939D01*
X037290Y037891D01*
X037375Y037840D01*
X037458Y037785D01*
X037538Y037727D01*
X037616Y037666D01*
X037692Y037602D01*
X037765Y037535D01*
X037835Y037465D01*
X037902Y037392D01*
X037966Y037316D01*
X038027Y037238D01*
X038085Y037158D01*
X038140Y037075D01*
X038191Y036991D01*
X038239Y036904D01*
X038283Y036815D01*
X038324Y036725D01*
X038361Y036633D01*
X038394Y036539D01*
X038424Y036445D01*
X038449Y036349D01*
X038471Y036252D01*
X038489Y036155D01*
X038503Y036057D01*
X038513Y035958D01*
X038519Y035859D01*
X038521Y035760D01*
X038519Y035661D01*
X038513Y035562D01*
X038503Y035463D01*
X038489Y035365D01*
X038471Y035268D01*
X038449Y035171D01*
X038424Y035075D01*
X038394Y034981D01*
X038361Y034887D01*
X038324Y034795D01*
X038283Y034705D01*
X038239Y034616D01*
X038191Y034530D01*
X038140Y034445D01*
X038085Y034362D01*
X038027Y034282D01*
X037966Y034204D01*
X037902Y034128D01*
X037835Y034055D01*
X037765Y033985D01*
X037692Y033918D01*
X037616Y033854D01*
X037538Y033793D01*
X037458Y033735D01*
X037375Y033680D01*
X037291Y033629D01*
X037204Y033581D01*
X037115Y033537D01*
X037025Y033496D01*
X036933Y033459D01*
X036839Y033426D01*
X036745Y033396D01*
X036649Y033371D01*
X036552Y033349D01*
X036455Y033331D01*
X036357Y033317D01*
X036258Y033307D01*
X036159Y033301D01*
X036060Y033299D01*
X035961Y033301D01*
X035862Y033307D01*
X035763Y033317D01*
X035665Y033331D01*
X035568Y033349D01*
X035471Y033371D01*
X035375Y033396D01*
X035281Y033426D01*
X035187Y033459D01*
X035095Y033496D01*
X035005Y033537D01*
X034916Y033581D01*
X034830Y033629D01*
X034745Y033680D01*
X034662Y033735D01*
X034582Y033793D01*
X034504Y033854D01*
X034428Y033918D01*
X034355Y033985D01*
X034285Y034055D01*
X034218Y034128D01*
X034154Y034204D01*
X034093Y034282D01*
X034035Y034362D01*
X033980Y034445D01*
X033929Y034529D01*
X033881Y034616D01*
X033837Y034705D01*
X033796Y034795D01*
X033759Y034887D01*
X033726Y034981D01*
X033696Y035075D01*
X033671Y035171D01*
X033649Y035268D01*
X033631Y035365D01*
X033617Y035463D01*
X033607Y035562D01*
X033601Y035661D01*
X033599Y035760D01*
X036256Y035760D02*
X036256Y035563D01*
X036256Y035760D02*
X036256Y035957D01*
X036256Y035760D02*
X037044Y035760D01*
X036453Y036154D02*
X036427Y036152D01*
X036402Y036147D01*
X036378Y036139D01*
X036355Y036128D01*
X036333Y036113D01*
X036314Y036096D01*
X036297Y036077D01*
X036282Y036056D01*
X036271Y036032D01*
X036263Y036008D01*
X036258Y035983D01*
X036256Y035957D01*
X036256Y035563D02*
X036258Y035537D01*
X036263Y035512D01*
X036271Y035488D01*
X036282Y035465D01*
X036297Y035443D01*
X036314Y035424D01*
X036333Y035407D01*
X036355Y035392D01*
X036378Y035381D01*
X036402Y035373D01*
X036427Y035368D01*
X036453Y035366D01*
X044510Y038960D02*
X059210Y038960D01*
X059210Y015760D01*
X044510Y015760D01*
X044510Y038960D01*
X048515Y042960D02*
X048515Y044160D01*
X049204Y044160D01*
X049204Y042960D01*
X048515Y042960D01*
X048607Y044032D02*
X048609Y044046D01*
X048615Y044060D01*
X048623Y044072D01*
X048635Y044080D01*
X048649Y044086D01*
X048663Y044088D01*
X048677Y044086D01*
X048691Y044080D01*
X048703Y044072D01*
X048711Y044060D01*
X048717Y044046D01*
X048719Y044032D01*
X048717Y044018D01*
X048711Y044004D01*
X048703Y043992D01*
X048691Y043984D01*
X048677Y043978D01*
X048663Y043976D01*
X048649Y043978D01*
X048635Y043984D01*
X048623Y043992D01*
X048615Y044004D01*
X048609Y044018D01*
X048607Y044032D01*
X049360Y046160D02*
X049360Y060660D01*
X072360Y060660D01*
X072360Y046160D01*
X049360Y046160D01*
X058215Y044160D02*
X058215Y042960D01*
X058904Y042960D01*
X058904Y044160D01*
X058215Y044160D01*
X058307Y044032D02*
X058309Y044046D01*
X058315Y044060D01*
X058323Y044072D01*
X058335Y044080D01*
X058349Y044086D01*
X058363Y044088D01*
X058377Y044086D01*
X058391Y044080D01*
X058403Y044072D01*
X058411Y044060D01*
X058417Y044046D01*
X058419Y044032D01*
X058417Y044018D01*
X058411Y044004D01*
X058403Y043992D01*
X058391Y043984D01*
X058377Y043978D01*
X058363Y043976D01*
X058349Y043978D01*
X058335Y043984D01*
X058323Y043992D01*
X058315Y044004D01*
X058309Y044018D01*
X058307Y044032D01*
X059660Y038960D02*
X074360Y038960D01*
X074360Y015760D01*
X059660Y015760D01*
X059660Y038960D01*
X066260Y017960D02*
X067760Y017960D01*
X070737Y015424D02*
X074359Y015424D01*
X074359Y012196D01*
X070737Y012196D01*
X070737Y015424D01*
X070114Y010232D02*
X070012Y010232D01*
X069808Y010029D01*
X069608Y010029D02*
X069201Y010029D01*
X069201Y010130D02*
X069303Y010232D01*
X069506Y010232D01*
X069608Y010130D01*
X069608Y010029D01*
X069506Y009825D02*
X069303Y009825D01*
X069201Y009927D01*
X069201Y010130D01*
X069000Y010232D02*
X068797Y009825D01*
X068593Y010232D01*
X068392Y010130D02*
X068291Y010232D01*
X068087Y010232D01*
X067985Y010130D01*
X067985Y009927D01*
X068087Y009825D01*
X068291Y009825D01*
X068392Y009927D01*
X068392Y010130D01*
X067785Y010130D02*
X067683Y010029D01*
X067378Y010029D01*
X067581Y010029D02*
X067785Y009825D01*
X067785Y010130D02*
X067785Y010334D01*
X067683Y010436D01*
X067378Y010436D01*
X067378Y009825D01*
X067074Y009446D02*
X067074Y008835D01*
X066972Y008835D02*
X067176Y008835D01*
X067378Y008835D02*
X067683Y008835D01*
X067785Y008937D01*
X067683Y009039D01*
X067479Y009039D01*
X067378Y009140D01*
X067479Y009242D01*
X067785Y009242D01*
X067074Y009446D02*
X066972Y009446D01*
X066670Y009242D02*
X066466Y009242D01*
X066365Y009140D01*
X066365Y008937D01*
X066466Y008835D01*
X066670Y008835D01*
X066772Y008937D01*
X066772Y009140D01*
X066670Y009242D01*
X066164Y009140D02*
X066164Y008835D01*
X066164Y009140D02*
X066062Y009242D01*
X065859Y009242D01*
X065757Y009140D01*
X065556Y009242D02*
X065251Y009242D01*
X065149Y009140D01*
X065149Y008937D01*
X065251Y008835D01*
X065556Y008835D01*
X065757Y008835D02*
X065757Y009446D01*
X065656Y009825D02*
X065656Y010232D01*
X065859Y010232D02*
X065961Y010232D01*
X065859Y010232D02*
X065656Y010029D01*
X065455Y010029D02*
X065150Y010029D01*
X065048Y009927D01*
X065150Y009825D01*
X065455Y009825D01*
X065455Y010130D01*
X065353Y010232D01*
X065150Y010232D01*
X064847Y010436D02*
X064847Y009825D01*
X064846Y009547D02*
X064846Y009446D01*
X064846Y009242D02*
X064846Y008835D01*
X064744Y008835D02*
X064948Y008835D01*
X064543Y008835D02*
X064543Y009446D01*
X064744Y009242D02*
X064846Y009242D01*
X064543Y008835D02*
X064136Y009446D01*
X064136Y008835D01*
X064086Y008252D02*
X064290Y008252D01*
X064392Y008150D01*
X064392Y007845D01*
X064086Y007845D01*
X063985Y007947D01*
X064086Y008049D01*
X064392Y008049D01*
X064592Y008049D02*
X064796Y008252D01*
X064897Y008252D01*
X065099Y008150D02*
X065200Y008252D01*
X065506Y008252D01*
X065506Y008456D02*
X065506Y007845D01*
X065200Y007845D01*
X065099Y007947D01*
X065099Y008150D01*
X064592Y008252D02*
X064592Y007845D01*
X063784Y007947D02*
X063784Y008150D01*
X063682Y008252D01*
X063479Y008252D01*
X063377Y008150D01*
X063377Y007947D01*
X063479Y007845D01*
X063682Y007845D01*
X063784Y007947D01*
X063176Y007947D02*
X063074Y007845D01*
X062769Y007845D01*
X062769Y008456D01*
X063074Y008456D01*
X063176Y008354D01*
X063176Y008252D01*
X063074Y008150D01*
X062769Y008150D01*
X063074Y008150D02*
X063176Y008049D01*
X063176Y007947D01*
X063328Y008835D02*
X063328Y009140D01*
X063226Y009242D01*
X062921Y009242D01*
X062921Y008835D01*
X062720Y008937D02*
X062720Y009140D01*
X062619Y009242D01*
X062415Y009242D01*
X062313Y009140D01*
X062313Y008937D01*
X062415Y008835D01*
X062619Y008835D01*
X062720Y008937D01*
X062112Y009242D02*
X062010Y009242D01*
X061807Y009039D01*
X061606Y009039D02*
X061199Y009039D01*
X061199Y009140D02*
X061301Y009242D01*
X061504Y009242D01*
X061606Y009140D01*
X061606Y009039D01*
X061504Y008835D02*
X061301Y008835D01*
X061199Y008937D01*
X061199Y009140D01*
X060998Y009140D02*
X060998Y008835D01*
X060795Y008835D02*
X060795Y009140D01*
X060897Y009242D01*
X060998Y009140D01*
X060795Y009140D02*
X060693Y009242D01*
X060591Y009242D01*
X060591Y008835D01*
X060391Y008835D02*
X060085Y008835D01*
X059984Y008937D01*
X060085Y009039D01*
X060391Y009039D01*
X060391Y009140D02*
X060391Y008835D01*
X060391Y009140D02*
X060289Y009242D01*
X060085Y009242D01*
X059783Y009344D02*
X059681Y009446D01*
X059478Y009446D01*
X059376Y009344D01*
X059376Y008937D01*
X059478Y008835D01*
X059681Y008835D01*
X059783Y008937D01*
X059529Y008456D02*
X059631Y008354D01*
X059631Y008150D01*
X059529Y008049D01*
X059224Y008049D01*
X059224Y007845D02*
X059224Y008456D01*
X059529Y008456D01*
X059832Y008150D02*
X059832Y007947D01*
X059934Y007845D01*
X060137Y007845D01*
X060239Y007947D01*
X060239Y008150D01*
X060137Y008252D01*
X059934Y008252D01*
X059832Y008150D01*
X060439Y008252D02*
X060439Y007947D01*
X060541Y007845D01*
X060643Y007947D01*
X060745Y007845D01*
X060846Y007947D01*
X060846Y008252D01*
X061047Y008150D02*
X061149Y008252D01*
X061352Y008252D01*
X061454Y008150D01*
X061454Y008049D01*
X061047Y008049D01*
X061047Y008150D02*
X061047Y007947D01*
X061149Y007845D01*
X061352Y007845D01*
X061655Y007845D02*
X061655Y008252D01*
X061858Y008252D02*
X061960Y008252D01*
X061858Y008252D02*
X061655Y008049D01*
X061807Y008835D02*
X061807Y009242D01*
X062111Y009825D02*
X062009Y009927D01*
X062111Y009825D02*
X062315Y009825D01*
X062416Y009927D01*
X062416Y010029D01*
X062315Y010130D01*
X062111Y010130D01*
X062009Y010232D01*
X062009Y010334D01*
X062111Y010436D01*
X062315Y010436D01*
X062416Y010334D01*
X062617Y010334D02*
X062617Y010232D01*
X063024Y009825D01*
X062821Y009825D02*
X062719Y009825D01*
X062617Y009927D01*
X062617Y010029D01*
X062821Y010232D01*
X062821Y010334D01*
X062719Y010436D01*
X062617Y010334D01*
X063024Y010029D02*
X062821Y009825D01*
X063428Y009825D02*
X063428Y010436D01*
X063225Y010436D02*
X063632Y010436D01*
X064440Y010436D02*
X064440Y009825D01*
X064644Y010232D02*
X064847Y010436D01*
X064644Y010232D02*
X064440Y010436D01*
X066162Y010130D02*
X066264Y010232D01*
X066569Y010232D01*
X066467Y010029D02*
X066264Y010029D01*
X066162Y010130D01*
X066162Y009825D02*
X066467Y009825D01*
X066569Y009927D01*
X066467Y010029D01*
X066416Y008456D02*
X066314Y008354D01*
X066416Y008456D02*
X066619Y008456D01*
X066721Y008354D01*
X066721Y008252D01*
X066314Y007845D01*
X066721Y007845D01*
X066922Y007947D02*
X067329Y008354D01*
X067329Y007947D01*
X067227Y007845D01*
X067024Y007845D01*
X066922Y007947D01*
X066922Y008354D01*
X067024Y008456D01*
X067227Y008456D01*
X067329Y008354D01*
X067530Y008252D02*
X067733Y008456D01*
X067733Y007845D01*
X067530Y007845D02*
X067937Y007845D01*
X068137Y007947D02*
X068239Y007845D01*
X068443Y007845D01*
X068544Y007947D01*
X068544Y008049D01*
X068443Y008150D01*
X068137Y008150D01*
X068137Y007947D01*
X068137Y008150D02*
X068341Y008354D01*
X068544Y008456D01*
X069808Y009825D02*
X069808Y010232D01*
X061200Y009825D02*
X060997Y009825D01*
X061098Y009825D02*
X061098Y010232D01*
X060997Y010232D01*
X060795Y010232D02*
X060694Y010232D01*
X060490Y010029D01*
X060490Y010232D02*
X060490Y009825D01*
X060289Y009825D02*
X060289Y010232D01*
X059882Y010232D02*
X059882Y009927D01*
X059984Y009825D01*
X060289Y009825D01*
X059682Y009927D02*
X059580Y009825D01*
X059376Y009825D01*
X059275Y009927D01*
X059275Y010130D01*
X059376Y010232D01*
X059580Y010232D01*
X059682Y010130D01*
X059682Y009927D01*
X059074Y009927D02*
X058972Y009825D01*
X058667Y009825D01*
X058466Y009927D02*
X058365Y009825D01*
X058059Y009825D01*
X057858Y009825D02*
X057654Y009825D01*
X057756Y009825D02*
X057756Y010232D01*
X057654Y010232D01*
X057756Y010436D02*
X057756Y010537D01*
X057453Y010436D02*
X057453Y009825D01*
X057046Y009825D02*
X057046Y010436D01*
X057250Y010232D01*
X057453Y010436D01*
X058059Y010130D02*
X058161Y010232D01*
X058466Y010232D01*
X058667Y010130D02*
X058769Y010232D01*
X059074Y010232D01*
X058972Y010029D02*
X058769Y010029D01*
X058667Y010130D01*
X058466Y009927D02*
X058365Y010029D01*
X058161Y010029D01*
X058059Y010130D01*
X058972Y010029D02*
X059074Y009927D01*
X061098Y010436D02*
X061098Y010537D01*
X052610Y017960D02*
X051110Y017960D01*
X059975Y076273D02*
X059975Y077847D01*
X061944Y077847D01*
X061944Y076273D01*
X059975Y076273D01*
D11*
X018960Y068760D02*
X018960Y068363D01*
X018960Y067969D02*
X018960Y067572D01*
X018960Y067178D02*
X018960Y066781D01*
X018960Y066388D02*
X018960Y065990D01*
X018960Y065597D02*
X018960Y065200D01*
X018960Y064806D02*
X018960Y064409D01*
X018960Y064015D02*
X018960Y063618D01*
X018960Y063224D02*
X018960Y062827D01*
X018960Y062433D02*
X018960Y062036D01*
X018960Y061643D02*
X018960Y061245D01*
X018960Y060852D02*
X018960Y060455D01*
X018960Y060061D02*
X018960Y059664D01*
X018960Y059270D02*
X018960Y058873D01*
X018960Y058479D02*
X018960Y058082D01*
X018960Y057688D02*
X018960Y057291D01*
X018960Y056898D02*
X018960Y056500D01*
X018960Y056107D02*
X018960Y055710D01*
X018960Y055316D02*
X018960Y054919D01*
X018960Y054525D02*
X018960Y054128D01*
X018960Y053734D02*
X018960Y053337D01*
X018960Y052943D02*
X018960Y052546D01*
X018960Y052153D02*
X018960Y051756D01*
X018960Y051362D02*
X018960Y050965D01*
X018960Y050571D02*
X018960Y050174D01*
X018960Y049780D02*
X018960Y049383D01*
X018960Y048989D02*
X018960Y048592D01*
X018960Y048198D02*
X018960Y047801D01*
X018960Y047408D02*
X018960Y047011D01*
X018960Y046617D02*
X018960Y046220D01*
X018960Y045826D02*
X018960Y045429D01*
X018960Y045035D02*
X018960Y044638D01*
X018960Y044244D02*
X018960Y043847D01*
X018960Y043454D02*
X018960Y043056D01*
X018960Y042663D02*
X018960Y042266D01*
X018960Y041872D02*
X018960Y041475D01*
X018960Y041081D02*
X018960Y040684D01*
X018960Y040290D02*
X018960Y039893D01*
X018960Y039499D02*
X018960Y039102D01*
X018960Y038709D02*
X018960Y038311D01*
X018960Y037918D02*
X018960Y037521D01*
X018960Y037127D02*
X018960Y036730D01*
X018960Y036336D02*
X018960Y035939D01*
X018960Y035545D02*
X018960Y035148D01*
X018960Y034754D02*
X018960Y034357D01*
X018960Y033964D02*
X018960Y033566D01*
X018960Y033173D02*
X018960Y032776D01*
X018960Y032382D02*
X018960Y031985D01*
X018960Y031591D02*
X018960Y031194D01*
X018960Y030800D02*
X018960Y030403D01*
X018960Y030009D02*
X018960Y029612D01*
X018960Y029219D02*
X018960Y028822D01*
X018960Y028428D02*
X018960Y028031D01*
X018960Y027637D02*
X018960Y027240D01*
X018960Y026846D02*
X018960Y026449D01*
X018960Y026055D02*
X018960Y025658D01*
X018960Y025264D02*
X018960Y024867D01*
X018960Y024474D02*
X018960Y024077D01*
X018960Y023683D02*
X018960Y023286D01*
X018960Y022892D02*
X018960Y022495D01*
X018960Y022101D02*
X018960Y021704D01*
X018960Y021310D02*
X018960Y020913D01*
X018960Y020520D02*
X018960Y020122D01*
X018960Y019729D02*
X018960Y019332D01*
X018960Y018938D02*
X018960Y018541D01*
X018960Y018147D02*
X018960Y017750D01*
X018960Y017356D02*
X018960Y016959D01*
X018960Y016565D02*
X018960Y016168D01*
X018960Y015775D02*
X018960Y015377D01*
X018960Y014984D02*
X018960Y014587D01*
X018960Y014193D02*
X018960Y013796D01*
X018960Y013402D02*
X018960Y013005D01*
X018960Y012611D02*
X018960Y012214D01*
X018960Y011820D02*
X018960Y011423D01*
X018960Y011030D02*
X018960Y010632D01*
X018960Y010239D02*
X018960Y009842D01*
X018960Y009448D02*
X018960Y009051D01*
X018960Y008657D02*
X018960Y008260D01*
X018355Y008260D01*
X017962Y008260D02*
X017357Y008260D01*
X016964Y008260D02*
X016360Y008260D01*
X016360Y008657D01*
X016360Y009051D02*
X016360Y009448D01*
X016360Y009842D02*
X016360Y010239D01*
X016360Y010632D02*
X016360Y011030D01*
X016360Y011423D02*
X016360Y011820D01*
X016360Y012214D02*
X016360Y012611D01*
X016360Y013005D02*
X016360Y013402D01*
X016360Y013796D02*
X016360Y014193D01*
X016360Y014587D02*
X016360Y014984D01*
X016360Y015377D02*
X016360Y015775D01*
X016360Y016168D02*
X016360Y016565D01*
X016360Y016959D02*
X016360Y017356D01*
X016360Y017750D02*
X016360Y018147D01*
X016360Y018541D02*
X016360Y018938D01*
X016360Y019332D02*
X016360Y019729D01*
X016360Y020122D02*
X016360Y020520D01*
X016360Y020913D02*
X016360Y021310D01*
X016360Y021704D02*
X016360Y022101D01*
X016360Y022495D02*
X016360Y022892D01*
X016360Y023286D02*
X016360Y023683D01*
X016360Y024077D02*
X016360Y024474D01*
X016360Y024867D02*
X016360Y025264D01*
X016360Y025658D02*
X016360Y026055D01*
X016360Y026449D02*
X016360Y026846D01*
X016360Y027240D02*
X016360Y027637D01*
X016360Y028031D02*
X016360Y028428D01*
X016360Y028822D02*
X016360Y029219D01*
X016360Y029612D02*
X016360Y030009D01*
X016360Y030403D02*
X016360Y030800D01*
X016360Y031194D02*
X016360Y031591D01*
X016360Y031985D02*
X016360Y032382D01*
X016360Y032776D02*
X016360Y033173D01*
X016360Y033566D02*
X016360Y033964D01*
X016360Y034357D02*
X016360Y034754D01*
X016360Y035148D02*
X016360Y035545D01*
X016360Y035939D02*
X016360Y036336D01*
X016360Y036730D02*
X016360Y037127D01*
X016360Y037521D02*
X016360Y037918D01*
X016360Y038311D02*
X016360Y038709D01*
X016360Y039102D02*
X016360Y039499D01*
X016360Y039893D02*
X016360Y040290D01*
X016360Y040684D02*
X016360Y041081D01*
X016360Y041475D02*
X016360Y041872D01*
X016360Y042266D02*
X016360Y042663D01*
X016360Y043056D02*
X016360Y043454D01*
X016360Y043847D02*
X016360Y044244D01*
X016360Y044638D02*
X016360Y045035D01*
X016360Y045429D02*
X016360Y045826D01*
X016360Y046220D02*
X016360Y046617D01*
X016360Y047011D02*
X016360Y047408D01*
X016360Y047801D02*
X016360Y048198D01*
X016360Y048592D02*
X016360Y048989D01*
X016360Y049383D02*
X016360Y049780D01*
X016360Y050174D02*
X016360Y050571D01*
X016360Y050965D02*
X016360Y051362D01*
X016360Y051756D02*
X016360Y052153D01*
X016360Y052546D02*
X016360Y052943D01*
X016360Y053337D02*
X016360Y053734D01*
X016360Y054128D02*
X016360Y054525D01*
X016360Y054919D02*
X016360Y055316D01*
X016360Y055710D02*
X016360Y056107D01*
X016360Y056500D02*
X016360Y056898D01*
X016360Y057291D02*
X016360Y057688D01*
X016360Y058082D02*
X016360Y058479D01*
X016360Y058873D02*
X016360Y059270D01*
X016360Y059664D02*
X016360Y060061D01*
X016360Y060455D02*
X016360Y060852D01*
X016360Y061245D02*
X016360Y061643D01*
X016360Y062036D02*
X016360Y062433D01*
X016360Y062827D02*
X016360Y063224D01*
X016360Y063618D02*
X016360Y064015D01*
X016360Y064409D02*
X016360Y064806D01*
X016360Y065200D02*
X016360Y065597D01*
X016360Y065990D02*
X016360Y066388D01*
X016360Y066781D02*
X016360Y067178D01*
X016360Y067572D02*
X016360Y067969D01*
X016360Y068363D02*
X016360Y068760D01*
X016964Y068760D01*
X017357Y068760D02*
X017962Y068760D01*
X018355Y068760D02*
X018960Y068760D01*
X041430Y008771D02*
X041430Y007850D01*
X040970Y008311D02*
X041890Y008311D01*
X041890Y006751D02*
X041890Y005830D01*
X041430Y005370D01*
X040970Y005830D01*
X040970Y006751D01*
X042351Y006751D02*
X043041Y006751D01*
X043271Y006521D01*
X043271Y006061D01*
X043041Y005830D01*
X042351Y005830D01*
X042351Y005370D02*
X042351Y006751D01*
X043732Y006291D02*
X043732Y005370D01*
X043732Y006061D02*
X044653Y006061D01*
X044653Y006291D02*
X044653Y005370D01*
X045113Y005600D02*
X045343Y005370D01*
X045804Y005370D01*
X046034Y005600D01*
X046494Y005370D02*
X046494Y006751D01*
X046034Y006521D02*
X045804Y006751D01*
X045343Y006751D01*
X045113Y006521D01*
X045113Y005600D01*
X044653Y006291D02*
X044192Y006751D01*
X043732Y006291D01*
X046494Y005830D02*
X047415Y006751D01*
X046724Y006061D02*
X047415Y005370D01*
X047415Y008311D02*
X046494Y008311D01*
D12*
X047172Y013110D02*
X043172Y013110D01*
X043172Y015110D01*
X047172Y015110D01*
X047172Y013110D01*
X046172Y014110D02*
X045172Y014110D01*
X045172Y014340D01*
X045172Y014110D02*
X045172Y013880D01*
X045322Y013880D01*
X045172Y014110D02*
X045672Y013880D01*
X045672Y014340D01*
X045172Y014110D01*
X044672Y014110D01*
X047796Y016604D02*
X048223Y016604D01*
X048009Y016817D02*
X048009Y016390D01*
X048116Y017035D02*
X048330Y017248D01*
X048116Y017462D01*
X047689Y017462D01*
X047689Y017679D02*
X047689Y017893D01*
X047689Y017786D02*
X048330Y017786D01*
X048330Y017679D02*
X048330Y017893D01*
X048330Y018109D02*
X047689Y018109D01*
X048330Y018536D01*
X047689Y018536D01*
X047689Y017035D02*
X048116Y017035D01*
X049628Y015581D02*
X049628Y014940D01*
X049628Y015154D02*
X049948Y015154D01*
X050055Y015260D01*
X050055Y015474D01*
X049948Y015581D01*
X049628Y015581D01*
X050272Y015474D02*
X050272Y015047D01*
X050379Y014940D01*
X050592Y014940D01*
X050699Y015047D01*
X050699Y015474D01*
X050592Y015581D01*
X050379Y015581D01*
X050272Y015474D01*
X050917Y015581D02*
X050917Y014940D01*
X051344Y014940D01*
X051130Y015260D02*
X050917Y015260D01*
X050917Y015581D02*
X051344Y015581D01*
X051561Y015260D02*
X051988Y015260D01*
X052206Y015367D02*
X052419Y015581D01*
X052419Y014940D01*
X052206Y014940D02*
X052633Y014940D01*
X052850Y014940D02*
X053277Y015367D01*
X053277Y015474D01*
X053171Y015581D01*
X052957Y015581D01*
X052850Y015474D01*
X052850Y014940D02*
X053277Y014940D01*
X053495Y015154D02*
X053708Y014940D01*
X053922Y015154D01*
X053922Y015581D01*
X053495Y015581D02*
X053495Y015154D01*
X055389Y016671D02*
X055816Y016671D01*
X056030Y016885D01*
X055816Y017098D01*
X055389Y017098D01*
X055389Y017316D02*
X055389Y017529D01*
X055389Y017423D02*
X056030Y017423D01*
X056030Y017529D02*
X056030Y017316D01*
X056030Y017745D02*
X055389Y017745D01*
X056030Y018172D01*
X055389Y018172D01*
X055709Y016454D02*
X055709Y016027D01*
X051723Y022890D02*
X051189Y022890D01*
X051189Y023317D02*
X051723Y023317D01*
X051830Y023210D01*
X051830Y022997D01*
X051723Y022890D01*
X051723Y023535D02*
X051296Y023535D01*
X051189Y023641D01*
X051189Y023855D01*
X051296Y023962D01*
X051723Y023962D01*
X051830Y023855D01*
X051830Y023641D01*
X051723Y023535D01*
X051616Y023748D02*
X051830Y023962D01*
X051830Y024179D02*
X051616Y024393D01*
X051830Y024606D01*
X051189Y024606D01*
X051509Y024824D02*
X051509Y025251D01*
X051402Y025468D02*
X051189Y025682D01*
X051830Y025682D01*
X051830Y025895D02*
X051830Y025468D01*
X051830Y026113D02*
X051402Y026540D01*
X051296Y026540D01*
X051189Y026433D01*
X051189Y026220D01*
X051296Y026113D01*
X051830Y026113D02*
X051830Y026540D01*
X051830Y026757D02*
X051189Y027184D01*
X051296Y027402D02*
X051189Y027509D01*
X051189Y027722D01*
X051296Y027829D01*
X051402Y027829D01*
X051830Y027402D01*
X051830Y027829D01*
X051723Y028046D02*
X051296Y028473D01*
X051723Y028473D01*
X051830Y028367D01*
X051830Y028153D01*
X051723Y028046D01*
X051296Y028046D01*
X051189Y028153D01*
X051189Y028367D01*
X051296Y028473D01*
X051509Y028691D02*
X051509Y029118D01*
X051189Y029335D02*
X051189Y029763D01*
X051189Y029549D02*
X051830Y029549D01*
X051509Y029980D02*
X051189Y030300D01*
X051830Y030300D01*
X051509Y030407D02*
X051509Y029980D01*
X051402Y030625D02*
X051296Y030625D01*
X051189Y030731D01*
X051189Y030945D01*
X051296Y031052D01*
X051402Y031052D01*
X051509Y030945D01*
X051509Y030731D01*
X051402Y030625D01*
X051509Y030731D02*
X051616Y030625D01*
X051723Y030625D01*
X051830Y030731D01*
X051830Y030945D01*
X051723Y031052D01*
X051616Y031052D01*
X051509Y030945D01*
X051189Y031269D02*
X051830Y031269D01*
X051830Y031696D02*
X051189Y031696D01*
X051189Y031914D02*
X051189Y032234D01*
X051296Y032341D01*
X051402Y032341D01*
X051509Y032234D01*
X051509Y031914D01*
X051509Y032234D02*
X051616Y032341D01*
X051723Y032341D01*
X051830Y032234D01*
X051830Y031914D01*
X051189Y031914D01*
X051189Y031269D02*
X051830Y031696D01*
X051723Y032558D02*
X051830Y032665D01*
X051830Y032879D01*
X051723Y032985D01*
X051616Y032985D01*
X051509Y032879D01*
X051509Y032665D01*
X051402Y032558D01*
X051296Y032558D01*
X051189Y032665D01*
X051189Y032879D01*
X051296Y032985D01*
X047923Y035381D02*
X047496Y035381D01*
X047709Y035167D02*
X047709Y035594D01*
X047816Y035812D02*
X048030Y036025D01*
X047816Y036239D01*
X047389Y036239D01*
X047496Y036456D02*
X047923Y036456D01*
X048030Y036563D01*
X048030Y036777D01*
X047923Y036883D01*
X047496Y036883D01*
X047389Y036777D01*
X047389Y036563D01*
X047496Y036456D01*
X047389Y035812D02*
X047816Y035812D01*
X047923Y037101D02*
X048030Y037208D01*
X048030Y037421D01*
X047923Y037528D01*
X047389Y037528D01*
X047389Y037745D02*
X047389Y038172D01*
X047389Y037959D02*
X048030Y037959D01*
X047923Y037101D02*
X047389Y037101D01*
X055422Y045390D02*
X055422Y046031D01*
X055742Y046031D01*
X055849Y045924D01*
X055849Y045710D01*
X055742Y045604D01*
X055422Y045604D01*
X055636Y045604D02*
X055849Y045390D01*
X056067Y045390D02*
X056494Y045390D01*
X056280Y045710D02*
X056067Y045710D01*
X056067Y045390D02*
X056067Y046031D01*
X056494Y046031D01*
X056711Y046031D02*
X056711Y045924D01*
X056925Y045710D01*
X056925Y045390D01*
X056925Y045710D02*
X057138Y045924D01*
X057138Y046031D01*
X057356Y045710D02*
X057783Y045710D01*
X058000Y045710D02*
X058214Y045817D01*
X058321Y045817D01*
X058427Y045710D01*
X058427Y045497D01*
X058321Y045390D01*
X058107Y045390D01*
X058000Y045497D01*
X058000Y045710D02*
X058000Y046031D01*
X058427Y046031D01*
X058645Y046031D02*
X058645Y045604D01*
X058858Y045390D01*
X059072Y045604D01*
X059072Y046031D01*
X056330Y038182D02*
X055689Y038182D01*
X055689Y038395D02*
X055689Y037968D01*
X055689Y037751D02*
X056223Y037751D01*
X056330Y037644D01*
X056330Y037430D01*
X056223Y037324D01*
X055689Y037324D01*
X055796Y037106D02*
X055689Y036999D01*
X055689Y036786D01*
X055796Y036679D01*
X056223Y036679D01*
X056330Y036786D01*
X056330Y036999D01*
X056223Y037106D01*
X055796Y037106D01*
X055689Y036462D02*
X056116Y036462D01*
X056330Y036248D01*
X056116Y036035D01*
X055689Y036035D01*
X056009Y035817D02*
X056009Y035390D01*
X062539Y035812D02*
X062966Y035812D01*
X063180Y036025D01*
X062966Y036239D01*
X062539Y036239D01*
X062646Y036456D02*
X063073Y036456D01*
X063180Y036563D01*
X063180Y036777D01*
X063073Y036883D01*
X062646Y036883D01*
X062539Y036777D01*
X062539Y036563D01*
X062646Y036456D01*
X062539Y037101D02*
X063073Y037101D01*
X063180Y037208D01*
X063180Y037421D01*
X063073Y037528D01*
X062539Y037528D01*
X062539Y037745D02*
X062539Y038172D01*
X062539Y037959D02*
X063180Y037959D01*
X062859Y035594D02*
X062859Y035167D01*
X062646Y035381D02*
X063073Y035381D01*
X066339Y032879D02*
X066339Y032665D01*
X066446Y032558D01*
X066552Y032558D01*
X066659Y032665D01*
X066659Y032879D01*
X066766Y032985D01*
X066873Y032985D01*
X066980Y032879D01*
X066980Y032665D01*
X066873Y032558D01*
X066873Y032341D02*
X066980Y032234D01*
X066980Y031914D01*
X066339Y031914D01*
X066339Y032234D01*
X066446Y032341D01*
X066552Y032341D01*
X066659Y032234D01*
X066659Y031914D01*
X066659Y032234D02*
X066766Y032341D01*
X066873Y032341D01*
X066980Y031696D02*
X066339Y031696D01*
X066339Y031269D02*
X066980Y031696D01*
X066980Y031269D02*
X066339Y031269D01*
X066446Y031052D02*
X066552Y031052D01*
X066659Y030945D01*
X066659Y030731D01*
X066552Y030625D01*
X066446Y030625D01*
X066339Y030731D01*
X066339Y030945D01*
X066446Y031052D01*
X066659Y030945D02*
X066766Y031052D01*
X066873Y031052D01*
X066980Y030945D01*
X066980Y030731D01*
X066873Y030625D01*
X066766Y030625D01*
X066659Y030731D01*
X066659Y030407D02*
X066659Y029980D01*
X066339Y030300D01*
X066980Y030300D01*
X066980Y029549D02*
X066339Y029549D01*
X066339Y029335D02*
X066339Y029763D01*
X066659Y029118D02*
X066659Y028691D01*
X066446Y028473D02*
X066873Y028046D01*
X066980Y028153D01*
X066980Y028367D01*
X066873Y028473D01*
X066446Y028473D01*
X066339Y028367D01*
X066339Y028153D01*
X066446Y028046D01*
X066873Y028046D01*
X066980Y027829D02*
X066980Y027402D01*
X066552Y027829D01*
X066446Y027829D01*
X066339Y027722D01*
X066339Y027509D01*
X066446Y027402D01*
X066339Y027184D02*
X066980Y026757D01*
X066980Y026540D02*
X066980Y026113D01*
X066552Y026540D01*
X066446Y026540D01*
X066339Y026433D01*
X066339Y026220D01*
X066446Y026113D01*
X066339Y025682D02*
X066980Y025682D01*
X066980Y025895D02*
X066980Y025468D01*
X066659Y025251D02*
X066659Y024824D01*
X066339Y024606D02*
X066980Y024606D01*
X066766Y024393D01*
X066980Y024179D01*
X066339Y024179D01*
X066446Y023962D02*
X066873Y023962D01*
X066980Y023855D01*
X066980Y023641D01*
X066873Y023535D01*
X066446Y023535D01*
X066339Y023641D01*
X066339Y023855D01*
X066446Y023962D01*
X066766Y023748D02*
X066980Y023962D01*
X066873Y023317D02*
X066339Y023317D01*
X066339Y022890D02*
X066873Y022890D01*
X066980Y022997D01*
X066980Y023210D01*
X066873Y023317D01*
X066552Y025468D02*
X066339Y025682D01*
X066339Y032879D02*
X066446Y032985D01*
X070839Y036035D02*
X071266Y036035D01*
X071480Y036248D01*
X071266Y036462D01*
X070839Y036462D01*
X070946Y036679D02*
X071373Y036679D01*
X071480Y036786D01*
X071480Y036999D01*
X071373Y037106D01*
X070946Y037106D01*
X070839Y036999D01*
X070839Y036786D01*
X070946Y036679D01*
X070839Y037324D02*
X071373Y037324D01*
X071480Y037430D01*
X071480Y037644D01*
X071373Y037751D01*
X070839Y037751D01*
X070839Y037968D02*
X070839Y038395D01*
X070839Y038182D02*
X071480Y038182D01*
X071159Y035817D02*
X071159Y035390D01*
X071180Y018172D02*
X070539Y018172D01*
X070539Y017745D02*
X071180Y018172D01*
X071180Y017745D02*
X070539Y017745D01*
X070539Y017529D02*
X070539Y017316D01*
X070539Y017423D02*
X071180Y017423D01*
X071180Y017529D02*
X071180Y017316D01*
X070966Y017098D02*
X070539Y017098D01*
X070539Y016671D02*
X070966Y016671D01*
X071180Y016885D01*
X070966Y017098D01*
X070859Y016454D02*
X070859Y016027D01*
X068622Y015581D02*
X068622Y015154D01*
X068408Y014940D01*
X068195Y015154D01*
X068195Y015581D01*
X067977Y015474D02*
X067871Y015581D01*
X067657Y015581D01*
X067550Y015474D01*
X067977Y015474D02*
X067977Y015367D01*
X067550Y014940D01*
X067977Y014940D01*
X067333Y014940D02*
X066906Y014940D01*
X067119Y014940D02*
X067119Y015581D01*
X066906Y015367D01*
X066688Y015260D02*
X066261Y015260D01*
X066044Y014940D02*
X066044Y015581D01*
X065617Y015581D02*
X066044Y014940D01*
X065617Y014940D02*
X065617Y015581D01*
X065399Y015581D02*
X065399Y014940D01*
X064972Y015581D01*
X064972Y014940D01*
X064756Y014940D02*
X064543Y014940D01*
X064649Y014940D02*
X064649Y015581D01*
X064543Y015581D02*
X064756Y015581D01*
X064325Y015581D02*
X063898Y015581D01*
X063898Y014940D01*
X063898Y015260D02*
X064111Y015260D01*
X063159Y016390D02*
X063159Y016817D01*
X063266Y017035D02*
X063480Y017248D01*
X063266Y017462D01*
X062839Y017462D01*
X062839Y017679D02*
X062839Y017893D01*
X062839Y017786D02*
X063480Y017786D01*
X063480Y017679D02*
X063480Y017893D01*
X063480Y018109D02*
X062839Y018109D01*
X063480Y018536D01*
X062839Y018536D01*
X062839Y017035D02*
X063266Y017035D01*
X063373Y016604D02*
X062946Y016604D01*
X051830Y024179D02*
X051189Y024179D01*
X039660Y041260D02*
X035660Y041260D01*
X035660Y043260D01*
X039660Y043260D01*
X039660Y041260D01*
X038660Y042260D02*
X037660Y042260D01*
X037660Y042490D01*
X037660Y042260D02*
X037660Y042030D01*
X037810Y042030D01*
X037660Y042260D02*
X038160Y042030D01*
X038160Y042490D01*
X037660Y042260D01*
X037160Y042260D01*
X035485Y058998D02*
X035485Y059198D01*
X033735Y059448D02*
X033737Y059531D01*
X033743Y059614D01*
X033753Y059697D01*
X033767Y059779D01*
X033784Y059861D01*
X033806Y059941D01*
X033831Y060020D01*
X033860Y060098D01*
X033893Y060175D01*
X033930Y060250D01*
X033969Y060323D01*
X034013Y060394D01*
X034059Y060463D01*
X034109Y060530D01*
X034162Y060594D01*
X034218Y060656D01*
X034277Y060715D01*
X034339Y060771D01*
X034403Y060824D01*
X034470Y060874D01*
X034539Y060920D01*
X034610Y060964D01*
X034683Y061003D01*
X034758Y061040D01*
X034835Y061073D01*
X034913Y061102D01*
X034992Y061127D01*
X035072Y061149D01*
X035154Y061166D01*
X035236Y061180D01*
X035319Y061190D01*
X035402Y061196D01*
X035485Y061198D01*
X035568Y061196D01*
X035651Y061190D01*
X035734Y061180D01*
X035816Y061166D01*
X035898Y061149D01*
X035978Y061127D01*
X036057Y061102D01*
X036135Y061073D01*
X036212Y061040D01*
X036287Y061003D01*
X036360Y060964D01*
X036431Y060920D01*
X036500Y060874D01*
X036567Y060824D01*
X036631Y060771D01*
X036693Y060715D01*
X036752Y060656D01*
X036808Y060594D01*
X036861Y060530D01*
X036911Y060463D01*
X036957Y060394D01*
X037001Y060323D01*
X037040Y060250D01*
X037077Y060175D01*
X037110Y060098D01*
X037139Y060020D01*
X037164Y059941D01*
X037186Y059861D01*
X037203Y059779D01*
X037217Y059697D01*
X037227Y059614D01*
X037233Y059531D01*
X037235Y059448D01*
X037233Y059365D01*
X037227Y059282D01*
X037217Y059199D01*
X037203Y059117D01*
X037186Y059035D01*
X037164Y058955D01*
X037139Y058876D01*
X037110Y058798D01*
X037077Y058721D01*
X037040Y058646D01*
X037001Y058573D01*
X036957Y058502D01*
X036911Y058433D01*
X036861Y058366D01*
X036808Y058302D01*
X036752Y058240D01*
X036693Y058181D01*
X036631Y058125D01*
X036567Y058072D01*
X036500Y058022D01*
X036431Y057976D01*
X036360Y057932D01*
X036287Y057893D01*
X036212Y057856D01*
X036135Y057823D01*
X036057Y057794D01*
X035978Y057769D01*
X035898Y057747D01*
X035816Y057730D01*
X035734Y057716D01*
X035651Y057706D01*
X035568Y057700D01*
X035485Y057698D01*
X035402Y057700D01*
X035319Y057706D01*
X035236Y057716D01*
X035154Y057730D01*
X035072Y057747D01*
X034992Y057769D01*
X034913Y057794D01*
X034835Y057823D01*
X034758Y057856D01*
X034683Y057893D01*
X034610Y057932D01*
X034539Y057976D01*
X034470Y058022D01*
X034403Y058072D01*
X034339Y058125D01*
X034277Y058181D01*
X034218Y058240D01*
X034162Y058302D01*
X034109Y058366D01*
X034059Y058433D01*
X034013Y058502D01*
X033969Y058573D01*
X033930Y058646D01*
X033893Y058721D01*
X033860Y058798D01*
X033831Y058876D01*
X033806Y058955D01*
X033784Y059035D01*
X033767Y059117D01*
X033753Y059199D01*
X033743Y059282D01*
X033737Y059365D01*
X033735Y059448D01*
X035035Y059548D02*
X035935Y059548D01*
X035935Y059798D01*
X035485Y059798D01*
X035035Y059798D01*
X035035Y059548D01*
X035485Y059798D02*
X035485Y059898D01*
X036135Y060598D02*
X036135Y060898D01*
X036285Y060748D02*
X035985Y060748D01*
X039085Y059798D02*
X039085Y059548D01*
X039985Y059548D01*
X039985Y059798D01*
X039535Y059798D01*
X039085Y059798D01*
X039535Y059798D02*
X039535Y059898D01*
X037785Y059448D02*
X037787Y059531D01*
X037793Y059614D01*
X037803Y059697D01*
X037817Y059779D01*
X037834Y059861D01*
X037856Y059941D01*
X037881Y060020D01*
X037910Y060098D01*
X037943Y060175D01*
X037980Y060250D01*
X038019Y060323D01*
X038063Y060394D01*
X038109Y060463D01*
X038159Y060530D01*
X038212Y060594D01*
X038268Y060656D01*
X038327Y060715D01*
X038389Y060771D01*
X038453Y060824D01*
X038520Y060874D01*
X038589Y060920D01*
X038660Y060964D01*
X038733Y061003D01*
X038808Y061040D01*
X038885Y061073D01*
X038963Y061102D01*
X039042Y061127D01*
X039122Y061149D01*
X039204Y061166D01*
X039286Y061180D01*
X039369Y061190D01*
X039452Y061196D01*
X039535Y061198D01*
X039618Y061196D01*
X039701Y061190D01*
X039784Y061180D01*
X039866Y061166D01*
X039948Y061149D01*
X040028Y061127D01*
X040107Y061102D01*
X040185Y061073D01*
X040262Y061040D01*
X040337Y061003D01*
X040410Y060964D01*
X040481Y060920D01*
X040550Y060874D01*
X040617Y060824D01*
X040681Y060771D01*
X040743Y060715D01*
X040802Y060656D01*
X040858Y060594D01*
X040911Y060530D01*
X040961Y060463D01*
X041007Y060394D01*
X041051Y060323D01*
X041090Y060250D01*
X041127Y060175D01*
X041160Y060098D01*
X041189Y060020D01*
X041214Y059941D01*
X041236Y059861D01*
X041253Y059779D01*
X041267Y059697D01*
X041277Y059614D01*
X041283Y059531D01*
X041285Y059448D01*
X041283Y059365D01*
X041277Y059282D01*
X041267Y059199D01*
X041253Y059117D01*
X041236Y059035D01*
X041214Y058955D01*
X041189Y058876D01*
X041160Y058798D01*
X041127Y058721D01*
X041090Y058646D01*
X041051Y058573D01*
X041007Y058502D01*
X040961Y058433D01*
X040911Y058366D01*
X040858Y058302D01*
X040802Y058240D01*
X040743Y058181D01*
X040681Y058125D01*
X040617Y058072D01*
X040550Y058022D01*
X040481Y057976D01*
X040410Y057932D01*
X040337Y057893D01*
X040262Y057856D01*
X040185Y057823D01*
X040107Y057794D01*
X040028Y057769D01*
X039948Y057747D01*
X039866Y057730D01*
X039784Y057716D01*
X039701Y057706D01*
X039618Y057700D01*
X039535Y057698D01*
X039452Y057700D01*
X039369Y057706D01*
X039286Y057716D01*
X039204Y057730D01*
X039122Y057747D01*
X039042Y057769D01*
X038963Y057794D01*
X038885Y057823D01*
X038808Y057856D01*
X038733Y057893D01*
X038660Y057932D01*
X038589Y057976D01*
X038520Y058022D01*
X038453Y058072D01*
X038389Y058125D01*
X038327Y058181D01*
X038268Y058240D01*
X038212Y058302D01*
X038159Y058366D01*
X038109Y058433D01*
X038063Y058502D01*
X038019Y058573D01*
X037980Y058646D01*
X037943Y058721D01*
X037910Y058798D01*
X037881Y058876D01*
X037856Y058955D01*
X037834Y059035D01*
X037817Y059117D01*
X037803Y059199D01*
X037793Y059282D01*
X037787Y059365D01*
X037785Y059448D01*
X039535Y059198D02*
X039535Y058998D01*
X040185Y060598D02*
X040185Y060898D01*
X040335Y060748D02*
X040035Y060748D01*
D13*
X011060Y082560D02*
X011060Y006760D01*
X011062Y006673D01*
X011068Y006586D01*
X011077Y006499D01*
X011090Y006413D01*
X011107Y006327D01*
X011128Y006242D01*
X011153Y006159D01*
X011181Y006076D01*
X011212Y005995D01*
X011247Y005915D01*
X011286Y005837D01*
X011328Y005760D01*
X011373Y005685D01*
X011422Y005613D01*
X011473Y005542D01*
X011528Y005474D01*
X011585Y005409D01*
X011646Y005346D01*
X011709Y005285D01*
X011774Y005228D01*
X011842Y005173D01*
X011913Y005122D01*
X011985Y005073D01*
X012060Y005028D01*
X012137Y004986D01*
X012215Y004947D01*
X012295Y004912D01*
X012376Y004881D01*
X012459Y004853D01*
X012542Y004828D01*
X012627Y004807D01*
X012713Y004790D01*
X012799Y004777D01*
X012886Y004768D01*
X012973Y004762D01*
X013060Y004760D01*
X072860Y004760D01*
X072947Y004762D01*
X073034Y004768D01*
X073121Y004777D01*
X073207Y004790D01*
X073293Y004807D01*
X073378Y004828D01*
X073461Y004853D01*
X073544Y004881D01*
X073625Y004912D01*
X073705Y004947D01*
X073783Y004986D01*
X073860Y005028D01*
X073935Y005073D01*
X074007Y005122D01*
X074078Y005173D01*
X074146Y005228D01*
X074211Y005285D01*
X074274Y005346D01*
X074335Y005409D01*
X074392Y005474D01*
X074447Y005542D01*
X074498Y005613D01*
X074547Y005685D01*
X074592Y005760D01*
X074634Y005837D01*
X074673Y005915D01*
X074708Y005995D01*
X074739Y006076D01*
X074767Y006159D01*
X074792Y006242D01*
X074813Y006327D01*
X074830Y006413D01*
X074843Y006499D01*
X074852Y006586D01*
X074858Y006673D01*
X074860Y006760D01*
X074860Y082560D01*
X074858Y082647D01*
X074852Y082734D01*
X074843Y082821D01*
X074830Y082907D01*
X074813Y082993D01*
X074792Y083078D01*
X074767Y083161D01*
X074739Y083244D01*
X074708Y083325D01*
X074673Y083405D01*
X074634Y083483D01*
X074592Y083560D01*
X074547Y083635D01*
X074498Y083707D01*
X074447Y083778D01*
X074392Y083846D01*
X074335Y083911D01*
X074274Y083974D01*
X074211Y084035D01*
X074146Y084092D01*
X074078Y084147D01*
X074007Y084198D01*
X073935Y084247D01*
X073860Y084292D01*
X073783Y084334D01*
X073705Y084373D01*
X073625Y084408D01*
X073544Y084439D01*
X073461Y084467D01*
X073378Y084492D01*
X073293Y084513D01*
X073207Y084530D01*
X073121Y084543D01*
X073034Y084552D01*
X072947Y084558D01*
X072860Y084560D01*
X013060Y084560D01*
X013610Y082810D02*
X013612Y082868D01*
X013618Y082926D01*
X013628Y082983D01*
X013642Y083039D01*
X013659Y083095D01*
X013680Y083149D01*
X013705Y083201D01*
X013734Y083252D01*
X013766Y083300D01*
X013801Y083346D01*
X013839Y083390D01*
X013880Y083431D01*
X013924Y083469D01*
X013970Y083504D01*
X014018Y083536D01*
X014069Y083565D01*
X014121Y083590D01*
X014175Y083611D01*
X014231Y083628D01*
X014287Y083642D01*
X014344Y083652D01*
X014402Y083658D01*
X014460Y083660D01*
X014518Y083658D01*
X014576Y083652D01*
X014633Y083642D01*
X014689Y083628D01*
X014745Y083611D01*
X014799Y083590D01*
X014851Y083565D01*
X014902Y083536D01*
X014950Y083504D01*
X014996Y083469D01*
X015040Y083431D01*
X015081Y083390D01*
X015119Y083346D01*
X015154Y083300D01*
X015186Y083252D01*
X015215Y083201D01*
X015240Y083149D01*
X015261Y083095D01*
X015278Y083039D01*
X015292Y082983D01*
X015302Y082926D01*
X015308Y082868D01*
X015310Y082810D01*
X015308Y082752D01*
X015302Y082694D01*
X015292Y082637D01*
X015278Y082581D01*
X015261Y082525D01*
X015240Y082471D01*
X015215Y082419D01*
X015186Y082368D01*
X015154Y082320D01*
X015119Y082274D01*
X015081Y082230D01*
X015040Y082189D01*
X014996Y082151D01*
X014950Y082116D01*
X014902Y082084D01*
X014851Y082055D01*
X014799Y082030D01*
X014745Y082009D01*
X014689Y081992D01*
X014633Y081978D01*
X014576Y081968D01*
X014518Y081962D01*
X014460Y081960D01*
X014402Y081962D01*
X014344Y081968D01*
X014287Y081978D01*
X014231Y081992D01*
X014175Y082009D01*
X014121Y082030D01*
X014069Y082055D01*
X014018Y082084D01*
X013970Y082116D01*
X013924Y082151D01*
X013880Y082189D01*
X013839Y082230D01*
X013801Y082274D01*
X013766Y082320D01*
X013734Y082368D01*
X013705Y082419D01*
X013680Y082471D01*
X013659Y082525D01*
X013642Y082581D01*
X013628Y082637D01*
X013618Y082694D01*
X013612Y082752D01*
X013610Y082810D01*
X013060Y084560D02*
X012973Y084558D01*
X012886Y084552D01*
X012799Y084543D01*
X012713Y084530D01*
X012627Y084513D01*
X012542Y084492D01*
X012459Y084467D01*
X012376Y084439D01*
X012295Y084408D01*
X012215Y084373D01*
X012137Y084334D01*
X012060Y084292D01*
X011985Y084247D01*
X011913Y084198D01*
X011842Y084147D01*
X011774Y084092D01*
X011709Y084035D01*
X011646Y083974D01*
X011585Y083911D01*
X011528Y083846D01*
X011473Y083778D01*
X011422Y083707D01*
X011373Y083635D01*
X011328Y083560D01*
X011286Y083483D01*
X011247Y083405D01*
X011212Y083325D01*
X011181Y083244D01*
X011153Y083161D01*
X011128Y083078D01*
X011107Y082993D01*
X011090Y082907D01*
X011077Y082821D01*
X011068Y082734D01*
X011062Y082647D01*
X011060Y082560D01*
X012510Y068998D02*
X012512Y069056D01*
X012518Y069114D01*
X012528Y069171D01*
X012542Y069227D01*
X012559Y069283D01*
X012580Y069337D01*
X012605Y069389D01*
X012634Y069440D01*
X012666Y069488D01*
X012701Y069534D01*
X012739Y069578D01*
X012780Y069619D01*
X012824Y069657D01*
X012870Y069692D01*
X012918Y069724D01*
X012969Y069753D01*
X013021Y069778D01*
X013075Y069799D01*
X013131Y069816D01*
X013187Y069830D01*
X013244Y069840D01*
X013302Y069846D01*
X013360Y069848D01*
X013418Y069846D01*
X013476Y069840D01*
X013533Y069830D01*
X013589Y069816D01*
X013645Y069799D01*
X013699Y069778D01*
X013751Y069753D01*
X013802Y069724D01*
X013850Y069692D01*
X013896Y069657D01*
X013940Y069619D01*
X013981Y069578D01*
X014019Y069534D01*
X014054Y069488D01*
X014086Y069440D01*
X014115Y069389D01*
X014140Y069337D01*
X014161Y069283D01*
X014178Y069227D01*
X014192Y069171D01*
X014202Y069114D01*
X014208Y069056D01*
X014210Y068998D01*
X014208Y068940D01*
X014202Y068882D01*
X014192Y068825D01*
X014178Y068769D01*
X014161Y068713D01*
X014140Y068659D01*
X014115Y068607D01*
X014086Y068556D01*
X014054Y068508D01*
X014019Y068462D01*
X013981Y068418D01*
X013940Y068377D01*
X013896Y068339D01*
X013850Y068304D01*
X013802Y068272D01*
X013751Y068243D01*
X013699Y068218D01*
X013645Y068197D01*
X013589Y068180D01*
X013533Y068166D01*
X013476Y068156D01*
X013418Y068150D01*
X013360Y068148D01*
X013302Y068150D01*
X013244Y068156D01*
X013187Y068166D01*
X013131Y068180D01*
X013075Y068197D01*
X013021Y068218D01*
X012969Y068243D01*
X012918Y068272D01*
X012870Y068304D01*
X012824Y068339D01*
X012780Y068377D01*
X012739Y068418D01*
X012701Y068462D01*
X012666Y068508D01*
X012634Y068556D01*
X012605Y068607D01*
X012580Y068659D01*
X012559Y068713D01*
X012542Y068769D01*
X012528Y068825D01*
X012518Y068882D01*
X012512Y068940D01*
X012510Y068998D01*
X012510Y062748D02*
X012512Y062806D01*
X012518Y062864D01*
X012528Y062921D01*
X012542Y062977D01*
X012559Y063033D01*
X012580Y063087D01*
X012605Y063139D01*
X012634Y063190D01*
X012666Y063238D01*
X012701Y063284D01*
X012739Y063328D01*
X012780Y063369D01*
X012824Y063407D01*
X012870Y063442D01*
X012918Y063474D01*
X012969Y063503D01*
X013021Y063528D01*
X013075Y063549D01*
X013131Y063566D01*
X013187Y063580D01*
X013244Y063590D01*
X013302Y063596D01*
X013360Y063598D01*
X013418Y063596D01*
X013476Y063590D01*
X013533Y063580D01*
X013589Y063566D01*
X013645Y063549D01*
X013699Y063528D01*
X013751Y063503D01*
X013802Y063474D01*
X013850Y063442D01*
X013896Y063407D01*
X013940Y063369D01*
X013981Y063328D01*
X014019Y063284D01*
X014054Y063238D01*
X014086Y063190D01*
X014115Y063139D01*
X014140Y063087D01*
X014161Y063033D01*
X014178Y062977D01*
X014192Y062921D01*
X014202Y062864D01*
X014208Y062806D01*
X014210Y062748D01*
X014208Y062690D01*
X014202Y062632D01*
X014192Y062575D01*
X014178Y062519D01*
X014161Y062463D01*
X014140Y062409D01*
X014115Y062357D01*
X014086Y062306D01*
X014054Y062258D01*
X014019Y062212D01*
X013981Y062168D01*
X013940Y062127D01*
X013896Y062089D01*
X013850Y062054D01*
X013802Y062022D01*
X013751Y061993D01*
X013699Y061968D01*
X013645Y061947D01*
X013589Y061930D01*
X013533Y061916D01*
X013476Y061906D01*
X013418Y061900D01*
X013360Y061898D01*
X013302Y061900D01*
X013244Y061906D01*
X013187Y061916D01*
X013131Y061930D01*
X013075Y061947D01*
X013021Y061968D01*
X012969Y061993D01*
X012918Y062022D01*
X012870Y062054D01*
X012824Y062089D01*
X012780Y062127D01*
X012739Y062168D01*
X012701Y062212D01*
X012666Y062258D01*
X012634Y062306D01*
X012605Y062357D01*
X012580Y062409D01*
X012559Y062463D01*
X012542Y062519D01*
X012528Y062575D01*
X012518Y062632D01*
X012512Y062690D01*
X012510Y062748D01*
X012510Y056498D02*
X012512Y056556D01*
X012518Y056614D01*
X012528Y056671D01*
X012542Y056727D01*
X012559Y056783D01*
X012580Y056837D01*
X012605Y056889D01*
X012634Y056940D01*
X012666Y056988D01*
X012701Y057034D01*
X012739Y057078D01*
X012780Y057119D01*
X012824Y057157D01*
X012870Y057192D01*
X012918Y057224D01*
X012969Y057253D01*
X013021Y057278D01*
X013075Y057299D01*
X013131Y057316D01*
X013187Y057330D01*
X013244Y057340D01*
X013302Y057346D01*
X013360Y057348D01*
X013418Y057346D01*
X013476Y057340D01*
X013533Y057330D01*
X013589Y057316D01*
X013645Y057299D01*
X013699Y057278D01*
X013751Y057253D01*
X013802Y057224D01*
X013850Y057192D01*
X013896Y057157D01*
X013940Y057119D01*
X013981Y057078D01*
X014019Y057034D01*
X014054Y056988D01*
X014086Y056940D01*
X014115Y056889D01*
X014140Y056837D01*
X014161Y056783D01*
X014178Y056727D01*
X014192Y056671D01*
X014202Y056614D01*
X014208Y056556D01*
X014210Y056498D01*
X014208Y056440D01*
X014202Y056382D01*
X014192Y056325D01*
X014178Y056269D01*
X014161Y056213D01*
X014140Y056159D01*
X014115Y056107D01*
X014086Y056056D01*
X014054Y056008D01*
X014019Y055962D01*
X013981Y055918D01*
X013940Y055877D01*
X013896Y055839D01*
X013850Y055804D01*
X013802Y055772D01*
X013751Y055743D01*
X013699Y055718D01*
X013645Y055697D01*
X013589Y055680D01*
X013533Y055666D01*
X013476Y055656D01*
X013418Y055650D01*
X013360Y055648D01*
X013302Y055650D01*
X013244Y055656D01*
X013187Y055666D01*
X013131Y055680D01*
X013075Y055697D01*
X013021Y055718D01*
X012969Y055743D01*
X012918Y055772D01*
X012870Y055804D01*
X012824Y055839D01*
X012780Y055877D01*
X012739Y055918D01*
X012701Y055962D01*
X012666Y056008D01*
X012634Y056056D01*
X012605Y056107D01*
X012580Y056159D01*
X012559Y056213D01*
X012542Y056269D01*
X012528Y056325D01*
X012518Y056382D01*
X012512Y056440D01*
X012510Y056498D01*
X012510Y050248D02*
X012512Y050306D01*
X012518Y050364D01*
X012528Y050421D01*
X012542Y050477D01*
X012559Y050533D01*
X012580Y050587D01*
X012605Y050639D01*
X012634Y050690D01*
X012666Y050738D01*
X012701Y050784D01*
X012739Y050828D01*
X012780Y050869D01*
X012824Y050907D01*
X012870Y050942D01*
X012918Y050974D01*
X012969Y051003D01*
X013021Y051028D01*
X013075Y051049D01*
X013131Y051066D01*
X013187Y051080D01*
X013244Y051090D01*
X013302Y051096D01*
X013360Y051098D01*
X013418Y051096D01*
X013476Y051090D01*
X013533Y051080D01*
X013589Y051066D01*
X013645Y051049D01*
X013699Y051028D01*
X013751Y051003D01*
X013802Y050974D01*
X013850Y050942D01*
X013896Y050907D01*
X013940Y050869D01*
X013981Y050828D01*
X014019Y050784D01*
X014054Y050738D01*
X014086Y050690D01*
X014115Y050639D01*
X014140Y050587D01*
X014161Y050533D01*
X014178Y050477D01*
X014192Y050421D01*
X014202Y050364D01*
X014208Y050306D01*
X014210Y050248D01*
X014208Y050190D01*
X014202Y050132D01*
X014192Y050075D01*
X014178Y050019D01*
X014161Y049963D01*
X014140Y049909D01*
X014115Y049857D01*
X014086Y049806D01*
X014054Y049758D01*
X014019Y049712D01*
X013981Y049668D01*
X013940Y049627D01*
X013896Y049589D01*
X013850Y049554D01*
X013802Y049522D01*
X013751Y049493D01*
X013699Y049468D01*
X013645Y049447D01*
X013589Y049430D01*
X013533Y049416D01*
X013476Y049406D01*
X013418Y049400D01*
X013360Y049398D01*
X013302Y049400D01*
X013244Y049406D01*
X013187Y049416D01*
X013131Y049430D01*
X013075Y049447D01*
X013021Y049468D01*
X012969Y049493D01*
X012918Y049522D01*
X012870Y049554D01*
X012824Y049589D01*
X012780Y049627D01*
X012739Y049668D01*
X012701Y049712D01*
X012666Y049758D01*
X012634Y049806D01*
X012605Y049857D01*
X012580Y049909D01*
X012559Y049963D01*
X012542Y050019D01*
X012528Y050075D01*
X012518Y050132D01*
X012512Y050190D01*
X012510Y050248D01*
X012510Y043998D02*
X012512Y044056D01*
X012518Y044114D01*
X012528Y044171D01*
X012542Y044227D01*
X012559Y044283D01*
X012580Y044337D01*
X012605Y044389D01*
X012634Y044440D01*
X012666Y044488D01*
X012701Y044534D01*
X012739Y044578D01*
X012780Y044619D01*
X012824Y044657D01*
X012870Y044692D01*
X012918Y044724D01*
X012969Y044753D01*
X013021Y044778D01*
X013075Y044799D01*
X013131Y044816D01*
X013187Y044830D01*
X013244Y044840D01*
X013302Y044846D01*
X013360Y044848D01*
X013418Y044846D01*
X013476Y044840D01*
X013533Y044830D01*
X013589Y044816D01*
X013645Y044799D01*
X013699Y044778D01*
X013751Y044753D01*
X013802Y044724D01*
X013850Y044692D01*
X013896Y044657D01*
X013940Y044619D01*
X013981Y044578D01*
X014019Y044534D01*
X014054Y044488D01*
X014086Y044440D01*
X014115Y044389D01*
X014140Y044337D01*
X014161Y044283D01*
X014178Y044227D01*
X014192Y044171D01*
X014202Y044114D01*
X014208Y044056D01*
X014210Y043998D01*
X014208Y043940D01*
X014202Y043882D01*
X014192Y043825D01*
X014178Y043769D01*
X014161Y043713D01*
X014140Y043659D01*
X014115Y043607D01*
X014086Y043556D01*
X014054Y043508D01*
X014019Y043462D01*
X013981Y043418D01*
X013940Y043377D01*
X013896Y043339D01*
X013850Y043304D01*
X013802Y043272D01*
X013751Y043243D01*
X013699Y043218D01*
X013645Y043197D01*
X013589Y043180D01*
X013533Y043166D01*
X013476Y043156D01*
X013418Y043150D01*
X013360Y043148D01*
X013302Y043150D01*
X013244Y043156D01*
X013187Y043166D01*
X013131Y043180D01*
X013075Y043197D01*
X013021Y043218D01*
X012969Y043243D01*
X012918Y043272D01*
X012870Y043304D01*
X012824Y043339D01*
X012780Y043377D01*
X012739Y043418D01*
X012701Y043462D01*
X012666Y043508D01*
X012634Y043556D01*
X012605Y043607D01*
X012580Y043659D01*
X012559Y043713D01*
X012542Y043769D01*
X012528Y043825D01*
X012518Y043882D01*
X012512Y043940D01*
X012510Y043998D01*
X012510Y037748D02*
X012512Y037806D01*
X012518Y037864D01*
X012528Y037921D01*
X012542Y037977D01*
X012559Y038033D01*
X012580Y038087D01*
X012605Y038139D01*
X012634Y038190D01*
X012666Y038238D01*
X012701Y038284D01*
X012739Y038328D01*
X012780Y038369D01*
X012824Y038407D01*
X012870Y038442D01*
X012918Y038474D01*
X012969Y038503D01*
X013021Y038528D01*
X013075Y038549D01*
X013131Y038566D01*
X013187Y038580D01*
X013244Y038590D01*
X013302Y038596D01*
X013360Y038598D01*
X013418Y038596D01*
X013476Y038590D01*
X013533Y038580D01*
X013589Y038566D01*
X013645Y038549D01*
X013699Y038528D01*
X013751Y038503D01*
X013802Y038474D01*
X013850Y038442D01*
X013896Y038407D01*
X013940Y038369D01*
X013981Y038328D01*
X014019Y038284D01*
X014054Y038238D01*
X014086Y038190D01*
X014115Y038139D01*
X014140Y038087D01*
X014161Y038033D01*
X014178Y037977D01*
X014192Y037921D01*
X014202Y037864D01*
X014208Y037806D01*
X014210Y037748D01*
X014208Y037690D01*
X014202Y037632D01*
X014192Y037575D01*
X014178Y037519D01*
X014161Y037463D01*
X014140Y037409D01*
X014115Y037357D01*
X014086Y037306D01*
X014054Y037258D01*
X014019Y037212D01*
X013981Y037168D01*
X013940Y037127D01*
X013896Y037089D01*
X013850Y037054D01*
X013802Y037022D01*
X013751Y036993D01*
X013699Y036968D01*
X013645Y036947D01*
X013589Y036930D01*
X013533Y036916D01*
X013476Y036906D01*
X013418Y036900D01*
X013360Y036898D01*
X013302Y036900D01*
X013244Y036906D01*
X013187Y036916D01*
X013131Y036930D01*
X013075Y036947D01*
X013021Y036968D01*
X012969Y036993D01*
X012918Y037022D01*
X012870Y037054D01*
X012824Y037089D01*
X012780Y037127D01*
X012739Y037168D01*
X012701Y037212D01*
X012666Y037258D01*
X012634Y037306D01*
X012605Y037357D01*
X012580Y037409D01*
X012559Y037463D01*
X012542Y037519D01*
X012528Y037575D01*
X012518Y037632D01*
X012512Y037690D01*
X012510Y037748D01*
X012510Y031498D02*
X012512Y031556D01*
X012518Y031614D01*
X012528Y031671D01*
X012542Y031727D01*
X012559Y031783D01*
X012580Y031837D01*
X012605Y031889D01*
X012634Y031940D01*
X012666Y031988D01*
X012701Y032034D01*
X012739Y032078D01*
X012780Y032119D01*
X012824Y032157D01*
X012870Y032192D01*
X012918Y032224D01*
X012969Y032253D01*
X013021Y032278D01*
X013075Y032299D01*
X013131Y032316D01*
X013187Y032330D01*
X013244Y032340D01*
X013302Y032346D01*
X013360Y032348D01*
X013418Y032346D01*
X013476Y032340D01*
X013533Y032330D01*
X013589Y032316D01*
X013645Y032299D01*
X013699Y032278D01*
X013751Y032253D01*
X013802Y032224D01*
X013850Y032192D01*
X013896Y032157D01*
X013940Y032119D01*
X013981Y032078D01*
X014019Y032034D01*
X014054Y031988D01*
X014086Y031940D01*
X014115Y031889D01*
X014140Y031837D01*
X014161Y031783D01*
X014178Y031727D01*
X014192Y031671D01*
X014202Y031614D01*
X014208Y031556D01*
X014210Y031498D01*
X014208Y031440D01*
X014202Y031382D01*
X014192Y031325D01*
X014178Y031269D01*
X014161Y031213D01*
X014140Y031159D01*
X014115Y031107D01*
X014086Y031056D01*
X014054Y031008D01*
X014019Y030962D01*
X013981Y030918D01*
X013940Y030877D01*
X013896Y030839D01*
X013850Y030804D01*
X013802Y030772D01*
X013751Y030743D01*
X013699Y030718D01*
X013645Y030697D01*
X013589Y030680D01*
X013533Y030666D01*
X013476Y030656D01*
X013418Y030650D01*
X013360Y030648D01*
X013302Y030650D01*
X013244Y030656D01*
X013187Y030666D01*
X013131Y030680D01*
X013075Y030697D01*
X013021Y030718D01*
X012969Y030743D01*
X012918Y030772D01*
X012870Y030804D01*
X012824Y030839D01*
X012780Y030877D01*
X012739Y030918D01*
X012701Y030962D01*
X012666Y031008D01*
X012634Y031056D01*
X012605Y031107D01*
X012580Y031159D01*
X012559Y031213D01*
X012542Y031269D01*
X012528Y031325D01*
X012518Y031382D01*
X012512Y031440D01*
X012510Y031498D01*
X012510Y025248D02*
X012512Y025306D01*
X012518Y025364D01*
X012528Y025421D01*
X012542Y025477D01*
X012559Y025533D01*
X012580Y025587D01*
X012605Y025639D01*
X012634Y025690D01*
X012666Y025738D01*
X012701Y025784D01*
X012739Y025828D01*
X012780Y025869D01*
X012824Y025907D01*
X012870Y025942D01*
X012918Y025974D01*
X012969Y026003D01*
X013021Y026028D01*
X013075Y026049D01*
X013131Y026066D01*
X013187Y026080D01*
X013244Y026090D01*
X013302Y026096D01*
X013360Y026098D01*
X013418Y026096D01*
X013476Y026090D01*
X013533Y026080D01*
X013589Y026066D01*
X013645Y026049D01*
X013699Y026028D01*
X013751Y026003D01*
X013802Y025974D01*
X013850Y025942D01*
X013896Y025907D01*
X013940Y025869D01*
X013981Y025828D01*
X014019Y025784D01*
X014054Y025738D01*
X014086Y025690D01*
X014115Y025639D01*
X014140Y025587D01*
X014161Y025533D01*
X014178Y025477D01*
X014192Y025421D01*
X014202Y025364D01*
X014208Y025306D01*
X014210Y025248D01*
X014208Y025190D01*
X014202Y025132D01*
X014192Y025075D01*
X014178Y025019D01*
X014161Y024963D01*
X014140Y024909D01*
X014115Y024857D01*
X014086Y024806D01*
X014054Y024758D01*
X014019Y024712D01*
X013981Y024668D01*
X013940Y024627D01*
X013896Y024589D01*
X013850Y024554D01*
X013802Y024522D01*
X013751Y024493D01*
X013699Y024468D01*
X013645Y024447D01*
X013589Y024430D01*
X013533Y024416D01*
X013476Y024406D01*
X013418Y024400D01*
X013360Y024398D01*
X013302Y024400D01*
X013244Y024406D01*
X013187Y024416D01*
X013131Y024430D01*
X013075Y024447D01*
X013021Y024468D01*
X012969Y024493D01*
X012918Y024522D01*
X012870Y024554D01*
X012824Y024589D01*
X012780Y024627D01*
X012739Y024668D01*
X012701Y024712D01*
X012666Y024758D01*
X012634Y024806D01*
X012605Y024857D01*
X012580Y024909D01*
X012559Y024963D01*
X012542Y025019D01*
X012528Y025075D01*
X012518Y025132D01*
X012512Y025190D01*
X012510Y025248D01*
X012510Y018998D02*
X012512Y019056D01*
X012518Y019114D01*
X012528Y019171D01*
X012542Y019227D01*
X012559Y019283D01*
X012580Y019337D01*
X012605Y019389D01*
X012634Y019440D01*
X012666Y019488D01*
X012701Y019534D01*
X012739Y019578D01*
X012780Y019619D01*
X012824Y019657D01*
X012870Y019692D01*
X012918Y019724D01*
X012969Y019753D01*
X013021Y019778D01*
X013075Y019799D01*
X013131Y019816D01*
X013187Y019830D01*
X013244Y019840D01*
X013302Y019846D01*
X013360Y019848D01*
X013418Y019846D01*
X013476Y019840D01*
X013533Y019830D01*
X013589Y019816D01*
X013645Y019799D01*
X013699Y019778D01*
X013751Y019753D01*
X013802Y019724D01*
X013850Y019692D01*
X013896Y019657D01*
X013940Y019619D01*
X013981Y019578D01*
X014019Y019534D01*
X014054Y019488D01*
X014086Y019440D01*
X014115Y019389D01*
X014140Y019337D01*
X014161Y019283D01*
X014178Y019227D01*
X014192Y019171D01*
X014202Y019114D01*
X014208Y019056D01*
X014210Y018998D01*
X014208Y018940D01*
X014202Y018882D01*
X014192Y018825D01*
X014178Y018769D01*
X014161Y018713D01*
X014140Y018659D01*
X014115Y018607D01*
X014086Y018556D01*
X014054Y018508D01*
X014019Y018462D01*
X013981Y018418D01*
X013940Y018377D01*
X013896Y018339D01*
X013850Y018304D01*
X013802Y018272D01*
X013751Y018243D01*
X013699Y018218D01*
X013645Y018197D01*
X013589Y018180D01*
X013533Y018166D01*
X013476Y018156D01*
X013418Y018150D01*
X013360Y018148D01*
X013302Y018150D01*
X013244Y018156D01*
X013187Y018166D01*
X013131Y018180D01*
X013075Y018197D01*
X013021Y018218D01*
X012969Y018243D01*
X012918Y018272D01*
X012870Y018304D01*
X012824Y018339D01*
X012780Y018377D01*
X012739Y018418D01*
X012701Y018462D01*
X012666Y018508D01*
X012634Y018556D01*
X012605Y018607D01*
X012580Y018659D01*
X012559Y018713D01*
X012542Y018769D01*
X012528Y018825D01*
X012518Y018882D01*
X012512Y018940D01*
X012510Y018998D01*
X012510Y012748D02*
X012512Y012806D01*
X012518Y012864D01*
X012528Y012921D01*
X012542Y012977D01*
X012559Y013033D01*
X012580Y013087D01*
X012605Y013139D01*
X012634Y013190D01*
X012666Y013238D01*
X012701Y013284D01*
X012739Y013328D01*
X012780Y013369D01*
X012824Y013407D01*
X012870Y013442D01*
X012918Y013474D01*
X012969Y013503D01*
X013021Y013528D01*
X013075Y013549D01*
X013131Y013566D01*
X013187Y013580D01*
X013244Y013590D01*
X013302Y013596D01*
X013360Y013598D01*
X013418Y013596D01*
X013476Y013590D01*
X013533Y013580D01*
X013589Y013566D01*
X013645Y013549D01*
X013699Y013528D01*
X013751Y013503D01*
X013802Y013474D01*
X013850Y013442D01*
X013896Y013407D01*
X013940Y013369D01*
X013981Y013328D01*
X014019Y013284D01*
X014054Y013238D01*
X014086Y013190D01*
X014115Y013139D01*
X014140Y013087D01*
X014161Y013033D01*
X014178Y012977D01*
X014192Y012921D01*
X014202Y012864D01*
X014208Y012806D01*
X014210Y012748D01*
X014208Y012690D01*
X014202Y012632D01*
X014192Y012575D01*
X014178Y012519D01*
X014161Y012463D01*
X014140Y012409D01*
X014115Y012357D01*
X014086Y012306D01*
X014054Y012258D01*
X014019Y012212D01*
X013981Y012168D01*
X013940Y012127D01*
X013896Y012089D01*
X013850Y012054D01*
X013802Y012022D01*
X013751Y011993D01*
X013699Y011968D01*
X013645Y011947D01*
X013589Y011930D01*
X013533Y011916D01*
X013476Y011906D01*
X013418Y011900D01*
X013360Y011898D01*
X013302Y011900D01*
X013244Y011906D01*
X013187Y011916D01*
X013131Y011930D01*
X013075Y011947D01*
X013021Y011968D01*
X012969Y011993D01*
X012918Y012022D01*
X012870Y012054D01*
X012824Y012089D01*
X012780Y012127D01*
X012739Y012168D01*
X012701Y012212D01*
X012666Y012258D01*
X012634Y012306D01*
X012605Y012357D01*
X012580Y012409D01*
X012559Y012463D01*
X012542Y012519D01*
X012528Y012575D01*
X012518Y012632D01*
X012512Y012690D01*
X012510Y012748D01*
X012510Y006498D02*
X012512Y006556D01*
X012518Y006614D01*
X012528Y006671D01*
X012542Y006727D01*
X012559Y006783D01*
X012580Y006837D01*
X012605Y006889D01*
X012634Y006940D01*
X012666Y006988D01*
X012701Y007034D01*
X012739Y007078D01*
X012780Y007119D01*
X012824Y007157D01*
X012870Y007192D01*
X012918Y007224D01*
X012969Y007253D01*
X013021Y007278D01*
X013075Y007299D01*
X013131Y007316D01*
X013187Y007330D01*
X013244Y007340D01*
X013302Y007346D01*
X013360Y007348D01*
X013418Y007346D01*
X013476Y007340D01*
X013533Y007330D01*
X013589Y007316D01*
X013645Y007299D01*
X013699Y007278D01*
X013751Y007253D01*
X013802Y007224D01*
X013850Y007192D01*
X013896Y007157D01*
X013940Y007119D01*
X013981Y007078D01*
X014019Y007034D01*
X014054Y006988D01*
X014086Y006940D01*
X014115Y006889D01*
X014140Y006837D01*
X014161Y006783D01*
X014178Y006727D01*
X014192Y006671D01*
X014202Y006614D01*
X014208Y006556D01*
X014210Y006498D01*
X014208Y006440D01*
X014202Y006382D01*
X014192Y006325D01*
X014178Y006269D01*
X014161Y006213D01*
X014140Y006159D01*
X014115Y006107D01*
X014086Y006056D01*
X014054Y006008D01*
X014019Y005962D01*
X013981Y005918D01*
X013940Y005877D01*
X013896Y005839D01*
X013850Y005804D01*
X013802Y005772D01*
X013751Y005743D01*
X013699Y005718D01*
X013645Y005697D01*
X013589Y005680D01*
X013533Y005666D01*
X013476Y005656D01*
X013418Y005650D01*
X013360Y005648D01*
X013302Y005650D01*
X013244Y005656D01*
X013187Y005666D01*
X013131Y005680D01*
X013075Y005697D01*
X013021Y005718D01*
X012969Y005743D01*
X012918Y005772D01*
X012870Y005804D01*
X012824Y005839D01*
X012780Y005877D01*
X012739Y005918D01*
X012701Y005962D01*
X012666Y006008D01*
X012634Y006056D01*
X012605Y006107D01*
X012580Y006159D01*
X012559Y006213D01*
X012542Y006269D01*
X012528Y006325D01*
X012518Y006382D01*
X012512Y006440D01*
X012510Y006498D01*
X062030Y070160D02*
X062032Y070210D01*
X062038Y070260D01*
X062048Y070309D01*
X062062Y070357D01*
X062079Y070404D01*
X062100Y070449D01*
X062125Y070493D01*
X062153Y070534D01*
X062185Y070573D01*
X062219Y070610D01*
X062256Y070644D01*
X062296Y070674D01*
X062338Y070701D01*
X062382Y070725D01*
X062428Y070746D01*
X062475Y070762D01*
X062523Y070775D01*
X062573Y070784D01*
X062622Y070789D01*
X062673Y070790D01*
X062723Y070787D01*
X062772Y070780D01*
X062821Y070769D01*
X062869Y070754D01*
X062915Y070736D01*
X062960Y070714D01*
X063003Y070688D01*
X063044Y070659D01*
X063083Y070627D01*
X063119Y070592D01*
X063151Y070554D01*
X063181Y070514D01*
X063208Y070471D01*
X063231Y070427D01*
X063250Y070381D01*
X063266Y070333D01*
X063278Y070284D01*
X063286Y070235D01*
X063290Y070185D01*
X063290Y070135D01*
X063286Y070085D01*
X063278Y070036D01*
X063266Y069987D01*
X063250Y069939D01*
X063231Y069893D01*
X063208Y069849D01*
X063181Y069806D01*
X063151Y069766D01*
X063119Y069728D01*
X063083Y069693D01*
X063044Y069661D01*
X063003Y069632D01*
X062960Y069606D01*
X062915Y069584D01*
X062869Y069566D01*
X062821Y069551D01*
X062772Y069540D01*
X062723Y069533D01*
X062673Y069530D01*
X062622Y069531D01*
X062573Y069536D01*
X062523Y069545D01*
X062475Y069558D01*
X062428Y069574D01*
X062382Y069595D01*
X062338Y069619D01*
X062296Y069646D01*
X062256Y069676D01*
X062219Y069710D01*
X062185Y069747D01*
X062153Y069786D01*
X062125Y069827D01*
X062100Y069871D01*
X062079Y069916D01*
X062062Y069963D01*
X062048Y070011D01*
X062038Y070060D01*
X062032Y070110D01*
X062030Y070160D01*
X057030Y082160D02*
X057032Y082210D01*
X057038Y082260D01*
X057048Y082309D01*
X057062Y082357D01*
X057079Y082404D01*
X057100Y082449D01*
X057125Y082493D01*
X057153Y082534D01*
X057185Y082573D01*
X057219Y082610D01*
X057256Y082644D01*
X057296Y082674D01*
X057338Y082701D01*
X057382Y082725D01*
X057428Y082746D01*
X057475Y082762D01*
X057523Y082775D01*
X057573Y082784D01*
X057622Y082789D01*
X057673Y082790D01*
X057723Y082787D01*
X057772Y082780D01*
X057821Y082769D01*
X057869Y082754D01*
X057915Y082736D01*
X057960Y082714D01*
X058003Y082688D01*
X058044Y082659D01*
X058083Y082627D01*
X058119Y082592D01*
X058151Y082554D01*
X058181Y082514D01*
X058208Y082471D01*
X058231Y082427D01*
X058250Y082381D01*
X058266Y082333D01*
X058278Y082284D01*
X058286Y082235D01*
X058290Y082185D01*
X058290Y082135D01*
X058286Y082085D01*
X058278Y082036D01*
X058266Y081987D01*
X058250Y081939D01*
X058231Y081893D01*
X058208Y081849D01*
X058181Y081806D01*
X058151Y081766D01*
X058119Y081728D01*
X058083Y081693D01*
X058044Y081661D01*
X058003Y081632D01*
X057960Y081606D01*
X057915Y081584D01*
X057869Y081566D01*
X057821Y081551D01*
X057772Y081540D01*
X057723Y081533D01*
X057673Y081530D01*
X057622Y081531D01*
X057573Y081536D01*
X057523Y081545D01*
X057475Y081558D01*
X057428Y081574D01*
X057382Y081595D01*
X057338Y081619D01*
X057296Y081646D01*
X057256Y081676D01*
X057219Y081710D01*
X057185Y081747D01*
X057153Y081786D01*
X057125Y081827D01*
X057100Y081871D01*
X057079Y081916D01*
X057062Y081963D01*
X057048Y082011D01*
X057038Y082060D01*
X057032Y082110D01*
X057030Y082160D01*
X071530Y044910D02*
X071532Y044960D01*
X071538Y045010D01*
X071548Y045059D01*
X071562Y045107D01*
X071579Y045154D01*
X071600Y045199D01*
X071625Y045243D01*
X071653Y045284D01*
X071685Y045323D01*
X071719Y045360D01*
X071756Y045394D01*
X071796Y045424D01*
X071838Y045451D01*
X071882Y045475D01*
X071928Y045496D01*
X071975Y045512D01*
X072023Y045525D01*
X072073Y045534D01*
X072122Y045539D01*
X072173Y045540D01*
X072223Y045537D01*
X072272Y045530D01*
X072321Y045519D01*
X072369Y045504D01*
X072415Y045486D01*
X072460Y045464D01*
X072503Y045438D01*
X072544Y045409D01*
X072583Y045377D01*
X072619Y045342D01*
X072651Y045304D01*
X072681Y045264D01*
X072708Y045221D01*
X072731Y045177D01*
X072750Y045131D01*
X072766Y045083D01*
X072778Y045034D01*
X072786Y044985D01*
X072790Y044935D01*
X072790Y044885D01*
X072786Y044835D01*
X072778Y044786D01*
X072766Y044737D01*
X072750Y044689D01*
X072731Y044643D01*
X072708Y044599D01*
X072681Y044556D01*
X072651Y044516D01*
X072619Y044478D01*
X072583Y044443D01*
X072544Y044411D01*
X072503Y044382D01*
X072460Y044356D01*
X072415Y044334D01*
X072369Y044316D01*
X072321Y044301D01*
X072272Y044290D01*
X072223Y044283D01*
X072173Y044280D01*
X072122Y044281D01*
X072073Y044286D01*
X072023Y044295D01*
X071975Y044308D01*
X071928Y044324D01*
X071882Y044345D01*
X071838Y044369D01*
X071796Y044396D01*
X071756Y044426D01*
X071719Y044460D01*
X071685Y044497D01*
X071653Y044536D01*
X071625Y044577D01*
X071600Y044621D01*
X071579Y044666D01*
X071562Y044713D01*
X071548Y044761D01*
X071538Y044810D01*
X071532Y044860D01*
X071530Y044910D01*
X071530Y040410D02*
X071532Y040460D01*
X071538Y040510D01*
X071548Y040559D01*
X071562Y040607D01*
X071579Y040654D01*
X071600Y040699D01*
X071625Y040743D01*
X071653Y040784D01*
X071685Y040823D01*
X071719Y040860D01*
X071756Y040894D01*
X071796Y040924D01*
X071838Y040951D01*
X071882Y040975D01*
X071928Y040996D01*
X071975Y041012D01*
X072023Y041025D01*
X072073Y041034D01*
X072122Y041039D01*
X072173Y041040D01*
X072223Y041037D01*
X072272Y041030D01*
X072321Y041019D01*
X072369Y041004D01*
X072415Y040986D01*
X072460Y040964D01*
X072503Y040938D01*
X072544Y040909D01*
X072583Y040877D01*
X072619Y040842D01*
X072651Y040804D01*
X072681Y040764D01*
X072708Y040721D01*
X072731Y040677D01*
X072750Y040631D01*
X072766Y040583D01*
X072778Y040534D01*
X072786Y040485D01*
X072790Y040435D01*
X072790Y040385D01*
X072786Y040335D01*
X072778Y040286D01*
X072766Y040237D01*
X072750Y040189D01*
X072731Y040143D01*
X072708Y040099D01*
X072681Y040056D01*
X072651Y040016D01*
X072619Y039978D01*
X072583Y039943D01*
X072544Y039911D01*
X072503Y039882D01*
X072460Y039856D01*
X072415Y039834D01*
X072369Y039816D01*
X072321Y039801D01*
X072272Y039790D01*
X072223Y039783D01*
X072173Y039780D01*
X072122Y039781D01*
X072073Y039786D01*
X072023Y039795D01*
X071975Y039808D01*
X071928Y039824D01*
X071882Y039845D01*
X071838Y039869D01*
X071796Y039896D01*
X071756Y039926D01*
X071719Y039960D01*
X071685Y039997D01*
X071653Y040036D01*
X071625Y040077D01*
X071600Y040121D01*
X071579Y040166D01*
X071562Y040213D01*
X071548Y040261D01*
X071538Y040310D01*
X071532Y040360D01*
X071530Y040410D01*
X070610Y006510D02*
X070612Y006568D01*
X070618Y006626D01*
X070628Y006683D01*
X070642Y006739D01*
X070659Y006795D01*
X070680Y006849D01*
X070705Y006901D01*
X070734Y006952D01*
X070766Y007000D01*
X070801Y007046D01*
X070839Y007090D01*
X070880Y007131D01*
X070924Y007169D01*
X070970Y007204D01*
X071018Y007236D01*
X071069Y007265D01*
X071121Y007290D01*
X071175Y007311D01*
X071231Y007328D01*
X071287Y007342D01*
X071344Y007352D01*
X071402Y007358D01*
X071460Y007360D01*
X071518Y007358D01*
X071576Y007352D01*
X071633Y007342D01*
X071689Y007328D01*
X071745Y007311D01*
X071799Y007290D01*
X071851Y007265D01*
X071902Y007236D01*
X071950Y007204D01*
X071996Y007169D01*
X072040Y007131D01*
X072081Y007090D01*
X072119Y007046D01*
X072154Y007000D01*
X072186Y006952D01*
X072215Y006901D01*
X072240Y006849D01*
X072261Y006795D01*
X072278Y006739D01*
X072292Y006683D01*
X072302Y006626D01*
X072308Y006568D01*
X072310Y006510D01*
X072308Y006452D01*
X072302Y006394D01*
X072292Y006337D01*
X072278Y006281D01*
X072261Y006225D01*
X072240Y006171D01*
X072215Y006119D01*
X072186Y006068D01*
X072154Y006020D01*
X072119Y005974D01*
X072081Y005930D01*
X072040Y005889D01*
X071996Y005851D01*
X071950Y005816D01*
X071902Y005784D01*
X071851Y005755D01*
X071799Y005730D01*
X071745Y005709D01*
X071689Y005692D01*
X071633Y005678D01*
X071576Y005668D01*
X071518Y005662D01*
X071460Y005660D01*
X071402Y005662D01*
X071344Y005668D01*
X071287Y005678D01*
X071231Y005692D01*
X071175Y005709D01*
X071121Y005730D01*
X071069Y005755D01*
X071018Y005784D01*
X070970Y005816D01*
X070924Y005851D01*
X070880Y005889D01*
X070839Y005930D01*
X070801Y005974D01*
X070766Y006020D01*
X070734Y006068D01*
X070705Y006119D01*
X070680Y006171D01*
X070659Y006225D01*
X070642Y006281D01*
X070628Y006337D01*
X070618Y006394D01*
X070612Y006452D01*
X070610Y006510D01*
D14*
X021705Y060878D02*
X021311Y060878D01*
X021115Y061075D01*
X021311Y061271D01*
X021705Y061271D01*
X021607Y061522D02*
X021705Y061621D01*
X021705Y061817D01*
X021607Y061916D01*
X021607Y061522D02*
X021508Y061522D01*
X021115Y061916D01*
X021115Y061522D01*
X021115Y062167D02*
X021115Y062560D01*
X021115Y062364D02*
X021705Y062364D01*
X021508Y062560D01*
X021410Y062811D02*
X021410Y063205D01*
X021607Y063008D02*
X021213Y063008D01*
X021311Y067122D02*
X021115Y067319D01*
X021311Y067516D01*
X021705Y067516D01*
X021705Y067767D02*
X021705Y068160D01*
X021410Y068160D01*
X021508Y067964D01*
X021508Y067865D01*
X021410Y067767D01*
X021213Y067767D01*
X021115Y067865D01*
X021115Y068062D01*
X021213Y068160D01*
X021410Y068411D02*
X021410Y068805D01*
X021607Y068608D02*
X021213Y068608D01*
X021311Y067122D02*
X021705Y067122D01*
X017805Y069221D02*
X017707Y069122D01*
X017313Y069122D01*
X017215Y069221D01*
X017215Y069516D01*
X017805Y069516D01*
X017805Y069221D01*
X017805Y069767D02*
X017215Y069767D01*
X017805Y070160D01*
X017215Y070160D01*
X017313Y070411D02*
X017510Y070411D01*
X017510Y070608D01*
X017707Y070411D02*
X017805Y070510D01*
X017805Y070707D01*
X017707Y070805D01*
X017313Y070805D01*
X017215Y070707D01*
X017215Y070510D01*
X017313Y070411D01*
D15*
X030535Y053585D02*
X031102Y053585D01*
X031385Y053301D01*
X031102Y053018D01*
X030535Y053018D01*
X030535Y052664D02*
X031102Y052097D01*
X031243Y052097D01*
X031385Y052239D01*
X031385Y052522D01*
X031243Y052664D01*
X030960Y053018D02*
X030960Y053585D01*
X030535Y052664D02*
X030535Y052097D01*
X030535Y047385D02*
X031102Y047385D01*
X031385Y047101D01*
X031102Y046818D01*
X030535Y046818D01*
X030535Y046464D02*
X030535Y045897D01*
X030535Y046181D02*
X031385Y046181D01*
X031102Y046464D01*
X030960Y046818D02*
X030960Y047385D01*
X030535Y041085D02*
X031385Y041085D01*
X031102Y040801D01*
X031385Y040518D01*
X030535Y040518D01*
X030676Y040164D02*
X030535Y040022D01*
X030535Y039739D01*
X030676Y039597D01*
X030818Y039597D01*
X030960Y039739D01*
X030960Y040164D01*
X030676Y040164D01*
X030960Y040164D02*
X031243Y039881D01*
X031385Y039597D01*
X031385Y034985D02*
X030535Y034985D01*
X030535Y034418D02*
X031385Y034418D01*
X031102Y034701D01*
X031385Y034985D01*
X031385Y034064D02*
X030960Y034064D01*
X031102Y033781D01*
X031102Y033639D01*
X030960Y033497D01*
X030676Y033497D01*
X030535Y033639D01*
X030535Y033922D01*
X030676Y034064D01*
X031385Y034064D02*
X031385Y033497D01*
X031385Y028785D02*
X030535Y028785D01*
X030535Y028218D02*
X031385Y028218D01*
X031102Y028501D01*
X031385Y028785D01*
X030960Y027864D02*
X030960Y027297D01*
X030535Y027439D02*
X031385Y027439D01*
X030960Y027864D01*
X030535Y022485D02*
X031385Y022485D01*
X031102Y022201D01*
X031385Y021918D01*
X030535Y021918D01*
X030676Y021564D02*
X030535Y021422D01*
X030535Y021139D01*
X030676Y020997D01*
X030818Y020997D01*
X030960Y021139D01*
X030960Y021281D01*
X030960Y021139D02*
X031102Y020997D01*
X031243Y020997D01*
X031385Y021139D01*
X031385Y021422D01*
X031243Y021564D01*
X031485Y016385D02*
X030635Y016385D01*
X030635Y015818D02*
X031485Y015818D01*
X031202Y016101D01*
X031485Y016385D01*
X031343Y015464D02*
X031485Y015322D01*
X031485Y015039D01*
X031343Y014897D01*
X031202Y014897D01*
X030635Y015464D01*
X030635Y014897D01*
X030535Y010185D02*
X031385Y010185D01*
X031102Y009901D01*
X031385Y009618D01*
X030535Y009618D01*
X030535Y009264D02*
X030535Y008697D01*
X030535Y008981D02*
X031385Y008981D01*
X031102Y009264D01*
X069326Y014701D02*
X069893Y014701D01*
X069610Y014985D02*
X069610Y014418D01*
X069610Y013143D02*
X069610Y012576D01*
D16*
X067910Y040235D02*
X067009Y040235D01*
X067009Y040686D01*
X067159Y040836D01*
X067459Y040836D01*
X067609Y040686D01*
X067609Y040235D01*
X067609Y040536D02*
X067910Y040836D01*
X067759Y041156D02*
X067910Y041306D01*
X067910Y041606D01*
X067759Y041757D01*
X067609Y041757D01*
X067459Y041606D01*
X067459Y041306D01*
X067309Y041156D01*
X067159Y041156D01*
X067009Y041306D01*
X067009Y041606D01*
X067159Y041757D01*
X067459Y042077D02*
X067459Y042677D01*
X067459Y042998D02*
X067459Y043598D01*
X067309Y043918D02*
X067159Y043918D01*
X067009Y044069D01*
X067009Y044369D01*
X067159Y044519D01*
X067309Y044519D01*
X067459Y044369D01*
X067459Y044069D01*
X067309Y043918D01*
X067459Y044069D02*
X067609Y043918D01*
X067759Y043918D01*
X067910Y044069D01*
X067910Y044369D01*
X067759Y044519D01*
X067609Y044519D01*
X067459Y044369D01*
X067459Y044839D02*
X067309Y045139D01*
X067309Y045290D01*
X067459Y045440D01*
X067759Y045440D01*
X067910Y045290D01*
X067910Y044989D01*
X067759Y044839D01*
X067459Y044839D02*
X067009Y044839D01*
X067009Y045440D01*
X067009Y043448D02*
X067459Y042998D01*
X067009Y043448D02*
X067910Y043448D01*
D17*
X063430Y044600D02*
X060991Y044600D01*
X060991Y042020D01*
X063430Y042020D01*
X053830Y042020D02*
X051391Y042020D01*
X051391Y044600D01*
X053830Y044600D01*
X068320Y061009D02*
X068635Y061009D01*
X068635Y061245D01*
X068635Y061875D02*
X068635Y062111D01*
X068320Y062111D01*
X068320Y062309D02*
X068635Y062309D01*
X068635Y062545D01*
X068635Y063175D02*
X068635Y063411D01*
X068320Y063411D01*
X070280Y063313D02*
X070595Y063313D01*
X070595Y063195D01*
X070595Y062565D02*
X070595Y062447D01*
X070280Y062447D01*
X026951Y056912D02*
X026951Y054908D01*
X026754Y053960D01*
X026471Y053960D01*
X026471Y057960D01*
X026754Y057960D01*
X026951Y056912D01*
X026951Y056884D02*
X026471Y056884D01*
X026471Y056806D02*
X026951Y056806D01*
X026951Y056727D02*
X026471Y056727D01*
X026471Y056649D02*
X026951Y056649D01*
X026951Y056570D02*
X026471Y056570D01*
X026471Y056492D02*
X026951Y056492D01*
X026951Y056413D02*
X026471Y056413D01*
X026471Y056335D02*
X026951Y056335D01*
X026951Y056256D02*
X026471Y056256D01*
X026471Y056178D02*
X026951Y056178D01*
X026951Y056099D02*
X026471Y056099D01*
X026471Y056021D02*
X026951Y056021D01*
X026951Y055942D02*
X026471Y055942D01*
X026471Y055864D02*
X026951Y055864D01*
X026951Y055785D02*
X026471Y055785D01*
X026471Y055707D02*
X026951Y055707D01*
X026951Y055628D02*
X026471Y055628D01*
X026471Y055550D02*
X026951Y055550D01*
X026951Y055471D02*
X026471Y055471D01*
X026471Y055393D02*
X026951Y055393D01*
X026951Y055314D02*
X026471Y055314D01*
X026471Y055236D02*
X026951Y055236D01*
X026951Y055157D02*
X026471Y055157D01*
X026471Y055079D02*
X026951Y055079D01*
X026951Y055000D02*
X026471Y055000D01*
X026471Y054922D02*
X026951Y054922D01*
X026938Y054843D02*
X026471Y054843D01*
X026471Y054765D02*
X026921Y054765D01*
X026905Y054686D02*
X026471Y054686D01*
X026471Y054608D02*
X026889Y054608D01*
X026872Y054529D02*
X026471Y054529D01*
X026471Y054451D02*
X026856Y054451D01*
X026840Y054372D02*
X026471Y054372D01*
X026471Y054294D02*
X026823Y054294D01*
X026807Y054215D02*
X026471Y054215D01*
X026471Y054137D02*
X026790Y054137D01*
X026774Y054058D02*
X026471Y054058D01*
X026471Y053980D02*
X026758Y053980D01*
X026461Y053960D02*
X022858Y053960D01*
X022860Y053960D02*
X023410Y053960D01*
X022860Y053960D02*
X022860Y057960D01*
X023410Y057960D01*
X022858Y057960D02*
X026461Y057960D01*
X026471Y057905D02*
X026764Y057905D01*
X026779Y057826D02*
X026471Y057826D01*
X026471Y057748D02*
X026794Y057748D01*
X026808Y057669D02*
X026471Y057669D01*
X026471Y057591D02*
X026823Y057591D01*
X026838Y057512D02*
X026471Y057512D01*
X026471Y057434D02*
X026853Y057434D01*
X026868Y057355D02*
X026471Y057355D01*
X026471Y057277D02*
X026883Y057277D01*
X026897Y057198D02*
X026471Y057198D01*
X026471Y057120D02*
X026912Y057120D01*
X026927Y057041D02*
X026471Y057041D01*
X026471Y056963D02*
X026942Y056963D01*
X026004Y053154D02*
X026004Y052366D01*
X025453Y052366D01*
X025178Y052484D02*
X025178Y052760D01*
X024941Y052524D01*
X024941Y052996D01*
X025178Y052760D01*
X025178Y053036D01*
X025453Y053154D02*
X026004Y053154D01*
X024666Y053154D02*
X024115Y053154D01*
X024115Y052366D01*
X024666Y052366D01*
X023410Y051660D02*
X022860Y051660D01*
X022860Y047660D01*
X023410Y047660D01*
X022858Y047660D02*
X026461Y047660D01*
X026471Y047660D02*
X026471Y051660D01*
X026754Y051660D01*
X026951Y050612D01*
X026951Y048608D01*
X026754Y047660D01*
X026471Y047660D01*
X026471Y047700D02*
X026762Y047700D01*
X026778Y047778D02*
X026471Y047778D01*
X026471Y047857D02*
X026795Y047857D01*
X026811Y047935D02*
X026471Y047935D01*
X026471Y048014D02*
X026827Y048014D01*
X026844Y048092D02*
X026471Y048092D01*
X026471Y048171D02*
X026860Y048171D01*
X026876Y048249D02*
X026471Y048249D01*
X026471Y048328D02*
X026893Y048328D01*
X026909Y048406D02*
X026471Y048406D01*
X026471Y048485D02*
X026926Y048485D01*
X026942Y048563D02*
X026471Y048563D01*
X026471Y048642D02*
X026951Y048642D01*
X026951Y048720D02*
X026471Y048720D01*
X026471Y048799D02*
X026951Y048799D01*
X026951Y048877D02*
X026471Y048877D01*
X026471Y048956D02*
X026951Y048956D01*
X026951Y049034D02*
X026471Y049034D01*
X026471Y049113D02*
X026951Y049113D01*
X026951Y049191D02*
X026471Y049191D01*
X026471Y049270D02*
X026951Y049270D01*
X026951Y049348D02*
X026471Y049348D01*
X026471Y049427D02*
X026951Y049427D01*
X026951Y049505D02*
X026471Y049505D01*
X026471Y049584D02*
X026951Y049584D01*
X026951Y049662D02*
X026471Y049662D01*
X026471Y049741D02*
X026951Y049741D01*
X026951Y049819D02*
X026471Y049819D01*
X026471Y049898D02*
X026951Y049898D01*
X026951Y049976D02*
X026471Y049976D01*
X026471Y050055D02*
X026951Y050055D01*
X026951Y050133D02*
X026471Y050133D01*
X026471Y050212D02*
X026951Y050212D01*
X026951Y050290D02*
X026471Y050290D01*
X026471Y050369D02*
X026951Y050369D01*
X026951Y050447D02*
X026471Y050447D01*
X026471Y050526D02*
X026951Y050526D01*
X026951Y050604D02*
X026471Y050604D01*
X026471Y050683D02*
X026938Y050683D01*
X026923Y050761D02*
X026471Y050761D01*
X026471Y050840D02*
X026908Y050840D01*
X026894Y050918D02*
X026471Y050918D01*
X026471Y050997D02*
X026879Y050997D01*
X026864Y051075D02*
X026471Y051075D01*
X026471Y051154D02*
X026849Y051154D01*
X026834Y051232D02*
X026471Y051232D01*
X026471Y051311D02*
X026820Y051311D01*
X026805Y051389D02*
X026471Y051389D01*
X026471Y051468D02*
X026790Y051468D01*
X026775Y051546D02*
X026471Y051546D01*
X026471Y051625D02*
X026760Y051625D01*
X026461Y051660D02*
X022858Y051660D01*
X024115Y046954D02*
X024115Y046166D01*
X024666Y046166D01*
X024941Y046324D02*
X025178Y046560D01*
X024941Y046796D01*
X024941Y046324D01*
X025178Y046284D02*
X025178Y046560D01*
X025178Y046836D01*
X025453Y046954D02*
X026004Y046954D01*
X026004Y046166D01*
X025453Y046166D01*
X024666Y046954D02*
X024115Y046954D01*
X023410Y045460D02*
X022860Y045460D01*
X022860Y041460D01*
X023410Y041460D01*
X022858Y041460D02*
X026461Y041460D01*
X026471Y041460D02*
X026471Y045460D01*
X026754Y045460D01*
X026951Y044412D01*
X026951Y042408D01*
X026754Y041460D01*
X026471Y041460D01*
X026471Y041498D02*
X026762Y041498D01*
X026778Y041577D02*
X026471Y041577D01*
X026471Y041655D02*
X026794Y041655D01*
X026811Y041734D02*
X026471Y041734D01*
X026471Y041812D02*
X026827Y041812D01*
X026843Y041891D02*
X026471Y041891D01*
X026471Y041969D02*
X026860Y041969D01*
X026876Y042048D02*
X026471Y042048D01*
X026471Y042126D02*
X026893Y042126D01*
X026909Y042205D02*
X026471Y042205D01*
X026471Y042283D02*
X026925Y042283D01*
X026942Y042362D02*
X026471Y042362D01*
X026471Y042440D02*
X026951Y042440D01*
X026951Y042519D02*
X026471Y042519D01*
X026471Y042597D02*
X026951Y042597D01*
X026951Y042676D02*
X026471Y042676D01*
X026471Y042754D02*
X026951Y042754D01*
X026951Y042833D02*
X026471Y042833D01*
X026471Y042911D02*
X026951Y042911D01*
X026951Y042990D02*
X026471Y042990D01*
X026471Y043068D02*
X026951Y043068D01*
X026951Y043147D02*
X026471Y043147D01*
X026471Y043225D02*
X026951Y043225D01*
X026951Y043304D02*
X026471Y043304D01*
X026471Y043382D02*
X026951Y043382D01*
X026951Y043461D02*
X026471Y043461D01*
X026471Y043539D02*
X026951Y043539D01*
X026951Y043618D02*
X026471Y043618D01*
X026471Y043696D02*
X026951Y043696D01*
X026951Y043775D02*
X026471Y043775D01*
X026471Y043853D02*
X026951Y043853D01*
X026951Y043932D02*
X026471Y043932D01*
X026471Y044010D02*
X026951Y044010D01*
X026951Y044089D02*
X026471Y044089D01*
X026471Y044167D02*
X026951Y044167D01*
X026951Y044246D02*
X026471Y044246D01*
X026471Y044324D02*
X026951Y044324D01*
X026951Y044403D02*
X026471Y044403D01*
X026471Y044481D02*
X026938Y044481D01*
X026923Y044560D02*
X026471Y044560D01*
X026471Y044638D02*
X026909Y044638D01*
X026894Y044717D02*
X026471Y044717D01*
X026471Y044795D02*
X026879Y044795D01*
X026864Y044874D02*
X026471Y044874D01*
X026471Y044952D02*
X026849Y044952D01*
X026835Y045031D02*
X026471Y045031D01*
X026471Y045109D02*
X026820Y045109D01*
X026805Y045188D02*
X026471Y045188D01*
X026471Y045266D02*
X026790Y045266D01*
X026775Y045345D02*
X026471Y045345D01*
X026471Y045423D02*
X026761Y045423D01*
X026461Y045460D02*
X022858Y045460D01*
X024115Y040754D02*
X024115Y039966D01*
X024666Y039966D01*
X024941Y040124D02*
X025178Y040360D01*
X024941Y040596D01*
X024941Y040124D01*
X025178Y040084D02*
X025178Y040360D01*
X025178Y040636D01*
X025453Y040754D02*
X026004Y040754D01*
X026004Y039966D01*
X025453Y039966D01*
X024666Y040754D02*
X024115Y040754D01*
X023410Y039160D02*
X022860Y039160D01*
X022860Y035160D01*
X023410Y035160D01*
X022858Y035160D02*
X026461Y035160D01*
X026471Y035160D02*
X026471Y039160D01*
X026754Y039160D01*
X026951Y038112D01*
X026951Y036108D01*
X026754Y035160D01*
X026471Y035160D01*
X026471Y035218D02*
X026766Y035218D01*
X026782Y035297D02*
X026471Y035297D01*
X026471Y035375D02*
X026798Y035375D01*
X026815Y035454D02*
X026471Y035454D01*
X026471Y035532D02*
X026831Y035532D01*
X026848Y035611D02*
X026471Y035611D01*
X026471Y035689D02*
X026864Y035689D01*
X026880Y035768D02*
X026471Y035768D01*
X026471Y035846D02*
X026897Y035846D01*
X026913Y035925D02*
X026471Y035925D01*
X026471Y036003D02*
X026929Y036003D01*
X026946Y036082D02*
X026471Y036082D01*
X026471Y036160D02*
X026951Y036160D01*
X026951Y036239D02*
X026471Y036239D01*
X026471Y036317D02*
X026951Y036317D01*
X026951Y036396D02*
X026471Y036396D01*
X026471Y036474D02*
X026951Y036474D01*
X026951Y036553D02*
X026471Y036553D01*
X026471Y036631D02*
X026951Y036631D01*
X026951Y036710D02*
X026471Y036710D01*
X026471Y036788D02*
X026951Y036788D01*
X026951Y036867D02*
X026471Y036867D01*
X026471Y036945D02*
X026951Y036945D01*
X026951Y037024D02*
X026471Y037024D01*
X026471Y037102D02*
X026951Y037102D01*
X026951Y037181D02*
X026471Y037181D01*
X026471Y037259D02*
X026951Y037259D01*
X026951Y037338D02*
X026471Y037338D01*
X026471Y037416D02*
X026951Y037416D01*
X026951Y037495D02*
X026471Y037495D01*
X026471Y037573D02*
X026951Y037573D01*
X026951Y037652D02*
X026471Y037652D01*
X026471Y037730D02*
X026951Y037730D01*
X026951Y037809D02*
X026471Y037809D01*
X026471Y037887D02*
X026951Y037887D01*
X026951Y037966D02*
X026471Y037966D01*
X026471Y038044D02*
X026951Y038044D01*
X026949Y038123D02*
X026471Y038123D01*
X026471Y038201D02*
X026935Y038201D01*
X026920Y038280D02*
X026471Y038280D01*
X026471Y038358D02*
X026905Y038358D01*
X026890Y038437D02*
X026471Y038437D01*
X026471Y038515D02*
X026875Y038515D01*
X026860Y038594D02*
X026471Y038594D01*
X026471Y038672D02*
X026846Y038672D01*
X026831Y038751D02*
X026471Y038751D01*
X026471Y038829D02*
X026816Y038829D01*
X026801Y038908D02*
X026471Y038908D01*
X026471Y038986D02*
X026786Y038986D01*
X026772Y039065D02*
X026471Y039065D01*
X026471Y039143D02*
X026757Y039143D01*
X026461Y039160D02*
X022858Y039160D01*
X024115Y034554D02*
X024115Y033766D01*
X024666Y033766D01*
X024941Y033924D02*
X025178Y034160D01*
X024941Y034396D01*
X024941Y033924D01*
X025178Y033884D02*
X025178Y034160D01*
X025178Y034436D01*
X025453Y034554D02*
X026004Y034554D01*
X026004Y033766D01*
X025453Y033766D01*
X024666Y034554D02*
X024115Y034554D01*
X023410Y032960D02*
X022860Y032960D01*
X022860Y028960D01*
X023410Y028960D01*
X022858Y028960D02*
X026461Y028960D01*
X026471Y028960D02*
X026471Y032960D01*
X026754Y032960D01*
X026951Y031912D01*
X026951Y029908D01*
X026754Y028960D01*
X026471Y028960D01*
X026471Y029017D02*
X026765Y029017D01*
X026782Y029095D02*
X026471Y029095D01*
X026471Y029174D02*
X026798Y029174D01*
X026815Y029252D02*
X026471Y029252D01*
X026471Y029331D02*
X026831Y029331D01*
X026847Y029409D02*
X026471Y029409D01*
X026471Y029488D02*
X026864Y029488D01*
X026880Y029566D02*
X026471Y029566D01*
X026471Y029645D02*
X026896Y029645D01*
X026913Y029723D02*
X026471Y029723D01*
X026471Y029802D02*
X026929Y029802D01*
X026945Y029880D02*
X026471Y029880D01*
X026471Y029959D02*
X026951Y029959D01*
X026951Y030037D02*
X026471Y030037D01*
X026471Y030116D02*
X026951Y030116D01*
X026951Y030194D02*
X026471Y030194D01*
X026471Y030273D02*
X026951Y030273D01*
X026951Y030351D02*
X026471Y030351D01*
X026471Y030430D02*
X026951Y030430D01*
X026951Y030508D02*
X026471Y030508D01*
X026471Y030587D02*
X026951Y030587D01*
X026951Y030665D02*
X026471Y030665D01*
X026471Y030744D02*
X026951Y030744D01*
X026951Y030822D02*
X026471Y030822D01*
X026471Y030901D02*
X026951Y030901D01*
X026951Y030979D02*
X026471Y030979D01*
X026471Y031058D02*
X026951Y031058D01*
X026951Y031136D02*
X026471Y031136D01*
X026471Y031215D02*
X026951Y031215D01*
X026951Y031293D02*
X026471Y031293D01*
X026471Y031372D02*
X026951Y031372D01*
X026951Y031450D02*
X026471Y031450D01*
X026471Y031529D02*
X026951Y031529D01*
X026951Y031607D02*
X026471Y031607D01*
X026471Y031686D02*
X026951Y031686D01*
X026951Y031764D02*
X026471Y031764D01*
X026471Y031843D02*
X026951Y031843D01*
X026950Y031921D02*
X026471Y031921D01*
X026471Y032000D02*
X026935Y032000D01*
X026920Y032078D02*
X026471Y032078D01*
X026471Y032157D02*
X026905Y032157D01*
X026890Y032235D02*
X026471Y032235D01*
X026471Y032314D02*
X026876Y032314D01*
X026861Y032392D02*
X026471Y032392D01*
X026471Y032471D02*
X026846Y032471D01*
X026831Y032549D02*
X026471Y032549D01*
X026471Y032628D02*
X026816Y032628D01*
X026802Y032706D02*
X026471Y032706D01*
X026471Y032785D02*
X026787Y032785D01*
X026772Y032863D02*
X026471Y032863D01*
X026471Y032942D02*
X026757Y032942D01*
X026461Y032960D02*
X022858Y032960D01*
X024115Y028354D02*
X024115Y027566D01*
X024666Y027566D01*
X024941Y027724D02*
X025178Y027960D01*
X024941Y028196D01*
X024941Y027724D01*
X025178Y027684D02*
X025178Y027960D01*
X025178Y028236D01*
X025453Y028354D02*
X026004Y028354D01*
X026004Y027566D01*
X025453Y027566D01*
X024666Y028354D02*
X024115Y028354D01*
X023410Y026760D02*
X022860Y026760D01*
X022860Y022760D01*
X023410Y022760D01*
X022858Y022760D02*
X026461Y022760D01*
X026471Y022760D02*
X026471Y026760D01*
X026754Y026760D01*
X026951Y025712D01*
X026951Y023708D01*
X026754Y022760D01*
X026471Y022760D01*
X026471Y022815D02*
X026765Y022815D01*
X026781Y022894D02*
X026471Y022894D01*
X026471Y022972D02*
X026798Y022972D01*
X026814Y023051D02*
X026471Y023051D01*
X026471Y023129D02*
X026831Y023129D01*
X026847Y023208D02*
X026471Y023208D01*
X026471Y023286D02*
X026863Y023286D01*
X026880Y023365D02*
X026471Y023365D01*
X026471Y023443D02*
X026896Y023443D01*
X026912Y023522D02*
X026471Y023522D01*
X026471Y023600D02*
X026929Y023600D01*
X026945Y023679D02*
X026471Y023679D01*
X026471Y023757D02*
X026951Y023757D01*
X026951Y023836D02*
X026471Y023836D01*
X026471Y023914D02*
X026951Y023914D01*
X026951Y023993D02*
X026471Y023993D01*
X026471Y024071D02*
X026951Y024071D01*
X026951Y024150D02*
X026471Y024150D01*
X026471Y024228D02*
X026951Y024228D01*
X026951Y024307D02*
X026471Y024307D01*
X026471Y024385D02*
X026951Y024385D01*
X026951Y024464D02*
X026471Y024464D01*
X026471Y024542D02*
X026951Y024542D01*
X026951Y024621D02*
X026471Y024621D01*
X026471Y024699D02*
X026951Y024699D01*
X026951Y024778D02*
X026471Y024778D01*
X026471Y024856D02*
X026951Y024856D01*
X026951Y024935D02*
X026471Y024935D01*
X026471Y025013D02*
X026951Y025013D01*
X026951Y025092D02*
X026471Y025092D01*
X026471Y025170D02*
X026951Y025170D01*
X026951Y025249D02*
X026471Y025249D01*
X026471Y025327D02*
X026951Y025327D01*
X026951Y025406D02*
X026471Y025406D01*
X026471Y025484D02*
X026951Y025484D01*
X026951Y025563D02*
X026471Y025563D01*
X026471Y025641D02*
X026951Y025641D01*
X026950Y025720D02*
X026471Y025720D01*
X026471Y025798D02*
X026935Y025798D01*
X026920Y025877D02*
X026471Y025877D01*
X026471Y025955D02*
X026905Y025955D01*
X026891Y026034D02*
X026471Y026034D01*
X026471Y026112D02*
X026876Y026112D01*
X026861Y026191D02*
X026471Y026191D01*
X026471Y026269D02*
X026846Y026269D01*
X026831Y026348D02*
X026471Y026348D01*
X026471Y026426D02*
X026817Y026426D01*
X026802Y026505D02*
X026471Y026505D01*
X026471Y026583D02*
X026787Y026583D01*
X026772Y026662D02*
X026471Y026662D01*
X026471Y026740D02*
X026757Y026740D01*
X026461Y026760D02*
X022858Y026760D01*
X024115Y022154D02*
X024115Y021366D01*
X024666Y021366D01*
X024941Y021524D02*
X025178Y021760D01*
X024941Y021996D01*
X024941Y021524D01*
X025178Y021484D02*
X025178Y021760D01*
X025178Y022036D01*
X025453Y022154D02*
X026004Y022154D01*
X026004Y021366D01*
X025453Y021366D01*
X024666Y022154D02*
X024115Y022154D01*
X023410Y020560D02*
X022860Y020560D01*
X022860Y016560D01*
X023410Y016560D01*
X022858Y016560D02*
X026461Y016560D01*
X026471Y016560D02*
X026471Y020560D01*
X026754Y020560D01*
X026951Y019512D01*
X026951Y017508D01*
X026754Y016560D01*
X026471Y016560D01*
X026471Y016614D02*
X026765Y016614D01*
X026781Y016692D02*
X026471Y016692D01*
X026471Y016771D02*
X026798Y016771D01*
X026814Y016849D02*
X026471Y016849D01*
X026471Y016928D02*
X026830Y016928D01*
X026847Y017006D02*
X026471Y017006D01*
X026471Y017085D02*
X026863Y017085D01*
X026879Y017163D02*
X026471Y017163D01*
X026471Y017242D02*
X026896Y017242D01*
X026912Y017320D02*
X026471Y017320D01*
X026471Y017399D02*
X026928Y017399D01*
X026945Y017477D02*
X026471Y017477D01*
X026471Y017556D02*
X026951Y017556D01*
X026951Y017634D02*
X026471Y017634D01*
X026471Y017713D02*
X026951Y017713D01*
X026951Y017791D02*
X026471Y017791D01*
X026471Y017870D02*
X026951Y017870D01*
X026951Y017948D02*
X026471Y017948D01*
X026471Y018027D02*
X026951Y018027D01*
X026951Y018105D02*
X026471Y018105D01*
X026471Y018184D02*
X026951Y018184D01*
X026951Y018262D02*
X026471Y018262D01*
X026471Y018341D02*
X026951Y018341D01*
X026951Y018419D02*
X026471Y018419D01*
X026471Y018498D02*
X026951Y018498D01*
X026951Y018576D02*
X026471Y018576D01*
X026471Y018655D02*
X026951Y018655D01*
X026951Y018733D02*
X026471Y018733D01*
X026471Y018812D02*
X026951Y018812D01*
X026951Y018890D02*
X026471Y018890D01*
X026471Y018969D02*
X026951Y018969D01*
X026951Y019047D02*
X026471Y019047D01*
X026471Y019126D02*
X026951Y019126D01*
X026951Y019204D02*
X026471Y019204D01*
X026471Y019283D02*
X026951Y019283D01*
X026951Y019361D02*
X026471Y019361D01*
X026471Y019440D02*
X026951Y019440D01*
X026950Y019518D02*
X026471Y019518D01*
X026471Y019597D02*
X026935Y019597D01*
X026921Y019675D02*
X026471Y019675D01*
X026471Y019754D02*
X026906Y019754D01*
X026891Y019832D02*
X026471Y019832D01*
X026471Y019911D02*
X026876Y019911D01*
X026861Y019989D02*
X026471Y019989D01*
X026471Y020068D02*
X026847Y020068D01*
X026832Y020146D02*
X026471Y020146D01*
X026471Y020225D02*
X026817Y020225D01*
X026802Y020303D02*
X026471Y020303D01*
X026471Y020382D02*
X026787Y020382D01*
X026772Y020460D02*
X026471Y020460D01*
X026471Y020539D02*
X026758Y020539D01*
X026461Y020560D02*
X022858Y020560D01*
X024115Y015954D02*
X024115Y015166D01*
X024666Y015166D01*
X024941Y015324D02*
X025178Y015560D01*
X024941Y015796D01*
X024941Y015324D01*
X025178Y015284D02*
X025178Y015560D01*
X025178Y015836D01*
X025453Y015954D02*
X026004Y015954D01*
X026004Y015166D01*
X025453Y015166D01*
X024666Y015954D02*
X024115Y015954D01*
X023410Y014360D02*
X022860Y014360D01*
X022860Y010360D01*
X023410Y010360D01*
X022858Y010360D02*
X026461Y010360D01*
X026471Y010360D02*
X026471Y014360D01*
X026754Y014360D01*
X026951Y013312D01*
X026951Y011308D01*
X026754Y010360D01*
X026471Y010360D01*
X026471Y010412D02*
X026764Y010412D01*
X026781Y010491D02*
X026471Y010491D01*
X026471Y010569D02*
X026797Y010569D01*
X026814Y010648D02*
X026471Y010648D01*
X026471Y010726D02*
X026830Y010726D01*
X026846Y010805D02*
X026471Y010805D01*
X026471Y010883D02*
X026863Y010883D01*
X026879Y010962D02*
X026471Y010962D01*
X026471Y011040D02*
X026895Y011040D01*
X026912Y011119D02*
X026471Y011119D01*
X026471Y011197D02*
X026928Y011197D01*
X026945Y011276D02*
X026471Y011276D01*
X026471Y011354D02*
X026951Y011354D01*
X026951Y011433D02*
X026471Y011433D01*
X026471Y011511D02*
X026951Y011511D01*
X026951Y011590D02*
X026471Y011590D01*
X026471Y011668D02*
X026951Y011668D01*
X026951Y011747D02*
X026471Y011747D01*
X026471Y011825D02*
X026951Y011825D01*
X026951Y011904D02*
X026471Y011904D01*
X026471Y011982D02*
X026951Y011982D01*
X026951Y012061D02*
X026471Y012061D01*
X026471Y012139D02*
X026951Y012139D01*
X026951Y012218D02*
X026471Y012218D01*
X026471Y012296D02*
X026951Y012296D01*
X026951Y012375D02*
X026471Y012375D01*
X026471Y012453D02*
X026951Y012453D01*
X026951Y012532D02*
X026471Y012532D01*
X026471Y012610D02*
X026951Y012610D01*
X026951Y012689D02*
X026471Y012689D01*
X026471Y012767D02*
X026951Y012767D01*
X026951Y012846D02*
X026471Y012846D01*
X026471Y012924D02*
X026951Y012924D01*
X026951Y013003D02*
X026471Y013003D01*
X026471Y013081D02*
X026951Y013081D01*
X026951Y013160D02*
X026471Y013160D01*
X026471Y013238D02*
X026951Y013238D01*
X026950Y013317D02*
X026471Y013317D01*
X026471Y013395D02*
X026936Y013395D01*
X026921Y013474D02*
X026471Y013474D01*
X026471Y013552D02*
X026906Y013552D01*
X026891Y013631D02*
X026471Y013631D01*
X026471Y013709D02*
X026876Y013709D01*
X026862Y013788D02*
X026471Y013788D01*
X026471Y013866D02*
X026847Y013866D01*
X026832Y013945D02*
X026471Y013945D01*
X026471Y014023D02*
X026817Y014023D01*
X026802Y014102D02*
X026471Y014102D01*
X026471Y014180D02*
X026788Y014180D01*
X026773Y014259D02*
X026471Y014259D01*
X026471Y014337D02*
X026758Y014337D01*
X026461Y014360D02*
X022858Y014360D01*
X024115Y009754D02*
X024115Y008966D01*
X024666Y008966D01*
X024941Y009124D02*
X025178Y009360D01*
X024941Y009596D01*
X024941Y009124D01*
X025178Y009084D02*
X025178Y009360D01*
X025178Y009636D01*
X025453Y009754D02*
X026004Y009754D01*
X026004Y008966D01*
X025453Y008966D01*
X024666Y009754D02*
X024115Y009754D01*
X061100Y011350D02*
X061713Y011350D01*
X062020Y011350D02*
X062020Y012271D01*
X062634Y012271D01*
X062941Y012271D02*
X063555Y011350D01*
X063555Y012271D01*
X063862Y012271D02*
X064169Y012271D01*
X064015Y012271D02*
X064015Y011350D01*
X063862Y011350D02*
X064169Y011350D01*
X064783Y011350D02*
X064783Y012271D01*
X064476Y012271D02*
X065090Y012271D01*
X065397Y012271D02*
X065397Y011350D01*
X065397Y011810D02*
X066010Y011810D01*
X066010Y011350D02*
X066010Y012271D01*
X062941Y012271D02*
X062941Y011350D01*
X062634Y011350D02*
X062020Y011350D01*
X062020Y011810D02*
X062327Y011810D01*
X061713Y012117D02*
X061100Y011503D01*
X061100Y011350D01*
X061100Y012271D02*
X061713Y012271D01*
X061713Y012117D01*
X072465Y011904D02*
X072465Y011116D01*
X073016Y011116D01*
X073291Y011234D02*
X073291Y011510D01*
X073528Y011746D01*
X073528Y011274D01*
X073291Y011510D01*
X073291Y011786D01*
X073016Y011904D02*
X072465Y011904D01*
X073803Y011904D02*
X074354Y011904D01*
X074354Y011116D01*
X073803Y011116D01*
X018804Y060866D02*
X018804Y061654D01*
X018253Y061654D01*
X017978Y061496D02*
X017741Y061260D01*
X017978Y061024D01*
X017978Y061496D01*
X017741Y061536D02*
X017741Y061260D01*
X017741Y060984D01*
X017466Y060866D02*
X016915Y060866D01*
X016915Y061654D01*
X017466Y061654D01*
X018253Y060866D02*
X018804Y060866D01*
X018804Y067066D02*
X018253Y067066D01*
X017978Y067224D02*
X017978Y067696D01*
X017741Y067460D01*
X017978Y067224D01*
X017741Y067184D02*
X017741Y067460D01*
X017741Y067736D01*
X017466Y067854D02*
X016915Y067854D01*
X016915Y067066D01*
X017466Y067066D01*
X018253Y067854D02*
X018804Y067854D01*
X018804Y067066D01*
D18*
X050936Y018445D02*
X050875Y018384D01*
X050875Y018137D01*
X050936Y018075D01*
X051060Y018075D01*
X051121Y018137D01*
X051243Y018075D02*
X051243Y018445D01*
X051490Y018075D01*
X051490Y018445D01*
X051611Y018445D02*
X051858Y018445D01*
X051979Y018445D02*
X052165Y018445D01*
X052226Y018384D01*
X052226Y018260D01*
X052165Y018198D01*
X051979Y018198D01*
X051979Y018075D02*
X051979Y018445D01*
X051735Y018445D02*
X051735Y018075D01*
X052103Y018198D02*
X052226Y018075D01*
X052348Y018075D02*
X052595Y018075D01*
X052348Y018075D02*
X052348Y018445D01*
X051121Y018384D02*
X051060Y018445D01*
X050936Y018445D01*
X066025Y018384D02*
X066025Y018137D01*
X066086Y018075D01*
X066210Y018075D01*
X066271Y018137D01*
X066393Y018075D02*
X066393Y018445D01*
X066640Y018075D01*
X066640Y018445D01*
X066761Y018445D02*
X067008Y018445D01*
X067129Y018445D02*
X067315Y018445D01*
X067376Y018384D01*
X067376Y018260D01*
X067315Y018198D01*
X067129Y018198D01*
X067129Y018075D02*
X067129Y018445D01*
X066885Y018445D02*
X066885Y018075D01*
X067253Y018198D02*
X067376Y018075D01*
X067498Y018075D02*
X067745Y018075D01*
X067498Y018075D02*
X067498Y018445D01*
X066271Y018384D02*
X066210Y018445D01*
X066086Y018445D01*
X066025Y018384D01*
D19*
X070178Y014981D02*
X070178Y014674D01*
X070178Y014521D02*
X070638Y014521D01*
X070178Y014214D01*
X070638Y014214D01*
X070638Y014060D02*
X070638Y013907D01*
X070638Y013983D02*
X070178Y013983D01*
X070178Y013907D02*
X070178Y014060D01*
X070408Y013753D02*
X070408Y013446D01*
X070485Y013293D02*
X070178Y013293D01*
X070485Y013293D02*
X070638Y013139D01*
X070485Y012986D01*
X070178Y012986D01*
X070178Y012832D02*
X070178Y012526D01*
X070408Y012526D01*
X070331Y012679D01*
X070331Y012756D01*
X070408Y012832D01*
X070562Y012832D01*
X070638Y012756D01*
X070638Y012602D01*
X070562Y012526D01*
X072265Y012895D02*
X072725Y012895D01*
X072725Y013202D01*
X072725Y014305D02*
X072265Y014305D01*
X072265Y014535D01*
X072341Y014611D01*
X072495Y014611D01*
X072571Y014535D01*
X072571Y014305D01*
X072571Y014458D02*
X072725Y014611D01*
X070638Y014828D02*
X070178Y014828D01*
X037174Y020204D02*
X036867Y020204D01*
X035205Y020204D02*
X034898Y020204D01*
X035052Y020357D02*
X035052Y020050D01*
X035052Y025450D02*
X035052Y025757D01*
X035205Y025604D02*
X034898Y025604D01*
X036867Y025604D02*
X037174Y025604D01*
X037174Y031004D02*
X036867Y031004D01*
X035205Y031004D02*
X034898Y031004D01*
X035052Y031157D02*
X035052Y030850D01*
X035052Y036250D02*
X035052Y036557D01*
X035205Y036404D02*
X034898Y036404D01*
X036867Y036404D02*
X037174Y036404D01*
X049430Y064930D02*
X049660Y064930D01*
X049736Y065007D01*
X049736Y065314D01*
X049660Y065390D01*
X049430Y065390D01*
X049430Y064930D01*
X049890Y064930D02*
X050197Y065237D01*
X050197Y065314D01*
X050120Y065390D01*
X049967Y065390D01*
X049890Y065314D01*
X049890Y064930D02*
X050197Y064930D01*
X050197Y065930D02*
X049890Y065930D01*
X050197Y066237D01*
X050197Y066314D01*
X050120Y066390D01*
X049967Y066390D01*
X049890Y066314D01*
X049736Y066314D02*
X049660Y066390D01*
X049506Y066390D01*
X049430Y066314D01*
X049430Y066007D01*
X049506Y065930D01*
X049660Y065930D01*
X049736Y066007D01*
X048861Y066805D02*
X048555Y066805D01*
X048708Y066805D02*
X048708Y067265D01*
X048555Y067112D01*
X040072Y067189D02*
X039765Y066882D01*
X039842Y066805D01*
X039995Y066805D01*
X040072Y066882D01*
X040072Y067189D01*
X039995Y067265D01*
X039842Y067265D01*
X039765Y067189D01*
X039765Y066882D01*
X039611Y066805D02*
X039305Y066805D01*
X039458Y066805D02*
X039458Y067265D01*
X039305Y067112D01*
X039305Y081055D02*
X039611Y081055D01*
X039458Y081055D02*
X039458Y081515D01*
X039305Y081362D01*
X039765Y081439D02*
X039842Y081515D01*
X039995Y081515D01*
X040072Y081439D01*
X039765Y081132D01*
X039842Y081055D01*
X039995Y081055D01*
X040072Y081132D01*
X040072Y081439D01*
X039765Y081439D02*
X039765Y081132D01*
X048555Y081055D02*
X048861Y081055D01*
X048708Y081055D02*
X048708Y081515D01*
X048555Y081362D01*
X049430Y081930D02*
X049660Y081930D01*
X049736Y082007D01*
X049736Y082083D01*
X049660Y082160D01*
X049430Y082160D01*
X049660Y082160D02*
X049736Y082237D01*
X049736Y082314D01*
X049660Y082390D01*
X049430Y082390D01*
X049430Y081930D01*
X049890Y081930D02*
X050197Y082237D01*
X050197Y082314D01*
X050120Y082390D01*
X049967Y082390D01*
X049890Y082314D01*
X049890Y081930D02*
X050197Y081930D01*
X050197Y082930D02*
X049890Y082930D01*
X050197Y083237D01*
X050197Y083314D01*
X050120Y083390D01*
X049967Y083390D01*
X049890Y083314D01*
X049736Y083237D02*
X049736Y082930D01*
X049736Y083160D02*
X049430Y083160D01*
X049430Y083237D02*
X049583Y083390D01*
X049736Y083237D01*
X049430Y083237D02*
X049430Y082930D01*
X063180Y082930D02*
X063180Y083237D01*
X063333Y083390D01*
X063486Y083237D01*
X063486Y082930D01*
X063640Y082930D02*
X063947Y082930D01*
X063793Y082930D02*
X063793Y083390D01*
X063640Y083237D01*
X063486Y083160D02*
X063180Y083160D01*
X063180Y082390D02*
X063410Y082390D01*
X063486Y082314D01*
X063486Y082237D01*
X063410Y082160D01*
X063180Y082160D01*
X063410Y082160D02*
X063486Y082083D01*
X063486Y082007D01*
X063410Y081930D01*
X063180Y081930D01*
X063180Y082390D01*
X063640Y082237D02*
X063793Y082390D01*
X063793Y081930D01*
X063640Y081930D02*
X063947Y081930D01*
X064458Y081515D02*
X064305Y081362D01*
X064458Y081515D02*
X064458Y081055D01*
X064305Y081055D02*
X064611Y081055D01*
X064765Y081132D02*
X065072Y081439D01*
X065072Y081132D01*
X064995Y081055D01*
X064842Y081055D01*
X064765Y081132D01*
X064765Y081439D01*
X064842Y081515D01*
X064995Y081515D01*
X065072Y081439D01*
X073555Y081362D02*
X073708Y081515D01*
X073708Y081055D01*
X073555Y081055D02*
X073861Y081055D01*
X073708Y067265D02*
X073708Y066805D01*
X073555Y066805D02*
X073861Y066805D01*
X073555Y067112D02*
X073708Y067265D01*
X065072Y067189D02*
X064765Y066882D01*
X064842Y066805D01*
X064995Y066805D01*
X065072Y066882D01*
X065072Y067189D01*
X064995Y067265D01*
X064842Y067265D01*
X064765Y067189D01*
X064765Y066882D01*
X064611Y066805D02*
X064305Y066805D01*
X064458Y066805D02*
X064458Y067265D01*
X064305Y067112D01*
X063793Y066390D02*
X063793Y065930D01*
X063640Y065930D02*
X063947Y065930D01*
X063640Y066237D02*
X063793Y066390D01*
X063486Y066314D02*
X063410Y066390D01*
X063256Y066390D01*
X063180Y066314D01*
X063180Y066007D01*
X063256Y065930D01*
X063410Y065930D01*
X063486Y066007D01*
X063410Y065390D02*
X063180Y065390D01*
X063180Y064930D01*
X063410Y064930D01*
X063486Y065007D01*
X063486Y065314D01*
X063410Y065390D01*
X063640Y065237D02*
X063793Y065390D01*
X063793Y064930D01*
X063640Y064930D02*
X063947Y064930D01*
D20*
X038028Y035760D03*
X038028Y030360D03*
X038028Y024960D03*
X038028Y019560D03*
D21*
X039535Y059223D03*
X035485Y059223D03*
D22*
X036160Y042260D03*
X043672Y014110D03*
D23*
X042747Y014110D03*
X047597Y014110D03*
X040085Y042260D03*
X035235Y042260D03*
D24*
X021341Y042460D03*
X021341Y044460D03*
X021341Y048660D03*
X021341Y050660D03*
X021341Y054960D03*
X021341Y056960D03*
X021341Y038160D03*
X021341Y036160D03*
X021341Y031960D03*
X021341Y029960D03*
X021341Y025760D03*
X021341Y023760D03*
X021341Y019560D03*
X021341Y017560D03*
X021341Y013360D03*
X021341Y011360D03*
D25*
X022524Y011360D03*
X022524Y012360D03*
X022524Y013360D03*
X022524Y017560D03*
X022524Y018560D03*
X022524Y019560D03*
X022524Y023760D03*
X022524Y024760D03*
X022524Y025760D03*
X022524Y029960D03*
X022524Y030960D03*
X022524Y031960D03*
X022524Y036160D03*
X022524Y037160D03*
X022524Y038160D03*
X022524Y042460D03*
X022524Y043460D03*
X022524Y044460D03*
X022524Y048660D03*
X022524Y049660D03*
X022524Y050660D03*
X022524Y054960D03*
X022524Y055960D03*
X022524Y056960D03*
D26*
X060173Y076830D02*
X060173Y077050D01*
X060246Y076977D01*
X060319Y077050D01*
X060319Y076830D01*
X060394Y076830D02*
X060394Y076977D01*
X060467Y077050D01*
X060540Y076977D01*
X060540Y076830D01*
X060615Y076830D02*
X060761Y077050D01*
X060836Y077013D02*
X060872Y077050D01*
X060946Y077050D01*
X060982Y077013D01*
X060982Y076977D01*
X060946Y076940D01*
X060982Y076903D01*
X060982Y076867D01*
X060946Y076830D01*
X060872Y076830D01*
X060836Y076867D01*
X060761Y076830D02*
X060615Y077050D01*
X060540Y076940D02*
X060394Y076940D01*
X060909Y076940D02*
X060946Y076940D01*
X061057Y076867D02*
X061203Y077013D01*
X061203Y076867D01*
X061167Y076830D01*
X061093Y076830D01*
X061057Y076867D01*
X061057Y077013D01*
X061093Y077050D01*
X061167Y077050D01*
X061203Y077013D01*
X061278Y077050D02*
X061424Y077050D01*
X061424Y077013D01*
X061278Y076867D01*
X061278Y076830D01*
X061499Y076830D02*
X061499Y076867D01*
X061645Y077013D01*
X061645Y077050D01*
X061499Y077050D01*
D27*
X059918Y014134D03*
X059598Y013311D03*
X058668Y011744D03*
X058128Y011268D03*
X058312Y011094D03*
X058344Y011091D03*
X057746Y011561D03*
X057838Y011761D03*
X057718Y011858D03*
X057568Y011858D03*
D28*
X057567Y011861D03*
X057641Y011948D03*
X057641Y011951D03*
X057641Y011954D03*
X057719Y011861D03*
X057837Y011764D03*
X057631Y011654D03*
X057631Y011651D03*
X058413Y011188D03*
X058367Y011094D03*
X058671Y011748D03*
X058677Y011754D03*
X059599Y013314D03*
D29*
X059603Y013319D03*
X058663Y011739D03*
X058303Y011095D03*
X057839Y011755D03*
X057839Y011759D03*
X057717Y011855D03*
X057569Y011849D03*
D30*
X057610Y011655D03*
X057680Y011675D03*
X057920Y011555D03*
X057940Y011509D03*
X057950Y011489D03*
X057960Y011469D03*
X058340Y011095D03*
X059640Y013389D03*
X059800Y013925D03*
X060120Y014239D03*
X060130Y014259D03*
D31*
X059600Y013315D03*
X058670Y011745D03*
X058226Y011305D03*
X058376Y011095D03*
X057568Y011855D03*
X057568Y011859D03*
D32*
X057570Y011848D03*
X057570Y011844D03*
X057642Y011918D03*
X057642Y011921D03*
X057642Y011924D03*
X057642Y011928D03*
X057642Y011931D03*
X057642Y011934D03*
X057642Y011938D03*
X057716Y011851D03*
X057714Y011848D03*
X058294Y011098D03*
X058656Y011731D03*
X058658Y011734D03*
X058662Y011738D03*
X059604Y013324D03*
X059606Y013328D03*
D33*
X059669Y013444D03*
X059671Y013448D03*
X059707Y013558D03*
X059731Y013778D03*
X059733Y013781D03*
X060023Y014044D03*
X060025Y014048D03*
X060027Y014051D03*
X060215Y013531D03*
X060083Y013428D03*
X059867Y013308D03*
X060753Y014744D03*
X060757Y014748D03*
X060761Y014751D03*
X060763Y014754D03*
X060767Y014758D03*
X060771Y014761D03*
X061121Y015008D03*
X061141Y015014D03*
X058339Y011098D03*
X057789Y011474D03*
X057699Y011444D03*
X057699Y011441D03*
X057697Y011448D03*
X057679Y011491D03*
X057679Y011494D03*
X057677Y011498D03*
X057687Y011628D03*
X057687Y011631D03*
D34*
X057839Y011758D03*
X057717Y011854D03*
X057641Y011941D03*
X057569Y011854D03*
X057569Y011851D03*
X058277Y011101D03*
X058387Y011098D03*
X058665Y011741D03*
X059601Y013318D03*
X059603Y013321D03*
X059913Y014131D03*
D35*
X059606Y013325D03*
X058660Y011735D03*
X058398Y011099D03*
X058286Y011099D03*
X057714Y011845D03*
X057716Y011849D03*
X057642Y011915D03*
X057642Y011919D03*
X057642Y011925D03*
X057642Y011929D03*
X057642Y011935D03*
X057642Y011939D03*
X057570Y011845D03*
D36*
X057692Y011595D03*
X057656Y011575D03*
X057868Y011405D03*
X058338Y011099D03*
X059886Y013129D03*
X060018Y013365D03*
X060022Y013369D03*
X059694Y013489D03*
X059686Y013675D03*
X059688Y013679D03*
X059934Y013855D03*
X059936Y013859D03*
X059944Y013875D03*
X060584Y014535D03*
X060586Y014539D03*
D37*
X060448Y014348D03*
X060438Y014334D03*
X060434Y014328D03*
X060432Y014324D03*
X060428Y014318D03*
X059854Y013688D03*
X059852Y013684D03*
X059852Y013681D03*
X059848Y013674D03*
X059844Y013664D03*
X059842Y013661D03*
X059872Y013348D03*
X059944Y013298D03*
X058334Y011101D03*
D38*
X058406Y011101D03*
X058404Y011184D03*
X058420Y011191D03*
X058430Y011198D03*
X057780Y011378D03*
X057764Y011391D03*
X057640Y011628D03*
X057700Y011718D03*
X057674Y011804D03*
X057640Y011944D03*
X057640Y011958D03*
X057640Y011961D03*
X057640Y011964D03*
X057640Y011971D03*
X057640Y011974D03*
X059594Y013304D03*
X059596Y013308D03*
D39*
X059868Y013051D03*
X060082Y013778D03*
X060088Y013788D03*
X060092Y013794D03*
X058348Y011104D03*
X058232Y011164D03*
D40*
X058348Y011105D03*
X060008Y013655D03*
X060026Y013685D03*
X060028Y013689D03*
X060034Y013699D03*
X060038Y013705D03*
D41*
X059981Y013611D03*
X059979Y013608D03*
X059977Y013604D03*
X059879Y013418D03*
X059757Y013544D03*
X059759Y013551D03*
X058661Y014124D03*
X058221Y011434D03*
X058347Y011108D03*
D42*
X058348Y011109D03*
X058258Y011465D03*
X059856Y013009D03*
X059878Y013429D03*
X059932Y013525D03*
X059934Y013529D03*
X059938Y013535D03*
D43*
X059877Y013438D03*
X059853Y012998D03*
X058259Y011641D03*
X058347Y011111D03*
D44*
X058346Y011114D03*
X057852Y011314D03*
D45*
X057918Y011275D03*
X058344Y011115D03*
D46*
X058344Y011118D03*
X058122Y011194D03*
X057842Y011328D03*
X059844Y012964D03*
D47*
X059838Y012945D03*
X059876Y013469D03*
X058356Y011295D03*
X058342Y011119D03*
D48*
X058342Y011121D03*
X059004Y011628D03*
X059834Y012931D03*
X059834Y012934D03*
D49*
X059830Y012921D03*
X058342Y011124D03*
D50*
X058343Y011125D03*
X059017Y011635D03*
D51*
X059026Y011641D03*
X058344Y011128D03*
D52*
X058344Y011129D03*
X059032Y011645D03*
M02*
