G75*
%MOIN*%
%OFA0B0*%
%FSLAX24Y24*%
%IPPOS*%
%LPD*%
%AMOC8*
5,1,8,0,0,1.08239X$1,22.5*
%
%ADD10C,0.0768*%
%ADD11C,0.1181*%
%ADD12R,0.0476X0.0476*%
%ADD13C,0.0476*%
%ADD14C,0.7200*%
%ADD15C,0.0827*%
%ADD16C,0.1000*%
%ADD17OC8,0.1000*%
%ADD18C,0.0825*%
%ADD19C,0.0560*%
%ADD20C,0.2000*%
%ADD21OC8,0.0600*%
%ADD22C,0.0594*%
%ADD23R,0.0594X0.0594*%
%ADD24C,0.0900*%
%ADD25C,0.1200*%
%ADD26C,0.0160*%
%ADD27C,0.0310*%
%ADD28C,0.0120*%
%ADD29C,0.0357*%
D10*
X048860Y017360D03*
X051860Y017360D03*
X054860Y017360D03*
X064010Y017360D03*
X067010Y017360D03*
X070010Y017360D03*
D11*
X070010Y037360D03*
X064010Y037360D03*
X054860Y037360D03*
X048860Y037360D03*
D12*
X035075Y035760D03*
X035075Y030360D03*
X035075Y024960D03*
X035075Y019560D03*
D13*
X037044Y019560D03*
X037044Y024960D03*
X037044Y030360D03*
X037044Y035760D03*
D14*
X035760Y009760D03*
X052260Y009760D03*
D15*
X071210Y013105D03*
X071210Y014515D03*
D16*
X039535Y060448D03*
X035485Y060448D03*
D17*
X035485Y058448D03*
X039535Y058448D03*
D18*
X040747Y042260D02*
X041572Y042260D01*
X034572Y042260D02*
X033747Y042260D01*
X041260Y014110D02*
X042085Y014110D01*
X048260Y014110D02*
X049085Y014110D01*
D19*
X046160Y046960D03*
X046160Y047960D03*
X046160Y048960D03*
X046160Y051560D03*
X046160Y052560D03*
X046160Y053560D03*
D20*
X020760Y053373D03*
X017660Y053373D03*
X017660Y059623D03*
X020760Y059623D03*
X020760Y065873D03*
X017660Y065873D03*
X017660Y047123D03*
X020760Y047123D03*
X020760Y040873D03*
X017660Y040873D03*
X017660Y034623D03*
X020760Y034623D03*
X020760Y028373D03*
X017660Y028373D03*
X017660Y022123D03*
X020760Y022123D03*
X020760Y015873D03*
X017660Y015873D03*
X017660Y009623D03*
X020760Y009623D03*
D21*
X039660Y065160D03*
X040660Y065160D03*
X040660Y066160D03*
X039660Y066160D03*
X041660Y066160D03*
X042660Y066160D03*
X043660Y066160D03*
X044660Y066160D03*
X045660Y066160D03*
X045660Y065160D03*
X044660Y065160D03*
X043660Y065160D03*
X042660Y065160D03*
X041660Y065160D03*
X046660Y065160D03*
X047660Y065160D03*
X048660Y065160D03*
X048660Y066160D03*
X047660Y066160D03*
X046660Y066160D03*
X046660Y082160D03*
X047660Y082160D03*
X048660Y082160D03*
X048660Y083160D03*
X047660Y083160D03*
X046660Y083160D03*
X045660Y083160D03*
X045660Y082160D03*
X044660Y082160D03*
X044660Y083160D03*
X043660Y083160D03*
X043660Y082160D03*
X042660Y082160D03*
X042660Y083160D03*
X041660Y083160D03*
X041660Y082160D03*
X040660Y082160D03*
X040660Y083160D03*
X039660Y083160D03*
X039660Y082160D03*
X064660Y082160D03*
X065660Y082160D03*
X066660Y082160D03*
X067660Y082160D03*
X067660Y083160D03*
X066660Y083160D03*
X065660Y083160D03*
X064660Y083160D03*
X068660Y083160D03*
X069660Y083160D03*
X070660Y083160D03*
X071660Y083160D03*
X071660Y082160D03*
X070660Y082160D03*
X069660Y082160D03*
X068660Y082160D03*
X072660Y082160D03*
X073660Y082160D03*
X073660Y083160D03*
X072660Y083160D03*
X072660Y066160D03*
X073660Y066160D03*
X073660Y065160D03*
X072660Y065160D03*
X071660Y065160D03*
X071660Y066160D03*
X070660Y066160D03*
X070660Y065160D03*
X069660Y065160D03*
X069660Y066160D03*
X068660Y066160D03*
X068660Y065160D03*
X067660Y065160D03*
X067660Y066160D03*
X066660Y066160D03*
X066660Y065160D03*
X065660Y065160D03*
X065660Y066160D03*
X064660Y066160D03*
X064660Y065160D03*
D22*
X068660Y044410D03*
X068660Y043410D03*
X068660Y042410D03*
X068660Y041410D03*
X069660Y041910D03*
X069660Y042910D03*
X069660Y043910D03*
D23*
X069660Y040910D03*
D24*
X070860Y051910D03*
X070860Y053410D03*
X070860Y054910D03*
X050860Y053410D03*
X050860Y050410D03*
X050860Y056410D03*
D25*
X070860Y056410D03*
X070860Y050410D03*
D26*
X011342Y006159D02*
X011518Y005792D01*
X011518Y005792D01*
X011773Y005473D01*
X012091Y005219D01*
X012458Y005042D01*
X012856Y004951D01*
X013060Y004940D01*
X072785Y004940D01*
X072860Y004940D01*
X073063Y004951D01*
X073461Y005042D01*
X073828Y005219D01*
X074146Y005473D01*
X074401Y005792D01*
X074577Y006159D01*
X074668Y006556D01*
X074680Y006760D01*
X074680Y082560D01*
X074668Y082764D01*
X074577Y083161D01*
X074401Y083528D01*
X074146Y083847D01*
X073828Y084101D01*
X073461Y084278D01*
X073063Y084369D01*
X072860Y084380D01*
X013060Y084380D01*
X012856Y084369D01*
X012458Y084278D01*
X012091Y084101D01*
X011773Y083847D01*
X011518Y083528D01*
X011342Y083161D01*
X011251Y082764D01*
X011240Y082560D01*
X011240Y006760D01*
X011251Y006556D01*
X011342Y006159D01*
X011335Y006187D02*
X012377Y006187D01*
X012400Y006100D02*
X012535Y005865D01*
X012727Y005673D01*
X012962Y005538D01*
X013224Y005468D01*
X013495Y005468D01*
X013757Y005538D01*
X013992Y005673D01*
X014184Y005865D01*
X014319Y006100D01*
X014390Y006362D01*
X014390Y006633D01*
X014319Y006895D01*
X014184Y007130D01*
X013992Y007322D01*
X013757Y007457D01*
X013495Y007527D01*
X013224Y007527D01*
X012962Y007457D01*
X012727Y007322D01*
X012535Y007130D01*
X012400Y006895D01*
X012330Y006633D01*
X012330Y006362D01*
X012400Y006100D01*
X012441Y006028D02*
X011405Y006028D01*
X011481Y005870D02*
X012533Y005870D01*
X012689Y005711D02*
X011583Y005711D01*
X011709Y005553D02*
X012936Y005553D01*
X012386Y005077D02*
X073533Y005077D01*
X073849Y005236D02*
X012070Y005236D01*
X011872Y005394D02*
X074047Y005394D01*
X074210Y005553D02*
X071861Y005553D01*
X071857Y005550D02*
X072092Y005686D01*
X072284Y005878D01*
X072419Y006112D01*
X072490Y006374D01*
X072490Y006646D01*
X072419Y006908D01*
X072284Y007142D01*
X072092Y007334D01*
X071857Y007470D01*
X071595Y007540D01*
X071324Y007540D01*
X071062Y007470D01*
X070827Y007334D01*
X070635Y007142D01*
X070500Y006908D01*
X070430Y006646D01*
X070430Y006374D01*
X070500Y006112D01*
X070635Y005878D01*
X070827Y005686D01*
X071062Y005550D01*
X071324Y005480D01*
X071595Y005480D01*
X071857Y005550D01*
X072117Y005711D02*
X074336Y005711D01*
X074438Y005870D02*
X072276Y005870D01*
X072371Y006028D02*
X074514Y006028D01*
X074584Y006187D02*
X072439Y006187D01*
X072482Y006345D02*
X074620Y006345D01*
X074656Y006504D02*
X072490Y006504D01*
X072485Y006662D02*
X074674Y006662D01*
X074680Y006821D02*
X072443Y006821D01*
X072378Y006979D02*
X074680Y006979D01*
X074680Y007138D02*
X072287Y007138D01*
X072130Y007296D02*
X074680Y007296D01*
X074680Y007455D02*
X071884Y007455D01*
X071035Y007455D02*
X038705Y007455D01*
X038657Y007382D02*
X039065Y007993D01*
X039346Y008672D01*
X039490Y009393D01*
X039490Y010127D01*
X039346Y010848D01*
X039065Y011527D01*
X038657Y012138D01*
X038137Y012657D01*
X037526Y013065D01*
X036848Y013347D01*
X036127Y013490D01*
X035392Y013490D01*
X034672Y013347D01*
X033993Y013065D01*
X033382Y012657D01*
X032862Y012138D01*
X032454Y011527D01*
X032173Y010848D01*
X032030Y010127D01*
X032030Y009393D01*
X032173Y008672D01*
X032454Y007993D01*
X032862Y007382D01*
X033382Y006863D01*
X033993Y006455D01*
X034672Y006173D01*
X035392Y006030D01*
X036127Y006030D01*
X036848Y006173D01*
X037526Y006455D01*
X038137Y006863D01*
X038657Y007382D01*
X038571Y007296D02*
X070789Y007296D01*
X070632Y007138D02*
X038412Y007138D01*
X038254Y006979D02*
X070541Y006979D01*
X070476Y006821D02*
X038074Y006821D01*
X037837Y006662D02*
X070434Y006662D01*
X070430Y006504D02*
X037600Y006504D01*
X037262Y006345D02*
X070437Y006345D01*
X070480Y006187D02*
X036879Y006187D01*
X038811Y007613D02*
X074680Y007613D01*
X074680Y007772D02*
X038917Y007772D01*
X039023Y007930D02*
X074680Y007930D01*
X074680Y008089D02*
X039104Y008089D01*
X039170Y008247D02*
X074680Y008247D01*
X074680Y008406D02*
X039236Y008406D01*
X039301Y008564D02*
X074680Y008564D01*
X074680Y008723D02*
X039356Y008723D01*
X039388Y008881D02*
X074680Y008881D01*
X074680Y009040D02*
X039419Y009040D01*
X039451Y009198D02*
X074680Y009198D01*
X074680Y009357D02*
X039482Y009357D01*
X039490Y009515D02*
X074680Y009515D01*
X074680Y009674D02*
X039490Y009674D01*
X039490Y009832D02*
X074680Y009832D01*
X074680Y009991D02*
X039490Y009991D01*
X039485Y010149D02*
X074680Y010149D01*
X074680Y010308D02*
X039454Y010308D01*
X039422Y010466D02*
X074680Y010466D01*
X074680Y010625D02*
X039391Y010625D01*
X039359Y010783D02*
X074680Y010783D01*
X074680Y010942D02*
X039307Y010942D01*
X039242Y011100D02*
X074680Y011100D01*
X074680Y011259D02*
X039176Y011259D01*
X039110Y011417D02*
X074680Y011417D01*
X074680Y011576D02*
X039032Y011576D01*
X038927Y011734D02*
X074680Y011734D01*
X074680Y011893D02*
X038821Y011893D01*
X038715Y012051D02*
X074680Y012051D01*
X074680Y012210D02*
X038585Y012210D01*
X038427Y012368D02*
X074680Y012368D01*
X074680Y012527D02*
X071348Y012527D01*
X071437Y012555D01*
X071521Y012598D01*
X071596Y012653D01*
X071662Y012719D01*
X071717Y012794D01*
X071759Y012877D01*
X071788Y012966D01*
X071801Y013047D01*
X071267Y013047D01*
X071267Y012514D01*
X071348Y012527D01*
X071267Y012527D02*
X071152Y012527D01*
X071152Y012514D02*
X071152Y013047D01*
X071267Y013047D01*
X071267Y013163D01*
X071152Y013163D01*
X071152Y013697D01*
X071071Y013684D01*
X070982Y013655D01*
X070899Y013613D01*
X070823Y013558D01*
X070757Y013492D01*
X070702Y013416D01*
X070660Y013333D01*
X070631Y013244D01*
X070618Y013163D01*
X071152Y013163D01*
X071152Y013047D01*
X070618Y013047D01*
X070631Y012966D01*
X070660Y012877D01*
X070702Y012794D01*
X070757Y012719D01*
X070823Y012653D01*
X070899Y012598D01*
X070982Y012555D01*
X071071Y012527D01*
X071152Y012514D01*
X071071Y012527D02*
X038268Y012527D01*
X038096Y012685D02*
X070791Y012685D01*
X070677Y012844D02*
X037859Y012844D01*
X037621Y013002D02*
X070625Y013002D01*
X070655Y013319D02*
X036914Y013319D01*
X037297Y013161D02*
X071152Y013161D01*
X071267Y013161D02*
X074680Y013161D01*
X074680Y013319D02*
X071764Y013319D01*
X071759Y013333D02*
X071717Y013416D01*
X071662Y013492D01*
X071596Y013558D01*
X071521Y013613D01*
X071437Y013655D01*
X071348Y013684D01*
X071267Y013697D01*
X071267Y013163D01*
X071801Y013163D01*
X071788Y013244D01*
X071759Y013333D01*
X071673Y013478D02*
X074680Y013478D01*
X074680Y013636D02*
X071475Y013636D01*
X071267Y013636D02*
X071152Y013636D01*
X071152Y013478D02*
X071267Y013478D01*
X071267Y013319D02*
X071152Y013319D01*
X071152Y013002D02*
X071267Y013002D01*
X071267Y012844D02*
X071152Y012844D01*
X071152Y012685D02*
X071267Y012685D01*
X071628Y012685D02*
X074680Y012685D01*
X074680Y012844D02*
X071742Y012844D01*
X071794Y013002D02*
X074680Y013002D01*
X074680Y013795D02*
X049588Y013795D01*
X049591Y013799D02*
X049634Y013883D01*
X049662Y013971D01*
X049675Y014052D01*
X048730Y014052D01*
X048730Y014168D01*
X048615Y014168D01*
X048615Y014702D01*
X048213Y014702D01*
X048121Y014688D01*
X048032Y014659D01*
X047949Y014617D01*
X047874Y014562D01*
X047808Y014496D01*
X047753Y014421D01*
X047710Y014337D01*
X047682Y014249D01*
X047669Y014168D01*
X048615Y014168D01*
X048615Y014052D01*
X048730Y014052D01*
X048730Y013518D01*
X049131Y013518D01*
X049223Y013532D01*
X049312Y013561D01*
X049395Y013603D01*
X049471Y013658D01*
X049536Y013724D01*
X049591Y013799D01*
X049656Y013953D02*
X074680Y013953D01*
X074680Y014112D02*
X071575Y014112D01*
X071517Y014054D02*
X071670Y014207D01*
X071753Y014407D01*
X071753Y014623D01*
X071670Y014823D01*
X071517Y014975D01*
X071318Y015058D01*
X071101Y015058D01*
X070902Y014975D01*
X070749Y014823D01*
X070666Y014623D01*
X070666Y014407D01*
X070749Y014207D01*
X070902Y014054D01*
X071101Y013971D01*
X071318Y013971D01*
X071517Y014054D01*
X071696Y014270D02*
X074680Y014270D01*
X074680Y014429D02*
X071753Y014429D01*
X071753Y014587D02*
X074680Y014587D01*
X074680Y014746D02*
X071702Y014746D01*
X071589Y014904D02*
X074680Y014904D01*
X074680Y015063D02*
X021548Y015063D01*
X021453Y014968D02*
X021664Y015179D01*
X021813Y015436D01*
X021890Y015724D01*
X021890Y016021D01*
X021813Y016309D01*
X021664Y016566D01*
X021453Y016777D01*
X021196Y016925D01*
X020908Y017002D01*
X020611Y017002D01*
X020323Y016925D01*
X020066Y016777D01*
X019855Y016566D01*
X019707Y016309D01*
X019630Y016021D01*
X019630Y015724D01*
X019707Y015436D01*
X019855Y015179D01*
X020066Y014968D01*
X020323Y014820D01*
X020611Y014743D01*
X020908Y014743D01*
X021196Y014820D01*
X021453Y014968D01*
X021342Y014904D02*
X070830Y014904D01*
X070717Y014746D02*
X020920Y014746D01*
X020599Y014746D02*
X011240Y014746D01*
X011240Y014904D02*
X020177Y014904D01*
X019971Y015063D02*
X011240Y015063D01*
X011240Y015221D02*
X019831Y015221D01*
X019739Y015380D02*
X011240Y015380D01*
X011240Y015538D02*
X019679Y015538D01*
X019637Y015697D02*
X011240Y015697D01*
X011240Y015855D02*
X019630Y015855D01*
X019630Y016014D02*
X011240Y016014D01*
X011240Y016172D02*
X019670Y016172D01*
X019719Y016331D02*
X011240Y016331D01*
X011240Y016489D02*
X019811Y016489D01*
X019936Y016648D02*
X011240Y016648D01*
X011240Y016806D02*
X020116Y016806D01*
X020469Y016965D02*
X011240Y016965D01*
X011240Y017123D02*
X028995Y017123D01*
X028995Y017103D02*
X029038Y016999D01*
X029118Y016918D01*
X029223Y016875D01*
X029336Y016875D01*
X029441Y016918D01*
X029521Y016999D01*
X029565Y017103D01*
X029565Y017217D01*
X029521Y017321D01*
X029441Y017402D01*
X029336Y017445D01*
X029223Y017445D01*
X029118Y017402D01*
X029038Y017321D01*
X028995Y017217D01*
X028995Y017103D01*
X029072Y016965D02*
X021050Y016965D01*
X021403Y016806D02*
X030012Y016806D01*
X030018Y016821D02*
X029975Y016717D01*
X029975Y016603D01*
X030018Y016499D01*
X030098Y016418D01*
X030203Y016375D01*
X030316Y016375D01*
X030421Y016418D01*
X030501Y016499D01*
X030545Y016603D01*
X030545Y016717D01*
X030501Y016821D01*
X030421Y016902D01*
X030316Y016945D01*
X030203Y016945D01*
X030098Y016902D01*
X030018Y016821D01*
X029975Y016648D02*
X021583Y016648D01*
X021708Y016489D02*
X030027Y016489D01*
X030492Y016489D02*
X074680Y016489D01*
X074680Y016331D02*
X021800Y016331D01*
X021849Y016172D02*
X074680Y016172D01*
X074680Y016014D02*
X021890Y016014D01*
X021890Y015855D02*
X074680Y015855D01*
X074680Y015697D02*
X021882Y015697D01*
X021840Y015538D02*
X074680Y015538D01*
X074680Y015380D02*
X021780Y015380D01*
X021688Y015221D02*
X074680Y015221D01*
X074680Y016648D02*
X030545Y016648D01*
X030508Y016806D02*
X074680Y016806D01*
X074680Y016965D02*
X067341Y016965D01*
X067301Y016924D02*
X067445Y017069D01*
X067523Y017258D01*
X067523Y017462D01*
X067445Y017651D01*
X067301Y017796D01*
X067112Y017874D01*
X066907Y017874D01*
X066718Y017796D01*
X066574Y017651D01*
X066496Y017462D01*
X066496Y017258D01*
X066574Y017069D01*
X066718Y016924D01*
X066907Y016846D01*
X067112Y016846D01*
X067301Y016924D01*
X067468Y017123D02*
X074680Y017123D01*
X074680Y017282D02*
X067523Y017282D01*
X067523Y017440D02*
X074680Y017440D01*
X074680Y017599D02*
X067467Y017599D01*
X067339Y017757D02*
X074680Y017757D01*
X074680Y017916D02*
X011240Y017916D01*
X011240Y018074D02*
X012899Y018074D01*
X012962Y018038D02*
X013224Y017968D01*
X013495Y017968D01*
X013757Y018038D01*
X013992Y018173D01*
X014184Y018365D01*
X014319Y018600D01*
X014390Y018862D01*
X014390Y019133D01*
X014319Y019395D01*
X014184Y019630D01*
X013992Y019822D01*
X013757Y019957D01*
X013495Y020027D01*
X013224Y020027D01*
X012962Y019957D01*
X012727Y019822D01*
X012535Y019630D01*
X012400Y019395D01*
X012330Y019133D01*
X012330Y018862D01*
X012400Y018600D01*
X012535Y018365D01*
X012727Y018173D01*
X012962Y018038D01*
X012668Y018233D02*
X011240Y018233D01*
X011240Y018391D02*
X012520Y018391D01*
X012429Y018550D02*
X011240Y018550D01*
X011240Y018708D02*
X012371Y018708D01*
X012330Y018867D02*
X011240Y018867D01*
X011240Y019025D02*
X012330Y019025D01*
X012343Y019184D02*
X011240Y019184D01*
X011240Y019342D02*
X012385Y019342D01*
X012461Y019501D02*
X011240Y019501D01*
X011240Y019659D02*
X012564Y019659D01*
X012723Y019818D02*
X011240Y019818D01*
X011240Y019976D02*
X013032Y019976D01*
X013687Y019976D02*
X037000Y019976D01*
X037011Y019978D02*
X036946Y019968D01*
X036883Y019947D01*
X036825Y019917D01*
X036772Y019879D01*
X036725Y019832D01*
X036686Y019779D01*
X036657Y019720D01*
X036636Y019658D01*
X036626Y019593D01*
X036626Y019560D01*
X036626Y019527D01*
X036636Y019462D01*
X036657Y019400D01*
X036686Y019341D01*
X036725Y019288D01*
X036772Y019241D01*
X036825Y019203D01*
X036883Y019173D01*
X036946Y019152D01*
X037011Y019142D01*
X037044Y019142D01*
X037077Y019142D01*
X037142Y019152D01*
X037204Y019173D01*
X037263Y019203D01*
X037316Y019241D01*
X037362Y019288D01*
X037401Y019341D01*
X037431Y019400D01*
X037451Y019462D01*
X037462Y019527D01*
X037462Y019560D01*
X037462Y019593D01*
X037451Y019658D01*
X037431Y019720D01*
X037401Y019779D01*
X037362Y019832D01*
X037316Y019879D01*
X037263Y019917D01*
X037204Y019947D01*
X037142Y019968D01*
X037077Y019978D01*
X037044Y019978D01*
X037044Y019560D01*
X037462Y019560D01*
X037044Y019560D01*
X037044Y019560D01*
X037044Y019142D01*
X037044Y019560D01*
X037044Y019560D01*
X037044Y019560D01*
X037044Y019978D01*
X037011Y019978D01*
X037044Y019976D02*
X037044Y019976D01*
X037088Y019976D02*
X074680Y019976D01*
X074680Y019818D02*
X037373Y019818D01*
X037451Y019659D02*
X074680Y019659D01*
X074680Y019501D02*
X037457Y019501D01*
X037402Y019342D02*
X074680Y019342D01*
X074680Y019184D02*
X037225Y019184D01*
X037044Y019184D02*
X037044Y019184D01*
X037044Y019342D02*
X037044Y019342D01*
X037044Y019501D02*
X037044Y019501D01*
X037044Y019560D02*
X036626Y019560D01*
X037044Y019560D01*
X037044Y019560D01*
X037044Y019659D02*
X037044Y019659D01*
X037044Y019818D02*
X037044Y019818D01*
X036714Y019818D02*
X035443Y019818D01*
X035443Y019852D02*
X035367Y019928D01*
X034784Y019928D01*
X034707Y019852D01*
X034707Y019268D01*
X034784Y019192D01*
X035367Y019192D01*
X035443Y019268D01*
X035443Y019852D01*
X035443Y019659D02*
X036637Y019659D01*
X036630Y019501D02*
X035443Y019501D01*
X035443Y019342D02*
X036686Y019342D01*
X036862Y019184D02*
X014376Y019184D01*
X014390Y019025D02*
X074680Y019025D01*
X074680Y018867D02*
X019436Y018867D01*
X019471Y018831D02*
X019391Y018912D01*
X019286Y018955D01*
X019173Y018955D01*
X019068Y018912D01*
X018988Y018831D01*
X018945Y018727D01*
X018945Y018613D01*
X018988Y018509D01*
X019068Y018428D01*
X019173Y018385D01*
X019286Y018385D01*
X019391Y018428D01*
X019471Y018509D01*
X019515Y018613D01*
X019515Y018727D01*
X019471Y018831D01*
X019515Y018708D02*
X074680Y018708D01*
X074680Y018550D02*
X019488Y018550D01*
X019301Y018391D02*
X074680Y018391D01*
X074680Y018233D02*
X014051Y018233D01*
X014199Y018391D02*
X019158Y018391D01*
X018971Y018550D02*
X014290Y018550D01*
X014348Y018708D02*
X018945Y018708D01*
X019023Y018867D02*
X014390Y018867D01*
X014334Y019342D02*
X034707Y019342D01*
X034707Y019501D02*
X014258Y019501D01*
X014155Y019659D02*
X034707Y019659D01*
X034707Y019818D02*
X013996Y019818D01*
X013820Y018074D02*
X074680Y018074D01*
X074680Y020135D02*
X011240Y020135D01*
X011240Y020293D02*
X074680Y020293D01*
X074680Y020452D02*
X011240Y020452D01*
X011240Y020610D02*
X074680Y020610D01*
X074680Y020769D02*
X011240Y020769D01*
X011240Y020927D02*
X074680Y020927D01*
X074680Y021086D02*
X021223Y021086D01*
X021196Y021070D02*
X021453Y021218D01*
X021664Y021429D01*
X021813Y021686D01*
X021890Y021974D01*
X021890Y022271D01*
X021813Y022559D01*
X021664Y022816D01*
X021453Y023027D01*
X021196Y023175D01*
X020908Y023252D01*
X020611Y023252D01*
X020323Y023175D01*
X020066Y023027D01*
X019855Y022816D01*
X019707Y022559D01*
X019630Y022271D01*
X019630Y021974D01*
X019707Y021686D01*
X019855Y021429D01*
X020066Y021218D01*
X020323Y021070D01*
X020611Y020993D01*
X020908Y020993D01*
X021196Y021070D01*
X021479Y021244D02*
X074680Y021244D01*
X074680Y021403D02*
X021638Y021403D01*
X021740Y021561D02*
X074680Y021561D01*
X074680Y021720D02*
X021821Y021720D01*
X021864Y021878D02*
X074680Y021878D01*
X074680Y022037D02*
X021890Y022037D01*
X021890Y022195D02*
X074680Y022195D01*
X074680Y022354D02*
X021867Y022354D01*
X021825Y022512D02*
X074680Y022512D01*
X074680Y022671D02*
X030473Y022671D01*
X030501Y022699D02*
X030545Y022803D01*
X030545Y022917D01*
X030501Y023021D01*
X030421Y023102D01*
X030316Y023145D01*
X030203Y023145D01*
X030098Y023102D01*
X030018Y023021D01*
X029975Y022917D01*
X029975Y022803D01*
X030018Y022699D01*
X030098Y022618D01*
X030203Y022575D01*
X030316Y022575D01*
X030421Y022618D01*
X030501Y022699D01*
X030545Y022829D02*
X074680Y022829D01*
X074680Y022988D02*
X030515Y022988D01*
X030004Y022988D02*
X021493Y022988D01*
X021651Y022829D02*
X029975Y022829D01*
X030046Y022671D02*
X021748Y022671D01*
X021247Y023146D02*
X029090Y023146D01*
X029118Y023118D02*
X029223Y023075D01*
X029336Y023075D01*
X029441Y023118D01*
X029521Y023199D01*
X029565Y023303D01*
X029565Y023417D01*
X029521Y023521D01*
X029441Y023602D01*
X029336Y023645D01*
X029223Y023645D01*
X029118Y023602D01*
X029038Y023521D01*
X028995Y023417D01*
X028995Y023303D01*
X029038Y023199D01*
X029118Y023118D01*
X028995Y023305D02*
X011240Y023305D01*
X011240Y023463D02*
X029014Y023463D01*
X029166Y023622D02*
X011240Y023622D01*
X011240Y023780D02*
X074680Y023780D01*
X074680Y023622D02*
X029393Y023622D01*
X029545Y023463D02*
X074680Y023463D01*
X074680Y023305D02*
X029565Y023305D01*
X029469Y023146D02*
X074680Y023146D01*
X074680Y023939D02*
X011240Y023939D01*
X011240Y024097D02*
X074680Y024097D01*
X074680Y024256D02*
X013637Y024256D01*
X013757Y024288D02*
X013992Y024423D01*
X014184Y024615D01*
X014319Y024850D01*
X014390Y025112D01*
X014390Y025383D01*
X014319Y025645D01*
X014184Y025880D01*
X013992Y026072D01*
X013757Y026207D01*
X013495Y026277D01*
X013224Y026277D01*
X012962Y026207D01*
X012727Y026072D01*
X012535Y025880D01*
X012400Y025645D01*
X012330Y025383D01*
X012330Y025112D01*
X012400Y024850D01*
X012535Y024615D01*
X012727Y024423D01*
X012962Y024288D01*
X013224Y024218D01*
X013495Y024218D01*
X013757Y024288D01*
X013976Y024414D02*
X074680Y024414D01*
X074680Y024573D02*
X037203Y024573D01*
X037204Y024573D02*
X037263Y024603D01*
X037316Y024641D01*
X037362Y024688D01*
X037401Y024741D01*
X037431Y024800D01*
X037451Y024862D01*
X037462Y024927D01*
X037462Y024960D01*
X037462Y024993D01*
X037451Y025058D01*
X037431Y025120D01*
X037401Y025179D01*
X037362Y025232D01*
X037316Y025279D01*
X037263Y025317D01*
X037204Y025347D01*
X037142Y025368D01*
X037077Y025378D01*
X037044Y025378D01*
X037044Y024960D01*
X037462Y024960D01*
X037044Y024960D01*
X037044Y024960D01*
X037044Y024542D01*
X037077Y024542D01*
X037142Y024552D01*
X037204Y024573D01*
X037044Y024573D02*
X037044Y024573D01*
X037044Y024542D02*
X037044Y024960D01*
X037044Y024960D01*
X037044Y024960D01*
X037044Y025378D01*
X037011Y025378D01*
X036946Y025368D01*
X036883Y025347D01*
X036825Y025317D01*
X036772Y025279D01*
X036725Y025232D01*
X036686Y025179D01*
X036657Y025120D01*
X036636Y025058D01*
X036626Y024993D01*
X036626Y024960D01*
X036626Y024927D01*
X036636Y024862D01*
X036657Y024800D01*
X036686Y024741D01*
X036725Y024688D01*
X036772Y024641D01*
X036825Y024603D01*
X036883Y024573D01*
X036946Y024552D01*
X037011Y024542D01*
X037044Y024542D01*
X036884Y024573D02*
X014141Y024573D01*
X014251Y024731D02*
X018979Y024731D01*
X018988Y024709D02*
X019068Y024628D01*
X019173Y024585D01*
X019286Y024585D01*
X019391Y024628D01*
X019471Y024709D01*
X019515Y024813D01*
X019515Y024927D01*
X019471Y025031D01*
X019391Y025112D01*
X019286Y025155D01*
X019173Y025155D01*
X019068Y025112D01*
X018988Y025031D01*
X018945Y024927D01*
X018945Y024813D01*
X018988Y024709D01*
X018945Y024890D02*
X014330Y024890D01*
X014372Y025048D02*
X019004Y025048D01*
X019455Y025048D02*
X034707Y025048D01*
X034707Y024890D02*
X019515Y024890D01*
X019480Y024731D02*
X034707Y024731D01*
X034707Y024668D02*
X034784Y024592D01*
X035367Y024592D01*
X035443Y024668D01*
X035443Y025252D01*
X035367Y025328D01*
X034784Y025328D01*
X034707Y025252D01*
X034707Y024668D01*
X034707Y025207D02*
X014390Y025207D01*
X014390Y025365D02*
X036938Y025365D01*
X037044Y025365D02*
X037044Y025365D01*
X037149Y025365D02*
X074680Y025365D01*
X074680Y025207D02*
X037381Y025207D01*
X037453Y025048D02*
X074680Y025048D01*
X074680Y024890D02*
X037456Y024890D01*
X037394Y024731D02*
X074680Y024731D01*
X074680Y025524D02*
X014352Y025524D01*
X014298Y025682D02*
X074680Y025682D01*
X074680Y025841D02*
X014206Y025841D01*
X014065Y025999D02*
X074680Y025999D01*
X074680Y026158D02*
X013843Y026158D01*
X012876Y026158D02*
X011240Y026158D01*
X011240Y026316D02*
X074680Y026316D01*
X074680Y026475D02*
X011240Y026475D01*
X011240Y026633D02*
X074680Y026633D01*
X074680Y026792D02*
X011240Y026792D01*
X011240Y026950D02*
X074680Y026950D01*
X074680Y027109D02*
X011240Y027109D01*
X011240Y027267D02*
X020519Y027267D01*
X020611Y027243D02*
X020908Y027243D01*
X021196Y027320D01*
X021453Y027468D01*
X021664Y027679D01*
X021813Y027936D01*
X021890Y028224D01*
X021890Y028521D01*
X021813Y028809D01*
X021664Y029066D01*
X021453Y029277D01*
X021196Y029425D01*
X020908Y029502D01*
X020611Y029502D01*
X020323Y029425D01*
X020066Y029277D01*
X019855Y029066D01*
X019707Y028809D01*
X019630Y028521D01*
X019630Y028224D01*
X019707Y027936D01*
X019855Y027679D01*
X020066Y027468D01*
X020323Y027320D01*
X020611Y027243D01*
X021000Y027267D02*
X074680Y027267D01*
X074680Y027426D02*
X021379Y027426D01*
X021569Y027584D02*
X074680Y027584D01*
X074680Y027743D02*
X021701Y027743D01*
X021792Y027901D02*
X074680Y027901D01*
X074680Y028060D02*
X021846Y028060D01*
X021888Y028218D02*
X074680Y028218D01*
X074680Y028377D02*
X021890Y028377D01*
X021886Y028535D02*
X074680Y028535D01*
X074680Y028694D02*
X021843Y028694D01*
X021787Y028852D02*
X030064Y028852D01*
X030098Y028818D02*
X030203Y028775D01*
X030316Y028775D01*
X030421Y028818D01*
X030501Y028899D01*
X030545Y029003D01*
X030545Y029117D01*
X030501Y029221D01*
X030421Y029302D01*
X030316Y029345D01*
X030203Y029345D01*
X030098Y029302D01*
X030018Y029221D01*
X029975Y029117D01*
X029975Y029003D01*
X030018Y028899D01*
X030098Y028818D01*
X029975Y029011D02*
X021696Y029011D01*
X021561Y029169D02*
X029996Y029169D01*
X030161Y029328D02*
X029450Y029328D01*
X029441Y029318D02*
X029521Y029399D01*
X029565Y029503D01*
X029565Y029617D01*
X029521Y029721D01*
X029441Y029802D01*
X029336Y029845D01*
X029223Y029845D01*
X029118Y029802D01*
X029038Y029721D01*
X028995Y029617D01*
X028995Y029503D01*
X029038Y029399D01*
X029118Y029318D01*
X029223Y029275D01*
X029336Y029275D01*
X029441Y029318D01*
X029557Y029486D02*
X074680Y029486D01*
X074680Y029328D02*
X030358Y029328D01*
X030523Y029169D02*
X074680Y029169D01*
X074680Y029011D02*
X030545Y029011D01*
X030455Y028852D02*
X074680Y028852D01*
X074680Y029645D02*
X029553Y029645D01*
X029438Y029803D02*
X074680Y029803D01*
X074680Y029962D02*
X037169Y029962D01*
X037142Y029952D02*
X037204Y029973D01*
X037263Y030003D01*
X037316Y030041D01*
X037362Y030088D01*
X037401Y030141D01*
X037431Y030200D01*
X037451Y030262D01*
X037462Y030327D01*
X037462Y030360D01*
X037462Y030393D01*
X037451Y030458D01*
X037431Y030520D01*
X037401Y030579D01*
X037362Y030632D01*
X037316Y030679D01*
X037263Y030717D01*
X037204Y030747D01*
X037142Y030768D01*
X037077Y030778D01*
X037044Y030778D01*
X037044Y030360D01*
X037462Y030360D01*
X037044Y030360D01*
X037044Y030360D01*
X037044Y029942D01*
X037077Y029942D01*
X037142Y029952D01*
X037044Y029962D02*
X037044Y029962D01*
X037044Y029942D02*
X037044Y030360D01*
X037044Y030360D01*
X037044Y030360D01*
X037044Y030778D01*
X037011Y030778D01*
X036946Y030768D01*
X036883Y030747D01*
X036825Y030717D01*
X036772Y030679D01*
X036725Y030632D01*
X036686Y030579D01*
X036657Y030520D01*
X036636Y030458D01*
X036626Y030393D01*
X036626Y030360D01*
X036626Y030327D01*
X036636Y030262D01*
X036657Y030200D01*
X036686Y030141D01*
X036725Y030088D01*
X036772Y030041D01*
X036825Y030003D01*
X036883Y029973D01*
X036946Y029952D01*
X037011Y029942D01*
X037044Y029942D01*
X036918Y029962D02*
X011240Y029962D01*
X011240Y030120D02*
X034707Y030120D01*
X034707Y030068D02*
X034784Y029992D01*
X035367Y029992D01*
X035443Y030068D01*
X035443Y030652D01*
X035367Y030728D01*
X034784Y030728D01*
X034707Y030652D01*
X034707Y030068D01*
X034707Y030279D02*
X011240Y030279D01*
X011240Y030437D02*
X034707Y030437D01*
X034707Y030596D02*
X013857Y030596D01*
X013757Y030538D02*
X013992Y030673D01*
X014184Y030865D01*
X014319Y031100D01*
X014390Y031362D01*
X014390Y031633D01*
X014319Y031895D01*
X014184Y032130D01*
X013992Y032322D01*
X013757Y032457D01*
X013495Y032527D01*
X013224Y032527D01*
X012962Y032457D01*
X012727Y032322D01*
X012535Y032130D01*
X012400Y031895D01*
X012330Y031633D01*
X012330Y031362D01*
X012400Y031100D01*
X012535Y030865D01*
X012727Y030673D01*
X012962Y030538D01*
X013224Y030468D01*
X013495Y030468D01*
X013757Y030538D01*
X014073Y030754D02*
X036904Y030754D01*
X037044Y030754D02*
X037044Y030754D01*
X037183Y030754D02*
X074680Y030754D01*
X074680Y030596D02*
X037389Y030596D01*
X037455Y030437D02*
X074680Y030437D01*
X074680Y030279D02*
X037454Y030279D01*
X037386Y030120D02*
X074680Y030120D01*
X074680Y030913D02*
X019473Y030913D01*
X019471Y030909D02*
X019515Y031013D01*
X019515Y031127D01*
X019471Y031231D01*
X019391Y031312D01*
X019286Y031355D01*
X019173Y031355D01*
X019068Y031312D01*
X018988Y031231D01*
X018945Y031127D01*
X018945Y031013D01*
X018988Y030909D01*
X019068Y030828D01*
X019173Y030785D01*
X019286Y030785D01*
X019391Y030828D01*
X019471Y030909D01*
X019515Y031071D02*
X074680Y031071D01*
X074680Y031230D02*
X019472Y031230D01*
X018987Y031230D02*
X014354Y031230D01*
X014390Y031388D02*
X074680Y031388D01*
X074680Y031547D02*
X014390Y031547D01*
X014370Y031705D02*
X074680Y031705D01*
X074680Y031864D02*
X014328Y031864D01*
X014246Y032022D02*
X074680Y032022D01*
X074680Y032181D02*
X014133Y032181D01*
X013962Y032339D02*
X074680Y032339D01*
X074680Y032498D02*
X013607Y032498D01*
X013112Y032498D02*
X011240Y032498D01*
X011240Y032656D02*
X074680Y032656D01*
X074680Y032815D02*
X011240Y032815D01*
X011240Y032973D02*
X074680Y032973D01*
X074680Y033132D02*
X011240Y033132D01*
X011240Y033290D02*
X074680Y033290D01*
X074680Y033449D02*
X011240Y033449D01*
X011240Y033607D02*
X020258Y033607D01*
X020323Y033570D02*
X020611Y033493D01*
X020908Y033493D01*
X021196Y033570D01*
X021453Y033718D01*
X021664Y033929D01*
X021813Y034186D01*
X021890Y034474D01*
X021890Y034771D01*
X021813Y035059D01*
X021664Y035316D01*
X021453Y035527D01*
X021196Y035675D01*
X020908Y035752D01*
X020611Y035752D01*
X020323Y035675D01*
X020066Y035527D01*
X019855Y035316D01*
X019707Y035059D01*
X019630Y034771D01*
X019630Y034474D01*
X019707Y034186D01*
X019855Y033929D01*
X020066Y033718D01*
X020323Y033570D01*
X020018Y033766D02*
X011240Y033766D01*
X011240Y033924D02*
X019860Y033924D01*
X019766Y034083D02*
X011240Y034083D01*
X011240Y034241D02*
X019692Y034241D01*
X019649Y034400D02*
X011240Y034400D01*
X011240Y034558D02*
X019630Y034558D01*
X019630Y034717D02*
X011240Y034717D01*
X011240Y034875D02*
X019657Y034875D01*
X019700Y035034D02*
X011240Y035034D01*
X011240Y035192D02*
X019784Y035192D01*
X019890Y035351D02*
X011240Y035351D01*
X011240Y035509D02*
X020048Y035509D01*
X020310Y035668D02*
X011240Y035668D01*
X011240Y035826D02*
X028998Y035826D01*
X028995Y035817D02*
X028995Y035703D01*
X029038Y035599D01*
X029118Y035518D01*
X029223Y035475D01*
X029336Y035475D01*
X029441Y035518D01*
X029521Y035599D01*
X029565Y035703D01*
X029565Y035817D01*
X029521Y035921D01*
X029441Y036002D01*
X029336Y036045D01*
X029223Y036045D01*
X029118Y036002D01*
X029038Y035921D01*
X028995Y035817D01*
X029009Y035668D02*
X021209Y035668D01*
X021471Y035509D02*
X029141Y035509D01*
X029418Y035509D02*
X030116Y035509D01*
X030098Y035502D02*
X030018Y035421D01*
X029975Y035317D01*
X029975Y035203D01*
X030018Y035099D01*
X030098Y035018D01*
X030203Y034975D01*
X030316Y034975D01*
X030421Y035018D01*
X030501Y035099D01*
X030545Y035203D01*
X030545Y035317D01*
X030501Y035421D01*
X030421Y035502D01*
X030316Y035545D01*
X030203Y035545D01*
X030098Y035502D01*
X029989Y035351D02*
X021630Y035351D01*
X021735Y035192D02*
X029979Y035192D01*
X030083Y035034D02*
X021819Y035034D01*
X021862Y034875D02*
X074680Y034875D01*
X074680Y034717D02*
X021890Y034717D01*
X021890Y034558D02*
X074680Y034558D01*
X074680Y034400D02*
X021870Y034400D01*
X021827Y034241D02*
X074680Y034241D01*
X074680Y034083D02*
X021753Y034083D01*
X021659Y033924D02*
X074680Y033924D01*
X074680Y033766D02*
X021501Y033766D01*
X021261Y033607D02*
X074680Y033607D01*
X074680Y035034D02*
X030436Y035034D01*
X030540Y035192D02*
X074680Y035192D01*
X074680Y035351D02*
X037129Y035351D01*
X037142Y035352D02*
X037204Y035373D01*
X037263Y035403D01*
X037316Y035441D01*
X037362Y035488D01*
X037401Y035541D01*
X037431Y035600D01*
X037451Y035662D01*
X037462Y035727D01*
X037462Y035760D01*
X037462Y035793D01*
X037451Y035858D01*
X037431Y035920D01*
X037401Y035979D01*
X037362Y036032D01*
X037316Y036079D01*
X037263Y036117D01*
X037204Y036147D01*
X037142Y036168D01*
X037077Y036178D01*
X037044Y036178D01*
X037044Y035760D01*
X037462Y035760D01*
X037044Y035760D01*
X037044Y035760D01*
X037044Y035342D01*
X037077Y035342D01*
X037142Y035352D01*
X037044Y035351D02*
X037044Y035351D01*
X037044Y035342D02*
X037044Y035760D01*
X037044Y035760D01*
X037044Y035760D01*
X037044Y036178D01*
X037011Y036178D01*
X036946Y036168D01*
X036883Y036147D01*
X036825Y036117D01*
X036772Y036079D01*
X036725Y036032D01*
X036686Y035979D01*
X036657Y035920D01*
X036636Y035858D01*
X036626Y035793D01*
X036626Y035760D01*
X036626Y035727D01*
X036636Y035662D01*
X036657Y035600D01*
X036686Y035541D01*
X036725Y035488D01*
X036772Y035441D01*
X036825Y035403D01*
X036883Y035373D01*
X036946Y035352D01*
X037011Y035342D01*
X037044Y035342D01*
X036958Y035351D02*
X030530Y035351D01*
X030403Y035509D02*
X034707Y035509D01*
X034707Y035468D02*
X034784Y035392D01*
X035367Y035392D01*
X035443Y035468D01*
X035443Y036052D01*
X035367Y036128D01*
X034784Y036128D01*
X034707Y036052D01*
X034707Y035468D01*
X034707Y035668D02*
X029550Y035668D01*
X029561Y035826D02*
X034707Y035826D01*
X034707Y035985D02*
X029458Y035985D01*
X029101Y035985D02*
X011240Y035985D01*
X011240Y036143D02*
X036875Y036143D01*
X037044Y036143D02*
X037044Y036143D01*
X037044Y035985D02*
X037044Y035985D01*
X037044Y035826D02*
X037044Y035826D01*
X037044Y035760D02*
X037044Y035760D01*
X036626Y035760D01*
X037044Y035760D01*
X037044Y035668D02*
X037044Y035668D01*
X037044Y035509D02*
X037044Y035509D01*
X037378Y035509D02*
X074680Y035509D01*
X074680Y035668D02*
X037452Y035668D01*
X037456Y035826D02*
X074680Y035826D01*
X074680Y035985D02*
X037397Y035985D01*
X037212Y036143D02*
X074680Y036143D01*
X074680Y036302D02*
X011240Y036302D01*
X011240Y036460D02*
X074680Y036460D01*
X074680Y036619D02*
X011240Y036619D01*
X011240Y036777D02*
X013002Y036777D01*
X012962Y036788D02*
X013224Y036718D01*
X013495Y036718D01*
X013757Y036788D01*
X013992Y036923D01*
X014184Y037115D01*
X014319Y037350D01*
X014390Y037612D01*
X014390Y037883D01*
X014319Y038145D01*
X014184Y038380D01*
X013992Y038572D01*
X013757Y038707D01*
X013495Y038777D01*
X013224Y038777D01*
X012962Y038707D01*
X012727Y038572D01*
X012535Y038380D01*
X012400Y038145D01*
X012330Y037883D01*
X012330Y037612D01*
X012400Y037350D01*
X012535Y037115D01*
X012727Y036923D01*
X012962Y036788D01*
X012715Y036936D02*
X011240Y036936D01*
X011240Y037094D02*
X012556Y037094D01*
X012456Y037253D02*
X011240Y037253D01*
X011240Y037411D02*
X012383Y037411D01*
X012341Y037570D02*
X011240Y037570D01*
X011240Y037728D02*
X012330Y037728D01*
X012330Y037887D02*
X011240Y037887D01*
X011240Y038045D02*
X012373Y038045D01*
X012433Y038204D02*
X011240Y038204D01*
X011240Y038362D02*
X012525Y038362D01*
X012676Y038521D02*
X011240Y038521D01*
X011240Y038679D02*
X012913Y038679D01*
X013806Y038679D02*
X074680Y038679D01*
X074680Y038521D02*
X014043Y038521D01*
X014194Y038362D02*
X074680Y038362D01*
X074680Y038204D02*
X014286Y038204D01*
X014346Y038045D02*
X048630Y038045D01*
X048716Y038081D02*
X048451Y037971D01*
X048249Y037768D01*
X048139Y037503D01*
X048139Y037217D01*
X048249Y036952D01*
X048451Y036749D01*
X048716Y036639D01*
X049003Y036639D01*
X049268Y036749D01*
X049470Y036952D01*
X049580Y037217D01*
X049580Y037503D01*
X049470Y037768D01*
X049268Y037971D01*
X049003Y038081D01*
X048716Y038081D01*
X049089Y038045D02*
X063780Y038045D01*
X063866Y038081D02*
X063601Y037971D01*
X063399Y037768D01*
X063289Y037503D01*
X063289Y037217D01*
X063399Y036952D01*
X063601Y036749D01*
X063866Y036639D01*
X064153Y036639D01*
X064418Y036749D01*
X064620Y036952D01*
X064730Y037217D01*
X064730Y037503D01*
X064620Y037768D01*
X064418Y037971D01*
X064153Y038081D01*
X063866Y038081D01*
X064239Y038045D02*
X074680Y038045D01*
X074680Y037887D02*
X064502Y037887D01*
X064637Y037728D02*
X074680Y037728D01*
X074680Y037570D02*
X064703Y037570D01*
X064730Y037411D02*
X074680Y037411D01*
X074680Y037253D02*
X064730Y037253D01*
X064679Y037094D02*
X074680Y037094D01*
X074680Y036936D02*
X064604Y036936D01*
X064446Y036777D02*
X074680Y036777D01*
X074680Y038838D02*
X011240Y038838D01*
X011240Y038996D02*
X074680Y038996D01*
X074680Y039155D02*
X011240Y039155D01*
X011240Y039313D02*
X074680Y039313D01*
X074680Y039472D02*
X011240Y039472D01*
X011240Y039630D02*
X071926Y039630D01*
X071998Y039600D02*
X072321Y039600D01*
X072618Y039723D01*
X072846Y039951D01*
X072969Y040249D01*
X072969Y040571D01*
X072846Y040869D01*
X072618Y041097D01*
X072321Y041220D01*
X071998Y041220D01*
X071701Y041097D01*
X071473Y040869D01*
X071350Y040571D01*
X071350Y040249D01*
X071473Y039951D01*
X071701Y039723D01*
X071998Y039600D01*
X072393Y039630D02*
X074680Y039630D01*
X074680Y039789D02*
X072683Y039789D01*
X072842Y039947D02*
X074680Y039947D01*
X074680Y040106D02*
X072910Y040106D01*
X072969Y040264D02*
X074680Y040264D01*
X074680Y040423D02*
X072969Y040423D01*
X072965Y040581D02*
X074680Y040581D01*
X074680Y040740D02*
X072900Y040740D01*
X072817Y040898D02*
X074680Y040898D01*
X074680Y041057D02*
X072658Y041057D01*
X072332Y041215D02*
X074680Y041215D01*
X074680Y041374D02*
X069086Y041374D01*
X069086Y041325D02*
X069021Y041168D01*
X068901Y041048D01*
X068744Y040983D01*
X068575Y040983D01*
X068418Y041048D01*
X068298Y041168D01*
X068233Y041325D01*
X068233Y041495D01*
X068298Y041652D01*
X068418Y041772D01*
X068575Y041837D01*
X068744Y041837D01*
X068901Y041772D01*
X069021Y041652D01*
X069086Y041495D01*
X069086Y041325D01*
X069041Y041215D02*
X069233Y041215D01*
X069233Y041261D02*
X069233Y040559D01*
X069309Y040483D01*
X070010Y040483D01*
X070086Y040559D01*
X070086Y041261D01*
X070010Y041337D01*
X069309Y041337D01*
X069233Y041261D01*
X069233Y041057D02*
X068910Y041057D01*
X069233Y040898D02*
X021890Y040898D01*
X021890Y041021D02*
X021813Y041309D01*
X021664Y041566D01*
X021453Y041777D01*
X021196Y041925D01*
X020908Y042002D01*
X020611Y042002D01*
X020323Y041925D01*
X020066Y041777D01*
X019855Y041566D01*
X019707Y041309D01*
X019630Y041021D01*
X019630Y040724D01*
X019707Y040436D01*
X019855Y040179D01*
X020066Y039968D01*
X020323Y039820D01*
X020611Y039743D01*
X020908Y039743D01*
X021196Y039820D01*
X021453Y039968D01*
X021664Y040179D01*
X021813Y040436D01*
X021890Y040724D01*
X021890Y041021D01*
X021880Y041057D02*
X068409Y041057D01*
X068278Y041215D02*
X030413Y041215D01*
X030421Y041218D02*
X030501Y041299D01*
X030545Y041403D01*
X030545Y041517D01*
X030501Y041621D01*
X030421Y041702D01*
X030316Y041745D01*
X030203Y041745D01*
X030098Y041702D01*
X030018Y041621D01*
X029975Y041517D01*
X029975Y041403D01*
X030018Y041299D01*
X030098Y041218D01*
X030203Y041175D01*
X030316Y041175D01*
X030421Y041218D01*
X030532Y041374D02*
X068233Y041374D01*
X068248Y041532D02*
X030538Y041532D01*
X030432Y041691D02*
X040582Y041691D01*
X040608Y041682D02*
X040700Y041668D01*
X041102Y041668D01*
X041102Y042202D01*
X041217Y042202D01*
X041217Y041668D01*
X041619Y041668D01*
X041711Y041682D01*
X041799Y041711D01*
X041883Y041753D01*
X041958Y041808D01*
X042024Y041874D01*
X042079Y041949D01*
X042121Y042033D01*
X042150Y042121D01*
X042163Y042202D01*
X041217Y042202D01*
X041217Y042318D01*
X041102Y042318D01*
X041102Y042852D01*
X040700Y042852D01*
X040608Y042838D01*
X040520Y042809D01*
X040436Y042767D01*
X040361Y042712D01*
X040295Y042646D01*
X040240Y042571D01*
X040198Y042487D01*
X040169Y042399D01*
X040156Y042318D01*
X041102Y042318D01*
X041102Y042202D01*
X040156Y042202D01*
X040169Y042121D01*
X040198Y042033D01*
X040240Y041949D01*
X040295Y041874D01*
X040361Y041808D01*
X040436Y041753D01*
X040520Y041711D01*
X040608Y041682D01*
X040320Y041849D02*
X034928Y041849D01*
X034879Y041800D02*
X035032Y041953D01*
X035115Y042152D01*
X035115Y042368D01*
X035032Y042567D01*
X034879Y042720D01*
X034680Y042802D01*
X033639Y042802D01*
X033440Y042720D01*
X033287Y042567D01*
X033205Y042368D01*
X033205Y042152D01*
X033287Y041953D01*
X033440Y041800D01*
X033639Y041718D01*
X034680Y041718D01*
X034879Y041800D01*
X035055Y042008D02*
X040211Y042008D01*
X040162Y042166D02*
X035115Y042166D01*
X035115Y042325D02*
X040157Y042325D01*
X040196Y042483D02*
X035067Y042483D01*
X034958Y042642D02*
X040292Y042642D01*
X040502Y042800D02*
X034686Y042800D01*
X033633Y042800D02*
X011240Y042800D01*
X011240Y042642D02*
X033361Y042642D01*
X033252Y042483D02*
X011240Y042483D01*
X011240Y042325D02*
X033205Y042325D01*
X033205Y042166D02*
X029477Y042166D01*
X029441Y042202D02*
X029336Y042245D01*
X029223Y042245D01*
X029118Y042202D01*
X029038Y042121D01*
X028995Y042017D01*
X028995Y041903D01*
X029038Y041799D01*
X029118Y041718D01*
X029223Y041675D01*
X029336Y041675D01*
X029441Y041718D01*
X029521Y041799D01*
X029565Y041903D01*
X029565Y042017D01*
X029521Y042121D01*
X029441Y042202D01*
X029565Y042008D02*
X033264Y042008D01*
X033391Y041849D02*
X029542Y041849D01*
X029374Y041691D02*
X030087Y041691D01*
X029981Y041532D02*
X021684Y041532D01*
X021775Y041374D02*
X029987Y041374D01*
X030106Y041215D02*
X021838Y041215D01*
X021890Y040740D02*
X069233Y040740D01*
X069233Y040581D02*
X021851Y040581D01*
X021805Y040423D02*
X071350Y040423D01*
X071354Y040581D02*
X070086Y040581D01*
X070086Y040740D02*
X071419Y040740D01*
X071502Y040898D02*
X070086Y040898D01*
X070086Y041057D02*
X071661Y041057D01*
X071987Y041215D02*
X070086Y041215D01*
X069901Y041548D02*
X070021Y041668D01*
X070086Y041825D01*
X070086Y041995D01*
X070021Y042152D01*
X069901Y042272D01*
X069744Y042337D01*
X069575Y042337D01*
X069418Y042272D01*
X069298Y042152D01*
X069233Y041995D01*
X069233Y041825D01*
X069298Y041668D01*
X069418Y041548D01*
X069575Y041483D01*
X069744Y041483D01*
X069901Y041548D01*
X069862Y041532D02*
X074680Y041532D01*
X074680Y041691D02*
X070031Y041691D01*
X070086Y041849D02*
X074680Y041849D01*
X074680Y042008D02*
X070081Y042008D01*
X070007Y042166D02*
X074680Y042166D01*
X074680Y042325D02*
X069774Y042325D01*
X069744Y042483D02*
X069901Y042548D01*
X070021Y042668D01*
X070086Y042825D01*
X070086Y042995D01*
X070021Y043152D01*
X069901Y043272D01*
X069744Y043337D01*
X069575Y043337D01*
X069418Y043272D01*
X069298Y043152D01*
X069233Y042995D01*
X069233Y042825D01*
X069298Y042668D01*
X069418Y042548D01*
X069575Y042483D01*
X069744Y042483D01*
X069545Y042325D02*
X069086Y042325D01*
X069021Y042168D01*
X068901Y042048D01*
X068744Y041983D01*
X068575Y041983D01*
X068418Y042048D01*
X068298Y042168D01*
X068233Y042325D01*
X068233Y042495D01*
X068298Y042652D01*
X068418Y042772D01*
X068575Y042837D01*
X068744Y042837D01*
X068901Y042772D01*
X069021Y042652D01*
X069086Y042495D01*
X069086Y042325D01*
X069086Y042483D02*
X074680Y042483D01*
X074680Y042642D02*
X069995Y042642D01*
X070076Y042800D02*
X074680Y042800D01*
X074680Y042959D02*
X070086Y042959D01*
X070036Y043117D02*
X074680Y043117D01*
X074680Y043276D02*
X069892Y043276D01*
X069843Y043468D02*
X069909Y043502D01*
X069970Y043546D01*
X070023Y043599D01*
X070067Y043660D01*
X070101Y043727D01*
X070125Y043798D01*
X070136Y043872D01*
X070136Y043892D01*
X069678Y043892D01*
X069678Y043928D01*
X070136Y043928D01*
X070136Y043948D01*
X070125Y044022D01*
X070101Y044093D01*
X070067Y044160D01*
X070023Y044221D01*
X069970Y044274D01*
X069909Y044318D01*
X069843Y044352D01*
X069771Y044375D01*
X069697Y044387D01*
X069678Y044387D01*
X069678Y043928D01*
X069641Y043928D01*
X069641Y043892D01*
X069183Y043892D01*
X069183Y043872D01*
X069194Y043798D01*
X069218Y043727D01*
X069252Y043660D01*
X069296Y043599D01*
X069349Y043546D01*
X069410Y043502D01*
X069476Y043468D01*
X069548Y043445D01*
X069622Y043433D01*
X069641Y043433D01*
X069641Y043892D01*
X069678Y043892D01*
X069678Y043433D01*
X069697Y043433D01*
X069771Y043445D01*
X069843Y043468D01*
X069703Y043434D02*
X074680Y043434D01*
X074680Y043593D02*
X070016Y043593D01*
X070109Y043751D02*
X074680Y043751D01*
X074680Y043910D02*
X069678Y043910D01*
X069641Y043910D02*
X014390Y043910D01*
X014390Y043862D02*
X014319Y043600D01*
X014184Y043365D01*
X013992Y043173D01*
X013757Y043038D01*
X013495Y042968D01*
X013224Y042968D01*
X012962Y043038D01*
X012727Y043173D01*
X012535Y043365D01*
X012400Y043600D01*
X012330Y043862D01*
X012330Y044133D01*
X012400Y044395D01*
X012535Y044630D01*
X012727Y044822D01*
X012962Y044957D01*
X013224Y045027D01*
X013495Y045027D01*
X013757Y044957D01*
X013992Y044822D01*
X014184Y044630D01*
X014319Y044395D01*
X014390Y044133D01*
X014390Y043862D01*
X014360Y043751D02*
X019163Y043751D01*
X019173Y043755D02*
X019068Y043712D01*
X018988Y043631D01*
X018945Y043527D01*
X018945Y043413D01*
X018988Y043309D01*
X019068Y043228D01*
X019173Y043185D01*
X019286Y043185D01*
X019391Y043228D01*
X019471Y043309D01*
X019515Y043413D01*
X019515Y043527D01*
X019471Y043631D01*
X019391Y043712D01*
X019286Y043755D01*
X019173Y043755D01*
X019296Y043751D02*
X068397Y043751D01*
X068418Y043772D02*
X068298Y043652D01*
X068233Y043495D01*
X068233Y043325D01*
X068298Y043168D01*
X068418Y043048D01*
X068575Y042983D01*
X068744Y042983D01*
X068901Y043048D01*
X069021Y043168D01*
X069086Y043325D01*
X069086Y043495D01*
X069021Y043652D01*
X068901Y043772D01*
X068744Y043837D01*
X068575Y043837D01*
X068418Y043772D01*
X068476Y043968D02*
X068548Y043945D01*
X068622Y043933D01*
X068641Y043933D01*
X068641Y044392D01*
X068183Y044392D01*
X068183Y044372D01*
X068194Y044298D01*
X068218Y044227D01*
X068252Y044160D01*
X068296Y044099D01*
X068349Y044046D01*
X068410Y044002D01*
X068476Y043968D01*
X068327Y044068D02*
X014390Y044068D01*
X014364Y044227D02*
X068218Y044227D01*
X068183Y044385D02*
X014322Y044385D01*
X014234Y044544D02*
X068202Y044544D01*
X068194Y044522D02*
X068183Y044448D01*
X068183Y044428D01*
X068641Y044428D01*
X068641Y044392D01*
X068678Y044392D01*
X068678Y044428D01*
X069136Y044428D01*
X069136Y044448D01*
X069125Y044522D01*
X069101Y044593D01*
X069067Y044660D01*
X069023Y044721D01*
X068970Y044774D01*
X068909Y044818D01*
X068843Y044852D01*
X068771Y044875D01*
X068697Y044887D01*
X068678Y044887D01*
X068678Y044428D01*
X068641Y044428D01*
X068641Y044887D01*
X068622Y044887D01*
X068548Y044875D01*
X068476Y044852D01*
X068410Y044818D01*
X068349Y044774D01*
X068296Y044721D01*
X068252Y044660D01*
X068218Y044593D01*
X068194Y044522D01*
X068282Y044702D02*
X014112Y044702D01*
X013925Y044861D02*
X068503Y044861D01*
X068641Y044861D02*
X068678Y044861D01*
X068816Y044861D02*
X071350Y044861D01*
X071350Y044749D02*
X071473Y044451D01*
X071701Y044223D01*
X071998Y044100D01*
X072321Y044100D01*
X072618Y044223D01*
X072846Y044451D01*
X072969Y044749D01*
X072969Y045071D01*
X072846Y045369D01*
X072618Y045597D01*
X072321Y045720D01*
X071998Y045720D01*
X071701Y045597D01*
X071473Y045369D01*
X071350Y045071D01*
X071350Y044749D01*
X071369Y044702D02*
X069037Y044702D01*
X069118Y044544D02*
X071435Y044544D01*
X071539Y044385D02*
X069708Y044385D01*
X069678Y044385D02*
X069641Y044385D01*
X069641Y044387D02*
X069622Y044387D01*
X069548Y044375D01*
X069476Y044352D01*
X069410Y044318D01*
X069349Y044274D01*
X069296Y044221D01*
X069252Y044160D01*
X069218Y044093D01*
X069194Y044022D01*
X069183Y043948D01*
X069183Y043928D01*
X069641Y043928D01*
X069641Y044387D01*
X069611Y044385D02*
X069136Y044385D01*
X069136Y044392D02*
X068678Y044392D01*
X068678Y043933D01*
X068697Y043933D01*
X068771Y043945D01*
X068843Y043968D01*
X068909Y044002D01*
X068970Y044046D01*
X069023Y044099D01*
X069067Y044160D01*
X069101Y044227D01*
X069125Y044298D01*
X069136Y044372D01*
X069136Y044392D01*
X069101Y044227D02*
X069302Y044227D01*
X069209Y044068D02*
X068992Y044068D01*
X068678Y044068D02*
X068641Y044068D01*
X068641Y044227D02*
X068678Y044227D01*
X068678Y044385D02*
X068641Y044385D01*
X068641Y044544D02*
X068678Y044544D01*
X068678Y044702D02*
X068641Y044702D01*
X068922Y043751D02*
X069210Y043751D01*
X069303Y043593D02*
X069046Y043593D01*
X069086Y043434D02*
X069616Y043434D01*
X069641Y043434D02*
X069678Y043434D01*
X069678Y043593D02*
X069641Y043593D01*
X069641Y043751D02*
X069678Y043751D01*
X069678Y044068D02*
X069641Y044068D01*
X069641Y044227D02*
X069678Y044227D01*
X070017Y044227D02*
X071698Y044227D01*
X071350Y045019D02*
X013527Y045019D01*
X013192Y045019D02*
X011240Y045019D01*
X011240Y044861D02*
X012794Y044861D01*
X012607Y044702D02*
X011240Y044702D01*
X011240Y044544D02*
X012485Y044544D01*
X012397Y044385D02*
X011240Y044385D01*
X011240Y044227D02*
X012355Y044227D01*
X012330Y044068D02*
X011240Y044068D01*
X011240Y043910D02*
X012330Y043910D01*
X012359Y043751D02*
X011240Y043751D01*
X011240Y043593D02*
X012404Y043593D01*
X012495Y043434D02*
X011240Y043434D01*
X011240Y043276D02*
X012625Y043276D01*
X012824Y043117D02*
X011240Y043117D01*
X011240Y042959D02*
X069233Y042959D01*
X069243Y042800D02*
X068833Y042800D01*
X069026Y042642D02*
X069324Y042642D01*
X069312Y042166D02*
X069019Y042166D01*
X068803Y042008D02*
X069238Y042008D01*
X069233Y041849D02*
X041999Y041849D01*
X042108Y042008D02*
X068516Y042008D01*
X068300Y042166D02*
X042157Y042166D01*
X042163Y042318D02*
X041217Y042318D01*
X041217Y042852D01*
X041619Y042852D01*
X041711Y042838D01*
X041799Y042809D01*
X041883Y042767D01*
X041958Y042712D01*
X042024Y042646D01*
X042079Y042571D01*
X042121Y042487D01*
X042150Y042399D01*
X042163Y042318D01*
X042162Y042325D02*
X068233Y042325D01*
X068233Y042483D02*
X042123Y042483D01*
X042027Y042642D02*
X068293Y042642D01*
X068486Y042800D02*
X041817Y042800D01*
X041217Y042800D02*
X041102Y042800D01*
X041102Y042642D02*
X041217Y042642D01*
X041217Y042483D02*
X041102Y042483D01*
X041102Y042325D02*
X041217Y042325D01*
X041217Y042166D02*
X041102Y042166D01*
X041102Y042008D02*
X041217Y042008D01*
X041217Y041849D02*
X041102Y041849D01*
X041102Y041691D02*
X041217Y041691D01*
X041737Y041691D02*
X068336Y041691D01*
X068983Y041691D02*
X069288Y041691D01*
X069457Y041532D02*
X069071Y041532D01*
X068970Y043117D02*
X069283Y043117D01*
X069427Y043276D02*
X069066Y043276D01*
X068349Y043117D02*
X013895Y043117D01*
X014094Y043276D02*
X019021Y043276D01*
X018945Y043434D02*
X014224Y043434D01*
X014315Y043593D02*
X018972Y043593D01*
X019487Y043593D02*
X068273Y043593D01*
X068233Y043434D02*
X019515Y043434D01*
X019438Y043276D02*
X068253Y043276D01*
X070110Y044068D02*
X074680Y044068D01*
X074680Y044227D02*
X072621Y044227D01*
X072780Y044385D02*
X074680Y044385D01*
X074680Y044544D02*
X072884Y044544D01*
X072950Y044702D02*
X074680Y044702D01*
X074680Y044861D02*
X072969Y044861D01*
X072969Y045019D02*
X074680Y045019D01*
X074680Y045178D02*
X072925Y045178D01*
X072860Y045336D02*
X074680Y045336D01*
X074680Y045495D02*
X072720Y045495D01*
X072482Y045653D02*
X074680Y045653D01*
X074680Y045812D02*
X011240Y045812D01*
X011240Y045970D02*
X074680Y045970D01*
X074680Y046129D02*
X021298Y046129D01*
X021196Y046070D02*
X021453Y046218D01*
X021664Y046429D01*
X021813Y046686D01*
X021890Y046974D01*
X021890Y047271D01*
X021813Y047559D01*
X021664Y047816D01*
X021453Y048027D01*
X021196Y048175D01*
X020908Y048252D01*
X020611Y048252D01*
X020323Y048175D01*
X020066Y048027D01*
X019855Y047816D01*
X019707Y047559D01*
X019630Y047271D01*
X019630Y046974D01*
X019707Y046686D01*
X019855Y046429D01*
X020066Y046218D01*
X020323Y046070D01*
X020611Y045993D01*
X020908Y045993D01*
X021196Y046070D01*
X021522Y046287D02*
X074680Y046287D01*
X074680Y046446D02*
X021673Y046446D01*
X021765Y046604D02*
X045947Y046604D01*
X045927Y046612D02*
X046078Y046550D01*
X046241Y046550D01*
X046392Y046612D01*
X046507Y046728D01*
X046570Y046878D01*
X046570Y047042D01*
X046507Y047192D01*
X046392Y047308D01*
X046241Y047370D01*
X046078Y047370D01*
X045927Y047308D01*
X045812Y047192D01*
X045750Y047042D01*
X045750Y046878D01*
X045812Y046728D01*
X045927Y046612D01*
X045798Y046763D02*
X021833Y046763D01*
X021875Y046921D02*
X045750Y046921D01*
X045765Y047080D02*
X021890Y047080D01*
X021890Y047238D02*
X045858Y047238D01*
X045983Y047534D02*
X046052Y047511D01*
X046123Y047500D01*
X046160Y047500D01*
X046196Y047500D01*
X046267Y047511D01*
X046336Y047534D01*
X046401Y047567D01*
X046459Y047609D01*
X046510Y047660D01*
X046553Y047719D01*
X046586Y047783D01*
X046608Y047852D01*
X046620Y047924D01*
X046620Y047960D01*
X046620Y047996D01*
X046608Y048068D01*
X046586Y048137D01*
X046553Y048201D01*
X046510Y048260D01*
X046459Y048311D01*
X046401Y048353D01*
X046336Y048386D01*
X046267Y048409D01*
X046196Y048420D01*
X046160Y048420D01*
X046160Y047960D01*
X046620Y047960D01*
X046160Y047960D01*
X046160Y047960D01*
X046160Y047960D01*
X046160Y047500D01*
X046160Y047960D01*
X046160Y047960D01*
X046160Y048420D01*
X046123Y048420D01*
X046052Y048409D01*
X045983Y048386D01*
X045918Y048353D01*
X045860Y048311D01*
X045809Y048260D01*
X045766Y048201D01*
X045733Y048137D01*
X045711Y048068D01*
X045700Y047996D01*
X045700Y047960D01*
X045700Y047924D01*
X045711Y047852D01*
X045733Y047783D01*
X045766Y047719D01*
X045809Y047660D01*
X045860Y047609D01*
X045918Y047567D01*
X045983Y047534D01*
X045941Y047555D02*
X030525Y047555D01*
X030545Y047603D02*
X030501Y047499D01*
X030421Y047418D01*
X030316Y047375D01*
X030203Y047375D01*
X030098Y047418D01*
X030018Y047499D01*
X029975Y047603D01*
X029975Y047717D01*
X030018Y047821D01*
X030098Y047902D01*
X030203Y047945D01*
X030316Y047945D01*
X030421Y047902D01*
X030501Y047821D01*
X030545Y047717D01*
X030545Y047603D01*
X030545Y047714D02*
X045770Y047714D01*
X045708Y047872D02*
X030450Y047872D01*
X030069Y047872D02*
X021608Y047872D01*
X021723Y047714D02*
X029975Y047714D01*
X029994Y047555D02*
X021813Y047555D01*
X021856Y047397D02*
X030151Y047397D01*
X030368Y047397D02*
X074680Y047397D01*
X074680Y047555D02*
X046378Y047555D01*
X046160Y047555D02*
X046160Y047555D01*
X046160Y047714D02*
X046160Y047714D01*
X046160Y047872D02*
X046160Y047872D01*
X046160Y047960D02*
X045700Y047960D01*
X046160Y047960D01*
X046160Y047960D01*
X046160Y048031D02*
X046160Y048031D01*
X046160Y048189D02*
X046160Y048189D01*
X046160Y048348D02*
X046160Y048348D01*
X046241Y048550D02*
X046392Y048612D01*
X046507Y048728D01*
X046570Y048878D01*
X046570Y049042D01*
X046507Y049192D01*
X046392Y049308D01*
X046241Y049370D01*
X046078Y049370D01*
X045927Y049308D01*
X045812Y049192D01*
X045750Y049042D01*
X045750Y048878D01*
X045812Y048728D01*
X045927Y048612D01*
X046078Y048550D01*
X046241Y048550D01*
X046444Y048665D02*
X074680Y048665D01*
X074680Y048823D02*
X046547Y048823D01*
X046570Y048982D02*
X074680Y048982D01*
X074680Y049140D02*
X046529Y049140D01*
X046401Y049299D02*
X074680Y049299D01*
X074680Y049457D02*
X019420Y049457D01*
X019391Y049428D02*
X019471Y049509D01*
X019515Y049613D01*
X019515Y049727D01*
X019471Y049831D01*
X019391Y049912D01*
X019286Y049955D01*
X019173Y049955D01*
X019068Y049912D01*
X018988Y049831D01*
X018945Y049727D01*
X018945Y049613D01*
X018988Y049509D01*
X019068Y049428D01*
X019173Y049385D01*
X019286Y049385D01*
X019391Y049428D01*
X019515Y049616D02*
X074680Y049616D01*
X074680Y049774D02*
X019495Y049774D01*
X019340Y049933D02*
X074680Y049933D01*
X074680Y050091D02*
X014384Y050091D01*
X014390Y050112D02*
X014319Y049850D01*
X014184Y049615D01*
X013992Y049423D01*
X013757Y049288D01*
X013495Y049218D01*
X013224Y049218D01*
X012962Y049288D01*
X012727Y049423D01*
X012535Y049615D01*
X012400Y049850D01*
X012330Y050112D01*
X012330Y050383D01*
X012400Y050645D01*
X012535Y050880D01*
X012727Y051072D01*
X012962Y051207D01*
X013224Y051277D01*
X013495Y051277D01*
X013757Y051207D01*
X013992Y051072D01*
X014184Y050880D01*
X014319Y050645D01*
X014390Y050383D01*
X014390Y050112D01*
X014390Y050250D02*
X074680Y050250D01*
X074680Y050408D02*
X014383Y050408D01*
X014340Y050567D02*
X074680Y050567D01*
X074680Y050725D02*
X014273Y050725D01*
X014180Y050884D02*
X074680Y050884D01*
X074680Y051042D02*
X014022Y051042D01*
X013769Y051201D02*
X045956Y051201D01*
X045927Y051212D02*
X046078Y051150D01*
X046241Y051150D01*
X046392Y051212D01*
X046507Y051328D01*
X046570Y051478D01*
X046570Y051642D01*
X046507Y051792D01*
X046392Y051908D01*
X046241Y051970D01*
X046078Y051970D01*
X045927Y051908D01*
X045812Y051792D01*
X045750Y051642D01*
X045750Y051478D01*
X045812Y051328D01*
X045927Y051212D01*
X045799Y051359D02*
X011240Y051359D01*
X011240Y051201D02*
X012950Y051201D01*
X012697Y051042D02*
X011240Y051042D01*
X011240Y050884D02*
X012539Y050884D01*
X012446Y050725D02*
X011240Y050725D01*
X011240Y050567D02*
X012379Y050567D01*
X012336Y050408D02*
X011240Y050408D01*
X011240Y050250D02*
X012330Y050250D01*
X012335Y050091D02*
X011240Y050091D01*
X011240Y049933D02*
X012378Y049933D01*
X012444Y049774D02*
X011240Y049774D01*
X011240Y049616D02*
X012535Y049616D01*
X012693Y049457D02*
X011240Y049457D01*
X011240Y049299D02*
X012943Y049299D01*
X013776Y049299D02*
X045918Y049299D01*
X045790Y049140D02*
X011240Y049140D01*
X011240Y048982D02*
X045750Y048982D01*
X045772Y048823D02*
X011240Y048823D01*
X011240Y048665D02*
X045875Y048665D01*
X045910Y048348D02*
X029495Y048348D01*
X029521Y048321D02*
X029441Y048402D01*
X029336Y048445D01*
X029223Y048445D01*
X029118Y048402D01*
X029038Y048321D01*
X028995Y048217D01*
X028995Y048103D01*
X029038Y047999D01*
X029118Y047918D01*
X029223Y047875D01*
X029336Y047875D01*
X029441Y047918D01*
X029521Y047999D01*
X029565Y048103D01*
X029565Y048217D01*
X029521Y048321D01*
X029565Y048189D02*
X045760Y048189D01*
X045705Y048031D02*
X029534Y048031D01*
X029025Y048031D02*
X021447Y048031D01*
X021145Y048189D02*
X028995Y048189D01*
X029064Y048348D02*
X011240Y048348D01*
X011240Y048506D02*
X074680Y048506D01*
X074680Y048348D02*
X046409Y048348D01*
X046559Y048189D02*
X074680Y048189D01*
X074680Y048031D02*
X046614Y048031D01*
X046611Y047872D02*
X074680Y047872D01*
X074680Y047714D02*
X046549Y047714D01*
X046461Y047238D02*
X074680Y047238D01*
X074680Y047080D02*
X046554Y047080D01*
X046570Y046921D02*
X074680Y046921D01*
X074680Y046763D02*
X046522Y046763D01*
X046372Y046604D02*
X074680Y046604D01*
X071837Y045653D02*
X011240Y045653D01*
X011240Y045495D02*
X071599Y045495D01*
X071459Y045336D02*
X011240Y045336D01*
X011240Y045178D02*
X071394Y045178D01*
X071350Y040264D02*
X021713Y040264D01*
X021591Y040106D02*
X071409Y040106D01*
X071477Y039947D02*
X021417Y039947D01*
X021080Y039789D02*
X071636Y039789D01*
X063517Y037887D02*
X049352Y037887D01*
X049487Y037728D02*
X063382Y037728D01*
X063316Y037570D02*
X049553Y037570D01*
X049580Y037411D02*
X063289Y037411D01*
X063289Y037253D02*
X049580Y037253D01*
X049529Y037094D02*
X063340Y037094D01*
X063415Y036936D02*
X049454Y036936D01*
X049296Y036777D02*
X063573Y036777D01*
X067860Y027960D02*
X068010Y027960D01*
X066680Y017757D02*
X064339Y017757D01*
X064301Y017796D02*
X064112Y017874D01*
X063907Y017874D01*
X063718Y017796D01*
X063574Y017651D01*
X063496Y017462D01*
X063496Y017258D01*
X063574Y017069D01*
X063718Y016924D01*
X063907Y016846D01*
X064112Y016846D01*
X064301Y016924D01*
X064445Y017069D01*
X064523Y017258D01*
X064523Y017462D01*
X064445Y017651D01*
X064301Y017796D01*
X064467Y017599D02*
X066552Y017599D01*
X066496Y017440D02*
X064523Y017440D01*
X064523Y017282D02*
X066496Y017282D01*
X066551Y017123D02*
X064468Y017123D01*
X064341Y016965D02*
X066678Y016965D01*
X063678Y016965D02*
X052191Y016965D01*
X052151Y016924D02*
X052295Y017069D01*
X052373Y017258D01*
X052373Y017462D01*
X052295Y017651D01*
X052151Y017796D01*
X051962Y017874D01*
X051757Y017874D01*
X051568Y017796D01*
X051424Y017651D01*
X051346Y017462D01*
X051346Y017258D01*
X051424Y017069D01*
X051568Y016924D01*
X051757Y016846D01*
X051962Y016846D01*
X052151Y016924D01*
X052318Y017123D02*
X063551Y017123D01*
X063496Y017282D02*
X052373Y017282D01*
X052373Y017440D02*
X063496Y017440D01*
X063552Y017599D02*
X052317Y017599D01*
X052189Y017757D02*
X063680Y017757D01*
X070666Y014587D02*
X049436Y014587D01*
X049471Y014562D02*
X049395Y014617D01*
X049312Y014659D01*
X049223Y014688D01*
X049131Y014702D01*
X048730Y014702D01*
X048730Y014168D01*
X049675Y014168D01*
X049662Y014249D01*
X049634Y014337D01*
X049591Y014421D01*
X049536Y014496D01*
X049471Y014562D01*
X049585Y014429D02*
X070666Y014429D01*
X070723Y014270D02*
X049656Y014270D01*
X049440Y013636D02*
X070944Y013636D01*
X070746Y013478D02*
X036190Y013478D01*
X035329Y013478D02*
X014086Y013478D01*
X013992Y013572D02*
X013757Y013707D01*
X013495Y013777D01*
X013224Y013777D01*
X012962Y013707D01*
X012727Y013572D01*
X012535Y013380D01*
X012400Y013145D01*
X012330Y012883D01*
X012330Y012612D01*
X012400Y012350D01*
X012535Y012115D01*
X012727Y011923D01*
X012962Y011788D01*
X013224Y011718D01*
X013495Y011718D01*
X013757Y011788D01*
X013992Y011923D01*
X014184Y012115D01*
X014319Y012350D01*
X014390Y012612D01*
X014390Y012883D01*
X014319Y013145D01*
X014184Y013380D01*
X013992Y013572D01*
X013881Y013636D02*
X040986Y013636D01*
X040952Y013650D02*
X041152Y013568D01*
X042192Y013568D01*
X042392Y013650D01*
X042544Y013803D01*
X042627Y014002D01*
X042627Y014218D01*
X042544Y014417D01*
X042392Y014570D01*
X042192Y014652D01*
X041152Y014652D01*
X040952Y014570D01*
X040800Y014417D01*
X040717Y014218D01*
X040717Y014002D01*
X040800Y013803D01*
X040952Y013650D01*
X040808Y013795D02*
X011240Y013795D01*
X011240Y013953D02*
X040737Y013953D01*
X040717Y014112D02*
X011240Y014112D01*
X011240Y014270D02*
X040739Y014270D01*
X040811Y014429D02*
X011240Y014429D01*
X011240Y014587D02*
X040994Y014587D01*
X042351Y014587D02*
X047908Y014587D01*
X047759Y014429D02*
X042533Y014429D01*
X042605Y014270D02*
X047689Y014270D01*
X047669Y014052D02*
X047682Y013971D01*
X047710Y013883D01*
X047753Y013799D01*
X047808Y013724D01*
X047874Y013658D01*
X047949Y013603D01*
X048032Y013561D01*
X048121Y013532D01*
X048213Y013518D01*
X048615Y013518D01*
X048615Y014052D01*
X047669Y014052D01*
X047688Y013953D02*
X042607Y013953D01*
X042627Y014112D02*
X048615Y014112D01*
X048730Y014112D02*
X070844Y014112D01*
X070548Y006028D02*
X014278Y006028D01*
X014343Y006187D02*
X034640Y006187D01*
X034257Y006345D02*
X014385Y006345D01*
X014390Y006504D02*
X033919Y006504D01*
X033682Y006662D02*
X014382Y006662D01*
X014339Y006821D02*
X033445Y006821D01*
X033265Y006979D02*
X014271Y006979D01*
X014176Y007138D02*
X033107Y007138D01*
X032948Y007296D02*
X014018Y007296D01*
X013762Y007455D02*
X032814Y007455D01*
X032708Y007613D02*
X011240Y007613D01*
X011240Y007455D02*
X012957Y007455D01*
X012701Y007296D02*
X011240Y007296D01*
X011240Y007138D02*
X012543Y007138D01*
X012448Y006979D02*
X011240Y006979D01*
X011240Y006821D02*
X012380Y006821D01*
X012337Y006662D02*
X011245Y006662D01*
X011263Y006504D02*
X012330Y006504D01*
X012334Y006345D02*
X011299Y006345D01*
X011240Y007772D02*
X032602Y007772D01*
X032496Y007930D02*
X011240Y007930D01*
X011240Y008089D02*
X032415Y008089D01*
X032349Y008247D02*
X011240Y008247D01*
X011240Y008406D02*
X032283Y008406D01*
X032218Y008564D02*
X021175Y008564D01*
X021196Y008570D02*
X021453Y008718D01*
X021664Y008929D01*
X021813Y009186D01*
X021890Y009474D01*
X021890Y009771D01*
X021813Y010059D01*
X021664Y010316D01*
X021453Y010527D01*
X021196Y010675D01*
X020908Y010752D01*
X020611Y010752D01*
X020323Y010675D01*
X020066Y010527D01*
X019855Y010316D01*
X019707Y010059D01*
X019630Y009771D01*
X019630Y009474D01*
X019707Y009186D01*
X019855Y008929D01*
X020066Y008718D01*
X020323Y008570D01*
X020611Y008493D01*
X020908Y008493D01*
X021196Y008570D01*
X021458Y008723D02*
X032163Y008723D01*
X032131Y008881D02*
X021616Y008881D01*
X021728Y009040D02*
X032100Y009040D01*
X032068Y009198D02*
X021816Y009198D01*
X021858Y009357D02*
X032037Y009357D01*
X032030Y009515D02*
X021890Y009515D01*
X021890Y009674D02*
X032030Y009674D01*
X032030Y009832D02*
X021873Y009832D01*
X021831Y009991D02*
X032030Y009991D01*
X032034Y010149D02*
X021760Y010149D01*
X021669Y010308D02*
X030014Y010308D01*
X030018Y010299D02*
X030098Y010218D01*
X030203Y010175D01*
X030316Y010175D01*
X030421Y010218D01*
X030501Y010299D01*
X030545Y010403D01*
X030545Y010517D01*
X030501Y010621D01*
X030421Y010702D01*
X030316Y010745D01*
X030203Y010745D01*
X030098Y010702D01*
X030018Y010621D01*
X029975Y010517D01*
X029975Y010403D01*
X030018Y010299D01*
X029975Y010466D02*
X021514Y010466D01*
X021284Y010625D02*
X030021Y010625D01*
X030498Y010625D02*
X032128Y010625D01*
X032160Y010783D02*
X029486Y010783D01*
X029501Y010799D02*
X029545Y010903D01*
X029545Y011017D01*
X029501Y011121D01*
X029421Y011202D01*
X029316Y011245D01*
X029203Y011245D01*
X029098Y011202D01*
X029018Y011121D01*
X028975Y011017D01*
X028975Y010903D01*
X029018Y010799D01*
X029098Y010718D01*
X029203Y010675D01*
X029316Y010675D01*
X029421Y010718D01*
X029501Y010799D01*
X029545Y010942D02*
X032212Y010942D01*
X032277Y011100D02*
X029510Y011100D01*
X029009Y011100D02*
X011240Y011100D01*
X011240Y010942D02*
X028975Y010942D01*
X029033Y010783D02*
X011240Y010783D01*
X011240Y010625D02*
X020235Y010625D01*
X020005Y010466D02*
X011240Y010466D01*
X011240Y010308D02*
X019850Y010308D01*
X019759Y010149D02*
X011240Y010149D01*
X011240Y009991D02*
X019688Y009991D01*
X019646Y009832D02*
X011240Y009832D01*
X011240Y009674D02*
X019630Y009674D01*
X019630Y009515D02*
X011240Y009515D01*
X011240Y009357D02*
X019661Y009357D01*
X019703Y009198D02*
X011240Y009198D01*
X011240Y009040D02*
X019791Y009040D01*
X019903Y008881D02*
X011240Y008881D01*
X011240Y008723D02*
X020061Y008723D01*
X020344Y008564D02*
X011240Y008564D01*
X011240Y011259D02*
X032343Y011259D01*
X032409Y011417D02*
X011240Y011417D01*
X011240Y011576D02*
X032487Y011576D01*
X032592Y011734D02*
X013557Y011734D01*
X013162Y011734D02*
X011240Y011734D01*
X011240Y011893D02*
X012780Y011893D01*
X012599Y012051D02*
X011240Y012051D01*
X011240Y012210D02*
X012481Y012210D01*
X012395Y012368D02*
X011240Y012368D01*
X011240Y012527D02*
X012352Y012527D01*
X012330Y012685D02*
X011240Y012685D01*
X011240Y012844D02*
X012330Y012844D01*
X012361Y013002D02*
X011240Y013002D01*
X011240Y013161D02*
X012409Y013161D01*
X012500Y013319D02*
X011240Y013319D01*
X011240Y013478D02*
X012633Y013478D01*
X012838Y013636D02*
X011240Y013636D01*
X014219Y013319D02*
X034605Y013319D01*
X034222Y013161D02*
X014310Y013161D01*
X014358Y013002D02*
X033898Y013002D01*
X033660Y012844D02*
X014390Y012844D01*
X014390Y012685D02*
X019041Y012685D01*
X019068Y012712D02*
X018988Y012631D01*
X018945Y012527D01*
X018945Y012413D01*
X018988Y012309D01*
X019068Y012228D01*
X019173Y012185D01*
X019286Y012185D01*
X019391Y012228D01*
X019471Y012309D01*
X019515Y012413D01*
X019515Y012527D01*
X019471Y012631D01*
X019391Y012712D01*
X019286Y012755D01*
X019173Y012755D01*
X019068Y012712D01*
X018945Y012527D02*
X014367Y012527D01*
X014324Y012368D02*
X018963Y012368D01*
X019114Y012210D02*
X014238Y012210D01*
X014120Y012051D02*
X032804Y012051D01*
X032698Y011893D02*
X013939Y011893D01*
X019345Y012210D02*
X032934Y012210D01*
X033093Y012368D02*
X019496Y012368D01*
X019515Y012527D02*
X033251Y012527D01*
X033423Y012685D02*
X019418Y012685D01*
X014186Y005870D02*
X070643Y005870D01*
X070802Y005711D02*
X014030Y005711D01*
X013783Y005553D02*
X071058Y005553D01*
X051528Y016965D02*
X049191Y016965D01*
X049151Y016924D02*
X049295Y017069D01*
X049373Y017258D01*
X049373Y017462D01*
X049295Y017651D01*
X049151Y017796D01*
X048962Y017874D01*
X048757Y017874D01*
X048568Y017796D01*
X048424Y017651D01*
X048346Y017462D01*
X048346Y017258D01*
X048424Y017069D01*
X048568Y016924D01*
X048757Y016846D01*
X048962Y016846D01*
X049151Y016924D01*
X049318Y017123D02*
X051401Y017123D01*
X051346Y017282D02*
X049373Y017282D01*
X049373Y017440D02*
X051346Y017440D01*
X051402Y017599D02*
X049317Y017599D01*
X049189Y017757D02*
X051530Y017757D01*
X048530Y017757D02*
X011240Y017757D01*
X011240Y017599D02*
X048402Y017599D01*
X048346Y017440D02*
X029348Y017440D01*
X029211Y017440D02*
X011240Y017440D01*
X011240Y017282D02*
X029021Y017282D01*
X029538Y017282D02*
X048346Y017282D01*
X048401Y017123D02*
X029565Y017123D01*
X029487Y016965D02*
X048528Y016965D01*
X048615Y014587D02*
X048730Y014587D01*
X048730Y014429D02*
X048615Y014429D01*
X048615Y014270D02*
X048730Y014270D01*
X048730Y013953D02*
X048615Y013953D01*
X048615Y013795D02*
X048730Y013795D01*
X048730Y013636D02*
X048615Y013636D01*
X047904Y013636D02*
X042358Y013636D01*
X042536Y013795D02*
X047756Y013795D01*
X037044Y024731D02*
X037044Y024731D01*
X037044Y024890D02*
X037044Y024890D01*
X037044Y024960D02*
X036626Y024960D01*
X037044Y024960D01*
X037044Y024960D01*
X037044Y025048D02*
X037044Y025048D01*
X037044Y025207D02*
X037044Y025207D01*
X036706Y025207D02*
X035443Y025207D01*
X035443Y025048D02*
X036635Y025048D01*
X036632Y024890D02*
X035443Y024890D01*
X035443Y024731D02*
X036694Y024731D01*
X036702Y030120D02*
X035443Y030120D01*
X035443Y030279D02*
X036634Y030279D01*
X036626Y030360D02*
X037044Y030360D01*
X037044Y030360D01*
X036626Y030360D01*
X036633Y030437D02*
X035443Y030437D01*
X035443Y030596D02*
X036698Y030596D01*
X037044Y030596D02*
X037044Y030596D01*
X037044Y030437D02*
X037044Y030437D01*
X037044Y030279D02*
X037044Y030279D01*
X037044Y030120D02*
X037044Y030120D01*
X036710Y035509D02*
X035443Y035509D01*
X035443Y035668D02*
X036635Y035668D01*
X036631Y035826D02*
X035443Y035826D01*
X035443Y035985D02*
X036690Y035985D01*
X039860Y040460D02*
X039860Y043760D01*
X042560Y043760D01*
X042560Y040460D01*
X039860Y040460D01*
X039860Y040581D02*
X042560Y040581D01*
X042560Y040740D02*
X039860Y040740D01*
X039860Y040898D02*
X042560Y040898D01*
X042560Y041057D02*
X039860Y041057D01*
X039860Y041215D02*
X042560Y041215D01*
X042560Y041374D02*
X039860Y041374D01*
X039860Y041532D02*
X042560Y041532D01*
X042560Y041691D02*
X039860Y041691D01*
X039860Y041849D02*
X042560Y041849D01*
X042560Y042008D02*
X039860Y042008D01*
X039860Y042166D02*
X042560Y042166D01*
X042560Y042325D02*
X039860Y042325D01*
X039860Y042483D02*
X042560Y042483D01*
X042560Y042642D02*
X039860Y042642D01*
X039860Y042800D02*
X042560Y042800D01*
X042560Y042959D02*
X039860Y042959D01*
X039860Y043117D02*
X042560Y043117D01*
X042560Y043276D02*
X039860Y043276D01*
X039860Y043434D02*
X042560Y043434D01*
X042560Y043593D02*
X039860Y043593D01*
X039860Y043751D02*
X042560Y043751D01*
X048367Y037887D02*
X014389Y037887D01*
X014390Y037728D02*
X048232Y037728D01*
X048166Y037570D02*
X014378Y037570D01*
X014336Y037411D02*
X018979Y037411D01*
X018988Y037431D02*
X018945Y037327D01*
X018945Y037213D01*
X018988Y037109D01*
X019068Y037028D01*
X019173Y036985D01*
X019286Y036985D01*
X019391Y037028D01*
X019471Y037109D01*
X019515Y037213D01*
X019515Y037327D01*
X019471Y037431D01*
X019391Y037512D01*
X019286Y037555D01*
X019173Y037555D01*
X019068Y037512D01*
X018988Y037431D01*
X018945Y037253D02*
X014263Y037253D01*
X014163Y037094D02*
X019002Y037094D01*
X019457Y037094D02*
X048190Y037094D01*
X048139Y037253D02*
X019515Y037253D01*
X019480Y037411D02*
X048139Y037411D01*
X048265Y036936D02*
X014004Y036936D01*
X013717Y036777D02*
X048423Y036777D01*
X046363Y051201D02*
X074680Y051201D01*
X074680Y051359D02*
X046520Y051359D01*
X046570Y051518D02*
X074680Y051518D01*
X074680Y051676D02*
X046555Y051676D01*
X046465Y051835D02*
X074680Y051835D01*
X074680Y051993D02*
X011240Y051993D01*
X011240Y051835D02*
X045854Y051835D01*
X045764Y051676D02*
X011240Y051676D01*
X011240Y051518D02*
X045750Y051518D01*
X045983Y052134D02*
X046052Y052111D01*
X046123Y052100D01*
X046160Y052100D01*
X046196Y052100D01*
X046267Y052111D01*
X046336Y052134D01*
X046401Y052167D01*
X046459Y052209D01*
X046510Y052260D01*
X046553Y052319D01*
X046586Y052383D01*
X046608Y052452D01*
X046620Y052524D01*
X046620Y052560D01*
X046620Y052596D01*
X046608Y052668D01*
X046586Y052737D01*
X046553Y052801D01*
X046510Y052860D01*
X046459Y052911D01*
X046401Y052953D01*
X046336Y052986D01*
X046267Y053009D01*
X046196Y053020D01*
X046160Y053020D01*
X046160Y052560D01*
X046620Y052560D01*
X046160Y052560D01*
X046160Y052560D01*
X046160Y052560D01*
X046160Y052100D01*
X046160Y052560D01*
X046160Y052560D01*
X046160Y053020D01*
X046123Y053020D01*
X046052Y053009D01*
X045983Y052986D01*
X045918Y052953D01*
X045860Y052911D01*
X045809Y052860D01*
X045766Y052801D01*
X045733Y052737D01*
X045711Y052668D01*
X045700Y052596D01*
X045700Y052560D01*
X045700Y052524D01*
X045711Y052452D01*
X045733Y052383D01*
X045766Y052319D01*
X045809Y052260D01*
X045860Y052209D01*
X045918Y052167D01*
X045983Y052134D01*
X045948Y052152D02*
X011240Y052152D01*
X011240Y052310D02*
X020359Y052310D01*
X020323Y052320D02*
X020611Y052243D01*
X020908Y052243D01*
X021196Y052320D01*
X021453Y052468D01*
X021664Y052679D01*
X021813Y052936D01*
X021890Y053224D01*
X021890Y053521D01*
X021813Y053809D01*
X021664Y054066D01*
X021453Y054277D01*
X021196Y054425D01*
X020908Y054502D01*
X020611Y054502D01*
X020323Y054425D01*
X020066Y054277D01*
X019855Y054066D01*
X019707Y053809D01*
X019630Y053521D01*
X019630Y053224D01*
X019707Y052936D01*
X019855Y052679D01*
X020066Y052468D01*
X020323Y052320D01*
X020065Y052469D02*
X011240Y052469D01*
X011240Y052627D02*
X019907Y052627D01*
X019794Y052786D02*
X011240Y052786D01*
X011240Y052944D02*
X019704Y052944D01*
X019662Y053103D02*
X011240Y053103D01*
X011240Y053261D02*
X019630Y053261D01*
X019630Y053420D02*
X011240Y053420D01*
X011240Y053578D02*
X019645Y053578D01*
X019687Y053737D02*
X011240Y053737D01*
X011240Y053895D02*
X019756Y053895D01*
X019848Y054054D02*
X011240Y054054D01*
X011240Y054212D02*
X020001Y054212D01*
X020228Y054371D02*
X011240Y054371D01*
X011240Y054529D02*
X029046Y054529D01*
X029038Y054521D02*
X028995Y054417D01*
X028995Y054303D01*
X029038Y054199D01*
X029118Y054118D01*
X029223Y054075D01*
X029336Y054075D01*
X029441Y054118D01*
X029521Y054199D01*
X029565Y054303D01*
X029565Y054417D01*
X029521Y054521D01*
X029441Y054602D01*
X029336Y054645D01*
X029223Y054645D01*
X029118Y054602D01*
X029038Y054521D01*
X028995Y054371D02*
X021291Y054371D01*
X021518Y054212D02*
X029032Y054212D01*
X029527Y054212D02*
X074680Y054212D01*
X074680Y054054D02*
X030469Y054054D01*
X030501Y054021D02*
X030421Y054102D01*
X030316Y054145D01*
X030203Y054145D01*
X030098Y054102D01*
X030018Y054021D01*
X029975Y053917D01*
X029975Y053803D01*
X030018Y053699D01*
X030098Y053618D01*
X030203Y053575D01*
X030316Y053575D01*
X030421Y053618D01*
X030501Y053699D01*
X030545Y053803D01*
X030545Y053917D01*
X030501Y054021D01*
X030545Y053895D02*
X045915Y053895D01*
X045927Y053908D02*
X045812Y053792D01*
X045750Y053642D01*
X045750Y053478D01*
X045812Y053328D01*
X045927Y053212D01*
X046078Y053150D01*
X046241Y053150D01*
X046392Y053212D01*
X046507Y053328D01*
X046570Y053478D01*
X046570Y053642D01*
X046507Y053792D01*
X046392Y053908D01*
X046241Y053970D01*
X046078Y053970D01*
X045927Y053908D01*
X045789Y053737D02*
X030517Y053737D01*
X030324Y053578D02*
X045750Y053578D01*
X045774Y053420D02*
X021890Y053420D01*
X021874Y053578D02*
X030195Y053578D01*
X030002Y053737D02*
X021832Y053737D01*
X021763Y053895D02*
X029975Y053895D01*
X030050Y054054D02*
X021671Y054054D01*
X021890Y053261D02*
X045879Y053261D01*
X045906Y052944D02*
X021815Y052944D01*
X021857Y053103D02*
X050359Y053103D01*
X050368Y053081D02*
X050531Y052918D01*
X050744Y052830D01*
X050975Y052830D01*
X051188Y052918D01*
X051351Y053081D01*
X051440Y053295D01*
X051440Y053525D01*
X051351Y053739D01*
X051188Y053902D01*
X050975Y053990D01*
X050744Y053990D01*
X050531Y053902D01*
X050368Y053739D01*
X050280Y053525D01*
X050280Y053295D01*
X050368Y053081D01*
X050505Y052944D02*
X046413Y052944D01*
X046561Y052786D02*
X074680Y052786D01*
X074680Y052944D02*
X071214Y052944D01*
X071188Y052918D02*
X071351Y053081D01*
X071440Y053295D01*
X071440Y053525D01*
X071351Y053739D01*
X071188Y053902D01*
X070975Y053990D01*
X070744Y053990D01*
X070531Y053902D01*
X070368Y053739D01*
X070280Y053525D01*
X070280Y053295D01*
X070368Y053081D01*
X070531Y052918D01*
X070744Y052830D01*
X070975Y052830D01*
X071188Y052918D01*
X071360Y053103D02*
X074680Y053103D01*
X074680Y053261D02*
X071426Y053261D01*
X071440Y053420D02*
X074680Y053420D01*
X074680Y053578D02*
X071418Y053578D01*
X071352Y053737D02*
X074680Y053737D01*
X074680Y053895D02*
X071195Y053895D01*
X070975Y054330D02*
X071188Y054418D01*
X071351Y054581D01*
X071440Y054795D01*
X071440Y055025D01*
X071351Y055239D01*
X071188Y055402D01*
X070975Y055490D01*
X070744Y055490D01*
X070531Y055402D01*
X070368Y055239D01*
X070280Y055025D01*
X070280Y054795D01*
X070368Y054581D01*
X070531Y054418D01*
X070744Y054330D01*
X070975Y054330D01*
X071073Y054371D02*
X074680Y054371D01*
X074680Y054529D02*
X071299Y054529D01*
X071395Y054688D02*
X074680Y054688D01*
X074680Y054846D02*
X071440Y054846D01*
X071440Y055005D02*
X074680Y055005D01*
X074680Y055163D02*
X071382Y055163D01*
X071268Y055322D02*
X074680Y055322D01*
X074680Y055480D02*
X070999Y055480D01*
X071005Y055680D02*
X071273Y055791D01*
X071478Y055996D01*
X071590Y056265D01*
X071590Y056555D01*
X071478Y056824D01*
X071273Y057029D01*
X071005Y057140D01*
X070714Y057140D01*
X070446Y057029D01*
X070241Y056824D01*
X070130Y056555D01*
X070130Y056265D01*
X070241Y055996D01*
X070446Y055791D01*
X070714Y055680D01*
X071005Y055680D01*
X071279Y055797D02*
X074680Y055797D01*
X074680Y055639D02*
X019441Y055639D01*
X019421Y055618D02*
X019501Y055699D01*
X019545Y055803D01*
X019545Y055917D01*
X019501Y056021D01*
X019421Y056102D01*
X019316Y056145D01*
X019203Y056145D01*
X019098Y056102D01*
X019018Y056021D01*
X018975Y055917D01*
X018975Y055803D01*
X019018Y055699D01*
X019098Y055618D01*
X019203Y055575D01*
X019316Y055575D01*
X019421Y055618D01*
X019542Y055797D02*
X070440Y055797D01*
X070282Y055956D02*
X051225Y055956D01*
X051188Y055918D02*
X051351Y056081D01*
X051440Y056295D01*
X051440Y056525D01*
X051351Y056739D01*
X051188Y056902D01*
X050975Y056990D01*
X050744Y056990D01*
X050531Y056902D01*
X050368Y056739D01*
X050280Y056525D01*
X050280Y056295D01*
X050368Y056081D01*
X050531Y055918D01*
X050744Y055830D01*
X050975Y055830D01*
X051188Y055918D01*
X051365Y056114D02*
X070192Y056114D01*
X070130Y056273D02*
X051430Y056273D01*
X051440Y056431D02*
X070130Y056431D01*
X070144Y056590D02*
X051413Y056590D01*
X051342Y056748D02*
X070209Y056748D01*
X070324Y056907D02*
X051176Y056907D01*
X050543Y056907D02*
X014313Y056907D01*
X014319Y056895D02*
X014184Y057130D01*
X013992Y057322D01*
X013757Y057457D01*
X013495Y057527D01*
X013224Y057527D01*
X012962Y057457D01*
X012727Y057322D01*
X012535Y057130D01*
X012400Y056895D01*
X012330Y056633D01*
X012330Y056362D01*
X012400Y056100D01*
X012535Y055865D01*
X012727Y055673D01*
X012962Y055538D01*
X013224Y055468D01*
X013495Y055468D01*
X013757Y055538D01*
X013992Y055673D01*
X014184Y055865D01*
X014319Y056100D01*
X014390Y056362D01*
X014390Y056633D01*
X014319Y056895D01*
X014359Y056748D02*
X050377Y056748D01*
X050306Y056590D02*
X014390Y056590D01*
X014390Y056431D02*
X050280Y056431D01*
X050289Y056273D02*
X014366Y056273D01*
X014323Y056114D02*
X019128Y056114D01*
X018991Y055956D02*
X014236Y055956D01*
X014116Y055797D02*
X018977Y055797D01*
X019078Y055639D02*
X013932Y055639D01*
X013542Y055480D02*
X070720Y055480D01*
X070451Y055322D02*
X011240Y055322D01*
X011240Y055480D02*
X013177Y055480D01*
X012787Y055639D02*
X011240Y055639D01*
X011240Y055797D02*
X012603Y055797D01*
X012483Y055956D02*
X011240Y055956D01*
X011240Y056114D02*
X012396Y056114D01*
X012353Y056273D02*
X011240Y056273D01*
X011240Y056431D02*
X012330Y056431D01*
X012330Y056590D02*
X011240Y056590D01*
X011240Y056748D02*
X012360Y056748D01*
X012406Y056907D02*
X011240Y056907D01*
X011240Y057065D02*
X012498Y057065D01*
X012629Y057224D02*
X011240Y057224D01*
X011240Y057382D02*
X012832Y057382D01*
X013887Y057382D02*
X074680Y057382D01*
X074680Y057224D02*
X014090Y057224D01*
X014221Y057065D02*
X070533Y057065D01*
X071186Y057065D02*
X074680Y057065D01*
X074680Y056907D02*
X071395Y056907D01*
X071510Y056748D02*
X074680Y056748D01*
X074680Y056590D02*
X071575Y056590D01*
X071590Y056431D02*
X074680Y056431D01*
X074680Y056273D02*
X071590Y056273D01*
X071527Y056114D02*
X074680Y056114D01*
X074680Y055956D02*
X071437Y055956D01*
X070337Y055163D02*
X011240Y055163D01*
X011240Y055005D02*
X070280Y055005D01*
X070280Y054846D02*
X011240Y054846D01*
X011240Y054688D02*
X070324Y054688D01*
X070420Y054529D02*
X029513Y054529D01*
X029565Y054371D02*
X070646Y054371D01*
X070524Y053895D02*
X051195Y053895D01*
X051352Y053737D02*
X070367Y053737D01*
X070301Y053578D02*
X051418Y053578D01*
X051440Y053420D02*
X070280Y053420D01*
X070293Y053261D02*
X051426Y053261D01*
X051360Y053103D02*
X070359Y053103D01*
X070505Y052944D02*
X051214Y052944D01*
X050293Y053261D02*
X046440Y053261D01*
X046545Y053420D02*
X050280Y053420D01*
X050301Y053578D02*
X046570Y053578D01*
X046530Y053737D02*
X050367Y053737D01*
X050524Y053895D02*
X046404Y053895D01*
X046160Y052944D02*
X046160Y052944D01*
X046160Y052786D02*
X046160Y052786D01*
X046160Y052627D02*
X046160Y052627D01*
X046160Y052560D02*
X046160Y052560D01*
X045700Y052560D01*
X046160Y052560D01*
X046160Y052469D02*
X046160Y052469D01*
X046160Y052310D02*
X046160Y052310D01*
X046160Y052152D02*
X046160Y052152D01*
X046371Y052152D02*
X074680Y052152D01*
X074680Y052310D02*
X046547Y052310D01*
X046611Y052469D02*
X074680Y052469D01*
X074680Y052627D02*
X046615Y052627D01*
X045758Y052786D02*
X021725Y052786D01*
X021612Y052627D02*
X045704Y052627D01*
X045708Y052469D02*
X021454Y052469D01*
X021160Y052310D02*
X045773Y052310D01*
X050354Y056114D02*
X019391Y056114D01*
X019528Y055956D02*
X050494Y055956D01*
X045501Y059599D02*
X045545Y059703D01*
X045545Y059817D01*
X045501Y059921D01*
X045421Y060002D01*
X045316Y060045D01*
X045203Y060045D01*
X045098Y060002D01*
X045018Y059921D01*
X044975Y059817D01*
X044975Y059703D01*
X045018Y059599D01*
X045098Y059518D01*
X045203Y059475D01*
X045316Y059475D01*
X045421Y059518D01*
X045501Y059599D01*
X045502Y059601D02*
X074680Y059601D01*
X074680Y059443D02*
X021881Y059443D01*
X021890Y059474D02*
X021813Y059186D01*
X021664Y058929D01*
X021453Y058718D01*
X021196Y058570D01*
X020908Y058493D01*
X020611Y058493D01*
X020323Y058570D01*
X020066Y058718D01*
X019855Y058929D01*
X019707Y059186D01*
X019630Y059474D01*
X019630Y059771D01*
X019707Y060059D01*
X019855Y060316D01*
X020066Y060527D01*
X020323Y060675D01*
X020611Y060752D01*
X020908Y060752D01*
X021196Y060675D01*
X021453Y060527D01*
X021664Y060316D01*
X021813Y060059D01*
X021890Y059771D01*
X021890Y059474D01*
X021890Y059601D02*
X045017Y059601D01*
X044975Y059760D02*
X030362Y059760D01*
X030401Y059799D02*
X030445Y059903D01*
X030445Y060017D01*
X030401Y060121D01*
X030321Y060202D01*
X030216Y060245D01*
X030103Y060245D01*
X029998Y060202D01*
X029918Y060121D01*
X029875Y060017D01*
X029875Y059903D01*
X029918Y059799D01*
X029998Y059718D01*
X030103Y059675D01*
X030216Y059675D01*
X030321Y059718D01*
X030401Y059799D01*
X030445Y059918D02*
X035123Y059918D01*
X035128Y059913D02*
X035359Y059818D01*
X035610Y059818D01*
X035841Y059913D01*
X036019Y060091D01*
X036115Y060322D01*
X036115Y060573D01*
X036019Y060804D01*
X035841Y060982D01*
X035610Y061077D01*
X035359Y061077D01*
X035128Y060982D01*
X034950Y060804D01*
X034855Y060573D01*
X034855Y060322D01*
X034950Y060091D01*
X035128Y059913D01*
X034964Y060077D02*
X030420Y060077D01*
X030240Y060235D02*
X034891Y060235D01*
X034855Y060394D02*
X029496Y060394D01*
X029501Y060399D02*
X029545Y060503D01*
X029545Y060617D01*
X029501Y060721D01*
X029421Y060802D01*
X029316Y060845D01*
X029203Y060845D01*
X029098Y060802D01*
X029018Y060721D01*
X028975Y060617D01*
X028975Y060503D01*
X029018Y060399D01*
X029098Y060318D01*
X029203Y060275D01*
X029316Y060275D01*
X029421Y060318D01*
X029501Y060399D01*
X029545Y060552D02*
X034855Y060552D01*
X034912Y060711D02*
X029506Y060711D01*
X029013Y060711D02*
X021065Y060711D01*
X021409Y060552D02*
X028975Y060552D01*
X029023Y060394D02*
X021586Y060394D01*
X021711Y060235D02*
X030079Y060235D01*
X029899Y060077D02*
X021802Y060077D01*
X021850Y059918D02*
X029875Y059918D01*
X029957Y059760D02*
X021890Y059760D01*
X021839Y059284D02*
X074680Y059284D01*
X074680Y059126D02*
X039818Y059126D01*
X039816Y059127D02*
X039555Y059127D01*
X039555Y058468D01*
X039515Y058468D01*
X039515Y059127D01*
X039253Y059127D01*
X038855Y058729D01*
X038855Y058468D01*
X039515Y058468D01*
X039515Y058427D01*
X039555Y058427D01*
X039555Y058468D01*
X040215Y058468D01*
X040215Y058729D01*
X039816Y059127D01*
X039977Y058967D02*
X074680Y058967D01*
X074680Y058809D02*
X040135Y058809D01*
X040215Y058650D02*
X074680Y058650D01*
X074680Y058492D02*
X040215Y058492D01*
X040215Y058427D02*
X039555Y058427D01*
X039555Y057768D01*
X039816Y057768D01*
X040215Y058166D01*
X040215Y058427D01*
X040215Y058333D02*
X074680Y058333D01*
X074680Y058175D02*
X040215Y058175D01*
X040065Y058016D02*
X074680Y058016D01*
X074680Y057858D02*
X039906Y057858D01*
X039555Y057858D02*
X039515Y057858D01*
X039515Y057768D02*
X039515Y058427D01*
X038855Y058427D01*
X038855Y058166D01*
X039253Y057768D01*
X039515Y057768D01*
X039515Y058016D02*
X039555Y058016D01*
X039555Y058175D02*
X039515Y058175D01*
X039515Y058333D02*
X039555Y058333D01*
X039555Y058492D02*
X039515Y058492D01*
X039515Y058650D02*
X039555Y058650D01*
X039555Y058809D02*
X039515Y058809D01*
X039515Y058967D02*
X039555Y058967D01*
X039555Y059126D02*
X039515Y059126D01*
X039251Y059126D02*
X035768Y059126D01*
X035766Y059127D02*
X035505Y059127D01*
X035505Y058468D01*
X035465Y058468D01*
X035465Y059127D01*
X035203Y059127D01*
X034805Y058729D01*
X034805Y058468D01*
X035465Y058468D01*
X035465Y058427D01*
X035505Y058427D01*
X035505Y058468D01*
X036165Y058468D01*
X036165Y058729D01*
X035766Y059127D01*
X035927Y058967D02*
X039092Y058967D01*
X038934Y058809D02*
X036085Y058809D01*
X036165Y058650D02*
X038855Y058650D01*
X038855Y058492D02*
X036165Y058492D01*
X036165Y058427D02*
X035505Y058427D01*
X035505Y057768D01*
X035766Y057768D01*
X036165Y058166D01*
X036165Y058427D01*
X036165Y058333D02*
X038855Y058333D01*
X038855Y058175D02*
X036165Y058175D01*
X036015Y058016D02*
X039004Y058016D01*
X039163Y057858D02*
X035856Y057858D01*
X035505Y057858D02*
X035465Y057858D01*
X035465Y057768D02*
X035465Y058427D01*
X034805Y058427D01*
X034805Y058166D01*
X035203Y057768D01*
X035465Y057768D01*
X035465Y058016D02*
X035505Y058016D01*
X035505Y058175D02*
X035465Y058175D01*
X035465Y058333D02*
X035505Y058333D01*
X035505Y058492D02*
X035465Y058492D01*
X035465Y058650D02*
X035505Y058650D01*
X035505Y058809D02*
X035465Y058809D01*
X035465Y058967D02*
X035505Y058967D01*
X035505Y059126D02*
X035465Y059126D01*
X035201Y059126D02*
X021777Y059126D01*
X021686Y058967D02*
X035042Y058967D01*
X034884Y058809D02*
X021544Y058809D01*
X021335Y058650D02*
X034805Y058650D01*
X034805Y058492D02*
X011240Y058492D01*
X011240Y058650D02*
X020184Y058650D01*
X019975Y058809D02*
X011240Y058809D01*
X011240Y058967D02*
X019833Y058967D01*
X019742Y059126D02*
X011240Y059126D01*
X011240Y059284D02*
X019680Y059284D01*
X019638Y059443D02*
X011240Y059443D01*
X011240Y059601D02*
X019630Y059601D01*
X019630Y059760D02*
X011240Y059760D01*
X011240Y059918D02*
X019669Y059918D01*
X019717Y060077D02*
X011240Y060077D01*
X011240Y060235D02*
X019808Y060235D01*
X019933Y060394D02*
X011240Y060394D01*
X011240Y060552D02*
X020110Y060552D01*
X020454Y060711D02*
X011240Y060711D01*
X011240Y060869D02*
X035015Y060869D01*
X035239Y061028D02*
X011240Y061028D01*
X011240Y061186D02*
X068503Y061186D01*
X068518Y061221D02*
X068475Y061117D01*
X068475Y061003D01*
X068518Y060899D01*
X068598Y060818D01*
X068703Y060775D01*
X068816Y060775D01*
X068921Y060818D01*
X069001Y060899D01*
X069045Y061003D01*
X069045Y061117D01*
X069001Y061221D01*
X068921Y061302D01*
X068816Y061345D01*
X068703Y061345D01*
X068598Y061302D01*
X068518Y061221D01*
X068475Y061028D02*
X039780Y061028D01*
X039891Y060982D02*
X039660Y061077D01*
X039409Y061077D01*
X039178Y060982D01*
X039000Y060804D01*
X038905Y060573D01*
X038905Y060322D01*
X039000Y060091D01*
X039178Y059913D01*
X039409Y059818D01*
X039660Y059818D01*
X039891Y059913D01*
X040069Y060091D01*
X040165Y060322D01*
X040165Y060573D01*
X040069Y060804D01*
X039891Y060982D01*
X040004Y060869D02*
X068547Y060869D01*
X068972Y060869D02*
X074680Y060869D01*
X074680Y060711D02*
X040107Y060711D01*
X040165Y060552D02*
X074680Y060552D01*
X074680Y060394D02*
X040165Y060394D01*
X040128Y060235D02*
X074680Y060235D01*
X074680Y060077D02*
X040055Y060077D01*
X039896Y059918D02*
X045017Y059918D01*
X045503Y059918D02*
X074680Y059918D01*
X074680Y059760D02*
X045545Y059760D01*
X045481Y064730D02*
X045838Y064730D01*
X046090Y064982D01*
X046090Y065338D01*
X045838Y065590D01*
X045481Y065590D01*
X045230Y065338D01*
X045230Y064982D01*
X045481Y064730D01*
X045380Y064832D02*
X044939Y064832D01*
X044838Y064730D02*
X045090Y064982D01*
X045090Y065338D01*
X044838Y065590D01*
X044481Y065590D01*
X044230Y065338D01*
X044230Y064982D01*
X044481Y064730D01*
X044838Y064730D01*
X045090Y064990D02*
X045230Y064990D01*
X045230Y065149D02*
X045090Y065149D01*
X045090Y065307D02*
X045230Y065307D01*
X045357Y065466D02*
X044962Y065466D01*
X044838Y065730D02*
X045090Y065982D01*
X045090Y066338D01*
X044838Y066590D01*
X044481Y066590D01*
X044230Y066338D01*
X044230Y065982D01*
X044481Y065730D01*
X044838Y065730D01*
X044890Y065783D02*
X045429Y065783D01*
X045481Y065730D02*
X045838Y065730D01*
X046090Y065982D01*
X046090Y066338D01*
X045838Y066590D01*
X045481Y066590D01*
X045230Y066338D01*
X045230Y065982D01*
X045481Y065730D01*
X045270Y065941D02*
X045049Y065941D01*
X045090Y066100D02*
X045230Y066100D01*
X045230Y066258D02*
X045090Y066258D01*
X045011Y066417D02*
X045308Y066417D01*
X045466Y066575D02*
X044853Y066575D01*
X044466Y066575D02*
X043853Y066575D01*
X043838Y066590D02*
X043481Y066590D01*
X043230Y066338D01*
X043230Y065982D01*
X043481Y065730D01*
X043838Y065730D01*
X044090Y065982D01*
X044090Y066338D01*
X043838Y066590D01*
X044011Y066417D02*
X044308Y066417D01*
X044230Y066258D02*
X044090Y066258D01*
X044090Y066100D02*
X044230Y066100D01*
X044270Y065941D02*
X044049Y065941D01*
X043890Y065783D02*
X044429Y065783D01*
X044357Y065466D02*
X043962Y065466D01*
X043838Y065590D02*
X043481Y065590D01*
X043230Y065338D01*
X043230Y064982D01*
X043481Y064730D01*
X043838Y064730D01*
X044090Y064982D01*
X044090Y065338D01*
X043838Y065590D01*
X044090Y065307D02*
X044230Y065307D01*
X044230Y065149D02*
X044090Y065149D01*
X044090Y064990D02*
X044230Y064990D01*
X044380Y064832D02*
X043939Y064832D01*
X043380Y064832D02*
X042939Y064832D01*
X042838Y064730D02*
X043090Y064982D01*
X043090Y065338D01*
X042838Y065590D01*
X042481Y065590D01*
X042230Y065338D01*
X042230Y064982D01*
X042481Y064730D01*
X042838Y064730D01*
X043090Y064990D02*
X043230Y064990D01*
X043230Y065149D02*
X043090Y065149D01*
X043090Y065307D02*
X043230Y065307D01*
X043357Y065466D02*
X042962Y065466D01*
X042838Y065730D02*
X043090Y065982D01*
X043090Y066338D01*
X042838Y066590D01*
X042481Y066590D01*
X042230Y066338D01*
X042230Y065982D01*
X042481Y065730D01*
X042838Y065730D01*
X042890Y065783D02*
X043429Y065783D01*
X043270Y065941D02*
X043049Y065941D01*
X043090Y066100D02*
X043230Y066100D01*
X043230Y066258D02*
X043090Y066258D01*
X043011Y066417D02*
X043308Y066417D01*
X043466Y066575D02*
X042853Y066575D01*
X042466Y066575D02*
X041853Y066575D01*
X041838Y066590D02*
X041481Y066590D01*
X041230Y066338D01*
X041230Y065982D01*
X041481Y065730D01*
X041838Y065730D01*
X042090Y065982D01*
X042090Y066338D01*
X041838Y066590D01*
X042011Y066417D02*
X042308Y066417D01*
X042230Y066258D02*
X042090Y066258D01*
X042090Y066100D02*
X042230Y066100D01*
X042270Y065941D02*
X042049Y065941D01*
X041890Y065783D02*
X042429Y065783D01*
X042357Y065466D02*
X041962Y065466D01*
X041838Y065590D02*
X042090Y065338D01*
X042090Y064982D01*
X041838Y064730D01*
X041481Y064730D01*
X041230Y064982D01*
X041230Y065338D01*
X041481Y065590D01*
X041838Y065590D01*
X042090Y065307D02*
X042230Y065307D01*
X042230Y065149D02*
X042090Y065149D01*
X042090Y064990D02*
X042230Y064990D01*
X042380Y064832D02*
X041939Y064832D01*
X041380Y064832D02*
X040939Y064832D01*
X040838Y064730D02*
X041090Y064982D01*
X041090Y065338D01*
X040838Y065590D01*
X040481Y065590D01*
X040230Y065338D01*
X040230Y064982D01*
X040481Y064730D01*
X040838Y064730D01*
X041090Y064990D02*
X041230Y064990D01*
X041230Y065149D02*
X041090Y065149D01*
X041090Y065307D02*
X041230Y065307D01*
X041357Y065466D02*
X040962Y065466D01*
X040838Y065730D02*
X040481Y065730D01*
X040230Y065982D01*
X040230Y066338D01*
X040481Y066590D01*
X040838Y066590D01*
X041090Y066338D01*
X041090Y065982D01*
X040838Y065730D01*
X040890Y065783D02*
X041429Y065783D01*
X041270Y065941D02*
X041049Y065941D01*
X041090Y066100D02*
X041230Y066100D01*
X041230Y066258D02*
X041090Y066258D01*
X041011Y066417D02*
X041308Y066417D01*
X041466Y066575D02*
X040853Y066575D01*
X040466Y066575D02*
X039853Y066575D01*
X039838Y066590D02*
X039481Y066590D01*
X039230Y066338D01*
X039230Y065982D01*
X039481Y065730D01*
X039838Y065730D01*
X040090Y065982D01*
X040090Y066338D01*
X039838Y066590D01*
X040011Y066417D02*
X040308Y066417D01*
X040230Y066258D02*
X040090Y066258D01*
X040090Y066100D02*
X040230Y066100D01*
X040270Y065941D02*
X040049Y065941D01*
X039890Y065783D02*
X040429Y065783D01*
X040357Y065466D02*
X039962Y065466D01*
X039838Y065590D02*
X040090Y065338D01*
X040090Y064982D01*
X039838Y064730D01*
X039481Y064730D01*
X039230Y064982D01*
X039230Y065338D01*
X039481Y065590D01*
X039838Y065590D01*
X040090Y065307D02*
X040230Y065307D01*
X040230Y065149D02*
X040090Y065149D01*
X040090Y064990D02*
X040230Y064990D01*
X040380Y064832D02*
X039939Y064832D01*
X039380Y064832D02*
X021217Y064832D01*
X021196Y064820D02*
X021453Y064968D01*
X021664Y065179D01*
X021813Y065436D01*
X021890Y065724D01*
X021890Y066021D01*
X021813Y066309D01*
X021664Y066566D01*
X021453Y066777D01*
X021196Y066925D01*
X020908Y067002D01*
X020611Y067002D01*
X020323Y066925D01*
X020066Y066777D01*
X019855Y066566D01*
X019707Y066309D01*
X019630Y066021D01*
X019630Y065724D01*
X019707Y065436D01*
X019855Y065179D01*
X020066Y064968D01*
X020323Y064820D01*
X020611Y064743D01*
X020908Y064743D01*
X021196Y064820D01*
X021475Y064990D02*
X039230Y064990D01*
X039230Y065149D02*
X021634Y065149D01*
X021738Y065307D02*
X039230Y065307D01*
X039357Y065466D02*
X021820Y065466D01*
X021863Y065624D02*
X048445Y065624D01*
X048461Y065640D02*
X048180Y065359D01*
X048180Y065180D01*
X048640Y065180D01*
X048640Y065640D01*
X048461Y065640D01*
X048481Y065730D02*
X048838Y065730D01*
X049090Y065982D01*
X049090Y066338D01*
X048838Y066590D01*
X048481Y066590D01*
X048230Y066338D01*
X048230Y065982D01*
X048481Y065730D01*
X048429Y065783D02*
X047890Y065783D01*
X047838Y065730D02*
X048090Y065982D01*
X048090Y066338D01*
X047838Y066590D01*
X047481Y066590D01*
X047230Y066338D01*
X047230Y065982D01*
X047481Y065730D01*
X047838Y065730D01*
X047838Y065590D02*
X047481Y065590D01*
X047230Y065338D01*
X047230Y064982D01*
X047481Y064730D01*
X047838Y064730D01*
X048090Y064982D01*
X048090Y065338D01*
X047838Y065590D01*
X047962Y065466D02*
X048286Y065466D01*
X048180Y065307D02*
X048090Y065307D01*
X048090Y065149D02*
X048640Y065149D01*
X048640Y065140D02*
X048180Y065140D01*
X048180Y064961D01*
X048461Y064680D01*
X048640Y064680D01*
X048640Y065140D01*
X048680Y065140D01*
X048680Y065180D01*
X049140Y065180D01*
X049140Y065359D01*
X048858Y065640D01*
X048680Y065640D01*
X048680Y065180D01*
X048640Y065180D01*
X048640Y065140D01*
X048680Y065140D02*
X048680Y064680D01*
X048858Y064680D01*
X049140Y064961D01*
X049140Y065140D01*
X048680Y065140D01*
X048680Y065149D02*
X064230Y065149D01*
X064230Y065307D02*
X049140Y065307D01*
X049033Y065466D02*
X064357Y065466D01*
X064481Y065590D02*
X064230Y065338D01*
X064230Y064982D01*
X064481Y064730D01*
X064838Y064730D01*
X065090Y064982D01*
X065090Y065338D01*
X064838Y065590D01*
X064481Y065590D01*
X064481Y065730D02*
X064838Y065730D01*
X065090Y065982D01*
X065090Y066338D01*
X064838Y066590D01*
X064481Y066590D01*
X064230Y066338D01*
X064230Y065982D01*
X064481Y065730D01*
X064429Y065783D02*
X048890Y065783D01*
X048874Y065624D02*
X073445Y065624D01*
X073461Y065640D02*
X073180Y065359D01*
X073180Y065180D01*
X073640Y065180D01*
X073640Y065640D01*
X073461Y065640D01*
X073481Y065730D02*
X073838Y065730D01*
X074090Y065982D01*
X074090Y066338D01*
X073838Y066590D01*
X073481Y066590D01*
X073230Y066338D01*
X073230Y065982D01*
X073481Y065730D01*
X073429Y065783D02*
X072890Y065783D01*
X072838Y065730D02*
X073090Y065982D01*
X073090Y066338D01*
X072838Y066590D01*
X072481Y066590D01*
X072230Y066338D01*
X072230Y065982D01*
X072481Y065730D01*
X072838Y065730D01*
X072838Y065590D02*
X072481Y065590D01*
X072230Y065338D01*
X072230Y064982D01*
X072481Y064730D01*
X072838Y064730D01*
X073090Y064982D01*
X073090Y065338D01*
X072838Y065590D01*
X072962Y065466D02*
X073286Y065466D01*
X073180Y065307D02*
X073090Y065307D01*
X073090Y065149D02*
X073640Y065149D01*
X073640Y065140D02*
X073180Y065140D01*
X073180Y064961D01*
X073461Y064680D01*
X073640Y064680D01*
X073640Y065140D01*
X073680Y065140D01*
X073680Y065180D01*
X074140Y065180D01*
X074140Y065359D01*
X073858Y065640D01*
X073680Y065640D01*
X073680Y065180D01*
X073640Y065180D01*
X073640Y065140D01*
X073680Y065140D02*
X073680Y064680D01*
X073858Y064680D01*
X074140Y064961D01*
X074140Y065140D01*
X073680Y065140D01*
X073680Y065149D02*
X074680Y065149D01*
X074680Y065307D02*
X074140Y065307D01*
X074033Y065466D02*
X074680Y065466D01*
X074680Y065624D02*
X073874Y065624D01*
X073890Y065783D02*
X074680Y065783D01*
X074680Y065941D02*
X074049Y065941D01*
X074090Y066100D02*
X074680Y066100D01*
X074680Y066258D02*
X074090Y066258D01*
X074011Y066417D02*
X074680Y066417D01*
X074680Y066575D02*
X073853Y066575D01*
X073466Y066575D02*
X072853Y066575D01*
X073011Y066417D02*
X073308Y066417D01*
X073230Y066258D02*
X073090Y066258D01*
X073090Y066100D02*
X073230Y066100D01*
X073270Y065941D02*
X073049Y065941D01*
X072429Y065783D02*
X071890Y065783D01*
X071838Y065730D02*
X072090Y065982D01*
X072090Y066338D01*
X071838Y066590D01*
X071481Y066590D01*
X071230Y066338D01*
X071230Y065982D01*
X071481Y065730D01*
X071838Y065730D01*
X071838Y065590D02*
X071481Y065590D01*
X071230Y065338D01*
X071230Y064982D01*
X071481Y064730D01*
X071838Y064730D01*
X072090Y064982D01*
X072090Y065338D01*
X071838Y065590D01*
X071962Y065466D02*
X072357Y065466D01*
X072230Y065307D02*
X072090Y065307D01*
X072090Y065149D02*
X072230Y065149D01*
X072230Y064990D02*
X072090Y064990D01*
X071939Y064832D02*
X072380Y064832D01*
X072939Y064832D02*
X073309Y064832D01*
X073180Y064990D02*
X073090Y064990D01*
X073640Y064990D02*
X073680Y064990D01*
X073680Y064832D02*
X073640Y064832D01*
X074010Y064832D02*
X074680Y064832D01*
X074680Y064990D02*
X074140Y064990D01*
X073680Y065307D02*
X073640Y065307D01*
X073640Y065466D02*
X073680Y065466D01*
X073680Y065624D02*
X073640Y065624D01*
X074680Y064673D02*
X011240Y064673D01*
X011240Y064515D02*
X074680Y064515D01*
X074680Y064356D02*
X011240Y064356D01*
X011240Y064198D02*
X074680Y064198D01*
X074680Y064039D02*
X011240Y064039D01*
X011240Y063881D02*
X074680Y063881D01*
X074680Y063722D02*
X013702Y063722D01*
X013757Y063707D02*
X013495Y063777D01*
X013224Y063777D01*
X012962Y063707D01*
X012727Y063572D01*
X012535Y063380D01*
X012400Y063145D01*
X012330Y062883D01*
X012330Y062612D01*
X012400Y062350D01*
X012535Y062115D01*
X012727Y061923D01*
X012962Y061788D01*
X013224Y061718D01*
X013495Y061718D01*
X013757Y061788D01*
X013992Y061923D01*
X014184Y062115D01*
X014319Y062350D01*
X014390Y062612D01*
X014390Y062883D01*
X014319Y063145D01*
X014184Y063380D01*
X013992Y063572D01*
X013757Y063707D01*
X014000Y063564D02*
X074680Y063564D01*
X074680Y063405D02*
X014159Y063405D01*
X014261Y063247D02*
X074680Y063247D01*
X074680Y063088D02*
X014335Y063088D01*
X014377Y062930D02*
X074680Y062930D01*
X074680Y062771D02*
X014390Y062771D01*
X014390Y062613D02*
X074680Y062613D01*
X074680Y062454D02*
X065168Y062454D01*
X065201Y062421D02*
X065121Y062502D01*
X065016Y062545D01*
X064903Y062545D01*
X064798Y062502D01*
X064718Y062421D01*
X064675Y062317D01*
X064675Y062203D01*
X064718Y062099D01*
X064798Y062018D01*
X064903Y061975D01*
X065016Y061975D01*
X065121Y062018D01*
X065201Y062099D01*
X065245Y062203D01*
X065245Y062317D01*
X065201Y062421D01*
X065245Y062296D02*
X074680Y062296D01*
X074680Y062137D02*
X065217Y062137D01*
X065025Y061979D02*
X074680Y061979D01*
X074680Y061820D02*
X013813Y061820D01*
X014047Y061979D02*
X064894Y061979D01*
X064702Y062137D02*
X014196Y062137D01*
X014288Y062296D02*
X064675Y062296D01*
X064751Y062454D02*
X014347Y062454D01*
X012906Y061820D02*
X011240Y061820D01*
X011240Y061662D02*
X074680Y061662D01*
X074680Y061503D02*
X011240Y061503D01*
X011240Y061345D02*
X068702Y061345D01*
X068817Y061345D02*
X074680Y061345D01*
X074680Y061186D02*
X069016Y061186D01*
X069045Y061028D02*
X074680Y061028D01*
X074680Y057699D02*
X011240Y057699D01*
X011240Y057541D02*
X074680Y057541D01*
X071380Y064832D02*
X070939Y064832D01*
X070838Y064730D02*
X071090Y064982D01*
X071090Y065338D01*
X070838Y065590D01*
X070481Y065590D01*
X070230Y065338D01*
X070230Y064982D01*
X070481Y064730D01*
X070838Y064730D01*
X071090Y064990D02*
X071230Y064990D01*
X071230Y065149D02*
X071090Y065149D01*
X071090Y065307D02*
X071230Y065307D01*
X071357Y065466D02*
X070962Y065466D01*
X070838Y065730D02*
X071090Y065982D01*
X071090Y066338D01*
X070838Y066590D01*
X070481Y066590D01*
X070230Y066338D01*
X070230Y065982D01*
X070481Y065730D01*
X070838Y065730D01*
X070890Y065783D02*
X071429Y065783D01*
X071270Y065941D02*
X071049Y065941D01*
X071090Y066100D02*
X071230Y066100D01*
X071230Y066258D02*
X071090Y066258D01*
X071011Y066417D02*
X071308Y066417D01*
X071466Y066575D02*
X070853Y066575D01*
X070466Y066575D02*
X069853Y066575D01*
X069838Y066590D02*
X069481Y066590D01*
X069230Y066338D01*
X069230Y065982D01*
X069481Y065730D01*
X069838Y065730D01*
X070090Y065982D01*
X070090Y066338D01*
X069838Y066590D01*
X070011Y066417D02*
X070308Y066417D01*
X070230Y066258D02*
X070090Y066258D01*
X070090Y066100D02*
X070230Y066100D01*
X070270Y065941D02*
X070049Y065941D01*
X069890Y065783D02*
X070429Y065783D01*
X070357Y065466D02*
X069962Y065466D01*
X069838Y065590D02*
X070090Y065338D01*
X070090Y064982D01*
X069838Y064730D01*
X069481Y064730D01*
X069230Y064982D01*
X069230Y065338D01*
X069481Y065590D01*
X069838Y065590D01*
X070090Y065307D02*
X070230Y065307D01*
X070230Y065149D02*
X070090Y065149D01*
X070090Y064990D02*
X070230Y064990D01*
X070380Y064832D02*
X069939Y064832D01*
X069380Y064832D02*
X068939Y064832D01*
X068838Y064730D02*
X069090Y064982D01*
X069090Y065338D01*
X068838Y065590D01*
X068481Y065590D01*
X068230Y065338D01*
X068230Y064982D01*
X068481Y064730D01*
X068838Y064730D01*
X069090Y064990D02*
X069230Y064990D01*
X069230Y065149D02*
X069090Y065149D01*
X069090Y065307D02*
X069230Y065307D01*
X069357Y065466D02*
X068962Y065466D01*
X068838Y065730D02*
X068481Y065730D01*
X068230Y065982D01*
X068230Y066338D01*
X068481Y066590D01*
X068838Y066590D01*
X069090Y066338D01*
X069090Y065982D01*
X068838Y065730D01*
X068890Y065783D02*
X069429Y065783D01*
X069270Y065941D02*
X069049Y065941D01*
X069090Y066100D02*
X069230Y066100D01*
X069230Y066258D02*
X069090Y066258D01*
X069011Y066417D02*
X069308Y066417D01*
X069466Y066575D02*
X068853Y066575D01*
X068466Y066575D02*
X067853Y066575D01*
X067838Y066590D02*
X067481Y066590D01*
X067230Y066338D01*
X067230Y065982D01*
X067481Y065730D01*
X067838Y065730D01*
X068090Y065982D01*
X068090Y066338D01*
X067838Y066590D01*
X068011Y066417D02*
X068308Y066417D01*
X068230Y066258D02*
X068090Y066258D01*
X068090Y066100D02*
X068230Y066100D01*
X068270Y065941D02*
X068049Y065941D01*
X067890Y065783D02*
X068429Y065783D01*
X068357Y065466D02*
X067962Y065466D01*
X067838Y065590D02*
X068090Y065338D01*
X068090Y064982D01*
X067838Y064730D01*
X067481Y064730D01*
X067230Y064982D01*
X067230Y065338D01*
X067481Y065590D01*
X067838Y065590D01*
X068090Y065307D02*
X068230Y065307D01*
X068230Y065149D02*
X068090Y065149D01*
X068090Y064990D02*
X068230Y064990D01*
X068380Y064832D02*
X067939Y064832D01*
X067380Y064832D02*
X066939Y064832D01*
X066838Y064730D02*
X067090Y064982D01*
X067090Y065338D01*
X066838Y065590D01*
X066481Y065590D01*
X066230Y065338D01*
X066230Y064982D01*
X066481Y064730D01*
X066838Y064730D01*
X067090Y064990D02*
X067230Y064990D01*
X067230Y065149D02*
X067090Y065149D01*
X067090Y065307D02*
X067230Y065307D01*
X067357Y065466D02*
X066962Y065466D01*
X066838Y065730D02*
X067090Y065982D01*
X067090Y066338D01*
X066838Y066590D01*
X066481Y066590D01*
X066230Y066338D01*
X066230Y065982D01*
X066481Y065730D01*
X066838Y065730D01*
X066890Y065783D02*
X067429Y065783D01*
X067270Y065941D02*
X067049Y065941D01*
X067090Y066100D02*
X067230Y066100D01*
X067230Y066258D02*
X067090Y066258D01*
X067011Y066417D02*
X067308Y066417D01*
X067466Y066575D02*
X066853Y066575D01*
X066466Y066575D02*
X065853Y066575D01*
X065838Y066590D02*
X065481Y066590D01*
X065230Y066338D01*
X065230Y065982D01*
X065481Y065730D01*
X065838Y065730D01*
X066090Y065982D01*
X066090Y066338D01*
X065838Y066590D01*
X066011Y066417D02*
X066308Y066417D01*
X066230Y066258D02*
X066090Y066258D01*
X066090Y066100D02*
X066230Y066100D01*
X066270Y065941D02*
X066049Y065941D01*
X065890Y065783D02*
X066429Y065783D01*
X066357Y065466D02*
X065962Y065466D01*
X065838Y065590D02*
X065481Y065590D01*
X065230Y065338D01*
X065230Y064982D01*
X065481Y064730D01*
X065838Y064730D01*
X066090Y064982D01*
X066090Y065338D01*
X065838Y065590D01*
X066090Y065307D02*
X066230Y065307D01*
X066230Y065149D02*
X066090Y065149D01*
X066090Y064990D02*
X066230Y064990D01*
X066380Y064832D02*
X065939Y064832D01*
X065380Y064832D02*
X064939Y064832D01*
X065090Y064990D02*
X065230Y064990D01*
X065230Y065149D02*
X065090Y065149D01*
X065090Y065307D02*
X065230Y065307D01*
X065357Y065466D02*
X064962Y065466D01*
X064890Y065783D02*
X065429Y065783D01*
X065270Y065941D02*
X065049Y065941D01*
X065090Y066100D02*
X065230Y066100D01*
X065230Y066258D02*
X065090Y066258D01*
X065011Y066417D02*
X065308Y066417D01*
X065466Y066575D02*
X064853Y066575D01*
X064466Y066575D02*
X048853Y066575D01*
X049011Y066417D02*
X064308Y066417D01*
X064230Y066258D02*
X049090Y066258D01*
X049090Y066100D02*
X064230Y066100D01*
X064270Y065941D02*
X049049Y065941D01*
X048680Y065624D02*
X048640Y065624D01*
X048640Y065466D02*
X048680Y065466D01*
X048680Y065307D02*
X048640Y065307D01*
X048640Y064990D02*
X048680Y064990D01*
X048680Y064832D02*
X048640Y064832D01*
X048309Y064832D02*
X047939Y064832D01*
X048090Y064990D02*
X048180Y064990D01*
X047380Y064832D02*
X046939Y064832D01*
X046838Y064730D02*
X047090Y064982D01*
X047090Y065338D01*
X046838Y065590D01*
X046481Y065590D01*
X046230Y065338D01*
X046230Y064982D01*
X046481Y064730D01*
X046838Y064730D01*
X047090Y064990D02*
X047230Y064990D01*
X047230Y065149D02*
X047090Y065149D01*
X047090Y065307D02*
X047230Y065307D01*
X047357Y065466D02*
X046962Y065466D01*
X046838Y065730D02*
X046481Y065730D01*
X046230Y065982D01*
X046230Y066338D01*
X046481Y066590D01*
X046838Y066590D01*
X047090Y066338D01*
X047090Y065982D01*
X046838Y065730D01*
X046890Y065783D02*
X047429Y065783D01*
X047270Y065941D02*
X047049Y065941D01*
X047090Y066100D02*
X047230Y066100D01*
X047230Y066258D02*
X047090Y066258D01*
X047011Y066417D02*
X047308Y066417D01*
X047466Y066575D02*
X046853Y066575D01*
X046466Y066575D02*
X045853Y066575D01*
X046011Y066417D02*
X046308Y066417D01*
X046230Y066258D02*
X046090Y066258D01*
X046090Y066100D02*
X046230Y066100D01*
X046270Y065941D02*
X046049Y065941D01*
X045890Y065783D02*
X046429Y065783D01*
X046357Y065466D02*
X045962Y065466D01*
X046090Y065307D02*
X046230Y065307D01*
X046230Y065149D02*
X046090Y065149D01*
X046090Y064990D02*
X046230Y064990D01*
X046380Y064832D02*
X045939Y064832D01*
X048049Y065941D02*
X048270Y065941D01*
X048230Y066100D02*
X048090Y066100D01*
X048090Y066258D02*
X048230Y066258D01*
X048308Y066417D02*
X048011Y066417D01*
X047853Y066575D02*
X048466Y066575D01*
X049140Y064990D02*
X064230Y064990D01*
X064380Y064832D02*
X049010Y064832D01*
X058248Y074718D02*
X058353Y074675D01*
X058466Y074675D01*
X058571Y074718D01*
X058651Y074799D01*
X058695Y074903D01*
X058695Y075017D01*
X058651Y075121D01*
X058571Y075202D01*
X058466Y075245D01*
X058353Y075245D01*
X058248Y075202D01*
X058168Y075121D01*
X058125Y075017D01*
X058125Y074903D01*
X058168Y074799D01*
X058248Y074718D01*
X058160Y074817D02*
X011240Y074817D01*
X011240Y074659D02*
X074680Y074659D01*
X074680Y074817D02*
X061759Y074817D01*
X061751Y074799D02*
X061795Y074903D01*
X061795Y075017D01*
X061751Y075121D01*
X061671Y075202D01*
X061566Y075245D01*
X061453Y075245D01*
X061348Y075202D01*
X061268Y075121D01*
X061225Y075017D01*
X061225Y074903D01*
X061268Y074799D01*
X061348Y074718D01*
X061453Y074675D01*
X061566Y074675D01*
X061671Y074718D01*
X061751Y074799D01*
X061795Y074976D02*
X074680Y074976D01*
X074680Y075134D02*
X061738Y075134D01*
X061281Y075134D02*
X060638Y075134D01*
X060651Y075121D02*
X060571Y075202D01*
X060466Y075245D01*
X060353Y075245D01*
X060248Y075202D01*
X060168Y075121D01*
X060125Y075017D01*
X060125Y074903D01*
X060168Y074799D01*
X060248Y074718D01*
X060353Y074675D01*
X060466Y074675D01*
X060571Y074718D01*
X060651Y074799D01*
X060695Y074903D01*
X060695Y075017D01*
X060651Y075121D01*
X060695Y074976D02*
X061225Y074976D01*
X061260Y074817D02*
X060659Y074817D01*
X060160Y074817D02*
X059759Y074817D01*
X059751Y074799D02*
X059795Y074903D01*
X059795Y075017D01*
X059751Y075121D01*
X059671Y075202D01*
X059566Y075245D01*
X059453Y075245D01*
X059348Y075202D01*
X059268Y075121D01*
X059225Y075017D01*
X059225Y074903D01*
X059268Y074799D01*
X059348Y074718D01*
X059453Y074675D01*
X059566Y074675D01*
X059671Y074718D01*
X059751Y074799D01*
X059795Y074976D02*
X060125Y074976D01*
X060181Y075134D02*
X059738Y075134D01*
X059281Y075134D02*
X058638Y075134D01*
X058695Y074976D02*
X059225Y074976D01*
X059260Y074817D02*
X058659Y074817D01*
X058125Y074976D02*
X011240Y074976D01*
X011240Y075134D02*
X058181Y075134D01*
X061478Y077619D02*
X061558Y077538D01*
X061663Y077495D01*
X061776Y077495D01*
X061881Y077538D01*
X061961Y077619D01*
X062005Y077723D01*
X062005Y077837D01*
X061961Y077941D01*
X061881Y078022D01*
X061776Y078065D01*
X061663Y078065D01*
X061558Y078022D01*
X061478Y077941D01*
X061435Y077837D01*
X061435Y077723D01*
X061478Y077619D01*
X061457Y077670D02*
X011240Y077670D01*
X011240Y077512D02*
X061623Y077512D01*
X061816Y077512D02*
X074680Y077512D01*
X074680Y077670D02*
X061982Y077670D01*
X062005Y077829D02*
X074680Y077829D01*
X074680Y077987D02*
X061915Y077987D01*
X061524Y077987D02*
X011240Y077987D01*
X011240Y077829D02*
X061435Y077829D01*
X058118Y081473D02*
X058346Y081701D01*
X058469Y081999D01*
X058469Y082321D01*
X058346Y082619D01*
X058118Y082847D01*
X057821Y082970D01*
X057498Y082970D01*
X057201Y082847D01*
X056973Y082619D01*
X056850Y082321D01*
X056850Y081999D01*
X056973Y081701D01*
X057201Y081473D01*
X057498Y081350D01*
X057821Y081350D01*
X058118Y081473D01*
X058119Y081474D02*
X074680Y081474D01*
X074680Y081316D02*
X011240Y081316D01*
X011240Y081474D02*
X057200Y081474D01*
X057042Y081633D02*
X011240Y081633D01*
X011240Y081791D02*
X014282Y081791D01*
X014324Y081780D02*
X014595Y081780D01*
X014857Y081850D01*
X015092Y081986D01*
X015284Y082178D01*
X015419Y082412D01*
X015490Y082674D01*
X015490Y082946D01*
X015419Y083208D01*
X015284Y083442D01*
X015092Y083634D01*
X014857Y083770D01*
X014595Y083840D01*
X014324Y083840D01*
X014062Y083770D01*
X013827Y083634D01*
X013635Y083442D01*
X013500Y083208D01*
X013430Y082946D01*
X013430Y082674D01*
X013500Y082412D01*
X013635Y082178D01*
X013827Y081986D01*
X014062Y081850D01*
X014324Y081780D01*
X014637Y081791D02*
X039420Y081791D01*
X039481Y081730D02*
X039230Y081982D01*
X039230Y082338D01*
X039481Y082590D01*
X039838Y082590D01*
X040090Y082338D01*
X040090Y081982D01*
X039838Y081730D01*
X039481Y081730D01*
X039262Y081950D02*
X015029Y081950D01*
X015214Y082108D02*
X039230Y082108D01*
X039230Y082267D02*
X015335Y082267D01*
X015423Y082425D02*
X039317Y082425D01*
X039475Y082584D02*
X015465Y082584D01*
X015490Y082742D02*
X039469Y082742D01*
X039481Y082730D02*
X039838Y082730D01*
X040090Y082982D01*
X040090Y083338D01*
X039838Y083590D01*
X039481Y083590D01*
X039230Y083338D01*
X039230Y082982D01*
X039481Y082730D01*
X039311Y082901D02*
X015490Y082901D01*
X015459Y083059D02*
X039230Y083059D01*
X039230Y083218D02*
X015414Y083218D01*
X015322Y083376D02*
X039268Y083376D01*
X039426Y083535D02*
X015192Y083535D01*
X014990Y083693D02*
X074269Y083693D01*
X074396Y083535D02*
X073893Y083535D01*
X073838Y083590D02*
X073481Y083590D01*
X073230Y083338D01*
X073230Y082982D01*
X073481Y082730D01*
X073838Y082730D01*
X074090Y082982D01*
X074090Y083338D01*
X073838Y083590D01*
X074052Y083376D02*
X074474Y083376D01*
X074550Y083218D02*
X074090Y083218D01*
X074090Y083059D02*
X074601Y083059D01*
X074637Y082901D02*
X074008Y082901D01*
X073850Y082742D02*
X074669Y082742D01*
X074678Y082584D02*
X073844Y082584D01*
X073838Y082590D02*
X073481Y082590D01*
X073230Y082338D01*
X073230Y081982D01*
X073481Y081730D01*
X073838Y081730D01*
X074090Y081982D01*
X074090Y082338D01*
X073838Y082590D01*
X074003Y082425D02*
X074680Y082425D01*
X074680Y082267D02*
X074090Y082267D01*
X074090Y082108D02*
X074680Y082108D01*
X074680Y081950D02*
X074057Y081950D01*
X073899Y081791D02*
X074680Y081791D01*
X074680Y081633D02*
X058278Y081633D01*
X058383Y081791D02*
X064420Y081791D01*
X064481Y081730D02*
X064230Y081982D01*
X064230Y082338D01*
X064481Y082590D01*
X064838Y082590D01*
X065090Y082338D01*
X065090Y081982D01*
X064838Y081730D01*
X064481Y081730D01*
X064262Y081950D02*
X058449Y081950D01*
X058469Y082108D02*
X064230Y082108D01*
X064230Y082267D02*
X058469Y082267D01*
X058426Y082425D02*
X064317Y082425D01*
X064475Y082584D02*
X058361Y082584D01*
X058223Y082742D02*
X064469Y082742D01*
X064481Y082730D02*
X064838Y082730D01*
X065090Y082982D01*
X065090Y083338D01*
X064838Y083590D01*
X064481Y083590D01*
X064230Y083338D01*
X064230Y082982D01*
X064481Y082730D01*
X064311Y082901D02*
X057988Y082901D01*
X057331Y082901D02*
X049008Y082901D01*
X049090Y082982D02*
X048838Y082730D01*
X048481Y082730D01*
X048230Y082982D01*
X048230Y083338D01*
X048481Y083590D01*
X048838Y083590D01*
X049090Y083338D01*
X049090Y082982D01*
X049090Y083059D02*
X064230Y083059D01*
X064230Y083218D02*
X049090Y083218D01*
X049052Y083376D02*
X064268Y083376D01*
X064426Y083535D02*
X048893Y083535D01*
X048426Y083535D02*
X047893Y083535D01*
X047838Y083590D02*
X047481Y083590D01*
X047230Y083338D01*
X047230Y082982D01*
X047481Y082730D01*
X047838Y082730D01*
X048090Y082982D01*
X048090Y083338D01*
X047838Y083590D01*
X048052Y083376D02*
X048268Y083376D01*
X048230Y083218D02*
X048090Y083218D01*
X048090Y083059D02*
X048230Y083059D01*
X048311Y082901D02*
X048008Y082901D01*
X047850Y082742D02*
X048469Y082742D01*
X048481Y082590D02*
X048230Y082338D01*
X048230Y081982D01*
X048481Y081730D01*
X048838Y081730D01*
X049090Y081982D01*
X049090Y082338D01*
X048838Y082590D01*
X048481Y082590D01*
X048475Y082584D02*
X047915Y082584D01*
X047858Y082640D02*
X047680Y082640D01*
X047680Y082180D01*
X048140Y082180D01*
X048140Y082359D01*
X047858Y082640D01*
X047680Y082584D02*
X047640Y082584D01*
X047640Y082640D02*
X047640Y082180D01*
X047680Y082180D01*
X047680Y082140D01*
X048140Y082140D01*
X048140Y081961D01*
X047858Y081680D01*
X047680Y081680D01*
X047680Y082140D01*
X047640Y082140D01*
X047640Y081680D01*
X047461Y081680D01*
X047180Y081961D01*
X047180Y082140D01*
X047640Y082140D01*
X047640Y082180D01*
X047180Y082180D01*
X047180Y082359D01*
X047461Y082640D01*
X047640Y082640D01*
X047469Y082742D02*
X046850Y082742D01*
X046838Y082730D02*
X047090Y082982D01*
X047090Y083338D01*
X046838Y083590D01*
X046481Y083590D01*
X046230Y083338D01*
X046230Y082982D01*
X046481Y082730D01*
X046838Y082730D01*
X046838Y082590D02*
X046481Y082590D01*
X046230Y082338D01*
X046230Y081982D01*
X046481Y081730D01*
X046838Y081730D01*
X047090Y081982D01*
X047090Y082338D01*
X046838Y082590D01*
X046844Y082584D02*
X047404Y082584D01*
X047246Y082425D02*
X047003Y082425D01*
X047090Y082267D02*
X047180Y082267D01*
X047180Y082108D02*
X047090Y082108D01*
X047057Y081950D02*
X047191Y081950D01*
X047350Y081791D02*
X046899Y081791D01*
X046420Y081791D02*
X045899Y081791D01*
X045838Y081730D02*
X046090Y081982D01*
X046090Y082338D01*
X045838Y082590D01*
X045481Y082590D01*
X045230Y082338D01*
X045230Y081982D01*
X045481Y081730D01*
X045838Y081730D01*
X046057Y081950D02*
X046262Y081950D01*
X046230Y082108D02*
X046090Y082108D01*
X046090Y082267D02*
X046230Y082267D01*
X046317Y082425D02*
X046003Y082425D01*
X045844Y082584D02*
X046475Y082584D01*
X046469Y082742D02*
X045850Y082742D01*
X045838Y082730D02*
X046090Y082982D01*
X046090Y083338D01*
X045838Y083590D01*
X045481Y083590D01*
X045230Y083338D01*
X045230Y082982D01*
X045481Y082730D01*
X045838Y082730D01*
X046008Y082901D02*
X046311Y082901D01*
X046230Y083059D02*
X046090Y083059D01*
X046090Y083218D02*
X046230Y083218D01*
X046268Y083376D02*
X046052Y083376D01*
X045893Y083535D02*
X046426Y083535D01*
X046893Y083535D02*
X047426Y083535D01*
X047268Y083376D02*
X047052Y083376D01*
X047090Y083218D02*
X047230Y083218D01*
X047230Y083059D02*
X047090Y083059D01*
X047008Y082901D02*
X047311Y082901D01*
X047640Y082425D02*
X047680Y082425D01*
X047680Y082267D02*
X047640Y082267D01*
X047640Y082108D02*
X047680Y082108D01*
X047680Y081950D02*
X047640Y081950D01*
X047640Y081791D02*
X047680Y081791D01*
X047969Y081791D02*
X048420Y081791D01*
X048262Y081950D02*
X048128Y081950D01*
X048140Y082108D02*
X048230Y082108D01*
X048230Y082267D02*
X048140Y082267D01*
X048073Y082425D02*
X048317Y082425D01*
X048844Y082584D02*
X056958Y082584D01*
X056893Y082425D02*
X049003Y082425D01*
X049090Y082267D02*
X056850Y082267D01*
X056850Y082108D02*
X049090Y082108D01*
X049057Y081950D02*
X056870Y081950D01*
X056936Y081791D02*
X048899Y081791D01*
X048850Y082742D02*
X057096Y082742D01*
X064844Y082584D02*
X065475Y082584D01*
X065481Y082590D02*
X065230Y082338D01*
X065230Y081982D01*
X065481Y081730D01*
X065838Y081730D01*
X066090Y081982D01*
X066090Y082338D01*
X065838Y082590D01*
X065481Y082590D01*
X065481Y082730D02*
X065230Y082982D01*
X065230Y083338D01*
X065481Y083590D01*
X065838Y083590D01*
X066090Y083338D01*
X066090Y082982D01*
X065838Y082730D01*
X065481Y082730D01*
X065469Y082742D02*
X064850Y082742D01*
X065008Y082901D02*
X065311Y082901D01*
X065230Y083059D02*
X065090Y083059D01*
X065090Y083218D02*
X065230Y083218D01*
X065268Y083376D02*
X065052Y083376D01*
X064893Y083535D02*
X065426Y083535D01*
X065893Y083535D02*
X066426Y083535D01*
X066481Y083590D02*
X066230Y083338D01*
X066230Y082982D01*
X066481Y082730D01*
X066838Y082730D01*
X067090Y082982D01*
X067090Y083338D01*
X066838Y083590D01*
X066481Y083590D01*
X066268Y083376D02*
X066052Y083376D01*
X066090Y083218D02*
X066230Y083218D01*
X066230Y083059D02*
X066090Y083059D01*
X066008Y082901D02*
X066311Y082901D01*
X066469Y082742D02*
X065850Y082742D01*
X065844Y082584D02*
X066475Y082584D01*
X066481Y082590D02*
X066230Y082338D01*
X066230Y081982D01*
X066481Y081730D01*
X066838Y081730D01*
X067090Y081982D01*
X067090Y082338D01*
X066838Y082590D01*
X066481Y082590D01*
X066317Y082425D02*
X066003Y082425D01*
X066090Y082267D02*
X066230Y082267D01*
X066230Y082108D02*
X066090Y082108D01*
X066057Y081950D02*
X066262Y081950D01*
X066420Y081791D02*
X065899Y081791D01*
X065420Y081791D02*
X064899Y081791D01*
X065057Y081950D02*
X065262Y081950D01*
X065230Y082108D02*
X065090Y082108D01*
X065090Y082267D02*
X065230Y082267D01*
X065317Y082425D02*
X065003Y082425D01*
X066844Y082584D02*
X067475Y082584D01*
X067481Y082590D02*
X067230Y082338D01*
X067230Y081982D01*
X067481Y081730D01*
X067838Y081730D01*
X068090Y081982D01*
X068090Y082338D01*
X067838Y082590D01*
X067481Y082590D01*
X067481Y082730D02*
X067838Y082730D01*
X068090Y082982D01*
X068090Y083338D01*
X067838Y083590D01*
X067481Y083590D01*
X067230Y083338D01*
X067230Y082982D01*
X067481Y082730D01*
X067469Y082742D02*
X066850Y082742D01*
X067008Y082901D02*
X067311Y082901D01*
X067230Y083059D02*
X067090Y083059D01*
X067090Y083218D02*
X067230Y083218D01*
X067268Y083376D02*
X067052Y083376D01*
X066893Y083535D02*
X067426Y083535D01*
X067893Y083535D02*
X068426Y083535D01*
X068481Y083590D02*
X068230Y083338D01*
X068230Y082982D01*
X068481Y082730D01*
X068838Y082730D01*
X069090Y082982D01*
X069090Y083338D01*
X068838Y083590D01*
X068481Y083590D01*
X068268Y083376D02*
X068052Y083376D01*
X068090Y083218D02*
X068230Y083218D01*
X068230Y083059D02*
X068090Y083059D01*
X068008Y082901D02*
X068311Y082901D01*
X068469Y082742D02*
X067850Y082742D01*
X067844Y082584D02*
X068475Y082584D01*
X068481Y082590D02*
X068230Y082338D01*
X068230Y081982D01*
X068481Y081730D01*
X068838Y081730D01*
X069090Y081982D01*
X069090Y082338D01*
X068838Y082590D01*
X068481Y082590D01*
X068317Y082425D02*
X068003Y082425D01*
X068090Y082267D02*
X068230Y082267D01*
X068230Y082108D02*
X068090Y082108D01*
X068057Y081950D02*
X068262Y081950D01*
X068420Y081791D02*
X067899Y081791D01*
X067420Y081791D02*
X066899Y081791D01*
X067057Y081950D02*
X067262Y081950D01*
X067230Y082108D02*
X067090Y082108D01*
X067090Y082267D02*
X067230Y082267D01*
X067317Y082425D02*
X067003Y082425D01*
X068844Y082584D02*
X069475Y082584D01*
X069481Y082590D02*
X069230Y082338D01*
X069230Y081982D01*
X069481Y081730D01*
X069838Y081730D01*
X070090Y081982D01*
X070090Y082338D01*
X069838Y082590D01*
X069481Y082590D01*
X069481Y082730D02*
X069230Y082982D01*
X069230Y083338D01*
X069481Y083590D01*
X069838Y083590D01*
X070090Y083338D01*
X070090Y082982D01*
X069838Y082730D01*
X069481Y082730D01*
X069469Y082742D02*
X068850Y082742D01*
X069008Y082901D02*
X069311Y082901D01*
X069230Y083059D02*
X069090Y083059D01*
X069090Y083218D02*
X069230Y083218D01*
X069268Y083376D02*
X069052Y083376D01*
X068893Y083535D02*
X069426Y083535D01*
X069893Y083535D02*
X070426Y083535D01*
X070481Y083590D02*
X070230Y083338D01*
X070230Y082982D01*
X070481Y082730D01*
X070838Y082730D01*
X071090Y082982D01*
X071090Y083338D01*
X070838Y083590D01*
X070481Y083590D01*
X070268Y083376D02*
X070052Y083376D01*
X070090Y083218D02*
X070230Y083218D01*
X070230Y083059D02*
X070090Y083059D01*
X070008Y082901D02*
X070311Y082901D01*
X070469Y082742D02*
X069850Y082742D01*
X069844Y082584D02*
X070475Y082584D01*
X070481Y082590D02*
X070230Y082338D01*
X070230Y081982D01*
X070481Y081730D01*
X070838Y081730D01*
X071090Y081982D01*
X071090Y082338D01*
X070838Y082590D01*
X070481Y082590D01*
X070317Y082425D02*
X070003Y082425D01*
X070090Y082267D02*
X070230Y082267D01*
X070230Y082108D02*
X070090Y082108D01*
X070057Y081950D02*
X070262Y081950D01*
X070420Y081791D02*
X069899Y081791D01*
X069420Y081791D02*
X068899Y081791D01*
X069057Y081950D02*
X069262Y081950D01*
X069230Y082108D02*
X069090Y082108D01*
X069090Y082267D02*
X069230Y082267D01*
X069317Y082425D02*
X069003Y082425D01*
X070844Y082584D02*
X071475Y082584D01*
X071481Y082590D02*
X071230Y082338D01*
X071230Y081982D01*
X071481Y081730D01*
X071838Y081730D01*
X072090Y081982D01*
X072090Y082338D01*
X071838Y082590D01*
X071481Y082590D01*
X071481Y082730D02*
X071838Y082730D01*
X072090Y082982D01*
X072090Y083338D01*
X071838Y083590D01*
X071481Y083590D01*
X071230Y083338D01*
X071230Y082982D01*
X071481Y082730D01*
X071469Y082742D02*
X070850Y082742D01*
X071008Y082901D02*
X071311Y082901D01*
X071230Y083059D02*
X071090Y083059D01*
X071090Y083218D02*
X071230Y083218D01*
X071268Y083376D02*
X071052Y083376D01*
X070893Y083535D02*
X071426Y083535D01*
X071893Y083535D02*
X072426Y083535D01*
X072481Y083590D02*
X072230Y083338D01*
X072230Y082982D01*
X072481Y082730D01*
X072838Y082730D01*
X073090Y082982D01*
X073090Y083338D01*
X072838Y083590D01*
X072481Y083590D01*
X072268Y083376D02*
X072052Y083376D01*
X072090Y083218D02*
X072230Y083218D01*
X072230Y083059D02*
X072090Y083059D01*
X072008Y082901D02*
X072311Y082901D01*
X072469Y082742D02*
X071850Y082742D01*
X071844Y082584D02*
X072404Y082584D01*
X072461Y082640D02*
X072180Y082359D01*
X072180Y082180D01*
X072640Y082180D01*
X072640Y082640D01*
X072461Y082640D01*
X072640Y082584D02*
X072680Y082584D01*
X072680Y082640D02*
X072680Y082180D01*
X073140Y082180D01*
X073140Y082359D01*
X072858Y082640D01*
X072680Y082640D01*
X072850Y082742D02*
X073469Y082742D01*
X073475Y082584D02*
X072915Y082584D01*
X073073Y082425D02*
X073317Y082425D01*
X073230Y082267D02*
X073140Y082267D01*
X073140Y082140D02*
X072680Y082140D01*
X072680Y082180D01*
X072640Y082180D01*
X072640Y082140D01*
X072680Y082140D01*
X072680Y081680D01*
X072858Y081680D01*
X073140Y081961D01*
X073140Y082140D01*
X073140Y082108D02*
X073230Y082108D01*
X073262Y081950D02*
X073128Y081950D01*
X072969Y081791D02*
X073420Y081791D01*
X072680Y081791D02*
X072640Y081791D01*
X072640Y081680D02*
X072640Y082140D01*
X072180Y082140D01*
X072180Y081961D01*
X072461Y081680D01*
X072640Y081680D01*
X072640Y081950D02*
X072680Y081950D01*
X072680Y082108D02*
X072640Y082108D01*
X072640Y082267D02*
X072680Y082267D01*
X072680Y082425D02*
X072640Y082425D01*
X072246Y082425D02*
X072003Y082425D01*
X072090Y082267D02*
X072180Y082267D01*
X072180Y082108D02*
X072090Y082108D01*
X072057Y081950D02*
X072191Y081950D01*
X072350Y081791D02*
X071899Y081791D01*
X071420Y081791D02*
X070899Y081791D01*
X071057Y081950D02*
X071262Y081950D01*
X071230Y082108D02*
X071090Y082108D01*
X071090Y082267D02*
X071230Y082267D01*
X071317Y082425D02*
X071003Y082425D01*
X073008Y082901D02*
X073311Y082901D01*
X073230Y083059D02*
X073090Y083059D01*
X073090Y083218D02*
X073230Y083218D01*
X073268Y083376D02*
X073052Y083376D01*
X072893Y083535D02*
X073426Y083535D01*
X073687Y084169D02*
X012232Y084169D01*
X011977Y084010D02*
X073942Y084010D01*
X074141Y083852D02*
X011778Y083852D01*
X011650Y083693D02*
X013929Y083693D01*
X013727Y083535D02*
X011524Y083535D01*
X011445Y083376D02*
X013597Y083376D01*
X013506Y083218D02*
X011369Y083218D01*
X011318Y083059D02*
X013460Y083059D01*
X013430Y082901D02*
X011282Y082901D01*
X011250Y082742D02*
X013430Y082742D01*
X013454Y082584D02*
X011241Y082584D01*
X011240Y082425D02*
X013496Y082425D01*
X013584Y082267D02*
X011240Y082267D01*
X011240Y082108D02*
X013705Y082108D01*
X013890Y081950D02*
X011240Y081950D01*
X011240Y081157D02*
X074680Y081157D01*
X074680Y080999D02*
X011240Y080999D01*
X011240Y080840D02*
X074680Y080840D01*
X074680Y080682D02*
X011240Y080682D01*
X011240Y080523D02*
X074680Y080523D01*
X074680Y080365D02*
X011240Y080365D01*
X011240Y080206D02*
X074680Y080206D01*
X074680Y080048D02*
X011240Y080048D01*
X011240Y079889D02*
X074680Y079889D01*
X074680Y079731D02*
X011240Y079731D01*
X011240Y079572D02*
X074680Y079572D01*
X074680Y079414D02*
X011240Y079414D01*
X011240Y079255D02*
X074680Y079255D01*
X074680Y079097D02*
X011240Y079097D01*
X011240Y078938D02*
X074680Y078938D01*
X074680Y078780D02*
X011240Y078780D01*
X011240Y078621D02*
X074680Y078621D01*
X074680Y078463D02*
X011240Y078463D01*
X011240Y078304D02*
X074680Y078304D01*
X074680Y078146D02*
X011240Y078146D01*
X011240Y077353D02*
X074680Y077353D01*
X074680Y077195D02*
X011240Y077195D01*
X011240Y077036D02*
X074680Y077036D01*
X074680Y076878D02*
X011240Y076878D01*
X011240Y076719D02*
X074680Y076719D01*
X074680Y076561D02*
X011240Y076561D01*
X011240Y076402D02*
X074680Y076402D01*
X074680Y076244D02*
X011240Y076244D01*
X011240Y076085D02*
X074680Y076085D01*
X074680Y075927D02*
X011240Y075927D01*
X011240Y075768D02*
X074680Y075768D01*
X074680Y075610D02*
X011240Y075610D01*
X011240Y075451D02*
X074680Y075451D01*
X074680Y075293D02*
X011240Y075293D01*
X011240Y074500D02*
X074680Y074500D01*
X074680Y074342D02*
X011240Y074342D01*
X011240Y074183D02*
X074680Y074183D01*
X074680Y074025D02*
X011240Y074025D01*
X011240Y073866D02*
X074680Y073866D01*
X074680Y073708D02*
X011240Y073708D01*
X011240Y073549D02*
X074680Y073549D01*
X074680Y073391D02*
X011240Y073391D01*
X011240Y073232D02*
X074680Y073232D01*
X074680Y073074D02*
X011240Y073074D01*
X011240Y072915D02*
X074680Y072915D01*
X074680Y072757D02*
X011240Y072757D01*
X011240Y072598D02*
X074680Y072598D01*
X074680Y072440D02*
X011240Y072440D01*
X011240Y072281D02*
X074680Y072281D01*
X074680Y072123D02*
X011240Y072123D01*
X011240Y071964D02*
X074680Y071964D01*
X074680Y071806D02*
X011240Y071806D01*
X011240Y071647D02*
X074680Y071647D01*
X074680Y071489D02*
X011240Y071489D01*
X011240Y071330D02*
X074680Y071330D01*
X074680Y071172D02*
X011240Y071172D01*
X011240Y071013D02*
X074680Y071013D01*
X074680Y070855D02*
X063099Y070855D01*
X063118Y070847D02*
X062821Y070970D01*
X062498Y070970D01*
X062201Y070847D01*
X061973Y070619D01*
X061850Y070321D01*
X061850Y069999D01*
X061973Y069701D01*
X062201Y069473D01*
X062498Y069350D01*
X062821Y069350D01*
X063118Y069473D01*
X063346Y069701D01*
X063469Y069999D01*
X063469Y070321D01*
X063346Y070619D01*
X063118Y070847D01*
X063269Y070696D02*
X074680Y070696D01*
X074680Y070538D02*
X063380Y070538D01*
X063445Y070379D02*
X074680Y070379D01*
X074680Y070221D02*
X063469Y070221D01*
X063469Y070062D02*
X074680Y070062D01*
X074680Y069904D02*
X063430Y069904D01*
X063364Y069745D02*
X074680Y069745D01*
X074680Y069587D02*
X063231Y069587D01*
X063009Y069428D02*
X074680Y069428D01*
X074680Y069270D02*
X014353Y069270D01*
X014319Y069395D02*
X014184Y069630D01*
X013992Y069822D01*
X013757Y069957D01*
X013495Y070027D01*
X013224Y070027D01*
X012962Y069957D01*
X012727Y069822D01*
X012535Y069630D01*
X012400Y069395D01*
X012330Y069133D01*
X012330Y068862D01*
X012400Y068600D01*
X012535Y068365D01*
X012727Y068173D01*
X012962Y068038D01*
X013224Y067968D01*
X013495Y067968D01*
X013757Y068038D01*
X013992Y068173D01*
X014184Y068365D01*
X014319Y068600D01*
X014390Y068862D01*
X014390Y069133D01*
X014319Y069395D01*
X014300Y069428D02*
X062310Y069428D01*
X062088Y069587D02*
X014209Y069587D01*
X014069Y069745D02*
X061955Y069745D01*
X061889Y069904D02*
X013850Y069904D01*
X014390Y069111D02*
X074680Y069111D01*
X074680Y068953D02*
X014390Y068953D01*
X014371Y068794D02*
X074680Y068794D01*
X074680Y068636D02*
X014329Y068636D01*
X014248Y068477D02*
X074680Y068477D01*
X074680Y068319D02*
X014137Y068319D01*
X013969Y068160D02*
X074680Y068160D01*
X074680Y068002D02*
X013622Y068002D01*
X013097Y068002D02*
X011240Y068002D01*
X011240Y068160D02*
X012750Y068160D01*
X012582Y068319D02*
X011240Y068319D01*
X011240Y068477D02*
X012471Y068477D01*
X012390Y068636D02*
X011240Y068636D01*
X011240Y068794D02*
X012348Y068794D01*
X012330Y068953D02*
X011240Y068953D01*
X011240Y069111D02*
X012330Y069111D01*
X012366Y069270D02*
X011240Y069270D01*
X011240Y069428D02*
X012419Y069428D01*
X012510Y069587D02*
X011240Y069587D01*
X011240Y069745D02*
X012650Y069745D01*
X012869Y069904D02*
X011240Y069904D01*
X011240Y070062D02*
X061850Y070062D01*
X061850Y070221D02*
X011240Y070221D01*
X011240Y070379D02*
X061874Y070379D01*
X061939Y070538D02*
X011240Y070538D01*
X011240Y070696D02*
X062050Y070696D01*
X062220Y070855D02*
X011240Y070855D01*
X011240Y067843D02*
X074680Y067843D01*
X074680Y067685D02*
X011240Y067685D01*
X011240Y067526D02*
X074680Y067526D01*
X074680Y067368D02*
X011240Y067368D01*
X011240Y067209D02*
X074680Y067209D01*
X074680Y067051D02*
X011240Y067051D01*
X011240Y066892D02*
X020266Y066892D01*
X020023Y066734D02*
X011240Y066734D01*
X011240Y066575D02*
X019864Y066575D01*
X019769Y066417D02*
X011240Y066417D01*
X011240Y066258D02*
X019693Y066258D01*
X019651Y066100D02*
X011240Y066100D01*
X011240Y065941D02*
X019630Y065941D01*
X019630Y065783D02*
X011240Y065783D01*
X011240Y065624D02*
X019656Y065624D01*
X019699Y065466D02*
X011240Y065466D01*
X011240Y065307D02*
X019781Y065307D01*
X019885Y065149D02*
X011240Y065149D01*
X011240Y064990D02*
X020044Y064990D01*
X020302Y064832D02*
X011240Y064832D01*
X011240Y063722D02*
X013017Y063722D01*
X012719Y063564D02*
X011240Y063564D01*
X011240Y063405D02*
X012560Y063405D01*
X012458Y063247D02*
X011240Y063247D01*
X011240Y063088D02*
X012384Y063088D01*
X012342Y062930D02*
X011240Y062930D01*
X011240Y062771D02*
X012330Y062771D01*
X012330Y062613D02*
X011240Y062613D01*
X011240Y062454D02*
X012372Y062454D01*
X012431Y062296D02*
X011240Y062296D01*
X011240Y062137D02*
X012523Y062137D01*
X012672Y061979D02*
X011240Y061979D01*
X011240Y058333D02*
X034805Y058333D01*
X034805Y058175D02*
X011240Y058175D01*
X011240Y058016D02*
X034954Y058016D01*
X035113Y057858D02*
X011240Y057858D01*
X014341Y049933D02*
X019119Y049933D01*
X018964Y049774D02*
X014276Y049774D01*
X014184Y049616D02*
X018945Y049616D01*
X019039Y049457D02*
X014026Y049457D01*
X011240Y048189D02*
X020374Y048189D01*
X020072Y048031D02*
X011240Y048031D01*
X011240Y047872D02*
X019911Y047872D01*
X019796Y047714D02*
X011240Y047714D01*
X011240Y047555D02*
X019706Y047555D01*
X019663Y047397D02*
X011240Y047397D01*
X011240Y047238D02*
X019630Y047238D01*
X019630Y047080D02*
X011240Y047080D01*
X011240Y046921D02*
X019644Y046921D01*
X019686Y046763D02*
X011240Y046763D01*
X011240Y046604D02*
X019754Y046604D01*
X019846Y046446D02*
X011240Y046446D01*
X011240Y046287D02*
X019997Y046287D01*
X020221Y046129D02*
X011240Y046129D01*
X011240Y042166D02*
X029083Y042166D01*
X028995Y042008D02*
X011240Y042008D01*
X011240Y041849D02*
X020191Y041849D01*
X019980Y041691D02*
X011240Y041691D01*
X011240Y041532D02*
X019835Y041532D01*
X019744Y041374D02*
X011240Y041374D01*
X011240Y041215D02*
X019681Y041215D01*
X019639Y041057D02*
X011240Y041057D01*
X011240Y040898D02*
X019630Y040898D01*
X019630Y040740D02*
X011240Y040740D01*
X011240Y040581D02*
X019668Y040581D01*
X019714Y040423D02*
X011240Y040423D01*
X011240Y040264D02*
X019806Y040264D01*
X019928Y040106D02*
X011240Y040106D01*
X011240Y039947D02*
X020102Y039947D01*
X020439Y039789D02*
X011240Y039789D01*
X011240Y032339D02*
X012757Y032339D01*
X012586Y032181D02*
X011240Y032181D01*
X011240Y032022D02*
X012473Y032022D01*
X012391Y031864D02*
X011240Y031864D01*
X011240Y031705D02*
X012349Y031705D01*
X012330Y031547D02*
X011240Y031547D01*
X011240Y031388D02*
X012330Y031388D01*
X012365Y031230D02*
X011240Y031230D01*
X011240Y031071D02*
X012416Y031071D01*
X012508Y030913D02*
X011240Y030913D01*
X011240Y030754D02*
X012646Y030754D01*
X012862Y030596D02*
X011240Y030596D01*
X011240Y029803D02*
X029122Y029803D01*
X029006Y029645D02*
X011240Y029645D01*
X011240Y029486D02*
X020549Y029486D01*
X020970Y029486D02*
X029002Y029486D01*
X029109Y029328D02*
X021365Y029328D01*
X020154Y029328D02*
X011240Y029328D01*
X011240Y029169D02*
X019958Y029169D01*
X019823Y029011D02*
X011240Y029011D01*
X011240Y028852D02*
X019732Y028852D01*
X019676Y028694D02*
X011240Y028694D01*
X011240Y028535D02*
X019633Y028535D01*
X019630Y028377D02*
X011240Y028377D01*
X011240Y028218D02*
X019631Y028218D01*
X019674Y028060D02*
X011240Y028060D01*
X011240Y027901D02*
X019727Y027901D01*
X019818Y027743D02*
X011240Y027743D01*
X011240Y027584D02*
X019950Y027584D01*
X020140Y027426D02*
X011240Y027426D01*
X011240Y025999D02*
X012654Y025999D01*
X012513Y025841D02*
X011240Y025841D01*
X011240Y025682D02*
X012421Y025682D01*
X012367Y025524D02*
X011240Y025524D01*
X011240Y025365D02*
X012330Y025365D01*
X012330Y025207D02*
X011240Y025207D01*
X011240Y025048D02*
X012347Y025048D01*
X012389Y024890D02*
X011240Y024890D01*
X011240Y024731D02*
X012468Y024731D01*
X012578Y024573D02*
X011240Y024573D01*
X011240Y024414D02*
X012743Y024414D01*
X013082Y024256D02*
X011240Y024256D01*
X011240Y023146D02*
X020272Y023146D01*
X020026Y022988D02*
X011240Y022988D01*
X011240Y022829D02*
X019868Y022829D01*
X019771Y022671D02*
X011240Y022671D01*
X011240Y022512D02*
X019694Y022512D01*
X019652Y022354D02*
X011240Y022354D01*
X011240Y022195D02*
X019630Y022195D01*
X019630Y022037D02*
X011240Y022037D01*
X011240Y021878D02*
X019655Y021878D01*
X019698Y021720D02*
X011240Y021720D01*
X011240Y021561D02*
X019779Y021561D01*
X019881Y021403D02*
X011240Y021403D01*
X011240Y021244D02*
X020040Y021244D01*
X020296Y021086D02*
X011240Y021086D01*
X014211Y030913D02*
X018986Y030913D01*
X018945Y031071D02*
X014303Y031071D01*
X021540Y041691D02*
X029185Y041691D01*
X029017Y041849D02*
X021328Y041849D01*
X029920Y057320D02*
X030320Y057520D01*
X030360Y057560D01*
X035846Y059918D02*
X039173Y059918D01*
X039014Y060077D02*
X036005Y060077D01*
X036078Y060235D02*
X038941Y060235D01*
X038905Y060394D02*
X036115Y060394D01*
X036115Y060552D02*
X038905Y060552D01*
X038962Y060711D02*
X036057Y060711D01*
X035954Y060869D02*
X039065Y060869D01*
X039289Y061028D02*
X035730Y061028D01*
X039429Y065783D02*
X021890Y065783D01*
X021890Y065941D02*
X030075Y065941D01*
X030098Y065918D02*
X030203Y065875D01*
X030316Y065875D01*
X030421Y065918D01*
X030501Y065999D01*
X030545Y066103D01*
X030545Y066217D01*
X030501Y066321D01*
X030421Y066402D01*
X030316Y066445D01*
X030203Y066445D01*
X030098Y066402D01*
X030018Y066321D01*
X029975Y066217D01*
X029975Y066103D01*
X030018Y065999D01*
X030098Y065918D01*
X029976Y066100D02*
X021869Y066100D01*
X021826Y066258D02*
X029992Y066258D01*
X030134Y066417D02*
X029417Y066417D01*
X029421Y066418D02*
X029501Y066499D01*
X029545Y066603D01*
X029545Y066717D01*
X029501Y066821D01*
X029421Y066902D01*
X029316Y066945D01*
X029203Y066945D01*
X029098Y066902D01*
X029018Y066821D01*
X028975Y066717D01*
X028975Y066603D01*
X029018Y066499D01*
X029098Y066418D01*
X029203Y066375D01*
X029316Y066375D01*
X029421Y066418D01*
X029533Y066575D02*
X039466Y066575D01*
X039308Y066417D02*
X030385Y066417D01*
X030527Y066258D02*
X039230Y066258D01*
X039230Y066100D02*
X030543Y066100D01*
X030444Y065941D02*
X039270Y065941D01*
X030560Y064160D02*
X030500Y064100D01*
X030360Y064300D01*
X029102Y066417D02*
X021750Y066417D01*
X021655Y066575D02*
X028986Y066575D01*
X028982Y066734D02*
X021496Y066734D01*
X021254Y066892D02*
X029089Y066892D01*
X029430Y066892D02*
X074680Y066892D01*
X074680Y066734D02*
X029538Y066734D01*
X040481Y081730D02*
X040838Y081730D01*
X041090Y081982D01*
X041090Y082338D01*
X040838Y082590D01*
X040481Y082590D01*
X040230Y082338D01*
X040230Y081982D01*
X040481Y081730D01*
X040420Y081791D02*
X039899Y081791D01*
X040057Y081950D02*
X040262Y081950D01*
X040230Y082108D02*
X040090Y082108D01*
X040090Y082267D02*
X040230Y082267D01*
X040317Y082425D02*
X040003Y082425D01*
X039844Y082584D02*
X040475Y082584D01*
X040481Y082730D02*
X040838Y082730D01*
X041090Y082982D01*
X041090Y083338D01*
X040838Y083590D01*
X040481Y083590D01*
X040230Y083338D01*
X040230Y082982D01*
X040481Y082730D01*
X040469Y082742D02*
X039850Y082742D01*
X040008Y082901D02*
X040311Y082901D01*
X040230Y083059D02*
X040090Y083059D01*
X040090Y083218D02*
X040230Y083218D01*
X040268Y083376D02*
X040052Y083376D01*
X039893Y083535D02*
X040426Y083535D01*
X040893Y083535D02*
X041426Y083535D01*
X041481Y083590D02*
X041230Y083338D01*
X041230Y082982D01*
X041481Y082730D01*
X041838Y082730D01*
X042090Y082982D01*
X042090Y083338D01*
X041838Y083590D01*
X041481Y083590D01*
X041268Y083376D02*
X041052Y083376D01*
X041090Y083218D02*
X041230Y083218D01*
X041230Y083059D02*
X041090Y083059D01*
X041008Y082901D02*
X041311Y082901D01*
X041469Y082742D02*
X040850Y082742D01*
X040844Y082584D02*
X041475Y082584D01*
X041481Y082590D02*
X041230Y082338D01*
X041230Y081982D01*
X041481Y081730D01*
X041838Y081730D01*
X042090Y081982D01*
X042090Y082338D01*
X041838Y082590D01*
X041481Y082590D01*
X041317Y082425D02*
X041003Y082425D01*
X041090Y082267D02*
X041230Y082267D01*
X041230Y082108D02*
X041090Y082108D01*
X041057Y081950D02*
X041262Y081950D01*
X041420Y081791D02*
X040899Y081791D01*
X041899Y081791D02*
X042420Y081791D01*
X042481Y081730D02*
X042838Y081730D01*
X043090Y081982D01*
X043090Y082338D01*
X042838Y082590D01*
X042481Y082590D01*
X042230Y082338D01*
X042230Y081982D01*
X042481Y081730D01*
X042262Y081950D02*
X042057Y081950D01*
X042090Y082108D02*
X042230Y082108D01*
X042230Y082267D02*
X042090Y082267D01*
X042003Y082425D02*
X042317Y082425D01*
X042475Y082584D02*
X041844Y082584D01*
X041850Y082742D02*
X042469Y082742D01*
X042481Y082730D02*
X042838Y082730D01*
X043090Y082982D01*
X043090Y083338D01*
X042838Y083590D01*
X042481Y083590D01*
X042230Y083338D01*
X042230Y082982D01*
X042481Y082730D01*
X042311Y082901D02*
X042008Y082901D01*
X042090Y083059D02*
X042230Y083059D01*
X042230Y083218D02*
X042090Y083218D01*
X042052Y083376D02*
X042268Y083376D01*
X042426Y083535D02*
X041893Y083535D01*
X042893Y083535D02*
X043426Y083535D01*
X043481Y083590D02*
X043230Y083338D01*
X043230Y082982D01*
X043481Y082730D01*
X043838Y082730D01*
X044090Y082982D01*
X044090Y083338D01*
X043838Y083590D01*
X043481Y083590D01*
X043268Y083376D02*
X043052Y083376D01*
X043090Y083218D02*
X043230Y083218D01*
X043230Y083059D02*
X043090Y083059D01*
X043008Y082901D02*
X043311Y082901D01*
X043469Y082742D02*
X042850Y082742D01*
X042844Y082584D02*
X043475Y082584D01*
X043481Y082590D02*
X043230Y082338D01*
X043230Y081982D01*
X043481Y081730D01*
X043838Y081730D01*
X044090Y081982D01*
X044090Y082338D01*
X043838Y082590D01*
X043481Y082590D01*
X043317Y082425D02*
X043003Y082425D01*
X043090Y082267D02*
X043230Y082267D01*
X043230Y082108D02*
X043090Y082108D01*
X043057Y081950D02*
X043262Y081950D01*
X043420Y081791D02*
X042899Y081791D01*
X043899Y081791D02*
X044420Y081791D01*
X044481Y081730D02*
X044230Y081982D01*
X044230Y082338D01*
X044481Y082590D01*
X044838Y082590D01*
X045090Y082338D01*
X045090Y081982D01*
X044838Y081730D01*
X044481Y081730D01*
X044262Y081950D02*
X044057Y081950D01*
X044090Y082108D02*
X044230Y082108D01*
X044230Y082267D02*
X044090Y082267D01*
X044003Y082425D02*
X044317Y082425D01*
X044475Y082584D02*
X043844Y082584D01*
X043850Y082742D02*
X044469Y082742D01*
X044481Y082730D02*
X044838Y082730D01*
X045090Y082982D01*
X045090Y083338D01*
X044838Y083590D01*
X044481Y083590D01*
X044230Y083338D01*
X044230Y082982D01*
X044481Y082730D01*
X044311Y082901D02*
X044008Y082901D01*
X044090Y083059D02*
X044230Y083059D01*
X044230Y083218D02*
X044090Y083218D01*
X044052Y083376D02*
X044268Y083376D01*
X044426Y083535D02*
X043893Y083535D01*
X044850Y082742D02*
X045469Y082742D01*
X045475Y082584D02*
X044844Y082584D01*
X045003Y082425D02*
X045317Y082425D01*
X045230Y082267D02*
X045090Y082267D01*
X045090Y082108D02*
X045230Y082108D01*
X045262Y081950D02*
X045057Y081950D01*
X044899Y081791D02*
X045420Y081791D01*
X045311Y082901D02*
X045008Y082901D01*
X045090Y083059D02*
X045230Y083059D01*
X045230Y083218D02*
X045090Y083218D01*
X045052Y083376D02*
X045268Y083376D01*
X045426Y083535D02*
X044893Y083535D01*
X071853Y066575D02*
X072466Y066575D01*
X072308Y066417D02*
X072011Y066417D01*
X072090Y066258D02*
X072230Y066258D01*
X072230Y066100D02*
X072090Y066100D01*
X072049Y065941D02*
X072270Y065941D01*
X073245Y084327D02*
X012674Y084327D01*
X030545Y010466D02*
X032097Y010466D01*
X032065Y010308D02*
X030505Y010308D01*
D27*
X030260Y010460D03*
X029260Y010960D03*
X030360Y008310D03*
X026260Y009360D03*
X030360Y014510D03*
X030260Y016660D03*
X029280Y017160D03*
X026260Y015560D03*
X030360Y020710D03*
X030260Y022860D03*
X029280Y023360D03*
X026260Y021760D03*
X030360Y026910D03*
X030260Y029060D03*
X029280Y029560D03*
X026260Y027960D03*
X030360Y033110D03*
X030260Y035260D03*
X029280Y035760D03*
X026260Y034160D03*
X030360Y039310D03*
X030260Y041460D03*
X029280Y041960D03*
X026260Y040360D03*
X030360Y045510D03*
X030260Y047660D03*
X029280Y048160D03*
X026260Y046560D03*
X030360Y051710D03*
X030260Y053860D03*
X029280Y054360D03*
X029920Y057320D03*
X030160Y059960D03*
X029260Y060560D03*
X030360Y064300D03*
X030260Y066160D03*
X029260Y066660D03*
X037260Y071360D03*
X038260Y071360D03*
X039260Y071360D03*
X040260Y071360D03*
X041260Y071360D03*
X042260Y071360D03*
X043260Y071360D03*
X044260Y071360D03*
X045260Y071360D03*
X046260Y071360D03*
X045260Y059760D03*
X048860Y053060D03*
X048860Y052060D03*
X048860Y048460D03*
X048860Y047460D03*
X047860Y043560D03*
X057560Y043560D03*
X067460Y060860D03*
X068760Y061060D03*
X070560Y063460D03*
X064960Y062260D03*
X061510Y074960D03*
X060410Y074960D03*
X059510Y074960D03*
X058410Y074960D03*
X060220Y077780D03*
X061720Y077780D03*
X026260Y052760D03*
X019260Y055860D03*
X017745Y055870D03*
X017745Y049670D03*
X019230Y049670D03*
X019230Y043470D03*
X017745Y043470D03*
X017745Y037270D03*
X019230Y037270D03*
X019230Y031070D03*
X017745Y031070D03*
X017745Y024870D03*
X019230Y024870D03*
X019230Y018670D03*
X017745Y018670D03*
X017745Y012470D03*
X019230Y012470D03*
X046760Y012210D03*
X046760Y011510D03*
X046760Y010810D03*
X046760Y010110D03*
X046760Y009410D03*
D28*
X047560Y013160D02*
X049660Y013160D01*
X049660Y014960D01*
X047560Y014960D01*
X047560Y013160D01*
X047560Y013174D02*
X049660Y013174D01*
X049660Y013292D02*
X047560Y013292D01*
X047560Y013411D02*
X049660Y013411D01*
X049660Y013529D02*
X047560Y013529D01*
X047560Y013648D02*
X049660Y013648D01*
X049660Y013766D02*
X047560Y013766D01*
X047560Y013885D02*
X049660Y013885D01*
X049660Y014003D02*
X047560Y014003D01*
X047560Y014122D02*
X049660Y014122D01*
X049660Y014240D02*
X047560Y014240D01*
X047560Y014359D02*
X049660Y014359D01*
X049660Y014477D02*
X047560Y014477D01*
X047560Y014596D02*
X049660Y014596D01*
X049660Y014714D02*
X047560Y014714D01*
X047560Y014833D02*
X049660Y014833D01*
X049660Y014951D02*
X047560Y014951D01*
X037660Y018760D02*
X036460Y018760D01*
X036460Y036160D01*
X037660Y036160D01*
X037660Y018760D01*
X037660Y018862D02*
X036460Y018862D01*
X036460Y018980D02*
X037660Y018980D01*
X037660Y019099D02*
X036460Y019099D01*
X036460Y019217D02*
X037660Y019217D01*
X037660Y019336D02*
X036460Y019336D01*
X036460Y019454D02*
X037660Y019454D01*
X037660Y019573D02*
X036460Y019573D01*
X036460Y019691D02*
X037660Y019691D01*
X037660Y019810D02*
X036460Y019810D01*
X036460Y019928D02*
X037660Y019928D01*
X037660Y020047D02*
X036460Y020047D01*
X036460Y020165D02*
X037660Y020165D01*
X037660Y020284D02*
X036460Y020284D01*
X036460Y020402D02*
X037660Y020402D01*
X037660Y020521D02*
X036460Y020521D01*
X036460Y020639D02*
X037660Y020639D01*
X037660Y020758D02*
X036460Y020758D01*
X036460Y020876D02*
X037660Y020876D01*
X037660Y020995D02*
X036460Y020995D01*
X036460Y021113D02*
X037660Y021113D01*
X037660Y021232D02*
X036460Y021232D01*
X036460Y021350D02*
X037660Y021350D01*
X037660Y021469D02*
X036460Y021469D01*
X036460Y021587D02*
X037660Y021587D01*
X037660Y021706D02*
X036460Y021706D01*
X036460Y021824D02*
X037660Y021824D01*
X037660Y021943D02*
X036460Y021943D01*
X036460Y022061D02*
X037660Y022061D01*
X037660Y022180D02*
X036460Y022180D01*
X036460Y022298D02*
X037660Y022298D01*
X037660Y022417D02*
X036460Y022417D01*
X036460Y022535D02*
X037660Y022535D01*
X037660Y022654D02*
X036460Y022654D01*
X036460Y022772D02*
X037660Y022772D01*
X037660Y022891D02*
X036460Y022891D01*
X036460Y023009D02*
X037660Y023009D01*
X037660Y023128D02*
X036460Y023128D01*
X036460Y023246D02*
X037660Y023246D01*
X037660Y023365D02*
X036460Y023365D01*
X036460Y023483D02*
X037660Y023483D01*
X037660Y023602D02*
X036460Y023602D01*
X036460Y023720D02*
X037660Y023720D01*
X037660Y023839D02*
X036460Y023839D01*
X036460Y023957D02*
X037660Y023957D01*
X037660Y024076D02*
X036460Y024076D01*
X036460Y024194D02*
X037660Y024194D01*
X037660Y024313D02*
X036460Y024313D01*
X036460Y024431D02*
X037660Y024431D01*
X037660Y024550D02*
X036460Y024550D01*
X036460Y024668D02*
X037660Y024668D01*
X037660Y024787D02*
X036460Y024787D01*
X036460Y024905D02*
X037660Y024905D01*
X037660Y025024D02*
X036460Y025024D01*
X036460Y025142D02*
X037660Y025142D01*
X037660Y025261D02*
X036460Y025261D01*
X036460Y025379D02*
X037660Y025379D01*
X037660Y025498D02*
X036460Y025498D01*
X036460Y025616D02*
X037660Y025616D01*
X037660Y025735D02*
X036460Y025735D01*
X036460Y025853D02*
X037660Y025853D01*
X037660Y025972D02*
X036460Y025972D01*
X036460Y026090D02*
X037660Y026090D01*
X037660Y026209D02*
X036460Y026209D01*
X036460Y026327D02*
X037660Y026327D01*
X037660Y026446D02*
X036460Y026446D01*
X036460Y026564D02*
X037660Y026564D01*
X037660Y026683D02*
X036460Y026683D01*
X036460Y026801D02*
X037660Y026801D01*
X037660Y026920D02*
X036460Y026920D01*
X036460Y027038D02*
X037660Y027038D01*
X037660Y027157D02*
X036460Y027157D01*
X036460Y027275D02*
X037660Y027275D01*
X037660Y027394D02*
X036460Y027394D01*
X036460Y027512D02*
X037660Y027512D01*
X037660Y027631D02*
X036460Y027631D01*
X036460Y027749D02*
X037660Y027749D01*
X037660Y027868D02*
X036460Y027868D01*
X036460Y027986D02*
X037660Y027986D01*
X037660Y028105D02*
X036460Y028105D01*
X036460Y028223D02*
X037660Y028223D01*
X037660Y028342D02*
X036460Y028342D01*
X036460Y028460D02*
X037660Y028460D01*
X037660Y028579D02*
X036460Y028579D01*
X036460Y028697D02*
X037660Y028697D01*
X037660Y028816D02*
X036460Y028816D01*
X036460Y028934D02*
X037660Y028934D01*
X037660Y029053D02*
X036460Y029053D01*
X036460Y029171D02*
X037660Y029171D01*
X037660Y029290D02*
X036460Y029290D01*
X036460Y029408D02*
X037660Y029408D01*
X037660Y029527D02*
X036460Y029527D01*
X036460Y029645D02*
X037660Y029645D01*
X037660Y029764D02*
X036460Y029764D01*
X036460Y029882D02*
X037660Y029882D01*
X037660Y030001D02*
X036460Y030001D01*
X036460Y030119D02*
X037660Y030119D01*
X037660Y030238D02*
X036460Y030238D01*
X036460Y030356D02*
X037660Y030356D01*
X037660Y030475D02*
X036460Y030475D01*
X036460Y030593D02*
X037660Y030593D01*
X037660Y030712D02*
X036460Y030712D01*
X036460Y030830D02*
X037660Y030830D01*
X037660Y030949D02*
X036460Y030949D01*
X036460Y031067D02*
X037660Y031067D01*
X037660Y031186D02*
X036460Y031186D01*
X036460Y031304D02*
X037660Y031304D01*
X037660Y031423D02*
X036460Y031423D01*
X036460Y031541D02*
X037660Y031541D01*
X037660Y031660D02*
X036460Y031660D01*
X036460Y031778D02*
X037660Y031778D01*
X037660Y031897D02*
X036460Y031897D01*
X036460Y032015D02*
X037660Y032015D01*
X037660Y032134D02*
X036460Y032134D01*
X036460Y032252D02*
X037660Y032252D01*
X037660Y032371D02*
X036460Y032371D01*
X036460Y032489D02*
X037660Y032489D01*
X037660Y032608D02*
X036460Y032608D01*
X036460Y032726D02*
X037660Y032726D01*
X037660Y032845D02*
X036460Y032845D01*
X036460Y032963D02*
X037660Y032963D01*
X037660Y033082D02*
X036460Y033082D01*
X036460Y033200D02*
X037660Y033200D01*
X037660Y033319D02*
X036460Y033319D01*
X036460Y033437D02*
X037660Y033437D01*
X037660Y033556D02*
X036460Y033556D01*
X036460Y033674D02*
X037660Y033674D01*
X037660Y033793D02*
X036460Y033793D01*
X036460Y033911D02*
X037660Y033911D01*
X037660Y034030D02*
X036460Y034030D01*
X036460Y034148D02*
X037660Y034148D01*
X037660Y034267D02*
X036460Y034267D01*
X036460Y034385D02*
X037660Y034385D01*
X037660Y034504D02*
X036460Y034504D01*
X036460Y034622D02*
X037660Y034622D01*
X037660Y034741D02*
X036460Y034741D01*
X036460Y034859D02*
X037660Y034859D01*
X037660Y034978D02*
X036460Y034978D01*
X036460Y035096D02*
X037660Y035096D01*
X037660Y035215D02*
X036460Y035215D01*
X036460Y035333D02*
X037660Y035333D01*
X037660Y035452D02*
X036460Y035452D01*
X036460Y035570D02*
X037660Y035570D01*
X037660Y035689D02*
X036460Y035689D01*
X036460Y035807D02*
X037660Y035807D01*
X037660Y035926D02*
X036460Y035926D01*
X036460Y036044D02*
X037660Y036044D01*
X047660Y043560D02*
X047860Y043560D01*
X057360Y043560D02*
X057560Y043560D01*
X067460Y060660D02*
X067460Y060860D01*
X070560Y063460D02*
X070660Y063860D01*
X060360Y077660D02*
X060220Y077780D01*
D29*
X046460Y058010D03*
M02*
