G75*
%MOIN*%
%OFA0B0*%
%FSLAX24Y24*%
%IPPOS*%
%LPD*%
%AMOC8*
5,1,8,0,0,1.08239X$1,22.5*
%
%ADD10C,0.1340*%
%ADD11C,0.0848*%
%ADD12C,0.1261*%
%ADD13R,0.0556X0.0556*%
%ADD14C,0.0556*%
%ADD15C,0.7280*%
%ADD16C,0.0907*%
%ADD17C,0.1080*%
%ADD18OC8,0.1080*%
%ADD19C,0.0905*%
%ADD20C,0.0640*%
%ADD21C,0.2080*%
%ADD22C,0.1780*%
%ADD23OC8,0.0680*%
%ADD24C,0.0674*%
%ADD25R,0.0674X0.0674*%
%ADD26C,0.1340*%
%ADD27C,0.0980*%
%ADD28C,0.1280*%
%ADD29C,0.0390*%
%ADD30C,0.0437*%
D10*
X062660Y070160D03*
X057660Y082160D03*
D11*
X054860Y017360D03*
X051860Y017360D03*
X048860Y017360D03*
X064010Y017360D03*
X067010Y017360D03*
X070010Y017360D03*
D12*
X070010Y037360D03*
X064010Y037360D03*
X054860Y037360D03*
X048860Y037360D03*
D13*
X035075Y035760D03*
X035075Y030360D03*
X035075Y024960D03*
X035075Y019560D03*
D14*
X037044Y019560D03*
X037044Y024960D03*
X037044Y030360D03*
X037044Y035760D03*
D15*
X035760Y009760D03*
X052260Y009760D03*
D16*
X071210Y013105D03*
X071210Y014515D03*
D17*
X039535Y060448D03*
X035485Y060448D03*
D18*
X035485Y058448D03*
X039535Y058448D03*
D19*
X040747Y042260D02*
X041572Y042260D01*
X034572Y042260D02*
X033747Y042260D01*
X041260Y014110D02*
X042085Y014110D01*
X048260Y014110D02*
X049085Y014110D01*
D20*
X046160Y046960D03*
X046160Y047960D03*
X046160Y048960D03*
X046160Y051560D03*
X046160Y052560D03*
X046160Y053560D03*
D21*
X020760Y053373D03*
X017660Y053373D03*
X017660Y059623D03*
X020760Y059623D03*
X020760Y065873D03*
X017660Y065873D03*
X017660Y047123D03*
X020760Y047123D03*
X020760Y040873D03*
X017660Y040873D03*
X017660Y034623D03*
X020760Y034623D03*
X020760Y028373D03*
X017660Y028373D03*
X017660Y022123D03*
X020760Y022123D03*
X020760Y015873D03*
X017660Y015873D03*
X017660Y009623D03*
X020760Y009623D03*
D22*
X013360Y006498D03*
X013360Y012748D03*
X013360Y018998D03*
X013360Y025248D03*
X013360Y031498D03*
X013360Y037748D03*
X013360Y043998D03*
X013360Y050248D03*
X013360Y056498D03*
X013360Y062748D03*
X013360Y068998D03*
X014460Y082810D03*
X071460Y006510D03*
D23*
X071660Y065160D03*
X071660Y066160D03*
X070660Y066160D03*
X070660Y065160D03*
X069660Y065160D03*
X069660Y066160D03*
X068660Y066160D03*
X068660Y065160D03*
X067660Y065160D03*
X067660Y066160D03*
X066660Y066160D03*
X066660Y065160D03*
X065660Y065160D03*
X065660Y066160D03*
X064660Y066160D03*
X064660Y065160D03*
X072660Y065160D03*
X073660Y065160D03*
X073660Y066160D03*
X072660Y066160D03*
X072660Y082160D03*
X073660Y082160D03*
X073660Y083160D03*
X072660Y083160D03*
X071660Y083160D03*
X071660Y082160D03*
X070660Y082160D03*
X070660Y083160D03*
X069660Y083160D03*
X069660Y082160D03*
X068660Y082160D03*
X068660Y083160D03*
X067660Y083160D03*
X067660Y082160D03*
X066660Y082160D03*
X066660Y083160D03*
X065660Y083160D03*
X065660Y082160D03*
X064660Y082160D03*
X064660Y083160D03*
X048660Y083160D03*
X048660Y082160D03*
X047660Y082160D03*
X047660Y083160D03*
X046660Y083160D03*
X046660Y082160D03*
X045660Y082160D03*
X045660Y083160D03*
X044660Y083160D03*
X044660Y082160D03*
X043660Y082160D03*
X043660Y083160D03*
X042660Y083160D03*
X042660Y082160D03*
X041660Y082160D03*
X041660Y083160D03*
X040660Y083160D03*
X040660Y082160D03*
X039660Y082160D03*
X039660Y083160D03*
X039660Y066160D03*
X040660Y066160D03*
X040660Y065160D03*
X039660Y065160D03*
X041660Y065160D03*
X042660Y065160D03*
X043660Y065160D03*
X044660Y065160D03*
X045660Y065160D03*
X045660Y066160D03*
X044660Y066160D03*
X043660Y066160D03*
X042660Y066160D03*
X041660Y066160D03*
X046660Y066160D03*
X047660Y066160D03*
X048660Y066160D03*
X048660Y065160D03*
X047660Y065160D03*
X046660Y065160D03*
D24*
X068660Y044410D03*
X068660Y043410D03*
X068660Y042410D03*
X068660Y041410D03*
X069660Y041910D03*
X069660Y042910D03*
X069660Y043910D03*
D25*
X069660Y040910D03*
D26*
X072160Y040410D03*
X072160Y044910D03*
D27*
X070860Y051910D03*
X070860Y053410D03*
X070860Y054910D03*
X050860Y053410D03*
X050860Y050410D03*
X050860Y056410D03*
D28*
X070860Y056410D03*
X070860Y050410D03*
D29*
X068760Y061060D03*
X067460Y060860D03*
X064960Y062260D03*
X070560Y063460D03*
X061510Y074960D03*
X060410Y074960D03*
X059510Y074960D03*
X058410Y074960D03*
X060220Y077780D03*
X061720Y077780D03*
X046260Y071360D03*
X045260Y071360D03*
X044260Y071360D03*
X043260Y071360D03*
X042260Y071360D03*
X041260Y071360D03*
X040260Y071360D03*
X039260Y071360D03*
X038260Y071360D03*
X037260Y071360D03*
X030260Y066160D03*
X029260Y066660D03*
X030360Y064300D03*
X029260Y060560D03*
X030160Y059960D03*
X029920Y057320D03*
X029280Y054360D03*
X030260Y053860D03*
X030360Y051710D03*
X029280Y048160D03*
X030260Y047660D03*
X030360Y045510D03*
X029280Y041960D03*
X030260Y041460D03*
X030360Y039310D03*
X029280Y035760D03*
X030260Y035260D03*
X030360Y033110D03*
X029280Y029560D03*
X030260Y029060D03*
X030360Y026910D03*
X029280Y023360D03*
X030260Y022860D03*
X030360Y020710D03*
X029280Y017160D03*
X030260Y016660D03*
X030360Y014510D03*
X029260Y010960D03*
X030260Y010460D03*
X030360Y008310D03*
X026260Y009360D03*
X026260Y015560D03*
X026260Y021760D03*
X026260Y027960D03*
X026260Y034160D03*
X026260Y040360D03*
X026260Y046560D03*
X026260Y052760D03*
X019260Y055860D03*
X017745Y055870D03*
X017745Y049670D03*
X019230Y049670D03*
X019230Y043470D03*
X017745Y043470D03*
X017745Y037270D03*
X019230Y037270D03*
X019230Y031070D03*
X017745Y031070D03*
X017745Y024870D03*
X019230Y024870D03*
X019230Y018670D03*
X017745Y018670D03*
X017745Y012470D03*
X019230Y012470D03*
X046760Y012210D03*
X046760Y011510D03*
X046760Y010810D03*
X046760Y010110D03*
X046760Y009410D03*
X047860Y043560D03*
X048860Y047460D03*
X048860Y048460D03*
X048860Y052060D03*
X048860Y053060D03*
X045260Y059760D03*
X057560Y043560D03*
D30*
X046460Y058010D03*
M02*
