G75*
%MOIN*%
%OFA0B0*%
%FSLAX24Y24*%
%IPPOS*%
%LPD*%
%AMOC8*
5,1,8,0,0,1.08239X$1,22.5*
%
%ADD10C,0.1340*%
%ADD11C,0.0848*%
%ADD12C,0.1261*%
%ADD13R,0.0556X0.0556*%
%ADD14C,0.0556*%
%ADD15C,0.7280*%
%ADD16C,0.0907*%
%ADD17C,0.1080*%
%ADD18OC8,0.1080*%
%ADD19C,0.0905*%
%ADD20C,0.0640*%
%ADD21C,0.2080*%
%ADD22C,0.1780*%
%ADD23OC8,0.0680*%
%ADD24C,0.0674*%
%ADD25R,0.0674X0.0674*%
%ADD26C,0.1340*%
%ADD27C,0.0980*%
%ADD28C,0.1280*%
%ADD29C,0.0390*%
%ADD30C,0.0437*%
D10*
X057160Y070160D03*
X052160Y082160D03*
D11*
X049360Y017360D03*
X046360Y017360D03*
X043360Y017360D03*
X058510Y017360D03*
X061510Y017360D03*
X064510Y017360D03*
D12*
X064510Y037360D03*
X058510Y037360D03*
X049360Y037360D03*
X043360Y037360D03*
D13*
X032076Y035760D03*
X032076Y030360D03*
X032076Y024960D03*
X032076Y019560D03*
D14*
X034044Y019560D03*
X034044Y024960D03*
X034044Y030360D03*
X034044Y035760D03*
D15*
X032760Y009760D03*
X049260Y009760D03*
D16*
X065710Y013105D03*
X065710Y014515D03*
D17*
X036535Y060448D03*
X032485Y060448D03*
D18*
X032485Y058448D03*
X036535Y058448D03*
D19*
X037748Y042260D02*
X038573Y042260D01*
X031573Y042260D02*
X030748Y042260D01*
X037260Y013610D02*
X038085Y013610D01*
X044260Y013610D02*
X045085Y013610D01*
D20*
X041960Y046960D03*
X041960Y047960D03*
X041960Y048960D03*
X041960Y051560D03*
X041960Y052560D03*
X041960Y053560D03*
D21*
X017760Y053373D03*
X014660Y053373D03*
X014660Y059623D03*
X017760Y059623D03*
X017760Y065873D03*
X014660Y065873D03*
X014660Y047123D03*
X017760Y047123D03*
X017760Y040873D03*
X014660Y040873D03*
X014660Y034623D03*
X017760Y034623D03*
X017760Y028373D03*
X014660Y028373D03*
X014660Y022123D03*
X017760Y022123D03*
X017760Y015873D03*
X014660Y015873D03*
X014660Y009623D03*
X017760Y009623D03*
D22*
X010360Y006498D03*
X010360Y012748D03*
X010360Y018998D03*
X010360Y025248D03*
X010360Y031498D03*
X010360Y037748D03*
X010360Y043998D03*
X010360Y050248D03*
X010360Y056498D03*
X010360Y062748D03*
X010360Y068998D03*
X015160Y080160D03*
X065960Y006510D03*
D23*
X066160Y065160D03*
X066160Y066160D03*
X065160Y066160D03*
X065160Y065160D03*
X064160Y065160D03*
X064160Y066160D03*
X063160Y066160D03*
X063160Y065160D03*
X062160Y065160D03*
X062160Y066160D03*
X061160Y066160D03*
X061160Y065160D03*
X060160Y065160D03*
X060160Y066160D03*
X059160Y066160D03*
X059160Y065160D03*
X067160Y065160D03*
X067160Y066160D03*
X068160Y066160D03*
X068160Y065160D03*
X068160Y082160D03*
X068160Y083160D03*
X067160Y083160D03*
X067160Y082160D03*
X066160Y082160D03*
X066160Y083160D03*
X065160Y083160D03*
X065160Y082160D03*
X064160Y082160D03*
X064160Y083160D03*
X063160Y083160D03*
X063160Y082160D03*
X062160Y082160D03*
X062160Y083160D03*
X061160Y083160D03*
X061160Y082160D03*
X060160Y082160D03*
X060160Y083160D03*
X059160Y083160D03*
X059160Y082160D03*
X043160Y082160D03*
X043160Y083160D03*
X042160Y083160D03*
X042160Y082160D03*
X041160Y082160D03*
X041160Y083160D03*
X040160Y083160D03*
X040160Y082160D03*
X039160Y082160D03*
X039160Y083160D03*
X038160Y083160D03*
X038160Y082160D03*
X037160Y082160D03*
X037160Y083160D03*
X036160Y083160D03*
X036160Y082160D03*
X035160Y082160D03*
X035160Y083160D03*
X034160Y083160D03*
X034160Y082160D03*
X034160Y066160D03*
X034160Y065160D03*
X035160Y065160D03*
X035160Y066160D03*
X036160Y066160D03*
X036160Y065160D03*
X037160Y065160D03*
X037160Y066160D03*
X038160Y066160D03*
X038160Y065160D03*
X039160Y065160D03*
X039160Y066160D03*
X040160Y066160D03*
X040160Y065160D03*
X041160Y065160D03*
X041160Y066160D03*
X042160Y066160D03*
X042160Y065160D03*
X043160Y065160D03*
X043160Y066160D03*
D24*
X063160Y044410D03*
X064160Y043910D03*
X064160Y042910D03*
X064160Y041910D03*
X063160Y041410D03*
X063160Y042410D03*
X063160Y043410D03*
D25*
X064160Y040910D03*
D26*
X066660Y040410D03*
X066660Y044910D03*
D27*
X067360Y051910D03*
X067360Y053410D03*
X067360Y054910D03*
X047360Y053410D03*
X047360Y056410D03*
X047360Y050410D03*
D28*
X067360Y050410D03*
X067360Y056410D03*
D29*
X062960Y061060D03*
X063560Y062160D03*
X062460Y062760D03*
X059460Y062260D03*
X056510Y074960D03*
X055410Y074960D03*
X054510Y074960D03*
X053410Y074960D03*
X055220Y077780D03*
X056720Y077780D03*
X043260Y071360D03*
X042260Y071360D03*
X041260Y071360D03*
X040260Y071360D03*
X039260Y071360D03*
X038260Y071360D03*
X037260Y071360D03*
X036260Y071360D03*
X035260Y071360D03*
X034260Y071360D03*
X027260Y066160D03*
X026260Y066660D03*
X027360Y064300D03*
X026260Y060560D03*
X027160Y059960D03*
X026920Y057320D03*
X026280Y054360D03*
X027260Y053860D03*
X027360Y051710D03*
X026280Y048160D03*
X027260Y047660D03*
X027360Y045510D03*
X026280Y041960D03*
X027260Y041460D03*
X027360Y039310D03*
X026280Y035760D03*
X027260Y035260D03*
X027360Y033110D03*
X026280Y029560D03*
X027260Y029060D03*
X027360Y026910D03*
X026280Y023360D03*
X027260Y022860D03*
X027360Y020710D03*
X026280Y017160D03*
X027260Y016660D03*
X027360Y014510D03*
X026260Y010960D03*
X027260Y010460D03*
X027360Y008310D03*
X023260Y009360D03*
X023260Y015560D03*
X023260Y021760D03*
X023260Y027960D03*
X023260Y034160D03*
X023260Y040360D03*
X023260Y046560D03*
X023260Y052760D03*
X016260Y055860D03*
X014745Y055870D03*
X014745Y049670D03*
X016230Y049670D03*
X016230Y043470D03*
X014745Y043470D03*
X014745Y037270D03*
X016230Y037270D03*
X016230Y031070D03*
X014745Y031070D03*
X014745Y024870D03*
X016230Y024870D03*
X016230Y018670D03*
X014745Y018670D03*
X014745Y012470D03*
X016230Y012470D03*
X042560Y011510D03*
X042560Y010810D03*
X042560Y010110D03*
X042560Y009410D03*
X042560Y008710D03*
X044660Y047460D03*
X044660Y048460D03*
X044660Y052060D03*
X044660Y053060D03*
X042260Y059760D03*
D30*
X043460Y058010D03*
M02*
