G75*
%MOIN*%
%OFA0B0*%
%FSLAX24Y24*%
%IPPOS*%
%LPD*%
%AMOC8*
5,1,8,0,0,1.08239X$1,22.5*
%
%ADD10C,0.0768*%
%ADD11C,0.1181*%
%ADD12R,0.0476X0.0476*%
%ADD13C,0.0476*%
%ADD14R,0.0710X0.0630*%
%ADD15C,0.7200*%
%ADD16R,0.0472X0.0551*%
%ADD17R,0.0630X0.0709*%
%ADD18R,0.0276X0.0276*%
%ADD19R,0.0630X0.0710*%
%ADD20C,0.0827*%
%ADD21R,0.0709X0.0630*%
%ADD22R,0.0236X0.0866*%
%ADD23R,0.0756X0.0866*%
%ADD24C,0.1000*%
%ADD25OC8,0.1000*%
%ADD26C,0.0825*%
%ADD27R,0.1500X0.0820*%
%ADD28R,0.3000X0.4000*%
%ADD29C,0.0560*%
%ADD30R,0.0193X0.0512*%
%ADD31C,0.2000*%
%ADD32OC8,0.0600*%
%ADD33C,0.0594*%
%ADD34R,0.0594X0.0594*%
%ADD35C,0.0900*%
%ADD36C,0.1200*%
%ADD37R,0.1181X0.0630*%
%ADD38R,0.2250X0.1900*%
%ADD39R,0.0354X0.0315*%
%ADD40R,0.0433X0.0236*%
%ADD41C,0.0160*%
%ADD42C,0.0310*%
%ADD43C,0.0120*%
%ADD44C,0.0357*%
%ADD45C,0.0200*%
%ADD46C,0.3000*%
%ADD47C,0.0100*%
D10*
X048860Y017360D03*
X051860Y017360D03*
X054860Y017360D03*
X064010Y017360D03*
X067010Y017360D03*
X070010Y017360D03*
D11*
X070010Y037360D03*
X064010Y037360D03*
X054860Y037360D03*
X048860Y037360D03*
D12*
X035075Y035760D03*
X035075Y030360D03*
X035075Y024960D03*
X035075Y019560D03*
D13*
X037044Y019560D03*
X037044Y024960D03*
X037044Y030360D03*
X037044Y035760D03*
D14*
X044760Y058000D03*
X044760Y059120D03*
X045760Y059120D03*
X045760Y058000D03*
D15*
X052260Y009760D03*
X035760Y009760D03*
D16*
X025650Y009360D03*
X024469Y009360D03*
X024469Y015560D03*
X025650Y015560D03*
X025650Y021760D03*
X024469Y021760D03*
X024469Y027960D03*
X025650Y027960D03*
X025650Y034160D03*
X024469Y034160D03*
X024469Y040360D03*
X025650Y040360D03*
X025650Y046560D03*
X024469Y046560D03*
X024469Y052760D03*
X025650Y052760D03*
X018450Y061260D03*
X017269Y061260D03*
X017269Y067460D03*
X018450Y067460D03*
X072819Y011510D03*
X074000Y011510D03*
D17*
X071811Y011510D03*
X070708Y011510D03*
X046211Y010810D03*
X045108Y010810D03*
X045108Y012210D03*
X046211Y012210D03*
X046211Y009410D03*
X045108Y009410D03*
X023511Y009360D03*
X022408Y009360D03*
X022408Y015560D03*
X023511Y015560D03*
X023511Y021760D03*
X022408Y021760D03*
X022408Y027960D03*
X023511Y027960D03*
X023511Y034160D03*
X022408Y034160D03*
X022408Y040360D03*
X023511Y040360D03*
X023511Y046560D03*
X022408Y046560D03*
X022408Y052760D03*
X023511Y052760D03*
X020641Y061260D03*
X019538Y061260D03*
X019478Y067470D03*
X020581Y067470D03*
X047508Y053560D03*
X047508Y052560D03*
X047508Y051560D03*
X048611Y051560D03*
X048611Y052560D03*
X048611Y053560D03*
X048611Y048960D03*
X048611Y047960D03*
X048611Y046960D03*
X047508Y046960D03*
X047508Y047960D03*
X047508Y048960D03*
X051308Y039560D03*
X052411Y039560D03*
X066451Y039555D03*
X067553Y039555D03*
X066811Y061360D03*
X066811Y062260D03*
X066811Y063160D03*
X065708Y063160D03*
X065708Y062260D03*
X065708Y061360D03*
X061511Y074960D03*
X060408Y074960D03*
X059511Y074960D03*
X058408Y074960D03*
D18*
X069955Y063136D03*
X069955Y062624D03*
X070684Y062880D03*
D19*
X069219Y064060D03*
X068100Y064060D03*
X066804Y064070D03*
X065685Y064070D03*
D20*
X071210Y014515D03*
X071210Y013105D03*
D21*
X016960Y012109D03*
X016960Y013211D03*
X016960Y018309D03*
X016960Y019411D03*
X016960Y024509D03*
X016960Y025611D03*
X016960Y030709D03*
X016960Y031811D03*
X016960Y036909D03*
X016960Y038011D03*
X016960Y043109D03*
X016960Y044211D03*
X016960Y049309D03*
X016960Y050411D03*
X016960Y055509D03*
X016960Y056611D03*
X028860Y057909D03*
X029755Y057909D03*
X029755Y059011D03*
X028860Y059011D03*
X028860Y064109D03*
X029760Y064109D03*
X029760Y065211D03*
X028860Y065211D03*
X037260Y069609D03*
X038260Y069609D03*
X038260Y070711D03*
X037260Y070711D03*
X039260Y070711D03*
X040260Y070711D03*
X041260Y070711D03*
X042260Y070711D03*
X042260Y069609D03*
X041260Y069609D03*
X040260Y069609D03*
X039260Y069609D03*
X043260Y069609D03*
X044260Y069609D03*
X045260Y069609D03*
X046260Y069609D03*
X046260Y070711D03*
X045260Y070711D03*
X044260Y070711D03*
X043260Y070711D03*
X029782Y052822D03*
X028868Y052822D03*
X028868Y051720D03*
X029782Y051720D03*
X029782Y046622D03*
X028868Y046622D03*
X028868Y045520D03*
X029782Y045520D03*
X029782Y040422D03*
X028868Y040422D03*
X028868Y039320D03*
X029782Y039320D03*
X029782Y034222D03*
X028868Y034222D03*
X028868Y033120D03*
X029782Y033120D03*
X029782Y028022D03*
X028868Y028022D03*
X028868Y026920D03*
X029782Y026920D03*
X029782Y021822D03*
X028868Y021822D03*
X028868Y020720D03*
X029782Y020720D03*
X029782Y015622D03*
X028868Y015622D03*
X028868Y014520D03*
X029782Y014520D03*
X029782Y009422D03*
X028868Y009422D03*
X028868Y008320D03*
X029782Y008320D03*
D22*
X029776Y010347D03*
X029276Y010347D03*
X028776Y010347D03*
X028276Y010347D03*
X028276Y016547D03*
X028776Y016547D03*
X029276Y016547D03*
X029776Y016547D03*
X029776Y022747D03*
X029276Y022747D03*
X028776Y022747D03*
X028276Y022747D03*
X028276Y028947D03*
X028776Y028947D03*
X029276Y028947D03*
X029776Y028947D03*
X029776Y035147D03*
X029276Y035147D03*
X028776Y035147D03*
X028276Y035147D03*
X028276Y041347D03*
X028776Y041347D03*
X029276Y041347D03*
X029776Y041347D03*
X029776Y047547D03*
X029276Y047547D03*
X028776Y047547D03*
X028276Y047547D03*
X028276Y053747D03*
X028776Y053747D03*
X029276Y053747D03*
X029776Y053747D03*
X029770Y059956D03*
X029270Y059956D03*
X028770Y059956D03*
X028270Y059956D03*
X028270Y066136D03*
X028770Y066136D03*
X029270Y066136D03*
X029770Y066136D03*
X019230Y057064D03*
X018730Y057064D03*
X018230Y057064D03*
X017730Y057064D03*
X017730Y055016D03*
X018230Y055016D03*
X018730Y055016D03*
X019230Y055016D03*
X019230Y050864D03*
X018730Y050864D03*
X018230Y050864D03*
X017730Y050864D03*
X017730Y048816D03*
X018230Y048816D03*
X018730Y048816D03*
X019230Y048816D03*
X019230Y044664D03*
X018730Y044664D03*
X018230Y044664D03*
X017730Y044664D03*
X017730Y042616D03*
X018230Y042616D03*
X018730Y042616D03*
X019230Y042616D03*
X019230Y038464D03*
X018730Y038464D03*
X018230Y038464D03*
X017730Y038464D03*
X017730Y036416D03*
X018230Y036416D03*
X018730Y036416D03*
X019230Y036416D03*
X019230Y032264D03*
X018730Y032264D03*
X018230Y032264D03*
X017730Y032264D03*
X017730Y030216D03*
X018230Y030216D03*
X018730Y030216D03*
X019230Y030216D03*
X019230Y026064D03*
X018730Y026064D03*
X018230Y026064D03*
X017730Y026064D03*
X017730Y024016D03*
X018230Y024016D03*
X018730Y024016D03*
X019230Y024016D03*
X019230Y019864D03*
X018730Y019864D03*
X018230Y019864D03*
X017730Y019864D03*
X017730Y017816D03*
X018230Y017816D03*
X018730Y017816D03*
X019230Y017816D03*
X019230Y013664D03*
X018730Y013664D03*
X018230Y013664D03*
X017730Y013664D03*
X017730Y011616D03*
X018230Y011616D03*
X018730Y011616D03*
X019230Y011616D03*
D23*
X028526Y012395D03*
X029526Y012395D03*
X029526Y018595D03*
X028526Y018595D03*
X028526Y024795D03*
X029526Y024795D03*
X029526Y030995D03*
X028526Y030995D03*
X028526Y037195D03*
X029526Y037195D03*
X029526Y043395D03*
X028526Y043395D03*
X028526Y049595D03*
X029526Y049595D03*
X029526Y055795D03*
X028526Y055795D03*
X028520Y062004D03*
X029520Y062004D03*
X029520Y068184D03*
X028520Y068184D03*
D24*
X035485Y060448D03*
X039535Y060448D03*
D25*
X039535Y058448D03*
X035485Y058448D03*
D26*
X034572Y042260D02*
X033747Y042260D01*
X040747Y042260D02*
X041572Y042260D01*
X041260Y014110D02*
X042085Y014110D01*
X048260Y014110D02*
X049085Y014110D01*
D27*
X021210Y013360D03*
X021210Y011360D03*
X021210Y017560D03*
X021210Y019560D03*
X021210Y023760D03*
X021210Y025760D03*
X021210Y029960D03*
X021210Y031960D03*
X021210Y036160D03*
X021210Y038160D03*
X021210Y042460D03*
X021210Y044460D03*
X021210Y048660D03*
X021210Y050660D03*
X021210Y054960D03*
X021210Y056960D03*
D28*
X025460Y055960D03*
X025460Y049660D03*
X025460Y043460D03*
X025460Y037160D03*
X025460Y030960D03*
X025460Y024760D03*
X025460Y018560D03*
X025460Y012360D03*
D29*
X046160Y046960D03*
X046160Y047960D03*
X046160Y048960D03*
X046160Y051560D03*
X046160Y052560D03*
X046160Y053560D03*
D30*
X060210Y075935D03*
X060710Y075935D03*
X061210Y075935D03*
X061710Y075935D03*
X061710Y078185D03*
X061210Y078185D03*
X060710Y078185D03*
X060210Y078185D03*
D31*
X020760Y065873D03*
X017660Y065873D03*
X017660Y059623D03*
X020760Y059623D03*
X020760Y053373D03*
X017660Y053373D03*
X017660Y047123D03*
X020760Y047123D03*
X020760Y040873D03*
X017660Y040873D03*
X017660Y034623D03*
X020760Y034623D03*
X020760Y028373D03*
X017660Y028373D03*
X017660Y022123D03*
X020760Y022123D03*
X020760Y015873D03*
X017660Y015873D03*
X017660Y009623D03*
X020760Y009623D03*
D32*
X039660Y065160D03*
X040660Y065160D03*
X040660Y066160D03*
X039660Y066160D03*
X041660Y066160D03*
X042660Y066160D03*
X043660Y066160D03*
X044660Y066160D03*
X045660Y066160D03*
X045660Y065160D03*
X044660Y065160D03*
X043660Y065160D03*
X042660Y065160D03*
X041660Y065160D03*
X046660Y065160D03*
X047660Y065160D03*
X048660Y065160D03*
X048660Y066160D03*
X047660Y066160D03*
X046660Y066160D03*
X046660Y082160D03*
X047660Y082160D03*
X048660Y082160D03*
X048660Y083160D03*
X047660Y083160D03*
X046660Y083160D03*
X045660Y083160D03*
X045660Y082160D03*
X044660Y082160D03*
X044660Y083160D03*
X043660Y083160D03*
X043660Y082160D03*
X042660Y082160D03*
X042660Y083160D03*
X041660Y083160D03*
X041660Y082160D03*
X040660Y082160D03*
X040660Y083160D03*
X039660Y083160D03*
X039660Y082160D03*
X064660Y082160D03*
X065660Y082160D03*
X066660Y082160D03*
X067660Y082160D03*
X067660Y083160D03*
X066660Y083160D03*
X065660Y083160D03*
X064660Y083160D03*
X068660Y083160D03*
X069660Y083160D03*
X070660Y083160D03*
X071660Y083160D03*
X071660Y082160D03*
X070660Y082160D03*
X069660Y082160D03*
X068660Y082160D03*
X072660Y082160D03*
X073660Y082160D03*
X073660Y083160D03*
X072660Y083160D03*
X072660Y066160D03*
X073660Y066160D03*
X073660Y065160D03*
X072660Y065160D03*
X071660Y065160D03*
X071660Y066160D03*
X070660Y066160D03*
X070660Y065160D03*
X069660Y065160D03*
X069660Y066160D03*
X068660Y066160D03*
X068660Y065160D03*
X067660Y065160D03*
X067660Y066160D03*
X066660Y066160D03*
X066660Y065160D03*
X065660Y065160D03*
X065660Y066160D03*
X064660Y066160D03*
X064660Y065160D03*
D33*
X068660Y044410D03*
X068660Y043410D03*
X068660Y042410D03*
X068660Y041410D03*
X069660Y041910D03*
X069660Y042910D03*
X069660Y043910D03*
D34*
X069660Y040910D03*
D35*
X070860Y051910D03*
X070860Y053410D03*
X070860Y054910D03*
X050860Y053410D03*
X050860Y050410D03*
X050860Y056410D03*
D36*
X070860Y056410D03*
X070860Y050410D03*
D37*
X060369Y044208D03*
X060369Y042412D03*
X050769Y042412D03*
X050769Y044208D03*
D38*
X053485Y043310D03*
X063085Y043310D03*
D39*
X067966Y061186D03*
X067966Y061934D03*
X067966Y062486D03*
X067966Y063234D03*
X068793Y062860D03*
X068793Y061560D03*
D40*
X059091Y043934D03*
X059091Y043560D03*
X059091Y043186D03*
X058028Y043186D03*
X058028Y043560D03*
X058028Y043934D03*
X049391Y043934D03*
X049391Y043560D03*
X049391Y043186D03*
X048328Y043186D03*
X048328Y043560D03*
X048328Y043934D03*
D41*
X044760Y056560D02*
X044760Y058000D01*
X030960Y056460D02*
X030960Y054760D01*
X029160Y054760D01*
X029160Y056460D01*
X030960Y056460D01*
X030960Y056431D02*
X029160Y056431D01*
X029160Y056273D02*
X030960Y056273D01*
X030960Y056114D02*
X029160Y056114D01*
X029160Y055956D02*
X030960Y055956D01*
X030960Y055797D02*
X029160Y055797D01*
X029160Y055639D02*
X030960Y055639D01*
X030960Y055480D02*
X029160Y055480D01*
X029160Y055322D02*
X030960Y055322D01*
X030960Y055163D02*
X029160Y055163D01*
X029160Y055005D02*
X030960Y055005D01*
X030960Y054846D02*
X029160Y054846D01*
X028830Y054846D02*
X023160Y054846D01*
X023160Y054688D02*
X028787Y054688D01*
X028830Y054730D02*
X028560Y054460D01*
X027860Y054460D01*
X027860Y053760D01*
X027512Y053360D01*
X023160Y053360D01*
X023160Y058160D01*
X027260Y058160D01*
X028830Y056490D01*
X028830Y054730D01*
X028830Y055005D02*
X023160Y055005D01*
X023160Y055163D02*
X028830Y055163D01*
X028830Y055322D02*
X023160Y055322D01*
X023160Y055480D02*
X028830Y055480D01*
X028830Y055639D02*
X023160Y055639D01*
X023160Y055797D02*
X028830Y055797D01*
X028830Y055956D02*
X023160Y055956D01*
X023160Y056114D02*
X028830Y056114D01*
X028830Y056273D02*
X023160Y056273D01*
X023160Y056431D02*
X028830Y056431D01*
X028736Y056590D02*
X023160Y056590D01*
X023160Y056748D02*
X028587Y056748D01*
X028438Y056907D02*
X023160Y056907D01*
X023160Y057065D02*
X028289Y057065D01*
X028140Y057224D02*
X023160Y057224D01*
X023160Y057382D02*
X027991Y057382D01*
X027842Y057541D02*
X023160Y057541D01*
X023160Y057699D02*
X027693Y057699D01*
X027544Y057858D02*
X023160Y057858D01*
X023160Y058016D02*
X027395Y058016D01*
X028270Y058499D02*
X028860Y057909D01*
X029908Y057909D01*
X029755Y057909D02*
X028860Y057909D01*
X028270Y058499D02*
X028270Y059956D01*
X028770Y059956D02*
X028770Y059101D01*
X029770Y059026D02*
X029770Y059956D01*
X029873Y059960D01*
X030160Y059960D01*
X029760Y064109D02*
X028860Y064109D01*
X028270Y064699D01*
X028270Y066136D01*
X028770Y066136D02*
X028770Y065301D01*
X028860Y065211D01*
X029760Y065211D02*
X029760Y066160D01*
X030260Y066160D01*
X029770Y066136D02*
X029770Y065221D01*
X029760Y065211D01*
X025460Y055960D02*
X019960Y055960D01*
X019516Y056404D01*
X018727Y056404D01*
X018727Y057034D01*
X018730Y057064D01*
X019230Y057064D02*
X019333Y056960D01*
X021210Y056960D01*
X023160Y054529D02*
X028629Y054529D01*
X029280Y054360D02*
X029276Y054256D01*
X029276Y053747D01*
X029776Y053747D02*
X029776Y052828D01*
X029782Y052822D01*
X028868Y052822D02*
X028776Y052914D01*
X028776Y053747D01*
X028276Y053747D02*
X028276Y052212D01*
X028868Y051720D01*
X029782Y051720D01*
X030358Y051709D01*
X030360Y051710D01*
X028868Y051720D02*
X028868Y051720D01*
X028122Y051042D02*
X023160Y051042D01*
X023160Y050884D02*
X028271Y050884D01*
X028420Y050725D02*
X023160Y050725D01*
X023160Y050567D02*
X028570Y050567D01*
X028719Y050408D02*
X023160Y050408D01*
X023160Y050250D02*
X028830Y050250D01*
X028830Y050290D02*
X028830Y048530D01*
X028560Y048260D01*
X027860Y048260D01*
X027860Y047560D01*
X027512Y047160D01*
X023160Y047160D01*
X023160Y051960D01*
X027260Y051960D01*
X028830Y050290D01*
X028830Y050091D02*
X023160Y050091D01*
X023160Y049933D02*
X028830Y049933D01*
X028830Y049774D02*
X023160Y049774D01*
X023160Y049616D02*
X028830Y049616D01*
X028830Y049457D02*
X023160Y049457D01*
X023160Y049299D02*
X028830Y049299D01*
X028830Y049140D02*
X023160Y049140D01*
X023160Y048982D02*
X028830Y048982D01*
X028830Y048823D02*
X023160Y048823D01*
X023160Y048665D02*
X028830Y048665D01*
X028806Y048506D02*
X023160Y048506D01*
X023160Y048348D02*
X028647Y048348D01*
X029160Y048560D02*
X030960Y048560D01*
X030960Y050260D01*
X029160Y050260D01*
X029160Y048560D01*
X029160Y048665D02*
X030960Y048665D01*
X030960Y048823D02*
X029160Y048823D01*
X029160Y048982D02*
X030960Y048982D01*
X030960Y049140D02*
X029160Y049140D01*
X029160Y049299D02*
X030960Y049299D01*
X030960Y049457D02*
X029160Y049457D01*
X029160Y049616D02*
X030960Y049616D01*
X030960Y049774D02*
X029160Y049774D01*
X029160Y049933D02*
X030960Y049933D01*
X030960Y050091D02*
X029160Y050091D01*
X029160Y050250D02*
X030960Y050250D01*
X029280Y048160D02*
X029276Y048156D01*
X029276Y047547D01*
X029776Y047547D02*
X029776Y046628D01*
X029782Y046622D01*
X028868Y046622D02*
X028776Y046714D01*
X028776Y047547D01*
X028276Y047547D02*
X028276Y046012D01*
X028868Y045520D01*
X029782Y045520D01*
X030358Y045509D01*
X030360Y045510D01*
X030960Y044060D02*
X030960Y042360D01*
X029160Y042360D01*
X029160Y044060D01*
X030960Y044060D01*
X030960Y043910D02*
X029160Y043910D01*
X029160Y043751D02*
X030960Y043751D01*
X030960Y043593D02*
X029160Y043593D01*
X029160Y043434D02*
X030960Y043434D01*
X030960Y043276D02*
X029160Y043276D01*
X029160Y043117D02*
X030960Y043117D01*
X030960Y042959D02*
X029160Y042959D01*
X029160Y042800D02*
X030960Y042800D01*
X030960Y042642D02*
X029160Y042642D01*
X029160Y042483D02*
X030960Y042483D01*
X029776Y041347D02*
X029776Y040428D01*
X029782Y040422D01*
X028868Y040422D02*
X028776Y040514D01*
X028776Y041347D01*
X029276Y041347D02*
X029276Y041856D01*
X029280Y041960D01*
X028830Y042330D02*
X028560Y042060D01*
X027860Y042060D01*
X027860Y041360D01*
X027512Y040960D01*
X023160Y040960D01*
X023160Y045760D01*
X027260Y045760D01*
X028830Y044090D01*
X028830Y042330D01*
X028824Y042325D02*
X023160Y042325D01*
X023160Y042483D02*
X028830Y042483D01*
X028830Y042642D02*
X023160Y042642D01*
X023160Y042800D02*
X028830Y042800D01*
X028830Y042959D02*
X023160Y042959D01*
X023160Y043117D02*
X028830Y043117D01*
X028830Y043276D02*
X023160Y043276D01*
X023160Y043434D02*
X028830Y043434D01*
X028830Y043593D02*
X023160Y043593D01*
X023160Y043751D02*
X028830Y043751D01*
X028830Y043910D02*
X023160Y043910D01*
X023160Y044068D02*
X028830Y044068D01*
X028701Y044227D02*
X023160Y044227D01*
X023160Y044385D02*
X028552Y044385D01*
X028403Y044544D02*
X023160Y044544D01*
X023160Y044702D02*
X028254Y044702D01*
X028105Y044861D02*
X023160Y044861D01*
X023160Y045019D02*
X027956Y045019D01*
X027807Y045178D02*
X023160Y045178D01*
X023160Y045336D02*
X027658Y045336D01*
X027509Y045495D02*
X023160Y045495D01*
X023160Y045653D02*
X027360Y045653D01*
X026260Y046560D02*
X025650Y046560D01*
X024469Y046560D02*
X023511Y046560D01*
X023160Y047238D02*
X027579Y047238D01*
X027717Y047397D02*
X023160Y047397D01*
X023160Y047555D02*
X027855Y047555D01*
X027860Y047714D02*
X023160Y047714D01*
X023160Y047872D02*
X027860Y047872D01*
X027860Y048031D02*
X023160Y048031D01*
X023160Y048189D02*
X027860Y048189D01*
X025460Y049660D02*
X020060Y049660D01*
X019516Y050204D01*
X018727Y050204D01*
X018727Y050834D01*
X018730Y050864D01*
X019230Y050864D02*
X019233Y050660D01*
X021210Y050660D01*
X023160Y051201D02*
X027973Y051201D01*
X027824Y051359D02*
X023160Y051359D01*
X023160Y051518D02*
X027675Y051518D01*
X027526Y051676D02*
X023160Y051676D01*
X023160Y051835D02*
X027377Y051835D01*
X026260Y052760D02*
X025650Y052760D01*
X024469Y052760D02*
X023511Y052760D01*
X023160Y053420D02*
X027563Y053420D01*
X027701Y053578D02*
X023160Y053578D01*
X023160Y053737D02*
X027839Y053737D01*
X027860Y053895D02*
X023160Y053895D01*
X023160Y054054D02*
X027860Y054054D01*
X027860Y054212D02*
X023160Y054212D01*
X023160Y054371D02*
X027860Y054371D01*
X022408Y052760D02*
X020760Y052760D01*
X020760Y053373D01*
X018727Y056404D02*
X017727Y056404D01*
X017727Y057034D01*
X017730Y057064D01*
X017727Y056404D02*
X017060Y056404D01*
X016960Y056460D01*
X016960Y056611D01*
X017745Y055870D02*
X017745Y055031D01*
X017730Y055016D01*
X017237Y055509D01*
X016960Y055509D01*
X017730Y050864D02*
X017727Y050834D01*
X017727Y050204D01*
X017060Y050204D01*
X016960Y050260D01*
X016960Y050411D01*
X017727Y050204D02*
X018727Y050204D01*
X019230Y049670D02*
X019230Y048816D01*
X017745Y048831D02*
X017730Y048816D01*
X017237Y049309D01*
X016960Y049309D01*
X017745Y049670D02*
X017745Y048831D01*
X020760Y047123D02*
X020760Y046560D01*
X022408Y046560D01*
X021210Y044460D02*
X019233Y044460D01*
X019230Y044664D01*
X018730Y044664D02*
X018727Y044634D01*
X018727Y044004D01*
X017727Y044004D01*
X017727Y044634D01*
X017730Y044664D01*
X017727Y044004D02*
X017060Y044004D01*
X016960Y044060D01*
X016960Y044211D01*
X017745Y043470D02*
X017745Y042631D01*
X017730Y042616D01*
X017237Y043109D01*
X016960Y043109D01*
X018727Y044004D02*
X019516Y044004D01*
X020060Y043460D01*
X025460Y043460D01*
X023160Y042166D02*
X028666Y042166D01*
X027860Y042008D02*
X023160Y042008D01*
X023160Y041849D02*
X027860Y041849D01*
X027860Y041691D02*
X023160Y041691D01*
X023160Y041532D02*
X027860Y041532D01*
X027860Y041374D02*
X023160Y041374D01*
X023160Y041215D02*
X027733Y041215D01*
X027596Y041057D02*
X023160Y041057D01*
X023511Y040360D02*
X024469Y040360D01*
X025650Y040360D02*
X026260Y040360D01*
X027260Y039560D02*
X028830Y037890D01*
X028830Y036130D01*
X028560Y035860D01*
X027860Y035860D01*
X027860Y035160D01*
X027512Y034760D01*
X023160Y034760D01*
X023160Y039560D01*
X027260Y039560D01*
X027343Y039472D02*
X023160Y039472D01*
X023160Y039313D02*
X027492Y039313D01*
X027641Y039155D02*
X023160Y039155D01*
X023160Y038996D02*
X027790Y038996D01*
X027939Y038838D02*
X023160Y038838D01*
X023160Y038679D02*
X028088Y038679D01*
X028237Y038521D02*
X023160Y038521D01*
X023160Y038362D02*
X028386Y038362D01*
X028535Y038204D02*
X023160Y038204D01*
X023160Y038045D02*
X028684Y038045D01*
X028830Y037887D02*
X023160Y037887D01*
X023160Y037728D02*
X028830Y037728D01*
X028830Y037570D02*
X023160Y037570D01*
X023160Y037411D02*
X028830Y037411D01*
X028830Y037253D02*
X023160Y037253D01*
X023160Y037094D02*
X028830Y037094D01*
X028830Y036936D02*
X023160Y036936D01*
X023160Y036777D02*
X028830Y036777D01*
X028830Y036619D02*
X023160Y036619D01*
X023160Y036460D02*
X028830Y036460D01*
X028830Y036302D02*
X023160Y036302D01*
X023160Y036143D02*
X028830Y036143D01*
X028684Y035985D02*
X023160Y035985D01*
X023160Y035826D02*
X027860Y035826D01*
X027860Y035668D02*
X023160Y035668D01*
X023160Y035509D02*
X027860Y035509D01*
X027860Y035351D02*
X023160Y035351D01*
X023160Y035192D02*
X027860Y035192D01*
X027750Y035034D02*
X023160Y035034D01*
X023160Y034875D02*
X027612Y034875D01*
X028276Y035147D02*
X028276Y033612D01*
X028868Y033120D01*
X029782Y033120D01*
X030358Y033109D01*
X030360Y033110D01*
X030960Y031660D02*
X030960Y029960D01*
X029160Y029960D01*
X029160Y031660D01*
X030960Y031660D01*
X030960Y031547D02*
X029160Y031547D01*
X029160Y031388D02*
X030960Y031388D01*
X030960Y031230D02*
X029160Y031230D01*
X029160Y031071D02*
X030960Y031071D01*
X030960Y030913D02*
X029160Y030913D01*
X029160Y030754D02*
X030960Y030754D01*
X030960Y030596D02*
X029160Y030596D01*
X029160Y030437D02*
X030960Y030437D01*
X030960Y030279D02*
X029160Y030279D01*
X029160Y030120D02*
X030960Y030120D01*
X030960Y029962D02*
X029160Y029962D01*
X028830Y029962D02*
X023160Y029962D01*
X023160Y030120D02*
X028830Y030120D01*
X028830Y030279D02*
X023160Y030279D01*
X023160Y030437D02*
X028830Y030437D01*
X028830Y030596D02*
X023160Y030596D01*
X023160Y030754D02*
X028830Y030754D01*
X028830Y030913D02*
X023160Y030913D01*
X023160Y031071D02*
X028830Y031071D01*
X028830Y031230D02*
X023160Y031230D01*
X023160Y031388D02*
X028830Y031388D01*
X028830Y031547D02*
X023160Y031547D01*
X023160Y031705D02*
X028815Y031705D01*
X028830Y031690D02*
X028830Y029930D01*
X028560Y029660D01*
X027860Y029660D01*
X027860Y028960D01*
X027512Y028560D01*
X023160Y028560D01*
X023160Y033360D01*
X027260Y033360D01*
X028830Y031690D01*
X028666Y031864D02*
X023160Y031864D01*
X023160Y032022D02*
X028517Y032022D01*
X028368Y032181D02*
X023160Y032181D01*
X023160Y032339D02*
X028219Y032339D01*
X028070Y032498D02*
X023160Y032498D01*
X023160Y032656D02*
X027921Y032656D01*
X027772Y032815D02*
X023160Y032815D01*
X023160Y032973D02*
X027623Y032973D01*
X027474Y033132D02*
X023160Y033132D01*
X023160Y033290D02*
X027325Y033290D01*
X026260Y034160D02*
X025650Y034160D01*
X024469Y034160D02*
X023511Y034160D01*
X022408Y034160D02*
X020760Y034160D01*
X020760Y034623D01*
X019230Y036416D02*
X019230Y037270D01*
X019516Y037804D02*
X018727Y037804D01*
X018727Y038434D01*
X018730Y038464D01*
X019230Y038464D02*
X019233Y038160D01*
X021210Y038160D01*
X020160Y037160D02*
X019516Y037804D01*
X018727Y037804D02*
X017727Y037804D01*
X017727Y038434D01*
X017730Y038464D01*
X017727Y037804D02*
X017060Y037804D01*
X016960Y037860D01*
X016960Y038011D01*
X017745Y037270D02*
X017745Y036431D01*
X017730Y036416D01*
X017237Y036909D01*
X016960Y036909D01*
X020160Y037160D02*
X025460Y037160D01*
X028276Y039812D02*
X028868Y039320D01*
X029782Y039320D01*
X030358Y039309D01*
X030360Y039310D01*
X030960Y037860D02*
X030960Y036160D01*
X029160Y036160D01*
X029160Y037860D01*
X030960Y037860D01*
X030960Y037728D02*
X029160Y037728D01*
X029160Y037570D02*
X030960Y037570D01*
X030960Y037411D02*
X029160Y037411D01*
X029160Y037253D02*
X030960Y037253D01*
X030960Y037094D02*
X029160Y037094D01*
X029160Y036936D02*
X030960Y036936D01*
X030960Y036777D02*
X029160Y036777D01*
X029160Y036619D02*
X030960Y036619D01*
X030960Y036460D02*
X029160Y036460D01*
X029160Y036302D02*
X030960Y036302D01*
X029776Y035147D02*
X029776Y034228D01*
X029782Y034222D01*
X028868Y034222D02*
X028776Y034314D01*
X028776Y035147D01*
X029276Y035147D02*
X029276Y035656D01*
X029280Y035760D01*
X028868Y033120D02*
X028868Y033120D01*
X028703Y029803D02*
X023160Y029803D01*
X023160Y029645D02*
X027860Y029645D01*
X027860Y029486D02*
X023160Y029486D01*
X023160Y029328D02*
X027860Y029328D01*
X027860Y029169D02*
X023160Y029169D01*
X023160Y029011D02*
X027860Y029011D01*
X027766Y028852D02*
X023160Y028852D01*
X023160Y028694D02*
X027628Y028694D01*
X028276Y028947D02*
X028276Y027412D01*
X028868Y026920D01*
X029782Y026920D01*
X030358Y026909D01*
X030360Y026910D01*
X030960Y025460D02*
X030960Y023760D01*
X029160Y023760D01*
X029160Y025460D01*
X030960Y025460D01*
X030960Y025365D02*
X029160Y025365D01*
X029160Y025207D02*
X030960Y025207D01*
X030960Y025048D02*
X029160Y025048D01*
X029160Y024890D02*
X030960Y024890D01*
X030960Y024731D02*
X029160Y024731D01*
X029160Y024573D02*
X030960Y024573D01*
X030960Y024414D02*
X029160Y024414D01*
X029160Y024256D02*
X030960Y024256D01*
X030960Y024097D02*
X029160Y024097D01*
X029160Y023939D02*
X030960Y023939D01*
X030960Y023780D02*
X029160Y023780D01*
X028830Y023780D02*
X023160Y023780D01*
X023160Y023622D02*
X028721Y023622D01*
X028830Y023730D02*
X028560Y023460D01*
X027860Y023460D01*
X027860Y022760D01*
X027512Y022360D01*
X023160Y022360D01*
X023160Y027160D01*
X027260Y027160D01*
X028830Y025490D01*
X028830Y023730D01*
X028830Y023939D02*
X023160Y023939D01*
X023160Y024097D02*
X028830Y024097D01*
X028830Y024256D02*
X023160Y024256D01*
X023160Y024414D02*
X028830Y024414D01*
X028830Y024573D02*
X023160Y024573D01*
X023160Y024731D02*
X028830Y024731D01*
X028830Y024890D02*
X023160Y024890D01*
X023160Y025048D02*
X028830Y025048D01*
X028830Y025207D02*
X023160Y025207D01*
X023160Y025365D02*
X028830Y025365D01*
X028798Y025524D02*
X023160Y025524D01*
X023160Y025682D02*
X028649Y025682D01*
X028500Y025841D02*
X023160Y025841D01*
X023160Y025999D02*
X028351Y025999D01*
X028202Y026158D02*
X023160Y026158D01*
X023160Y026316D02*
X028053Y026316D01*
X027904Y026475D02*
X023160Y026475D01*
X023160Y026633D02*
X027755Y026633D01*
X027606Y026792D02*
X023160Y026792D01*
X023160Y026950D02*
X027457Y026950D01*
X027308Y027109D02*
X023160Y027109D01*
X023511Y027960D02*
X024469Y027960D01*
X025650Y027960D02*
X026260Y027960D01*
X028776Y028114D02*
X028868Y028022D01*
X028776Y028114D02*
X028776Y028947D01*
X029276Y028947D02*
X029276Y029456D01*
X029280Y029560D01*
X029776Y028947D02*
X029776Y028028D01*
X029782Y028022D01*
X028868Y026920D02*
X028868Y026920D01*
X028563Y023463D02*
X023160Y023463D01*
X023160Y023305D02*
X027860Y023305D01*
X027860Y023146D02*
X023160Y023146D01*
X023160Y022988D02*
X027860Y022988D01*
X027860Y022829D02*
X023160Y022829D01*
X023160Y022671D02*
X027782Y022671D01*
X027644Y022512D02*
X023160Y022512D01*
X023511Y021760D02*
X024469Y021760D01*
X025650Y021760D02*
X026260Y021760D01*
X027260Y020960D02*
X028830Y019290D01*
X028830Y017530D01*
X028560Y017260D01*
X027860Y017260D01*
X027860Y016560D01*
X027512Y016160D01*
X023160Y016160D01*
X023160Y020960D01*
X027260Y020960D01*
X027291Y020927D02*
X023160Y020927D01*
X023160Y020769D02*
X027440Y020769D01*
X027589Y020610D02*
X023160Y020610D01*
X023160Y020452D02*
X027738Y020452D01*
X027887Y020293D02*
X023160Y020293D01*
X023160Y020135D02*
X028036Y020135D01*
X028185Y019976D02*
X023160Y019976D01*
X023160Y019818D02*
X028334Y019818D01*
X028483Y019659D02*
X023160Y019659D01*
X023160Y019501D02*
X028632Y019501D01*
X028781Y019342D02*
X023160Y019342D01*
X023160Y019184D02*
X028830Y019184D01*
X028830Y019025D02*
X023160Y019025D01*
X023160Y018867D02*
X028830Y018867D01*
X028830Y018708D02*
X023160Y018708D01*
X023160Y018550D02*
X028830Y018550D01*
X028830Y018391D02*
X023160Y018391D01*
X023160Y018233D02*
X028830Y018233D01*
X028830Y018074D02*
X023160Y018074D01*
X023160Y017916D02*
X028830Y017916D01*
X028830Y017757D02*
X023160Y017757D01*
X023160Y017599D02*
X028830Y017599D01*
X028740Y017440D02*
X023160Y017440D01*
X023160Y017282D02*
X028581Y017282D01*
X029160Y017560D02*
X030960Y017560D01*
X030960Y019260D01*
X029160Y019260D01*
X029160Y017560D01*
X029160Y017599D02*
X030960Y017599D01*
X030960Y017757D02*
X029160Y017757D01*
X029160Y017916D02*
X030960Y017916D01*
X030960Y018074D02*
X029160Y018074D01*
X029160Y018233D02*
X030960Y018233D01*
X030960Y018391D02*
X029160Y018391D01*
X029160Y018550D02*
X030960Y018550D01*
X030960Y018708D02*
X029160Y018708D01*
X029160Y018867D02*
X030960Y018867D01*
X030960Y019025D02*
X029160Y019025D01*
X029160Y019184D02*
X030960Y019184D01*
X030358Y020709D02*
X029782Y020720D01*
X028868Y020720D01*
X028868Y020720D01*
X028276Y021212D01*
X028276Y022747D01*
X028776Y022747D02*
X028776Y021914D01*
X028868Y021822D01*
X029776Y021828D02*
X029776Y022747D01*
X029276Y022747D02*
X029276Y023356D01*
X029280Y023360D01*
X029776Y021828D02*
X029782Y021822D01*
X030358Y020709D02*
X030360Y020710D01*
X029280Y017160D02*
X029276Y017056D01*
X029276Y016547D01*
X029776Y016547D02*
X029776Y015628D01*
X029782Y015622D01*
X028868Y015622D02*
X028776Y015714D01*
X028776Y016547D01*
X028276Y016547D02*
X028276Y015012D01*
X028868Y014520D01*
X029782Y014520D01*
X030358Y014509D01*
X030360Y014510D01*
X028868Y014520D02*
X028868Y014520D01*
X028167Y013795D02*
X023160Y013795D01*
X023160Y013953D02*
X028018Y013953D01*
X027869Y014112D02*
X023160Y014112D01*
X023160Y014270D02*
X027720Y014270D01*
X027571Y014429D02*
X023160Y014429D01*
X023160Y014587D02*
X027422Y014587D01*
X027273Y014746D02*
X023160Y014746D01*
X023160Y014760D02*
X027260Y014760D01*
X028830Y013090D01*
X028830Y011330D01*
X028560Y011060D01*
X027860Y011060D01*
X027860Y010360D01*
X027512Y009960D01*
X023160Y009960D01*
X023160Y014760D01*
X023511Y015560D02*
X024469Y015560D01*
X025650Y015560D02*
X026260Y015560D01*
X027522Y016172D02*
X023160Y016172D01*
X023160Y016331D02*
X027660Y016331D01*
X027798Y016489D02*
X023160Y016489D01*
X023160Y016648D02*
X027860Y016648D01*
X027860Y016806D02*
X023160Y016806D01*
X023160Y016965D02*
X027860Y016965D01*
X027860Y017123D02*
X023160Y017123D01*
X022408Y015560D02*
X020760Y015560D01*
X020760Y015873D01*
X019230Y017816D02*
X019230Y018670D01*
X019516Y019204D02*
X018727Y019204D01*
X018727Y019834D01*
X018730Y019864D01*
X019230Y019864D02*
X019233Y019560D01*
X021210Y019560D01*
X020160Y018560D02*
X019516Y019204D01*
X018727Y019204D02*
X017727Y019204D01*
X017727Y019834D01*
X017730Y019864D01*
X017727Y019204D02*
X017060Y019204D01*
X016960Y019260D01*
X016960Y019411D01*
X017745Y018670D02*
X017745Y017831D01*
X017730Y017816D01*
X017237Y018309D01*
X016960Y018309D01*
X020160Y018560D02*
X025460Y018560D01*
X022408Y021760D02*
X020760Y021760D01*
X020760Y022123D01*
X019230Y024016D02*
X019230Y024870D01*
X019516Y025404D02*
X018727Y025404D01*
X018727Y026034D01*
X018730Y026064D01*
X019230Y026064D02*
X019233Y025760D01*
X021210Y025760D01*
X020160Y024760D02*
X019516Y025404D01*
X018727Y025404D02*
X017727Y025404D01*
X017727Y026034D01*
X017730Y026064D01*
X017727Y025404D02*
X017060Y025404D01*
X016960Y025460D01*
X016960Y025611D01*
X017745Y024870D02*
X017745Y024031D01*
X017730Y024016D01*
X017237Y024509D01*
X016960Y024509D01*
X020160Y024760D02*
X025460Y024760D01*
X022408Y027960D02*
X020760Y027960D01*
X020760Y028373D01*
X019230Y030216D02*
X019230Y031070D01*
X019516Y031604D02*
X018727Y031604D01*
X018727Y032234D01*
X018730Y032264D01*
X019230Y032264D02*
X019233Y031960D01*
X021210Y031960D01*
X020160Y030960D02*
X019516Y031604D01*
X018727Y031604D02*
X017727Y031604D01*
X017727Y032234D01*
X017730Y032264D01*
X017727Y031604D02*
X017060Y031604D01*
X016960Y031660D01*
X016960Y031811D01*
X017745Y031070D02*
X017745Y030231D01*
X017730Y030216D01*
X017237Y030709D01*
X016960Y030709D01*
X020160Y030960D02*
X025460Y030960D01*
X028868Y039320D02*
X028868Y039320D01*
X028276Y039812D02*
X028276Y041347D01*
X028868Y045520D02*
X028868Y045520D01*
X022408Y040360D02*
X020760Y040360D01*
X020760Y040873D01*
X019230Y042616D02*
X019230Y043470D01*
X019230Y013664D02*
X019233Y013360D01*
X021210Y013360D01*
X020160Y012360D02*
X019516Y013004D01*
X018727Y013004D01*
X018727Y013634D01*
X018730Y013664D01*
X018727Y013004D02*
X017727Y013004D01*
X017727Y013634D01*
X017730Y013664D01*
X017727Y013004D02*
X017060Y013004D01*
X016960Y013060D01*
X016960Y013211D01*
X017745Y012470D02*
X017745Y011631D01*
X017730Y011616D01*
X017237Y012109D01*
X016960Y012109D01*
X019230Y012470D02*
X019230Y011616D01*
X020160Y012360D02*
X025460Y012360D01*
X027676Y010149D02*
X023160Y010149D01*
X023160Y009991D02*
X027538Y009991D01*
X027814Y010308D02*
X023160Y010308D01*
X023160Y010466D02*
X027860Y010466D01*
X027860Y010625D02*
X023160Y010625D01*
X023160Y010783D02*
X027860Y010783D01*
X027860Y010942D02*
X023160Y010942D01*
X023160Y011100D02*
X028600Y011100D01*
X028758Y011259D02*
X023160Y011259D01*
X023160Y011417D02*
X028830Y011417D01*
X028830Y011576D02*
X023160Y011576D01*
X023160Y011734D02*
X028830Y011734D01*
X028830Y011893D02*
X023160Y011893D01*
X023160Y012051D02*
X028830Y012051D01*
X028830Y012210D02*
X023160Y012210D01*
X023160Y012368D02*
X028830Y012368D01*
X028830Y012527D02*
X023160Y012527D01*
X023160Y012685D02*
X028830Y012685D01*
X028830Y012844D02*
X023160Y012844D01*
X023160Y013002D02*
X028830Y013002D01*
X028763Y013161D02*
X023160Y013161D01*
X023160Y013319D02*
X028614Y013319D01*
X028465Y013478D02*
X023160Y013478D01*
X023160Y013636D02*
X028316Y013636D01*
X029160Y013060D02*
X030960Y013060D01*
X030960Y011360D01*
X029160Y011360D01*
X029160Y013060D01*
X029160Y013002D02*
X030960Y013002D01*
X030960Y012844D02*
X029160Y012844D01*
X029160Y012685D02*
X030960Y012685D01*
X030960Y012527D02*
X029160Y012527D01*
X029160Y012368D02*
X030960Y012368D01*
X030960Y012210D02*
X029160Y012210D01*
X029160Y012051D02*
X030960Y012051D01*
X030960Y011893D02*
X029160Y011893D01*
X029160Y011734D02*
X030960Y011734D01*
X030960Y011576D02*
X029160Y011576D01*
X029160Y011417D02*
X030960Y011417D01*
X029776Y010347D02*
X029776Y009428D01*
X029782Y009422D01*
X028868Y009422D02*
X028776Y009514D01*
X028776Y010347D01*
X029276Y010347D02*
X029276Y010956D01*
X029280Y010960D01*
X028276Y010347D02*
X028276Y008812D01*
X028868Y008320D01*
X029782Y008320D01*
X030358Y008309D01*
X030360Y008310D01*
X028868Y008320D02*
X028868Y008320D01*
X026260Y009360D02*
X025650Y009360D01*
X024469Y009360D02*
X023511Y009360D01*
X022408Y009360D02*
X020760Y009360D01*
X020760Y009623D01*
X045860Y009674D02*
X046960Y009674D01*
X046960Y009832D02*
X045860Y009832D01*
X045860Y009991D02*
X046960Y009991D01*
X046960Y010149D02*
X045860Y010149D01*
X045860Y010308D02*
X046960Y010308D01*
X046960Y010466D02*
X045860Y010466D01*
X045860Y010625D02*
X046960Y010625D01*
X046960Y010783D02*
X045860Y010783D01*
X045860Y010942D02*
X046960Y010942D01*
X046960Y011100D02*
X045860Y011100D01*
X045860Y011259D02*
X046960Y011259D01*
X046960Y011417D02*
X045860Y011417D01*
X045860Y011576D02*
X046960Y011576D01*
X046960Y011734D02*
X045860Y011734D01*
X045860Y011893D02*
X046960Y011893D01*
X046960Y012051D02*
X045860Y012051D01*
X045860Y012210D02*
X046960Y012210D01*
X046960Y012368D02*
X045860Y012368D01*
X045860Y012527D02*
X046960Y012527D01*
X046960Y012685D02*
X045860Y012685D01*
X045860Y012810D02*
X046960Y012810D01*
X046960Y008810D01*
X045860Y008810D01*
X045860Y012810D01*
X045860Y009515D02*
X046960Y009515D01*
X046960Y009357D02*
X045860Y009357D01*
X045860Y009198D02*
X046960Y009198D01*
X046960Y009040D02*
X045860Y009040D01*
X045860Y008881D02*
X046960Y008881D01*
X060710Y078185D02*
X060710Y078610D01*
X061160Y079060D01*
X067460Y079060D01*
X070160Y081760D01*
X070160Y082660D01*
X070660Y083160D01*
X071160Y082660D02*
X071160Y081760D01*
X068060Y078660D01*
X061460Y078660D01*
X061220Y078420D01*
X061220Y078195D01*
X071160Y082660D02*
X071660Y083160D01*
D42*
X061720Y077780D03*
X060220Y077780D03*
X060410Y074960D03*
X061510Y074960D03*
X059510Y074960D03*
X058410Y074960D03*
X064960Y062260D03*
X067460Y060860D03*
X068760Y061060D03*
X070560Y063460D03*
X057560Y043560D03*
X048860Y047460D03*
X048860Y048460D03*
X048860Y052060D03*
X048860Y053060D03*
X045260Y059760D03*
X045260Y071360D03*
X046260Y071360D03*
X044260Y071360D03*
X043260Y071360D03*
X042260Y071360D03*
X041260Y071360D03*
X040260Y071360D03*
X039260Y071360D03*
X038260Y071360D03*
X037260Y071360D03*
X030260Y066160D03*
X029260Y066660D03*
X030360Y064300D03*
X029260Y060560D03*
X030160Y059960D03*
X029920Y057320D03*
X029280Y054360D03*
X030260Y053860D03*
X030360Y051710D03*
X029280Y048160D03*
X030260Y047660D03*
X030360Y045510D03*
X029280Y041960D03*
X030260Y041460D03*
X030360Y039310D03*
X029280Y035760D03*
X030260Y035260D03*
X030360Y033110D03*
X029280Y029560D03*
X030260Y029060D03*
X030360Y026910D03*
X029280Y023360D03*
X030260Y022860D03*
X030360Y020710D03*
X029280Y017160D03*
X030260Y016660D03*
X030360Y014510D03*
X029260Y010960D03*
X030260Y010460D03*
X030360Y008310D03*
X026260Y009360D03*
X026260Y015560D03*
X026260Y021760D03*
X026260Y027960D03*
X026260Y034160D03*
X026260Y040360D03*
X026260Y046560D03*
X026260Y052760D03*
X019260Y055860D03*
X017745Y055870D03*
X017745Y049670D03*
X019230Y049670D03*
X019230Y043470D03*
X017745Y043470D03*
X017745Y037270D03*
X019230Y037270D03*
X019230Y031070D03*
X017745Y031070D03*
X017745Y024870D03*
X019230Y024870D03*
X019230Y018670D03*
X017745Y018670D03*
X017745Y012470D03*
X019230Y012470D03*
X046760Y012210D03*
X046760Y011510D03*
X046760Y010810D03*
X046760Y010110D03*
X046760Y009410D03*
X047860Y043560D03*
D43*
X048328Y043560D01*
X048328Y043934D02*
X049391Y043934D01*
X049391Y044491D01*
X049860Y044960D01*
X052660Y044960D01*
X053460Y044160D01*
X053460Y043335D01*
X053485Y043310D01*
X051660Y042460D02*
X051660Y038660D01*
X049360Y036360D01*
X048460Y036360D01*
X047860Y036960D01*
X047860Y037960D01*
X049760Y039860D01*
X049760Y042460D01*
X050060Y042760D01*
X051360Y042760D01*
X051660Y042460D01*
X051660Y042443D02*
X049760Y042443D01*
X049760Y042325D02*
X051660Y042325D01*
X051660Y042206D02*
X049760Y042206D01*
X049760Y042088D02*
X051660Y042088D01*
X051660Y041969D02*
X049760Y041969D01*
X049760Y041851D02*
X051660Y041851D01*
X051660Y041732D02*
X049760Y041732D01*
X049760Y041614D02*
X051660Y041614D01*
X051660Y041495D02*
X049760Y041495D01*
X049760Y041377D02*
X051660Y041377D01*
X051660Y041258D02*
X049760Y041258D01*
X049760Y041140D02*
X051660Y041140D01*
X051660Y041021D02*
X049760Y041021D01*
X049760Y040903D02*
X051660Y040903D01*
X051660Y040784D02*
X049760Y040784D01*
X049760Y040666D02*
X051660Y040666D01*
X051660Y040547D02*
X049760Y040547D01*
X049760Y040429D02*
X051660Y040429D01*
X051660Y040310D02*
X049760Y040310D01*
X049760Y040192D02*
X051660Y040192D01*
X051660Y040073D02*
X049760Y040073D01*
X049760Y039955D02*
X051660Y039955D01*
X051660Y039836D02*
X049736Y039836D01*
X049617Y039718D02*
X051660Y039718D01*
X051660Y039599D02*
X049499Y039599D01*
X049380Y039481D02*
X051660Y039481D01*
X051660Y039362D02*
X049262Y039362D01*
X049143Y039244D02*
X051660Y039244D01*
X051660Y039125D02*
X049025Y039125D01*
X048906Y039007D02*
X051660Y039007D01*
X051660Y038888D02*
X048788Y038888D01*
X048669Y038770D02*
X051660Y038770D01*
X051651Y038651D02*
X048551Y038651D01*
X048432Y038533D02*
X051532Y038533D01*
X051414Y038414D02*
X048314Y038414D01*
X048195Y038296D02*
X051295Y038296D01*
X051177Y038177D02*
X048077Y038177D01*
X047958Y038059D02*
X051058Y038059D01*
X050940Y037940D02*
X047860Y037940D01*
X047860Y037822D02*
X050821Y037822D01*
X050703Y037703D02*
X047860Y037703D01*
X047860Y037585D02*
X050584Y037585D01*
X050466Y037466D02*
X047860Y037466D01*
X047860Y037348D02*
X050347Y037348D01*
X050229Y037229D02*
X047860Y037229D01*
X047860Y037111D02*
X050110Y037111D01*
X049992Y036992D02*
X047860Y036992D01*
X047946Y036874D02*
X049873Y036874D01*
X049755Y036755D02*
X048064Y036755D01*
X048183Y036637D02*
X049636Y036637D01*
X049518Y036518D02*
X048301Y036518D01*
X048420Y036400D02*
X049399Y036400D01*
X051060Y039560D02*
X051308Y039560D01*
X052411Y039560D02*
X052660Y039560D01*
X054860Y037360D01*
X059360Y037960D02*
X059360Y042460D01*
X059660Y042760D01*
X060960Y042760D01*
X061260Y042460D01*
X061260Y039060D01*
X061960Y038360D01*
X064560Y038360D01*
X064960Y037960D01*
X064960Y036760D01*
X064560Y036360D01*
X060960Y036360D01*
X059360Y037960D01*
X059379Y037940D02*
X064960Y037940D01*
X064960Y037822D02*
X059498Y037822D01*
X059616Y037703D02*
X064960Y037703D01*
X064960Y037585D02*
X059735Y037585D01*
X059853Y037466D02*
X064960Y037466D01*
X064960Y037348D02*
X059972Y037348D01*
X060090Y037229D02*
X064960Y037229D01*
X064960Y037111D02*
X060209Y037111D01*
X060327Y036992D02*
X064960Y036992D01*
X064960Y036874D02*
X060446Y036874D01*
X060564Y036755D02*
X064955Y036755D01*
X064836Y036637D02*
X060683Y036637D01*
X060801Y036518D02*
X064718Y036518D01*
X064599Y036400D02*
X060920Y036400D01*
X061905Y038414D02*
X059360Y038414D01*
X059360Y038296D02*
X064624Y038296D01*
X064742Y038177D02*
X059360Y038177D01*
X059360Y038059D02*
X064861Y038059D01*
X064010Y037360D02*
X066205Y039555D01*
X066451Y039555D01*
X067553Y039555D02*
X067815Y039555D01*
X070010Y037360D01*
X065249Y032371D02*
X043160Y032371D01*
X043160Y032489D02*
X065130Y032489D01*
X065012Y032608D02*
X043160Y032608D01*
X043160Y032726D02*
X064893Y032726D01*
X064775Y032845D02*
X043160Y032845D01*
X043160Y032960D02*
X064660Y032960D01*
X065660Y031960D01*
X065660Y016560D01*
X064760Y015660D01*
X043160Y015660D01*
X043160Y032960D01*
X043160Y032252D02*
X065367Y032252D01*
X065486Y032134D02*
X043160Y032134D01*
X043160Y032015D02*
X065604Y032015D01*
X065660Y031897D02*
X043160Y031897D01*
X043160Y031778D02*
X065660Y031778D01*
X065660Y031660D02*
X043160Y031660D01*
X043160Y031541D02*
X065660Y031541D01*
X065660Y031423D02*
X043160Y031423D01*
X043160Y031304D02*
X065660Y031304D01*
X065660Y031186D02*
X043160Y031186D01*
X043160Y031067D02*
X065660Y031067D01*
X065660Y030949D02*
X043160Y030949D01*
X043160Y030830D02*
X065660Y030830D01*
X065660Y030712D02*
X043160Y030712D01*
X043160Y030593D02*
X065660Y030593D01*
X065660Y030475D02*
X043160Y030475D01*
X043160Y030356D02*
X065660Y030356D01*
X065660Y030238D02*
X043160Y030238D01*
X043160Y030119D02*
X065660Y030119D01*
X065660Y030001D02*
X043160Y030001D01*
X043160Y029882D02*
X065660Y029882D01*
X065660Y029764D02*
X043160Y029764D01*
X043160Y029645D02*
X065660Y029645D01*
X065660Y029527D02*
X043160Y029527D01*
X043160Y029408D02*
X065660Y029408D01*
X065660Y029290D02*
X043160Y029290D01*
X043160Y029171D02*
X065660Y029171D01*
X065660Y029053D02*
X043160Y029053D01*
X043160Y028934D02*
X065660Y028934D01*
X065660Y028816D02*
X043160Y028816D01*
X043160Y028697D02*
X065660Y028697D01*
X065660Y028579D02*
X043160Y028579D01*
X043160Y028460D02*
X065660Y028460D01*
X065660Y028342D02*
X043160Y028342D01*
X043160Y028223D02*
X065660Y028223D01*
X065660Y028105D02*
X043160Y028105D01*
X043160Y027986D02*
X065660Y027986D01*
X065660Y027868D02*
X043160Y027868D01*
X043160Y027749D02*
X065660Y027749D01*
X065660Y027631D02*
X043160Y027631D01*
X043160Y027512D02*
X065660Y027512D01*
X065660Y027394D02*
X043160Y027394D01*
X043160Y027275D02*
X065660Y027275D01*
X065660Y027157D02*
X043160Y027157D01*
X043160Y027038D02*
X065660Y027038D01*
X065660Y026920D02*
X043160Y026920D01*
X043160Y026801D02*
X065660Y026801D01*
X065660Y026683D02*
X043160Y026683D01*
X043160Y026564D02*
X065660Y026564D01*
X065660Y026446D02*
X043160Y026446D01*
X043160Y026327D02*
X065660Y026327D01*
X065660Y026209D02*
X043160Y026209D01*
X043160Y026090D02*
X065660Y026090D01*
X065660Y025972D02*
X043160Y025972D01*
X043160Y025853D02*
X065660Y025853D01*
X065660Y025735D02*
X043160Y025735D01*
X043160Y025616D02*
X065660Y025616D01*
X065660Y025498D02*
X043160Y025498D01*
X043160Y025379D02*
X065660Y025379D01*
X065660Y025261D02*
X043160Y025261D01*
X043160Y025142D02*
X065660Y025142D01*
X065660Y025024D02*
X043160Y025024D01*
X043160Y024905D02*
X065660Y024905D01*
X065660Y024787D02*
X043160Y024787D01*
X043160Y024668D02*
X065660Y024668D01*
X065660Y024550D02*
X043160Y024550D01*
X043160Y024431D02*
X065660Y024431D01*
X065660Y024313D02*
X043160Y024313D01*
X043160Y024194D02*
X065660Y024194D01*
X065660Y024076D02*
X043160Y024076D01*
X043160Y023957D02*
X065660Y023957D01*
X065660Y023839D02*
X043160Y023839D01*
X043160Y023720D02*
X065660Y023720D01*
X065660Y023602D02*
X043160Y023602D01*
X043160Y023483D02*
X065660Y023483D01*
X065660Y023365D02*
X043160Y023365D01*
X043160Y023246D02*
X065660Y023246D01*
X065660Y023128D02*
X043160Y023128D01*
X043160Y023009D02*
X065660Y023009D01*
X065660Y022891D02*
X043160Y022891D01*
X043160Y022772D02*
X065660Y022772D01*
X065660Y022654D02*
X043160Y022654D01*
X043160Y022535D02*
X065660Y022535D01*
X065660Y022417D02*
X043160Y022417D01*
X043160Y022298D02*
X065660Y022298D01*
X065660Y022180D02*
X043160Y022180D01*
X043160Y022061D02*
X065660Y022061D01*
X065660Y021943D02*
X043160Y021943D01*
X043160Y021824D02*
X065660Y021824D01*
X065660Y021706D02*
X043160Y021706D01*
X043160Y021587D02*
X065660Y021587D01*
X065660Y021469D02*
X043160Y021469D01*
X043160Y021350D02*
X065660Y021350D01*
X065660Y021232D02*
X043160Y021232D01*
X043160Y021113D02*
X065660Y021113D01*
X065660Y020995D02*
X043160Y020995D01*
X043160Y020876D02*
X065660Y020876D01*
X065660Y020758D02*
X043160Y020758D01*
X043160Y020639D02*
X065660Y020639D01*
X065660Y020521D02*
X043160Y020521D01*
X043160Y020402D02*
X065660Y020402D01*
X065660Y020284D02*
X043160Y020284D01*
X043160Y020165D02*
X065660Y020165D01*
X065660Y020047D02*
X043160Y020047D01*
X043160Y019928D02*
X065660Y019928D01*
X065660Y019810D02*
X043160Y019810D01*
X043160Y019691D02*
X065660Y019691D01*
X065660Y019573D02*
X043160Y019573D01*
X043160Y019454D02*
X065660Y019454D01*
X065660Y019336D02*
X043160Y019336D01*
X043160Y019217D02*
X065660Y019217D01*
X065660Y019099D02*
X043160Y019099D01*
X043160Y018980D02*
X065660Y018980D01*
X065660Y018862D02*
X043160Y018862D01*
X043160Y018743D02*
X065660Y018743D01*
X065660Y018625D02*
X043160Y018625D01*
X043160Y018506D02*
X065660Y018506D01*
X065660Y018388D02*
X043160Y018388D01*
X043160Y018269D02*
X065660Y018269D01*
X065660Y018151D02*
X043160Y018151D01*
X043160Y018032D02*
X065660Y018032D01*
X065660Y017914D02*
X043160Y017914D01*
X043160Y017795D02*
X051619Y017795D01*
X051580Y017779D02*
X051441Y017640D01*
X051366Y017458D01*
X051366Y017262D01*
X051441Y017080D01*
X051580Y016941D01*
X051761Y016866D01*
X051958Y016866D01*
X052139Y016941D01*
X052278Y017080D01*
X052353Y017262D01*
X052353Y017458D01*
X052278Y017640D01*
X052139Y017779D01*
X051958Y017854D01*
X051761Y017854D01*
X051580Y017779D01*
X051478Y017677D02*
X043160Y017677D01*
X043160Y017558D02*
X051407Y017558D01*
X051366Y017440D02*
X043160Y017440D01*
X043160Y017321D02*
X051366Y017321D01*
X051390Y017203D02*
X043160Y017203D01*
X043160Y017084D02*
X051439Y017084D01*
X051556Y016966D02*
X043160Y016966D01*
X043160Y016847D02*
X065660Y016847D01*
X065660Y016729D02*
X043160Y016729D01*
X043160Y016610D02*
X065660Y016610D01*
X065591Y016492D02*
X043160Y016492D01*
X043160Y016373D02*
X065473Y016373D01*
X065354Y016255D02*
X043160Y016255D01*
X043160Y016136D02*
X065236Y016136D01*
X065117Y016018D02*
X043160Y016018D01*
X043160Y015899D02*
X064999Y015899D01*
X064880Y015781D02*
X043160Y015781D01*
X043160Y015662D02*
X064762Y015662D01*
X065660Y016966D02*
X055163Y016966D01*
X055139Y016941D02*
X055278Y017080D01*
X055353Y017262D01*
X055353Y017458D01*
X055278Y017640D01*
X055139Y017779D01*
X054958Y017854D01*
X054761Y017854D01*
X054580Y017779D01*
X054441Y017640D01*
X054366Y017458D01*
X054366Y017262D01*
X054441Y017080D01*
X054580Y016941D01*
X054761Y016866D01*
X054958Y016866D01*
X055139Y016941D01*
X055280Y017084D02*
X065660Y017084D01*
X065660Y017203D02*
X055329Y017203D01*
X055353Y017321D02*
X065660Y017321D01*
X065660Y017440D02*
X055353Y017440D01*
X055312Y017558D02*
X065660Y017558D01*
X065660Y017677D02*
X055241Y017677D01*
X055100Y017795D02*
X065660Y017795D01*
X067010Y017360D02*
X068210Y016160D01*
X072860Y016160D01*
X074360Y017660D01*
X074360Y062160D01*
X073640Y062880D01*
X070684Y062880D01*
X070260Y062760D02*
X070260Y063460D01*
X070560Y063460D01*
X070260Y063460D02*
X069660Y064060D01*
X069219Y064060D01*
X069560Y063460D02*
X068700Y063460D01*
X068100Y064060D01*
X068090Y064070D01*
X066804Y064070D01*
X066811Y063160D02*
X066260Y062609D01*
X066260Y061760D01*
X065860Y061360D01*
X065708Y061360D01*
X065708Y062260D02*
X064960Y062260D01*
X065460Y063160D02*
X065708Y063160D01*
X065460Y063160D02*
X064660Y063960D01*
X064660Y065160D01*
X065660Y065160D02*
X065660Y064095D01*
X065685Y064070D01*
X066811Y063160D02*
X067892Y063160D01*
X067966Y063234D01*
X068510Y063210D02*
X067960Y062660D01*
X067960Y062492D01*
X067966Y062486D01*
X067966Y061934D02*
X067285Y061934D01*
X066960Y062260D01*
X066811Y062260D01*
X066811Y061360D02*
X066985Y061186D01*
X067966Y061186D01*
X067460Y061186D01*
X067460Y060860D01*
X067960Y061192D02*
X067966Y061186D01*
X067966Y061934D02*
X068793Y062761D01*
X068793Y062860D01*
X068510Y063210D02*
X069310Y063210D01*
X069895Y062624D01*
X069955Y062624D01*
X070124Y062624D01*
X070260Y062760D01*
X069955Y063136D02*
X069884Y063136D01*
X069560Y063460D01*
X068793Y061560D02*
X068760Y061527D01*
X068760Y061060D01*
X061511Y074960D02*
X061510Y074960D01*
X061511Y074960D02*
X060710Y075761D01*
X060710Y075935D01*
X060960Y076360D02*
X059860Y076360D01*
X059460Y075960D01*
X059460Y075011D01*
X059511Y074960D01*
X059510Y074960D01*
X060210Y075159D02*
X060210Y075935D01*
X060210Y075159D02*
X060408Y074960D01*
X060410Y074960D01*
X061210Y075935D02*
X061210Y076110D01*
X060960Y076360D01*
X061260Y076660D02*
X061710Y076210D01*
X061710Y075935D01*
X061260Y076660D02*
X059360Y076660D01*
X058460Y075760D01*
X058460Y075011D01*
X058408Y074960D01*
X058410Y074960D01*
X060220Y077780D02*
X060210Y078010D01*
X060210Y078185D01*
X061210Y078185D02*
X061220Y078195D01*
X061710Y078185D02*
X061710Y077790D01*
X061720Y077780D01*
X049260Y068460D02*
X046260Y069609D01*
X045260Y069609D01*
X044260Y069609D01*
X043260Y069609D01*
X042260Y069609D01*
X041260Y069609D01*
X040260Y069609D01*
X039260Y069609D01*
X038260Y069609D01*
X037260Y069609D01*
X037320Y070651D02*
X037320Y070771D01*
X038200Y070771D01*
X038200Y071186D01*
X037884Y071186D01*
X037843Y071175D01*
X037807Y071154D01*
X037777Y071124D01*
X037760Y071094D01*
X037742Y071124D01*
X037712Y071154D01*
X037676Y071175D01*
X037635Y071186D01*
X037320Y071186D01*
X037320Y070771D01*
X037200Y070771D01*
X037200Y071186D01*
X036884Y071186D01*
X036860Y071180D01*
X036860Y071560D01*
X046660Y071560D01*
X046660Y071180D01*
X046635Y071186D01*
X046320Y071186D01*
X046320Y070771D01*
X046200Y070771D01*
X046200Y071186D01*
X045884Y071186D01*
X045843Y071175D01*
X045807Y071154D01*
X045777Y071124D01*
X045760Y071094D01*
X045742Y071124D01*
X045712Y071154D01*
X045676Y071175D01*
X045635Y071186D01*
X045320Y071186D01*
X045320Y070771D01*
X045745Y070771D01*
X046200Y070771D01*
X046200Y070651D01*
X045320Y070651D01*
X045320Y070771D01*
X045200Y070771D01*
X045200Y071186D01*
X044884Y071186D01*
X044843Y071175D01*
X044807Y071154D01*
X044777Y071124D01*
X044760Y071094D01*
X044742Y071124D01*
X044712Y071154D01*
X044676Y071175D01*
X044635Y071186D01*
X044320Y071186D01*
X044320Y070771D01*
X045200Y070771D01*
X045200Y070651D01*
X044774Y070651D01*
X044320Y070651D01*
X044320Y070771D01*
X044200Y070771D01*
X044200Y071186D01*
X043884Y071186D01*
X043843Y071175D01*
X043807Y071154D01*
X043777Y071124D01*
X043760Y071094D01*
X043742Y071124D01*
X043712Y071154D01*
X043676Y071175D01*
X043635Y071186D01*
X043320Y071186D01*
X043320Y070771D01*
X044200Y070771D01*
X044200Y070651D01*
X043745Y070651D01*
X043320Y070651D01*
X043320Y070771D01*
X043200Y070771D01*
X043200Y071186D01*
X042884Y071186D01*
X042843Y071175D01*
X042807Y071154D01*
X042777Y071124D01*
X042760Y071094D01*
X042742Y071124D01*
X042712Y071154D01*
X042676Y071175D01*
X042635Y071186D01*
X042320Y071186D01*
X042320Y070771D01*
X042774Y070771D01*
X043200Y070771D01*
X043200Y070651D01*
X042320Y070651D01*
X042320Y070771D01*
X042200Y070771D01*
X042200Y071186D01*
X041884Y071186D01*
X041843Y071175D01*
X041807Y071154D01*
X041777Y071124D01*
X041760Y071094D01*
X041742Y071124D01*
X041712Y071154D01*
X041676Y071175D01*
X041635Y071186D01*
X041320Y071186D01*
X041320Y070771D01*
X042200Y070771D01*
X042200Y070651D01*
X041745Y070651D01*
X041320Y070651D01*
X041320Y070771D01*
X041200Y070771D01*
X041200Y071186D01*
X040884Y071186D01*
X040843Y071175D01*
X040807Y071154D01*
X040777Y071124D01*
X040760Y071094D01*
X040742Y071124D01*
X040712Y071154D01*
X040676Y071175D01*
X040635Y071186D01*
X040320Y071186D01*
X040320Y070771D01*
X040745Y070771D01*
X041200Y070771D01*
X041200Y070651D01*
X040320Y070651D01*
X040320Y070771D01*
X040200Y070771D01*
X040200Y071186D01*
X039884Y071186D01*
X039843Y071175D01*
X039807Y071154D01*
X039777Y071124D01*
X039760Y071094D01*
X039742Y071124D01*
X039712Y071154D01*
X039676Y071175D01*
X039635Y071186D01*
X039320Y071186D01*
X039320Y070771D01*
X040200Y070771D01*
X040200Y070651D01*
X039774Y070651D01*
X039320Y070651D01*
X039320Y070771D01*
X039200Y070771D01*
X039200Y071186D01*
X038884Y071186D01*
X038843Y071175D01*
X038807Y071154D01*
X038777Y071124D01*
X038760Y071094D01*
X038742Y071124D01*
X038712Y071154D01*
X038676Y071175D01*
X038635Y071186D01*
X038320Y071186D01*
X038320Y070771D01*
X038745Y070771D01*
X039200Y070771D01*
X039200Y070651D01*
X038320Y070651D01*
X038320Y070771D01*
X038200Y070771D01*
X038200Y070651D01*
X037774Y070651D01*
X037320Y070651D01*
X037320Y070765D02*
X038200Y070765D01*
X038200Y070883D02*
X038320Y070883D01*
X038320Y070765D02*
X039200Y070765D01*
X039200Y070883D02*
X039320Y070883D01*
X039320Y070765D02*
X040200Y070765D01*
X040200Y070883D02*
X040320Y070883D01*
X040320Y070765D02*
X041200Y070765D01*
X041200Y070883D02*
X041320Y070883D01*
X041320Y070765D02*
X042200Y070765D01*
X042200Y070883D02*
X042320Y070883D01*
X042320Y070765D02*
X043200Y070765D01*
X043200Y070883D02*
X043320Y070883D01*
X043320Y070765D02*
X044200Y070765D01*
X044200Y070883D02*
X044320Y070883D01*
X044320Y070765D02*
X045200Y070765D01*
X045200Y070883D02*
X045320Y070883D01*
X045320Y070765D02*
X046200Y070765D01*
X046200Y070883D02*
X046320Y070883D01*
X046320Y071002D02*
X046200Y071002D01*
X046200Y071120D02*
X046320Y071120D01*
X046660Y071239D02*
X036860Y071239D01*
X036860Y071357D02*
X046660Y071357D01*
X046660Y071476D02*
X036860Y071476D01*
X037200Y071120D02*
X037320Y071120D01*
X037320Y071002D02*
X037200Y071002D01*
X037200Y070883D02*
X037320Y070883D01*
X037744Y071120D02*
X037775Y071120D01*
X038200Y071120D02*
X038320Y071120D01*
X038320Y071002D02*
X038200Y071002D01*
X038744Y071120D02*
X038775Y071120D01*
X039200Y071120D02*
X039320Y071120D01*
X039320Y071002D02*
X039200Y071002D01*
X039744Y071120D02*
X039775Y071120D01*
X040200Y071120D02*
X040320Y071120D01*
X040320Y071002D02*
X040200Y071002D01*
X040744Y071120D02*
X040775Y071120D01*
X041200Y071120D02*
X041320Y071120D01*
X041320Y071002D02*
X041200Y071002D01*
X041744Y071120D02*
X041775Y071120D01*
X042200Y071120D02*
X042320Y071120D01*
X042320Y071002D02*
X042200Y071002D01*
X042744Y071120D02*
X042775Y071120D01*
X043200Y071120D02*
X043320Y071120D01*
X043320Y071002D02*
X043200Y071002D01*
X043744Y071120D02*
X043775Y071120D01*
X044200Y071120D02*
X044320Y071120D01*
X044320Y071002D02*
X044200Y071002D01*
X044744Y071120D02*
X044775Y071120D01*
X045200Y071120D02*
X045320Y071120D01*
X045320Y071002D02*
X045200Y071002D01*
X045744Y071120D02*
X045775Y071120D01*
X045260Y059760D02*
X045260Y059120D01*
X045760Y059120D01*
X045260Y059120D02*
X044760Y059120D01*
X045760Y058000D02*
X046419Y058000D01*
X046460Y058010D01*
X045460Y054510D02*
X045460Y005448D01*
X032987Y005448D01*
X030960Y007475D01*
X030960Y057360D01*
X051460Y057360D01*
X051860Y056960D01*
X051860Y054860D01*
X051460Y054510D01*
X045460Y054510D01*
X045460Y054412D02*
X030960Y054412D01*
X030960Y054530D02*
X051482Y054530D01*
X051618Y054649D02*
X030960Y054649D01*
X030960Y054767D02*
X051753Y054767D01*
X051860Y054886D02*
X030960Y054886D01*
X030960Y055004D02*
X051860Y055004D01*
X051860Y055123D02*
X030960Y055123D01*
X030960Y055241D02*
X051860Y055241D01*
X051860Y055360D02*
X030960Y055360D01*
X030960Y055478D02*
X051860Y055478D01*
X051860Y055597D02*
X030960Y055597D01*
X030960Y055715D02*
X051860Y055715D01*
X051860Y055834D02*
X030960Y055834D01*
X030960Y055952D02*
X051860Y055952D01*
X051860Y056071D02*
X030960Y056071D01*
X030960Y056189D02*
X051860Y056189D01*
X051860Y056308D02*
X030960Y056308D01*
X030960Y056426D02*
X051860Y056426D01*
X051860Y056545D02*
X030960Y056545D01*
X030960Y056663D02*
X051860Y056663D01*
X051860Y056782D02*
X030960Y056782D01*
X030960Y056900D02*
X051860Y056900D01*
X051801Y057019D02*
X030960Y057019D01*
X030960Y057137D02*
X051682Y057137D01*
X051564Y057256D02*
X030960Y057256D01*
X029920Y057320D02*
X029908Y057331D01*
X029908Y057909D01*
X029270Y059956D02*
X029270Y060550D01*
X029260Y060560D01*
X029760Y064109D02*
X029760Y064160D01*
X029860Y064260D01*
X030320Y064260D01*
X030360Y064300D01*
X029270Y065770D02*
X029260Y066660D01*
X029270Y066136D02*
X029270Y065770D01*
X019478Y067470D02*
X018460Y067470D01*
X018450Y067460D01*
X017269Y067460D02*
X017269Y066263D01*
X017660Y065873D01*
X017269Y061260D02*
X017269Y060013D01*
X017660Y059623D01*
X018450Y061260D02*
X019538Y061260D01*
X019260Y055860D02*
X019260Y055046D01*
X019230Y055016D01*
X019630Y054530D02*
X022060Y054530D01*
X022060Y054412D02*
X019511Y054412D01*
X019393Y054293D02*
X022060Y054293D01*
X022060Y054175D02*
X019274Y054175D01*
X019260Y054160D02*
X020460Y055360D01*
X022060Y055360D01*
X022060Y052460D01*
X021160Y051560D01*
X020060Y051560D01*
X019260Y052360D01*
X019260Y054160D01*
X019260Y054056D02*
X022060Y054056D01*
X022060Y053938D02*
X019260Y053938D01*
X019260Y053819D02*
X022060Y053819D01*
X022060Y053701D02*
X019260Y053701D01*
X019260Y053582D02*
X022060Y053582D01*
X022060Y053464D02*
X019260Y053464D01*
X019260Y053345D02*
X022060Y053345D01*
X022060Y053227D02*
X019260Y053227D01*
X019260Y053108D02*
X022060Y053108D01*
X022060Y052990D02*
X019260Y052990D01*
X019260Y052871D02*
X022060Y052871D01*
X022060Y052753D02*
X019260Y052753D01*
X019260Y052634D02*
X022060Y052634D01*
X022060Y052516D02*
X019260Y052516D01*
X019260Y052397D02*
X021997Y052397D01*
X021878Y052279D02*
X019341Y052279D01*
X019459Y052160D02*
X021760Y052160D01*
X021641Y052042D02*
X019578Y052042D01*
X019696Y051923D02*
X021523Y051923D01*
X021404Y051805D02*
X019815Y051805D01*
X019933Y051686D02*
X021286Y051686D01*
X021167Y051568D02*
X020052Y051568D01*
X020460Y049060D02*
X022060Y049060D01*
X022060Y046260D01*
X021160Y045360D01*
X020060Y045360D01*
X019260Y046160D01*
X019260Y047860D01*
X020460Y049060D01*
X020360Y048961D02*
X022060Y048961D01*
X022060Y048842D02*
X020242Y048842D01*
X020123Y048724D02*
X022060Y048724D01*
X022060Y048605D02*
X020005Y048605D01*
X019886Y048487D02*
X022060Y048487D01*
X022060Y048368D02*
X019768Y048368D01*
X019649Y048250D02*
X022060Y048250D01*
X022060Y048131D02*
X019531Y048131D01*
X019412Y048013D02*
X022060Y048013D01*
X022060Y047894D02*
X019294Y047894D01*
X019260Y047776D02*
X022060Y047776D01*
X022060Y047657D02*
X019260Y047657D01*
X019260Y047539D02*
X022060Y047539D01*
X022060Y047420D02*
X019260Y047420D01*
X019260Y047302D02*
X022060Y047302D01*
X022060Y047183D02*
X019260Y047183D01*
X019260Y047065D02*
X022060Y047065D01*
X022060Y046946D02*
X019260Y046946D01*
X019260Y046828D02*
X022060Y046828D01*
X022060Y046709D02*
X019260Y046709D01*
X019260Y046591D02*
X022060Y046591D01*
X022060Y046472D02*
X019260Y046472D01*
X019260Y046354D02*
X022060Y046354D01*
X022035Y046235D02*
X019260Y046235D01*
X019303Y046117D02*
X021916Y046117D01*
X021798Y045998D02*
X019421Y045998D01*
X019540Y045880D02*
X021679Y045880D01*
X021561Y045761D02*
X019658Y045761D01*
X019777Y045643D02*
X021442Y045643D01*
X021324Y045524D02*
X019895Y045524D01*
X020014Y045406D02*
X021205Y045406D01*
X020460Y042860D02*
X022060Y042860D01*
X022060Y040060D01*
X021160Y039160D01*
X020060Y039160D01*
X019260Y039960D01*
X019260Y041660D01*
X020460Y042860D01*
X020398Y042799D02*
X022060Y042799D01*
X022060Y042680D02*
X020280Y042680D01*
X020161Y042562D02*
X022060Y042562D01*
X022060Y042443D02*
X020043Y042443D01*
X019924Y042325D02*
X022060Y042325D01*
X022060Y042206D02*
X019806Y042206D01*
X019687Y042088D02*
X022060Y042088D01*
X022060Y041969D02*
X019569Y041969D01*
X019450Y041851D02*
X022060Y041851D01*
X022060Y041732D02*
X019332Y041732D01*
X019260Y041614D02*
X022060Y041614D01*
X022060Y041495D02*
X019260Y041495D01*
X019260Y041377D02*
X022060Y041377D01*
X022060Y041258D02*
X019260Y041258D01*
X019260Y041140D02*
X022060Y041140D01*
X022060Y041021D02*
X019260Y041021D01*
X019260Y040903D02*
X022060Y040903D01*
X022060Y040784D02*
X019260Y040784D01*
X019260Y040666D02*
X022060Y040666D01*
X022060Y040547D02*
X019260Y040547D01*
X019260Y040429D02*
X022060Y040429D01*
X022060Y040310D02*
X019260Y040310D01*
X019260Y040192D02*
X022060Y040192D01*
X022060Y040073D02*
X019260Y040073D01*
X019265Y039955D02*
X021954Y039955D01*
X021836Y039836D02*
X019383Y039836D01*
X019502Y039718D02*
X021717Y039718D01*
X021599Y039599D02*
X019620Y039599D01*
X019739Y039481D02*
X021480Y039481D01*
X021362Y039362D02*
X019857Y039362D01*
X019976Y039244D02*
X021243Y039244D01*
X020460Y036560D02*
X022060Y036560D01*
X022060Y033860D01*
X021160Y032960D01*
X020060Y032960D01*
X019260Y033760D01*
X019260Y035360D01*
X020460Y036560D01*
X020418Y036518D02*
X022060Y036518D01*
X022060Y036400D02*
X020299Y036400D01*
X020181Y036281D02*
X022060Y036281D01*
X022060Y036163D02*
X020062Y036163D01*
X019944Y036044D02*
X022060Y036044D01*
X022060Y035926D02*
X019825Y035926D01*
X019707Y035807D02*
X022060Y035807D01*
X022060Y035689D02*
X019588Y035689D01*
X019470Y035570D02*
X022060Y035570D01*
X022060Y035452D02*
X019351Y035452D01*
X019260Y035333D02*
X022060Y035333D01*
X022060Y035215D02*
X019260Y035215D01*
X019260Y035096D02*
X022060Y035096D01*
X022060Y034978D02*
X019260Y034978D01*
X019260Y034859D02*
X022060Y034859D01*
X022060Y034741D02*
X019260Y034741D01*
X019260Y034622D02*
X022060Y034622D01*
X022060Y034504D02*
X019260Y034504D01*
X019260Y034385D02*
X022060Y034385D01*
X022060Y034267D02*
X019260Y034267D01*
X019260Y034148D02*
X022060Y034148D01*
X022060Y034030D02*
X019260Y034030D01*
X019260Y033911D02*
X022060Y033911D01*
X021992Y033793D02*
X019260Y033793D01*
X019345Y033674D02*
X021874Y033674D01*
X021755Y033556D02*
X019464Y033556D01*
X019582Y033437D02*
X021637Y033437D01*
X021518Y033319D02*
X019701Y033319D01*
X019819Y033200D02*
X021400Y033200D01*
X021281Y033082D02*
X019938Y033082D01*
X020056Y032963D02*
X021163Y032963D01*
X020460Y030360D02*
X022060Y030360D01*
X022060Y027660D01*
X021160Y026760D01*
X020060Y026760D01*
X019260Y027560D01*
X019260Y029160D01*
X020460Y030360D01*
X020456Y030356D02*
X022060Y030356D01*
X022060Y030238D02*
X020337Y030238D01*
X020219Y030119D02*
X022060Y030119D01*
X022060Y030001D02*
X020100Y030001D01*
X019982Y029882D02*
X022060Y029882D01*
X022060Y029764D02*
X019863Y029764D01*
X019745Y029645D02*
X022060Y029645D01*
X022060Y029527D02*
X019626Y029527D01*
X019508Y029408D02*
X022060Y029408D01*
X022060Y029290D02*
X019389Y029290D01*
X019271Y029171D02*
X022060Y029171D01*
X022060Y029053D02*
X019260Y029053D01*
X019260Y028934D02*
X022060Y028934D01*
X022060Y028816D02*
X019260Y028816D01*
X019260Y028697D02*
X022060Y028697D01*
X022060Y028579D02*
X019260Y028579D01*
X019260Y028460D02*
X022060Y028460D01*
X022060Y028342D02*
X019260Y028342D01*
X019260Y028223D02*
X022060Y028223D01*
X022060Y028105D02*
X019260Y028105D01*
X019260Y027986D02*
X022060Y027986D01*
X022060Y027868D02*
X019260Y027868D01*
X019260Y027749D02*
X022060Y027749D01*
X022030Y027631D02*
X019260Y027631D01*
X019307Y027512D02*
X021912Y027512D01*
X021793Y027394D02*
X019426Y027394D01*
X019544Y027275D02*
X021675Y027275D01*
X021556Y027157D02*
X019663Y027157D01*
X019781Y027038D02*
X021438Y027038D01*
X021319Y026920D02*
X019900Y026920D01*
X020018Y026801D02*
X021201Y026801D01*
X020460Y024160D02*
X022060Y024160D01*
X022060Y021460D01*
X021160Y020560D01*
X020060Y020560D01*
X019260Y021360D01*
X019260Y022960D01*
X020460Y024160D01*
X020375Y024076D02*
X022060Y024076D01*
X022060Y023957D02*
X020257Y023957D01*
X020138Y023839D02*
X022060Y023839D01*
X022060Y023720D02*
X020020Y023720D01*
X019901Y023602D02*
X022060Y023602D01*
X022060Y023483D02*
X019783Y023483D01*
X019664Y023365D02*
X022060Y023365D01*
X022060Y023246D02*
X019546Y023246D01*
X019427Y023128D02*
X022060Y023128D01*
X022060Y023009D02*
X019309Y023009D01*
X019260Y022891D02*
X022060Y022891D01*
X022060Y022772D02*
X019260Y022772D01*
X019260Y022654D02*
X022060Y022654D01*
X022060Y022535D02*
X019260Y022535D01*
X019260Y022417D02*
X022060Y022417D01*
X022060Y022298D02*
X019260Y022298D01*
X019260Y022180D02*
X022060Y022180D01*
X022060Y022061D02*
X019260Y022061D01*
X019260Y021943D02*
X022060Y021943D01*
X022060Y021824D02*
X019260Y021824D01*
X019260Y021706D02*
X022060Y021706D01*
X022060Y021587D02*
X019260Y021587D01*
X019260Y021469D02*
X022060Y021469D01*
X021950Y021350D02*
X019269Y021350D01*
X019388Y021232D02*
X021831Y021232D01*
X021713Y021113D02*
X019506Y021113D01*
X019625Y020995D02*
X021594Y020995D01*
X021476Y020876D02*
X019743Y020876D01*
X019862Y020758D02*
X021357Y020758D01*
X021239Y020639D02*
X019980Y020639D01*
X020460Y017960D02*
X022060Y017960D01*
X022060Y015260D01*
X021160Y014360D01*
X020060Y014360D01*
X019260Y015160D01*
X019260Y016760D01*
X020460Y017960D01*
X020413Y017914D02*
X022060Y017914D01*
X022060Y017795D02*
X020295Y017795D01*
X020176Y017677D02*
X022060Y017677D01*
X022060Y017558D02*
X020058Y017558D01*
X019939Y017440D02*
X022060Y017440D01*
X022060Y017321D02*
X019821Y017321D01*
X019702Y017203D02*
X022060Y017203D01*
X022060Y017084D02*
X019584Y017084D01*
X019465Y016966D02*
X022060Y016966D01*
X022060Y016847D02*
X019347Y016847D01*
X019260Y016729D02*
X022060Y016729D01*
X022060Y016610D02*
X019260Y016610D01*
X019260Y016492D02*
X022060Y016492D01*
X022060Y016373D02*
X019260Y016373D01*
X019260Y016255D02*
X022060Y016255D01*
X022060Y016136D02*
X019260Y016136D01*
X019260Y016018D02*
X022060Y016018D01*
X022060Y015899D02*
X019260Y015899D01*
X019260Y015781D02*
X022060Y015781D01*
X022060Y015662D02*
X019260Y015662D01*
X019260Y015544D02*
X022060Y015544D01*
X022060Y015425D02*
X019260Y015425D01*
X019260Y015307D02*
X022060Y015307D01*
X021988Y015188D02*
X019260Y015188D01*
X019350Y015070D02*
X021869Y015070D01*
X021751Y014951D02*
X019468Y014951D01*
X019587Y014833D02*
X021632Y014833D01*
X021514Y014714D02*
X019705Y014714D01*
X019824Y014596D02*
X021395Y014596D01*
X021277Y014477D02*
X019942Y014477D01*
X020460Y011760D02*
X022060Y011760D01*
X022060Y009060D01*
X021160Y008160D01*
X020060Y008160D01*
X019260Y008960D01*
X019260Y010560D01*
X020460Y011760D01*
X020451Y011752D02*
X022060Y011752D01*
X022060Y011633D02*
X020333Y011633D01*
X020214Y011515D02*
X022060Y011515D01*
X022060Y011396D02*
X020096Y011396D01*
X019977Y011278D02*
X022060Y011278D01*
X022060Y011159D02*
X019859Y011159D01*
X019740Y011041D02*
X022060Y011041D01*
X022060Y010922D02*
X019622Y010922D01*
X019503Y010804D02*
X022060Y010804D01*
X022060Y010685D02*
X019385Y010685D01*
X019266Y010567D02*
X022060Y010567D01*
X022060Y010448D02*
X019260Y010448D01*
X019260Y010330D02*
X022060Y010330D01*
X022060Y010211D02*
X019260Y010211D01*
X019260Y010093D02*
X022060Y010093D01*
X022060Y009974D02*
X019260Y009974D01*
X019260Y009856D02*
X022060Y009856D01*
X022060Y009737D02*
X019260Y009737D01*
X019260Y009619D02*
X022060Y009619D01*
X022060Y009500D02*
X019260Y009500D01*
X019260Y009382D02*
X022060Y009382D01*
X022060Y009263D02*
X019260Y009263D01*
X019260Y009145D02*
X022060Y009145D01*
X022026Y009026D02*
X019260Y009026D01*
X019312Y008908D02*
X021907Y008908D01*
X021789Y008789D02*
X019431Y008789D01*
X019549Y008671D02*
X021670Y008671D01*
X021552Y008552D02*
X019668Y008552D01*
X019786Y008434D02*
X021433Y008434D01*
X021315Y008315D02*
X019905Y008315D01*
X020023Y008197D02*
X021196Y008197D01*
X029276Y010347D02*
X029276Y010944D01*
X029260Y010960D01*
X029733Y010460D02*
X030260Y010460D01*
X029776Y010347D02*
X029733Y010460D01*
X030960Y010448D02*
X045460Y010448D01*
X045460Y010330D02*
X030960Y010330D01*
X030960Y010211D02*
X045460Y010211D01*
X045460Y010093D02*
X030960Y010093D01*
X030960Y009974D02*
X045460Y009974D01*
X045460Y009856D02*
X030960Y009856D01*
X030960Y009737D02*
X045460Y009737D01*
X045460Y009619D02*
X030960Y009619D01*
X030960Y009500D02*
X045460Y009500D01*
X045460Y009382D02*
X030960Y009382D01*
X030960Y009263D02*
X045460Y009263D01*
X045460Y009145D02*
X030960Y009145D01*
X030960Y009026D02*
X045460Y009026D01*
X045460Y008908D02*
X030960Y008908D01*
X030960Y008789D02*
X045460Y008789D01*
X045460Y008671D02*
X030960Y008671D01*
X030960Y008552D02*
X045460Y008552D01*
X045460Y008434D02*
X030960Y008434D01*
X030960Y008315D02*
X045460Y008315D01*
X045460Y008197D02*
X030960Y008197D01*
X030960Y008078D02*
X045460Y008078D01*
X045460Y007960D02*
X030960Y007960D01*
X030960Y007841D02*
X045460Y007841D01*
X045460Y007723D02*
X030960Y007723D01*
X030960Y007604D02*
X045460Y007604D01*
X045460Y007486D02*
X030960Y007486D01*
X031068Y007367D02*
X045460Y007367D01*
X045460Y007249D02*
X031186Y007249D01*
X031305Y007130D02*
X045460Y007130D01*
X045460Y007012D02*
X031423Y007012D01*
X031542Y006893D02*
X045460Y006893D01*
X045460Y006775D02*
X031660Y006775D01*
X031779Y006656D02*
X045460Y006656D01*
X045460Y006538D02*
X031897Y006538D01*
X032016Y006419D02*
X045460Y006419D01*
X045460Y006301D02*
X032134Y006301D01*
X032253Y006182D02*
X045460Y006182D01*
X045460Y006064D02*
X032371Y006064D01*
X032490Y005945D02*
X045460Y005945D01*
X045460Y005827D02*
X032608Y005827D01*
X032727Y005708D02*
X045460Y005708D01*
X045460Y005590D02*
X032845Y005590D01*
X032964Y005471D02*
X045460Y005471D01*
X045460Y010567D02*
X030960Y010567D01*
X030960Y010685D02*
X045460Y010685D01*
X045460Y010804D02*
X030960Y010804D01*
X030960Y010922D02*
X045460Y010922D01*
X045460Y011041D02*
X030960Y011041D01*
X030960Y011159D02*
X045460Y011159D01*
X045460Y011278D02*
X030960Y011278D01*
X030960Y011396D02*
X045460Y011396D01*
X045460Y011515D02*
X030960Y011515D01*
X030960Y011633D02*
X045460Y011633D01*
X045460Y011752D02*
X030960Y011752D01*
X030960Y011870D02*
X045460Y011870D01*
X045460Y011989D02*
X030960Y011989D01*
X030960Y012107D02*
X045460Y012107D01*
X045460Y012226D02*
X030960Y012226D01*
X030960Y012344D02*
X045460Y012344D01*
X045460Y012463D02*
X030960Y012463D01*
X030960Y012581D02*
X045460Y012581D01*
X045460Y012700D02*
X030960Y012700D01*
X030960Y012818D02*
X045460Y012818D01*
X045460Y012937D02*
X030960Y012937D01*
X030960Y013055D02*
X045460Y013055D01*
X045460Y013174D02*
X030960Y013174D01*
X030960Y013292D02*
X045460Y013292D01*
X045460Y013411D02*
X030960Y013411D01*
X030960Y013529D02*
X045460Y013529D01*
X045460Y013648D02*
X030960Y013648D01*
X030960Y013766D02*
X045460Y013766D01*
X045460Y013885D02*
X030960Y013885D01*
X030960Y014003D02*
X045460Y014003D01*
X045460Y014122D02*
X030960Y014122D01*
X030960Y014240D02*
X045460Y014240D01*
X045460Y014359D02*
X030960Y014359D01*
X030960Y014477D02*
X045460Y014477D01*
X045460Y014596D02*
X030960Y014596D01*
X030960Y014714D02*
X045460Y014714D01*
X045460Y014833D02*
X030960Y014833D01*
X030960Y014951D02*
X045460Y014951D01*
X045460Y015070D02*
X030960Y015070D01*
X030960Y015188D02*
X045460Y015188D01*
X045460Y015307D02*
X030960Y015307D01*
X030960Y015425D02*
X045460Y015425D01*
X045460Y015544D02*
X030960Y015544D01*
X030960Y015662D02*
X045460Y015662D01*
X045460Y015781D02*
X030960Y015781D01*
X030960Y015899D02*
X045460Y015899D01*
X045460Y016018D02*
X030960Y016018D01*
X030960Y016136D02*
X045460Y016136D01*
X045460Y016255D02*
X030960Y016255D01*
X030960Y016373D02*
X045460Y016373D01*
X045460Y016492D02*
X030960Y016492D01*
X030960Y016610D02*
X045460Y016610D01*
X045460Y016729D02*
X030960Y016729D01*
X030960Y016847D02*
X045460Y016847D01*
X045460Y016966D02*
X030960Y016966D01*
X030960Y017084D02*
X045460Y017084D01*
X045460Y017203D02*
X030960Y017203D01*
X030960Y017321D02*
X045460Y017321D01*
X045460Y017440D02*
X030960Y017440D01*
X030960Y017558D02*
X045460Y017558D01*
X045460Y017677D02*
X030960Y017677D01*
X030960Y017795D02*
X045460Y017795D01*
X045460Y017914D02*
X030960Y017914D01*
X030960Y018032D02*
X045460Y018032D01*
X045460Y018151D02*
X030960Y018151D01*
X030960Y018269D02*
X045460Y018269D01*
X045460Y018388D02*
X030960Y018388D01*
X030960Y018506D02*
X045460Y018506D01*
X045460Y018625D02*
X030960Y018625D01*
X030960Y018743D02*
X045460Y018743D01*
X045460Y018862D02*
X030960Y018862D01*
X030960Y018980D02*
X045460Y018980D01*
X045460Y019099D02*
X030960Y019099D01*
X030960Y019217D02*
X036963Y019217D01*
X036975Y019212D02*
X037113Y019212D01*
X037241Y019265D01*
X037339Y019363D01*
X037392Y019491D01*
X037392Y019629D01*
X037339Y019757D01*
X037241Y019855D01*
X037113Y019908D01*
X036975Y019908D01*
X036847Y019855D01*
X036749Y019757D01*
X036696Y019629D01*
X036696Y019491D01*
X036749Y019363D01*
X036847Y019265D01*
X036975Y019212D01*
X037125Y019217D02*
X045460Y019217D01*
X045460Y019336D02*
X037311Y019336D01*
X037376Y019454D02*
X045460Y019454D01*
X045460Y019573D02*
X037392Y019573D01*
X037366Y019691D02*
X045460Y019691D01*
X045460Y019810D02*
X037286Y019810D01*
X036801Y019810D02*
X030960Y019810D01*
X030960Y019928D02*
X045460Y019928D01*
X045460Y020047D02*
X030960Y020047D01*
X030960Y020165D02*
X045460Y020165D01*
X045460Y020284D02*
X030960Y020284D01*
X030960Y020402D02*
X045460Y020402D01*
X045460Y020521D02*
X030960Y020521D01*
X030960Y020639D02*
X045460Y020639D01*
X045460Y020758D02*
X030960Y020758D01*
X030960Y020876D02*
X045460Y020876D01*
X045460Y020995D02*
X030960Y020995D01*
X030960Y021113D02*
X045460Y021113D01*
X045460Y021232D02*
X030960Y021232D01*
X030960Y021350D02*
X045460Y021350D01*
X045460Y021469D02*
X030960Y021469D01*
X030960Y021587D02*
X045460Y021587D01*
X045460Y021706D02*
X030960Y021706D01*
X030960Y021824D02*
X045460Y021824D01*
X045460Y021943D02*
X030960Y021943D01*
X030960Y022061D02*
X045460Y022061D01*
X045460Y022180D02*
X030960Y022180D01*
X030960Y022298D02*
X045460Y022298D01*
X045460Y022417D02*
X030960Y022417D01*
X030960Y022535D02*
X045460Y022535D01*
X045460Y022654D02*
X030960Y022654D01*
X030960Y022772D02*
X045460Y022772D01*
X045460Y022891D02*
X030960Y022891D01*
X030960Y023009D02*
X045460Y023009D01*
X045460Y023128D02*
X030960Y023128D01*
X030960Y023246D02*
X045460Y023246D01*
X045460Y023365D02*
X030960Y023365D01*
X030960Y023483D02*
X045460Y023483D01*
X045460Y023602D02*
X030960Y023602D01*
X030960Y023720D02*
X045460Y023720D01*
X045460Y023839D02*
X030960Y023839D01*
X030960Y023957D02*
X045460Y023957D01*
X045460Y024076D02*
X030960Y024076D01*
X030960Y024194D02*
X045460Y024194D01*
X045460Y024313D02*
X030960Y024313D01*
X030960Y024431D02*
X045460Y024431D01*
X045460Y024550D02*
X030960Y024550D01*
X030960Y024668D02*
X036844Y024668D01*
X036847Y024665D02*
X036975Y024612D01*
X037113Y024612D01*
X037241Y024665D01*
X037339Y024763D01*
X037392Y024891D01*
X037392Y025029D01*
X037339Y025157D01*
X037241Y025255D01*
X037113Y025308D01*
X036975Y025308D01*
X036847Y025255D01*
X036749Y025157D01*
X036696Y025029D01*
X036696Y024891D01*
X036749Y024763D01*
X036847Y024665D01*
X036739Y024787D02*
X030960Y024787D01*
X030960Y024905D02*
X036696Y024905D01*
X036696Y025024D02*
X030960Y025024D01*
X030960Y025142D02*
X036743Y025142D01*
X036861Y025261D02*
X030960Y025261D01*
X030960Y025379D02*
X045460Y025379D01*
X045460Y025261D02*
X037227Y025261D01*
X037345Y025142D02*
X045460Y025142D01*
X045460Y025024D02*
X037392Y025024D01*
X037392Y024905D02*
X045460Y024905D01*
X045460Y024787D02*
X037348Y024787D01*
X037244Y024668D02*
X045460Y024668D01*
X045460Y025498D02*
X030960Y025498D01*
X030960Y025616D02*
X045460Y025616D01*
X045460Y025735D02*
X030960Y025735D01*
X030960Y025853D02*
X045460Y025853D01*
X045460Y025972D02*
X030960Y025972D01*
X030960Y026090D02*
X045460Y026090D01*
X045460Y026209D02*
X030960Y026209D01*
X030960Y026327D02*
X045460Y026327D01*
X045460Y026446D02*
X030960Y026446D01*
X030960Y026564D02*
X045460Y026564D01*
X045460Y026683D02*
X030960Y026683D01*
X030960Y026801D02*
X045460Y026801D01*
X045460Y026920D02*
X030960Y026920D01*
X030960Y027038D02*
X045460Y027038D01*
X045460Y027157D02*
X030960Y027157D01*
X030960Y027275D02*
X045460Y027275D01*
X045460Y027394D02*
X030960Y027394D01*
X030960Y027512D02*
X045460Y027512D01*
X045460Y027631D02*
X030960Y027631D01*
X030960Y027749D02*
X045460Y027749D01*
X045460Y027868D02*
X030960Y027868D01*
X030960Y027986D02*
X045460Y027986D01*
X045460Y028105D02*
X030960Y028105D01*
X030960Y028223D02*
X045460Y028223D01*
X045460Y028342D02*
X030960Y028342D01*
X030960Y028460D02*
X045460Y028460D01*
X045460Y028579D02*
X030960Y028579D01*
X030960Y028697D02*
X045460Y028697D01*
X045460Y028816D02*
X030960Y028816D01*
X030960Y028934D02*
X045460Y028934D01*
X045460Y029053D02*
X030960Y029053D01*
X030960Y029171D02*
X045460Y029171D01*
X045460Y029290D02*
X030960Y029290D01*
X030960Y029408D02*
X045460Y029408D01*
X045460Y029527D02*
X030960Y029527D01*
X030960Y029645D02*
X045460Y029645D01*
X045460Y029764D02*
X030960Y029764D01*
X030960Y029882D02*
X045460Y029882D01*
X045460Y030001D02*
X030960Y030001D01*
X030960Y030119D02*
X036793Y030119D01*
X036749Y030163D02*
X036847Y030065D01*
X036975Y030012D01*
X037113Y030012D01*
X037241Y030065D01*
X037339Y030163D01*
X037392Y030291D01*
X037392Y030429D01*
X037339Y030557D01*
X037241Y030655D01*
X037113Y030708D01*
X036975Y030708D01*
X036847Y030655D01*
X036749Y030557D01*
X036696Y030429D01*
X036696Y030291D01*
X036749Y030163D01*
X036718Y030238D02*
X030960Y030238D01*
X030960Y030356D02*
X036696Y030356D01*
X036715Y030475D02*
X030960Y030475D01*
X030960Y030593D02*
X036785Y030593D01*
X037303Y030593D02*
X045460Y030593D01*
X045460Y030475D02*
X037373Y030475D01*
X037392Y030356D02*
X045460Y030356D01*
X045460Y030238D02*
X037369Y030238D01*
X037295Y030119D02*
X045460Y030119D01*
X045460Y030712D02*
X030960Y030712D01*
X030960Y030830D02*
X045460Y030830D01*
X045460Y030949D02*
X030960Y030949D01*
X030960Y031067D02*
X045460Y031067D01*
X045460Y031186D02*
X030960Y031186D01*
X030960Y031304D02*
X045460Y031304D01*
X045460Y031423D02*
X030960Y031423D01*
X030960Y031541D02*
X045460Y031541D01*
X045460Y031660D02*
X030960Y031660D01*
X030960Y031778D02*
X045460Y031778D01*
X045460Y031897D02*
X030960Y031897D01*
X030960Y032015D02*
X045460Y032015D01*
X045460Y032134D02*
X030960Y032134D01*
X030960Y032252D02*
X045460Y032252D01*
X045460Y032371D02*
X030960Y032371D01*
X030960Y032489D02*
X045460Y032489D01*
X045460Y032608D02*
X030960Y032608D01*
X030960Y032726D02*
X045460Y032726D01*
X045460Y032845D02*
X030960Y032845D01*
X030960Y032963D02*
X045460Y032963D01*
X045460Y033082D02*
X030960Y033082D01*
X030960Y033200D02*
X045460Y033200D01*
X045460Y033319D02*
X030960Y033319D01*
X030960Y033437D02*
X045460Y033437D01*
X045460Y033556D02*
X030960Y033556D01*
X030960Y033674D02*
X045460Y033674D01*
X045460Y033793D02*
X030960Y033793D01*
X030960Y033911D02*
X045460Y033911D01*
X045460Y034030D02*
X030960Y034030D01*
X030960Y034148D02*
X045460Y034148D01*
X045460Y034267D02*
X030960Y034267D01*
X030960Y034385D02*
X045460Y034385D01*
X045460Y034504D02*
X030960Y034504D01*
X030960Y034622D02*
X045460Y034622D01*
X045460Y034741D02*
X030960Y034741D01*
X030960Y034859D02*
X045460Y034859D01*
X045460Y034978D02*
X030960Y034978D01*
X030960Y035096D02*
X045460Y035096D01*
X045460Y035215D02*
X030960Y035215D01*
X030960Y035333D02*
X045460Y035333D01*
X045460Y035452D02*
X037208Y035452D01*
X037241Y035465D02*
X037339Y035563D01*
X037392Y035691D01*
X037392Y035829D01*
X037339Y035957D01*
X037241Y036055D01*
X037113Y036108D01*
X036975Y036108D01*
X036847Y036055D01*
X036749Y035957D01*
X036696Y035829D01*
X036696Y035691D01*
X036749Y035563D01*
X036847Y035465D01*
X036975Y035412D01*
X037113Y035412D01*
X037241Y035465D01*
X037342Y035570D02*
X045460Y035570D01*
X045460Y035689D02*
X037391Y035689D01*
X037392Y035807D02*
X045460Y035807D01*
X045460Y035926D02*
X037352Y035926D01*
X037252Y036044D02*
X045460Y036044D01*
X045460Y036163D02*
X030960Y036163D01*
X030960Y036281D02*
X045460Y036281D01*
X045460Y036400D02*
X030960Y036400D01*
X030960Y036518D02*
X045460Y036518D01*
X045460Y036637D02*
X030960Y036637D01*
X030960Y036755D02*
X045460Y036755D01*
X045460Y036874D02*
X030960Y036874D01*
X030960Y036992D02*
X045460Y036992D01*
X045460Y037111D02*
X030960Y037111D01*
X030960Y037229D02*
X045460Y037229D01*
X045460Y037348D02*
X030960Y037348D01*
X030960Y037466D02*
X045460Y037466D01*
X045460Y037585D02*
X030960Y037585D01*
X030960Y037703D02*
X045460Y037703D01*
X045460Y037822D02*
X030960Y037822D01*
X030960Y037940D02*
X045460Y037940D01*
X045460Y038059D02*
X030960Y038059D01*
X030960Y038177D02*
X045460Y038177D01*
X045460Y038296D02*
X030960Y038296D01*
X030960Y038414D02*
X045460Y038414D01*
X045460Y038533D02*
X030960Y038533D01*
X030960Y038651D02*
X045460Y038651D01*
X045460Y038770D02*
X030960Y038770D01*
X030960Y038888D02*
X045460Y038888D01*
X045460Y039007D02*
X030960Y039007D01*
X030960Y039125D02*
X045460Y039125D01*
X045460Y039244D02*
X030960Y039244D01*
X030960Y039362D02*
X045460Y039362D01*
X045460Y039481D02*
X030960Y039481D01*
X030960Y039599D02*
X045460Y039599D01*
X045460Y039718D02*
X030960Y039718D01*
X030960Y039836D02*
X045460Y039836D01*
X045460Y039955D02*
X030960Y039955D01*
X030960Y040073D02*
X045460Y040073D01*
X045460Y040192D02*
X030960Y040192D01*
X030960Y040310D02*
X045460Y040310D01*
X045460Y040429D02*
X030960Y040429D01*
X030960Y040547D02*
X045460Y040547D01*
X045460Y040666D02*
X030960Y040666D01*
X030960Y040784D02*
X045460Y040784D01*
X045460Y040903D02*
X030960Y040903D01*
X030960Y041021D02*
X045460Y041021D01*
X045460Y041140D02*
X030960Y041140D01*
X030960Y041258D02*
X045460Y041258D01*
X045460Y041377D02*
X030960Y041377D01*
X030960Y041495D02*
X045460Y041495D01*
X045460Y041614D02*
X030960Y041614D01*
X030960Y041732D02*
X045460Y041732D01*
X045460Y041851D02*
X041902Y041851D01*
X041868Y041817D02*
X042015Y041964D01*
X042095Y042156D01*
X042095Y042364D01*
X042015Y042556D01*
X041868Y042703D01*
X041676Y042782D01*
X040643Y042782D01*
X040451Y042703D01*
X040304Y042556D01*
X040225Y042364D01*
X040225Y042156D01*
X040304Y041964D01*
X040451Y041817D01*
X040643Y041738D01*
X041676Y041738D01*
X041868Y041817D01*
X042017Y041969D02*
X045460Y041969D01*
X045460Y042088D02*
X042066Y042088D01*
X042095Y042206D02*
X045460Y042206D01*
X045460Y042325D02*
X042095Y042325D01*
X042062Y042443D02*
X045460Y042443D01*
X045460Y042562D02*
X042009Y042562D01*
X041891Y042680D02*
X045460Y042680D01*
X045460Y042799D02*
X030960Y042799D01*
X030960Y042917D02*
X045460Y042917D01*
X045460Y043036D02*
X030960Y043036D01*
X030960Y043154D02*
X045460Y043154D01*
X045460Y043273D02*
X030960Y043273D01*
X030960Y043391D02*
X045460Y043391D01*
X045460Y043510D02*
X030960Y043510D01*
X030960Y043628D02*
X045460Y043628D01*
X045460Y043747D02*
X030960Y043747D01*
X030960Y043865D02*
X045460Y043865D01*
X045460Y043984D02*
X030960Y043984D01*
X030960Y044102D02*
X045460Y044102D01*
X045460Y044221D02*
X030960Y044221D01*
X030960Y044339D02*
X045460Y044339D01*
X045460Y044458D02*
X030960Y044458D01*
X030960Y044576D02*
X045460Y044576D01*
X045460Y044695D02*
X030960Y044695D01*
X030960Y044813D02*
X045460Y044813D01*
X045460Y044932D02*
X030960Y044932D01*
X030960Y045050D02*
X045460Y045050D01*
X045460Y045169D02*
X030960Y045169D01*
X030960Y045287D02*
X045460Y045287D01*
X045460Y045406D02*
X030960Y045406D01*
X030960Y045524D02*
X045460Y045524D01*
X045460Y045643D02*
X030960Y045643D01*
X030960Y045761D02*
X045460Y045761D01*
X045460Y045880D02*
X030960Y045880D01*
X030960Y045998D02*
X045460Y045998D01*
X045460Y046117D02*
X030960Y046117D01*
X030960Y046235D02*
X045460Y046235D01*
X045460Y046354D02*
X030960Y046354D01*
X030960Y046472D02*
X045460Y046472D01*
X045460Y046591D02*
X030960Y046591D01*
X030960Y046709D02*
X045460Y046709D01*
X045460Y046828D02*
X030960Y046828D01*
X030960Y046946D02*
X045460Y046946D01*
X045460Y047065D02*
X030960Y047065D01*
X030960Y047183D02*
X045460Y047183D01*
X045460Y047302D02*
X030960Y047302D01*
X030960Y047420D02*
X045460Y047420D01*
X045460Y047539D02*
X030960Y047539D01*
X030960Y047657D02*
X045460Y047657D01*
X045460Y047776D02*
X030960Y047776D01*
X030960Y047894D02*
X045460Y047894D01*
X045460Y048013D02*
X030960Y048013D01*
X030960Y048131D02*
X045460Y048131D01*
X045460Y048250D02*
X030960Y048250D01*
X030960Y048368D02*
X045460Y048368D01*
X045460Y048487D02*
X030960Y048487D01*
X030960Y048605D02*
X045460Y048605D01*
X045460Y048724D02*
X030960Y048724D01*
X030960Y048842D02*
X045460Y048842D01*
X045460Y048961D02*
X030960Y048961D01*
X030960Y049079D02*
X045460Y049079D01*
X045460Y049198D02*
X030960Y049198D01*
X030960Y049316D02*
X045460Y049316D01*
X045460Y049435D02*
X030960Y049435D01*
X030960Y049553D02*
X045460Y049553D01*
X045460Y049672D02*
X030960Y049672D01*
X030960Y049790D02*
X045460Y049790D01*
X045460Y049909D02*
X030960Y049909D01*
X030960Y050027D02*
X045460Y050027D01*
X045460Y050146D02*
X030960Y050146D01*
X030960Y050264D02*
X045460Y050264D01*
X045460Y050383D02*
X030960Y050383D01*
X030960Y050501D02*
X045460Y050501D01*
X045460Y050620D02*
X030960Y050620D01*
X030960Y050738D02*
X045460Y050738D01*
X045460Y050857D02*
X030960Y050857D01*
X030960Y050975D02*
X045460Y050975D01*
X045460Y051094D02*
X030960Y051094D01*
X030960Y051212D02*
X045460Y051212D01*
X045460Y051331D02*
X030960Y051331D01*
X030960Y051449D02*
X045460Y051449D01*
X045460Y051568D02*
X030960Y051568D01*
X030960Y051686D02*
X045460Y051686D01*
X045460Y051805D02*
X030960Y051805D01*
X030960Y051923D02*
X045460Y051923D01*
X045460Y052042D02*
X030960Y052042D01*
X030960Y052160D02*
X045460Y052160D01*
X045460Y052279D02*
X030960Y052279D01*
X030960Y052397D02*
X045460Y052397D01*
X045460Y052516D02*
X030960Y052516D01*
X030960Y052634D02*
X045460Y052634D01*
X045460Y052753D02*
X030960Y052753D01*
X030960Y052871D02*
X045460Y052871D01*
X045460Y052990D02*
X030960Y052990D01*
X030960Y053108D02*
X045460Y053108D01*
X045460Y053227D02*
X030960Y053227D01*
X030960Y053345D02*
X045460Y053345D01*
X045460Y053464D02*
X030960Y053464D01*
X030960Y053582D02*
X045460Y053582D01*
X045460Y053701D02*
X030960Y053701D01*
X030960Y053819D02*
X045460Y053819D01*
X045460Y053938D02*
X030960Y053938D01*
X030960Y054056D02*
X045460Y054056D01*
X045460Y054175D02*
X030960Y054175D01*
X030960Y054293D02*
X045460Y054293D01*
X045260Y053960D02*
X046460Y053960D01*
X046660Y053760D01*
X046660Y053360D01*
X046460Y053160D01*
X045260Y053160D01*
X045260Y053960D01*
X045260Y053938D02*
X046482Y053938D01*
X046600Y053819D02*
X045260Y053819D01*
X045260Y053701D02*
X046660Y053701D01*
X046660Y053582D02*
X045260Y053582D01*
X045260Y053464D02*
X046660Y053464D01*
X046645Y053345D02*
X045260Y053345D01*
X045260Y053227D02*
X046526Y053227D01*
X047160Y053227D02*
X047860Y053227D01*
X047860Y053345D02*
X047160Y053345D01*
X047160Y053464D02*
X047860Y053464D01*
X047860Y053582D02*
X047160Y053582D01*
X047160Y053701D02*
X047860Y053701D01*
X047860Y053819D02*
X047160Y053819D01*
X047160Y053860D02*
X047260Y053960D01*
X047760Y053960D01*
X047860Y053860D01*
X047860Y051260D01*
X047760Y051160D01*
X045960Y051160D01*
X045760Y051360D01*
X045760Y051760D01*
X045960Y051960D01*
X047060Y051960D01*
X047160Y052060D01*
X047160Y053860D01*
X047237Y053938D02*
X047782Y053938D01*
X048260Y053860D02*
X048260Y051260D01*
X048360Y051160D01*
X048960Y051160D01*
X049060Y051260D01*
X049060Y053860D01*
X048960Y053960D01*
X048360Y053960D01*
X048260Y053860D01*
X048260Y053819D02*
X049060Y053819D01*
X049060Y053701D02*
X048260Y053701D01*
X048260Y053582D02*
X049060Y053582D01*
X049060Y053464D02*
X048260Y053464D01*
X048260Y053345D02*
X049060Y053345D01*
X049060Y053227D02*
X048260Y053227D01*
X048260Y053108D02*
X049060Y053108D01*
X049060Y052990D02*
X048260Y052990D01*
X048260Y052871D02*
X049060Y052871D01*
X049060Y052753D02*
X048260Y052753D01*
X048260Y052634D02*
X049060Y052634D01*
X049060Y052516D02*
X048260Y052516D01*
X048260Y052397D02*
X049060Y052397D01*
X049060Y052279D02*
X048260Y052279D01*
X048260Y052160D02*
X049060Y052160D01*
X049060Y052042D02*
X048260Y052042D01*
X048260Y051923D02*
X049060Y051923D01*
X049060Y051805D02*
X048260Y051805D01*
X048260Y051686D02*
X049060Y051686D01*
X049060Y051568D02*
X048260Y051568D01*
X048260Y051449D02*
X049060Y051449D01*
X049060Y051331D02*
X048260Y051331D01*
X048307Y051212D02*
X049012Y051212D01*
X047860Y051331D02*
X045789Y051331D01*
X045760Y051449D02*
X047860Y051449D01*
X047860Y051568D02*
X045760Y051568D01*
X045760Y051686D02*
X047860Y051686D01*
X047860Y051805D02*
X045804Y051805D01*
X045923Y051923D02*
X047860Y051923D01*
X047860Y052042D02*
X047141Y052042D01*
X047160Y052160D02*
X047860Y052160D01*
X047860Y052279D02*
X047160Y052279D01*
X047160Y052397D02*
X047860Y052397D01*
X047860Y052516D02*
X047160Y052516D01*
X047160Y052634D02*
X047860Y052634D01*
X047860Y052753D02*
X047160Y052753D01*
X047160Y052871D02*
X047860Y052871D01*
X047860Y052990D02*
X047160Y052990D01*
X047160Y053108D02*
X047860Y053108D01*
X048337Y053938D02*
X048982Y053938D01*
X047812Y051212D02*
X045907Y051212D01*
X046460Y049360D02*
X045260Y049360D01*
X045260Y048560D01*
X046460Y048560D01*
X046660Y048760D01*
X046660Y049160D01*
X046460Y049360D01*
X046503Y049316D02*
X045260Y049316D01*
X045260Y049198D02*
X046622Y049198D01*
X046660Y049079D02*
X045260Y049079D01*
X045260Y048961D02*
X046660Y048961D01*
X046660Y048842D02*
X045260Y048842D01*
X045260Y048724D02*
X046623Y048724D01*
X046505Y048605D02*
X045260Y048605D01*
X048260Y048605D02*
X049060Y048605D01*
X049060Y048487D02*
X048260Y048487D01*
X048260Y048368D02*
X049060Y048368D01*
X049060Y048250D02*
X048260Y048250D01*
X048260Y048131D02*
X049060Y048131D01*
X049060Y048013D02*
X048260Y048013D01*
X048260Y047894D02*
X049060Y047894D01*
X049060Y047776D02*
X048260Y047776D01*
X048260Y047657D02*
X049060Y047657D01*
X049060Y047539D02*
X048260Y047539D01*
X048260Y047420D02*
X049060Y047420D01*
X049060Y047302D02*
X048260Y047302D01*
X048260Y047183D02*
X049060Y047183D01*
X049060Y047065D02*
X048260Y047065D01*
X048260Y046946D02*
X049060Y046946D01*
X049060Y046828D02*
X048260Y046828D01*
X048260Y046709D02*
X049060Y046709D01*
X049060Y046660D02*
X048960Y046560D01*
X048360Y046560D01*
X048260Y046660D01*
X048260Y049260D01*
X048360Y049360D01*
X048960Y049360D01*
X049060Y049260D01*
X049060Y046660D01*
X048990Y046591D02*
X048329Y046591D01*
X048260Y048724D02*
X049060Y048724D01*
X049060Y048842D02*
X048260Y048842D01*
X048260Y048961D02*
X049060Y048961D01*
X049060Y049079D02*
X048260Y049079D01*
X048260Y049198D02*
X049060Y049198D01*
X049003Y049316D02*
X048316Y049316D01*
X050769Y044208D02*
X050121Y043560D01*
X049391Y043560D01*
X049391Y043186D02*
X050095Y043186D01*
X050669Y042612D01*
X050769Y042412D01*
X051439Y042680D02*
X049980Y042680D01*
X049861Y042562D02*
X051558Y042562D01*
X057560Y043560D02*
X058028Y043560D01*
X058028Y043934D02*
X059091Y043934D01*
X059160Y044003D01*
X059160Y045060D01*
X060369Y044208D02*
X059721Y043560D01*
X059091Y043560D01*
X059091Y043186D02*
X059734Y043186D01*
X060260Y042660D01*
X060260Y042522D01*
X060369Y042412D01*
X061039Y042680D02*
X059580Y042680D01*
X059461Y042562D02*
X061158Y042562D01*
X061260Y042443D02*
X059360Y042443D01*
X059360Y042325D02*
X061260Y042325D01*
X061260Y042206D02*
X059360Y042206D01*
X059360Y042088D02*
X061260Y042088D01*
X061260Y041969D02*
X059360Y041969D01*
X059360Y041851D02*
X061260Y041851D01*
X061260Y041732D02*
X059360Y041732D01*
X059360Y041614D02*
X061260Y041614D01*
X061260Y041495D02*
X059360Y041495D01*
X059360Y041377D02*
X061260Y041377D01*
X061260Y041258D02*
X059360Y041258D01*
X059360Y041140D02*
X061260Y041140D01*
X061260Y041021D02*
X059360Y041021D01*
X059360Y040903D02*
X061260Y040903D01*
X061260Y040784D02*
X059360Y040784D01*
X059360Y040666D02*
X061260Y040666D01*
X061260Y040547D02*
X059360Y040547D01*
X059360Y040429D02*
X061260Y040429D01*
X061260Y040310D02*
X059360Y040310D01*
X059360Y040192D02*
X061260Y040192D01*
X061260Y040073D02*
X059360Y040073D01*
X059360Y039955D02*
X061260Y039955D01*
X061260Y039836D02*
X059360Y039836D01*
X059360Y039718D02*
X061260Y039718D01*
X061260Y039599D02*
X059360Y039599D01*
X059360Y039481D02*
X061260Y039481D01*
X061260Y039362D02*
X059360Y039362D01*
X059360Y039244D02*
X061260Y039244D01*
X061260Y039125D02*
X059360Y039125D01*
X059360Y039007D02*
X061313Y039007D01*
X061431Y038888D02*
X059360Y038888D01*
X059360Y038770D02*
X061550Y038770D01*
X061668Y038651D02*
X059360Y038651D01*
X059360Y038533D02*
X061787Y038533D01*
X054619Y017795D02*
X052100Y017795D01*
X052241Y017677D02*
X054478Y017677D01*
X054407Y017558D02*
X052312Y017558D01*
X052353Y017440D02*
X054366Y017440D01*
X054366Y017321D02*
X052353Y017321D01*
X052329Y017203D02*
X054390Y017203D01*
X054439Y017084D02*
X052280Y017084D01*
X052163Y016966D02*
X054556Y016966D01*
X070708Y012604D02*
X070708Y011510D01*
X070708Y012604D02*
X071210Y013105D01*
X071210Y014515D02*
X074000Y011724D01*
X074000Y011510D01*
X072819Y011510D02*
X071811Y011510D01*
X040418Y041851D02*
X030960Y041851D01*
X030960Y041969D02*
X040302Y041969D01*
X040253Y042088D02*
X030960Y042088D01*
X030960Y042206D02*
X040225Y042206D01*
X040225Y042325D02*
X030960Y042325D01*
X030960Y042443D02*
X040257Y042443D01*
X040310Y042562D02*
X030960Y042562D01*
X030960Y042680D02*
X040428Y042680D01*
X036836Y036044D02*
X030960Y036044D01*
X030960Y035926D02*
X036736Y035926D01*
X036696Y035807D02*
X030960Y035807D01*
X030960Y035689D02*
X036697Y035689D01*
X036746Y035570D02*
X030960Y035570D01*
X030960Y035452D02*
X036880Y035452D01*
X030260Y035260D02*
X029733Y035260D01*
X029776Y035147D01*
X029733Y029060D02*
X030260Y029060D01*
X029776Y028947D02*
X029733Y029060D01*
X029733Y022860D02*
X030260Y022860D01*
X029776Y022747D02*
X029733Y022860D01*
X030960Y019691D02*
X036722Y019691D01*
X036696Y019573D02*
X030960Y019573D01*
X030960Y019454D02*
X036711Y019454D01*
X036776Y019336D02*
X030960Y019336D01*
X030260Y016660D02*
X029733Y016660D01*
X029776Y016547D01*
X029776Y041347D02*
X029733Y041460D01*
X030260Y041460D01*
X029776Y047547D02*
X029733Y047660D01*
X030260Y047660D01*
X029776Y053747D02*
X029733Y053860D01*
X030260Y053860D01*
X022060Y054649D02*
X019748Y054649D01*
X019867Y054767D02*
X022060Y054767D01*
X022060Y054886D02*
X019985Y054886D01*
X020104Y055004D02*
X022060Y055004D01*
X022060Y055123D02*
X020222Y055123D01*
X020341Y055241D02*
X022060Y055241D01*
X022060Y055360D02*
X020459Y055360D01*
D44*
X046460Y058010D03*
D45*
X045565Y059760D02*
X045565Y059821D01*
X045518Y059933D01*
X045432Y060019D01*
X045320Y060065D01*
X045199Y060065D01*
X045087Y060019D01*
X045001Y059933D01*
X044955Y059821D01*
X044955Y059760D01*
X031060Y059760D01*
X029240Y061580D01*
X029240Y062460D01*
X031040Y064260D01*
X051960Y064260D01*
X065760Y050460D01*
X065760Y041460D01*
X061710Y041460D01*
X061710Y044860D01*
X056960Y044860D01*
X056960Y041460D01*
X052310Y041460D01*
X052310Y057260D01*
X049810Y059760D01*
X045565Y059760D01*
X045508Y059943D02*
X056276Y059943D01*
X056078Y060142D02*
X030678Y060142D01*
X030479Y060340D02*
X055879Y060340D01*
X055681Y060539D02*
X030281Y060539D01*
X030082Y060737D02*
X055482Y060737D01*
X055284Y060936D02*
X029884Y060936D01*
X029685Y061134D02*
X055085Y061134D01*
X054887Y061333D02*
X029487Y061333D01*
X029288Y061531D02*
X054688Y061531D01*
X054490Y061730D02*
X029240Y061730D01*
X029240Y061928D02*
X054291Y061928D01*
X054093Y062127D02*
X029240Y062127D01*
X029240Y062325D02*
X053894Y062325D01*
X053696Y062524D02*
X029303Y062524D01*
X029502Y062722D02*
X053497Y062722D01*
X053299Y062921D02*
X029700Y062921D01*
X029899Y063119D02*
X053100Y063119D01*
X052902Y063318D02*
X030097Y063318D01*
X030296Y063516D02*
X052703Y063516D01*
X052505Y063715D02*
X030494Y063715D01*
X030693Y063913D02*
X052306Y063913D01*
X052108Y064112D02*
X030891Y064112D01*
X028800Y062420D02*
X028800Y061560D01*
X027000Y059760D01*
X023060Y059760D01*
X021360Y058060D01*
X020160Y058060D01*
X019460Y058660D01*
X019460Y060160D01*
X023560Y064260D01*
X026960Y064260D01*
X028800Y062420D01*
X028800Y062325D02*
X021625Y062325D01*
X021823Y062524D02*
X028696Y062524D01*
X028497Y062722D02*
X022022Y062722D01*
X022220Y062921D02*
X028299Y062921D01*
X028100Y063119D02*
X022419Y063119D01*
X022617Y063318D02*
X027902Y063318D01*
X027703Y063516D02*
X022816Y063516D01*
X023014Y063715D02*
X027505Y063715D01*
X027306Y063913D02*
X023213Y063913D01*
X023411Y064112D02*
X027108Y064112D01*
X028800Y062127D02*
X021426Y062127D01*
X021228Y061928D02*
X028800Y061928D01*
X028800Y061730D02*
X021029Y061730D01*
X020831Y061531D02*
X028771Y061531D01*
X028572Y061333D02*
X020632Y061333D01*
X020434Y061134D02*
X028374Y061134D01*
X028175Y060936D02*
X020235Y060936D01*
X020037Y060737D02*
X027977Y060737D01*
X027778Y060539D02*
X019838Y060539D01*
X019640Y060340D02*
X027580Y060340D01*
X027381Y060142D02*
X019460Y060142D01*
X019460Y059943D02*
X027183Y059943D01*
X028770Y059101D02*
X028860Y059011D01*
X029755Y059011D02*
X029770Y059026D01*
X030876Y059943D02*
X045011Y059943D01*
X049825Y059745D02*
X056475Y059745D01*
X056673Y059546D02*
X050023Y059546D01*
X050222Y059348D02*
X056872Y059348D01*
X057070Y059149D02*
X050420Y059149D01*
X050619Y058951D02*
X057269Y058951D01*
X057467Y058752D02*
X050817Y058752D01*
X051016Y058554D02*
X057666Y058554D01*
X057864Y058355D02*
X051214Y058355D01*
X051413Y058157D02*
X058063Y058157D01*
X058261Y057958D02*
X051611Y057958D01*
X051810Y057760D02*
X058460Y057760D01*
X058658Y057561D02*
X052008Y057561D01*
X052207Y057363D02*
X058857Y057363D01*
X059055Y057164D02*
X052310Y057164D01*
X052310Y056966D02*
X059254Y056966D01*
X059452Y056767D02*
X052310Y056767D01*
X052310Y056569D02*
X059651Y056569D01*
X059849Y056370D02*
X052310Y056370D01*
X052310Y056172D02*
X060048Y056172D01*
X060246Y055973D02*
X052310Y055973D01*
X052310Y055775D02*
X060445Y055775D01*
X060643Y055576D02*
X052310Y055576D01*
X052310Y055378D02*
X060842Y055378D01*
X061040Y055179D02*
X052310Y055179D01*
X052310Y054981D02*
X061239Y054981D01*
X061437Y054782D02*
X052310Y054782D01*
X052310Y054584D02*
X061636Y054584D01*
X061834Y054385D02*
X052310Y054385D01*
X052310Y054187D02*
X062033Y054187D01*
X062231Y053988D02*
X052310Y053988D01*
X052310Y053790D02*
X062430Y053790D01*
X062628Y053591D02*
X052310Y053591D01*
X052310Y053393D02*
X062827Y053393D01*
X063025Y053194D02*
X052310Y053194D01*
X052310Y052996D02*
X063224Y052996D01*
X063422Y052797D02*
X052310Y052797D01*
X052310Y052599D02*
X063621Y052599D01*
X063819Y052400D02*
X052310Y052400D01*
X052310Y052202D02*
X064018Y052202D01*
X064216Y052003D02*
X052310Y052003D01*
X052310Y051805D02*
X064415Y051805D01*
X064613Y051606D02*
X052310Y051606D01*
X052310Y051408D02*
X064812Y051408D01*
X065010Y051209D02*
X052310Y051209D01*
X052310Y051011D02*
X065209Y051011D01*
X065407Y050812D02*
X052310Y050812D01*
X052310Y050614D02*
X065606Y050614D01*
X065760Y050415D02*
X052310Y050415D01*
X052310Y050217D02*
X065760Y050217D01*
X065760Y050018D02*
X052310Y050018D01*
X052310Y049820D02*
X065760Y049820D01*
X065760Y049621D02*
X052310Y049621D01*
X052310Y049423D02*
X065760Y049423D01*
X065760Y049224D02*
X052310Y049224D01*
X052310Y049026D02*
X065760Y049026D01*
X065760Y048827D02*
X052310Y048827D01*
X052310Y048629D02*
X065760Y048629D01*
X065760Y048430D02*
X052310Y048430D01*
X052310Y048232D02*
X065760Y048232D01*
X065760Y048033D02*
X052310Y048033D01*
X052310Y047835D02*
X065760Y047835D01*
X065760Y047636D02*
X052310Y047636D01*
X052310Y047438D02*
X065760Y047438D01*
X065760Y047239D02*
X052310Y047239D01*
X052310Y047041D02*
X065760Y047041D01*
X065760Y046842D02*
X052310Y046842D01*
X052310Y046644D02*
X065760Y046644D01*
X065760Y046445D02*
X052310Y046445D01*
X052310Y046247D02*
X065760Y046247D01*
X065760Y046048D02*
X052310Y046048D01*
X052310Y045850D02*
X065760Y045850D01*
X065760Y045651D02*
X052310Y045651D01*
X052310Y045453D02*
X065760Y045453D01*
X065760Y045254D02*
X052310Y045254D01*
X052310Y045056D02*
X065760Y045056D01*
X065760Y044857D02*
X061710Y044857D01*
X061710Y044659D02*
X065760Y044659D01*
X065760Y044460D02*
X061710Y044460D01*
X061710Y044262D02*
X065760Y044262D01*
X065760Y044063D02*
X061710Y044063D01*
X061710Y043865D02*
X065760Y043865D01*
X065760Y043666D02*
X061710Y043666D01*
X061710Y043468D02*
X065760Y043468D01*
X065760Y043269D02*
X061710Y043269D01*
X061710Y043071D02*
X065760Y043071D01*
X065760Y042872D02*
X061710Y042872D01*
X061710Y042674D02*
X065760Y042674D01*
X065760Y042475D02*
X061710Y042475D01*
X061710Y042277D02*
X065760Y042277D01*
X065760Y042078D02*
X061710Y042078D01*
X061710Y041880D02*
X065760Y041880D01*
X065760Y041681D02*
X061710Y041681D01*
X061710Y041483D02*
X065760Y041483D01*
X056960Y041483D02*
X052310Y041483D01*
X052310Y041681D02*
X056960Y041681D01*
X056960Y041880D02*
X052310Y041880D01*
X052310Y042078D02*
X056960Y042078D01*
X056960Y042277D02*
X052310Y042277D01*
X052310Y042475D02*
X056960Y042475D01*
X056960Y042674D02*
X052310Y042674D01*
X052310Y042872D02*
X056960Y042872D01*
X056960Y043071D02*
X052310Y043071D01*
X052310Y043269D02*
X056960Y043269D01*
X056960Y043468D02*
X052310Y043468D01*
X052310Y043666D02*
X056960Y043666D01*
X056960Y043865D02*
X052310Y043865D01*
X052310Y044063D02*
X056960Y044063D01*
X056960Y044262D02*
X052310Y044262D01*
X052310Y044460D02*
X056960Y044460D01*
X056960Y044659D02*
X052310Y044659D01*
X052310Y044857D02*
X056960Y044857D01*
X069460Y054360D02*
X069460Y057160D01*
X071760Y057160D01*
X072360Y056560D01*
X072360Y054960D01*
X071760Y054360D01*
X069460Y054360D01*
X069460Y054385D02*
X071785Y054385D01*
X071983Y054584D02*
X069460Y054584D01*
X069460Y054782D02*
X072182Y054782D01*
X072360Y054981D02*
X069460Y054981D01*
X069460Y055179D02*
X072360Y055179D01*
X072360Y055378D02*
X069460Y055378D01*
X069460Y055576D02*
X072360Y055576D01*
X072360Y055775D02*
X069460Y055775D01*
X069460Y055973D02*
X072360Y055973D01*
X072360Y056172D02*
X069460Y056172D01*
X069460Y056370D02*
X072360Y056370D01*
X072351Y056569D02*
X069460Y056569D01*
X069460Y056767D02*
X072152Y056767D01*
X071954Y056966D02*
X069460Y056966D01*
X033060Y067360D02*
X032760Y067060D01*
X029760Y067060D01*
X029240Y067580D01*
X029240Y068660D01*
X030440Y069860D01*
X032660Y069860D01*
X033060Y069460D01*
X033060Y067360D01*
X032987Y067288D02*
X029532Y067288D01*
X029333Y067486D02*
X033060Y067486D01*
X033060Y067685D02*
X029240Y067685D01*
X029240Y067883D02*
X033060Y067883D01*
X033060Y068082D02*
X029240Y068082D01*
X029240Y068280D02*
X033060Y068280D01*
X033060Y068479D02*
X029240Y068479D01*
X029257Y068677D02*
X033060Y068677D01*
X033060Y068876D02*
X029455Y068876D01*
X029654Y069074D02*
X033060Y069074D01*
X033060Y069273D02*
X029852Y069273D01*
X030051Y069471D02*
X033048Y069471D01*
X032850Y069670D02*
X030249Y069670D01*
X028800Y068640D02*
X028800Y067580D01*
X028280Y067060D01*
X024160Y067060D01*
X021360Y064260D01*
X019960Y064260D01*
X019460Y064760D01*
X019460Y066360D01*
X022960Y069860D01*
X027580Y069860D01*
X028800Y068640D01*
X028762Y068677D02*
X021777Y068677D01*
X021975Y068876D02*
X028564Y068876D01*
X028365Y069074D02*
X022174Y069074D01*
X022372Y069273D02*
X028167Y069273D01*
X027968Y069471D02*
X022571Y069471D01*
X022769Y069670D02*
X027770Y069670D01*
X028800Y068479D02*
X021578Y068479D01*
X021380Y068280D02*
X028800Y068280D01*
X028800Y068082D02*
X021181Y068082D01*
X020983Y067883D02*
X028800Y067883D01*
X028800Y067685D02*
X020784Y067685D01*
X020586Y067486D02*
X028706Y067486D01*
X028507Y067288D02*
X020387Y067288D01*
X020189Y067089D02*
X028309Y067089D01*
X029730Y067089D02*
X032789Y067089D01*
X023990Y066891D02*
X019990Y066891D01*
X019792Y066692D02*
X023792Y066692D01*
X023593Y066494D02*
X019593Y066494D01*
X019460Y066295D02*
X023395Y066295D01*
X023196Y066097D02*
X019460Y066097D01*
X019460Y065898D02*
X022998Y065898D01*
X022799Y065700D02*
X019460Y065700D01*
X019460Y065501D02*
X022601Y065501D01*
X022402Y065303D02*
X019460Y065303D01*
X019460Y065104D02*
X022204Y065104D01*
X022005Y064906D02*
X019460Y064906D01*
X019512Y064707D02*
X021807Y064707D01*
X021608Y064509D02*
X019711Y064509D01*
X019909Y064310D02*
X021410Y064310D01*
X023044Y059745D02*
X019460Y059745D01*
X019460Y059546D02*
X022846Y059546D01*
X022647Y059348D02*
X019460Y059348D01*
X019460Y059149D02*
X022449Y059149D01*
X022250Y058951D02*
X019460Y058951D01*
X019460Y058752D02*
X022052Y058752D01*
X021853Y058554D02*
X019584Y058554D01*
X019815Y058355D02*
X021655Y058355D01*
X021456Y058157D02*
X020047Y058157D01*
D46*
X032160Y068460D02*
X049260Y068460D01*
X051260Y068460D01*
X063960Y055760D01*
X070460Y055760D01*
D47*
X047860Y049260D02*
X047860Y046660D01*
X047760Y046560D01*
X045960Y046560D01*
X045760Y046760D01*
X045760Y047160D01*
X045960Y047360D01*
X047060Y047360D01*
X047160Y047460D01*
X047160Y049260D01*
X047260Y049360D01*
X047760Y049360D01*
X047860Y049260D01*
X047837Y049282D02*
X047182Y049282D01*
X047160Y049184D02*
X047860Y049184D01*
X047860Y049085D02*
X047160Y049085D01*
X047160Y048987D02*
X047860Y048987D01*
X047860Y048888D02*
X047160Y048888D01*
X047160Y048790D02*
X047860Y048790D01*
X047860Y048691D02*
X047160Y048691D01*
X047160Y048593D02*
X047860Y048593D01*
X047860Y048494D02*
X047160Y048494D01*
X047160Y048396D02*
X047860Y048396D01*
X047860Y048297D02*
X047160Y048297D01*
X047160Y048199D02*
X047860Y048199D01*
X047860Y048100D02*
X047160Y048100D01*
X047160Y048002D02*
X047860Y048002D01*
X047860Y047903D02*
X047160Y047903D01*
X047160Y047805D02*
X047860Y047805D01*
X047860Y047706D02*
X047160Y047706D01*
X047160Y047608D02*
X047860Y047608D01*
X047860Y047509D02*
X047160Y047509D01*
X047110Y047411D02*
X047860Y047411D01*
X047860Y047312D02*
X045912Y047312D01*
X045813Y047214D02*
X047860Y047214D01*
X047860Y047115D02*
X045760Y047115D01*
X045760Y047017D02*
X047860Y047017D01*
X047860Y046918D02*
X045760Y046918D01*
X045760Y046820D02*
X047860Y046820D01*
X047860Y046721D02*
X045798Y046721D01*
X045897Y046623D02*
X047822Y046623D01*
M02*
