%
M48
M72
T01C0.0150
T02C0.0197
T03C0.0276
T04C0.0300
T05C0.0394
T06C0.0400
T07C0.0512
T08C0.0550
T09C0.0551
T10C0.0600
T11C0.0787
T12C0.0800
T13C0.1260
T14C0.1260
T15C0.1600
T16C0.1700
T17C0.3600
%
T01
X14745Y12470
X16230Y12470
X16230Y18670
X14745Y18670
X14745Y24870
X16230Y24870
X16230Y31070
X14745Y31070
X14745Y37270
X16230Y37270
X16230Y43470
X14745Y43470
X14745Y49670
X16230Y49670
X16260Y55860
X14745Y55870
X23260Y52760
X26280Y54360
X27260Y53860
X27360Y51710
X26280Y48160
X27260Y47660
X27360Y45510
X26280Y41960
X27260Y41460
X27360Y39310
X26280Y35760
X27260Y35260
X27360Y33110
X26280Y29560
X27260Y29060
X27360Y26910
X26280Y23360
X27260Y22860
X27360Y20710
X26280Y17160
X27260Y16660
X27360Y14510
X26260Y10960
X27260Y10460
X27360Y8310
X23260Y9360
X23260Y15560
X23260Y21760
X23260Y27960
X23260Y34160
X23260Y40360
X23260Y46560
X26920Y57320
X27160Y59960
X26260Y60560
X27360Y64300
X27260Y66160
X26260Y66660
X34260Y71360
X35260Y71360
X36260Y71360
X37260Y71360
X38260Y71360
X39260Y71360
X40260Y71360
X41260Y71360
X42260Y71360
X43260Y71360
X42260Y59760
X44660Y53060
X44660Y52060
X44660Y48460
X44660Y47460
X59460Y62260
X62460Y62760
X63560Y62160
X62960Y61060
X56510Y74960
X55410Y74960
X54510Y74960
X53410Y74960
X55220Y77780
X56720Y77780
X42560Y11510
X42560Y10810
X42560Y10110
X42560Y9410
X42560Y8710
T02
X43460Y58010
T03
X34044Y35760
X32076Y35760
X32076Y30360
X34044Y30360
X34044Y24960
X32076Y24960
X32076Y19560
X34044Y19560
T04
X41960Y46960
X41960Y47960
X41960Y48960
X41960Y51560
X41960Y52560
X41960Y53560
T05
X63160Y44410
X64160Y43910
X64160Y42910
X64160Y41910
X64160Y40910
X63160Y41410
X63160Y42410
X63160Y43410
T06
X63160Y65160
X63160Y66160
X64160Y66160
X64160Y65160
X65160Y65160
X65160Y66160
X66160Y66160
X66160Y65160
X67160Y65160
X67160Y66160
X68160Y66160
X68160Y65160
X62160Y65160
X62160Y66160
X61160Y66160
X61160Y65160
X60160Y65160
X60160Y66160
X59160Y66160
X59160Y65160
X59160Y82160
X59160Y83160
X60160Y83160
X60160Y82160
X61160Y82160
X61160Y83160
X62160Y83160
X62160Y82160
X63160Y82160
X63160Y83160
X64160Y83160
X64160Y82160
X65160Y82160
X65160Y83160
X66160Y83160
X66160Y82160
X67160Y82160
X67160Y83160
X68160Y83160
X68160Y82160
X43160Y82160
X43160Y83160
X42160Y83160
X42160Y82160
X41160Y82160
X41160Y83160
X40160Y83160
X40160Y82160
X39160Y82160
X39160Y83160
X38160Y83160
X38160Y82160
X37160Y82160
X37160Y83160
X36160Y83160
X36160Y82160
X35160Y82160
X35160Y83160
X34160Y83160
X34160Y82160
X34160Y66160
X34160Y65160
X35160Y65160
X35160Y66160
X36160Y66160
X36160Y65160
X37160Y65160
X37160Y66160
X38160Y66160
X38160Y65160
X39160Y65160
X39160Y66160
X40160Y66160
X40160Y65160
X41160Y65160
X41160Y66160
X42160Y66160
X42160Y65160
X43160Y65160
X43160Y66160
X36535Y60448
X36535Y58448
X32485Y58448
X32485Y60448
T07
X43360Y17360
X46360Y17360
X49360Y17360
X58510Y17360
X61510Y17360
X64510Y17360
T08
X44673Y13610
X37673Y13610
X38160Y42260
X31160Y42260
T09
X65710Y14515
X65710Y13105
T10
X47360Y50410
X47360Y53410
X47360Y56410
X67360Y54910
X67360Y53410
X67360Y51910
T11
X64510Y37360
X58510Y37360
X49360Y37360
X43360Y37360
T12
X67360Y50410
X67360Y56410
T13
X57160Y70160
X52160Y82160
T14
X66660Y44910
X66660Y40410
T15
X17760Y40873
X14660Y40873
X14660Y47123
X17760Y47123
X17760Y53373
X14660Y53373
X14660Y59623
X17760Y59623
X17760Y65873
X14660Y65873
X14660Y34623
X17760Y34623
X17760Y28373
X14660Y28373
X14660Y22123
X17760Y22123
X17760Y15873
X14660Y15873
X14660Y9623
X17760Y9623
T16
X10360Y6498
X10360Y12748
X10360Y18998
X10360Y25248
X10360Y31498
X10360Y37748
X10360Y43998
X10360Y50248
X10360Y56498
X10360Y62748
X10360Y68998
X15160Y80160
X65960Y6510
T17
X49260Y9760
X32760Y9760
M30
