G75*
%MOIN*%
%OFA0B0*%
%FSLAX24Y24*%
%IPPOS*%
%LPD*%
%AMOC8*
5,1,8,0,0,1.08239X$1,22.5*
%
%ADD10C,0.0000*%
%ADD11C,0.0050*%
D10*
X008060Y006760D02*
X008060Y082560D01*
X008062Y082647D01*
X008068Y082734D01*
X008077Y082821D01*
X008090Y082907D01*
X008107Y082993D01*
X008128Y083078D01*
X008153Y083161D01*
X008181Y083244D01*
X008212Y083325D01*
X008247Y083405D01*
X008286Y083483D01*
X008328Y083560D01*
X008373Y083635D01*
X008422Y083707D01*
X008473Y083778D01*
X008528Y083846D01*
X008585Y083911D01*
X008646Y083974D01*
X008709Y084035D01*
X008774Y084092D01*
X008842Y084147D01*
X008913Y084198D01*
X008985Y084247D01*
X009060Y084292D01*
X009137Y084334D01*
X009215Y084373D01*
X009295Y084408D01*
X009376Y084439D01*
X009459Y084467D01*
X009542Y084492D01*
X009627Y084513D01*
X009713Y084530D01*
X009799Y084543D01*
X009886Y084552D01*
X009973Y084558D01*
X010060Y084560D01*
X067360Y084560D01*
X067447Y084558D01*
X067534Y084552D01*
X067621Y084543D01*
X067707Y084530D01*
X067793Y084513D01*
X067878Y084492D01*
X067961Y084467D01*
X068044Y084439D01*
X068125Y084408D01*
X068205Y084373D01*
X068283Y084334D01*
X068360Y084292D01*
X068435Y084247D01*
X068507Y084198D01*
X068578Y084147D01*
X068646Y084092D01*
X068711Y084035D01*
X068774Y083974D01*
X068835Y083911D01*
X068892Y083846D01*
X068947Y083778D01*
X068998Y083707D01*
X069047Y083635D01*
X069092Y083560D01*
X069134Y083483D01*
X069173Y083405D01*
X069208Y083325D01*
X069239Y083244D01*
X069267Y083161D01*
X069292Y083078D01*
X069313Y082993D01*
X069330Y082907D01*
X069343Y082821D01*
X069352Y082734D01*
X069358Y082647D01*
X069360Y082560D01*
X069360Y006760D01*
X069358Y006673D01*
X069352Y006586D01*
X069343Y006499D01*
X069330Y006413D01*
X069313Y006327D01*
X069292Y006242D01*
X069267Y006159D01*
X069239Y006076D01*
X069208Y005995D01*
X069173Y005915D01*
X069134Y005837D01*
X069092Y005760D01*
X069047Y005685D01*
X068998Y005613D01*
X068947Y005542D01*
X068892Y005474D01*
X068835Y005409D01*
X068774Y005346D01*
X068711Y005285D01*
X068646Y005228D01*
X068578Y005173D01*
X068507Y005122D01*
X068435Y005073D01*
X068360Y005028D01*
X068283Y004986D01*
X068205Y004947D01*
X068125Y004912D01*
X068044Y004881D01*
X067961Y004853D01*
X067878Y004828D01*
X067793Y004807D01*
X067707Y004790D01*
X067621Y004777D01*
X067534Y004768D01*
X067447Y004762D01*
X067360Y004760D01*
X010060Y004760D01*
X009510Y006498D02*
X009512Y006556D01*
X009518Y006614D01*
X009528Y006671D01*
X009542Y006727D01*
X009559Y006783D01*
X009580Y006837D01*
X009605Y006889D01*
X009634Y006940D01*
X009666Y006988D01*
X009701Y007034D01*
X009739Y007078D01*
X009780Y007119D01*
X009824Y007157D01*
X009870Y007192D01*
X009918Y007224D01*
X009969Y007253D01*
X010021Y007278D01*
X010075Y007299D01*
X010131Y007316D01*
X010187Y007330D01*
X010244Y007340D01*
X010302Y007346D01*
X010360Y007348D01*
X010418Y007346D01*
X010476Y007340D01*
X010533Y007330D01*
X010589Y007316D01*
X010645Y007299D01*
X010699Y007278D01*
X010751Y007253D01*
X010802Y007224D01*
X010850Y007192D01*
X010896Y007157D01*
X010940Y007119D01*
X010981Y007078D01*
X011019Y007034D01*
X011054Y006988D01*
X011086Y006940D01*
X011115Y006889D01*
X011140Y006837D01*
X011161Y006783D01*
X011178Y006727D01*
X011192Y006671D01*
X011202Y006614D01*
X011208Y006556D01*
X011210Y006498D01*
X011208Y006440D01*
X011202Y006382D01*
X011192Y006325D01*
X011178Y006269D01*
X011161Y006213D01*
X011140Y006159D01*
X011115Y006107D01*
X011086Y006056D01*
X011054Y006008D01*
X011019Y005962D01*
X010981Y005918D01*
X010940Y005877D01*
X010896Y005839D01*
X010850Y005804D01*
X010802Y005772D01*
X010751Y005743D01*
X010699Y005718D01*
X010645Y005697D01*
X010589Y005680D01*
X010533Y005666D01*
X010476Y005656D01*
X010418Y005650D01*
X010360Y005648D01*
X010302Y005650D01*
X010244Y005656D01*
X010187Y005666D01*
X010131Y005680D01*
X010075Y005697D01*
X010021Y005718D01*
X009969Y005743D01*
X009918Y005772D01*
X009870Y005804D01*
X009824Y005839D01*
X009780Y005877D01*
X009739Y005918D01*
X009701Y005962D01*
X009666Y006008D01*
X009634Y006056D01*
X009605Y006107D01*
X009580Y006159D01*
X009559Y006213D01*
X009542Y006269D01*
X009528Y006325D01*
X009518Y006382D01*
X009512Y006440D01*
X009510Y006498D01*
X008060Y006760D02*
X008062Y006673D01*
X008068Y006586D01*
X008077Y006499D01*
X008090Y006413D01*
X008107Y006327D01*
X008128Y006242D01*
X008153Y006159D01*
X008181Y006076D01*
X008212Y005995D01*
X008247Y005915D01*
X008286Y005837D01*
X008328Y005760D01*
X008373Y005685D01*
X008422Y005613D01*
X008473Y005542D01*
X008528Y005474D01*
X008585Y005409D01*
X008646Y005346D01*
X008709Y005285D01*
X008774Y005228D01*
X008842Y005173D01*
X008913Y005122D01*
X008985Y005073D01*
X009060Y005028D01*
X009137Y004986D01*
X009215Y004947D01*
X009295Y004912D01*
X009376Y004881D01*
X009459Y004853D01*
X009542Y004828D01*
X009627Y004807D01*
X009713Y004790D01*
X009799Y004777D01*
X009886Y004768D01*
X009973Y004762D01*
X010060Y004760D01*
X009510Y012748D02*
X009512Y012806D01*
X009518Y012864D01*
X009528Y012921D01*
X009542Y012977D01*
X009559Y013033D01*
X009580Y013087D01*
X009605Y013139D01*
X009634Y013190D01*
X009666Y013238D01*
X009701Y013284D01*
X009739Y013328D01*
X009780Y013369D01*
X009824Y013407D01*
X009870Y013442D01*
X009918Y013474D01*
X009969Y013503D01*
X010021Y013528D01*
X010075Y013549D01*
X010131Y013566D01*
X010187Y013580D01*
X010244Y013590D01*
X010302Y013596D01*
X010360Y013598D01*
X010418Y013596D01*
X010476Y013590D01*
X010533Y013580D01*
X010589Y013566D01*
X010645Y013549D01*
X010699Y013528D01*
X010751Y013503D01*
X010802Y013474D01*
X010850Y013442D01*
X010896Y013407D01*
X010940Y013369D01*
X010981Y013328D01*
X011019Y013284D01*
X011054Y013238D01*
X011086Y013190D01*
X011115Y013139D01*
X011140Y013087D01*
X011161Y013033D01*
X011178Y012977D01*
X011192Y012921D01*
X011202Y012864D01*
X011208Y012806D01*
X011210Y012748D01*
X011208Y012690D01*
X011202Y012632D01*
X011192Y012575D01*
X011178Y012519D01*
X011161Y012463D01*
X011140Y012409D01*
X011115Y012357D01*
X011086Y012306D01*
X011054Y012258D01*
X011019Y012212D01*
X010981Y012168D01*
X010940Y012127D01*
X010896Y012089D01*
X010850Y012054D01*
X010802Y012022D01*
X010751Y011993D01*
X010699Y011968D01*
X010645Y011947D01*
X010589Y011930D01*
X010533Y011916D01*
X010476Y011906D01*
X010418Y011900D01*
X010360Y011898D01*
X010302Y011900D01*
X010244Y011906D01*
X010187Y011916D01*
X010131Y011930D01*
X010075Y011947D01*
X010021Y011968D01*
X009969Y011993D01*
X009918Y012022D01*
X009870Y012054D01*
X009824Y012089D01*
X009780Y012127D01*
X009739Y012168D01*
X009701Y012212D01*
X009666Y012258D01*
X009634Y012306D01*
X009605Y012357D01*
X009580Y012409D01*
X009559Y012463D01*
X009542Y012519D01*
X009528Y012575D01*
X009518Y012632D01*
X009512Y012690D01*
X009510Y012748D01*
X009510Y018998D02*
X009512Y019056D01*
X009518Y019114D01*
X009528Y019171D01*
X009542Y019227D01*
X009559Y019283D01*
X009580Y019337D01*
X009605Y019389D01*
X009634Y019440D01*
X009666Y019488D01*
X009701Y019534D01*
X009739Y019578D01*
X009780Y019619D01*
X009824Y019657D01*
X009870Y019692D01*
X009918Y019724D01*
X009969Y019753D01*
X010021Y019778D01*
X010075Y019799D01*
X010131Y019816D01*
X010187Y019830D01*
X010244Y019840D01*
X010302Y019846D01*
X010360Y019848D01*
X010418Y019846D01*
X010476Y019840D01*
X010533Y019830D01*
X010589Y019816D01*
X010645Y019799D01*
X010699Y019778D01*
X010751Y019753D01*
X010802Y019724D01*
X010850Y019692D01*
X010896Y019657D01*
X010940Y019619D01*
X010981Y019578D01*
X011019Y019534D01*
X011054Y019488D01*
X011086Y019440D01*
X011115Y019389D01*
X011140Y019337D01*
X011161Y019283D01*
X011178Y019227D01*
X011192Y019171D01*
X011202Y019114D01*
X011208Y019056D01*
X011210Y018998D01*
X011208Y018940D01*
X011202Y018882D01*
X011192Y018825D01*
X011178Y018769D01*
X011161Y018713D01*
X011140Y018659D01*
X011115Y018607D01*
X011086Y018556D01*
X011054Y018508D01*
X011019Y018462D01*
X010981Y018418D01*
X010940Y018377D01*
X010896Y018339D01*
X010850Y018304D01*
X010802Y018272D01*
X010751Y018243D01*
X010699Y018218D01*
X010645Y018197D01*
X010589Y018180D01*
X010533Y018166D01*
X010476Y018156D01*
X010418Y018150D01*
X010360Y018148D01*
X010302Y018150D01*
X010244Y018156D01*
X010187Y018166D01*
X010131Y018180D01*
X010075Y018197D01*
X010021Y018218D01*
X009969Y018243D01*
X009918Y018272D01*
X009870Y018304D01*
X009824Y018339D01*
X009780Y018377D01*
X009739Y018418D01*
X009701Y018462D01*
X009666Y018508D01*
X009634Y018556D01*
X009605Y018607D01*
X009580Y018659D01*
X009559Y018713D01*
X009542Y018769D01*
X009528Y018825D01*
X009518Y018882D01*
X009512Y018940D01*
X009510Y018998D01*
X009510Y025248D02*
X009512Y025306D01*
X009518Y025364D01*
X009528Y025421D01*
X009542Y025477D01*
X009559Y025533D01*
X009580Y025587D01*
X009605Y025639D01*
X009634Y025690D01*
X009666Y025738D01*
X009701Y025784D01*
X009739Y025828D01*
X009780Y025869D01*
X009824Y025907D01*
X009870Y025942D01*
X009918Y025974D01*
X009969Y026003D01*
X010021Y026028D01*
X010075Y026049D01*
X010131Y026066D01*
X010187Y026080D01*
X010244Y026090D01*
X010302Y026096D01*
X010360Y026098D01*
X010418Y026096D01*
X010476Y026090D01*
X010533Y026080D01*
X010589Y026066D01*
X010645Y026049D01*
X010699Y026028D01*
X010751Y026003D01*
X010802Y025974D01*
X010850Y025942D01*
X010896Y025907D01*
X010940Y025869D01*
X010981Y025828D01*
X011019Y025784D01*
X011054Y025738D01*
X011086Y025690D01*
X011115Y025639D01*
X011140Y025587D01*
X011161Y025533D01*
X011178Y025477D01*
X011192Y025421D01*
X011202Y025364D01*
X011208Y025306D01*
X011210Y025248D01*
X011208Y025190D01*
X011202Y025132D01*
X011192Y025075D01*
X011178Y025019D01*
X011161Y024963D01*
X011140Y024909D01*
X011115Y024857D01*
X011086Y024806D01*
X011054Y024758D01*
X011019Y024712D01*
X010981Y024668D01*
X010940Y024627D01*
X010896Y024589D01*
X010850Y024554D01*
X010802Y024522D01*
X010751Y024493D01*
X010699Y024468D01*
X010645Y024447D01*
X010589Y024430D01*
X010533Y024416D01*
X010476Y024406D01*
X010418Y024400D01*
X010360Y024398D01*
X010302Y024400D01*
X010244Y024406D01*
X010187Y024416D01*
X010131Y024430D01*
X010075Y024447D01*
X010021Y024468D01*
X009969Y024493D01*
X009918Y024522D01*
X009870Y024554D01*
X009824Y024589D01*
X009780Y024627D01*
X009739Y024668D01*
X009701Y024712D01*
X009666Y024758D01*
X009634Y024806D01*
X009605Y024857D01*
X009580Y024909D01*
X009559Y024963D01*
X009542Y025019D01*
X009528Y025075D01*
X009518Y025132D01*
X009512Y025190D01*
X009510Y025248D01*
X009510Y031498D02*
X009512Y031556D01*
X009518Y031614D01*
X009528Y031671D01*
X009542Y031727D01*
X009559Y031783D01*
X009580Y031837D01*
X009605Y031889D01*
X009634Y031940D01*
X009666Y031988D01*
X009701Y032034D01*
X009739Y032078D01*
X009780Y032119D01*
X009824Y032157D01*
X009870Y032192D01*
X009918Y032224D01*
X009969Y032253D01*
X010021Y032278D01*
X010075Y032299D01*
X010131Y032316D01*
X010187Y032330D01*
X010244Y032340D01*
X010302Y032346D01*
X010360Y032348D01*
X010418Y032346D01*
X010476Y032340D01*
X010533Y032330D01*
X010589Y032316D01*
X010645Y032299D01*
X010699Y032278D01*
X010751Y032253D01*
X010802Y032224D01*
X010850Y032192D01*
X010896Y032157D01*
X010940Y032119D01*
X010981Y032078D01*
X011019Y032034D01*
X011054Y031988D01*
X011086Y031940D01*
X011115Y031889D01*
X011140Y031837D01*
X011161Y031783D01*
X011178Y031727D01*
X011192Y031671D01*
X011202Y031614D01*
X011208Y031556D01*
X011210Y031498D01*
X011208Y031440D01*
X011202Y031382D01*
X011192Y031325D01*
X011178Y031269D01*
X011161Y031213D01*
X011140Y031159D01*
X011115Y031107D01*
X011086Y031056D01*
X011054Y031008D01*
X011019Y030962D01*
X010981Y030918D01*
X010940Y030877D01*
X010896Y030839D01*
X010850Y030804D01*
X010802Y030772D01*
X010751Y030743D01*
X010699Y030718D01*
X010645Y030697D01*
X010589Y030680D01*
X010533Y030666D01*
X010476Y030656D01*
X010418Y030650D01*
X010360Y030648D01*
X010302Y030650D01*
X010244Y030656D01*
X010187Y030666D01*
X010131Y030680D01*
X010075Y030697D01*
X010021Y030718D01*
X009969Y030743D01*
X009918Y030772D01*
X009870Y030804D01*
X009824Y030839D01*
X009780Y030877D01*
X009739Y030918D01*
X009701Y030962D01*
X009666Y031008D01*
X009634Y031056D01*
X009605Y031107D01*
X009580Y031159D01*
X009559Y031213D01*
X009542Y031269D01*
X009528Y031325D01*
X009518Y031382D01*
X009512Y031440D01*
X009510Y031498D01*
X009510Y037748D02*
X009512Y037806D01*
X009518Y037864D01*
X009528Y037921D01*
X009542Y037977D01*
X009559Y038033D01*
X009580Y038087D01*
X009605Y038139D01*
X009634Y038190D01*
X009666Y038238D01*
X009701Y038284D01*
X009739Y038328D01*
X009780Y038369D01*
X009824Y038407D01*
X009870Y038442D01*
X009918Y038474D01*
X009969Y038503D01*
X010021Y038528D01*
X010075Y038549D01*
X010131Y038566D01*
X010187Y038580D01*
X010244Y038590D01*
X010302Y038596D01*
X010360Y038598D01*
X010418Y038596D01*
X010476Y038590D01*
X010533Y038580D01*
X010589Y038566D01*
X010645Y038549D01*
X010699Y038528D01*
X010751Y038503D01*
X010802Y038474D01*
X010850Y038442D01*
X010896Y038407D01*
X010940Y038369D01*
X010981Y038328D01*
X011019Y038284D01*
X011054Y038238D01*
X011086Y038190D01*
X011115Y038139D01*
X011140Y038087D01*
X011161Y038033D01*
X011178Y037977D01*
X011192Y037921D01*
X011202Y037864D01*
X011208Y037806D01*
X011210Y037748D01*
X011208Y037690D01*
X011202Y037632D01*
X011192Y037575D01*
X011178Y037519D01*
X011161Y037463D01*
X011140Y037409D01*
X011115Y037357D01*
X011086Y037306D01*
X011054Y037258D01*
X011019Y037212D01*
X010981Y037168D01*
X010940Y037127D01*
X010896Y037089D01*
X010850Y037054D01*
X010802Y037022D01*
X010751Y036993D01*
X010699Y036968D01*
X010645Y036947D01*
X010589Y036930D01*
X010533Y036916D01*
X010476Y036906D01*
X010418Y036900D01*
X010360Y036898D01*
X010302Y036900D01*
X010244Y036906D01*
X010187Y036916D01*
X010131Y036930D01*
X010075Y036947D01*
X010021Y036968D01*
X009969Y036993D01*
X009918Y037022D01*
X009870Y037054D01*
X009824Y037089D01*
X009780Y037127D01*
X009739Y037168D01*
X009701Y037212D01*
X009666Y037258D01*
X009634Y037306D01*
X009605Y037357D01*
X009580Y037409D01*
X009559Y037463D01*
X009542Y037519D01*
X009528Y037575D01*
X009518Y037632D01*
X009512Y037690D01*
X009510Y037748D01*
X009510Y043998D02*
X009512Y044056D01*
X009518Y044114D01*
X009528Y044171D01*
X009542Y044227D01*
X009559Y044283D01*
X009580Y044337D01*
X009605Y044389D01*
X009634Y044440D01*
X009666Y044488D01*
X009701Y044534D01*
X009739Y044578D01*
X009780Y044619D01*
X009824Y044657D01*
X009870Y044692D01*
X009918Y044724D01*
X009969Y044753D01*
X010021Y044778D01*
X010075Y044799D01*
X010131Y044816D01*
X010187Y044830D01*
X010244Y044840D01*
X010302Y044846D01*
X010360Y044848D01*
X010418Y044846D01*
X010476Y044840D01*
X010533Y044830D01*
X010589Y044816D01*
X010645Y044799D01*
X010699Y044778D01*
X010751Y044753D01*
X010802Y044724D01*
X010850Y044692D01*
X010896Y044657D01*
X010940Y044619D01*
X010981Y044578D01*
X011019Y044534D01*
X011054Y044488D01*
X011086Y044440D01*
X011115Y044389D01*
X011140Y044337D01*
X011161Y044283D01*
X011178Y044227D01*
X011192Y044171D01*
X011202Y044114D01*
X011208Y044056D01*
X011210Y043998D01*
X011208Y043940D01*
X011202Y043882D01*
X011192Y043825D01*
X011178Y043769D01*
X011161Y043713D01*
X011140Y043659D01*
X011115Y043607D01*
X011086Y043556D01*
X011054Y043508D01*
X011019Y043462D01*
X010981Y043418D01*
X010940Y043377D01*
X010896Y043339D01*
X010850Y043304D01*
X010802Y043272D01*
X010751Y043243D01*
X010699Y043218D01*
X010645Y043197D01*
X010589Y043180D01*
X010533Y043166D01*
X010476Y043156D01*
X010418Y043150D01*
X010360Y043148D01*
X010302Y043150D01*
X010244Y043156D01*
X010187Y043166D01*
X010131Y043180D01*
X010075Y043197D01*
X010021Y043218D01*
X009969Y043243D01*
X009918Y043272D01*
X009870Y043304D01*
X009824Y043339D01*
X009780Y043377D01*
X009739Y043418D01*
X009701Y043462D01*
X009666Y043508D01*
X009634Y043556D01*
X009605Y043607D01*
X009580Y043659D01*
X009559Y043713D01*
X009542Y043769D01*
X009528Y043825D01*
X009518Y043882D01*
X009512Y043940D01*
X009510Y043998D01*
X009510Y050248D02*
X009512Y050306D01*
X009518Y050364D01*
X009528Y050421D01*
X009542Y050477D01*
X009559Y050533D01*
X009580Y050587D01*
X009605Y050639D01*
X009634Y050690D01*
X009666Y050738D01*
X009701Y050784D01*
X009739Y050828D01*
X009780Y050869D01*
X009824Y050907D01*
X009870Y050942D01*
X009918Y050974D01*
X009969Y051003D01*
X010021Y051028D01*
X010075Y051049D01*
X010131Y051066D01*
X010187Y051080D01*
X010244Y051090D01*
X010302Y051096D01*
X010360Y051098D01*
X010418Y051096D01*
X010476Y051090D01*
X010533Y051080D01*
X010589Y051066D01*
X010645Y051049D01*
X010699Y051028D01*
X010751Y051003D01*
X010802Y050974D01*
X010850Y050942D01*
X010896Y050907D01*
X010940Y050869D01*
X010981Y050828D01*
X011019Y050784D01*
X011054Y050738D01*
X011086Y050690D01*
X011115Y050639D01*
X011140Y050587D01*
X011161Y050533D01*
X011178Y050477D01*
X011192Y050421D01*
X011202Y050364D01*
X011208Y050306D01*
X011210Y050248D01*
X011208Y050190D01*
X011202Y050132D01*
X011192Y050075D01*
X011178Y050019D01*
X011161Y049963D01*
X011140Y049909D01*
X011115Y049857D01*
X011086Y049806D01*
X011054Y049758D01*
X011019Y049712D01*
X010981Y049668D01*
X010940Y049627D01*
X010896Y049589D01*
X010850Y049554D01*
X010802Y049522D01*
X010751Y049493D01*
X010699Y049468D01*
X010645Y049447D01*
X010589Y049430D01*
X010533Y049416D01*
X010476Y049406D01*
X010418Y049400D01*
X010360Y049398D01*
X010302Y049400D01*
X010244Y049406D01*
X010187Y049416D01*
X010131Y049430D01*
X010075Y049447D01*
X010021Y049468D01*
X009969Y049493D01*
X009918Y049522D01*
X009870Y049554D01*
X009824Y049589D01*
X009780Y049627D01*
X009739Y049668D01*
X009701Y049712D01*
X009666Y049758D01*
X009634Y049806D01*
X009605Y049857D01*
X009580Y049909D01*
X009559Y049963D01*
X009542Y050019D01*
X009528Y050075D01*
X009518Y050132D01*
X009512Y050190D01*
X009510Y050248D01*
X009510Y056498D02*
X009512Y056556D01*
X009518Y056614D01*
X009528Y056671D01*
X009542Y056727D01*
X009559Y056783D01*
X009580Y056837D01*
X009605Y056889D01*
X009634Y056940D01*
X009666Y056988D01*
X009701Y057034D01*
X009739Y057078D01*
X009780Y057119D01*
X009824Y057157D01*
X009870Y057192D01*
X009918Y057224D01*
X009969Y057253D01*
X010021Y057278D01*
X010075Y057299D01*
X010131Y057316D01*
X010187Y057330D01*
X010244Y057340D01*
X010302Y057346D01*
X010360Y057348D01*
X010418Y057346D01*
X010476Y057340D01*
X010533Y057330D01*
X010589Y057316D01*
X010645Y057299D01*
X010699Y057278D01*
X010751Y057253D01*
X010802Y057224D01*
X010850Y057192D01*
X010896Y057157D01*
X010940Y057119D01*
X010981Y057078D01*
X011019Y057034D01*
X011054Y056988D01*
X011086Y056940D01*
X011115Y056889D01*
X011140Y056837D01*
X011161Y056783D01*
X011178Y056727D01*
X011192Y056671D01*
X011202Y056614D01*
X011208Y056556D01*
X011210Y056498D01*
X011208Y056440D01*
X011202Y056382D01*
X011192Y056325D01*
X011178Y056269D01*
X011161Y056213D01*
X011140Y056159D01*
X011115Y056107D01*
X011086Y056056D01*
X011054Y056008D01*
X011019Y055962D01*
X010981Y055918D01*
X010940Y055877D01*
X010896Y055839D01*
X010850Y055804D01*
X010802Y055772D01*
X010751Y055743D01*
X010699Y055718D01*
X010645Y055697D01*
X010589Y055680D01*
X010533Y055666D01*
X010476Y055656D01*
X010418Y055650D01*
X010360Y055648D01*
X010302Y055650D01*
X010244Y055656D01*
X010187Y055666D01*
X010131Y055680D01*
X010075Y055697D01*
X010021Y055718D01*
X009969Y055743D01*
X009918Y055772D01*
X009870Y055804D01*
X009824Y055839D01*
X009780Y055877D01*
X009739Y055918D01*
X009701Y055962D01*
X009666Y056008D01*
X009634Y056056D01*
X009605Y056107D01*
X009580Y056159D01*
X009559Y056213D01*
X009542Y056269D01*
X009528Y056325D01*
X009518Y056382D01*
X009512Y056440D01*
X009510Y056498D01*
X009510Y062748D02*
X009512Y062806D01*
X009518Y062864D01*
X009528Y062921D01*
X009542Y062977D01*
X009559Y063033D01*
X009580Y063087D01*
X009605Y063139D01*
X009634Y063190D01*
X009666Y063238D01*
X009701Y063284D01*
X009739Y063328D01*
X009780Y063369D01*
X009824Y063407D01*
X009870Y063442D01*
X009918Y063474D01*
X009969Y063503D01*
X010021Y063528D01*
X010075Y063549D01*
X010131Y063566D01*
X010187Y063580D01*
X010244Y063590D01*
X010302Y063596D01*
X010360Y063598D01*
X010418Y063596D01*
X010476Y063590D01*
X010533Y063580D01*
X010589Y063566D01*
X010645Y063549D01*
X010699Y063528D01*
X010751Y063503D01*
X010802Y063474D01*
X010850Y063442D01*
X010896Y063407D01*
X010940Y063369D01*
X010981Y063328D01*
X011019Y063284D01*
X011054Y063238D01*
X011086Y063190D01*
X011115Y063139D01*
X011140Y063087D01*
X011161Y063033D01*
X011178Y062977D01*
X011192Y062921D01*
X011202Y062864D01*
X011208Y062806D01*
X011210Y062748D01*
X011208Y062690D01*
X011202Y062632D01*
X011192Y062575D01*
X011178Y062519D01*
X011161Y062463D01*
X011140Y062409D01*
X011115Y062357D01*
X011086Y062306D01*
X011054Y062258D01*
X011019Y062212D01*
X010981Y062168D01*
X010940Y062127D01*
X010896Y062089D01*
X010850Y062054D01*
X010802Y062022D01*
X010751Y061993D01*
X010699Y061968D01*
X010645Y061947D01*
X010589Y061930D01*
X010533Y061916D01*
X010476Y061906D01*
X010418Y061900D01*
X010360Y061898D01*
X010302Y061900D01*
X010244Y061906D01*
X010187Y061916D01*
X010131Y061930D01*
X010075Y061947D01*
X010021Y061968D01*
X009969Y061993D01*
X009918Y062022D01*
X009870Y062054D01*
X009824Y062089D01*
X009780Y062127D01*
X009739Y062168D01*
X009701Y062212D01*
X009666Y062258D01*
X009634Y062306D01*
X009605Y062357D01*
X009580Y062409D01*
X009559Y062463D01*
X009542Y062519D01*
X009528Y062575D01*
X009518Y062632D01*
X009512Y062690D01*
X009510Y062748D01*
X009510Y068998D02*
X009512Y069056D01*
X009518Y069114D01*
X009528Y069171D01*
X009542Y069227D01*
X009559Y069283D01*
X009580Y069337D01*
X009605Y069389D01*
X009634Y069440D01*
X009666Y069488D01*
X009701Y069534D01*
X009739Y069578D01*
X009780Y069619D01*
X009824Y069657D01*
X009870Y069692D01*
X009918Y069724D01*
X009969Y069753D01*
X010021Y069778D01*
X010075Y069799D01*
X010131Y069816D01*
X010187Y069830D01*
X010244Y069840D01*
X010302Y069846D01*
X010360Y069848D01*
X010418Y069846D01*
X010476Y069840D01*
X010533Y069830D01*
X010589Y069816D01*
X010645Y069799D01*
X010699Y069778D01*
X010751Y069753D01*
X010802Y069724D01*
X010850Y069692D01*
X010896Y069657D01*
X010940Y069619D01*
X010981Y069578D01*
X011019Y069534D01*
X011054Y069488D01*
X011086Y069440D01*
X011115Y069389D01*
X011140Y069337D01*
X011161Y069283D01*
X011178Y069227D01*
X011192Y069171D01*
X011202Y069114D01*
X011208Y069056D01*
X011210Y068998D01*
X011208Y068940D01*
X011202Y068882D01*
X011192Y068825D01*
X011178Y068769D01*
X011161Y068713D01*
X011140Y068659D01*
X011115Y068607D01*
X011086Y068556D01*
X011054Y068508D01*
X011019Y068462D01*
X010981Y068418D01*
X010940Y068377D01*
X010896Y068339D01*
X010850Y068304D01*
X010802Y068272D01*
X010751Y068243D01*
X010699Y068218D01*
X010645Y068197D01*
X010589Y068180D01*
X010533Y068166D01*
X010476Y068156D01*
X010418Y068150D01*
X010360Y068148D01*
X010302Y068150D01*
X010244Y068156D01*
X010187Y068166D01*
X010131Y068180D01*
X010075Y068197D01*
X010021Y068218D01*
X009969Y068243D01*
X009918Y068272D01*
X009870Y068304D01*
X009824Y068339D01*
X009780Y068377D01*
X009739Y068418D01*
X009701Y068462D01*
X009666Y068508D01*
X009634Y068556D01*
X009605Y068607D01*
X009580Y068659D01*
X009559Y068713D01*
X009542Y068769D01*
X009528Y068825D01*
X009518Y068882D01*
X009512Y068940D01*
X009510Y068998D01*
X014310Y080160D02*
X014312Y080218D01*
X014318Y080276D01*
X014328Y080333D01*
X014342Y080389D01*
X014359Y080445D01*
X014380Y080499D01*
X014405Y080551D01*
X014434Y080602D01*
X014466Y080650D01*
X014501Y080696D01*
X014539Y080740D01*
X014580Y080781D01*
X014624Y080819D01*
X014670Y080854D01*
X014718Y080886D01*
X014769Y080915D01*
X014821Y080940D01*
X014875Y080961D01*
X014931Y080978D01*
X014987Y080992D01*
X015044Y081002D01*
X015102Y081008D01*
X015160Y081010D01*
X015218Y081008D01*
X015276Y081002D01*
X015333Y080992D01*
X015389Y080978D01*
X015445Y080961D01*
X015499Y080940D01*
X015551Y080915D01*
X015602Y080886D01*
X015650Y080854D01*
X015696Y080819D01*
X015740Y080781D01*
X015781Y080740D01*
X015819Y080696D01*
X015854Y080650D01*
X015886Y080602D01*
X015915Y080551D01*
X015940Y080499D01*
X015961Y080445D01*
X015978Y080389D01*
X015992Y080333D01*
X016002Y080276D01*
X016008Y080218D01*
X016010Y080160D01*
X016008Y080102D01*
X016002Y080044D01*
X015992Y079987D01*
X015978Y079931D01*
X015961Y079875D01*
X015940Y079821D01*
X015915Y079769D01*
X015886Y079718D01*
X015854Y079670D01*
X015819Y079624D01*
X015781Y079580D01*
X015740Y079539D01*
X015696Y079501D01*
X015650Y079466D01*
X015602Y079434D01*
X015551Y079405D01*
X015499Y079380D01*
X015445Y079359D01*
X015389Y079342D01*
X015333Y079328D01*
X015276Y079318D01*
X015218Y079312D01*
X015160Y079310D01*
X015102Y079312D01*
X015044Y079318D01*
X014987Y079328D01*
X014931Y079342D01*
X014875Y079359D01*
X014821Y079380D01*
X014769Y079405D01*
X014718Y079434D01*
X014670Y079466D01*
X014624Y079501D01*
X014580Y079539D01*
X014539Y079580D01*
X014501Y079624D01*
X014466Y079670D01*
X014434Y079718D01*
X014405Y079769D01*
X014380Y079821D01*
X014359Y079875D01*
X014342Y079931D01*
X014328Y079987D01*
X014318Y080044D01*
X014312Y080102D01*
X014310Y080160D01*
X051530Y082160D02*
X051532Y082210D01*
X051538Y082260D01*
X051548Y082309D01*
X051562Y082357D01*
X051579Y082404D01*
X051600Y082449D01*
X051625Y082493D01*
X051653Y082534D01*
X051685Y082573D01*
X051719Y082610D01*
X051756Y082644D01*
X051796Y082674D01*
X051838Y082701D01*
X051882Y082725D01*
X051928Y082746D01*
X051975Y082762D01*
X052023Y082775D01*
X052073Y082784D01*
X052122Y082789D01*
X052173Y082790D01*
X052223Y082787D01*
X052272Y082780D01*
X052321Y082769D01*
X052369Y082754D01*
X052415Y082736D01*
X052460Y082714D01*
X052503Y082688D01*
X052544Y082659D01*
X052583Y082627D01*
X052619Y082592D01*
X052651Y082554D01*
X052681Y082514D01*
X052708Y082471D01*
X052731Y082427D01*
X052750Y082381D01*
X052766Y082333D01*
X052778Y082284D01*
X052786Y082235D01*
X052790Y082185D01*
X052790Y082135D01*
X052786Y082085D01*
X052778Y082036D01*
X052766Y081987D01*
X052750Y081939D01*
X052731Y081893D01*
X052708Y081849D01*
X052681Y081806D01*
X052651Y081766D01*
X052619Y081728D01*
X052583Y081693D01*
X052544Y081661D01*
X052503Y081632D01*
X052460Y081606D01*
X052415Y081584D01*
X052369Y081566D01*
X052321Y081551D01*
X052272Y081540D01*
X052223Y081533D01*
X052173Y081530D01*
X052122Y081531D01*
X052073Y081536D01*
X052023Y081545D01*
X051975Y081558D01*
X051928Y081574D01*
X051882Y081595D01*
X051838Y081619D01*
X051796Y081646D01*
X051756Y081676D01*
X051719Y081710D01*
X051685Y081747D01*
X051653Y081786D01*
X051625Y081827D01*
X051600Y081871D01*
X051579Y081916D01*
X051562Y081963D01*
X051548Y082011D01*
X051538Y082060D01*
X051532Y082110D01*
X051530Y082160D01*
X056530Y070160D02*
X056532Y070210D01*
X056538Y070260D01*
X056548Y070309D01*
X056562Y070357D01*
X056579Y070404D01*
X056600Y070449D01*
X056625Y070493D01*
X056653Y070534D01*
X056685Y070573D01*
X056719Y070610D01*
X056756Y070644D01*
X056796Y070674D01*
X056838Y070701D01*
X056882Y070725D01*
X056928Y070746D01*
X056975Y070762D01*
X057023Y070775D01*
X057073Y070784D01*
X057122Y070789D01*
X057173Y070790D01*
X057223Y070787D01*
X057272Y070780D01*
X057321Y070769D01*
X057369Y070754D01*
X057415Y070736D01*
X057460Y070714D01*
X057503Y070688D01*
X057544Y070659D01*
X057583Y070627D01*
X057619Y070592D01*
X057651Y070554D01*
X057681Y070514D01*
X057708Y070471D01*
X057731Y070427D01*
X057750Y070381D01*
X057766Y070333D01*
X057778Y070284D01*
X057786Y070235D01*
X057790Y070185D01*
X057790Y070135D01*
X057786Y070085D01*
X057778Y070036D01*
X057766Y069987D01*
X057750Y069939D01*
X057731Y069893D01*
X057708Y069849D01*
X057681Y069806D01*
X057651Y069766D01*
X057619Y069728D01*
X057583Y069693D01*
X057544Y069661D01*
X057503Y069632D01*
X057460Y069606D01*
X057415Y069584D01*
X057369Y069566D01*
X057321Y069551D01*
X057272Y069540D01*
X057223Y069533D01*
X057173Y069530D01*
X057122Y069531D01*
X057073Y069536D01*
X057023Y069545D01*
X056975Y069558D01*
X056928Y069574D01*
X056882Y069595D01*
X056838Y069619D01*
X056796Y069646D01*
X056756Y069676D01*
X056719Y069710D01*
X056685Y069747D01*
X056653Y069786D01*
X056625Y069827D01*
X056600Y069871D01*
X056579Y069916D01*
X056562Y069963D01*
X056548Y070011D01*
X056538Y070060D01*
X056532Y070110D01*
X056530Y070160D01*
X066030Y044910D02*
X066032Y044960D01*
X066038Y045010D01*
X066048Y045059D01*
X066062Y045107D01*
X066079Y045154D01*
X066100Y045199D01*
X066125Y045243D01*
X066153Y045284D01*
X066185Y045323D01*
X066219Y045360D01*
X066256Y045394D01*
X066296Y045424D01*
X066338Y045451D01*
X066382Y045475D01*
X066428Y045496D01*
X066475Y045512D01*
X066523Y045525D01*
X066573Y045534D01*
X066622Y045539D01*
X066673Y045540D01*
X066723Y045537D01*
X066772Y045530D01*
X066821Y045519D01*
X066869Y045504D01*
X066915Y045486D01*
X066960Y045464D01*
X067003Y045438D01*
X067044Y045409D01*
X067083Y045377D01*
X067119Y045342D01*
X067151Y045304D01*
X067181Y045264D01*
X067208Y045221D01*
X067231Y045177D01*
X067250Y045131D01*
X067266Y045083D01*
X067278Y045034D01*
X067286Y044985D01*
X067290Y044935D01*
X067290Y044885D01*
X067286Y044835D01*
X067278Y044786D01*
X067266Y044737D01*
X067250Y044689D01*
X067231Y044643D01*
X067208Y044599D01*
X067181Y044556D01*
X067151Y044516D01*
X067119Y044478D01*
X067083Y044443D01*
X067044Y044411D01*
X067003Y044382D01*
X066960Y044356D01*
X066915Y044334D01*
X066869Y044316D01*
X066821Y044301D01*
X066772Y044290D01*
X066723Y044283D01*
X066673Y044280D01*
X066622Y044281D01*
X066573Y044286D01*
X066523Y044295D01*
X066475Y044308D01*
X066428Y044324D01*
X066382Y044345D01*
X066338Y044369D01*
X066296Y044396D01*
X066256Y044426D01*
X066219Y044460D01*
X066185Y044497D01*
X066153Y044536D01*
X066125Y044577D01*
X066100Y044621D01*
X066079Y044666D01*
X066062Y044713D01*
X066048Y044761D01*
X066038Y044810D01*
X066032Y044860D01*
X066030Y044910D01*
X066030Y040410D02*
X066032Y040460D01*
X066038Y040510D01*
X066048Y040559D01*
X066062Y040607D01*
X066079Y040654D01*
X066100Y040699D01*
X066125Y040743D01*
X066153Y040784D01*
X066185Y040823D01*
X066219Y040860D01*
X066256Y040894D01*
X066296Y040924D01*
X066338Y040951D01*
X066382Y040975D01*
X066428Y040996D01*
X066475Y041012D01*
X066523Y041025D01*
X066573Y041034D01*
X066622Y041039D01*
X066673Y041040D01*
X066723Y041037D01*
X066772Y041030D01*
X066821Y041019D01*
X066869Y041004D01*
X066915Y040986D01*
X066960Y040964D01*
X067003Y040938D01*
X067044Y040909D01*
X067083Y040877D01*
X067119Y040842D01*
X067151Y040804D01*
X067181Y040764D01*
X067208Y040721D01*
X067231Y040677D01*
X067250Y040631D01*
X067266Y040583D01*
X067278Y040534D01*
X067286Y040485D01*
X067290Y040435D01*
X067290Y040385D01*
X067286Y040335D01*
X067278Y040286D01*
X067266Y040237D01*
X067250Y040189D01*
X067231Y040143D01*
X067208Y040099D01*
X067181Y040056D01*
X067151Y040016D01*
X067119Y039978D01*
X067083Y039943D01*
X067044Y039911D01*
X067003Y039882D01*
X066960Y039856D01*
X066915Y039834D01*
X066869Y039816D01*
X066821Y039801D01*
X066772Y039790D01*
X066723Y039783D01*
X066673Y039780D01*
X066622Y039781D01*
X066573Y039786D01*
X066523Y039795D01*
X066475Y039808D01*
X066428Y039824D01*
X066382Y039845D01*
X066338Y039869D01*
X066296Y039896D01*
X066256Y039926D01*
X066219Y039960D01*
X066185Y039997D01*
X066153Y040036D01*
X066125Y040077D01*
X066100Y040121D01*
X066079Y040166D01*
X066062Y040213D01*
X066048Y040261D01*
X066038Y040310D01*
X066032Y040360D01*
X066030Y040410D01*
X065110Y006510D02*
X065112Y006568D01*
X065118Y006626D01*
X065128Y006683D01*
X065142Y006739D01*
X065159Y006795D01*
X065180Y006849D01*
X065205Y006901D01*
X065234Y006952D01*
X065266Y007000D01*
X065301Y007046D01*
X065339Y007090D01*
X065380Y007131D01*
X065424Y007169D01*
X065470Y007204D01*
X065518Y007236D01*
X065569Y007265D01*
X065621Y007290D01*
X065675Y007311D01*
X065731Y007328D01*
X065787Y007342D01*
X065844Y007352D01*
X065902Y007358D01*
X065960Y007360D01*
X066018Y007358D01*
X066076Y007352D01*
X066133Y007342D01*
X066189Y007328D01*
X066245Y007311D01*
X066299Y007290D01*
X066351Y007265D01*
X066402Y007236D01*
X066450Y007204D01*
X066496Y007169D01*
X066540Y007131D01*
X066581Y007090D01*
X066619Y007046D01*
X066654Y007000D01*
X066686Y006952D01*
X066715Y006901D01*
X066740Y006849D01*
X066761Y006795D01*
X066778Y006739D01*
X066792Y006683D01*
X066802Y006626D01*
X066808Y006568D01*
X066810Y006510D01*
X066808Y006452D01*
X066802Y006394D01*
X066792Y006337D01*
X066778Y006281D01*
X066761Y006225D01*
X066740Y006171D01*
X066715Y006119D01*
X066686Y006068D01*
X066654Y006020D01*
X066619Y005974D01*
X066581Y005930D01*
X066540Y005889D01*
X066496Y005851D01*
X066450Y005816D01*
X066402Y005784D01*
X066351Y005755D01*
X066299Y005730D01*
X066245Y005709D01*
X066189Y005692D01*
X066133Y005678D01*
X066076Y005668D01*
X066018Y005662D01*
X065960Y005660D01*
X065902Y005662D01*
X065844Y005668D01*
X065787Y005678D01*
X065731Y005692D01*
X065675Y005709D01*
X065621Y005730D01*
X065569Y005755D01*
X065518Y005784D01*
X065470Y005816D01*
X065424Y005851D01*
X065380Y005889D01*
X065339Y005930D01*
X065301Y005974D01*
X065266Y006020D01*
X065234Y006068D01*
X065205Y006119D01*
X065180Y006171D01*
X065159Y006225D01*
X065142Y006281D01*
X065128Y006337D01*
X065118Y006394D01*
X065112Y006452D01*
X065110Y006510D01*
D11*
X056585Y077560D02*
X056587Y077582D01*
X056593Y077603D01*
X056602Y077622D01*
X056614Y077640D01*
X056630Y077656D01*
X056647Y077668D01*
X056667Y077677D01*
X056688Y077683D01*
X056710Y077685D01*
X056732Y077683D01*
X056753Y077677D01*
X056772Y077668D01*
X056790Y077656D01*
X056806Y077640D01*
X056818Y077622D01*
X056827Y077603D01*
X056833Y077582D01*
X056835Y077560D01*
X056833Y077538D01*
X056827Y077517D01*
X056818Y077498D01*
X056806Y077480D01*
X056790Y077464D01*
X056773Y077452D01*
X056753Y077443D01*
X056732Y077437D01*
X056710Y077435D01*
X056688Y077437D01*
X056667Y077443D01*
X056647Y077452D01*
X056630Y077464D01*
X056614Y077480D01*
X056602Y077497D01*
X056593Y077517D01*
X056587Y077538D01*
X056585Y077560D01*
M02*
