G75*
%MOIN*%
%OFA0B0*%
%FSLAX24Y24*%
%IPPOS*%
%LPD*%
%AMOC8*
5,1,8,0,0,1.08239X$1,22.5*
%
%ADD10C,0.1340*%
%ADD11C,0.0848*%
%ADD12C,0.1261*%
%ADD13R,0.0556X0.0556*%
%ADD14C,0.0556*%
%ADD15R,0.0790X0.0710*%
%ADD16C,0.7280*%
%ADD17R,0.0552X0.0631*%
%ADD18R,0.0710X0.0789*%
%ADD19R,0.0356X0.0356*%
%ADD20R,0.0710X0.0790*%
%ADD21C,0.0907*%
%ADD22R,0.0789X0.0710*%
%ADD23R,0.0316X0.0946*%
%ADD24R,0.0836X0.0946*%
%ADD25C,0.1080*%
%ADD26OC8,0.1080*%
%ADD27C,0.0905*%
%ADD28R,0.1580X0.0900*%
%ADD29R,0.3080X0.4080*%
%ADD30C,0.0640*%
%ADD31R,0.0273X0.0592*%
%ADD32C,0.2080*%
%ADD33C,0.1780*%
%ADD34OC8,0.0680*%
%ADD35C,0.0674*%
%ADD36R,0.0674X0.0674*%
%ADD37C,0.1340*%
%ADD38C,0.0980*%
%ADD39C,0.1280*%
%ADD40R,0.0257X0.0651*%
%ADD41R,0.1261X0.0710*%
%ADD42R,0.2330X0.1980*%
%ADD43R,0.0434X0.0395*%
%ADD44C,0.0390*%
%ADD45C,0.0437*%
D10*
X057160Y070160D03*
X052160Y082160D03*
D11*
X049360Y017360D03*
X046360Y017360D03*
X043360Y017360D03*
X058510Y017360D03*
X061510Y017360D03*
X064510Y017360D03*
D12*
X064510Y037360D03*
X058510Y037360D03*
X049360Y037360D03*
X043360Y037360D03*
D13*
X032076Y035760D03*
X032076Y030360D03*
X032076Y024960D03*
X032076Y019560D03*
D14*
X034044Y019560D03*
X034044Y024960D03*
X034044Y030360D03*
X034044Y035760D03*
D15*
X041760Y058000D03*
X041760Y059120D03*
X042760Y059120D03*
X042760Y058000D03*
D16*
X049260Y009760D03*
X032760Y009760D03*
D17*
X022651Y009360D03*
X021469Y009360D03*
X021469Y015560D03*
X022651Y015560D03*
X022651Y021760D03*
X021469Y021760D03*
X021469Y027960D03*
X022651Y027960D03*
X022651Y034160D03*
X021469Y034160D03*
X021469Y040360D03*
X022651Y040360D03*
X022651Y046560D03*
X021469Y046560D03*
X021469Y052760D03*
X022651Y052760D03*
X015451Y061260D03*
X014269Y061260D03*
X014269Y067460D03*
X015451Y067460D03*
X067319Y011510D03*
X068501Y011510D03*
D18*
X066311Y011510D03*
X065209Y011510D03*
X042011Y011510D03*
X042011Y010110D03*
X040909Y010110D03*
X040909Y011510D03*
X040909Y008710D03*
X042011Y008710D03*
X020511Y009360D03*
X019409Y009360D03*
X019409Y015560D03*
X020511Y015560D03*
X020511Y021760D03*
X019409Y021760D03*
X019409Y027960D03*
X020511Y027960D03*
X020511Y034160D03*
X019409Y034160D03*
X019409Y040360D03*
X020511Y040360D03*
X020511Y046560D03*
X019409Y046560D03*
X019409Y052760D03*
X020511Y052760D03*
X017641Y061260D03*
X016539Y061260D03*
X016479Y067470D03*
X017581Y067470D03*
X043309Y053560D03*
X043309Y052560D03*
X043309Y051560D03*
X044411Y051560D03*
X044411Y052560D03*
X044411Y053560D03*
X044411Y048960D03*
X044411Y047960D03*
X044411Y046960D03*
X043309Y046960D03*
X043309Y047960D03*
X043309Y048960D03*
X045809Y039560D03*
X046911Y039560D03*
X060951Y039555D03*
X062054Y039555D03*
X061311Y061360D03*
X061311Y062260D03*
X061311Y063160D03*
X060209Y063160D03*
X060209Y062260D03*
X060209Y061360D03*
X056511Y074960D03*
X055409Y074960D03*
X054511Y074960D03*
X053409Y074960D03*
D19*
X063556Y063136D03*
X063556Y062624D03*
X064284Y062880D03*
D20*
X063420Y064060D03*
X062300Y064060D03*
X061305Y064070D03*
X060185Y064070D03*
D21*
X065710Y014515D03*
X065710Y013105D03*
D22*
X051760Y042409D03*
X051760Y043511D03*
X042160Y043511D03*
X042160Y042409D03*
X026782Y040422D03*
X025868Y040422D03*
X025868Y039320D03*
X026782Y039320D03*
X026782Y034222D03*
X025868Y034222D03*
X025868Y033120D03*
X026782Y033120D03*
X026782Y028022D03*
X025868Y028022D03*
X025868Y026920D03*
X026782Y026920D03*
X026782Y021822D03*
X025868Y021822D03*
X025868Y020720D03*
X026782Y020720D03*
X026782Y015622D03*
X025868Y015622D03*
X025868Y014520D03*
X026782Y014520D03*
X026782Y009422D03*
X025868Y009422D03*
X025868Y008320D03*
X026782Y008320D03*
X013960Y012109D03*
X013960Y013211D03*
X013960Y018309D03*
X013960Y019411D03*
X013960Y024509D03*
X013960Y025611D03*
X013960Y030709D03*
X013960Y031811D03*
X013960Y036909D03*
X013960Y038011D03*
X013960Y043109D03*
X013960Y044211D03*
X013960Y049309D03*
X013960Y050411D03*
X013960Y055509D03*
X013960Y056611D03*
X025860Y057909D03*
X026755Y057909D03*
X026755Y059011D03*
X025860Y059011D03*
X025860Y064109D03*
X026760Y064109D03*
X026760Y065211D03*
X025860Y065211D03*
X034260Y069609D03*
X035260Y069609D03*
X036260Y069609D03*
X037260Y069609D03*
X037260Y070711D03*
X036260Y070711D03*
X035260Y070711D03*
X034260Y070711D03*
X038260Y070711D03*
X039260Y070711D03*
X040260Y070711D03*
X040260Y069609D03*
X039260Y069609D03*
X038260Y069609D03*
X041260Y069609D03*
X042260Y069609D03*
X043260Y069609D03*
X043260Y070711D03*
X042260Y070711D03*
X041260Y070711D03*
X026782Y052822D03*
X025868Y052822D03*
X025868Y051720D03*
X026782Y051720D03*
X026782Y046622D03*
X025868Y046622D03*
X025868Y045520D03*
X026782Y045520D03*
D23*
X026776Y047547D03*
X026276Y047547D03*
X025776Y047547D03*
X025276Y047547D03*
X025276Y041347D03*
X025776Y041347D03*
X026276Y041347D03*
X026776Y041347D03*
X026776Y035147D03*
X026276Y035147D03*
X025776Y035147D03*
X025276Y035147D03*
X025276Y028947D03*
X025776Y028947D03*
X026276Y028947D03*
X026776Y028947D03*
X026776Y022747D03*
X026276Y022747D03*
X025776Y022747D03*
X025276Y022747D03*
X025276Y016547D03*
X025776Y016547D03*
X026276Y016547D03*
X026776Y016547D03*
X026776Y010347D03*
X026276Y010347D03*
X025776Y010347D03*
X025276Y010347D03*
X016230Y011616D03*
X015730Y011616D03*
X015230Y011616D03*
X014730Y011616D03*
X014730Y013664D03*
X015230Y013664D03*
X015730Y013664D03*
X016230Y013664D03*
X016230Y017816D03*
X015730Y017816D03*
X015230Y017816D03*
X014730Y017816D03*
X014730Y019864D03*
X015230Y019864D03*
X015730Y019864D03*
X016230Y019864D03*
X016230Y024016D03*
X015730Y024016D03*
X015230Y024016D03*
X014730Y024016D03*
X014730Y026064D03*
X015230Y026064D03*
X015730Y026064D03*
X016230Y026064D03*
X016230Y030216D03*
X015730Y030216D03*
X015230Y030216D03*
X014730Y030216D03*
X014730Y032264D03*
X015230Y032264D03*
X015730Y032264D03*
X016230Y032264D03*
X016230Y036416D03*
X015730Y036416D03*
X015230Y036416D03*
X014730Y036416D03*
X014730Y038464D03*
X015230Y038464D03*
X015730Y038464D03*
X016230Y038464D03*
X016230Y042616D03*
X015730Y042616D03*
X015230Y042616D03*
X014730Y042616D03*
X014730Y044664D03*
X015230Y044664D03*
X015730Y044664D03*
X016230Y044664D03*
X016230Y048816D03*
X015730Y048816D03*
X015230Y048816D03*
X014730Y048816D03*
X014730Y050864D03*
X015230Y050864D03*
X015730Y050864D03*
X016230Y050864D03*
X016230Y055016D03*
X015730Y055016D03*
X015230Y055016D03*
X014730Y055016D03*
X014730Y057064D03*
X015230Y057064D03*
X015730Y057064D03*
X016230Y057064D03*
X025270Y059956D03*
X025770Y059956D03*
X026270Y059956D03*
X026770Y059956D03*
X026770Y066136D03*
X026270Y066136D03*
X025770Y066136D03*
X025270Y066136D03*
X025276Y053747D03*
X025776Y053747D03*
X026276Y053747D03*
X026776Y053747D03*
D24*
X026526Y055795D03*
X025526Y055795D03*
X025526Y049595D03*
X026526Y049595D03*
X026526Y043395D03*
X025526Y043395D03*
X025526Y037195D03*
X026526Y037195D03*
X026526Y030995D03*
X025526Y030995D03*
X025526Y024795D03*
X026526Y024795D03*
X026526Y018595D03*
X025526Y018595D03*
X025526Y012395D03*
X026526Y012395D03*
X026520Y062004D03*
X025520Y062004D03*
X025520Y068184D03*
X026520Y068184D03*
D25*
X032485Y060448D03*
X036535Y060448D03*
D26*
X036535Y058448D03*
X032485Y058448D03*
D27*
X031573Y042260D02*
X030748Y042260D01*
X037748Y042260D02*
X038573Y042260D01*
X038085Y013610D02*
X037260Y013610D01*
X044260Y013610D02*
X045085Y013610D01*
D28*
X018210Y013360D03*
X018210Y011360D03*
X018210Y017560D03*
X018210Y019560D03*
X018210Y023760D03*
X018210Y025760D03*
X018210Y029960D03*
X018210Y031960D03*
X018210Y036160D03*
X018210Y038160D03*
X018210Y042460D03*
X018210Y044460D03*
X018210Y048660D03*
X018210Y050660D03*
X018210Y054960D03*
X018210Y056960D03*
D29*
X022460Y055960D03*
X022460Y049660D03*
X022460Y043460D03*
X022460Y037160D03*
X022460Y030960D03*
X022460Y024760D03*
X022460Y018560D03*
X022460Y012360D03*
D30*
X041960Y046960D03*
X041960Y047960D03*
X041960Y048960D03*
X041960Y051560D03*
X041960Y052560D03*
X041960Y053560D03*
D31*
X055210Y075935D03*
X055710Y075935D03*
X056210Y075935D03*
X056710Y075935D03*
X056710Y078185D03*
X056210Y078185D03*
X055710Y078185D03*
X055210Y078185D03*
D32*
X017760Y065873D03*
X014660Y065873D03*
X014660Y059623D03*
X017760Y059623D03*
X017760Y053373D03*
X014660Y053373D03*
X014660Y047123D03*
X017760Y047123D03*
X017760Y040873D03*
X014660Y040873D03*
X014660Y034623D03*
X017760Y034623D03*
X017760Y028373D03*
X014660Y028373D03*
X014660Y022123D03*
X017760Y022123D03*
X017760Y015873D03*
X014660Y015873D03*
X014660Y009623D03*
X017760Y009623D03*
D33*
X010360Y006498D03*
X010360Y012748D03*
X010360Y018998D03*
X010360Y025248D03*
X010360Y031498D03*
X010360Y037748D03*
X010360Y043998D03*
X010360Y050248D03*
X010360Y056498D03*
X010360Y062748D03*
X010360Y068998D03*
X015160Y080160D03*
X065960Y006510D03*
D34*
X066160Y065160D03*
X066160Y066160D03*
X065160Y066160D03*
X065160Y065160D03*
X064160Y065160D03*
X064160Y066160D03*
X063160Y066160D03*
X063160Y065160D03*
X062160Y065160D03*
X062160Y066160D03*
X061160Y066160D03*
X061160Y065160D03*
X060160Y065160D03*
X060160Y066160D03*
X059160Y066160D03*
X059160Y065160D03*
X067160Y065160D03*
X067160Y066160D03*
X068160Y066160D03*
X068160Y065160D03*
X068160Y082160D03*
X068160Y083160D03*
X067160Y083160D03*
X067160Y082160D03*
X066160Y082160D03*
X066160Y083160D03*
X065160Y083160D03*
X065160Y082160D03*
X064160Y082160D03*
X064160Y083160D03*
X063160Y083160D03*
X063160Y082160D03*
X062160Y082160D03*
X062160Y083160D03*
X061160Y083160D03*
X061160Y082160D03*
X060160Y082160D03*
X060160Y083160D03*
X059160Y083160D03*
X059160Y082160D03*
X043160Y082160D03*
X043160Y083160D03*
X042160Y083160D03*
X042160Y082160D03*
X041160Y082160D03*
X041160Y083160D03*
X040160Y083160D03*
X040160Y082160D03*
X039160Y082160D03*
X039160Y083160D03*
X038160Y083160D03*
X038160Y082160D03*
X037160Y082160D03*
X037160Y083160D03*
X036160Y083160D03*
X036160Y082160D03*
X035160Y082160D03*
X035160Y083160D03*
X034160Y083160D03*
X034160Y082160D03*
X034160Y066160D03*
X034160Y065160D03*
X035160Y065160D03*
X035160Y066160D03*
X036160Y066160D03*
X036160Y065160D03*
X037160Y065160D03*
X037160Y066160D03*
X038160Y066160D03*
X038160Y065160D03*
X039160Y065160D03*
X039160Y066160D03*
X040160Y066160D03*
X040160Y065160D03*
X041160Y065160D03*
X041160Y066160D03*
X042160Y066160D03*
X042160Y065160D03*
X043160Y065160D03*
X043160Y066160D03*
D35*
X063160Y044410D03*
X064160Y043910D03*
X064160Y042910D03*
X064160Y041910D03*
X063160Y041410D03*
X063160Y042410D03*
X063160Y043410D03*
D36*
X064160Y040910D03*
D37*
X066660Y040410D03*
X066660Y044910D03*
D38*
X067360Y051910D03*
X067360Y053410D03*
X067360Y054910D03*
X047360Y053410D03*
X047360Y056410D03*
X047360Y050410D03*
D39*
X067360Y050410D03*
X067360Y056410D03*
D40*
X053354Y043987D03*
X053098Y043987D03*
X052842Y043987D03*
X052586Y043987D03*
X052586Y042254D03*
X052842Y042254D03*
X053098Y042254D03*
X053354Y042254D03*
X043754Y042254D03*
X043498Y042254D03*
X043242Y042254D03*
X042986Y042254D03*
X042986Y043987D03*
X043242Y043987D03*
X043498Y043987D03*
X043754Y043987D03*
D41*
X045269Y044208D03*
X045269Y042412D03*
X054869Y042412D03*
X054869Y044208D03*
D42*
X057585Y043310D03*
X047985Y043310D03*
D43*
X062166Y061186D03*
X062166Y061934D03*
X062166Y062486D03*
X062166Y063234D03*
X062993Y062860D03*
X062993Y061560D03*
D44*
X062960Y061060D03*
X063560Y062160D03*
X062460Y062760D03*
X059460Y062260D03*
X056510Y074960D03*
X055410Y074960D03*
X054510Y074960D03*
X053410Y074960D03*
X055220Y077780D03*
X056720Y077780D03*
X043260Y071360D03*
X042260Y071360D03*
X041260Y071360D03*
X040260Y071360D03*
X039260Y071360D03*
X038260Y071360D03*
X037260Y071360D03*
X036260Y071360D03*
X035260Y071360D03*
X034260Y071360D03*
X027260Y066160D03*
X026260Y066660D03*
X027360Y064300D03*
X026260Y060560D03*
X027160Y059960D03*
X026920Y057320D03*
X026280Y054360D03*
X027260Y053860D03*
X027360Y051710D03*
X026280Y048160D03*
X027260Y047660D03*
X027360Y045510D03*
X026280Y041960D03*
X027260Y041460D03*
X027360Y039310D03*
X026280Y035760D03*
X027260Y035260D03*
X027360Y033110D03*
X026280Y029560D03*
X027260Y029060D03*
X027360Y026910D03*
X026280Y023360D03*
X027260Y022860D03*
X027360Y020710D03*
X026280Y017160D03*
X027260Y016660D03*
X027360Y014510D03*
X026260Y010960D03*
X027260Y010460D03*
X027360Y008310D03*
X023260Y009360D03*
X023260Y015560D03*
X023260Y021760D03*
X023260Y027960D03*
X023260Y034160D03*
X023260Y040360D03*
X023260Y046560D03*
X023260Y052760D03*
X016260Y055860D03*
X014745Y055870D03*
X014745Y049670D03*
X016230Y049670D03*
X016230Y043470D03*
X014745Y043470D03*
X014745Y037270D03*
X016230Y037270D03*
X016230Y031070D03*
X014745Y031070D03*
X014745Y024870D03*
X016230Y024870D03*
X016230Y018670D03*
X014745Y018670D03*
X014745Y012470D03*
X016230Y012470D03*
X042560Y011510D03*
X042560Y010810D03*
X042560Y010110D03*
X042560Y009410D03*
X042560Y008710D03*
X044660Y047460D03*
X044660Y048460D03*
X044660Y052060D03*
X044660Y053060D03*
X042260Y059760D03*
D45*
X043460Y058010D03*
M02*
