G75*
%MOIN*%
%OFA0B0*%
%FSLAX24Y24*%
%IPPOS*%
%LPD*%
%AMOC8*
5,1,8,0,0,1.08239X$1,22.5*
%
%ADD10C,0.0020*%
%ADD11C,0.0768*%
%ADD12C,0.1181*%
%ADD13R,0.0476X0.0476*%
%ADD14C,0.0476*%
%ADD15R,0.0710X0.0630*%
%ADD16C,0.7200*%
%ADD17R,0.0472X0.0551*%
%ADD18R,0.0630X0.0709*%
%ADD19R,0.0276X0.0276*%
%ADD20R,0.0630X0.0710*%
%ADD21C,0.0827*%
%ADD22R,0.0709X0.0630*%
%ADD23R,0.0236X0.0866*%
%ADD24R,0.0756X0.0866*%
%ADD25C,0.1000*%
%ADD26OC8,0.1000*%
%ADD27C,0.0825*%
%ADD28R,0.1500X0.0820*%
%ADD29R,0.3000X0.4000*%
%ADD30C,0.0560*%
%ADD31R,0.0193X0.0512*%
%ADD32C,0.2000*%
%ADD33OC8,0.0600*%
%ADD34C,0.0594*%
%ADD35R,0.0594X0.0594*%
%ADD36C,0.0900*%
%ADD37C,0.1200*%
%ADD38R,0.0177X0.0571*%
%ADD39R,0.1181X0.0630*%
%ADD40R,0.2250X0.1900*%
%ADD41R,0.0354X0.0315*%
%ADD42C,0.0160*%
%ADD43C,0.0310*%
%ADD44C,0.0120*%
%ADD45C,0.0357*%
%ADD46C,0.0200*%
%ADD47C,0.3000*%
D10*
X019192Y005430D02*
X019192Y005650D01*
X019302Y005650D01*
X019339Y005613D01*
X019339Y005540D01*
X019302Y005503D01*
X019192Y005503D01*
X019266Y005503D02*
X019339Y005430D01*
X019413Y005467D02*
X019450Y005430D01*
X019523Y005430D01*
X019560Y005467D01*
X019560Y005613D01*
X019523Y005650D01*
X019450Y005650D01*
X019413Y005613D01*
X019413Y005467D01*
X019634Y005503D02*
X019708Y005430D01*
X019781Y005503D01*
X019781Y005650D01*
X019855Y005650D02*
X019855Y005430D01*
X020002Y005430D01*
X019929Y005540D02*
X019855Y005540D01*
X019855Y005650D02*
X020002Y005650D01*
X020297Y005650D02*
X020407Y005650D01*
X020444Y005613D01*
X020444Y005467D01*
X020407Y005430D01*
X020297Y005430D01*
X020297Y005650D01*
X020518Y005613D02*
X020518Y005467D01*
X020555Y005430D01*
X020628Y005430D01*
X020665Y005467D01*
X020665Y005613D01*
X020628Y005650D01*
X020555Y005650D01*
X020518Y005613D01*
X020739Y005650D02*
X020739Y005430D01*
X020813Y005503D01*
X020886Y005430D01*
X020886Y005650D01*
X020960Y005650D02*
X021107Y005430D01*
X021107Y005650D01*
X020960Y005650D02*
X020960Y005430D01*
X021402Y005430D02*
X021402Y005650D01*
X021549Y005650D01*
X021623Y005613D02*
X021623Y005467D01*
X021660Y005430D01*
X021733Y005430D01*
X021770Y005467D01*
X021770Y005613D01*
X021733Y005650D01*
X021660Y005650D01*
X021623Y005613D01*
X021475Y005540D02*
X021402Y005540D01*
X021844Y005503D02*
X021954Y005503D01*
X021991Y005540D01*
X021991Y005613D01*
X021954Y005650D01*
X021844Y005650D01*
X021844Y005430D01*
X021917Y005503D02*
X021991Y005430D01*
X022286Y005430D02*
X022359Y005503D01*
X022433Y005430D01*
X022433Y005650D01*
X022507Y005650D02*
X022507Y005430D01*
X022507Y005540D02*
X022654Y005540D01*
X022728Y005540D02*
X022875Y005540D01*
X022875Y005577D02*
X022875Y005430D01*
X022875Y005577D02*
X022801Y005650D01*
X022728Y005577D01*
X022728Y005430D01*
X022654Y005430D02*
X022654Y005650D01*
X022949Y005650D02*
X023096Y005650D01*
X023022Y005650D02*
X023022Y005430D01*
X022286Y005430D02*
X022286Y005650D01*
X019634Y005650D02*
X019634Y005503D01*
D11*
X043360Y017360D03*
X046360Y017360D03*
X049360Y017360D03*
X058510Y017360D03*
X061510Y017360D03*
X064510Y017360D03*
D12*
X064510Y037360D03*
X058510Y037360D03*
X049360Y037360D03*
X043360Y037360D03*
D13*
X032076Y035760D03*
X032076Y030360D03*
X032076Y024960D03*
X032076Y019560D03*
D14*
X034044Y019560D03*
X034044Y024960D03*
X034044Y030360D03*
X034044Y035760D03*
D15*
X041760Y058000D03*
X041760Y059120D03*
X042760Y059120D03*
X042760Y058000D03*
D16*
X049260Y009760D03*
X032760Y009760D03*
D17*
X022651Y009360D03*
X021469Y009360D03*
X021469Y015560D03*
X022651Y015560D03*
X022651Y021760D03*
X021469Y021760D03*
X021469Y027960D03*
X022651Y027960D03*
X022651Y034160D03*
X021469Y034160D03*
X021469Y040360D03*
X022651Y040360D03*
X022651Y046560D03*
X021469Y046560D03*
X021469Y052760D03*
X022651Y052760D03*
X015451Y061260D03*
X014269Y061260D03*
X014269Y067460D03*
X015451Y067460D03*
X067319Y011510D03*
X068501Y011510D03*
D18*
X066311Y011510D03*
X065209Y011510D03*
X042011Y011510D03*
X042011Y010110D03*
X040909Y010110D03*
X040909Y011510D03*
X040909Y008710D03*
X042011Y008710D03*
X020511Y009360D03*
X019409Y009360D03*
X019409Y015560D03*
X020511Y015560D03*
X020511Y021760D03*
X019409Y021760D03*
X019409Y027960D03*
X020511Y027960D03*
X020511Y034160D03*
X019409Y034160D03*
X019409Y040360D03*
X020511Y040360D03*
X020511Y046560D03*
X019409Y046560D03*
X019409Y052760D03*
X020511Y052760D03*
X017641Y061260D03*
X016539Y061260D03*
X016479Y067470D03*
X017581Y067470D03*
X043309Y053560D03*
X043309Y052560D03*
X043309Y051560D03*
X044411Y051560D03*
X044411Y052560D03*
X044411Y053560D03*
X044411Y048960D03*
X044411Y047960D03*
X044411Y046960D03*
X043309Y046960D03*
X043309Y047960D03*
X043309Y048960D03*
X045809Y039560D03*
X046911Y039560D03*
X060951Y039555D03*
X062054Y039555D03*
X061311Y061360D03*
X061311Y062260D03*
X061311Y063160D03*
X060209Y063160D03*
X060209Y062260D03*
X060209Y061360D03*
X056511Y074960D03*
X055409Y074960D03*
X054511Y074960D03*
X053409Y074960D03*
D19*
X063556Y063136D03*
X063556Y062624D03*
X064284Y062880D03*
D20*
X063420Y064060D03*
X062300Y064060D03*
X061305Y064070D03*
X060185Y064070D03*
D21*
X065710Y014515D03*
X065710Y013105D03*
D22*
X013960Y012109D03*
X013960Y013211D03*
X013960Y018309D03*
X013960Y019411D03*
X013960Y024509D03*
X013960Y025611D03*
X013960Y030709D03*
X013960Y031811D03*
X013960Y036909D03*
X013960Y038011D03*
X013960Y043109D03*
X013960Y044211D03*
X013960Y049309D03*
X013960Y050411D03*
X013960Y055509D03*
X013960Y056611D03*
X025860Y057909D03*
X026755Y057909D03*
X026755Y059011D03*
X025860Y059011D03*
X025860Y064109D03*
X026760Y064109D03*
X026760Y065211D03*
X025860Y065211D03*
X034260Y069609D03*
X035260Y069609D03*
X036260Y069609D03*
X037260Y069609D03*
X037260Y070711D03*
X036260Y070711D03*
X035260Y070711D03*
X034260Y070711D03*
X038260Y070711D03*
X039260Y070711D03*
X040260Y070711D03*
X040260Y069609D03*
X039260Y069609D03*
X038260Y069609D03*
X041260Y069609D03*
X042260Y069609D03*
X043260Y069609D03*
X043260Y070711D03*
X042260Y070711D03*
X041260Y070711D03*
X026782Y052822D03*
X025868Y052822D03*
X025868Y051720D03*
X026782Y051720D03*
X026782Y046622D03*
X025868Y046622D03*
X025868Y045520D03*
X026782Y045520D03*
X026782Y040422D03*
X025868Y040422D03*
X025868Y039320D03*
X026782Y039320D03*
X026782Y034222D03*
X025868Y034222D03*
X025868Y033120D03*
X026782Y033120D03*
X026782Y028022D03*
X025868Y028022D03*
X025868Y026920D03*
X026782Y026920D03*
X026782Y021822D03*
X025868Y021822D03*
X025868Y020720D03*
X026782Y020720D03*
X026782Y015622D03*
X025868Y015622D03*
X025868Y014520D03*
X026782Y014520D03*
X026782Y009422D03*
X025868Y009422D03*
X025868Y008320D03*
X026782Y008320D03*
X042160Y042409D03*
X042160Y043511D03*
X051760Y043511D03*
X051760Y042409D03*
D23*
X026776Y041347D03*
X026276Y041347D03*
X025776Y041347D03*
X025276Y041347D03*
X025276Y035147D03*
X025776Y035147D03*
X026276Y035147D03*
X026776Y035147D03*
X026776Y028947D03*
X026276Y028947D03*
X025776Y028947D03*
X025276Y028947D03*
X025276Y022747D03*
X025776Y022747D03*
X026276Y022747D03*
X026776Y022747D03*
X026776Y016547D03*
X026276Y016547D03*
X025776Y016547D03*
X025276Y016547D03*
X025276Y010347D03*
X025776Y010347D03*
X026276Y010347D03*
X026776Y010347D03*
X016230Y011616D03*
X015730Y011616D03*
X015230Y011616D03*
X014730Y011616D03*
X014730Y013664D03*
X015230Y013664D03*
X015730Y013664D03*
X016230Y013664D03*
X016230Y017816D03*
X015730Y017816D03*
X015230Y017816D03*
X014730Y017816D03*
X014730Y019864D03*
X015230Y019864D03*
X015730Y019864D03*
X016230Y019864D03*
X016230Y024016D03*
X015730Y024016D03*
X015230Y024016D03*
X014730Y024016D03*
X014730Y026064D03*
X015230Y026064D03*
X015730Y026064D03*
X016230Y026064D03*
X016230Y030216D03*
X015730Y030216D03*
X015230Y030216D03*
X014730Y030216D03*
X014730Y032264D03*
X015230Y032264D03*
X015730Y032264D03*
X016230Y032264D03*
X016230Y036416D03*
X015730Y036416D03*
X015230Y036416D03*
X014730Y036416D03*
X014730Y038464D03*
X015230Y038464D03*
X015730Y038464D03*
X016230Y038464D03*
X016230Y042616D03*
X015730Y042616D03*
X015230Y042616D03*
X014730Y042616D03*
X014730Y044664D03*
X015230Y044664D03*
X015730Y044664D03*
X016230Y044664D03*
X016230Y048816D03*
X015730Y048816D03*
X015230Y048816D03*
X014730Y048816D03*
X014730Y050864D03*
X015230Y050864D03*
X015730Y050864D03*
X016230Y050864D03*
X016230Y055016D03*
X015730Y055016D03*
X015230Y055016D03*
X014730Y055016D03*
X014730Y057064D03*
X015230Y057064D03*
X015730Y057064D03*
X016230Y057064D03*
X025270Y059956D03*
X025770Y059956D03*
X026270Y059956D03*
X026770Y059956D03*
X026770Y066136D03*
X026270Y066136D03*
X025770Y066136D03*
X025270Y066136D03*
X025276Y053747D03*
X025776Y053747D03*
X026276Y053747D03*
X026776Y053747D03*
X026776Y047547D03*
X026276Y047547D03*
X025776Y047547D03*
X025276Y047547D03*
D24*
X025526Y049595D03*
X026526Y049595D03*
X026526Y055795D03*
X025526Y055795D03*
X025520Y062004D03*
X026520Y062004D03*
X026520Y068184D03*
X025520Y068184D03*
X025526Y043395D03*
X026526Y043395D03*
X026526Y037195D03*
X025526Y037195D03*
X025526Y030995D03*
X026526Y030995D03*
X026526Y024795D03*
X025526Y024795D03*
X025526Y018595D03*
X026526Y018595D03*
X026526Y012395D03*
X025526Y012395D03*
D25*
X032485Y060448D03*
X036535Y060448D03*
D26*
X036535Y058448D03*
X032485Y058448D03*
D27*
X031573Y042260D02*
X030748Y042260D01*
X037748Y042260D02*
X038573Y042260D01*
X038085Y013610D02*
X037260Y013610D01*
X044260Y013610D02*
X045085Y013610D01*
D28*
X018210Y013360D03*
X018210Y011360D03*
X018210Y017560D03*
X018210Y019560D03*
X018210Y023760D03*
X018210Y025760D03*
X018210Y029960D03*
X018210Y031960D03*
X018210Y036160D03*
X018210Y038160D03*
X018210Y042460D03*
X018210Y044460D03*
X018210Y048660D03*
X018210Y050660D03*
X018210Y054960D03*
X018210Y056960D03*
D29*
X022460Y055960D03*
X022460Y049660D03*
X022460Y043460D03*
X022460Y037160D03*
X022460Y030960D03*
X022460Y024760D03*
X022460Y018560D03*
X022460Y012360D03*
D30*
X041960Y046960D03*
X041960Y047960D03*
X041960Y048960D03*
X041960Y051560D03*
X041960Y052560D03*
X041960Y053560D03*
D31*
X055210Y075935D03*
X055710Y075935D03*
X056210Y075935D03*
X056710Y075935D03*
X056710Y078185D03*
X056210Y078185D03*
X055710Y078185D03*
X055210Y078185D03*
D32*
X017760Y065873D03*
X014660Y065873D03*
X014660Y059623D03*
X017760Y059623D03*
X017760Y053373D03*
X014660Y053373D03*
X014660Y047123D03*
X017760Y047123D03*
X017760Y040873D03*
X014660Y040873D03*
X014660Y034623D03*
X017760Y034623D03*
X017760Y028373D03*
X014660Y028373D03*
X014660Y022123D03*
X017760Y022123D03*
X017760Y015873D03*
X014660Y015873D03*
X014660Y009623D03*
X017760Y009623D03*
D33*
X034160Y065160D03*
X034160Y066160D03*
X035160Y066160D03*
X035160Y065160D03*
X036160Y065160D03*
X036160Y066160D03*
X037160Y066160D03*
X037160Y065160D03*
X038160Y065160D03*
X038160Y066160D03*
X039160Y066160D03*
X039160Y065160D03*
X040160Y065160D03*
X040160Y066160D03*
X041160Y066160D03*
X041160Y065160D03*
X042160Y065160D03*
X042160Y066160D03*
X043160Y066160D03*
X043160Y065160D03*
X043160Y082160D03*
X043160Y083160D03*
X042160Y083160D03*
X042160Y082160D03*
X041160Y082160D03*
X041160Y083160D03*
X040160Y083160D03*
X040160Y082160D03*
X039160Y082160D03*
X039160Y083160D03*
X038160Y083160D03*
X038160Y082160D03*
X037160Y082160D03*
X037160Y083160D03*
X036160Y083160D03*
X036160Y082160D03*
X035160Y082160D03*
X035160Y083160D03*
X034160Y083160D03*
X034160Y082160D03*
X059160Y082160D03*
X059160Y083160D03*
X060160Y083160D03*
X060160Y082160D03*
X061160Y082160D03*
X061160Y083160D03*
X062160Y083160D03*
X062160Y082160D03*
X063160Y082160D03*
X063160Y083160D03*
X064160Y083160D03*
X064160Y082160D03*
X065160Y082160D03*
X065160Y083160D03*
X066160Y083160D03*
X066160Y082160D03*
X067160Y082160D03*
X067160Y083160D03*
X068160Y083160D03*
X068160Y082160D03*
X068160Y066160D03*
X068160Y065160D03*
X067160Y065160D03*
X067160Y066160D03*
X066160Y066160D03*
X066160Y065160D03*
X065160Y065160D03*
X065160Y066160D03*
X064160Y066160D03*
X064160Y065160D03*
X063160Y065160D03*
X063160Y066160D03*
X062160Y066160D03*
X062160Y065160D03*
X061160Y065160D03*
X061160Y066160D03*
X060160Y066160D03*
X060160Y065160D03*
X059160Y065160D03*
X059160Y066160D03*
D34*
X063160Y044410D03*
X064160Y043910D03*
X064160Y042910D03*
X064160Y041910D03*
X063160Y041410D03*
X063160Y042410D03*
X063160Y043410D03*
D35*
X064160Y040910D03*
D36*
X067360Y051910D03*
X067360Y053410D03*
X067360Y054910D03*
X047360Y053410D03*
X047360Y056410D03*
X047360Y050410D03*
D37*
X067360Y050410D03*
X067360Y056410D03*
D38*
X053354Y043987D03*
X053098Y043987D03*
X052842Y043987D03*
X052586Y043987D03*
X052586Y042254D03*
X052842Y042254D03*
X053098Y042254D03*
X053354Y042254D03*
X043754Y042254D03*
X043498Y042254D03*
X043242Y042254D03*
X042986Y042254D03*
X042986Y043987D03*
X043242Y043987D03*
X043498Y043987D03*
X043754Y043987D03*
D39*
X045269Y044208D03*
X045269Y042412D03*
X054869Y042412D03*
X054869Y044208D03*
D40*
X057585Y043310D03*
X047985Y043310D03*
D41*
X062166Y061186D03*
X062166Y061934D03*
X062166Y062486D03*
X062166Y063234D03*
X062993Y062860D03*
X062993Y061560D03*
D42*
X062560Y078660D02*
X056460Y078660D01*
X056220Y078420D01*
X056220Y078195D01*
X055710Y078185D02*
X055710Y078610D01*
X056160Y079060D01*
X061960Y079060D01*
X064660Y081760D01*
X064660Y082660D01*
X065160Y083160D01*
X065660Y082660D02*
X065660Y081760D01*
X062560Y078660D01*
X065660Y082660D02*
X066160Y083160D01*
X041760Y058000D02*
X041760Y056560D01*
X027960Y056460D02*
X027960Y054760D01*
X026160Y054760D01*
X026160Y056460D01*
X027960Y056460D01*
X027960Y056431D02*
X026160Y056431D01*
X026160Y056273D02*
X027960Y056273D01*
X027960Y056114D02*
X026160Y056114D01*
X026160Y055956D02*
X027960Y055956D01*
X027960Y055797D02*
X026160Y055797D01*
X026160Y055639D02*
X027960Y055639D01*
X027960Y055480D02*
X026160Y055480D01*
X026160Y055322D02*
X027960Y055322D01*
X027960Y055163D02*
X026160Y055163D01*
X026160Y055005D02*
X027960Y055005D01*
X027960Y054846D02*
X026160Y054846D01*
X025830Y054846D02*
X020160Y054846D01*
X020160Y054688D02*
X025788Y054688D01*
X025830Y054730D02*
X025560Y054460D01*
X024860Y054460D01*
X024860Y053760D01*
X024512Y053360D01*
X020160Y053360D01*
X020160Y058160D01*
X024260Y058160D01*
X025830Y056490D01*
X025830Y054730D01*
X025830Y055005D02*
X020160Y055005D01*
X020160Y055163D02*
X025830Y055163D01*
X025830Y055322D02*
X020160Y055322D01*
X020160Y055480D02*
X025830Y055480D01*
X025830Y055639D02*
X020160Y055639D01*
X020160Y055797D02*
X025830Y055797D01*
X025830Y055956D02*
X020160Y055956D01*
X020160Y056114D02*
X025830Y056114D01*
X025830Y056273D02*
X020160Y056273D01*
X020160Y056431D02*
X025830Y056431D01*
X025736Y056590D02*
X020160Y056590D01*
X020160Y056748D02*
X025587Y056748D01*
X025438Y056907D02*
X020160Y056907D01*
X020160Y057065D02*
X025289Y057065D01*
X025140Y057224D02*
X020160Y057224D01*
X020160Y057382D02*
X024991Y057382D01*
X024842Y057541D02*
X020160Y057541D01*
X020160Y057699D02*
X024693Y057699D01*
X024544Y057858D02*
X020160Y057858D01*
X020160Y058016D02*
X024395Y058016D01*
X025270Y058499D02*
X025860Y057909D01*
X026909Y057909D01*
X026755Y057909D02*
X025860Y057909D01*
X025270Y058499D02*
X025270Y059956D01*
X025770Y059956D02*
X025770Y059101D01*
X026770Y059026D02*
X026770Y059956D01*
X026874Y059960D01*
X027160Y059960D01*
X026760Y064109D02*
X025860Y064109D01*
X025270Y064699D01*
X025270Y066136D01*
X025770Y066136D02*
X025770Y065301D01*
X025860Y065211D01*
X026760Y065211D02*
X026760Y066160D01*
X027260Y066160D01*
X026770Y066136D02*
X026770Y065221D01*
X026760Y065211D01*
X022460Y055960D02*
X016960Y055960D01*
X016516Y056404D01*
X015727Y056404D01*
X015727Y057034D01*
X015730Y057064D01*
X016230Y057064D02*
X016334Y056960D01*
X018210Y056960D01*
X015727Y056404D02*
X014727Y056404D01*
X014727Y057034D01*
X014730Y057064D01*
X014727Y056404D02*
X014060Y056404D01*
X013960Y056460D01*
X013960Y056611D01*
X014745Y055870D02*
X014745Y055031D01*
X014730Y055016D01*
X014238Y055509D01*
X013960Y055509D01*
X017760Y053373D02*
X017760Y052760D01*
X019409Y052760D01*
X020160Y053420D02*
X024564Y053420D01*
X024702Y053578D02*
X020160Y053578D01*
X020160Y053737D02*
X024840Y053737D01*
X024860Y053895D02*
X020160Y053895D01*
X020160Y054054D02*
X024860Y054054D01*
X024860Y054212D02*
X020160Y054212D01*
X020160Y054371D02*
X024860Y054371D01*
X025276Y053747D02*
X025276Y052212D01*
X025868Y051720D01*
X026782Y051720D01*
X027359Y051709D01*
X027360Y051710D01*
X026782Y052822D02*
X026776Y052828D01*
X026776Y053747D01*
X026276Y053747D02*
X026276Y054256D01*
X026280Y054360D01*
X025629Y054529D02*
X020160Y054529D01*
X020511Y052760D02*
X021469Y052760D01*
X022651Y052760D02*
X023260Y052760D01*
X024260Y051960D02*
X025830Y050290D01*
X025830Y048530D01*
X025560Y048260D01*
X024860Y048260D01*
X024860Y047560D01*
X024512Y047160D01*
X020160Y047160D01*
X020160Y051960D01*
X024260Y051960D01*
X024378Y051835D02*
X020160Y051835D01*
X020160Y051676D02*
X024527Y051676D01*
X024676Y051518D02*
X020160Y051518D01*
X020160Y051359D02*
X024825Y051359D01*
X024974Y051201D02*
X020160Y051201D01*
X020160Y051042D02*
X025123Y051042D01*
X025272Y050884D02*
X020160Y050884D01*
X020160Y050725D02*
X025421Y050725D01*
X025570Y050567D02*
X020160Y050567D01*
X020160Y050408D02*
X025719Y050408D01*
X025830Y050250D02*
X020160Y050250D01*
X020160Y050091D02*
X025830Y050091D01*
X025830Y049933D02*
X020160Y049933D01*
X020160Y049774D02*
X025830Y049774D01*
X025830Y049616D02*
X020160Y049616D01*
X020160Y049457D02*
X025830Y049457D01*
X025830Y049299D02*
X020160Y049299D01*
X020160Y049140D02*
X025830Y049140D01*
X025830Y048982D02*
X020160Y048982D01*
X020160Y048823D02*
X025830Y048823D01*
X025830Y048665D02*
X020160Y048665D01*
X020160Y048506D02*
X025806Y048506D01*
X025648Y048348D02*
X020160Y048348D01*
X020160Y048189D02*
X024860Y048189D01*
X024860Y048031D02*
X020160Y048031D01*
X020160Y047872D02*
X024860Y047872D01*
X024860Y047714D02*
X020160Y047714D01*
X020160Y047555D02*
X024856Y047555D01*
X024718Y047397D02*
X020160Y047397D01*
X020160Y047238D02*
X024580Y047238D01*
X025276Y047547D02*
X025276Y046012D01*
X025868Y045520D01*
X026782Y045520D01*
X027359Y045509D01*
X027360Y045510D01*
X026782Y046622D02*
X026776Y046628D01*
X026776Y047547D01*
X026276Y047547D02*
X026276Y048156D01*
X026280Y048160D01*
X026160Y048560D02*
X027960Y048560D01*
X027960Y050260D01*
X026160Y050260D01*
X026160Y048560D01*
X026160Y048665D02*
X027960Y048665D01*
X027960Y048823D02*
X026160Y048823D01*
X026160Y048982D02*
X027960Y048982D01*
X027960Y049140D02*
X026160Y049140D01*
X026160Y049299D02*
X027960Y049299D01*
X027960Y049457D02*
X026160Y049457D01*
X026160Y049616D02*
X027960Y049616D01*
X027960Y049774D02*
X026160Y049774D01*
X026160Y049933D02*
X027960Y049933D01*
X027960Y050091D02*
X026160Y050091D01*
X026160Y050250D02*
X027960Y050250D01*
X025868Y051720D02*
X025868Y051720D01*
X025868Y052822D02*
X025776Y052914D01*
X025776Y053747D01*
X022460Y049660D02*
X017060Y049660D01*
X016516Y050204D01*
X015727Y050204D01*
X015727Y050834D01*
X015730Y050864D01*
X016230Y050864D02*
X016234Y050660D01*
X018210Y050660D01*
X016230Y049670D02*
X016230Y048816D01*
X015727Y050204D02*
X014727Y050204D01*
X014727Y050834D01*
X014730Y050864D01*
X014727Y050204D02*
X014060Y050204D01*
X013960Y050260D01*
X013960Y050411D01*
X014745Y049670D02*
X014745Y048831D01*
X014730Y048816D01*
X014238Y049309D01*
X013960Y049309D01*
X017760Y047123D02*
X017760Y046560D01*
X019409Y046560D01*
X020160Y045760D02*
X024260Y045760D01*
X025830Y044090D01*
X025830Y042330D01*
X025560Y042060D01*
X024860Y042060D01*
X024860Y041360D01*
X024512Y040960D01*
X020160Y040960D01*
X020160Y045760D01*
X020160Y045653D02*
X024361Y045653D01*
X024510Y045495D02*
X020160Y045495D01*
X020160Y045336D02*
X024659Y045336D01*
X024808Y045178D02*
X020160Y045178D01*
X020160Y045019D02*
X024957Y045019D01*
X025106Y044861D02*
X020160Y044861D01*
X020160Y044702D02*
X025255Y044702D01*
X025404Y044544D02*
X020160Y044544D01*
X020160Y044385D02*
X025553Y044385D01*
X025702Y044227D02*
X020160Y044227D01*
X020160Y044068D02*
X025830Y044068D01*
X025830Y043910D02*
X020160Y043910D01*
X020160Y043751D02*
X025830Y043751D01*
X025830Y043593D02*
X020160Y043593D01*
X020160Y043434D02*
X025830Y043434D01*
X025830Y043276D02*
X020160Y043276D01*
X020160Y043117D02*
X025830Y043117D01*
X025830Y042959D02*
X020160Y042959D01*
X020160Y042800D02*
X025830Y042800D01*
X025830Y042642D02*
X020160Y042642D01*
X020160Y042483D02*
X025830Y042483D01*
X025825Y042325D02*
X020160Y042325D01*
X020160Y042166D02*
X025666Y042166D01*
X026160Y042360D02*
X027960Y042360D01*
X027960Y044060D01*
X026160Y044060D01*
X026160Y042360D01*
X026160Y042483D02*
X027960Y042483D01*
X027960Y042642D02*
X026160Y042642D01*
X026160Y042800D02*
X027960Y042800D01*
X027960Y042959D02*
X026160Y042959D01*
X026160Y043117D02*
X027960Y043117D01*
X027960Y043276D02*
X026160Y043276D01*
X026160Y043434D02*
X027960Y043434D01*
X027960Y043593D02*
X026160Y043593D01*
X026160Y043751D02*
X027960Y043751D01*
X027960Y043910D02*
X026160Y043910D01*
X025868Y045520D02*
X025868Y045520D01*
X025868Y046622D02*
X025776Y046714D01*
X025776Y047547D01*
X023260Y046560D02*
X022651Y046560D01*
X021469Y046560D02*
X020511Y046560D01*
X018210Y044460D02*
X016234Y044460D01*
X016230Y044664D01*
X015730Y044664D02*
X015727Y044634D01*
X015727Y044004D01*
X014727Y044004D01*
X014727Y044634D01*
X014730Y044664D01*
X014727Y044004D02*
X014060Y044004D01*
X013960Y044060D01*
X013960Y044211D01*
X014745Y043470D02*
X014745Y042631D01*
X014730Y042616D01*
X014238Y043109D01*
X013960Y043109D01*
X015727Y044004D02*
X016516Y044004D01*
X017060Y043460D01*
X022460Y043460D01*
X020160Y042008D02*
X024860Y042008D01*
X024860Y041849D02*
X020160Y041849D01*
X020160Y041691D02*
X024860Y041691D01*
X024860Y041532D02*
X020160Y041532D01*
X020160Y041374D02*
X024860Y041374D01*
X024734Y041215D02*
X020160Y041215D01*
X020160Y041057D02*
X024596Y041057D01*
X025276Y041347D02*
X025276Y039812D01*
X025868Y039320D01*
X026782Y039320D01*
X027359Y039309D01*
X027360Y039310D01*
X026782Y040422D02*
X026776Y040428D01*
X026776Y041347D01*
X026276Y041347D02*
X026276Y041856D01*
X026280Y041960D01*
X025776Y041347D02*
X025776Y040514D01*
X025868Y040422D01*
X025868Y039320D02*
X025868Y039320D01*
X025237Y038521D02*
X020160Y038521D01*
X020160Y038679D02*
X025088Y038679D01*
X024939Y038838D02*
X020160Y038838D01*
X020160Y038996D02*
X024790Y038996D01*
X024641Y039155D02*
X020160Y039155D01*
X020160Y039313D02*
X024492Y039313D01*
X024343Y039472D02*
X020160Y039472D01*
X020160Y039560D02*
X024260Y039560D01*
X025830Y037890D01*
X025830Y036130D01*
X025560Y035860D01*
X024860Y035860D01*
X024860Y035160D01*
X024512Y034760D01*
X020160Y034760D01*
X020160Y039560D01*
X020511Y040360D02*
X021469Y040360D01*
X022651Y040360D02*
X023260Y040360D01*
X025386Y038362D02*
X020160Y038362D01*
X020160Y038204D02*
X025535Y038204D01*
X025684Y038045D02*
X020160Y038045D01*
X020160Y037887D02*
X025830Y037887D01*
X025830Y037728D02*
X020160Y037728D01*
X020160Y037570D02*
X025830Y037570D01*
X025830Y037411D02*
X020160Y037411D01*
X020160Y037253D02*
X025830Y037253D01*
X025830Y037094D02*
X020160Y037094D01*
X020160Y036936D02*
X025830Y036936D01*
X025830Y036777D02*
X020160Y036777D01*
X020160Y036619D02*
X025830Y036619D01*
X025830Y036460D02*
X020160Y036460D01*
X020160Y036302D02*
X025830Y036302D01*
X025830Y036143D02*
X020160Y036143D01*
X020160Y035985D02*
X025685Y035985D01*
X026160Y036160D02*
X027960Y036160D01*
X027960Y037860D01*
X026160Y037860D01*
X026160Y036160D01*
X026160Y036302D02*
X027960Y036302D01*
X027960Y036460D02*
X026160Y036460D01*
X026160Y036619D02*
X027960Y036619D01*
X027960Y036777D02*
X026160Y036777D01*
X026160Y036936D02*
X027960Y036936D01*
X027960Y037094D02*
X026160Y037094D01*
X026160Y037253D02*
X027960Y037253D01*
X027960Y037411D02*
X026160Y037411D01*
X026160Y037570D02*
X027960Y037570D01*
X027960Y037728D02*
X026160Y037728D01*
X026280Y035760D02*
X026276Y035656D01*
X026276Y035147D01*
X025776Y035147D02*
X025776Y034314D01*
X025868Y034222D01*
X025276Y033612D02*
X025868Y033120D01*
X026782Y033120D01*
X027359Y033109D01*
X027360Y033110D01*
X026782Y034222D02*
X026776Y034228D01*
X026776Y035147D01*
X025276Y035147D02*
X025276Y033612D01*
X025868Y033120D02*
X025868Y033120D01*
X025220Y032339D02*
X020160Y032339D01*
X020160Y032181D02*
X025369Y032181D01*
X025518Y032022D02*
X020160Y032022D01*
X020160Y031864D02*
X025667Y031864D01*
X025816Y031705D02*
X020160Y031705D01*
X020160Y031547D02*
X025830Y031547D01*
X025830Y031690D02*
X025830Y029930D01*
X025560Y029660D01*
X024860Y029660D01*
X024860Y028960D01*
X024512Y028560D01*
X020160Y028560D01*
X020160Y033360D01*
X024260Y033360D01*
X025830Y031690D01*
X025830Y031388D02*
X020160Y031388D01*
X020160Y031230D02*
X025830Y031230D01*
X025830Y031071D02*
X020160Y031071D01*
X020160Y030913D02*
X025830Y030913D01*
X025830Y030754D02*
X020160Y030754D01*
X020160Y030596D02*
X025830Y030596D01*
X025830Y030437D02*
X020160Y030437D01*
X020160Y030279D02*
X025830Y030279D01*
X025830Y030120D02*
X020160Y030120D01*
X020160Y029962D02*
X025830Y029962D01*
X025703Y029803D02*
X020160Y029803D01*
X020160Y029645D02*
X024860Y029645D01*
X024860Y029486D02*
X020160Y029486D01*
X020160Y029328D02*
X024860Y029328D01*
X024860Y029169D02*
X020160Y029169D01*
X020160Y029011D02*
X024860Y029011D01*
X024766Y028852D02*
X020160Y028852D01*
X020160Y028694D02*
X024628Y028694D01*
X025276Y028947D02*
X025276Y027412D01*
X025868Y026920D01*
X026782Y026920D01*
X027359Y026909D01*
X027360Y026910D01*
X026782Y028022D02*
X026776Y028028D01*
X026776Y028947D01*
X026276Y028947D02*
X026276Y029456D01*
X026280Y029560D01*
X026160Y029960D02*
X027960Y029960D01*
X027960Y031660D01*
X026160Y031660D01*
X026160Y029960D01*
X026160Y029962D02*
X027960Y029962D01*
X027960Y030120D02*
X026160Y030120D01*
X026160Y030279D02*
X027960Y030279D01*
X027960Y030437D02*
X026160Y030437D01*
X026160Y030596D02*
X027960Y030596D01*
X027960Y030754D02*
X026160Y030754D01*
X026160Y030913D02*
X027960Y030913D01*
X027960Y031071D02*
X026160Y031071D01*
X026160Y031230D02*
X027960Y031230D01*
X027960Y031388D02*
X026160Y031388D01*
X026160Y031547D02*
X027960Y031547D01*
X025776Y028947D02*
X025776Y028114D01*
X025868Y028022D01*
X025868Y026920D02*
X025868Y026920D01*
X025202Y026158D02*
X020160Y026158D01*
X020160Y026316D02*
X025053Y026316D01*
X024904Y026475D02*
X020160Y026475D01*
X020160Y026633D02*
X024755Y026633D01*
X024606Y026792D02*
X020160Y026792D01*
X020160Y026950D02*
X024457Y026950D01*
X024308Y027109D02*
X020160Y027109D01*
X020160Y027160D02*
X024260Y027160D01*
X025830Y025490D01*
X025830Y023730D01*
X025560Y023460D01*
X024860Y023460D01*
X024860Y022760D01*
X024512Y022360D01*
X020160Y022360D01*
X020160Y027160D01*
X020511Y027960D02*
X021469Y027960D01*
X022651Y027960D02*
X023260Y027960D01*
X025351Y025999D02*
X020160Y025999D01*
X020160Y025841D02*
X025500Y025841D01*
X025649Y025682D02*
X020160Y025682D01*
X020160Y025524D02*
X025798Y025524D01*
X025830Y025365D02*
X020160Y025365D01*
X020160Y025207D02*
X025830Y025207D01*
X025830Y025048D02*
X020160Y025048D01*
X020160Y024890D02*
X025830Y024890D01*
X025830Y024731D02*
X020160Y024731D01*
X020160Y024573D02*
X025830Y024573D01*
X025830Y024414D02*
X020160Y024414D01*
X020160Y024256D02*
X025830Y024256D01*
X025830Y024097D02*
X020160Y024097D01*
X020160Y023939D02*
X025830Y023939D01*
X025830Y023780D02*
X020160Y023780D01*
X020160Y023622D02*
X025722Y023622D01*
X025563Y023463D02*
X020160Y023463D01*
X020160Y023305D02*
X024860Y023305D01*
X024860Y023146D02*
X020160Y023146D01*
X020160Y022988D02*
X024860Y022988D01*
X024860Y022829D02*
X020160Y022829D01*
X020160Y022671D02*
X024782Y022671D01*
X024644Y022512D02*
X020160Y022512D01*
X020511Y021760D02*
X021469Y021760D01*
X022651Y021760D02*
X023260Y021760D01*
X024260Y020960D02*
X025830Y019290D01*
X025830Y017530D01*
X025560Y017260D01*
X024860Y017260D01*
X024860Y016560D01*
X024512Y016160D01*
X020160Y016160D01*
X020160Y020960D01*
X024260Y020960D01*
X024291Y020927D02*
X020160Y020927D01*
X020160Y020769D02*
X024440Y020769D01*
X024589Y020610D02*
X020160Y020610D01*
X020160Y020452D02*
X024738Y020452D01*
X024887Y020293D02*
X020160Y020293D01*
X020160Y020135D02*
X025036Y020135D01*
X025185Y019976D02*
X020160Y019976D01*
X020160Y019818D02*
X025334Y019818D01*
X025483Y019659D02*
X020160Y019659D01*
X020160Y019501D02*
X025632Y019501D01*
X025781Y019342D02*
X020160Y019342D01*
X020160Y019184D02*
X025830Y019184D01*
X025830Y019025D02*
X020160Y019025D01*
X020160Y018867D02*
X025830Y018867D01*
X025830Y018708D02*
X020160Y018708D01*
X020160Y018550D02*
X025830Y018550D01*
X025830Y018391D02*
X020160Y018391D01*
X020160Y018233D02*
X025830Y018233D01*
X025830Y018074D02*
X020160Y018074D01*
X020160Y017916D02*
X025830Y017916D01*
X025830Y017757D02*
X020160Y017757D01*
X020160Y017599D02*
X025830Y017599D01*
X025740Y017440D02*
X020160Y017440D01*
X020160Y017282D02*
X025582Y017282D01*
X026160Y017560D02*
X027960Y017560D01*
X027960Y019260D01*
X026160Y019260D01*
X026160Y017560D01*
X026160Y017599D02*
X027960Y017599D01*
X027960Y017757D02*
X026160Y017757D01*
X026160Y017916D02*
X027960Y017916D01*
X027960Y018074D02*
X026160Y018074D01*
X026160Y018233D02*
X027960Y018233D01*
X027960Y018391D02*
X026160Y018391D01*
X026160Y018550D02*
X027960Y018550D01*
X027960Y018708D02*
X026160Y018708D01*
X026160Y018867D02*
X027960Y018867D01*
X027960Y019025D02*
X026160Y019025D01*
X026160Y019184D02*
X027960Y019184D01*
X027359Y020709D02*
X027360Y020710D01*
X027359Y020709D02*
X026782Y020720D01*
X025868Y020720D01*
X025868Y020720D01*
X025276Y021212D01*
X025276Y022747D01*
X025776Y022747D02*
X025776Y021914D01*
X025868Y021822D01*
X026776Y021828D02*
X026776Y022747D01*
X026276Y022747D02*
X026276Y023356D01*
X026280Y023360D01*
X026160Y023760D02*
X027960Y023760D01*
X027960Y025460D01*
X026160Y025460D01*
X026160Y023760D01*
X026160Y023780D02*
X027960Y023780D01*
X027960Y023939D02*
X026160Y023939D01*
X026160Y024097D02*
X027960Y024097D01*
X027960Y024256D02*
X026160Y024256D01*
X026160Y024414D02*
X027960Y024414D01*
X027960Y024573D02*
X026160Y024573D01*
X026160Y024731D02*
X027960Y024731D01*
X027960Y024890D02*
X026160Y024890D01*
X026160Y025048D02*
X027960Y025048D01*
X027960Y025207D02*
X026160Y025207D01*
X026160Y025365D02*
X027960Y025365D01*
X026776Y021828D02*
X026782Y021822D01*
X026280Y017160D02*
X026276Y017056D01*
X026276Y016547D01*
X025776Y016547D02*
X025776Y015714D01*
X025868Y015622D01*
X025276Y015012D02*
X025868Y014520D01*
X026782Y014520D01*
X027359Y014509D01*
X027360Y014510D01*
X026782Y015622D02*
X026776Y015628D01*
X026776Y016547D01*
X025276Y016547D02*
X025276Y015012D01*
X025868Y014520D02*
X025868Y014520D01*
X025168Y013795D02*
X020160Y013795D01*
X020160Y013953D02*
X025019Y013953D01*
X024870Y014112D02*
X020160Y014112D01*
X020160Y014270D02*
X024721Y014270D01*
X024572Y014429D02*
X020160Y014429D01*
X020160Y014587D02*
X024423Y014587D01*
X024274Y014746D02*
X020160Y014746D01*
X020160Y014760D02*
X024260Y014760D01*
X025830Y013090D01*
X025830Y011330D01*
X025560Y011060D01*
X024860Y011060D01*
X024860Y010360D01*
X024512Y009960D01*
X020160Y009960D01*
X020160Y014760D01*
X020511Y015560D02*
X021469Y015560D01*
X022651Y015560D02*
X023260Y015560D01*
X024522Y016172D02*
X020160Y016172D01*
X020160Y016331D02*
X024660Y016331D01*
X024798Y016489D02*
X020160Y016489D01*
X020160Y016648D02*
X024860Y016648D01*
X024860Y016806D02*
X020160Y016806D01*
X020160Y016965D02*
X024860Y016965D01*
X024860Y017123D02*
X020160Y017123D01*
X019409Y015560D02*
X017760Y015560D01*
X017760Y015873D01*
X018210Y013360D02*
X016234Y013360D01*
X016230Y013664D01*
X015730Y013664D02*
X015727Y013634D01*
X015727Y013004D01*
X014727Y013004D01*
X014727Y013634D01*
X014730Y013664D01*
X014727Y013004D02*
X014060Y013004D01*
X013960Y013060D01*
X013960Y013211D01*
X014745Y012470D02*
X014745Y011631D01*
X014730Y011616D01*
X014238Y012109D01*
X013960Y012109D01*
X015727Y013004D02*
X016516Y013004D01*
X017160Y012360D01*
X022460Y012360D01*
X020160Y012368D02*
X025830Y012368D01*
X025830Y012210D02*
X020160Y012210D01*
X020160Y012051D02*
X025830Y012051D01*
X025830Y011893D02*
X020160Y011893D01*
X020160Y011734D02*
X025830Y011734D01*
X025830Y011576D02*
X020160Y011576D01*
X020160Y011417D02*
X025830Y011417D01*
X025759Y011259D02*
X020160Y011259D01*
X020160Y011100D02*
X025600Y011100D01*
X026160Y011360D02*
X027960Y011360D01*
X027960Y013060D01*
X026160Y013060D01*
X026160Y011360D01*
X026160Y011417D02*
X027960Y011417D01*
X027960Y011576D02*
X026160Y011576D01*
X026160Y011734D02*
X027960Y011734D01*
X027960Y011893D02*
X026160Y011893D01*
X026160Y012051D02*
X027960Y012051D01*
X027960Y012210D02*
X026160Y012210D01*
X026160Y012368D02*
X027960Y012368D01*
X027960Y012527D02*
X026160Y012527D01*
X026160Y012685D02*
X027960Y012685D01*
X027960Y012844D02*
X026160Y012844D01*
X026160Y013002D02*
X027960Y013002D01*
X026280Y010960D02*
X026276Y010956D01*
X026276Y010347D01*
X025776Y010347D02*
X025776Y009514D01*
X025868Y009422D01*
X025276Y008812D02*
X025868Y008320D01*
X026782Y008320D01*
X027359Y008309D01*
X027360Y008310D01*
X026782Y009422D02*
X026776Y009428D01*
X026776Y010347D01*
X025276Y010347D02*
X025276Y008812D01*
X025868Y008320D02*
X025868Y008320D01*
X024539Y009991D02*
X020160Y009991D01*
X020160Y010149D02*
X024676Y010149D01*
X024814Y010308D02*
X020160Y010308D01*
X020160Y010466D02*
X024860Y010466D01*
X024860Y010625D02*
X020160Y010625D01*
X020160Y010783D02*
X024860Y010783D01*
X024860Y010942D02*
X020160Y010942D01*
X020160Y012527D02*
X025830Y012527D01*
X025830Y012685D02*
X020160Y012685D01*
X020160Y012844D02*
X025830Y012844D01*
X025830Y013002D02*
X020160Y013002D01*
X020160Y013161D02*
X025764Y013161D01*
X025615Y013319D02*
X020160Y013319D01*
X020160Y013478D02*
X025466Y013478D01*
X025317Y013636D02*
X020160Y013636D01*
X016230Y012470D02*
X016230Y011616D01*
X017760Y009623D02*
X017760Y009360D01*
X019409Y009360D01*
X020511Y009360D02*
X021469Y009360D01*
X022651Y009360D02*
X023260Y009360D01*
X022460Y018560D02*
X017160Y018560D01*
X016516Y019204D01*
X015727Y019204D01*
X015727Y019834D01*
X015730Y019864D01*
X016230Y019864D02*
X016234Y019560D01*
X018210Y019560D01*
X016230Y018670D02*
X016230Y017816D01*
X015727Y019204D02*
X014727Y019204D01*
X014727Y019834D01*
X014730Y019864D01*
X014727Y019204D02*
X014060Y019204D01*
X013960Y019260D01*
X013960Y019411D01*
X014745Y018670D02*
X014745Y017831D01*
X014730Y017816D01*
X014238Y018309D01*
X013960Y018309D01*
X017760Y021760D02*
X017760Y022123D01*
X017760Y021760D02*
X019409Y021760D01*
X017160Y024760D02*
X016516Y025404D01*
X015727Y025404D01*
X015727Y026034D01*
X015730Y026064D01*
X016230Y026064D02*
X016234Y025760D01*
X018210Y025760D01*
X017160Y024760D02*
X022460Y024760D01*
X019409Y027960D02*
X017760Y027960D01*
X017760Y028373D01*
X016230Y030216D02*
X016230Y031070D01*
X016516Y031604D02*
X015727Y031604D01*
X015727Y032234D01*
X015730Y032264D01*
X016230Y032264D02*
X016234Y031960D01*
X018210Y031960D01*
X017160Y030960D02*
X016516Y031604D01*
X015727Y031604D02*
X014727Y031604D01*
X014727Y032234D01*
X014730Y032264D01*
X014727Y031604D02*
X014060Y031604D01*
X013960Y031660D01*
X013960Y031811D01*
X014745Y031070D02*
X014745Y030231D01*
X014730Y030216D01*
X014238Y030709D01*
X013960Y030709D01*
X017160Y030960D02*
X022460Y030960D01*
X020160Y032498D02*
X025071Y032498D01*
X024922Y032656D02*
X020160Y032656D01*
X020160Y032815D02*
X024773Y032815D01*
X024624Y032973D02*
X020160Y032973D01*
X020160Y033132D02*
X024475Y033132D01*
X024326Y033290D02*
X020160Y033290D01*
X020511Y034160D02*
X021469Y034160D01*
X022651Y034160D02*
X023260Y034160D01*
X024612Y034875D02*
X020160Y034875D01*
X020160Y035034D02*
X024750Y035034D01*
X024860Y035192D02*
X020160Y035192D01*
X020160Y035351D02*
X024860Y035351D01*
X024860Y035509D02*
X020160Y035509D01*
X020160Y035668D02*
X024860Y035668D01*
X024860Y035826D02*
X020160Y035826D01*
X019409Y034160D02*
X017760Y034160D01*
X017760Y034623D01*
X016230Y036416D02*
X016230Y037270D01*
X016516Y037804D02*
X015727Y037804D01*
X015727Y038434D01*
X015730Y038464D01*
X016230Y038464D02*
X016234Y038160D01*
X018210Y038160D01*
X017160Y037160D02*
X016516Y037804D01*
X015727Y037804D02*
X014727Y037804D01*
X014727Y038434D01*
X014730Y038464D01*
X014727Y037804D02*
X014060Y037804D01*
X013960Y037860D01*
X013960Y038011D01*
X014745Y037270D02*
X014745Y036431D01*
X014730Y036416D01*
X014238Y036909D01*
X013960Y036909D01*
X017160Y037160D02*
X022460Y037160D01*
X019409Y040360D02*
X017760Y040360D01*
X017760Y040873D01*
X016230Y042616D02*
X016230Y043470D01*
X014730Y026064D02*
X014727Y026034D01*
X014727Y025404D01*
X014060Y025404D01*
X013960Y025460D01*
X013960Y025611D01*
X014727Y025404D02*
X015727Y025404D01*
X016230Y024870D02*
X016230Y024016D01*
X014745Y024031D02*
X014730Y024016D01*
X014238Y024509D01*
X013960Y024509D01*
X014745Y024870D02*
X014745Y024031D01*
X041660Y012110D02*
X041660Y008110D01*
X042760Y008110D01*
X042760Y012110D01*
X041660Y012110D01*
X041660Y012051D02*
X042760Y012051D01*
X042760Y011893D02*
X041660Y011893D01*
X041660Y011734D02*
X042760Y011734D01*
X042760Y011576D02*
X041660Y011576D01*
X041660Y011417D02*
X042760Y011417D01*
X042760Y011259D02*
X041660Y011259D01*
X041660Y011100D02*
X042760Y011100D01*
X042760Y010942D02*
X041660Y010942D01*
X041660Y010783D02*
X042760Y010783D01*
X042760Y010625D02*
X041660Y010625D01*
X041660Y010466D02*
X042760Y010466D01*
X042760Y010308D02*
X041660Y010308D01*
X041660Y010149D02*
X042760Y010149D01*
X042760Y009991D02*
X041660Y009991D01*
X041660Y009832D02*
X042760Y009832D01*
X042760Y009674D02*
X041660Y009674D01*
X041660Y009515D02*
X042760Y009515D01*
X042760Y009357D02*
X041660Y009357D01*
X041660Y009198D02*
X042760Y009198D01*
X042760Y009040D02*
X041660Y009040D01*
X041660Y008881D02*
X042760Y008881D01*
X042760Y008723D02*
X041660Y008723D01*
X041660Y008564D02*
X042760Y008564D01*
X042760Y008406D02*
X041660Y008406D01*
X041660Y008247D02*
X042760Y008247D01*
D43*
X042560Y008710D03*
X042560Y009410D03*
X042560Y010110D03*
X042560Y010810D03*
X042560Y011510D03*
X027260Y010460D03*
X026260Y010960D03*
X027360Y008310D03*
X023260Y009360D03*
X027360Y014510D03*
X027260Y016660D03*
X026280Y017160D03*
X023260Y015560D03*
X027360Y020710D03*
X027260Y022860D03*
X026280Y023360D03*
X023260Y021760D03*
X027360Y026910D03*
X027260Y029060D03*
X026280Y029560D03*
X023260Y027960D03*
X027360Y033110D03*
X027260Y035260D03*
X026280Y035760D03*
X023260Y034160D03*
X027360Y039310D03*
X027260Y041460D03*
X026280Y041960D03*
X023260Y040360D03*
X027360Y045510D03*
X027260Y047660D03*
X026280Y048160D03*
X023260Y046560D03*
X027360Y051710D03*
X027260Y053860D03*
X026280Y054360D03*
X026920Y057320D03*
X027160Y059960D03*
X026260Y060560D03*
X027360Y064300D03*
X027260Y066160D03*
X026260Y066660D03*
X034260Y071360D03*
X035260Y071360D03*
X036260Y071360D03*
X037260Y071360D03*
X038260Y071360D03*
X039260Y071360D03*
X040260Y071360D03*
X041260Y071360D03*
X042260Y071360D03*
X043260Y071360D03*
X042260Y059760D03*
X044660Y053060D03*
X044660Y052060D03*
X044660Y048460D03*
X044660Y047460D03*
X059460Y062260D03*
X062460Y062760D03*
X063560Y062160D03*
X062960Y061060D03*
X056510Y074960D03*
X055410Y074960D03*
X054510Y074960D03*
X053410Y074960D03*
X055220Y077780D03*
X056720Y077780D03*
X023260Y052760D03*
X016260Y055860D03*
X014745Y055870D03*
X014745Y049670D03*
X016230Y049670D03*
X016230Y043470D03*
X014745Y043470D03*
X014745Y037270D03*
X016230Y037270D03*
X016230Y031070D03*
X014745Y031070D03*
X014745Y024870D03*
X016230Y024870D03*
X016230Y018670D03*
X014745Y018670D03*
X014745Y012470D03*
X016230Y012470D03*
D44*
X017333Y011633D02*
X019060Y011633D01*
X019060Y011515D02*
X017215Y011515D01*
X017096Y011396D02*
X019060Y011396D01*
X019060Y011278D02*
X016978Y011278D01*
X016859Y011159D02*
X019060Y011159D01*
X019060Y011041D02*
X016741Y011041D01*
X016622Y010922D02*
X019060Y010922D01*
X019060Y010804D02*
X016504Y010804D01*
X016385Y010685D02*
X019060Y010685D01*
X019060Y010567D02*
X016267Y010567D01*
X016260Y010560D02*
X017460Y011760D01*
X019060Y011760D01*
X019060Y009060D01*
X018160Y008160D01*
X017060Y008160D01*
X016260Y008960D01*
X016260Y010560D01*
X016260Y010448D02*
X019060Y010448D01*
X019060Y010330D02*
X016260Y010330D01*
X016260Y010211D02*
X019060Y010211D01*
X019060Y010093D02*
X016260Y010093D01*
X016260Y009974D02*
X019060Y009974D01*
X019060Y009856D02*
X016260Y009856D01*
X016260Y009737D02*
X019060Y009737D01*
X019060Y009619D02*
X016260Y009619D01*
X016260Y009500D02*
X019060Y009500D01*
X019060Y009382D02*
X016260Y009382D01*
X016260Y009263D02*
X019060Y009263D01*
X019060Y009145D02*
X016260Y009145D01*
X016260Y009026D02*
X019026Y009026D01*
X018908Y008908D02*
X016312Y008908D01*
X016431Y008789D02*
X018789Y008789D01*
X018671Y008671D02*
X016549Y008671D01*
X016668Y008552D02*
X018552Y008552D01*
X018434Y008434D02*
X016786Y008434D01*
X016905Y008315D02*
X018315Y008315D01*
X018197Y008197D02*
X017023Y008197D01*
X017452Y011752D02*
X019060Y011752D01*
X018160Y014360D02*
X017060Y014360D01*
X016260Y015160D01*
X016260Y016760D01*
X017460Y017960D01*
X019060Y017960D01*
X019060Y015260D01*
X018160Y014360D01*
X018277Y014477D02*
X016943Y014477D01*
X016824Y014596D02*
X018396Y014596D01*
X018514Y014714D02*
X016706Y014714D01*
X016587Y014833D02*
X018633Y014833D01*
X018751Y014951D02*
X016469Y014951D01*
X016350Y015070D02*
X018870Y015070D01*
X018988Y015188D02*
X016260Y015188D01*
X016260Y015307D02*
X019060Y015307D01*
X019060Y015425D02*
X016260Y015425D01*
X016260Y015544D02*
X019060Y015544D01*
X019060Y015662D02*
X016260Y015662D01*
X016260Y015781D02*
X019060Y015781D01*
X019060Y015899D02*
X016260Y015899D01*
X016260Y016018D02*
X019060Y016018D01*
X019060Y016136D02*
X016260Y016136D01*
X016260Y016255D02*
X019060Y016255D01*
X019060Y016373D02*
X016260Y016373D01*
X016260Y016492D02*
X019060Y016492D01*
X019060Y016610D02*
X016260Y016610D01*
X016260Y016729D02*
X019060Y016729D01*
X019060Y016847D02*
X016347Y016847D01*
X016466Y016966D02*
X019060Y016966D01*
X019060Y017084D02*
X016584Y017084D01*
X016703Y017203D02*
X019060Y017203D01*
X019060Y017321D02*
X016821Y017321D01*
X016940Y017440D02*
X019060Y017440D01*
X019060Y017558D02*
X017058Y017558D01*
X017177Y017677D02*
X019060Y017677D01*
X019060Y017795D02*
X017295Y017795D01*
X017414Y017914D02*
X019060Y017914D01*
X018160Y020560D02*
X017060Y020560D01*
X016260Y021360D01*
X016260Y022960D01*
X017460Y024160D01*
X019060Y024160D01*
X019060Y021460D01*
X018160Y020560D01*
X018239Y020639D02*
X016981Y020639D01*
X016862Y020758D02*
X018358Y020758D01*
X018476Y020876D02*
X016744Y020876D01*
X016625Y020995D02*
X018595Y020995D01*
X018713Y021113D02*
X016507Y021113D01*
X016388Y021232D02*
X018832Y021232D01*
X018950Y021350D02*
X016270Y021350D01*
X016260Y021469D02*
X019060Y021469D01*
X019060Y021587D02*
X016260Y021587D01*
X016260Y021706D02*
X019060Y021706D01*
X019060Y021824D02*
X016260Y021824D01*
X016260Y021943D02*
X019060Y021943D01*
X019060Y022061D02*
X016260Y022061D01*
X016260Y022180D02*
X019060Y022180D01*
X019060Y022298D02*
X016260Y022298D01*
X016260Y022417D02*
X019060Y022417D01*
X019060Y022535D02*
X016260Y022535D01*
X016260Y022654D02*
X019060Y022654D01*
X019060Y022772D02*
X016260Y022772D01*
X016260Y022891D02*
X019060Y022891D01*
X019060Y023009D02*
X016309Y023009D01*
X016428Y023128D02*
X019060Y023128D01*
X019060Y023246D02*
X016546Y023246D01*
X016665Y023365D02*
X019060Y023365D01*
X019060Y023483D02*
X016783Y023483D01*
X016902Y023602D02*
X019060Y023602D01*
X019060Y023720D02*
X017020Y023720D01*
X017139Y023839D02*
X019060Y023839D01*
X019060Y023957D02*
X017257Y023957D01*
X017376Y024076D02*
X019060Y024076D01*
X018160Y026760D02*
X017060Y026760D01*
X016260Y027560D01*
X016260Y029160D01*
X017460Y030360D01*
X019060Y030360D01*
X019060Y027660D01*
X018160Y026760D01*
X018201Y026801D02*
X017019Y026801D01*
X016900Y026920D02*
X018320Y026920D01*
X018438Y027038D02*
X016782Y027038D01*
X016663Y027157D02*
X018557Y027157D01*
X018675Y027275D02*
X016545Y027275D01*
X016426Y027394D02*
X018794Y027394D01*
X018912Y027512D02*
X016308Y027512D01*
X016260Y027631D02*
X019031Y027631D01*
X019060Y027749D02*
X016260Y027749D01*
X016260Y027868D02*
X019060Y027868D01*
X019060Y027986D02*
X016260Y027986D01*
X016260Y028105D02*
X019060Y028105D01*
X019060Y028223D02*
X016260Y028223D01*
X016260Y028342D02*
X019060Y028342D01*
X019060Y028460D02*
X016260Y028460D01*
X016260Y028579D02*
X019060Y028579D01*
X019060Y028697D02*
X016260Y028697D01*
X016260Y028816D02*
X019060Y028816D01*
X019060Y028934D02*
X016260Y028934D01*
X016260Y029053D02*
X019060Y029053D01*
X019060Y029171D02*
X016271Y029171D01*
X016390Y029290D02*
X019060Y029290D01*
X019060Y029408D02*
X016508Y029408D01*
X016627Y029527D02*
X019060Y029527D01*
X019060Y029645D02*
X016745Y029645D01*
X016864Y029764D02*
X019060Y029764D01*
X019060Y029882D02*
X016982Y029882D01*
X017101Y030001D02*
X019060Y030001D01*
X019060Y030119D02*
X017219Y030119D01*
X017338Y030238D02*
X019060Y030238D01*
X019060Y030356D02*
X017456Y030356D01*
X017060Y032960D02*
X016260Y033760D01*
X016260Y035360D01*
X017460Y036560D01*
X019060Y036560D01*
X019060Y033860D01*
X018160Y032960D01*
X017060Y032960D01*
X017057Y032963D02*
X018163Y032963D01*
X018282Y033082D02*
X016938Y033082D01*
X016820Y033200D02*
X018400Y033200D01*
X018519Y033319D02*
X016701Y033319D01*
X016583Y033437D02*
X018637Y033437D01*
X018756Y033556D02*
X016464Y033556D01*
X016346Y033674D02*
X018874Y033674D01*
X018993Y033793D02*
X016260Y033793D01*
X016260Y033911D02*
X019060Y033911D01*
X019060Y034030D02*
X016260Y034030D01*
X016260Y034148D02*
X019060Y034148D01*
X019060Y034267D02*
X016260Y034267D01*
X016260Y034385D02*
X019060Y034385D01*
X019060Y034504D02*
X016260Y034504D01*
X016260Y034622D02*
X019060Y034622D01*
X019060Y034741D02*
X016260Y034741D01*
X016260Y034859D02*
X019060Y034859D01*
X019060Y034978D02*
X016260Y034978D01*
X016260Y035096D02*
X019060Y035096D01*
X019060Y035215D02*
X016260Y035215D01*
X016260Y035333D02*
X019060Y035333D01*
X019060Y035452D02*
X016352Y035452D01*
X016470Y035570D02*
X019060Y035570D01*
X019060Y035689D02*
X016589Y035689D01*
X016707Y035807D02*
X019060Y035807D01*
X019060Y035926D02*
X016826Y035926D01*
X016944Y036044D02*
X019060Y036044D01*
X019060Y036163D02*
X017063Y036163D01*
X017181Y036281D02*
X019060Y036281D01*
X019060Y036400D02*
X017300Y036400D01*
X017418Y036518D02*
X019060Y036518D01*
X018160Y039160D02*
X017060Y039160D01*
X016260Y039960D01*
X016260Y041660D01*
X017460Y042860D01*
X019060Y042860D01*
X019060Y040060D01*
X018160Y039160D01*
X018244Y039244D02*
X016976Y039244D01*
X016858Y039362D02*
X018362Y039362D01*
X018481Y039481D02*
X016739Y039481D01*
X016621Y039599D02*
X018599Y039599D01*
X018718Y039718D02*
X016502Y039718D01*
X016384Y039836D02*
X018836Y039836D01*
X018955Y039955D02*
X016265Y039955D01*
X016260Y040073D02*
X019060Y040073D01*
X019060Y040192D02*
X016260Y040192D01*
X016260Y040310D02*
X019060Y040310D01*
X019060Y040429D02*
X016260Y040429D01*
X016260Y040547D02*
X019060Y040547D01*
X019060Y040666D02*
X016260Y040666D01*
X016260Y040784D02*
X019060Y040784D01*
X019060Y040903D02*
X016260Y040903D01*
X016260Y041021D02*
X019060Y041021D01*
X019060Y041140D02*
X016260Y041140D01*
X016260Y041258D02*
X019060Y041258D01*
X019060Y041377D02*
X016260Y041377D01*
X016260Y041495D02*
X019060Y041495D01*
X019060Y041614D02*
X016260Y041614D01*
X016332Y041732D02*
X019060Y041732D01*
X019060Y041851D02*
X016451Y041851D01*
X016569Y041969D02*
X019060Y041969D01*
X019060Y042088D02*
X016688Y042088D01*
X016806Y042206D02*
X019060Y042206D01*
X019060Y042325D02*
X016925Y042325D01*
X017043Y042443D02*
X019060Y042443D01*
X019060Y042562D02*
X017162Y042562D01*
X017280Y042680D02*
X019060Y042680D01*
X019060Y042799D02*
X017399Y042799D01*
X017060Y045360D02*
X016260Y046160D01*
X016260Y047860D01*
X017460Y049060D01*
X019060Y049060D01*
X019060Y046260D01*
X018160Y045360D01*
X017060Y045360D01*
X017014Y045406D02*
X018206Y045406D01*
X018324Y045524D02*
X016896Y045524D01*
X016777Y045643D02*
X018443Y045643D01*
X018561Y045761D02*
X016659Y045761D01*
X016540Y045880D02*
X018680Y045880D01*
X018798Y045998D02*
X016422Y045998D01*
X016303Y046117D02*
X018917Y046117D01*
X019035Y046235D02*
X016260Y046235D01*
X016260Y046354D02*
X019060Y046354D01*
X019060Y046472D02*
X016260Y046472D01*
X016260Y046591D02*
X019060Y046591D01*
X019060Y046709D02*
X016260Y046709D01*
X016260Y046828D02*
X019060Y046828D01*
X019060Y046946D02*
X016260Y046946D01*
X016260Y047065D02*
X019060Y047065D01*
X019060Y047183D02*
X016260Y047183D01*
X016260Y047302D02*
X019060Y047302D01*
X019060Y047420D02*
X016260Y047420D01*
X016260Y047539D02*
X019060Y047539D01*
X019060Y047657D02*
X016260Y047657D01*
X016260Y047776D02*
X019060Y047776D01*
X019060Y047894D02*
X016294Y047894D01*
X016413Y048013D02*
X019060Y048013D01*
X019060Y048131D02*
X016531Y048131D01*
X016650Y048250D02*
X019060Y048250D01*
X019060Y048368D02*
X016768Y048368D01*
X016887Y048487D02*
X019060Y048487D01*
X019060Y048605D02*
X017005Y048605D01*
X017124Y048724D02*
X019060Y048724D01*
X019060Y048842D02*
X017242Y048842D01*
X017361Y048961D02*
X019060Y048961D01*
X018160Y051560D02*
X017060Y051560D01*
X016260Y052360D01*
X016260Y054160D01*
X017460Y055360D01*
X019060Y055360D01*
X019060Y052460D01*
X018160Y051560D01*
X018168Y051568D02*
X017052Y051568D01*
X016934Y051686D02*
X018286Y051686D01*
X018405Y051805D02*
X016815Y051805D01*
X016697Y051923D02*
X018523Y051923D01*
X018642Y052042D02*
X016578Y052042D01*
X016460Y052160D02*
X018760Y052160D01*
X018879Y052279D02*
X016341Y052279D01*
X016260Y052397D02*
X018997Y052397D01*
X019060Y052516D02*
X016260Y052516D01*
X016260Y052634D02*
X019060Y052634D01*
X019060Y052753D02*
X016260Y052753D01*
X016260Y052871D02*
X019060Y052871D01*
X019060Y052990D02*
X016260Y052990D01*
X016260Y053108D02*
X019060Y053108D01*
X019060Y053227D02*
X016260Y053227D01*
X016260Y053345D02*
X019060Y053345D01*
X019060Y053464D02*
X016260Y053464D01*
X016260Y053582D02*
X019060Y053582D01*
X019060Y053701D02*
X016260Y053701D01*
X016260Y053819D02*
X019060Y053819D01*
X019060Y053938D02*
X016260Y053938D01*
X016260Y054056D02*
X019060Y054056D01*
X019060Y054175D02*
X016275Y054175D01*
X016393Y054293D02*
X019060Y054293D01*
X019060Y054412D02*
X016512Y054412D01*
X016630Y054530D02*
X019060Y054530D01*
X019060Y054649D02*
X016749Y054649D01*
X016867Y054767D02*
X019060Y054767D01*
X019060Y054886D02*
X016986Y054886D01*
X017104Y055004D02*
X019060Y055004D01*
X019060Y055123D02*
X017223Y055123D01*
X017341Y055241D02*
X019060Y055241D01*
X019060Y055360D02*
X017460Y055360D01*
X016260Y055046D02*
X016230Y055016D01*
X016260Y055046D02*
X016260Y055860D01*
X014660Y059623D02*
X014269Y060013D01*
X014269Y061260D01*
X015451Y061260D02*
X016539Y061260D01*
X014660Y065873D02*
X014269Y066263D01*
X014269Y067460D01*
X015451Y067460D02*
X015461Y067470D01*
X016479Y067470D01*
X026260Y066660D02*
X026270Y065770D01*
X026270Y066136D01*
X026860Y064260D02*
X027320Y064260D01*
X027360Y064300D01*
X026860Y064260D02*
X026760Y064160D01*
X026760Y064109D01*
X026260Y060560D02*
X026270Y060550D01*
X026270Y059956D01*
X026909Y057909D02*
X026909Y057331D01*
X026920Y057320D01*
X027960Y057360D02*
X048060Y057360D01*
X048460Y056960D01*
X048460Y055860D01*
X048060Y055460D01*
X041160Y055460D01*
X041160Y005448D01*
X029988Y005448D01*
X027960Y007475D01*
X027960Y057360D01*
X027960Y057256D02*
X048164Y057256D01*
X048283Y057137D02*
X027960Y057137D01*
X027960Y057019D02*
X048401Y057019D01*
X048460Y056900D02*
X027960Y056900D01*
X027960Y056782D02*
X048460Y056782D01*
X048460Y056663D02*
X027960Y056663D01*
X027960Y056545D02*
X048460Y056545D01*
X048460Y056426D02*
X027960Y056426D01*
X027960Y056308D02*
X048460Y056308D01*
X048460Y056189D02*
X027960Y056189D01*
X027960Y056071D02*
X048460Y056071D01*
X048460Y055952D02*
X027960Y055952D01*
X027960Y055834D02*
X048434Y055834D01*
X048315Y055715D02*
X027960Y055715D01*
X027960Y055597D02*
X048197Y055597D01*
X048078Y055478D02*
X027960Y055478D01*
X027960Y055360D02*
X041160Y055360D01*
X041160Y055241D02*
X027960Y055241D01*
X027960Y055123D02*
X041160Y055123D01*
X041160Y055004D02*
X027960Y055004D01*
X027960Y054886D02*
X041160Y054886D01*
X041160Y054767D02*
X027960Y054767D01*
X027960Y054649D02*
X041160Y054649D01*
X041160Y054530D02*
X027960Y054530D01*
X027960Y054412D02*
X041160Y054412D01*
X041160Y054293D02*
X027960Y054293D01*
X027960Y054175D02*
X041160Y054175D01*
X041160Y054056D02*
X027960Y054056D01*
X027960Y053938D02*
X041160Y053938D01*
X041060Y053938D02*
X042282Y053938D01*
X042260Y053960D02*
X041060Y053960D01*
X041060Y053160D01*
X042260Y053160D01*
X042460Y053360D01*
X042460Y053760D01*
X042260Y053960D01*
X042401Y053819D02*
X041060Y053819D01*
X041160Y053819D02*
X027960Y053819D01*
X027960Y053701D02*
X041160Y053701D01*
X041060Y053701D02*
X042460Y053701D01*
X042460Y053582D02*
X041060Y053582D01*
X041160Y053582D02*
X027960Y053582D01*
X027960Y053464D02*
X041160Y053464D01*
X041060Y053464D02*
X042460Y053464D01*
X042445Y053345D02*
X041060Y053345D01*
X041160Y053345D02*
X027960Y053345D01*
X027960Y053227D02*
X041160Y053227D01*
X041060Y053227D02*
X042327Y053227D01*
X042960Y053227D02*
X043660Y053227D01*
X043660Y053345D02*
X042960Y053345D01*
X042960Y053464D02*
X043660Y053464D01*
X043660Y053582D02*
X042960Y053582D01*
X042960Y053701D02*
X043660Y053701D01*
X043660Y053819D02*
X042960Y053819D01*
X042960Y053860D02*
X043060Y053960D01*
X043560Y053960D01*
X043660Y053860D01*
X043660Y051260D01*
X043560Y051160D01*
X041760Y051160D01*
X041560Y051360D01*
X041560Y051760D01*
X041760Y051960D01*
X042860Y051960D01*
X042960Y052060D01*
X042960Y053860D01*
X043038Y053938D02*
X043582Y053938D01*
X044060Y053860D02*
X044060Y051260D01*
X044160Y051160D01*
X044760Y051160D01*
X044860Y051260D01*
X044860Y053860D01*
X044760Y053960D01*
X044160Y053960D01*
X044060Y053860D01*
X044060Y053819D02*
X044860Y053819D01*
X044860Y053701D02*
X044060Y053701D01*
X044060Y053582D02*
X044860Y053582D01*
X044860Y053464D02*
X044060Y053464D01*
X044060Y053345D02*
X044860Y053345D01*
X044860Y053227D02*
X044060Y053227D01*
X044060Y053108D02*
X044860Y053108D01*
X044860Y052990D02*
X044060Y052990D01*
X044060Y052871D02*
X044860Y052871D01*
X044860Y052753D02*
X044060Y052753D01*
X044060Y052634D02*
X044860Y052634D01*
X044860Y052516D02*
X044060Y052516D01*
X044060Y052397D02*
X044860Y052397D01*
X044860Y052279D02*
X044060Y052279D01*
X044060Y052160D02*
X044860Y052160D01*
X044860Y052042D02*
X044060Y052042D01*
X044060Y051923D02*
X044860Y051923D01*
X044860Y051805D02*
X044060Y051805D01*
X044060Y051686D02*
X044860Y051686D01*
X044860Y051568D02*
X044060Y051568D01*
X044060Y051449D02*
X044860Y051449D01*
X044860Y051331D02*
X044060Y051331D01*
X044108Y051212D02*
X044812Y051212D01*
X043660Y051331D02*
X041589Y051331D01*
X041560Y051449D02*
X043660Y051449D01*
X043660Y051568D02*
X041560Y051568D01*
X041560Y051686D02*
X043660Y051686D01*
X043660Y051805D02*
X041605Y051805D01*
X041723Y051923D02*
X043660Y051923D01*
X043660Y052042D02*
X042942Y052042D01*
X042960Y052160D02*
X043660Y052160D01*
X043660Y052279D02*
X042960Y052279D01*
X042960Y052397D02*
X043660Y052397D01*
X043660Y052516D02*
X042960Y052516D01*
X042960Y052634D02*
X043660Y052634D01*
X043660Y052753D02*
X042960Y052753D01*
X042960Y052871D02*
X043660Y052871D01*
X043660Y052990D02*
X042960Y052990D01*
X042960Y053108D02*
X043660Y053108D01*
X044138Y053938D02*
X044782Y053938D01*
X043612Y051212D02*
X041708Y051212D01*
X041160Y051212D02*
X027960Y051212D01*
X027960Y051094D02*
X041160Y051094D01*
X041160Y050975D02*
X027960Y050975D01*
X027960Y050857D02*
X041160Y050857D01*
X041160Y050738D02*
X027960Y050738D01*
X027960Y050620D02*
X041160Y050620D01*
X041160Y050501D02*
X027960Y050501D01*
X027960Y050383D02*
X041160Y050383D01*
X041160Y050264D02*
X027960Y050264D01*
X027960Y050146D02*
X041160Y050146D01*
X041160Y050027D02*
X027960Y050027D01*
X027960Y049909D02*
X041160Y049909D01*
X041160Y049790D02*
X027960Y049790D01*
X027960Y049672D02*
X041160Y049672D01*
X041160Y049553D02*
X027960Y049553D01*
X027960Y049435D02*
X041160Y049435D01*
X041160Y049316D02*
X027960Y049316D01*
X027960Y049198D02*
X041160Y049198D01*
X041060Y049198D02*
X042422Y049198D01*
X042460Y049160D02*
X042460Y048760D01*
X042260Y048560D01*
X041060Y048560D01*
X041060Y049360D01*
X042260Y049360D01*
X042460Y049160D01*
X042460Y049079D02*
X041060Y049079D01*
X041160Y049079D02*
X027960Y049079D01*
X027960Y048961D02*
X041160Y048961D01*
X041060Y048961D02*
X042460Y048961D01*
X042460Y048842D02*
X041060Y048842D01*
X041160Y048842D02*
X027960Y048842D01*
X027960Y048724D02*
X041160Y048724D01*
X041060Y048724D02*
X042424Y048724D01*
X042305Y048605D02*
X041060Y048605D01*
X041160Y048605D02*
X027960Y048605D01*
X027960Y048487D02*
X041160Y048487D01*
X041160Y048368D02*
X027960Y048368D01*
X027960Y048250D02*
X041160Y048250D01*
X041160Y048131D02*
X027960Y048131D01*
X027960Y048013D02*
X041160Y048013D01*
X041160Y047894D02*
X027960Y047894D01*
X027960Y047776D02*
X041160Y047776D01*
X041160Y047657D02*
X027960Y047657D01*
X027960Y047539D02*
X041160Y047539D01*
X041160Y047420D02*
X027960Y047420D01*
X027960Y047302D02*
X041160Y047302D01*
X041160Y047183D02*
X027960Y047183D01*
X027960Y047065D02*
X041160Y047065D01*
X041160Y046946D02*
X027960Y046946D01*
X027960Y046828D02*
X041160Y046828D01*
X041160Y046709D02*
X027960Y046709D01*
X027960Y046591D02*
X041160Y046591D01*
X041160Y046472D02*
X027960Y046472D01*
X027960Y046354D02*
X041160Y046354D01*
X041160Y046235D02*
X027960Y046235D01*
X027960Y046117D02*
X041160Y046117D01*
X041160Y045998D02*
X027960Y045998D01*
X027960Y045880D02*
X041160Y045880D01*
X041160Y045761D02*
X027960Y045761D01*
X027960Y045643D02*
X041160Y045643D01*
X041160Y045524D02*
X027960Y045524D01*
X027960Y045406D02*
X041160Y045406D01*
X041160Y045287D02*
X027960Y045287D01*
X027960Y045169D02*
X041160Y045169D01*
X041160Y045050D02*
X027960Y045050D01*
X027960Y044932D02*
X041160Y044932D01*
X041160Y044813D02*
X027960Y044813D01*
X027960Y044695D02*
X041160Y044695D01*
X041160Y044576D02*
X027960Y044576D01*
X027960Y044458D02*
X041160Y044458D01*
X041160Y044339D02*
X027960Y044339D01*
X027960Y044221D02*
X041160Y044221D01*
X041160Y044102D02*
X027960Y044102D01*
X027960Y043984D02*
X041160Y043984D01*
X041160Y043865D02*
X027960Y043865D01*
X027960Y043747D02*
X041160Y043747D01*
X041160Y043628D02*
X027960Y043628D01*
X027960Y043510D02*
X041160Y043510D01*
X041160Y043391D02*
X027960Y043391D01*
X027960Y043273D02*
X041160Y043273D01*
X041160Y043154D02*
X027960Y043154D01*
X027960Y043036D02*
X041160Y043036D01*
X041160Y042917D02*
X027960Y042917D01*
X027960Y042799D02*
X041160Y042799D01*
X041160Y042680D02*
X038891Y042680D01*
X038868Y042703D02*
X038676Y042782D01*
X037644Y042782D01*
X037452Y042703D01*
X037305Y042556D01*
X037225Y042364D01*
X037225Y042156D01*
X037305Y041964D01*
X037452Y041817D01*
X037644Y041738D01*
X038676Y041738D01*
X038868Y041817D01*
X039015Y041964D01*
X039095Y042156D01*
X039095Y042364D01*
X039015Y042556D01*
X038868Y042703D01*
X039010Y042562D02*
X041160Y042562D01*
X041160Y042443D02*
X039062Y042443D01*
X039095Y042325D02*
X041160Y042325D01*
X041160Y042206D02*
X039095Y042206D01*
X039067Y042088D02*
X041160Y042088D01*
X041160Y041969D02*
X039018Y041969D01*
X038902Y041851D02*
X041160Y041851D01*
X041160Y041732D02*
X027960Y041732D01*
X027960Y041614D02*
X041160Y041614D01*
X041160Y041495D02*
X027960Y041495D01*
X027960Y041377D02*
X041160Y041377D01*
X041160Y041258D02*
X027960Y041258D01*
X027960Y041140D02*
X041160Y041140D01*
X041160Y041021D02*
X027960Y041021D01*
X027960Y040903D02*
X041160Y040903D01*
X041160Y040784D02*
X027960Y040784D01*
X027960Y040666D02*
X041160Y040666D01*
X041160Y040547D02*
X027960Y040547D01*
X027960Y040429D02*
X041160Y040429D01*
X041160Y040310D02*
X027960Y040310D01*
X027960Y040192D02*
X041160Y040192D01*
X041160Y040073D02*
X027960Y040073D01*
X027960Y039955D02*
X041160Y039955D01*
X041160Y039836D02*
X027960Y039836D01*
X027960Y039718D02*
X041160Y039718D01*
X041160Y039599D02*
X027960Y039599D01*
X027960Y039481D02*
X041160Y039481D01*
X041160Y039362D02*
X027960Y039362D01*
X027960Y039244D02*
X041160Y039244D01*
X041160Y039125D02*
X027960Y039125D01*
X027960Y039007D02*
X041160Y039007D01*
X041160Y038888D02*
X027960Y038888D01*
X027960Y038770D02*
X041160Y038770D01*
X041160Y038651D02*
X027960Y038651D01*
X027960Y038533D02*
X041160Y038533D01*
X041160Y038414D02*
X027960Y038414D01*
X027960Y038296D02*
X041160Y038296D01*
X041160Y038177D02*
X027960Y038177D01*
X027960Y038059D02*
X041160Y038059D01*
X041160Y037940D02*
X027960Y037940D01*
X027960Y037822D02*
X041160Y037822D01*
X041160Y037703D02*
X027960Y037703D01*
X027960Y037585D02*
X041160Y037585D01*
X041160Y037466D02*
X027960Y037466D01*
X027960Y037348D02*
X041160Y037348D01*
X041160Y037229D02*
X027960Y037229D01*
X027960Y037111D02*
X041160Y037111D01*
X041160Y036992D02*
X027960Y036992D01*
X027960Y036874D02*
X041160Y036874D01*
X041160Y036755D02*
X027960Y036755D01*
X027960Y036637D02*
X041160Y036637D01*
X041160Y036518D02*
X027960Y036518D01*
X027960Y036400D02*
X041160Y036400D01*
X041160Y036281D02*
X027960Y036281D01*
X027960Y036163D02*
X041160Y036163D01*
X041160Y036044D02*
X034252Y036044D01*
X034241Y036055D02*
X034113Y036108D01*
X033975Y036108D01*
X033847Y036055D01*
X033749Y035957D01*
X033696Y035829D01*
X033696Y035691D01*
X033749Y035563D01*
X033847Y035465D01*
X033975Y035412D01*
X034113Y035412D01*
X034241Y035465D01*
X034339Y035563D01*
X034392Y035691D01*
X034392Y035829D01*
X034339Y035957D01*
X034241Y036055D01*
X034352Y035926D02*
X041160Y035926D01*
X041160Y035807D02*
X034392Y035807D01*
X034391Y035689D02*
X041160Y035689D01*
X041160Y035570D02*
X034342Y035570D01*
X034208Y035452D02*
X041160Y035452D01*
X041160Y035333D02*
X027960Y035333D01*
X027960Y035215D02*
X041160Y035215D01*
X041160Y035096D02*
X027960Y035096D01*
X027960Y034978D02*
X041160Y034978D01*
X041160Y034859D02*
X027960Y034859D01*
X027960Y034741D02*
X041160Y034741D01*
X041160Y034622D02*
X027960Y034622D01*
X027960Y034504D02*
X041160Y034504D01*
X041160Y034385D02*
X027960Y034385D01*
X027960Y034267D02*
X041160Y034267D01*
X041160Y034148D02*
X027960Y034148D01*
X027960Y034030D02*
X041160Y034030D01*
X041160Y033911D02*
X027960Y033911D01*
X027960Y033793D02*
X041160Y033793D01*
X041160Y033674D02*
X027960Y033674D01*
X027960Y033556D02*
X041160Y033556D01*
X041160Y033437D02*
X027960Y033437D01*
X027960Y033319D02*
X041160Y033319D01*
X041160Y033200D02*
X027960Y033200D01*
X027960Y033082D02*
X041160Y033082D01*
X041160Y032963D02*
X027960Y032963D01*
X027960Y032845D02*
X041160Y032845D01*
X041160Y032726D02*
X027960Y032726D01*
X027960Y032608D02*
X041160Y032608D01*
X041160Y032489D02*
X027960Y032489D01*
X027960Y032371D02*
X041160Y032371D01*
X041160Y032252D02*
X027960Y032252D01*
X027960Y032134D02*
X041160Y032134D01*
X041160Y032015D02*
X027960Y032015D01*
X027960Y031897D02*
X041160Y031897D01*
X041160Y031778D02*
X027960Y031778D01*
X027960Y031660D02*
X041160Y031660D01*
X041160Y031541D02*
X027960Y031541D01*
X027960Y031423D02*
X041160Y031423D01*
X041160Y031304D02*
X027960Y031304D01*
X027960Y031186D02*
X041160Y031186D01*
X041160Y031067D02*
X027960Y031067D01*
X027960Y030949D02*
X041160Y030949D01*
X041160Y030830D02*
X027960Y030830D01*
X027960Y030712D02*
X041160Y030712D01*
X041160Y030593D02*
X034303Y030593D01*
X034339Y030557D02*
X034241Y030655D01*
X034113Y030708D01*
X033975Y030708D01*
X033847Y030655D01*
X033749Y030557D01*
X033696Y030429D01*
X033696Y030291D01*
X033749Y030163D01*
X033847Y030065D01*
X033975Y030012D01*
X034113Y030012D01*
X034241Y030065D01*
X034339Y030163D01*
X034392Y030291D01*
X034392Y030429D01*
X034339Y030557D01*
X034373Y030475D02*
X041160Y030475D01*
X041160Y030356D02*
X034392Y030356D01*
X034370Y030238D02*
X041160Y030238D01*
X041160Y030119D02*
X034295Y030119D01*
X033793Y030119D02*
X027960Y030119D01*
X027960Y030001D02*
X041160Y030001D01*
X041160Y029882D02*
X027960Y029882D01*
X027960Y029764D02*
X041160Y029764D01*
X041160Y029645D02*
X027960Y029645D01*
X027960Y029527D02*
X041160Y029527D01*
X041160Y029408D02*
X027960Y029408D01*
X027960Y029290D02*
X041160Y029290D01*
X041160Y029171D02*
X027960Y029171D01*
X027960Y029053D02*
X041160Y029053D01*
X041160Y028934D02*
X027960Y028934D01*
X027960Y028816D02*
X041160Y028816D01*
X041160Y028697D02*
X027960Y028697D01*
X027960Y028579D02*
X041160Y028579D01*
X041160Y028460D02*
X027960Y028460D01*
X027960Y028342D02*
X041160Y028342D01*
X041160Y028223D02*
X027960Y028223D01*
X027960Y028105D02*
X041160Y028105D01*
X041160Y027986D02*
X027960Y027986D01*
X027960Y027868D02*
X041160Y027868D01*
X041160Y027749D02*
X027960Y027749D01*
X027960Y027631D02*
X041160Y027631D01*
X041160Y027512D02*
X027960Y027512D01*
X027960Y027394D02*
X041160Y027394D01*
X041160Y027275D02*
X027960Y027275D01*
X027960Y027157D02*
X041160Y027157D01*
X041160Y027038D02*
X027960Y027038D01*
X027960Y026920D02*
X041160Y026920D01*
X041160Y026801D02*
X027960Y026801D01*
X027960Y026683D02*
X041160Y026683D01*
X041160Y026564D02*
X027960Y026564D01*
X027960Y026446D02*
X041160Y026446D01*
X041160Y026327D02*
X027960Y026327D01*
X027960Y026209D02*
X041160Y026209D01*
X041160Y026090D02*
X027960Y026090D01*
X027960Y025972D02*
X041160Y025972D01*
X041160Y025853D02*
X027960Y025853D01*
X027960Y025735D02*
X041160Y025735D01*
X041160Y025616D02*
X027960Y025616D01*
X027960Y025498D02*
X041160Y025498D01*
X041160Y025379D02*
X027960Y025379D01*
X027960Y025261D02*
X033861Y025261D01*
X033847Y025255D02*
X033749Y025157D01*
X033696Y025029D01*
X033696Y024891D01*
X033749Y024763D01*
X033847Y024665D01*
X033975Y024612D01*
X034113Y024612D01*
X034241Y024665D01*
X034339Y024763D01*
X034392Y024891D01*
X034392Y025029D01*
X034339Y025157D01*
X034241Y025255D01*
X034113Y025308D01*
X033975Y025308D01*
X033847Y025255D01*
X033743Y025142D02*
X027960Y025142D01*
X027960Y025024D02*
X033696Y025024D01*
X033696Y024905D02*
X027960Y024905D01*
X027960Y024787D02*
X033740Y024787D01*
X033844Y024668D02*
X027960Y024668D01*
X027960Y024550D02*
X041160Y024550D01*
X041160Y024668D02*
X034244Y024668D01*
X034349Y024787D02*
X041160Y024787D01*
X041160Y024905D02*
X034392Y024905D01*
X034392Y025024D02*
X041160Y025024D01*
X041160Y025142D02*
X034345Y025142D01*
X034228Y025261D02*
X041160Y025261D01*
X041160Y024431D02*
X027960Y024431D01*
X027960Y024313D02*
X041160Y024313D01*
X041160Y024194D02*
X027960Y024194D01*
X027960Y024076D02*
X041160Y024076D01*
X041160Y023957D02*
X027960Y023957D01*
X027960Y023839D02*
X041160Y023839D01*
X041160Y023720D02*
X027960Y023720D01*
X027960Y023602D02*
X041160Y023602D01*
X041160Y023483D02*
X027960Y023483D01*
X027960Y023365D02*
X041160Y023365D01*
X041160Y023246D02*
X027960Y023246D01*
X027960Y023128D02*
X041160Y023128D01*
X041160Y023009D02*
X027960Y023009D01*
X027960Y022891D02*
X041160Y022891D01*
X041160Y022772D02*
X027960Y022772D01*
X027960Y022654D02*
X041160Y022654D01*
X041160Y022535D02*
X027960Y022535D01*
X027960Y022417D02*
X041160Y022417D01*
X041160Y022298D02*
X027960Y022298D01*
X027960Y022180D02*
X041160Y022180D01*
X041160Y022061D02*
X027960Y022061D01*
X027960Y021943D02*
X041160Y021943D01*
X041160Y021824D02*
X027960Y021824D01*
X027960Y021706D02*
X041160Y021706D01*
X041160Y021587D02*
X027960Y021587D01*
X027960Y021469D02*
X041160Y021469D01*
X041160Y021350D02*
X027960Y021350D01*
X027960Y021232D02*
X041160Y021232D01*
X041160Y021113D02*
X027960Y021113D01*
X027960Y020995D02*
X041160Y020995D01*
X041160Y020876D02*
X027960Y020876D01*
X027960Y020758D02*
X041160Y020758D01*
X041160Y020639D02*
X027960Y020639D01*
X027960Y020521D02*
X041160Y020521D01*
X041160Y020402D02*
X027960Y020402D01*
X027960Y020284D02*
X041160Y020284D01*
X041160Y020165D02*
X027960Y020165D01*
X027960Y020047D02*
X041160Y020047D01*
X041160Y019928D02*
X027960Y019928D01*
X027960Y019810D02*
X033802Y019810D01*
X033847Y019855D02*
X033749Y019757D01*
X033696Y019629D01*
X033696Y019491D01*
X033749Y019363D01*
X033847Y019265D01*
X033975Y019212D01*
X034113Y019212D01*
X034241Y019265D01*
X034339Y019363D01*
X034392Y019491D01*
X034392Y019629D01*
X034339Y019757D01*
X034241Y019855D01*
X034113Y019908D01*
X033975Y019908D01*
X033847Y019855D01*
X033722Y019691D02*
X027960Y019691D01*
X027960Y019573D02*
X033696Y019573D01*
X033712Y019454D02*
X027960Y019454D01*
X027960Y019336D02*
X033777Y019336D01*
X033963Y019217D02*
X027960Y019217D01*
X027960Y019099D02*
X041160Y019099D01*
X041160Y019217D02*
X034125Y019217D01*
X034312Y019336D02*
X041160Y019336D01*
X041160Y019454D02*
X034377Y019454D01*
X034392Y019573D02*
X041160Y019573D01*
X041160Y019691D02*
X034366Y019691D01*
X034287Y019810D02*
X041160Y019810D01*
X041160Y018980D02*
X027960Y018980D01*
X027960Y018862D02*
X041160Y018862D01*
X041160Y018743D02*
X027960Y018743D01*
X027960Y018625D02*
X041160Y018625D01*
X041160Y018506D02*
X027960Y018506D01*
X027960Y018388D02*
X041160Y018388D01*
X041160Y018269D02*
X027960Y018269D01*
X027960Y018151D02*
X041160Y018151D01*
X041160Y018032D02*
X027960Y018032D01*
X027960Y017914D02*
X041160Y017914D01*
X041160Y017795D02*
X027960Y017795D01*
X027960Y017677D02*
X041160Y017677D01*
X041160Y017558D02*
X027960Y017558D01*
X027960Y017440D02*
X041160Y017440D01*
X041160Y017321D02*
X027960Y017321D01*
X027960Y017203D02*
X041160Y017203D01*
X041160Y017084D02*
X027960Y017084D01*
X027960Y016966D02*
X041160Y016966D01*
X041160Y016847D02*
X027960Y016847D01*
X027960Y016729D02*
X041160Y016729D01*
X041160Y016610D02*
X027960Y016610D01*
X027960Y016492D02*
X041160Y016492D01*
X041160Y016373D02*
X027960Y016373D01*
X027960Y016255D02*
X041160Y016255D01*
X041160Y016136D02*
X027960Y016136D01*
X027960Y016018D02*
X041160Y016018D01*
X041160Y015899D02*
X027960Y015899D01*
X027960Y015781D02*
X041160Y015781D01*
X041160Y015662D02*
X027960Y015662D01*
X027960Y015544D02*
X041160Y015544D01*
X041160Y015425D02*
X027960Y015425D01*
X027960Y015307D02*
X041160Y015307D01*
X041160Y015188D02*
X027960Y015188D01*
X027960Y015070D02*
X041160Y015070D01*
X041160Y014951D02*
X027960Y014951D01*
X027960Y014833D02*
X041160Y014833D01*
X041160Y014714D02*
X027960Y014714D01*
X027960Y014596D02*
X041160Y014596D01*
X041160Y014477D02*
X027960Y014477D01*
X027960Y014359D02*
X041160Y014359D01*
X041160Y014240D02*
X027960Y014240D01*
X027960Y014122D02*
X041160Y014122D01*
X041160Y014003D02*
X027960Y014003D01*
X027960Y013885D02*
X041160Y013885D01*
X041160Y013766D02*
X027960Y013766D01*
X027960Y013648D02*
X041160Y013648D01*
X041160Y013529D02*
X027960Y013529D01*
X027960Y013411D02*
X041160Y013411D01*
X041160Y013292D02*
X027960Y013292D01*
X027960Y013174D02*
X041160Y013174D01*
X041160Y013055D02*
X027960Y013055D01*
X027960Y012937D02*
X041160Y012937D01*
X041160Y012818D02*
X027960Y012818D01*
X027960Y012700D02*
X041160Y012700D01*
X041160Y012581D02*
X027960Y012581D01*
X027960Y012463D02*
X041160Y012463D01*
X041160Y012344D02*
X027960Y012344D01*
X027960Y012226D02*
X041160Y012226D01*
X041160Y012107D02*
X027960Y012107D01*
X027960Y011989D02*
X041160Y011989D01*
X041160Y011870D02*
X027960Y011870D01*
X027960Y011752D02*
X041160Y011752D01*
X041160Y011633D02*
X027960Y011633D01*
X027960Y011515D02*
X041160Y011515D01*
X041160Y011396D02*
X027960Y011396D01*
X027960Y011278D02*
X041160Y011278D01*
X041160Y011159D02*
X027960Y011159D01*
X027960Y011041D02*
X041160Y011041D01*
X041160Y010922D02*
X027960Y010922D01*
X027960Y010804D02*
X041160Y010804D01*
X041160Y010685D02*
X027960Y010685D01*
X027960Y010567D02*
X041160Y010567D01*
X041160Y010448D02*
X027960Y010448D01*
X027960Y010330D02*
X041160Y010330D01*
X041160Y010211D02*
X027960Y010211D01*
X027960Y010093D02*
X041160Y010093D01*
X041160Y009974D02*
X027960Y009974D01*
X027960Y009856D02*
X041160Y009856D01*
X041160Y009737D02*
X027960Y009737D01*
X027960Y009619D02*
X041160Y009619D01*
X041160Y009500D02*
X027960Y009500D01*
X027960Y009382D02*
X041160Y009382D01*
X041160Y009263D02*
X027960Y009263D01*
X027960Y009145D02*
X041160Y009145D01*
X041160Y009026D02*
X027960Y009026D01*
X027960Y008908D02*
X041160Y008908D01*
X041160Y008789D02*
X027960Y008789D01*
X027960Y008671D02*
X041160Y008671D01*
X041160Y008552D02*
X027960Y008552D01*
X027960Y008434D02*
X041160Y008434D01*
X041160Y008315D02*
X027960Y008315D01*
X027960Y008197D02*
X041160Y008197D01*
X041160Y008078D02*
X027960Y008078D01*
X027960Y007960D02*
X041160Y007960D01*
X041160Y007841D02*
X027960Y007841D01*
X027960Y007723D02*
X041160Y007723D01*
X041160Y007604D02*
X027960Y007604D01*
X027960Y007486D02*
X041160Y007486D01*
X041160Y007367D02*
X028068Y007367D01*
X028186Y007249D02*
X041160Y007249D01*
X041160Y007130D02*
X028305Y007130D01*
X028423Y007012D02*
X041160Y007012D01*
X041160Y006893D02*
X028542Y006893D01*
X028660Y006775D02*
X041160Y006775D01*
X041160Y006656D02*
X028779Y006656D01*
X028897Y006538D02*
X041160Y006538D01*
X041160Y006419D02*
X029016Y006419D01*
X029134Y006301D02*
X041160Y006301D01*
X041160Y006182D02*
X029253Y006182D01*
X029371Y006064D02*
X041160Y006064D01*
X041160Y005945D02*
X029490Y005945D01*
X029608Y005827D02*
X041160Y005827D01*
X041160Y005708D02*
X029727Y005708D01*
X029845Y005590D02*
X041160Y005590D01*
X041160Y005471D02*
X029964Y005471D01*
X027260Y010460D02*
X026734Y010460D01*
X026776Y010347D01*
X026276Y010347D02*
X026276Y010944D01*
X026260Y010960D01*
X026776Y016547D02*
X026734Y016660D01*
X027260Y016660D01*
X026776Y022747D02*
X026734Y022860D01*
X027260Y022860D01*
X026776Y028947D02*
X026734Y029060D01*
X027260Y029060D01*
X027960Y030238D02*
X033719Y030238D01*
X033696Y030356D02*
X027960Y030356D01*
X027960Y030475D02*
X033715Y030475D01*
X033785Y030593D02*
X027960Y030593D01*
X026776Y035147D02*
X026734Y035260D01*
X027260Y035260D01*
X027960Y035452D02*
X033880Y035452D01*
X033746Y035570D02*
X027960Y035570D01*
X027960Y035689D02*
X033697Y035689D01*
X033696Y035807D02*
X027960Y035807D01*
X027960Y035926D02*
X033736Y035926D01*
X033836Y036044D02*
X027960Y036044D01*
X026776Y041347D02*
X026734Y041460D01*
X027260Y041460D01*
X027960Y041851D02*
X037418Y041851D01*
X037302Y041969D02*
X027960Y041969D01*
X027960Y042088D02*
X037253Y042088D01*
X037225Y042206D02*
X027960Y042206D01*
X027960Y042325D02*
X037225Y042325D01*
X037258Y042443D02*
X027960Y042443D01*
X027960Y042562D02*
X037310Y042562D01*
X037429Y042680D02*
X027960Y042680D01*
X026776Y047547D02*
X026734Y047660D01*
X027260Y047660D01*
X027960Y051331D02*
X041160Y051331D01*
X041160Y051449D02*
X027960Y051449D01*
X027960Y051568D02*
X041160Y051568D01*
X041160Y051686D02*
X027960Y051686D01*
X027960Y051805D02*
X041160Y051805D01*
X041160Y051923D02*
X027960Y051923D01*
X027960Y052042D02*
X041160Y052042D01*
X041160Y052160D02*
X027960Y052160D01*
X027960Y052279D02*
X041160Y052279D01*
X041160Y052397D02*
X027960Y052397D01*
X027960Y052516D02*
X041160Y052516D01*
X041160Y052634D02*
X027960Y052634D01*
X027960Y052753D02*
X041160Y052753D01*
X041160Y052871D02*
X027960Y052871D01*
X027960Y052990D02*
X041160Y052990D01*
X041160Y053108D02*
X027960Y053108D01*
X027260Y053860D02*
X026734Y053860D01*
X026776Y053747D01*
X041060Y049316D02*
X042304Y049316D01*
X042960Y049260D02*
X043060Y049360D01*
X043560Y049360D01*
X043660Y049260D01*
X043660Y046660D01*
X043560Y046560D01*
X041760Y046560D01*
X041560Y046760D01*
X041560Y047160D01*
X041760Y047360D01*
X042860Y047360D01*
X042960Y047460D01*
X042960Y049260D01*
X042960Y049198D02*
X043660Y049198D01*
X043660Y049079D02*
X042960Y049079D01*
X042960Y048961D02*
X043660Y048961D01*
X043660Y048842D02*
X042960Y048842D01*
X042960Y048724D02*
X043660Y048724D01*
X043660Y048605D02*
X042960Y048605D01*
X042960Y048487D02*
X043660Y048487D01*
X043660Y048368D02*
X042960Y048368D01*
X042960Y048250D02*
X043660Y048250D01*
X043660Y048131D02*
X042960Y048131D01*
X042960Y048013D02*
X043660Y048013D01*
X043660Y047894D02*
X042960Y047894D01*
X042960Y047776D02*
X043660Y047776D01*
X043660Y047657D02*
X042960Y047657D01*
X042960Y047539D02*
X043660Y047539D01*
X043660Y047420D02*
X042920Y047420D01*
X043660Y047302D02*
X041702Y047302D01*
X041583Y047183D02*
X043660Y047183D01*
X043660Y047065D02*
X041560Y047065D01*
X041560Y046946D02*
X043660Y046946D01*
X043660Y046828D02*
X041560Y046828D01*
X041611Y046709D02*
X043660Y046709D01*
X043591Y046591D02*
X041729Y046591D01*
X043360Y044760D02*
X042986Y044386D01*
X042986Y043987D01*
X043242Y043987D02*
X043260Y043969D01*
X043260Y043460D01*
X043060Y043260D01*
X042411Y043260D01*
X042160Y043511D01*
X043242Y043042D02*
X043510Y043310D01*
X043510Y043975D01*
X043498Y043987D01*
X043510Y043975D02*
X043510Y044310D01*
X043660Y044460D01*
X044902Y044460D01*
X045269Y044208D01*
X045860Y042760D02*
X044560Y042760D01*
X044260Y042460D01*
X044260Y039860D01*
X042360Y037960D01*
X042360Y036960D01*
X042960Y036360D01*
X043860Y036360D01*
X046160Y038660D01*
X046160Y042460D01*
X045860Y042760D01*
X045940Y042680D02*
X044480Y042680D01*
X044362Y042562D02*
X046058Y042562D01*
X046160Y042443D02*
X044260Y042443D01*
X044260Y042325D02*
X046160Y042325D01*
X046160Y042206D02*
X044260Y042206D01*
X044260Y042088D02*
X046160Y042088D01*
X046160Y041969D02*
X044260Y041969D01*
X044260Y041851D02*
X046160Y041851D01*
X046160Y041732D02*
X044260Y041732D01*
X044260Y041614D02*
X046160Y041614D01*
X046160Y041495D02*
X044260Y041495D01*
X044260Y041377D02*
X046160Y041377D01*
X046160Y041258D02*
X044260Y041258D01*
X044260Y041140D02*
X046160Y041140D01*
X046160Y041021D02*
X044260Y041021D01*
X044260Y040903D02*
X046160Y040903D01*
X046160Y040784D02*
X044260Y040784D01*
X044260Y040666D02*
X046160Y040666D01*
X046160Y040547D02*
X044260Y040547D01*
X044260Y040429D02*
X046160Y040429D01*
X046160Y040310D02*
X044260Y040310D01*
X044260Y040192D02*
X046160Y040192D01*
X046160Y040073D02*
X044260Y040073D01*
X044260Y039955D02*
X046160Y039955D01*
X046160Y039836D02*
X044236Y039836D01*
X044118Y039718D02*
X046160Y039718D01*
X046160Y039599D02*
X043999Y039599D01*
X043881Y039481D02*
X046160Y039481D01*
X046160Y039362D02*
X043762Y039362D01*
X043644Y039244D02*
X046160Y039244D01*
X046160Y039125D02*
X043525Y039125D01*
X043407Y039007D02*
X046160Y039007D01*
X046160Y038888D02*
X043288Y038888D01*
X043170Y038770D02*
X046160Y038770D01*
X046151Y038651D02*
X043051Y038651D01*
X042933Y038533D02*
X046033Y038533D01*
X045914Y038414D02*
X042814Y038414D01*
X042696Y038296D02*
X045796Y038296D01*
X045677Y038177D02*
X042577Y038177D01*
X042459Y038059D02*
X045559Y038059D01*
X045440Y037940D02*
X042360Y037940D01*
X042360Y037822D02*
X045322Y037822D01*
X045203Y037703D02*
X042360Y037703D01*
X042360Y037585D02*
X045085Y037585D01*
X044966Y037466D02*
X042360Y037466D01*
X042360Y037348D02*
X044848Y037348D01*
X044729Y037229D02*
X042360Y037229D01*
X042360Y037111D02*
X044611Y037111D01*
X044492Y036992D02*
X042360Y036992D01*
X042446Y036874D02*
X044374Y036874D01*
X044255Y036755D02*
X042565Y036755D01*
X042683Y036637D02*
X044137Y036637D01*
X044018Y036518D02*
X042802Y036518D01*
X042920Y036400D02*
X043900Y036400D01*
X045560Y039560D02*
X045809Y039560D01*
X046911Y039560D02*
X047160Y039560D01*
X049360Y037360D01*
X051914Y042254D02*
X052586Y042254D01*
X052842Y042254D02*
X052842Y043042D01*
X053110Y043310D01*
X053110Y043975D01*
X053098Y043987D01*
X053098Y044298D01*
X053260Y044460D01*
X054502Y044460D01*
X054869Y044208D01*
X055460Y042760D02*
X054160Y042760D01*
X053860Y042460D01*
X053860Y037960D01*
X055460Y036360D01*
X059060Y036360D01*
X059460Y036760D01*
X059460Y037960D01*
X059060Y038360D01*
X056460Y038360D01*
X055760Y039060D01*
X055760Y042460D01*
X055460Y042760D01*
X055540Y042680D02*
X054080Y042680D01*
X053962Y042562D02*
X055658Y042562D01*
X055760Y042443D02*
X053860Y042443D01*
X053860Y042325D02*
X055760Y042325D01*
X055760Y042206D02*
X053860Y042206D01*
X053860Y042088D02*
X055760Y042088D01*
X055760Y041969D02*
X053860Y041969D01*
X053860Y041851D02*
X055760Y041851D01*
X055760Y041732D02*
X053860Y041732D01*
X053860Y041614D02*
X055760Y041614D01*
X055760Y041495D02*
X053860Y041495D01*
X053860Y041377D02*
X055760Y041377D01*
X055760Y041258D02*
X053860Y041258D01*
X053860Y041140D02*
X055760Y041140D01*
X055760Y041021D02*
X053860Y041021D01*
X053860Y040903D02*
X055760Y040903D01*
X055760Y040784D02*
X053860Y040784D01*
X053860Y040666D02*
X055760Y040666D01*
X055760Y040547D02*
X053860Y040547D01*
X053860Y040429D02*
X055760Y040429D01*
X055760Y040310D02*
X053860Y040310D01*
X053860Y040192D02*
X055760Y040192D01*
X055760Y040073D02*
X053860Y040073D01*
X053860Y039955D02*
X055760Y039955D01*
X055760Y039836D02*
X053860Y039836D01*
X053860Y039718D02*
X055760Y039718D01*
X055760Y039599D02*
X053860Y039599D01*
X053860Y039481D02*
X055760Y039481D01*
X055760Y039362D02*
X053860Y039362D01*
X053860Y039244D02*
X055760Y039244D01*
X055760Y039125D02*
X053860Y039125D01*
X053860Y039007D02*
X055813Y039007D01*
X055932Y038888D02*
X053860Y038888D01*
X053860Y038770D02*
X056050Y038770D01*
X056169Y038651D02*
X053860Y038651D01*
X053860Y038533D02*
X056287Y038533D01*
X056406Y038414D02*
X053860Y038414D01*
X053860Y038296D02*
X059124Y038296D01*
X059243Y038177D02*
X053860Y038177D01*
X053860Y038059D02*
X059361Y038059D01*
X059460Y037940D02*
X053880Y037940D01*
X053998Y037822D02*
X059460Y037822D01*
X059460Y037703D02*
X054117Y037703D01*
X054235Y037585D02*
X059460Y037585D01*
X059460Y037466D02*
X054354Y037466D01*
X054472Y037348D02*
X059460Y037348D01*
X059460Y037229D02*
X054591Y037229D01*
X054709Y037111D02*
X059460Y037111D01*
X059460Y036992D02*
X054828Y036992D01*
X054946Y036874D02*
X059460Y036874D01*
X059455Y036755D02*
X055065Y036755D01*
X055183Y036637D02*
X059337Y036637D01*
X059218Y036518D02*
X055302Y036518D01*
X055420Y036400D02*
X059100Y036400D01*
X058510Y037360D02*
X060705Y039555D01*
X060951Y039555D01*
X062054Y039555D02*
X062315Y039555D01*
X064510Y037360D01*
X059631Y032489D02*
X040160Y032489D01*
X040160Y032371D02*
X059749Y032371D01*
X059868Y032252D02*
X040160Y032252D01*
X040160Y032134D02*
X059986Y032134D01*
X060105Y032015D02*
X040160Y032015D01*
X040160Y031897D02*
X060160Y031897D01*
X060160Y031960D02*
X060160Y016560D01*
X059260Y015660D01*
X040160Y015660D01*
X040160Y032960D01*
X059160Y032960D01*
X060160Y031960D01*
X060160Y031778D02*
X040160Y031778D01*
X040160Y031660D02*
X060160Y031660D01*
X060160Y031541D02*
X040160Y031541D01*
X040160Y031423D02*
X060160Y031423D01*
X060160Y031304D02*
X040160Y031304D01*
X040160Y031186D02*
X060160Y031186D01*
X060160Y031067D02*
X040160Y031067D01*
X040160Y030949D02*
X060160Y030949D01*
X060160Y030830D02*
X040160Y030830D01*
X040160Y030712D02*
X060160Y030712D01*
X060160Y030593D02*
X040160Y030593D01*
X040160Y030475D02*
X060160Y030475D01*
X060160Y030356D02*
X040160Y030356D01*
X040160Y030238D02*
X060160Y030238D01*
X060160Y030119D02*
X040160Y030119D01*
X040160Y030001D02*
X060160Y030001D01*
X060160Y029882D02*
X040160Y029882D01*
X040160Y029764D02*
X060160Y029764D01*
X060160Y029645D02*
X040160Y029645D01*
X040160Y029527D02*
X060160Y029527D01*
X060160Y029408D02*
X040160Y029408D01*
X040160Y029290D02*
X060160Y029290D01*
X060160Y029171D02*
X040160Y029171D01*
X040160Y029053D02*
X060160Y029053D01*
X060160Y028934D02*
X040160Y028934D01*
X040160Y028816D02*
X060160Y028816D01*
X060160Y028697D02*
X040160Y028697D01*
X040160Y028579D02*
X060160Y028579D01*
X060160Y028460D02*
X040160Y028460D01*
X040160Y028342D02*
X060160Y028342D01*
X060160Y028223D02*
X040160Y028223D01*
X040160Y028105D02*
X060160Y028105D01*
X060160Y027986D02*
X040160Y027986D01*
X040160Y027868D02*
X060160Y027868D01*
X060160Y027749D02*
X040160Y027749D01*
X040160Y027631D02*
X060160Y027631D01*
X060160Y027512D02*
X040160Y027512D01*
X040160Y027394D02*
X060160Y027394D01*
X060160Y027275D02*
X040160Y027275D01*
X040160Y027157D02*
X060160Y027157D01*
X060160Y027038D02*
X040160Y027038D01*
X040160Y026920D02*
X060160Y026920D01*
X060160Y026801D02*
X040160Y026801D01*
X040160Y026683D02*
X060160Y026683D01*
X060160Y026564D02*
X040160Y026564D01*
X040160Y026446D02*
X060160Y026446D01*
X060160Y026327D02*
X040160Y026327D01*
X040160Y026209D02*
X060160Y026209D01*
X060160Y026090D02*
X040160Y026090D01*
X040160Y025972D02*
X060160Y025972D01*
X060160Y025853D02*
X040160Y025853D01*
X040160Y025735D02*
X060160Y025735D01*
X060160Y025616D02*
X040160Y025616D01*
X040160Y025498D02*
X060160Y025498D01*
X060160Y025379D02*
X040160Y025379D01*
X040160Y025261D02*
X060160Y025261D01*
X060160Y025142D02*
X040160Y025142D01*
X040160Y025024D02*
X060160Y025024D01*
X060160Y024905D02*
X040160Y024905D01*
X040160Y024787D02*
X060160Y024787D01*
X060160Y024668D02*
X040160Y024668D01*
X040160Y024550D02*
X060160Y024550D01*
X060160Y024431D02*
X040160Y024431D01*
X040160Y024313D02*
X060160Y024313D01*
X060160Y024194D02*
X040160Y024194D01*
X040160Y024076D02*
X060160Y024076D01*
X060160Y023957D02*
X040160Y023957D01*
X040160Y023839D02*
X060160Y023839D01*
X060160Y023720D02*
X040160Y023720D01*
X040160Y023602D02*
X060160Y023602D01*
X060160Y023483D02*
X040160Y023483D01*
X040160Y023365D02*
X060160Y023365D01*
X060160Y023246D02*
X040160Y023246D01*
X040160Y023128D02*
X060160Y023128D01*
X060160Y023009D02*
X040160Y023009D01*
X040160Y022891D02*
X060160Y022891D01*
X060160Y022772D02*
X040160Y022772D01*
X040160Y022654D02*
X060160Y022654D01*
X060160Y022535D02*
X040160Y022535D01*
X040160Y022417D02*
X060160Y022417D01*
X060160Y022298D02*
X040160Y022298D01*
X040160Y022180D02*
X060160Y022180D01*
X060160Y022061D02*
X040160Y022061D01*
X040160Y021943D02*
X060160Y021943D01*
X060160Y021824D02*
X040160Y021824D01*
X040160Y021706D02*
X060160Y021706D01*
X060160Y021587D02*
X040160Y021587D01*
X040160Y021469D02*
X060160Y021469D01*
X060160Y021350D02*
X040160Y021350D01*
X040160Y021232D02*
X060160Y021232D01*
X060160Y021113D02*
X040160Y021113D01*
X040160Y020995D02*
X060160Y020995D01*
X060160Y020876D02*
X040160Y020876D01*
X040160Y020758D02*
X060160Y020758D01*
X060160Y020639D02*
X040160Y020639D01*
X040160Y020521D02*
X060160Y020521D01*
X060160Y020402D02*
X040160Y020402D01*
X040160Y020284D02*
X060160Y020284D01*
X060160Y020165D02*
X040160Y020165D01*
X040160Y020047D02*
X060160Y020047D01*
X060160Y019928D02*
X040160Y019928D01*
X040160Y019810D02*
X060160Y019810D01*
X060160Y019691D02*
X040160Y019691D01*
X040160Y019573D02*
X060160Y019573D01*
X060160Y019454D02*
X040160Y019454D01*
X040160Y019336D02*
X060160Y019336D01*
X060160Y019217D02*
X040160Y019217D01*
X040160Y019099D02*
X060160Y019099D01*
X060160Y018980D02*
X040160Y018980D01*
X040160Y018862D02*
X060160Y018862D01*
X060160Y018743D02*
X040160Y018743D01*
X040160Y018625D02*
X060160Y018625D01*
X060160Y018506D02*
X040160Y018506D01*
X040160Y018388D02*
X060160Y018388D01*
X060160Y018269D02*
X040160Y018269D01*
X040160Y018151D02*
X060160Y018151D01*
X060160Y018032D02*
X040160Y018032D01*
X040160Y017914D02*
X060160Y017914D01*
X060160Y017795D02*
X049600Y017795D01*
X049640Y017779D02*
X049458Y017854D01*
X049262Y017854D01*
X049080Y017779D01*
X048941Y017640D01*
X048866Y017458D01*
X048866Y017262D01*
X048941Y017080D01*
X049080Y016941D01*
X049262Y016866D01*
X049458Y016866D01*
X049640Y016941D01*
X049779Y017080D01*
X049854Y017262D01*
X049854Y017458D01*
X049779Y017640D01*
X049640Y017779D01*
X049742Y017677D02*
X060160Y017677D01*
X060160Y017558D02*
X049813Y017558D01*
X049854Y017440D02*
X060160Y017440D01*
X060160Y017321D02*
X049854Y017321D01*
X049829Y017203D02*
X060160Y017203D01*
X060160Y017084D02*
X049780Y017084D01*
X049664Y016966D02*
X060160Y016966D01*
X060160Y016847D02*
X040160Y016847D01*
X040160Y016729D02*
X060160Y016729D01*
X060160Y016610D02*
X040160Y016610D01*
X040160Y016492D02*
X060092Y016492D01*
X059973Y016373D02*
X040160Y016373D01*
X040160Y016255D02*
X059855Y016255D01*
X059736Y016136D02*
X040160Y016136D01*
X040160Y016018D02*
X059618Y016018D01*
X059499Y015899D02*
X040160Y015899D01*
X040160Y015781D02*
X059381Y015781D01*
X059262Y015662D02*
X040160Y015662D01*
X040160Y016966D02*
X046056Y016966D01*
X046080Y016941D02*
X046262Y016866D01*
X046458Y016866D01*
X046640Y016941D01*
X046779Y017080D01*
X046854Y017262D01*
X046854Y017458D01*
X046779Y017640D01*
X046640Y017779D01*
X046458Y017854D01*
X046262Y017854D01*
X046080Y017779D01*
X045941Y017640D01*
X045866Y017458D01*
X045866Y017262D01*
X045941Y017080D01*
X046080Y016941D01*
X045940Y017084D02*
X040160Y017084D01*
X040160Y017203D02*
X045891Y017203D01*
X045866Y017321D02*
X040160Y017321D01*
X040160Y017440D02*
X045866Y017440D01*
X045907Y017558D02*
X040160Y017558D01*
X040160Y017677D02*
X045978Y017677D01*
X046120Y017795D02*
X040160Y017795D01*
X046600Y017795D02*
X049120Y017795D01*
X048978Y017677D02*
X046742Y017677D01*
X046813Y017558D02*
X048907Y017558D01*
X048866Y017440D02*
X046854Y017440D01*
X046854Y017321D02*
X048866Y017321D01*
X048891Y017203D02*
X046829Y017203D01*
X046780Y017084D02*
X048940Y017084D01*
X049056Y016966D02*
X046664Y016966D01*
X040160Y032608D02*
X059512Y032608D01*
X059394Y032726D02*
X040160Y032726D01*
X040160Y032845D02*
X059275Y032845D01*
X054054Y042254D02*
X053354Y042254D01*
X054054Y042254D02*
X054060Y042260D01*
X052842Y043442D02*
X052842Y043987D01*
X052610Y043987D02*
X052610Y047060D01*
X052586Y043987D02*
X052610Y043987D01*
X052842Y043442D02*
X052660Y043260D01*
X052011Y043260D01*
X051760Y043511D01*
X051760Y042409D02*
X051914Y042254D01*
X047985Y043310D02*
X046535Y044760D01*
X043360Y044760D01*
X043242Y043042D02*
X043242Y042254D01*
X042986Y042254D02*
X042314Y042254D01*
X042160Y042409D01*
X043754Y042254D02*
X044454Y042254D01*
X044460Y042260D01*
X044160Y046560D02*
X044060Y046660D01*
X044060Y049260D01*
X044160Y049360D01*
X044760Y049360D01*
X044860Y049260D01*
X044860Y046660D01*
X044760Y046560D01*
X044160Y046560D01*
X044129Y046591D02*
X044791Y046591D01*
X044860Y046709D02*
X044060Y046709D01*
X044060Y046828D02*
X044860Y046828D01*
X044860Y046946D02*
X044060Y046946D01*
X044060Y047065D02*
X044860Y047065D01*
X044860Y047183D02*
X044060Y047183D01*
X044060Y047302D02*
X044860Y047302D01*
X044860Y047420D02*
X044060Y047420D01*
X044060Y047539D02*
X044860Y047539D01*
X044860Y047657D02*
X044060Y047657D01*
X044060Y047776D02*
X044860Y047776D01*
X044860Y047894D02*
X044060Y047894D01*
X044060Y048013D02*
X044860Y048013D01*
X044860Y048131D02*
X044060Y048131D01*
X044060Y048250D02*
X044860Y048250D01*
X044860Y048368D02*
X044060Y048368D01*
X044060Y048487D02*
X044860Y048487D01*
X044860Y048605D02*
X044060Y048605D01*
X044060Y048724D02*
X044860Y048724D01*
X044860Y048842D02*
X044060Y048842D01*
X044060Y048961D02*
X044860Y048961D01*
X044860Y049079D02*
X044060Y049079D01*
X044060Y049198D02*
X044860Y049198D01*
X044804Y049316D02*
X044116Y049316D01*
X043604Y049316D02*
X043016Y049316D01*
X042760Y058000D02*
X043420Y058000D01*
X043460Y058010D01*
X042760Y059120D02*
X042260Y059120D01*
X042260Y059760D01*
X042260Y059120D02*
X041760Y059120D01*
X046260Y068460D02*
X043260Y069609D01*
X042260Y069609D01*
X041260Y069609D01*
X040260Y069609D01*
X039260Y069609D01*
X038260Y069609D01*
X037260Y069609D01*
X036260Y069609D01*
X035260Y069609D01*
X034260Y069609D01*
X034320Y070651D02*
X034320Y070771D01*
X035200Y070771D01*
X035200Y070651D01*
X034774Y070651D01*
X034320Y070651D01*
X034320Y070765D02*
X035200Y070765D01*
X035200Y070771D02*
X035200Y071186D01*
X034885Y071186D01*
X034844Y071175D01*
X034807Y071154D01*
X034778Y071124D01*
X034760Y071094D01*
X034742Y071124D01*
X034713Y071154D01*
X034676Y071175D01*
X034635Y071186D01*
X034320Y071186D01*
X034320Y070771D01*
X034200Y070771D01*
X034200Y071186D01*
X033885Y071186D01*
X033860Y071180D01*
X033860Y071560D01*
X043660Y071560D01*
X043660Y071180D01*
X043635Y071186D01*
X043320Y071186D01*
X043320Y070771D01*
X043200Y070771D01*
X043200Y070651D01*
X042320Y070651D01*
X042320Y070771D01*
X042746Y070771D01*
X043200Y070771D01*
X043200Y071186D01*
X042885Y071186D01*
X042844Y071175D01*
X042807Y071154D01*
X042778Y071124D01*
X042760Y071094D01*
X042742Y071124D01*
X042713Y071154D01*
X042676Y071175D01*
X042635Y071186D01*
X042320Y071186D01*
X042320Y070771D01*
X042200Y070771D01*
X042200Y070651D01*
X041746Y070651D01*
X041320Y070651D01*
X041320Y070771D01*
X042200Y070771D01*
X042200Y071186D01*
X041885Y071186D01*
X041844Y071175D01*
X041807Y071154D01*
X041778Y071124D01*
X041760Y071094D01*
X041742Y071124D01*
X041713Y071154D01*
X041676Y071175D01*
X041635Y071186D01*
X041320Y071186D01*
X041320Y070771D01*
X041200Y070771D01*
X041200Y070651D01*
X040774Y070651D01*
X040320Y070651D01*
X040320Y070771D01*
X041200Y070771D01*
X041200Y071186D01*
X040885Y071186D01*
X040844Y071175D01*
X040807Y071154D01*
X040778Y071124D01*
X040760Y071094D01*
X040742Y071124D01*
X040713Y071154D01*
X040676Y071175D01*
X040635Y071186D01*
X040320Y071186D01*
X040320Y070771D01*
X040200Y070771D01*
X040200Y070651D01*
X039320Y070651D01*
X039320Y070771D01*
X039746Y070771D01*
X040200Y070771D01*
X040200Y071186D01*
X039885Y071186D01*
X039844Y071175D01*
X039807Y071154D01*
X039778Y071124D01*
X039760Y071094D01*
X039742Y071124D01*
X039713Y071154D01*
X039676Y071175D01*
X039635Y071186D01*
X039320Y071186D01*
X039320Y070771D01*
X039200Y070771D01*
X039200Y070651D01*
X038774Y070651D01*
X038320Y070651D01*
X038320Y070771D01*
X039200Y070771D01*
X039200Y071186D01*
X038885Y071186D01*
X038844Y071175D01*
X038807Y071154D01*
X038778Y071124D01*
X038760Y071094D01*
X038742Y071124D01*
X038713Y071154D01*
X038676Y071175D01*
X038635Y071186D01*
X038320Y071186D01*
X038320Y070771D01*
X038200Y070771D01*
X038200Y070651D01*
X037320Y070651D01*
X037320Y070771D01*
X037746Y070771D01*
X038200Y070771D01*
X038200Y071186D01*
X037885Y071186D01*
X037844Y071175D01*
X037807Y071154D01*
X037778Y071124D01*
X037760Y071094D01*
X037742Y071124D01*
X037713Y071154D01*
X037676Y071175D01*
X037635Y071186D01*
X037320Y071186D01*
X037320Y070771D01*
X037200Y070771D01*
X037200Y070651D01*
X036774Y070651D01*
X036320Y070651D01*
X036320Y070771D01*
X037200Y070771D01*
X037200Y071186D01*
X036885Y071186D01*
X036844Y071175D01*
X036807Y071154D01*
X036778Y071124D01*
X036760Y071094D01*
X036742Y071124D01*
X036713Y071154D01*
X036676Y071175D01*
X036635Y071186D01*
X036320Y071186D01*
X036320Y070771D01*
X036200Y070771D01*
X036200Y070651D01*
X035320Y070651D01*
X035320Y070771D01*
X035746Y070771D01*
X036200Y070771D01*
X036200Y071186D01*
X035885Y071186D01*
X035844Y071175D01*
X035807Y071154D01*
X035778Y071124D01*
X035760Y071094D01*
X035742Y071124D01*
X035713Y071154D01*
X035676Y071175D01*
X035635Y071186D01*
X035320Y071186D01*
X035320Y070771D01*
X035200Y070771D01*
X035200Y070883D02*
X035320Y070883D01*
X035320Y070765D02*
X036200Y070765D01*
X036200Y070883D02*
X036320Y070883D01*
X036320Y070765D02*
X037200Y070765D01*
X037200Y070883D02*
X037320Y070883D01*
X037320Y070765D02*
X038200Y070765D01*
X038200Y070883D02*
X038320Y070883D01*
X038320Y070765D02*
X039200Y070765D01*
X039200Y070883D02*
X039320Y070883D01*
X039320Y070765D02*
X040200Y070765D01*
X040200Y070883D02*
X040320Y070883D01*
X040320Y070765D02*
X041200Y070765D01*
X041200Y070883D02*
X041320Y070883D01*
X041320Y070765D02*
X042200Y070765D01*
X042200Y070883D02*
X042320Y070883D01*
X042320Y070765D02*
X043200Y070765D01*
X043200Y070883D02*
X043320Y070883D01*
X043320Y071002D02*
X043200Y071002D01*
X043200Y071120D02*
X043320Y071120D01*
X043660Y071239D02*
X033860Y071239D01*
X033860Y071357D02*
X043660Y071357D01*
X043660Y071476D02*
X033860Y071476D01*
X034200Y071120D02*
X034320Y071120D01*
X034320Y071002D02*
X034200Y071002D01*
X034200Y070883D02*
X034320Y070883D01*
X034745Y071120D02*
X034775Y071120D01*
X035200Y071120D02*
X035320Y071120D01*
X035320Y071002D02*
X035200Y071002D01*
X035745Y071120D02*
X035775Y071120D01*
X036200Y071120D02*
X036320Y071120D01*
X036320Y071002D02*
X036200Y071002D01*
X036745Y071120D02*
X036775Y071120D01*
X037200Y071120D02*
X037320Y071120D01*
X037320Y071002D02*
X037200Y071002D01*
X037745Y071120D02*
X037775Y071120D01*
X038200Y071120D02*
X038320Y071120D01*
X038320Y071002D02*
X038200Y071002D01*
X038745Y071120D02*
X038775Y071120D01*
X039200Y071120D02*
X039320Y071120D01*
X039320Y071002D02*
X039200Y071002D01*
X039745Y071120D02*
X039775Y071120D01*
X040200Y071120D02*
X040320Y071120D01*
X040320Y071002D02*
X040200Y071002D01*
X040745Y071120D02*
X040775Y071120D01*
X041200Y071120D02*
X041320Y071120D01*
X041320Y071002D02*
X041200Y071002D01*
X041745Y071120D02*
X041775Y071120D01*
X042200Y071120D02*
X042320Y071120D01*
X042320Y071002D02*
X042200Y071002D01*
X042745Y071120D02*
X042775Y071120D01*
X053409Y074960D02*
X053410Y074960D01*
X053409Y074960D02*
X053460Y075011D01*
X053460Y075760D01*
X054360Y076660D01*
X056260Y076660D01*
X056710Y076210D01*
X056710Y075935D01*
X056210Y075935D02*
X056210Y076110D01*
X055960Y076360D01*
X054860Y076360D01*
X054460Y075960D01*
X054460Y075011D01*
X054511Y074960D01*
X054510Y074960D01*
X055210Y075159D02*
X055210Y075935D01*
X055710Y075935D02*
X055710Y075761D01*
X056511Y074960D01*
X056510Y074960D01*
X055410Y074960D02*
X055409Y074960D01*
X055210Y075159D01*
X055220Y077780D02*
X055210Y078010D01*
X055210Y078185D01*
X056210Y078185D02*
X056220Y078195D01*
X056710Y078185D02*
X056710Y077790D01*
X056720Y077780D01*
X059160Y065160D02*
X059160Y063960D01*
X059960Y063160D01*
X060209Y063160D01*
X060760Y062609D02*
X061311Y063160D01*
X062092Y063160D01*
X062166Y063234D01*
X062460Y062760D02*
X062186Y062486D01*
X062166Y062486D01*
X062166Y061934D02*
X062993Y062761D01*
X062993Y062860D01*
X063360Y063110D02*
X063530Y063110D01*
X063556Y063136D01*
X063360Y063110D02*
X062410Y064060D01*
X062300Y064060D01*
X062290Y064070D01*
X061305Y064070D01*
X060185Y064070D02*
X060160Y064095D01*
X060160Y065160D01*
X060760Y062609D02*
X060760Y061760D01*
X060360Y061360D01*
X060209Y061360D01*
X060209Y062260D02*
X059460Y062260D01*
X061311Y062260D02*
X061460Y062260D01*
X061786Y061934D01*
X062166Y061934D01*
X062166Y061366D02*
X063360Y062560D01*
X063492Y062560D01*
X063560Y062560D01*
X063560Y062160D01*
X063492Y062560D02*
X063556Y062624D01*
X063724Y062624D01*
X063960Y062860D01*
X063960Y063520D01*
X063420Y064060D01*
X064284Y062880D02*
X068140Y062880D01*
X068860Y062160D01*
X068860Y017660D01*
X067360Y016160D01*
X062710Y016160D01*
X061510Y017360D01*
X065710Y013105D02*
X065209Y012604D01*
X065209Y011510D01*
X066311Y011510D02*
X067319Y011510D01*
X068501Y011510D02*
X068501Y011724D01*
X065710Y014515D01*
X062960Y061060D02*
X062960Y061527D01*
X062993Y061560D01*
X062166Y061366D02*
X062166Y061186D01*
X061485Y061186D01*
X061311Y061360D01*
D45*
X043460Y058010D03*
D46*
X044721Y059149D02*
X053071Y059149D01*
X053269Y058951D02*
X044919Y058951D01*
X045118Y058752D02*
X053468Y058752D01*
X053666Y058554D02*
X045316Y058554D01*
X045515Y058355D02*
X053865Y058355D01*
X054063Y058157D02*
X045713Y058157D01*
X045912Y057958D02*
X054262Y057958D01*
X054460Y057760D02*
X048141Y057760D01*
X048140Y057760D02*
X046110Y057760D01*
X044110Y059760D01*
X043218Y059760D01*
X043183Y059775D01*
X042755Y059775D01*
X042755Y059858D01*
X042680Y060040D01*
X042540Y060180D01*
X042358Y060255D01*
X042162Y060255D01*
X041980Y060180D01*
X041840Y060040D01*
X041765Y059858D01*
X041765Y059775D01*
X041337Y059775D01*
X041302Y059760D01*
X028060Y059760D01*
X027580Y060240D01*
X027580Y060240D01*
X027440Y060380D01*
X026240Y061580D01*
X026240Y062460D01*
X027271Y063491D01*
X027307Y063506D01*
X027403Y063601D01*
X027418Y063638D01*
X028040Y064260D01*
X047960Y064260D01*
X060260Y051960D01*
X060260Y041460D01*
X056210Y041460D01*
X056210Y044860D01*
X055534Y044860D01*
X055528Y044863D01*
X054532Y044863D01*
X054507Y044868D01*
X054479Y044863D01*
X054211Y044863D01*
X054205Y044860D01*
X051060Y044860D01*
X051060Y041460D01*
X046610Y041460D01*
X046610Y050156D01*
X046690Y049963D01*
X046913Y049740D01*
X047203Y049620D01*
X047517Y049620D01*
X047807Y049740D01*
X048030Y049963D01*
X048150Y050253D01*
X048150Y050567D01*
X048030Y050857D01*
X047807Y051080D01*
X047517Y051200D01*
X047203Y051200D01*
X046913Y051080D01*
X046690Y050857D01*
X046610Y050664D01*
X046610Y053156D01*
X046690Y052963D01*
X046913Y052740D01*
X047203Y052620D01*
X047517Y052620D01*
X047807Y052740D01*
X048030Y052963D01*
X048150Y053253D01*
X048150Y053567D01*
X048030Y053857D01*
X047807Y054080D01*
X047517Y054200D01*
X047203Y054200D01*
X046913Y054080D01*
X046690Y053857D01*
X046610Y053664D01*
X046610Y055060D01*
X048140Y055060D01*
X048287Y055121D01*
X048687Y055521D01*
X048799Y055633D01*
X048860Y055780D01*
X048860Y057040D01*
X048799Y057187D01*
X048399Y057587D01*
X048287Y057699D01*
X048140Y057760D01*
X048425Y057561D02*
X054659Y057561D01*
X054857Y057363D02*
X048623Y057363D01*
X048808Y057164D02*
X055056Y057164D01*
X055254Y056966D02*
X048860Y056966D01*
X048860Y056767D02*
X055453Y056767D01*
X055651Y056569D02*
X048860Y056569D01*
X048860Y056370D02*
X055850Y056370D01*
X056048Y056172D02*
X048860Y056172D01*
X048860Y055973D02*
X056247Y055973D01*
X056445Y055775D02*
X048858Y055775D01*
X048742Y055576D02*
X056644Y055576D01*
X056842Y055378D02*
X048543Y055378D01*
X048345Y055179D02*
X057041Y055179D01*
X057239Y054981D02*
X046610Y054981D01*
X046610Y054782D02*
X057438Y054782D01*
X057636Y054584D02*
X046610Y054584D01*
X046610Y054385D02*
X057835Y054385D01*
X058033Y054187D02*
X047550Y054187D01*
X047170Y054187D02*
X046610Y054187D01*
X046610Y053988D02*
X046821Y053988D01*
X046662Y053790D02*
X046610Y053790D01*
X046610Y052996D02*
X046677Y052996D01*
X046610Y052797D02*
X046856Y052797D01*
X046610Y052599D02*
X059621Y052599D01*
X059423Y052797D02*
X047864Y052797D01*
X048043Y052996D02*
X059224Y052996D01*
X059026Y053194D02*
X048126Y053194D01*
X048150Y053393D02*
X058827Y053393D01*
X058629Y053591D02*
X048140Y053591D01*
X048058Y053790D02*
X058430Y053790D01*
X058232Y053988D02*
X047899Y053988D01*
X046610Y052400D02*
X059820Y052400D01*
X060018Y052202D02*
X046610Y052202D01*
X046610Y052003D02*
X060217Y052003D01*
X060260Y051805D02*
X046610Y051805D01*
X046610Y051606D02*
X060260Y051606D01*
X060260Y051408D02*
X046610Y051408D01*
X046610Y051209D02*
X060260Y051209D01*
X060260Y051011D02*
X047877Y051011D01*
X048049Y050812D02*
X060260Y050812D01*
X060260Y050614D02*
X048131Y050614D01*
X048150Y050415D02*
X060260Y050415D01*
X060260Y050217D02*
X048135Y050217D01*
X048053Y050018D02*
X060260Y050018D01*
X060260Y049820D02*
X047887Y049820D01*
X047520Y049621D02*
X060260Y049621D01*
X060260Y049423D02*
X046610Y049423D01*
X046610Y049621D02*
X047200Y049621D01*
X046833Y049820D02*
X046610Y049820D01*
X046610Y050018D02*
X046667Y050018D01*
X046671Y050812D02*
X046610Y050812D01*
X046610Y051011D02*
X046843Y051011D01*
X046610Y049224D02*
X060260Y049224D01*
X060260Y049026D02*
X046610Y049026D01*
X046610Y048827D02*
X060260Y048827D01*
X060260Y048629D02*
X046610Y048629D01*
X046610Y048430D02*
X060260Y048430D01*
X060260Y048232D02*
X046610Y048232D01*
X046610Y048033D02*
X060260Y048033D01*
X060260Y047835D02*
X046610Y047835D01*
X046610Y047636D02*
X060260Y047636D01*
X060260Y047438D02*
X046610Y047438D01*
X046610Y047239D02*
X060260Y047239D01*
X060260Y047041D02*
X046610Y047041D01*
X046610Y046842D02*
X060260Y046842D01*
X060260Y046644D02*
X046610Y046644D01*
X046610Y046445D02*
X060260Y046445D01*
X060260Y046247D02*
X046610Y046247D01*
X046610Y046048D02*
X060260Y046048D01*
X060260Y045850D02*
X046610Y045850D01*
X046610Y045651D02*
X060260Y045651D01*
X060260Y045453D02*
X046610Y045453D01*
X046610Y045254D02*
X060260Y045254D01*
X060260Y045056D02*
X046610Y045056D01*
X046610Y044857D02*
X051060Y044857D01*
X051060Y044659D02*
X046610Y044659D01*
X046610Y044460D02*
X051060Y044460D01*
X051060Y044262D02*
X046610Y044262D01*
X046610Y044063D02*
X051060Y044063D01*
X051060Y043865D02*
X046610Y043865D01*
X046610Y043666D02*
X051060Y043666D01*
X051060Y043468D02*
X046610Y043468D01*
X046610Y043269D02*
X051060Y043269D01*
X051060Y043071D02*
X046610Y043071D01*
X046610Y042872D02*
X051060Y042872D01*
X051060Y042674D02*
X046610Y042674D01*
X046610Y042475D02*
X051060Y042475D01*
X051060Y042277D02*
X046610Y042277D01*
X046610Y042078D02*
X051060Y042078D01*
X051060Y041880D02*
X046610Y041880D01*
X046610Y041681D02*
X051060Y041681D01*
X051060Y041483D02*
X046610Y041483D01*
X056210Y041483D02*
X060260Y041483D01*
X060260Y041681D02*
X056210Y041681D01*
X056210Y041880D02*
X060260Y041880D01*
X060260Y042078D02*
X056210Y042078D01*
X056210Y042277D02*
X060260Y042277D01*
X060260Y042475D02*
X056210Y042475D01*
X056210Y042674D02*
X060260Y042674D01*
X060260Y042872D02*
X056210Y042872D01*
X056210Y043071D02*
X060260Y043071D01*
X060260Y043269D02*
X056210Y043269D01*
X056210Y043468D02*
X060260Y043468D01*
X060260Y043666D02*
X056210Y043666D01*
X056210Y043865D02*
X060260Y043865D01*
X060260Y044063D02*
X056210Y044063D01*
X056210Y044262D02*
X060260Y044262D01*
X060260Y044460D02*
X056210Y044460D01*
X056210Y044659D02*
X060260Y044659D01*
X060260Y044857D02*
X056210Y044857D01*
X063960Y054360D02*
X063960Y057160D01*
X067760Y057160D01*
X068360Y056560D01*
X068360Y054960D01*
X067760Y054360D01*
X063960Y054360D01*
X063960Y054385D02*
X067785Y054385D01*
X067984Y054584D02*
X063960Y054584D01*
X063960Y054782D02*
X068182Y054782D01*
X068360Y054981D02*
X063960Y054981D01*
X063960Y055179D02*
X068360Y055179D01*
X068360Y055378D02*
X063960Y055378D01*
X063960Y055576D02*
X068360Y055576D01*
X068360Y055775D02*
X063960Y055775D01*
X063960Y055973D02*
X068360Y055973D01*
X068360Y056172D02*
X063960Y056172D01*
X063960Y056370D02*
X068360Y056370D01*
X068351Y056569D02*
X063960Y056569D01*
X063960Y056767D02*
X068153Y056767D01*
X067954Y056966D02*
X063960Y056966D01*
X052872Y059348D02*
X044522Y059348D01*
X044324Y059546D02*
X052674Y059546D01*
X052475Y059745D02*
X044125Y059745D01*
X042720Y059943D02*
X052277Y059943D01*
X052078Y060142D02*
X042578Y060142D01*
X041942Y060142D02*
X027678Y060142D01*
X027480Y060340D02*
X051880Y060340D01*
X051681Y060539D02*
X027281Y060539D01*
X027440Y060380D02*
X027440Y060380D01*
X027083Y060737D02*
X051483Y060737D01*
X051284Y060936D02*
X026884Y060936D01*
X026686Y061134D02*
X051086Y061134D01*
X050887Y061333D02*
X026487Y061333D01*
X026289Y061531D02*
X050689Y061531D01*
X050490Y061730D02*
X026240Y061730D01*
X026240Y061928D02*
X050292Y061928D01*
X050093Y062127D02*
X026240Y062127D01*
X026240Y062325D02*
X049895Y062325D01*
X049696Y062524D02*
X026304Y062524D01*
X026502Y062722D02*
X049498Y062722D01*
X049299Y062921D02*
X026701Y062921D01*
X026899Y063119D02*
X049101Y063119D01*
X048902Y063318D02*
X027098Y063318D01*
X027317Y063516D02*
X048704Y063516D01*
X048505Y063715D02*
X027495Y063715D01*
X027693Y063913D02*
X048307Y063913D01*
X048108Y064112D02*
X027892Y064112D01*
X025800Y062420D02*
X025800Y061560D01*
X024500Y060260D01*
X020560Y060260D01*
X018360Y058060D01*
X017160Y058060D01*
X016460Y058660D01*
X016460Y060160D01*
X019360Y063060D01*
X025160Y063060D01*
X025800Y062420D01*
X025800Y062325D02*
X018625Y062325D01*
X018427Y062127D02*
X025800Y062127D01*
X025800Y061928D02*
X018228Y061928D01*
X018030Y061730D02*
X025800Y061730D01*
X025771Y061531D02*
X017831Y061531D01*
X017633Y061333D02*
X025573Y061333D01*
X025374Y061134D02*
X017434Y061134D01*
X017236Y060936D02*
X025176Y060936D01*
X024977Y060737D02*
X017037Y060737D01*
X016839Y060539D02*
X024779Y060539D01*
X024580Y060340D02*
X016640Y060340D01*
X016460Y060142D02*
X020442Y060142D01*
X020243Y059943D02*
X016460Y059943D01*
X016460Y059745D02*
X020045Y059745D01*
X019846Y059546D02*
X016460Y059546D01*
X016460Y059348D02*
X019648Y059348D01*
X019449Y059149D02*
X016460Y059149D01*
X016460Y058951D02*
X019251Y058951D01*
X019052Y058752D02*
X016460Y058752D01*
X016584Y058554D02*
X018854Y058554D01*
X018655Y058355D02*
X016816Y058355D01*
X017047Y058157D02*
X018457Y058157D01*
X018824Y062524D02*
X025696Y062524D01*
X025498Y062722D02*
X019022Y062722D01*
X019221Y062921D02*
X025299Y062921D01*
X027877Y059943D02*
X041800Y059943D01*
X030060Y067360D02*
X029760Y067060D01*
X026760Y067060D01*
X026240Y067580D01*
X026240Y068660D01*
X027440Y069860D01*
X029660Y069860D01*
X030060Y069460D01*
X030060Y067360D01*
X029988Y067288D02*
X026532Y067288D01*
X026334Y067486D02*
X030060Y067486D01*
X030060Y067685D02*
X026240Y067685D01*
X026240Y067883D02*
X030060Y067883D01*
X030060Y068082D02*
X026240Y068082D01*
X026240Y068280D02*
X030060Y068280D01*
X030060Y068479D02*
X026240Y068479D01*
X026257Y068677D02*
X030060Y068677D01*
X030060Y068876D02*
X026456Y068876D01*
X026654Y069074D02*
X030060Y069074D01*
X030060Y069273D02*
X026853Y069273D01*
X027051Y069471D02*
X030049Y069471D01*
X029850Y069670D02*
X027250Y069670D01*
X025800Y068640D02*
X025800Y067580D01*
X025280Y067060D01*
X021160Y067060D01*
X018360Y064260D01*
X016960Y064260D01*
X016460Y064760D01*
X016460Y066360D01*
X019960Y069860D01*
X024580Y069860D01*
X025800Y068640D01*
X025763Y068677D02*
X018777Y068677D01*
X018579Y068479D02*
X025800Y068479D01*
X025800Y068280D02*
X018380Y068280D01*
X018182Y068082D02*
X025800Y068082D01*
X025800Y067883D02*
X017983Y067883D01*
X017785Y067685D02*
X025800Y067685D01*
X025706Y067486D02*
X017586Y067486D01*
X017388Y067288D02*
X025508Y067288D01*
X025309Y067089D02*
X017189Y067089D01*
X016991Y066891D02*
X020991Y066891D01*
X020792Y066692D02*
X016792Y066692D01*
X016594Y066494D02*
X020594Y066494D01*
X020395Y066295D02*
X016460Y066295D01*
X016460Y066097D02*
X020197Y066097D01*
X019998Y065898D02*
X016460Y065898D01*
X016460Y065700D02*
X019800Y065700D01*
X019601Y065501D02*
X016460Y065501D01*
X016460Y065303D02*
X019403Y065303D01*
X019204Y065104D02*
X016460Y065104D01*
X016460Y064906D02*
X019006Y064906D01*
X018807Y064707D02*
X016513Y064707D01*
X016711Y064509D02*
X018609Y064509D01*
X018410Y064310D02*
X016910Y064310D01*
X018976Y068876D02*
X025564Y068876D01*
X025366Y069074D02*
X019174Y069074D01*
X019373Y069273D02*
X025167Y069273D01*
X024969Y069471D02*
X019571Y069471D01*
X019770Y069670D02*
X024770Y069670D01*
X026731Y067089D02*
X029789Y067089D01*
X026770Y059026D02*
X026755Y059011D01*
X025860Y059011D02*
X025770Y059101D01*
D47*
X029160Y068460D02*
X046260Y068460D01*
X046760Y068460D01*
X059460Y055760D01*
X064960Y055760D01*
M02*
