G04 #@! TF.GenerationSoftware,KiCad,Pcbnew,(5.1.4)-1*
G04 #@! TF.CreationDate,2020-02-16T17:55:40-06:00*
G04 #@! TF.ProjectId,PowerBoard_Hardware,506f7765-7242-46f6-9172-645f48617264,rev?*
G04 #@! TF.SameCoordinates,Original*
G04 #@! TF.FileFunction,Soldermask,Bot*
G04 #@! TF.FilePolarity,Negative*
%FSLAX46Y46*%
G04 Gerber Fmt 4.6, Leading zero omitted, Abs format (unit mm)*
G04 Created by KiCad (PCBNEW (5.1.4)-1) date 2020-02-16 17:55:40*
%MOMM*%
%LPD*%
G04 APERTURE LIST*
%ADD10C,0.100000*%
G04 APERTURE END LIST*
D10*
G36*
X235049237Y-164676967D02*
G01*
X235196473Y-164706254D01*
X235473859Y-164821151D01*
X235723501Y-164987957D01*
X235935803Y-165200259D01*
X236102609Y-165449901D01*
X236217506Y-165727287D01*
X236276080Y-166021759D01*
X236276080Y-166322001D01*
X236217506Y-166616473D01*
X236102609Y-166893859D01*
X235935803Y-167143501D01*
X235723501Y-167355803D01*
X235473859Y-167522609D01*
X235196473Y-167637506D01*
X235049237Y-167666793D01*
X234902002Y-167696080D01*
X234601758Y-167696080D01*
X234454523Y-167666793D01*
X234307287Y-167637506D01*
X234029901Y-167522609D01*
X233780259Y-167355803D01*
X233567957Y-167143501D01*
X233401151Y-166893859D01*
X233286254Y-166616473D01*
X233227680Y-166322001D01*
X233227680Y-166021759D01*
X233286254Y-165727287D01*
X233401151Y-165449901D01*
X233567957Y-165200259D01*
X233780259Y-164987957D01*
X234029901Y-164821151D01*
X234307287Y-164706254D01*
X234454523Y-164676967D01*
X234601758Y-164647680D01*
X234902002Y-164647680D01*
X235049237Y-164676967D01*
X235049237Y-164676967D01*
G37*
G36*
X100825477Y-164676967D02*
G01*
X100972713Y-164706254D01*
X101250099Y-164821151D01*
X101499741Y-164987957D01*
X101712043Y-165200259D01*
X101878849Y-165449901D01*
X101993746Y-165727287D01*
X102052320Y-166021759D01*
X102052320Y-166322001D01*
X101993746Y-166616473D01*
X101878849Y-166893859D01*
X101712043Y-167143501D01*
X101499741Y-167355803D01*
X101250099Y-167522609D01*
X100972713Y-167637506D01*
X100825477Y-167666793D01*
X100678242Y-167696080D01*
X100377998Y-167696080D01*
X100230763Y-167666793D01*
X100083527Y-167637506D01*
X99806141Y-167522609D01*
X99556499Y-167355803D01*
X99344197Y-167143501D01*
X99177391Y-166893859D01*
X99062494Y-166616473D01*
X99003920Y-166322001D01*
X99003920Y-166021759D01*
X99062494Y-165727287D01*
X99177391Y-165449901D01*
X99344197Y-165200259D01*
X99556499Y-164987957D01*
X99806141Y-164821151D01*
X100083527Y-164706254D01*
X100230763Y-164676967D01*
X100377998Y-164647680D01*
X100678242Y-164647680D01*
X100825477Y-164676967D01*
X100825477Y-164676967D01*
G37*
G36*
X143920201Y-147855286D02*
G01*
X145303083Y-148130358D01*
X146976466Y-148823496D01*
X148482471Y-149829777D01*
X149763223Y-151110529D01*
X150769504Y-152616534D01*
X151462642Y-154289917D01*
X151816000Y-156066372D01*
X151816000Y-157877628D01*
X151462642Y-159654083D01*
X150769504Y-161327466D01*
X149763223Y-162833471D01*
X148482471Y-164114223D01*
X146976466Y-165120504D01*
X145303083Y-165813642D01*
X143920201Y-166088714D01*
X143526630Y-166167000D01*
X141715370Y-166167000D01*
X141321799Y-166088714D01*
X139938917Y-165813642D01*
X138265534Y-165120504D01*
X136759529Y-164114223D01*
X135478777Y-162833471D01*
X134472496Y-161327466D01*
X133779358Y-159654083D01*
X133426000Y-157877628D01*
X133426000Y-156066372D01*
X133779358Y-154289917D01*
X134472496Y-152616534D01*
X135478777Y-151110529D01*
X136759529Y-149829777D01*
X138265534Y-148823496D01*
X139938917Y-148130358D01*
X141321799Y-147855286D01*
X141715370Y-147777000D01*
X143526630Y-147777000D01*
X143920201Y-147855286D01*
X143920201Y-147855286D01*
G37*
G36*
X178845201Y-147728286D02*
G01*
X180228083Y-148003358D01*
X181901466Y-148696496D01*
X183407471Y-149702777D01*
X184688223Y-150983529D01*
X185694504Y-152489534D01*
X186387642Y-154162917D01*
X186741000Y-155939372D01*
X186741000Y-157750628D01*
X186387642Y-159527083D01*
X185694504Y-161200466D01*
X184688223Y-162706471D01*
X183407471Y-163987223D01*
X181901466Y-164993504D01*
X180228083Y-165686642D01*
X178845201Y-165961714D01*
X178451630Y-166040000D01*
X176640370Y-166040000D01*
X176246799Y-165961714D01*
X174863917Y-165686642D01*
X173190534Y-164993504D01*
X171684529Y-163987223D01*
X170403777Y-162706471D01*
X169397496Y-161200466D01*
X168704358Y-159527083D01*
X168351000Y-157750628D01*
X168351000Y-155939372D01*
X168704358Y-154162917D01*
X169397496Y-152489534D01*
X170403777Y-150983529D01*
X171684529Y-149702777D01*
X173190534Y-148696496D01*
X174863917Y-148003358D01*
X176246799Y-147728286D01*
X176640370Y-147650000D01*
X178451630Y-147650000D01*
X178845201Y-147728286D01*
X178845201Y-147728286D01*
G37*
G36*
X113447122Y-157821614D02*
G01*
X114103554Y-158093517D01*
X114103555Y-158093518D01*
X114694329Y-158488260D01*
X115196740Y-158990671D01*
X115460498Y-159385414D01*
X115591483Y-159581446D01*
X115863386Y-160237878D01*
X116002000Y-160934740D01*
X116002000Y-161645260D01*
X115863386Y-162342122D01*
X115591483Y-162998554D01*
X115591482Y-162998555D01*
X115196740Y-163589329D01*
X114694329Y-164091740D01*
X114299586Y-164355498D01*
X114103554Y-164486483D01*
X113447122Y-164758386D01*
X112750260Y-164897000D01*
X112039740Y-164897000D01*
X111342878Y-164758386D01*
X110686446Y-164486483D01*
X110490414Y-164355498D01*
X110095671Y-164091740D01*
X109593260Y-163589329D01*
X109198518Y-162998555D01*
X109198517Y-162998554D01*
X108926614Y-162342122D01*
X108788000Y-161645260D01*
X108788000Y-160934740D01*
X108926614Y-160237878D01*
X109198517Y-159581446D01*
X109329502Y-159385414D01*
X109593260Y-158990671D01*
X110095671Y-158488260D01*
X110686445Y-158093518D01*
X110686446Y-158093517D01*
X111342878Y-157821614D01*
X112039740Y-157683000D01*
X112750260Y-157683000D01*
X113447122Y-157821614D01*
X113447122Y-157821614D01*
G37*
G36*
X213059908Y-137937380D02*
G01*
X213226767Y-137970570D01*
X213698299Y-138165885D01*
X213941029Y-138328073D01*
X214122666Y-138449438D01*
X214483562Y-138810334D01*
X214604927Y-138991971D01*
X214767115Y-139234701D01*
X214962430Y-139706233D01*
X214988123Y-139835400D01*
X215062000Y-140206807D01*
X215062000Y-140717193D01*
X215040330Y-140826134D01*
X214962430Y-141217767D01*
X214767115Y-141689299D01*
X214604927Y-141932029D01*
X214483562Y-142113666D01*
X214122666Y-142474562D01*
X213941029Y-142595927D01*
X213698299Y-142758115D01*
X213226767Y-142953430D01*
X213059908Y-142986620D01*
X212726193Y-143053000D01*
X212215807Y-143053000D01*
X211882092Y-142986620D01*
X211715233Y-142953430D01*
X211243701Y-142758115D01*
X211000971Y-142595927D01*
X210819334Y-142474562D01*
X210458438Y-142113666D01*
X210337073Y-141932029D01*
X210174885Y-141689299D01*
X209979570Y-141217767D01*
X209901670Y-140826134D01*
X209880000Y-140717193D01*
X209880000Y-140206807D01*
X209953877Y-139835400D01*
X209979570Y-139706233D01*
X210174885Y-139234701D01*
X210337073Y-138991971D01*
X210458438Y-138810334D01*
X210819334Y-138449438D01*
X211000971Y-138328073D01*
X211243701Y-138165885D01*
X211715233Y-137970570D01*
X211882092Y-137937380D01*
X212215807Y-137871000D01*
X212726193Y-137871000D01*
X213059908Y-137937380D01*
X213059908Y-137937380D01*
G37*
G36*
X220933908Y-137937380D02*
G01*
X221100767Y-137970570D01*
X221572299Y-138165885D01*
X221815029Y-138328073D01*
X221996666Y-138449438D01*
X222357562Y-138810334D01*
X222478927Y-138991971D01*
X222641115Y-139234701D01*
X222836430Y-139706233D01*
X222862123Y-139835400D01*
X222936000Y-140206807D01*
X222936000Y-140717193D01*
X222914330Y-140826134D01*
X222836430Y-141217767D01*
X222641115Y-141689299D01*
X222478927Y-141932029D01*
X222357562Y-142113666D01*
X221996666Y-142474562D01*
X221815029Y-142595927D01*
X221572299Y-142758115D01*
X221100767Y-142953430D01*
X220933908Y-142986620D01*
X220600193Y-143053000D01*
X220089807Y-143053000D01*
X219756092Y-142986620D01*
X219589233Y-142953430D01*
X219117701Y-142758115D01*
X218874971Y-142595927D01*
X218693334Y-142474562D01*
X218332438Y-142113666D01*
X218211073Y-141932029D01*
X218048885Y-141689299D01*
X217853570Y-141217767D01*
X217775670Y-140826134D01*
X217754000Y-140717193D01*
X217754000Y-140206807D01*
X217827877Y-139835400D01*
X217853570Y-139706233D01*
X218048885Y-139234701D01*
X218211073Y-138991971D01*
X218332438Y-138810334D01*
X218693334Y-138449438D01*
X218874971Y-138328073D01*
X219117701Y-138165885D01*
X219589233Y-137970570D01*
X219756092Y-137937380D01*
X220089807Y-137871000D01*
X220600193Y-137871000D01*
X220933908Y-137937380D01*
X220933908Y-137937380D01*
G37*
G36*
X150540070Y-139692433D02*
G01*
X150805899Y-139802543D01*
X150805901Y-139802544D01*
X151045142Y-139962400D01*
X151248600Y-140165858D01*
X151408456Y-140405099D01*
X151408457Y-140405101D01*
X151518567Y-140670930D01*
X151574700Y-140953132D01*
X151574700Y-141240868D01*
X151518567Y-141523070D01*
X151408457Y-141788899D01*
X151408456Y-141788901D01*
X151248600Y-142028142D01*
X151045142Y-142231600D01*
X150805901Y-142391456D01*
X150805900Y-142391457D01*
X150805899Y-142391457D01*
X150540070Y-142501567D01*
X150257868Y-142557700D01*
X149970132Y-142557700D01*
X149687930Y-142501567D01*
X149422101Y-142391457D01*
X149422100Y-142391457D01*
X149422099Y-142391456D01*
X149182858Y-142231600D01*
X148979400Y-142028142D01*
X148819544Y-141788901D01*
X148819543Y-141788899D01*
X148709433Y-141523070D01*
X148653300Y-141240868D01*
X148653300Y-140953132D01*
X148709433Y-140670930D01*
X148819543Y-140405101D01*
X148819544Y-140405099D01*
X148979400Y-140165858D01*
X149182858Y-139962400D01*
X149422099Y-139802544D01*
X149422101Y-139802543D01*
X149687930Y-139692433D01*
X149970132Y-139636300D01*
X150257868Y-139636300D01*
X150540070Y-139692433D01*
X150540070Y-139692433D01*
G37*
G36*
X147111070Y-139692433D02*
G01*
X147376899Y-139802543D01*
X147376901Y-139802544D01*
X147616142Y-139962400D01*
X147819600Y-140165858D01*
X147979456Y-140405099D01*
X147979457Y-140405101D01*
X148089567Y-140670930D01*
X148145700Y-140953132D01*
X148145700Y-141240868D01*
X148089567Y-141523070D01*
X147979457Y-141788899D01*
X147979456Y-141788901D01*
X147819600Y-142028142D01*
X147616142Y-142231600D01*
X147376901Y-142391456D01*
X147376900Y-142391457D01*
X147376899Y-142391457D01*
X147111070Y-142501567D01*
X146828868Y-142557700D01*
X146541132Y-142557700D01*
X146258930Y-142501567D01*
X145993101Y-142391457D01*
X145993100Y-142391457D01*
X145993099Y-142391456D01*
X145753858Y-142231600D01*
X145550400Y-142028142D01*
X145390544Y-141788901D01*
X145390543Y-141788899D01*
X145280433Y-141523070D01*
X145224300Y-141240868D01*
X145224300Y-140953132D01*
X145280433Y-140670930D01*
X145390543Y-140405101D01*
X145390544Y-140405099D01*
X145550400Y-140165858D01*
X145753858Y-139962400D01*
X145993099Y-139802544D01*
X145993101Y-139802543D01*
X146258930Y-139692433D01*
X146541132Y-139636300D01*
X146828868Y-139636300D01*
X147111070Y-139692433D01*
X147111070Y-139692433D01*
G37*
G36*
X185338070Y-139565433D02*
G01*
X185603899Y-139675543D01*
X185603901Y-139675544D01*
X185843142Y-139835400D01*
X186046600Y-140038858D01*
X186131460Y-140165860D01*
X186206457Y-140278101D01*
X186316567Y-140543930D01*
X186372700Y-140826132D01*
X186372700Y-141113868D01*
X186316567Y-141396070D01*
X186263961Y-141523071D01*
X186206456Y-141661901D01*
X186046600Y-141901142D01*
X185843142Y-142104600D01*
X185603901Y-142264456D01*
X185603900Y-142264457D01*
X185603899Y-142264457D01*
X185338070Y-142374567D01*
X185055868Y-142430700D01*
X184768132Y-142430700D01*
X184485930Y-142374567D01*
X184220101Y-142264457D01*
X184220100Y-142264457D01*
X184220099Y-142264456D01*
X183980858Y-142104600D01*
X183777400Y-141901142D01*
X183617544Y-141661901D01*
X183560039Y-141523071D01*
X183507433Y-141396070D01*
X183451300Y-141113868D01*
X183451300Y-140826132D01*
X183507433Y-140543930D01*
X183617543Y-140278101D01*
X183692540Y-140165860D01*
X183777400Y-140038858D01*
X183980858Y-139835400D01*
X184220099Y-139675544D01*
X184220101Y-139675543D01*
X184485930Y-139565433D01*
X184768132Y-139509300D01*
X185055868Y-139509300D01*
X185338070Y-139565433D01*
X185338070Y-139565433D01*
G37*
G36*
X188767070Y-139565433D02*
G01*
X189032899Y-139675543D01*
X189032901Y-139675544D01*
X189272142Y-139835400D01*
X189475600Y-140038858D01*
X189560460Y-140165860D01*
X189635457Y-140278101D01*
X189745567Y-140543930D01*
X189801700Y-140826132D01*
X189801700Y-141113868D01*
X189745567Y-141396070D01*
X189692961Y-141523071D01*
X189635456Y-141661901D01*
X189475600Y-141901142D01*
X189272142Y-142104600D01*
X189032901Y-142264456D01*
X189032900Y-142264457D01*
X189032899Y-142264457D01*
X188767070Y-142374567D01*
X188484868Y-142430700D01*
X188197132Y-142430700D01*
X187914930Y-142374567D01*
X187649101Y-142264457D01*
X187649100Y-142264457D01*
X187649099Y-142264456D01*
X187409858Y-142104600D01*
X187206400Y-141901142D01*
X187046544Y-141661901D01*
X186989039Y-141523071D01*
X186936433Y-141396070D01*
X186880300Y-141113868D01*
X186880300Y-140826132D01*
X186936433Y-140543930D01*
X187046543Y-140278101D01*
X187121540Y-140165860D01*
X187206400Y-140038858D01*
X187409858Y-139835400D01*
X187649099Y-139675544D01*
X187649101Y-139675543D01*
X187914930Y-139565433D01*
X188197132Y-139509300D01*
X188484868Y-139509300D01*
X188767070Y-139565433D01*
X188767070Y-139565433D01*
G37*
G36*
X177781000Y-133331000D02*
G01*
X175279000Y-133331000D01*
X175279000Y-130829000D01*
X177781000Y-130829000D01*
X177781000Y-133331000D01*
X177781000Y-133331000D01*
G37*
G36*
X171894903Y-130877075D02*
G01*
X172122571Y-130971378D01*
X172327466Y-131108285D01*
X172501715Y-131282534D01*
X172638622Y-131487429D01*
X172732925Y-131715097D01*
X172781000Y-131956787D01*
X172781000Y-132203213D01*
X172732925Y-132444903D01*
X172638622Y-132672571D01*
X172501715Y-132877466D01*
X172327466Y-133051715D01*
X172122571Y-133188622D01*
X172122570Y-133188623D01*
X172122569Y-133188623D01*
X171894903Y-133282925D01*
X171653214Y-133331000D01*
X171406786Y-133331000D01*
X171165097Y-133282925D01*
X170937431Y-133188623D01*
X170937430Y-133188623D01*
X170937429Y-133188622D01*
X170732534Y-133051715D01*
X170558285Y-132877466D01*
X170421378Y-132672571D01*
X170327075Y-132444903D01*
X170279000Y-132203213D01*
X170279000Y-131956787D01*
X170327075Y-131715097D01*
X170421378Y-131487429D01*
X170558285Y-131282534D01*
X170732534Y-131108285D01*
X170937429Y-130971378D01*
X171165097Y-130877075D01*
X171406786Y-130829000D01*
X171653214Y-130829000D01*
X171894903Y-130877075D01*
X171894903Y-130877075D01*
G37*
G36*
X123143908Y-125745380D02*
G01*
X123310767Y-125778570D01*
X123782299Y-125973885D01*
X123976182Y-126103434D01*
X124206666Y-126257438D01*
X124567562Y-126618334D01*
X124624707Y-126703858D01*
X124851115Y-127042701D01*
X125036861Y-127491132D01*
X125046430Y-127514234D01*
X125146000Y-128014807D01*
X125146000Y-128525193D01*
X125097384Y-128769601D01*
X125046430Y-129025767D01*
X124851115Y-129497299D01*
X124730040Y-129678500D01*
X124567562Y-129921666D01*
X124206666Y-130282562D01*
X124025029Y-130403927D01*
X123782299Y-130566115D01*
X123310767Y-130761430D01*
X123143908Y-130794620D01*
X122810193Y-130861000D01*
X122299807Y-130861000D01*
X121966092Y-130794620D01*
X121799233Y-130761430D01*
X121327701Y-130566115D01*
X121084971Y-130403927D01*
X120903334Y-130282562D01*
X120542438Y-129921666D01*
X120379960Y-129678500D01*
X120258885Y-129497299D01*
X120063570Y-129025767D01*
X120012616Y-128769601D01*
X119964000Y-128525193D01*
X119964000Y-128014807D01*
X120063570Y-127514234D01*
X120073139Y-127491132D01*
X120258885Y-127042701D01*
X120485293Y-126703858D01*
X120542438Y-126618334D01*
X120903334Y-126257438D01*
X121133818Y-126103434D01*
X121327701Y-125973885D01*
X121799233Y-125778570D01*
X121966092Y-125745380D01*
X122299807Y-125679000D01*
X122810193Y-125679000D01*
X123143908Y-125745380D01*
X123143908Y-125745380D01*
G37*
G36*
X115269908Y-125745380D02*
G01*
X115436767Y-125778570D01*
X115908299Y-125973885D01*
X116102182Y-126103434D01*
X116332666Y-126257438D01*
X116693562Y-126618334D01*
X116750707Y-126703858D01*
X116977115Y-127042701D01*
X117162861Y-127491132D01*
X117172430Y-127514234D01*
X117272000Y-128014807D01*
X117272000Y-128525193D01*
X117223384Y-128769601D01*
X117172430Y-129025767D01*
X116977115Y-129497299D01*
X116856040Y-129678500D01*
X116693562Y-129921666D01*
X116332666Y-130282562D01*
X116151029Y-130403927D01*
X115908299Y-130566115D01*
X115436767Y-130761430D01*
X115269908Y-130794620D01*
X114936193Y-130861000D01*
X114425807Y-130861000D01*
X114092092Y-130794620D01*
X113925233Y-130761430D01*
X113453701Y-130566115D01*
X113210971Y-130403927D01*
X113029334Y-130282562D01*
X112668438Y-129921666D01*
X112505960Y-129678500D01*
X112384885Y-129497299D01*
X112189570Y-129025767D01*
X112138616Y-128769601D01*
X112090000Y-128525193D01*
X112090000Y-128014807D01*
X112189570Y-127514234D01*
X112199139Y-127491132D01*
X112384885Y-127042701D01*
X112611293Y-126703858D01*
X112668438Y-126618334D01*
X113029334Y-126257438D01*
X113259818Y-126103434D01*
X113453701Y-125973885D01*
X113925233Y-125778570D01*
X114092092Y-125745380D01*
X114425807Y-125679000D01*
X114936193Y-125679000D01*
X115269908Y-125745380D01*
X115269908Y-125745380D01*
G37*
G36*
X235033964Y-127208929D02*
G01*
X235196473Y-127241254D01*
X235473859Y-127356151D01*
X235640664Y-127467607D01*
X235723500Y-127522956D01*
X235935804Y-127735260D01*
X235964942Y-127778868D01*
X236102609Y-127984901D01*
X236217506Y-128262287D01*
X236217506Y-128262288D01*
X236276080Y-128556758D01*
X236276080Y-128857002D01*
X236265027Y-128912567D01*
X236217506Y-129151473D01*
X236102609Y-129428859D01*
X235991153Y-129595664D01*
X235935804Y-129678500D01*
X235723500Y-129890804D01*
X235640664Y-129946153D01*
X235473859Y-130057609D01*
X235196473Y-130172506D01*
X235049237Y-130201793D01*
X234902002Y-130231080D01*
X234601758Y-130231080D01*
X234454523Y-130201793D01*
X234307287Y-130172506D01*
X234029901Y-130057609D01*
X233863096Y-129946153D01*
X233780260Y-129890804D01*
X233567956Y-129678500D01*
X233512607Y-129595664D01*
X233401151Y-129428859D01*
X233286254Y-129151473D01*
X233238733Y-128912567D01*
X233227680Y-128857002D01*
X233227680Y-128556758D01*
X233286254Y-128262288D01*
X233286254Y-128262287D01*
X233401151Y-127984901D01*
X233538818Y-127778868D01*
X233567956Y-127735260D01*
X233780260Y-127522956D01*
X233863096Y-127467607D01*
X234029901Y-127356151D01*
X234307287Y-127241254D01*
X234469796Y-127208929D01*
X234601758Y-127182680D01*
X234902002Y-127182680D01*
X235033964Y-127208929D01*
X235033964Y-127208929D01*
G37*
G36*
X147111070Y-126230433D02*
G01*
X147376899Y-126340543D01*
X147376901Y-126340544D01*
X147616142Y-126500400D01*
X147819600Y-126703858D01*
X147979456Y-126943099D01*
X147979457Y-126943101D01*
X148089567Y-127208930D01*
X148145700Y-127491132D01*
X148145700Y-127778868D01*
X148089567Y-128061070D01*
X147979457Y-128326899D01*
X147979456Y-128326901D01*
X147819600Y-128566142D01*
X147616142Y-128769600D01*
X147376901Y-128929456D01*
X147376900Y-128929457D01*
X147376899Y-128929457D01*
X147111070Y-129039567D01*
X146828868Y-129095700D01*
X146541132Y-129095700D01*
X146258930Y-129039567D01*
X145993101Y-128929457D01*
X145993100Y-128929457D01*
X145993099Y-128929456D01*
X145753858Y-128769600D01*
X145550400Y-128566142D01*
X145390544Y-128326901D01*
X145390543Y-128326899D01*
X145280433Y-128061070D01*
X145224300Y-127778868D01*
X145224300Y-127491132D01*
X145280433Y-127208930D01*
X145390543Y-126943101D01*
X145390544Y-126943099D01*
X145550400Y-126703858D01*
X145753858Y-126500400D01*
X145993099Y-126340544D01*
X145993101Y-126340543D01*
X146258930Y-126230433D01*
X146541132Y-126174300D01*
X146828868Y-126174300D01*
X147111070Y-126230433D01*
X147111070Y-126230433D01*
G37*
G36*
X150540070Y-126230433D02*
G01*
X150805899Y-126340543D01*
X150805901Y-126340544D01*
X151045142Y-126500400D01*
X151248600Y-126703858D01*
X151408456Y-126943099D01*
X151408457Y-126943101D01*
X151518567Y-127208930D01*
X151574700Y-127491132D01*
X151574700Y-127778868D01*
X151518567Y-128061070D01*
X151408457Y-128326899D01*
X151408456Y-128326901D01*
X151248600Y-128566142D01*
X151045142Y-128769600D01*
X150805901Y-128929456D01*
X150805900Y-128929457D01*
X150805899Y-128929457D01*
X150540070Y-129039567D01*
X150257868Y-129095700D01*
X149970132Y-129095700D01*
X149687930Y-129039567D01*
X149422101Y-128929457D01*
X149422100Y-128929457D01*
X149422099Y-128929456D01*
X149182858Y-128769600D01*
X148979400Y-128566142D01*
X148819544Y-128326901D01*
X148819543Y-128326899D01*
X148709433Y-128061070D01*
X148653300Y-127778868D01*
X148653300Y-127491132D01*
X148709433Y-127208930D01*
X148819543Y-126943101D01*
X148819544Y-126943099D01*
X148979400Y-126703858D01*
X149182858Y-126500400D01*
X149422099Y-126340544D01*
X149422101Y-126340543D01*
X149687930Y-126230433D01*
X149970132Y-126174300D01*
X150257868Y-126174300D01*
X150540070Y-126230433D01*
X150540070Y-126230433D01*
G37*
G36*
X188767070Y-126103433D02*
G01*
X189032899Y-126213543D01*
X189032901Y-126213544D01*
X189272142Y-126373400D01*
X189475600Y-126576858D01*
X189560460Y-126703860D01*
X189635457Y-126816101D01*
X189745567Y-127081930D01*
X189801700Y-127364132D01*
X189801700Y-127651868D01*
X189745567Y-127934070D01*
X189692961Y-128061071D01*
X189635456Y-128199901D01*
X189475600Y-128439142D01*
X189272142Y-128642600D01*
X189032901Y-128802456D01*
X189032900Y-128802457D01*
X189032899Y-128802457D01*
X188767070Y-128912567D01*
X188484868Y-128968700D01*
X188197132Y-128968700D01*
X187914930Y-128912567D01*
X187649101Y-128802457D01*
X187649100Y-128802457D01*
X187649099Y-128802456D01*
X187409858Y-128642600D01*
X187206400Y-128439142D01*
X187046544Y-128199901D01*
X186989039Y-128061071D01*
X186936433Y-127934070D01*
X186880300Y-127651868D01*
X186880300Y-127364132D01*
X186936433Y-127081930D01*
X187046543Y-126816101D01*
X187121540Y-126703860D01*
X187206400Y-126576858D01*
X187409858Y-126373400D01*
X187649099Y-126213544D01*
X187649101Y-126213543D01*
X187914930Y-126103433D01*
X188197132Y-126047300D01*
X188484868Y-126047300D01*
X188767070Y-126103433D01*
X188767070Y-126103433D01*
G37*
G36*
X185338070Y-126103433D02*
G01*
X185603899Y-126213543D01*
X185603901Y-126213544D01*
X185843142Y-126373400D01*
X186046600Y-126576858D01*
X186131460Y-126703860D01*
X186206457Y-126816101D01*
X186316567Y-127081930D01*
X186372700Y-127364132D01*
X186372700Y-127651868D01*
X186316567Y-127934070D01*
X186263961Y-128061071D01*
X186206456Y-128199901D01*
X186046600Y-128439142D01*
X185843142Y-128642600D01*
X185603901Y-128802456D01*
X185603900Y-128802457D01*
X185603899Y-128802457D01*
X185338070Y-128912567D01*
X185055868Y-128968700D01*
X184768132Y-128968700D01*
X184485930Y-128912567D01*
X184220101Y-128802457D01*
X184220100Y-128802457D01*
X184220099Y-128802456D01*
X183980858Y-128642600D01*
X183777400Y-128439142D01*
X183617544Y-128199901D01*
X183560039Y-128061071D01*
X183507433Y-127934070D01*
X183451300Y-127651868D01*
X183451300Y-127364132D01*
X183507433Y-127081930D01*
X183617543Y-126816101D01*
X183692540Y-126703860D01*
X183777400Y-126576858D01*
X183980858Y-126373400D01*
X184220099Y-126213544D01*
X184220101Y-126213543D01*
X184485930Y-126103433D01*
X184768132Y-126047300D01*
X185055868Y-126047300D01*
X185338070Y-126103433D01*
X185338070Y-126103433D01*
G37*
G36*
X220933908Y-116474380D02*
G01*
X221100767Y-116507570D01*
X221572299Y-116702885D01*
X221815029Y-116865073D01*
X221996666Y-116986438D01*
X222357562Y-117347334D01*
X222478927Y-117528971D01*
X222641115Y-117771701D01*
X222836430Y-118243233D01*
X222858947Y-118356433D01*
X222936000Y-118743807D01*
X222936000Y-119254193D01*
X222912509Y-119372288D01*
X222836430Y-119754767D01*
X222641115Y-120226299D01*
X222489705Y-120452899D01*
X222357562Y-120650666D01*
X221996666Y-121011562D01*
X221828954Y-121123623D01*
X221572299Y-121295115D01*
X221100767Y-121490430D01*
X220933908Y-121523620D01*
X220600193Y-121590000D01*
X220089807Y-121590000D01*
X219756092Y-121523620D01*
X219589233Y-121490430D01*
X219117701Y-121295115D01*
X218861046Y-121123623D01*
X218693334Y-121011562D01*
X218332438Y-120650666D01*
X218200295Y-120452899D01*
X218048885Y-120226299D01*
X217853570Y-119754767D01*
X217777491Y-119372288D01*
X217754000Y-119254193D01*
X217754000Y-118743807D01*
X217831053Y-118356433D01*
X217853570Y-118243233D01*
X218048885Y-117771701D01*
X218211073Y-117528971D01*
X218332438Y-117347334D01*
X218693334Y-116986438D01*
X218874971Y-116865073D01*
X219117701Y-116702885D01*
X219589233Y-116507570D01*
X219756092Y-116474380D01*
X220089807Y-116408000D01*
X220600193Y-116408000D01*
X220933908Y-116474380D01*
X220933908Y-116474380D01*
G37*
G36*
X213059908Y-116474380D02*
G01*
X213226767Y-116507570D01*
X213698299Y-116702885D01*
X213941029Y-116865073D01*
X214122666Y-116986438D01*
X214483562Y-117347334D01*
X214604927Y-117528971D01*
X214767115Y-117771701D01*
X214962430Y-118243233D01*
X214984947Y-118356433D01*
X215062000Y-118743807D01*
X215062000Y-119254193D01*
X215038509Y-119372288D01*
X214962430Y-119754767D01*
X214767115Y-120226299D01*
X214615705Y-120452899D01*
X214483562Y-120650666D01*
X214122666Y-121011562D01*
X213954954Y-121123623D01*
X213698299Y-121295115D01*
X213226767Y-121490430D01*
X213059908Y-121523620D01*
X212726193Y-121590000D01*
X212215807Y-121590000D01*
X211882092Y-121523620D01*
X211715233Y-121490430D01*
X211243701Y-121295115D01*
X210987046Y-121123623D01*
X210819334Y-121011562D01*
X210458438Y-120650666D01*
X210326295Y-120452899D01*
X210174885Y-120226299D01*
X209979570Y-119754767D01*
X209903491Y-119372288D01*
X209880000Y-119254193D01*
X209880000Y-118743807D01*
X209957053Y-118356433D01*
X209979570Y-118243233D01*
X210174885Y-117771701D01*
X210337073Y-117528971D01*
X210458438Y-117347334D01*
X210819334Y-116986438D01*
X211000971Y-116865073D01*
X211243701Y-116702885D01*
X211715233Y-116507570D01*
X211882092Y-116474380D01*
X212215807Y-116408000D01*
X212726193Y-116408000D01*
X213059908Y-116474380D01*
X213059908Y-116474380D01*
G37*
G36*
X100825477Y-118321967D02*
G01*
X100972713Y-118351254D01*
X101250099Y-118466151D01*
X101299859Y-118499400D01*
X101489927Y-118626399D01*
X101499741Y-118632957D01*
X101712043Y-118845259D01*
X101878849Y-119094901D01*
X101978272Y-119334930D01*
X101993746Y-119372288D01*
X102052320Y-119666758D01*
X102052320Y-119967002D01*
X102033807Y-120060071D01*
X101993746Y-120261473D01*
X101878849Y-120538859D01*
X101776430Y-120692140D01*
X101712044Y-120788500D01*
X101499740Y-121000804D01*
X101417947Y-121055456D01*
X101250099Y-121167609D01*
X100972713Y-121282506D01*
X100909323Y-121295115D01*
X100678242Y-121341080D01*
X100377998Y-121341080D01*
X100146917Y-121295115D01*
X100083527Y-121282506D01*
X99806141Y-121167609D01*
X99638293Y-121055456D01*
X99556500Y-121000804D01*
X99344196Y-120788500D01*
X99279810Y-120692140D01*
X99177391Y-120538859D01*
X99062494Y-120261473D01*
X99022433Y-120060071D01*
X99003920Y-119967002D01*
X99003920Y-119666758D01*
X99062494Y-119372288D01*
X99077968Y-119334930D01*
X99177391Y-119094901D01*
X99344197Y-118845259D01*
X99556499Y-118632957D01*
X99566314Y-118626399D01*
X99756381Y-118499400D01*
X99806141Y-118466151D01*
X100083527Y-118351254D01*
X100230763Y-118321967D01*
X100377998Y-118292680D01*
X100678242Y-118292680D01*
X100825477Y-118321967D01*
X100825477Y-118321967D01*
G37*
G36*
X160001000Y-121266000D02*
G01*
X157499000Y-121266000D01*
X157499000Y-118764000D01*
X160001000Y-118764000D01*
X160001000Y-121266000D01*
X160001000Y-121266000D01*
G37*
G36*
X164114903Y-118812075D02*
G01*
X164195017Y-118845259D01*
X164342571Y-118906378D01*
X164547466Y-119043285D01*
X164721715Y-119217534D01*
X164858622Y-119422429D01*
X164858623Y-119422431D01*
X164952925Y-119650097D01*
X165001000Y-119891786D01*
X165001000Y-120138214D01*
X164952925Y-120379903D01*
X164876198Y-120565140D01*
X164858622Y-120607571D01*
X164721715Y-120812466D01*
X164547466Y-120986715D01*
X164342571Y-121123622D01*
X164342570Y-121123623D01*
X164342569Y-121123623D01*
X164114903Y-121217925D01*
X163873214Y-121266000D01*
X163626786Y-121266000D01*
X163385097Y-121217925D01*
X163157431Y-121123623D01*
X163157430Y-121123623D01*
X163157429Y-121123622D01*
X162952534Y-120986715D01*
X162778285Y-120812466D01*
X162641378Y-120607571D01*
X162623803Y-120565140D01*
X162547075Y-120379903D01*
X162499000Y-120138214D01*
X162499000Y-119891786D01*
X162547075Y-119650097D01*
X162641377Y-119422431D01*
X162641378Y-119422429D01*
X162778285Y-119217534D01*
X162952534Y-119043285D01*
X163157429Y-118906378D01*
X163304984Y-118845259D01*
X163385097Y-118812075D01*
X163626786Y-118764000D01*
X163873214Y-118764000D01*
X164114903Y-118812075D01*
X164114903Y-118812075D01*
G37*
G36*
X147111070Y-118356433D02*
G01*
X147376899Y-118466543D01*
X147376901Y-118466544D01*
X147616142Y-118626400D01*
X147819600Y-118829858D01*
X147979456Y-119069099D01*
X147979457Y-119069101D01*
X148089567Y-119334930D01*
X148145700Y-119617132D01*
X148145700Y-119904868D01*
X148089567Y-120187070D01*
X148058748Y-120261473D01*
X147979456Y-120452901D01*
X147819600Y-120692142D01*
X147616142Y-120895600D01*
X147376901Y-121055456D01*
X147376900Y-121055457D01*
X147376899Y-121055457D01*
X147111070Y-121165567D01*
X146828868Y-121221700D01*
X146541132Y-121221700D01*
X146258930Y-121165567D01*
X145993101Y-121055457D01*
X145993100Y-121055457D01*
X145993099Y-121055456D01*
X145753858Y-120895600D01*
X145550400Y-120692142D01*
X145390544Y-120452901D01*
X145311252Y-120261473D01*
X145280433Y-120187070D01*
X145224300Y-119904868D01*
X145224300Y-119617132D01*
X145280433Y-119334930D01*
X145390543Y-119069101D01*
X145390544Y-119069099D01*
X145550400Y-118829858D01*
X145753858Y-118626400D01*
X145993099Y-118466544D01*
X145993101Y-118466543D01*
X146258930Y-118356433D01*
X146541132Y-118300300D01*
X146828868Y-118300300D01*
X147111070Y-118356433D01*
X147111070Y-118356433D01*
G37*
G36*
X150540070Y-118356433D02*
G01*
X150805899Y-118466543D01*
X150805901Y-118466544D01*
X151045142Y-118626400D01*
X151248600Y-118829858D01*
X151408456Y-119069099D01*
X151408457Y-119069101D01*
X151518567Y-119334930D01*
X151574700Y-119617132D01*
X151574700Y-119904868D01*
X151518567Y-120187070D01*
X151487748Y-120261473D01*
X151408456Y-120452901D01*
X151248600Y-120692142D01*
X151045142Y-120895600D01*
X150805901Y-121055456D01*
X150805900Y-121055457D01*
X150805899Y-121055457D01*
X150540070Y-121165567D01*
X150257868Y-121221700D01*
X149970132Y-121221700D01*
X149687930Y-121165567D01*
X149422101Y-121055457D01*
X149422100Y-121055457D01*
X149422099Y-121055456D01*
X149182858Y-120895600D01*
X148979400Y-120692142D01*
X148819544Y-120452901D01*
X148740252Y-120261473D01*
X148709433Y-120187070D01*
X148653300Y-119904868D01*
X148653300Y-119617132D01*
X148709433Y-119334930D01*
X148819543Y-119069101D01*
X148819544Y-119069099D01*
X148979400Y-118829858D01*
X149182858Y-118626400D01*
X149422099Y-118466544D01*
X149422101Y-118466543D01*
X149687930Y-118356433D01*
X149970132Y-118300300D01*
X150257868Y-118300300D01*
X150540070Y-118356433D01*
X150540070Y-118356433D01*
G37*
G36*
X188767070Y-118229433D02*
G01*
X189032899Y-118339543D01*
X189032901Y-118339544D01*
X189272142Y-118499400D01*
X189475600Y-118702858D01*
X189560460Y-118829860D01*
X189635457Y-118942101D01*
X189745567Y-119207930D01*
X189801700Y-119490132D01*
X189801700Y-119777868D01*
X189745567Y-120060070D01*
X189662143Y-120261473D01*
X189635456Y-120325901D01*
X189475600Y-120565142D01*
X189272142Y-120768600D01*
X189032901Y-120928456D01*
X189032900Y-120928457D01*
X189032899Y-120928457D01*
X188767070Y-121038567D01*
X188484868Y-121094700D01*
X188197132Y-121094700D01*
X187914930Y-121038567D01*
X187649101Y-120928457D01*
X187649100Y-120928457D01*
X187649099Y-120928456D01*
X187409858Y-120768600D01*
X187206400Y-120565142D01*
X187046544Y-120325901D01*
X187019857Y-120261473D01*
X186936433Y-120060070D01*
X186880300Y-119777868D01*
X186880300Y-119490132D01*
X186936433Y-119207930D01*
X187046543Y-118942101D01*
X187121540Y-118829860D01*
X187206400Y-118702858D01*
X187409858Y-118499400D01*
X187649099Y-118339544D01*
X187649101Y-118339543D01*
X187914930Y-118229433D01*
X188197132Y-118173300D01*
X188484868Y-118173300D01*
X188767070Y-118229433D01*
X188767070Y-118229433D01*
G37*
G36*
X185338070Y-118229433D02*
G01*
X185603899Y-118339543D01*
X185603901Y-118339544D01*
X185843142Y-118499400D01*
X186046600Y-118702858D01*
X186131460Y-118829860D01*
X186206457Y-118942101D01*
X186316567Y-119207930D01*
X186372700Y-119490132D01*
X186372700Y-119777868D01*
X186316567Y-120060070D01*
X186233143Y-120261473D01*
X186206456Y-120325901D01*
X186046600Y-120565142D01*
X185843142Y-120768600D01*
X185603901Y-120928456D01*
X185603900Y-120928457D01*
X185603899Y-120928457D01*
X185338070Y-121038567D01*
X185055868Y-121094700D01*
X184768132Y-121094700D01*
X184485930Y-121038567D01*
X184220101Y-120928457D01*
X184220100Y-120928457D01*
X184220099Y-120928456D01*
X183980858Y-120768600D01*
X183777400Y-120565142D01*
X183617544Y-120325901D01*
X183590857Y-120261473D01*
X183507433Y-120060070D01*
X183451300Y-119777868D01*
X183451300Y-119490132D01*
X183507433Y-119207930D01*
X183617543Y-118942101D01*
X183692540Y-118829860D01*
X183777400Y-118702858D01*
X183980858Y-118499400D01*
X184220099Y-118339544D01*
X184220101Y-118339543D01*
X184485930Y-118229433D01*
X184768132Y-118173300D01*
X185055868Y-118173300D01*
X185338070Y-118229433D01*
X185338070Y-118229433D01*
G37*
G36*
X177781000Y-109836000D02*
G01*
X175279000Y-109836000D01*
X175279000Y-107334000D01*
X177781000Y-107334000D01*
X177781000Y-109836000D01*
X177781000Y-109836000D01*
G37*
G36*
X171894903Y-107382075D02*
G01*
X172122571Y-107476378D01*
X172327466Y-107613285D01*
X172501715Y-107787534D01*
X172638622Y-107992429D01*
X172732925Y-108220097D01*
X172781000Y-108461787D01*
X172781000Y-108708213D01*
X172732925Y-108949903D01*
X172638622Y-109177571D01*
X172501715Y-109382466D01*
X172327466Y-109556715D01*
X172122571Y-109693622D01*
X172122570Y-109693623D01*
X172122569Y-109693623D01*
X171894903Y-109787925D01*
X171653214Y-109836000D01*
X171406786Y-109836000D01*
X171165097Y-109787925D01*
X170937431Y-109693623D01*
X170937430Y-109693623D01*
X170937429Y-109693622D01*
X170732534Y-109556715D01*
X170558285Y-109382466D01*
X170421378Y-109177571D01*
X170327075Y-108949903D01*
X170279000Y-108708213D01*
X170279000Y-108461787D01*
X170327075Y-108220097D01*
X170421378Y-107992429D01*
X170558285Y-107787534D01*
X170732534Y-107613285D01*
X170937429Y-107476378D01*
X171165097Y-107382075D01*
X171406786Y-107334000D01*
X171653214Y-107334000D01*
X171894903Y-107382075D01*
X171894903Y-107382075D01*
G37*
G36*
X123143908Y-104409380D02*
G01*
X123310767Y-104442570D01*
X123782299Y-104637885D01*
X123976182Y-104767434D01*
X124206666Y-104921438D01*
X124567562Y-105282334D01*
X124624707Y-105367858D01*
X124851115Y-105706701D01*
X125036861Y-106155132D01*
X125046430Y-106178234D01*
X125146000Y-106678807D01*
X125146000Y-107189193D01*
X125097384Y-107433601D01*
X125046430Y-107689767D01*
X124851115Y-108161299D01*
X124688927Y-108404029D01*
X124567562Y-108585666D01*
X124206666Y-108946562D01*
X124025029Y-109067927D01*
X123782299Y-109230115D01*
X123310767Y-109425430D01*
X123143908Y-109458620D01*
X122810193Y-109525000D01*
X122299807Y-109525000D01*
X121966092Y-109458620D01*
X121799233Y-109425430D01*
X121327701Y-109230115D01*
X121084971Y-109067927D01*
X120903334Y-108946562D01*
X120542438Y-108585666D01*
X120421073Y-108404029D01*
X120258885Y-108161299D01*
X120063570Y-107689767D01*
X120012616Y-107433601D01*
X119964000Y-107189193D01*
X119964000Y-106678807D01*
X120063570Y-106178234D01*
X120073139Y-106155132D01*
X120258885Y-105706701D01*
X120485293Y-105367858D01*
X120542438Y-105282334D01*
X120903334Y-104921438D01*
X121133818Y-104767434D01*
X121327701Y-104637885D01*
X121799233Y-104442570D01*
X121966092Y-104409380D01*
X122299807Y-104343000D01*
X122810193Y-104343000D01*
X123143908Y-104409380D01*
X123143908Y-104409380D01*
G37*
G36*
X115269908Y-104409380D02*
G01*
X115436767Y-104442570D01*
X115908299Y-104637885D01*
X116102182Y-104767434D01*
X116332666Y-104921438D01*
X116693562Y-105282334D01*
X116750707Y-105367858D01*
X116977115Y-105706701D01*
X117162861Y-106155132D01*
X117172430Y-106178234D01*
X117272000Y-106678807D01*
X117272000Y-107189193D01*
X117223384Y-107433601D01*
X117172430Y-107689767D01*
X116977115Y-108161299D01*
X116814927Y-108404029D01*
X116693562Y-108585666D01*
X116332666Y-108946562D01*
X116151029Y-109067927D01*
X115908299Y-109230115D01*
X115436767Y-109425430D01*
X115269908Y-109458620D01*
X114936193Y-109525000D01*
X114425807Y-109525000D01*
X114092092Y-109458620D01*
X113925233Y-109425430D01*
X113453701Y-109230115D01*
X113210971Y-109067927D01*
X113029334Y-108946562D01*
X112668438Y-108585666D01*
X112547073Y-108404029D01*
X112384885Y-108161299D01*
X112189570Y-107689767D01*
X112138616Y-107433601D01*
X112090000Y-107189193D01*
X112090000Y-106678807D01*
X112189570Y-106178234D01*
X112199139Y-106155132D01*
X112384885Y-105706701D01*
X112611293Y-105367858D01*
X112668438Y-105282334D01*
X113029334Y-104921438D01*
X113259818Y-104767434D01*
X113453701Y-104637885D01*
X113925233Y-104442570D01*
X114092092Y-104409380D01*
X114425807Y-104343000D01*
X114936193Y-104343000D01*
X115269908Y-104409380D01*
X115269908Y-104409380D01*
G37*
G36*
X147111070Y-104894433D02*
G01*
X147376899Y-105004543D01*
X147376901Y-105004544D01*
X147616142Y-105164400D01*
X147819600Y-105367858D01*
X147979456Y-105607099D01*
X147979457Y-105607101D01*
X148089567Y-105872930D01*
X148145700Y-106155132D01*
X148145700Y-106442868D01*
X148089567Y-106725070D01*
X148032062Y-106863899D01*
X147979456Y-106990901D01*
X147819600Y-107230142D01*
X147616142Y-107433600D01*
X147376901Y-107593456D01*
X147376900Y-107593457D01*
X147376899Y-107593457D01*
X147111070Y-107703567D01*
X146828868Y-107759700D01*
X146541132Y-107759700D01*
X146258930Y-107703567D01*
X145993101Y-107593457D01*
X145993100Y-107593457D01*
X145993099Y-107593456D01*
X145753858Y-107433600D01*
X145550400Y-107230142D01*
X145390544Y-106990901D01*
X145337938Y-106863899D01*
X145280433Y-106725070D01*
X145224300Y-106442868D01*
X145224300Y-106155132D01*
X145280433Y-105872930D01*
X145390543Y-105607101D01*
X145390544Y-105607099D01*
X145550400Y-105367858D01*
X145753858Y-105164400D01*
X145993099Y-105004544D01*
X145993101Y-105004543D01*
X146258930Y-104894433D01*
X146541132Y-104838300D01*
X146828868Y-104838300D01*
X147111070Y-104894433D01*
X147111070Y-104894433D01*
G37*
G36*
X150540070Y-104894433D02*
G01*
X150805899Y-105004543D01*
X150805901Y-105004544D01*
X151045142Y-105164400D01*
X151248600Y-105367858D01*
X151408456Y-105607099D01*
X151408457Y-105607101D01*
X151518567Y-105872930D01*
X151574700Y-106155132D01*
X151574700Y-106442868D01*
X151518567Y-106725070D01*
X151461062Y-106863899D01*
X151408456Y-106990901D01*
X151248600Y-107230142D01*
X151045142Y-107433600D01*
X150805901Y-107593456D01*
X150805900Y-107593457D01*
X150805899Y-107593457D01*
X150540070Y-107703567D01*
X150257868Y-107759700D01*
X149970132Y-107759700D01*
X149687930Y-107703567D01*
X149422101Y-107593457D01*
X149422100Y-107593457D01*
X149422099Y-107593456D01*
X149182858Y-107433600D01*
X148979400Y-107230142D01*
X148819544Y-106990901D01*
X148766938Y-106863899D01*
X148709433Y-106725070D01*
X148653300Y-106442868D01*
X148653300Y-106155132D01*
X148709433Y-105872930D01*
X148819543Y-105607101D01*
X148819544Y-105607099D01*
X148979400Y-105367858D01*
X149182858Y-105164400D01*
X149422099Y-105004544D01*
X149422101Y-105004543D01*
X149687930Y-104894433D01*
X149970132Y-104838300D01*
X150257868Y-104838300D01*
X150540070Y-104894433D01*
X150540070Y-104894433D01*
G37*
G36*
X188767070Y-104767433D02*
G01*
X189032899Y-104877543D01*
X189032901Y-104877544D01*
X189272142Y-105037400D01*
X189475600Y-105240858D01*
X189560460Y-105367860D01*
X189635457Y-105480101D01*
X189745567Y-105745930D01*
X189801700Y-106028132D01*
X189801700Y-106315868D01*
X189745567Y-106598070D01*
X189692961Y-106725071D01*
X189635456Y-106863901D01*
X189475600Y-107103142D01*
X189272142Y-107306600D01*
X189032901Y-107466456D01*
X189032900Y-107466457D01*
X189032899Y-107466457D01*
X188767070Y-107576567D01*
X188484868Y-107632700D01*
X188197132Y-107632700D01*
X187914930Y-107576567D01*
X187649101Y-107466457D01*
X187649100Y-107466457D01*
X187649099Y-107466456D01*
X187409858Y-107306600D01*
X187206400Y-107103142D01*
X187046544Y-106863901D01*
X186989039Y-106725071D01*
X186936433Y-106598070D01*
X186880300Y-106315868D01*
X186880300Y-106028132D01*
X186936433Y-105745930D01*
X187046543Y-105480101D01*
X187121540Y-105367860D01*
X187206400Y-105240858D01*
X187409858Y-105037400D01*
X187649099Y-104877544D01*
X187649101Y-104877543D01*
X187914930Y-104767433D01*
X188197132Y-104711300D01*
X188484868Y-104711300D01*
X188767070Y-104767433D01*
X188767070Y-104767433D01*
G37*
G36*
X185338070Y-104767433D02*
G01*
X185603899Y-104877543D01*
X185603901Y-104877544D01*
X185843142Y-105037400D01*
X186046600Y-105240858D01*
X186131460Y-105367860D01*
X186206457Y-105480101D01*
X186316567Y-105745930D01*
X186372700Y-106028132D01*
X186372700Y-106315868D01*
X186316567Y-106598070D01*
X186263961Y-106725071D01*
X186206456Y-106863901D01*
X186046600Y-107103142D01*
X185843142Y-107306600D01*
X185603901Y-107466456D01*
X185603900Y-107466457D01*
X185603899Y-107466457D01*
X185338070Y-107576567D01*
X185055868Y-107632700D01*
X184768132Y-107632700D01*
X184485930Y-107576567D01*
X184220101Y-107466457D01*
X184220100Y-107466457D01*
X184220099Y-107466456D01*
X183980858Y-107306600D01*
X183777400Y-107103142D01*
X183617544Y-106863901D01*
X183560039Y-106725071D01*
X183507433Y-106598070D01*
X183451300Y-106315868D01*
X183451300Y-106028132D01*
X183507433Y-105745930D01*
X183617543Y-105480101D01*
X183692540Y-105367860D01*
X183777400Y-105240858D01*
X183980858Y-105037400D01*
X184220099Y-104877544D01*
X184220101Y-104877543D01*
X184485930Y-104767433D01*
X184768132Y-104711300D01*
X185055868Y-104711300D01*
X185338070Y-104767433D01*
X185338070Y-104767433D01*
G37*
G36*
X220933908Y-95900380D02*
G01*
X221100767Y-95933570D01*
X221572299Y-96128885D01*
X221815029Y-96291073D01*
X221996666Y-96412438D01*
X222357562Y-96773334D01*
X222478927Y-96954971D01*
X222641115Y-97197701D01*
X222836430Y-97669233D01*
X222862123Y-97798400D01*
X222936000Y-98169807D01*
X222936000Y-98680193D01*
X222914330Y-98789134D01*
X222836430Y-99180767D01*
X222641115Y-99652299D01*
X222478927Y-99895029D01*
X222357562Y-100076666D01*
X221996666Y-100437562D01*
X221815029Y-100558927D01*
X221572299Y-100721115D01*
X221100767Y-100916430D01*
X220933908Y-100949620D01*
X220600193Y-101016000D01*
X220089807Y-101016000D01*
X219756092Y-100949620D01*
X219589233Y-100916430D01*
X219117701Y-100721115D01*
X218874971Y-100558927D01*
X218693334Y-100437562D01*
X218332438Y-100076666D01*
X218211073Y-99895029D01*
X218048885Y-99652299D01*
X217853570Y-99180767D01*
X217775670Y-98789134D01*
X217754000Y-98680193D01*
X217754000Y-98169807D01*
X217827877Y-97798400D01*
X217853570Y-97669233D01*
X218048885Y-97197701D01*
X218211073Y-96954971D01*
X218332438Y-96773334D01*
X218693334Y-96412438D01*
X218874971Y-96291073D01*
X219117701Y-96128885D01*
X219589233Y-95933570D01*
X219756092Y-95900380D01*
X220089807Y-95834000D01*
X220600193Y-95834000D01*
X220933908Y-95900380D01*
X220933908Y-95900380D01*
G37*
G36*
X213059908Y-95900380D02*
G01*
X213226767Y-95933570D01*
X213698299Y-96128885D01*
X213941029Y-96291073D01*
X214122666Y-96412438D01*
X214483562Y-96773334D01*
X214604927Y-96954971D01*
X214767115Y-97197701D01*
X214962430Y-97669233D01*
X214988123Y-97798400D01*
X215062000Y-98169807D01*
X215062000Y-98680193D01*
X215040330Y-98789134D01*
X214962430Y-99180767D01*
X214767115Y-99652299D01*
X214604927Y-99895029D01*
X214483562Y-100076666D01*
X214122666Y-100437562D01*
X213941029Y-100558927D01*
X213698299Y-100721115D01*
X213226767Y-100916430D01*
X213059908Y-100949620D01*
X212726193Y-101016000D01*
X212215807Y-101016000D01*
X211882092Y-100949620D01*
X211715233Y-100916430D01*
X211243701Y-100721115D01*
X211000971Y-100558927D01*
X210819334Y-100437562D01*
X210458438Y-100076666D01*
X210337073Y-99895029D01*
X210174885Y-99652299D01*
X209979570Y-99180767D01*
X209901670Y-98789134D01*
X209880000Y-98680193D01*
X209880000Y-98169807D01*
X209953877Y-97798400D01*
X209979570Y-97669233D01*
X210174885Y-97197701D01*
X210337073Y-96954971D01*
X210458438Y-96773334D01*
X210819334Y-96412438D01*
X211000971Y-96291073D01*
X211243701Y-96128885D01*
X211715233Y-95933570D01*
X211882092Y-95900380D01*
X212215807Y-95834000D01*
X212726193Y-95834000D01*
X213059908Y-95900380D01*
X213059908Y-95900380D01*
G37*
G36*
X188767070Y-97655433D02*
G01*
X189032899Y-97765543D01*
X189032901Y-97765544D01*
X189272142Y-97925400D01*
X189475600Y-98128858D01*
X189635456Y-98368099D01*
X189635457Y-98368101D01*
X189745567Y-98633930D01*
X189801700Y-98916132D01*
X189801700Y-99203868D01*
X189745567Y-99486070D01*
X189635457Y-99751899D01*
X189635456Y-99751901D01*
X189475600Y-99991142D01*
X189272142Y-100194600D01*
X189032901Y-100354456D01*
X189032900Y-100354457D01*
X189032899Y-100354457D01*
X188767070Y-100464567D01*
X188484868Y-100520700D01*
X188197132Y-100520700D01*
X187914930Y-100464567D01*
X187649101Y-100354457D01*
X187649100Y-100354457D01*
X187649099Y-100354456D01*
X187409858Y-100194600D01*
X187206400Y-99991142D01*
X187046544Y-99751901D01*
X187046543Y-99751899D01*
X186936433Y-99486070D01*
X186880300Y-99203868D01*
X186880300Y-98916132D01*
X186936433Y-98633930D01*
X187046543Y-98368101D01*
X187046544Y-98368099D01*
X187206400Y-98128858D01*
X187409858Y-97925400D01*
X187649099Y-97765544D01*
X187649101Y-97765543D01*
X187914930Y-97655433D01*
X188197132Y-97599300D01*
X188484868Y-97599300D01*
X188767070Y-97655433D01*
X188767070Y-97655433D01*
G37*
G36*
X185338070Y-97655433D02*
G01*
X185603899Y-97765543D01*
X185603901Y-97765544D01*
X185843142Y-97925400D01*
X186046600Y-98128858D01*
X186206456Y-98368099D01*
X186206457Y-98368101D01*
X186316567Y-98633930D01*
X186372700Y-98916132D01*
X186372700Y-99203868D01*
X186316567Y-99486070D01*
X186206457Y-99751899D01*
X186206456Y-99751901D01*
X186046600Y-99991142D01*
X185843142Y-100194600D01*
X185603901Y-100354456D01*
X185603900Y-100354457D01*
X185603899Y-100354457D01*
X185338070Y-100464567D01*
X185055868Y-100520700D01*
X184768132Y-100520700D01*
X184485930Y-100464567D01*
X184220101Y-100354457D01*
X184220100Y-100354457D01*
X184220099Y-100354456D01*
X183980858Y-100194600D01*
X183777400Y-99991142D01*
X183617544Y-99751901D01*
X183617543Y-99751899D01*
X183507433Y-99486070D01*
X183451300Y-99203868D01*
X183451300Y-98916132D01*
X183507433Y-98633930D01*
X183617543Y-98368101D01*
X183617544Y-98368099D01*
X183777400Y-98128858D01*
X183980858Y-97925400D01*
X184220099Y-97765544D01*
X184220101Y-97765543D01*
X184485930Y-97655433D01*
X184768132Y-97599300D01*
X185055868Y-97599300D01*
X185338070Y-97655433D01*
X185338070Y-97655433D01*
G37*
G36*
X147111070Y-97528433D02*
G01*
X147352950Y-97628623D01*
X147376901Y-97638544D01*
X147616142Y-97798400D01*
X147819600Y-98001858D01*
X147904460Y-98128860D01*
X147979457Y-98241101D01*
X148089567Y-98506930D01*
X148145700Y-98789132D01*
X148145700Y-99076868D01*
X148089567Y-99359070D01*
X148036961Y-99486071D01*
X147979456Y-99624901D01*
X147819600Y-99864142D01*
X147616142Y-100067600D01*
X147376901Y-100227456D01*
X147376900Y-100227457D01*
X147376899Y-100227457D01*
X147111070Y-100337567D01*
X146828868Y-100393700D01*
X146541132Y-100393700D01*
X146258930Y-100337567D01*
X145993101Y-100227457D01*
X145993100Y-100227457D01*
X145993099Y-100227456D01*
X145753858Y-100067600D01*
X145550400Y-99864142D01*
X145390544Y-99624901D01*
X145333039Y-99486071D01*
X145280433Y-99359070D01*
X145224300Y-99076868D01*
X145224300Y-98789132D01*
X145280433Y-98506930D01*
X145390543Y-98241101D01*
X145465540Y-98128860D01*
X145550400Y-98001858D01*
X145753858Y-97798400D01*
X145993099Y-97638544D01*
X146017050Y-97628623D01*
X146258930Y-97528433D01*
X146541132Y-97472300D01*
X146828868Y-97472300D01*
X147111070Y-97528433D01*
X147111070Y-97528433D01*
G37*
G36*
X150540070Y-97528433D02*
G01*
X150781950Y-97628623D01*
X150805901Y-97638544D01*
X151045142Y-97798400D01*
X151248600Y-98001858D01*
X151333460Y-98128860D01*
X151408457Y-98241101D01*
X151518567Y-98506930D01*
X151574700Y-98789132D01*
X151574700Y-99076868D01*
X151518567Y-99359070D01*
X151465961Y-99486071D01*
X151408456Y-99624901D01*
X151248600Y-99864142D01*
X151045142Y-100067600D01*
X150805901Y-100227456D01*
X150805900Y-100227457D01*
X150805899Y-100227457D01*
X150540070Y-100337567D01*
X150257868Y-100393700D01*
X149970132Y-100393700D01*
X149687930Y-100337567D01*
X149422101Y-100227457D01*
X149422100Y-100227457D01*
X149422099Y-100227456D01*
X149182858Y-100067600D01*
X148979400Y-99864142D01*
X148819544Y-99624901D01*
X148762039Y-99486071D01*
X148709433Y-99359070D01*
X148653300Y-99076868D01*
X148653300Y-98789132D01*
X148709433Y-98506930D01*
X148819543Y-98241101D01*
X148894540Y-98128860D01*
X148979400Y-98001858D01*
X149182858Y-97798400D01*
X149422099Y-97638544D01*
X149446050Y-97628623D01*
X149687930Y-97528433D01*
X149970132Y-97472300D01*
X150257868Y-97472300D01*
X150540070Y-97528433D01*
X150540070Y-97528433D01*
G37*
G36*
X164114903Y-95317075D02*
G01*
X164342571Y-95411378D01*
X164547466Y-95548285D01*
X164721715Y-95722534D01*
X164858622Y-95927429D01*
X164952925Y-96155097D01*
X165001000Y-96396787D01*
X165001000Y-96643213D01*
X164952925Y-96884903D01*
X164858622Y-97112571D01*
X164721715Y-97317466D01*
X164547466Y-97491715D01*
X164342571Y-97628622D01*
X164342570Y-97628623D01*
X164342569Y-97628623D01*
X164114903Y-97722925D01*
X163873214Y-97771000D01*
X163626786Y-97771000D01*
X163385097Y-97722925D01*
X163157431Y-97628623D01*
X163157430Y-97628623D01*
X163157429Y-97628622D01*
X162952534Y-97491715D01*
X162778285Y-97317466D01*
X162641378Y-97112571D01*
X162547075Y-96884903D01*
X162499000Y-96643213D01*
X162499000Y-96396787D01*
X162547075Y-96155097D01*
X162641378Y-95927429D01*
X162778285Y-95722534D01*
X162952534Y-95548285D01*
X163157429Y-95411378D01*
X163385097Y-95317075D01*
X163626786Y-95269000D01*
X163873214Y-95269000D01*
X164114903Y-95317075D01*
X164114903Y-95317075D01*
G37*
G36*
X160001000Y-97771000D02*
G01*
X157499000Y-97771000D01*
X157499000Y-95269000D01*
X160001000Y-95269000D01*
X160001000Y-97771000D01*
X160001000Y-97771000D01*
G37*
G36*
X115269908Y-83581380D02*
G01*
X115436767Y-83614570D01*
X115908299Y-83809885D01*
X116151029Y-83972073D01*
X116332666Y-84093438D01*
X116693562Y-84454334D01*
X116750707Y-84539858D01*
X116977115Y-84878701D01*
X117098574Y-85171930D01*
X117172430Y-85350234D01*
X117272000Y-85850807D01*
X117272000Y-86361193D01*
X117223384Y-86605601D01*
X117172430Y-86861767D01*
X116977115Y-87333299D01*
X116814927Y-87576029D01*
X116693562Y-87757666D01*
X116332666Y-88118562D01*
X116151029Y-88239927D01*
X115908299Y-88402115D01*
X115436767Y-88597430D01*
X115269908Y-88630620D01*
X114936193Y-88697000D01*
X114425807Y-88697000D01*
X114092092Y-88630620D01*
X113925233Y-88597430D01*
X113453701Y-88402115D01*
X113210971Y-88239927D01*
X113029334Y-88118562D01*
X112668438Y-87757666D01*
X112547073Y-87576029D01*
X112384885Y-87333299D01*
X112189570Y-86861767D01*
X112138616Y-86605601D01*
X112090000Y-86361193D01*
X112090000Y-85850807D01*
X112189570Y-85350234D01*
X112263426Y-85171930D01*
X112384885Y-84878701D01*
X112611293Y-84539858D01*
X112668438Y-84454334D01*
X113029334Y-84093438D01*
X113210971Y-83972073D01*
X113453701Y-83809885D01*
X113925233Y-83614570D01*
X114092092Y-83581380D01*
X114425807Y-83515000D01*
X114936193Y-83515000D01*
X115269908Y-83581380D01*
X115269908Y-83581380D01*
G37*
G36*
X123143908Y-83581380D02*
G01*
X123310767Y-83614570D01*
X123782299Y-83809885D01*
X124025029Y-83972073D01*
X124206666Y-84093438D01*
X124567562Y-84454334D01*
X124624707Y-84539858D01*
X124851115Y-84878701D01*
X124972574Y-85171930D01*
X125046430Y-85350234D01*
X125146000Y-85850807D01*
X125146000Y-86361193D01*
X125097384Y-86605601D01*
X125046430Y-86861767D01*
X124851115Y-87333299D01*
X124688927Y-87576029D01*
X124567562Y-87757666D01*
X124206666Y-88118562D01*
X124025029Y-88239927D01*
X123782299Y-88402115D01*
X123310767Y-88597430D01*
X123143908Y-88630620D01*
X122810193Y-88697000D01*
X122299807Y-88697000D01*
X121966092Y-88630620D01*
X121799233Y-88597430D01*
X121327701Y-88402115D01*
X121084971Y-88239927D01*
X120903334Y-88118562D01*
X120542438Y-87757666D01*
X120421073Y-87576029D01*
X120258885Y-87333299D01*
X120063570Y-86861767D01*
X120012616Y-86605601D01*
X119964000Y-86361193D01*
X119964000Y-85850807D01*
X120063570Y-85350234D01*
X120137426Y-85171930D01*
X120258885Y-84878701D01*
X120485293Y-84539858D01*
X120542438Y-84454334D01*
X120903334Y-84093438D01*
X121084971Y-83972073D01*
X121327701Y-83809885D01*
X121799233Y-83614570D01*
X121966092Y-83581380D01*
X122299807Y-83515000D01*
X122810193Y-83515000D01*
X123143908Y-83581380D01*
X123143908Y-83581380D01*
G37*
G36*
X188767070Y-84193433D02*
G01*
X189032899Y-84303543D01*
X189032901Y-84303544D01*
X189272142Y-84463400D01*
X189475600Y-84666858D01*
X189635456Y-84906099D01*
X189635457Y-84906101D01*
X189745567Y-85171930D01*
X189801700Y-85454132D01*
X189801700Y-85741868D01*
X189745567Y-86024070D01*
X189688062Y-86162899D01*
X189635456Y-86289901D01*
X189475600Y-86529142D01*
X189272142Y-86732600D01*
X189032901Y-86892456D01*
X189032900Y-86892457D01*
X189032899Y-86892457D01*
X188767070Y-87002567D01*
X188484868Y-87058700D01*
X188197132Y-87058700D01*
X187914930Y-87002567D01*
X187649101Y-86892457D01*
X187649100Y-86892457D01*
X187649099Y-86892456D01*
X187409858Y-86732600D01*
X187206400Y-86529142D01*
X187046544Y-86289901D01*
X186993938Y-86162899D01*
X186936433Y-86024070D01*
X186880300Y-85741868D01*
X186880300Y-85454132D01*
X186936433Y-85171930D01*
X187046543Y-84906101D01*
X187046544Y-84906099D01*
X187206400Y-84666858D01*
X187409858Y-84463400D01*
X187649099Y-84303544D01*
X187649101Y-84303543D01*
X187914930Y-84193433D01*
X188197132Y-84137300D01*
X188484868Y-84137300D01*
X188767070Y-84193433D01*
X188767070Y-84193433D01*
G37*
G36*
X185338070Y-84193433D02*
G01*
X185603899Y-84303543D01*
X185603901Y-84303544D01*
X185843142Y-84463400D01*
X186046600Y-84666858D01*
X186206456Y-84906099D01*
X186206457Y-84906101D01*
X186316567Y-85171930D01*
X186372700Y-85454132D01*
X186372700Y-85741868D01*
X186316567Y-86024070D01*
X186259062Y-86162899D01*
X186206456Y-86289901D01*
X186046600Y-86529142D01*
X185843142Y-86732600D01*
X185603901Y-86892456D01*
X185603900Y-86892457D01*
X185603899Y-86892457D01*
X185338070Y-87002567D01*
X185055868Y-87058700D01*
X184768132Y-87058700D01*
X184485930Y-87002567D01*
X184220101Y-86892457D01*
X184220100Y-86892457D01*
X184220099Y-86892456D01*
X183980858Y-86732600D01*
X183777400Y-86529142D01*
X183617544Y-86289901D01*
X183564938Y-86162899D01*
X183507433Y-86024070D01*
X183451300Y-85741868D01*
X183451300Y-85454132D01*
X183507433Y-85171930D01*
X183617543Y-84906101D01*
X183617544Y-84906099D01*
X183777400Y-84666858D01*
X183980858Y-84463400D01*
X184220099Y-84303544D01*
X184220101Y-84303543D01*
X184485930Y-84193433D01*
X184768132Y-84137300D01*
X185055868Y-84137300D01*
X185338070Y-84193433D01*
X185338070Y-84193433D01*
G37*
G36*
X150540070Y-84066433D02*
G01*
X150805899Y-84176543D01*
X150805901Y-84176544D01*
X151045142Y-84336400D01*
X151248600Y-84539858D01*
X151408456Y-84779099D01*
X151408457Y-84779101D01*
X151518567Y-85044930D01*
X151574700Y-85327132D01*
X151574700Y-85614868D01*
X151518567Y-85897070D01*
X151465961Y-86024071D01*
X151408456Y-86162901D01*
X151248600Y-86402142D01*
X151045142Y-86605600D01*
X150805901Y-86765456D01*
X150805900Y-86765457D01*
X150805899Y-86765457D01*
X150540070Y-86875567D01*
X150257868Y-86931700D01*
X149970132Y-86931700D01*
X149687930Y-86875567D01*
X149422101Y-86765457D01*
X149422100Y-86765457D01*
X149422099Y-86765456D01*
X149182858Y-86605600D01*
X148979400Y-86402142D01*
X148819544Y-86162901D01*
X148762039Y-86024071D01*
X148709433Y-85897070D01*
X148653300Y-85614868D01*
X148653300Y-85327132D01*
X148709433Y-85044930D01*
X148819543Y-84779101D01*
X148819544Y-84779099D01*
X148979400Y-84539858D01*
X149182858Y-84336400D01*
X149422099Y-84176544D01*
X149422101Y-84176543D01*
X149687930Y-84066433D01*
X149970132Y-84010300D01*
X150257868Y-84010300D01*
X150540070Y-84066433D01*
X150540070Y-84066433D01*
G37*
G36*
X147111070Y-84066433D02*
G01*
X147376899Y-84176543D01*
X147376901Y-84176544D01*
X147616142Y-84336400D01*
X147819600Y-84539858D01*
X147979456Y-84779099D01*
X147979457Y-84779101D01*
X148089567Y-85044930D01*
X148145700Y-85327132D01*
X148145700Y-85614868D01*
X148089567Y-85897070D01*
X148036961Y-86024071D01*
X147979456Y-86162901D01*
X147819600Y-86402142D01*
X147616142Y-86605600D01*
X147376901Y-86765456D01*
X147376900Y-86765457D01*
X147376899Y-86765457D01*
X147111070Y-86875567D01*
X146828868Y-86931700D01*
X146541132Y-86931700D01*
X146258930Y-86875567D01*
X145993101Y-86765457D01*
X145993100Y-86765457D01*
X145993099Y-86765456D01*
X145753858Y-86605600D01*
X145550400Y-86402142D01*
X145390544Y-86162901D01*
X145333039Y-86024071D01*
X145280433Y-85897070D01*
X145224300Y-85614868D01*
X145224300Y-85327132D01*
X145280433Y-85044930D01*
X145390543Y-84779101D01*
X145390544Y-84779099D01*
X145550400Y-84539858D01*
X145753858Y-84336400D01*
X145993099Y-84176544D01*
X145993101Y-84176543D01*
X146258930Y-84066433D01*
X146541132Y-84010300D01*
X146828868Y-84010300D01*
X147111070Y-84066433D01*
X147111070Y-84066433D01*
G37*
G36*
X171138651Y-81557888D02*
G01*
X171449870Y-81652296D01*
X171736680Y-81805599D01*
X171736683Y-81805601D01*
X171736684Y-81805602D01*
X171988082Y-82011918D01*
X172194398Y-82263316D01*
X172194401Y-82263320D01*
X172347704Y-82550130D01*
X172442112Y-82861349D01*
X172473988Y-83185000D01*
X172442112Y-83508651D01*
X172347704Y-83819870D01*
X172194401Y-84106680D01*
X172194399Y-84106683D01*
X172194398Y-84106684D01*
X171988082Y-84358082D01*
X171736684Y-84564398D01*
X171736680Y-84564401D01*
X171449870Y-84717704D01*
X171138651Y-84812112D01*
X170896107Y-84836000D01*
X170733893Y-84836000D01*
X170491349Y-84812112D01*
X170180130Y-84717704D01*
X169893320Y-84564401D01*
X169893316Y-84564398D01*
X169641918Y-84358082D01*
X169435602Y-84106684D01*
X169435601Y-84106683D01*
X169435599Y-84106680D01*
X169282296Y-83819870D01*
X169187888Y-83508651D01*
X169156012Y-83185000D01*
X169187888Y-82861349D01*
X169282296Y-82550130D01*
X169435599Y-82263320D01*
X169435602Y-82263316D01*
X169641918Y-82011918D01*
X169893316Y-81805602D01*
X169893317Y-81805601D01*
X169893320Y-81805599D01*
X170180130Y-81652296D01*
X170491349Y-81557888D01*
X170733893Y-81534000D01*
X170896107Y-81534000D01*
X171138651Y-81557888D01*
X171138651Y-81557888D01*
G37*
G36*
X164153651Y-81557888D02*
G01*
X164464870Y-81652296D01*
X164751680Y-81805599D01*
X164751683Y-81805601D01*
X164751684Y-81805602D01*
X165003082Y-82011918D01*
X165209398Y-82263316D01*
X165209401Y-82263320D01*
X165362704Y-82550130D01*
X165457112Y-82861349D01*
X165488988Y-83185000D01*
X165457112Y-83508651D01*
X165362704Y-83819870D01*
X165209401Y-84106680D01*
X165209399Y-84106683D01*
X165209398Y-84106684D01*
X165003082Y-84358082D01*
X164751684Y-84564398D01*
X164751680Y-84564401D01*
X164464870Y-84717704D01*
X164153651Y-84812112D01*
X163911107Y-84836000D01*
X163748893Y-84836000D01*
X163506349Y-84812112D01*
X163195130Y-84717704D01*
X162908320Y-84564401D01*
X162908316Y-84564398D01*
X162656918Y-84358082D01*
X162450602Y-84106684D01*
X162450601Y-84106683D01*
X162450599Y-84106680D01*
X162297296Y-83819870D01*
X162202888Y-83508651D01*
X162171012Y-83185000D01*
X162202888Y-82861349D01*
X162297296Y-82550130D01*
X162450599Y-82263320D01*
X162450602Y-82263316D01*
X162656918Y-82011918D01*
X162908316Y-81805602D01*
X162908317Y-81805601D01*
X162908320Y-81805599D01*
X163195130Y-81652296D01*
X163506349Y-81557888D01*
X163748893Y-81534000D01*
X163911107Y-81534000D01*
X164153651Y-81557888D01*
X164153651Y-81557888D01*
G37*
G36*
X220933908Y-75453380D02*
G01*
X221100767Y-75486570D01*
X221572299Y-75681885D01*
X221815029Y-75844073D01*
X221996666Y-75965438D01*
X222357562Y-76326334D01*
X222442865Y-76454000D01*
X222641115Y-76750701D01*
X222836430Y-77222233D01*
X222862123Y-77351400D01*
X222936000Y-77722807D01*
X222936000Y-78233193D01*
X222914330Y-78342134D01*
X222836430Y-78733767D01*
X222641115Y-79205299D01*
X222478927Y-79448029D01*
X222357562Y-79629666D01*
X221996666Y-79990562D01*
X221815029Y-80111927D01*
X221572299Y-80274115D01*
X221100767Y-80469430D01*
X220933908Y-80502620D01*
X220600193Y-80569000D01*
X220089807Y-80569000D01*
X219756092Y-80502620D01*
X219589233Y-80469430D01*
X219117701Y-80274115D01*
X218874971Y-80111927D01*
X218693334Y-79990562D01*
X218332438Y-79629666D01*
X218211073Y-79448029D01*
X218048885Y-79205299D01*
X217853570Y-78733767D01*
X217775670Y-78342134D01*
X217754000Y-78233193D01*
X217754000Y-77722807D01*
X217827877Y-77351400D01*
X217853570Y-77222233D01*
X218048885Y-76750701D01*
X218247135Y-76454000D01*
X218332438Y-76326334D01*
X218693334Y-75965438D01*
X218874971Y-75844073D01*
X219117701Y-75681885D01*
X219589233Y-75486570D01*
X219756092Y-75453380D01*
X220089807Y-75387000D01*
X220600193Y-75387000D01*
X220933908Y-75453380D01*
X220933908Y-75453380D01*
G37*
G36*
X213059908Y-75453380D02*
G01*
X213226767Y-75486570D01*
X213698299Y-75681885D01*
X213941029Y-75844073D01*
X214122666Y-75965438D01*
X214483562Y-76326334D01*
X214568865Y-76454000D01*
X214767115Y-76750701D01*
X214962430Y-77222233D01*
X214988123Y-77351400D01*
X215062000Y-77722807D01*
X215062000Y-78233193D01*
X215040330Y-78342134D01*
X214962430Y-78733767D01*
X214767115Y-79205299D01*
X214604927Y-79448029D01*
X214483562Y-79629666D01*
X214122666Y-79990562D01*
X213941029Y-80111927D01*
X213698299Y-80274115D01*
X213226767Y-80469430D01*
X213059908Y-80502620D01*
X212726193Y-80569000D01*
X212215807Y-80569000D01*
X211882092Y-80502620D01*
X211715233Y-80469430D01*
X211243701Y-80274115D01*
X211000971Y-80111927D01*
X210819334Y-79990562D01*
X210458438Y-79629666D01*
X210337073Y-79448029D01*
X210174885Y-79205299D01*
X209979570Y-78733767D01*
X209901670Y-78342134D01*
X209880000Y-78233193D01*
X209880000Y-77722807D01*
X209953877Y-77351400D01*
X209979570Y-77222233D01*
X210174885Y-76750701D01*
X210373135Y-76454000D01*
X210458438Y-76326334D01*
X210819334Y-75965438D01*
X211000971Y-75844073D01*
X211243701Y-75681885D01*
X211715233Y-75486570D01*
X211882092Y-75453380D01*
X212215807Y-75387000D01*
X212726193Y-75387000D01*
X213059908Y-75453380D01*
X213059908Y-75453380D01*
G37*
G36*
X188767070Y-77208433D02*
G01*
X189032899Y-77318543D01*
X189032901Y-77318544D01*
X189272142Y-77478400D01*
X189475600Y-77681858D01*
X189597134Y-77863746D01*
X189635457Y-77921101D01*
X189745567Y-78186930D01*
X189801700Y-78469132D01*
X189801700Y-78756868D01*
X189745567Y-79039070D01*
X189635457Y-79304899D01*
X189635456Y-79304901D01*
X189475600Y-79544142D01*
X189272142Y-79747600D01*
X189032901Y-79907456D01*
X189032900Y-79907457D01*
X189032899Y-79907457D01*
X188767070Y-80017567D01*
X188484868Y-80073700D01*
X188197132Y-80073700D01*
X187914930Y-80017567D01*
X187649101Y-79907457D01*
X187649100Y-79907457D01*
X187649099Y-79907456D01*
X187409858Y-79747600D01*
X187206400Y-79544142D01*
X187046544Y-79304901D01*
X187046543Y-79304899D01*
X186936433Y-79039070D01*
X186880300Y-78756868D01*
X186880300Y-78469132D01*
X186936433Y-78186930D01*
X187046543Y-77921101D01*
X187084866Y-77863746D01*
X187206400Y-77681858D01*
X187409858Y-77478400D01*
X187649099Y-77318544D01*
X187649101Y-77318543D01*
X187914930Y-77208433D01*
X188197132Y-77152300D01*
X188484868Y-77152300D01*
X188767070Y-77208433D01*
X188767070Y-77208433D01*
G37*
G36*
X185338070Y-77208433D02*
G01*
X185603899Y-77318543D01*
X185603901Y-77318544D01*
X185843142Y-77478400D01*
X186046600Y-77681858D01*
X186168134Y-77863746D01*
X186206457Y-77921101D01*
X186316567Y-78186930D01*
X186372700Y-78469132D01*
X186372700Y-78756868D01*
X186316567Y-79039070D01*
X186206457Y-79304899D01*
X186206456Y-79304901D01*
X186046600Y-79544142D01*
X185843142Y-79747600D01*
X185603901Y-79907456D01*
X185603900Y-79907457D01*
X185603899Y-79907457D01*
X185338070Y-80017567D01*
X185055868Y-80073700D01*
X184768132Y-80073700D01*
X184485930Y-80017567D01*
X184220101Y-79907457D01*
X184220100Y-79907457D01*
X184220099Y-79907456D01*
X183980858Y-79747600D01*
X183777400Y-79544142D01*
X183617544Y-79304901D01*
X183617543Y-79304899D01*
X183507433Y-79039070D01*
X183451300Y-78756868D01*
X183451300Y-78469132D01*
X183507433Y-78186930D01*
X183617543Y-77921101D01*
X183655866Y-77863746D01*
X183777400Y-77681858D01*
X183980858Y-77478400D01*
X184220099Y-77318544D01*
X184220101Y-77318543D01*
X184485930Y-77208433D01*
X184768132Y-77152300D01*
X185055868Y-77152300D01*
X185338070Y-77208433D01*
X185338070Y-77208433D01*
G37*
G36*
X147111070Y-77081433D02*
G01*
X147376899Y-77191543D01*
X147376901Y-77191544D01*
X147616142Y-77351400D01*
X147819600Y-77554858D01*
X147904460Y-77681860D01*
X147979457Y-77794101D01*
X148089567Y-78059930D01*
X148145700Y-78342132D01*
X148145700Y-78629868D01*
X148089567Y-78912070D01*
X148036961Y-79039071D01*
X147979456Y-79177901D01*
X147819600Y-79417142D01*
X147616142Y-79620600D01*
X147376901Y-79780456D01*
X147376900Y-79780457D01*
X147376899Y-79780457D01*
X147111070Y-79890567D01*
X146828868Y-79946700D01*
X146541132Y-79946700D01*
X146258930Y-79890567D01*
X145993101Y-79780457D01*
X145993100Y-79780457D01*
X145993099Y-79780456D01*
X145753858Y-79620600D01*
X145550400Y-79417142D01*
X145390544Y-79177901D01*
X145333039Y-79039071D01*
X145280433Y-78912070D01*
X145224300Y-78629868D01*
X145224300Y-78342132D01*
X145280433Y-78059930D01*
X145390543Y-77794101D01*
X145465540Y-77681860D01*
X145550400Y-77554858D01*
X145753858Y-77351400D01*
X145993099Y-77191544D01*
X145993101Y-77191543D01*
X146258930Y-77081433D01*
X146541132Y-77025300D01*
X146828868Y-77025300D01*
X147111070Y-77081433D01*
X147111070Y-77081433D01*
G37*
G36*
X150540070Y-77081433D02*
G01*
X150805899Y-77191543D01*
X150805901Y-77191544D01*
X151045142Y-77351400D01*
X151248600Y-77554858D01*
X151333460Y-77681860D01*
X151408457Y-77794101D01*
X151518567Y-78059930D01*
X151574700Y-78342132D01*
X151574700Y-78629868D01*
X151518567Y-78912070D01*
X151465961Y-79039071D01*
X151408456Y-79177901D01*
X151248600Y-79417142D01*
X151045142Y-79620600D01*
X150805901Y-79780456D01*
X150805900Y-79780457D01*
X150805899Y-79780457D01*
X150540070Y-79890567D01*
X150257868Y-79946700D01*
X149970132Y-79946700D01*
X149687930Y-79890567D01*
X149422101Y-79780457D01*
X149422100Y-79780457D01*
X149422099Y-79780456D01*
X149182858Y-79620600D01*
X148979400Y-79417142D01*
X148819544Y-79177901D01*
X148762039Y-79039071D01*
X148709433Y-78912070D01*
X148653300Y-78629868D01*
X148653300Y-78342132D01*
X148709433Y-78059930D01*
X148819543Y-77794101D01*
X148894540Y-77681860D01*
X148979400Y-77554858D01*
X149182858Y-77351400D01*
X149422099Y-77191544D01*
X149422101Y-77191543D01*
X149687930Y-77081433D01*
X149970132Y-77025300D01*
X150257868Y-77025300D01*
X150540070Y-77081433D01*
X150540070Y-77081433D01*
G37*
G36*
X165481000Y-79756000D02*
G01*
X162179000Y-79756000D01*
X162179000Y-76454000D01*
X165481000Y-76454000D01*
X165481000Y-79756000D01*
X165481000Y-79756000D01*
G37*
G36*
X172466000Y-79756000D02*
G01*
X169164000Y-79756000D01*
X169164000Y-76454000D01*
X172466000Y-76454000D01*
X172466000Y-79756000D01*
X172466000Y-79756000D01*
G37*
G36*
X100825477Y-74903207D02*
G01*
X100972713Y-74932494D01*
X101250099Y-75047391D01*
X101499741Y-75214197D01*
X101712043Y-75426499D01*
X101878849Y-75676141D01*
X101993746Y-75953527D01*
X102052320Y-76247999D01*
X102052320Y-76548241D01*
X101993746Y-76842713D01*
X101878849Y-77120099D01*
X101712043Y-77369741D01*
X101499741Y-77582043D01*
X101250099Y-77748849D01*
X100972713Y-77863746D01*
X100825477Y-77893033D01*
X100678242Y-77922320D01*
X100377998Y-77922320D01*
X100230763Y-77893033D01*
X100083527Y-77863746D01*
X99806141Y-77748849D01*
X99556499Y-77582043D01*
X99344197Y-77369741D01*
X99177391Y-77120099D01*
X99062494Y-76842713D01*
X99003920Y-76548241D01*
X99003920Y-76247999D01*
X99062494Y-75953527D01*
X99177391Y-75676141D01*
X99344197Y-75426499D01*
X99556499Y-75214197D01*
X99806141Y-75047391D01*
X100083527Y-74932494D01*
X100230763Y-74903207D01*
X100377998Y-74873920D01*
X100678242Y-74873920D01*
X100825477Y-74903207D01*
X100825477Y-74903207D01*
G37*
G36*
X162141000Y-70701000D02*
G01*
X160439000Y-70701000D01*
X160439000Y-68999000D01*
X162141000Y-68999000D01*
X162141000Y-70701000D01*
X162141000Y-70701000D01*
G37*
G36*
X174206000Y-70701000D02*
G01*
X172504000Y-70701000D01*
X172504000Y-68999000D01*
X174206000Y-68999000D01*
X174206000Y-70701000D01*
X174206000Y-70701000D01*
G37*
G36*
X173603228Y-66531703D02*
G01*
X173758100Y-66595853D01*
X173897481Y-66688985D01*
X174016015Y-66807519D01*
X174109147Y-66946900D01*
X174173297Y-67101772D01*
X174206000Y-67266184D01*
X174206000Y-67433816D01*
X174173297Y-67598228D01*
X174109147Y-67753100D01*
X174016015Y-67892481D01*
X173897481Y-68011015D01*
X173758100Y-68104147D01*
X173603228Y-68168297D01*
X173438816Y-68201000D01*
X173271184Y-68201000D01*
X173106772Y-68168297D01*
X172951900Y-68104147D01*
X172812519Y-68011015D01*
X172693985Y-67892481D01*
X172600853Y-67753100D01*
X172536703Y-67598228D01*
X172504000Y-67433816D01*
X172504000Y-67266184D01*
X172536703Y-67101772D01*
X172600853Y-66946900D01*
X172693985Y-66807519D01*
X172812519Y-66688985D01*
X172951900Y-66595853D01*
X173106772Y-66531703D01*
X173271184Y-66499000D01*
X173438816Y-66499000D01*
X173603228Y-66531703D01*
X173603228Y-66531703D01*
G37*
G36*
X161538228Y-66531703D02*
G01*
X161693100Y-66595853D01*
X161832481Y-66688985D01*
X161951015Y-66807519D01*
X162044147Y-66946900D01*
X162108297Y-67101772D01*
X162141000Y-67266184D01*
X162141000Y-67433816D01*
X162108297Y-67598228D01*
X162044147Y-67753100D01*
X161951015Y-67892481D01*
X161832481Y-68011015D01*
X161693100Y-68104147D01*
X161538228Y-68168297D01*
X161373816Y-68201000D01*
X161206184Y-68201000D01*
X161041772Y-68168297D01*
X160886900Y-68104147D01*
X160747519Y-68011015D01*
X160628985Y-67892481D01*
X160535853Y-67753100D01*
X160471703Y-67598228D01*
X160439000Y-67433816D01*
X160439000Y-67266184D01*
X160471703Y-67101772D01*
X160535853Y-66946900D01*
X160628985Y-66807519D01*
X160747519Y-66688985D01*
X160886900Y-66595853D01*
X161041772Y-66531703D01*
X161206184Y-66499000D01*
X161373816Y-66499000D01*
X161538228Y-66531703D01*
X161538228Y-66531703D01*
G37*
G36*
X123143908Y-63007380D02*
G01*
X123310767Y-63040570D01*
X123782299Y-63235885D01*
X124025029Y-63398073D01*
X124206666Y-63519438D01*
X124567562Y-63880334D01*
X124658477Y-64016399D01*
X124851115Y-64304701D01*
X125046430Y-64776233D01*
X125079620Y-64943092D01*
X125124331Y-65167868D01*
X125146000Y-65276809D01*
X125146000Y-65787191D01*
X125046430Y-66287767D01*
X124851115Y-66759299D01*
X124721120Y-66953849D01*
X124567562Y-67183666D01*
X124206666Y-67544562D01*
X124025029Y-67665927D01*
X123782299Y-67828115D01*
X123310767Y-68023430D01*
X123143908Y-68056620D01*
X122810193Y-68123000D01*
X122299807Y-68123000D01*
X121966092Y-68056620D01*
X121799233Y-68023430D01*
X121327701Y-67828115D01*
X121084971Y-67665927D01*
X120903334Y-67544562D01*
X120542438Y-67183666D01*
X120388880Y-66953849D01*
X120258885Y-66759299D01*
X120063570Y-66287767D01*
X119964000Y-65787191D01*
X119964000Y-65276809D01*
X119985670Y-65167868D01*
X120030380Y-64943092D01*
X120063570Y-64776233D01*
X120258885Y-64304701D01*
X120451523Y-64016399D01*
X120542438Y-63880334D01*
X120903334Y-63519438D01*
X121084971Y-63398073D01*
X121327701Y-63235885D01*
X121799233Y-63040570D01*
X121966092Y-63007380D01*
X122299807Y-62941000D01*
X122810193Y-62941000D01*
X123143908Y-63007380D01*
X123143908Y-63007380D01*
G37*
G36*
X115269908Y-63007380D02*
G01*
X115436767Y-63040570D01*
X115908299Y-63235885D01*
X116151029Y-63398073D01*
X116332666Y-63519438D01*
X116693562Y-63880334D01*
X116784477Y-64016399D01*
X116977115Y-64304701D01*
X117172430Y-64776233D01*
X117205620Y-64943092D01*
X117250331Y-65167868D01*
X117272000Y-65276809D01*
X117272000Y-65787191D01*
X117172430Y-66287767D01*
X116977115Y-66759299D01*
X116847120Y-66953849D01*
X116693562Y-67183666D01*
X116332666Y-67544562D01*
X116151029Y-67665927D01*
X115908299Y-67828115D01*
X115436767Y-68023430D01*
X115269908Y-68056620D01*
X114936193Y-68123000D01*
X114425807Y-68123000D01*
X114092092Y-68056620D01*
X113925233Y-68023430D01*
X113453701Y-67828115D01*
X113210971Y-67665927D01*
X113029334Y-67544562D01*
X112668438Y-67183666D01*
X112514880Y-66953849D01*
X112384885Y-66759299D01*
X112189570Y-66287767D01*
X112090000Y-65787191D01*
X112090000Y-65276809D01*
X112111670Y-65167868D01*
X112156380Y-64943092D01*
X112189570Y-64776233D01*
X112384885Y-64304701D01*
X112577523Y-64016399D01*
X112668438Y-63880334D01*
X113029334Y-63519438D01*
X113210971Y-63398073D01*
X113453701Y-63235885D01*
X113925233Y-63040570D01*
X114092092Y-63007380D01*
X114425807Y-62941000D01*
X114936193Y-62941000D01*
X115269908Y-63007380D01*
X115269908Y-63007380D01*
G37*
G36*
X235049237Y-64108207D02*
G01*
X235196473Y-64137494D01*
X235473859Y-64252391D01*
X235723501Y-64419197D01*
X235935803Y-64631499D01*
X236102609Y-64881141D01*
X236217506Y-65158527D01*
X236219364Y-65167868D01*
X236275498Y-65450070D01*
X236276080Y-65452999D01*
X236276080Y-65753241D01*
X236217506Y-66047713D01*
X236102609Y-66325099D01*
X236022189Y-66445456D01*
X235948616Y-66555566D01*
X235935803Y-66574741D01*
X235723501Y-66787043D01*
X235473859Y-66953849D01*
X235196473Y-67068746D01*
X235049237Y-67098033D01*
X234902002Y-67127320D01*
X234601758Y-67127320D01*
X234454523Y-67098033D01*
X234307287Y-67068746D01*
X234029901Y-66953849D01*
X233780259Y-66787043D01*
X233567957Y-66574741D01*
X233555145Y-66555566D01*
X233481571Y-66445456D01*
X233401151Y-66325099D01*
X233286254Y-66047713D01*
X233227680Y-65753241D01*
X233227680Y-65452999D01*
X233228263Y-65450070D01*
X233284396Y-65167868D01*
X233286254Y-65158527D01*
X233401151Y-64881141D01*
X233567957Y-64631499D01*
X233780259Y-64419197D01*
X234029901Y-64252391D01*
X234307287Y-64137494D01*
X234454523Y-64108207D01*
X234601758Y-64078920D01*
X234902002Y-64078920D01*
X235049237Y-64108207D01*
X235049237Y-64108207D01*
G37*
G36*
X188767070Y-63746433D02*
G01*
X189032899Y-63856543D01*
X189032901Y-63856544D01*
X189272142Y-64016400D01*
X189475600Y-64219858D01*
X189608794Y-64419197D01*
X189635457Y-64459101D01*
X189745567Y-64724930D01*
X189801700Y-65007132D01*
X189801700Y-65294868D01*
X189745567Y-65577070D01*
X189672594Y-65753242D01*
X189635456Y-65842901D01*
X189475600Y-66082142D01*
X189272142Y-66285600D01*
X189032901Y-66445456D01*
X189032900Y-66445457D01*
X189032899Y-66445457D01*
X188767070Y-66555567D01*
X188484868Y-66611700D01*
X188197132Y-66611700D01*
X187914930Y-66555567D01*
X187649101Y-66445457D01*
X187649100Y-66445457D01*
X187649099Y-66445456D01*
X187409858Y-66285600D01*
X187206400Y-66082142D01*
X187046544Y-65842901D01*
X187009406Y-65753242D01*
X186936433Y-65577070D01*
X186880300Y-65294868D01*
X186880300Y-65007132D01*
X186936433Y-64724930D01*
X187046543Y-64459101D01*
X187073206Y-64419197D01*
X187206400Y-64219858D01*
X187409858Y-64016400D01*
X187649099Y-63856544D01*
X187649101Y-63856543D01*
X187914930Y-63746433D01*
X188197132Y-63690300D01*
X188484868Y-63690300D01*
X188767070Y-63746433D01*
X188767070Y-63746433D01*
G37*
G36*
X185338070Y-63746433D02*
G01*
X185603899Y-63856543D01*
X185603901Y-63856544D01*
X185843142Y-64016400D01*
X186046600Y-64219858D01*
X186179794Y-64419197D01*
X186206457Y-64459101D01*
X186316567Y-64724930D01*
X186372700Y-65007132D01*
X186372700Y-65294868D01*
X186316567Y-65577070D01*
X186243594Y-65753242D01*
X186206456Y-65842901D01*
X186046600Y-66082142D01*
X185843142Y-66285600D01*
X185603901Y-66445456D01*
X185603900Y-66445457D01*
X185603899Y-66445457D01*
X185338070Y-66555567D01*
X185055868Y-66611700D01*
X184768132Y-66611700D01*
X184485930Y-66555567D01*
X184220101Y-66445457D01*
X184220100Y-66445457D01*
X184220099Y-66445456D01*
X183980858Y-66285600D01*
X183777400Y-66082142D01*
X183617544Y-65842901D01*
X183580406Y-65753242D01*
X183507433Y-65577070D01*
X183451300Y-65294868D01*
X183451300Y-65007132D01*
X183507433Y-64724930D01*
X183617543Y-64459101D01*
X183644206Y-64419197D01*
X183777400Y-64219858D01*
X183980858Y-64016400D01*
X184220099Y-63856544D01*
X184220101Y-63856543D01*
X184485930Y-63746433D01*
X184768132Y-63690300D01*
X185055868Y-63690300D01*
X185338070Y-63746433D01*
X185338070Y-63746433D01*
G37*
G36*
X150540070Y-63619433D02*
G01*
X150805899Y-63729543D01*
X150805901Y-63729544D01*
X151045142Y-63889400D01*
X151248600Y-64092858D01*
X151408456Y-64332099D01*
X151408457Y-64332101D01*
X151518567Y-64597930D01*
X151574700Y-64880132D01*
X151574700Y-65167868D01*
X151518567Y-65450070D01*
X151465961Y-65577071D01*
X151408456Y-65715901D01*
X151248600Y-65955142D01*
X151045142Y-66158600D01*
X150805901Y-66318456D01*
X150805900Y-66318457D01*
X150805899Y-66318457D01*
X150540070Y-66428567D01*
X150257868Y-66484700D01*
X149970132Y-66484700D01*
X149687930Y-66428567D01*
X149422101Y-66318457D01*
X149422100Y-66318457D01*
X149422099Y-66318456D01*
X149182858Y-66158600D01*
X148979400Y-65955142D01*
X148819544Y-65715901D01*
X148762039Y-65577071D01*
X148709433Y-65450070D01*
X148653300Y-65167868D01*
X148653300Y-64880132D01*
X148709433Y-64597930D01*
X148819543Y-64332101D01*
X148819544Y-64332099D01*
X148979400Y-64092858D01*
X149182858Y-63889400D01*
X149422099Y-63729544D01*
X149422101Y-63729543D01*
X149687930Y-63619433D01*
X149970132Y-63563300D01*
X150257868Y-63563300D01*
X150540070Y-63619433D01*
X150540070Y-63619433D01*
G37*
G36*
X147111070Y-63619433D02*
G01*
X147376899Y-63729543D01*
X147376901Y-63729544D01*
X147616142Y-63889400D01*
X147819600Y-64092858D01*
X147979456Y-64332099D01*
X147979457Y-64332101D01*
X148089567Y-64597930D01*
X148145700Y-64880132D01*
X148145700Y-65167868D01*
X148089567Y-65450070D01*
X148036961Y-65577071D01*
X147979456Y-65715901D01*
X147819600Y-65955142D01*
X147616142Y-66158600D01*
X147376901Y-66318456D01*
X147376900Y-66318457D01*
X147376899Y-66318457D01*
X147111070Y-66428567D01*
X146828868Y-66484700D01*
X146541132Y-66484700D01*
X146258930Y-66428567D01*
X145993101Y-66318457D01*
X145993100Y-66318457D01*
X145993099Y-66318456D01*
X145753858Y-66158600D01*
X145550400Y-65955142D01*
X145390544Y-65715901D01*
X145333039Y-65577071D01*
X145280433Y-65450070D01*
X145224300Y-65167868D01*
X145224300Y-64880132D01*
X145280433Y-64597930D01*
X145390543Y-64332101D01*
X145390544Y-64332099D01*
X145550400Y-64092858D01*
X145753858Y-63889400D01*
X145993099Y-63729544D01*
X145993101Y-63729543D01*
X146258930Y-63619433D01*
X146541132Y-63563300D01*
X146828868Y-63563300D01*
X147111070Y-63619433D01*
X147111070Y-63619433D01*
G37*
G36*
X161527142Y-61448242D02*
G01*
X161675101Y-61509529D01*
X161808255Y-61598499D01*
X161921501Y-61711745D01*
X162010471Y-61844899D01*
X162071758Y-61992858D01*
X162103000Y-62149925D01*
X162103000Y-62310075D01*
X162071758Y-62467142D01*
X162010471Y-62615101D01*
X161921501Y-62748255D01*
X161808255Y-62861501D01*
X161675101Y-62950471D01*
X161527142Y-63011758D01*
X161370075Y-63043000D01*
X161209925Y-63043000D01*
X161052858Y-63011758D01*
X160904899Y-62950471D01*
X160771745Y-62861501D01*
X160658499Y-62748255D01*
X160569529Y-62615101D01*
X160508242Y-62467142D01*
X160477000Y-62310075D01*
X160477000Y-62149925D01*
X160508242Y-61992858D01*
X160569529Y-61844899D01*
X160658499Y-61711745D01*
X160771745Y-61598499D01*
X160904899Y-61509529D01*
X161052858Y-61448242D01*
X161209925Y-61417000D01*
X161370075Y-61417000D01*
X161527142Y-61448242D01*
X161527142Y-61448242D01*
G37*
G36*
X171052142Y-61448242D02*
G01*
X171200101Y-61509529D01*
X171333255Y-61598499D01*
X171446501Y-61711745D01*
X171535471Y-61844899D01*
X171596758Y-61992858D01*
X171628000Y-62149925D01*
X171628000Y-62310075D01*
X171596758Y-62467142D01*
X171535471Y-62615101D01*
X171446501Y-62748255D01*
X171333255Y-62861501D01*
X171200101Y-62950471D01*
X171052142Y-63011758D01*
X170895075Y-63043000D01*
X170734925Y-63043000D01*
X170577858Y-63011758D01*
X170429899Y-62950471D01*
X170296745Y-62861501D01*
X170183499Y-62748255D01*
X170094529Y-62615101D01*
X170033242Y-62467142D01*
X170002000Y-62310075D01*
X170002000Y-62149925D01*
X170033242Y-61992858D01*
X170094529Y-61844899D01*
X170183499Y-61711745D01*
X170296745Y-61598499D01*
X170429899Y-61509529D01*
X170577858Y-61448242D01*
X170734925Y-61417000D01*
X170895075Y-61417000D01*
X171052142Y-61448242D01*
X171052142Y-61448242D01*
G37*
G36*
X173592142Y-61448242D02*
G01*
X173740101Y-61509529D01*
X173873255Y-61598499D01*
X173986501Y-61711745D01*
X174075471Y-61844899D01*
X174136758Y-61992858D01*
X174168000Y-62149925D01*
X174168000Y-62310075D01*
X174136758Y-62467142D01*
X174075471Y-62615101D01*
X173986501Y-62748255D01*
X173873255Y-62861501D01*
X173740101Y-62950471D01*
X173592142Y-63011758D01*
X173435075Y-63043000D01*
X173274925Y-63043000D01*
X173117858Y-63011758D01*
X172969899Y-62950471D01*
X172836745Y-62861501D01*
X172723499Y-62748255D01*
X172634529Y-62615101D01*
X172573242Y-62467142D01*
X172542000Y-62310075D01*
X172542000Y-62149925D01*
X172573242Y-61992858D01*
X172634529Y-61844899D01*
X172723499Y-61711745D01*
X172836745Y-61598499D01*
X172969899Y-61509529D01*
X173117858Y-61448242D01*
X173274925Y-61417000D01*
X173435075Y-61417000D01*
X173592142Y-61448242D01*
X173592142Y-61448242D01*
G37*
G36*
X164067142Y-61448242D02*
G01*
X164215101Y-61509529D01*
X164348255Y-61598499D01*
X164461501Y-61711745D01*
X164550471Y-61844899D01*
X164611758Y-61992858D01*
X164643000Y-62149925D01*
X164643000Y-62310075D01*
X164611758Y-62467142D01*
X164550471Y-62615101D01*
X164461501Y-62748255D01*
X164348255Y-62861501D01*
X164215101Y-62950471D01*
X164067142Y-63011758D01*
X163910075Y-63043000D01*
X163749925Y-63043000D01*
X163592858Y-63011758D01*
X163444899Y-62950471D01*
X163311745Y-62861501D01*
X163198499Y-62748255D01*
X163109529Y-62615101D01*
X163048242Y-62467142D01*
X163017000Y-62310075D01*
X163017000Y-62149925D01*
X163048242Y-61992858D01*
X163109529Y-61844899D01*
X163198499Y-61711745D01*
X163311745Y-61598499D01*
X163444899Y-61509529D01*
X163592858Y-61448242D01*
X163749925Y-61417000D01*
X163910075Y-61417000D01*
X164067142Y-61448242D01*
X164067142Y-61448242D01*
G37*
G36*
X176132142Y-61448242D02*
G01*
X176280101Y-61509529D01*
X176413255Y-61598499D01*
X176526501Y-61711745D01*
X176615471Y-61844899D01*
X176676758Y-61992858D01*
X176708000Y-62149925D01*
X176708000Y-62310075D01*
X176676758Y-62467142D01*
X176615471Y-62615101D01*
X176526501Y-62748255D01*
X176413255Y-62861501D01*
X176280101Y-62950471D01*
X176132142Y-63011758D01*
X175975075Y-63043000D01*
X175814925Y-63043000D01*
X175657858Y-63011758D01*
X175509899Y-62950471D01*
X175376745Y-62861501D01*
X175263499Y-62748255D01*
X175174529Y-62615101D01*
X175113242Y-62467142D01*
X175082000Y-62310075D01*
X175082000Y-62149925D01*
X175113242Y-61992858D01*
X175174529Y-61844899D01*
X175263499Y-61711745D01*
X175376745Y-61598499D01*
X175509899Y-61509529D01*
X175657858Y-61448242D01*
X175814925Y-61417000D01*
X175975075Y-61417000D01*
X176132142Y-61448242D01*
X176132142Y-61448242D01*
G37*
G36*
X158987142Y-61448242D02*
G01*
X159135101Y-61509529D01*
X159268255Y-61598499D01*
X159381501Y-61711745D01*
X159470471Y-61844899D01*
X159531758Y-61992858D01*
X159563000Y-62149925D01*
X159563000Y-62310075D01*
X159531758Y-62467142D01*
X159470471Y-62615101D01*
X159381501Y-62748255D01*
X159268255Y-62861501D01*
X159135101Y-62950471D01*
X158987142Y-63011758D01*
X158830075Y-63043000D01*
X158669925Y-63043000D01*
X158512858Y-63011758D01*
X158364899Y-62950471D01*
X158231745Y-62861501D01*
X158118499Y-62748255D01*
X158029529Y-62615101D01*
X157968242Y-62467142D01*
X157937000Y-62310075D01*
X157937000Y-62149925D01*
X157968242Y-61992858D01*
X158029529Y-61844899D01*
X158118499Y-61711745D01*
X158231745Y-61598499D01*
X158364899Y-61509529D01*
X158512858Y-61448242D01*
X158669925Y-61417000D01*
X158830075Y-61417000D01*
X158987142Y-61448242D01*
X158987142Y-61448242D01*
G37*
G36*
X220933908Y-54625380D02*
G01*
X221100767Y-54658570D01*
X221572299Y-54853885D01*
X221815029Y-55016073D01*
X221996666Y-55137438D01*
X222357562Y-55498334D01*
X222478927Y-55679971D01*
X222641115Y-55922701D01*
X222836430Y-56394233D01*
X222836430Y-56394234D01*
X222936000Y-56894807D01*
X222936000Y-57405193D01*
X222919940Y-57485930D01*
X222836430Y-57905767D01*
X222641115Y-58377299D01*
X222489705Y-58603899D01*
X222357562Y-58801666D01*
X221996666Y-59162562D01*
X221815029Y-59283927D01*
X221572299Y-59446115D01*
X221100767Y-59641430D01*
X220933908Y-59674620D01*
X220600193Y-59741000D01*
X220089807Y-59741000D01*
X219756092Y-59674620D01*
X219589233Y-59641430D01*
X219117701Y-59446115D01*
X218874971Y-59283927D01*
X218693334Y-59162562D01*
X218332438Y-58801666D01*
X218200295Y-58603899D01*
X218048885Y-58377299D01*
X217853570Y-57905767D01*
X217770060Y-57485930D01*
X217754000Y-57405193D01*
X217754000Y-56894807D01*
X217853570Y-56394234D01*
X217853570Y-56394233D01*
X218048885Y-55922701D01*
X218211073Y-55679971D01*
X218332438Y-55498334D01*
X218693334Y-55137438D01*
X218874971Y-55016073D01*
X219117701Y-54853885D01*
X219589233Y-54658570D01*
X219756092Y-54625380D01*
X220089807Y-54559000D01*
X220600193Y-54559000D01*
X220933908Y-54625380D01*
X220933908Y-54625380D01*
G37*
G36*
X213059908Y-54625380D02*
G01*
X213226767Y-54658570D01*
X213698299Y-54853885D01*
X213941029Y-55016073D01*
X214122666Y-55137438D01*
X214483562Y-55498334D01*
X214604927Y-55679971D01*
X214767115Y-55922701D01*
X214962430Y-56394233D01*
X214962430Y-56394234D01*
X215062000Y-56894807D01*
X215062000Y-57405193D01*
X215045940Y-57485930D01*
X214962430Y-57905767D01*
X214767115Y-58377299D01*
X214615705Y-58603899D01*
X214483562Y-58801666D01*
X214122666Y-59162562D01*
X213941029Y-59283927D01*
X213698299Y-59446115D01*
X213226767Y-59641430D01*
X213059908Y-59674620D01*
X212726193Y-59741000D01*
X212215807Y-59741000D01*
X211882092Y-59674620D01*
X211715233Y-59641430D01*
X211243701Y-59446115D01*
X211000971Y-59283927D01*
X210819334Y-59162562D01*
X210458438Y-58801666D01*
X210326295Y-58603899D01*
X210174885Y-58377299D01*
X209979570Y-57905767D01*
X209896060Y-57485930D01*
X209880000Y-57405193D01*
X209880000Y-56894807D01*
X209979570Y-56394234D01*
X209979570Y-56394233D01*
X210174885Y-55922701D01*
X210337073Y-55679971D01*
X210458438Y-55498334D01*
X210819334Y-55137438D01*
X211000971Y-55016073D01*
X211243701Y-54853885D01*
X211715233Y-54658570D01*
X211882092Y-54625380D01*
X212215807Y-54559000D01*
X212726193Y-54559000D01*
X213059908Y-54625380D01*
X213059908Y-54625380D01*
G37*
G36*
X150540070Y-56507433D02*
G01*
X150805899Y-56617543D01*
X150805901Y-56617544D01*
X151045142Y-56777400D01*
X151248600Y-56980858D01*
X151248601Y-56980860D01*
X151408457Y-57220101D01*
X151518567Y-57485930D01*
X151574700Y-57768132D01*
X151574700Y-58055868D01*
X151518567Y-58338070D01*
X151408457Y-58603899D01*
X151408456Y-58603901D01*
X151248600Y-58843142D01*
X151045142Y-59046600D01*
X150805901Y-59206456D01*
X150805900Y-59206457D01*
X150805899Y-59206457D01*
X150540070Y-59316567D01*
X150257868Y-59372700D01*
X149970132Y-59372700D01*
X149687930Y-59316567D01*
X149422101Y-59206457D01*
X149422100Y-59206457D01*
X149422099Y-59206456D01*
X149182858Y-59046600D01*
X148979400Y-58843142D01*
X148819544Y-58603901D01*
X148819543Y-58603899D01*
X148709433Y-58338070D01*
X148653300Y-58055868D01*
X148653300Y-57768132D01*
X148709433Y-57485930D01*
X148819543Y-57220101D01*
X148979399Y-56980860D01*
X148979400Y-56980858D01*
X149182858Y-56777400D01*
X149422099Y-56617544D01*
X149422101Y-56617543D01*
X149687930Y-56507433D01*
X149970132Y-56451300D01*
X150257868Y-56451300D01*
X150540070Y-56507433D01*
X150540070Y-56507433D01*
G37*
G36*
X147111070Y-56507433D02*
G01*
X147376899Y-56617543D01*
X147376901Y-56617544D01*
X147616142Y-56777400D01*
X147819600Y-56980858D01*
X147819601Y-56980860D01*
X147979457Y-57220101D01*
X148089567Y-57485930D01*
X148145700Y-57768132D01*
X148145700Y-58055868D01*
X148089567Y-58338070D01*
X147979457Y-58603899D01*
X147979456Y-58603901D01*
X147819600Y-58843142D01*
X147616142Y-59046600D01*
X147376901Y-59206456D01*
X147376900Y-59206457D01*
X147376899Y-59206457D01*
X147111070Y-59316567D01*
X146828868Y-59372700D01*
X146541132Y-59372700D01*
X146258930Y-59316567D01*
X145993101Y-59206457D01*
X145993100Y-59206457D01*
X145993099Y-59206456D01*
X145753858Y-59046600D01*
X145550400Y-58843142D01*
X145390544Y-58603901D01*
X145390543Y-58603899D01*
X145280433Y-58338070D01*
X145224300Y-58055868D01*
X145224300Y-57768132D01*
X145280433Y-57485930D01*
X145390543Y-57220101D01*
X145550399Y-56980860D01*
X145550400Y-56980858D01*
X145753858Y-56777400D01*
X145993099Y-56617544D01*
X145993101Y-56617543D01*
X146258930Y-56507433D01*
X146541132Y-56451300D01*
X146828868Y-56451300D01*
X147111070Y-56507433D01*
X147111070Y-56507433D01*
G37*
G36*
X188767070Y-56507433D02*
G01*
X189032899Y-56617543D01*
X189032901Y-56617544D01*
X189272142Y-56777400D01*
X189475600Y-56980858D01*
X189475601Y-56980860D01*
X189635457Y-57220101D01*
X189745567Y-57485930D01*
X189801700Y-57768132D01*
X189801700Y-58055868D01*
X189745567Y-58338070D01*
X189635457Y-58603899D01*
X189635456Y-58603901D01*
X189475600Y-58843142D01*
X189272142Y-59046600D01*
X189032901Y-59206456D01*
X189032900Y-59206457D01*
X189032899Y-59206457D01*
X188767070Y-59316567D01*
X188484868Y-59372700D01*
X188197132Y-59372700D01*
X187914930Y-59316567D01*
X187649101Y-59206457D01*
X187649100Y-59206457D01*
X187649099Y-59206456D01*
X187409858Y-59046600D01*
X187206400Y-58843142D01*
X187046544Y-58603901D01*
X187046543Y-58603899D01*
X186936433Y-58338070D01*
X186880300Y-58055868D01*
X186880300Y-57768132D01*
X186936433Y-57485930D01*
X187046543Y-57220101D01*
X187206399Y-56980860D01*
X187206400Y-56980858D01*
X187409858Y-56777400D01*
X187649099Y-56617544D01*
X187649101Y-56617543D01*
X187914930Y-56507433D01*
X188197132Y-56451300D01*
X188484868Y-56451300D01*
X188767070Y-56507433D01*
X188767070Y-56507433D01*
G37*
G36*
X185338070Y-56507433D02*
G01*
X185603899Y-56617543D01*
X185603901Y-56617544D01*
X185843142Y-56777400D01*
X186046600Y-56980858D01*
X186046601Y-56980860D01*
X186206457Y-57220101D01*
X186316567Y-57485930D01*
X186372700Y-57768132D01*
X186372700Y-58055868D01*
X186316567Y-58338070D01*
X186206457Y-58603899D01*
X186206456Y-58603901D01*
X186046600Y-58843142D01*
X185843142Y-59046600D01*
X185603901Y-59206456D01*
X185603900Y-59206457D01*
X185603899Y-59206457D01*
X185338070Y-59316567D01*
X185055868Y-59372700D01*
X184768132Y-59372700D01*
X184485930Y-59316567D01*
X184220101Y-59206457D01*
X184220100Y-59206457D01*
X184220099Y-59206456D01*
X183980858Y-59046600D01*
X183777400Y-58843142D01*
X183617544Y-58603901D01*
X183617543Y-58603899D01*
X183507433Y-58338070D01*
X183451300Y-58055868D01*
X183451300Y-57768132D01*
X183507433Y-57485930D01*
X183617543Y-57220101D01*
X183777399Y-56980860D01*
X183777400Y-56980858D01*
X183980858Y-56777400D01*
X184220099Y-56617544D01*
X184220101Y-56617543D01*
X184485930Y-56507433D01*
X184768132Y-56451300D01*
X185055868Y-56451300D01*
X185338070Y-56507433D01*
X185338070Y-56507433D01*
G37*
G36*
X123143908Y-42687380D02*
G01*
X123310767Y-42720570D01*
X123782299Y-42915885D01*
X123976182Y-43045434D01*
X124206666Y-43199438D01*
X124567562Y-43560334D01*
X124688927Y-43741971D01*
X124851115Y-43984701D01*
X125046430Y-44456233D01*
X125046430Y-44456234D01*
X125129941Y-44876071D01*
X125146000Y-44956809D01*
X125146000Y-45467191D01*
X125046430Y-45967767D01*
X124851115Y-46439299D01*
X124688927Y-46682029D01*
X124567562Y-46863666D01*
X124206666Y-47224562D01*
X124025029Y-47345927D01*
X123782299Y-47508115D01*
X123310767Y-47703430D01*
X123143908Y-47736620D01*
X122810193Y-47803000D01*
X122299807Y-47803000D01*
X121966092Y-47736620D01*
X121799233Y-47703430D01*
X121327701Y-47508115D01*
X121084971Y-47345927D01*
X120903334Y-47224562D01*
X120542438Y-46863666D01*
X120421073Y-46682029D01*
X120258885Y-46439299D01*
X120063570Y-45967767D01*
X119964000Y-45467191D01*
X119964000Y-44956809D01*
X119980060Y-44876071D01*
X120063570Y-44456234D01*
X120063570Y-44456233D01*
X120258885Y-43984701D01*
X120421073Y-43741971D01*
X120542438Y-43560334D01*
X120903334Y-43199438D01*
X121133818Y-43045434D01*
X121327701Y-42915885D01*
X121799233Y-42720570D01*
X121966092Y-42687380D01*
X122299807Y-42621000D01*
X122810193Y-42621000D01*
X123143908Y-42687380D01*
X123143908Y-42687380D01*
G37*
G36*
X115269908Y-42687380D02*
G01*
X115436767Y-42720570D01*
X115908299Y-42915885D01*
X116102182Y-43045434D01*
X116332666Y-43199438D01*
X116693562Y-43560334D01*
X116814927Y-43741971D01*
X116977115Y-43984701D01*
X117172430Y-44456233D01*
X117172430Y-44456234D01*
X117255941Y-44876071D01*
X117272000Y-44956809D01*
X117272000Y-45467191D01*
X117172430Y-45967767D01*
X116977115Y-46439299D01*
X116814927Y-46682029D01*
X116693562Y-46863666D01*
X116332666Y-47224562D01*
X116151029Y-47345927D01*
X115908299Y-47508115D01*
X115436767Y-47703430D01*
X115269908Y-47736620D01*
X114936193Y-47803000D01*
X114425807Y-47803000D01*
X114092092Y-47736620D01*
X113925233Y-47703430D01*
X113453701Y-47508115D01*
X113210971Y-47345927D01*
X113029334Y-47224562D01*
X112668438Y-46863666D01*
X112547073Y-46682029D01*
X112384885Y-46439299D01*
X112189570Y-45967767D01*
X112090000Y-45467191D01*
X112090000Y-44956809D01*
X112106060Y-44876071D01*
X112189570Y-44456234D01*
X112189570Y-44456233D01*
X112384885Y-43984701D01*
X112547073Y-43741971D01*
X112668438Y-43560334D01*
X113029334Y-43199438D01*
X113259818Y-43045434D01*
X113453701Y-42915885D01*
X113925233Y-42720570D01*
X114092092Y-42687380D01*
X114425807Y-42621000D01*
X114936193Y-42621000D01*
X115269908Y-42687380D01*
X115269908Y-42687380D01*
G37*
G36*
X150540070Y-43045433D02*
G01*
X150805899Y-43155543D01*
X150805901Y-43155544D01*
X151045142Y-43315400D01*
X151248600Y-43518858D01*
X151248601Y-43518860D01*
X151408457Y-43758101D01*
X151518567Y-44023930D01*
X151574700Y-44306132D01*
X151574700Y-44593868D01*
X151518567Y-44876070D01*
X151408457Y-45141899D01*
X151408456Y-45141901D01*
X151248600Y-45381142D01*
X151045142Y-45584600D01*
X150805901Y-45744456D01*
X150805900Y-45744457D01*
X150805899Y-45744457D01*
X150540070Y-45854567D01*
X150257868Y-45910700D01*
X149970132Y-45910700D01*
X149687930Y-45854567D01*
X149422101Y-45744457D01*
X149422100Y-45744457D01*
X149422099Y-45744456D01*
X149182858Y-45584600D01*
X148979400Y-45381142D01*
X148819544Y-45141901D01*
X148819543Y-45141899D01*
X148709433Y-44876070D01*
X148653300Y-44593868D01*
X148653300Y-44306132D01*
X148709433Y-44023930D01*
X148819543Y-43758101D01*
X148979399Y-43518860D01*
X148979400Y-43518858D01*
X149182858Y-43315400D01*
X149422099Y-43155544D01*
X149422101Y-43155543D01*
X149687930Y-43045433D01*
X149970132Y-42989300D01*
X150257868Y-42989300D01*
X150540070Y-43045433D01*
X150540070Y-43045433D01*
G37*
G36*
X185338070Y-43045433D02*
G01*
X185603899Y-43155543D01*
X185603901Y-43155544D01*
X185843142Y-43315400D01*
X186046600Y-43518858D01*
X186046601Y-43518860D01*
X186206457Y-43758101D01*
X186316567Y-44023930D01*
X186372700Y-44306132D01*
X186372700Y-44593868D01*
X186316567Y-44876070D01*
X186206457Y-45141899D01*
X186206456Y-45141901D01*
X186046600Y-45381142D01*
X185843142Y-45584600D01*
X185603901Y-45744456D01*
X185603900Y-45744457D01*
X185603899Y-45744457D01*
X185338070Y-45854567D01*
X185055868Y-45910700D01*
X184768132Y-45910700D01*
X184485930Y-45854567D01*
X184220101Y-45744457D01*
X184220100Y-45744457D01*
X184220099Y-45744456D01*
X183980858Y-45584600D01*
X183777400Y-45381142D01*
X183617544Y-45141901D01*
X183617543Y-45141899D01*
X183507433Y-44876070D01*
X183451300Y-44593868D01*
X183451300Y-44306132D01*
X183507433Y-44023930D01*
X183617543Y-43758101D01*
X183777399Y-43518860D01*
X183777400Y-43518858D01*
X183980858Y-43315400D01*
X184220099Y-43155544D01*
X184220101Y-43155543D01*
X184485930Y-43045433D01*
X184768132Y-42989300D01*
X185055868Y-42989300D01*
X185338070Y-43045433D01*
X185338070Y-43045433D01*
G37*
G36*
X147111070Y-43045433D02*
G01*
X147376899Y-43155543D01*
X147376901Y-43155544D01*
X147616142Y-43315400D01*
X147819600Y-43518858D01*
X147819601Y-43518860D01*
X147979457Y-43758101D01*
X148089567Y-44023930D01*
X148145700Y-44306132D01*
X148145700Y-44593868D01*
X148089567Y-44876070D01*
X147979457Y-45141899D01*
X147979456Y-45141901D01*
X147819600Y-45381142D01*
X147616142Y-45584600D01*
X147376901Y-45744456D01*
X147376900Y-45744457D01*
X147376899Y-45744457D01*
X147111070Y-45854567D01*
X146828868Y-45910700D01*
X146541132Y-45910700D01*
X146258930Y-45854567D01*
X145993101Y-45744457D01*
X145993100Y-45744457D01*
X145993099Y-45744456D01*
X145753858Y-45584600D01*
X145550400Y-45381142D01*
X145390544Y-45141901D01*
X145390543Y-45141899D01*
X145280433Y-44876070D01*
X145224300Y-44593868D01*
X145224300Y-44306132D01*
X145280433Y-44023930D01*
X145390543Y-43758101D01*
X145550399Y-43518860D01*
X145550400Y-43518858D01*
X145753858Y-43315400D01*
X145993099Y-43155544D01*
X145993101Y-43155543D01*
X146258930Y-43045433D01*
X146541132Y-42989300D01*
X146828868Y-42989300D01*
X147111070Y-43045433D01*
X147111070Y-43045433D01*
G37*
G36*
X188767070Y-43045433D02*
G01*
X189032899Y-43155543D01*
X189032901Y-43155544D01*
X189272142Y-43315400D01*
X189475600Y-43518858D01*
X189475601Y-43518860D01*
X189635457Y-43758101D01*
X189745567Y-44023930D01*
X189801700Y-44306132D01*
X189801700Y-44593868D01*
X189745567Y-44876070D01*
X189635457Y-45141899D01*
X189635456Y-45141901D01*
X189475600Y-45381142D01*
X189272142Y-45584600D01*
X189032901Y-45744456D01*
X189032900Y-45744457D01*
X189032899Y-45744457D01*
X188767070Y-45854567D01*
X188484868Y-45910700D01*
X188197132Y-45910700D01*
X187914930Y-45854567D01*
X187649101Y-45744457D01*
X187649100Y-45744457D01*
X187649099Y-45744456D01*
X187409858Y-45584600D01*
X187206400Y-45381142D01*
X187046544Y-45141901D01*
X187046543Y-45141899D01*
X186936433Y-44876070D01*
X186880300Y-44593868D01*
X186880300Y-44306132D01*
X186936433Y-44023930D01*
X187046543Y-43758101D01*
X187206399Y-43518860D01*
X187206400Y-43518858D01*
X187409858Y-43315400D01*
X187649099Y-43155544D01*
X187649101Y-43155543D01*
X187914930Y-43045433D01*
X188197132Y-42989300D01*
X188484868Y-42989300D01*
X188767070Y-43045433D01*
X188767070Y-43045433D01*
G37*
G36*
X165943228Y-41726703D02*
G01*
X166098100Y-41790853D01*
X166237481Y-41883985D01*
X166356015Y-42002519D01*
X166449147Y-42141900D01*
X166513297Y-42296772D01*
X166546000Y-42461184D01*
X166546000Y-42628816D01*
X166513297Y-42793228D01*
X166449147Y-42948100D01*
X166356015Y-43087481D01*
X166237481Y-43206015D01*
X166098100Y-43299147D01*
X165943228Y-43363297D01*
X165778816Y-43396000D01*
X165611184Y-43396000D01*
X165446772Y-43363297D01*
X165291900Y-43299147D01*
X165152519Y-43206015D01*
X165033985Y-43087481D01*
X164940853Y-42948100D01*
X164876703Y-42793228D01*
X164844000Y-42628816D01*
X164844000Y-42461184D01*
X164876703Y-42296772D01*
X164940853Y-42141900D01*
X165033985Y-42002519D01*
X165152519Y-41883985D01*
X165291900Y-41790853D01*
X165446772Y-41726703D01*
X165611184Y-41694000D01*
X165778816Y-41694000D01*
X165943228Y-41726703D01*
X165943228Y-41726703D01*
G37*
G36*
X164046000Y-43396000D02*
G01*
X162344000Y-43396000D01*
X162344000Y-41694000D01*
X164046000Y-41694000D01*
X164046000Y-43396000D01*
X164046000Y-43396000D01*
G37*
G36*
X149981228Y-36606703D02*
G01*
X150136100Y-36670853D01*
X150275481Y-36763985D01*
X150394015Y-36882519D01*
X150487147Y-37021900D01*
X150551297Y-37176772D01*
X150584000Y-37341184D01*
X150584000Y-37508816D01*
X150551297Y-37673228D01*
X150487147Y-37828100D01*
X150394015Y-37967481D01*
X150275481Y-38086015D01*
X150136100Y-38179147D01*
X149981228Y-38243297D01*
X149816816Y-38276000D01*
X149649184Y-38276000D01*
X149484772Y-38243297D01*
X149329900Y-38179147D01*
X149190519Y-38086015D01*
X149071985Y-37967481D01*
X148978853Y-37828100D01*
X148914703Y-37673228D01*
X148882000Y-37508816D01*
X148882000Y-37341184D01*
X148914703Y-37176772D01*
X148978853Y-37021900D01*
X149071985Y-36882519D01*
X149190519Y-36763985D01*
X149329900Y-36670853D01*
X149484772Y-36606703D01*
X149649184Y-36574000D01*
X149816816Y-36574000D01*
X149981228Y-36606703D01*
X149981228Y-36606703D01*
G37*
G36*
X137291552Y-37041331D02*
G01*
X137373627Y-37075328D01*
X137373629Y-37075329D01*
X137410813Y-37100175D01*
X137447495Y-37124685D01*
X137510315Y-37187505D01*
X137559672Y-37261373D01*
X137593669Y-37343448D01*
X137611000Y-37430579D01*
X137611000Y-37519421D01*
X137593669Y-37606552D01*
X137566050Y-37673229D01*
X137559671Y-37688629D01*
X137510314Y-37762496D01*
X137447496Y-37825314D01*
X137373629Y-37874671D01*
X137373628Y-37874672D01*
X137373627Y-37874672D01*
X137291552Y-37908669D01*
X137204421Y-37926000D01*
X137115579Y-37926000D01*
X137028448Y-37908669D01*
X136946373Y-37874672D01*
X136946372Y-37874672D01*
X136946371Y-37874671D01*
X136872504Y-37825314D01*
X136809686Y-37762496D01*
X136760329Y-37688629D01*
X136753950Y-37673229D01*
X136726331Y-37606552D01*
X136709000Y-37519421D01*
X136709000Y-37430579D01*
X136726331Y-37343448D01*
X136760328Y-37261373D01*
X136809685Y-37187505D01*
X136872505Y-37124685D01*
X136909187Y-37100175D01*
X136946371Y-37075329D01*
X136946373Y-37075328D01*
X137028448Y-37041331D01*
X137115579Y-37024000D01*
X137204421Y-37024000D01*
X137291552Y-37041331D01*
X137291552Y-37041331D01*
G37*
G36*
X177296552Y-37041331D02*
G01*
X177378627Y-37075328D01*
X177378629Y-37075329D01*
X177415813Y-37100175D01*
X177452495Y-37124685D01*
X177515315Y-37187505D01*
X177564672Y-37261373D01*
X177598669Y-37343448D01*
X177616000Y-37430579D01*
X177616000Y-37519421D01*
X177598669Y-37606552D01*
X177571050Y-37673229D01*
X177564671Y-37688629D01*
X177515314Y-37762496D01*
X177452496Y-37825314D01*
X177378629Y-37874671D01*
X177378628Y-37874672D01*
X177378627Y-37874672D01*
X177296552Y-37908669D01*
X177209421Y-37926000D01*
X177120579Y-37926000D01*
X177033448Y-37908669D01*
X176951373Y-37874672D01*
X176951372Y-37874672D01*
X176951371Y-37874671D01*
X176877504Y-37825314D01*
X176814686Y-37762496D01*
X176765329Y-37688629D01*
X176758950Y-37673229D01*
X176731331Y-37606552D01*
X176714000Y-37519421D01*
X176714000Y-37430579D01*
X176731331Y-37343448D01*
X176765328Y-37261373D01*
X176814685Y-37187505D01*
X176877505Y-37124685D01*
X176914187Y-37100175D01*
X176951371Y-37075329D01*
X176951373Y-37075328D01*
X177033448Y-37041331D01*
X177120579Y-37024000D01*
X177209421Y-37024000D01*
X177296552Y-37041331D01*
X177296552Y-37041331D01*
G37*
G36*
X176026552Y-37041331D02*
G01*
X176108627Y-37075328D01*
X176108629Y-37075329D01*
X176145813Y-37100175D01*
X176182495Y-37124685D01*
X176245315Y-37187505D01*
X176294672Y-37261373D01*
X176328669Y-37343448D01*
X176346000Y-37430579D01*
X176346000Y-37519421D01*
X176328669Y-37606552D01*
X176301050Y-37673229D01*
X176294671Y-37688629D01*
X176245314Y-37762496D01*
X176182496Y-37825314D01*
X176108629Y-37874671D01*
X176108628Y-37874672D01*
X176108627Y-37874672D01*
X176026552Y-37908669D01*
X175939421Y-37926000D01*
X175850579Y-37926000D01*
X175763448Y-37908669D01*
X175681373Y-37874672D01*
X175681372Y-37874672D01*
X175681371Y-37874671D01*
X175607504Y-37825314D01*
X175544686Y-37762496D01*
X175495329Y-37688629D01*
X175488950Y-37673229D01*
X175461331Y-37606552D01*
X175444000Y-37519421D01*
X175444000Y-37430579D01*
X175461331Y-37343448D01*
X175495328Y-37261373D01*
X175544685Y-37187505D01*
X175607505Y-37124685D01*
X175644187Y-37100175D01*
X175681371Y-37075329D01*
X175681373Y-37075328D01*
X175763448Y-37041331D01*
X175850579Y-37024000D01*
X175939421Y-37024000D01*
X176026552Y-37041331D01*
X176026552Y-37041331D01*
G37*
G36*
X174756552Y-37041331D02*
G01*
X174838627Y-37075328D01*
X174838629Y-37075329D01*
X174875813Y-37100175D01*
X174912495Y-37124685D01*
X174975315Y-37187505D01*
X175024672Y-37261373D01*
X175058669Y-37343448D01*
X175076000Y-37430579D01*
X175076000Y-37519421D01*
X175058669Y-37606552D01*
X175031050Y-37673229D01*
X175024671Y-37688629D01*
X174975314Y-37762496D01*
X174912496Y-37825314D01*
X174838629Y-37874671D01*
X174838628Y-37874672D01*
X174838627Y-37874672D01*
X174756552Y-37908669D01*
X174669421Y-37926000D01*
X174580579Y-37926000D01*
X174493448Y-37908669D01*
X174411373Y-37874672D01*
X174411372Y-37874672D01*
X174411371Y-37874671D01*
X174337504Y-37825314D01*
X174274686Y-37762496D01*
X174225329Y-37688629D01*
X174218950Y-37673229D01*
X174191331Y-37606552D01*
X174174000Y-37519421D01*
X174174000Y-37430579D01*
X174191331Y-37343448D01*
X174225328Y-37261373D01*
X174274685Y-37187505D01*
X174337505Y-37124685D01*
X174374187Y-37100175D01*
X174411371Y-37075329D01*
X174411373Y-37075328D01*
X174493448Y-37041331D01*
X174580579Y-37024000D01*
X174669421Y-37024000D01*
X174756552Y-37041331D01*
X174756552Y-37041331D01*
G37*
G36*
X178566552Y-37041331D02*
G01*
X178648627Y-37075328D01*
X178648629Y-37075329D01*
X178685813Y-37100175D01*
X178722495Y-37124685D01*
X178785315Y-37187505D01*
X178834672Y-37261373D01*
X178868669Y-37343448D01*
X178886000Y-37430579D01*
X178886000Y-37519421D01*
X178868669Y-37606552D01*
X178841050Y-37673229D01*
X178834671Y-37688629D01*
X178785314Y-37762496D01*
X178722496Y-37825314D01*
X178648629Y-37874671D01*
X178648628Y-37874672D01*
X178648627Y-37874672D01*
X178566552Y-37908669D01*
X178479421Y-37926000D01*
X178390579Y-37926000D01*
X178303448Y-37908669D01*
X178221373Y-37874672D01*
X178221372Y-37874672D01*
X178221371Y-37874671D01*
X178147504Y-37825314D01*
X178084686Y-37762496D01*
X178035329Y-37688629D01*
X178028950Y-37673229D01*
X178001331Y-37606552D01*
X177984000Y-37519421D01*
X177984000Y-37430579D01*
X178001331Y-37343448D01*
X178035328Y-37261373D01*
X178084685Y-37187505D01*
X178147505Y-37124685D01*
X178184187Y-37100175D01*
X178221371Y-37075329D01*
X178221373Y-37075328D01*
X178303448Y-37041331D01*
X178390579Y-37024000D01*
X178479421Y-37024000D01*
X178566552Y-37041331D01*
X178566552Y-37041331D01*
G37*
G36*
X136021552Y-37041331D02*
G01*
X136103627Y-37075328D01*
X136103629Y-37075329D01*
X136140813Y-37100175D01*
X136177495Y-37124685D01*
X136240315Y-37187505D01*
X136289672Y-37261373D01*
X136323669Y-37343448D01*
X136341000Y-37430579D01*
X136341000Y-37519421D01*
X136323669Y-37606552D01*
X136296050Y-37673229D01*
X136289671Y-37688629D01*
X136240314Y-37762496D01*
X136177496Y-37825314D01*
X136103629Y-37874671D01*
X136103628Y-37874672D01*
X136103627Y-37874672D01*
X136021552Y-37908669D01*
X135934421Y-37926000D01*
X135845579Y-37926000D01*
X135758448Y-37908669D01*
X135676373Y-37874672D01*
X135676372Y-37874672D01*
X135676371Y-37874671D01*
X135602504Y-37825314D01*
X135539686Y-37762496D01*
X135490329Y-37688629D01*
X135483950Y-37673229D01*
X135456331Y-37606552D01*
X135439000Y-37519421D01*
X135439000Y-37430579D01*
X135456331Y-37343448D01*
X135490328Y-37261373D01*
X135539685Y-37187505D01*
X135602505Y-37124685D01*
X135639187Y-37100175D01*
X135676371Y-37075329D01*
X135676373Y-37075328D01*
X135758448Y-37041331D01*
X135845579Y-37024000D01*
X135934421Y-37024000D01*
X136021552Y-37041331D01*
X136021552Y-37041331D01*
G37*
G36*
X134751552Y-37041331D02*
G01*
X134833627Y-37075328D01*
X134833629Y-37075329D01*
X134870813Y-37100175D01*
X134907495Y-37124685D01*
X134970315Y-37187505D01*
X135019672Y-37261373D01*
X135053669Y-37343448D01*
X135071000Y-37430579D01*
X135071000Y-37519421D01*
X135053669Y-37606552D01*
X135026050Y-37673229D01*
X135019671Y-37688629D01*
X134970314Y-37762496D01*
X134907496Y-37825314D01*
X134833629Y-37874671D01*
X134833628Y-37874672D01*
X134833627Y-37874672D01*
X134751552Y-37908669D01*
X134664421Y-37926000D01*
X134575579Y-37926000D01*
X134488448Y-37908669D01*
X134406373Y-37874672D01*
X134406372Y-37874672D01*
X134406371Y-37874671D01*
X134332504Y-37825314D01*
X134269686Y-37762496D01*
X134220329Y-37688629D01*
X134213950Y-37673229D01*
X134186331Y-37606552D01*
X134169000Y-37519421D01*
X134169000Y-37430579D01*
X134186331Y-37343448D01*
X134220328Y-37261373D01*
X134269685Y-37187505D01*
X134332505Y-37124685D01*
X134369187Y-37100175D01*
X134406371Y-37075329D01*
X134406373Y-37075328D01*
X134488448Y-37041331D01*
X134575579Y-37024000D01*
X134664421Y-37024000D01*
X134751552Y-37041331D01*
X134751552Y-37041331D01*
G37*
G36*
X133481552Y-37041331D02*
G01*
X133563627Y-37075328D01*
X133563629Y-37075329D01*
X133600813Y-37100175D01*
X133637495Y-37124685D01*
X133700315Y-37187505D01*
X133749672Y-37261373D01*
X133783669Y-37343448D01*
X133801000Y-37430579D01*
X133801000Y-37519421D01*
X133783669Y-37606552D01*
X133756050Y-37673229D01*
X133749671Y-37688629D01*
X133700314Y-37762496D01*
X133637496Y-37825314D01*
X133563629Y-37874671D01*
X133563628Y-37874672D01*
X133563627Y-37874672D01*
X133481552Y-37908669D01*
X133394421Y-37926000D01*
X133305579Y-37926000D01*
X133218448Y-37908669D01*
X133136373Y-37874672D01*
X133136372Y-37874672D01*
X133136371Y-37874671D01*
X133062504Y-37825314D01*
X132999686Y-37762496D01*
X132950329Y-37688629D01*
X132943950Y-37673229D01*
X132916331Y-37606552D01*
X132899000Y-37519421D01*
X132899000Y-37430579D01*
X132916331Y-37343448D01*
X132950328Y-37261373D01*
X132999685Y-37187505D01*
X133062505Y-37124685D01*
X133099187Y-37100175D01*
X133136371Y-37075329D01*
X133136373Y-37075328D01*
X133218448Y-37041331D01*
X133305579Y-37024000D01*
X133394421Y-37024000D01*
X133481552Y-37041331D01*
X133481552Y-37041331D01*
G37*
G36*
X132211552Y-37041331D02*
G01*
X132293627Y-37075328D01*
X132293629Y-37075329D01*
X132330813Y-37100175D01*
X132367495Y-37124685D01*
X132430315Y-37187505D01*
X132479672Y-37261373D01*
X132513669Y-37343448D01*
X132531000Y-37430579D01*
X132531000Y-37519421D01*
X132513669Y-37606552D01*
X132486050Y-37673229D01*
X132479671Y-37688629D01*
X132430314Y-37762496D01*
X132367496Y-37825314D01*
X132293629Y-37874671D01*
X132293628Y-37874672D01*
X132293627Y-37874672D01*
X132211552Y-37908669D01*
X132124421Y-37926000D01*
X132035579Y-37926000D01*
X131948448Y-37908669D01*
X131866373Y-37874672D01*
X131866372Y-37874672D01*
X131866371Y-37874671D01*
X131792504Y-37825314D01*
X131729686Y-37762496D01*
X131680329Y-37688629D01*
X131673950Y-37673229D01*
X131646331Y-37606552D01*
X131629000Y-37519421D01*
X131629000Y-37430579D01*
X131646331Y-37343448D01*
X131680328Y-37261373D01*
X131729685Y-37187505D01*
X131792505Y-37124685D01*
X131829187Y-37100175D01*
X131866371Y-37075329D01*
X131866373Y-37075328D01*
X131948448Y-37041331D01*
X132035579Y-37024000D01*
X132124421Y-37024000D01*
X132211552Y-37041331D01*
X132211552Y-37041331D01*
G37*
G36*
X173486552Y-37041331D02*
G01*
X173568627Y-37075328D01*
X173568629Y-37075329D01*
X173605813Y-37100175D01*
X173642495Y-37124685D01*
X173705315Y-37187505D01*
X173754672Y-37261373D01*
X173788669Y-37343448D01*
X173806000Y-37430579D01*
X173806000Y-37519421D01*
X173788669Y-37606552D01*
X173761050Y-37673229D01*
X173754671Y-37688629D01*
X173705314Y-37762496D01*
X173642496Y-37825314D01*
X173568629Y-37874671D01*
X173568628Y-37874672D01*
X173568627Y-37874672D01*
X173486552Y-37908669D01*
X173399421Y-37926000D01*
X173310579Y-37926000D01*
X173223448Y-37908669D01*
X173141373Y-37874672D01*
X173141372Y-37874672D01*
X173141371Y-37874671D01*
X173067504Y-37825314D01*
X173004686Y-37762496D01*
X172955329Y-37688629D01*
X172948950Y-37673229D01*
X172921331Y-37606552D01*
X172904000Y-37519421D01*
X172904000Y-37430579D01*
X172921331Y-37343448D01*
X172955328Y-37261373D01*
X173004685Y-37187505D01*
X173067505Y-37124685D01*
X173104187Y-37100175D01*
X173141371Y-37075329D01*
X173141373Y-37075328D01*
X173223448Y-37041331D01*
X173310579Y-37024000D01*
X173399421Y-37024000D01*
X173486552Y-37041331D01*
X173486552Y-37041331D01*
G37*
G36*
X134751552Y-35771331D02*
G01*
X134833627Y-35805328D01*
X134833629Y-35805329D01*
X134870813Y-35830175D01*
X134907495Y-35854685D01*
X134970315Y-35917505D01*
X135019672Y-35991373D01*
X135053669Y-36073448D01*
X135071000Y-36160579D01*
X135071000Y-36249421D01*
X135053669Y-36336552D01*
X135019672Y-36418627D01*
X135019671Y-36418629D01*
X134970314Y-36492496D01*
X134907496Y-36555314D01*
X134833629Y-36604671D01*
X134833628Y-36604672D01*
X134833627Y-36604672D01*
X134751552Y-36638669D01*
X134664421Y-36656000D01*
X134575579Y-36656000D01*
X134488448Y-36638669D01*
X134406373Y-36604672D01*
X134406372Y-36604672D01*
X134406371Y-36604671D01*
X134332504Y-36555314D01*
X134269686Y-36492496D01*
X134220329Y-36418629D01*
X134220328Y-36418627D01*
X134186331Y-36336552D01*
X134169000Y-36249421D01*
X134169000Y-36160579D01*
X134186331Y-36073448D01*
X134220328Y-35991373D01*
X134269685Y-35917505D01*
X134332505Y-35854685D01*
X134369187Y-35830175D01*
X134406371Y-35805329D01*
X134406373Y-35805328D01*
X134488448Y-35771331D01*
X134575579Y-35754000D01*
X134664421Y-35754000D01*
X134751552Y-35771331D01*
X134751552Y-35771331D01*
G37*
G36*
X133481552Y-35771331D02*
G01*
X133563627Y-35805328D01*
X133563629Y-35805329D01*
X133600813Y-35830175D01*
X133637495Y-35854685D01*
X133700315Y-35917505D01*
X133749672Y-35991373D01*
X133783669Y-36073448D01*
X133801000Y-36160579D01*
X133801000Y-36249421D01*
X133783669Y-36336552D01*
X133749672Y-36418627D01*
X133749671Y-36418629D01*
X133700314Y-36492496D01*
X133637496Y-36555314D01*
X133563629Y-36604671D01*
X133563628Y-36604672D01*
X133563627Y-36604672D01*
X133481552Y-36638669D01*
X133394421Y-36656000D01*
X133305579Y-36656000D01*
X133218448Y-36638669D01*
X133136373Y-36604672D01*
X133136372Y-36604672D01*
X133136371Y-36604671D01*
X133062504Y-36555314D01*
X132999686Y-36492496D01*
X132950329Y-36418629D01*
X132950328Y-36418627D01*
X132916331Y-36336552D01*
X132899000Y-36249421D01*
X132899000Y-36160579D01*
X132916331Y-36073448D01*
X132950328Y-35991373D01*
X132999685Y-35917505D01*
X133062505Y-35854685D01*
X133099187Y-35830175D01*
X133136371Y-35805329D01*
X133136373Y-35805328D01*
X133218448Y-35771331D01*
X133305579Y-35754000D01*
X133394421Y-35754000D01*
X133481552Y-35771331D01*
X133481552Y-35771331D01*
G37*
G36*
X136021552Y-35771331D02*
G01*
X136103627Y-35805328D01*
X136103629Y-35805329D01*
X136140813Y-35830175D01*
X136177495Y-35854685D01*
X136240315Y-35917505D01*
X136289672Y-35991373D01*
X136323669Y-36073448D01*
X136341000Y-36160579D01*
X136341000Y-36249421D01*
X136323669Y-36336552D01*
X136289672Y-36418627D01*
X136289671Y-36418629D01*
X136240314Y-36492496D01*
X136177496Y-36555314D01*
X136103629Y-36604671D01*
X136103628Y-36604672D01*
X136103627Y-36604672D01*
X136021552Y-36638669D01*
X135934421Y-36656000D01*
X135845579Y-36656000D01*
X135758448Y-36638669D01*
X135676373Y-36604672D01*
X135676372Y-36604672D01*
X135676371Y-36604671D01*
X135602504Y-36555314D01*
X135539686Y-36492496D01*
X135490329Y-36418629D01*
X135490328Y-36418627D01*
X135456331Y-36336552D01*
X135439000Y-36249421D01*
X135439000Y-36160579D01*
X135456331Y-36073448D01*
X135490328Y-35991373D01*
X135539685Y-35917505D01*
X135602505Y-35854685D01*
X135639187Y-35830175D01*
X135676371Y-35805329D01*
X135676373Y-35805328D01*
X135758448Y-35771331D01*
X135845579Y-35754000D01*
X135934421Y-35754000D01*
X136021552Y-35771331D01*
X136021552Y-35771331D01*
G37*
G36*
X137291552Y-35771331D02*
G01*
X137373627Y-35805328D01*
X137373629Y-35805329D01*
X137410813Y-35830175D01*
X137447495Y-35854685D01*
X137510315Y-35917505D01*
X137559672Y-35991373D01*
X137593669Y-36073448D01*
X137611000Y-36160579D01*
X137611000Y-36249421D01*
X137593669Y-36336552D01*
X137559672Y-36418627D01*
X137559671Y-36418629D01*
X137510314Y-36492496D01*
X137447496Y-36555314D01*
X137373629Y-36604671D01*
X137373628Y-36604672D01*
X137373627Y-36604672D01*
X137291552Y-36638669D01*
X137204421Y-36656000D01*
X137115579Y-36656000D01*
X137028448Y-36638669D01*
X136946373Y-36604672D01*
X136946372Y-36604672D01*
X136946371Y-36604671D01*
X136872504Y-36555314D01*
X136809686Y-36492496D01*
X136760329Y-36418629D01*
X136760328Y-36418627D01*
X136726331Y-36336552D01*
X136709000Y-36249421D01*
X136709000Y-36160579D01*
X136726331Y-36073448D01*
X136760328Y-35991373D01*
X136809685Y-35917505D01*
X136872505Y-35854685D01*
X136909187Y-35830175D01*
X136946371Y-35805329D01*
X136946373Y-35805328D01*
X137028448Y-35771331D01*
X137115579Y-35754000D01*
X137204421Y-35754000D01*
X137291552Y-35771331D01*
X137291552Y-35771331D01*
G37*
G36*
X132211552Y-35771331D02*
G01*
X132293627Y-35805328D01*
X132293629Y-35805329D01*
X132330813Y-35830175D01*
X132367495Y-35854685D01*
X132430315Y-35917505D01*
X132479672Y-35991373D01*
X132513669Y-36073448D01*
X132531000Y-36160579D01*
X132531000Y-36249421D01*
X132513669Y-36336552D01*
X132479672Y-36418627D01*
X132479671Y-36418629D01*
X132430314Y-36492496D01*
X132367496Y-36555314D01*
X132293629Y-36604671D01*
X132293628Y-36604672D01*
X132293627Y-36604672D01*
X132211552Y-36638669D01*
X132124421Y-36656000D01*
X132035579Y-36656000D01*
X131948448Y-36638669D01*
X131866373Y-36604672D01*
X131866372Y-36604672D01*
X131866371Y-36604671D01*
X131792504Y-36555314D01*
X131729686Y-36492496D01*
X131680329Y-36418629D01*
X131680328Y-36418627D01*
X131646331Y-36336552D01*
X131629000Y-36249421D01*
X131629000Y-36160579D01*
X131646331Y-36073448D01*
X131680328Y-35991373D01*
X131729685Y-35917505D01*
X131792505Y-35854685D01*
X131829187Y-35830175D01*
X131866371Y-35805329D01*
X131866373Y-35805328D01*
X131948448Y-35771331D01*
X132035579Y-35754000D01*
X132124421Y-35754000D01*
X132211552Y-35771331D01*
X132211552Y-35771331D01*
G37*
G36*
X174756552Y-35771331D02*
G01*
X174838627Y-35805328D01*
X174838629Y-35805329D01*
X174875813Y-35830175D01*
X174912495Y-35854685D01*
X174975315Y-35917505D01*
X175024672Y-35991373D01*
X175058669Y-36073448D01*
X175076000Y-36160579D01*
X175076000Y-36249421D01*
X175058669Y-36336552D01*
X175024672Y-36418627D01*
X175024671Y-36418629D01*
X174975314Y-36492496D01*
X174912496Y-36555314D01*
X174838629Y-36604671D01*
X174838628Y-36604672D01*
X174838627Y-36604672D01*
X174756552Y-36638669D01*
X174669421Y-36656000D01*
X174580579Y-36656000D01*
X174493448Y-36638669D01*
X174411373Y-36604672D01*
X174411372Y-36604672D01*
X174411371Y-36604671D01*
X174337504Y-36555314D01*
X174274686Y-36492496D01*
X174225329Y-36418629D01*
X174225328Y-36418627D01*
X174191331Y-36336552D01*
X174174000Y-36249421D01*
X174174000Y-36160579D01*
X174191331Y-36073448D01*
X174225328Y-35991373D01*
X174274685Y-35917505D01*
X174337505Y-35854685D01*
X174374187Y-35830175D01*
X174411371Y-35805329D01*
X174411373Y-35805328D01*
X174493448Y-35771331D01*
X174580579Y-35754000D01*
X174669421Y-35754000D01*
X174756552Y-35771331D01*
X174756552Y-35771331D01*
G37*
G36*
X176026552Y-35771331D02*
G01*
X176108627Y-35805328D01*
X176108629Y-35805329D01*
X176145813Y-35830175D01*
X176182495Y-35854685D01*
X176245315Y-35917505D01*
X176294672Y-35991373D01*
X176328669Y-36073448D01*
X176346000Y-36160579D01*
X176346000Y-36249421D01*
X176328669Y-36336552D01*
X176294672Y-36418627D01*
X176294671Y-36418629D01*
X176245314Y-36492496D01*
X176182496Y-36555314D01*
X176108629Y-36604671D01*
X176108628Y-36604672D01*
X176108627Y-36604672D01*
X176026552Y-36638669D01*
X175939421Y-36656000D01*
X175850579Y-36656000D01*
X175763448Y-36638669D01*
X175681373Y-36604672D01*
X175681372Y-36604672D01*
X175681371Y-36604671D01*
X175607504Y-36555314D01*
X175544686Y-36492496D01*
X175495329Y-36418629D01*
X175495328Y-36418627D01*
X175461331Y-36336552D01*
X175444000Y-36249421D01*
X175444000Y-36160579D01*
X175461331Y-36073448D01*
X175495328Y-35991373D01*
X175544685Y-35917505D01*
X175607505Y-35854685D01*
X175644187Y-35830175D01*
X175681371Y-35805329D01*
X175681373Y-35805328D01*
X175763448Y-35771331D01*
X175850579Y-35754000D01*
X175939421Y-35754000D01*
X176026552Y-35771331D01*
X176026552Y-35771331D01*
G37*
G36*
X177296552Y-35771331D02*
G01*
X177378627Y-35805328D01*
X177378629Y-35805329D01*
X177415813Y-35830175D01*
X177452495Y-35854685D01*
X177515315Y-35917505D01*
X177564672Y-35991373D01*
X177598669Y-36073448D01*
X177616000Y-36160579D01*
X177616000Y-36249421D01*
X177598669Y-36336552D01*
X177564672Y-36418627D01*
X177564671Y-36418629D01*
X177515314Y-36492496D01*
X177452496Y-36555314D01*
X177378629Y-36604671D01*
X177378628Y-36604672D01*
X177378627Y-36604672D01*
X177296552Y-36638669D01*
X177209421Y-36656000D01*
X177120579Y-36656000D01*
X177033448Y-36638669D01*
X176951373Y-36604672D01*
X176951372Y-36604672D01*
X176951371Y-36604671D01*
X176877504Y-36555314D01*
X176814686Y-36492496D01*
X176765329Y-36418629D01*
X176765328Y-36418627D01*
X176731331Y-36336552D01*
X176714000Y-36249421D01*
X176714000Y-36160579D01*
X176731331Y-36073448D01*
X176765328Y-35991373D01*
X176814685Y-35917505D01*
X176877505Y-35854685D01*
X176914187Y-35830175D01*
X176951371Y-35805329D01*
X176951373Y-35805328D01*
X177033448Y-35771331D01*
X177120579Y-35754000D01*
X177209421Y-35754000D01*
X177296552Y-35771331D01*
X177296552Y-35771331D01*
G37*
G36*
X178566552Y-35771331D02*
G01*
X178648627Y-35805328D01*
X178648629Y-35805329D01*
X178685813Y-35830175D01*
X178722495Y-35854685D01*
X178785315Y-35917505D01*
X178834672Y-35991373D01*
X178868669Y-36073448D01*
X178886000Y-36160579D01*
X178886000Y-36249421D01*
X178868669Y-36336552D01*
X178834672Y-36418627D01*
X178834671Y-36418629D01*
X178785314Y-36492496D01*
X178722496Y-36555314D01*
X178648629Y-36604671D01*
X178648628Y-36604672D01*
X178648627Y-36604672D01*
X178566552Y-36638669D01*
X178479421Y-36656000D01*
X178390579Y-36656000D01*
X178303448Y-36638669D01*
X178221373Y-36604672D01*
X178221372Y-36604672D01*
X178221371Y-36604671D01*
X178147504Y-36555314D01*
X178084686Y-36492496D01*
X178035329Y-36418629D01*
X178035328Y-36418627D01*
X178001331Y-36336552D01*
X177984000Y-36249421D01*
X177984000Y-36160579D01*
X178001331Y-36073448D01*
X178035328Y-35991373D01*
X178084685Y-35917505D01*
X178147505Y-35854685D01*
X178184187Y-35830175D01*
X178221371Y-35805329D01*
X178221373Y-35805328D01*
X178303448Y-35771331D01*
X178390579Y-35754000D01*
X178479421Y-35754000D01*
X178566552Y-35771331D01*
X178566552Y-35771331D01*
G37*
G36*
X173486552Y-35771331D02*
G01*
X173568627Y-35805328D01*
X173568629Y-35805329D01*
X173605813Y-35830175D01*
X173642495Y-35854685D01*
X173705315Y-35917505D01*
X173754672Y-35991373D01*
X173788669Y-36073448D01*
X173806000Y-36160579D01*
X173806000Y-36249421D01*
X173788669Y-36336552D01*
X173754672Y-36418627D01*
X173754671Y-36418629D01*
X173705314Y-36492496D01*
X173642496Y-36555314D01*
X173568629Y-36604671D01*
X173568628Y-36604672D01*
X173568627Y-36604672D01*
X173486552Y-36638669D01*
X173399421Y-36656000D01*
X173310579Y-36656000D01*
X173223448Y-36638669D01*
X173141373Y-36604672D01*
X173141372Y-36604672D01*
X173141371Y-36604671D01*
X173067504Y-36555314D01*
X173004686Y-36492496D01*
X172955329Y-36418629D01*
X172955328Y-36418627D01*
X172921331Y-36336552D01*
X172904000Y-36249421D01*
X172904000Y-36160579D01*
X172921331Y-36073448D01*
X172955328Y-35991373D01*
X173004685Y-35917505D01*
X173067505Y-35854685D01*
X173104187Y-35830175D01*
X173141371Y-35805329D01*
X173141373Y-35805328D01*
X173223448Y-35771331D01*
X173310579Y-35754000D01*
X173399421Y-35754000D01*
X173486552Y-35771331D01*
X173486552Y-35771331D01*
G37*
G36*
X100825477Y-32993207D02*
G01*
X100972713Y-33022494D01*
X101250099Y-33137391D01*
X101499741Y-33304197D01*
X101712043Y-33516499D01*
X101878849Y-33766141D01*
X101993746Y-34043527D01*
X102013581Y-34143243D01*
X102043469Y-34293499D01*
X102052320Y-34337999D01*
X102052320Y-34638241D01*
X101993746Y-34932713D01*
X101878849Y-35210099D01*
X101767393Y-35376904D01*
X101723058Y-35443257D01*
X101712043Y-35459741D01*
X101499741Y-35672043D01*
X101250099Y-35838849D01*
X100972713Y-35953746D01*
X100825477Y-35983033D01*
X100678242Y-36012320D01*
X100377998Y-36012320D01*
X100230763Y-35983033D01*
X100083527Y-35953746D01*
X99806141Y-35838849D01*
X99556499Y-35672043D01*
X99344197Y-35459741D01*
X99333183Y-35443257D01*
X99288847Y-35376904D01*
X99177391Y-35210099D01*
X99062494Y-34932713D01*
X99003920Y-34638241D01*
X99003920Y-34337999D01*
X99012772Y-34293499D01*
X99042659Y-34143243D01*
X99062494Y-34043527D01*
X99177391Y-33766141D01*
X99344197Y-33516499D01*
X99556499Y-33304197D01*
X99806141Y-33137391D01*
X100083527Y-33022494D01*
X100230763Y-32993207D01*
X100377998Y-32963920D01*
X100678242Y-32963920D01*
X100825477Y-32993207D01*
X100825477Y-32993207D01*
G37*
G36*
X235049237Y-32993207D02*
G01*
X235196473Y-33022494D01*
X235473859Y-33137391D01*
X235723501Y-33304197D01*
X235935803Y-33516499D01*
X236102609Y-33766141D01*
X236217506Y-34043527D01*
X236237341Y-34143243D01*
X236267229Y-34293499D01*
X236276080Y-34337999D01*
X236276080Y-34638241D01*
X236217506Y-34932713D01*
X236102609Y-35210099D01*
X235991153Y-35376904D01*
X235946818Y-35443257D01*
X235935803Y-35459741D01*
X235723501Y-35672043D01*
X235473859Y-35838849D01*
X235196473Y-35953746D01*
X235049237Y-35983033D01*
X234902002Y-36012320D01*
X234601758Y-36012320D01*
X234454523Y-35983033D01*
X234307287Y-35953746D01*
X234029901Y-35838849D01*
X233780259Y-35672043D01*
X233567957Y-35459741D01*
X233556943Y-35443257D01*
X233512607Y-35376904D01*
X233401151Y-35210099D01*
X233286254Y-34932713D01*
X233227680Y-34638241D01*
X233227680Y-34337999D01*
X233236532Y-34293499D01*
X233266419Y-34143243D01*
X233286254Y-34043527D01*
X233401151Y-33766141D01*
X233567957Y-33516499D01*
X233780259Y-33304197D01*
X234029901Y-33137391D01*
X234307287Y-33022494D01*
X234454523Y-32993207D01*
X234601758Y-32963920D01*
X234902002Y-32963920D01*
X235049237Y-32993207D01*
X235049237Y-32993207D01*
G37*
G36*
X150584000Y-35776000D02*
G01*
X148882000Y-35776000D01*
X148882000Y-34074000D01*
X150584000Y-34074000D01*
X150584000Y-35776000D01*
X150584000Y-35776000D01*
G37*
G36*
X157082142Y-34143242D02*
G01*
X157230101Y-34204529D01*
X157363255Y-34293499D01*
X157476501Y-34406745D01*
X157565471Y-34539899D01*
X157626758Y-34687858D01*
X157658000Y-34844925D01*
X157658000Y-35005075D01*
X157626758Y-35162142D01*
X157565471Y-35310101D01*
X157476501Y-35443255D01*
X157363255Y-35556501D01*
X157230101Y-35645471D01*
X157082142Y-35706758D01*
X156925075Y-35738000D01*
X156764925Y-35738000D01*
X156607858Y-35706758D01*
X156459899Y-35645471D01*
X156326745Y-35556501D01*
X156213499Y-35443255D01*
X156124529Y-35310101D01*
X156063242Y-35162142D01*
X156032000Y-35005075D01*
X156032000Y-34844925D01*
X156063242Y-34687858D01*
X156124529Y-34539899D01*
X156213499Y-34406745D01*
X156326745Y-34293499D01*
X156459899Y-34204529D01*
X156607858Y-34143242D01*
X156764925Y-34112000D01*
X156925075Y-34112000D01*
X157082142Y-34143242D01*
X157082142Y-34143242D01*
G37*
G36*
X159622142Y-34143242D02*
G01*
X159770101Y-34204529D01*
X159903255Y-34293499D01*
X160016501Y-34406745D01*
X160105471Y-34539899D01*
X160166758Y-34687858D01*
X160198000Y-34844925D01*
X160198000Y-35005075D01*
X160166758Y-35162142D01*
X160105471Y-35310101D01*
X160016501Y-35443255D01*
X159903255Y-35556501D01*
X159770101Y-35645471D01*
X159622142Y-35706758D01*
X159465075Y-35738000D01*
X159304925Y-35738000D01*
X159147858Y-35706758D01*
X158999899Y-35645471D01*
X158866745Y-35556501D01*
X158753499Y-35443255D01*
X158664529Y-35310101D01*
X158603242Y-35162142D01*
X158572000Y-35005075D01*
X158572000Y-34844925D01*
X158603242Y-34687858D01*
X158664529Y-34539899D01*
X158753499Y-34406745D01*
X158866745Y-34293499D01*
X158999899Y-34204529D01*
X159147858Y-34143242D01*
X159304925Y-34112000D01*
X159465075Y-34112000D01*
X159622142Y-34143242D01*
X159622142Y-34143242D01*
G37*
M02*
