M48
; DRILL file {KiCad (5.1.4)-1} date 16-Feb-20 17:53:50
; FORMAT={-:-/ absolute / inch / decimal}
; #@! TF.CreationDate,2020-02-16T17:53:50-06:00
; #@! TF.GenerationSoftware,Kicad,Pcbnew,(5.1.4)-1
; #@! TF.FileFunction,Plated,1,2,PTH
FMAT,2
INCH
T1C0.0157
T2C0.0197
T3C0.0315
T4C0.0350
T5C0.0354
T6C0.0472
T7C0.0630
T8C0.0660
T9C0.1450
T10C0.1598
T11C0.3600
%
G90
G05
T1
X4.075Y-1.575
X4.075Y-3.825
X4.075Y-5.6
X4.075Y-5.925
X4.45Y-2.275
X4.45Y-3.075
X4.45Y-3.875
X4.45Y-4.7
X4.45Y-5.525
X4.75Y-2.225
X4.75Y-3.025
X4.75Y-3.825
X4.75Y-4.65
X4.75Y-5.475
X4.75Y-5.925
X4.875Y-2.325
X4.875Y-3.125
X4.875Y-3.925
X4.875Y-5.6
X4.88Y-4.75
X5.575Y-1.72
X5.575Y-2.54
X5.575Y-3.37
X5.575Y-4.18
X5.575Y-5.03
X5.6639Y-2.56
X5.6639Y-3.375
X5.6639Y-5.03
X5.665Y-1.74
X5.665Y-4.18
X5.68Y-2.72
X5.68Y-3.56
X5.68Y-4.36
X5.68Y-5.22
X6.575Y-1.8
X6.575Y-1.9
X6.575Y-2.0
X6.575Y-2.175
X6.575Y-2.35
X6.65Y-1.8
X6.825Y-1.7
X6.825Y-1.8
X6.825Y-1.9
X6.825Y-2.0
X6.825Y-2.175
X7.125Y-1.7
X7.125Y-1.8
X7.125Y-1.9
X7.125Y-2.0
X7.525Y-2.075
X7.525Y-2.925
X7.525Y-3.725
X7.525Y-4.525
X7.525Y-5.375
X7.5311Y-2.29
X7.5311Y-3.92
X7.5311Y-4.74
X7.5311Y-5.58
X7.5356Y-3.12
X7.65Y-5.75
X7.65Y-5.975
X7.65Y-6.225
X7.675Y-2.375
X7.675Y-3.2
X7.675Y-4.0
X7.675Y-4.825
X7.675Y-5.65
X7.75Y-1.7
X7.95Y-5.75
X7.95Y-5.975
X7.95Y-6.225
X8.25Y-5.75
X8.25Y-5.975
X8.25Y-6.225
X8.375Y-1.725
X8.375Y-2.55
X8.375Y-3.35
X8.375Y-4.15
X8.375Y-5.025
X8.525Y-1.8226
X8.525Y-2.6526
X8.525Y-3.4526
X8.525Y-4.2526
X8.525Y-5.1276
X8.55Y-5.75
X8.55Y-5.975
X8.55Y-6.225
X8.825Y-1.75
X8.825Y-2.575
X8.825Y-3.375
X8.825Y-4.175
X8.825Y-5.05
X8.85Y-5.75
X8.85Y-5.975
X8.85Y-6.225
T2
X6.825Y-1.4254
X6.825Y-1.4754
X6.875Y-1.4254
X6.875Y-1.4754
X6.925Y-1.4254
X6.925Y-1.4754
X6.975Y-1.4254
X6.975Y-1.4754
X7.025Y-1.4254
X7.025Y-1.4754
X5.2Y-1.4254
X5.2Y-1.4754
X5.25Y-1.4254
X5.25Y-1.4754
X5.3Y-1.4254
X5.3Y-1.4754
X5.35Y-1.4254
X5.35Y-1.4754
X5.4Y-1.4254
X5.4Y-1.4754
T3
X5.895Y-1.375
X5.895Y-1.4734
X6.35Y-2.6516
X6.35Y-2.75
X6.825Y-2.6516
X6.825Y-2.75
X6.425Y-1.675
X6.5234Y-1.675
T4
X6.725Y-2.45
X6.825Y-2.45
X6.925Y-2.45
X6.25Y-2.45
X6.35Y-2.45
X6.45Y-2.45
T5
X6.175Y-1.375
X6.275Y-1.375
T6
X6.7531Y-4.275
X6.95Y-4.275
X6.25Y-4.725
X6.4469Y-4.725
X6.25Y-3.8
X6.4469Y-3.8
X6.7531Y-5.2
X6.95Y-5.2
T7
X6.45Y-3.075
X6.45Y-3.275
X6.725Y-3.075
X6.725Y-3.275
T8
X7.28Y-3.37
X7.28Y-3.9
X7.415Y-3.37
X7.415Y-3.9
X5.775Y-5.025
X5.775Y-5.555
X5.91Y-5.025
X5.91Y-5.555
X5.775Y-4.185
X5.775Y-4.715
X5.91Y-4.185
X5.91Y-4.715
X7.28Y-1.75
X7.28Y-2.28
X7.415Y-1.75
X7.415Y-2.28
X7.28Y-5.02
X7.28Y-5.55
X7.415Y-5.02
X7.415Y-5.55
X7.28Y-2.565
X7.28Y-3.095
X7.415Y-2.565
X7.415Y-3.095
X7.28Y-4.18
X7.28Y-4.71
X7.415Y-4.18
X7.415Y-4.71
X5.775Y-1.75
X5.775Y-2.28
X5.91Y-1.75
X5.91Y-2.28
X5.775Y-3.365
X5.775Y-3.895
X5.91Y-3.365
X5.91Y-3.895
X5.775Y-2.56
X5.775Y-3.09
X5.91Y-2.56
X5.91Y-3.09
T9
X4.425Y-6.35
T10
X8.365Y-4.685
X8.675Y-4.685
X4.515Y-2.58
X4.825Y-2.58
X4.515Y-4.21
X4.825Y-4.21
X8.365Y-3.875
X8.675Y-3.875
X8.365Y-2.25
X8.675Y-2.25
X4.515Y-5.05
X4.825Y-5.05
X8.365Y-5.53
X8.675Y-5.53
X8.365Y-3.07
X8.675Y-3.07
X4.515Y-3.39
X4.825Y-3.39
X4.515Y-1.78
X4.825Y-1.78
T11
X5.615Y-6.18
X6.99Y-6.175
T0
M30
