G04 #@! TF.GenerationSoftware,KiCad,Pcbnew,(5.1.4)-1*
G04 #@! TF.CreationDate,2019-12-14T12:55:23-06:00*
G04 #@! TF.ProjectId,PowerBoard_Hardware,506f7765-7242-46f6-9172-645f48617264,rev?*
G04 #@! TF.SameCoordinates,Original*
G04 #@! TF.FileFunction,Soldermask,Bot*
G04 #@! TF.FilePolarity,Negative*
%FSLAX46Y46*%
G04 Gerber Fmt 4.6, Leading zero omitted, Abs format (unit mm)*
G04 Created by KiCad (PCBNEW (5.1.4)-1) date 2019-12-14 12:55:23*
%MOMM*%
%LPD*%
G04 APERTURE LIST*
%ADD10C,0.100000*%
G04 APERTURE END LIST*
D10*
G36*
X234795237Y-164676967D02*
G01*
X234942473Y-164706254D01*
X235219859Y-164821151D01*
X235469501Y-164987957D01*
X235681803Y-165200259D01*
X235848609Y-165449901D01*
X235963506Y-165727287D01*
X236022080Y-166021759D01*
X236022080Y-166322001D01*
X235963506Y-166616473D01*
X235848609Y-166893859D01*
X235681803Y-167143501D01*
X235469501Y-167355803D01*
X235219859Y-167522609D01*
X234942473Y-167637506D01*
X234795237Y-167666793D01*
X234648002Y-167696080D01*
X234347758Y-167696080D01*
X234200523Y-167666793D01*
X234053287Y-167637506D01*
X233775901Y-167522609D01*
X233526259Y-167355803D01*
X233313957Y-167143501D01*
X233147151Y-166893859D01*
X233032254Y-166616473D01*
X232973680Y-166322001D01*
X232973680Y-166021759D01*
X233032254Y-165727287D01*
X233147151Y-165449901D01*
X233313957Y-165200259D01*
X233526259Y-164987957D01*
X233775901Y-164821151D01*
X234053287Y-164706254D01*
X234200523Y-164676967D01*
X234347758Y-164647680D01*
X234648002Y-164647680D01*
X234795237Y-164676967D01*
X234795237Y-164676967D01*
G37*
G36*
X100825477Y-164676967D02*
G01*
X100972713Y-164706254D01*
X101250099Y-164821151D01*
X101499741Y-164987957D01*
X101712043Y-165200259D01*
X101878849Y-165449901D01*
X101993746Y-165727287D01*
X102052320Y-166021759D01*
X102052320Y-166322001D01*
X101993746Y-166616473D01*
X101878849Y-166893859D01*
X101712043Y-167143501D01*
X101499741Y-167355803D01*
X101250099Y-167522609D01*
X100972713Y-167637506D01*
X100825477Y-167666793D01*
X100678242Y-167696080D01*
X100377998Y-167696080D01*
X100230763Y-167666793D01*
X100083527Y-167637506D01*
X99806141Y-167522609D01*
X99556499Y-167355803D01*
X99344197Y-167143501D01*
X99177391Y-166893859D01*
X99062494Y-166616473D01*
X99003920Y-166322001D01*
X99003920Y-166021759D01*
X99062494Y-165727287D01*
X99177391Y-165449901D01*
X99344197Y-165200259D01*
X99556499Y-164987957D01*
X99806141Y-164821151D01*
X100083527Y-164706254D01*
X100230763Y-164676967D01*
X100377998Y-164647680D01*
X100678242Y-164647680D01*
X100825477Y-164676967D01*
X100825477Y-164676967D01*
G37*
G36*
X143920201Y-147855286D02*
G01*
X145303083Y-148130358D01*
X146976466Y-148823496D01*
X148482471Y-149829777D01*
X149763223Y-151110529D01*
X150769504Y-152616534D01*
X151462642Y-154289917D01*
X151816000Y-156066372D01*
X151816000Y-157877628D01*
X151462642Y-159654083D01*
X150769504Y-161327466D01*
X149763223Y-162833471D01*
X148482471Y-164114223D01*
X146976466Y-165120504D01*
X145303083Y-165813642D01*
X143920201Y-166088714D01*
X143526630Y-166167000D01*
X141715370Y-166167000D01*
X141321799Y-166088714D01*
X139938917Y-165813642D01*
X138265534Y-165120504D01*
X136759529Y-164114223D01*
X135478777Y-162833471D01*
X134472496Y-161327466D01*
X133779358Y-159654083D01*
X133426000Y-157877628D01*
X133426000Y-156066372D01*
X133779358Y-154289917D01*
X134472496Y-152616534D01*
X135478777Y-151110529D01*
X136759529Y-149829777D01*
X138265534Y-148823496D01*
X139938917Y-148130358D01*
X141321799Y-147855286D01*
X141715370Y-147777000D01*
X143526630Y-147777000D01*
X143920201Y-147855286D01*
X143920201Y-147855286D01*
G37*
G36*
X178845201Y-147728286D02*
G01*
X180228083Y-148003358D01*
X181901466Y-148696496D01*
X183407471Y-149702777D01*
X184688223Y-150983529D01*
X185694504Y-152489534D01*
X186387642Y-154162917D01*
X186741000Y-155939372D01*
X186741000Y-157750628D01*
X186387642Y-159527083D01*
X185694504Y-161200466D01*
X184688223Y-162706471D01*
X183407471Y-163987223D01*
X181901466Y-164993504D01*
X180228083Y-165686642D01*
X178845201Y-165961714D01*
X178451630Y-166040000D01*
X176640370Y-166040000D01*
X176246799Y-165961714D01*
X174863917Y-165686642D01*
X173190534Y-164993504D01*
X171684529Y-163987223D01*
X170403777Y-162706471D01*
X169397496Y-161200466D01*
X168704358Y-159527083D01*
X168351000Y-157750628D01*
X168351000Y-155939372D01*
X168704358Y-154162917D01*
X169397496Y-152489534D01*
X170403777Y-150983529D01*
X171684529Y-149702777D01*
X173190534Y-148696496D01*
X174863917Y-148003358D01*
X176246799Y-147728286D01*
X176640370Y-147650000D01*
X178451630Y-147650000D01*
X178845201Y-147728286D01*
X178845201Y-147728286D01*
G37*
G36*
X213059908Y-137937380D02*
G01*
X213226767Y-137970570D01*
X213698299Y-138165885D01*
X213941029Y-138328073D01*
X214122666Y-138449438D01*
X214483562Y-138810334D01*
X214604927Y-138991971D01*
X214767115Y-139234701D01*
X214962430Y-139706233D01*
X214988123Y-139835400D01*
X215062000Y-140206807D01*
X215062000Y-140717193D01*
X215040330Y-140826134D01*
X214962430Y-141217767D01*
X214767115Y-141689299D01*
X214604927Y-141932029D01*
X214483562Y-142113666D01*
X214122666Y-142474562D01*
X213941029Y-142595927D01*
X213698299Y-142758115D01*
X213226767Y-142953430D01*
X213059908Y-142986620D01*
X212726193Y-143053000D01*
X212215807Y-143053000D01*
X211882092Y-142986620D01*
X211715233Y-142953430D01*
X211243701Y-142758115D01*
X211000971Y-142595927D01*
X210819334Y-142474562D01*
X210458438Y-142113666D01*
X210337073Y-141932029D01*
X210174885Y-141689299D01*
X209979570Y-141217767D01*
X209901670Y-140826134D01*
X209880000Y-140717193D01*
X209880000Y-140206807D01*
X209953877Y-139835400D01*
X209979570Y-139706233D01*
X210174885Y-139234701D01*
X210337073Y-138991971D01*
X210458438Y-138810334D01*
X210819334Y-138449438D01*
X211000971Y-138328073D01*
X211243701Y-138165885D01*
X211715233Y-137970570D01*
X211882092Y-137937380D01*
X212215807Y-137871000D01*
X212726193Y-137871000D01*
X213059908Y-137937380D01*
X213059908Y-137937380D01*
G37*
G36*
X220933908Y-137937380D02*
G01*
X221100767Y-137970570D01*
X221572299Y-138165885D01*
X221815029Y-138328073D01*
X221996666Y-138449438D01*
X222357562Y-138810334D01*
X222478927Y-138991971D01*
X222641115Y-139234701D01*
X222836430Y-139706233D01*
X222862123Y-139835400D01*
X222936000Y-140206807D01*
X222936000Y-140717193D01*
X222914330Y-140826134D01*
X222836430Y-141217767D01*
X222641115Y-141689299D01*
X222478927Y-141932029D01*
X222357562Y-142113666D01*
X221996666Y-142474562D01*
X221815029Y-142595927D01*
X221572299Y-142758115D01*
X221100767Y-142953430D01*
X220933908Y-142986620D01*
X220600193Y-143053000D01*
X220089807Y-143053000D01*
X219756092Y-142986620D01*
X219589233Y-142953430D01*
X219117701Y-142758115D01*
X218874971Y-142595927D01*
X218693334Y-142474562D01*
X218332438Y-142113666D01*
X218211073Y-141932029D01*
X218048885Y-141689299D01*
X217853570Y-141217767D01*
X217775670Y-140826134D01*
X217754000Y-140717193D01*
X217754000Y-140206807D01*
X217827877Y-139835400D01*
X217853570Y-139706233D01*
X218048885Y-139234701D01*
X218211073Y-138991971D01*
X218332438Y-138810334D01*
X218693334Y-138449438D01*
X218874971Y-138328073D01*
X219117701Y-138165885D01*
X219589233Y-137970570D01*
X219756092Y-137937380D01*
X220089807Y-137871000D01*
X220600193Y-137871000D01*
X220933908Y-137937380D01*
X220933908Y-137937380D01*
G37*
G36*
X150540070Y-139692433D02*
G01*
X150805899Y-139802543D01*
X150805901Y-139802544D01*
X151045142Y-139962400D01*
X151248600Y-140165858D01*
X151408456Y-140405099D01*
X151408457Y-140405101D01*
X151518567Y-140670930D01*
X151574700Y-140953132D01*
X151574700Y-141240868D01*
X151518567Y-141523070D01*
X151408457Y-141788899D01*
X151408456Y-141788901D01*
X151248600Y-142028142D01*
X151045142Y-142231600D01*
X150805901Y-142391456D01*
X150805900Y-142391457D01*
X150805899Y-142391457D01*
X150540070Y-142501567D01*
X150257868Y-142557700D01*
X149970132Y-142557700D01*
X149687930Y-142501567D01*
X149422101Y-142391457D01*
X149422100Y-142391457D01*
X149422099Y-142391456D01*
X149182858Y-142231600D01*
X148979400Y-142028142D01*
X148819544Y-141788901D01*
X148819543Y-141788899D01*
X148709433Y-141523070D01*
X148653300Y-141240868D01*
X148653300Y-140953132D01*
X148709433Y-140670930D01*
X148819543Y-140405101D01*
X148819544Y-140405099D01*
X148979400Y-140165858D01*
X149182858Y-139962400D01*
X149422099Y-139802544D01*
X149422101Y-139802543D01*
X149687930Y-139692433D01*
X149970132Y-139636300D01*
X150257868Y-139636300D01*
X150540070Y-139692433D01*
X150540070Y-139692433D01*
G37*
G36*
X147111070Y-139692433D02*
G01*
X147376899Y-139802543D01*
X147376901Y-139802544D01*
X147616142Y-139962400D01*
X147819600Y-140165858D01*
X147979456Y-140405099D01*
X147979457Y-140405101D01*
X148089567Y-140670930D01*
X148145700Y-140953132D01*
X148145700Y-141240868D01*
X148089567Y-141523070D01*
X147979457Y-141788899D01*
X147979456Y-141788901D01*
X147819600Y-142028142D01*
X147616142Y-142231600D01*
X147376901Y-142391456D01*
X147376900Y-142391457D01*
X147376899Y-142391457D01*
X147111070Y-142501567D01*
X146828868Y-142557700D01*
X146541132Y-142557700D01*
X146258930Y-142501567D01*
X145993101Y-142391457D01*
X145993100Y-142391457D01*
X145993099Y-142391456D01*
X145753858Y-142231600D01*
X145550400Y-142028142D01*
X145390544Y-141788901D01*
X145390543Y-141788899D01*
X145280433Y-141523070D01*
X145224300Y-141240868D01*
X145224300Y-140953132D01*
X145280433Y-140670930D01*
X145390543Y-140405101D01*
X145390544Y-140405099D01*
X145550400Y-140165858D01*
X145753858Y-139962400D01*
X145993099Y-139802544D01*
X145993101Y-139802543D01*
X146258930Y-139692433D01*
X146541132Y-139636300D01*
X146828868Y-139636300D01*
X147111070Y-139692433D01*
X147111070Y-139692433D01*
G37*
G36*
X185338070Y-139565433D02*
G01*
X185603899Y-139675543D01*
X185603901Y-139675544D01*
X185843142Y-139835400D01*
X186046600Y-140038858D01*
X186131460Y-140165860D01*
X186206457Y-140278101D01*
X186316567Y-140543930D01*
X186372700Y-140826132D01*
X186372700Y-141113868D01*
X186316567Y-141396070D01*
X186263961Y-141523071D01*
X186206456Y-141661901D01*
X186046600Y-141901142D01*
X185843142Y-142104600D01*
X185603901Y-142264456D01*
X185603900Y-142264457D01*
X185603899Y-142264457D01*
X185338070Y-142374567D01*
X185055868Y-142430700D01*
X184768132Y-142430700D01*
X184485930Y-142374567D01*
X184220101Y-142264457D01*
X184220100Y-142264457D01*
X184220099Y-142264456D01*
X183980858Y-142104600D01*
X183777400Y-141901142D01*
X183617544Y-141661901D01*
X183560039Y-141523071D01*
X183507433Y-141396070D01*
X183451300Y-141113868D01*
X183451300Y-140826132D01*
X183507433Y-140543930D01*
X183617543Y-140278101D01*
X183692540Y-140165860D01*
X183777400Y-140038858D01*
X183980858Y-139835400D01*
X184220099Y-139675544D01*
X184220101Y-139675543D01*
X184485930Y-139565433D01*
X184768132Y-139509300D01*
X185055868Y-139509300D01*
X185338070Y-139565433D01*
X185338070Y-139565433D01*
G37*
G36*
X188767070Y-139565433D02*
G01*
X189032899Y-139675543D01*
X189032901Y-139675544D01*
X189272142Y-139835400D01*
X189475600Y-140038858D01*
X189560460Y-140165860D01*
X189635457Y-140278101D01*
X189745567Y-140543930D01*
X189801700Y-140826132D01*
X189801700Y-141113868D01*
X189745567Y-141396070D01*
X189692961Y-141523071D01*
X189635456Y-141661901D01*
X189475600Y-141901142D01*
X189272142Y-142104600D01*
X189032901Y-142264456D01*
X189032900Y-142264457D01*
X189032899Y-142264457D01*
X188767070Y-142374567D01*
X188484868Y-142430700D01*
X188197132Y-142430700D01*
X187914930Y-142374567D01*
X187649101Y-142264457D01*
X187649100Y-142264457D01*
X187649099Y-142264456D01*
X187409858Y-142104600D01*
X187206400Y-141901142D01*
X187046544Y-141661901D01*
X186989039Y-141523071D01*
X186936433Y-141396070D01*
X186880300Y-141113868D01*
X186880300Y-140826132D01*
X186936433Y-140543930D01*
X187046543Y-140278101D01*
X187121540Y-140165860D01*
X187206400Y-140038858D01*
X187409858Y-139835400D01*
X187649099Y-139675544D01*
X187649101Y-139675543D01*
X187914930Y-139565433D01*
X188197132Y-139509300D01*
X188484868Y-139509300D01*
X188767070Y-139565433D01*
X188767070Y-139565433D01*
G37*
G36*
X177781000Y-133331000D02*
G01*
X175279000Y-133331000D01*
X175279000Y-130829000D01*
X177781000Y-130829000D01*
X177781000Y-133331000D01*
X177781000Y-133331000D01*
G37*
G36*
X171894903Y-130877075D02*
G01*
X172122571Y-130971378D01*
X172327466Y-131108285D01*
X172501715Y-131282534D01*
X172638622Y-131487429D01*
X172732925Y-131715097D01*
X172781000Y-131956787D01*
X172781000Y-132203213D01*
X172732925Y-132444903D01*
X172638622Y-132672571D01*
X172501715Y-132877466D01*
X172327466Y-133051715D01*
X172122571Y-133188622D01*
X172122570Y-133188623D01*
X172122569Y-133188623D01*
X171894903Y-133282925D01*
X171653214Y-133331000D01*
X171406786Y-133331000D01*
X171165097Y-133282925D01*
X170937431Y-133188623D01*
X170937430Y-133188623D01*
X170937429Y-133188622D01*
X170732534Y-133051715D01*
X170558285Y-132877466D01*
X170421378Y-132672571D01*
X170327075Y-132444903D01*
X170279000Y-132203213D01*
X170279000Y-131956787D01*
X170327075Y-131715097D01*
X170421378Y-131487429D01*
X170558285Y-131282534D01*
X170732534Y-131108285D01*
X170937429Y-130971378D01*
X171165097Y-130877075D01*
X171406786Y-130829000D01*
X171653214Y-130829000D01*
X171894903Y-130877075D01*
X171894903Y-130877075D01*
G37*
G36*
X115269908Y-125745380D02*
G01*
X115436767Y-125778570D01*
X115908299Y-125973885D01*
X116102182Y-126103434D01*
X116332666Y-126257438D01*
X116693562Y-126618334D01*
X116750707Y-126703858D01*
X116977115Y-127042701D01*
X117162861Y-127491132D01*
X117172430Y-127514234D01*
X117272000Y-128014807D01*
X117272000Y-128525193D01*
X117223384Y-128769601D01*
X117172430Y-129025767D01*
X116977115Y-129497299D01*
X116814927Y-129740029D01*
X116693562Y-129921666D01*
X116332666Y-130282562D01*
X116151029Y-130403927D01*
X115908299Y-130566115D01*
X115436767Y-130761430D01*
X115269908Y-130794620D01*
X114936193Y-130861000D01*
X114425807Y-130861000D01*
X114092092Y-130794620D01*
X113925233Y-130761430D01*
X113453701Y-130566115D01*
X113210971Y-130403927D01*
X113029334Y-130282562D01*
X112668438Y-129921666D01*
X112547073Y-129740029D01*
X112384885Y-129497299D01*
X112189570Y-129025767D01*
X112138616Y-128769601D01*
X112090000Y-128525193D01*
X112090000Y-128014807D01*
X112189570Y-127514234D01*
X112199139Y-127491132D01*
X112384885Y-127042701D01*
X112611293Y-126703858D01*
X112668438Y-126618334D01*
X113029334Y-126257438D01*
X113259818Y-126103434D01*
X113453701Y-125973885D01*
X113925233Y-125778570D01*
X114092092Y-125745380D01*
X114425807Y-125679000D01*
X114936193Y-125679000D01*
X115269908Y-125745380D01*
X115269908Y-125745380D01*
G37*
G36*
X123143908Y-125745380D02*
G01*
X123310767Y-125778570D01*
X123782299Y-125973885D01*
X123976182Y-126103434D01*
X124206666Y-126257438D01*
X124567562Y-126618334D01*
X124624707Y-126703858D01*
X124851115Y-127042701D01*
X125036861Y-127491132D01*
X125046430Y-127514234D01*
X125146000Y-128014807D01*
X125146000Y-128525193D01*
X125097384Y-128769601D01*
X125046430Y-129025767D01*
X124851115Y-129497299D01*
X124688927Y-129740029D01*
X124567562Y-129921666D01*
X124206666Y-130282562D01*
X124025029Y-130403927D01*
X123782299Y-130566115D01*
X123310767Y-130761430D01*
X123143908Y-130794620D01*
X122810193Y-130861000D01*
X122299807Y-130861000D01*
X121966092Y-130794620D01*
X121799233Y-130761430D01*
X121327701Y-130566115D01*
X121084971Y-130403927D01*
X120903334Y-130282562D01*
X120542438Y-129921666D01*
X120421073Y-129740029D01*
X120258885Y-129497299D01*
X120063570Y-129025767D01*
X120012616Y-128769601D01*
X119964000Y-128525193D01*
X119964000Y-128014807D01*
X120063570Y-127514234D01*
X120073139Y-127491132D01*
X120258885Y-127042701D01*
X120485293Y-126703858D01*
X120542438Y-126618334D01*
X120903334Y-126257438D01*
X121133818Y-126103434D01*
X121327701Y-125973885D01*
X121799233Y-125778570D01*
X121966092Y-125745380D01*
X122299807Y-125679000D01*
X122810193Y-125679000D01*
X123143908Y-125745380D01*
X123143908Y-125745380D01*
G37*
G36*
X150540070Y-126230433D02*
G01*
X150805899Y-126340543D01*
X150805901Y-126340544D01*
X151045142Y-126500400D01*
X151248600Y-126703858D01*
X151408456Y-126943099D01*
X151408457Y-126943101D01*
X151518567Y-127208930D01*
X151574700Y-127491132D01*
X151574700Y-127778868D01*
X151518567Y-128061070D01*
X151461062Y-128199899D01*
X151408456Y-128326901D01*
X151248600Y-128566142D01*
X151045142Y-128769600D01*
X150805901Y-128929456D01*
X150805900Y-128929457D01*
X150805899Y-128929457D01*
X150540070Y-129039567D01*
X150257868Y-129095700D01*
X149970132Y-129095700D01*
X149687930Y-129039567D01*
X149422101Y-128929457D01*
X149422100Y-128929457D01*
X149422099Y-128929456D01*
X149182858Y-128769600D01*
X148979400Y-128566142D01*
X148819544Y-128326901D01*
X148766938Y-128199899D01*
X148709433Y-128061070D01*
X148653300Y-127778868D01*
X148653300Y-127491132D01*
X148709433Y-127208930D01*
X148819543Y-126943101D01*
X148819544Y-126943099D01*
X148979400Y-126703858D01*
X149182858Y-126500400D01*
X149422099Y-126340544D01*
X149422101Y-126340543D01*
X149687930Y-126230433D01*
X149970132Y-126174300D01*
X150257868Y-126174300D01*
X150540070Y-126230433D01*
X150540070Y-126230433D01*
G37*
G36*
X147111070Y-126230433D02*
G01*
X147376899Y-126340543D01*
X147376901Y-126340544D01*
X147616142Y-126500400D01*
X147819600Y-126703858D01*
X147979456Y-126943099D01*
X147979457Y-126943101D01*
X148089567Y-127208930D01*
X148145700Y-127491132D01*
X148145700Y-127778868D01*
X148089567Y-128061070D01*
X148032062Y-128199899D01*
X147979456Y-128326901D01*
X147819600Y-128566142D01*
X147616142Y-128769600D01*
X147376901Y-128929456D01*
X147376900Y-128929457D01*
X147376899Y-128929457D01*
X147111070Y-129039567D01*
X146828868Y-129095700D01*
X146541132Y-129095700D01*
X146258930Y-129039567D01*
X145993101Y-128929457D01*
X145993100Y-128929457D01*
X145993099Y-128929456D01*
X145753858Y-128769600D01*
X145550400Y-128566142D01*
X145390544Y-128326901D01*
X145337938Y-128199899D01*
X145280433Y-128061070D01*
X145224300Y-127778868D01*
X145224300Y-127491132D01*
X145280433Y-127208930D01*
X145390543Y-126943101D01*
X145390544Y-126943099D01*
X145550400Y-126703858D01*
X145753858Y-126500400D01*
X145993099Y-126340544D01*
X145993101Y-126340543D01*
X146258930Y-126230433D01*
X146541132Y-126174300D01*
X146828868Y-126174300D01*
X147111070Y-126230433D01*
X147111070Y-126230433D01*
G37*
G36*
X185338070Y-126103433D02*
G01*
X185603899Y-126213543D01*
X185603901Y-126213544D01*
X185843142Y-126373400D01*
X186046600Y-126576858D01*
X186131460Y-126703860D01*
X186206457Y-126816101D01*
X186316567Y-127081930D01*
X186372700Y-127364132D01*
X186372700Y-127651868D01*
X186316567Y-127934070D01*
X186263961Y-128061071D01*
X186206456Y-128199901D01*
X186046600Y-128439142D01*
X185843142Y-128642600D01*
X185603901Y-128802456D01*
X185603900Y-128802457D01*
X185603899Y-128802457D01*
X185338070Y-128912567D01*
X185055868Y-128968700D01*
X184768132Y-128968700D01*
X184485930Y-128912567D01*
X184220101Y-128802457D01*
X184220100Y-128802457D01*
X184220099Y-128802456D01*
X183980858Y-128642600D01*
X183777400Y-128439142D01*
X183617544Y-128199901D01*
X183560039Y-128061071D01*
X183507433Y-127934070D01*
X183451300Y-127651868D01*
X183451300Y-127364132D01*
X183507433Y-127081930D01*
X183617543Y-126816101D01*
X183692540Y-126703860D01*
X183777400Y-126576858D01*
X183980858Y-126373400D01*
X184220099Y-126213544D01*
X184220101Y-126213543D01*
X184485930Y-126103433D01*
X184768132Y-126047300D01*
X185055868Y-126047300D01*
X185338070Y-126103433D01*
X185338070Y-126103433D01*
G37*
G36*
X188767070Y-126103433D02*
G01*
X189032899Y-126213543D01*
X189032901Y-126213544D01*
X189272142Y-126373400D01*
X189475600Y-126576858D01*
X189560460Y-126703860D01*
X189635457Y-126816101D01*
X189745567Y-127081930D01*
X189801700Y-127364132D01*
X189801700Y-127651868D01*
X189745567Y-127934070D01*
X189692961Y-128061071D01*
X189635456Y-128199901D01*
X189475600Y-128439142D01*
X189272142Y-128642600D01*
X189032901Y-128802456D01*
X189032900Y-128802457D01*
X189032899Y-128802457D01*
X188767070Y-128912567D01*
X188484868Y-128968700D01*
X188197132Y-128968700D01*
X187914930Y-128912567D01*
X187649101Y-128802457D01*
X187649100Y-128802457D01*
X187649099Y-128802456D01*
X187409858Y-128642600D01*
X187206400Y-128439142D01*
X187046544Y-128199901D01*
X186989039Y-128061071D01*
X186936433Y-127934070D01*
X186880300Y-127651868D01*
X186880300Y-127364132D01*
X186936433Y-127081930D01*
X187046543Y-126816101D01*
X187121540Y-126703860D01*
X187206400Y-126576858D01*
X187409858Y-126373400D01*
X187649099Y-126213544D01*
X187649101Y-126213543D01*
X187914930Y-126103433D01*
X188197132Y-126047300D01*
X188484868Y-126047300D01*
X188767070Y-126103433D01*
X188767070Y-126103433D01*
G37*
G36*
X213059908Y-116474380D02*
G01*
X213226767Y-116507570D01*
X213698299Y-116702885D01*
X213941029Y-116865073D01*
X214122666Y-116986438D01*
X214483562Y-117347334D01*
X214604927Y-117528971D01*
X214767115Y-117771701D01*
X214956714Y-118229434D01*
X214962430Y-118243234D01*
X215062000Y-118743807D01*
X215062000Y-119254193D01*
X215045940Y-119334930D01*
X214962430Y-119754767D01*
X214767115Y-120226299D01*
X214615705Y-120452899D01*
X214483562Y-120650666D01*
X214122666Y-121011562D01*
X213954954Y-121123623D01*
X213698299Y-121295115D01*
X213226767Y-121490430D01*
X213059908Y-121523620D01*
X212726193Y-121590000D01*
X212215807Y-121590000D01*
X211882092Y-121523620D01*
X211715233Y-121490430D01*
X211243701Y-121295115D01*
X210987046Y-121123623D01*
X210819334Y-121011562D01*
X210458438Y-120650666D01*
X210326295Y-120452899D01*
X210174885Y-120226299D01*
X209979570Y-119754767D01*
X209896060Y-119334930D01*
X209880000Y-119254193D01*
X209880000Y-118743807D01*
X209979570Y-118243234D01*
X209985286Y-118229434D01*
X210174885Y-117771701D01*
X210337073Y-117528971D01*
X210458438Y-117347334D01*
X210819334Y-116986438D01*
X211000971Y-116865073D01*
X211243701Y-116702885D01*
X211715233Y-116507570D01*
X211882092Y-116474380D01*
X212215807Y-116408000D01*
X212726193Y-116408000D01*
X213059908Y-116474380D01*
X213059908Y-116474380D01*
G37*
G36*
X220933908Y-116474380D02*
G01*
X221100767Y-116507570D01*
X221572299Y-116702885D01*
X221815029Y-116865073D01*
X221996666Y-116986438D01*
X222357562Y-117347334D01*
X222478927Y-117528971D01*
X222641115Y-117771701D01*
X222830714Y-118229434D01*
X222836430Y-118243234D01*
X222936000Y-118743807D01*
X222936000Y-119254193D01*
X222919940Y-119334930D01*
X222836430Y-119754767D01*
X222641115Y-120226299D01*
X222489705Y-120452899D01*
X222357562Y-120650666D01*
X221996666Y-121011562D01*
X221828954Y-121123623D01*
X221572299Y-121295115D01*
X221100767Y-121490430D01*
X220933908Y-121523620D01*
X220600193Y-121590000D01*
X220089807Y-121590000D01*
X219756092Y-121523620D01*
X219589233Y-121490430D01*
X219117701Y-121295115D01*
X218861046Y-121123623D01*
X218693334Y-121011562D01*
X218332438Y-120650666D01*
X218200295Y-120452899D01*
X218048885Y-120226299D01*
X217853570Y-119754767D01*
X217770060Y-119334930D01*
X217754000Y-119254193D01*
X217754000Y-118743807D01*
X217853570Y-118243234D01*
X217859286Y-118229434D01*
X218048885Y-117771701D01*
X218211073Y-117528971D01*
X218332438Y-117347334D01*
X218693334Y-116986438D01*
X218874971Y-116865073D01*
X219117701Y-116702885D01*
X219589233Y-116507570D01*
X219756092Y-116474380D01*
X220089807Y-116408000D01*
X220600193Y-116408000D01*
X220933908Y-116474380D01*
X220933908Y-116474380D01*
G37*
G36*
X160001000Y-121266000D02*
G01*
X157499000Y-121266000D01*
X157499000Y-118764000D01*
X160001000Y-118764000D01*
X160001000Y-121266000D01*
X160001000Y-121266000D01*
G37*
G36*
X164114903Y-118812075D02*
G01*
X164342571Y-118906378D01*
X164547466Y-119043285D01*
X164721715Y-119217534D01*
X164858622Y-119422429D01*
X164858623Y-119422431D01*
X164952925Y-119650097D01*
X165001000Y-119891786D01*
X165001000Y-120138214D01*
X164952925Y-120379903D01*
X164876198Y-120565140D01*
X164858622Y-120607571D01*
X164721715Y-120812466D01*
X164547466Y-120986715D01*
X164342571Y-121123622D01*
X164342570Y-121123623D01*
X164342569Y-121123623D01*
X164114903Y-121217925D01*
X163873214Y-121266000D01*
X163626786Y-121266000D01*
X163385097Y-121217925D01*
X163157431Y-121123623D01*
X163157430Y-121123623D01*
X163157429Y-121123622D01*
X162952534Y-120986715D01*
X162778285Y-120812466D01*
X162641378Y-120607571D01*
X162623803Y-120565140D01*
X162547075Y-120379903D01*
X162499000Y-120138214D01*
X162499000Y-119891786D01*
X162547075Y-119650097D01*
X162641377Y-119422431D01*
X162641378Y-119422429D01*
X162778285Y-119217534D01*
X162952534Y-119043285D01*
X163157429Y-118906378D01*
X163385097Y-118812075D01*
X163626786Y-118764000D01*
X163873214Y-118764000D01*
X164114903Y-118812075D01*
X164114903Y-118812075D01*
G37*
G36*
X150540070Y-118356433D02*
G01*
X150805899Y-118466543D01*
X150805901Y-118466544D01*
X151045142Y-118626400D01*
X151248600Y-118829858D01*
X151408456Y-119069099D01*
X151408457Y-119069101D01*
X151518567Y-119334930D01*
X151574700Y-119617132D01*
X151574700Y-119904868D01*
X151518567Y-120187070D01*
X151438693Y-120379903D01*
X151408456Y-120452901D01*
X151248600Y-120692142D01*
X151045142Y-120895600D01*
X150805901Y-121055456D01*
X150805900Y-121055457D01*
X150805899Y-121055457D01*
X150540070Y-121165567D01*
X150257868Y-121221700D01*
X149970132Y-121221700D01*
X149687930Y-121165567D01*
X149422101Y-121055457D01*
X149422100Y-121055457D01*
X149422099Y-121055456D01*
X149182858Y-120895600D01*
X148979400Y-120692142D01*
X148819544Y-120452901D01*
X148789307Y-120379903D01*
X148709433Y-120187070D01*
X148653300Y-119904868D01*
X148653300Y-119617132D01*
X148709433Y-119334930D01*
X148819543Y-119069101D01*
X148819544Y-119069099D01*
X148979400Y-118829858D01*
X149182858Y-118626400D01*
X149422099Y-118466544D01*
X149422101Y-118466543D01*
X149687930Y-118356433D01*
X149970132Y-118300300D01*
X150257868Y-118300300D01*
X150540070Y-118356433D01*
X150540070Y-118356433D01*
G37*
G36*
X147111070Y-118356433D02*
G01*
X147376899Y-118466543D01*
X147376901Y-118466544D01*
X147616142Y-118626400D01*
X147819600Y-118829858D01*
X147979456Y-119069099D01*
X147979457Y-119069101D01*
X148089567Y-119334930D01*
X148145700Y-119617132D01*
X148145700Y-119904868D01*
X148089567Y-120187070D01*
X148009693Y-120379903D01*
X147979456Y-120452901D01*
X147819600Y-120692142D01*
X147616142Y-120895600D01*
X147376901Y-121055456D01*
X147376900Y-121055457D01*
X147376899Y-121055457D01*
X147111070Y-121165567D01*
X146828868Y-121221700D01*
X146541132Y-121221700D01*
X146258930Y-121165567D01*
X145993101Y-121055457D01*
X145993100Y-121055457D01*
X145993099Y-121055456D01*
X145753858Y-120895600D01*
X145550400Y-120692142D01*
X145390544Y-120452901D01*
X145360307Y-120379903D01*
X145280433Y-120187070D01*
X145224300Y-119904868D01*
X145224300Y-119617132D01*
X145280433Y-119334930D01*
X145390543Y-119069101D01*
X145390544Y-119069099D01*
X145550400Y-118829858D01*
X145753858Y-118626400D01*
X145993099Y-118466544D01*
X145993101Y-118466543D01*
X146258930Y-118356433D01*
X146541132Y-118300300D01*
X146828868Y-118300300D01*
X147111070Y-118356433D01*
X147111070Y-118356433D01*
G37*
G36*
X185338070Y-118229433D02*
G01*
X185603899Y-118339543D01*
X185603901Y-118339544D01*
X185843142Y-118499400D01*
X186046600Y-118702858D01*
X186201985Y-118935408D01*
X186206457Y-118942101D01*
X186316567Y-119207930D01*
X186372700Y-119490132D01*
X186372700Y-119777868D01*
X186316567Y-120060070D01*
X186206457Y-120325899D01*
X186206456Y-120325901D01*
X186046600Y-120565142D01*
X185843142Y-120768600D01*
X185603901Y-120928456D01*
X185603900Y-120928457D01*
X185603899Y-120928457D01*
X185338070Y-121038567D01*
X185055868Y-121094700D01*
X184768132Y-121094700D01*
X184485930Y-121038567D01*
X184220101Y-120928457D01*
X184220100Y-120928457D01*
X184220099Y-120928456D01*
X183980858Y-120768600D01*
X183777400Y-120565142D01*
X183617544Y-120325901D01*
X183617543Y-120325899D01*
X183507433Y-120060070D01*
X183451300Y-119777868D01*
X183451300Y-119490132D01*
X183507433Y-119207930D01*
X183617543Y-118942101D01*
X183622015Y-118935408D01*
X183777400Y-118702858D01*
X183980858Y-118499400D01*
X184220099Y-118339544D01*
X184220101Y-118339543D01*
X184485930Y-118229433D01*
X184768132Y-118173300D01*
X185055868Y-118173300D01*
X185338070Y-118229433D01*
X185338070Y-118229433D01*
G37*
G36*
X188767070Y-118229433D02*
G01*
X189032899Y-118339543D01*
X189032901Y-118339544D01*
X189272142Y-118499400D01*
X189475600Y-118702858D01*
X189630985Y-118935408D01*
X189635457Y-118942101D01*
X189745567Y-119207930D01*
X189801700Y-119490132D01*
X189801700Y-119777868D01*
X189745567Y-120060070D01*
X189635457Y-120325899D01*
X189635456Y-120325901D01*
X189475600Y-120565142D01*
X189272142Y-120768600D01*
X189032901Y-120928456D01*
X189032900Y-120928457D01*
X189032899Y-120928457D01*
X188767070Y-121038567D01*
X188484868Y-121094700D01*
X188197132Y-121094700D01*
X187914930Y-121038567D01*
X187649101Y-120928457D01*
X187649100Y-120928457D01*
X187649099Y-120928456D01*
X187409858Y-120768600D01*
X187206400Y-120565142D01*
X187046544Y-120325901D01*
X187046543Y-120325899D01*
X186936433Y-120060070D01*
X186880300Y-119777868D01*
X186880300Y-119490132D01*
X186936433Y-119207930D01*
X187046543Y-118942101D01*
X187051015Y-118935408D01*
X187206400Y-118702858D01*
X187409858Y-118499400D01*
X187649099Y-118339544D01*
X187649101Y-118339543D01*
X187914930Y-118229433D01*
X188197132Y-118173300D01*
X188484868Y-118173300D01*
X188767070Y-118229433D01*
X188767070Y-118229433D01*
G37*
G36*
X101262357Y-117885087D02*
G01*
X101409593Y-117914374D01*
X101686979Y-118029271D01*
X101936621Y-118196077D01*
X102148923Y-118408379D01*
X102315729Y-118658021D01*
X102430626Y-118935407D01*
X102452084Y-119043284D01*
X102489200Y-119229878D01*
X102489200Y-119530122D01*
X102471892Y-119617134D01*
X102430626Y-119824593D01*
X102315729Y-120101979D01*
X102148923Y-120351621D01*
X101936621Y-120563923D01*
X101686979Y-120730729D01*
X101409593Y-120845626D01*
X101262357Y-120874913D01*
X101115122Y-120904200D01*
X100814878Y-120904200D01*
X100667643Y-120874913D01*
X100520407Y-120845626D01*
X100243021Y-120730729D01*
X99993379Y-120563923D01*
X99781077Y-120351621D01*
X99614271Y-120101979D01*
X99499374Y-119824593D01*
X99458108Y-119617134D01*
X99440800Y-119530122D01*
X99440800Y-119229878D01*
X99477916Y-119043284D01*
X99499374Y-118935407D01*
X99614271Y-118658021D01*
X99781077Y-118408379D01*
X99993379Y-118196077D01*
X100243021Y-118029271D01*
X100520407Y-117914374D01*
X100667643Y-117885087D01*
X100814878Y-117855800D01*
X101115122Y-117855800D01*
X101262357Y-117885087D01*
X101262357Y-117885087D01*
G37*
G36*
X177781000Y-109836000D02*
G01*
X175279000Y-109836000D01*
X175279000Y-107334000D01*
X177781000Y-107334000D01*
X177781000Y-109836000D01*
X177781000Y-109836000D01*
G37*
G36*
X171894903Y-107382075D02*
G01*
X172122571Y-107476378D01*
X172327466Y-107613285D01*
X172501715Y-107787534D01*
X172638622Y-107992429D01*
X172732925Y-108220097D01*
X172781000Y-108461787D01*
X172781000Y-108708213D01*
X172732925Y-108949903D01*
X172638622Y-109177571D01*
X172501715Y-109382466D01*
X172327466Y-109556715D01*
X172122571Y-109693622D01*
X172122570Y-109693623D01*
X172122569Y-109693623D01*
X171894903Y-109787925D01*
X171653214Y-109836000D01*
X171406786Y-109836000D01*
X171165097Y-109787925D01*
X170937431Y-109693623D01*
X170937430Y-109693623D01*
X170937429Y-109693622D01*
X170732534Y-109556715D01*
X170558285Y-109382466D01*
X170421378Y-109177571D01*
X170327075Y-108949903D01*
X170279000Y-108708213D01*
X170279000Y-108461787D01*
X170327075Y-108220097D01*
X170421378Y-107992429D01*
X170558285Y-107787534D01*
X170732534Y-107613285D01*
X170937429Y-107476378D01*
X171165097Y-107382075D01*
X171406786Y-107334000D01*
X171653214Y-107334000D01*
X171894903Y-107382075D01*
X171894903Y-107382075D01*
G37*
G36*
X123143908Y-104409380D02*
G01*
X123310767Y-104442570D01*
X123782299Y-104637885D01*
X123976182Y-104767434D01*
X124206666Y-104921438D01*
X124567562Y-105282334D01*
X124624707Y-105367858D01*
X124851115Y-105706701D01*
X125046430Y-106178233D01*
X125057803Y-106235408D01*
X125146000Y-106678807D01*
X125146000Y-107189193D01*
X125097384Y-107433601D01*
X125046430Y-107689767D01*
X124851115Y-108161299D01*
X124688927Y-108404029D01*
X124567562Y-108585666D01*
X124206666Y-108946562D01*
X124025029Y-109067927D01*
X123782299Y-109230115D01*
X123310767Y-109425430D01*
X123143908Y-109458620D01*
X122810193Y-109525000D01*
X122299807Y-109525000D01*
X121966092Y-109458620D01*
X121799233Y-109425430D01*
X121327701Y-109230115D01*
X121084971Y-109067927D01*
X120903334Y-108946562D01*
X120542438Y-108585666D01*
X120421073Y-108404029D01*
X120258885Y-108161299D01*
X120063570Y-107689767D01*
X120012616Y-107433601D01*
X119964000Y-107189193D01*
X119964000Y-106678807D01*
X120052197Y-106235408D01*
X120063570Y-106178233D01*
X120258885Y-105706701D01*
X120485293Y-105367858D01*
X120542438Y-105282334D01*
X120903334Y-104921438D01*
X121133818Y-104767434D01*
X121327701Y-104637885D01*
X121799233Y-104442570D01*
X121966092Y-104409380D01*
X122299807Y-104343000D01*
X122810193Y-104343000D01*
X123143908Y-104409380D01*
X123143908Y-104409380D01*
G37*
G36*
X115269908Y-104409380D02*
G01*
X115436767Y-104442570D01*
X115908299Y-104637885D01*
X116102182Y-104767434D01*
X116332666Y-104921438D01*
X116693562Y-105282334D01*
X116750707Y-105367858D01*
X116977115Y-105706701D01*
X117172430Y-106178233D01*
X117183803Y-106235408D01*
X117272000Y-106678807D01*
X117272000Y-107189193D01*
X117223384Y-107433601D01*
X117172430Y-107689767D01*
X116977115Y-108161299D01*
X116814927Y-108404029D01*
X116693562Y-108585666D01*
X116332666Y-108946562D01*
X116151029Y-109067927D01*
X115908299Y-109230115D01*
X115436767Y-109425430D01*
X115269908Y-109458620D01*
X114936193Y-109525000D01*
X114425807Y-109525000D01*
X114092092Y-109458620D01*
X113925233Y-109425430D01*
X113453701Y-109230115D01*
X113210971Y-109067927D01*
X113029334Y-108946562D01*
X112668438Y-108585666D01*
X112547073Y-108404029D01*
X112384885Y-108161299D01*
X112189570Y-107689767D01*
X112138616Y-107433601D01*
X112090000Y-107189193D01*
X112090000Y-106678807D01*
X112178197Y-106235408D01*
X112189570Y-106178233D01*
X112384885Y-105706701D01*
X112611293Y-105367858D01*
X112668438Y-105282334D01*
X113029334Y-104921438D01*
X113259818Y-104767434D01*
X113453701Y-104637885D01*
X113925233Y-104442570D01*
X114092092Y-104409380D01*
X114425807Y-104343000D01*
X114936193Y-104343000D01*
X115269908Y-104409380D01*
X115269908Y-104409380D01*
G37*
G36*
X234612357Y-105185087D02*
G01*
X234759593Y-105214374D01*
X235036979Y-105329271D01*
X235094728Y-105367858D01*
X235262712Y-105480101D01*
X235286621Y-105496077D01*
X235498923Y-105708379D01*
X235665729Y-105958021D01*
X235756944Y-106178234D01*
X235780626Y-106235408D01*
X235821893Y-106442868D01*
X235839200Y-106529879D01*
X235839200Y-106830121D01*
X235780626Y-107124593D01*
X235665729Y-107401979D01*
X235616017Y-107476378D01*
X235524539Y-107613285D01*
X235498923Y-107651621D01*
X235286621Y-107863923D01*
X235036979Y-108030729D01*
X234759593Y-108145626D01*
X234680809Y-108161297D01*
X234465122Y-108204200D01*
X234164878Y-108204200D01*
X233949191Y-108161297D01*
X233870407Y-108145626D01*
X233593021Y-108030729D01*
X233343379Y-107863923D01*
X233131077Y-107651621D01*
X233105462Y-107613285D01*
X233013983Y-107476378D01*
X232964271Y-107401979D01*
X232849374Y-107124593D01*
X232790800Y-106830121D01*
X232790800Y-106529879D01*
X232808108Y-106442868D01*
X232849374Y-106235408D01*
X232873056Y-106178234D01*
X232964271Y-105958021D01*
X233131077Y-105708379D01*
X233343379Y-105496077D01*
X233367289Y-105480101D01*
X233535272Y-105367858D01*
X233593021Y-105329271D01*
X233870407Y-105214374D01*
X234017643Y-105185087D01*
X234164878Y-105155800D01*
X234465122Y-105155800D01*
X234612357Y-105185087D01*
X234612357Y-105185087D01*
G37*
G36*
X150540070Y-104894433D02*
G01*
X150805899Y-105004543D01*
X150805901Y-105004544D01*
X151045142Y-105164400D01*
X151248600Y-105367858D01*
X151334273Y-105496077D01*
X151408457Y-105607101D01*
X151518567Y-105872930D01*
X151574700Y-106155132D01*
X151574700Y-106442868D01*
X151518567Y-106725070D01*
X151475053Y-106830121D01*
X151408456Y-106990901D01*
X151248600Y-107230142D01*
X151045142Y-107433600D01*
X150805901Y-107593456D01*
X150805900Y-107593457D01*
X150805899Y-107593457D01*
X150540070Y-107703567D01*
X150257868Y-107759700D01*
X149970132Y-107759700D01*
X149687930Y-107703567D01*
X149422101Y-107593457D01*
X149422100Y-107593457D01*
X149422099Y-107593456D01*
X149182858Y-107433600D01*
X148979400Y-107230142D01*
X148819544Y-106990901D01*
X148752947Y-106830121D01*
X148709433Y-106725070D01*
X148653300Y-106442868D01*
X148653300Y-106155132D01*
X148709433Y-105872930D01*
X148819543Y-105607101D01*
X148893727Y-105496077D01*
X148979400Y-105367858D01*
X149182858Y-105164400D01*
X149422099Y-105004544D01*
X149422101Y-105004543D01*
X149687930Y-104894433D01*
X149970132Y-104838300D01*
X150257868Y-104838300D01*
X150540070Y-104894433D01*
X150540070Y-104894433D01*
G37*
G36*
X147111070Y-104894433D02*
G01*
X147376899Y-105004543D01*
X147376901Y-105004544D01*
X147616142Y-105164400D01*
X147819600Y-105367858D01*
X147905273Y-105496077D01*
X147979457Y-105607101D01*
X148089567Y-105872930D01*
X148145700Y-106155132D01*
X148145700Y-106442868D01*
X148089567Y-106725070D01*
X148046053Y-106830121D01*
X147979456Y-106990901D01*
X147819600Y-107230142D01*
X147616142Y-107433600D01*
X147376901Y-107593456D01*
X147376900Y-107593457D01*
X147376899Y-107593457D01*
X147111070Y-107703567D01*
X146828868Y-107759700D01*
X146541132Y-107759700D01*
X146258930Y-107703567D01*
X145993101Y-107593457D01*
X145993100Y-107593457D01*
X145993099Y-107593456D01*
X145753858Y-107433600D01*
X145550400Y-107230142D01*
X145390544Y-106990901D01*
X145323947Y-106830121D01*
X145280433Y-106725070D01*
X145224300Y-106442868D01*
X145224300Y-106155132D01*
X145280433Y-105872930D01*
X145390543Y-105607101D01*
X145464727Y-105496077D01*
X145550400Y-105367858D01*
X145753858Y-105164400D01*
X145993099Y-105004544D01*
X145993101Y-105004543D01*
X146258930Y-104894433D01*
X146541132Y-104838300D01*
X146828868Y-104838300D01*
X147111070Y-104894433D01*
X147111070Y-104894433D01*
G37*
G36*
X188767070Y-104767433D02*
G01*
X189032899Y-104877543D01*
X189032901Y-104877544D01*
X189272142Y-105037400D01*
X189475600Y-105240858D01*
X189560460Y-105367860D01*
X189635457Y-105480101D01*
X189745567Y-105745930D01*
X189801700Y-106028132D01*
X189801700Y-106315868D01*
X189745567Y-106598070D01*
X189692961Y-106725071D01*
X189635456Y-106863901D01*
X189475600Y-107103142D01*
X189272142Y-107306600D01*
X189032901Y-107466456D01*
X189032900Y-107466457D01*
X189032899Y-107466457D01*
X188767070Y-107576567D01*
X188484868Y-107632700D01*
X188197132Y-107632700D01*
X187914930Y-107576567D01*
X187649101Y-107466457D01*
X187649100Y-107466457D01*
X187649099Y-107466456D01*
X187409858Y-107306600D01*
X187206400Y-107103142D01*
X187046544Y-106863901D01*
X186989039Y-106725071D01*
X186936433Y-106598070D01*
X186880300Y-106315868D01*
X186880300Y-106028132D01*
X186936433Y-105745930D01*
X187046543Y-105480101D01*
X187121540Y-105367860D01*
X187206400Y-105240858D01*
X187409858Y-105037400D01*
X187649099Y-104877544D01*
X187649101Y-104877543D01*
X187914930Y-104767433D01*
X188197132Y-104711300D01*
X188484868Y-104711300D01*
X188767070Y-104767433D01*
X188767070Y-104767433D01*
G37*
G36*
X185338070Y-104767433D02*
G01*
X185603899Y-104877543D01*
X185603901Y-104877544D01*
X185843142Y-105037400D01*
X186046600Y-105240858D01*
X186131460Y-105367860D01*
X186206457Y-105480101D01*
X186316567Y-105745930D01*
X186372700Y-106028132D01*
X186372700Y-106315868D01*
X186316567Y-106598070D01*
X186263961Y-106725071D01*
X186206456Y-106863901D01*
X186046600Y-107103142D01*
X185843142Y-107306600D01*
X185603901Y-107466456D01*
X185603900Y-107466457D01*
X185603899Y-107466457D01*
X185338070Y-107576567D01*
X185055868Y-107632700D01*
X184768132Y-107632700D01*
X184485930Y-107576567D01*
X184220101Y-107466457D01*
X184220100Y-107466457D01*
X184220099Y-107466456D01*
X183980858Y-107306600D01*
X183777400Y-107103142D01*
X183617544Y-106863901D01*
X183560039Y-106725071D01*
X183507433Y-106598070D01*
X183451300Y-106315868D01*
X183451300Y-106028132D01*
X183507433Y-105745930D01*
X183617543Y-105480101D01*
X183692540Y-105367860D01*
X183777400Y-105240858D01*
X183980858Y-105037400D01*
X184220099Y-104877544D01*
X184220101Y-104877543D01*
X184485930Y-104767433D01*
X184768132Y-104711300D01*
X185055868Y-104711300D01*
X185338070Y-104767433D01*
X185338070Y-104767433D01*
G37*
G36*
X213059908Y-95900380D02*
G01*
X213226767Y-95933570D01*
X213698299Y-96128885D01*
X213941029Y-96291073D01*
X214122666Y-96412438D01*
X214483562Y-96773334D01*
X214604927Y-96954971D01*
X214767115Y-97197701D01*
X214962430Y-97669233D01*
X214988123Y-97798400D01*
X215062000Y-98169807D01*
X215062000Y-98680193D01*
X215040330Y-98789134D01*
X214962430Y-99180767D01*
X214767115Y-99652299D01*
X214604927Y-99895029D01*
X214483562Y-100076666D01*
X214122666Y-100437562D01*
X213941029Y-100558927D01*
X213698299Y-100721115D01*
X213226767Y-100916430D01*
X213059908Y-100949620D01*
X212726193Y-101016000D01*
X212215807Y-101016000D01*
X211882092Y-100949620D01*
X211715233Y-100916430D01*
X211243701Y-100721115D01*
X211000971Y-100558927D01*
X210819334Y-100437562D01*
X210458438Y-100076666D01*
X210337073Y-99895029D01*
X210174885Y-99652299D01*
X209979570Y-99180767D01*
X209901670Y-98789134D01*
X209880000Y-98680193D01*
X209880000Y-98169807D01*
X209953877Y-97798400D01*
X209979570Y-97669233D01*
X210174885Y-97197701D01*
X210337073Y-96954971D01*
X210458438Y-96773334D01*
X210819334Y-96412438D01*
X211000971Y-96291073D01*
X211243701Y-96128885D01*
X211715233Y-95933570D01*
X211882092Y-95900380D01*
X212215807Y-95834000D01*
X212726193Y-95834000D01*
X213059908Y-95900380D01*
X213059908Y-95900380D01*
G37*
G36*
X220933908Y-95900380D02*
G01*
X221100767Y-95933570D01*
X221572299Y-96128885D01*
X221815029Y-96291073D01*
X221996666Y-96412438D01*
X222357562Y-96773334D01*
X222478927Y-96954971D01*
X222641115Y-97197701D01*
X222836430Y-97669233D01*
X222862123Y-97798400D01*
X222936000Y-98169807D01*
X222936000Y-98680193D01*
X222914330Y-98789134D01*
X222836430Y-99180767D01*
X222641115Y-99652299D01*
X222478927Y-99895029D01*
X222357562Y-100076666D01*
X221996666Y-100437562D01*
X221815029Y-100558927D01*
X221572299Y-100721115D01*
X221100767Y-100916430D01*
X220933908Y-100949620D01*
X220600193Y-101016000D01*
X220089807Y-101016000D01*
X219756092Y-100949620D01*
X219589233Y-100916430D01*
X219117701Y-100721115D01*
X218874971Y-100558927D01*
X218693334Y-100437562D01*
X218332438Y-100076666D01*
X218211073Y-99895029D01*
X218048885Y-99652299D01*
X217853570Y-99180767D01*
X217775670Y-98789134D01*
X217754000Y-98680193D01*
X217754000Y-98169807D01*
X217827877Y-97798400D01*
X217853570Y-97669233D01*
X218048885Y-97197701D01*
X218211073Y-96954971D01*
X218332438Y-96773334D01*
X218693334Y-96412438D01*
X218874971Y-96291073D01*
X219117701Y-96128885D01*
X219589233Y-95933570D01*
X219756092Y-95900380D01*
X220089807Y-95834000D01*
X220600193Y-95834000D01*
X220933908Y-95900380D01*
X220933908Y-95900380D01*
G37*
G36*
X188767070Y-97655433D02*
G01*
X189032899Y-97765543D01*
X189032901Y-97765544D01*
X189272142Y-97925400D01*
X189475600Y-98128858D01*
X189635456Y-98368099D01*
X189635457Y-98368101D01*
X189745567Y-98633930D01*
X189801700Y-98916132D01*
X189801700Y-99203868D01*
X189745567Y-99486070D01*
X189635457Y-99751899D01*
X189635456Y-99751901D01*
X189475600Y-99991142D01*
X189272142Y-100194600D01*
X189032901Y-100354456D01*
X189032900Y-100354457D01*
X189032899Y-100354457D01*
X188767070Y-100464567D01*
X188484868Y-100520700D01*
X188197132Y-100520700D01*
X187914930Y-100464567D01*
X187649101Y-100354457D01*
X187649100Y-100354457D01*
X187649099Y-100354456D01*
X187409858Y-100194600D01*
X187206400Y-99991142D01*
X187046544Y-99751901D01*
X187046543Y-99751899D01*
X186936433Y-99486070D01*
X186880300Y-99203868D01*
X186880300Y-98916132D01*
X186936433Y-98633930D01*
X187046543Y-98368101D01*
X187046544Y-98368099D01*
X187206400Y-98128858D01*
X187409858Y-97925400D01*
X187649099Y-97765544D01*
X187649101Y-97765543D01*
X187914930Y-97655433D01*
X188197132Y-97599300D01*
X188484868Y-97599300D01*
X188767070Y-97655433D01*
X188767070Y-97655433D01*
G37*
G36*
X185338070Y-97655433D02*
G01*
X185603899Y-97765543D01*
X185603901Y-97765544D01*
X185843142Y-97925400D01*
X186046600Y-98128858D01*
X186206456Y-98368099D01*
X186206457Y-98368101D01*
X186316567Y-98633930D01*
X186372700Y-98916132D01*
X186372700Y-99203868D01*
X186316567Y-99486070D01*
X186206457Y-99751899D01*
X186206456Y-99751901D01*
X186046600Y-99991142D01*
X185843142Y-100194600D01*
X185603901Y-100354456D01*
X185603900Y-100354457D01*
X185603899Y-100354457D01*
X185338070Y-100464567D01*
X185055868Y-100520700D01*
X184768132Y-100520700D01*
X184485930Y-100464567D01*
X184220101Y-100354457D01*
X184220100Y-100354457D01*
X184220099Y-100354456D01*
X183980858Y-100194600D01*
X183777400Y-99991142D01*
X183617544Y-99751901D01*
X183617543Y-99751899D01*
X183507433Y-99486070D01*
X183451300Y-99203868D01*
X183451300Y-98916132D01*
X183507433Y-98633930D01*
X183617543Y-98368101D01*
X183617544Y-98368099D01*
X183777400Y-98128858D01*
X183980858Y-97925400D01*
X184220099Y-97765544D01*
X184220101Y-97765543D01*
X184485930Y-97655433D01*
X184768132Y-97599300D01*
X185055868Y-97599300D01*
X185338070Y-97655433D01*
X185338070Y-97655433D01*
G37*
G36*
X150540070Y-97528433D02*
G01*
X150781950Y-97628623D01*
X150805901Y-97638544D01*
X151045142Y-97798400D01*
X151248600Y-98001858D01*
X151333460Y-98128860D01*
X151408457Y-98241101D01*
X151518567Y-98506930D01*
X151574700Y-98789132D01*
X151574700Y-99076868D01*
X151518567Y-99359070D01*
X151465961Y-99486071D01*
X151408456Y-99624901D01*
X151248600Y-99864142D01*
X151045142Y-100067600D01*
X150805901Y-100227456D01*
X150805900Y-100227457D01*
X150805899Y-100227457D01*
X150540070Y-100337567D01*
X150257868Y-100393700D01*
X149970132Y-100393700D01*
X149687930Y-100337567D01*
X149422101Y-100227457D01*
X149422100Y-100227457D01*
X149422099Y-100227456D01*
X149182858Y-100067600D01*
X148979400Y-99864142D01*
X148819544Y-99624901D01*
X148762039Y-99486071D01*
X148709433Y-99359070D01*
X148653300Y-99076868D01*
X148653300Y-98789132D01*
X148709433Y-98506930D01*
X148819543Y-98241101D01*
X148894540Y-98128860D01*
X148979400Y-98001858D01*
X149182858Y-97798400D01*
X149422099Y-97638544D01*
X149446050Y-97628623D01*
X149687930Y-97528433D01*
X149970132Y-97472300D01*
X150257868Y-97472300D01*
X150540070Y-97528433D01*
X150540070Y-97528433D01*
G37*
G36*
X147111070Y-97528433D02*
G01*
X147352950Y-97628623D01*
X147376901Y-97638544D01*
X147616142Y-97798400D01*
X147819600Y-98001858D01*
X147904460Y-98128860D01*
X147979457Y-98241101D01*
X148089567Y-98506930D01*
X148145700Y-98789132D01*
X148145700Y-99076868D01*
X148089567Y-99359070D01*
X148036961Y-99486071D01*
X147979456Y-99624901D01*
X147819600Y-99864142D01*
X147616142Y-100067600D01*
X147376901Y-100227456D01*
X147376900Y-100227457D01*
X147376899Y-100227457D01*
X147111070Y-100337567D01*
X146828868Y-100393700D01*
X146541132Y-100393700D01*
X146258930Y-100337567D01*
X145993101Y-100227457D01*
X145993100Y-100227457D01*
X145993099Y-100227456D01*
X145753858Y-100067600D01*
X145550400Y-99864142D01*
X145390544Y-99624901D01*
X145333039Y-99486071D01*
X145280433Y-99359070D01*
X145224300Y-99076868D01*
X145224300Y-98789132D01*
X145280433Y-98506930D01*
X145390543Y-98241101D01*
X145465540Y-98128860D01*
X145550400Y-98001858D01*
X145753858Y-97798400D01*
X145993099Y-97638544D01*
X146017050Y-97628623D01*
X146258930Y-97528433D01*
X146541132Y-97472300D01*
X146828868Y-97472300D01*
X147111070Y-97528433D01*
X147111070Y-97528433D01*
G37*
G36*
X164114903Y-95317075D02*
G01*
X164342571Y-95411378D01*
X164547466Y-95548285D01*
X164721715Y-95722534D01*
X164858622Y-95927429D01*
X164952925Y-96155097D01*
X165001000Y-96396787D01*
X165001000Y-96643213D01*
X164952925Y-96884903D01*
X164858622Y-97112571D01*
X164721715Y-97317466D01*
X164547466Y-97491715D01*
X164342571Y-97628622D01*
X164342570Y-97628623D01*
X164342569Y-97628623D01*
X164114903Y-97722925D01*
X163873214Y-97771000D01*
X163626786Y-97771000D01*
X163385097Y-97722925D01*
X163157431Y-97628623D01*
X163157430Y-97628623D01*
X163157429Y-97628622D01*
X162952534Y-97491715D01*
X162778285Y-97317466D01*
X162641378Y-97112571D01*
X162547075Y-96884903D01*
X162499000Y-96643213D01*
X162499000Y-96396787D01*
X162547075Y-96155097D01*
X162641378Y-95927429D01*
X162778285Y-95722534D01*
X162952534Y-95548285D01*
X163157429Y-95411378D01*
X163385097Y-95317075D01*
X163626786Y-95269000D01*
X163873214Y-95269000D01*
X164114903Y-95317075D01*
X164114903Y-95317075D01*
G37*
G36*
X160001000Y-97771000D02*
G01*
X157499000Y-97771000D01*
X157499000Y-95269000D01*
X160001000Y-95269000D01*
X160001000Y-97771000D01*
X160001000Y-97771000D01*
G37*
G36*
X123143908Y-83581380D02*
G01*
X123310767Y-83614570D01*
X123782299Y-83809885D01*
X124025029Y-83972073D01*
X124206666Y-84093438D01*
X124567562Y-84454334D01*
X124624707Y-84539858D01*
X124851115Y-84878701D01*
X124972574Y-85171930D01*
X125046430Y-85350234D01*
X125146000Y-85850807D01*
X125146000Y-86361193D01*
X125097384Y-86605601D01*
X125046430Y-86861767D01*
X124851115Y-87333299D01*
X124688927Y-87576029D01*
X124567562Y-87757666D01*
X124206666Y-88118562D01*
X124025029Y-88239927D01*
X123782299Y-88402115D01*
X123310767Y-88597430D01*
X123143908Y-88630620D01*
X122810193Y-88697000D01*
X122299807Y-88697000D01*
X121966092Y-88630620D01*
X121799233Y-88597430D01*
X121327701Y-88402115D01*
X121084971Y-88239927D01*
X120903334Y-88118562D01*
X120542438Y-87757666D01*
X120421073Y-87576029D01*
X120258885Y-87333299D01*
X120063570Y-86861767D01*
X120012616Y-86605601D01*
X119964000Y-86361193D01*
X119964000Y-85850807D01*
X120063570Y-85350234D01*
X120137426Y-85171930D01*
X120258885Y-84878701D01*
X120485293Y-84539858D01*
X120542438Y-84454334D01*
X120903334Y-84093438D01*
X121084971Y-83972073D01*
X121327701Y-83809885D01*
X121799233Y-83614570D01*
X121966092Y-83581380D01*
X122299807Y-83515000D01*
X122810193Y-83515000D01*
X123143908Y-83581380D01*
X123143908Y-83581380D01*
G37*
G36*
X115269908Y-83581380D02*
G01*
X115436767Y-83614570D01*
X115908299Y-83809885D01*
X116151029Y-83972073D01*
X116332666Y-84093438D01*
X116693562Y-84454334D01*
X116750707Y-84539858D01*
X116977115Y-84878701D01*
X117098574Y-85171930D01*
X117172430Y-85350234D01*
X117272000Y-85850807D01*
X117272000Y-86361193D01*
X117223384Y-86605601D01*
X117172430Y-86861767D01*
X116977115Y-87333299D01*
X116814927Y-87576029D01*
X116693562Y-87757666D01*
X116332666Y-88118562D01*
X116151029Y-88239927D01*
X115908299Y-88402115D01*
X115436767Y-88597430D01*
X115269908Y-88630620D01*
X114936193Y-88697000D01*
X114425807Y-88697000D01*
X114092092Y-88630620D01*
X113925233Y-88597430D01*
X113453701Y-88402115D01*
X113210971Y-88239927D01*
X113029334Y-88118562D01*
X112668438Y-87757666D01*
X112547073Y-87576029D01*
X112384885Y-87333299D01*
X112189570Y-86861767D01*
X112138616Y-86605601D01*
X112090000Y-86361193D01*
X112090000Y-85850807D01*
X112189570Y-85350234D01*
X112263426Y-85171930D01*
X112384885Y-84878701D01*
X112611293Y-84539858D01*
X112668438Y-84454334D01*
X113029334Y-84093438D01*
X113210971Y-83972073D01*
X113453701Y-83809885D01*
X113925233Y-83614570D01*
X114092092Y-83581380D01*
X114425807Y-83515000D01*
X114936193Y-83515000D01*
X115269908Y-83581380D01*
X115269908Y-83581380D01*
G37*
G36*
X188767070Y-84193433D02*
G01*
X189032899Y-84303543D01*
X189032901Y-84303544D01*
X189272142Y-84463400D01*
X189475600Y-84666858D01*
X189635456Y-84906099D01*
X189635457Y-84906101D01*
X189745567Y-85171930D01*
X189801700Y-85454132D01*
X189801700Y-85741868D01*
X189745567Y-86024070D01*
X189688062Y-86162899D01*
X189635456Y-86289901D01*
X189475600Y-86529142D01*
X189272142Y-86732600D01*
X189032901Y-86892456D01*
X189032900Y-86892457D01*
X189032899Y-86892457D01*
X188767070Y-87002567D01*
X188484868Y-87058700D01*
X188197132Y-87058700D01*
X187914930Y-87002567D01*
X187649101Y-86892457D01*
X187649100Y-86892457D01*
X187649099Y-86892456D01*
X187409858Y-86732600D01*
X187206400Y-86529142D01*
X187046544Y-86289901D01*
X186993938Y-86162899D01*
X186936433Y-86024070D01*
X186880300Y-85741868D01*
X186880300Y-85454132D01*
X186936433Y-85171930D01*
X187046543Y-84906101D01*
X187046544Y-84906099D01*
X187206400Y-84666858D01*
X187409858Y-84463400D01*
X187649099Y-84303544D01*
X187649101Y-84303543D01*
X187914930Y-84193433D01*
X188197132Y-84137300D01*
X188484868Y-84137300D01*
X188767070Y-84193433D01*
X188767070Y-84193433D01*
G37*
G36*
X185338070Y-84193433D02*
G01*
X185603899Y-84303543D01*
X185603901Y-84303544D01*
X185843142Y-84463400D01*
X186046600Y-84666858D01*
X186206456Y-84906099D01*
X186206457Y-84906101D01*
X186316567Y-85171930D01*
X186372700Y-85454132D01*
X186372700Y-85741868D01*
X186316567Y-86024070D01*
X186259062Y-86162899D01*
X186206456Y-86289901D01*
X186046600Y-86529142D01*
X185843142Y-86732600D01*
X185603901Y-86892456D01*
X185603900Y-86892457D01*
X185603899Y-86892457D01*
X185338070Y-87002567D01*
X185055868Y-87058700D01*
X184768132Y-87058700D01*
X184485930Y-87002567D01*
X184220101Y-86892457D01*
X184220100Y-86892457D01*
X184220099Y-86892456D01*
X183980858Y-86732600D01*
X183777400Y-86529142D01*
X183617544Y-86289901D01*
X183564938Y-86162899D01*
X183507433Y-86024070D01*
X183451300Y-85741868D01*
X183451300Y-85454132D01*
X183507433Y-85171930D01*
X183617543Y-84906101D01*
X183617544Y-84906099D01*
X183777400Y-84666858D01*
X183980858Y-84463400D01*
X184220099Y-84303544D01*
X184220101Y-84303543D01*
X184485930Y-84193433D01*
X184768132Y-84137300D01*
X185055868Y-84137300D01*
X185338070Y-84193433D01*
X185338070Y-84193433D01*
G37*
G36*
X150540070Y-84066433D02*
G01*
X150805899Y-84176543D01*
X150805901Y-84176544D01*
X151045142Y-84336400D01*
X151248600Y-84539858D01*
X151408456Y-84779099D01*
X151408457Y-84779101D01*
X151518567Y-85044930D01*
X151574700Y-85327132D01*
X151574700Y-85614868D01*
X151518567Y-85897070D01*
X151465961Y-86024071D01*
X151408456Y-86162901D01*
X151248600Y-86402142D01*
X151045142Y-86605600D01*
X150805901Y-86765456D01*
X150805900Y-86765457D01*
X150805899Y-86765457D01*
X150540070Y-86875567D01*
X150257868Y-86931700D01*
X149970132Y-86931700D01*
X149687930Y-86875567D01*
X149422101Y-86765457D01*
X149422100Y-86765457D01*
X149422099Y-86765456D01*
X149182858Y-86605600D01*
X148979400Y-86402142D01*
X148819544Y-86162901D01*
X148762039Y-86024071D01*
X148709433Y-85897070D01*
X148653300Y-85614868D01*
X148653300Y-85327132D01*
X148709433Y-85044930D01*
X148819543Y-84779101D01*
X148819544Y-84779099D01*
X148979400Y-84539858D01*
X149182858Y-84336400D01*
X149422099Y-84176544D01*
X149422101Y-84176543D01*
X149687930Y-84066433D01*
X149970132Y-84010300D01*
X150257868Y-84010300D01*
X150540070Y-84066433D01*
X150540070Y-84066433D01*
G37*
G36*
X147111070Y-84066433D02*
G01*
X147376899Y-84176543D01*
X147376901Y-84176544D01*
X147616142Y-84336400D01*
X147819600Y-84539858D01*
X147979456Y-84779099D01*
X147979457Y-84779101D01*
X148089567Y-85044930D01*
X148145700Y-85327132D01*
X148145700Y-85614868D01*
X148089567Y-85897070D01*
X148036961Y-86024071D01*
X147979456Y-86162901D01*
X147819600Y-86402142D01*
X147616142Y-86605600D01*
X147376901Y-86765456D01*
X147376900Y-86765457D01*
X147376899Y-86765457D01*
X147111070Y-86875567D01*
X146828868Y-86931700D01*
X146541132Y-86931700D01*
X146258930Y-86875567D01*
X145993101Y-86765457D01*
X145993100Y-86765457D01*
X145993099Y-86765456D01*
X145753858Y-86605600D01*
X145550400Y-86402142D01*
X145390544Y-86162901D01*
X145333039Y-86024071D01*
X145280433Y-85897070D01*
X145224300Y-85614868D01*
X145224300Y-85327132D01*
X145280433Y-85044930D01*
X145390543Y-84779101D01*
X145390544Y-84779099D01*
X145550400Y-84539858D01*
X145753858Y-84336400D01*
X145993099Y-84176544D01*
X145993101Y-84176543D01*
X146258930Y-84066433D01*
X146541132Y-84010300D01*
X146828868Y-84010300D01*
X147111070Y-84066433D01*
X147111070Y-84066433D01*
G37*
G36*
X164153651Y-81557888D02*
G01*
X164464870Y-81652296D01*
X164751680Y-81805599D01*
X164751683Y-81805601D01*
X164751684Y-81805602D01*
X165003082Y-82011918D01*
X165209398Y-82263316D01*
X165209401Y-82263320D01*
X165362704Y-82550130D01*
X165457112Y-82861349D01*
X165488988Y-83185000D01*
X165457112Y-83508651D01*
X165362704Y-83819870D01*
X165209401Y-84106680D01*
X165209399Y-84106683D01*
X165209398Y-84106684D01*
X165003082Y-84358082D01*
X164751684Y-84564398D01*
X164751680Y-84564401D01*
X164464870Y-84717704D01*
X164153651Y-84812112D01*
X163911107Y-84836000D01*
X163748893Y-84836000D01*
X163506349Y-84812112D01*
X163195130Y-84717704D01*
X162908320Y-84564401D01*
X162908316Y-84564398D01*
X162656918Y-84358082D01*
X162450602Y-84106684D01*
X162450601Y-84106683D01*
X162450599Y-84106680D01*
X162297296Y-83819870D01*
X162202888Y-83508651D01*
X162171012Y-83185000D01*
X162202888Y-82861349D01*
X162297296Y-82550130D01*
X162450599Y-82263320D01*
X162450602Y-82263316D01*
X162656918Y-82011918D01*
X162908316Y-81805602D01*
X162908317Y-81805601D01*
X162908320Y-81805599D01*
X163195130Y-81652296D01*
X163506349Y-81557888D01*
X163748893Y-81534000D01*
X163911107Y-81534000D01*
X164153651Y-81557888D01*
X164153651Y-81557888D01*
G37*
G36*
X171138651Y-81557888D02*
G01*
X171449870Y-81652296D01*
X171736680Y-81805599D01*
X171736683Y-81805601D01*
X171736684Y-81805602D01*
X171988082Y-82011918D01*
X172194398Y-82263316D01*
X172194401Y-82263320D01*
X172347704Y-82550130D01*
X172442112Y-82861349D01*
X172473988Y-83185000D01*
X172442112Y-83508651D01*
X172347704Y-83819870D01*
X172194401Y-84106680D01*
X172194399Y-84106683D01*
X172194398Y-84106684D01*
X171988082Y-84358082D01*
X171736684Y-84564398D01*
X171736680Y-84564401D01*
X171449870Y-84717704D01*
X171138651Y-84812112D01*
X170896107Y-84836000D01*
X170733893Y-84836000D01*
X170491349Y-84812112D01*
X170180130Y-84717704D01*
X169893320Y-84564401D01*
X169893316Y-84564398D01*
X169641918Y-84358082D01*
X169435602Y-84106684D01*
X169435601Y-84106683D01*
X169435599Y-84106680D01*
X169282296Y-83819870D01*
X169187888Y-83508651D01*
X169156012Y-83185000D01*
X169187888Y-82861349D01*
X169282296Y-82550130D01*
X169435599Y-82263320D01*
X169435602Y-82263316D01*
X169641918Y-82011918D01*
X169893316Y-81805602D01*
X169893317Y-81805601D01*
X169893320Y-81805599D01*
X170180130Y-81652296D01*
X170491349Y-81557888D01*
X170733893Y-81534000D01*
X170896107Y-81534000D01*
X171138651Y-81557888D01*
X171138651Y-81557888D01*
G37*
G36*
X220933908Y-75453380D02*
G01*
X221100767Y-75486570D01*
X221572299Y-75681885D01*
X221815029Y-75844073D01*
X221996666Y-75965438D01*
X222357562Y-76326334D01*
X222442865Y-76454000D01*
X222641115Y-76750701D01*
X222836430Y-77222233D01*
X222862123Y-77351400D01*
X222936000Y-77722807D01*
X222936000Y-78233193D01*
X222914330Y-78342134D01*
X222836430Y-78733767D01*
X222641115Y-79205299D01*
X222478927Y-79448029D01*
X222357562Y-79629666D01*
X221996666Y-79990562D01*
X221815029Y-80111927D01*
X221572299Y-80274115D01*
X221100767Y-80469430D01*
X220933908Y-80502620D01*
X220600193Y-80569000D01*
X220089807Y-80569000D01*
X219756092Y-80502620D01*
X219589233Y-80469430D01*
X219117701Y-80274115D01*
X218874971Y-80111927D01*
X218693334Y-79990562D01*
X218332438Y-79629666D01*
X218211073Y-79448029D01*
X218048885Y-79205299D01*
X217853570Y-78733767D01*
X217775670Y-78342134D01*
X217754000Y-78233193D01*
X217754000Y-77722807D01*
X217827877Y-77351400D01*
X217853570Y-77222233D01*
X218048885Y-76750701D01*
X218247135Y-76454000D01*
X218332438Y-76326334D01*
X218693334Y-75965438D01*
X218874971Y-75844073D01*
X219117701Y-75681885D01*
X219589233Y-75486570D01*
X219756092Y-75453380D01*
X220089807Y-75387000D01*
X220600193Y-75387000D01*
X220933908Y-75453380D01*
X220933908Y-75453380D01*
G37*
G36*
X213059908Y-75453380D02*
G01*
X213226767Y-75486570D01*
X213698299Y-75681885D01*
X213941029Y-75844073D01*
X214122666Y-75965438D01*
X214483562Y-76326334D01*
X214568865Y-76454000D01*
X214767115Y-76750701D01*
X214962430Y-77222233D01*
X214988123Y-77351400D01*
X215062000Y-77722807D01*
X215062000Y-78233193D01*
X215040330Y-78342134D01*
X214962430Y-78733767D01*
X214767115Y-79205299D01*
X214604927Y-79448029D01*
X214483562Y-79629666D01*
X214122666Y-79990562D01*
X213941029Y-80111927D01*
X213698299Y-80274115D01*
X213226767Y-80469430D01*
X213059908Y-80502620D01*
X212726193Y-80569000D01*
X212215807Y-80569000D01*
X211882092Y-80502620D01*
X211715233Y-80469430D01*
X211243701Y-80274115D01*
X211000971Y-80111927D01*
X210819334Y-79990562D01*
X210458438Y-79629666D01*
X210337073Y-79448029D01*
X210174885Y-79205299D01*
X209979570Y-78733767D01*
X209901670Y-78342134D01*
X209880000Y-78233193D01*
X209880000Y-77722807D01*
X209953877Y-77351400D01*
X209979570Y-77222233D01*
X210174885Y-76750701D01*
X210373135Y-76454000D01*
X210458438Y-76326334D01*
X210819334Y-75965438D01*
X211000971Y-75844073D01*
X211243701Y-75681885D01*
X211715233Y-75486570D01*
X211882092Y-75453380D01*
X212215807Y-75387000D01*
X212726193Y-75387000D01*
X213059908Y-75453380D01*
X213059908Y-75453380D01*
G37*
G36*
X188767070Y-77208433D02*
G01*
X189032899Y-77318543D01*
X189032901Y-77318544D01*
X189272142Y-77478400D01*
X189475600Y-77681858D01*
X189635456Y-77921099D01*
X189635457Y-77921101D01*
X189745567Y-78186930D01*
X189801700Y-78469132D01*
X189801700Y-78756868D01*
X189745567Y-79039070D01*
X189635457Y-79304899D01*
X189635456Y-79304901D01*
X189475600Y-79544142D01*
X189272142Y-79747600D01*
X189032901Y-79907456D01*
X189032900Y-79907457D01*
X189032899Y-79907457D01*
X188767070Y-80017567D01*
X188484868Y-80073700D01*
X188197132Y-80073700D01*
X187914930Y-80017567D01*
X187649101Y-79907457D01*
X187649100Y-79907457D01*
X187649099Y-79907456D01*
X187409858Y-79747600D01*
X187206400Y-79544142D01*
X187046544Y-79304901D01*
X187046543Y-79304899D01*
X186936433Y-79039070D01*
X186880300Y-78756868D01*
X186880300Y-78469132D01*
X186936433Y-78186930D01*
X187046543Y-77921101D01*
X187046544Y-77921099D01*
X187206400Y-77681858D01*
X187409858Y-77478400D01*
X187649099Y-77318544D01*
X187649101Y-77318543D01*
X187914930Y-77208433D01*
X188197132Y-77152300D01*
X188484868Y-77152300D01*
X188767070Y-77208433D01*
X188767070Y-77208433D01*
G37*
G36*
X185338070Y-77208433D02*
G01*
X185603899Y-77318543D01*
X185603901Y-77318544D01*
X185843142Y-77478400D01*
X186046600Y-77681858D01*
X186206456Y-77921099D01*
X186206457Y-77921101D01*
X186316567Y-78186930D01*
X186372700Y-78469132D01*
X186372700Y-78756868D01*
X186316567Y-79039070D01*
X186206457Y-79304899D01*
X186206456Y-79304901D01*
X186046600Y-79544142D01*
X185843142Y-79747600D01*
X185603901Y-79907456D01*
X185603900Y-79907457D01*
X185603899Y-79907457D01*
X185338070Y-80017567D01*
X185055868Y-80073700D01*
X184768132Y-80073700D01*
X184485930Y-80017567D01*
X184220101Y-79907457D01*
X184220100Y-79907457D01*
X184220099Y-79907456D01*
X183980858Y-79747600D01*
X183777400Y-79544142D01*
X183617544Y-79304901D01*
X183617543Y-79304899D01*
X183507433Y-79039070D01*
X183451300Y-78756868D01*
X183451300Y-78469132D01*
X183507433Y-78186930D01*
X183617543Y-77921101D01*
X183617544Y-77921099D01*
X183777400Y-77681858D01*
X183980858Y-77478400D01*
X184220099Y-77318544D01*
X184220101Y-77318543D01*
X184485930Y-77208433D01*
X184768132Y-77152300D01*
X185055868Y-77152300D01*
X185338070Y-77208433D01*
X185338070Y-77208433D01*
G37*
G36*
X147111070Y-77081433D02*
G01*
X147376899Y-77191543D01*
X147376901Y-77191544D01*
X147616142Y-77351400D01*
X147819600Y-77554858D01*
X147904460Y-77681860D01*
X147979457Y-77794101D01*
X148089567Y-78059930D01*
X148145700Y-78342132D01*
X148145700Y-78629868D01*
X148089567Y-78912070D01*
X148036961Y-79039071D01*
X147979456Y-79177901D01*
X147819600Y-79417142D01*
X147616142Y-79620600D01*
X147376901Y-79780456D01*
X147376900Y-79780457D01*
X147376899Y-79780457D01*
X147111070Y-79890567D01*
X146828868Y-79946700D01*
X146541132Y-79946700D01*
X146258930Y-79890567D01*
X145993101Y-79780457D01*
X145993100Y-79780457D01*
X145993099Y-79780456D01*
X145753858Y-79620600D01*
X145550400Y-79417142D01*
X145390544Y-79177901D01*
X145333039Y-79039071D01*
X145280433Y-78912070D01*
X145224300Y-78629868D01*
X145224300Y-78342132D01*
X145280433Y-78059930D01*
X145390543Y-77794101D01*
X145465540Y-77681860D01*
X145550400Y-77554858D01*
X145753858Y-77351400D01*
X145993099Y-77191544D01*
X145993101Y-77191543D01*
X146258930Y-77081433D01*
X146541132Y-77025300D01*
X146828868Y-77025300D01*
X147111070Y-77081433D01*
X147111070Y-77081433D01*
G37*
G36*
X150540070Y-77081433D02*
G01*
X150805899Y-77191543D01*
X150805901Y-77191544D01*
X151045142Y-77351400D01*
X151248600Y-77554858D01*
X151333460Y-77681860D01*
X151408457Y-77794101D01*
X151518567Y-78059930D01*
X151574700Y-78342132D01*
X151574700Y-78629868D01*
X151518567Y-78912070D01*
X151465961Y-79039071D01*
X151408456Y-79177901D01*
X151248600Y-79417142D01*
X151045142Y-79620600D01*
X150805901Y-79780456D01*
X150805900Y-79780457D01*
X150805899Y-79780457D01*
X150540070Y-79890567D01*
X150257868Y-79946700D01*
X149970132Y-79946700D01*
X149687930Y-79890567D01*
X149422101Y-79780457D01*
X149422100Y-79780457D01*
X149422099Y-79780456D01*
X149182858Y-79620600D01*
X148979400Y-79417142D01*
X148819544Y-79177901D01*
X148762039Y-79039071D01*
X148709433Y-78912070D01*
X148653300Y-78629868D01*
X148653300Y-78342132D01*
X148709433Y-78059930D01*
X148819543Y-77794101D01*
X148894540Y-77681860D01*
X148979400Y-77554858D01*
X149182858Y-77351400D01*
X149422099Y-77191544D01*
X149422101Y-77191543D01*
X149687930Y-77081433D01*
X149970132Y-77025300D01*
X150257868Y-77025300D01*
X150540070Y-77081433D01*
X150540070Y-77081433D01*
G37*
G36*
X165481000Y-79756000D02*
G01*
X162179000Y-79756000D01*
X162179000Y-76454000D01*
X165481000Y-76454000D01*
X165481000Y-79756000D01*
X165481000Y-79756000D01*
G37*
G36*
X172466000Y-79756000D02*
G01*
X169164000Y-79756000D01*
X169164000Y-76454000D01*
X172466000Y-76454000D01*
X172466000Y-79756000D01*
X172466000Y-79756000D01*
G37*
G36*
X174206000Y-70701000D02*
G01*
X172504000Y-70701000D01*
X172504000Y-68999000D01*
X174206000Y-68999000D01*
X174206000Y-70701000D01*
X174206000Y-70701000D01*
G37*
G36*
X162141000Y-70701000D02*
G01*
X160439000Y-70701000D01*
X160439000Y-68999000D01*
X162141000Y-68999000D01*
X162141000Y-70701000D01*
X162141000Y-70701000D01*
G37*
G36*
X173603228Y-66531703D02*
G01*
X173758100Y-66595853D01*
X173897481Y-66688985D01*
X174016015Y-66807519D01*
X174109147Y-66946900D01*
X174173297Y-67101772D01*
X174206000Y-67266184D01*
X174206000Y-67433816D01*
X174173297Y-67598228D01*
X174109147Y-67753100D01*
X174016015Y-67892481D01*
X173897481Y-68011015D01*
X173758100Y-68104147D01*
X173603228Y-68168297D01*
X173438816Y-68201000D01*
X173271184Y-68201000D01*
X173106772Y-68168297D01*
X172951900Y-68104147D01*
X172812519Y-68011015D01*
X172693985Y-67892481D01*
X172600853Y-67753100D01*
X172536703Y-67598228D01*
X172504000Y-67433816D01*
X172504000Y-67266184D01*
X172536703Y-67101772D01*
X172600853Y-66946900D01*
X172693985Y-66807519D01*
X172812519Y-66688985D01*
X172951900Y-66595853D01*
X173106772Y-66531703D01*
X173271184Y-66499000D01*
X173438816Y-66499000D01*
X173603228Y-66531703D01*
X173603228Y-66531703D01*
G37*
G36*
X161538228Y-66531703D02*
G01*
X161693100Y-66595853D01*
X161832481Y-66688985D01*
X161951015Y-66807519D01*
X162044147Y-66946900D01*
X162108297Y-67101772D01*
X162141000Y-67266184D01*
X162141000Y-67433816D01*
X162108297Y-67598228D01*
X162044147Y-67753100D01*
X161951015Y-67892481D01*
X161832481Y-68011015D01*
X161693100Y-68104147D01*
X161538228Y-68168297D01*
X161373816Y-68201000D01*
X161206184Y-68201000D01*
X161041772Y-68168297D01*
X160886900Y-68104147D01*
X160747519Y-68011015D01*
X160628985Y-67892481D01*
X160535853Y-67753100D01*
X160471703Y-67598228D01*
X160439000Y-67433816D01*
X160439000Y-67266184D01*
X160471703Y-67101772D01*
X160535853Y-66946900D01*
X160628985Y-66807519D01*
X160747519Y-66688985D01*
X160886900Y-66595853D01*
X161041772Y-66531703D01*
X161206184Y-66499000D01*
X161373816Y-66499000D01*
X161538228Y-66531703D01*
X161538228Y-66531703D01*
G37*
G36*
X115269908Y-63007380D02*
G01*
X115436767Y-63040570D01*
X115908299Y-63235885D01*
X116151029Y-63398073D01*
X116332666Y-63519438D01*
X116693562Y-63880334D01*
X116784477Y-64016399D01*
X116977115Y-64304701D01*
X117172430Y-64776233D01*
X117172430Y-64776234D01*
X117250331Y-65167868D01*
X117272000Y-65276809D01*
X117272000Y-65787191D01*
X117172430Y-66287767D01*
X116977115Y-66759299D01*
X116814927Y-67002029D01*
X116693562Y-67183666D01*
X116332666Y-67544562D01*
X116151029Y-67665927D01*
X115908299Y-67828115D01*
X115436767Y-68023430D01*
X115269908Y-68056620D01*
X114936193Y-68123000D01*
X114425807Y-68123000D01*
X114092092Y-68056620D01*
X113925233Y-68023430D01*
X113453701Y-67828115D01*
X113210971Y-67665927D01*
X113029334Y-67544562D01*
X112668438Y-67183666D01*
X112547073Y-67002029D01*
X112384885Y-66759299D01*
X112189570Y-66287767D01*
X112090000Y-65787191D01*
X112090000Y-65276809D01*
X112111670Y-65167868D01*
X112189570Y-64776234D01*
X112189570Y-64776233D01*
X112384885Y-64304701D01*
X112577523Y-64016399D01*
X112668438Y-63880334D01*
X113029334Y-63519438D01*
X113210971Y-63398073D01*
X113453701Y-63235885D01*
X113925233Y-63040570D01*
X114092092Y-63007380D01*
X114425807Y-62941000D01*
X114936193Y-62941000D01*
X115269908Y-63007380D01*
X115269908Y-63007380D01*
G37*
G36*
X123143908Y-63007380D02*
G01*
X123310767Y-63040570D01*
X123782299Y-63235885D01*
X124025029Y-63398073D01*
X124206666Y-63519438D01*
X124567562Y-63880334D01*
X124658477Y-64016399D01*
X124851115Y-64304701D01*
X125046430Y-64776233D01*
X125046430Y-64776234D01*
X125124331Y-65167868D01*
X125146000Y-65276809D01*
X125146000Y-65787191D01*
X125046430Y-66287767D01*
X124851115Y-66759299D01*
X124688927Y-67002029D01*
X124567562Y-67183666D01*
X124206666Y-67544562D01*
X124025029Y-67665927D01*
X123782299Y-67828115D01*
X123310767Y-68023430D01*
X123143908Y-68056620D01*
X122810193Y-68123000D01*
X122299807Y-68123000D01*
X121966092Y-68056620D01*
X121799233Y-68023430D01*
X121327701Y-67828115D01*
X121084971Y-67665927D01*
X120903334Y-67544562D01*
X120542438Y-67183666D01*
X120421073Y-67002029D01*
X120258885Y-66759299D01*
X120063570Y-66287767D01*
X119964000Y-65787191D01*
X119964000Y-65276809D01*
X119985670Y-65167868D01*
X120063570Y-64776234D01*
X120063570Y-64776233D01*
X120258885Y-64304701D01*
X120451523Y-64016399D01*
X120542438Y-63880334D01*
X120903334Y-63519438D01*
X121084971Y-63398073D01*
X121327701Y-63235885D01*
X121799233Y-63040570D01*
X121966092Y-63007380D01*
X122299807Y-62941000D01*
X122810193Y-62941000D01*
X123143908Y-63007380D01*
X123143908Y-63007380D01*
G37*
G36*
X234612357Y-63910087D02*
G01*
X234759593Y-63939374D01*
X235036979Y-64054271D01*
X235286621Y-64221077D01*
X235498923Y-64433379D01*
X235665729Y-64683021D01*
X235780626Y-64960407D01*
X235809913Y-65107643D01*
X235821893Y-65167868D01*
X235839200Y-65254879D01*
X235839200Y-65555121D01*
X235780626Y-65849593D01*
X235665729Y-66126979D01*
X235498923Y-66376621D01*
X235286621Y-66588923D01*
X235036979Y-66755729D01*
X234759593Y-66870626D01*
X234612357Y-66899913D01*
X234465122Y-66929200D01*
X234164878Y-66929200D01*
X234017643Y-66899913D01*
X233870407Y-66870626D01*
X233593021Y-66755729D01*
X233343379Y-66588923D01*
X233131077Y-66376621D01*
X232964271Y-66126979D01*
X232849374Y-65849593D01*
X232790800Y-65555121D01*
X232790800Y-65254879D01*
X232808108Y-65167868D01*
X232820087Y-65107643D01*
X232849374Y-64960407D01*
X232964271Y-64683021D01*
X233131077Y-64433379D01*
X233343379Y-64221077D01*
X233593021Y-64054271D01*
X233870407Y-63939374D01*
X234017643Y-63910087D01*
X234164878Y-63880800D01*
X234465122Y-63880800D01*
X234612357Y-63910087D01*
X234612357Y-63910087D01*
G37*
G36*
X185338070Y-63746433D02*
G01*
X185603899Y-63856543D01*
X185603901Y-63856544D01*
X185843142Y-64016400D01*
X186046600Y-64219858D01*
X186189270Y-64433379D01*
X186206457Y-64459101D01*
X186316567Y-64724930D01*
X186372700Y-65007132D01*
X186372700Y-65294868D01*
X186316567Y-65577070D01*
X186259062Y-65715899D01*
X186206456Y-65842901D01*
X186046600Y-66082142D01*
X185843142Y-66285600D01*
X185603901Y-66445456D01*
X185603900Y-66445457D01*
X185603899Y-66445457D01*
X185338070Y-66555567D01*
X185055868Y-66611700D01*
X184768132Y-66611700D01*
X184485930Y-66555567D01*
X184220101Y-66445457D01*
X184220100Y-66445457D01*
X184220099Y-66445456D01*
X183980858Y-66285600D01*
X183777400Y-66082142D01*
X183617544Y-65842901D01*
X183564938Y-65715899D01*
X183507433Y-65577070D01*
X183451300Y-65294868D01*
X183451300Y-65007132D01*
X183507433Y-64724930D01*
X183617543Y-64459101D01*
X183634730Y-64433379D01*
X183777400Y-64219858D01*
X183980858Y-64016400D01*
X184220099Y-63856544D01*
X184220101Y-63856543D01*
X184485930Y-63746433D01*
X184768132Y-63690300D01*
X185055868Y-63690300D01*
X185338070Y-63746433D01*
X185338070Y-63746433D01*
G37*
G36*
X188767070Y-63746433D02*
G01*
X189032899Y-63856543D01*
X189032901Y-63856544D01*
X189272142Y-64016400D01*
X189475600Y-64219858D01*
X189618270Y-64433379D01*
X189635457Y-64459101D01*
X189745567Y-64724930D01*
X189801700Y-65007132D01*
X189801700Y-65294868D01*
X189745567Y-65577070D01*
X189688062Y-65715899D01*
X189635456Y-65842901D01*
X189475600Y-66082142D01*
X189272142Y-66285600D01*
X189032901Y-66445456D01*
X189032900Y-66445457D01*
X189032899Y-66445457D01*
X188767070Y-66555567D01*
X188484868Y-66611700D01*
X188197132Y-66611700D01*
X187914930Y-66555567D01*
X187649101Y-66445457D01*
X187649100Y-66445457D01*
X187649099Y-66445456D01*
X187409858Y-66285600D01*
X187206400Y-66082142D01*
X187046544Y-65842901D01*
X186993938Y-65715899D01*
X186936433Y-65577070D01*
X186880300Y-65294868D01*
X186880300Y-65007132D01*
X186936433Y-64724930D01*
X187046543Y-64459101D01*
X187063730Y-64433379D01*
X187206400Y-64219858D01*
X187409858Y-64016400D01*
X187649099Y-63856544D01*
X187649101Y-63856543D01*
X187914930Y-63746433D01*
X188197132Y-63690300D01*
X188484868Y-63690300D01*
X188767070Y-63746433D01*
X188767070Y-63746433D01*
G37*
G36*
X147111070Y-63619433D02*
G01*
X147376899Y-63729543D01*
X147376901Y-63729544D01*
X147616142Y-63889400D01*
X147819600Y-64092858D01*
X147979456Y-64332099D01*
X147979457Y-64332101D01*
X148089567Y-64597930D01*
X148145700Y-64880132D01*
X148145700Y-65167868D01*
X148089567Y-65450070D01*
X148036961Y-65577071D01*
X147979456Y-65715901D01*
X147819600Y-65955142D01*
X147616142Y-66158600D01*
X147376901Y-66318456D01*
X147376900Y-66318457D01*
X147376899Y-66318457D01*
X147111070Y-66428567D01*
X146828868Y-66484700D01*
X146541132Y-66484700D01*
X146258930Y-66428567D01*
X145993101Y-66318457D01*
X145993100Y-66318457D01*
X145993099Y-66318456D01*
X145753858Y-66158600D01*
X145550400Y-65955142D01*
X145390544Y-65715901D01*
X145333039Y-65577071D01*
X145280433Y-65450070D01*
X145224300Y-65167868D01*
X145224300Y-64880132D01*
X145280433Y-64597930D01*
X145390543Y-64332101D01*
X145390544Y-64332099D01*
X145550400Y-64092858D01*
X145753858Y-63889400D01*
X145993099Y-63729544D01*
X145993101Y-63729543D01*
X146258930Y-63619433D01*
X146541132Y-63563300D01*
X146828868Y-63563300D01*
X147111070Y-63619433D01*
X147111070Y-63619433D01*
G37*
G36*
X150540070Y-63619433D02*
G01*
X150805899Y-63729543D01*
X150805901Y-63729544D01*
X151045142Y-63889400D01*
X151248600Y-64092858D01*
X151408456Y-64332099D01*
X151408457Y-64332101D01*
X151518567Y-64597930D01*
X151574700Y-64880132D01*
X151574700Y-65167868D01*
X151518567Y-65450070D01*
X151465961Y-65577071D01*
X151408456Y-65715901D01*
X151248600Y-65955142D01*
X151045142Y-66158600D01*
X150805901Y-66318456D01*
X150805900Y-66318457D01*
X150805899Y-66318457D01*
X150540070Y-66428567D01*
X150257868Y-66484700D01*
X149970132Y-66484700D01*
X149687930Y-66428567D01*
X149422101Y-66318457D01*
X149422100Y-66318457D01*
X149422099Y-66318456D01*
X149182858Y-66158600D01*
X148979400Y-65955142D01*
X148819544Y-65715901D01*
X148762039Y-65577071D01*
X148709433Y-65450070D01*
X148653300Y-65167868D01*
X148653300Y-64880132D01*
X148709433Y-64597930D01*
X148819543Y-64332101D01*
X148819544Y-64332099D01*
X148979400Y-64092858D01*
X149182858Y-63889400D01*
X149422099Y-63729544D01*
X149422101Y-63729543D01*
X149687930Y-63619433D01*
X149970132Y-63563300D01*
X150257868Y-63563300D01*
X150540070Y-63619433D01*
X150540070Y-63619433D01*
G37*
G36*
X176132142Y-61448242D02*
G01*
X176280101Y-61509529D01*
X176413255Y-61598499D01*
X176526501Y-61711745D01*
X176615471Y-61844899D01*
X176676758Y-61992858D01*
X176708000Y-62149925D01*
X176708000Y-62310075D01*
X176676758Y-62467142D01*
X176615471Y-62615101D01*
X176526501Y-62748255D01*
X176413255Y-62861501D01*
X176280101Y-62950471D01*
X176132142Y-63011758D01*
X175975075Y-63043000D01*
X175814925Y-63043000D01*
X175657858Y-63011758D01*
X175509899Y-62950471D01*
X175376745Y-62861501D01*
X175263499Y-62748255D01*
X175174529Y-62615101D01*
X175113242Y-62467142D01*
X175082000Y-62310075D01*
X175082000Y-62149925D01*
X175113242Y-61992858D01*
X175174529Y-61844899D01*
X175263499Y-61711745D01*
X175376745Y-61598499D01*
X175509899Y-61509529D01*
X175657858Y-61448242D01*
X175814925Y-61417000D01*
X175975075Y-61417000D01*
X176132142Y-61448242D01*
X176132142Y-61448242D01*
G37*
G36*
X158987142Y-61448242D02*
G01*
X159135101Y-61509529D01*
X159268255Y-61598499D01*
X159381501Y-61711745D01*
X159470471Y-61844899D01*
X159531758Y-61992858D01*
X159563000Y-62149925D01*
X159563000Y-62310075D01*
X159531758Y-62467142D01*
X159470471Y-62615101D01*
X159381501Y-62748255D01*
X159268255Y-62861501D01*
X159135101Y-62950471D01*
X158987142Y-63011758D01*
X158830075Y-63043000D01*
X158669925Y-63043000D01*
X158512858Y-63011758D01*
X158364899Y-62950471D01*
X158231745Y-62861501D01*
X158118499Y-62748255D01*
X158029529Y-62615101D01*
X157968242Y-62467142D01*
X157937000Y-62310075D01*
X157937000Y-62149925D01*
X157968242Y-61992858D01*
X158029529Y-61844899D01*
X158118499Y-61711745D01*
X158231745Y-61598499D01*
X158364899Y-61509529D01*
X158512858Y-61448242D01*
X158669925Y-61417000D01*
X158830075Y-61417000D01*
X158987142Y-61448242D01*
X158987142Y-61448242D01*
G37*
G36*
X173592142Y-61448242D02*
G01*
X173740101Y-61509529D01*
X173873255Y-61598499D01*
X173986501Y-61711745D01*
X174075471Y-61844899D01*
X174136758Y-61992858D01*
X174168000Y-62149925D01*
X174168000Y-62310075D01*
X174136758Y-62467142D01*
X174075471Y-62615101D01*
X173986501Y-62748255D01*
X173873255Y-62861501D01*
X173740101Y-62950471D01*
X173592142Y-63011758D01*
X173435075Y-63043000D01*
X173274925Y-63043000D01*
X173117858Y-63011758D01*
X172969899Y-62950471D01*
X172836745Y-62861501D01*
X172723499Y-62748255D01*
X172634529Y-62615101D01*
X172573242Y-62467142D01*
X172542000Y-62310075D01*
X172542000Y-62149925D01*
X172573242Y-61992858D01*
X172634529Y-61844899D01*
X172723499Y-61711745D01*
X172836745Y-61598499D01*
X172969899Y-61509529D01*
X173117858Y-61448242D01*
X173274925Y-61417000D01*
X173435075Y-61417000D01*
X173592142Y-61448242D01*
X173592142Y-61448242D01*
G37*
G36*
X161527142Y-61448242D02*
G01*
X161675101Y-61509529D01*
X161808255Y-61598499D01*
X161921501Y-61711745D01*
X162010471Y-61844899D01*
X162071758Y-61992858D01*
X162103000Y-62149925D01*
X162103000Y-62310075D01*
X162071758Y-62467142D01*
X162010471Y-62615101D01*
X161921501Y-62748255D01*
X161808255Y-62861501D01*
X161675101Y-62950471D01*
X161527142Y-63011758D01*
X161370075Y-63043000D01*
X161209925Y-63043000D01*
X161052858Y-63011758D01*
X160904899Y-62950471D01*
X160771745Y-62861501D01*
X160658499Y-62748255D01*
X160569529Y-62615101D01*
X160508242Y-62467142D01*
X160477000Y-62310075D01*
X160477000Y-62149925D01*
X160508242Y-61992858D01*
X160569529Y-61844899D01*
X160658499Y-61711745D01*
X160771745Y-61598499D01*
X160904899Y-61509529D01*
X161052858Y-61448242D01*
X161209925Y-61417000D01*
X161370075Y-61417000D01*
X161527142Y-61448242D01*
X161527142Y-61448242D01*
G37*
G36*
X171052142Y-61448242D02*
G01*
X171200101Y-61509529D01*
X171333255Y-61598499D01*
X171446501Y-61711745D01*
X171535471Y-61844899D01*
X171596758Y-61992858D01*
X171628000Y-62149925D01*
X171628000Y-62310075D01*
X171596758Y-62467142D01*
X171535471Y-62615101D01*
X171446501Y-62748255D01*
X171333255Y-62861501D01*
X171200101Y-62950471D01*
X171052142Y-63011758D01*
X170895075Y-63043000D01*
X170734925Y-63043000D01*
X170577858Y-63011758D01*
X170429899Y-62950471D01*
X170296745Y-62861501D01*
X170183499Y-62748255D01*
X170094529Y-62615101D01*
X170033242Y-62467142D01*
X170002000Y-62310075D01*
X170002000Y-62149925D01*
X170033242Y-61992858D01*
X170094529Y-61844899D01*
X170183499Y-61711745D01*
X170296745Y-61598499D01*
X170429899Y-61509529D01*
X170577858Y-61448242D01*
X170734925Y-61417000D01*
X170895075Y-61417000D01*
X171052142Y-61448242D01*
X171052142Y-61448242D01*
G37*
G36*
X164067142Y-61448242D02*
G01*
X164215101Y-61509529D01*
X164348255Y-61598499D01*
X164461501Y-61711745D01*
X164550471Y-61844899D01*
X164611758Y-61992858D01*
X164643000Y-62149925D01*
X164643000Y-62310075D01*
X164611758Y-62467142D01*
X164550471Y-62615101D01*
X164461501Y-62748255D01*
X164348255Y-62861501D01*
X164215101Y-62950471D01*
X164067142Y-63011758D01*
X163910075Y-63043000D01*
X163749925Y-63043000D01*
X163592858Y-63011758D01*
X163444899Y-62950471D01*
X163311745Y-62861501D01*
X163198499Y-62748255D01*
X163109529Y-62615101D01*
X163048242Y-62467142D01*
X163017000Y-62310075D01*
X163017000Y-62149925D01*
X163048242Y-61992858D01*
X163109529Y-61844899D01*
X163198499Y-61711745D01*
X163311745Y-61598499D01*
X163444899Y-61509529D01*
X163592858Y-61448242D01*
X163749925Y-61417000D01*
X163910075Y-61417000D01*
X164067142Y-61448242D01*
X164067142Y-61448242D01*
G37*
G36*
X220933908Y-54625380D02*
G01*
X221100767Y-54658570D01*
X221572299Y-54853885D01*
X221815029Y-55016073D01*
X221996666Y-55137438D01*
X222357562Y-55498334D01*
X222478927Y-55679971D01*
X222641115Y-55922701D01*
X222836430Y-56394233D01*
X222836430Y-56394234D01*
X222936000Y-56894807D01*
X222936000Y-57405193D01*
X222919940Y-57485930D01*
X222836430Y-57905767D01*
X222641115Y-58377299D01*
X222558641Y-58500729D01*
X222357562Y-58801666D01*
X221996666Y-59162562D01*
X221815029Y-59283927D01*
X221572299Y-59446115D01*
X221100767Y-59641430D01*
X220933908Y-59674620D01*
X220600193Y-59741000D01*
X220089807Y-59741000D01*
X219756092Y-59674620D01*
X219589233Y-59641430D01*
X219117701Y-59446115D01*
X218874971Y-59283927D01*
X218693334Y-59162562D01*
X218332438Y-58801666D01*
X218131359Y-58500729D01*
X218048885Y-58377299D01*
X217853570Y-57905767D01*
X217770060Y-57485930D01*
X217754000Y-57405193D01*
X217754000Y-56894807D01*
X217853570Y-56394234D01*
X217853570Y-56394233D01*
X218048885Y-55922701D01*
X218211073Y-55679971D01*
X218332438Y-55498334D01*
X218693334Y-55137438D01*
X218874971Y-55016073D01*
X219117701Y-54853885D01*
X219589233Y-54658570D01*
X219756092Y-54625380D01*
X220089807Y-54559000D01*
X220600193Y-54559000D01*
X220933908Y-54625380D01*
X220933908Y-54625380D01*
G37*
G36*
X213059908Y-54625380D02*
G01*
X213226767Y-54658570D01*
X213698299Y-54853885D01*
X213941029Y-55016073D01*
X214122666Y-55137438D01*
X214483562Y-55498334D01*
X214604927Y-55679971D01*
X214767115Y-55922701D01*
X214962430Y-56394233D01*
X214962430Y-56394234D01*
X215062000Y-56894807D01*
X215062000Y-57405193D01*
X215045940Y-57485930D01*
X214962430Y-57905767D01*
X214767115Y-58377299D01*
X214684641Y-58500729D01*
X214483562Y-58801666D01*
X214122666Y-59162562D01*
X213941029Y-59283927D01*
X213698299Y-59446115D01*
X213226767Y-59641430D01*
X213059908Y-59674620D01*
X212726193Y-59741000D01*
X212215807Y-59741000D01*
X211882092Y-59674620D01*
X211715233Y-59641430D01*
X211243701Y-59446115D01*
X211000971Y-59283927D01*
X210819334Y-59162562D01*
X210458438Y-58801666D01*
X210257359Y-58500729D01*
X210174885Y-58377299D01*
X209979570Y-57905767D01*
X209896060Y-57485930D01*
X209880000Y-57405193D01*
X209880000Y-56894807D01*
X209979570Y-56394234D01*
X209979570Y-56394233D01*
X210174885Y-55922701D01*
X210337073Y-55679971D01*
X210458438Y-55498334D01*
X210819334Y-55137438D01*
X211000971Y-55016073D01*
X211243701Y-54853885D01*
X211715233Y-54658570D01*
X211882092Y-54625380D01*
X212215807Y-54559000D01*
X212726193Y-54559000D01*
X213059908Y-54625380D01*
X213059908Y-54625380D01*
G37*
G36*
X147111070Y-56507433D02*
G01*
X147376899Y-56617543D01*
X147376901Y-56617544D01*
X147616142Y-56777400D01*
X147819600Y-56980858D01*
X147832309Y-56999879D01*
X147979457Y-57220101D01*
X148089567Y-57485930D01*
X148145700Y-57768132D01*
X148145700Y-58055868D01*
X148089567Y-58338070D01*
X148022191Y-58500729D01*
X147979456Y-58603901D01*
X147819600Y-58843142D01*
X147616142Y-59046600D01*
X147376901Y-59206456D01*
X147376900Y-59206457D01*
X147376899Y-59206457D01*
X147111070Y-59316567D01*
X146828868Y-59372700D01*
X146541132Y-59372700D01*
X146258930Y-59316567D01*
X145993101Y-59206457D01*
X145993100Y-59206457D01*
X145993099Y-59206456D01*
X145753858Y-59046600D01*
X145550400Y-58843142D01*
X145390544Y-58603901D01*
X145347809Y-58500729D01*
X145280433Y-58338070D01*
X145224300Y-58055868D01*
X145224300Y-57768132D01*
X145280433Y-57485930D01*
X145390543Y-57220101D01*
X145537691Y-56999879D01*
X145550400Y-56980858D01*
X145753858Y-56777400D01*
X145993099Y-56617544D01*
X145993101Y-56617543D01*
X146258930Y-56507433D01*
X146541132Y-56451300D01*
X146828868Y-56451300D01*
X147111070Y-56507433D01*
X147111070Y-56507433D01*
G37*
G36*
X150540070Y-56507433D02*
G01*
X150805899Y-56617543D01*
X150805901Y-56617544D01*
X151045142Y-56777400D01*
X151248600Y-56980858D01*
X151261309Y-56999879D01*
X151408457Y-57220101D01*
X151518567Y-57485930D01*
X151574700Y-57768132D01*
X151574700Y-58055868D01*
X151518567Y-58338070D01*
X151451191Y-58500729D01*
X151408456Y-58603901D01*
X151248600Y-58843142D01*
X151045142Y-59046600D01*
X150805901Y-59206456D01*
X150805900Y-59206457D01*
X150805899Y-59206457D01*
X150540070Y-59316567D01*
X150257868Y-59372700D01*
X149970132Y-59372700D01*
X149687930Y-59316567D01*
X149422101Y-59206457D01*
X149422100Y-59206457D01*
X149422099Y-59206456D01*
X149182858Y-59046600D01*
X148979400Y-58843142D01*
X148819544Y-58603901D01*
X148776809Y-58500729D01*
X148709433Y-58338070D01*
X148653300Y-58055868D01*
X148653300Y-57768132D01*
X148709433Y-57485930D01*
X148819543Y-57220101D01*
X148966691Y-56999879D01*
X148979400Y-56980858D01*
X149182858Y-56777400D01*
X149422099Y-56617544D01*
X149422101Y-56617543D01*
X149687930Y-56507433D01*
X149970132Y-56451300D01*
X150257868Y-56451300D01*
X150540070Y-56507433D01*
X150540070Y-56507433D01*
G37*
G36*
X188767070Y-56507433D02*
G01*
X189032899Y-56617543D01*
X189032901Y-56617544D01*
X189272142Y-56777400D01*
X189475600Y-56980858D01*
X189488309Y-56999879D01*
X189635457Y-57220101D01*
X189745567Y-57485930D01*
X189801700Y-57768132D01*
X189801700Y-58055868D01*
X189745567Y-58338070D01*
X189678191Y-58500729D01*
X189635456Y-58603901D01*
X189475600Y-58843142D01*
X189272142Y-59046600D01*
X189032901Y-59206456D01*
X189032900Y-59206457D01*
X189032899Y-59206457D01*
X188767070Y-59316567D01*
X188484868Y-59372700D01*
X188197132Y-59372700D01*
X187914930Y-59316567D01*
X187649101Y-59206457D01*
X187649100Y-59206457D01*
X187649099Y-59206456D01*
X187409858Y-59046600D01*
X187206400Y-58843142D01*
X187046544Y-58603901D01*
X187003809Y-58500729D01*
X186936433Y-58338070D01*
X186880300Y-58055868D01*
X186880300Y-57768132D01*
X186936433Y-57485930D01*
X187046543Y-57220101D01*
X187193691Y-56999879D01*
X187206400Y-56980858D01*
X187409858Y-56777400D01*
X187649099Y-56617544D01*
X187649101Y-56617543D01*
X187914930Y-56507433D01*
X188197132Y-56451300D01*
X188484868Y-56451300D01*
X188767070Y-56507433D01*
X188767070Y-56507433D01*
G37*
G36*
X185338070Y-56507433D02*
G01*
X185603899Y-56617543D01*
X185603901Y-56617544D01*
X185843142Y-56777400D01*
X186046600Y-56980858D01*
X186059309Y-56999879D01*
X186206457Y-57220101D01*
X186316567Y-57485930D01*
X186372700Y-57768132D01*
X186372700Y-58055868D01*
X186316567Y-58338070D01*
X186249191Y-58500729D01*
X186206456Y-58603901D01*
X186046600Y-58843142D01*
X185843142Y-59046600D01*
X185603901Y-59206456D01*
X185603900Y-59206457D01*
X185603899Y-59206457D01*
X185338070Y-59316567D01*
X185055868Y-59372700D01*
X184768132Y-59372700D01*
X184485930Y-59316567D01*
X184220101Y-59206457D01*
X184220100Y-59206457D01*
X184220099Y-59206456D01*
X183980858Y-59046600D01*
X183777400Y-58843142D01*
X183617544Y-58603901D01*
X183574809Y-58500729D01*
X183507433Y-58338070D01*
X183451300Y-58055868D01*
X183451300Y-57768132D01*
X183507433Y-57485930D01*
X183617543Y-57220101D01*
X183764691Y-56999879D01*
X183777400Y-56980858D01*
X183980858Y-56777400D01*
X184220099Y-56617544D01*
X184220101Y-56617543D01*
X184485930Y-56507433D01*
X184768132Y-56451300D01*
X185055868Y-56451300D01*
X185338070Y-56507433D01*
X185338070Y-56507433D01*
G37*
G36*
X101262357Y-55655087D02*
G01*
X101409593Y-55684374D01*
X101686979Y-55799271D01*
X101853784Y-55910727D01*
X101871708Y-55922703D01*
X101936621Y-55966077D01*
X102148923Y-56178379D01*
X102315729Y-56428021D01*
X102394232Y-56617544D01*
X102430626Y-56705408D01*
X102485417Y-56980858D01*
X102489200Y-56999879D01*
X102489200Y-57300121D01*
X102430626Y-57594593D01*
X102315729Y-57871979D01*
X102204273Y-58038784D01*
X102148924Y-58121620D01*
X101936620Y-58333924D01*
X101853784Y-58389273D01*
X101686979Y-58500729D01*
X101409593Y-58615626D01*
X101262357Y-58644913D01*
X101115122Y-58674200D01*
X100814878Y-58674200D01*
X100667643Y-58644913D01*
X100520407Y-58615626D01*
X100243021Y-58500729D01*
X100076216Y-58389273D01*
X99993380Y-58333924D01*
X99781076Y-58121620D01*
X99725727Y-58038784D01*
X99614271Y-57871979D01*
X99499374Y-57594593D01*
X99440800Y-57300121D01*
X99440800Y-56999879D01*
X99444584Y-56980858D01*
X99499374Y-56705408D01*
X99535768Y-56617544D01*
X99614271Y-56428021D01*
X99781077Y-56178379D01*
X99993379Y-55966077D01*
X100058293Y-55922703D01*
X100076216Y-55910727D01*
X100243021Y-55799271D01*
X100520407Y-55684374D01*
X100667643Y-55655087D01*
X100814878Y-55625800D01*
X101115122Y-55625800D01*
X101262357Y-55655087D01*
X101262357Y-55655087D01*
G37*
G36*
X115269908Y-42687380D02*
G01*
X115436767Y-42720570D01*
X115908299Y-42915885D01*
X116102182Y-43045434D01*
X116332666Y-43199438D01*
X116693562Y-43560334D01*
X116814927Y-43741971D01*
X116977115Y-43984701D01*
X117172430Y-44456233D01*
X117172430Y-44456234D01*
X117255941Y-44876071D01*
X117272000Y-44956809D01*
X117272000Y-45467191D01*
X117172430Y-45967767D01*
X116977115Y-46439299D01*
X116814927Y-46682029D01*
X116693562Y-46863666D01*
X116332666Y-47224562D01*
X116151029Y-47345927D01*
X115908299Y-47508115D01*
X115436767Y-47703430D01*
X115269908Y-47736620D01*
X114936193Y-47803000D01*
X114425807Y-47803000D01*
X114092092Y-47736620D01*
X113925233Y-47703430D01*
X113453701Y-47508115D01*
X113210971Y-47345927D01*
X113029334Y-47224562D01*
X112668438Y-46863666D01*
X112547073Y-46682029D01*
X112384885Y-46439299D01*
X112189570Y-45967767D01*
X112090000Y-45467191D01*
X112090000Y-44956809D01*
X112106060Y-44876071D01*
X112189570Y-44456234D01*
X112189570Y-44456233D01*
X112384885Y-43984701D01*
X112547073Y-43741971D01*
X112668438Y-43560334D01*
X113029334Y-43199438D01*
X113259818Y-43045434D01*
X113453701Y-42915885D01*
X113925233Y-42720570D01*
X114092092Y-42687380D01*
X114425807Y-42621000D01*
X114936193Y-42621000D01*
X115269908Y-42687380D01*
X115269908Y-42687380D01*
G37*
G36*
X123143908Y-42687380D02*
G01*
X123310767Y-42720570D01*
X123782299Y-42915885D01*
X123976182Y-43045434D01*
X124206666Y-43199438D01*
X124567562Y-43560334D01*
X124688927Y-43741971D01*
X124851115Y-43984701D01*
X125046430Y-44456233D01*
X125046430Y-44456234D01*
X125129941Y-44876071D01*
X125146000Y-44956809D01*
X125146000Y-45467191D01*
X125046430Y-45967767D01*
X124851115Y-46439299D01*
X124688927Y-46682029D01*
X124567562Y-46863666D01*
X124206666Y-47224562D01*
X124025029Y-47345927D01*
X123782299Y-47508115D01*
X123310767Y-47703430D01*
X123143908Y-47736620D01*
X122810193Y-47803000D01*
X122299807Y-47803000D01*
X121966092Y-47736620D01*
X121799233Y-47703430D01*
X121327701Y-47508115D01*
X121084971Y-47345927D01*
X120903334Y-47224562D01*
X120542438Y-46863666D01*
X120421073Y-46682029D01*
X120258885Y-46439299D01*
X120063570Y-45967767D01*
X119964000Y-45467191D01*
X119964000Y-44956809D01*
X119980060Y-44876071D01*
X120063570Y-44456234D01*
X120063570Y-44456233D01*
X120258885Y-43984701D01*
X120421073Y-43741971D01*
X120542438Y-43560334D01*
X120903334Y-43199438D01*
X121133818Y-43045434D01*
X121327701Y-42915885D01*
X121799233Y-42720570D01*
X121966092Y-42687380D01*
X122299807Y-42621000D01*
X122810193Y-42621000D01*
X123143908Y-42687380D01*
X123143908Y-42687380D01*
G37*
G36*
X188767070Y-43045433D02*
G01*
X189032899Y-43155543D01*
X189032901Y-43155544D01*
X189272142Y-43315400D01*
X189475600Y-43518858D01*
X189475601Y-43518860D01*
X189635457Y-43758101D01*
X189745567Y-44023930D01*
X189801700Y-44306132D01*
X189801700Y-44593868D01*
X189745567Y-44876070D01*
X189635457Y-45141899D01*
X189635456Y-45141901D01*
X189475600Y-45381142D01*
X189272142Y-45584600D01*
X189032901Y-45744456D01*
X189032900Y-45744457D01*
X189032899Y-45744457D01*
X188767070Y-45854567D01*
X188484868Y-45910700D01*
X188197132Y-45910700D01*
X187914930Y-45854567D01*
X187649101Y-45744457D01*
X187649100Y-45744457D01*
X187649099Y-45744456D01*
X187409858Y-45584600D01*
X187206400Y-45381142D01*
X187046544Y-45141901D01*
X187046543Y-45141899D01*
X186936433Y-44876070D01*
X186880300Y-44593868D01*
X186880300Y-44306132D01*
X186936433Y-44023930D01*
X187046543Y-43758101D01*
X187206399Y-43518860D01*
X187206400Y-43518858D01*
X187409858Y-43315400D01*
X187649099Y-43155544D01*
X187649101Y-43155543D01*
X187914930Y-43045433D01*
X188197132Y-42989300D01*
X188484868Y-42989300D01*
X188767070Y-43045433D01*
X188767070Y-43045433D01*
G37*
G36*
X185338070Y-43045433D02*
G01*
X185603899Y-43155543D01*
X185603901Y-43155544D01*
X185843142Y-43315400D01*
X186046600Y-43518858D01*
X186046601Y-43518860D01*
X186206457Y-43758101D01*
X186316567Y-44023930D01*
X186372700Y-44306132D01*
X186372700Y-44593868D01*
X186316567Y-44876070D01*
X186206457Y-45141899D01*
X186206456Y-45141901D01*
X186046600Y-45381142D01*
X185843142Y-45584600D01*
X185603901Y-45744456D01*
X185603900Y-45744457D01*
X185603899Y-45744457D01*
X185338070Y-45854567D01*
X185055868Y-45910700D01*
X184768132Y-45910700D01*
X184485930Y-45854567D01*
X184220101Y-45744457D01*
X184220100Y-45744457D01*
X184220099Y-45744456D01*
X183980858Y-45584600D01*
X183777400Y-45381142D01*
X183617544Y-45141901D01*
X183617543Y-45141899D01*
X183507433Y-44876070D01*
X183451300Y-44593868D01*
X183451300Y-44306132D01*
X183507433Y-44023930D01*
X183617543Y-43758101D01*
X183777399Y-43518860D01*
X183777400Y-43518858D01*
X183980858Y-43315400D01*
X184220099Y-43155544D01*
X184220101Y-43155543D01*
X184485930Y-43045433D01*
X184768132Y-42989300D01*
X185055868Y-42989300D01*
X185338070Y-43045433D01*
X185338070Y-43045433D01*
G37*
G36*
X150540070Y-43045433D02*
G01*
X150805899Y-43155543D01*
X150805901Y-43155544D01*
X151045142Y-43315400D01*
X151248600Y-43518858D01*
X151248601Y-43518860D01*
X151408457Y-43758101D01*
X151518567Y-44023930D01*
X151574700Y-44306132D01*
X151574700Y-44593868D01*
X151518567Y-44876070D01*
X151408457Y-45141899D01*
X151408456Y-45141901D01*
X151248600Y-45381142D01*
X151045142Y-45584600D01*
X150805901Y-45744456D01*
X150805900Y-45744457D01*
X150805899Y-45744457D01*
X150540070Y-45854567D01*
X150257868Y-45910700D01*
X149970132Y-45910700D01*
X149687930Y-45854567D01*
X149422101Y-45744457D01*
X149422100Y-45744457D01*
X149422099Y-45744456D01*
X149182858Y-45584600D01*
X148979400Y-45381142D01*
X148819544Y-45141901D01*
X148819543Y-45141899D01*
X148709433Y-44876070D01*
X148653300Y-44593868D01*
X148653300Y-44306132D01*
X148709433Y-44023930D01*
X148819543Y-43758101D01*
X148979399Y-43518860D01*
X148979400Y-43518858D01*
X149182858Y-43315400D01*
X149422099Y-43155544D01*
X149422101Y-43155543D01*
X149687930Y-43045433D01*
X149970132Y-42989300D01*
X150257868Y-42989300D01*
X150540070Y-43045433D01*
X150540070Y-43045433D01*
G37*
G36*
X147111070Y-43045433D02*
G01*
X147376899Y-43155543D01*
X147376901Y-43155544D01*
X147616142Y-43315400D01*
X147819600Y-43518858D01*
X147819601Y-43518860D01*
X147979457Y-43758101D01*
X148089567Y-44023930D01*
X148145700Y-44306132D01*
X148145700Y-44593868D01*
X148089567Y-44876070D01*
X147979457Y-45141899D01*
X147979456Y-45141901D01*
X147819600Y-45381142D01*
X147616142Y-45584600D01*
X147376901Y-45744456D01*
X147376900Y-45744457D01*
X147376899Y-45744457D01*
X147111070Y-45854567D01*
X146828868Y-45910700D01*
X146541132Y-45910700D01*
X146258930Y-45854567D01*
X145993101Y-45744457D01*
X145993100Y-45744457D01*
X145993099Y-45744456D01*
X145753858Y-45584600D01*
X145550400Y-45381142D01*
X145390544Y-45141901D01*
X145390543Y-45141899D01*
X145280433Y-44876070D01*
X145224300Y-44593868D01*
X145224300Y-44306132D01*
X145280433Y-44023930D01*
X145390543Y-43758101D01*
X145550399Y-43518860D01*
X145550400Y-43518858D01*
X145753858Y-43315400D01*
X145993099Y-43155544D01*
X145993101Y-43155543D01*
X146258930Y-43045433D01*
X146541132Y-42989300D01*
X146828868Y-42989300D01*
X147111070Y-43045433D01*
X147111070Y-43045433D01*
G37*
G36*
X165951000Y-43396000D02*
G01*
X164249000Y-43396000D01*
X164249000Y-41694000D01*
X165951000Y-41694000D01*
X165951000Y-43396000D01*
X165951000Y-43396000D01*
G37*
G36*
X167848228Y-41726703D02*
G01*
X168003100Y-41790853D01*
X168142481Y-41883985D01*
X168261015Y-42002519D01*
X168354147Y-42141900D01*
X168418297Y-42296772D01*
X168451000Y-42461184D01*
X168451000Y-42628816D01*
X168418297Y-42793228D01*
X168354147Y-42948100D01*
X168261015Y-43087481D01*
X168142481Y-43206015D01*
X168003100Y-43299147D01*
X167848228Y-43363297D01*
X167683816Y-43396000D01*
X167516184Y-43396000D01*
X167351772Y-43363297D01*
X167196900Y-43299147D01*
X167057519Y-43206015D01*
X166938985Y-43087481D01*
X166845853Y-42948100D01*
X166781703Y-42793228D01*
X166749000Y-42628816D01*
X166749000Y-42461184D01*
X166781703Y-42296772D01*
X166845853Y-42141900D01*
X166938985Y-42002519D01*
X167057519Y-41883985D01*
X167196900Y-41790853D01*
X167351772Y-41726703D01*
X167516184Y-41694000D01*
X167683816Y-41694000D01*
X167848228Y-41726703D01*
X167848228Y-41726703D01*
G37*
G36*
X151886228Y-36606703D02*
G01*
X152041100Y-36670853D01*
X152180481Y-36763985D01*
X152299015Y-36882519D01*
X152392147Y-37021900D01*
X152456297Y-37176772D01*
X152489000Y-37341184D01*
X152489000Y-37508816D01*
X152456297Y-37673228D01*
X152392147Y-37828100D01*
X152299015Y-37967481D01*
X152180481Y-38086015D01*
X152041100Y-38179147D01*
X151886228Y-38243297D01*
X151721816Y-38276000D01*
X151554184Y-38276000D01*
X151389772Y-38243297D01*
X151234900Y-38179147D01*
X151095519Y-38086015D01*
X150976985Y-37967481D01*
X150883853Y-37828100D01*
X150819703Y-37673228D01*
X150787000Y-37508816D01*
X150787000Y-37341184D01*
X150819703Y-37176772D01*
X150883853Y-37021900D01*
X150976985Y-36882519D01*
X151095519Y-36763985D01*
X151234900Y-36670853D01*
X151389772Y-36606703D01*
X151554184Y-36574000D01*
X151721816Y-36574000D01*
X151886228Y-36606703D01*
X151886228Y-36606703D01*
G37*
G36*
X115701552Y-37021331D02*
G01*
X115783627Y-37055328D01*
X115783629Y-37055329D01*
X115820813Y-37080175D01*
X115857495Y-37104685D01*
X115920315Y-37167505D01*
X115969672Y-37241373D01*
X116003669Y-37323448D01*
X116021000Y-37410579D01*
X116021000Y-37499421D01*
X116003669Y-37586552D01*
X115969672Y-37668627D01*
X115969671Y-37668629D01*
X115920314Y-37742496D01*
X115857496Y-37805314D01*
X115783629Y-37854671D01*
X115783628Y-37854672D01*
X115783627Y-37854672D01*
X115701552Y-37888669D01*
X115614421Y-37906000D01*
X115525579Y-37906000D01*
X115438448Y-37888669D01*
X115356373Y-37854672D01*
X115356372Y-37854672D01*
X115356371Y-37854671D01*
X115282504Y-37805314D01*
X115219686Y-37742496D01*
X115170329Y-37668629D01*
X115170328Y-37668627D01*
X115136331Y-37586552D01*
X115119000Y-37499421D01*
X115119000Y-37410579D01*
X115136331Y-37323448D01*
X115170328Y-37241373D01*
X115219685Y-37167505D01*
X115282505Y-37104685D01*
X115319187Y-37080175D01*
X115356371Y-37055329D01*
X115356373Y-37055328D01*
X115438448Y-37021331D01*
X115525579Y-37004000D01*
X115614421Y-37004000D01*
X115701552Y-37021331D01*
X115701552Y-37021331D01*
G37*
G36*
X183011552Y-37021331D02*
G01*
X183093627Y-37055328D01*
X183093629Y-37055329D01*
X183130813Y-37080175D01*
X183167495Y-37104685D01*
X183230315Y-37167505D01*
X183279672Y-37241373D01*
X183313669Y-37323448D01*
X183331000Y-37410579D01*
X183331000Y-37499421D01*
X183313669Y-37586552D01*
X183279672Y-37668627D01*
X183279671Y-37668629D01*
X183230314Y-37742496D01*
X183167496Y-37805314D01*
X183093629Y-37854671D01*
X183093628Y-37854672D01*
X183093627Y-37854672D01*
X183011552Y-37888669D01*
X182924421Y-37906000D01*
X182835579Y-37906000D01*
X182748448Y-37888669D01*
X182666373Y-37854672D01*
X182666372Y-37854672D01*
X182666371Y-37854671D01*
X182592504Y-37805314D01*
X182529686Y-37742496D01*
X182480329Y-37668629D01*
X182480328Y-37668627D01*
X182446331Y-37586552D01*
X182429000Y-37499421D01*
X182429000Y-37410579D01*
X182446331Y-37323448D01*
X182480328Y-37241373D01*
X182529685Y-37167505D01*
X182592505Y-37104685D01*
X182629187Y-37080175D01*
X182666371Y-37055329D01*
X182666373Y-37055328D01*
X182748448Y-37021331D01*
X182835579Y-37004000D01*
X182924421Y-37004000D01*
X183011552Y-37021331D01*
X183011552Y-37021331D01*
G37*
G36*
X181741552Y-37021331D02*
G01*
X181823627Y-37055328D01*
X181823629Y-37055329D01*
X181860813Y-37080175D01*
X181897495Y-37104685D01*
X181960315Y-37167505D01*
X182009672Y-37241373D01*
X182043669Y-37323448D01*
X182061000Y-37410579D01*
X182061000Y-37499421D01*
X182043669Y-37586552D01*
X182009672Y-37668627D01*
X182009671Y-37668629D01*
X181960314Y-37742496D01*
X181897496Y-37805314D01*
X181823629Y-37854671D01*
X181823628Y-37854672D01*
X181823627Y-37854672D01*
X181741552Y-37888669D01*
X181654421Y-37906000D01*
X181565579Y-37906000D01*
X181478448Y-37888669D01*
X181396373Y-37854672D01*
X181396372Y-37854672D01*
X181396371Y-37854671D01*
X181322504Y-37805314D01*
X181259686Y-37742496D01*
X181210329Y-37668629D01*
X181210328Y-37668627D01*
X181176331Y-37586552D01*
X181159000Y-37499421D01*
X181159000Y-37410579D01*
X181176331Y-37323448D01*
X181210328Y-37241373D01*
X181259685Y-37167505D01*
X181322505Y-37104685D01*
X181359187Y-37080175D01*
X181396371Y-37055329D01*
X181396373Y-37055328D01*
X181478448Y-37021331D01*
X181565579Y-37004000D01*
X181654421Y-37004000D01*
X181741552Y-37021331D01*
X181741552Y-37021331D01*
G37*
G36*
X116971552Y-37021331D02*
G01*
X117053627Y-37055328D01*
X117053629Y-37055329D01*
X117090813Y-37080175D01*
X117127495Y-37104685D01*
X117190315Y-37167505D01*
X117239672Y-37241373D01*
X117273669Y-37323448D01*
X117291000Y-37410579D01*
X117291000Y-37499421D01*
X117273669Y-37586552D01*
X117239672Y-37668627D01*
X117239671Y-37668629D01*
X117190314Y-37742496D01*
X117127496Y-37805314D01*
X117053629Y-37854671D01*
X117053628Y-37854672D01*
X117053627Y-37854672D01*
X116971552Y-37888669D01*
X116884421Y-37906000D01*
X116795579Y-37906000D01*
X116708448Y-37888669D01*
X116626373Y-37854672D01*
X116626372Y-37854672D01*
X116626371Y-37854671D01*
X116552504Y-37805314D01*
X116489686Y-37742496D01*
X116440329Y-37668629D01*
X116440328Y-37668627D01*
X116406331Y-37586552D01*
X116389000Y-37499421D01*
X116389000Y-37410579D01*
X116406331Y-37323448D01*
X116440328Y-37241373D01*
X116489685Y-37167505D01*
X116552505Y-37104685D01*
X116589187Y-37080175D01*
X116626371Y-37055329D01*
X116626373Y-37055328D01*
X116708448Y-37021331D01*
X116795579Y-37004000D01*
X116884421Y-37004000D01*
X116971552Y-37021331D01*
X116971552Y-37021331D01*
G37*
G36*
X118241552Y-37021331D02*
G01*
X118323627Y-37055328D01*
X118323629Y-37055329D01*
X118360813Y-37080175D01*
X118397495Y-37104685D01*
X118460315Y-37167505D01*
X118509672Y-37241373D01*
X118543669Y-37323448D01*
X118561000Y-37410579D01*
X118561000Y-37499421D01*
X118543669Y-37586552D01*
X118509672Y-37668627D01*
X118509671Y-37668629D01*
X118460314Y-37742496D01*
X118397496Y-37805314D01*
X118323629Y-37854671D01*
X118323628Y-37854672D01*
X118323627Y-37854672D01*
X118241552Y-37888669D01*
X118154421Y-37906000D01*
X118065579Y-37906000D01*
X117978448Y-37888669D01*
X117896373Y-37854672D01*
X117896372Y-37854672D01*
X117896371Y-37854671D01*
X117822504Y-37805314D01*
X117759686Y-37742496D01*
X117710329Y-37668629D01*
X117710328Y-37668627D01*
X117676331Y-37586552D01*
X117659000Y-37499421D01*
X117659000Y-37410579D01*
X117676331Y-37323448D01*
X117710328Y-37241373D01*
X117759685Y-37167505D01*
X117822505Y-37104685D01*
X117859187Y-37080175D01*
X117896371Y-37055329D01*
X117896373Y-37055328D01*
X117978448Y-37021331D01*
X118065579Y-37004000D01*
X118154421Y-37004000D01*
X118241552Y-37021331D01*
X118241552Y-37021331D01*
G37*
G36*
X120781552Y-37021331D02*
G01*
X120863627Y-37055328D01*
X120863629Y-37055329D01*
X120900813Y-37080175D01*
X120937495Y-37104685D01*
X121000315Y-37167505D01*
X121049672Y-37241373D01*
X121083669Y-37323448D01*
X121101000Y-37410579D01*
X121101000Y-37499421D01*
X121083669Y-37586552D01*
X121049672Y-37668627D01*
X121049671Y-37668629D01*
X121000314Y-37742496D01*
X120937496Y-37805314D01*
X120863629Y-37854671D01*
X120863628Y-37854672D01*
X120863627Y-37854672D01*
X120781552Y-37888669D01*
X120694421Y-37906000D01*
X120605579Y-37906000D01*
X120518448Y-37888669D01*
X120436373Y-37854672D01*
X120436372Y-37854672D01*
X120436371Y-37854671D01*
X120362504Y-37805314D01*
X120299686Y-37742496D01*
X120250329Y-37668629D01*
X120250328Y-37668627D01*
X120216331Y-37586552D01*
X120199000Y-37499421D01*
X120199000Y-37410579D01*
X120216331Y-37323448D01*
X120250328Y-37241373D01*
X120299685Y-37167505D01*
X120362505Y-37104685D01*
X120399187Y-37080175D01*
X120436371Y-37055329D01*
X120436373Y-37055328D01*
X120518448Y-37021331D01*
X120605579Y-37004000D01*
X120694421Y-37004000D01*
X120781552Y-37021331D01*
X120781552Y-37021331D01*
G37*
G36*
X180471552Y-37021331D02*
G01*
X180553627Y-37055328D01*
X180553629Y-37055329D01*
X180590813Y-37080175D01*
X180627495Y-37104685D01*
X180690315Y-37167505D01*
X180739672Y-37241373D01*
X180773669Y-37323448D01*
X180791000Y-37410579D01*
X180791000Y-37499421D01*
X180773669Y-37586552D01*
X180739672Y-37668627D01*
X180739671Y-37668629D01*
X180690314Y-37742496D01*
X180627496Y-37805314D01*
X180553629Y-37854671D01*
X180553628Y-37854672D01*
X180553627Y-37854672D01*
X180471552Y-37888669D01*
X180384421Y-37906000D01*
X180295579Y-37906000D01*
X180208448Y-37888669D01*
X180126373Y-37854672D01*
X180126372Y-37854672D01*
X180126371Y-37854671D01*
X180052504Y-37805314D01*
X179989686Y-37742496D01*
X179940329Y-37668629D01*
X179940328Y-37668627D01*
X179906331Y-37586552D01*
X179889000Y-37499421D01*
X179889000Y-37410579D01*
X179906331Y-37323448D01*
X179940328Y-37241373D01*
X179989685Y-37167505D01*
X180052505Y-37104685D01*
X180089187Y-37080175D01*
X180126371Y-37055329D01*
X180126373Y-37055328D01*
X180208448Y-37021331D01*
X180295579Y-37004000D01*
X180384421Y-37004000D01*
X180471552Y-37021331D01*
X180471552Y-37021331D01*
G37*
G36*
X179201552Y-37021331D02*
G01*
X179283627Y-37055328D01*
X179283629Y-37055329D01*
X179320813Y-37080175D01*
X179357495Y-37104685D01*
X179420315Y-37167505D01*
X179469672Y-37241373D01*
X179503669Y-37323448D01*
X179521000Y-37410579D01*
X179521000Y-37499421D01*
X179503669Y-37586552D01*
X179469672Y-37668627D01*
X179469671Y-37668629D01*
X179420314Y-37742496D01*
X179357496Y-37805314D01*
X179283629Y-37854671D01*
X179283628Y-37854672D01*
X179283627Y-37854672D01*
X179201552Y-37888669D01*
X179114421Y-37906000D01*
X179025579Y-37906000D01*
X178938448Y-37888669D01*
X178856373Y-37854672D01*
X178856372Y-37854672D01*
X178856371Y-37854671D01*
X178782504Y-37805314D01*
X178719686Y-37742496D01*
X178670329Y-37668629D01*
X178670328Y-37668627D01*
X178636331Y-37586552D01*
X178619000Y-37499421D01*
X178619000Y-37410579D01*
X178636331Y-37323448D01*
X178670328Y-37241373D01*
X178719685Y-37167505D01*
X178782505Y-37104685D01*
X178819187Y-37080175D01*
X178856371Y-37055329D01*
X178856373Y-37055328D01*
X178938448Y-37021331D01*
X179025579Y-37004000D01*
X179114421Y-37004000D01*
X179201552Y-37021331D01*
X179201552Y-37021331D01*
G37*
G36*
X119511552Y-37021331D02*
G01*
X119593627Y-37055328D01*
X119593629Y-37055329D01*
X119630813Y-37080175D01*
X119667495Y-37104685D01*
X119730315Y-37167505D01*
X119779672Y-37241373D01*
X119813669Y-37323448D01*
X119831000Y-37410579D01*
X119831000Y-37499421D01*
X119813669Y-37586552D01*
X119779672Y-37668627D01*
X119779671Y-37668629D01*
X119730314Y-37742496D01*
X119667496Y-37805314D01*
X119593629Y-37854671D01*
X119593628Y-37854672D01*
X119593627Y-37854672D01*
X119511552Y-37888669D01*
X119424421Y-37906000D01*
X119335579Y-37906000D01*
X119248448Y-37888669D01*
X119166373Y-37854672D01*
X119166372Y-37854672D01*
X119166371Y-37854671D01*
X119092504Y-37805314D01*
X119029686Y-37742496D01*
X118980329Y-37668629D01*
X118980328Y-37668627D01*
X118946331Y-37586552D01*
X118929000Y-37499421D01*
X118929000Y-37410579D01*
X118946331Y-37323448D01*
X118980328Y-37241373D01*
X119029685Y-37167505D01*
X119092505Y-37104685D01*
X119129187Y-37080175D01*
X119166371Y-37055329D01*
X119166373Y-37055328D01*
X119248448Y-37021331D01*
X119335579Y-37004000D01*
X119424421Y-37004000D01*
X119511552Y-37021331D01*
X119511552Y-37021331D01*
G37*
G36*
X177931552Y-37021331D02*
G01*
X178013627Y-37055328D01*
X178013629Y-37055329D01*
X178050813Y-37080175D01*
X178087495Y-37104685D01*
X178150315Y-37167505D01*
X178199672Y-37241373D01*
X178233669Y-37323448D01*
X178251000Y-37410579D01*
X178251000Y-37499421D01*
X178233669Y-37586552D01*
X178199672Y-37668627D01*
X178199671Y-37668629D01*
X178150314Y-37742496D01*
X178087496Y-37805314D01*
X178013629Y-37854671D01*
X178013628Y-37854672D01*
X178013627Y-37854672D01*
X177931552Y-37888669D01*
X177844421Y-37906000D01*
X177755579Y-37906000D01*
X177668448Y-37888669D01*
X177586373Y-37854672D01*
X177586372Y-37854672D01*
X177586371Y-37854671D01*
X177512504Y-37805314D01*
X177449686Y-37742496D01*
X177400329Y-37668629D01*
X177400328Y-37668627D01*
X177366331Y-37586552D01*
X177349000Y-37499421D01*
X177349000Y-37410579D01*
X177366331Y-37323448D01*
X177400328Y-37241373D01*
X177449685Y-37167505D01*
X177512505Y-37104685D01*
X177549187Y-37080175D01*
X177586371Y-37055329D01*
X177586373Y-37055328D01*
X177668448Y-37021331D01*
X177755579Y-37004000D01*
X177844421Y-37004000D01*
X177931552Y-37021331D01*
X177931552Y-37021331D01*
G37*
G36*
X115701552Y-35751331D02*
G01*
X115761107Y-35776000D01*
X115783629Y-35785329D01*
X115820813Y-35810175D01*
X115857495Y-35834685D01*
X115920315Y-35897505D01*
X115969672Y-35971373D01*
X116003669Y-36053448D01*
X116021000Y-36140579D01*
X116021000Y-36229421D01*
X116003669Y-36316552D01*
X115969672Y-36398627D01*
X115969671Y-36398629D01*
X115920314Y-36472496D01*
X115857496Y-36535314D01*
X115783629Y-36584671D01*
X115783628Y-36584672D01*
X115783627Y-36584672D01*
X115701552Y-36618669D01*
X115614421Y-36636000D01*
X115525579Y-36636000D01*
X115438448Y-36618669D01*
X115356373Y-36584672D01*
X115356372Y-36584672D01*
X115356371Y-36584671D01*
X115282504Y-36535314D01*
X115219686Y-36472496D01*
X115170329Y-36398629D01*
X115170328Y-36398627D01*
X115136331Y-36316552D01*
X115119000Y-36229421D01*
X115119000Y-36140579D01*
X115136331Y-36053448D01*
X115170328Y-35971373D01*
X115219685Y-35897505D01*
X115282505Y-35834685D01*
X115319187Y-35810175D01*
X115356371Y-35785329D01*
X115378893Y-35776000D01*
X115438448Y-35751331D01*
X115525579Y-35734000D01*
X115614421Y-35734000D01*
X115701552Y-35751331D01*
X115701552Y-35751331D01*
G37*
G36*
X118241552Y-35751331D02*
G01*
X118301107Y-35776000D01*
X118323629Y-35785329D01*
X118360813Y-35810175D01*
X118397495Y-35834685D01*
X118460315Y-35897505D01*
X118509672Y-35971373D01*
X118543669Y-36053448D01*
X118561000Y-36140579D01*
X118561000Y-36229421D01*
X118543669Y-36316552D01*
X118509672Y-36398627D01*
X118509671Y-36398629D01*
X118460314Y-36472496D01*
X118397496Y-36535314D01*
X118323629Y-36584671D01*
X118323628Y-36584672D01*
X118323627Y-36584672D01*
X118241552Y-36618669D01*
X118154421Y-36636000D01*
X118065579Y-36636000D01*
X117978448Y-36618669D01*
X117896373Y-36584672D01*
X117896372Y-36584672D01*
X117896371Y-36584671D01*
X117822504Y-36535314D01*
X117759686Y-36472496D01*
X117710329Y-36398629D01*
X117710328Y-36398627D01*
X117676331Y-36316552D01*
X117659000Y-36229421D01*
X117659000Y-36140579D01*
X117676331Y-36053448D01*
X117710328Y-35971373D01*
X117759685Y-35897505D01*
X117822505Y-35834685D01*
X117859187Y-35810175D01*
X117896371Y-35785329D01*
X117918893Y-35776000D01*
X117978448Y-35751331D01*
X118065579Y-35734000D01*
X118154421Y-35734000D01*
X118241552Y-35751331D01*
X118241552Y-35751331D01*
G37*
G36*
X119511552Y-35751331D02*
G01*
X119571107Y-35776000D01*
X119593629Y-35785329D01*
X119630813Y-35810175D01*
X119667495Y-35834685D01*
X119730315Y-35897505D01*
X119779672Y-35971373D01*
X119813669Y-36053448D01*
X119831000Y-36140579D01*
X119831000Y-36229421D01*
X119813669Y-36316552D01*
X119779672Y-36398627D01*
X119779671Y-36398629D01*
X119730314Y-36472496D01*
X119667496Y-36535314D01*
X119593629Y-36584671D01*
X119593628Y-36584672D01*
X119593627Y-36584672D01*
X119511552Y-36618669D01*
X119424421Y-36636000D01*
X119335579Y-36636000D01*
X119248448Y-36618669D01*
X119166373Y-36584672D01*
X119166372Y-36584672D01*
X119166371Y-36584671D01*
X119092504Y-36535314D01*
X119029686Y-36472496D01*
X118980329Y-36398629D01*
X118980328Y-36398627D01*
X118946331Y-36316552D01*
X118929000Y-36229421D01*
X118929000Y-36140579D01*
X118946331Y-36053448D01*
X118980328Y-35971373D01*
X119029685Y-35897505D01*
X119092505Y-35834685D01*
X119129187Y-35810175D01*
X119166371Y-35785329D01*
X119188893Y-35776000D01*
X119248448Y-35751331D01*
X119335579Y-35734000D01*
X119424421Y-35734000D01*
X119511552Y-35751331D01*
X119511552Y-35751331D01*
G37*
G36*
X120781552Y-35751331D02*
G01*
X120841107Y-35776000D01*
X120863629Y-35785329D01*
X120900813Y-35810175D01*
X120937495Y-35834685D01*
X121000315Y-35897505D01*
X121049672Y-35971373D01*
X121083669Y-36053448D01*
X121101000Y-36140579D01*
X121101000Y-36229421D01*
X121083669Y-36316552D01*
X121049672Y-36398627D01*
X121049671Y-36398629D01*
X121000314Y-36472496D01*
X120937496Y-36535314D01*
X120863629Y-36584671D01*
X120863628Y-36584672D01*
X120863627Y-36584672D01*
X120781552Y-36618669D01*
X120694421Y-36636000D01*
X120605579Y-36636000D01*
X120518448Y-36618669D01*
X120436373Y-36584672D01*
X120436372Y-36584672D01*
X120436371Y-36584671D01*
X120362504Y-36535314D01*
X120299686Y-36472496D01*
X120250329Y-36398629D01*
X120250328Y-36398627D01*
X120216331Y-36316552D01*
X120199000Y-36229421D01*
X120199000Y-36140579D01*
X120216331Y-36053448D01*
X120250328Y-35971373D01*
X120299685Y-35897505D01*
X120362505Y-35834685D01*
X120399187Y-35810175D01*
X120436371Y-35785329D01*
X120458893Y-35776000D01*
X120518448Y-35751331D01*
X120605579Y-35734000D01*
X120694421Y-35734000D01*
X120781552Y-35751331D01*
X120781552Y-35751331D01*
G37*
G36*
X177931552Y-35751331D02*
G01*
X177991107Y-35776000D01*
X178013629Y-35785329D01*
X178050813Y-35810175D01*
X178087495Y-35834685D01*
X178150315Y-35897505D01*
X178199672Y-35971373D01*
X178233669Y-36053448D01*
X178251000Y-36140579D01*
X178251000Y-36229421D01*
X178233669Y-36316552D01*
X178199672Y-36398627D01*
X178199671Y-36398629D01*
X178150314Y-36472496D01*
X178087496Y-36535314D01*
X178013629Y-36584671D01*
X178013628Y-36584672D01*
X178013627Y-36584672D01*
X177931552Y-36618669D01*
X177844421Y-36636000D01*
X177755579Y-36636000D01*
X177668448Y-36618669D01*
X177586373Y-36584672D01*
X177586372Y-36584672D01*
X177586371Y-36584671D01*
X177512504Y-36535314D01*
X177449686Y-36472496D01*
X177400329Y-36398629D01*
X177400328Y-36398627D01*
X177366331Y-36316552D01*
X177349000Y-36229421D01*
X177349000Y-36140579D01*
X177366331Y-36053448D01*
X177400328Y-35971373D01*
X177449685Y-35897505D01*
X177512505Y-35834685D01*
X177549187Y-35810175D01*
X177586371Y-35785329D01*
X177608893Y-35776000D01*
X177668448Y-35751331D01*
X177755579Y-35734000D01*
X177844421Y-35734000D01*
X177931552Y-35751331D01*
X177931552Y-35751331D01*
G37*
G36*
X179201552Y-35751331D02*
G01*
X179261107Y-35776000D01*
X179283629Y-35785329D01*
X179320813Y-35810175D01*
X179357495Y-35834685D01*
X179420315Y-35897505D01*
X179469672Y-35971373D01*
X179503669Y-36053448D01*
X179521000Y-36140579D01*
X179521000Y-36229421D01*
X179503669Y-36316552D01*
X179469672Y-36398627D01*
X179469671Y-36398629D01*
X179420314Y-36472496D01*
X179357496Y-36535314D01*
X179283629Y-36584671D01*
X179283628Y-36584672D01*
X179283627Y-36584672D01*
X179201552Y-36618669D01*
X179114421Y-36636000D01*
X179025579Y-36636000D01*
X178938448Y-36618669D01*
X178856373Y-36584672D01*
X178856372Y-36584672D01*
X178856371Y-36584671D01*
X178782504Y-36535314D01*
X178719686Y-36472496D01*
X178670329Y-36398629D01*
X178670328Y-36398627D01*
X178636331Y-36316552D01*
X178619000Y-36229421D01*
X178619000Y-36140579D01*
X178636331Y-36053448D01*
X178670328Y-35971373D01*
X178719685Y-35897505D01*
X178782505Y-35834685D01*
X178819187Y-35810175D01*
X178856371Y-35785329D01*
X178878893Y-35776000D01*
X178938448Y-35751331D01*
X179025579Y-35734000D01*
X179114421Y-35734000D01*
X179201552Y-35751331D01*
X179201552Y-35751331D01*
G37*
G36*
X116971552Y-35751331D02*
G01*
X117031107Y-35776000D01*
X117053629Y-35785329D01*
X117090813Y-35810175D01*
X117127495Y-35834685D01*
X117190315Y-35897505D01*
X117239672Y-35971373D01*
X117273669Y-36053448D01*
X117291000Y-36140579D01*
X117291000Y-36229421D01*
X117273669Y-36316552D01*
X117239672Y-36398627D01*
X117239671Y-36398629D01*
X117190314Y-36472496D01*
X117127496Y-36535314D01*
X117053629Y-36584671D01*
X117053628Y-36584672D01*
X117053627Y-36584672D01*
X116971552Y-36618669D01*
X116884421Y-36636000D01*
X116795579Y-36636000D01*
X116708448Y-36618669D01*
X116626373Y-36584672D01*
X116626372Y-36584672D01*
X116626371Y-36584671D01*
X116552504Y-36535314D01*
X116489686Y-36472496D01*
X116440329Y-36398629D01*
X116440328Y-36398627D01*
X116406331Y-36316552D01*
X116389000Y-36229421D01*
X116389000Y-36140579D01*
X116406331Y-36053448D01*
X116440328Y-35971373D01*
X116489685Y-35897505D01*
X116552505Y-35834685D01*
X116589187Y-35810175D01*
X116626371Y-35785329D01*
X116648893Y-35776000D01*
X116708448Y-35751331D01*
X116795579Y-35734000D01*
X116884421Y-35734000D01*
X116971552Y-35751331D01*
X116971552Y-35751331D01*
G37*
G36*
X180471552Y-35751331D02*
G01*
X180531107Y-35776000D01*
X180553629Y-35785329D01*
X180590813Y-35810175D01*
X180627495Y-35834685D01*
X180690315Y-35897505D01*
X180739672Y-35971373D01*
X180773669Y-36053448D01*
X180791000Y-36140579D01*
X180791000Y-36229421D01*
X180773669Y-36316552D01*
X180739672Y-36398627D01*
X180739671Y-36398629D01*
X180690314Y-36472496D01*
X180627496Y-36535314D01*
X180553629Y-36584671D01*
X180553628Y-36584672D01*
X180553627Y-36584672D01*
X180471552Y-36618669D01*
X180384421Y-36636000D01*
X180295579Y-36636000D01*
X180208448Y-36618669D01*
X180126373Y-36584672D01*
X180126372Y-36584672D01*
X180126371Y-36584671D01*
X180052504Y-36535314D01*
X179989686Y-36472496D01*
X179940329Y-36398629D01*
X179940328Y-36398627D01*
X179906331Y-36316552D01*
X179889000Y-36229421D01*
X179889000Y-36140579D01*
X179906331Y-36053448D01*
X179940328Y-35971373D01*
X179989685Y-35897505D01*
X180052505Y-35834685D01*
X180089187Y-35810175D01*
X180126371Y-35785329D01*
X180148893Y-35776000D01*
X180208448Y-35751331D01*
X180295579Y-35734000D01*
X180384421Y-35734000D01*
X180471552Y-35751331D01*
X180471552Y-35751331D01*
G37*
G36*
X181741552Y-35751331D02*
G01*
X181801107Y-35776000D01*
X181823629Y-35785329D01*
X181860813Y-35810175D01*
X181897495Y-35834685D01*
X181960315Y-35897505D01*
X182009672Y-35971373D01*
X182043669Y-36053448D01*
X182061000Y-36140579D01*
X182061000Y-36229421D01*
X182043669Y-36316552D01*
X182009672Y-36398627D01*
X182009671Y-36398629D01*
X181960314Y-36472496D01*
X181897496Y-36535314D01*
X181823629Y-36584671D01*
X181823628Y-36584672D01*
X181823627Y-36584672D01*
X181741552Y-36618669D01*
X181654421Y-36636000D01*
X181565579Y-36636000D01*
X181478448Y-36618669D01*
X181396373Y-36584672D01*
X181396372Y-36584672D01*
X181396371Y-36584671D01*
X181322504Y-36535314D01*
X181259686Y-36472496D01*
X181210329Y-36398629D01*
X181210328Y-36398627D01*
X181176331Y-36316552D01*
X181159000Y-36229421D01*
X181159000Y-36140579D01*
X181176331Y-36053448D01*
X181210328Y-35971373D01*
X181259685Y-35897505D01*
X181322505Y-35834685D01*
X181359187Y-35810175D01*
X181396371Y-35785329D01*
X181418893Y-35776000D01*
X181478448Y-35751331D01*
X181565579Y-35734000D01*
X181654421Y-35734000D01*
X181741552Y-35751331D01*
X181741552Y-35751331D01*
G37*
G36*
X183011552Y-35751331D02*
G01*
X183071107Y-35776000D01*
X183093629Y-35785329D01*
X183130813Y-35810175D01*
X183167495Y-35834685D01*
X183230315Y-35897505D01*
X183279672Y-35971373D01*
X183313669Y-36053448D01*
X183331000Y-36140579D01*
X183331000Y-36229421D01*
X183313669Y-36316552D01*
X183279672Y-36398627D01*
X183279671Y-36398629D01*
X183230314Y-36472496D01*
X183167496Y-36535314D01*
X183093629Y-36584671D01*
X183093628Y-36584672D01*
X183093627Y-36584672D01*
X183011552Y-36618669D01*
X182924421Y-36636000D01*
X182835579Y-36636000D01*
X182748448Y-36618669D01*
X182666373Y-36584672D01*
X182666372Y-36584672D01*
X182666371Y-36584671D01*
X182592504Y-36535314D01*
X182529686Y-36472496D01*
X182480329Y-36398629D01*
X182480328Y-36398627D01*
X182446331Y-36316552D01*
X182429000Y-36229421D01*
X182429000Y-36140579D01*
X182446331Y-36053448D01*
X182480328Y-35971373D01*
X182529685Y-35897505D01*
X182592505Y-35834685D01*
X182629187Y-35810175D01*
X182666371Y-35785329D01*
X182688893Y-35776000D01*
X182748448Y-35751331D01*
X182835579Y-35734000D01*
X182924421Y-35734000D01*
X183011552Y-35751331D01*
X183011552Y-35751331D01*
G37*
G36*
X100825477Y-32993207D02*
G01*
X100972713Y-33022494D01*
X101250099Y-33137391D01*
X101499741Y-33304197D01*
X101712043Y-33516499D01*
X101878849Y-33766141D01*
X101993746Y-34043527D01*
X102013581Y-34143243D01*
X102043469Y-34293499D01*
X102052320Y-34337999D01*
X102052320Y-34638241D01*
X101993746Y-34932713D01*
X101878849Y-35210099D01*
X101767393Y-35376904D01*
X101723058Y-35443257D01*
X101712043Y-35459741D01*
X101499741Y-35672043D01*
X101250099Y-35838849D01*
X100972713Y-35953746D01*
X100884106Y-35971371D01*
X100678242Y-36012320D01*
X100377998Y-36012320D01*
X100172134Y-35971371D01*
X100083527Y-35953746D01*
X99806141Y-35838849D01*
X99556499Y-35672043D01*
X99344197Y-35459741D01*
X99333183Y-35443257D01*
X99288847Y-35376904D01*
X99177391Y-35210099D01*
X99062494Y-34932713D01*
X99003920Y-34638241D01*
X99003920Y-34337999D01*
X99012772Y-34293499D01*
X99042659Y-34143243D01*
X99062494Y-34043527D01*
X99177391Y-33766141D01*
X99344197Y-33516499D01*
X99556499Y-33304197D01*
X99806141Y-33137391D01*
X100083527Y-33022494D01*
X100230763Y-32993207D01*
X100377998Y-32963920D01*
X100678242Y-32963920D01*
X100825477Y-32993207D01*
X100825477Y-32993207D01*
G37*
G36*
X234795237Y-32993207D02*
G01*
X234942473Y-33022494D01*
X235219859Y-33137391D01*
X235469501Y-33304197D01*
X235681803Y-33516499D01*
X235848609Y-33766141D01*
X235963506Y-34043527D01*
X235983341Y-34143243D01*
X236013229Y-34293499D01*
X236022080Y-34337999D01*
X236022080Y-34638241D01*
X235963506Y-34932713D01*
X235848609Y-35210099D01*
X235737153Y-35376904D01*
X235692818Y-35443257D01*
X235681803Y-35459741D01*
X235469501Y-35672043D01*
X235219859Y-35838849D01*
X234942473Y-35953746D01*
X234853866Y-35971371D01*
X234648002Y-36012320D01*
X234347758Y-36012320D01*
X234141894Y-35971371D01*
X234053287Y-35953746D01*
X233775901Y-35838849D01*
X233526259Y-35672043D01*
X233313957Y-35459741D01*
X233302943Y-35443257D01*
X233258607Y-35376904D01*
X233147151Y-35210099D01*
X233032254Y-34932713D01*
X232973680Y-34638241D01*
X232973680Y-34337999D01*
X232982532Y-34293499D01*
X233012419Y-34143243D01*
X233032254Y-34043527D01*
X233147151Y-33766141D01*
X233313957Y-33516499D01*
X233526259Y-33304197D01*
X233775901Y-33137391D01*
X234053287Y-33022494D01*
X234200523Y-32993207D01*
X234347758Y-32963920D01*
X234648002Y-32963920D01*
X234795237Y-32993207D01*
X234795237Y-32993207D01*
G37*
G36*
X152489000Y-35776000D02*
G01*
X150787000Y-35776000D01*
X150787000Y-34074000D01*
X152489000Y-34074000D01*
X152489000Y-35776000D01*
X152489000Y-35776000D01*
G37*
G36*
X158987142Y-34143242D02*
G01*
X159135101Y-34204529D01*
X159268255Y-34293499D01*
X159381501Y-34406745D01*
X159470471Y-34539899D01*
X159531758Y-34687858D01*
X159563000Y-34844925D01*
X159563000Y-35005075D01*
X159531758Y-35162142D01*
X159470471Y-35310101D01*
X159381501Y-35443255D01*
X159268255Y-35556501D01*
X159135101Y-35645471D01*
X158987142Y-35706758D01*
X158830075Y-35738000D01*
X158669925Y-35738000D01*
X158512858Y-35706758D01*
X158364899Y-35645471D01*
X158231745Y-35556501D01*
X158118499Y-35443255D01*
X158029529Y-35310101D01*
X157968242Y-35162142D01*
X157937000Y-35005075D01*
X157937000Y-34844925D01*
X157968242Y-34687858D01*
X158029529Y-34539899D01*
X158118499Y-34406745D01*
X158231745Y-34293499D01*
X158364899Y-34204529D01*
X158512858Y-34143242D01*
X158669925Y-34112000D01*
X158830075Y-34112000D01*
X158987142Y-34143242D01*
X158987142Y-34143242D01*
G37*
G36*
X161527142Y-34143242D02*
G01*
X161675101Y-34204529D01*
X161808255Y-34293499D01*
X161921501Y-34406745D01*
X162010471Y-34539899D01*
X162071758Y-34687858D01*
X162103000Y-34844925D01*
X162103000Y-35005075D01*
X162071758Y-35162142D01*
X162010471Y-35310101D01*
X161921501Y-35443255D01*
X161808255Y-35556501D01*
X161675101Y-35645471D01*
X161527142Y-35706758D01*
X161370075Y-35738000D01*
X161209925Y-35738000D01*
X161052858Y-35706758D01*
X160904899Y-35645471D01*
X160771745Y-35556501D01*
X160658499Y-35443255D01*
X160569529Y-35310101D01*
X160508242Y-35162142D01*
X160477000Y-35005075D01*
X160477000Y-34844925D01*
X160508242Y-34687858D01*
X160569529Y-34539899D01*
X160658499Y-34406745D01*
X160771745Y-34293499D01*
X160904899Y-34204529D01*
X161052858Y-34143242D01*
X161209925Y-34112000D01*
X161370075Y-34112000D01*
X161527142Y-34143242D01*
X161527142Y-34143242D01*
G37*
M02*
