G04 #@! TF.GenerationSoftware,KiCad,Pcbnew,(5.1.4)-1*
G04 #@! TF.CreationDate,2020-02-16T17:55:40-06:00*
G04 #@! TF.ProjectId,PowerBoard_Hardware,506f7765-7242-46f6-9172-645f48617264,rev?*
G04 #@! TF.SameCoordinates,Original*
G04 #@! TF.FileFunction,Copper,L2,Bot*
G04 #@! TF.FilePolarity,Positive*
%FSLAX46Y46*%
G04 Gerber Fmt 4.6, Leading zero omitted, Abs format (unit mm)*
G04 Created by KiCad (PCBNEW (5.1.4)-1) date 2020-02-16 17:55:40*
%MOMM*%
%LPD*%
G04 APERTURE LIST*
%ADD10C,7.112000*%
%ADD11C,0.800000*%
%ADD12C,5.080000*%
%ADD13C,2.819400*%
%ADD14C,18.288000*%
%ADD15C,1.524000*%
%ADD16C,2.400000*%
%ADD17R,2.400000X2.400000*%
%ADD18C,1.600000*%
%ADD19R,1.600000X1.600000*%
%ADD20O,3.200000X3.200000*%
%ADD21R,3.200000X3.200000*%
%ADD22C,0.762000*%
%ADD23C,0.254000*%
G04 APERTURE END LIST*
D10*
X112395000Y-161290000D03*
D11*
X173355000Y-37475000D03*
X173355000Y-36205000D03*
X174625000Y-37475000D03*
X174625000Y-36205000D03*
X175895000Y-37475000D03*
X175895000Y-36205000D03*
X177165000Y-37475000D03*
X177165000Y-36205000D03*
X178435000Y-37475000D03*
X178435000Y-36205000D03*
X132080000Y-37475000D03*
X132080000Y-36205000D03*
X133350000Y-37475000D03*
X133350000Y-36205000D03*
X134620000Y-37475000D03*
X134620000Y-36205000D03*
X135890000Y-37475000D03*
X135890000Y-36205000D03*
X137160000Y-37475000D03*
X137160000Y-36205000D03*
D12*
X122555000Y-45212000D03*
X114681000Y-45212000D03*
D13*
X188341000Y-106172000D03*
X184912000Y-106172000D03*
X184912000Y-119634000D03*
X188341000Y-119634000D03*
X188341000Y-85598000D03*
X184912000Y-85598000D03*
X184912000Y-99060000D03*
X188341000Y-99060000D03*
D12*
X122555000Y-86106000D03*
X114681000Y-86106000D03*
X122555000Y-128270000D03*
X114681000Y-128270000D03*
X114681000Y-65532000D03*
X122555000Y-65532000D03*
D13*
X146685000Y-65024000D03*
X150114000Y-65024000D03*
X150114000Y-78486000D03*
X146685000Y-78486000D03*
X146685000Y-44450000D03*
X150114000Y-44450000D03*
X150114000Y-57912000D03*
X146685000Y-57912000D03*
X146685000Y-85471000D03*
X150114000Y-85471000D03*
X150114000Y-98933000D03*
X146685000Y-98933000D03*
X188341000Y-57912000D03*
X184912000Y-57912000D03*
X184912000Y-44450000D03*
X188341000Y-44450000D03*
X188341000Y-65151000D03*
X184912000Y-65151000D03*
X184912000Y-78613000D03*
X188341000Y-78613000D03*
D14*
X177546000Y-156845000D03*
X142621000Y-156972000D03*
D15*
X175895000Y-62230000D03*
X173355000Y-62230000D03*
X170815000Y-62230000D03*
D16*
X163750000Y-120015000D03*
D17*
X158750000Y-120015000D03*
D18*
X161290000Y-67350000D03*
D19*
X161290000Y-69850000D03*
D18*
X173355000Y-67350000D03*
D19*
X173355000Y-69850000D03*
D17*
X158750000Y-96520000D03*
D16*
X163750000Y-96520000D03*
X171530000Y-108585000D03*
D17*
X176530000Y-108585000D03*
X176530000Y-132080000D03*
D16*
X171530000Y-132080000D03*
D19*
X163195000Y-42545000D03*
D18*
X165695000Y-42545000D03*
X149733000Y-37425000D03*
D19*
X149733000Y-34925000D03*
D12*
X212471000Y-98425000D03*
X220345000Y-98425000D03*
X220345000Y-118999000D03*
X212471000Y-118999000D03*
D20*
X163830000Y-83185000D03*
D21*
X163830000Y-78105000D03*
X170815000Y-78105000D03*
D20*
X170815000Y-83185000D03*
D15*
X163830000Y-62230000D03*
X161290000Y-62230000D03*
X158750000Y-62230000D03*
X156845000Y-34925000D03*
X159385000Y-34925000D03*
D12*
X220345000Y-57150000D03*
X212471000Y-57150000D03*
X220345000Y-77978000D03*
X212471000Y-77978000D03*
X122555000Y-106934000D03*
X114681000Y-106934000D03*
X220345000Y-140462000D03*
X212471000Y-140462000D03*
D13*
X146685000Y-106299000D03*
X150114000Y-106299000D03*
X150114000Y-119761000D03*
X146685000Y-119761000D03*
X146685000Y-141097000D03*
X150114000Y-141097000D03*
X150114000Y-127635000D03*
X146685000Y-127635000D03*
X188341000Y-127508000D03*
X184912000Y-127508000D03*
X184912000Y-140970000D03*
X188341000Y-140970000D03*
D11*
X143891000Y-106172000D03*
X143863000Y-85725000D03*
X143863000Y-65024000D03*
X143891000Y-44196000D03*
X191290000Y-58166000D03*
X191403000Y-79248000D03*
X191290000Y-99568000D03*
X191290000Y-120396000D03*
X191290000Y-141732000D03*
X143863000Y-127762000D03*
X123825000Y-142240000D03*
X196850000Y-43180000D03*
X212725000Y-43815000D03*
X212725000Y-64770000D03*
X212725000Y-85090000D03*
X212725000Y-105410000D03*
X212725000Y-127635000D03*
X123952000Y-120650000D03*
X123825000Y-99695000D03*
X123825000Y-79375000D03*
X123825000Y-59055000D03*
X180975000Y-48260000D03*
X194310000Y-146050000D03*
X201930000Y-146050000D03*
X209550000Y-146050000D03*
X217170000Y-146050000D03*
X224790000Y-146050000D03*
X194310000Y-151765000D03*
X201930000Y-151765000D03*
X209550000Y-151765000D03*
X217170000Y-151765000D03*
X224790000Y-151765000D03*
X224790000Y-158115000D03*
X217170000Y-158115000D03*
X209550000Y-158115000D03*
X201930000Y-158115000D03*
X194310000Y-158115000D03*
X103505000Y-142240000D03*
X103505000Y-97155000D03*
X103505000Y-40005000D03*
X103505000Y-150495000D03*
X120650000Y-150495000D03*
X144272000Y-69088000D03*
X144272000Y-90424000D03*
X144272000Y-110744000D03*
X144272000Y-132588000D03*
X191135000Y-52705000D03*
X191135000Y-74295000D03*
X191135000Y-94615000D03*
X191135000Y-114935000D03*
X191135000Y-136525000D03*
X180975000Y-45720000D03*
X180975000Y-50800000D03*
X180975000Y-43180000D03*
X173355000Y-43180000D03*
X173355000Y-45720000D03*
X173355000Y-48260000D03*
X173355000Y-50800000D03*
X173355000Y-55245000D03*
X167005000Y-50800000D03*
X167005000Y-48260000D03*
X167005000Y-55245000D03*
X167005000Y-59690000D03*
X224155000Y-44450000D03*
X224155000Y-65405000D03*
X224155000Y-85725000D03*
X224155000Y-106045000D03*
X224155000Y-128270000D03*
X113030000Y-119380000D03*
X113030000Y-140335000D03*
X113030000Y-98425000D03*
X113030000Y-78105000D03*
X113030000Y-57785000D03*
X168910000Y-45720000D03*
X167005000Y-45720000D03*
X120650000Y-139065000D03*
X120650000Y-118110000D03*
X120650000Y-97155000D03*
X120650000Y-76835000D03*
X120650000Y-56515000D03*
X216535000Y-46293000D03*
X216535000Y-67375000D03*
X216535000Y-87695000D03*
X216535000Y-108015000D03*
X216535000Y-130240000D03*
X141605000Y-43688000D03*
X141605000Y-64516000D03*
X141605000Y-85598000D03*
X141605000Y-106172000D03*
X194945000Y-81280000D03*
X194945000Y-101600000D03*
X194945000Y-122555000D03*
X194945000Y-60325000D03*
X141605000Y-127762000D03*
X194945000Y-143510000D03*
D22*
X139700000Y-43180000D02*
X140970000Y-41910000D01*
X139700000Y-138430000D02*
X139065000Y-139065000D01*
X139065000Y-139065000D02*
X120650000Y-139065000D01*
X120650000Y-139065000D02*
X120650000Y-139065000D01*
X139700000Y-117475000D02*
X139065000Y-118110000D01*
X139700000Y-138430000D02*
X139700000Y-117475000D01*
X139065000Y-118110000D02*
X120650000Y-118110000D01*
X120650000Y-118110000D02*
X120650000Y-118110000D01*
X139700000Y-96520000D02*
X139065000Y-97155000D01*
X139700000Y-117475000D02*
X139700000Y-96520000D01*
X139065000Y-97155000D02*
X120650000Y-97155000D01*
X120650000Y-97155000D02*
X120650000Y-97155000D01*
X139700000Y-75565000D02*
X139700000Y-76200000D01*
X139700000Y-96520000D02*
X139700000Y-75565000D01*
X139700000Y-76200000D02*
X139065000Y-76835000D01*
X139065000Y-76835000D02*
X120650000Y-76835000D01*
X120650000Y-76835000D02*
X120650000Y-76835000D01*
X139700000Y-55880000D02*
X139065000Y-56515000D01*
X139700000Y-55880000D02*
X139700000Y-43180000D01*
X139700000Y-75565000D02*
X139700000Y-55880000D01*
X139065000Y-56515000D02*
X120650000Y-56515000D01*
X120650000Y-56515000D02*
X120650000Y-56515000D01*
X158750000Y-48260000D02*
X158750000Y-62230000D01*
X158750000Y-48260000D02*
X160020000Y-46990000D01*
X215838000Y-46990000D02*
X216535000Y-46293000D01*
X195580000Y-46990000D02*
X215838000Y-46990000D01*
X160020000Y-46990000D02*
X195580000Y-46990000D01*
X196915000Y-130240000D02*
X216535000Y-130240000D01*
X196215000Y-129540000D02*
X196915000Y-130240000D01*
X195580000Y-46990000D02*
X196215000Y-47625000D01*
X196915000Y-108015000D02*
X196215000Y-107315000D01*
X216535000Y-108015000D02*
X196915000Y-108015000D01*
X196215000Y-107315000D02*
X196215000Y-129540000D01*
X196915000Y-87695000D02*
X196215000Y-86995000D01*
X216535000Y-87695000D02*
X196915000Y-87695000D01*
X196215000Y-86995000D02*
X196215000Y-107315000D01*
X196915000Y-67375000D02*
X196215000Y-66675000D01*
X216535000Y-67375000D02*
X196915000Y-67375000D01*
X196215000Y-47625000D02*
X196215000Y-66675000D01*
X196215000Y-66675000D02*
X196215000Y-86995000D01*
X158750000Y-43815000D02*
X156845000Y-41910000D01*
X140970000Y-41910000D02*
X156845000Y-41910000D01*
X158750000Y-43815000D02*
X158750000Y-48260000D01*
X156845000Y-41910000D02*
X156845000Y-40005000D01*
X156845000Y-41275000D02*
X156845000Y-40005000D01*
X156845000Y-40005000D02*
X156845000Y-34925000D01*
X170815000Y-62230000D02*
X172720000Y-60325000D01*
X172720000Y-60325000D02*
X194310000Y-60325000D01*
X194310000Y-60325000D02*
X194945000Y-60325000D01*
X194945000Y-60325000D02*
X194945000Y-60325000D01*
X194945000Y-60325000D02*
X194945000Y-60960000D01*
X194945000Y-143510000D02*
X194945000Y-122555000D01*
X194945000Y-122555000D02*
X194945000Y-101600000D01*
X194945000Y-101600000D02*
X194945000Y-81280000D01*
X194945000Y-81280000D02*
X194945000Y-60325000D01*
X168910000Y-64135000D02*
X154305000Y-64135000D01*
X170815000Y-62230000D02*
X168910000Y-64135000D01*
X154305000Y-64135000D02*
X152400000Y-62230000D01*
X152400000Y-62230000D02*
X142240000Y-62230000D01*
X142240000Y-62230000D02*
X141605000Y-62865000D01*
X141605000Y-62865000D02*
X141605000Y-64516000D01*
X142240000Y-62230000D02*
X141605000Y-61595000D01*
X141605000Y-61595000D02*
X141605000Y-43815000D01*
X141605000Y-43815000D02*
X141605000Y-43688000D01*
X141605000Y-64516000D02*
X141605000Y-85598000D01*
X141605000Y-106172000D02*
X141605000Y-127762000D01*
X141605000Y-85598000D02*
X141605000Y-106172000D01*
D23*
G36*
X235458891Y-31205515D02*
G01*
X236070565Y-31390190D01*
X236634710Y-31690151D01*
X237129856Y-32093982D01*
X237537133Y-32586297D01*
X237841026Y-33148336D01*
X238029969Y-33758709D01*
X238100001Y-34425022D01*
X238100000Y-166210721D01*
X238034485Y-166878892D01*
X237849812Y-167490561D01*
X237549848Y-168054711D01*
X237146018Y-168549855D01*
X236653703Y-168957133D01*
X236091664Y-169261026D01*
X235481292Y-169449969D01*
X234814978Y-169520001D01*
X100605619Y-169519998D01*
X99924651Y-169475336D01*
X99306955Y-169310376D01*
X98733071Y-169028582D01*
X98224843Y-168640682D01*
X97801644Y-168161460D01*
X97479584Y-167609161D01*
X97270932Y-167004828D01*
X97180825Y-166351066D01*
X97180000Y-166114840D01*
X97180000Y-165964240D01*
X98419920Y-165964240D01*
X98419920Y-166379520D01*
X98500937Y-166786819D01*
X98659857Y-167170487D01*
X98890574Y-167515779D01*
X99184221Y-167809426D01*
X99529513Y-168040143D01*
X99913181Y-168199063D01*
X100320480Y-168280080D01*
X100735760Y-168280080D01*
X101143059Y-168199063D01*
X101526727Y-168040143D01*
X101872019Y-167809426D01*
X102165666Y-167515779D01*
X102396383Y-167170487D01*
X102555303Y-166786819D01*
X102636320Y-166379520D01*
X102636320Y-165964240D01*
X102555303Y-165556941D01*
X102396383Y-165173273D01*
X102165666Y-164827981D01*
X101872019Y-164534334D01*
X101526727Y-164303617D01*
X101143059Y-164144697D01*
X100735760Y-164063680D01*
X100320480Y-164063680D01*
X99913181Y-164144697D01*
X99529513Y-164303617D01*
X99184221Y-164534334D01*
X98890574Y-164827981D01*
X98659857Y-165173273D01*
X98500937Y-165556941D01*
X98419920Y-165964240D01*
X97180000Y-165964240D01*
X97180000Y-155881853D01*
X167767000Y-155881853D01*
X167767000Y-157808147D01*
X168142802Y-159697429D01*
X168879963Y-161477093D01*
X169950155Y-163078749D01*
X171312251Y-164440845D01*
X172913907Y-165511037D01*
X174693571Y-166248198D01*
X176582853Y-166624000D01*
X178509147Y-166624000D01*
X180398429Y-166248198D01*
X181083964Y-165964240D01*
X232643680Y-165964240D01*
X232643680Y-166379520D01*
X232724697Y-166786819D01*
X232883617Y-167170487D01*
X233114334Y-167515779D01*
X233407981Y-167809426D01*
X233753273Y-168040143D01*
X234136941Y-168199063D01*
X234544240Y-168280080D01*
X234959520Y-168280080D01*
X235366819Y-168199063D01*
X235750487Y-168040143D01*
X236095779Y-167809426D01*
X236389426Y-167515779D01*
X236620143Y-167170487D01*
X236779063Y-166786819D01*
X236860080Y-166379520D01*
X236860080Y-165964240D01*
X236779063Y-165556941D01*
X236620143Y-165173273D01*
X236389426Y-164827981D01*
X236095779Y-164534334D01*
X235750487Y-164303617D01*
X235366819Y-164144697D01*
X234959520Y-164063680D01*
X234544240Y-164063680D01*
X234136941Y-164144697D01*
X233753273Y-164303617D01*
X233407981Y-164534334D01*
X233114334Y-164827981D01*
X232883617Y-165173273D01*
X232724697Y-165556941D01*
X232643680Y-165964240D01*
X181083964Y-165964240D01*
X182178093Y-165511037D01*
X183779749Y-164440845D01*
X185141845Y-163078749D01*
X186212037Y-161477093D01*
X186949198Y-159697429D01*
X187325000Y-157808147D01*
X187325000Y-155881853D01*
X186949198Y-153992571D01*
X186212037Y-152212907D01*
X185141845Y-150611251D01*
X183779749Y-149249155D01*
X182178093Y-148178963D01*
X180398429Y-147441802D01*
X178509147Y-147066000D01*
X176582853Y-147066000D01*
X174693571Y-147441802D01*
X172913907Y-148178963D01*
X171312251Y-149249155D01*
X169950155Y-150611251D01*
X168879963Y-152212907D01*
X168142802Y-153992571D01*
X167767000Y-155881853D01*
X97180000Y-155881853D01*
X97180000Y-140895615D01*
X144640300Y-140895615D01*
X144640300Y-141298385D01*
X144718877Y-141693417D01*
X144873011Y-142065528D01*
X145096778Y-142400420D01*
X145381580Y-142685222D01*
X145716472Y-142908989D01*
X146088583Y-143063123D01*
X146483615Y-143141700D01*
X146886385Y-143141700D01*
X147281417Y-143063123D01*
X147653528Y-142908989D01*
X147988420Y-142685222D01*
X148273222Y-142400420D01*
X148399500Y-142211431D01*
X148525778Y-142400420D01*
X148810580Y-142685222D01*
X149145472Y-142908989D01*
X149517583Y-143063123D01*
X149912615Y-143141700D01*
X150315385Y-143141700D01*
X150710417Y-143063123D01*
X151082528Y-142908989D01*
X151417420Y-142685222D01*
X151702222Y-142400420D01*
X151925989Y-142065528D01*
X152080123Y-141693417D01*
X152158700Y-141298385D01*
X152158700Y-140895615D01*
X152133439Y-140768615D01*
X182867300Y-140768615D01*
X182867300Y-141171385D01*
X182945877Y-141566417D01*
X183100011Y-141938528D01*
X183323778Y-142273420D01*
X183608580Y-142558222D01*
X183943472Y-142781989D01*
X184315583Y-142936123D01*
X184710615Y-143014700D01*
X185113385Y-143014700D01*
X185508417Y-142936123D01*
X185880528Y-142781989D01*
X186215420Y-142558222D01*
X186500222Y-142273420D01*
X186626500Y-142084431D01*
X186752778Y-142273420D01*
X187037580Y-142558222D01*
X187372472Y-142781989D01*
X187744583Y-142936123D01*
X188139615Y-143014700D01*
X188542385Y-143014700D01*
X188937417Y-142936123D01*
X189309528Y-142781989D01*
X189644420Y-142558222D01*
X189929222Y-142273420D01*
X190152989Y-141938528D01*
X190307123Y-141566417D01*
X190385700Y-141171385D01*
X190385700Y-140768615D01*
X190307123Y-140373583D01*
X190152989Y-140001472D01*
X189929222Y-139666580D01*
X189644420Y-139381778D01*
X189309528Y-139158011D01*
X188937417Y-139003877D01*
X188542385Y-138925300D01*
X188139615Y-138925300D01*
X187744583Y-139003877D01*
X187372472Y-139158011D01*
X187037580Y-139381778D01*
X186752778Y-139666580D01*
X186626500Y-139855569D01*
X186500222Y-139666580D01*
X186215420Y-139381778D01*
X185880528Y-139158011D01*
X185508417Y-139003877D01*
X185113385Y-138925300D01*
X184710615Y-138925300D01*
X184315583Y-139003877D01*
X183943472Y-139158011D01*
X183608580Y-139381778D01*
X183323778Y-139666580D01*
X183100011Y-140001472D01*
X182945877Y-140373583D01*
X182867300Y-140768615D01*
X152133439Y-140768615D01*
X152080123Y-140500583D01*
X151925989Y-140128472D01*
X151702222Y-139793580D01*
X151417420Y-139508778D01*
X151082528Y-139285011D01*
X150710417Y-139130877D01*
X150315385Y-139052300D01*
X149912615Y-139052300D01*
X149517583Y-139130877D01*
X149145472Y-139285011D01*
X148810580Y-139508778D01*
X148525778Y-139793580D01*
X148399500Y-139982569D01*
X148273222Y-139793580D01*
X147988420Y-139508778D01*
X147653528Y-139285011D01*
X147281417Y-139130877D01*
X146886385Y-139052300D01*
X146483615Y-139052300D01*
X146088583Y-139130877D01*
X145716472Y-139285011D01*
X145381580Y-139508778D01*
X145096778Y-139793580D01*
X144873011Y-140128472D01*
X144718877Y-140500583D01*
X144640300Y-140895615D01*
X97180000Y-140895615D01*
X97180000Y-127957290D01*
X111506000Y-127957290D01*
X111506000Y-128582710D01*
X111628014Y-129196113D01*
X111867352Y-129773926D01*
X112214817Y-130293944D01*
X112657056Y-130736183D01*
X113177074Y-131083648D01*
X113754887Y-131322986D01*
X114368290Y-131445000D01*
X114993710Y-131445000D01*
X115607113Y-131322986D01*
X116184926Y-131083648D01*
X116704944Y-130736183D01*
X117147183Y-130293944D01*
X117494648Y-129773926D01*
X117733986Y-129196113D01*
X117856000Y-128582710D01*
X117856000Y-127957290D01*
X117733986Y-127343887D01*
X117494648Y-126766074D01*
X117147183Y-126246056D01*
X116704944Y-125803817D01*
X116184926Y-125456352D01*
X115607113Y-125217014D01*
X114993710Y-125095000D01*
X114368290Y-125095000D01*
X113754887Y-125217014D01*
X113177074Y-125456352D01*
X112657056Y-125803817D01*
X112214817Y-126246056D01*
X111867352Y-126766074D01*
X111628014Y-127343887D01*
X111506000Y-127957290D01*
X97180000Y-127957290D01*
X97180000Y-119609240D01*
X98419920Y-119609240D01*
X98419920Y-120024520D01*
X98500937Y-120431819D01*
X98659857Y-120815487D01*
X98890574Y-121160779D01*
X99184221Y-121454426D01*
X99529513Y-121685143D01*
X99913181Y-121844063D01*
X100320480Y-121925080D01*
X100735760Y-121925080D01*
X101143059Y-121844063D01*
X101526727Y-121685143D01*
X101872019Y-121454426D01*
X102165666Y-121160779D01*
X102396383Y-120815487D01*
X102555303Y-120431819D01*
X102636320Y-120024520D01*
X102636320Y-119609240D01*
X102555303Y-119201941D01*
X102396383Y-118818273D01*
X102165666Y-118472981D01*
X101872019Y-118179334D01*
X101526727Y-117948617D01*
X101143059Y-117789697D01*
X100735760Y-117708680D01*
X100320480Y-117708680D01*
X99913181Y-117789697D01*
X99529513Y-117948617D01*
X99184221Y-118179334D01*
X98890574Y-118472981D01*
X98659857Y-118818273D01*
X98500937Y-119201941D01*
X98419920Y-119609240D01*
X97180000Y-119609240D01*
X97180000Y-106621290D01*
X111506000Y-106621290D01*
X111506000Y-107246710D01*
X111628014Y-107860113D01*
X111867352Y-108437926D01*
X112214817Y-108957944D01*
X112657056Y-109400183D01*
X113177074Y-109747648D01*
X113754887Y-109986986D01*
X114368290Y-110109000D01*
X114993710Y-110109000D01*
X115607113Y-109986986D01*
X116184926Y-109747648D01*
X116704944Y-109400183D01*
X117147183Y-108957944D01*
X117494648Y-108437926D01*
X117733986Y-107860113D01*
X117856000Y-107246710D01*
X117856000Y-106621290D01*
X117733986Y-106007887D01*
X117494648Y-105430074D01*
X117147183Y-104910056D01*
X116704944Y-104467817D01*
X116184926Y-104120352D01*
X115607113Y-103881014D01*
X114993710Y-103759000D01*
X114368290Y-103759000D01*
X113754887Y-103881014D01*
X113177074Y-104120352D01*
X112657056Y-104467817D01*
X112214817Y-104910056D01*
X111867352Y-105430074D01*
X111628014Y-106007887D01*
X111506000Y-106621290D01*
X97180000Y-106621290D01*
X97180000Y-85793290D01*
X111506000Y-85793290D01*
X111506000Y-86418710D01*
X111628014Y-87032113D01*
X111867352Y-87609926D01*
X112214817Y-88129944D01*
X112657056Y-88572183D01*
X113177074Y-88919648D01*
X113754887Y-89158986D01*
X114368290Y-89281000D01*
X114993710Y-89281000D01*
X115607113Y-89158986D01*
X116184926Y-88919648D01*
X116704944Y-88572183D01*
X117147183Y-88129944D01*
X117494648Y-87609926D01*
X117733986Y-87032113D01*
X117856000Y-86418710D01*
X117856000Y-85793290D01*
X117733986Y-85179887D01*
X117494648Y-84602074D01*
X117147183Y-84082056D01*
X116704944Y-83639817D01*
X116184926Y-83292352D01*
X115607113Y-83053014D01*
X114993710Y-82931000D01*
X114368290Y-82931000D01*
X113754887Y-83053014D01*
X113177074Y-83292352D01*
X112657056Y-83639817D01*
X112214817Y-84082056D01*
X111867352Y-84602074D01*
X111628014Y-85179887D01*
X111506000Y-85793290D01*
X97180000Y-85793290D01*
X97180000Y-76190480D01*
X98419920Y-76190480D01*
X98419920Y-76605760D01*
X98500937Y-77013059D01*
X98659857Y-77396727D01*
X98890574Y-77742019D01*
X99184221Y-78035666D01*
X99529513Y-78266383D01*
X99913181Y-78425303D01*
X100320480Y-78506320D01*
X100735760Y-78506320D01*
X101143059Y-78425303D01*
X101526727Y-78266383D01*
X101872019Y-78035666D01*
X102165666Y-77742019D01*
X102396383Y-77396727D01*
X102555303Y-77013059D01*
X102636320Y-76605760D01*
X102636320Y-76190480D01*
X102555303Y-75783181D01*
X102396383Y-75399513D01*
X102165666Y-75054221D01*
X101872019Y-74760574D01*
X101526727Y-74529857D01*
X101143059Y-74370937D01*
X100735760Y-74289920D01*
X100320480Y-74289920D01*
X99913181Y-74370937D01*
X99529513Y-74529857D01*
X99184221Y-74760574D01*
X98890574Y-75054221D01*
X98659857Y-75399513D01*
X98500937Y-75783181D01*
X98419920Y-76190480D01*
X97180000Y-76190480D01*
X97180000Y-65219290D01*
X111506000Y-65219290D01*
X111506000Y-65844710D01*
X111628014Y-66458113D01*
X111867352Y-67035926D01*
X112214817Y-67555944D01*
X112657056Y-67998183D01*
X113177074Y-68345648D01*
X113754887Y-68584986D01*
X114368290Y-68707000D01*
X114993710Y-68707000D01*
X115607113Y-68584986D01*
X116184926Y-68345648D01*
X116704944Y-67998183D01*
X117147183Y-67555944D01*
X117494648Y-67035926D01*
X117733986Y-66458113D01*
X117856000Y-65844710D01*
X117856000Y-65219290D01*
X117733986Y-64605887D01*
X117494648Y-64028074D01*
X117147183Y-63508056D01*
X116704944Y-63065817D01*
X116184926Y-62718352D01*
X115607113Y-62479014D01*
X114993710Y-62357000D01*
X114368290Y-62357000D01*
X113754887Y-62479014D01*
X113177074Y-62718352D01*
X112657056Y-63065817D01*
X112214817Y-63508056D01*
X111867352Y-64028074D01*
X111628014Y-64605887D01*
X111506000Y-65219290D01*
X97180000Y-65219290D01*
X97180000Y-56413061D01*
X119615000Y-56413061D01*
X119615000Y-56616939D01*
X119654774Y-56816898D01*
X119732795Y-57005256D01*
X119846063Y-57174774D01*
X119990226Y-57318937D01*
X120159744Y-57432205D01*
X120348102Y-57510226D01*
X120548061Y-57550000D01*
X120751939Y-57550000D01*
X120847459Y-57531000D01*
X138684001Y-57531000D01*
X138684000Y-75515098D01*
X138684000Y-75779160D01*
X138644160Y-75819000D01*
X120847459Y-75819000D01*
X120751939Y-75800000D01*
X120548061Y-75800000D01*
X120348102Y-75839774D01*
X120159744Y-75917795D01*
X119990226Y-76031063D01*
X119846063Y-76175226D01*
X119732795Y-76344744D01*
X119654774Y-76533102D01*
X119615000Y-76733061D01*
X119615000Y-76936939D01*
X119654774Y-77136898D01*
X119732795Y-77325256D01*
X119846063Y-77494774D01*
X119990226Y-77638937D01*
X120159744Y-77752205D01*
X120348102Y-77830226D01*
X120548061Y-77870000D01*
X120751939Y-77870000D01*
X120847459Y-77851000D01*
X138684001Y-77851000D01*
X138684000Y-96099160D01*
X138644160Y-96139000D01*
X120847459Y-96139000D01*
X120751939Y-96120000D01*
X120548061Y-96120000D01*
X120348102Y-96159774D01*
X120159744Y-96237795D01*
X119990226Y-96351063D01*
X119846063Y-96495226D01*
X119732795Y-96664744D01*
X119654774Y-96853102D01*
X119615000Y-97053061D01*
X119615000Y-97256939D01*
X119654774Y-97456898D01*
X119732795Y-97645256D01*
X119846063Y-97814774D01*
X119990226Y-97958937D01*
X120159744Y-98072205D01*
X120348102Y-98150226D01*
X120548061Y-98190000D01*
X120751939Y-98190000D01*
X120847459Y-98171000D01*
X138684001Y-98171000D01*
X138684000Y-117054160D01*
X138644160Y-117094000D01*
X120847459Y-117094000D01*
X120751939Y-117075000D01*
X120548061Y-117075000D01*
X120348102Y-117114774D01*
X120159744Y-117192795D01*
X119990226Y-117306063D01*
X119846063Y-117450226D01*
X119732795Y-117619744D01*
X119654774Y-117808102D01*
X119615000Y-118008061D01*
X119615000Y-118211939D01*
X119654774Y-118411898D01*
X119732795Y-118600256D01*
X119846063Y-118769774D01*
X119990226Y-118913937D01*
X120159744Y-119027205D01*
X120348102Y-119105226D01*
X120548061Y-119145000D01*
X120751939Y-119145000D01*
X120847459Y-119126000D01*
X138684001Y-119126000D01*
X138684000Y-138009160D01*
X138644160Y-138049000D01*
X120847459Y-138049000D01*
X120751939Y-138030000D01*
X120548061Y-138030000D01*
X120348102Y-138069774D01*
X120159744Y-138147795D01*
X119990226Y-138261063D01*
X119846063Y-138405226D01*
X119732795Y-138574744D01*
X119654774Y-138763102D01*
X119615000Y-138963061D01*
X119615000Y-139166939D01*
X119654774Y-139366898D01*
X119732795Y-139555256D01*
X119846063Y-139724774D01*
X119990226Y-139868937D01*
X120159744Y-139982205D01*
X120348102Y-140060226D01*
X120548061Y-140100000D01*
X120751939Y-140100000D01*
X120847459Y-140081000D01*
X139015098Y-140081000D01*
X139065000Y-140085915D01*
X139114902Y-140081000D01*
X139264171Y-140066298D01*
X139455687Y-140008202D01*
X139632190Y-139913860D01*
X139786896Y-139786896D01*
X139818713Y-139748127D01*
X140383127Y-139183713D01*
X140421896Y-139151896D01*
X140548860Y-138997190D01*
X140643202Y-138820687D01*
X140701298Y-138629171D01*
X140716000Y-138479902D01*
X140716000Y-138479901D01*
X140720915Y-138430000D01*
X140716000Y-138380098D01*
X140716000Y-130880000D01*
X174691928Y-130880000D01*
X174691928Y-133280000D01*
X174704188Y-133404482D01*
X174740498Y-133524180D01*
X174799463Y-133634494D01*
X174878815Y-133731185D01*
X174975506Y-133810537D01*
X175085820Y-133869502D01*
X175205518Y-133905812D01*
X175330000Y-133918072D01*
X177730000Y-133918072D01*
X177854482Y-133905812D01*
X177974180Y-133869502D01*
X178084494Y-133810537D01*
X178181185Y-133731185D01*
X178260537Y-133634494D01*
X178319502Y-133524180D01*
X178355812Y-133404482D01*
X178368072Y-133280000D01*
X178368072Y-130880000D01*
X178355812Y-130755518D01*
X178319502Y-130635820D01*
X178260537Y-130525506D01*
X178181185Y-130428815D01*
X178084494Y-130349463D01*
X177974180Y-130290498D01*
X177854482Y-130254188D01*
X177730000Y-130241928D01*
X175330000Y-130241928D01*
X175205518Y-130254188D01*
X175085820Y-130290498D01*
X174975506Y-130349463D01*
X174878815Y-130428815D01*
X174799463Y-130525506D01*
X174740498Y-130635820D01*
X174704188Y-130755518D01*
X174691928Y-130880000D01*
X140716000Y-130880000D01*
X140716000Y-128294468D01*
X140801063Y-128421774D01*
X140945226Y-128565937D01*
X141114744Y-128679205D01*
X141303102Y-128757226D01*
X141503061Y-128797000D01*
X141706939Y-128797000D01*
X141906898Y-128757226D01*
X142095256Y-128679205D01*
X142264774Y-128565937D01*
X142408937Y-128421774D01*
X142522205Y-128252256D01*
X142600226Y-128063898D01*
X142640000Y-127863939D01*
X142640000Y-127660061D01*
X142621000Y-127564541D01*
X142621000Y-127433615D01*
X144640300Y-127433615D01*
X144640300Y-127836385D01*
X144718877Y-128231417D01*
X144873011Y-128603528D01*
X145096778Y-128938420D01*
X145381580Y-129223222D01*
X145716472Y-129446989D01*
X146088583Y-129601123D01*
X146483615Y-129679700D01*
X146886385Y-129679700D01*
X147281417Y-129601123D01*
X147653528Y-129446989D01*
X147988420Y-129223222D01*
X148273222Y-128938420D01*
X148399500Y-128749431D01*
X148525778Y-128938420D01*
X148810580Y-129223222D01*
X149145472Y-129446989D01*
X149517583Y-129601123D01*
X149912615Y-129679700D01*
X150315385Y-129679700D01*
X150710417Y-129601123D01*
X151082528Y-129446989D01*
X151417420Y-129223222D01*
X151702222Y-128938420D01*
X151925989Y-128603528D01*
X152080123Y-128231417D01*
X152158700Y-127836385D01*
X152158700Y-127433615D01*
X152133439Y-127306615D01*
X182867300Y-127306615D01*
X182867300Y-127709385D01*
X182945877Y-128104417D01*
X183100011Y-128476528D01*
X183323778Y-128811420D01*
X183608580Y-129096222D01*
X183943472Y-129319989D01*
X184315583Y-129474123D01*
X184710615Y-129552700D01*
X185113385Y-129552700D01*
X185508417Y-129474123D01*
X185880528Y-129319989D01*
X186215420Y-129096222D01*
X186500222Y-128811420D01*
X186626500Y-128622431D01*
X186752778Y-128811420D01*
X187037580Y-129096222D01*
X187372472Y-129319989D01*
X187744583Y-129474123D01*
X188139615Y-129552700D01*
X188542385Y-129552700D01*
X188937417Y-129474123D01*
X189309528Y-129319989D01*
X189644420Y-129096222D01*
X189929222Y-128811420D01*
X190152989Y-128476528D01*
X190307123Y-128104417D01*
X190385700Y-127709385D01*
X190385700Y-127306615D01*
X190307123Y-126911583D01*
X190152989Y-126539472D01*
X189929222Y-126204580D01*
X189644420Y-125919778D01*
X189309528Y-125696011D01*
X188937417Y-125541877D01*
X188542385Y-125463300D01*
X188139615Y-125463300D01*
X187744583Y-125541877D01*
X187372472Y-125696011D01*
X187037580Y-125919778D01*
X186752778Y-126204580D01*
X186626500Y-126393569D01*
X186500222Y-126204580D01*
X186215420Y-125919778D01*
X185880528Y-125696011D01*
X185508417Y-125541877D01*
X185113385Y-125463300D01*
X184710615Y-125463300D01*
X184315583Y-125541877D01*
X183943472Y-125696011D01*
X183608580Y-125919778D01*
X183323778Y-126204580D01*
X183100011Y-126539472D01*
X182945877Y-126911583D01*
X182867300Y-127306615D01*
X152133439Y-127306615D01*
X152080123Y-127038583D01*
X151925989Y-126666472D01*
X151702222Y-126331580D01*
X151417420Y-126046778D01*
X151082528Y-125823011D01*
X150710417Y-125668877D01*
X150315385Y-125590300D01*
X149912615Y-125590300D01*
X149517583Y-125668877D01*
X149145472Y-125823011D01*
X148810580Y-126046778D01*
X148525778Y-126331580D01*
X148399500Y-126520569D01*
X148273222Y-126331580D01*
X147988420Y-126046778D01*
X147653528Y-125823011D01*
X147281417Y-125668877D01*
X146886385Y-125590300D01*
X146483615Y-125590300D01*
X146088583Y-125668877D01*
X145716472Y-125823011D01*
X145381580Y-126046778D01*
X145096778Y-126331580D01*
X144873011Y-126666472D01*
X144718877Y-127038583D01*
X144640300Y-127433615D01*
X142621000Y-127433615D01*
X142621000Y-119559615D01*
X144640300Y-119559615D01*
X144640300Y-119962385D01*
X144718877Y-120357417D01*
X144873011Y-120729528D01*
X145096778Y-121064420D01*
X145381580Y-121349222D01*
X145716472Y-121572989D01*
X146088583Y-121727123D01*
X146483615Y-121805700D01*
X146886385Y-121805700D01*
X147281417Y-121727123D01*
X147653528Y-121572989D01*
X147988420Y-121349222D01*
X148273222Y-121064420D01*
X148399500Y-120875431D01*
X148525778Y-121064420D01*
X148810580Y-121349222D01*
X149145472Y-121572989D01*
X149517583Y-121727123D01*
X149912615Y-121805700D01*
X150315385Y-121805700D01*
X150710417Y-121727123D01*
X151082528Y-121572989D01*
X151417420Y-121349222D01*
X151702222Y-121064420D01*
X151925989Y-120729528D01*
X152080123Y-120357417D01*
X152158700Y-119962385D01*
X152158700Y-119559615D01*
X152080123Y-119164583D01*
X151935321Y-118815000D01*
X156911928Y-118815000D01*
X156911928Y-121215000D01*
X156924188Y-121339482D01*
X156960498Y-121459180D01*
X157019463Y-121569494D01*
X157098815Y-121666185D01*
X157195506Y-121745537D01*
X157305820Y-121804502D01*
X157425518Y-121840812D01*
X157550000Y-121853072D01*
X159950000Y-121853072D01*
X160074482Y-121840812D01*
X160194180Y-121804502D01*
X160304494Y-121745537D01*
X160401185Y-121666185D01*
X160480537Y-121569494D01*
X160539502Y-121459180D01*
X160575812Y-121339482D01*
X160588072Y-121215000D01*
X160588072Y-119432615D01*
X182867300Y-119432615D01*
X182867300Y-119835385D01*
X182945877Y-120230417D01*
X183100011Y-120602528D01*
X183323778Y-120937420D01*
X183608580Y-121222222D01*
X183943472Y-121445989D01*
X184315583Y-121600123D01*
X184710615Y-121678700D01*
X185113385Y-121678700D01*
X185508417Y-121600123D01*
X185880528Y-121445989D01*
X186215420Y-121222222D01*
X186500222Y-120937420D01*
X186626500Y-120748431D01*
X186752778Y-120937420D01*
X187037580Y-121222222D01*
X187372472Y-121445989D01*
X187744583Y-121600123D01*
X188139615Y-121678700D01*
X188542385Y-121678700D01*
X188937417Y-121600123D01*
X189309528Y-121445989D01*
X189644420Y-121222222D01*
X189929222Y-120937420D01*
X190152989Y-120602528D01*
X190307123Y-120230417D01*
X190385700Y-119835385D01*
X190385700Y-119432615D01*
X190307123Y-119037583D01*
X190152989Y-118665472D01*
X189929222Y-118330580D01*
X189644420Y-118045778D01*
X189309528Y-117822011D01*
X188937417Y-117667877D01*
X188542385Y-117589300D01*
X188139615Y-117589300D01*
X187744583Y-117667877D01*
X187372472Y-117822011D01*
X187037580Y-118045778D01*
X186752778Y-118330580D01*
X186626500Y-118519569D01*
X186500222Y-118330580D01*
X186215420Y-118045778D01*
X185880528Y-117822011D01*
X185508417Y-117667877D01*
X185113385Y-117589300D01*
X184710615Y-117589300D01*
X184315583Y-117667877D01*
X183943472Y-117822011D01*
X183608580Y-118045778D01*
X183323778Y-118330580D01*
X183100011Y-118665472D01*
X182945877Y-119037583D01*
X182867300Y-119432615D01*
X160588072Y-119432615D01*
X160588072Y-118815000D01*
X160575812Y-118690518D01*
X160539502Y-118570820D01*
X160480537Y-118460506D01*
X160401185Y-118363815D01*
X160304494Y-118284463D01*
X160194180Y-118225498D01*
X160074482Y-118189188D01*
X159950000Y-118176928D01*
X157550000Y-118176928D01*
X157425518Y-118189188D01*
X157305820Y-118225498D01*
X157195506Y-118284463D01*
X157098815Y-118363815D01*
X157019463Y-118460506D01*
X156960498Y-118570820D01*
X156924188Y-118690518D01*
X156911928Y-118815000D01*
X151935321Y-118815000D01*
X151925989Y-118792472D01*
X151702222Y-118457580D01*
X151417420Y-118172778D01*
X151082528Y-117949011D01*
X150710417Y-117794877D01*
X150315385Y-117716300D01*
X149912615Y-117716300D01*
X149517583Y-117794877D01*
X149145472Y-117949011D01*
X148810580Y-118172778D01*
X148525778Y-118457580D01*
X148399500Y-118646569D01*
X148273222Y-118457580D01*
X147988420Y-118172778D01*
X147653528Y-117949011D01*
X147281417Y-117794877D01*
X146886385Y-117716300D01*
X146483615Y-117716300D01*
X146088583Y-117794877D01*
X145716472Y-117949011D01*
X145381580Y-118172778D01*
X145096778Y-118457580D01*
X144873011Y-118792472D01*
X144718877Y-119164583D01*
X144640300Y-119559615D01*
X142621000Y-119559615D01*
X142621000Y-106369459D01*
X142640000Y-106273939D01*
X142640000Y-106097615D01*
X144640300Y-106097615D01*
X144640300Y-106500385D01*
X144718877Y-106895417D01*
X144873011Y-107267528D01*
X145096778Y-107602420D01*
X145381580Y-107887222D01*
X145716472Y-108110989D01*
X146088583Y-108265123D01*
X146483615Y-108343700D01*
X146886385Y-108343700D01*
X147281417Y-108265123D01*
X147653528Y-108110989D01*
X147988420Y-107887222D01*
X148273222Y-107602420D01*
X148399500Y-107413431D01*
X148525778Y-107602420D01*
X148810580Y-107887222D01*
X149145472Y-108110989D01*
X149517583Y-108265123D01*
X149912615Y-108343700D01*
X150315385Y-108343700D01*
X150710417Y-108265123D01*
X151082528Y-108110989D01*
X151417420Y-107887222D01*
X151702222Y-107602420D01*
X151847496Y-107385000D01*
X174691928Y-107385000D01*
X174691928Y-109785000D01*
X174704188Y-109909482D01*
X174740498Y-110029180D01*
X174799463Y-110139494D01*
X174878815Y-110236185D01*
X174975506Y-110315537D01*
X175085820Y-110374502D01*
X175205518Y-110410812D01*
X175330000Y-110423072D01*
X177730000Y-110423072D01*
X177854482Y-110410812D01*
X177974180Y-110374502D01*
X178084494Y-110315537D01*
X178181185Y-110236185D01*
X178260537Y-110139494D01*
X178319502Y-110029180D01*
X178355812Y-109909482D01*
X178368072Y-109785000D01*
X178368072Y-107385000D01*
X178355812Y-107260518D01*
X178319502Y-107140820D01*
X178260537Y-107030506D01*
X178181185Y-106933815D01*
X178084494Y-106854463D01*
X177974180Y-106795498D01*
X177854482Y-106759188D01*
X177730000Y-106746928D01*
X175330000Y-106746928D01*
X175205518Y-106759188D01*
X175085820Y-106795498D01*
X174975506Y-106854463D01*
X174878815Y-106933815D01*
X174799463Y-107030506D01*
X174740498Y-107140820D01*
X174704188Y-107260518D01*
X174691928Y-107385000D01*
X151847496Y-107385000D01*
X151925989Y-107267528D01*
X152080123Y-106895417D01*
X152158700Y-106500385D01*
X152158700Y-106097615D01*
X152133439Y-105970615D01*
X182867300Y-105970615D01*
X182867300Y-106373385D01*
X182945877Y-106768417D01*
X183100011Y-107140528D01*
X183323778Y-107475420D01*
X183608580Y-107760222D01*
X183943472Y-107983989D01*
X184315583Y-108138123D01*
X184710615Y-108216700D01*
X185113385Y-108216700D01*
X185508417Y-108138123D01*
X185880528Y-107983989D01*
X186215420Y-107760222D01*
X186500222Y-107475420D01*
X186626500Y-107286431D01*
X186752778Y-107475420D01*
X187037580Y-107760222D01*
X187372472Y-107983989D01*
X187744583Y-108138123D01*
X188139615Y-108216700D01*
X188542385Y-108216700D01*
X188937417Y-108138123D01*
X189309528Y-107983989D01*
X189644420Y-107760222D01*
X189929222Y-107475420D01*
X190152989Y-107140528D01*
X190307123Y-106768417D01*
X190385700Y-106373385D01*
X190385700Y-105970615D01*
X190307123Y-105575583D01*
X190152989Y-105203472D01*
X189929222Y-104868580D01*
X189644420Y-104583778D01*
X189309528Y-104360011D01*
X188937417Y-104205877D01*
X188542385Y-104127300D01*
X188139615Y-104127300D01*
X187744583Y-104205877D01*
X187372472Y-104360011D01*
X187037580Y-104583778D01*
X186752778Y-104868580D01*
X186626500Y-105057569D01*
X186500222Y-104868580D01*
X186215420Y-104583778D01*
X185880528Y-104360011D01*
X185508417Y-104205877D01*
X185113385Y-104127300D01*
X184710615Y-104127300D01*
X184315583Y-104205877D01*
X183943472Y-104360011D01*
X183608580Y-104583778D01*
X183323778Y-104868580D01*
X183100011Y-105203472D01*
X182945877Y-105575583D01*
X182867300Y-105970615D01*
X152133439Y-105970615D01*
X152080123Y-105702583D01*
X151925989Y-105330472D01*
X151702222Y-104995580D01*
X151417420Y-104710778D01*
X151082528Y-104487011D01*
X150710417Y-104332877D01*
X150315385Y-104254300D01*
X149912615Y-104254300D01*
X149517583Y-104332877D01*
X149145472Y-104487011D01*
X148810580Y-104710778D01*
X148525778Y-104995580D01*
X148399500Y-105184569D01*
X148273222Y-104995580D01*
X147988420Y-104710778D01*
X147653528Y-104487011D01*
X147281417Y-104332877D01*
X146886385Y-104254300D01*
X146483615Y-104254300D01*
X146088583Y-104332877D01*
X145716472Y-104487011D01*
X145381580Y-104710778D01*
X145096778Y-104995580D01*
X144873011Y-105330472D01*
X144718877Y-105702583D01*
X144640300Y-106097615D01*
X142640000Y-106097615D01*
X142640000Y-106070061D01*
X142621000Y-105974541D01*
X142621000Y-98731615D01*
X144640300Y-98731615D01*
X144640300Y-99134385D01*
X144718877Y-99529417D01*
X144873011Y-99901528D01*
X145096778Y-100236420D01*
X145381580Y-100521222D01*
X145716472Y-100744989D01*
X146088583Y-100899123D01*
X146483615Y-100977700D01*
X146886385Y-100977700D01*
X147281417Y-100899123D01*
X147653528Y-100744989D01*
X147988420Y-100521222D01*
X148273222Y-100236420D01*
X148399500Y-100047431D01*
X148525778Y-100236420D01*
X148810580Y-100521222D01*
X149145472Y-100744989D01*
X149517583Y-100899123D01*
X149912615Y-100977700D01*
X150315385Y-100977700D01*
X150710417Y-100899123D01*
X151082528Y-100744989D01*
X151417420Y-100521222D01*
X151702222Y-100236420D01*
X151925989Y-99901528D01*
X152080123Y-99529417D01*
X152158700Y-99134385D01*
X152158700Y-98858615D01*
X182867300Y-98858615D01*
X182867300Y-99261385D01*
X182945877Y-99656417D01*
X183100011Y-100028528D01*
X183323778Y-100363420D01*
X183608580Y-100648222D01*
X183943472Y-100871989D01*
X184315583Y-101026123D01*
X184710615Y-101104700D01*
X185113385Y-101104700D01*
X185508417Y-101026123D01*
X185880528Y-100871989D01*
X186215420Y-100648222D01*
X186500222Y-100363420D01*
X186626500Y-100174431D01*
X186752778Y-100363420D01*
X187037580Y-100648222D01*
X187372472Y-100871989D01*
X187744583Y-101026123D01*
X188139615Y-101104700D01*
X188542385Y-101104700D01*
X188937417Y-101026123D01*
X189309528Y-100871989D01*
X189644420Y-100648222D01*
X189929222Y-100363420D01*
X190152989Y-100028528D01*
X190307123Y-99656417D01*
X190385700Y-99261385D01*
X190385700Y-98858615D01*
X190307123Y-98463583D01*
X190152989Y-98091472D01*
X189929222Y-97756580D01*
X189644420Y-97471778D01*
X189309528Y-97248011D01*
X188937417Y-97093877D01*
X188542385Y-97015300D01*
X188139615Y-97015300D01*
X187744583Y-97093877D01*
X187372472Y-97248011D01*
X187037580Y-97471778D01*
X186752778Y-97756580D01*
X186626500Y-97945569D01*
X186500222Y-97756580D01*
X186215420Y-97471778D01*
X185880528Y-97248011D01*
X185508417Y-97093877D01*
X185113385Y-97015300D01*
X184710615Y-97015300D01*
X184315583Y-97093877D01*
X183943472Y-97248011D01*
X183608580Y-97471778D01*
X183323778Y-97756580D01*
X183100011Y-98091472D01*
X182945877Y-98463583D01*
X182867300Y-98858615D01*
X152158700Y-98858615D01*
X152158700Y-98731615D01*
X152080123Y-98336583D01*
X151925989Y-97964472D01*
X151702222Y-97629580D01*
X151417420Y-97344778D01*
X151082528Y-97121011D01*
X150710417Y-96966877D01*
X150315385Y-96888300D01*
X149912615Y-96888300D01*
X149517583Y-96966877D01*
X149145472Y-97121011D01*
X148810580Y-97344778D01*
X148525778Y-97629580D01*
X148399500Y-97818569D01*
X148273222Y-97629580D01*
X147988420Y-97344778D01*
X147653528Y-97121011D01*
X147281417Y-96966877D01*
X146886385Y-96888300D01*
X146483615Y-96888300D01*
X146088583Y-96966877D01*
X145716472Y-97121011D01*
X145381580Y-97344778D01*
X145096778Y-97629580D01*
X144873011Y-97964472D01*
X144718877Y-98336583D01*
X144640300Y-98731615D01*
X142621000Y-98731615D01*
X142621000Y-95320000D01*
X156911928Y-95320000D01*
X156911928Y-97720000D01*
X156924188Y-97844482D01*
X156960498Y-97964180D01*
X157019463Y-98074494D01*
X157098815Y-98171185D01*
X157195506Y-98250537D01*
X157305820Y-98309502D01*
X157425518Y-98345812D01*
X157550000Y-98358072D01*
X159950000Y-98358072D01*
X160074482Y-98345812D01*
X160194180Y-98309502D01*
X160304494Y-98250537D01*
X160401185Y-98171185D01*
X160480537Y-98074494D01*
X160539502Y-97964180D01*
X160575812Y-97844482D01*
X160588072Y-97720000D01*
X160588072Y-95320000D01*
X160575812Y-95195518D01*
X160539502Y-95075820D01*
X160480537Y-94965506D01*
X160401185Y-94868815D01*
X160304494Y-94789463D01*
X160194180Y-94730498D01*
X160074482Y-94694188D01*
X159950000Y-94681928D01*
X157550000Y-94681928D01*
X157425518Y-94694188D01*
X157305820Y-94730498D01*
X157195506Y-94789463D01*
X157098815Y-94868815D01*
X157019463Y-94965506D01*
X156960498Y-95075820D01*
X156924188Y-95195518D01*
X156911928Y-95320000D01*
X142621000Y-95320000D01*
X142621000Y-85795459D01*
X142640000Y-85699939D01*
X142640000Y-85496061D01*
X142621000Y-85400541D01*
X142621000Y-85269615D01*
X144640300Y-85269615D01*
X144640300Y-85672385D01*
X144718877Y-86067417D01*
X144873011Y-86439528D01*
X145096778Y-86774420D01*
X145381580Y-87059222D01*
X145716472Y-87282989D01*
X146088583Y-87437123D01*
X146483615Y-87515700D01*
X146886385Y-87515700D01*
X147281417Y-87437123D01*
X147653528Y-87282989D01*
X147988420Y-87059222D01*
X148273222Y-86774420D01*
X148399500Y-86585431D01*
X148525778Y-86774420D01*
X148810580Y-87059222D01*
X149145472Y-87282989D01*
X149517583Y-87437123D01*
X149912615Y-87515700D01*
X150315385Y-87515700D01*
X150710417Y-87437123D01*
X151082528Y-87282989D01*
X151417420Y-87059222D01*
X151702222Y-86774420D01*
X151925989Y-86439528D01*
X152080123Y-86067417D01*
X152158700Y-85672385D01*
X152158700Y-85396615D01*
X182867300Y-85396615D01*
X182867300Y-85799385D01*
X182945877Y-86194417D01*
X183100011Y-86566528D01*
X183323778Y-86901420D01*
X183608580Y-87186222D01*
X183943472Y-87409989D01*
X184315583Y-87564123D01*
X184710615Y-87642700D01*
X185113385Y-87642700D01*
X185508417Y-87564123D01*
X185880528Y-87409989D01*
X186215420Y-87186222D01*
X186500222Y-86901420D01*
X186626500Y-86712431D01*
X186752778Y-86901420D01*
X187037580Y-87186222D01*
X187372472Y-87409989D01*
X187744583Y-87564123D01*
X188139615Y-87642700D01*
X188542385Y-87642700D01*
X188937417Y-87564123D01*
X189309528Y-87409989D01*
X189644420Y-87186222D01*
X189929222Y-86901420D01*
X190152989Y-86566528D01*
X190307123Y-86194417D01*
X190385700Y-85799385D01*
X190385700Y-85396615D01*
X190307123Y-85001583D01*
X190152989Y-84629472D01*
X189929222Y-84294580D01*
X189644420Y-84009778D01*
X189309528Y-83786011D01*
X188937417Y-83631877D01*
X188542385Y-83553300D01*
X188139615Y-83553300D01*
X187744583Y-83631877D01*
X187372472Y-83786011D01*
X187037580Y-84009778D01*
X186752778Y-84294580D01*
X186626500Y-84483569D01*
X186500222Y-84294580D01*
X186215420Y-84009778D01*
X185880528Y-83786011D01*
X185508417Y-83631877D01*
X185113385Y-83553300D01*
X184710615Y-83553300D01*
X184315583Y-83631877D01*
X183943472Y-83786011D01*
X183608580Y-84009778D01*
X183323778Y-84294580D01*
X183100011Y-84629472D01*
X182945877Y-85001583D01*
X182867300Y-85396615D01*
X152158700Y-85396615D01*
X152158700Y-85269615D01*
X152080123Y-84874583D01*
X151925989Y-84502472D01*
X151702222Y-84167580D01*
X151417420Y-83882778D01*
X151082528Y-83659011D01*
X150710417Y-83504877D01*
X150315385Y-83426300D01*
X149912615Y-83426300D01*
X149517583Y-83504877D01*
X149145472Y-83659011D01*
X148810580Y-83882778D01*
X148525778Y-84167580D01*
X148399500Y-84356569D01*
X148273222Y-84167580D01*
X147988420Y-83882778D01*
X147653528Y-83659011D01*
X147281417Y-83504877D01*
X146886385Y-83426300D01*
X146483615Y-83426300D01*
X146088583Y-83504877D01*
X145716472Y-83659011D01*
X145381580Y-83882778D01*
X145096778Y-84167580D01*
X144873011Y-84502472D01*
X144718877Y-84874583D01*
X144640300Y-85269615D01*
X142621000Y-85269615D01*
X142621000Y-78284615D01*
X144640300Y-78284615D01*
X144640300Y-78687385D01*
X144718877Y-79082417D01*
X144873011Y-79454528D01*
X145096778Y-79789420D01*
X145381580Y-80074222D01*
X145716472Y-80297989D01*
X146088583Y-80452123D01*
X146483615Y-80530700D01*
X146886385Y-80530700D01*
X147281417Y-80452123D01*
X147653528Y-80297989D01*
X147988420Y-80074222D01*
X148273222Y-79789420D01*
X148399500Y-79600431D01*
X148525778Y-79789420D01*
X148810580Y-80074222D01*
X149145472Y-80297989D01*
X149517583Y-80452123D01*
X149912615Y-80530700D01*
X150315385Y-80530700D01*
X150710417Y-80452123D01*
X151082528Y-80297989D01*
X151417420Y-80074222D01*
X151702222Y-79789420D01*
X151925989Y-79454528D01*
X152080123Y-79082417D01*
X152158700Y-78687385D01*
X152158700Y-78284615D01*
X152080123Y-77889583D01*
X151925989Y-77517472D01*
X151702222Y-77182580D01*
X151417420Y-76897778D01*
X151082528Y-76674011D01*
X150710417Y-76519877D01*
X150635626Y-76505000D01*
X161591928Y-76505000D01*
X161591928Y-79705000D01*
X161604188Y-79829482D01*
X161640498Y-79949180D01*
X161699463Y-80059494D01*
X161778815Y-80156185D01*
X161875506Y-80235537D01*
X161985820Y-80294502D01*
X162105518Y-80330812D01*
X162230000Y-80343072D01*
X165430000Y-80343072D01*
X165554482Y-80330812D01*
X165674180Y-80294502D01*
X165784494Y-80235537D01*
X165881185Y-80156185D01*
X165960537Y-80059494D01*
X166019502Y-79949180D01*
X166055812Y-79829482D01*
X166068072Y-79705000D01*
X166068072Y-76505000D01*
X168576928Y-76505000D01*
X168576928Y-79705000D01*
X168589188Y-79829482D01*
X168625498Y-79949180D01*
X168684463Y-80059494D01*
X168763815Y-80156185D01*
X168860506Y-80235537D01*
X168970820Y-80294502D01*
X169090518Y-80330812D01*
X169215000Y-80343072D01*
X172415000Y-80343072D01*
X172539482Y-80330812D01*
X172659180Y-80294502D01*
X172769494Y-80235537D01*
X172866185Y-80156185D01*
X172945537Y-80059494D01*
X173004502Y-79949180D01*
X173040812Y-79829482D01*
X173053072Y-79705000D01*
X173053072Y-78411615D01*
X182867300Y-78411615D01*
X182867300Y-78814385D01*
X182945877Y-79209417D01*
X183100011Y-79581528D01*
X183323778Y-79916420D01*
X183608580Y-80201222D01*
X183943472Y-80424989D01*
X184315583Y-80579123D01*
X184710615Y-80657700D01*
X185113385Y-80657700D01*
X185508417Y-80579123D01*
X185880528Y-80424989D01*
X186215420Y-80201222D01*
X186500222Y-79916420D01*
X186626500Y-79727431D01*
X186752778Y-79916420D01*
X187037580Y-80201222D01*
X187372472Y-80424989D01*
X187744583Y-80579123D01*
X188139615Y-80657700D01*
X188542385Y-80657700D01*
X188937417Y-80579123D01*
X189309528Y-80424989D01*
X189644420Y-80201222D01*
X189929222Y-79916420D01*
X190152989Y-79581528D01*
X190307123Y-79209417D01*
X190385700Y-78814385D01*
X190385700Y-78411615D01*
X190307123Y-78016583D01*
X190152989Y-77644472D01*
X189929222Y-77309580D01*
X189644420Y-77024778D01*
X189309528Y-76801011D01*
X188937417Y-76646877D01*
X188542385Y-76568300D01*
X188139615Y-76568300D01*
X187744583Y-76646877D01*
X187372472Y-76801011D01*
X187037580Y-77024778D01*
X186752778Y-77309580D01*
X186626500Y-77498569D01*
X186500222Y-77309580D01*
X186215420Y-77024778D01*
X185880528Y-76801011D01*
X185508417Y-76646877D01*
X185113385Y-76568300D01*
X184710615Y-76568300D01*
X184315583Y-76646877D01*
X183943472Y-76801011D01*
X183608580Y-77024778D01*
X183323778Y-77309580D01*
X183100011Y-77644472D01*
X182945877Y-78016583D01*
X182867300Y-78411615D01*
X173053072Y-78411615D01*
X173053072Y-76505000D01*
X173040812Y-76380518D01*
X173004502Y-76260820D01*
X172945537Y-76150506D01*
X172866185Y-76053815D01*
X172769494Y-75974463D01*
X172659180Y-75915498D01*
X172539482Y-75879188D01*
X172415000Y-75866928D01*
X169215000Y-75866928D01*
X169090518Y-75879188D01*
X168970820Y-75915498D01*
X168860506Y-75974463D01*
X168763815Y-76053815D01*
X168684463Y-76150506D01*
X168625498Y-76260820D01*
X168589188Y-76380518D01*
X168576928Y-76505000D01*
X166068072Y-76505000D01*
X166055812Y-76380518D01*
X166019502Y-76260820D01*
X165960537Y-76150506D01*
X165881185Y-76053815D01*
X165784494Y-75974463D01*
X165674180Y-75915498D01*
X165554482Y-75879188D01*
X165430000Y-75866928D01*
X162230000Y-75866928D01*
X162105518Y-75879188D01*
X161985820Y-75915498D01*
X161875506Y-75974463D01*
X161778815Y-76053815D01*
X161699463Y-76150506D01*
X161640498Y-76260820D01*
X161604188Y-76380518D01*
X161591928Y-76505000D01*
X150635626Y-76505000D01*
X150315385Y-76441300D01*
X149912615Y-76441300D01*
X149517583Y-76519877D01*
X149145472Y-76674011D01*
X148810580Y-76897778D01*
X148525778Y-77182580D01*
X148399500Y-77371569D01*
X148273222Y-77182580D01*
X147988420Y-76897778D01*
X147653528Y-76674011D01*
X147281417Y-76519877D01*
X146886385Y-76441300D01*
X146483615Y-76441300D01*
X146088583Y-76519877D01*
X145716472Y-76674011D01*
X145381580Y-76897778D01*
X145096778Y-77182580D01*
X144873011Y-77517472D01*
X144718877Y-77889583D01*
X144640300Y-78284615D01*
X142621000Y-78284615D01*
X142621000Y-69050000D01*
X159851928Y-69050000D01*
X159851928Y-70650000D01*
X159864188Y-70774482D01*
X159900498Y-70894180D01*
X159959463Y-71004494D01*
X160038815Y-71101185D01*
X160135506Y-71180537D01*
X160245820Y-71239502D01*
X160365518Y-71275812D01*
X160490000Y-71288072D01*
X162090000Y-71288072D01*
X162214482Y-71275812D01*
X162334180Y-71239502D01*
X162444494Y-71180537D01*
X162541185Y-71101185D01*
X162620537Y-71004494D01*
X162679502Y-70894180D01*
X162715812Y-70774482D01*
X162728072Y-70650000D01*
X162728072Y-69050000D01*
X171916928Y-69050000D01*
X171916928Y-70650000D01*
X171929188Y-70774482D01*
X171965498Y-70894180D01*
X172024463Y-71004494D01*
X172103815Y-71101185D01*
X172200506Y-71180537D01*
X172310820Y-71239502D01*
X172430518Y-71275812D01*
X172555000Y-71288072D01*
X174155000Y-71288072D01*
X174279482Y-71275812D01*
X174399180Y-71239502D01*
X174509494Y-71180537D01*
X174606185Y-71101185D01*
X174685537Y-71004494D01*
X174744502Y-70894180D01*
X174780812Y-70774482D01*
X174793072Y-70650000D01*
X174793072Y-69050000D01*
X174780812Y-68925518D01*
X174744502Y-68805820D01*
X174685537Y-68695506D01*
X174606185Y-68598815D01*
X174509494Y-68519463D01*
X174399180Y-68460498D01*
X174279482Y-68424188D01*
X174155000Y-68411928D01*
X172555000Y-68411928D01*
X172430518Y-68424188D01*
X172310820Y-68460498D01*
X172200506Y-68519463D01*
X172103815Y-68598815D01*
X172024463Y-68695506D01*
X171965498Y-68805820D01*
X171929188Y-68925518D01*
X171916928Y-69050000D01*
X162728072Y-69050000D01*
X162715812Y-68925518D01*
X162679502Y-68805820D01*
X162620537Y-68695506D01*
X162541185Y-68598815D01*
X162444494Y-68519463D01*
X162334180Y-68460498D01*
X162214482Y-68424188D01*
X162090000Y-68411928D01*
X160490000Y-68411928D01*
X160365518Y-68424188D01*
X160245820Y-68460498D01*
X160135506Y-68519463D01*
X160038815Y-68598815D01*
X159959463Y-68695506D01*
X159900498Y-68805820D01*
X159864188Y-68925518D01*
X159851928Y-69050000D01*
X142621000Y-69050000D01*
X142621000Y-64713459D01*
X142640000Y-64617939D01*
X142640000Y-64414061D01*
X142621000Y-64318541D01*
X142621000Y-63285840D01*
X142660840Y-63246000D01*
X145665604Y-63246000D01*
X145381580Y-63435778D01*
X145096778Y-63720580D01*
X144873011Y-64055472D01*
X144718877Y-64427583D01*
X144640300Y-64822615D01*
X144640300Y-65225385D01*
X144718877Y-65620417D01*
X144873011Y-65992528D01*
X145096778Y-66327420D01*
X145381580Y-66612222D01*
X145716472Y-66835989D01*
X146088583Y-66990123D01*
X146483615Y-67068700D01*
X146886385Y-67068700D01*
X147281417Y-66990123D01*
X147653528Y-66835989D01*
X147988420Y-66612222D01*
X148273222Y-66327420D01*
X148399500Y-66138431D01*
X148525778Y-66327420D01*
X148810580Y-66612222D01*
X149145472Y-66835989D01*
X149517583Y-66990123D01*
X149912615Y-67068700D01*
X150315385Y-67068700D01*
X150710417Y-66990123D01*
X151082528Y-66835989D01*
X151417420Y-66612222D01*
X151702222Y-66327420D01*
X151925989Y-65992528D01*
X152080123Y-65620417D01*
X152158700Y-65225385D01*
X152158700Y-64822615D01*
X152080123Y-64427583D01*
X151925989Y-64055472D01*
X151702222Y-63720580D01*
X151417420Y-63435778D01*
X151133396Y-63246000D01*
X151979160Y-63246000D01*
X153551292Y-64818133D01*
X153583104Y-64856896D01*
X153737810Y-64983860D01*
X153914311Y-65078201D01*
X153914313Y-65078202D01*
X154105829Y-65136298D01*
X154305000Y-65155915D01*
X154354902Y-65151000D01*
X168860098Y-65151000D01*
X168910000Y-65155915D01*
X168959902Y-65151000D01*
X169109171Y-65136298D01*
X169300687Y-65078202D01*
X169477190Y-64983860D01*
X169518917Y-64949615D01*
X182867300Y-64949615D01*
X182867300Y-65352385D01*
X182945877Y-65747417D01*
X183100011Y-66119528D01*
X183323778Y-66454420D01*
X183608580Y-66739222D01*
X183943472Y-66962989D01*
X184315583Y-67117123D01*
X184710615Y-67195700D01*
X185113385Y-67195700D01*
X185508417Y-67117123D01*
X185880528Y-66962989D01*
X186215420Y-66739222D01*
X186500222Y-66454420D01*
X186626500Y-66265431D01*
X186752778Y-66454420D01*
X187037580Y-66739222D01*
X187372472Y-66962989D01*
X187744583Y-67117123D01*
X188139615Y-67195700D01*
X188542385Y-67195700D01*
X188937417Y-67117123D01*
X189309528Y-66962989D01*
X189644420Y-66739222D01*
X189929222Y-66454420D01*
X190152989Y-66119528D01*
X190307123Y-65747417D01*
X190385700Y-65352385D01*
X190385700Y-64949615D01*
X190307123Y-64554583D01*
X190152989Y-64182472D01*
X189929222Y-63847580D01*
X189644420Y-63562778D01*
X189309528Y-63339011D01*
X188937417Y-63184877D01*
X188542385Y-63106300D01*
X188139615Y-63106300D01*
X187744583Y-63184877D01*
X187372472Y-63339011D01*
X187037580Y-63562778D01*
X186752778Y-63847580D01*
X186626500Y-64036569D01*
X186500222Y-63847580D01*
X186215420Y-63562778D01*
X185880528Y-63339011D01*
X185508417Y-63184877D01*
X185113385Y-63106300D01*
X184710615Y-63106300D01*
X184315583Y-63184877D01*
X183943472Y-63339011D01*
X183608580Y-63562778D01*
X183323778Y-63847580D01*
X183100011Y-64182472D01*
X182945877Y-64554583D01*
X182867300Y-64949615D01*
X169518917Y-64949615D01*
X169631896Y-64856896D01*
X169663712Y-64818128D01*
X170854841Y-63627000D01*
X170952592Y-63627000D01*
X171222490Y-63573314D01*
X171476727Y-63468005D01*
X171705535Y-63315120D01*
X171900120Y-63120535D01*
X172053005Y-62891727D01*
X172158314Y-62637490D01*
X172212000Y-62367592D01*
X172212000Y-62269840D01*
X173140841Y-61341000D01*
X174808854Y-61341000D01*
X174656995Y-61568273D01*
X174551686Y-61822510D01*
X174498000Y-62092408D01*
X174498000Y-62367592D01*
X174551686Y-62637490D01*
X174656995Y-62891727D01*
X174809880Y-63120535D01*
X175004465Y-63315120D01*
X175233273Y-63468005D01*
X175487510Y-63573314D01*
X175757408Y-63627000D01*
X176032592Y-63627000D01*
X176302490Y-63573314D01*
X176556727Y-63468005D01*
X176785535Y-63315120D01*
X176980120Y-63120535D01*
X177133005Y-62891727D01*
X177238314Y-62637490D01*
X177292000Y-62367592D01*
X177292000Y-62092408D01*
X177238314Y-61822510D01*
X177133005Y-61568273D01*
X176981146Y-61341000D01*
X193929001Y-61341000D01*
X193929000Y-81082541D01*
X193910000Y-81178061D01*
X193910000Y-81381939D01*
X193929001Y-81477464D01*
X193929000Y-101402541D01*
X193910000Y-101498061D01*
X193910000Y-101701939D01*
X193929001Y-101797464D01*
X193929000Y-122357541D01*
X193910000Y-122453061D01*
X193910000Y-122656939D01*
X193929001Y-122752464D01*
X193929000Y-143312541D01*
X193910000Y-143408061D01*
X193910000Y-143611939D01*
X193949774Y-143811898D01*
X194027795Y-144000256D01*
X194141063Y-144169774D01*
X194285226Y-144313937D01*
X194454744Y-144427205D01*
X194643102Y-144505226D01*
X194843061Y-144545000D01*
X195046939Y-144545000D01*
X195246898Y-144505226D01*
X195435256Y-144427205D01*
X195604774Y-144313937D01*
X195748937Y-144169774D01*
X195862205Y-144000256D01*
X195940226Y-143811898D01*
X195980000Y-143611939D01*
X195980000Y-143408061D01*
X195961000Y-143312541D01*
X195961000Y-140149290D01*
X217170000Y-140149290D01*
X217170000Y-140774710D01*
X217292014Y-141388113D01*
X217531352Y-141965926D01*
X217878817Y-142485944D01*
X218321056Y-142928183D01*
X218841074Y-143275648D01*
X219418887Y-143514986D01*
X220032290Y-143637000D01*
X220657710Y-143637000D01*
X221271113Y-143514986D01*
X221848926Y-143275648D01*
X222368944Y-142928183D01*
X222811183Y-142485944D01*
X223158648Y-141965926D01*
X223397986Y-141388113D01*
X223520000Y-140774710D01*
X223520000Y-140149290D01*
X223397986Y-139535887D01*
X223158648Y-138958074D01*
X222811183Y-138438056D01*
X222368944Y-137995817D01*
X221848926Y-137648352D01*
X221271113Y-137409014D01*
X220657710Y-137287000D01*
X220032290Y-137287000D01*
X219418887Y-137409014D01*
X218841074Y-137648352D01*
X218321056Y-137995817D01*
X217878817Y-138438056D01*
X217531352Y-138958074D01*
X217292014Y-139535887D01*
X217170000Y-140149290D01*
X195961000Y-140149290D01*
X195961000Y-130722841D01*
X196161292Y-130923133D01*
X196193104Y-130961896D01*
X196347810Y-131088860D01*
X196524313Y-131183202D01*
X196657732Y-131223674D01*
X196715828Y-131241298D01*
X196735177Y-131243204D01*
X196865098Y-131256000D01*
X196865105Y-131256000D01*
X196914999Y-131260914D01*
X196964893Y-131256000D01*
X216337541Y-131256000D01*
X216433061Y-131275000D01*
X216636939Y-131275000D01*
X216836898Y-131235226D01*
X217025256Y-131157205D01*
X217194774Y-131043937D01*
X217338937Y-130899774D01*
X217452205Y-130730256D01*
X217530226Y-130541898D01*
X217570000Y-130341939D01*
X217570000Y-130138061D01*
X217530226Y-129938102D01*
X217452205Y-129749744D01*
X217338937Y-129580226D01*
X217194774Y-129436063D01*
X217025256Y-129322795D01*
X216836898Y-129244774D01*
X216636939Y-129205000D01*
X216433061Y-129205000D01*
X216337541Y-129224000D01*
X197335841Y-129224000D01*
X197231000Y-129119160D01*
X197231000Y-128499240D01*
X232643680Y-128499240D01*
X232643680Y-128914520D01*
X232724697Y-129321819D01*
X232883617Y-129705487D01*
X233114334Y-130050779D01*
X233407981Y-130344426D01*
X233753273Y-130575143D01*
X234136941Y-130734063D01*
X234544240Y-130815080D01*
X234959520Y-130815080D01*
X235366819Y-130734063D01*
X235750487Y-130575143D01*
X236095779Y-130344426D01*
X236389426Y-130050779D01*
X236620143Y-129705487D01*
X236779063Y-129321819D01*
X236860080Y-128914520D01*
X236860080Y-128499240D01*
X236779063Y-128091941D01*
X236620143Y-127708273D01*
X236389426Y-127362981D01*
X236095779Y-127069334D01*
X235750487Y-126838617D01*
X235366819Y-126679697D01*
X234959520Y-126598680D01*
X234544240Y-126598680D01*
X234136941Y-126679697D01*
X233753273Y-126838617D01*
X233407981Y-127069334D01*
X233114334Y-127362981D01*
X232883617Y-127708273D01*
X232724697Y-128091941D01*
X232643680Y-128499240D01*
X197231000Y-128499240D01*
X197231000Y-118686290D01*
X217170000Y-118686290D01*
X217170000Y-119311710D01*
X217292014Y-119925113D01*
X217531352Y-120502926D01*
X217878817Y-121022944D01*
X218321056Y-121465183D01*
X218841074Y-121812648D01*
X219418887Y-122051986D01*
X220032290Y-122174000D01*
X220657710Y-122174000D01*
X221271113Y-122051986D01*
X221848926Y-121812648D01*
X222368944Y-121465183D01*
X222811183Y-121022944D01*
X223158648Y-120502926D01*
X223397986Y-119925113D01*
X223520000Y-119311710D01*
X223520000Y-118686290D01*
X223397986Y-118072887D01*
X223158648Y-117495074D01*
X222811183Y-116975056D01*
X222368944Y-116532817D01*
X221848926Y-116185352D01*
X221271113Y-115946014D01*
X220657710Y-115824000D01*
X220032290Y-115824000D01*
X219418887Y-115946014D01*
X218841074Y-116185352D01*
X218321056Y-116532817D01*
X217878817Y-116975056D01*
X217531352Y-117495074D01*
X217292014Y-118072887D01*
X217170000Y-118686290D01*
X197231000Y-118686290D01*
X197231000Y-109031000D01*
X216337541Y-109031000D01*
X216433061Y-109050000D01*
X216636939Y-109050000D01*
X216836898Y-109010226D01*
X217025256Y-108932205D01*
X217194774Y-108818937D01*
X217338937Y-108674774D01*
X217452205Y-108505256D01*
X217530226Y-108316898D01*
X217570000Y-108116939D01*
X217570000Y-107913061D01*
X217530226Y-107713102D01*
X217452205Y-107524744D01*
X217338937Y-107355226D01*
X217194774Y-107211063D01*
X217025256Y-107097795D01*
X216836898Y-107019774D01*
X216636939Y-106980000D01*
X216433061Y-106980000D01*
X216337541Y-106999000D01*
X197335841Y-106999000D01*
X197231000Y-106894160D01*
X197231000Y-98112290D01*
X217170000Y-98112290D01*
X217170000Y-98737710D01*
X217292014Y-99351113D01*
X217531352Y-99928926D01*
X217878817Y-100448944D01*
X218321056Y-100891183D01*
X218841074Y-101238648D01*
X219418887Y-101477986D01*
X220032290Y-101600000D01*
X220657710Y-101600000D01*
X221271113Y-101477986D01*
X221848926Y-101238648D01*
X222368944Y-100891183D01*
X222811183Y-100448944D01*
X223158648Y-99928926D01*
X223397986Y-99351113D01*
X223520000Y-98737710D01*
X223520000Y-98112290D01*
X223397986Y-97498887D01*
X223158648Y-96921074D01*
X222811183Y-96401056D01*
X222368944Y-95958817D01*
X221848926Y-95611352D01*
X221271113Y-95372014D01*
X220657710Y-95250000D01*
X220032290Y-95250000D01*
X219418887Y-95372014D01*
X218841074Y-95611352D01*
X218321056Y-95958817D01*
X217878817Y-96401056D01*
X217531352Y-96921074D01*
X217292014Y-97498887D01*
X217170000Y-98112290D01*
X197231000Y-98112290D01*
X197231000Y-88711000D01*
X216337541Y-88711000D01*
X216433061Y-88730000D01*
X216636939Y-88730000D01*
X216836898Y-88690226D01*
X217025256Y-88612205D01*
X217194774Y-88498937D01*
X217338937Y-88354774D01*
X217452205Y-88185256D01*
X217530226Y-87996898D01*
X217570000Y-87796939D01*
X217570000Y-87593061D01*
X217530226Y-87393102D01*
X217452205Y-87204744D01*
X217338937Y-87035226D01*
X217194774Y-86891063D01*
X217025256Y-86777795D01*
X216836898Y-86699774D01*
X216636939Y-86660000D01*
X216433061Y-86660000D01*
X216337541Y-86679000D01*
X197335841Y-86679000D01*
X197231000Y-86574160D01*
X197231000Y-77665290D01*
X217170000Y-77665290D01*
X217170000Y-78290710D01*
X217292014Y-78904113D01*
X217531352Y-79481926D01*
X217878817Y-80001944D01*
X218321056Y-80444183D01*
X218841074Y-80791648D01*
X219418887Y-81030986D01*
X220032290Y-81153000D01*
X220657710Y-81153000D01*
X221271113Y-81030986D01*
X221848926Y-80791648D01*
X222368944Y-80444183D01*
X222811183Y-80001944D01*
X223158648Y-79481926D01*
X223397986Y-78904113D01*
X223520000Y-78290710D01*
X223520000Y-77665290D01*
X223397986Y-77051887D01*
X223158648Y-76474074D01*
X222811183Y-75954056D01*
X222368944Y-75511817D01*
X221848926Y-75164352D01*
X221271113Y-74925014D01*
X220657710Y-74803000D01*
X220032290Y-74803000D01*
X219418887Y-74925014D01*
X218841074Y-75164352D01*
X218321056Y-75511817D01*
X217878817Y-75954056D01*
X217531352Y-76474074D01*
X217292014Y-77051887D01*
X217170000Y-77665290D01*
X197231000Y-77665290D01*
X197231000Y-68391000D01*
X216337541Y-68391000D01*
X216433061Y-68410000D01*
X216636939Y-68410000D01*
X216836898Y-68370226D01*
X217025256Y-68292205D01*
X217194774Y-68178937D01*
X217338937Y-68034774D01*
X217452205Y-67865256D01*
X217530226Y-67676898D01*
X217570000Y-67476939D01*
X217570000Y-67273061D01*
X217530226Y-67073102D01*
X217452205Y-66884744D01*
X217338937Y-66715226D01*
X217194774Y-66571063D01*
X217025256Y-66457795D01*
X216836898Y-66379774D01*
X216636939Y-66340000D01*
X216433061Y-66340000D01*
X216337541Y-66359000D01*
X197335841Y-66359000D01*
X197231000Y-66254160D01*
X197231000Y-65395480D01*
X232643680Y-65395480D01*
X232643680Y-65810760D01*
X232724697Y-66218059D01*
X232883617Y-66601727D01*
X233114334Y-66947019D01*
X233407981Y-67240666D01*
X233753273Y-67471383D01*
X234136941Y-67630303D01*
X234544240Y-67711320D01*
X234959520Y-67711320D01*
X235366819Y-67630303D01*
X235750487Y-67471383D01*
X236095779Y-67240666D01*
X236389426Y-66947019D01*
X236620143Y-66601727D01*
X236779063Y-66218059D01*
X236860080Y-65810760D01*
X236860080Y-65395480D01*
X236779063Y-64988181D01*
X236620143Y-64604513D01*
X236389426Y-64259221D01*
X236095779Y-63965574D01*
X235750487Y-63734857D01*
X235366819Y-63575937D01*
X234959520Y-63494920D01*
X234544240Y-63494920D01*
X234136941Y-63575937D01*
X233753273Y-63734857D01*
X233407981Y-63965574D01*
X233114334Y-64259221D01*
X232883617Y-64604513D01*
X232724697Y-64988181D01*
X232643680Y-65395480D01*
X197231000Y-65395480D01*
X197231000Y-56837290D01*
X217170000Y-56837290D01*
X217170000Y-57462710D01*
X217292014Y-58076113D01*
X217531352Y-58653926D01*
X217878817Y-59173944D01*
X218321056Y-59616183D01*
X218841074Y-59963648D01*
X219418887Y-60202986D01*
X220032290Y-60325000D01*
X220657710Y-60325000D01*
X221271113Y-60202986D01*
X221848926Y-59963648D01*
X222368944Y-59616183D01*
X222811183Y-59173944D01*
X223158648Y-58653926D01*
X223397986Y-58076113D01*
X223520000Y-57462710D01*
X223520000Y-56837290D01*
X223397986Y-56223887D01*
X223158648Y-55646074D01*
X222811183Y-55126056D01*
X222368944Y-54683817D01*
X221848926Y-54336352D01*
X221271113Y-54097014D01*
X220657710Y-53975000D01*
X220032290Y-53975000D01*
X219418887Y-54097014D01*
X218841074Y-54336352D01*
X218321056Y-54683817D01*
X217878817Y-55126056D01*
X217531352Y-55646074D01*
X217292014Y-56223887D01*
X217170000Y-56837290D01*
X197231000Y-56837290D01*
X197231000Y-48006000D01*
X215788098Y-48006000D01*
X215838000Y-48010915D01*
X215887902Y-48006000D01*
X216037171Y-47991298D01*
X216228687Y-47933202D01*
X216405190Y-47838860D01*
X216559896Y-47711896D01*
X216591712Y-47673128D01*
X217113796Y-47151044D01*
X217194774Y-47096937D01*
X217338937Y-46952774D01*
X217452205Y-46783256D01*
X217530226Y-46594898D01*
X217570000Y-46394939D01*
X217570000Y-46191061D01*
X217530226Y-45991102D01*
X217452205Y-45802744D01*
X217338937Y-45633226D01*
X217194774Y-45489063D01*
X217025256Y-45375795D01*
X216836898Y-45297774D01*
X216636939Y-45258000D01*
X216433061Y-45258000D01*
X216233102Y-45297774D01*
X216044744Y-45375795D01*
X215875226Y-45489063D01*
X215731063Y-45633226D01*
X215676956Y-45714204D01*
X215417160Y-45974000D01*
X195629902Y-45974000D01*
X195580000Y-45969085D01*
X195530098Y-45974000D01*
X189708642Y-45974000D01*
X189929222Y-45753420D01*
X190152989Y-45418528D01*
X190307123Y-45046417D01*
X190385700Y-44651385D01*
X190385700Y-44248615D01*
X190307123Y-43853583D01*
X190152989Y-43481472D01*
X189929222Y-43146580D01*
X189644420Y-42861778D01*
X189309528Y-42638011D01*
X188937417Y-42483877D01*
X188542385Y-42405300D01*
X188139615Y-42405300D01*
X187744583Y-42483877D01*
X187372472Y-42638011D01*
X187037580Y-42861778D01*
X186752778Y-43146580D01*
X186626500Y-43335569D01*
X186500222Y-43146580D01*
X186215420Y-42861778D01*
X185880528Y-42638011D01*
X185508417Y-42483877D01*
X185113385Y-42405300D01*
X184710615Y-42405300D01*
X184315583Y-42483877D01*
X183943472Y-42638011D01*
X183608580Y-42861778D01*
X183323778Y-43146580D01*
X183100011Y-43481472D01*
X182945877Y-43853583D01*
X182867300Y-44248615D01*
X182867300Y-44651385D01*
X182945877Y-45046417D01*
X183100011Y-45418528D01*
X183323778Y-45753420D01*
X183544358Y-45974000D01*
X160069893Y-45974000D01*
X160019999Y-45969086D01*
X159970105Y-45974000D01*
X159970098Y-45974000D01*
X159820829Y-45988702D01*
X159766000Y-46005334D01*
X159766000Y-43864901D01*
X159770915Y-43815000D01*
X159751298Y-43615829D01*
X159693202Y-43424313D01*
X159669073Y-43379170D01*
X159598860Y-43247810D01*
X159471896Y-43093104D01*
X159433133Y-43061292D01*
X158116841Y-41745000D01*
X161756928Y-41745000D01*
X161756928Y-43345000D01*
X161769188Y-43469482D01*
X161805498Y-43589180D01*
X161864463Y-43699494D01*
X161943815Y-43796185D01*
X162040506Y-43875537D01*
X162150820Y-43934502D01*
X162270518Y-43970812D01*
X162395000Y-43983072D01*
X163995000Y-43983072D01*
X164119482Y-43970812D01*
X164239180Y-43934502D01*
X164349494Y-43875537D01*
X164446185Y-43796185D01*
X164525537Y-43699494D01*
X164584502Y-43589180D01*
X164620812Y-43469482D01*
X164633072Y-43345000D01*
X164633072Y-41745000D01*
X164620812Y-41620518D01*
X164584502Y-41500820D01*
X164525537Y-41390506D01*
X164446185Y-41293815D01*
X164349494Y-41214463D01*
X164239180Y-41155498D01*
X164119482Y-41119188D01*
X163995000Y-41106928D01*
X162395000Y-41106928D01*
X162270518Y-41119188D01*
X162150820Y-41155498D01*
X162040506Y-41214463D01*
X161943815Y-41293815D01*
X161864463Y-41390506D01*
X161805498Y-41500820D01*
X161769188Y-41620518D01*
X161756928Y-41745000D01*
X158116841Y-41745000D01*
X157861000Y-41489160D01*
X157861000Y-36103061D01*
X172320000Y-36103061D01*
X172320000Y-36306939D01*
X172359774Y-36506898D01*
X172437795Y-36695256D01*
X172534510Y-36840000D01*
X172437795Y-36984744D01*
X172359774Y-37173102D01*
X172320000Y-37373061D01*
X172320000Y-37576939D01*
X172359774Y-37776898D01*
X172437795Y-37965256D01*
X172551063Y-38134774D01*
X172695226Y-38278937D01*
X172864744Y-38392205D01*
X173053102Y-38470226D01*
X173253061Y-38510000D01*
X173456939Y-38510000D01*
X173656898Y-38470226D01*
X173845256Y-38392205D01*
X173990000Y-38295490D01*
X174134744Y-38392205D01*
X174323102Y-38470226D01*
X174523061Y-38510000D01*
X174726939Y-38510000D01*
X174926898Y-38470226D01*
X175115256Y-38392205D01*
X175260000Y-38295490D01*
X175404744Y-38392205D01*
X175593102Y-38470226D01*
X175793061Y-38510000D01*
X175996939Y-38510000D01*
X176196898Y-38470226D01*
X176385256Y-38392205D01*
X176530000Y-38295490D01*
X176674744Y-38392205D01*
X176863102Y-38470226D01*
X177063061Y-38510000D01*
X177266939Y-38510000D01*
X177466898Y-38470226D01*
X177655256Y-38392205D01*
X177800000Y-38295490D01*
X177944744Y-38392205D01*
X178133102Y-38470226D01*
X178333061Y-38510000D01*
X178536939Y-38510000D01*
X178736898Y-38470226D01*
X178925256Y-38392205D01*
X179094774Y-38278937D01*
X179238937Y-38134774D01*
X179352205Y-37965256D01*
X179430226Y-37776898D01*
X179470000Y-37576939D01*
X179470000Y-37373061D01*
X179430226Y-37173102D01*
X179352205Y-36984744D01*
X179255490Y-36840000D01*
X179352205Y-36695256D01*
X179430226Y-36506898D01*
X179470000Y-36306939D01*
X179470000Y-36103061D01*
X179430226Y-35903102D01*
X179352205Y-35714744D01*
X179238937Y-35545226D01*
X179094774Y-35401063D01*
X178925256Y-35287795D01*
X178736898Y-35209774D01*
X178536939Y-35170000D01*
X178333061Y-35170000D01*
X178133102Y-35209774D01*
X177944744Y-35287795D01*
X177800000Y-35384510D01*
X177655256Y-35287795D01*
X177466898Y-35209774D01*
X177266939Y-35170000D01*
X177063061Y-35170000D01*
X176863102Y-35209774D01*
X176674744Y-35287795D01*
X176530000Y-35384510D01*
X176385256Y-35287795D01*
X176196898Y-35209774D01*
X175996939Y-35170000D01*
X175793061Y-35170000D01*
X175593102Y-35209774D01*
X175404744Y-35287795D01*
X175260000Y-35384510D01*
X175115256Y-35287795D01*
X174926898Y-35209774D01*
X174726939Y-35170000D01*
X174523061Y-35170000D01*
X174323102Y-35209774D01*
X174134744Y-35287795D01*
X173990000Y-35384510D01*
X173845256Y-35287795D01*
X173656898Y-35209774D01*
X173456939Y-35170000D01*
X173253061Y-35170000D01*
X173053102Y-35209774D01*
X172864744Y-35287795D01*
X172695226Y-35401063D01*
X172551063Y-35545226D01*
X172437795Y-35714744D01*
X172359774Y-35903102D01*
X172320000Y-36103061D01*
X157861000Y-36103061D01*
X157861000Y-35884655D01*
X157930120Y-35815535D01*
X158083005Y-35586727D01*
X158188314Y-35332490D01*
X158242000Y-35062592D01*
X158242000Y-34787408D01*
X158188314Y-34517510D01*
X158090133Y-34280480D01*
X232643680Y-34280480D01*
X232643680Y-34695760D01*
X232724697Y-35103059D01*
X232883617Y-35486727D01*
X233114334Y-35832019D01*
X233407981Y-36125666D01*
X233753273Y-36356383D01*
X234136941Y-36515303D01*
X234544240Y-36596320D01*
X234959520Y-36596320D01*
X235366819Y-36515303D01*
X235750487Y-36356383D01*
X236095779Y-36125666D01*
X236389426Y-35832019D01*
X236620143Y-35486727D01*
X236779063Y-35103059D01*
X236860080Y-34695760D01*
X236860080Y-34280480D01*
X236779063Y-33873181D01*
X236620143Y-33489513D01*
X236389426Y-33144221D01*
X236095779Y-32850574D01*
X235750487Y-32619857D01*
X235366819Y-32460937D01*
X234959520Y-32379920D01*
X234544240Y-32379920D01*
X234136941Y-32460937D01*
X233753273Y-32619857D01*
X233407981Y-32850574D01*
X233114334Y-33144221D01*
X232883617Y-33489513D01*
X232724697Y-33873181D01*
X232643680Y-34280480D01*
X158090133Y-34280480D01*
X158083005Y-34263273D01*
X157930120Y-34034465D01*
X157735535Y-33839880D01*
X157506727Y-33686995D01*
X157252490Y-33581686D01*
X156982592Y-33528000D01*
X156707408Y-33528000D01*
X156437510Y-33581686D01*
X156183273Y-33686995D01*
X155954465Y-33839880D01*
X155759880Y-34034465D01*
X155606995Y-34263273D01*
X155501686Y-34517510D01*
X155448000Y-34787408D01*
X155448000Y-35062592D01*
X155501686Y-35332490D01*
X155606995Y-35586727D01*
X155759880Y-35815535D01*
X155829001Y-35884656D01*
X155829000Y-40054901D01*
X155829001Y-40054910D01*
X155829000Y-40894000D01*
X141019893Y-40894000D01*
X140969999Y-40889086D01*
X140920105Y-40894000D01*
X140920098Y-40894000D01*
X140770829Y-40908702D01*
X140579313Y-40966798D01*
X140402810Y-41061140D01*
X140248104Y-41188104D01*
X140216292Y-41226867D01*
X139016868Y-42426292D01*
X138978105Y-42458104D01*
X138851141Y-42612810D01*
X138808400Y-42692774D01*
X138756799Y-42789313D01*
X138698702Y-42980830D01*
X138679085Y-43180000D01*
X138684001Y-43229912D01*
X138684000Y-55459160D01*
X138644160Y-55499000D01*
X120847459Y-55499000D01*
X120751939Y-55480000D01*
X120548061Y-55480000D01*
X120348102Y-55519774D01*
X120159744Y-55597795D01*
X119990226Y-55711063D01*
X119846063Y-55855226D01*
X119732795Y-56024744D01*
X119654774Y-56213102D01*
X119615000Y-56413061D01*
X97180000Y-56413061D01*
X97180000Y-44899290D01*
X111506000Y-44899290D01*
X111506000Y-45524710D01*
X111628014Y-46138113D01*
X111867352Y-46715926D01*
X112214817Y-47235944D01*
X112657056Y-47678183D01*
X113177074Y-48025648D01*
X113754887Y-48264986D01*
X114368290Y-48387000D01*
X114993710Y-48387000D01*
X115607113Y-48264986D01*
X116184926Y-48025648D01*
X116704944Y-47678183D01*
X117147183Y-47235944D01*
X117494648Y-46715926D01*
X117733986Y-46138113D01*
X117856000Y-45524710D01*
X117856000Y-44899290D01*
X117733986Y-44285887D01*
X117494648Y-43708074D01*
X117147183Y-43188056D01*
X116704944Y-42745817D01*
X116184926Y-42398352D01*
X115607113Y-42159014D01*
X114993710Y-42037000D01*
X114368290Y-42037000D01*
X113754887Y-42159014D01*
X113177074Y-42398352D01*
X112657056Y-42745817D01*
X112214817Y-43188056D01*
X111867352Y-43708074D01*
X111628014Y-44285887D01*
X111506000Y-44899290D01*
X97180000Y-44899290D01*
X97180000Y-34576279D01*
X97209003Y-34280480D01*
X98419920Y-34280480D01*
X98419920Y-34695760D01*
X98500937Y-35103059D01*
X98659857Y-35486727D01*
X98890574Y-35832019D01*
X99184221Y-36125666D01*
X99529513Y-36356383D01*
X99913181Y-36515303D01*
X100320480Y-36596320D01*
X100735760Y-36596320D01*
X101143059Y-36515303D01*
X101526727Y-36356383D01*
X101872019Y-36125666D01*
X101894624Y-36103061D01*
X131045000Y-36103061D01*
X131045000Y-36306939D01*
X131084774Y-36506898D01*
X131162795Y-36695256D01*
X131259510Y-36840000D01*
X131162795Y-36984744D01*
X131084774Y-37173102D01*
X131045000Y-37373061D01*
X131045000Y-37576939D01*
X131084774Y-37776898D01*
X131162795Y-37965256D01*
X131276063Y-38134774D01*
X131420226Y-38278937D01*
X131589744Y-38392205D01*
X131778102Y-38470226D01*
X131978061Y-38510000D01*
X132181939Y-38510000D01*
X132381898Y-38470226D01*
X132570256Y-38392205D01*
X132715000Y-38295490D01*
X132859744Y-38392205D01*
X133048102Y-38470226D01*
X133248061Y-38510000D01*
X133451939Y-38510000D01*
X133651898Y-38470226D01*
X133840256Y-38392205D01*
X133985000Y-38295490D01*
X134129744Y-38392205D01*
X134318102Y-38470226D01*
X134518061Y-38510000D01*
X134721939Y-38510000D01*
X134921898Y-38470226D01*
X135110256Y-38392205D01*
X135255000Y-38295490D01*
X135399744Y-38392205D01*
X135588102Y-38470226D01*
X135788061Y-38510000D01*
X135991939Y-38510000D01*
X136191898Y-38470226D01*
X136380256Y-38392205D01*
X136525000Y-38295490D01*
X136669744Y-38392205D01*
X136858102Y-38470226D01*
X137058061Y-38510000D01*
X137261939Y-38510000D01*
X137461898Y-38470226D01*
X137650256Y-38392205D01*
X137819774Y-38278937D01*
X137963937Y-38134774D01*
X138077205Y-37965256D01*
X138155226Y-37776898D01*
X138195000Y-37576939D01*
X138195000Y-37373061D01*
X138155226Y-37173102D01*
X138077205Y-36984744D01*
X137980490Y-36840000D01*
X138077205Y-36695256D01*
X138155226Y-36506898D01*
X138195000Y-36306939D01*
X138195000Y-36103061D01*
X138155226Y-35903102D01*
X138077205Y-35714744D01*
X137963937Y-35545226D01*
X137819774Y-35401063D01*
X137650256Y-35287795D01*
X137461898Y-35209774D01*
X137261939Y-35170000D01*
X137058061Y-35170000D01*
X136858102Y-35209774D01*
X136669744Y-35287795D01*
X136525000Y-35384510D01*
X136380256Y-35287795D01*
X136191898Y-35209774D01*
X135991939Y-35170000D01*
X135788061Y-35170000D01*
X135588102Y-35209774D01*
X135399744Y-35287795D01*
X135255000Y-35384510D01*
X135110256Y-35287795D01*
X134921898Y-35209774D01*
X134721939Y-35170000D01*
X134518061Y-35170000D01*
X134318102Y-35209774D01*
X134129744Y-35287795D01*
X133985000Y-35384510D01*
X133840256Y-35287795D01*
X133651898Y-35209774D01*
X133451939Y-35170000D01*
X133248061Y-35170000D01*
X133048102Y-35209774D01*
X132859744Y-35287795D01*
X132715000Y-35384510D01*
X132570256Y-35287795D01*
X132381898Y-35209774D01*
X132181939Y-35170000D01*
X131978061Y-35170000D01*
X131778102Y-35209774D01*
X131589744Y-35287795D01*
X131420226Y-35401063D01*
X131276063Y-35545226D01*
X131162795Y-35714744D01*
X131084774Y-35903102D01*
X131045000Y-36103061D01*
X101894624Y-36103061D01*
X102165666Y-35832019D01*
X102396383Y-35486727D01*
X102555303Y-35103059D01*
X102636320Y-34695760D01*
X102636320Y-34280480D01*
X102605394Y-34125000D01*
X148294928Y-34125000D01*
X148294928Y-35725000D01*
X148307188Y-35849482D01*
X148343498Y-35969180D01*
X148402463Y-36079494D01*
X148481815Y-36176185D01*
X148578506Y-36255537D01*
X148688820Y-36314502D01*
X148808518Y-36350812D01*
X148933000Y-36363072D01*
X150533000Y-36363072D01*
X150657482Y-36350812D01*
X150777180Y-36314502D01*
X150887494Y-36255537D01*
X150984185Y-36176185D01*
X151063537Y-36079494D01*
X151122502Y-35969180D01*
X151158812Y-35849482D01*
X151171072Y-35725000D01*
X151171072Y-34125000D01*
X151158812Y-34000518D01*
X151122502Y-33880820D01*
X151063537Y-33770506D01*
X150984185Y-33673815D01*
X150887494Y-33594463D01*
X150777180Y-33535498D01*
X150657482Y-33499188D01*
X150533000Y-33486928D01*
X148933000Y-33486928D01*
X148808518Y-33499188D01*
X148688820Y-33535498D01*
X148578506Y-33594463D01*
X148481815Y-33673815D01*
X148402463Y-33770506D01*
X148343498Y-33880820D01*
X148307188Y-34000518D01*
X148294928Y-34125000D01*
X102605394Y-34125000D01*
X102555303Y-33873181D01*
X102396383Y-33489513D01*
X102165666Y-33144221D01*
X101872019Y-32850574D01*
X101526727Y-32619857D01*
X101143059Y-32460937D01*
X100735760Y-32379920D01*
X100320480Y-32379920D01*
X99913181Y-32460937D01*
X99529513Y-32619857D01*
X99184221Y-32850574D01*
X98890574Y-33144221D01*
X98659857Y-33489513D01*
X98500937Y-33873181D01*
X98419920Y-34280480D01*
X97209003Y-34280480D01*
X97247933Y-33883442D01*
X97439772Y-33248040D01*
X97751373Y-32662006D01*
X98170870Y-32147653D01*
X98682275Y-31724581D01*
X99266123Y-31408896D01*
X99900170Y-31212625D01*
X100591155Y-31140000D01*
X234790721Y-31140000D01*
X235458891Y-31205515D01*
X235458891Y-31205515D01*
G37*
X235458891Y-31205515D02*
X236070565Y-31390190D01*
X236634710Y-31690151D01*
X237129856Y-32093982D01*
X237537133Y-32586297D01*
X237841026Y-33148336D01*
X238029969Y-33758709D01*
X238100001Y-34425022D01*
X238100000Y-166210721D01*
X238034485Y-166878892D01*
X237849812Y-167490561D01*
X237549848Y-168054711D01*
X237146018Y-168549855D01*
X236653703Y-168957133D01*
X236091664Y-169261026D01*
X235481292Y-169449969D01*
X234814978Y-169520001D01*
X100605619Y-169519998D01*
X99924651Y-169475336D01*
X99306955Y-169310376D01*
X98733071Y-169028582D01*
X98224843Y-168640682D01*
X97801644Y-168161460D01*
X97479584Y-167609161D01*
X97270932Y-167004828D01*
X97180825Y-166351066D01*
X97180000Y-166114840D01*
X97180000Y-165964240D01*
X98419920Y-165964240D01*
X98419920Y-166379520D01*
X98500937Y-166786819D01*
X98659857Y-167170487D01*
X98890574Y-167515779D01*
X99184221Y-167809426D01*
X99529513Y-168040143D01*
X99913181Y-168199063D01*
X100320480Y-168280080D01*
X100735760Y-168280080D01*
X101143059Y-168199063D01*
X101526727Y-168040143D01*
X101872019Y-167809426D01*
X102165666Y-167515779D01*
X102396383Y-167170487D01*
X102555303Y-166786819D01*
X102636320Y-166379520D01*
X102636320Y-165964240D01*
X102555303Y-165556941D01*
X102396383Y-165173273D01*
X102165666Y-164827981D01*
X101872019Y-164534334D01*
X101526727Y-164303617D01*
X101143059Y-164144697D01*
X100735760Y-164063680D01*
X100320480Y-164063680D01*
X99913181Y-164144697D01*
X99529513Y-164303617D01*
X99184221Y-164534334D01*
X98890574Y-164827981D01*
X98659857Y-165173273D01*
X98500937Y-165556941D01*
X98419920Y-165964240D01*
X97180000Y-165964240D01*
X97180000Y-155881853D01*
X167767000Y-155881853D01*
X167767000Y-157808147D01*
X168142802Y-159697429D01*
X168879963Y-161477093D01*
X169950155Y-163078749D01*
X171312251Y-164440845D01*
X172913907Y-165511037D01*
X174693571Y-166248198D01*
X176582853Y-166624000D01*
X178509147Y-166624000D01*
X180398429Y-166248198D01*
X181083964Y-165964240D01*
X232643680Y-165964240D01*
X232643680Y-166379520D01*
X232724697Y-166786819D01*
X232883617Y-167170487D01*
X233114334Y-167515779D01*
X233407981Y-167809426D01*
X233753273Y-168040143D01*
X234136941Y-168199063D01*
X234544240Y-168280080D01*
X234959520Y-168280080D01*
X235366819Y-168199063D01*
X235750487Y-168040143D01*
X236095779Y-167809426D01*
X236389426Y-167515779D01*
X236620143Y-167170487D01*
X236779063Y-166786819D01*
X236860080Y-166379520D01*
X236860080Y-165964240D01*
X236779063Y-165556941D01*
X236620143Y-165173273D01*
X236389426Y-164827981D01*
X236095779Y-164534334D01*
X235750487Y-164303617D01*
X235366819Y-164144697D01*
X234959520Y-164063680D01*
X234544240Y-164063680D01*
X234136941Y-164144697D01*
X233753273Y-164303617D01*
X233407981Y-164534334D01*
X233114334Y-164827981D01*
X232883617Y-165173273D01*
X232724697Y-165556941D01*
X232643680Y-165964240D01*
X181083964Y-165964240D01*
X182178093Y-165511037D01*
X183779749Y-164440845D01*
X185141845Y-163078749D01*
X186212037Y-161477093D01*
X186949198Y-159697429D01*
X187325000Y-157808147D01*
X187325000Y-155881853D01*
X186949198Y-153992571D01*
X186212037Y-152212907D01*
X185141845Y-150611251D01*
X183779749Y-149249155D01*
X182178093Y-148178963D01*
X180398429Y-147441802D01*
X178509147Y-147066000D01*
X176582853Y-147066000D01*
X174693571Y-147441802D01*
X172913907Y-148178963D01*
X171312251Y-149249155D01*
X169950155Y-150611251D01*
X168879963Y-152212907D01*
X168142802Y-153992571D01*
X167767000Y-155881853D01*
X97180000Y-155881853D01*
X97180000Y-140895615D01*
X144640300Y-140895615D01*
X144640300Y-141298385D01*
X144718877Y-141693417D01*
X144873011Y-142065528D01*
X145096778Y-142400420D01*
X145381580Y-142685222D01*
X145716472Y-142908989D01*
X146088583Y-143063123D01*
X146483615Y-143141700D01*
X146886385Y-143141700D01*
X147281417Y-143063123D01*
X147653528Y-142908989D01*
X147988420Y-142685222D01*
X148273222Y-142400420D01*
X148399500Y-142211431D01*
X148525778Y-142400420D01*
X148810580Y-142685222D01*
X149145472Y-142908989D01*
X149517583Y-143063123D01*
X149912615Y-143141700D01*
X150315385Y-143141700D01*
X150710417Y-143063123D01*
X151082528Y-142908989D01*
X151417420Y-142685222D01*
X151702222Y-142400420D01*
X151925989Y-142065528D01*
X152080123Y-141693417D01*
X152158700Y-141298385D01*
X152158700Y-140895615D01*
X152133439Y-140768615D01*
X182867300Y-140768615D01*
X182867300Y-141171385D01*
X182945877Y-141566417D01*
X183100011Y-141938528D01*
X183323778Y-142273420D01*
X183608580Y-142558222D01*
X183943472Y-142781989D01*
X184315583Y-142936123D01*
X184710615Y-143014700D01*
X185113385Y-143014700D01*
X185508417Y-142936123D01*
X185880528Y-142781989D01*
X186215420Y-142558222D01*
X186500222Y-142273420D01*
X186626500Y-142084431D01*
X186752778Y-142273420D01*
X187037580Y-142558222D01*
X187372472Y-142781989D01*
X187744583Y-142936123D01*
X188139615Y-143014700D01*
X188542385Y-143014700D01*
X188937417Y-142936123D01*
X189309528Y-142781989D01*
X189644420Y-142558222D01*
X189929222Y-142273420D01*
X190152989Y-141938528D01*
X190307123Y-141566417D01*
X190385700Y-141171385D01*
X190385700Y-140768615D01*
X190307123Y-140373583D01*
X190152989Y-140001472D01*
X189929222Y-139666580D01*
X189644420Y-139381778D01*
X189309528Y-139158011D01*
X188937417Y-139003877D01*
X188542385Y-138925300D01*
X188139615Y-138925300D01*
X187744583Y-139003877D01*
X187372472Y-139158011D01*
X187037580Y-139381778D01*
X186752778Y-139666580D01*
X186626500Y-139855569D01*
X186500222Y-139666580D01*
X186215420Y-139381778D01*
X185880528Y-139158011D01*
X185508417Y-139003877D01*
X185113385Y-138925300D01*
X184710615Y-138925300D01*
X184315583Y-139003877D01*
X183943472Y-139158011D01*
X183608580Y-139381778D01*
X183323778Y-139666580D01*
X183100011Y-140001472D01*
X182945877Y-140373583D01*
X182867300Y-140768615D01*
X152133439Y-140768615D01*
X152080123Y-140500583D01*
X151925989Y-140128472D01*
X151702222Y-139793580D01*
X151417420Y-139508778D01*
X151082528Y-139285011D01*
X150710417Y-139130877D01*
X150315385Y-139052300D01*
X149912615Y-139052300D01*
X149517583Y-139130877D01*
X149145472Y-139285011D01*
X148810580Y-139508778D01*
X148525778Y-139793580D01*
X148399500Y-139982569D01*
X148273222Y-139793580D01*
X147988420Y-139508778D01*
X147653528Y-139285011D01*
X147281417Y-139130877D01*
X146886385Y-139052300D01*
X146483615Y-139052300D01*
X146088583Y-139130877D01*
X145716472Y-139285011D01*
X145381580Y-139508778D01*
X145096778Y-139793580D01*
X144873011Y-140128472D01*
X144718877Y-140500583D01*
X144640300Y-140895615D01*
X97180000Y-140895615D01*
X97180000Y-127957290D01*
X111506000Y-127957290D01*
X111506000Y-128582710D01*
X111628014Y-129196113D01*
X111867352Y-129773926D01*
X112214817Y-130293944D01*
X112657056Y-130736183D01*
X113177074Y-131083648D01*
X113754887Y-131322986D01*
X114368290Y-131445000D01*
X114993710Y-131445000D01*
X115607113Y-131322986D01*
X116184926Y-131083648D01*
X116704944Y-130736183D01*
X117147183Y-130293944D01*
X117494648Y-129773926D01*
X117733986Y-129196113D01*
X117856000Y-128582710D01*
X117856000Y-127957290D01*
X117733986Y-127343887D01*
X117494648Y-126766074D01*
X117147183Y-126246056D01*
X116704944Y-125803817D01*
X116184926Y-125456352D01*
X115607113Y-125217014D01*
X114993710Y-125095000D01*
X114368290Y-125095000D01*
X113754887Y-125217014D01*
X113177074Y-125456352D01*
X112657056Y-125803817D01*
X112214817Y-126246056D01*
X111867352Y-126766074D01*
X111628014Y-127343887D01*
X111506000Y-127957290D01*
X97180000Y-127957290D01*
X97180000Y-119609240D01*
X98419920Y-119609240D01*
X98419920Y-120024520D01*
X98500937Y-120431819D01*
X98659857Y-120815487D01*
X98890574Y-121160779D01*
X99184221Y-121454426D01*
X99529513Y-121685143D01*
X99913181Y-121844063D01*
X100320480Y-121925080D01*
X100735760Y-121925080D01*
X101143059Y-121844063D01*
X101526727Y-121685143D01*
X101872019Y-121454426D01*
X102165666Y-121160779D01*
X102396383Y-120815487D01*
X102555303Y-120431819D01*
X102636320Y-120024520D01*
X102636320Y-119609240D01*
X102555303Y-119201941D01*
X102396383Y-118818273D01*
X102165666Y-118472981D01*
X101872019Y-118179334D01*
X101526727Y-117948617D01*
X101143059Y-117789697D01*
X100735760Y-117708680D01*
X100320480Y-117708680D01*
X99913181Y-117789697D01*
X99529513Y-117948617D01*
X99184221Y-118179334D01*
X98890574Y-118472981D01*
X98659857Y-118818273D01*
X98500937Y-119201941D01*
X98419920Y-119609240D01*
X97180000Y-119609240D01*
X97180000Y-106621290D01*
X111506000Y-106621290D01*
X111506000Y-107246710D01*
X111628014Y-107860113D01*
X111867352Y-108437926D01*
X112214817Y-108957944D01*
X112657056Y-109400183D01*
X113177074Y-109747648D01*
X113754887Y-109986986D01*
X114368290Y-110109000D01*
X114993710Y-110109000D01*
X115607113Y-109986986D01*
X116184926Y-109747648D01*
X116704944Y-109400183D01*
X117147183Y-108957944D01*
X117494648Y-108437926D01*
X117733986Y-107860113D01*
X117856000Y-107246710D01*
X117856000Y-106621290D01*
X117733986Y-106007887D01*
X117494648Y-105430074D01*
X117147183Y-104910056D01*
X116704944Y-104467817D01*
X116184926Y-104120352D01*
X115607113Y-103881014D01*
X114993710Y-103759000D01*
X114368290Y-103759000D01*
X113754887Y-103881014D01*
X113177074Y-104120352D01*
X112657056Y-104467817D01*
X112214817Y-104910056D01*
X111867352Y-105430074D01*
X111628014Y-106007887D01*
X111506000Y-106621290D01*
X97180000Y-106621290D01*
X97180000Y-85793290D01*
X111506000Y-85793290D01*
X111506000Y-86418710D01*
X111628014Y-87032113D01*
X111867352Y-87609926D01*
X112214817Y-88129944D01*
X112657056Y-88572183D01*
X113177074Y-88919648D01*
X113754887Y-89158986D01*
X114368290Y-89281000D01*
X114993710Y-89281000D01*
X115607113Y-89158986D01*
X116184926Y-88919648D01*
X116704944Y-88572183D01*
X117147183Y-88129944D01*
X117494648Y-87609926D01*
X117733986Y-87032113D01*
X117856000Y-86418710D01*
X117856000Y-85793290D01*
X117733986Y-85179887D01*
X117494648Y-84602074D01*
X117147183Y-84082056D01*
X116704944Y-83639817D01*
X116184926Y-83292352D01*
X115607113Y-83053014D01*
X114993710Y-82931000D01*
X114368290Y-82931000D01*
X113754887Y-83053014D01*
X113177074Y-83292352D01*
X112657056Y-83639817D01*
X112214817Y-84082056D01*
X111867352Y-84602074D01*
X111628014Y-85179887D01*
X111506000Y-85793290D01*
X97180000Y-85793290D01*
X97180000Y-76190480D01*
X98419920Y-76190480D01*
X98419920Y-76605760D01*
X98500937Y-77013059D01*
X98659857Y-77396727D01*
X98890574Y-77742019D01*
X99184221Y-78035666D01*
X99529513Y-78266383D01*
X99913181Y-78425303D01*
X100320480Y-78506320D01*
X100735760Y-78506320D01*
X101143059Y-78425303D01*
X101526727Y-78266383D01*
X101872019Y-78035666D01*
X102165666Y-77742019D01*
X102396383Y-77396727D01*
X102555303Y-77013059D01*
X102636320Y-76605760D01*
X102636320Y-76190480D01*
X102555303Y-75783181D01*
X102396383Y-75399513D01*
X102165666Y-75054221D01*
X101872019Y-74760574D01*
X101526727Y-74529857D01*
X101143059Y-74370937D01*
X100735760Y-74289920D01*
X100320480Y-74289920D01*
X99913181Y-74370937D01*
X99529513Y-74529857D01*
X99184221Y-74760574D01*
X98890574Y-75054221D01*
X98659857Y-75399513D01*
X98500937Y-75783181D01*
X98419920Y-76190480D01*
X97180000Y-76190480D01*
X97180000Y-65219290D01*
X111506000Y-65219290D01*
X111506000Y-65844710D01*
X111628014Y-66458113D01*
X111867352Y-67035926D01*
X112214817Y-67555944D01*
X112657056Y-67998183D01*
X113177074Y-68345648D01*
X113754887Y-68584986D01*
X114368290Y-68707000D01*
X114993710Y-68707000D01*
X115607113Y-68584986D01*
X116184926Y-68345648D01*
X116704944Y-67998183D01*
X117147183Y-67555944D01*
X117494648Y-67035926D01*
X117733986Y-66458113D01*
X117856000Y-65844710D01*
X117856000Y-65219290D01*
X117733986Y-64605887D01*
X117494648Y-64028074D01*
X117147183Y-63508056D01*
X116704944Y-63065817D01*
X116184926Y-62718352D01*
X115607113Y-62479014D01*
X114993710Y-62357000D01*
X114368290Y-62357000D01*
X113754887Y-62479014D01*
X113177074Y-62718352D01*
X112657056Y-63065817D01*
X112214817Y-63508056D01*
X111867352Y-64028074D01*
X111628014Y-64605887D01*
X111506000Y-65219290D01*
X97180000Y-65219290D01*
X97180000Y-56413061D01*
X119615000Y-56413061D01*
X119615000Y-56616939D01*
X119654774Y-56816898D01*
X119732795Y-57005256D01*
X119846063Y-57174774D01*
X119990226Y-57318937D01*
X120159744Y-57432205D01*
X120348102Y-57510226D01*
X120548061Y-57550000D01*
X120751939Y-57550000D01*
X120847459Y-57531000D01*
X138684001Y-57531000D01*
X138684000Y-75515098D01*
X138684000Y-75779160D01*
X138644160Y-75819000D01*
X120847459Y-75819000D01*
X120751939Y-75800000D01*
X120548061Y-75800000D01*
X120348102Y-75839774D01*
X120159744Y-75917795D01*
X119990226Y-76031063D01*
X119846063Y-76175226D01*
X119732795Y-76344744D01*
X119654774Y-76533102D01*
X119615000Y-76733061D01*
X119615000Y-76936939D01*
X119654774Y-77136898D01*
X119732795Y-77325256D01*
X119846063Y-77494774D01*
X119990226Y-77638937D01*
X120159744Y-77752205D01*
X120348102Y-77830226D01*
X120548061Y-77870000D01*
X120751939Y-77870000D01*
X120847459Y-77851000D01*
X138684001Y-77851000D01*
X138684000Y-96099160D01*
X138644160Y-96139000D01*
X120847459Y-96139000D01*
X120751939Y-96120000D01*
X120548061Y-96120000D01*
X120348102Y-96159774D01*
X120159744Y-96237795D01*
X119990226Y-96351063D01*
X119846063Y-96495226D01*
X119732795Y-96664744D01*
X119654774Y-96853102D01*
X119615000Y-97053061D01*
X119615000Y-97256939D01*
X119654774Y-97456898D01*
X119732795Y-97645256D01*
X119846063Y-97814774D01*
X119990226Y-97958937D01*
X120159744Y-98072205D01*
X120348102Y-98150226D01*
X120548061Y-98190000D01*
X120751939Y-98190000D01*
X120847459Y-98171000D01*
X138684001Y-98171000D01*
X138684000Y-117054160D01*
X138644160Y-117094000D01*
X120847459Y-117094000D01*
X120751939Y-117075000D01*
X120548061Y-117075000D01*
X120348102Y-117114774D01*
X120159744Y-117192795D01*
X119990226Y-117306063D01*
X119846063Y-117450226D01*
X119732795Y-117619744D01*
X119654774Y-117808102D01*
X119615000Y-118008061D01*
X119615000Y-118211939D01*
X119654774Y-118411898D01*
X119732795Y-118600256D01*
X119846063Y-118769774D01*
X119990226Y-118913937D01*
X120159744Y-119027205D01*
X120348102Y-119105226D01*
X120548061Y-119145000D01*
X120751939Y-119145000D01*
X120847459Y-119126000D01*
X138684001Y-119126000D01*
X138684000Y-138009160D01*
X138644160Y-138049000D01*
X120847459Y-138049000D01*
X120751939Y-138030000D01*
X120548061Y-138030000D01*
X120348102Y-138069774D01*
X120159744Y-138147795D01*
X119990226Y-138261063D01*
X119846063Y-138405226D01*
X119732795Y-138574744D01*
X119654774Y-138763102D01*
X119615000Y-138963061D01*
X119615000Y-139166939D01*
X119654774Y-139366898D01*
X119732795Y-139555256D01*
X119846063Y-139724774D01*
X119990226Y-139868937D01*
X120159744Y-139982205D01*
X120348102Y-140060226D01*
X120548061Y-140100000D01*
X120751939Y-140100000D01*
X120847459Y-140081000D01*
X139015098Y-140081000D01*
X139065000Y-140085915D01*
X139114902Y-140081000D01*
X139264171Y-140066298D01*
X139455687Y-140008202D01*
X139632190Y-139913860D01*
X139786896Y-139786896D01*
X139818713Y-139748127D01*
X140383127Y-139183713D01*
X140421896Y-139151896D01*
X140548860Y-138997190D01*
X140643202Y-138820687D01*
X140701298Y-138629171D01*
X140716000Y-138479902D01*
X140716000Y-138479901D01*
X140720915Y-138430000D01*
X140716000Y-138380098D01*
X140716000Y-130880000D01*
X174691928Y-130880000D01*
X174691928Y-133280000D01*
X174704188Y-133404482D01*
X174740498Y-133524180D01*
X174799463Y-133634494D01*
X174878815Y-133731185D01*
X174975506Y-133810537D01*
X175085820Y-133869502D01*
X175205518Y-133905812D01*
X175330000Y-133918072D01*
X177730000Y-133918072D01*
X177854482Y-133905812D01*
X177974180Y-133869502D01*
X178084494Y-133810537D01*
X178181185Y-133731185D01*
X178260537Y-133634494D01*
X178319502Y-133524180D01*
X178355812Y-133404482D01*
X178368072Y-133280000D01*
X178368072Y-130880000D01*
X178355812Y-130755518D01*
X178319502Y-130635820D01*
X178260537Y-130525506D01*
X178181185Y-130428815D01*
X178084494Y-130349463D01*
X177974180Y-130290498D01*
X177854482Y-130254188D01*
X177730000Y-130241928D01*
X175330000Y-130241928D01*
X175205518Y-130254188D01*
X175085820Y-130290498D01*
X174975506Y-130349463D01*
X174878815Y-130428815D01*
X174799463Y-130525506D01*
X174740498Y-130635820D01*
X174704188Y-130755518D01*
X174691928Y-130880000D01*
X140716000Y-130880000D01*
X140716000Y-128294468D01*
X140801063Y-128421774D01*
X140945226Y-128565937D01*
X141114744Y-128679205D01*
X141303102Y-128757226D01*
X141503061Y-128797000D01*
X141706939Y-128797000D01*
X141906898Y-128757226D01*
X142095256Y-128679205D01*
X142264774Y-128565937D01*
X142408937Y-128421774D01*
X142522205Y-128252256D01*
X142600226Y-128063898D01*
X142640000Y-127863939D01*
X142640000Y-127660061D01*
X142621000Y-127564541D01*
X142621000Y-127433615D01*
X144640300Y-127433615D01*
X144640300Y-127836385D01*
X144718877Y-128231417D01*
X144873011Y-128603528D01*
X145096778Y-128938420D01*
X145381580Y-129223222D01*
X145716472Y-129446989D01*
X146088583Y-129601123D01*
X146483615Y-129679700D01*
X146886385Y-129679700D01*
X147281417Y-129601123D01*
X147653528Y-129446989D01*
X147988420Y-129223222D01*
X148273222Y-128938420D01*
X148399500Y-128749431D01*
X148525778Y-128938420D01*
X148810580Y-129223222D01*
X149145472Y-129446989D01*
X149517583Y-129601123D01*
X149912615Y-129679700D01*
X150315385Y-129679700D01*
X150710417Y-129601123D01*
X151082528Y-129446989D01*
X151417420Y-129223222D01*
X151702222Y-128938420D01*
X151925989Y-128603528D01*
X152080123Y-128231417D01*
X152158700Y-127836385D01*
X152158700Y-127433615D01*
X152133439Y-127306615D01*
X182867300Y-127306615D01*
X182867300Y-127709385D01*
X182945877Y-128104417D01*
X183100011Y-128476528D01*
X183323778Y-128811420D01*
X183608580Y-129096222D01*
X183943472Y-129319989D01*
X184315583Y-129474123D01*
X184710615Y-129552700D01*
X185113385Y-129552700D01*
X185508417Y-129474123D01*
X185880528Y-129319989D01*
X186215420Y-129096222D01*
X186500222Y-128811420D01*
X186626500Y-128622431D01*
X186752778Y-128811420D01*
X187037580Y-129096222D01*
X187372472Y-129319989D01*
X187744583Y-129474123D01*
X188139615Y-129552700D01*
X188542385Y-129552700D01*
X188937417Y-129474123D01*
X189309528Y-129319989D01*
X189644420Y-129096222D01*
X189929222Y-128811420D01*
X190152989Y-128476528D01*
X190307123Y-128104417D01*
X190385700Y-127709385D01*
X190385700Y-127306615D01*
X190307123Y-126911583D01*
X190152989Y-126539472D01*
X189929222Y-126204580D01*
X189644420Y-125919778D01*
X189309528Y-125696011D01*
X188937417Y-125541877D01*
X188542385Y-125463300D01*
X188139615Y-125463300D01*
X187744583Y-125541877D01*
X187372472Y-125696011D01*
X187037580Y-125919778D01*
X186752778Y-126204580D01*
X186626500Y-126393569D01*
X186500222Y-126204580D01*
X186215420Y-125919778D01*
X185880528Y-125696011D01*
X185508417Y-125541877D01*
X185113385Y-125463300D01*
X184710615Y-125463300D01*
X184315583Y-125541877D01*
X183943472Y-125696011D01*
X183608580Y-125919778D01*
X183323778Y-126204580D01*
X183100011Y-126539472D01*
X182945877Y-126911583D01*
X182867300Y-127306615D01*
X152133439Y-127306615D01*
X152080123Y-127038583D01*
X151925989Y-126666472D01*
X151702222Y-126331580D01*
X151417420Y-126046778D01*
X151082528Y-125823011D01*
X150710417Y-125668877D01*
X150315385Y-125590300D01*
X149912615Y-125590300D01*
X149517583Y-125668877D01*
X149145472Y-125823011D01*
X148810580Y-126046778D01*
X148525778Y-126331580D01*
X148399500Y-126520569D01*
X148273222Y-126331580D01*
X147988420Y-126046778D01*
X147653528Y-125823011D01*
X147281417Y-125668877D01*
X146886385Y-125590300D01*
X146483615Y-125590300D01*
X146088583Y-125668877D01*
X145716472Y-125823011D01*
X145381580Y-126046778D01*
X145096778Y-126331580D01*
X144873011Y-126666472D01*
X144718877Y-127038583D01*
X144640300Y-127433615D01*
X142621000Y-127433615D01*
X142621000Y-119559615D01*
X144640300Y-119559615D01*
X144640300Y-119962385D01*
X144718877Y-120357417D01*
X144873011Y-120729528D01*
X145096778Y-121064420D01*
X145381580Y-121349222D01*
X145716472Y-121572989D01*
X146088583Y-121727123D01*
X146483615Y-121805700D01*
X146886385Y-121805700D01*
X147281417Y-121727123D01*
X147653528Y-121572989D01*
X147988420Y-121349222D01*
X148273222Y-121064420D01*
X148399500Y-120875431D01*
X148525778Y-121064420D01*
X148810580Y-121349222D01*
X149145472Y-121572989D01*
X149517583Y-121727123D01*
X149912615Y-121805700D01*
X150315385Y-121805700D01*
X150710417Y-121727123D01*
X151082528Y-121572989D01*
X151417420Y-121349222D01*
X151702222Y-121064420D01*
X151925989Y-120729528D01*
X152080123Y-120357417D01*
X152158700Y-119962385D01*
X152158700Y-119559615D01*
X152080123Y-119164583D01*
X151935321Y-118815000D01*
X156911928Y-118815000D01*
X156911928Y-121215000D01*
X156924188Y-121339482D01*
X156960498Y-121459180D01*
X157019463Y-121569494D01*
X157098815Y-121666185D01*
X157195506Y-121745537D01*
X157305820Y-121804502D01*
X157425518Y-121840812D01*
X157550000Y-121853072D01*
X159950000Y-121853072D01*
X160074482Y-121840812D01*
X160194180Y-121804502D01*
X160304494Y-121745537D01*
X160401185Y-121666185D01*
X160480537Y-121569494D01*
X160539502Y-121459180D01*
X160575812Y-121339482D01*
X160588072Y-121215000D01*
X160588072Y-119432615D01*
X182867300Y-119432615D01*
X182867300Y-119835385D01*
X182945877Y-120230417D01*
X183100011Y-120602528D01*
X183323778Y-120937420D01*
X183608580Y-121222222D01*
X183943472Y-121445989D01*
X184315583Y-121600123D01*
X184710615Y-121678700D01*
X185113385Y-121678700D01*
X185508417Y-121600123D01*
X185880528Y-121445989D01*
X186215420Y-121222222D01*
X186500222Y-120937420D01*
X186626500Y-120748431D01*
X186752778Y-120937420D01*
X187037580Y-121222222D01*
X187372472Y-121445989D01*
X187744583Y-121600123D01*
X188139615Y-121678700D01*
X188542385Y-121678700D01*
X188937417Y-121600123D01*
X189309528Y-121445989D01*
X189644420Y-121222222D01*
X189929222Y-120937420D01*
X190152989Y-120602528D01*
X190307123Y-120230417D01*
X190385700Y-119835385D01*
X190385700Y-119432615D01*
X190307123Y-119037583D01*
X190152989Y-118665472D01*
X189929222Y-118330580D01*
X189644420Y-118045778D01*
X189309528Y-117822011D01*
X188937417Y-117667877D01*
X188542385Y-117589300D01*
X188139615Y-117589300D01*
X187744583Y-117667877D01*
X187372472Y-117822011D01*
X187037580Y-118045778D01*
X186752778Y-118330580D01*
X186626500Y-118519569D01*
X186500222Y-118330580D01*
X186215420Y-118045778D01*
X185880528Y-117822011D01*
X185508417Y-117667877D01*
X185113385Y-117589300D01*
X184710615Y-117589300D01*
X184315583Y-117667877D01*
X183943472Y-117822011D01*
X183608580Y-118045778D01*
X183323778Y-118330580D01*
X183100011Y-118665472D01*
X182945877Y-119037583D01*
X182867300Y-119432615D01*
X160588072Y-119432615D01*
X160588072Y-118815000D01*
X160575812Y-118690518D01*
X160539502Y-118570820D01*
X160480537Y-118460506D01*
X160401185Y-118363815D01*
X160304494Y-118284463D01*
X160194180Y-118225498D01*
X160074482Y-118189188D01*
X159950000Y-118176928D01*
X157550000Y-118176928D01*
X157425518Y-118189188D01*
X157305820Y-118225498D01*
X157195506Y-118284463D01*
X157098815Y-118363815D01*
X157019463Y-118460506D01*
X156960498Y-118570820D01*
X156924188Y-118690518D01*
X156911928Y-118815000D01*
X151935321Y-118815000D01*
X151925989Y-118792472D01*
X151702222Y-118457580D01*
X151417420Y-118172778D01*
X151082528Y-117949011D01*
X150710417Y-117794877D01*
X150315385Y-117716300D01*
X149912615Y-117716300D01*
X149517583Y-117794877D01*
X149145472Y-117949011D01*
X148810580Y-118172778D01*
X148525778Y-118457580D01*
X148399500Y-118646569D01*
X148273222Y-118457580D01*
X147988420Y-118172778D01*
X147653528Y-117949011D01*
X147281417Y-117794877D01*
X146886385Y-117716300D01*
X146483615Y-117716300D01*
X146088583Y-117794877D01*
X145716472Y-117949011D01*
X145381580Y-118172778D01*
X145096778Y-118457580D01*
X144873011Y-118792472D01*
X144718877Y-119164583D01*
X144640300Y-119559615D01*
X142621000Y-119559615D01*
X142621000Y-106369459D01*
X142640000Y-106273939D01*
X142640000Y-106097615D01*
X144640300Y-106097615D01*
X144640300Y-106500385D01*
X144718877Y-106895417D01*
X144873011Y-107267528D01*
X145096778Y-107602420D01*
X145381580Y-107887222D01*
X145716472Y-108110989D01*
X146088583Y-108265123D01*
X146483615Y-108343700D01*
X146886385Y-108343700D01*
X147281417Y-108265123D01*
X147653528Y-108110989D01*
X147988420Y-107887222D01*
X148273222Y-107602420D01*
X148399500Y-107413431D01*
X148525778Y-107602420D01*
X148810580Y-107887222D01*
X149145472Y-108110989D01*
X149517583Y-108265123D01*
X149912615Y-108343700D01*
X150315385Y-108343700D01*
X150710417Y-108265123D01*
X151082528Y-108110989D01*
X151417420Y-107887222D01*
X151702222Y-107602420D01*
X151847496Y-107385000D01*
X174691928Y-107385000D01*
X174691928Y-109785000D01*
X174704188Y-109909482D01*
X174740498Y-110029180D01*
X174799463Y-110139494D01*
X174878815Y-110236185D01*
X174975506Y-110315537D01*
X175085820Y-110374502D01*
X175205518Y-110410812D01*
X175330000Y-110423072D01*
X177730000Y-110423072D01*
X177854482Y-110410812D01*
X177974180Y-110374502D01*
X178084494Y-110315537D01*
X178181185Y-110236185D01*
X178260537Y-110139494D01*
X178319502Y-110029180D01*
X178355812Y-109909482D01*
X178368072Y-109785000D01*
X178368072Y-107385000D01*
X178355812Y-107260518D01*
X178319502Y-107140820D01*
X178260537Y-107030506D01*
X178181185Y-106933815D01*
X178084494Y-106854463D01*
X177974180Y-106795498D01*
X177854482Y-106759188D01*
X177730000Y-106746928D01*
X175330000Y-106746928D01*
X175205518Y-106759188D01*
X175085820Y-106795498D01*
X174975506Y-106854463D01*
X174878815Y-106933815D01*
X174799463Y-107030506D01*
X174740498Y-107140820D01*
X174704188Y-107260518D01*
X174691928Y-107385000D01*
X151847496Y-107385000D01*
X151925989Y-107267528D01*
X152080123Y-106895417D01*
X152158700Y-106500385D01*
X152158700Y-106097615D01*
X152133439Y-105970615D01*
X182867300Y-105970615D01*
X182867300Y-106373385D01*
X182945877Y-106768417D01*
X183100011Y-107140528D01*
X183323778Y-107475420D01*
X183608580Y-107760222D01*
X183943472Y-107983989D01*
X184315583Y-108138123D01*
X184710615Y-108216700D01*
X185113385Y-108216700D01*
X185508417Y-108138123D01*
X185880528Y-107983989D01*
X186215420Y-107760222D01*
X186500222Y-107475420D01*
X186626500Y-107286431D01*
X186752778Y-107475420D01*
X187037580Y-107760222D01*
X187372472Y-107983989D01*
X187744583Y-108138123D01*
X188139615Y-108216700D01*
X188542385Y-108216700D01*
X188937417Y-108138123D01*
X189309528Y-107983989D01*
X189644420Y-107760222D01*
X189929222Y-107475420D01*
X190152989Y-107140528D01*
X190307123Y-106768417D01*
X190385700Y-106373385D01*
X190385700Y-105970615D01*
X190307123Y-105575583D01*
X190152989Y-105203472D01*
X189929222Y-104868580D01*
X189644420Y-104583778D01*
X189309528Y-104360011D01*
X188937417Y-104205877D01*
X188542385Y-104127300D01*
X188139615Y-104127300D01*
X187744583Y-104205877D01*
X187372472Y-104360011D01*
X187037580Y-104583778D01*
X186752778Y-104868580D01*
X186626500Y-105057569D01*
X186500222Y-104868580D01*
X186215420Y-104583778D01*
X185880528Y-104360011D01*
X185508417Y-104205877D01*
X185113385Y-104127300D01*
X184710615Y-104127300D01*
X184315583Y-104205877D01*
X183943472Y-104360011D01*
X183608580Y-104583778D01*
X183323778Y-104868580D01*
X183100011Y-105203472D01*
X182945877Y-105575583D01*
X182867300Y-105970615D01*
X152133439Y-105970615D01*
X152080123Y-105702583D01*
X151925989Y-105330472D01*
X151702222Y-104995580D01*
X151417420Y-104710778D01*
X151082528Y-104487011D01*
X150710417Y-104332877D01*
X150315385Y-104254300D01*
X149912615Y-104254300D01*
X149517583Y-104332877D01*
X149145472Y-104487011D01*
X148810580Y-104710778D01*
X148525778Y-104995580D01*
X148399500Y-105184569D01*
X148273222Y-104995580D01*
X147988420Y-104710778D01*
X147653528Y-104487011D01*
X147281417Y-104332877D01*
X146886385Y-104254300D01*
X146483615Y-104254300D01*
X146088583Y-104332877D01*
X145716472Y-104487011D01*
X145381580Y-104710778D01*
X145096778Y-104995580D01*
X144873011Y-105330472D01*
X144718877Y-105702583D01*
X144640300Y-106097615D01*
X142640000Y-106097615D01*
X142640000Y-106070061D01*
X142621000Y-105974541D01*
X142621000Y-98731615D01*
X144640300Y-98731615D01*
X144640300Y-99134385D01*
X144718877Y-99529417D01*
X144873011Y-99901528D01*
X145096778Y-100236420D01*
X145381580Y-100521222D01*
X145716472Y-100744989D01*
X146088583Y-100899123D01*
X146483615Y-100977700D01*
X146886385Y-100977700D01*
X147281417Y-100899123D01*
X147653528Y-100744989D01*
X147988420Y-100521222D01*
X148273222Y-100236420D01*
X148399500Y-100047431D01*
X148525778Y-100236420D01*
X148810580Y-100521222D01*
X149145472Y-100744989D01*
X149517583Y-100899123D01*
X149912615Y-100977700D01*
X150315385Y-100977700D01*
X150710417Y-100899123D01*
X151082528Y-100744989D01*
X151417420Y-100521222D01*
X151702222Y-100236420D01*
X151925989Y-99901528D01*
X152080123Y-99529417D01*
X152158700Y-99134385D01*
X152158700Y-98858615D01*
X182867300Y-98858615D01*
X182867300Y-99261385D01*
X182945877Y-99656417D01*
X183100011Y-100028528D01*
X183323778Y-100363420D01*
X183608580Y-100648222D01*
X183943472Y-100871989D01*
X184315583Y-101026123D01*
X184710615Y-101104700D01*
X185113385Y-101104700D01*
X185508417Y-101026123D01*
X185880528Y-100871989D01*
X186215420Y-100648222D01*
X186500222Y-100363420D01*
X186626500Y-100174431D01*
X186752778Y-100363420D01*
X187037580Y-100648222D01*
X187372472Y-100871989D01*
X187744583Y-101026123D01*
X188139615Y-101104700D01*
X188542385Y-101104700D01*
X188937417Y-101026123D01*
X189309528Y-100871989D01*
X189644420Y-100648222D01*
X189929222Y-100363420D01*
X190152989Y-100028528D01*
X190307123Y-99656417D01*
X190385700Y-99261385D01*
X190385700Y-98858615D01*
X190307123Y-98463583D01*
X190152989Y-98091472D01*
X189929222Y-97756580D01*
X189644420Y-97471778D01*
X189309528Y-97248011D01*
X188937417Y-97093877D01*
X188542385Y-97015300D01*
X188139615Y-97015300D01*
X187744583Y-97093877D01*
X187372472Y-97248011D01*
X187037580Y-97471778D01*
X186752778Y-97756580D01*
X186626500Y-97945569D01*
X186500222Y-97756580D01*
X186215420Y-97471778D01*
X185880528Y-97248011D01*
X185508417Y-97093877D01*
X185113385Y-97015300D01*
X184710615Y-97015300D01*
X184315583Y-97093877D01*
X183943472Y-97248011D01*
X183608580Y-97471778D01*
X183323778Y-97756580D01*
X183100011Y-98091472D01*
X182945877Y-98463583D01*
X182867300Y-98858615D01*
X152158700Y-98858615D01*
X152158700Y-98731615D01*
X152080123Y-98336583D01*
X151925989Y-97964472D01*
X151702222Y-97629580D01*
X151417420Y-97344778D01*
X151082528Y-97121011D01*
X150710417Y-96966877D01*
X150315385Y-96888300D01*
X149912615Y-96888300D01*
X149517583Y-96966877D01*
X149145472Y-97121011D01*
X148810580Y-97344778D01*
X148525778Y-97629580D01*
X148399500Y-97818569D01*
X148273222Y-97629580D01*
X147988420Y-97344778D01*
X147653528Y-97121011D01*
X147281417Y-96966877D01*
X146886385Y-96888300D01*
X146483615Y-96888300D01*
X146088583Y-96966877D01*
X145716472Y-97121011D01*
X145381580Y-97344778D01*
X145096778Y-97629580D01*
X144873011Y-97964472D01*
X144718877Y-98336583D01*
X144640300Y-98731615D01*
X142621000Y-98731615D01*
X142621000Y-95320000D01*
X156911928Y-95320000D01*
X156911928Y-97720000D01*
X156924188Y-97844482D01*
X156960498Y-97964180D01*
X157019463Y-98074494D01*
X157098815Y-98171185D01*
X157195506Y-98250537D01*
X157305820Y-98309502D01*
X157425518Y-98345812D01*
X157550000Y-98358072D01*
X159950000Y-98358072D01*
X160074482Y-98345812D01*
X160194180Y-98309502D01*
X160304494Y-98250537D01*
X160401185Y-98171185D01*
X160480537Y-98074494D01*
X160539502Y-97964180D01*
X160575812Y-97844482D01*
X160588072Y-97720000D01*
X160588072Y-95320000D01*
X160575812Y-95195518D01*
X160539502Y-95075820D01*
X160480537Y-94965506D01*
X160401185Y-94868815D01*
X160304494Y-94789463D01*
X160194180Y-94730498D01*
X160074482Y-94694188D01*
X159950000Y-94681928D01*
X157550000Y-94681928D01*
X157425518Y-94694188D01*
X157305820Y-94730498D01*
X157195506Y-94789463D01*
X157098815Y-94868815D01*
X157019463Y-94965506D01*
X156960498Y-95075820D01*
X156924188Y-95195518D01*
X156911928Y-95320000D01*
X142621000Y-95320000D01*
X142621000Y-85795459D01*
X142640000Y-85699939D01*
X142640000Y-85496061D01*
X142621000Y-85400541D01*
X142621000Y-85269615D01*
X144640300Y-85269615D01*
X144640300Y-85672385D01*
X144718877Y-86067417D01*
X144873011Y-86439528D01*
X145096778Y-86774420D01*
X145381580Y-87059222D01*
X145716472Y-87282989D01*
X146088583Y-87437123D01*
X146483615Y-87515700D01*
X146886385Y-87515700D01*
X147281417Y-87437123D01*
X147653528Y-87282989D01*
X147988420Y-87059222D01*
X148273222Y-86774420D01*
X148399500Y-86585431D01*
X148525778Y-86774420D01*
X148810580Y-87059222D01*
X149145472Y-87282989D01*
X149517583Y-87437123D01*
X149912615Y-87515700D01*
X150315385Y-87515700D01*
X150710417Y-87437123D01*
X151082528Y-87282989D01*
X151417420Y-87059222D01*
X151702222Y-86774420D01*
X151925989Y-86439528D01*
X152080123Y-86067417D01*
X152158700Y-85672385D01*
X152158700Y-85396615D01*
X182867300Y-85396615D01*
X182867300Y-85799385D01*
X182945877Y-86194417D01*
X183100011Y-86566528D01*
X183323778Y-86901420D01*
X183608580Y-87186222D01*
X183943472Y-87409989D01*
X184315583Y-87564123D01*
X184710615Y-87642700D01*
X185113385Y-87642700D01*
X185508417Y-87564123D01*
X185880528Y-87409989D01*
X186215420Y-87186222D01*
X186500222Y-86901420D01*
X186626500Y-86712431D01*
X186752778Y-86901420D01*
X187037580Y-87186222D01*
X187372472Y-87409989D01*
X187744583Y-87564123D01*
X188139615Y-87642700D01*
X188542385Y-87642700D01*
X188937417Y-87564123D01*
X189309528Y-87409989D01*
X189644420Y-87186222D01*
X189929222Y-86901420D01*
X190152989Y-86566528D01*
X190307123Y-86194417D01*
X190385700Y-85799385D01*
X190385700Y-85396615D01*
X190307123Y-85001583D01*
X190152989Y-84629472D01*
X189929222Y-84294580D01*
X189644420Y-84009778D01*
X189309528Y-83786011D01*
X188937417Y-83631877D01*
X188542385Y-83553300D01*
X188139615Y-83553300D01*
X187744583Y-83631877D01*
X187372472Y-83786011D01*
X187037580Y-84009778D01*
X186752778Y-84294580D01*
X186626500Y-84483569D01*
X186500222Y-84294580D01*
X186215420Y-84009778D01*
X185880528Y-83786011D01*
X185508417Y-83631877D01*
X185113385Y-83553300D01*
X184710615Y-83553300D01*
X184315583Y-83631877D01*
X183943472Y-83786011D01*
X183608580Y-84009778D01*
X183323778Y-84294580D01*
X183100011Y-84629472D01*
X182945877Y-85001583D01*
X182867300Y-85396615D01*
X152158700Y-85396615D01*
X152158700Y-85269615D01*
X152080123Y-84874583D01*
X151925989Y-84502472D01*
X151702222Y-84167580D01*
X151417420Y-83882778D01*
X151082528Y-83659011D01*
X150710417Y-83504877D01*
X150315385Y-83426300D01*
X149912615Y-83426300D01*
X149517583Y-83504877D01*
X149145472Y-83659011D01*
X148810580Y-83882778D01*
X148525778Y-84167580D01*
X148399500Y-84356569D01*
X148273222Y-84167580D01*
X147988420Y-83882778D01*
X147653528Y-83659011D01*
X147281417Y-83504877D01*
X146886385Y-83426300D01*
X146483615Y-83426300D01*
X146088583Y-83504877D01*
X145716472Y-83659011D01*
X145381580Y-83882778D01*
X145096778Y-84167580D01*
X144873011Y-84502472D01*
X144718877Y-84874583D01*
X144640300Y-85269615D01*
X142621000Y-85269615D01*
X142621000Y-78284615D01*
X144640300Y-78284615D01*
X144640300Y-78687385D01*
X144718877Y-79082417D01*
X144873011Y-79454528D01*
X145096778Y-79789420D01*
X145381580Y-80074222D01*
X145716472Y-80297989D01*
X146088583Y-80452123D01*
X146483615Y-80530700D01*
X146886385Y-80530700D01*
X147281417Y-80452123D01*
X147653528Y-80297989D01*
X147988420Y-80074222D01*
X148273222Y-79789420D01*
X148399500Y-79600431D01*
X148525778Y-79789420D01*
X148810580Y-80074222D01*
X149145472Y-80297989D01*
X149517583Y-80452123D01*
X149912615Y-80530700D01*
X150315385Y-80530700D01*
X150710417Y-80452123D01*
X151082528Y-80297989D01*
X151417420Y-80074222D01*
X151702222Y-79789420D01*
X151925989Y-79454528D01*
X152080123Y-79082417D01*
X152158700Y-78687385D01*
X152158700Y-78284615D01*
X152080123Y-77889583D01*
X151925989Y-77517472D01*
X151702222Y-77182580D01*
X151417420Y-76897778D01*
X151082528Y-76674011D01*
X150710417Y-76519877D01*
X150635626Y-76505000D01*
X161591928Y-76505000D01*
X161591928Y-79705000D01*
X161604188Y-79829482D01*
X161640498Y-79949180D01*
X161699463Y-80059494D01*
X161778815Y-80156185D01*
X161875506Y-80235537D01*
X161985820Y-80294502D01*
X162105518Y-80330812D01*
X162230000Y-80343072D01*
X165430000Y-80343072D01*
X165554482Y-80330812D01*
X165674180Y-80294502D01*
X165784494Y-80235537D01*
X165881185Y-80156185D01*
X165960537Y-80059494D01*
X166019502Y-79949180D01*
X166055812Y-79829482D01*
X166068072Y-79705000D01*
X166068072Y-76505000D01*
X168576928Y-76505000D01*
X168576928Y-79705000D01*
X168589188Y-79829482D01*
X168625498Y-79949180D01*
X168684463Y-80059494D01*
X168763815Y-80156185D01*
X168860506Y-80235537D01*
X168970820Y-80294502D01*
X169090518Y-80330812D01*
X169215000Y-80343072D01*
X172415000Y-80343072D01*
X172539482Y-80330812D01*
X172659180Y-80294502D01*
X172769494Y-80235537D01*
X172866185Y-80156185D01*
X172945537Y-80059494D01*
X173004502Y-79949180D01*
X173040812Y-79829482D01*
X173053072Y-79705000D01*
X173053072Y-78411615D01*
X182867300Y-78411615D01*
X182867300Y-78814385D01*
X182945877Y-79209417D01*
X183100011Y-79581528D01*
X183323778Y-79916420D01*
X183608580Y-80201222D01*
X183943472Y-80424989D01*
X184315583Y-80579123D01*
X184710615Y-80657700D01*
X185113385Y-80657700D01*
X185508417Y-80579123D01*
X185880528Y-80424989D01*
X186215420Y-80201222D01*
X186500222Y-79916420D01*
X186626500Y-79727431D01*
X186752778Y-79916420D01*
X187037580Y-80201222D01*
X187372472Y-80424989D01*
X187744583Y-80579123D01*
X188139615Y-80657700D01*
X188542385Y-80657700D01*
X188937417Y-80579123D01*
X189309528Y-80424989D01*
X189644420Y-80201222D01*
X189929222Y-79916420D01*
X190152989Y-79581528D01*
X190307123Y-79209417D01*
X190385700Y-78814385D01*
X190385700Y-78411615D01*
X190307123Y-78016583D01*
X190152989Y-77644472D01*
X189929222Y-77309580D01*
X189644420Y-77024778D01*
X189309528Y-76801011D01*
X188937417Y-76646877D01*
X188542385Y-76568300D01*
X188139615Y-76568300D01*
X187744583Y-76646877D01*
X187372472Y-76801011D01*
X187037580Y-77024778D01*
X186752778Y-77309580D01*
X186626500Y-77498569D01*
X186500222Y-77309580D01*
X186215420Y-77024778D01*
X185880528Y-76801011D01*
X185508417Y-76646877D01*
X185113385Y-76568300D01*
X184710615Y-76568300D01*
X184315583Y-76646877D01*
X183943472Y-76801011D01*
X183608580Y-77024778D01*
X183323778Y-77309580D01*
X183100011Y-77644472D01*
X182945877Y-78016583D01*
X182867300Y-78411615D01*
X173053072Y-78411615D01*
X173053072Y-76505000D01*
X173040812Y-76380518D01*
X173004502Y-76260820D01*
X172945537Y-76150506D01*
X172866185Y-76053815D01*
X172769494Y-75974463D01*
X172659180Y-75915498D01*
X172539482Y-75879188D01*
X172415000Y-75866928D01*
X169215000Y-75866928D01*
X169090518Y-75879188D01*
X168970820Y-75915498D01*
X168860506Y-75974463D01*
X168763815Y-76053815D01*
X168684463Y-76150506D01*
X168625498Y-76260820D01*
X168589188Y-76380518D01*
X168576928Y-76505000D01*
X166068072Y-76505000D01*
X166055812Y-76380518D01*
X166019502Y-76260820D01*
X165960537Y-76150506D01*
X165881185Y-76053815D01*
X165784494Y-75974463D01*
X165674180Y-75915498D01*
X165554482Y-75879188D01*
X165430000Y-75866928D01*
X162230000Y-75866928D01*
X162105518Y-75879188D01*
X161985820Y-75915498D01*
X161875506Y-75974463D01*
X161778815Y-76053815D01*
X161699463Y-76150506D01*
X161640498Y-76260820D01*
X161604188Y-76380518D01*
X161591928Y-76505000D01*
X150635626Y-76505000D01*
X150315385Y-76441300D01*
X149912615Y-76441300D01*
X149517583Y-76519877D01*
X149145472Y-76674011D01*
X148810580Y-76897778D01*
X148525778Y-77182580D01*
X148399500Y-77371569D01*
X148273222Y-77182580D01*
X147988420Y-76897778D01*
X147653528Y-76674011D01*
X147281417Y-76519877D01*
X146886385Y-76441300D01*
X146483615Y-76441300D01*
X146088583Y-76519877D01*
X145716472Y-76674011D01*
X145381580Y-76897778D01*
X145096778Y-77182580D01*
X144873011Y-77517472D01*
X144718877Y-77889583D01*
X144640300Y-78284615D01*
X142621000Y-78284615D01*
X142621000Y-69050000D01*
X159851928Y-69050000D01*
X159851928Y-70650000D01*
X159864188Y-70774482D01*
X159900498Y-70894180D01*
X159959463Y-71004494D01*
X160038815Y-71101185D01*
X160135506Y-71180537D01*
X160245820Y-71239502D01*
X160365518Y-71275812D01*
X160490000Y-71288072D01*
X162090000Y-71288072D01*
X162214482Y-71275812D01*
X162334180Y-71239502D01*
X162444494Y-71180537D01*
X162541185Y-71101185D01*
X162620537Y-71004494D01*
X162679502Y-70894180D01*
X162715812Y-70774482D01*
X162728072Y-70650000D01*
X162728072Y-69050000D01*
X171916928Y-69050000D01*
X171916928Y-70650000D01*
X171929188Y-70774482D01*
X171965498Y-70894180D01*
X172024463Y-71004494D01*
X172103815Y-71101185D01*
X172200506Y-71180537D01*
X172310820Y-71239502D01*
X172430518Y-71275812D01*
X172555000Y-71288072D01*
X174155000Y-71288072D01*
X174279482Y-71275812D01*
X174399180Y-71239502D01*
X174509494Y-71180537D01*
X174606185Y-71101185D01*
X174685537Y-71004494D01*
X174744502Y-70894180D01*
X174780812Y-70774482D01*
X174793072Y-70650000D01*
X174793072Y-69050000D01*
X174780812Y-68925518D01*
X174744502Y-68805820D01*
X174685537Y-68695506D01*
X174606185Y-68598815D01*
X174509494Y-68519463D01*
X174399180Y-68460498D01*
X174279482Y-68424188D01*
X174155000Y-68411928D01*
X172555000Y-68411928D01*
X172430518Y-68424188D01*
X172310820Y-68460498D01*
X172200506Y-68519463D01*
X172103815Y-68598815D01*
X172024463Y-68695506D01*
X171965498Y-68805820D01*
X171929188Y-68925518D01*
X171916928Y-69050000D01*
X162728072Y-69050000D01*
X162715812Y-68925518D01*
X162679502Y-68805820D01*
X162620537Y-68695506D01*
X162541185Y-68598815D01*
X162444494Y-68519463D01*
X162334180Y-68460498D01*
X162214482Y-68424188D01*
X162090000Y-68411928D01*
X160490000Y-68411928D01*
X160365518Y-68424188D01*
X160245820Y-68460498D01*
X160135506Y-68519463D01*
X160038815Y-68598815D01*
X159959463Y-68695506D01*
X159900498Y-68805820D01*
X159864188Y-68925518D01*
X159851928Y-69050000D01*
X142621000Y-69050000D01*
X142621000Y-64713459D01*
X142640000Y-64617939D01*
X142640000Y-64414061D01*
X142621000Y-64318541D01*
X142621000Y-63285840D01*
X142660840Y-63246000D01*
X145665604Y-63246000D01*
X145381580Y-63435778D01*
X145096778Y-63720580D01*
X144873011Y-64055472D01*
X144718877Y-64427583D01*
X144640300Y-64822615D01*
X144640300Y-65225385D01*
X144718877Y-65620417D01*
X144873011Y-65992528D01*
X145096778Y-66327420D01*
X145381580Y-66612222D01*
X145716472Y-66835989D01*
X146088583Y-66990123D01*
X146483615Y-67068700D01*
X146886385Y-67068700D01*
X147281417Y-66990123D01*
X147653528Y-66835989D01*
X147988420Y-66612222D01*
X148273222Y-66327420D01*
X148399500Y-66138431D01*
X148525778Y-66327420D01*
X148810580Y-66612222D01*
X149145472Y-66835989D01*
X149517583Y-66990123D01*
X149912615Y-67068700D01*
X150315385Y-67068700D01*
X150710417Y-66990123D01*
X151082528Y-66835989D01*
X151417420Y-66612222D01*
X151702222Y-66327420D01*
X151925989Y-65992528D01*
X152080123Y-65620417D01*
X152158700Y-65225385D01*
X152158700Y-64822615D01*
X152080123Y-64427583D01*
X151925989Y-64055472D01*
X151702222Y-63720580D01*
X151417420Y-63435778D01*
X151133396Y-63246000D01*
X151979160Y-63246000D01*
X153551292Y-64818133D01*
X153583104Y-64856896D01*
X153737810Y-64983860D01*
X153914311Y-65078201D01*
X153914313Y-65078202D01*
X154105829Y-65136298D01*
X154305000Y-65155915D01*
X154354902Y-65151000D01*
X168860098Y-65151000D01*
X168910000Y-65155915D01*
X168959902Y-65151000D01*
X169109171Y-65136298D01*
X169300687Y-65078202D01*
X169477190Y-64983860D01*
X169518917Y-64949615D01*
X182867300Y-64949615D01*
X182867300Y-65352385D01*
X182945877Y-65747417D01*
X183100011Y-66119528D01*
X183323778Y-66454420D01*
X183608580Y-66739222D01*
X183943472Y-66962989D01*
X184315583Y-67117123D01*
X184710615Y-67195700D01*
X185113385Y-67195700D01*
X185508417Y-67117123D01*
X185880528Y-66962989D01*
X186215420Y-66739222D01*
X186500222Y-66454420D01*
X186626500Y-66265431D01*
X186752778Y-66454420D01*
X187037580Y-66739222D01*
X187372472Y-66962989D01*
X187744583Y-67117123D01*
X188139615Y-67195700D01*
X188542385Y-67195700D01*
X188937417Y-67117123D01*
X189309528Y-66962989D01*
X189644420Y-66739222D01*
X189929222Y-66454420D01*
X190152989Y-66119528D01*
X190307123Y-65747417D01*
X190385700Y-65352385D01*
X190385700Y-64949615D01*
X190307123Y-64554583D01*
X190152989Y-64182472D01*
X189929222Y-63847580D01*
X189644420Y-63562778D01*
X189309528Y-63339011D01*
X188937417Y-63184877D01*
X188542385Y-63106300D01*
X188139615Y-63106300D01*
X187744583Y-63184877D01*
X187372472Y-63339011D01*
X187037580Y-63562778D01*
X186752778Y-63847580D01*
X186626500Y-64036569D01*
X186500222Y-63847580D01*
X186215420Y-63562778D01*
X185880528Y-63339011D01*
X185508417Y-63184877D01*
X185113385Y-63106300D01*
X184710615Y-63106300D01*
X184315583Y-63184877D01*
X183943472Y-63339011D01*
X183608580Y-63562778D01*
X183323778Y-63847580D01*
X183100011Y-64182472D01*
X182945877Y-64554583D01*
X182867300Y-64949615D01*
X169518917Y-64949615D01*
X169631896Y-64856896D01*
X169663712Y-64818128D01*
X170854841Y-63627000D01*
X170952592Y-63627000D01*
X171222490Y-63573314D01*
X171476727Y-63468005D01*
X171705535Y-63315120D01*
X171900120Y-63120535D01*
X172053005Y-62891727D01*
X172158314Y-62637490D01*
X172212000Y-62367592D01*
X172212000Y-62269840D01*
X173140841Y-61341000D01*
X174808854Y-61341000D01*
X174656995Y-61568273D01*
X174551686Y-61822510D01*
X174498000Y-62092408D01*
X174498000Y-62367592D01*
X174551686Y-62637490D01*
X174656995Y-62891727D01*
X174809880Y-63120535D01*
X175004465Y-63315120D01*
X175233273Y-63468005D01*
X175487510Y-63573314D01*
X175757408Y-63627000D01*
X176032592Y-63627000D01*
X176302490Y-63573314D01*
X176556727Y-63468005D01*
X176785535Y-63315120D01*
X176980120Y-63120535D01*
X177133005Y-62891727D01*
X177238314Y-62637490D01*
X177292000Y-62367592D01*
X177292000Y-62092408D01*
X177238314Y-61822510D01*
X177133005Y-61568273D01*
X176981146Y-61341000D01*
X193929001Y-61341000D01*
X193929000Y-81082541D01*
X193910000Y-81178061D01*
X193910000Y-81381939D01*
X193929001Y-81477464D01*
X193929000Y-101402541D01*
X193910000Y-101498061D01*
X193910000Y-101701939D01*
X193929001Y-101797464D01*
X193929000Y-122357541D01*
X193910000Y-122453061D01*
X193910000Y-122656939D01*
X193929001Y-122752464D01*
X193929000Y-143312541D01*
X193910000Y-143408061D01*
X193910000Y-143611939D01*
X193949774Y-143811898D01*
X194027795Y-144000256D01*
X194141063Y-144169774D01*
X194285226Y-144313937D01*
X194454744Y-144427205D01*
X194643102Y-144505226D01*
X194843061Y-144545000D01*
X195046939Y-144545000D01*
X195246898Y-144505226D01*
X195435256Y-144427205D01*
X195604774Y-144313937D01*
X195748937Y-144169774D01*
X195862205Y-144000256D01*
X195940226Y-143811898D01*
X195980000Y-143611939D01*
X195980000Y-143408061D01*
X195961000Y-143312541D01*
X195961000Y-140149290D01*
X217170000Y-140149290D01*
X217170000Y-140774710D01*
X217292014Y-141388113D01*
X217531352Y-141965926D01*
X217878817Y-142485944D01*
X218321056Y-142928183D01*
X218841074Y-143275648D01*
X219418887Y-143514986D01*
X220032290Y-143637000D01*
X220657710Y-143637000D01*
X221271113Y-143514986D01*
X221848926Y-143275648D01*
X222368944Y-142928183D01*
X222811183Y-142485944D01*
X223158648Y-141965926D01*
X223397986Y-141388113D01*
X223520000Y-140774710D01*
X223520000Y-140149290D01*
X223397986Y-139535887D01*
X223158648Y-138958074D01*
X222811183Y-138438056D01*
X222368944Y-137995817D01*
X221848926Y-137648352D01*
X221271113Y-137409014D01*
X220657710Y-137287000D01*
X220032290Y-137287000D01*
X219418887Y-137409014D01*
X218841074Y-137648352D01*
X218321056Y-137995817D01*
X217878817Y-138438056D01*
X217531352Y-138958074D01*
X217292014Y-139535887D01*
X217170000Y-140149290D01*
X195961000Y-140149290D01*
X195961000Y-130722841D01*
X196161292Y-130923133D01*
X196193104Y-130961896D01*
X196347810Y-131088860D01*
X196524313Y-131183202D01*
X196657732Y-131223674D01*
X196715828Y-131241298D01*
X196735177Y-131243204D01*
X196865098Y-131256000D01*
X196865105Y-131256000D01*
X196914999Y-131260914D01*
X196964893Y-131256000D01*
X216337541Y-131256000D01*
X216433061Y-131275000D01*
X216636939Y-131275000D01*
X216836898Y-131235226D01*
X217025256Y-131157205D01*
X217194774Y-131043937D01*
X217338937Y-130899774D01*
X217452205Y-130730256D01*
X217530226Y-130541898D01*
X217570000Y-130341939D01*
X217570000Y-130138061D01*
X217530226Y-129938102D01*
X217452205Y-129749744D01*
X217338937Y-129580226D01*
X217194774Y-129436063D01*
X217025256Y-129322795D01*
X216836898Y-129244774D01*
X216636939Y-129205000D01*
X216433061Y-129205000D01*
X216337541Y-129224000D01*
X197335841Y-129224000D01*
X197231000Y-129119160D01*
X197231000Y-128499240D01*
X232643680Y-128499240D01*
X232643680Y-128914520D01*
X232724697Y-129321819D01*
X232883617Y-129705487D01*
X233114334Y-130050779D01*
X233407981Y-130344426D01*
X233753273Y-130575143D01*
X234136941Y-130734063D01*
X234544240Y-130815080D01*
X234959520Y-130815080D01*
X235366819Y-130734063D01*
X235750487Y-130575143D01*
X236095779Y-130344426D01*
X236389426Y-130050779D01*
X236620143Y-129705487D01*
X236779063Y-129321819D01*
X236860080Y-128914520D01*
X236860080Y-128499240D01*
X236779063Y-128091941D01*
X236620143Y-127708273D01*
X236389426Y-127362981D01*
X236095779Y-127069334D01*
X235750487Y-126838617D01*
X235366819Y-126679697D01*
X234959520Y-126598680D01*
X234544240Y-126598680D01*
X234136941Y-126679697D01*
X233753273Y-126838617D01*
X233407981Y-127069334D01*
X233114334Y-127362981D01*
X232883617Y-127708273D01*
X232724697Y-128091941D01*
X232643680Y-128499240D01*
X197231000Y-128499240D01*
X197231000Y-118686290D01*
X217170000Y-118686290D01*
X217170000Y-119311710D01*
X217292014Y-119925113D01*
X217531352Y-120502926D01*
X217878817Y-121022944D01*
X218321056Y-121465183D01*
X218841074Y-121812648D01*
X219418887Y-122051986D01*
X220032290Y-122174000D01*
X220657710Y-122174000D01*
X221271113Y-122051986D01*
X221848926Y-121812648D01*
X222368944Y-121465183D01*
X222811183Y-121022944D01*
X223158648Y-120502926D01*
X223397986Y-119925113D01*
X223520000Y-119311710D01*
X223520000Y-118686290D01*
X223397986Y-118072887D01*
X223158648Y-117495074D01*
X222811183Y-116975056D01*
X222368944Y-116532817D01*
X221848926Y-116185352D01*
X221271113Y-115946014D01*
X220657710Y-115824000D01*
X220032290Y-115824000D01*
X219418887Y-115946014D01*
X218841074Y-116185352D01*
X218321056Y-116532817D01*
X217878817Y-116975056D01*
X217531352Y-117495074D01*
X217292014Y-118072887D01*
X217170000Y-118686290D01*
X197231000Y-118686290D01*
X197231000Y-109031000D01*
X216337541Y-109031000D01*
X216433061Y-109050000D01*
X216636939Y-109050000D01*
X216836898Y-109010226D01*
X217025256Y-108932205D01*
X217194774Y-108818937D01*
X217338937Y-108674774D01*
X217452205Y-108505256D01*
X217530226Y-108316898D01*
X217570000Y-108116939D01*
X217570000Y-107913061D01*
X217530226Y-107713102D01*
X217452205Y-107524744D01*
X217338937Y-107355226D01*
X217194774Y-107211063D01*
X217025256Y-107097795D01*
X216836898Y-107019774D01*
X216636939Y-106980000D01*
X216433061Y-106980000D01*
X216337541Y-106999000D01*
X197335841Y-106999000D01*
X197231000Y-106894160D01*
X197231000Y-98112290D01*
X217170000Y-98112290D01*
X217170000Y-98737710D01*
X217292014Y-99351113D01*
X217531352Y-99928926D01*
X217878817Y-100448944D01*
X218321056Y-100891183D01*
X218841074Y-101238648D01*
X219418887Y-101477986D01*
X220032290Y-101600000D01*
X220657710Y-101600000D01*
X221271113Y-101477986D01*
X221848926Y-101238648D01*
X222368944Y-100891183D01*
X222811183Y-100448944D01*
X223158648Y-99928926D01*
X223397986Y-99351113D01*
X223520000Y-98737710D01*
X223520000Y-98112290D01*
X223397986Y-97498887D01*
X223158648Y-96921074D01*
X222811183Y-96401056D01*
X222368944Y-95958817D01*
X221848926Y-95611352D01*
X221271113Y-95372014D01*
X220657710Y-95250000D01*
X220032290Y-95250000D01*
X219418887Y-95372014D01*
X218841074Y-95611352D01*
X218321056Y-95958817D01*
X217878817Y-96401056D01*
X217531352Y-96921074D01*
X217292014Y-97498887D01*
X217170000Y-98112290D01*
X197231000Y-98112290D01*
X197231000Y-88711000D01*
X216337541Y-88711000D01*
X216433061Y-88730000D01*
X216636939Y-88730000D01*
X216836898Y-88690226D01*
X217025256Y-88612205D01*
X217194774Y-88498937D01*
X217338937Y-88354774D01*
X217452205Y-88185256D01*
X217530226Y-87996898D01*
X217570000Y-87796939D01*
X217570000Y-87593061D01*
X217530226Y-87393102D01*
X217452205Y-87204744D01*
X217338937Y-87035226D01*
X217194774Y-86891063D01*
X217025256Y-86777795D01*
X216836898Y-86699774D01*
X216636939Y-86660000D01*
X216433061Y-86660000D01*
X216337541Y-86679000D01*
X197335841Y-86679000D01*
X197231000Y-86574160D01*
X197231000Y-77665290D01*
X217170000Y-77665290D01*
X217170000Y-78290710D01*
X217292014Y-78904113D01*
X217531352Y-79481926D01*
X217878817Y-80001944D01*
X218321056Y-80444183D01*
X218841074Y-80791648D01*
X219418887Y-81030986D01*
X220032290Y-81153000D01*
X220657710Y-81153000D01*
X221271113Y-81030986D01*
X221848926Y-80791648D01*
X222368944Y-80444183D01*
X222811183Y-80001944D01*
X223158648Y-79481926D01*
X223397986Y-78904113D01*
X223520000Y-78290710D01*
X223520000Y-77665290D01*
X223397986Y-77051887D01*
X223158648Y-76474074D01*
X222811183Y-75954056D01*
X222368944Y-75511817D01*
X221848926Y-75164352D01*
X221271113Y-74925014D01*
X220657710Y-74803000D01*
X220032290Y-74803000D01*
X219418887Y-74925014D01*
X218841074Y-75164352D01*
X218321056Y-75511817D01*
X217878817Y-75954056D01*
X217531352Y-76474074D01*
X217292014Y-77051887D01*
X217170000Y-77665290D01*
X197231000Y-77665290D01*
X197231000Y-68391000D01*
X216337541Y-68391000D01*
X216433061Y-68410000D01*
X216636939Y-68410000D01*
X216836898Y-68370226D01*
X217025256Y-68292205D01*
X217194774Y-68178937D01*
X217338937Y-68034774D01*
X217452205Y-67865256D01*
X217530226Y-67676898D01*
X217570000Y-67476939D01*
X217570000Y-67273061D01*
X217530226Y-67073102D01*
X217452205Y-66884744D01*
X217338937Y-66715226D01*
X217194774Y-66571063D01*
X217025256Y-66457795D01*
X216836898Y-66379774D01*
X216636939Y-66340000D01*
X216433061Y-66340000D01*
X216337541Y-66359000D01*
X197335841Y-66359000D01*
X197231000Y-66254160D01*
X197231000Y-65395480D01*
X232643680Y-65395480D01*
X232643680Y-65810760D01*
X232724697Y-66218059D01*
X232883617Y-66601727D01*
X233114334Y-66947019D01*
X233407981Y-67240666D01*
X233753273Y-67471383D01*
X234136941Y-67630303D01*
X234544240Y-67711320D01*
X234959520Y-67711320D01*
X235366819Y-67630303D01*
X235750487Y-67471383D01*
X236095779Y-67240666D01*
X236389426Y-66947019D01*
X236620143Y-66601727D01*
X236779063Y-66218059D01*
X236860080Y-65810760D01*
X236860080Y-65395480D01*
X236779063Y-64988181D01*
X236620143Y-64604513D01*
X236389426Y-64259221D01*
X236095779Y-63965574D01*
X235750487Y-63734857D01*
X235366819Y-63575937D01*
X234959520Y-63494920D01*
X234544240Y-63494920D01*
X234136941Y-63575937D01*
X233753273Y-63734857D01*
X233407981Y-63965574D01*
X233114334Y-64259221D01*
X232883617Y-64604513D01*
X232724697Y-64988181D01*
X232643680Y-65395480D01*
X197231000Y-65395480D01*
X197231000Y-56837290D01*
X217170000Y-56837290D01*
X217170000Y-57462710D01*
X217292014Y-58076113D01*
X217531352Y-58653926D01*
X217878817Y-59173944D01*
X218321056Y-59616183D01*
X218841074Y-59963648D01*
X219418887Y-60202986D01*
X220032290Y-60325000D01*
X220657710Y-60325000D01*
X221271113Y-60202986D01*
X221848926Y-59963648D01*
X222368944Y-59616183D01*
X222811183Y-59173944D01*
X223158648Y-58653926D01*
X223397986Y-58076113D01*
X223520000Y-57462710D01*
X223520000Y-56837290D01*
X223397986Y-56223887D01*
X223158648Y-55646074D01*
X222811183Y-55126056D01*
X222368944Y-54683817D01*
X221848926Y-54336352D01*
X221271113Y-54097014D01*
X220657710Y-53975000D01*
X220032290Y-53975000D01*
X219418887Y-54097014D01*
X218841074Y-54336352D01*
X218321056Y-54683817D01*
X217878817Y-55126056D01*
X217531352Y-55646074D01*
X217292014Y-56223887D01*
X217170000Y-56837290D01*
X197231000Y-56837290D01*
X197231000Y-48006000D01*
X215788098Y-48006000D01*
X215838000Y-48010915D01*
X215887902Y-48006000D01*
X216037171Y-47991298D01*
X216228687Y-47933202D01*
X216405190Y-47838860D01*
X216559896Y-47711896D01*
X216591712Y-47673128D01*
X217113796Y-47151044D01*
X217194774Y-47096937D01*
X217338937Y-46952774D01*
X217452205Y-46783256D01*
X217530226Y-46594898D01*
X217570000Y-46394939D01*
X217570000Y-46191061D01*
X217530226Y-45991102D01*
X217452205Y-45802744D01*
X217338937Y-45633226D01*
X217194774Y-45489063D01*
X217025256Y-45375795D01*
X216836898Y-45297774D01*
X216636939Y-45258000D01*
X216433061Y-45258000D01*
X216233102Y-45297774D01*
X216044744Y-45375795D01*
X215875226Y-45489063D01*
X215731063Y-45633226D01*
X215676956Y-45714204D01*
X215417160Y-45974000D01*
X195629902Y-45974000D01*
X195580000Y-45969085D01*
X195530098Y-45974000D01*
X189708642Y-45974000D01*
X189929222Y-45753420D01*
X190152989Y-45418528D01*
X190307123Y-45046417D01*
X190385700Y-44651385D01*
X190385700Y-44248615D01*
X190307123Y-43853583D01*
X190152989Y-43481472D01*
X189929222Y-43146580D01*
X189644420Y-42861778D01*
X189309528Y-42638011D01*
X188937417Y-42483877D01*
X188542385Y-42405300D01*
X188139615Y-42405300D01*
X187744583Y-42483877D01*
X187372472Y-42638011D01*
X187037580Y-42861778D01*
X186752778Y-43146580D01*
X186626500Y-43335569D01*
X186500222Y-43146580D01*
X186215420Y-42861778D01*
X185880528Y-42638011D01*
X185508417Y-42483877D01*
X185113385Y-42405300D01*
X184710615Y-42405300D01*
X184315583Y-42483877D01*
X183943472Y-42638011D01*
X183608580Y-42861778D01*
X183323778Y-43146580D01*
X183100011Y-43481472D01*
X182945877Y-43853583D01*
X182867300Y-44248615D01*
X182867300Y-44651385D01*
X182945877Y-45046417D01*
X183100011Y-45418528D01*
X183323778Y-45753420D01*
X183544358Y-45974000D01*
X160069893Y-45974000D01*
X160019999Y-45969086D01*
X159970105Y-45974000D01*
X159970098Y-45974000D01*
X159820829Y-45988702D01*
X159766000Y-46005334D01*
X159766000Y-43864901D01*
X159770915Y-43815000D01*
X159751298Y-43615829D01*
X159693202Y-43424313D01*
X159669073Y-43379170D01*
X159598860Y-43247810D01*
X159471896Y-43093104D01*
X159433133Y-43061292D01*
X158116841Y-41745000D01*
X161756928Y-41745000D01*
X161756928Y-43345000D01*
X161769188Y-43469482D01*
X161805498Y-43589180D01*
X161864463Y-43699494D01*
X161943815Y-43796185D01*
X162040506Y-43875537D01*
X162150820Y-43934502D01*
X162270518Y-43970812D01*
X162395000Y-43983072D01*
X163995000Y-43983072D01*
X164119482Y-43970812D01*
X164239180Y-43934502D01*
X164349494Y-43875537D01*
X164446185Y-43796185D01*
X164525537Y-43699494D01*
X164584502Y-43589180D01*
X164620812Y-43469482D01*
X164633072Y-43345000D01*
X164633072Y-41745000D01*
X164620812Y-41620518D01*
X164584502Y-41500820D01*
X164525537Y-41390506D01*
X164446185Y-41293815D01*
X164349494Y-41214463D01*
X164239180Y-41155498D01*
X164119482Y-41119188D01*
X163995000Y-41106928D01*
X162395000Y-41106928D01*
X162270518Y-41119188D01*
X162150820Y-41155498D01*
X162040506Y-41214463D01*
X161943815Y-41293815D01*
X161864463Y-41390506D01*
X161805498Y-41500820D01*
X161769188Y-41620518D01*
X161756928Y-41745000D01*
X158116841Y-41745000D01*
X157861000Y-41489160D01*
X157861000Y-36103061D01*
X172320000Y-36103061D01*
X172320000Y-36306939D01*
X172359774Y-36506898D01*
X172437795Y-36695256D01*
X172534510Y-36840000D01*
X172437795Y-36984744D01*
X172359774Y-37173102D01*
X172320000Y-37373061D01*
X172320000Y-37576939D01*
X172359774Y-37776898D01*
X172437795Y-37965256D01*
X172551063Y-38134774D01*
X172695226Y-38278937D01*
X172864744Y-38392205D01*
X173053102Y-38470226D01*
X173253061Y-38510000D01*
X173456939Y-38510000D01*
X173656898Y-38470226D01*
X173845256Y-38392205D01*
X173990000Y-38295490D01*
X174134744Y-38392205D01*
X174323102Y-38470226D01*
X174523061Y-38510000D01*
X174726939Y-38510000D01*
X174926898Y-38470226D01*
X175115256Y-38392205D01*
X175260000Y-38295490D01*
X175404744Y-38392205D01*
X175593102Y-38470226D01*
X175793061Y-38510000D01*
X175996939Y-38510000D01*
X176196898Y-38470226D01*
X176385256Y-38392205D01*
X176530000Y-38295490D01*
X176674744Y-38392205D01*
X176863102Y-38470226D01*
X177063061Y-38510000D01*
X177266939Y-38510000D01*
X177466898Y-38470226D01*
X177655256Y-38392205D01*
X177800000Y-38295490D01*
X177944744Y-38392205D01*
X178133102Y-38470226D01*
X178333061Y-38510000D01*
X178536939Y-38510000D01*
X178736898Y-38470226D01*
X178925256Y-38392205D01*
X179094774Y-38278937D01*
X179238937Y-38134774D01*
X179352205Y-37965256D01*
X179430226Y-37776898D01*
X179470000Y-37576939D01*
X179470000Y-37373061D01*
X179430226Y-37173102D01*
X179352205Y-36984744D01*
X179255490Y-36840000D01*
X179352205Y-36695256D01*
X179430226Y-36506898D01*
X179470000Y-36306939D01*
X179470000Y-36103061D01*
X179430226Y-35903102D01*
X179352205Y-35714744D01*
X179238937Y-35545226D01*
X179094774Y-35401063D01*
X178925256Y-35287795D01*
X178736898Y-35209774D01*
X178536939Y-35170000D01*
X178333061Y-35170000D01*
X178133102Y-35209774D01*
X177944744Y-35287795D01*
X177800000Y-35384510D01*
X177655256Y-35287795D01*
X177466898Y-35209774D01*
X177266939Y-35170000D01*
X177063061Y-35170000D01*
X176863102Y-35209774D01*
X176674744Y-35287795D01*
X176530000Y-35384510D01*
X176385256Y-35287795D01*
X176196898Y-35209774D01*
X175996939Y-35170000D01*
X175793061Y-35170000D01*
X175593102Y-35209774D01*
X175404744Y-35287795D01*
X175260000Y-35384510D01*
X175115256Y-35287795D01*
X174926898Y-35209774D01*
X174726939Y-35170000D01*
X174523061Y-35170000D01*
X174323102Y-35209774D01*
X174134744Y-35287795D01*
X173990000Y-35384510D01*
X173845256Y-35287795D01*
X173656898Y-35209774D01*
X173456939Y-35170000D01*
X173253061Y-35170000D01*
X173053102Y-35209774D01*
X172864744Y-35287795D01*
X172695226Y-35401063D01*
X172551063Y-35545226D01*
X172437795Y-35714744D01*
X172359774Y-35903102D01*
X172320000Y-36103061D01*
X157861000Y-36103061D01*
X157861000Y-35884655D01*
X157930120Y-35815535D01*
X158083005Y-35586727D01*
X158188314Y-35332490D01*
X158242000Y-35062592D01*
X158242000Y-34787408D01*
X158188314Y-34517510D01*
X158090133Y-34280480D01*
X232643680Y-34280480D01*
X232643680Y-34695760D01*
X232724697Y-35103059D01*
X232883617Y-35486727D01*
X233114334Y-35832019D01*
X233407981Y-36125666D01*
X233753273Y-36356383D01*
X234136941Y-36515303D01*
X234544240Y-36596320D01*
X234959520Y-36596320D01*
X235366819Y-36515303D01*
X235750487Y-36356383D01*
X236095779Y-36125666D01*
X236389426Y-35832019D01*
X236620143Y-35486727D01*
X236779063Y-35103059D01*
X236860080Y-34695760D01*
X236860080Y-34280480D01*
X236779063Y-33873181D01*
X236620143Y-33489513D01*
X236389426Y-33144221D01*
X236095779Y-32850574D01*
X235750487Y-32619857D01*
X235366819Y-32460937D01*
X234959520Y-32379920D01*
X234544240Y-32379920D01*
X234136941Y-32460937D01*
X233753273Y-32619857D01*
X233407981Y-32850574D01*
X233114334Y-33144221D01*
X232883617Y-33489513D01*
X232724697Y-33873181D01*
X232643680Y-34280480D01*
X158090133Y-34280480D01*
X158083005Y-34263273D01*
X157930120Y-34034465D01*
X157735535Y-33839880D01*
X157506727Y-33686995D01*
X157252490Y-33581686D01*
X156982592Y-33528000D01*
X156707408Y-33528000D01*
X156437510Y-33581686D01*
X156183273Y-33686995D01*
X155954465Y-33839880D01*
X155759880Y-34034465D01*
X155606995Y-34263273D01*
X155501686Y-34517510D01*
X155448000Y-34787408D01*
X155448000Y-35062592D01*
X155501686Y-35332490D01*
X155606995Y-35586727D01*
X155759880Y-35815535D01*
X155829001Y-35884656D01*
X155829000Y-40054901D01*
X155829001Y-40054910D01*
X155829000Y-40894000D01*
X141019893Y-40894000D01*
X140969999Y-40889086D01*
X140920105Y-40894000D01*
X140920098Y-40894000D01*
X140770829Y-40908702D01*
X140579313Y-40966798D01*
X140402810Y-41061140D01*
X140248104Y-41188104D01*
X140216292Y-41226867D01*
X139016868Y-42426292D01*
X138978105Y-42458104D01*
X138851141Y-42612810D01*
X138808400Y-42692774D01*
X138756799Y-42789313D01*
X138698702Y-42980830D01*
X138679085Y-43180000D01*
X138684001Y-43229912D01*
X138684000Y-55459160D01*
X138644160Y-55499000D01*
X120847459Y-55499000D01*
X120751939Y-55480000D01*
X120548061Y-55480000D01*
X120348102Y-55519774D01*
X120159744Y-55597795D01*
X119990226Y-55711063D01*
X119846063Y-55855226D01*
X119732795Y-56024744D01*
X119654774Y-56213102D01*
X119615000Y-56413061D01*
X97180000Y-56413061D01*
X97180000Y-44899290D01*
X111506000Y-44899290D01*
X111506000Y-45524710D01*
X111628014Y-46138113D01*
X111867352Y-46715926D01*
X112214817Y-47235944D01*
X112657056Y-47678183D01*
X113177074Y-48025648D01*
X113754887Y-48264986D01*
X114368290Y-48387000D01*
X114993710Y-48387000D01*
X115607113Y-48264986D01*
X116184926Y-48025648D01*
X116704944Y-47678183D01*
X117147183Y-47235944D01*
X117494648Y-46715926D01*
X117733986Y-46138113D01*
X117856000Y-45524710D01*
X117856000Y-44899290D01*
X117733986Y-44285887D01*
X117494648Y-43708074D01*
X117147183Y-43188056D01*
X116704944Y-42745817D01*
X116184926Y-42398352D01*
X115607113Y-42159014D01*
X114993710Y-42037000D01*
X114368290Y-42037000D01*
X113754887Y-42159014D01*
X113177074Y-42398352D01*
X112657056Y-42745817D01*
X112214817Y-43188056D01*
X111867352Y-43708074D01*
X111628014Y-44285887D01*
X111506000Y-44899290D01*
X97180000Y-44899290D01*
X97180000Y-34576279D01*
X97209003Y-34280480D01*
X98419920Y-34280480D01*
X98419920Y-34695760D01*
X98500937Y-35103059D01*
X98659857Y-35486727D01*
X98890574Y-35832019D01*
X99184221Y-36125666D01*
X99529513Y-36356383D01*
X99913181Y-36515303D01*
X100320480Y-36596320D01*
X100735760Y-36596320D01*
X101143059Y-36515303D01*
X101526727Y-36356383D01*
X101872019Y-36125666D01*
X101894624Y-36103061D01*
X131045000Y-36103061D01*
X131045000Y-36306939D01*
X131084774Y-36506898D01*
X131162795Y-36695256D01*
X131259510Y-36840000D01*
X131162795Y-36984744D01*
X131084774Y-37173102D01*
X131045000Y-37373061D01*
X131045000Y-37576939D01*
X131084774Y-37776898D01*
X131162795Y-37965256D01*
X131276063Y-38134774D01*
X131420226Y-38278937D01*
X131589744Y-38392205D01*
X131778102Y-38470226D01*
X131978061Y-38510000D01*
X132181939Y-38510000D01*
X132381898Y-38470226D01*
X132570256Y-38392205D01*
X132715000Y-38295490D01*
X132859744Y-38392205D01*
X133048102Y-38470226D01*
X133248061Y-38510000D01*
X133451939Y-38510000D01*
X133651898Y-38470226D01*
X133840256Y-38392205D01*
X133985000Y-38295490D01*
X134129744Y-38392205D01*
X134318102Y-38470226D01*
X134518061Y-38510000D01*
X134721939Y-38510000D01*
X134921898Y-38470226D01*
X135110256Y-38392205D01*
X135255000Y-38295490D01*
X135399744Y-38392205D01*
X135588102Y-38470226D01*
X135788061Y-38510000D01*
X135991939Y-38510000D01*
X136191898Y-38470226D01*
X136380256Y-38392205D01*
X136525000Y-38295490D01*
X136669744Y-38392205D01*
X136858102Y-38470226D01*
X137058061Y-38510000D01*
X137261939Y-38510000D01*
X137461898Y-38470226D01*
X137650256Y-38392205D01*
X137819774Y-38278937D01*
X137963937Y-38134774D01*
X138077205Y-37965256D01*
X138155226Y-37776898D01*
X138195000Y-37576939D01*
X138195000Y-37373061D01*
X138155226Y-37173102D01*
X138077205Y-36984744D01*
X137980490Y-36840000D01*
X138077205Y-36695256D01*
X138155226Y-36506898D01*
X138195000Y-36306939D01*
X138195000Y-36103061D01*
X138155226Y-35903102D01*
X138077205Y-35714744D01*
X137963937Y-35545226D01*
X137819774Y-35401063D01*
X137650256Y-35287795D01*
X137461898Y-35209774D01*
X137261939Y-35170000D01*
X137058061Y-35170000D01*
X136858102Y-35209774D01*
X136669744Y-35287795D01*
X136525000Y-35384510D01*
X136380256Y-35287795D01*
X136191898Y-35209774D01*
X135991939Y-35170000D01*
X135788061Y-35170000D01*
X135588102Y-35209774D01*
X135399744Y-35287795D01*
X135255000Y-35384510D01*
X135110256Y-35287795D01*
X134921898Y-35209774D01*
X134721939Y-35170000D01*
X134518061Y-35170000D01*
X134318102Y-35209774D01*
X134129744Y-35287795D01*
X133985000Y-35384510D01*
X133840256Y-35287795D01*
X133651898Y-35209774D01*
X133451939Y-35170000D01*
X133248061Y-35170000D01*
X133048102Y-35209774D01*
X132859744Y-35287795D01*
X132715000Y-35384510D01*
X132570256Y-35287795D01*
X132381898Y-35209774D01*
X132181939Y-35170000D01*
X131978061Y-35170000D01*
X131778102Y-35209774D01*
X131589744Y-35287795D01*
X131420226Y-35401063D01*
X131276063Y-35545226D01*
X131162795Y-35714744D01*
X131084774Y-35903102D01*
X131045000Y-36103061D01*
X101894624Y-36103061D01*
X102165666Y-35832019D01*
X102396383Y-35486727D01*
X102555303Y-35103059D01*
X102636320Y-34695760D01*
X102636320Y-34280480D01*
X102605394Y-34125000D01*
X148294928Y-34125000D01*
X148294928Y-35725000D01*
X148307188Y-35849482D01*
X148343498Y-35969180D01*
X148402463Y-36079494D01*
X148481815Y-36176185D01*
X148578506Y-36255537D01*
X148688820Y-36314502D01*
X148808518Y-36350812D01*
X148933000Y-36363072D01*
X150533000Y-36363072D01*
X150657482Y-36350812D01*
X150777180Y-36314502D01*
X150887494Y-36255537D01*
X150984185Y-36176185D01*
X151063537Y-36079494D01*
X151122502Y-35969180D01*
X151158812Y-35849482D01*
X151171072Y-35725000D01*
X151171072Y-34125000D01*
X151158812Y-34000518D01*
X151122502Y-33880820D01*
X151063537Y-33770506D01*
X150984185Y-33673815D01*
X150887494Y-33594463D01*
X150777180Y-33535498D01*
X150657482Y-33499188D01*
X150533000Y-33486928D01*
X148933000Y-33486928D01*
X148808518Y-33499188D01*
X148688820Y-33535498D01*
X148578506Y-33594463D01*
X148481815Y-33673815D01*
X148402463Y-33770506D01*
X148343498Y-33880820D01*
X148307188Y-34000518D01*
X148294928Y-34125000D01*
X102605394Y-34125000D01*
X102555303Y-33873181D01*
X102396383Y-33489513D01*
X102165666Y-33144221D01*
X101872019Y-32850574D01*
X101526727Y-32619857D01*
X101143059Y-32460937D01*
X100735760Y-32379920D01*
X100320480Y-32379920D01*
X99913181Y-32460937D01*
X99529513Y-32619857D01*
X99184221Y-32850574D01*
X98890574Y-33144221D01*
X98659857Y-33489513D01*
X98500937Y-33873181D01*
X98419920Y-34280480D01*
X97209003Y-34280480D01*
X97247933Y-33883442D01*
X97439772Y-33248040D01*
X97751373Y-32662006D01*
X98170870Y-32147653D01*
X98682275Y-31724581D01*
X99266123Y-31408896D01*
X99900170Y-31212625D01*
X100591155Y-31140000D01*
X234790721Y-31140000D01*
X235458891Y-31205515D01*
G36*
X195199000Y-48045840D02*
G01*
X195199001Y-59320247D01*
X195046939Y-59290000D01*
X194843061Y-59290000D01*
X194747541Y-59309000D01*
X189835642Y-59309000D01*
X189929222Y-59215420D01*
X190152989Y-58880528D01*
X190307123Y-58508417D01*
X190385700Y-58113385D01*
X190385700Y-57710615D01*
X190307123Y-57315583D01*
X190152989Y-56943472D01*
X189929222Y-56608580D01*
X189644420Y-56323778D01*
X189309528Y-56100011D01*
X188937417Y-55945877D01*
X188542385Y-55867300D01*
X188139615Y-55867300D01*
X187744583Y-55945877D01*
X187372472Y-56100011D01*
X187037580Y-56323778D01*
X186752778Y-56608580D01*
X186626500Y-56797569D01*
X186500222Y-56608580D01*
X186215420Y-56323778D01*
X185880528Y-56100011D01*
X185508417Y-55945877D01*
X185113385Y-55867300D01*
X184710615Y-55867300D01*
X184315583Y-55945877D01*
X183943472Y-56100011D01*
X183608580Y-56323778D01*
X183323778Y-56608580D01*
X183100011Y-56943472D01*
X182945877Y-57315583D01*
X182867300Y-57710615D01*
X182867300Y-58113385D01*
X182945877Y-58508417D01*
X183100011Y-58880528D01*
X183323778Y-59215420D01*
X183417358Y-59309000D01*
X172769902Y-59309000D01*
X172720000Y-59304085D01*
X172670098Y-59309000D01*
X172520829Y-59323702D01*
X172329313Y-59381798D01*
X172152810Y-59476140D01*
X171998104Y-59603104D01*
X171966292Y-59641867D01*
X170775160Y-60833000D01*
X170677408Y-60833000D01*
X170407510Y-60886686D01*
X170153273Y-60991995D01*
X169924465Y-61144880D01*
X169729880Y-61339465D01*
X169576995Y-61568273D01*
X169471686Y-61822510D01*
X169418000Y-62092408D01*
X169418000Y-62190159D01*
X168489160Y-63119000D01*
X164916146Y-63119000D01*
X165068005Y-62891727D01*
X165173314Y-62637490D01*
X165227000Y-62367592D01*
X165227000Y-62092408D01*
X165173314Y-61822510D01*
X165068005Y-61568273D01*
X164915120Y-61339465D01*
X164720535Y-61144880D01*
X164491727Y-60991995D01*
X164237490Y-60886686D01*
X163967592Y-60833000D01*
X163692408Y-60833000D01*
X163422510Y-60886686D01*
X163168273Y-60991995D01*
X162939465Y-61144880D01*
X162744880Y-61339465D01*
X162591995Y-61568273D01*
X162486686Y-61822510D01*
X162433000Y-62092408D01*
X162433000Y-62367592D01*
X162486686Y-62637490D01*
X162591995Y-62891727D01*
X162743854Y-63119000D01*
X159836146Y-63119000D01*
X159988005Y-62891727D01*
X160093314Y-62637490D01*
X160147000Y-62367592D01*
X160147000Y-62092408D01*
X160093314Y-61822510D01*
X159988005Y-61568273D01*
X159835120Y-61339465D01*
X159766000Y-61270345D01*
X159766000Y-48680840D01*
X160440841Y-48006000D01*
X195159160Y-48006000D01*
X195199000Y-48045840D01*
X195199000Y-48045840D01*
G37*
X195199000Y-48045840D02*
X195199001Y-59320247D01*
X195046939Y-59290000D01*
X194843061Y-59290000D01*
X194747541Y-59309000D01*
X189835642Y-59309000D01*
X189929222Y-59215420D01*
X190152989Y-58880528D01*
X190307123Y-58508417D01*
X190385700Y-58113385D01*
X190385700Y-57710615D01*
X190307123Y-57315583D01*
X190152989Y-56943472D01*
X189929222Y-56608580D01*
X189644420Y-56323778D01*
X189309528Y-56100011D01*
X188937417Y-55945877D01*
X188542385Y-55867300D01*
X188139615Y-55867300D01*
X187744583Y-55945877D01*
X187372472Y-56100011D01*
X187037580Y-56323778D01*
X186752778Y-56608580D01*
X186626500Y-56797569D01*
X186500222Y-56608580D01*
X186215420Y-56323778D01*
X185880528Y-56100011D01*
X185508417Y-55945877D01*
X185113385Y-55867300D01*
X184710615Y-55867300D01*
X184315583Y-55945877D01*
X183943472Y-56100011D01*
X183608580Y-56323778D01*
X183323778Y-56608580D01*
X183100011Y-56943472D01*
X182945877Y-57315583D01*
X182867300Y-57710615D01*
X182867300Y-58113385D01*
X182945877Y-58508417D01*
X183100011Y-58880528D01*
X183323778Y-59215420D01*
X183417358Y-59309000D01*
X172769902Y-59309000D01*
X172720000Y-59304085D01*
X172670098Y-59309000D01*
X172520829Y-59323702D01*
X172329313Y-59381798D01*
X172152810Y-59476140D01*
X171998104Y-59603104D01*
X171966292Y-59641867D01*
X170775160Y-60833000D01*
X170677408Y-60833000D01*
X170407510Y-60886686D01*
X170153273Y-60991995D01*
X169924465Y-61144880D01*
X169729880Y-61339465D01*
X169576995Y-61568273D01*
X169471686Y-61822510D01*
X169418000Y-62092408D01*
X169418000Y-62190159D01*
X168489160Y-63119000D01*
X164916146Y-63119000D01*
X165068005Y-62891727D01*
X165173314Y-62637490D01*
X165227000Y-62367592D01*
X165227000Y-62092408D01*
X165173314Y-61822510D01*
X165068005Y-61568273D01*
X164915120Y-61339465D01*
X164720535Y-61144880D01*
X164491727Y-60991995D01*
X164237490Y-60886686D01*
X163967592Y-60833000D01*
X163692408Y-60833000D01*
X163422510Y-60886686D01*
X163168273Y-60991995D01*
X162939465Y-61144880D01*
X162744880Y-61339465D01*
X162591995Y-61568273D01*
X162486686Y-61822510D01*
X162433000Y-62092408D01*
X162433000Y-62367592D01*
X162486686Y-62637490D01*
X162591995Y-62891727D01*
X162743854Y-63119000D01*
X159836146Y-63119000D01*
X159988005Y-62891727D01*
X160093314Y-62637490D01*
X160147000Y-62367592D01*
X160147000Y-62092408D01*
X160093314Y-61822510D01*
X159988005Y-61568273D01*
X159835120Y-61339465D01*
X159766000Y-61270345D01*
X159766000Y-48680840D01*
X160440841Y-48006000D01*
X195159160Y-48006000D01*
X195199000Y-48045840D01*
G36*
X145096778Y-43146580D02*
G01*
X144873011Y-43481472D01*
X144718877Y-43853583D01*
X144640300Y-44248615D01*
X144640300Y-44651385D01*
X144718877Y-45046417D01*
X144873011Y-45418528D01*
X145096778Y-45753420D01*
X145381580Y-46038222D01*
X145716472Y-46261989D01*
X146088583Y-46416123D01*
X146483615Y-46494700D01*
X146886385Y-46494700D01*
X147281417Y-46416123D01*
X147653528Y-46261989D01*
X147988420Y-46038222D01*
X148273222Y-45753420D01*
X148399500Y-45564431D01*
X148525778Y-45753420D01*
X148810580Y-46038222D01*
X149145472Y-46261989D01*
X149517583Y-46416123D01*
X149912615Y-46494700D01*
X150315385Y-46494700D01*
X150710417Y-46416123D01*
X151082528Y-46261989D01*
X151417420Y-46038222D01*
X151702222Y-45753420D01*
X151925989Y-45418528D01*
X152080123Y-45046417D01*
X152158700Y-44651385D01*
X152158700Y-44248615D01*
X152080123Y-43853583D01*
X151925989Y-43481472D01*
X151702222Y-43146580D01*
X151481642Y-42926000D01*
X156424160Y-42926000D01*
X157734000Y-44235841D01*
X157734001Y-48210088D01*
X157729085Y-48260000D01*
X157734000Y-48309902D01*
X157734001Y-61270344D01*
X157664880Y-61339465D01*
X157511995Y-61568273D01*
X157406686Y-61822510D01*
X157353000Y-62092408D01*
X157353000Y-62367592D01*
X157406686Y-62637490D01*
X157511995Y-62891727D01*
X157663854Y-63119000D01*
X154725841Y-63119000D01*
X153153712Y-61546872D01*
X153121896Y-61508104D01*
X152967190Y-61381140D01*
X152790687Y-61286798D01*
X152599171Y-61228702D01*
X152449902Y-61214000D01*
X152400000Y-61209085D01*
X152350098Y-61214000D01*
X142660840Y-61214000D01*
X142621000Y-61174160D01*
X142621000Y-57710615D01*
X144640300Y-57710615D01*
X144640300Y-58113385D01*
X144718877Y-58508417D01*
X144873011Y-58880528D01*
X145096778Y-59215420D01*
X145381580Y-59500222D01*
X145716472Y-59723989D01*
X146088583Y-59878123D01*
X146483615Y-59956700D01*
X146886385Y-59956700D01*
X147281417Y-59878123D01*
X147653528Y-59723989D01*
X147988420Y-59500222D01*
X148273222Y-59215420D01*
X148399500Y-59026431D01*
X148525778Y-59215420D01*
X148810580Y-59500222D01*
X149145472Y-59723989D01*
X149517583Y-59878123D01*
X149912615Y-59956700D01*
X150315385Y-59956700D01*
X150710417Y-59878123D01*
X151082528Y-59723989D01*
X151417420Y-59500222D01*
X151702222Y-59215420D01*
X151925989Y-58880528D01*
X152080123Y-58508417D01*
X152158700Y-58113385D01*
X152158700Y-57710615D01*
X152080123Y-57315583D01*
X151925989Y-56943472D01*
X151702222Y-56608580D01*
X151417420Y-56323778D01*
X151082528Y-56100011D01*
X150710417Y-55945877D01*
X150315385Y-55867300D01*
X149912615Y-55867300D01*
X149517583Y-55945877D01*
X149145472Y-56100011D01*
X148810580Y-56323778D01*
X148525778Y-56608580D01*
X148399500Y-56797569D01*
X148273222Y-56608580D01*
X147988420Y-56323778D01*
X147653528Y-56100011D01*
X147281417Y-55945877D01*
X146886385Y-55867300D01*
X146483615Y-55867300D01*
X146088583Y-55945877D01*
X145716472Y-56100011D01*
X145381580Y-56323778D01*
X145096778Y-56608580D01*
X144873011Y-56943472D01*
X144718877Y-57315583D01*
X144640300Y-57710615D01*
X142621000Y-57710615D01*
X142621000Y-43885459D01*
X142640000Y-43789939D01*
X142640000Y-43586061D01*
X142600226Y-43386102D01*
X142522205Y-43197744D01*
X142408937Y-43028226D01*
X142306711Y-42926000D01*
X145317358Y-42926000D01*
X145096778Y-43146580D01*
X145096778Y-43146580D01*
G37*
X145096778Y-43146580D02*
X144873011Y-43481472D01*
X144718877Y-43853583D01*
X144640300Y-44248615D01*
X144640300Y-44651385D01*
X144718877Y-45046417D01*
X144873011Y-45418528D01*
X145096778Y-45753420D01*
X145381580Y-46038222D01*
X145716472Y-46261989D01*
X146088583Y-46416123D01*
X146483615Y-46494700D01*
X146886385Y-46494700D01*
X147281417Y-46416123D01*
X147653528Y-46261989D01*
X147988420Y-46038222D01*
X148273222Y-45753420D01*
X148399500Y-45564431D01*
X148525778Y-45753420D01*
X148810580Y-46038222D01*
X149145472Y-46261989D01*
X149517583Y-46416123D01*
X149912615Y-46494700D01*
X150315385Y-46494700D01*
X150710417Y-46416123D01*
X151082528Y-46261989D01*
X151417420Y-46038222D01*
X151702222Y-45753420D01*
X151925989Y-45418528D01*
X152080123Y-45046417D01*
X152158700Y-44651385D01*
X152158700Y-44248615D01*
X152080123Y-43853583D01*
X151925989Y-43481472D01*
X151702222Y-43146580D01*
X151481642Y-42926000D01*
X156424160Y-42926000D01*
X157734000Y-44235841D01*
X157734001Y-48210088D01*
X157729085Y-48260000D01*
X157734000Y-48309902D01*
X157734001Y-61270344D01*
X157664880Y-61339465D01*
X157511995Y-61568273D01*
X157406686Y-61822510D01*
X157353000Y-62092408D01*
X157353000Y-62367592D01*
X157406686Y-62637490D01*
X157511995Y-62891727D01*
X157663854Y-63119000D01*
X154725841Y-63119000D01*
X153153712Y-61546872D01*
X153121896Y-61508104D01*
X152967190Y-61381140D01*
X152790687Y-61286798D01*
X152599171Y-61228702D01*
X152449902Y-61214000D01*
X152400000Y-61209085D01*
X152350098Y-61214000D01*
X142660840Y-61214000D01*
X142621000Y-61174160D01*
X142621000Y-57710615D01*
X144640300Y-57710615D01*
X144640300Y-58113385D01*
X144718877Y-58508417D01*
X144873011Y-58880528D01*
X145096778Y-59215420D01*
X145381580Y-59500222D01*
X145716472Y-59723989D01*
X146088583Y-59878123D01*
X146483615Y-59956700D01*
X146886385Y-59956700D01*
X147281417Y-59878123D01*
X147653528Y-59723989D01*
X147988420Y-59500222D01*
X148273222Y-59215420D01*
X148399500Y-59026431D01*
X148525778Y-59215420D01*
X148810580Y-59500222D01*
X149145472Y-59723989D01*
X149517583Y-59878123D01*
X149912615Y-59956700D01*
X150315385Y-59956700D01*
X150710417Y-59878123D01*
X151082528Y-59723989D01*
X151417420Y-59500222D01*
X151702222Y-59215420D01*
X151925989Y-58880528D01*
X152080123Y-58508417D01*
X152158700Y-58113385D01*
X152158700Y-57710615D01*
X152080123Y-57315583D01*
X151925989Y-56943472D01*
X151702222Y-56608580D01*
X151417420Y-56323778D01*
X151082528Y-56100011D01*
X150710417Y-55945877D01*
X150315385Y-55867300D01*
X149912615Y-55867300D01*
X149517583Y-55945877D01*
X149145472Y-56100011D01*
X148810580Y-56323778D01*
X148525778Y-56608580D01*
X148399500Y-56797569D01*
X148273222Y-56608580D01*
X147988420Y-56323778D01*
X147653528Y-56100011D01*
X147281417Y-55945877D01*
X146886385Y-55867300D01*
X146483615Y-55867300D01*
X146088583Y-55945877D01*
X145716472Y-56100011D01*
X145381580Y-56323778D01*
X145096778Y-56608580D01*
X144873011Y-56943472D01*
X144718877Y-57315583D01*
X144640300Y-57710615D01*
X142621000Y-57710615D01*
X142621000Y-43885459D01*
X142640000Y-43789939D01*
X142640000Y-43586061D01*
X142600226Y-43386102D01*
X142522205Y-43197744D01*
X142408937Y-43028226D01*
X142306711Y-42926000D01*
X145317358Y-42926000D01*
X145096778Y-43146580D01*
M02*
