M48
; DRILL file {KiCad (5.1.4)-1} date 4/2/2021 11:00:36 AM
; FORMAT={-:-/ absolute / inch / decimal}
; #@! TF.CreationDate,2021-04-02T11:00:36-05:00
; #@! TF.GenerationSoftware,Kicad,Pcbnew,(5.1.4)-1
; #@! TF.FileFunction,Plated,1,2,PTH
FMAT,2
INCH
T1C0.0157
T2C0.0315
T3C0.0350
T4C0.0354
T5C0.0472
T6C0.0630
T7C0.0660
T8C0.1616
T9C0.1616
T10C0.3600
%
G90
G05
T1
X3.1Y-5.34
X3.102Y-5.298
X3.1033Y-5.2553
X3.26Y-4.61
X3.26Y-4.69
X3.26Y-4.78
X3.26Y-4.89
X3.26Y-4.97
X3.26Y-5.03
X3.26Y-5.11
X3.35Y-3.53
X3.35Y-3.59
X3.35Y-3.64
X3.35Y-3.69
X3.5Y-5.0611
X3.5Y-5.33
X3.6Y-5.29
X3.7Y-3.68
X3.7Y-5.02
X3.7Y-5.25
X3.72Y-1.13
X3.78Y-2.31
X3.8Y-4.64
X3.81Y-3.64
X3.82Y-1.13
X3.9Y-3.58
X3.9Y-4.73
X3.93Y-0.33
X3.93Y-0.91
X3.97Y-2.31
X3.9874Y-0.9474
X4.0Y-3.51
X4.0Y-4.82
X4.08Y-0.72
X4.1Y-4.8
X4.12Y-0.91
X4.18Y-2.42
X4.2Y-3.09
X4.2Y-4.97
X4.26Y-0.72
X4.26Y-0.96
X4.3Y-3.01
X4.58Y-2.42
X4.59Y-0.33
X4.61Y-0.92
X4.66Y-0.96
X4.72Y-0.73
X4.78Y-0.92
X4.94Y-0.73
X4.94Y-0.9576
X5.1189Y-3.01
X5.15Y-3.06
X5.26Y-0.33
X5.27Y-0.92
X5.3074Y-0.9511
X5.39Y-0.73
X5.43Y-0.92
X5.59Y-0.7224
X5.59Y-0.9576
X5.725Y-2.42
X5.725Y-3.09
X5.77Y-3.02
X5.81Y-3.06
X5.91Y-0.33
X5.92Y-0.92
X5.96Y-0.96
X6.03Y-0.73
X6.07Y-0.92
X6.2Y-3.06
X6.2Y-5.03
X6.22Y-0.7224
X6.22Y-0.9576
X6.3Y-3.02
X6.3Y-4.99
X6.4Y-3.5
X6.4Y-5.27
X6.5Y-3.36
X6.54Y-0.33
X6.54Y-0.93
X6.58Y-0.97
X6.6Y-3.27
X6.6Y-5.21
X6.68Y-0.72
X6.7Y-3.05
X6.7Y-3.32
X6.72Y-0.93
X6.84Y-3.05
X6.84Y-3.115
X6.87Y-0.7224
X6.87Y-0.9576
X6.87Y-5.27
X6.94Y-2.1
X6.96Y-2.14
X7.05Y-0.3856
X7.12Y-4.79
X7.12Y-4.97
X7.33Y-2.22
X7.33Y-3.27
X7.34Y-2.08
X7.37Y-1.31
X7.38Y-2.14
X7.38Y-3.32
X7.38Y-5.21
X7.42Y-3.07
X7.42Y-3.5
X7.44Y-5.01
X7.46Y-3.36
X7.54Y-5.17
X7.55Y-4.33
X7.56Y-1.68
X7.56Y-3.43
X7.57Y-2.59
X7.96Y-4.27
X7.96Y-5.1
X7.98Y-1.68
X7.98Y-3.43
X7.99Y-2.59
X8.16Y-4.93
X8.19Y-2.37
X8.205Y-1.485
X8.21Y-4.11
X8.22Y-3.29
X8.22Y-4.79
X8.24Y-3.06
X8.25Y-1.31
X8.25Y-2.22
X8.28Y-4.93
X8.34Y-4.11
X8.34Y-4.98
X8.36Y-3.29
X8.37Y-1.49
X8.37Y-2.38
X8.62Y-1.49
X8.62Y-2.38
X8.62Y-3.29
X8.62Y-4.11
X8.62Y-4.98
T2
X6.16Y-6.81
X6.2584Y-6.81
X3.99Y-2.7421
X3.99Y-2.8406
X7.35Y-6.6416
X7.35Y-6.74
X3.99Y-2.42
X3.99Y-2.5184
T3
X7.02Y-6.54
X7.02Y-6.64
X7.02Y-6.74
X3.58Y-1.63
X3.68Y-1.63
X3.78Y-1.63
T4
X3.38Y-0.16
X3.48Y-0.16
X3.58Y-0.16
X3.68Y-0.16
X3.68Y-0.16
X3.16Y-0.35
X3.16Y-0.45
X3.16Y-0.55
X3.16Y-0.65
X3.16Y-0.75
X3.16Y-0.85
X3.16Y-0.95
X3.16Y-1.05
X3.16Y-1.15
X3.16Y-1.25
T5
X6.24Y-5.62
X6.24Y-5.8169
X5.68Y-5.62
X5.68Y-5.8169
X5.14Y-5.61
X5.14Y-5.8069
X4.59Y-5.61
X4.59Y-5.8069
T6
X7.14Y-6.24
X7.34Y-6.24
X7.14Y-5.98
X7.34Y-5.98
T7
X6.0Y-1.6
X6.0Y-2.13
X6.135Y-1.6
X6.135Y-2.13
X5.36Y-1.6
X5.36Y-2.13
X5.495Y-1.6
X5.495Y-2.13
X7.16Y-2.75
X7.16Y-2.885
X7.69Y-2.75
X7.69Y-2.885
X7.15Y-3.59
X7.15Y-3.725
X7.68Y-3.59
X7.68Y-3.725
X7.14Y-1.82
X7.14Y-1.955
X7.67Y-1.82
X7.67Y-1.955
X6.64Y-1.6
X6.64Y-2.13
X6.775Y-1.6
X6.775Y-2.13
X7.13Y-5.31
X7.13Y-5.445
X7.66Y-5.31
X7.66Y-5.445
X4.72Y-1.6
X4.72Y-2.13
X4.855Y-1.6
X4.855Y-2.13
X4.04Y-1.595
X4.04Y-2.125
X4.175Y-1.595
X4.175Y-2.125
X7.13Y-4.47
X7.13Y-4.605
X7.66Y-4.47
X7.66Y-4.605
T8
X6.869Y-0.496
X8.4485Y-2.149
X8.4385Y-5.599
X5.59Y-0.496
X8.4485Y-3.029
X4.259Y-0.4965
X6.219Y-0.4965
X4.939Y-0.4965
X8.4485Y-4.749
X8.4585Y-3.909
T9
X8.7495Y-5.599
X5.59Y-0.185
X8.7595Y-3.029
X4.259Y-0.1855
X6.219Y-0.1855
X4.939Y-0.1855
X8.7595Y-4.749
X8.7695Y-3.909
X6.869Y-0.185
X8.7595Y-2.149
T10
X8.07Y-6.39
X4.1Y-6.4
T0
M30
