%TF.GenerationSoftware,KiCad,Pcbnew,(5.1.4)-1*%
%TF.CreationDate,2021-04-02T11:00:34-05:00*%
%TF.ProjectId,PackVoltage_2021,5061636b-566f-46c7-9461-67655f323032,rev?*%
%TF.SameCoordinates,Original*%
%TF.FileFunction,Soldermask,Bot*%
%TF.FilePolarity,Negative*%
%FSLAX46Y46*%
G04 Gerber Fmt 4.6, Leading zero omitted, Abs format (unit mm)*
G04 Created by KiCad (PCBNEW (5.1.4)-1) date 2021-04-02 11:00:34*
%MOMM*%
%LPD*%
G04 APERTURE LIST*
%ADD10C,3.046400*%
%ADD11C,1.624000*%
%ADD12O,3.300000X3.300000*%
%ADD13R,3.300000X3.300000*%
%ADD14C,2.500000*%
%ADD15R,2.500000X2.500000*%
%ADD16C,1.700000*%
%ADD17R,1.700000X1.700000*%
%ADD18C,5.180000*%
%ADD19C,2.919400*%
%ADD20C,18.388000*%
G04 APERTURE END LIST*
D10*
%TO.C,REF\002A\002A*%
X79248000Y-174752000D03*
%TD*%
%TO.C,REF\002A\002A*%
X79248000Y-2794000D03*
%TD*%
%TO.C,REF\002A\002A*%
X225552000Y-2794000D03*
%TD*%
%TO.C,REF\002A\002A*%
X225552000Y-174752000D03*
%TD*%
D11*
%TO.C,Conn5*%
X80264000Y-8890000D03*
X80264000Y-11430000D03*
X80264000Y-13970000D03*
X80264000Y-16510000D03*
X80264000Y-19050000D03*
X80264000Y-21590000D03*
X80264000Y-24130000D03*
X80264000Y-26670000D03*
X80264000Y-29210000D03*
X80264000Y-31750000D03*
%TD*%
D12*
%TO.C,D2*%
X186436000Y-151892000D03*
D13*
X181356000Y-151892000D03*
%TD*%
D12*
%TO.C,D1*%
X186436000Y-158496000D03*
D13*
X181356000Y-158496000D03*
%TD*%
D14*
%TO.C,C1*%
X130556000Y-147494000D03*
D15*
X130556000Y-142494000D03*
%TD*%
%TO.C,C2*%
X158496000Y-142748000D03*
D14*
X158496000Y-147748000D03*
%TD*%
%TO.C,C3*%
X116586000Y-147494000D03*
D15*
X116586000Y-142494000D03*
%TD*%
%TO.C,C4*%
X144272000Y-142748000D03*
D14*
X144272000Y-147748000D03*
%TD*%
D16*
%TO.C,C16*%
X158964000Y-172974000D03*
D17*
X156464000Y-172974000D03*
%TD*%
%TO.C,C17*%
X101346000Y-69650242D03*
D16*
X101346000Y-72150242D03*
%TD*%
D17*
%TO.C,C31*%
X101346000Y-61468000D03*
D16*
X101346000Y-63968000D03*
%TD*%
%TO.C,C32*%
X186690000Y-168696000D03*
D17*
X186690000Y-171196000D03*
%TD*%
D18*
%TO.C,Conn1*%
X108178000Y-4712000D03*
X108178000Y-12612000D03*
%TD*%
%TO.C,Conn2*%
X222237000Y-142214000D03*
X214337000Y-142214000D03*
%TD*%
%TO.C,Conn3*%
X125450000Y-4712000D03*
X125450000Y-12612000D03*
%TD*%
%TO.C,Conn4*%
X214591000Y-120624000D03*
X222491000Y-120624000D03*
%TD*%
%TO.C,Conn7*%
X141986000Y-4699000D03*
X141986000Y-12599000D03*
%TD*%
%TO.C,Conn8*%
X222491000Y-76936000D03*
X214591000Y-76936000D03*
%TD*%
%TO.C,Conn9*%
X157962000Y-12612000D03*
X157962000Y-4712000D03*
%TD*%
%TO.C,Conn10*%
X174472000Y-12599000D03*
X174472000Y-4699000D03*
%TD*%
%TO.C,Conn11*%
X214845000Y-99288000D03*
X222745000Y-99288000D03*
%TD*%
%TO.C,Conn12*%
X222491000Y-54584000D03*
X214591000Y-54584000D03*
%TD*%
D19*
%TO.C,F1*%
X123317000Y-54102000D03*
X119888000Y-54102000D03*
X119888000Y-40640000D03*
X123317000Y-40640000D03*
%TD*%
%TO.C,F2*%
X139573000Y-40640000D03*
X136144000Y-40640000D03*
X136144000Y-54102000D03*
X139573000Y-54102000D03*
%TD*%
%TO.C,F3*%
X106045000Y-40513000D03*
X102616000Y-40513000D03*
X102616000Y-53975000D03*
X106045000Y-53975000D03*
%TD*%
%TO.C,F4*%
X155829000Y-54102000D03*
X152400000Y-54102000D03*
X152400000Y-40640000D03*
X155829000Y-40640000D03*
%TD*%
%TO.C,F5*%
X181356000Y-49657000D03*
X181356000Y-46228000D03*
X194818000Y-46228000D03*
X194818000Y-49657000D03*
%TD*%
%TO.C,F6*%
X194564000Y-116967000D03*
X194564000Y-113538000D03*
X181102000Y-113538000D03*
X181102000Y-116967000D03*
%TD*%
%TO.C,F7*%
X195326000Y-73279000D03*
X195326000Y-69850000D03*
X181864000Y-69850000D03*
X181864000Y-73279000D03*
%TD*%
%TO.C,F8*%
X194564000Y-138303000D03*
X194564000Y-134874000D03*
X181102000Y-134874000D03*
X181102000Y-138303000D03*
%TD*%
%TO.C,F9*%
X172085000Y-54102000D03*
X168656000Y-54102000D03*
X168656000Y-40640000D03*
X172085000Y-40640000D03*
%TD*%
%TO.C,F10*%
X181610000Y-94615000D03*
X181610000Y-91186000D03*
X195072000Y-91186000D03*
X195072000Y-94615000D03*
%TD*%
D20*
%TO.C,GND1*%
X204978000Y-162306000D03*
%TD*%
D11*
%TO.C,U12*%
X96012000Y-41402000D03*
X93472000Y-41402000D03*
X90932000Y-41402000D03*
%TD*%
%TO.C,U13*%
X178308000Y-166116000D03*
X178308000Y-168656000D03*
X178308000Y-171196000D03*
%TD*%
D20*
%TO.C,V1*%
X104140000Y-162560000D03*
%TD*%
D11*
%TO.C,Conn6*%
X85852000Y-4064000D03*
X88392000Y-4064000D03*
X90932000Y-4064000D03*
X93472000Y-4064000D03*
X93472000Y-4064000D03*
%TD*%
M02*
