M48
; DRILL file {KiCad (5.1.10)-1} date 12/26/21 21:02:18
; FORMAT={-:-/ absolute / inch / decimal}
; #@! TF.CreationDate,2021-12-26T21:02:18-06:00
; #@! TF.GenerationSoftware,Kicad,Pcbnew,(5.1.10)-1
; #@! TF.FileFunction,Plated,1,4,PTH
FMAT,2
INCH
T1C0.0157
T2C0.0315
T3C0.0350
T4C0.0394
T5C0.0472
T6C0.0512
T7C0.0660
T8C0.0700
T9C0.0900
T10C0.1616
T11C0.1616
T12C0.3600
%
G90
G05
T1
X14.75Y-1.405
X14.81Y-2.925
X14.8475Y-3.0
X14.895Y-4.34
X14.935Y-2.6
X14.945Y-3.78
X14.975Y-1.365
X15.145Y-1.995
X15.1825Y-3.1325
X15.195Y-4.38
X15.235Y-1.395
X15.32Y-2.625
X15.335Y-3.775
X15.38Y-1.3936
X15.4Y-2.11
X15.7Y-2.11
X15.7Y-6.136
X15.705Y-5.415
X15.71Y-4.34
X15.71Y-4.49
X15.84Y-4.14
X15.89Y-5.966
X16.06Y-1.93
X16.06Y-2.115
X16.25Y-5.935
X16.265Y-4.8
X16.28Y-3.65
X16.33Y-1.96
X16.415Y-2.115
X16.54Y-3.78
X16.6Y-5.39
X16.62Y-6.12
X16.695Y-4.19
X16.715Y-4.425
X16.81Y-5.95
X16.895Y-4.19
X17.19Y-5.92
X17.26Y-4.79
X17.51Y-5.465
X17.51Y-6.11
X17.71Y-5.94
X17.78Y-3.97
X18.065Y-5.915
X18.125Y-4.745
X18.41Y-5.495
X18.41Y-6.13
X18.595Y-4.31
X18.6Y-5.97
X18.95Y-5.935
X18.9725Y-4.31
X19.0125Y-4.1575
X19.31Y-5.485
X19.32Y-6.14
X19.43Y-4.355
X19.52Y-5.97
X19.73Y-4.33
X19.845Y-5.925
X19.855Y-4.72
X19.91Y-4.18
X20.175Y-3.875
X20.19Y-4.525
X20.23Y-5.5
X20.24Y-6.14
X20.2525Y-4.365
X20.43Y-5.98
X20.69Y-4.32
X20.75Y-5.93
X21.045Y-3.91
X21.0675Y-4.5275
X21.115Y-5.49
X21.14Y-6.125
X21.145Y-4.375
X21.32Y-5.955
X21.555Y-4.335
X21.64Y-5.9
X21.6702Y-5.7484
X21.6709Y-6.1207
X21.7037Y-6.1486
X21.71Y-5.7484
X21.81Y-1.58
X21.81Y-3.8
X21.8799Y-5.6025
X21.88Y-4.77
X21.91Y-4.8
X21.9115Y-5.626
X21.9472Y-5.6427
X21.95Y-4.83
X21.98Y-4.86
X21.9814Y-5.6622
X22.01Y-4.89
X22.01Y-5.69
X22.05Y-1.4972
X22.05Y-5.35
X22.08Y-4.5556
X22.08Y-5.25
X22.31Y-4.65
X22.31Y-5.75
X22.34Y-5.45
X22.3419Y-4.5485
X22.3796Y-4.5033
X22.38Y-5.35
X22.41Y-5.85
X22.4108Y-4.4794
X22.45Y-3.81
X22.45Y-5.15
X22.48Y-1.4972
X22.48Y-5.55
X22.51Y-5.05
X22.52Y-1.4972
X22.54Y-5.25
X22.563Y-1.427
X22.57Y-5.65
X22.6Y-1.46
X22.6Y-4.95
X22.64Y-1.46
X23.19Y-5.8884
X23.19Y-6.0443
X23.22Y-6.01
X23.2486Y-3.8051
X23.2486Y-5.9528
X23.25Y-3.76
X23.28Y-5.8955
X23.288Y-5.9528
X23.32Y-5.8955
X23.32Y-6.03
X23.3845Y-4.6663
X23.39Y-2.75
X23.4172Y-4.6882
X23.42Y-3.15
X23.45Y-2.95
X23.45Y-4.71
X23.48Y-4.74
X23.48Y-5.25
X23.51Y-4.77
X23.51Y-5.35
X23.54Y-4.8
X23.54Y-5.45
X23.57Y-4.83
X23.57Y-5.55
X23.6Y-4.86
X23.6Y-5.65
X23.65Y-5.3
X23.65Y-5.98
X23.6917Y-1.4794
X23.7Y-3.05
X23.7Y-5.4
X23.7Y-5.92
X23.73Y-1.4972
X23.74Y-2.65
X23.74Y-2.85
X23.74Y-3.68
X23.77Y-1.51
X23.77Y-2.55
X23.94Y-4.5733
X23.94Y-5.91
X23.9877Y-4.5886
X23.9928Y-2.65
X24.01Y-5.05
X24.01Y-5.55
X24.01Y-5.65
X24.01Y-5.75
X24.02Y-2.45
X24.0214Y-4.6091
X24.05Y-2.55
X24.05Y-4.64
X24.07Y-5.55
X24.0737Y-1.5437
X24.0786Y-2.95
X24.09Y-5.3
X24.1Y-3.15
X24.1Y-3.7886
X24.1Y-5.65
X24.12Y-5.15
X24.12Y-5.4
X24.13Y-5.75
X24.14Y-2.75
X24.14Y-3.76
X24.1686Y-3.05
X24.2Y-1.37
X24.2Y-3.25
X24.23Y-2.85
X24.23Y-3.71
T2
X19.9016Y-6.6815
X20.0Y-6.6815
X20.8316Y-6.6815
X20.93Y-6.6815
X22.34Y-6.06
X22.4384Y-6.06
X22.98Y-6.07
X23.0784Y-6.07
T3
X22.14Y-6.32
X22.24Y-6.32
X22.34Y-6.32
X22.78Y-6.32
X22.88Y-6.32
X22.98Y-6.32
T4
X22.14Y-2.45
X22.14Y-2.55
X22.14Y-2.65
X22.14Y-2.75
X22.14Y-2.85
X22.14Y-2.95
X22.14Y-3.05
X22.14Y-3.15
X22.14Y-3.25
X22.14Y-3.35
X22.14Y-4.95
X22.14Y-5.05
X22.14Y-5.15
X22.14Y-5.25
X22.14Y-5.35
X22.14Y-5.45
X22.14Y-5.55
X22.14Y-5.65
X22.14Y-5.75
X22.14Y-5.85
X22.24Y-2.45
X22.24Y-2.55
X22.24Y-2.65
X22.24Y-2.75
X22.24Y-2.85
X22.24Y-2.95
X22.24Y-3.05
X22.24Y-3.15
X22.24Y-3.25
X22.24Y-3.35
X22.24Y-4.95
X22.24Y-5.05
X22.24Y-5.15
X22.24Y-5.25
X22.24Y-5.35
X22.24Y-5.45
X22.24Y-5.55
X22.24Y-5.65
X22.24Y-5.75
X22.24Y-5.85
X23.84Y-2.45
X23.84Y-2.55
X23.84Y-2.65
X23.84Y-2.75
X23.84Y-2.85
X23.84Y-2.95
X23.84Y-3.05
X23.84Y-3.15
X23.84Y-3.25
X23.84Y-3.35
X23.84Y-4.95
X23.84Y-5.05
X23.84Y-5.15
X23.84Y-5.25
X23.84Y-5.35
X23.84Y-5.45
X23.84Y-5.55
X23.84Y-5.65
X23.84Y-5.75
X23.84Y-5.85
X23.94Y-2.45
X23.94Y-2.55
X23.94Y-2.65
X23.94Y-2.75
X23.94Y-2.85
X23.94Y-2.95
X23.94Y-3.05
X23.94Y-3.15
X23.94Y-3.25
X23.94Y-3.35
X23.94Y-4.95
X23.94Y-5.05
X23.94Y-5.15
X23.94Y-5.25
X23.94Y-5.35
X23.94Y-5.45
X23.94Y-5.55
X23.94Y-5.65
X23.94Y-5.75
X23.94Y-5.85
T5
X16.34Y-6.59
X16.34Y-6.7869
X17.26Y-6.59
X17.26Y-6.7869
X17.945Y-3.555
X17.945Y-3.7519
X18.16Y-6.59
X18.16Y-6.7869
X18.4331Y-3.67
X18.63Y-3.67
X19.06Y-6.59
X19.06Y-6.7869
X19.28Y-3.67
X19.4769Y-3.67
T6
X15.55Y-6.27
X15.55Y-6.47
X15.55Y-6.69
X15.55Y-6.89
T7
X15.79Y-6.286
X15.79Y-6.816
X15.925Y-6.286
X15.925Y-6.816
X16.5Y-1.145
X16.5Y-1.28
X16.5Y-2.725
X16.5Y-2.86
X16.5175Y-1.685
X16.5175Y-1.82
X16.7375Y-6.2868
X16.7375Y-6.8168
X16.8725Y-6.2868
X16.8725Y-6.8168
X16.9025Y-3.1025
X16.9025Y-3.6325
X17.03Y-1.145
X17.03Y-1.28
X17.03Y-2.725
X17.03Y-2.86
X17.0375Y-3.1025
X17.0375Y-3.6325
X17.0475Y-1.685
X17.0475Y-1.82
X17.2285Y-3.518
X17.2285Y-4.048
X17.3635Y-3.518
X17.3635Y-4.048
X17.6075Y-6.2868
X17.6075Y-6.8168
X17.7425Y-6.2868
X17.7425Y-6.8168
X18.525Y-6.2818
X18.525Y-6.8118
X18.66Y-6.2818
X18.66Y-6.8118
X18.885Y-3.48
X18.885Y-4.01
X19.02Y-3.48
X19.02Y-4.01
X19.415Y-6.285
X19.415Y-6.815
X19.55Y-6.285
X19.55Y-6.815
X19.725Y-3.48
X19.725Y-4.01
X19.86Y-3.48
X19.86Y-4.01
X20.27Y-4.7
X20.27Y-5.23
X20.3275Y-6.2868
X20.3275Y-6.8168
X20.405Y-4.7
X20.405Y-5.23
X20.4625Y-6.2868
X20.4625Y-6.8168
X21.15Y-4.7018
X21.15Y-5.2318
X21.23Y-6.285
X21.23Y-6.815
X21.285Y-4.7018
X21.285Y-5.2318
X21.365Y-6.285
X21.365Y-6.815
T8
X17.64Y-1.18
X17.79Y-3.18
X17.94Y-1.18
X17.94Y-3.18
X18.09Y-3.18
X18.24Y-1.18
X19.16Y-1.18
X19.31Y-3.18
X19.46Y-1.18
X19.46Y-3.18
X19.61Y-3.18
X19.76Y-1.18
X20.7Y-1.18
X20.85Y-3.18
X21.0Y-1.18
X21.0Y-3.18
X21.15Y-3.18
X21.3Y-1.18
T9
X17.64Y-3.18
X18.24Y-3.18
X19.16Y-3.18
X19.76Y-3.18
X20.7Y-3.18
X21.3Y-3.18
T10
X14.4073Y-2.284
X15.8485Y-3.4267
X16.149Y-5.5115
X17.11Y-5.5115
X17.999Y-5.5115
X18.879Y-5.5165
X19.819Y-5.5165
X20.629Y-3.9215
X20.714Y-5.5115
X21.5175Y-3.9115
X21.579Y-5.5115
T11
X14.4073Y-1.2174
X14.4073Y-1.5285
X14.4073Y-1.8395
X14.4073Y-2.595
X14.4103Y-2.958
X14.4103Y-3.269
X14.4103Y-3.5801
X14.4103Y-3.9727
X14.4103Y-4.2837
X15.711Y-4.7085
X15.711Y-5.0195
X15.8485Y-3.7377
X16.149Y-5.2005
X16.6452Y-4.6635
X16.6452Y-4.9745
X16.74Y-2.1175
X16.74Y-2.4285
X17.11Y-5.2005
X17.551Y-4.6485
X17.551Y-4.9595
X17.999Y-5.2005
X18.411Y-4.6485
X18.411Y-4.9595
X18.879Y-5.2055
X19.29Y-4.66
X19.29Y-4.971
X19.819Y-5.2055
X20.629Y-3.6105
X20.714Y-5.2005
X21.5175Y-3.6005
X21.579Y-5.2005
T12
X14.7Y-5.04
X14.7Y-6.43
T0
M30
