G04 #@! TF.GenerationSoftware,KiCad,Pcbnew,(5.1.10)-1*
G04 #@! TF.CreationDate,2021-12-26T21:02:33-06:00*
G04 #@! TF.ProjectId,PowerBoard_2022_Rev1,506f7765-7242-46f6-9172-645f32303232,rev?*
G04 #@! TF.SameCoordinates,Original*
G04 #@! TF.FileFunction,Soldermask,Bot*
G04 #@! TF.FilePolarity,Negative*
%FSLAX46Y46*%
G04 Gerber Fmt 4.6, Leading zero omitted, Abs format (unit mm)*
G04 Created by KiCad (PCBNEW (5.1.10)-1) date 2021-12-26 21:02:33*
%MOMM*%
%LPD*%
G01*
G04 APERTURE LIST*
%ADD10C,5.480000*%
%ADD11C,1.920000*%
%ADD12C,3.346400*%
%ADD13C,3.219400*%
%ADD14C,2.000000*%
%ADD15C,18.688000*%
%ADD16C,1.924000*%
%ADD17C,3.448000*%
%ADD18C,4.210000*%
%ADD19O,3.000000X3.000000*%
%ADD20C,2.800000*%
G04 APERTURE END LIST*
D10*
X365945343Y-58013000D03*
X365945343Y-65913000D03*
D11*
X608076000Y-85090000D03*
X562356000Y-62230000D03*
X562356000Y-64770000D03*
X562356000Y-72390000D03*
X605536000Y-74930000D03*
X562356000Y-69850000D03*
X562356000Y-67310000D03*
X608076000Y-69850000D03*
X605536000Y-64770000D03*
X562356000Y-74930000D03*
X562356000Y-77470000D03*
X608076000Y-64770000D03*
X605536000Y-69850000D03*
X605536000Y-72390000D03*
X605536000Y-85090000D03*
X605536000Y-82550000D03*
X605536000Y-80010000D03*
X605536000Y-77470000D03*
X605536000Y-67310000D03*
X605536000Y-62230000D03*
X608076000Y-82550000D03*
X608076000Y-80010000D03*
X608076000Y-77470000D03*
X608076000Y-74930000D03*
X608076000Y-72390000D03*
X608076000Y-67310000D03*
X608076000Y-62230000D03*
X564896000Y-85090000D03*
X564896000Y-82550000D03*
X564896000Y-80010000D03*
X564896000Y-77470000D03*
X564896000Y-74930000D03*
X564896000Y-72390000D03*
X564896000Y-69850000D03*
X564896000Y-67310000D03*
X564896000Y-64770000D03*
X564896000Y-62230000D03*
X562356000Y-85090000D03*
X562356000Y-82550000D03*
X562356000Y-80010000D03*
X605536000Y-148590000D03*
X605536000Y-146050000D03*
X605536000Y-143510000D03*
X605536000Y-140970000D03*
X605536000Y-138430000D03*
X605536000Y-135890000D03*
X605536000Y-133350000D03*
X605536000Y-130810000D03*
X605536000Y-128270000D03*
X605536000Y-125730000D03*
X608076000Y-148590000D03*
X608076000Y-146050000D03*
X608076000Y-143510000D03*
X608076000Y-140970000D03*
X608076000Y-138430000D03*
X608076000Y-135890000D03*
X608076000Y-133350000D03*
X608076000Y-130810000D03*
X608076000Y-128270000D03*
X608076000Y-125730000D03*
X564896000Y-148590000D03*
X564896000Y-146050000D03*
X564896000Y-143510000D03*
X564896000Y-140970000D03*
X564896000Y-138430000D03*
X564896000Y-135890000D03*
X564896000Y-133350000D03*
X564896000Y-130810000D03*
X564896000Y-128270000D03*
X564896000Y-125730000D03*
X562356000Y-148590000D03*
X562356000Y-146050000D03*
X562356000Y-143510000D03*
X562356000Y-140970000D03*
X562356000Y-138430000D03*
X562356000Y-135890000D03*
X562356000Y-133350000D03*
X562356000Y-130810000D03*
X562356000Y-128270000D03*
X562356000Y-125730000D03*
D12*
X358513380Y-173870620D03*
X358449880Y-29519880D03*
X612338120Y-29583380D03*
X612338120Y-173870620D03*
D13*
X433006500Y-46228000D03*
X433006500Y-42799000D03*
X419544500Y-42799000D03*
X419544500Y-46228000D03*
X479679000Y-101854000D03*
X483108000Y-101854000D03*
X483108000Y-88392000D03*
X479679000Y-88392000D03*
X501015000Y-88392000D03*
X504444000Y-88392000D03*
X504444000Y-101854000D03*
X501015000Y-101854000D03*
X519747252Y-173147443D03*
X516318252Y-173147443D03*
X516318252Y-159685443D03*
X519747252Y-159685443D03*
X473963752Y-159558443D03*
X470534752Y-159558443D03*
X470534752Y-173020443D03*
X473963752Y-173020443D03*
X428561252Y-173147443D03*
X425132252Y-173147443D03*
X425132252Y-159685443D03*
X428561252Y-159685443D03*
X542671000Y-159639000D03*
X539242000Y-159639000D03*
X539242000Y-173101000D03*
X542671000Y-173101000D03*
X518287000Y-132842000D03*
X514858000Y-132842000D03*
X514858000Y-119380000D03*
X518287000Y-119380000D03*
X419100000Y-32512000D03*
X419100000Y-29083000D03*
X432562000Y-29083000D03*
X432562000Y-32512000D03*
X432752500Y-78803500D03*
X429323500Y-78803500D03*
X429323500Y-92265500D03*
X432752500Y-92265500D03*
X540638752Y-119426443D03*
X537209752Y-119426443D03*
X537209752Y-132888443D03*
X540638752Y-132888443D03*
X450659252Y-173147443D03*
X447230252Y-173147443D03*
X447230252Y-159685443D03*
X450659252Y-159685443D03*
X419100000Y-72644000D03*
X419100000Y-69215000D03*
X432562000Y-69215000D03*
X432562000Y-72644000D03*
X496570000Y-173101000D03*
X493141000Y-173101000D03*
X493141000Y-159639000D03*
X496570000Y-159639000D03*
X404495000Y-159664400D03*
X401066000Y-159664400D03*
X401066000Y-173126400D03*
X404495000Y-173126400D03*
X441032900Y-89357200D03*
X437603900Y-89357200D03*
X437603900Y-102819200D03*
X441032900Y-102819200D03*
D14*
X505500000Y-169709959D03*
G36*
G01*
X509000000Y-168909959D02*
X509000000Y-170509959D01*
G75*
G02*
X508800000Y-170709959I-200000J0D01*
G01*
X507200000Y-170709959D01*
G75*
G02*
X507000000Y-170509959I0J200000D01*
G01*
X507000000Y-168909959D01*
G75*
G02*
X507200000Y-168709959I200000J0D01*
G01*
X508800000Y-168709959D01*
G75*
G02*
X509000000Y-168909959I0J-200000D01*
G01*
G37*
X529122000Y-169709959D03*
G36*
G01*
X532622000Y-168909959D02*
X532622000Y-170509959D01*
G75*
G02*
X532422000Y-170709959I-200000J0D01*
G01*
X530822000Y-170709959D01*
G75*
G02*
X530622000Y-170509959I0J200000D01*
G01*
X530622000Y-168909959D01*
G75*
G02*
X530822000Y-168709959I200000J0D01*
G01*
X532422000Y-168709959D01*
G75*
G02*
X532622000Y-168909959I0J-200000D01*
G01*
G37*
X569936000Y-153924000D03*
G36*
G01*
X566436000Y-154724000D02*
X566436000Y-153124000D01*
G75*
G02*
X566636000Y-152924000I200000J0D01*
G01*
X568236000Y-152924000D01*
G75*
G02*
X568436000Y-153124000I0J-200000D01*
G01*
X568436000Y-154724000D01*
G75*
G02*
X568236000Y-154924000I-200000J0D01*
G01*
X566636000Y-154924000D01*
G75*
G02*
X566436000Y-154724000I0J200000D01*
G01*
G37*
G36*
G01*
X582692000Y-154978000D02*
X582692000Y-153378000D01*
G75*
G02*
X582892000Y-153178000I200000J0D01*
G01*
X584492000Y-153178000D01*
G75*
G02*
X584692000Y-153378000I0J-200000D01*
G01*
X584692000Y-154978000D01*
G75*
G02*
X584492000Y-155178000I-200000J0D01*
G01*
X582892000Y-155178000D01*
G75*
G02*
X582692000Y-154978000I0J200000D01*
G01*
G37*
X586192000Y-154178000D03*
D10*
X365945343Y-46723000D03*
X365945343Y-38823000D03*
X365945343Y-30923000D03*
X467640000Y-125971000D03*
X467640000Y-118071000D03*
X399060000Y-119595000D03*
X399060000Y-127495000D03*
X489966000Y-118364000D03*
X489966000Y-126264000D03*
X366022605Y-108805436D03*
X366022605Y-100905436D03*
X445796000Y-125971000D03*
X445796000Y-118071000D03*
X422788383Y-126352000D03*
X422788383Y-118452000D03*
X366022605Y-90933500D03*
X366022605Y-83033500D03*
X366022605Y-75133500D03*
X425196000Y-53784500D03*
X425196000Y-61684500D03*
D15*
X373380000Y-128016000D03*
D16*
X562356000Y-160528000D03*
X564896000Y-160528000D03*
X567436000Y-160528000D03*
X583692000Y-160528000D03*
X581152000Y-160528000D03*
X578612000Y-160528000D03*
D15*
X373380000Y-163322000D03*
D17*
X525780000Y-29972000D03*
X533400000Y-29972000D03*
X541020000Y-29972000D03*
D18*
X525780000Y-80772000D03*
X541020000Y-80772000D03*
D17*
X537210000Y-80772000D03*
X533400000Y-80772000D03*
X529590000Y-80772000D03*
X490474000Y-80772000D03*
X494284000Y-80772000D03*
X498094000Y-80772000D03*
D18*
X501904000Y-80772000D03*
X486664000Y-80772000D03*
D17*
X501904000Y-29972000D03*
X494284000Y-29972000D03*
X486664000Y-29972000D03*
D10*
X410184000Y-132093000D03*
X410184000Y-139993000D03*
X523976000Y-99607000D03*
X523976000Y-91707000D03*
X402552370Y-94937954D03*
X402552370Y-87037954D03*
X434594000Y-132093000D03*
X434594000Y-139993000D03*
X546544500Y-91453000D03*
X546544500Y-99353000D03*
X457174000Y-139993000D03*
X457174000Y-132093000D03*
X479526000Y-140120000D03*
X479526000Y-132220000D03*
X503402000Y-140120000D03*
X503402000Y-132220000D03*
X526135000Y-132093000D03*
X526135000Y-139993000D03*
X548106000Y-132093000D03*
X548106000Y-139993000D03*
G36*
G01*
X396270000Y-176506000D02*
X393670000Y-176506000D01*
G75*
G02*
X393470000Y-176306000I0J200000D01*
G01*
X393470000Y-173706000D01*
G75*
G02*
X393670000Y-173506000I200000J0D01*
G01*
X396270000Y-173506000D01*
G75*
G02*
X396470000Y-173706000I0J-200000D01*
G01*
X396470000Y-176306000D01*
G75*
G02*
X396270000Y-176506000I-200000J0D01*
G01*
G37*
D19*
X394970000Y-169926000D03*
X394970000Y-159258000D03*
G36*
G01*
X396270000Y-165838000D02*
X393670000Y-165838000D01*
G75*
G02*
X393470000Y-165638000I0J200000D01*
G01*
X393470000Y-163038000D01*
G75*
G02*
X393670000Y-162838000I200000J0D01*
G01*
X396270000Y-162838000D01*
G75*
G02*
X396470000Y-163038000I0J-200000D01*
G01*
X396470000Y-165638000D01*
G75*
G02*
X396270000Y-165838000I-200000J0D01*
G01*
G37*
G36*
G01*
X413836000Y-165986000D02*
X416236000Y-165986000D01*
G75*
G02*
X416436000Y-166186000I0J-200000D01*
G01*
X416436000Y-168586000D01*
G75*
G02*
X416236000Y-168786000I-200000J0D01*
G01*
X413836000Y-168786000D01*
G75*
G02*
X413636000Y-168586000I0J200000D01*
G01*
X413636000Y-166186000D01*
G75*
G02*
X413836000Y-165986000I200000J0D01*
G01*
G37*
D20*
X415036000Y-172386000D03*
G36*
G01*
X437204000Y-165986000D02*
X439604000Y-165986000D01*
G75*
G02*
X439804000Y-166186000I0J-200000D01*
G01*
X439804000Y-168586000D01*
G75*
G02*
X439604000Y-168786000I-200000J0D01*
G01*
X437204000Y-168786000D01*
G75*
G02*
X437004000Y-168586000I0J200000D01*
G01*
X437004000Y-166186000D01*
G75*
G02*
X437204000Y-165986000I200000J0D01*
G01*
G37*
X438404000Y-172386000D03*
X461264000Y-172386000D03*
G36*
G01*
X460064000Y-165986000D02*
X462464000Y-165986000D01*
G75*
G02*
X462664000Y-166186000I0J-200000D01*
G01*
X462664000Y-168586000D01*
G75*
G02*
X462464000Y-168786000I-200000J0D01*
G01*
X460064000Y-168786000D01*
G75*
G02*
X459864000Y-168586000I0J200000D01*
G01*
X459864000Y-166186000D01*
G75*
G02*
X460064000Y-165986000I200000J0D01*
G01*
G37*
G36*
G01*
X482924000Y-165986000D02*
X485324000Y-165986000D01*
G75*
G02*
X485524000Y-166186000I0J-200000D01*
G01*
X485524000Y-168586000D01*
G75*
G02*
X485324000Y-168786000I-200000J0D01*
G01*
X482924000Y-168786000D01*
G75*
G02*
X482724000Y-168586000I0J200000D01*
G01*
X482724000Y-166186000D01*
G75*
G02*
X482924000Y-165986000I200000J0D01*
G01*
G37*
X484124000Y-172386000D03*
G36*
G01*
X488312000Y-94418000D02*
X488312000Y-92018000D01*
G75*
G02*
X488512000Y-91818000I200000J0D01*
G01*
X490912000Y-91818000D01*
G75*
G02*
X491112000Y-92018000I0J-200000D01*
G01*
X491112000Y-94418000D01*
G75*
G02*
X490912000Y-94618000I-200000J0D01*
G01*
X488512000Y-94618000D01*
G75*
G02*
X488312000Y-94418000I0J200000D01*
G01*
G37*
X494712000Y-93218000D03*
X468202000Y-93218000D03*
G36*
G01*
X474602000Y-92018000D02*
X474602000Y-94418000D01*
G75*
G02*
X474402000Y-94618000I-200000J0D01*
G01*
X472002000Y-94618000D01*
G75*
G02*
X471802000Y-94418000I0J200000D01*
G01*
X471802000Y-92018000D01*
G75*
G02*
X472002000Y-91818000I200000J0D01*
G01*
X474402000Y-91818000D01*
G75*
G02*
X474602000Y-92018000I0J-200000D01*
G01*
G37*
G36*
G01*
X454603000Y-88897000D02*
X457003000Y-88897000D01*
G75*
G02*
X457203000Y-89097000I0J-200000D01*
G01*
X457203000Y-91497000D01*
G75*
G02*
X457003000Y-91697000I-200000J0D01*
G01*
X454603000Y-91697000D01*
G75*
G02*
X454403000Y-91497000I0J200000D01*
G01*
X454403000Y-89097000D01*
G75*
G02*
X454603000Y-88897000I200000J0D01*
G01*
G37*
X455803000Y-95297000D03*
D17*
X448056000Y-29972000D03*
X455676000Y-29972000D03*
X463296000Y-29972000D03*
D18*
X448056000Y-80772000D03*
X463296000Y-80772000D03*
D17*
X459486000Y-80772000D03*
X455676000Y-80772000D03*
X451866000Y-80772000D03*
M02*
