G04 #@! TF.GenerationSoftware,KiCad,Pcbnew,(5.1.10)-1*
G04 #@! TF.CreationDate,2021-12-26T21:02:33-06:00*
G04 #@! TF.ProjectId,PowerBoard_2022_Rev1,506f7765-7242-46f6-9172-645f32303232,rev?*
G04 #@! TF.SameCoordinates,Original*
G04 #@! TF.FileFunction,Paste,Top*
G04 #@! TF.FilePolarity,Positive*
%FSLAX46Y46*%
G04 Gerber Fmt 4.6, Leading zero omitted, Abs format (unit mm)*
G04 Created by KiCad (PCBNEW (5.1.10)-1) date 2021-12-26 21:02:33*
%MOMM*%
%LPD*%
G01*
G04 APERTURE LIST*
%ADD10C,1.520000*%
%ADD11R,1.060000X0.650000*%
%ADD12R,0.750000X0.300000*%
%ADD13R,0.830000X0.300000*%
%ADD14R,0.510000X0.635000*%
%ADD15R,0.300000X0.750000*%
%ADD16R,0.300000X0.830000*%
%ADD17R,0.635000X0.510000*%
%ADD18R,1.550000X0.600000*%
%ADD19R,0.600000X1.550000*%
%ADD20R,0.650000X1.060000*%
G04 APERTURE END LIST*
D10*
X608076000Y-85090000D03*
X562356000Y-62230000D03*
X562356000Y-64770000D03*
X562356000Y-72390000D03*
X605536000Y-74930000D03*
X562356000Y-69850000D03*
X562356000Y-67310000D03*
X608076000Y-69850000D03*
X605536000Y-64770000D03*
X562356000Y-74930000D03*
X562356000Y-77470000D03*
X608076000Y-64770000D03*
X605536000Y-69850000D03*
X605536000Y-72390000D03*
X605536000Y-85090000D03*
X605536000Y-82550000D03*
X605536000Y-80010000D03*
X605536000Y-77470000D03*
X605536000Y-67310000D03*
X605536000Y-62230000D03*
X608076000Y-82550000D03*
X608076000Y-80010000D03*
X608076000Y-77470000D03*
X608076000Y-74930000D03*
X608076000Y-72390000D03*
X608076000Y-67310000D03*
X608076000Y-62230000D03*
X564896000Y-85090000D03*
X564896000Y-82550000D03*
X564896000Y-80010000D03*
X564896000Y-77470000D03*
X564896000Y-74930000D03*
X564896000Y-72390000D03*
X564896000Y-69850000D03*
X564896000Y-67310000D03*
X564896000Y-64770000D03*
X564896000Y-62230000D03*
X562356000Y-85090000D03*
X562356000Y-82550000D03*
X562356000Y-80010000D03*
X605536000Y-148590000D03*
X605536000Y-146050000D03*
X605536000Y-143510000D03*
X605536000Y-140970000D03*
X605536000Y-138430000D03*
X605536000Y-135890000D03*
X605536000Y-133350000D03*
X605536000Y-130810000D03*
X605536000Y-128270000D03*
X605536000Y-125730000D03*
X608076000Y-148590000D03*
X608076000Y-146050000D03*
X608076000Y-143510000D03*
X608076000Y-140970000D03*
X608076000Y-138430000D03*
X608076000Y-135890000D03*
X608076000Y-133350000D03*
X608076000Y-130810000D03*
X608076000Y-128270000D03*
X608076000Y-125730000D03*
X564896000Y-148590000D03*
X564896000Y-146050000D03*
X564896000Y-143510000D03*
X564896000Y-140970000D03*
X564896000Y-138430000D03*
X564896000Y-135890000D03*
X564896000Y-133350000D03*
X564896000Y-130810000D03*
X564896000Y-128270000D03*
X564896000Y-125730000D03*
X562356000Y-148590000D03*
X562356000Y-146050000D03*
X562356000Y-143510000D03*
X562356000Y-140970000D03*
X562356000Y-138430000D03*
X562356000Y-135890000D03*
X562356000Y-133350000D03*
X562356000Y-130810000D03*
X562356000Y-128270000D03*
X562356000Y-125730000D03*
D11*
X512060000Y-99568000D03*
X512060000Y-100518000D03*
X512060000Y-101468000D03*
X514260000Y-101468000D03*
X514260000Y-99568000D03*
G36*
G01*
X455659000Y-159749500D02*
X455659000Y-159274500D01*
G75*
G02*
X455896500Y-159037000I237500J0D01*
G01*
X456471500Y-159037000D01*
G75*
G02*
X456709000Y-159274500I0J-237500D01*
G01*
X456709000Y-159749500D01*
G75*
G02*
X456471500Y-159987000I-237500J0D01*
G01*
X455896500Y-159987000D01*
G75*
G02*
X455659000Y-159749500I0J237500D01*
G01*
G37*
G36*
G01*
X453909000Y-159749500D02*
X453909000Y-159274500D01*
G75*
G02*
X454146500Y-159037000I237500J0D01*
G01*
X454721500Y-159037000D01*
G75*
G02*
X454959000Y-159274500I0J-237500D01*
G01*
X454959000Y-159749500D01*
G75*
G02*
X454721500Y-159987000I-237500J0D01*
G01*
X454146500Y-159987000D01*
G75*
G02*
X453909000Y-159749500I0J237500D01*
G01*
G37*
G36*
G01*
X510048500Y-140558000D02*
X510523500Y-140558000D01*
G75*
G02*
X510761000Y-140795500I0J-237500D01*
G01*
X510761000Y-141370500D01*
G75*
G02*
X510523500Y-141608000I-237500J0D01*
G01*
X510048500Y-141608000D01*
G75*
G02*
X509811000Y-141370500I0J237500D01*
G01*
X509811000Y-140795500D01*
G75*
G02*
X510048500Y-140558000I237500J0D01*
G01*
G37*
G36*
G01*
X510048500Y-138808000D02*
X510523500Y-138808000D01*
G75*
G02*
X510761000Y-139045500I0J-237500D01*
G01*
X510761000Y-139620500D01*
G75*
G02*
X510523500Y-139858000I-237500J0D01*
G01*
X510048500Y-139858000D01*
G75*
G02*
X509811000Y-139620500I0J237500D01*
G01*
X509811000Y-139045500D01*
G75*
G02*
X510048500Y-138808000I237500J0D01*
G01*
G37*
G36*
G01*
X549545500Y-116287000D02*
X550020500Y-116287000D01*
G75*
G02*
X550258000Y-116524500I0J-237500D01*
G01*
X550258000Y-117099500D01*
G75*
G02*
X550020500Y-117337000I-237500J0D01*
G01*
X549545500Y-117337000D01*
G75*
G02*
X549308000Y-117099500I0J237500D01*
G01*
X549308000Y-116524500D01*
G75*
G02*
X549545500Y-116287000I237500J0D01*
G01*
G37*
G36*
G01*
X549545500Y-114537000D02*
X550020500Y-114537000D01*
G75*
G02*
X550258000Y-114774500I0J-237500D01*
G01*
X550258000Y-115349500D01*
G75*
G02*
X550020500Y-115587000I-237500J0D01*
G01*
X549545500Y-115587000D01*
G75*
G02*
X549308000Y-115349500I0J237500D01*
G01*
X549308000Y-114774500D01*
G75*
G02*
X549545500Y-114537000I237500J0D01*
G01*
G37*
G36*
G01*
X545180000Y-119617500D02*
X545180000Y-119142500D01*
G75*
G02*
X545417500Y-118905000I237500J0D01*
G01*
X545992500Y-118905000D01*
G75*
G02*
X546230000Y-119142500I0J-237500D01*
G01*
X546230000Y-119617500D01*
G75*
G02*
X545992500Y-119855000I-237500J0D01*
G01*
X545417500Y-119855000D01*
G75*
G02*
X545180000Y-119617500I0J237500D01*
G01*
G37*
G36*
G01*
X543430000Y-119617500D02*
X543430000Y-119142500D01*
G75*
G02*
X543667500Y-118905000I237500J0D01*
G01*
X544242500Y-118905000D01*
G75*
G02*
X544480000Y-119142500I0J-237500D01*
G01*
X544480000Y-119617500D01*
G75*
G02*
X544242500Y-119855000I-237500J0D01*
G01*
X543667500Y-119855000D01*
G75*
G02*
X543430000Y-119617500I0J237500D01*
G01*
G37*
G36*
G01*
X527320500Y-115666000D02*
X527795500Y-115666000D01*
G75*
G02*
X528033000Y-115903500I0J-237500D01*
G01*
X528033000Y-116478500D01*
G75*
G02*
X527795500Y-116716000I-237500J0D01*
G01*
X527320500Y-116716000D01*
G75*
G02*
X527083000Y-116478500I0J237500D01*
G01*
X527083000Y-115903500D01*
G75*
G02*
X527320500Y-115666000I237500J0D01*
G01*
G37*
G36*
G01*
X527320500Y-113916000D02*
X527795500Y-113916000D01*
G75*
G02*
X528033000Y-114153500I0J-237500D01*
G01*
X528033000Y-114728500D01*
G75*
G02*
X527795500Y-114966000I-237500J0D01*
G01*
X527320500Y-114966000D01*
G75*
G02*
X527083000Y-114728500I0J237500D01*
G01*
X527083000Y-114153500D01*
G75*
G02*
X527320500Y-113916000I237500J0D01*
G01*
G37*
G36*
G01*
X520965000Y-119109500D02*
X520965000Y-118634500D01*
G75*
G02*
X521202500Y-118397000I237500J0D01*
G01*
X521777500Y-118397000D01*
G75*
G02*
X522015000Y-118634500I0J-237500D01*
G01*
X522015000Y-119109500D01*
G75*
G02*
X521777500Y-119347000I-237500J0D01*
G01*
X521202500Y-119347000D01*
G75*
G02*
X520965000Y-119109500I0J237500D01*
G01*
G37*
G36*
G01*
X522715000Y-119109500D02*
X522715000Y-118634500D01*
G75*
G02*
X522952500Y-118397000I237500J0D01*
G01*
X523527500Y-118397000D01*
G75*
G02*
X523765000Y-118634500I0J-237500D01*
G01*
X523765000Y-119109500D01*
G75*
G02*
X523527500Y-119347000I-237500J0D01*
G01*
X522952500Y-119347000D01*
G75*
G02*
X522715000Y-119109500I0J237500D01*
G01*
G37*
G36*
G01*
X563863500Y-154449000D02*
X563388500Y-154449000D01*
G75*
G02*
X563151000Y-154211500I0J237500D01*
G01*
X563151000Y-153636500D01*
G75*
G02*
X563388500Y-153399000I237500J0D01*
G01*
X563863500Y-153399000D01*
G75*
G02*
X564101000Y-153636500I0J-237500D01*
G01*
X564101000Y-154211500D01*
G75*
G02*
X563863500Y-154449000I-237500J0D01*
G01*
G37*
G36*
G01*
X563863500Y-152699000D02*
X563388500Y-152699000D01*
G75*
G02*
X563151000Y-152461500I0J237500D01*
G01*
X563151000Y-151886500D01*
G75*
G02*
X563388500Y-151649000I237500J0D01*
G01*
X563863500Y-151649000D01*
G75*
G02*
X564101000Y-151886500I0J-237500D01*
G01*
X564101000Y-152461500D01*
G75*
G02*
X563863500Y-152699000I-237500J0D01*
G01*
G37*
G36*
G01*
X580119500Y-152953000D02*
X579644500Y-152953000D01*
G75*
G02*
X579407000Y-152715500I0J237500D01*
G01*
X579407000Y-152140500D01*
G75*
G02*
X579644500Y-151903000I237500J0D01*
G01*
X580119500Y-151903000D01*
G75*
G02*
X580357000Y-152140500I0J-237500D01*
G01*
X580357000Y-152715500D01*
G75*
G02*
X580119500Y-152953000I-237500J0D01*
G01*
G37*
G36*
G01*
X580119500Y-154703000D02*
X579644500Y-154703000D01*
G75*
G02*
X579407000Y-154465500I0J237500D01*
G01*
X579407000Y-153890500D01*
G75*
G02*
X579644500Y-153653000I237500J0D01*
G01*
X580119500Y-153653000D01*
G75*
G02*
X580357000Y-153890500I0J-237500D01*
G01*
X580357000Y-154465500D01*
G75*
G02*
X580119500Y-154703000I-237500J0D01*
G01*
G37*
G36*
G01*
X414290500Y-154567400D02*
X414765500Y-154567400D01*
G75*
G02*
X415003000Y-154804900I0J-237500D01*
G01*
X415003000Y-155379900D01*
G75*
G02*
X414765500Y-155617400I-237500J0D01*
G01*
X414290500Y-155617400D01*
G75*
G02*
X414053000Y-155379900I0J237500D01*
G01*
X414053000Y-154804900D01*
G75*
G02*
X414290500Y-154567400I237500J0D01*
G01*
G37*
G36*
G01*
X414290500Y-156317400D02*
X414765500Y-156317400D01*
G75*
G02*
X415003000Y-156554900I0J-237500D01*
G01*
X415003000Y-157129900D01*
G75*
G02*
X414765500Y-157367400I-237500J0D01*
G01*
X414290500Y-157367400D01*
G75*
G02*
X414053000Y-157129900I0J237500D01*
G01*
X414053000Y-156554900D01*
G75*
G02*
X414290500Y-156317400I237500J0D01*
G01*
G37*
G36*
G01*
X460264500Y-153907000D02*
X460739500Y-153907000D01*
G75*
G02*
X460977000Y-154144500I0J-237500D01*
G01*
X460977000Y-154719500D01*
G75*
G02*
X460739500Y-154957000I-237500J0D01*
G01*
X460264500Y-154957000D01*
G75*
G02*
X460027000Y-154719500I0J237500D01*
G01*
X460027000Y-154144500D01*
G75*
G02*
X460264500Y-153907000I237500J0D01*
G01*
G37*
G36*
G01*
X460264500Y-155657000D02*
X460739500Y-155657000D01*
G75*
G02*
X460977000Y-155894500I0J-237500D01*
G01*
X460977000Y-156469500D01*
G75*
G02*
X460739500Y-156707000I-237500J0D01*
G01*
X460264500Y-156707000D01*
G75*
G02*
X460027000Y-156469500I0J237500D01*
G01*
X460027000Y-155894500D01*
G75*
G02*
X460264500Y-155657000I237500J0D01*
G01*
G37*
G36*
G01*
X506238500Y-154415000D02*
X506713500Y-154415000D01*
G75*
G02*
X506951000Y-154652500I0J-237500D01*
G01*
X506951000Y-155227500D01*
G75*
G02*
X506713500Y-155465000I-237500J0D01*
G01*
X506238500Y-155465000D01*
G75*
G02*
X506001000Y-155227500I0J237500D01*
G01*
X506001000Y-154652500D01*
G75*
G02*
X506238500Y-154415000I237500J0D01*
G01*
G37*
G36*
G01*
X506238500Y-156165000D02*
X506713500Y-156165000D01*
G75*
G02*
X506951000Y-156402500I0J-237500D01*
G01*
X506951000Y-156977500D01*
G75*
G02*
X506713500Y-157215000I-237500J0D01*
G01*
X506238500Y-157215000D01*
G75*
G02*
X506001000Y-156977500I0J237500D01*
G01*
X506001000Y-156402500D01*
G75*
G02*
X506238500Y-156165000I237500J0D01*
G01*
G37*
G36*
G01*
X552212500Y-155925000D02*
X552687500Y-155925000D01*
G75*
G02*
X552925000Y-156162500I0J-237500D01*
G01*
X552925000Y-156737500D01*
G75*
G02*
X552687500Y-156975000I-237500J0D01*
G01*
X552212500Y-156975000D01*
G75*
G02*
X551975000Y-156737500I0J237500D01*
G01*
X551975000Y-156162500D01*
G75*
G02*
X552212500Y-155925000I237500J0D01*
G01*
G37*
G36*
G01*
X552212500Y-154175000D02*
X552687500Y-154175000D01*
G75*
G02*
X552925000Y-154412500I0J-237500D01*
G01*
X552925000Y-154987500D01*
G75*
G02*
X552687500Y-155225000I-237500J0D01*
G01*
X552212500Y-155225000D01*
G75*
G02*
X551975000Y-154987500I0J237500D01*
G01*
X551975000Y-154412500D01*
G75*
G02*
X552212500Y-154175000I237500J0D01*
G01*
G37*
G36*
G01*
X409036000Y-159647900D02*
X409036000Y-159172900D01*
G75*
G02*
X409273500Y-158935400I237500J0D01*
G01*
X409848500Y-158935400D01*
G75*
G02*
X410086000Y-159172900I0J-237500D01*
G01*
X410086000Y-159647900D01*
G75*
G02*
X409848500Y-159885400I-237500J0D01*
G01*
X409273500Y-159885400D01*
G75*
G02*
X409036000Y-159647900I0J237500D01*
G01*
G37*
G36*
G01*
X407286000Y-159647900D02*
X407286000Y-159172900D01*
G75*
G02*
X407523500Y-158935400I237500J0D01*
G01*
X408098500Y-158935400D01*
G75*
G02*
X408336000Y-159172900I0J-237500D01*
G01*
X408336000Y-159647900D01*
G75*
G02*
X408098500Y-159885400I-237500J0D01*
G01*
X407523500Y-159885400D01*
G75*
G02*
X407286000Y-159647900I0J237500D01*
G01*
G37*
G36*
G01*
X501125000Y-160003500D02*
X501125000Y-159528500D01*
G75*
G02*
X501362500Y-159291000I237500J0D01*
G01*
X501937500Y-159291000D01*
G75*
G02*
X502175000Y-159528500I0J-237500D01*
G01*
X502175000Y-160003500D01*
G75*
G02*
X501937500Y-160241000I-237500J0D01*
G01*
X501362500Y-160241000D01*
G75*
G02*
X501125000Y-160003500I0J237500D01*
G01*
G37*
G36*
G01*
X499375000Y-160003500D02*
X499375000Y-159528500D01*
G75*
G02*
X499612500Y-159291000I237500J0D01*
G01*
X500187500Y-159291000D01*
G75*
G02*
X500425000Y-159528500I0J-237500D01*
G01*
X500425000Y-160003500D01*
G75*
G02*
X500187500Y-160241000I-237500J0D01*
G01*
X499612500Y-160241000D01*
G75*
G02*
X499375000Y-160003500I0J237500D01*
G01*
G37*
G36*
G01*
X545970000Y-159114500D02*
X545970000Y-158639500D01*
G75*
G02*
X546207500Y-158402000I237500J0D01*
G01*
X546782500Y-158402000D01*
G75*
G02*
X547020000Y-158639500I0J-237500D01*
G01*
X547020000Y-159114500D01*
G75*
G02*
X546782500Y-159352000I-237500J0D01*
G01*
X546207500Y-159352000D01*
G75*
G02*
X545970000Y-159114500I0J237500D01*
G01*
G37*
G36*
G01*
X547720000Y-159114500D02*
X547720000Y-158639500D01*
G75*
G02*
X547957500Y-158402000I237500J0D01*
G01*
X548532500Y-158402000D01*
G75*
G02*
X548770000Y-158639500I0J-237500D01*
G01*
X548770000Y-159114500D01*
G75*
G02*
X548532500Y-159352000I-237500J0D01*
G01*
X547957500Y-159352000D01*
G75*
G02*
X547720000Y-159114500I0J237500D01*
G01*
G37*
G36*
G01*
X437912500Y-153907000D02*
X438387500Y-153907000D01*
G75*
G02*
X438625000Y-154144500I0J-237500D01*
G01*
X438625000Y-154719500D01*
G75*
G02*
X438387500Y-154957000I-237500J0D01*
G01*
X437912500Y-154957000D01*
G75*
G02*
X437675000Y-154719500I0J237500D01*
G01*
X437675000Y-154144500D01*
G75*
G02*
X437912500Y-153907000I237500J0D01*
G01*
G37*
G36*
G01*
X437912500Y-155657000D02*
X438387500Y-155657000D01*
G75*
G02*
X438625000Y-155894500I0J-237500D01*
G01*
X438625000Y-156469500D01*
G75*
G02*
X438387500Y-156707000I-237500J0D01*
G01*
X437912500Y-156707000D01*
G75*
G02*
X437675000Y-156469500I0J237500D01*
G01*
X437675000Y-155894500D01*
G75*
G02*
X437912500Y-155657000I237500J0D01*
G01*
G37*
G36*
G01*
X482807000Y-154415000D02*
X483282000Y-154415000D01*
G75*
G02*
X483519500Y-154652500I0J-237500D01*
G01*
X483519500Y-155227500D01*
G75*
G02*
X483282000Y-155465000I-237500J0D01*
G01*
X482807000Y-155465000D01*
G75*
G02*
X482569500Y-155227500I0J237500D01*
G01*
X482569500Y-154652500D01*
G75*
G02*
X482807000Y-154415000I237500J0D01*
G01*
G37*
G36*
G01*
X482807000Y-156165000D02*
X483282000Y-156165000D01*
G75*
G02*
X483519500Y-156402500I0J-237500D01*
G01*
X483519500Y-156977500D01*
G75*
G02*
X483282000Y-157215000I-237500J0D01*
G01*
X482807000Y-157215000D01*
G75*
G02*
X482569500Y-156977500I0J237500D01*
G01*
X482569500Y-156402500D01*
G75*
G02*
X482807000Y-156165000I237500J0D01*
G01*
G37*
G36*
G01*
X529352500Y-156419000D02*
X529827500Y-156419000D01*
G75*
G02*
X530065000Y-156656500I0J-237500D01*
G01*
X530065000Y-157231500D01*
G75*
G02*
X529827500Y-157469000I-237500J0D01*
G01*
X529352500Y-157469000D01*
G75*
G02*
X529115000Y-157231500I0J237500D01*
G01*
X529115000Y-156656500D01*
G75*
G02*
X529352500Y-156419000I237500J0D01*
G01*
G37*
G36*
G01*
X529352500Y-154669000D02*
X529827500Y-154669000D01*
G75*
G02*
X530065000Y-154906500I0J-237500D01*
G01*
X530065000Y-155481500D01*
G75*
G02*
X529827500Y-155719000I-237500J0D01*
G01*
X529352500Y-155719000D01*
G75*
G02*
X529115000Y-155481500I0J237500D01*
G01*
X529115000Y-154906500D01*
G75*
G02*
X529352500Y-154669000I237500J0D01*
G01*
G37*
G36*
G01*
X433053000Y-159495500D02*
X433053000Y-159020500D01*
G75*
G02*
X433290500Y-158783000I237500J0D01*
G01*
X433865500Y-158783000D01*
G75*
G02*
X434103000Y-159020500I0J-237500D01*
G01*
X434103000Y-159495500D01*
G75*
G02*
X433865500Y-159733000I-237500J0D01*
G01*
X433290500Y-159733000D01*
G75*
G02*
X433053000Y-159495500I0J237500D01*
G01*
G37*
G36*
G01*
X431303000Y-159495500D02*
X431303000Y-159020500D01*
G75*
G02*
X431540500Y-158783000I237500J0D01*
G01*
X432115500Y-158783000D01*
G75*
G02*
X432353000Y-159020500I0J-237500D01*
G01*
X432353000Y-159495500D01*
G75*
G02*
X432115500Y-159733000I-237500J0D01*
G01*
X431540500Y-159733000D01*
G75*
G02*
X431303000Y-159495500I0J237500D01*
G01*
G37*
G36*
G01*
X476882000Y-160003500D02*
X476882000Y-159528500D01*
G75*
G02*
X477119500Y-159291000I237500J0D01*
G01*
X477694500Y-159291000D01*
G75*
G02*
X477932000Y-159528500I0J-237500D01*
G01*
X477932000Y-160003500D01*
G75*
G02*
X477694500Y-160241000I-237500J0D01*
G01*
X477119500Y-160241000D01*
G75*
G02*
X476882000Y-160003500I0J237500D01*
G01*
G37*
G36*
G01*
X478632000Y-160003500D02*
X478632000Y-159528500D01*
G75*
G02*
X478869500Y-159291000I237500J0D01*
G01*
X479444500Y-159291000D01*
G75*
G02*
X479682000Y-159528500I0J-237500D01*
G01*
X479682000Y-160003500D01*
G75*
G02*
X479444500Y-160241000I-237500J0D01*
G01*
X478869500Y-160241000D01*
G75*
G02*
X478632000Y-160003500I0J237500D01*
G01*
G37*
G36*
G01*
X524493000Y-159495500D02*
X524493000Y-159020500D01*
G75*
G02*
X524730500Y-158783000I237500J0D01*
G01*
X525305500Y-158783000D01*
G75*
G02*
X525543000Y-159020500I0J-237500D01*
G01*
X525543000Y-159495500D01*
G75*
G02*
X525305500Y-159733000I-237500J0D01*
G01*
X524730500Y-159733000D01*
G75*
G02*
X524493000Y-159495500I0J237500D01*
G01*
G37*
G36*
G01*
X522743000Y-159495500D02*
X522743000Y-159020500D01*
G75*
G02*
X522980500Y-158783000I237500J0D01*
G01*
X523555500Y-158783000D01*
G75*
G02*
X523793000Y-159020500I0J-237500D01*
G01*
X523793000Y-159495500D01*
G75*
G02*
X523555500Y-159733000I-237500J0D01*
G01*
X522980500Y-159733000D01*
G75*
G02*
X522743000Y-159495500I0J237500D01*
G01*
G37*
G36*
G01*
X387649000Y-31258500D02*
X387649000Y-31733500D01*
G75*
G02*
X387411500Y-31971000I-237500J0D01*
G01*
X386836500Y-31971000D01*
G75*
G02*
X386599000Y-31733500I0J237500D01*
G01*
X386599000Y-31258500D01*
G75*
G02*
X386836500Y-31021000I237500J0D01*
G01*
X387411500Y-31021000D01*
G75*
G02*
X387649000Y-31258500I0J-237500D01*
G01*
G37*
G36*
G01*
X389399000Y-31258500D02*
X389399000Y-31733500D01*
G75*
G02*
X389161500Y-31971000I-237500J0D01*
G01*
X388586500Y-31971000D01*
G75*
G02*
X388349000Y-31733500I0J237500D01*
G01*
X388349000Y-31258500D01*
G75*
G02*
X388586500Y-31021000I237500J0D01*
G01*
X389161500Y-31021000D01*
G75*
G02*
X389399000Y-31258500I0J-237500D01*
G01*
G37*
G36*
G01*
X384666500Y-91739000D02*
X384191500Y-91739000D01*
G75*
G02*
X383954000Y-91501500I0J237500D01*
G01*
X383954000Y-90926500D01*
G75*
G02*
X384191500Y-90689000I237500J0D01*
G01*
X384666500Y-90689000D01*
G75*
G02*
X384904000Y-90926500I0J-237500D01*
G01*
X384904000Y-91501500D01*
G75*
G02*
X384666500Y-91739000I-237500J0D01*
G01*
G37*
G36*
G01*
X384666500Y-93489000D02*
X384191500Y-93489000D01*
G75*
G02*
X383954000Y-93251500I0J237500D01*
G01*
X383954000Y-92676500D01*
G75*
G02*
X384191500Y-92439000I237500J0D01*
G01*
X384666500Y-92439000D01*
G75*
G02*
X384904000Y-92676500I0J-237500D01*
G01*
X384904000Y-93251500D01*
G75*
G02*
X384666500Y-93489000I-237500J0D01*
G01*
G37*
G36*
G01*
X403970500Y-28691000D02*
X403495500Y-28691000D01*
G75*
G02*
X403258000Y-28453500I0J237500D01*
G01*
X403258000Y-27878500D01*
G75*
G02*
X403495500Y-27641000I237500J0D01*
G01*
X403970500Y-27641000D01*
G75*
G02*
X404208000Y-27878500I0J-237500D01*
G01*
X404208000Y-28453500D01*
G75*
G02*
X403970500Y-28691000I-237500J0D01*
G01*
G37*
G36*
G01*
X403970500Y-26941000D02*
X403495500Y-26941000D01*
G75*
G02*
X403258000Y-26703500I0J237500D01*
G01*
X403258000Y-26128500D01*
G75*
G02*
X403495500Y-25891000I237500J0D01*
G01*
X403970500Y-25891000D01*
G75*
G02*
X404208000Y-26128500I0J-237500D01*
G01*
X404208000Y-26703500D01*
G75*
G02*
X403970500Y-26941000I-237500J0D01*
G01*
G37*
G36*
G01*
X422385000Y-77326500D02*
X422385000Y-76851500D01*
G75*
G02*
X422622500Y-76614000I237500J0D01*
G01*
X423197500Y-76614000D01*
G75*
G02*
X423435000Y-76851500I0J-237500D01*
G01*
X423435000Y-77326500D01*
G75*
G02*
X423197500Y-77564000I-237500J0D01*
G01*
X422622500Y-77564000D01*
G75*
G02*
X422385000Y-77326500I0J237500D01*
G01*
G37*
G36*
G01*
X420635000Y-77326500D02*
X420635000Y-76851500D01*
G75*
G02*
X420872500Y-76614000I237500J0D01*
G01*
X421447500Y-76614000D01*
G75*
G02*
X421685000Y-76851500I0J-237500D01*
G01*
X421685000Y-77326500D01*
G75*
G02*
X421447500Y-77564000I-237500J0D01*
G01*
X420872500Y-77564000D01*
G75*
G02*
X420635000Y-77326500I0J237500D01*
G01*
G37*
G36*
G01*
X488171500Y-105201000D02*
X487696500Y-105201000D01*
G75*
G02*
X487459000Y-104963500I0J237500D01*
G01*
X487459000Y-104388500D01*
G75*
G02*
X487696500Y-104151000I237500J0D01*
G01*
X488171500Y-104151000D01*
G75*
G02*
X488409000Y-104388500I0J-237500D01*
G01*
X488409000Y-104963500D01*
G75*
G02*
X488171500Y-105201000I-237500J0D01*
G01*
G37*
G36*
G01*
X488171500Y-106951000D02*
X487696500Y-106951000D01*
G75*
G02*
X487459000Y-106713500I0J237500D01*
G01*
X487459000Y-106138500D01*
G75*
G02*
X487696500Y-105901000I237500J0D01*
G01*
X488171500Y-105901000D01*
G75*
G02*
X488409000Y-106138500I0J-237500D01*
G01*
X488409000Y-106713500D01*
G75*
G02*
X488171500Y-106951000I-237500J0D01*
G01*
G37*
G36*
G01*
X497829000Y-102632500D02*
X497829000Y-103107500D01*
G75*
G02*
X497591500Y-103345000I-237500J0D01*
G01*
X497016500Y-103345000D01*
G75*
G02*
X496779000Y-103107500I0J237500D01*
G01*
X496779000Y-102632500D01*
G75*
G02*
X497016500Y-102395000I237500J0D01*
G01*
X497591500Y-102395000D01*
G75*
G02*
X497829000Y-102632500I0J-237500D01*
G01*
G37*
G36*
G01*
X496079000Y-102632500D02*
X496079000Y-103107500D01*
G75*
G02*
X495841500Y-103345000I-237500J0D01*
G01*
X495266500Y-103345000D01*
G75*
G02*
X495029000Y-103107500I0J237500D01*
G01*
X495029000Y-102632500D01*
G75*
G02*
X495266500Y-102395000I237500J0D01*
G01*
X495841500Y-102395000D01*
G75*
G02*
X496079000Y-102632500I0J-237500D01*
G01*
G37*
G36*
G01*
X467851500Y-106443000D02*
X467376500Y-106443000D01*
G75*
G02*
X467139000Y-106205500I0J237500D01*
G01*
X467139000Y-105630500D01*
G75*
G02*
X467376500Y-105393000I237500J0D01*
G01*
X467851500Y-105393000D01*
G75*
G02*
X468089000Y-105630500I0J-237500D01*
G01*
X468089000Y-106205500D01*
G75*
G02*
X467851500Y-106443000I-237500J0D01*
G01*
G37*
G36*
G01*
X467851500Y-104693000D02*
X467376500Y-104693000D01*
G75*
G02*
X467139000Y-104455500I0J237500D01*
G01*
X467139000Y-103880500D01*
G75*
G02*
X467376500Y-103643000I237500J0D01*
G01*
X467851500Y-103643000D01*
G75*
G02*
X468089000Y-103880500I0J-237500D01*
G01*
X468089000Y-104455500D01*
G75*
G02*
X467851500Y-104693000I-237500J0D01*
G01*
G37*
G36*
G01*
X474517000Y-101362500D02*
X474517000Y-101837500D01*
G75*
G02*
X474279500Y-102075000I-237500J0D01*
G01*
X473704500Y-102075000D01*
G75*
G02*
X473467000Y-101837500I0J237500D01*
G01*
X473467000Y-101362500D01*
G75*
G02*
X473704500Y-101125000I237500J0D01*
G01*
X474279500Y-101125000D01*
G75*
G02*
X474517000Y-101362500I0J-237500D01*
G01*
G37*
G36*
G01*
X476267000Y-101362500D02*
X476267000Y-101837500D01*
G75*
G02*
X476029500Y-102075000I-237500J0D01*
G01*
X475454500Y-102075000D01*
G75*
G02*
X475217000Y-101837500I0J237500D01*
G01*
X475217000Y-101362500D01*
G75*
G02*
X475454500Y-101125000I237500J0D01*
G01*
X476029500Y-101125000D01*
G75*
G02*
X476267000Y-101362500I0J-237500D01*
G01*
G37*
G36*
G01*
X372474500Y-71236000D02*
X371999500Y-71236000D01*
G75*
G02*
X371762000Y-70998500I0J237500D01*
G01*
X371762000Y-70423500D01*
G75*
G02*
X371999500Y-70186000I237500J0D01*
G01*
X372474500Y-70186000D01*
G75*
G02*
X372712000Y-70423500I0J-237500D01*
G01*
X372712000Y-70998500D01*
G75*
G02*
X372474500Y-71236000I-237500J0D01*
G01*
G37*
G36*
G01*
X372474500Y-69486000D02*
X371999500Y-69486000D01*
G75*
G02*
X371762000Y-69248500I0J237500D01*
G01*
X371762000Y-68673500D01*
G75*
G02*
X371999500Y-68436000I237500J0D01*
G01*
X372474500Y-68436000D01*
G75*
G02*
X372712000Y-68673500I0J-237500D01*
G01*
X372712000Y-69248500D01*
G75*
G02*
X372474500Y-69486000I-237500J0D01*
G01*
G37*
G36*
G01*
X416797500Y-114557000D02*
X416322500Y-114557000D01*
G75*
G02*
X416085000Y-114319500I0J237500D01*
G01*
X416085000Y-113744500D01*
G75*
G02*
X416322500Y-113507000I237500J0D01*
G01*
X416797500Y-113507000D01*
G75*
G02*
X417035000Y-113744500I0J-237500D01*
G01*
X417035000Y-114319500D01*
G75*
G02*
X416797500Y-114557000I-237500J0D01*
G01*
G37*
G36*
G01*
X416797500Y-112807000D02*
X416322500Y-112807000D01*
G75*
G02*
X416085000Y-112569500I0J237500D01*
G01*
X416085000Y-111994500D01*
G75*
G02*
X416322500Y-111757000I237500J0D01*
G01*
X416797500Y-111757000D01*
G75*
G02*
X417035000Y-111994500I0J-237500D01*
G01*
X417035000Y-112569500D01*
G75*
G02*
X416797500Y-112807000I-237500J0D01*
G01*
G37*
G36*
G01*
X392667500Y-117506000D02*
X392192500Y-117506000D01*
G75*
G02*
X391955000Y-117268500I0J237500D01*
G01*
X391955000Y-116693500D01*
G75*
G02*
X392192500Y-116456000I237500J0D01*
G01*
X392667500Y-116456000D01*
G75*
G02*
X392905000Y-116693500I0J-237500D01*
G01*
X392905000Y-117268500D01*
G75*
G02*
X392667500Y-117506000I-237500J0D01*
G01*
G37*
G36*
G01*
X392667500Y-119256000D02*
X392192500Y-119256000D01*
G75*
G02*
X391955000Y-119018500I0J237500D01*
G01*
X391955000Y-118443500D01*
G75*
G02*
X392192500Y-118206000I237500J0D01*
G01*
X392667500Y-118206000D01*
G75*
G02*
X392905000Y-118443500I0J-237500D01*
G01*
X392905000Y-119018500D01*
G75*
G02*
X392667500Y-119256000I-237500J0D01*
G01*
G37*
G36*
G01*
X453152500Y-106127000D02*
X453627500Y-106127000D01*
G75*
G02*
X453865000Y-106364500I0J-237500D01*
G01*
X453865000Y-106939500D01*
G75*
G02*
X453627500Y-107177000I-237500J0D01*
G01*
X453152500Y-107177000D01*
G75*
G02*
X452915000Y-106939500I0J237500D01*
G01*
X452915000Y-106364500D01*
G75*
G02*
X453152500Y-106127000I237500J0D01*
G01*
G37*
G36*
G01*
X453152500Y-104377000D02*
X453627500Y-104377000D01*
G75*
G02*
X453865000Y-104614500I0J-237500D01*
G01*
X453865000Y-105189500D01*
G75*
G02*
X453627500Y-105427000I-237500J0D01*
G01*
X453152500Y-105427000D01*
G75*
G02*
X452915000Y-105189500I0J237500D01*
G01*
X452915000Y-104614500D01*
G75*
G02*
X453152500Y-104377000I237500J0D01*
G01*
G37*
G36*
G01*
X409495000Y-40036000D02*
X409020000Y-40036000D01*
G75*
G02*
X408782500Y-39798500I0J237500D01*
G01*
X408782500Y-39223500D01*
G75*
G02*
X409020000Y-38986000I237500J0D01*
G01*
X409495000Y-38986000D01*
G75*
G02*
X409732500Y-39223500I0J-237500D01*
G01*
X409732500Y-39798500D01*
G75*
G02*
X409495000Y-40036000I-237500J0D01*
G01*
G37*
G36*
G01*
X409495000Y-41786000D02*
X409020000Y-41786000D01*
G75*
G02*
X408782500Y-41548500I0J237500D01*
G01*
X408782500Y-40973500D01*
G75*
G02*
X409020000Y-40736000I237500J0D01*
G01*
X409495000Y-40736000D01*
G75*
G02*
X409732500Y-40973500I0J-237500D01*
G01*
X409732500Y-41548500D01*
G75*
G02*
X409495000Y-41786000I-237500J0D01*
G01*
G37*
G36*
G01*
X425306500Y-98823000D02*
X424831500Y-98823000D01*
G75*
G02*
X424594000Y-98585500I0J237500D01*
G01*
X424594000Y-98010500D01*
G75*
G02*
X424831500Y-97773000I237500J0D01*
G01*
X425306500Y-97773000D01*
G75*
G02*
X425544000Y-98010500I0J-237500D01*
G01*
X425544000Y-98585500D01*
G75*
G02*
X425306500Y-98823000I-237500J0D01*
G01*
G37*
G36*
G01*
X425306500Y-100573000D02*
X424831500Y-100573000D01*
G75*
G02*
X424594000Y-100335500I0J237500D01*
G01*
X424594000Y-99760500D01*
G75*
G02*
X424831500Y-99523000I237500J0D01*
G01*
X425306500Y-99523000D01*
G75*
G02*
X425544000Y-99760500I0J-237500D01*
G01*
X425544000Y-100335500D01*
G75*
G02*
X425306500Y-100573000I-237500J0D01*
G01*
G37*
G36*
G01*
X428100500Y-100573000D02*
X427625500Y-100573000D01*
G75*
G02*
X427388000Y-100335500I0J237500D01*
G01*
X427388000Y-99760500D01*
G75*
G02*
X427625500Y-99523000I237500J0D01*
G01*
X428100500Y-99523000D01*
G75*
G02*
X428338000Y-99760500I0J-237500D01*
G01*
X428338000Y-100335500D01*
G75*
G02*
X428100500Y-100573000I-237500J0D01*
G01*
G37*
G36*
G01*
X428100500Y-98823000D02*
X427625500Y-98823000D01*
G75*
G02*
X427388000Y-98585500I0J237500D01*
G01*
X427388000Y-98010500D01*
G75*
G02*
X427625500Y-97773000I237500J0D01*
G01*
X428100500Y-97773000D01*
G75*
G02*
X428338000Y-98010500I0J-237500D01*
G01*
X428338000Y-98585500D01*
G75*
G02*
X428100500Y-98823000I-237500J0D01*
G01*
G37*
G36*
G01*
X431021500Y-100573000D02*
X430546500Y-100573000D01*
G75*
G02*
X430309000Y-100335500I0J237500D01*
G01*
X430309000Y-99760500D01*
G75*
G02*
X430546500Y-99523000I237500J0D01*
G01*
X431021500Y-99523000D01*
G75*
G02*
X431259000Y-99760500I0J-237500D01*
G01*
X431259000Y-100335500D01*
G75*
G02*
X431021500Y-100573000I-237500J0D01*
G01*
G37*
G36*
G01*
X431021500Y-98823000D02*
X430546500Y-98823000D01*
G75*
G02*
X430309000Y-98585500I0J237500D01*
G01*
X430309000Y-98010500D01*
G75*
G02*
X430546500Y-97773000I237500J0D01*
G01*
X431021500Y-97773000D01*
G75*
G02*
X431259000Y-98010500I0J-237500D01*
G01*
X431259000Y-98585500D01*
G75*
G02*
X431021500Y-98823000I-237500J0D01*
G01*
G37*
G36*
G01*
X406447000Y-41786000D02*
X405972000Y-41786000D01*
G75*
G02*
X405734500Y-41548500I0J237500D01*
G01*
X405734500Y-40973500D01*
G75*
G02*
X405972000Y-40736000I237500J0D01*
G01*
X406447000Y-40736000D01*
G75*
G02*
X406684500Y-40973500I0J-237500D01*
G01*
X406684500Y-41548500D01*
G75*
G02*
X406447000Y-41786000I-237500J0D01*
G01*
G37*
G36*
G01*
X406447000Y-40036000D02*
X405972000Y-40036000D01*
G75*
G02*
X405734500Y-39798500I0J237500D01*
G01*
X405734500Y-39223500D01*
G75*
G02*
X405972000Y-38986000I237500J0D01*
G01*
X406447000Y-38986000D01*
G75*
G02*
X406684500Y-39223500I0J-237500D01*
G01*
X406684500Y-39798500D01*
G75*
G02*
X406447000Y-40036000I-237500J0D01*
G01*
G37*
G36*
G01*
X383811000Y-63897500D02*
X383811000Y-64372500D01*
G75*
G02*
X383573500Y-64610000I-237500J0D01*
G01*
X382998500Y-64610000D01*
G75*
G02*
X382761000Y-64372500I0J237500D01*
G01*
X382761000Y-63897500D01*
G75*
G02*
X382998500Y-63660000I237500J0D01*
G01*
X383573500Y-63660000D01*
G75*
G02*
X383811000Y-63897500I0J-237500D01*
G01*
G37*
G36*
G01*
X382061000Y-63897500D02*
X382061000Y-64372500D01*
G75*
G02*
X381823500Y-64610000I-237500J0D01*
G01*
X381248500Y-64610000D01*
G75*
G02*
X381011000Y-64372500I0J237500D01*
G01*
X381011000Y-63897500D01*
G75*
G02*
X381248500Y-63660000I237500J0D01*
G01*
X381823500Y-63660000D01*
G75*
G02*
X382061000Y-63897500I0J-237500D01*
G01*
G37*
G36*
G01*
X422306000Y-82820500D02*
X422306000Y-83295500D01*
G75*
G02*
X422068500Y-83533000I-237500J0D01*
G01*
X421493500Y-83533000D01*
G75*
G02*
X421256000Y-83295500I0J237500D01*
G01*
X421256000Y-82820500D01*
G75*
G02*
X421493500Y-82583000I237500J0D01*
G01*
X422068500Y-82583000D01*
G75*
G02*
X422306000Y-82820500I0J-237500D01*
G01*
G37*
G36*
G01*
X424056000Y-82820500D02*
X424056000Y-83295500D01*
G75*
G02*
X423818500Y-83533000I-237500J0D01*
G01*
X423243500Y-83533000D01*
G75*
G02*
X423006000Y-83295500I0J237500D01*
G01*
X423006000Y-82820500D01*
G75*
G02*
X423243500Y-82583000I237500J0D01*
G01*
X423818500Y-82583000D01*
G75*
G02*
X424056000Y-82820500I0J-237500D01*
G01*
G37*
G36*
G01*
X416162500Y-90088000D02*
X415687500Y-90088000D01*
G75*
G02*
X415450000Y-89850500I0J237500D01*
G01*
X415450000Y-89275500D01*
G75*
G02*
X415687500Y-89038000I237500J0D01*
G01*
X416162500Y-89038000D01*
G75*
G02*
X416400000Y-89275500I0J-237500D01*
G01*
X416400000Y-89850500D01*
G75*
G02*
X416162500Y-90088000I-237500J0D01*
G01*
G37*
G36*
G01*
X416162500Y-91838000D02*
X415687500Y-91838000D01*
G75*
G02*
X415450000Y-91600500I0J237500D01*
G01*
X415450000Y-91025500D01*
G75*
G02*
X415687500Y-90788000I237500J0D01*
G01*
X416162500Y-90788000D01*
G75*
G02*
X416400000Y-91025500I0J-237500D01*
G01*
X416400000Y-91600500D01*
G75*
G02*
X416162500Y-91838000I-237500J0D01*
G01*
G37*
G36*
G01*
X381491500Y-109110000D02*
X381016500Y-109110000D01*
G75*
G02*
X380779000Y-108872500I0J237500D01*
G01*
X380779000Y-108297500D01*
G75*
G02*
X381016500Y-108060000I237500J0D01*
G01*
X381491500Y-108060000D01*
G75*
G02*
X381729000Y-108297500I0J-237500D01*
G01*
X381729000Y-108872500D01*
G75*
G02*
X381491500Y-109110000I-237500J0D01*
G01*
G37*
G36*
G01*
X381491500Y-107360000D02*
X381016500Y-107360000D01*
G75*
G02*
X380779000Y-107122500I0J237500D01*
G01*
X380779000Y-106547500D01*
G75*
G02*
X381016500Y-106310000I237500J0D01*
G01*
X381491500Y-106310000D01*
G75*
G02*
X381729000Y-106547500I0J-237500D01*
G01*
X381729000Y-107122500D01*
G75*
G02*
X381491500Y-107360000I-237500J0D01*
G01*
G37*
G36*
G01*
X403622500Y-54339000D02*
X404097500Y-54339000D01*
G75*
G02*
X404335000Y-54576500I0J-237500D01*
G01*
X404335000Y-55151500D01*
G75*
G02*
X404097500Y-55389000I-237500J0D01*
G01*
X403622500Y-55389000D01*
G75*
G02*
X403385000Y-55151500I0J237500D01*
G01*
X403385000Y-54576500D01*
G75*
G02*
X403622500Y-54339000I237500J0D01*
G01*
G37*
G36*
G01*
X403622500Y-56089000D02*
X404097500Y-56089000D01*
G75*
G02*
X404335000Y-56326500I0J-237500D01*
G01*
X404335000Y-56901500D01*
G75*
G02*
X404097500Y-57139000I-237500J0D01*
G01*
X403622500Y-57139000D01*
G75*
G02*
X403385000Y-56901500I0J237500D01*
G01*
X403385000Y-56326500D01*
G75*
G02*
X403622500Y-56089000I237500J0D01*
G01*
G37*
G36*
G01*
X379697500Y-47451000D02*
X379697500Y-47926000D01*
G75*
G02*
X379460000Y-48163500I-237500J0D01*
G01*
X378885000Y-48163500D01*
G75*
G02*
X378647500Y-47926000I0J237500D01*
G01*
X378647500Y-47451000D01*
G75*
G02*
X378885000Y-47213500I237500J0D01*
G01*
X379460000Y-47213500D01*
G75*
G02*
X379697500Y-47451000I0J-237500D01*
G01*
G37*
G36*
G01*
X381447500Y-47451000D02*
X381447500Y-47926000D01*
G75*
G02*
X381210000Y-48163500I-237500J0D01*
G01*
X380635000Y-48163500D01*
G75*
G02*
X380397500Y-47926000I0J237500D01*
G01*
X380397500Y-47451000D01*
G75*
G02*
X380635000Y-47213500I237500J0D01*
G01*
X381210000Y-47213500D01*
G75*
G02*
X381447500Y-47451000I0J-237500D01*
G01*
G37*
G36*
G01*
X433942500Y-98823000D02*
X433467500Y-98823000D01*
G75*
G02*
X433230000Y-98585500I0J237500D01*
G01*
X433230000Y-98010500D01*
G75*
G02*
X433467500Y-97773000I237500J0D01*
G01*
X433942500Y-97773000D01*
G75*
G02*
X434180000Y-98010500I0J-237500D01*
G01*
X434180000Y-98585500D01*
G75*
G02*
X433942500Y-98823000I-237500J0D01*
G01*
G37*
G36*
G01*
X433942500Y-100573000D02*
X433467500Y-100573000D01*
G75*
G02*
X433230000Y-100335500I0J237500D01*
G01*
X433230000Y-99760500D01*
G75*
G02*
X433467500Y-99523000I237500J0D01*
G01*
X433942500Y-99523000D01*
G75*
G02*
X434180000Y-99760500I0J-237500D01*
G01*
X434180000Y-100335500D01*
G75*
G02*
X433942500Y-100573000I-237500J0D01*
G01*
G37*
G36*
G01*
X403399000Y-40036000D02*
X402924000Y-40036000D01*
G75*
G02*
X402686500Y-39798500I0J237500D01*
G01*
X402686500Y-39223500D01*
G75*
G02*
X402924000Y-38986000I237500J0D01*
G01*
X403399000Y-38986000D01*
G75*
G02*
X403636500Y-39223500I0J-237500D01*
G01*
X403636500Y-39798500D01*
G75*
G02*
X403399000Y-40036000I-237500J0D01*
G01*
G37*
G36*
G01*
X403399000Y-41786000D02*
X402924000Y-41786000D01*
G75*
G02*
X402686500Y-41548500I0J237500D01*
G01*
X402686500Y-40973500D01*
G75*
G02*
X402924000Y-40736000I237500J0D01*
G01*
X403399000Y-40736000D01*
G75*
G02*
X403636500Y-40973500I0J-237500D01*
G01*
X403636500Y-41548500D01*
G75*
G02*
X403399000Y-41786000I-237500J0D01*
G01*
G37*
G36*
G01*
X400351000Y-40036000D02*
X399876000Y-40036000D01*
G75*
G02*
X399638500Y-39798500I0J237500D01*
G01*
X399638500Y-39223500D01*
G75*
G02*
X399876000Y-38986000I237500J0D01*
G01*
X400351000Y-38986000D01*
G75*
G02*
X400588500Y-39223500I0J-237500D01*
G01*
X400588500Y-39798500D01*
G75*
G02*
X400351000Y-40036000I-237500J0D01*
G01*
G37*
G36*
G01*
X400351000Y-41786000D02*
X399876000Y-41786000D01*
G75*
G02*
X399638500Y-41548500I0J237500D01*
G01*
X399638500Y-40973500D01*
G75*
G02*
X399876000Y-40736000I237500J0D01*
G01*
X400351000Y-40736000D01*
G75*
G02*
X400588500Y-40973500I0J-237500D01*
G01*
X400588500Y-41548500D01*
G75*
G02*
X400351000Y-41786000I-237500J0D01*
G01*
G37*
G36*
G01*
X530813000Y-98422000D02*
X531288000Y-98422000D01*
G75*
G02*
X531525500Y-98659500I0J-237500D01*
G01*
X531525500Y-99234500D01*
G75*
G02*
X531288000Y-99472000I-237500J0D01*
G01*
X530813000Y-99472000D01*
G75*
G02*
X530575500Y-99234500I0J237500D01*
G01*
X530575500Y-98659500D01*
G75*
G02*
X530813000Y-98422000I237500J0D01*
G01*
G37*
G36*
G01*
X530813000Y-100172000D02*
X531288000Y-100172000D01*
G75*
G02*
X531525500Y-100409500I0J-237500D01*
G01*
X531525500Y-100984500D01*
G75*
G02*
X531288000Y-101222000I-237500J0D01*
G01*
X530813000Y-101222000D01*
G75*
G02*
X530575500Y-100984500I0J237500D01*
G01*
X530575500Y-100409500D01*
G75*
G02*
X530813000Y-100172000I237500J0D01*
G01*
G37*
G36*
G01*
X508697943Y-100059000D02*
X509172943Y-100059000D01*
G75*
G02*
X509410443Y-100296500I0J-237500D01*
G01*
X509410443Y-100871500D01*
G75*
G02*
X509172943Y-101109000I-237500J0D01*
G01*
X508697943Y-101109000D01*
G75*
G02*
X508460443Y-100871500I0J237500D01*
G01*
X508460443Y-100296500D01*
G75*
G02*
X508697943Y-100059000I237500J0D01*
G01*
G37*
G36*
G01*
X508697943Y-98309000D02*
X509172943Y-98309000D01*
G75*
G02*
X509410443Y-98546500I0J-237500D01*
G01*
X509410443Y-99121500D01*
G75*
G02*
X509172943Y-99359000I-237500J0D01*
G01*
X508697943Y-99359000D01*
G75*
G02*
X508460443Y-99121500I0J237500D01*
G01*
X508460443Y-98546500D01*
G75*
G02*
X508697943Y-98309000I237500J0D01*
G01*
G37*
G36*
G01*
X559037000Y-156701500D02*
X559037000Y-156226500D01*
G75*
G02*
X559274500Y-155989000I237500J0D01*
G01*
X559849500Y-155989000D01*
G75*
G02*
X560087000Y-156226500I0J-237500D01*
G01*
X560087000Y-156701500D01*
G75*
G02*
X559849500Y-156939000I-237500J0D01*
G01*
X559274500Y-156939000D01*
G75*
G02*
X559037000Y-156701500I0J237500D01*
G01*
G37*
G36*
G01*
X557287000Y-156701500D02*
X557287000Y-156226500D01*
G75*
G02*
X557524500Y-155989000I237500J0D01*
G01*
X558099500Y-155989000D01*
G75*
G02*
X558337000Y-156226500I0J-237500D01*
G01*
X558337000Y-156701500D01*
G75*
G02*
X558099500Y-156939000I-237500J0D01*
G01*
X557524500Y-156939000D01*
G75*
G02*
X557287000Y-156701500I0J237500D01*
G01*
G37*
G36*
G01*
X573797000Y-156701500D02*
X573797000Y-156226500D01*
G75*
G02*
X574034500Y-155989000I237500J0D01*
G01*
X574609500Y-155989000D01*
G75*
G02*
X574847000Y-156226500I0J-237500D01*
G01*
X574847000Y-156701500D01*
G75*
G02*
X574609500Y-156939000I-237500J0D01*
G01*
X574034500Y-156939000D01*
G75*
G02*
X573797000Y-156701500I0J237500D01*
G01*
G37*
G36*
G01*
X575547000Y-156701500D02*
X575547000Y-156226500D01*
G75*
G02*
X575784500Y-155989000I237500J0D01*
G01*
X576359500Y-155989000D01*
G75*
G02*
X576597000Y-156226500I0J-237500D01*
G01*
X576597000Y-156701500D01*
G75*
G02*
X576359500Y-156939000I-237500J0D01*
G01*
X575784500Y-156939000D01*
G75*
G02*
X575547000Y-156701500I0J237500D01*
G01*
G37*
G36*
G01*
X394732500Y-137927343D02*
X395207500Y-137927343D01*
G75*
G02*
X395445000Y-138164843I0J-237500D01*
G01*
X395445000Y-138739843D01*
G75*
G02*
X395207500Y-138977343I-237500J0D01*
G01*
X394732500Y-138977343D01*
G75*
G02*
X394495000Y-138739843I0J237500D01*
G01*
X394495000Y-138164843D01*
G75*
G02*
X394732500Y-137927343I237500J0D01*
G01*
G37*
G36*
G01*
X394732500Y-139677343D02*
X395207500Y-139677343D01*
G75*
G02*
X395445000Y-139914843I0J-237500D01*
G01*
X395445000Y-140489843D01*
G75*
G02*
X395207500Y-140727343I-237500J0D01*
G01*
X394732500Y-140727343D01*
G75*
G02*
X394495000Y-140489843I0J237500D01*
G01*
X394495000Y-139914843D01*
G75*
G02*
X394732500Y-139677343I237500J0D01*
G01*
G37*
G36*
G01*
X441468500Y-137933000D02*
X441943500Y-137933000D01*
G75*
G02*
X442181000Y-138170500I0J-237500D01*
G01*
X442181000Y-138745500D01*
G75*
G02*
X441943500Y-138983000I-237500J0D01*
G01*
X441468500Y-138983000D01*
G75*
G02*
X441231000Y-138745500I0J237500D01*
G01*
X441231000Y-138170500D01*
G75*
G02*
X441468500Y-137933000I237500J0D01*
G01*
G37*
G36*
G01*
X441468500Y-139683000D02*
X441943500Y-139683000D01*
G75*
G02*
X442181000Y-139920500I0J-237500D01*
G01*
X442181000Y-140495500D01*
G75*
G02*
X441943500Y-140733000I-237500J0D01*
G01*
X441468500Y-140733000D01*
G75*
G02*
X441231000Y-140495500I0J237500D01*
G01*
X441231000Y-139920500D01*
G75*
G02*
X441468500Y-139683000I237500J0D01*
G01*
G37*
G36*
G01*
X486172500Y-140558000D02*
X486647500Y-140558000D01*
G75*
G02*
X486885000Y-140795500I0J-237500D01*
G01*
X486885000Y-141370500D01*
G75*
G02*
X486647500Y-141608000I-237500J0D01*
G01*
X486172500Y-141608000D01*
G75*
G02*
X485935000Y-141370500I0J237500D01*
G01*
X485935000Y-140795500D01*
G75*
G02*
X486172500Y-140558000I237500J0D01*
G01*
G37*
G36*
G01*
X486172500Y-138808000D02*
X486647500Y-138808000D01*
G75*
G02*
X486885000Y-139045500I0J-237500D01*
G01*
X486885000Y-139620500D01*
G75*
G02*
X486647500Y-139858000I-237500J0D01*
G01*
X486172500Y-139858000D01*
G75*
G02*
X485935000Y-139620500I0J237500D01*
G01*
X485935000Y-139045500D01*
G75*
G02*
X486172500Y-138808000I237500J0D01*
G01*
G37*
G36*
G01*
X532654500Y-140177000D02*
X533129500Y-140177000D01*
G75*
G02*
X533367000Y-140414500I0J-237500D01*
G01*
X533367000Y-140989500D01*
G75*
G02*
X533129500Y-141227000I-237500J0D01*
G01*
X532654500Y-141227000D01*
G75*
G02*
X532417000Y-140989500I0J237500D01*
G01*
X532417000Y-140414500D01*
G75*
G02*
X532654500Y-140177000I237500J0D01*
G01*
G37*
G36*
G01*
X532654500Y-138427000D02*
X533129500Y-138427000D01*
G75*
G02*
X533367000Y-138664500I0J-237500D01*
G01*
X533367000Y-139239500D01*
G75*
G02*
X533129500Y-139477000I-237500J0D01*
G01*
X532654500Y-139477000D01*
G75*
G02*
X532417000Y-139239500I0J237500D01*
G01*
X532417000Y-138664500D01*
G75*
G02*
X532654500Y-138427000I237500J0D01*
G01*
G37*
G36*
G01*
X417592500Y-137679000D02*
X418067500Y-137679000D01*
G75*
G02*
X418305000Y-137916500I0J-237500D01*
G01*
X418305000Y-138491500D01*
G75*
G02*
X418067500Y-138729000I-237500J0D01*
G01*
X417592500Y-138729000D01*
G75*
G02*
X417355000Y-138491500I0J237500D01*
G01*
X417355000Y-137916500D01*
G75*
G02*
X417592500Y-137679000I237500J0D01*
G01*
G37*
G36*
G01*
X417592500Y-139429000D02*
X418067500Y-139429000D01*
G75*
G02*
X418305000Y-139666500I0J-237500D01*
G01*
X418305000Y-140241500D01*
G75*
G02*
X418067500Y-140479000I-237500J0D01*
G01*
X417592500Y-140479000D01*
G75*
G02*
X417355000Y-140241500I0J237500D01*
G01*
X417355000Y-139666500D01*
G75*
G02*
X417592500Y-139429000I237500J0D01*
G01*
G37*
G36*
G01*
X463820500Y-140699000D02*
X464295500Y-140699000D01*
G75*
G02*
X464533000Y-140936500I0J-237500D01*
G01*
X464533000Y-141511500D01*
G75*
G02*
X464295500Y-141749000I-237500J0D01*
G01*
X463820500Y-141749000D01*
G75*
G02*
X463583000Y-141511500I0J237500D01*
G01*
X463583000Y-140936500D01*
G75*
G02*
X463820500Y-140699000I237500J0D01*
G01*
G37*
G36*
G01*
X463820500Y-138949000D02*
X464295500Y-138949000D01*
G75*
G02*
X464533000Y-139186500I0J-237500D01*
G01*
X464533000Y-139761500D01*
G75*
G02*
X464295500Y-139999000I-237500J0D01*
G01*
X463820500Y-139999000D01*
G75*
G02*
X463583000Y-139761500I0J237500D01*
G01*
X463583000Y-139186500D01*
G75*
G02*
X463820500Y-138949000I237500J0D01*
G01*
G37*
G36*
G01*
X382287000Y-35703500D02*
X382287000Y-36178500D01*
G75*
G02*
X382049500Y-36416000I-237500J0D01*
G01*
X381474500Y-36416000D01*
G75*
G02*
X381237000Y-36178500I0J237500D01*
G01*
X381237000Y-35703500D01*
G75*
G02*
X381474500Y-35466000I237500J0D01*
G01*
X382049500Y-35466000D01*
G75*
G02*
X382287000Y-35703500I0J-237500D01*
G01*
G37*
G36*
G01*
X384037000Y-35703500D02*
X384037000Y-36178500D01*
G75*
G02*
X383799500Y-36416000I-237500J0D01*
G01*
X383224500Y-36416000D01*
G75*
G02*
X382987000Y-36178500I0J237500D01*
G01*
X382987000Y-35703500D01*
G75*
G02*
X383224500Y-35466000I237500J0D01*
G01*
X383799500Y-35466000D01*
G75*
G02*
X384037000Y-35703500I0J-237500D01*
G01*
G37*
G36*
G01*
X388736000Y-86122500D02*
X388736000Y-86597500D01*
G75*
G02*
X388498500Y-86835000I-237500J0D01*
G01*
X387923500Y-86835000D01*
G75*
G02*
X387686000Y-86597500I0J237500D01*
G01*
X387686000Y-86122500D01*
G75*
G02*
X387923500Y-85885000I237500J0D01*
G01*
X388498500Y-85885000D01*
G75*
G02*
X388736000Y-86122500I0J-237500D01*
G01*
G37*
G36*
G01*
X386986000Y-86122500D02*
X386986000Y-86597500D01*
G75*
G02*
X386748500Y-86835000I-237500J0D01*
G01*
X386173500Y-86835000D01*
G75*
G02*
X385936000Y-86597500I0J237500D01*
G01*
X385936000Y-86122500D01*
G75*
G02*
X386173500Y-85885000I237500J0D01*
G01*
X386748500Y-85885000D01*
G75*
G02*
X386986000Y-86122500I0J-237500D01*
G01*
G37*
G36*
G01*
X508016500Y-117218000D02*
X508491500Y-117218000D01*
G75*
G02*
X508729000Y-117455500I0J-237500D01*
G01*
X508729000Y-118030500D01*
G75*
G02*
X508491500Y-118268000I-237500J0D01*
G01*
X508016500Y-118268000D01*
G75*
G02*
X507779000Y-118030500I0J237500D01*
G01*
X507779000Y-117455500D01*
G75*
G02*
X508016500Y-117218000I237500J0D01*
G01*
G37*
G36*
G01*
X508016500Y-118968000D02*
X508491500Y-118968000D01*
G75*
G02*
X508729000Y-119205500I0J-237500D01*
G01*
X508729000Y-119780500D01*
G75*
G02*
X508491500Y-120018000I-237500J0D01*
G01*
X508016500Y-120018000D01*
G75*
G02*
X507779000Y-119780500I0J237500D01*
G01*
X507779000Y-119205500D01*
G75*
G02*
X508016500Y-118968000I237500J0D01*
G01*
G37*
G36*
G01*
X485123500Y-123207000D02*
X484648500Y-123207000D01*
G75*
G02*
X484411000Y-122969500I0J237500D01*
G01*
X484411000Y-122394500D01*
G75*
G02*
X484648500Y-122157000I237500J0D01*
G01*
X485123500Y-122157000D01*
G75*
G02*
X485361000Y-122394500I0J-237500D01*
G01*
X485361000Y-122969500D01*
G75*
G02*
X485123500Y-123207000I-237500J0D01*
G01*
G37*
G36*
G01*
X485123500Y-121457000D02*
X484648500Y-121457000D01*
G75*
G02*
X484411000Y-121219500I0J237500D01*
G01*
X484411000Y-120644500D01*
G75*
G02*
X484648500Y-120407000I237500J0D01*
G01*
X485123500Y-120407000D01*
G75*
G02*
X485361000Y-120644500I0J-237500D01*
G01*
X485361000Y-121219500D01*
G75*
G02*
X485123500Y-121457000I-237500J0D01*
G01*
G37*
G36*
G01*
X386731500Y-82166000D02*
X387206500Y-82166000D01*
G75*
G02*
X387444000Y-82403500I0J-237500D01*
G01*
X387444000Y-82978500D01*
G75*
G02*
X387206500Y-83216000I-237500J0D01*
G01*
X386731500Y-83216000D01*
G75*
G02*
X386494000Y-82978500I0J237500D01*
G01*
X386494000Y-82403500D01*
G75*
G02*
X386731500Y-82166000I237500J0D01*
G01*
G37*
G36*
G01*
X386731500Y-83916000D02*
X387206500Y-83916000D01*
G75*
G02*
X387444000Y-84153500I0J-237500D01*
G01*
X387444000Y-84728500D01*
G75*
G02*
X387206500Y-84966000I-237500J0D01*
G01*
X386731500Y-84966000D01*
G75*
G02*
X386494000Y-84728500I0J237500D01*
G01*
X386494000Y-84153500D01*
G75*
G02*
X386731500Y-83916000I237500J0D01*
G01*
G37*
G36*
G01*
X440165500Y-114204000D02*
X439690500Y-114204000D01*
G75*
G02*
X439453000Y-113966500I0J237500D01*
G01*
X439453000Y-113391500D01*
G75*
G02*
X439690500Y-113154000I237500J0D01*
G01*
X440165500Y-113154000D01*
G75*
G02*
X440403000Y-113391500I0J-237500D01*
G01*
X440403000Y-113966500D01*
G75*
G02*
X440165500Y-114204000I-237500J0D01*
G01*
G37*
G36*
G01*
X440165500Y-115954000D02*
X439690500Y-115954000D01*
G75*
G02*
X439453000Y-115716500I0J237500D01*
G01*
X439453000Y-115141500D01*
G75*
G02*
X439690500Y-114904000I237500J0D01*
G01*
X440165500Y-114904000D01*
G75*
G02*
X440403000Y-115141500I0J-237500D01*
G01*
X440403000Y-115716500D01*
G75*
G02*
X440165500Y-115954000I-237500J0D01*
G01*
G37*
G36*
G01*
X404718000Y-112632500D02*
X404718000Y-112157500D01*
G75*
G02*
X404955500Y-111920000I237500J0D01*
G01*
X405530500Y-111920000D01*
G75*
G02*
X405768000Y-112157500I0J-237500D01*
G01*
X405768000Y-112632500D01*
G75*
G02*
X405530500Y-112870000I-237500J0D01*
G01*
X404955500Y-112870000D01*
G75*
G02*
X404718000Y-112632500I0J237500D01*
G01*
G37*
G36*
G01*
X402968000Y-112632500D02*
X402968000Y-112157500D01*
G75*
G02*
X403205500Y-111920000I237500J0D01*
G01*
X403780500Y-111920000D01*
G75*
G02*
X404018000Y-112157500I0J-237500D01*
G01*
X404018000Y-112632500D01*
G75*
G02*
X403780500Y-112870000I-237500J0D01*
G01*
X403205500Y-112870000D01*
G75*
G02*
X402968000Y-112632500I0J237500D01*
G01*
G37*
G36*
G01*
X461792867Y-112328800D02*
X461317867Y-112328800D01*
G75*
G02*
X461080367Y-112091300I0J237500D01*
G01*
X461080367Y-111516300D01*
G75*
G02*
X461317867Y-111278800I237500J0D01*
G01*
X461792867Y-111278800D01*
G75*
G02*
X462030367Y-111516300I0J-237500D01*
G01*
X462030367Y-112091300D01*
G75*
G02*
X461792867Y-112328800I-237500J0D01*
G01*
G37*
G36*
G01*
X461792867Y-114078800D02*
X461317867Y-114078800D01*
G75*
G02*
X461080367Y-113841300I0J237500D01*
G01*
X461080367Y-113266300D01*
G75*
G02*
X461317867Y-113028800I237500J0D01*
G01*
X461792867Y-113028800D01*
G75*
G02*
X462030367Y-113266300I0J-237500D01*
G01*
X462030367Y-113841300D01*
G75*
G02*
X461792867Y-114078800I-237500J0D01*
G01*
G37*
G36*
G01*
X389321500Y-56277500D02*
X389321500Y-56752500D01*
G75*
G02*
X389084000Y-56990000I-237500J0D01*
G01*
X388509000Y-56990000D01*
G75*
G02*
X388271500Y-56752500I0J237500D01*
G01*
X388271500Y-56277500D01*
G75*
G02*
X388509000Y-56040000I237500J0D01*
G01*
X389084000Y-56040000D01*
G75*
G02*
X389321500Y-56277500I0J-237500D01*
G01*
G37*
G36*
G01*
X387571500Y-56277500D02*
X387571500Y-56752500D01*
G75*
G02*
X387334000Y-56990000I-237500J0D01*
G01*
X386759000Y-56990000D01*
G75*
G02*
X386521500Y-56752500I0J237500D01*
G01*
X386521500Y-56277500D01*
G75*
G02*
X386759000Y-56040000I237500J0D01*
G01*
X387334000Y-56040000D01*
G75*
G02*
X387571500Y-56277500I0J-237500D01*
G01*
G37*
G36*
G01*
X418609000Y-80661500D02*
X418609000Y-81136500D01*
G75*
G02*
X418371500Y-81374000I-237500J0D01*
G01*
X417796500Y-81374000D01*
G75*
G02*
X417559000Y-81136500I0J237500D01*
G01*
X417559000Y-80661500D01*
G75*
G02*
X417796500Y-80424000I237500J0D01*
G01*
X418371500Y-80424000D01*
G75*
G02*
X418609000Y-80661500I0J-237500D01*
G01*
G37*
G36*
G01*
X420359000Y-80661500D02*
X420359000Y-81136500D01*
G75*
G02*
X420121500Y-81374000I-237500J0D01*
G01*
X419546500Y-81374000D01*
G75*
G02*
X419309000Y-81136500I0J237500D01*
G01*
X419309000Y-80661500D01*
G75*
G02*
X419546500Y-80424000I237500J0D01*
G01*
X420121500Y-80424000D01*
G75*
G02*
X420359000Y-80661500I0J-237500D01*
G01*
G37*
G36*
G01*
X385461500Y-99932000D02*
X385936500Y-99932000D01*
G75*
G02*
X386174000Y-100169500I0J-237500D01*
G01*
X386174000Y-100744500D01*
G75*
G02*
X385936500Y-100982000I-237500J0D01*
G01*
X385461500Y-100982000D01*
G75*
G02*
X385224000Y-100744500I0J237500D01*
G01*
X385224000Y-100169500D01*
G75*
G02*
X385461500Y-99932000I237500J0D01*
G01*
G37*
G36*
G01*
X385461500Y-98182000D02*
X385936500Y-98182000D01*
G75*
G02*
X386174000Y-98419500I0J-237500D01*
G01*
X386174000Y-98994500D01*
G75*
G02*
X385936500Y-99232000I-237500J0D01*
G01*
X385461500Y-99232000D01*
G75*
G02*
X385224000Y-98994500I0J237500D01*
G01*
X385224000Y-98419500D01*
G75*
G02*
X385461500Y-98182000I237500J0D01*
G01*
G37*
G36*
G01*
X417338500Y-51291000D02*
X417813500Y-51291000D01*
G75*
G02*
X418051000Y-51528500I0J-237500D01*
G01*
X418051000Y-52103500D01*
G75*
G02*
X417813500Y-52341000I-237500J0D01*
G01*
X417338500Y-52341000D01*
G75*
G02*
X417101000Y-52103500I0J237500D01*
G01*
X417101000Y-51528500D01*
G75*
G02*
X417338500Y-51291000I237500J0D01*
G01*
G37*
G36*
G01*
X417338500Y-49541000D02*
X417813500Y-49541000D01*
G75*
G02*
X418051000Y-49778500I0J-237500D01*
G01*
X418051000Y-50353500D01*
G75*
G02*
X417813500Y-50591000I-237500J0D01*
G01*
X417338500Y-50591000D01*
G75*
G02*
X417101000Y-50353500I0J237500D01*
G01*
X417101000Y-49778500D01*
G75*
G02*
X417338500Y-49541000I237500J0D01*
G01*
G37*
G36*
G01*
X392637500Y-38878500D02*
X392637500Y-39353500D01*
G75*
G02*
X392400000Y-39591000I-237500J0D01*
G01*
X391825000Y-39591000D01*
G75*
G02*
X391587500Y-39353500I0J237500D01*
G01*
X391587500Y-38878500D01*
G75*
G02*
X391825000Y-38641000I237500J0D01*
G01*
X392400000Y-38641000D01*
G75*
G02*
X392637500Y-38878500I0J-237500D01*
G01*
G37*
G36*
G01*
X390887500Y-38878500D02*
X390887500Y-39353500D01*
G75*
G02*
X390650000Y-39591000I-237500J0D01*
G01*
X390075000Y-39591000D01*
G75*
G02*
X389837500Y-39353500I0J237500D01*
G01*
X389837500Y-38878500D01*
G75*
G02*
X390075000Y-38641000I237500J0D01*
G01*
X390650000Y-38641000D01*
G75*
G02*
X390887500Y-38878500I0J-237500D01*
G01*
G37*
D12*
X537769000Y-114005000D03*
X537769000Y-113355000D03*
X537769000Y-112705000D03*
X537769000Y-112055000D03*
D13*
X534659000Y-112055000D03*
X534659000Y-112705000D03*
X534659000Y-113355000D03*
X534659000Y-114005000D03*
D14*
X536839000Y-113656000D03*
X535979000Y-113656000D03*
X536839000Y-112404000D03*
X535979000Y-112404000D03*
D12*
X515428000Y-114005000D03*
X515428000Y-113355000D03*
X515428000Y-112705000D03*
X515428000Y-112055000D03*
D13*
X512318000Y-112055000D03*
X512318000Y-112705000D03*
X512318000Y-113355000D03*
X512318000Y-114005000D03*
D14*
X514498000Y-113656000D03*
X513638000Y-113656000D03*
X514498000Y-112404000D03*
X513638000Y-112404000D03*
X399938000Y-152688400D03*
X400798000Y-152688400D03*
X399938000Y-153940400D03*
X400798000Y-153940400D03*
D13*
X398618000Y-154289400D03*
X398618000Y-153639400D03*
X398618000Y-152989400D03*
X398618000Y-152339400D03*
D12*
X401728000Y-152339400D03*
X401728000Y-152989400D03*
X401728000Y-153639400D03*
X401728000Y-154289400D03*
X447610000Y-153842000D03*
X447610000Y-153192000D03*
X447610000Y-152542000D03*
X447610000Y-151892000D03*
D13*
X444500000Y-151892000D03*
X444500000Y-152542000D03*
X444500000Y-153192000D03*
X444500000Y-153842000D03*
D14*
X446680000Y-153493000D03*
X445820000Y-153493000D03*
X446680000Y-152241000D03*
X445820000Y-152241000D03*
X491632000Y-152908000D03*
X492492000Y-152908000D03*
X491632000Y-154160000D03*
X492492000Y-154160000D03*
D13*
X490312000Y-154509000D03*
X490312000Y-153859000D03*
X490312000Y-153209000D03*
X490312000Y-152559000D03*
D12*
X493422000Y-152559000D03*
X493422000Y-153209000D03*
X493422000Y-153859000D03*
X493422000Y-154509000D03*
D14*
X537718000Y-152545000D03*
X538578000Y-152545000D03*
X537718000Y-153797000D03*
X538578000Y-153797000D03*
D13*
X536398000Y-154146000D03*
X536398000Y-153496000D03*
X536398000Y-152846000D03*
X536398000Y-152196000D03*
D12*
X539508000Y-152196000D03*
X539508000Y-152846000D03*
X539508000Y-153496000D03*
X539508000Y-154146000D03*
X424993000Y-153883000D03*
X424993000Y-153233000D03*
X424993000Y-152583000D03*
X424993000Y-151933000D03*
D13*
X421883000Y-151933000D03*
X421883000Y-152583000D03*
X421883000Y-153233000D03*
X421883000Y-153883000D03*
D14*
X424063000Y-153534000D03*
X423203000Y-153534000D03*
X424063000Y-152282000D03*
X423203000Y-152282000D03*
X468680000Y-152749000D03*
X469540000Y-152749000D03*
X468680000Y-154001000D03*
X469540000Y-154001000D03*
D13*
X467360000Y-154350000D03*
X467360000Y-153700000D03*
X467360000Y-153050000D03*
X467360000Y-152400000D03*
D12*
X470470000Y-152400000D03*
X470470000Y-153050000D03*
X470470000Y-153700000D03*
X470470000Y-154350000D03*
X516790000Y-154645000D03*
X516790000Y-153995000D03*
X516790000Y-153345000D03*
X516790000Y-152695000D03*
D13*
X513680000Y-152695000D03*
X513680000Y-153345000D03*
X513680000Y-153995000D03*
X513680000Y-154645000D03*
D14*
X515860000Y-154296000D03*
X515000000Y-154296000D03*
X515860000Y-153044000D03*
X515000000Y-153044000D03*
X396152000Y-27822000D03*
X397012000Y-27822000D03*
X396152000Y-29074000D03*
X397012000Y-29074000D03*
D13*
X394832000Y-29423000D03*
X394832000Y-28773000D03*
X394832000Y-28123000D03*
X394832000Y-27473000D03*
D12*
X397942000Y-27473000D03*
X397942000Y-28123000D03*
X397942000Y-28773000D03*
X397942000Y-29423000D03*
X393381000Y-89916000D03*
X393381000Y-89266000D03*
X393381000Y-88616000D03*
X393381000Y-87966000D03*
D13*
X390271000Y-87966000D03*
X390271000Y-88616000D03*
X390271000Y-89266000D03*
X390271000Y-89916000D03*
D14*
X392451000Y-89567000D03*
X391591000Y-89567000D03*
X392451000Y-88315000D03*
X391591000Y-88315000D03*
D12*
X501091000Y-106975000D03*
X501091000Y-107625000D03*
X501091000Y-108275000D03*
X501091000Y-108925000D03*
D13*
X504201000Y-108925000D03*
X504201000Y-108275000D03*
X504201000Y-107625000D03*
X504201000Y-106975000D03*
D14*
X502021000Y-107324000D03*
X502881000Y-107324000D03*
X502021000Y-108576000D03*
X502881000Y-108576000D03*
X481696000Y-108068000D03*
X480836000Y-108068000D03*
X481696000Y-106816000D03*
X480836000Y-106816000D03*
D13*
X483016000Y-106467000D03*
X483016000Y-107117000D03*
X483016000Y-107767000D03*
X483016000Y-108417000D03*
D12*
X479906000Y-108417000D03*
X479906000Y-107767000D03*
X479906000Y-107117000D03*
X479906000Y-106467000D03*
D15*
X385079000Y-74879000D03*
X384429000Y-74879000D03*
X383779000Y-74879000D03*
X383129000Y-74879000D03*
D16*
X383129000Y-77989000D03*
X383779000Y-77989000D03*
X384429000Y-77989000D03*
X385079000Y-77989000D03*
D17*
X384730000Y-75809000D03*
X384730000Y-76669000D03*
X383478000Y-75809000D03*
X383478000Y-76669000D03*
D14*
X428356000Y-109338000D03*
X427496000Y-109338000D03*
X428356000Y-108086000D03*
X427496000Y-108086000D03*
D13*
X429676000Y-107737000D03*
X429676000Y-108387000D03*
X429676000Y-109037000D03*
X429676000Y-109687000D03*
D12*
X426566000Y-109687000D03*
X426566000Y-109037000D03*
X426566000Y-108387000D03*
X426566000Y-107737000D03*
D14*
X401535000Y-107678000D03*
X400675000Y-107678000D03*
X401535000Y-106426000D03*
X400675000Y-106426000D03*
D13*
X402855000Y-106077000D03*
X402855000Y-106727000D03*
X402855000Y-107377000D03*
X402855000Y-108027000D03*
D12*
X399745000Y-108027000D03*
X399745000Y-107377000D03*
X399745000Y-106727000D03*
X399745000Y-106077000D03*
X443941000Y-107991000D03*
X443941000Y-108641000D03*
X443941000Y-109291000D03*
X443941000Y-109941000D03*
D13*
X447051000Y-109941000D03*
X447051000Y-109291000D03*
X447051000Y-108641000D03*
X447051000Y-107991000D03*
D14*
X444871000Y-108340000D03*
X445731000Y-108340000D03*
X444871000Y-109592000D03*
X445731000Y-109592000D03*
X392191000Y-58937000D03*
X393051000Y-58937000D03*
X392191000Y-60189000D03*
X393051000Y-60189000D03*
D13*
X390871000Y-60538000D03*
X390871000Y-59888000D03*
X390871000Y-59238000D03*
X390871000Y-58588000D03*
D12*
X393981000Y-58588000D03*
X393981000Y-59238000D03*
X393981000Y-59888000D03*
X393981000Y-60538000D03*
X424969000Y-87970000D03*
X424969000Y-87320000D03*
X424969000Y-86670000D03*
X424969000Y-86020000D03*
D13*
X421859000Y-86020000D03*
X421859000Y-86670000D03*
X421859000Y-87320000D03*
X421859000Y-87970000D03*
D14*
X424039000Y-87621000D03*
X423179000Y-87621000D03*
X424039000Y-86369000D03*
X423179000Y-86369000D03*
D12*
X390144000Y-104775000D03*
X390144000Y-104125000D03*
X390144000Y-103475000D03*
X390144000Y-102825000D03*
D13*
X387034000Y-102825000D03*
X387034000Y-103475000D03*
X387034000Y-104125000D03*
X387034000Y-104775000D03*
D14*
X389214000Y-104426000D03*
X388354000Y-104426000D03*
X389214000Y-103174000D03*
X388354000Y-103174000D03*
D17*
X411044500Y-47702000D03*
X411044500Y-46842000D03*
X412296500Y-47702000D03*
X412296500Y-46842000D03*
D16*
X412645500Y-49022000D03*
X411995500Y-49022000D03*
X411345500Y-49022000D03*
X410695500Y-49022000D03*
D15*
X410695500Y-45912000D03*
X411345500Y-45912000D03*
X411995500Y-45912000D03*
X412645500Y-45912000D03*
D12*
X389825000Y-44289500D03*
X389825000Y-43639500D03*
X389825000Y-42989500D03*
X389825000Y-42339500D03*
D13*
X386715000Y-42339500D03*
X386715000Y-42989500D03*
X386715000Y-43639500D03*
X386715000Y-44289500D03*
D14*
X388895000Y-43940500D03*
X388035000Y-43940500D03*
X388895000Y-42688500D03*
X388035000Y-42688500D03*
G36*
G01*
X550020500Y-112983500D02*
X549545500Y-112983500D01*
G75*
G02*
X549308000Y-112746000I0J237500D01*
G01*
X549308000Y-112171000D01*
G75*
G02*
X549545500Y-111933500I237500J0D01*
G01*
X550020500Y-111933500D01*
G75*
G02*
X550258000Y-112171000I0J-237500D01*
G01*
X550258000Y-112746000D01*
G75*
G02*
X550020500Y-112983500I-237500J0D01*
G01*
G37*
G36*
G01*
X550020500Y-111233500D02*
X549545500Y-111233500D01*
G75*
G02*
X549308000Y-110996000I0J237500D01*
G01*
X549308000Y-110421000D01*
G75*
G02*
X549545500Y-110183500I237500J0D01*
G01*
X550020500Y-110183500D01*
G75*
G02*
X550258000Y-110421000I0J-237500D01*
G01*
X550258000Y-110996000D01*
G75*
G02*
X550020500Y-111233500I-237500J0D01*
G01*
G37*
G36*
G01*
X530813000Y-103996000D02*
X531288000Y-103996000D01*
G75*
G02*
X531525500Y-104233500I0J-237500D01*
G01*
X531525500Y-104808500D01*
G75*
G02*
X531288000Y-105046000I-237500J0D01*
G01*
X530813000Y-105046000D01*
G75*
G02*
X530575500Y-104808500I0J237500D01*
G01*
X530575500Y-104233500D01*
G75*
G02*
X530813000Y-103996000I237500J0D01*
G01*
G37*
G36*
G01*
X530813000Y-102246000D02*
X531288000Y-102246000D01*
G75*
G02*
X531525500Y-102483500I0J-237500D01*
G01*
X531525500Y-103058500D01*
G75*
G02*
X531288000Y-103296000I-237500J0D01*
G01*
X530813000Y-103296000D01*
G75*
G02*
X530575500Y-103058500I0J237500D01*
G01*
X530575500Y-102483500D01*
G75*
G02*
X530813000Y-102246000I237500J0D01*
G01*
G37*
G36*
G01*
X527795500Y-112666000D02*
X527320500Y-112666000D01*
G75*
G02*
X527083000Y-112428500I0J237500D01*
G01*
X527083000Y-111853500D01*
G75*
G02*
X527320500Y-111616000I237500J0D01*
G01*
X527795500Y-111616000D01*
G75*
G02*
X528033000Y-111853500I0J-237500D01*
G01*
X528033000Y-112428500D01*
G75*
G02*
X527795500Y-112666000I-237500J0D01*
G01*
G37*
G36*
G01*
X527795500Y-110916000D02*
X527320500Y-110916000D01*
G75*
G02*
X527083000Y-110678500I0J237500D01*
G01*
X527083000Y-110103500D01*
G75*
G02*
X527320500Y-109866000I237500J0D01*
G01*
X527795500Y-109866000D01*
G75*
G02*
X528033000Y-110103500I0J-237500D01*
G01*
X528033000Y-110678500D01*
G75*
G02*
X527795500Y-110916000I-237500J0D01*
G01*
G37*
G36*
G01*
X508697943Y-102295748D02*
X509172943Y-102295748D01*
G75*
G02*
X509410443Y-102533248I0J-237500D01*
G01*
X509410443Y-103108248D01*
G75*
G02*
X509172943Y-103345748I-237500J0D01*
G01*
X508697943Y-103345748D01*
G75*
G02*
X508460443Y-103108248I0J237500D01*
G01*
X508460443Y-102533248D01*
G75*
G02*
X508697943Y-102295748I237500J0D01*
G01*
G37*
G36*
G01*
X508697943Y-104045748D02*
X509172943Y-104045748D01*
G75*
G02*
X509410443Y-104283248I0J-237500D01*
G01*
X509410443Y-104858248D01*
G75*
G02*
X509172943Y-105095748I-237500J0D01*
G01*
X508697943Y-105095748D01*
G75*
G02*
X508460443Y-104858248I0J237500D01*
G01*
X508460443Y-104283248D01*
G75*
G02*
X508697943Y-104045748I237500J0D01*
G01*
G37*
G36*
G01*
X561351000Y-156701500D02*
X561351000Y-156226500D01*
G75*
G02*
X561588500Y-155989000I237500J0D01*
G01*
X562163500Y-155989000D01*
G75*
G02*
X562401000Y-156226500I0J-237500D01*
G01*
X562401000Y-156701500D01*
G75*
G02*
X562163500Y-156939000I-237500J0D01*
G01*
X561588500Y-156939000D01*
G75*
G02*
X561351000Y-156701500I0J237500D01*
G01*
G37*
G36*
G01*
X563101000Y-156701500D02*
X563101000Y-156226500D01*
G75*
G02*
X563338500Y-155989000I237500J0D01*
G01*
X563913500Y-155989000D01*
G75*
G02*
X564151000Y-156226500I0J-237500D01*
G01*
X564151000Y-156701500D01*
G75*
G02*
X563913500Y-156939000I-237500J0D01*
G01*
X563338500Y-156939000D01*
G75*
G02*
X563101000Y-156701500I0J237500D01*
G01*
G37*
G36*
G01*
X579357000Y-156701500D02*
X579357000Y-156226500D01*
G75*
G02*
X579594500Y-155989000I237500J0D01*
G01*
X580169500Y-155989000D01*
G75*
G02*
X580407000Y-156226500I0J-237500D01*
G01*
X580407000Y-156701500D01*
G75*
G02*
X580169500Y-156939000I-237500J0D01*
G01*
X579594500Y-156939000D01*
G75*
G02*
X579357000Y-156701500I0J237500D01*
G01*
G37*
G36*
G01*
X577607000Y-156701500D02*
X577607000Y-156226500D01*
G75*
G02*
X577844500Y-155989000I237500J0D01*
G01*
X578419500Y-155989000D01*
G75*
G02*
X578657000Y-156226500I0J-237500D01*
G01*
X578657000Y-156701500D01*
G75*
G02*
X578419500Y-156939000I-237500J0D01*
G01*
X577844500Y-156939000D01*
G75*
G02*
X577607000Y-156701500I0J237500D01*
G01*
G37*
G36*
G01*
X414765500Y-151327400D02*
X414290500Y-151327400D01*
G75*
G02*
X414053000Y-151089900I0J237500D01*
G01*
X414053000Y-150514900D01*
G75*
G02*
X414290500Y-150277400I237500J0D01*
G01*
X414765500Y-150277400D01*
G75*
G02*
X415003000Y-150514900I0J-237500D01*
G01*
X415003000Y-151089900D01*
G75*
G02*
X414765500Y-151327400I-237500J0D01*
G01*
G37*
G36*
G01*
X414765500Y-153077400D02*
X414290500Y-153077400D01*
G75*
G02*
X414053000Y-152839900I0J237500D01*
G01*
X414053000Y-152264900D01*
G75*
G02*
X414290500Y-152027400I237500J0D01*
G01*
X414765500Y-152027400D01*
G75*
G02*
X415003000Y-152264900I0J-237500D01*
G01*
X415003000Y-152839900D01*
G75*
G02*
X414765500Y-153077400I-237500J0D01*
G01*
G37*
G36*
G01*
X460739500Y-150794000D02*
X460264500Y-150794000D01*
G75*
G02*
X460027000Y-150556500I0J237500D01*
G01*
X460027000Y-149981500D01*
G75*
G02*
X460264500Y-149744000I237500J0D01*
G01*
X460739500Y-149744000D01*
G75*
G02*
X460977000Y-149981500I0J-237500D01*
G01*
X460977000Y-150556500D01*
G75*
G02*
X460739500Y-150794000I-237500J0D01*
G01*
G37*
G36*
G01*
X460739500Y-152544000D02*
X460264500Y-152544000D01*
G75*
G02*
X460027000Y-152306500I0J237500D01*
G01*
X460027000Y-151731500D01*
G75*
G02*
X460264500Y-151494000I237500J0D01*
G01*
X460739500Y-151494000D01*
G75*
G02*
X460977000Y-151731500I0J-237500D01*
G01*
X460977000Y-152306500D01*
G75*
G02*
X460739500Y-152544000I-237500J0D01*
G01*
G37*
G36*
G01*
X506713500Y-151429000D02*
X506238500Y-151429000D01*
G75*
G02*
X506001000Y-151191500I0J237500D01*
G01*
X506001000Y-150616500D01*
G75*
G02*
X506238500Y-150379000I237500J0D01*
G01*
X506713500Y-150379000D01*
G75*
G02*
X506951000Y-150616500I0J-237500D01*
G01*
X506951000Y-151191500D01*
G75*
G02*
X506713500Y-151429000I-237500J0D01*
G01*
G37*
G36*
G01*
X506713500Y-153179000D02*
X506238500Y-153179000D01*
G75*
G02*
X506001000Y-152941500I0J237500D01*
G01*
X506001000Y-152366500D01*
G75*
G02*
X506238500Y-152129000I237500J0D01*
G01*
X506713500Y-152129000D01*
G75*
G02*
X506951000Y-152366500I0J-237500D01*
G01*
X506951000Y-152941500D01*
G75*
G02*
X506713500Y-153179000I-237500J0D01*
G01*
G37*
G36*
G01*
X552687500Y-151048000D02*
X552212500Y-151048000D01*
G75*
G02*
X551975000Y-150810500I0J237500D01*
G01*
X551975000Y-150235500D01*
G75*
G02*
X552212500Y-149998000I237500J0D01*
G01*
X552687500Y-149998000D01*
G75*
G02*
X552925000Y-150235500I0J-237500D01*
G01*
X552925000Y-150810500D01*
G75*
G02*
X552687500Y-151048000I-237500J0D01*
G01*
G37*
G36*
G01*
X552687500Y-152798000D02*
X552212500Y-152798000D01*
G75*
G02*
X551975000Y-152560500I0J237500D01*
G01*
X551975000Y-151985500D01*
G75*
G02*
X552212500Y-151748000I237500J0D01*
G01*
X552687500Y-151748000D01*
G75*
G02*
X552925000Y-151985500I0J-237500D01*
G01*
X552925000Y-152560500D01*
G75*
G02*
X552687500Y-152798000I-237500J0D01*
G01*
G37*
G36*
G01*
X394732500Y-142262400D02*
X395207500Y-142262400D01*
G75*
G02*
X395445000Y-142499900I0J-237500D01*
G01*
X395445000Y-143074900D01*
G75*
G02*
X395207500Y-143312400I-237500J0D01*
G01*
X394732500Y-143312400D01*
G75*
G02*
X394495000Y-143074900I0J237500D01*
G01*
X394495000Y-142499900D01*
G75*
G02*
X394732500Y-142262400I237500J0D01*
G01*
G37*
G36*
G01*
X394732500Y-144012400D02*
X395207500Y-144012400D01*
G75*
G02*
X395445000Y-144249900I0J-237500D01*
G01*
X395445000Y-144824900D01*
G75*
G02*
X395207500Y-145062400I-237500J0D01*
G01*
X394732500Y-145062400D01*
G75*
G02*
X394495000Y-144824900I0J237500D01*
G01*
X394495000Y-144249900D01*
G75*
G02*
X394732500Y-144012400I237500J0D01*
G01*
G37*
G36*
G01*
X441468500Y-141997000D02*
X441943500Y-141997000D01*
G75*
G02*
X442181000Y-142234500I0J-237500D01*
G01*
X442181000Y-142809500D01*
G75*
G02*
X441943500Y-143047000I-237500J0D01*
G01*
X441468500Y-143047000D01*
G75*
G02*
X441231000Y-142809500I0J237500D01*
G01*
X441231000Y-142234500D01*
G75*
G02*
X441468500Y-141997000I237500J0D01*
G01*
G37*
G36*
G01*
X441468500Y-143747000D02*
X441943500Y-143747000D01*
G75*
G02*
X442181000Y-143984500I0J-237500D01*
G01*
X442181000Y-144559500D01*
G75*
G02*
X441943500Y-144797000I-237500J0D01*
G01*
X441468500Y-144797000D01*
G75*
G02*
X441231000Y-144559500I0J237500D01*
G01*
X441231000Y-143984500D01*
G75*
G02*
X441468500Y-143747000I237500J0D01*
G01*
G37*
G36*
G01*
X486172500Y-144481000D02*
X486647500Y-144481000D01*
G75*
G02*
X486885000Y-144718500I0J-237500D01*
G01*
X486885000Y-145293500D01*
G75*
G02*
X486647500Y-145531000I-237500J0D01*
G01*
X486172500Y-145531000D01*
G75*
G02*
X485935000Y-145293500I0J237500D01*
G01*
X485935000Y-144718500D01*
G75*
G02*
X486172500Y-144481000I237500J0D01*
G01*
G37*
G36*
G01*
X486172500Y-142731000D02*
X486647500Y-142731000D01*
G75*
G02*
X486885000Y-142968500I0J-237500D01*
G01*
X486885000Y-143543500D01*
G75*
G02*
X486647500Y-143781000I-237500J0D01*
G01*
X486172500Y-143781000D01*
G75*
G02*
X485935000Y-143543500I0J237500D01*
G01*
X485935000Y-142968500D01*
G75*
G02*
X486172500Y-142731000I237500J0D01*
G01*
G37*
G36*
G01*
X532654500Y-142745000D02*
X533129500Y-142745000D01*
G75*
G02*
X533367000Y-142982500I0J-237500D01*
G01*
X533367000Y-143557500D01*
G75*
G02*
X533129500Y-143795000I-237500J0D01*
G01*
X532654500Y-143795000D01*
G75*
G02*
X532417000Y-143557500I0J237500D01*
G01*
X532417000Y-142982500D01*
G75*
G02*
X532654500Y-142745000I237500J0D01*
G01*
G37*
G36*
G01*
X532654500Y-144495000D02*
X533129500Y-144495000D01*
G75*
G02*
X533367000Y-144732500I0J-237500D01*
G01*
X533367000Y-145307500D01*
G75*
G02*
X533129500Y-145545000I-237500J0D01*
G01*
X532654500Y-145545000D01*
G75*
G02*
X532417000Y-145307500I0J237500D01*
G01*
X532417000Y-144732500D01*
G75*
G02*
X532654500Y-144495000I237500J0D01*
G01*
G37*
G36*
G01*
X438387500Y-152544000D02*
X437912500Y-152544000D01*
G75*
G02*
X437675000Y-152306500I0J237500D01*
G01*
X437675000Y-151731500D01*
G75*
G02*
X437912500Y-151494000I237500J0D01*
G01*
X438387500Y-151494000D01*
G75*
G02*
X438625000Y-151731500I0J-237500D01*
G01*
X438625000Y-152306500D01*
G75*
G02*
X438387500Y-152544000I-237500J0D01*
G01*
G37*
G36*
G01*
X438387500Y-150794000D02*
X437912500Y-150794000D01*
G75*
G02*
X437675000Y-150556500I0J237500D01*
G01*
X437675000Y-149981500D01*
G75*
G02*
X437912500Y-149744000I237500J0D01*
G01*
X438387500Y-149744000D01*
G75*
G02*
X438625000Y-149981500I0J-237500D01*
G01*
X438625000Y-150556500D01*
G75*
G02*
X438387500Y-150794000I-237500J0D01*
G01*
G37*
G36*
G01*
X483282000Y-153098443D02*
X482807000Y-153098443D01*
G75*
G02*
X482569500Y-152860943I0J237500D01*
G01*
X482569500Y-152285943D01*
G75*
G02*
X482807000Y-152048443I237500J0D01*
G01*
X483282000Y-152048443D01*
G75*
G02*
X483519500Y-152285943I0J-237500D01*
G01*
X483519500Y-152860943D01*
G75*
G02*
X483282000Y-153098443I-237500J0D01*
G01*
G37*
G36*
G01*
X483282000Y-151348443D02*
X482807000Y-151348443D01*
G75*
G02*
X482569500Y-151110943I0J237500D01*
G01*
X482569500Y-150535943D01*
G75*
G02*
X482807000Y-150298443I237500J0D01*
G01*
X483282000Y-150298443D01*
G75*
G02*
X483519500Y-150535943I0J-237500D01*
G01*
X483519500Y-151110943D01*
G75*
G02*
X483282000Y-151348443I-237500J0D01*
G01*
G37*
G36*
G01*
X529827500Y-151602443D02*
X529352500Y-151602443D01*
G75*
G02*
X529115000Y-151364943I0J237500D01*
G01*
X529115000Y-150789943D01*
G75*
G02*
X529352500Y-150552443I237500J0D01*
G01*
X529827500Y-150552443D01*
G75*
G02*
X530065000Y-150789943I0J-237500D01*
G01*
X530065000Y-151364943D01*
G75*
G02*
X529827500Y-151602443I-237500J0D01*
G01*
G37*
G36*
G01*
X529827500Y-153352443D02*
X529352500Y-153352443D01*
G75*
G02*
X529115000Y-153114943I0J237500D01*
G01*
X529115000Y-152539943D01*
G75*
G02*
X529352500Y-152302443I237500J0D01*
G01*
X529827500Y-152302443D01*
G75*
G02*
X530065000Y-152539943I0J-237500D01*
G01*
X530065000Y-153114943D01*
G75*
G02*
X529827500Y-153352443I-237500J0D01*
G01*
G37*
G36*
G01*
X417592500Y-141743000D02*
X418067500Y-141743000D01*
G75*
G02*
X418305000Y-141980500I0J-237500D01*
G01*
X418305000Y-142555500D01*
G75*
G02*
X418067500Y-142793000I-237500J0D01*
G01*
X417592500Y-142793000D01*
G75*
G02*
X417355000Y-142555500I0J237500D01*
G01*
X417355000Y-141980500D01*
G75*
G02*
X417592500Y-141743000I237500J0D01*
G01*
G37*
G36*
G01*
X417592500Y-143493000D02*
X418067500Y-143493000D01*
G75*
G02*
X418305000Y-143730500I0J-237500D01*
G01*
X418305000Y-144305500D01*
G75*
G02*
X418067500Y-144543000I-237500J0D01*
G01*
X417592500Y-144543000D01*
G75*
G02*
X417355000Y-144305500I0J237500D01*
G01*
X417355000Y-143730500D01*
G75*
G02*
X417592500Y-143493000I237500J0D01*
G01*
G37*
G36*
G01*
X463820500Y-142872000D02*
X464295500Y-142872000D01*
G75*
G02*
X464533000Y-143109500I0J-237500D01*
G01*
X464533000Y-143684500D01*
G75*
G02*
X464295500Y-143922000I-237500J0D01*
G01*
X463820500Y-143922000D01*
G75*
G02*
X463583000Y-143684500I0J237500D01*
G01*
X463583000Y-143109500D01*
G75*
G02*
X463820500Y-142872000I237500J0D01*
G01*
G37*
G36*
G01*
X463820500Y-144622000D02*
X464295500Y-144622000D01*
G75*
G02*
X464533000Y-144859500I0J-237500D01*
G01*
X464533000Y-145434500D01*
G75*
G02*
X464295500Y-145672000I-237500J0D01*
G01*
X463820500Y-145672000D01*
G75*
G02*
X463583000Y-145434500I0J237500D01*
G01*
X463583000Y-144859500D01*
G75*
G02*
X463820500Y-144622000I237500J0D01*
G01*
G37*
G36*
G01*
X510048500Y-144622000D02*
X510523500Y-144622000D01*
G75*
G02*
X510761000Y-144859500I0J-237500D01*
G01*
X510761000Y-145434500D01*
G75*
G02*
X510523500Y-145672000I-237500J0D01*
G01*
X510048500Y-145672000D01*
G75*
G02*
X509811000Y-145434500I0J237500D01*
G01*
X509811000Y-144859500D01*
G75*
G02*
X510048500Y-144622000I237500J0D01*
G01*
G37*
G36*
G01*
X510048500Y-142872000D02*
X510523500Y-142872000D01*
G75*
G02*
X510761000Y-143109500I0J-237500D01*
G01*
X510761000Y-143684500D01*
G75*
G02*
X510523500Y-143922000I-237500J0D01*
G01*
X510048500Y-143922000D01*
G75*
G02*
X509811000Y-143684500I0J237500D01*
G01*
X509811000Y-143109500D01*
G75*
G02*
X510048500Y-142872000I237500J0D01*
G01*
G37*
G36*
G01*
X389399000Y-34243000D02*
X389399000Y-34718000D01*
G75*
G02*
X389161500Y-34955500I-237500J0D01*
G01*
X388586500Y-34955500D01*
G75*
G02*
X388349000Y-34718000I0J237500D01*
G01*
X388349000Y-34243000D01*
G75*
G02*
X388586500Y-34005500I237500J0D01*
G01*
X389161500Y-34005500D01*
G75*
G02*
X389399000Y-34243000I0J-237500D01*
G01*
G37*
G36*
G01*
X387649000Y-34243000D02*
X387649000Y-34718000D01*
G75*
G02*
X387411500Y-34955500I-237500J0D01*
G01*
X386836500Y-34955500D01*
G75*
G02*
X386599000Y-34718000I0J237500D01*
G01*
X386599000Y-34243000D01*
G75*
G02*
X386836500Y-34005500I237500J0D01*
G01*
X387411500Y-34005500D01*
G75*
G02*
X387649000Y-34243000I0J-237500D01*
G01*
G37*
G36*
G01*
X384191500Y-95854000D02*
X384666500Y-95854000D01*
G75*
G02*
X384904000Y-96091500I0J-237500D01*
G01*
X384904000Y-96666500D01*
G75*
G02*
X384666500Y-96904000I-237500J0D01*
G01*
X384191500Y-96904000D01*
G75*
G02*
X383954000Y-96666500I0J237500D01*
G01*
X383954000Y-96091500D01*
G75*
G02*
X384191500Y-95854000I237500J0D01*
G01*
G37*
G36*
G01*
X384191500Y-94104000D02*
X384666500Y-94104000D01*
G75*
G02*
X384904000Y-94341500I0J-237500D01*
G01*
X384904000Y-94916500D01*
G75*
G02*
X384666500Y-95154000I-237500J0D01*
G01*
X384191500Y-95154000D01*
G75*
G02*
X383954000Y-94916500I0J237500D01*
G01*
X383954000Y-94341500D01*
G75*
G02*
X384191500Y-94104000I237500J0D01*
G01*
G37*
G36*
G01*
X381999500Y-34406000D02*
X381524500Y-34406000D01*
G75*
G02*
X381287000Y-34168500I0J237500D01*
G01*
X381287000Y-33593500D01*
G75*
G02*
X381524500Y-33356000I237500J0D01*
G01*
X381999500Y-33356000D01*
G75*
G02*
X382237000Y-33593500I0J-237500D01*
G01*
X382237000Y-34168500D01*
G75*
G02*
X381999500Y-34406000I-237500J0D01*
G01*
G37*
G36*
G01*
X381999500Y-32656000D02*
X381524500Y-32656000D01*
G75*
G02*
X381287000Y-32418500I0J237500D01*
G01*
X381287000Y-31843500D01*
G75*
G02*
X381524500Y-31606000I237500J0D01*
G01*
X381999500Y-31606000D01*
G75*
G02*
X382237000Y-31843500I0J-237500D01*
G01*
X382237000Y-32418500D01*
G75*
G02*
X381999500Y-32656000I-237500J0D01*
G01*
G37*
G36*
G01*
X383302500Y-85835000D02*
X383777500Y-85835000D01*
G75*
G02*
X384015000Y-86072500I0J-237500D01*
G01*
X384015000Y-86647500D01*
G75*
G02*
X383777500Y-86885000I-237500J0D01*
G01*
X383302500Y-86885000D01*
G75*
G02*
X383065000Y-86647500I0J237500D01*
G01*
X383065000Y-86072500D01*
G75*
G02*
X383302500Y-85835000I237500J0D01*
G01*
G37*
G36*
G01*
X383302500Y-87585000D02*
X383777500Y-87585000D01*
G75*
G02*
X384015000Y-87822500I0J-237500D01*
G01*
X384015000Y-88397500D01*
G75*
G02*
X383777500Y-88635000I-237500J0D01*
G01*
X383302500Y-88635000D01*
G75*
G02*
X383065000Y-88397500I0J237500D01*
G01*
X383065000Y-87822500D01*
G75*
G02*
X383302500Y-87585000I237500J0D01*
G01*
G37*
G36*
G01*
X487696500Y-110064000D02*
X488171500Y-110064000D01*
G75*
G02*
X488409000Y-110301500I0J-237500D01*
G01*
X488409000Y-110876500D01*
G75*
G02*
X488171500Y-111114000I-237500J0D01*
G01*
X487696500Y-111114000D01*
G75*
G02*
X487459000Y-110876500I0J237500D01*
G01*
X487459000Y-110301500D01*
G75*
G02*
X487696500Y-110064000I237500J0D01*
G01*
G37*
G36*
G01*
X487696500Y-108314000D02*
X488171500Y-108314000D01*
G75*
G02*
X488409000Y-108551500I0J-237500D01*
G01*
X488409000Y-109126500D01*
G75*
G02*
X488171500Y-109364000I-237500J0D01*
G01*
X487696500Y-109364000D01*
G75*
G02*
X487459000Y-109126500I0J237500D01*
G01*
X487459000Y-108551500D01*
G75*
G02*
X487696500Y-108314000I237500J0D01*
G01*
G37*
G36*
G01*
X506205500Y-120018000D02*
X505730500Y-120018000D01*
G75*
G02*
X505493000Y-119780500I0J237500D01*
G01*
X505493000Y-119205500D01*
G75*
G02*
X505730500Y-118968000I237500J0D01*
G01*
X506205500Y-118968000D01*
G75*
G02*
X506443000Y-119205500I0J-237500D01*
G01*
X506443000Y-119780500D01*
G75*
G02*
X506205500Y-120018000I-237500J0D01*
G01*
G37*
G36*
G01*
X506205500Y-118268000D02*
X505730500Y-118268000D01*
G75*
G02*
X505493000Y-118030500I0J237500D01*
G01*
X505493000Y-117455500D01*
G75*
G02*
X505730500Y-117218000I237500J0D01*
G01*
X506205500Y-117218000D01*
G75*
G02*
X506443000Y-117455500I0J-237500D01*
G01*
X506443000Y-118030500D01*
G75*
G02*
X506205500Y-118268000I-237500J0D01*
G01*
G37*
G36*
G01*
X467376500Y-109429000D02*
X467851500Y-109429000D01*
G75*
G02*
X468089000Y-109666500I0J-237500D01*
G01*
X468089000Y-110241500D01*
G75*
G02*
X467851500Y-110479000I-237500J0D01*
G01*
X467376500Y-110479000D01*
G75*
G02*
X467139000Y-110241500I0J237500D01*
G01*
X467139000Y-109666500D01*
G75*
G02*
X467376500Y-109429000I237500J0D01*
G01*
G37*
G36*
G01*
X467376500Y-107679000D02*
X467851500Y-107679000D01*
G75*
G02*
X468089000Y-107916500I0J-237500D01*
G01*
X468089000Y-108491500D01*
G75*
G02*
X467851500Y-108729000I-237500J0D01*
G01*
X467376500Y-108729000D01*
G75*
G02*
X467139000Y-108491500I0J237500D01*
G01*
X467139000Y-107916500D01*
G75*
G02*
X467376500Y-107679000I237500J0D01*
G01*
G37*
G36*
G01*
X485123500Y-119256000D02*
X484648500Y-119256000D01*
G75*
G02*
X484411000Y-119018500I0J237500D01*
G01*
X484411000Y-118443500D01*
G75*
G02*
X484648500Y-118206000I237500J0D01*
G01*
X485123500Y-118206000D01*
G75*
G02*
X485361000Y-118443500I0J-237500D01*
G01*
X485361000Y-119018500D01*
G75*
G02*
X485123500Y-119256000I-237500J0D01*
G01*
G37*
G36*
G01*
X485123500Y-117506000D02*
X484648500Y-117506000D01*
G75*
G02*
X484411000Y-117268500I0J237500D01*
G01*
X484411000Y-116693500D01*
G75*
G02*
X484648500Y-116456000I237500J0D01*
G01*
X485123500Y-116456000D01*
G75*
G02*
X485361000Y-116693500I0J-237500D01*
G01*
X485361000Y-117268500D01*
G75*
G02*
X485123500Y-117506000I-237500J0D01*
G01*
G37*
G36*
G01*
X372411000Y-73564000D02*
X371936000Y-73564000D01*
G75*
G02*
X371698500Y-73326500I0J237500D01*
G01*
X371698500Y-72751500D01*
G75*
G02*
X371936000Y-72514000I237500J0D01*
G01*
X372411000Y-72514000D01*
G75*
G02*
X372648500Y-72751500I0J-237500D01*
G01*
X372648500Y-73326500D01*
G75*
G02*
X372411000Y-73564000I-237500J0D01*
G01*
G37*
G36*
G01*
X372411000Y-75314000D02*
X371936000Y-75314000D01*
G75*
G02*
X371698500Y-75076500I0J237500D01*
G01*
X371698500Y-74501500D01*
G75*
G02*
X371936000Y-74264000I237500J0D01*
G01*
X372411000Y-74264000D01*
G75*
G02*
X372648500Y-74501500I0J-237500D01*
G01*
X372648500Y-75076500D01*
G75*
G02*
X372411000Y-75314000I-237500J0D01*
G01*
G37*
G36*
G01*
X416322500Y-117317000D02*
X416797500Y-117317000D01*
G75*
G02*
X417035000Y-117554500I0J-237500D01*
G01*
X417035000Y-118129500D01*
G75*
G02*
X416797500Y-118367000I-237500J0D01*
G01*
X416322500Y-118367000D01*
G75*
G02*
X416085000Y-118129500I0J237500D01*
G01*
X416085000Y-117554500D01*
G75*
G02*
X416322500Y-117317000I237500J0D01*
G01*
G37*
G36*
G01*
X416322500Y-115567000D02*
X416797500Y-115567000D01*
G75*
G02*
X417035000Y-115804500I0J-237500D01*
G01*
X417035000Y-116379500D01*
G75*
G02*
X416797500Y-116617000I-237500J0D01*
G01*
X416322500Y-116617000D01*
G75*
G02*
X416085000Y-116379500I0J237500D01*
G01*
X416085000Y-115804500D01*
G75*
G02*
X416322500Y-115567000I237500J0D01*
G01*
G37*
G36*
G01*
X392192500Y-119998000D02*
X392667500Y-119998000D01*
G75*
G02*
X392905000Y-120235500I0J-237500D01*
G01*
X392905000Y-120810500D01*
G75*
G02*
X392667500Y-121048000I-237500J0D01*
G01*
X392192500Y-121048000D01*
G75*
G02*
X391955000Y-120810500I0J237500D01*
G01*
X391955000Y-120235500D01*
G75*
G02*
X392192500Y-119998000I237500J0D01*
G01*
G37*
G36*
G01*
X392192500Y-121748000D02*
X392667500Y-121748000D01*
G75*
G02*
X392905000Y-121985500I0J-237500D01*
G01*
X392905000Y-122560500D01*
G75*
G02*
X392667500Y-122798000I-237500J0D01*
G01*
X392192500Y-122798000D01*
G75*
G02*
X391955000Y-122560500I0J237500D01*
G01*
X391955000Y-121985500D01*
G75*
G02*
X392192500Y-121748000I237500J0D01*
G01*
G37*
G36*
G01*
X453627500Y-101456756D02*
X453152500Y-101456756D01*
G75*
G02*
X452915000Y-101219256I0J237500D01*
G01*
X452915000Y-100644256D01*
G75*
G02*
X453152500Y-100406756I237500J0D01*
G01*
X453627500Y-100406756D01*
G75*
G02*
X453865000Y-100644256I0J-237500D01*
G01*
X453865000Y-101219256D01*
G75*
G02*
X453627500Y-101456756I-237500J0D01*
G01*
G37*
G36*
G01*
X453627500Y-103206756D02*
X453152500Y-103206756D01*
G75*
G02*
X452915000Y-102969256I0J237500D01*
G01*
X452915000Y-102394256D01*
G75*
G02*
X453152500Y-102156756I237500J0D01*
G01*
X453627500Y-102156756D01*
G75*
G02*
X453865000Y-102394256I0J-237500D01*
G01*
X453865000Y-102969256D01*
G75*
G02*
X453627500Y-103206756I-237500J0D01*
G01*
G37*
G36*
G01*
X384285500Y-84966000D02*
X383810500Y-84966000D01*
G75*
G02*
X383573000Y-84728500I0J237500D01*
G01*
X383573000Y-84153500D01*
G75*
G02*
X383810500Y-83916000I237500J0D01*
G01*
X384285500Y-83916000D01*
G75*
G02*
X384523000Y-84153500I0J-237500D01*
G01*
X384523000Y-84728500D01*
G75*
G02*
X384285500Y-84966000I-237500J0D01*
G01*
G37*
G36*
G01*
X384285500Y-83216000D02*
X383810500Y-83216000D01*
G75*
G02*
X383573000Y-82978500I0J237500D01*
G01*
X383573000Y-82403500D01*
G75*
G02*
X383810500Y-82166000I237500J0D01*
G01*
X384285500Y-82166000D01*
G75*
G02*
X384523000Y-82403500I0J-237500D01*
G01*
X384523000Y-82978500D01*
G75*
G02*
X384285500Y-83216000I-237500J0D01*
G01*
G37*
G36*
G01*
X440439000Y-110633500D02*
X440439000Y-111108500D01*
G75*
G02*
X440201500Y-111346000I-237500J0D01*
G01*
X439626500Y-111346000D01*
G75*
G02*
X439389000Y-111108500I0J237500D01*
G01*
X439389000Y-110633500D01*
G75*
G02*
X439626500Y-110396000I237500J0D01*
G01*
X440201500Y-110396000D01*
G75*
G02*
X440439000Y-110633500I0J-237500D01*
G01*
G37*
G36*
G01*
X438689000Y-110633500D02*
X438689000Y-111108500D01*
G75*
G02*
X438451500Y-111346000I-237500J0D01*
G01*
X437876500Y-111346000D01*
G75*
G02*
X437639000Y-111108500I0J237500D01*
G01*
X437639000Y-110633500D01*
G75*
G02*
X437876500Y-110396000I237500J0D01*
G01*
X438451500Y-110396000D01*
G75*
G02*
X438689000Y-110633500I0J-237500D01*
G01*
G37*
G36*
G01*
X408415500Y-112906000D02*
X407940500Y-112906000D01*
G75*
G02*
X407703000Y-112668500I0J237500D01*
G01*
X407703000Y-112093500D01*
G75*
G02*
X407940500Y-111856000I237500J0D01*
G01*
X408415500Y-111856000D01*
G75*
G02*
X408653000Y-112093500I0J-237500D01*
G01*
X408653000Y-112668500D01*
G75*
G02*
X408415500Y-112906000I-237500J0D01*
G01*
G37*
G36*
G01*
X408415500Y-111156000D02*
X407940500Y-111156000D01*
G75*
G02*
X407703000Y-110918500I0J237500D01*
G01*
X407703000Y-110343500D01*
G75*
G02*
X407940500Y-110106000I237500J0D01*
G01*
X408415500Y-110106000D01*
G75*
G02*
X408653000Y-110343500I0J-237500D01*
G01*
X408653000Y-110918500D01*
G75*
G02*
X408415500Y-111156000I-237500J0D01*
G01*
G37*
G36*
G01*
X462080367Y-108683400D02*
X462080367Y-109158400D01*
G75*
G02*
X461842867Y-109395900I-237500J0D01*
G01*
X461267867Y-109395900D01*
G75*
G02*
X461030367Y-109158400I0J237500D01*
G01*
X461030367Y-108683400D01*
G75*
G02*
X461267867Y-108445900I237500J0D01*
G01*
X461842867Y-108445900D01*
G75*
G02*
X462080367Y-108683400I0J-237500D01*
G01*
G37*
G36*
G01*
X460330367Y-108683400D02*
X460330367Y-109158400D01*
G75*
G02*
X460092867Y-109395900I-237500J0D01*
G01*
X459517867Y-109395900D01*
G75*
G02*
X459280367Y-109158400I0J237500D01*
G01*
X459280367Y-108683400D01*
G75*
G02*
X459517867Y-108445900I237500J0D01*
G01*
X460092867Y-108445900D01*
G75*
G02*
X460330367Y-108683400I0J-237500D01*
G01*
G37*
G36*
G01*
X383811000Y-65929500D02*
X383811000Y-66404500D01*
G75*
G02*
X383573500Y-66642000I-237500J0D01*
G01*
X382998500Y-66642000D01*
G75*
G02*
X382761000Y-66404500I0J237500D01*
G01*
X382761000Y-65929500D01*
G75*
G02*
X382998500Y-65692000I237500J0D01*
G01*
X383573500Y-65692000D01*
G75*
G02*
X383811000Y-65929500I0J-237500D01*
G01*
G37*
G36*
G01*
X382061000Y-65929500D02*
X382061000Y-66404500D01*
G75*
G02*
X381823500Y-66642000I-237500J0D01*
G01*
X381248500Y-66642000D01*
G75*
G02*
X381011000Y-66404500I0J237500D01*
G01*
X381011000Y-65929500D01*
G75*
G02*
X381248500Y-65692000I237500J0D01*
G01*
X381823500Y-65692000D01*
G75*
G02*
X382061000Y-65929500I0J-237500D01*
G01*
G37*
G36*
G01*
X383937500Y-57740000D02*
X384412500Y-57740000D01*
G75*
G02*
X384650000Y-57977500I0J-237500D01*
G01*
X384650000Y-58552500D01*
G75*
G02*
X384412500Y-58790000I-237500J0D01*
G01*
X383937500Y-58790000D01*
G75*
G02*
X383700000Y-58552500I0J237500D01*
G01*
X383700000Y-57977500D01*
G75*
G02*
X383937500Y-57740000I237500J0D01*
G01*
G37*
G36*
G01*
X383937500Y-55990000D02*
X384412500Y-55990000D01*
G75*
G02*
X384650000Y-56227500I0J-237500D01*
G01*
X384650000Y-56802500D01*
G75*
G02*
X384412500Y-57040000I-237500J0D01*
G01*
X383937500Y-57040000D01*
G75*
G02*
X383700000Y-56802500I0J237500D01*
G01*
X383700000Y-56227500D01*
G75*
G02*
X383937500Y-55990000I237500J0D01*
G01*
G37*
G36*
G01*
X415687500Y-93074000D02*
X416162500Y-93074000D01*
G75*
G02*
X416400000Y-93311500I0J-237500D01*
G01*
X416400000Y-93886500D01*
G75*
G02*
X416162500Y-94124000I-237500J0D01*
G01*
X415687500Y-94124000D01*
G75*
G02*
X415450000Y-93886500I0J237500D01*
G01*
X415450000Y-93311500D01*
G75*
G02*
X415687500Y-93074000I237500J0D01*
G01*
G37*
G36*
G01*
X415687500Y-94824000D02*
X416162500Y-94824000D01*
G75*
G02*
X416400000Y-95061500I0J-237500D01*
G01*
X416400000Y-95636500D01*
G75*
G02*
X416162500Y-95874000I-237500J0D01*
G01*
X415687500Y-95874000D01*
G75*
G02*
X415450000Y-95636500I0J237500D01*
G01*
X415450000Y-95061500D01*
G75*
G02*
X415687500Y-94824000I237500J0D01*
G01*
G37*
G36*
G01*
X417846500Y-82660000D02*
X418321500Y-82660000D01*
G75*
G02*
X418559000Y-82897500I0J-237500D01*
G01*
X418559000Y-83472500D01*
G75*
G02*
X418321500Y-83710000I-237500J0D01*
G01*
X417846500Y-83710000D01*
G75*
G02*
X417609000Y-83472500I0J237500D01*
G01*
X417609000Y-82897500D01*
G75*
G02*
X417846500Y-82660000I237500J0D01*
G01*
G37*
G36*
G01*
X417846500Y-84410000D02*
X418321500Y-84410000D01*
G75*
G02*
X418559000Y-84647500I0J-237500D01*
G01*
X418559000Y-85222500D01*
G75*
G02*
X418321500Y-85460000I-237500J0D01*
G01*
X417846500Y-85460000D01*
G75*
G02*
X417609000Y-85222500I0J237500D01*
G01*
X417609000Y-84647500D01*
G75*
G02*
X417846500Y-84410000I237500J0D01*
G01*
G37*
G36*
G01*
X381016500Y-110219000D02*
X381491500Y-110219000D01*
G75*
G02*
X381729000Y-110456500I0J-237500D01*
G01*
X381729000Y-111031500D01*
G75*
G02*
X381491500Y-111269000I-237500J0D01*
G01*
X381016500Y-111269000D01*
G75*
G02*
X380779000Y-111031500I0J237500D01*
G01*
X380779000Y-110456500D01*
G75*
G02*
X381016500Y-110219000I237500J0D01*
G01*
G37*
G36*
G01*
X381016500Y-111969000D02*
X381491500Y-111969000D01*
G75*
G02*
X381729000Y-112206500I0J-237500D01*
G01*
X381729000Y-112781500D01*
G75*
G02*
X381491500Y-113019000I-237500J0D01*
G01*
X381016500Y-113019000D01*
G75*
G02*
X380779000Y-112781500I0J237500D01*
G01*
X380779000Y-112206500D01*
G75*
G02*
X381016500Y-111969000I237500J0D01*
G01*
G37*
G36*
G01*
X406162500Y-54367000D02*
X406637500Y-54367000D01*
G75*
G02*
X406875000Y-54604500I0J-237500D01*
G01*
X406875000Y-55179500D01*
G75*
G02*
X406637500Y-55417000I-237500J0D01*
G01*
X406162500Y-55417000D01*
G75*
G02*
X405925000Y-55179500I0J237500D01*
G01*
X405925000Y-54604500D01*
G75*
G02*
X406162500Y-54367000I237500J0D01*
G01*
G37*
G36*
G01*
X406162500Y-56117000D02*
X406637500Y-56117000D01*
G75*
G02*
X406875000Y-56354500I0J-237500D01*
G01*
X406875000Y-56929500D01*
G75*
G02*
X406637500Y-57167000I-237500J0D01*
G01*
X406162500Y-57167000D01*
G75*
G02*
X405925000Y-56929500I0J237500D01*
G01*
X405925000Y-56354500D01*
G75*
G02*
X406162500Y-56117000I237500J0D01*
G01*
G37*
G36*
G01*
X379697500Y-49165500D02*
X379697500Y-49640500D01*
G75*
G02*
X379460000Y-49878000I-237500J0D01*
G01*
X378885000Y-49878000D01*
G75*
G02*
X378647500Y-49640500I0J237500D01*
G01*
X378647500Y-49165500D01*
G75*
G02*
X378885000Y-48928000I237500J0D01*
G01*
X379460000Y-48928000D01*
G75*
G02*
X379697500Y-49165500I0J-237500D01*
G01*
G37*
G36*
G01*
X381447500Y-49165500D02*
X381447500Y-49640500D01*
G75*
G02*
X381210000Y-49878000I-237500J0D01*
G01*
X380635000Y-49878000D01*
G75*
G02*
X380397500Y-49640500I0J237500D01*
G01*
X380397500Y-49165500D01*
G75*
G02*
X380635000Y-48928000I237500J0D01*
G01*
X381210000Y-48928000D01*
G75*
G02*
X381447500Y-49165500I0J-237500D01*
G01*
G37*
G36*
G01*
X383302500Y-99932000D02*
X383777500Y-99932000D01*
G75*
G02*
X384015000Y-100169500I0J-237500D01*
G01*
X384015000Y-100744500D01*
G75*
G02*
X383777500Y-100982000I-237500J0D01*
G01*
X383302500Y-100982000D01*
G75*
G02*
X383065000Y-100744500I0J237500D01*
G01*
X383065000Y-100169500D01*
G75*
G02*
X383302500Y-99932000I237500J0D01*
G01*
G37*
G36*
G01*
X383302500Y-101682000D02*
X383777500Y-101682000D01*
G75*
G02*
X384015000Y-101919500I0J-237500D01*
G01*
X384015000Y-102494500D01*
G75*
G02*
X383777500Y-102732000I-237500J0D01*
G01*
X383302500Y-102732000D01*
G75*
G02*
X383065000Y-102494500I0J237500D01*
G01*
X383065000Y-101919500D01*
G75*
G02*
X383302500Y-101682000I237500J0D01*
G01*
G37*
G36*
G01*
X414432000Y-51578500D02*
X414432000Y-52053500D01*
G75*
G02*
X414194500Y-52291000I-237500J0D01*
G01*
X413619500Y-52291000D01*
G75*
G02*
X413382000Y-52053500I0J237500D01*
G01*
X413382000Y-51578500D01*
G75*
G02*
X413619500Y-51341000I237500J0D01*
G01*
X414194500Y-51341000D01*
G75*
G02*
X414432000Y-51578500I0J-237500D01*
G01*
G37*
G36*
G01*
X416182000Y-51578500D02*
X416182000Y-52053500D01*
G75*
G02*
X415944500Y-52291000I-237500J0D01*
G01*
X415369500Y-52291000D01*
G75*
G02*
X415132000Y-52053500I0J237500D01*
G01*
X415132000Y-51578500D01*
G75*
G02*
X415369500Y-51341000I237500J0D01*
G01*
X415944500Y-51341000D01*
G75*
G02*
X416182000Y-51578500I0J-237500D01*
G01*
G37*
G36*
G01*
X386936500Y-38878500D02*
X386936500Y-39353500D01*
G75*
G02*
X386699000Y-39591000I-237500J0D01*
G01*
X386124000Y-39591000D01*
G75*
G02*
X385886500Y-39353500I0J237500D01*
G01*
X385886500Y-38878500D01*
G75*
G02*
X386124000Y-38641000I237500J0D01*
G01*
X386699000Y-38641000D01*
G75*
G02*
X386936500Y-38878500I0J-237500D01*
G01*
G37*
G36*
G01*
X388686500Y-38878500D02*
X388686500Y-39353500D01*
G75*
G02*
X388449000Y-39591000I-237500J0D01*
G01*
X387874000Y-39591000D01*
G75*
G02*
X387636500Y-39353500I0J237500D01*
G01*
X387636500Y-38878500D01*
G75*
G02*
X387874000Y-38641000I237500J0D01*
G01*
X388449000Y-38641000D01*
G75*
G02*
X388686500Y-38878500I0J-237500D01*
G01*
G37*
D18*
X541685500Y-114998500D03*
X541685500Y-113728500D03*
X541685500Y-112458500D03*
X541685500Y-111188500D03*
X547085500Y-111188500D03*
X547085500Y-112458500D03*
X547085500Y-113728500D03*
X547085500Y-114998500D03*
D11*
X534096500Y-100335000D03*
X534096500Y-101285000D03*
X534096500Y-102235000D03*
X536296500Y-102235000D03*
X536296500Y-100335000D03*
D18*
X519176000Y-114681000D03*
X519176000Y-113411000D03*
X519176000Y-112141000D03*
X519176000Y-110871000D03*
X524576000Y-110871000D03*
X524576000Y-112141000D03*
X524576000Y-113411000D03*
X524576000Y-114681000D03*
X405732000Y-155092400D03*
X405732000Y-153822400D03*
X405732000Y-152552400D03*
X405732000Y-151282400D03*
X411132000Y-151282400D03*
X411132000Y-152552400D03*
X411132000Y-153822400D03*
X411132000Y-155092400D03*
X457360000Y-154559000D03*
X457360000Y-153289000D03*
X457360000Y-152019000D03*
X457360000Y-150749000D03*
X451960000Y-150749000D03*
X451960000Y-152019000D03*
X451960000Y-153289000D03*
X451960000Y-154559000D03*
X503207000Y-155194000D03*
X503207000Y-153924000D03*
X503207000Y-152654000D03*
X503207000Y-151384000D03*
X497807000Y-151384000D03*
X497807000Y-152654000D03*
X497807000Y-153924000D03*
X497807000Y-155194000D03*
X543781000Y-154813000D03*
X543781000Y-153543000D03*
X543781000Y-152273000D03*
X543781000Y-151003000D03*
X549181000Y-151003000D03*
X549181000Y-152273000D03*
X549181000Y-153543000D03*
X549181000Y-154813000D03*
D11*
X398270000Y-138902400D03*
X398270000Y-139852400D03*
X398270000Y-140802400D03*
X400470000Y-140802400D03*
X400470000Y-138902400D03*
X444357000Y-140086000D03*
X444357000Y-141036000D03*
X444357000Y-141986000D03*
X446557000Y-141986000D03*
X446557000Y-140086000D03*
X489964000Y-140528000D03*
X489964000Y-141478000D03*
X489964000Y-142428000D03*
X492164000Y-142428000D03*
X492164000Y-140528000D03*
X535811000Y-140655000D03*
X535811000Y-141605000D03*
X535811000Y-142555000D03*
X538011000Y-142555000D03*
X538011000Y-140655000D03*
D18*
X429608000Y-154559000D03*
X429608000Y-153289000D03*
X429608000Y-152019000D03*
X429608000Y-150749000D03*
X435008000Y-150749000D03*
X435008000Y-152019000D03*
X435008000Y-153289000D03*
X435008000Y-154559000D03*
X479838752Y-155113443D03*
X479838752Y-153843443D03*
X479838752Y-152573443D03*
X479838752Y-151303443D03*
X474438752Y-151303443D03*
X474438752Y-152573443D03*
X474438752Y-153843443D03*
X474438752Y-155113443D03*
X520824252Y-155367443D03*
X520824252Y-154097443D03*
X520824252Y-152827443D03*
X520824252Y-151557443D03*
X526224252Y-151557443D03*
X526224252Y-152827443D03*
X526224252Y-154097443D03*
X526224252Y-155367443D03*
D11*
X423584000Y-137988000D03*
X423584000Y-139888000D03*
X421384000Y-139888000D03*
X421384000Y-138938000D03*
X421384000Y-137988000D03*
X469257557Y-140782000D03*
X469257557Y-142682000D03*
X467057557Y-142682000D03*
X467057557Y-141732000D03*
X467057557Y-140782000D03*
X513334000Y-140784252D03*
X513334000Y-141734252D03*
X513334000Y-142684252D03*
X515534000Y-142684252D03*
X515534000Y-140784252D03*
D18*
X392079500Y-31940500D03*
X392079500Y-33210500D03*
X392079500Y-34480500D03*
X392079500Y-35750500D03*
X397479500Y-35750500D03*
X397479500Y-34480500D03*
X397479500Y-33210500D03*
X397479500Y-31940500D03*
X388079000Y-91948000D03*
X388079000Y-93218000D03*
X388079000Y-94488000D03*
X388079000Y-95758000D03*
X393479000Y-95758000D03*
X393479000Y-94488000D03*
X393479000Y-93218000D03*
X393479000Y-91948000D03*
D11*
X376768000Y-34605000D03*
X376768000Y-32705000D03*
X378968000Y-32705000D03*
X378968000Y-33655000D03*
X378968000Y-34605000D03*
X376217000Y-95946000D03*
X376217000Y-94046000D03*
X378417000Y-94046000D03*
X378417000Y-94996000D03*
X378417000Y-95946000D03*
D18*
X492092000Y-106299000D03*
X492092000Y-107569000D03*
X492092000Y-108839000D03*
X492092000Y-110109000D03*
X497492000Y-110109000D03*
X497492000Y-108839000D03*
X497492000Y-107569000D03*
X497492000Y-106299000D03*
D11*
X500720000Y-119888000D03*
X500720000Y-117988000D03*
X502920000Y-117988000D03*
X502920000Y-118938000D03*
X502920000Y-119888000D03*
D18*
X476156000Y-105664000D03*
X476156000Y-106934000D03*
X476156000Y-108204000D03*
X476156000Y-109474000D03*
X470756000Y-109474000D03*
X470756000Y-108204000D03*
X470756000Y-106934000D03*
X470756000Y-105664000D03*
D11*
X481838000Y-119060000D03*
X481838000Y-118110000D03*
X481838000Y-117160000D03*
X479638000Y-117160000D03*
X479638000Y-119060000D03*
D18*
X380238000Y-70485000D03*
X380238000Y-71755000D03*
X380238000Y-73025000D03*
X380238000Y-74295000D03*
X374838000Y-74295000D03*
X374838000Y-73025000D03*
X374838000Y-71755000D03*
X374838000Y-70485000D03*
D19*
X418973000Y-112428000D03*
X420243000Y-112428000D03*
X421513000Y-112428000D03*
X422783000Y-112428000D03*
X422783000Y-107028000D03*
X421513000Y-107028000D03*
X420243000Y-107028000D03*
X418973000Y-107028000D03*
X393446000Y-114079000D03*
X394716000Y-114079000D03*
X395986000Y-114079000D03*
X397256000Y-114079000D03*
X397256000Y-108679000D03*
X395986000Y-108679000D03*
X394716000Y-108679000D03*
X393446000Y-108679000D03*
D18*
X449935979Y-105221756D03*
X449935979Y-103951756D03*
X449935979Y-102681756D03*
X449935979Y-101411756D03*
X444535979Y-101411756D03*
X444535979Y-102681756D03*
X444535979Y-103951756D03*
X444535979Y-105221756D03*
D11*
X378038000Y-85024000D03*
X378038000Y-83124000D03*
X380238000Y-83124000D03*
X380238000Y-84074000D03*
X380238000Y-85024000D03*
X434301000Y-121727000D03*
X434301000Y-119827000D03*
X436501000Y-119827000D03*
X436501000Y-120777000D03*
X436501000Y-121727000D03*
X411691000Y-121727000D03*
X411691000Y-120777000D03*
X411691000Y-119827000D03*
X409491000Y-119827000D03*
X409491000Y-121727000D03*
X456765300Y-120533200D03*
X456765300Y-118633200D03*
X458965300Y-118633200D03*
X458965300Y-119583200D03*
X458965300Y-120533200D03*
X377782000Y-65974000D03*
X377782000Y-65024000D03*
X377782000Y-64074000D03*
X375582000Y-64074000D03*
X375582000Y-65974000D03*
D18*
X393065000Y-62865000D03*
X393065000Y-64135000D03*
X393065000Y-65405000D03*
X393065000Y-66675000D03*
X387665000Y-66675000D03*
X387665000Y-65405000D03*
X387665000Y-64135000D03*
X387665000Y-62865000D03*
D11*
X413088000Y-91374000D03*
X413088000Y-90424000D03*
X413088000Y-89474000D03*
X410888000Y-89474000D03*
X410888000Y-91374000D03*
D18*
X419194000Y-91059000D03*
X419194000Y-92329000D03*
X419194000Y-93599000D03*
X419194000Y-94869000D03*
X424594000Y-94869000D03*
X424594000Y-93599000D03*
X424594000Y-92329000D03*
X424594000Y-91059000D03*
X384396000Y-107315000D03*
X384396000Y-108585000D03*
X384396000Y-109855000D03*
X384396000Y-111125000D03*
X389796000Y-111125000D03*
X389796000Y-109855000D03*
X389796000Y-108585000D03*
X389796000Y-107315000D03*
D19*
X403860000Y-46957000D03*
X405130000Y-46957000D03*
X406400000Y-46957000D03*
X407670000Y-46957000D03*
X407670000Y-52357000D03*
X406400000Y-52357000D03*
X405130000Y-52357000D03*
X403860000Y-52357000D03*
D18*
X383316500Y-46926500D03*
X383316500Y-48196500D03*
X383316500Y-49466500D03*
X383316500Y-50736500D03*
X388716500Y-50736500D03*
X388716500Y-49466500D03*
X388716500Y-48196500D03*
X388716500Y-46926500D03*
D11*
X375879000Y-109088000D03*
X375879000Y-107188000D03*
X378079000Y-107188000D03*
X378079000Y-108138000D03*
X378079000Y-109088000D03*
D20*
X416174000Y-56980000D03*
X414274000Y-56980000D03*
X414274000Y-54780000D03*
X415224000Y-54780000D03*
X416174000Y-54780000D03*
D11*
X376448500Y-47495500D03*
X376448500Y-46545500D03*
X376448500Y-45595500D03*
X374248500Y-45595500D03*
X374248500Y-47495500D03*
G36*
G01*
X533396500Y-107914501D02*
X533396500Y-105064499D01*
G75*
G02*
X533646499Y-104814500I249999J0D01*
G01*
X534546501Y-104814500D01*
G75*
G02*
X534796500Y-105064499I0J-249999D01*
G01*
X534796500Y-107914501D01*
G75*
G02*
X534546501Y-108164500I-249999J0D01*
G01*
X533646499Y-108164500D01*
G75*
G02*
X533396500Y-107914501I0J249999D01*
G01*
G37*
G36*
G01*
X539496500Y-107914501D02*
X539496500Y-105064499D01*
G75*
G02*
X539746499Y-104814500I249999J0D01*
G01*
X540646501Y-104814500D01*
G75*
G02*
X540896500Y-105064499I0J-249999D01*
G01*
X540896500Y-107914501D01*
G75*
G02*
X540646501Y-108164500I-249999J0D01*
G01*
X539746499Y-108164500D01*
G75*
G02*
X539496500Y-107914501I0J249999D01*
G01*
G37*
G36*
G01*
X511360000Y-107851001D02*
X511360000Y-105000999D01*
G75*
G02*
X511609999Y-104751000I249999J0D01*
G01*
X512510001Y-104751000D01*
G75*
G02*
X512760000Y-105000999I0J-249999D01*
G01*
X512760000Y-107851001D01*
G75*
G02*
X512510001Y-108101000I-249999J0D01*
G01*
X511609999Y-108101000D01*
G75*
G02*
X511360000Y-107851001I0J249999D01*
G01*
G37*
G36*
G01*
X517460000Y-107851001D02*
X517460000Y-105000999D01*
G75*
G02*
X517709999Y-104751000I249999J0D01*
G01*
X518610001Y-104751000D01*
G75*
G02*
X518860000Y-105000999I0J-249999D01*
G01*
X518860000Y-107851001D01*
G75*
G02*
X518610001Y-108101000I-249999J0D01*
G01*
X517709999Y-108101000D01*
G75*
G02*
X517460000Y-107851001I0J249999D01*
G01*
G37*
G36*
G01*
X397570000Y-147881401D02*
X397570000Y-145031399D01*
G75*
G02*
X397819999Y-144781400I249999J0D01*
G01*
X398720001Y-144781400D01*
G75*
G02*
X398970000Y-145031399I0J-249999D01*
G01*
X398970000Y-147881401D01*
G75*
G02*
X398720001Y-148131400I-249999J0D01*
G01*
X397819999Y-148131400D01*
G75*
G02*
X397570000Y-147881401I0J249999D01*
G01*
G37*
G36*
G01*
X403670000Y-147881401D02*
X403670000Y-145031399D01*
G75*
G02*
X403919999Y-144781400I249999J0D01*
G01*
X404820001Y-144781400D01*
G75*
G02*
X405070000Y-145031399I0J-249999D01*
G01*
X405070000Y-147881401D01*
G75*
G02*
X404820001Y-148131400I-249999J0D01*
G01*
X403919999Y-148131400D01*
G75*
G02*
X403670000Y-147881401I0J249999D01*
G01*
G37*
G36*
G01*
X449757000Y-147919253D02*
X449757000Y-145069251D01*
G75*
G02*
X450006999Y-144819252I249999J0D01*
G01*
X450907001Y-144819252D01*
G75*
G02*
X451157000Y-145069251I0J-249999D01*
G01*
X451157000Y-147919253D01*
G75*
G02*
X450907001Y-148169252I-249999J0D01*
G01*
X450006999Y-148169252D01*
G75*
G02*
X449757000Y-147919253I0J249999D01*
G01*
G37*
G36*
G01*
X443657000Y-147919253D02*
X443657000Y-145069251D01*
G75*
G02*
X443906999Y-144819252I249999J0D01*
G01*
X444807001Y-144819252D01*
G75*
G02*
X445057000Y-145069251I0J-249999D01*
G01*
X445057000Y-147919253D01*
G75*
G02*
X444807001Y-148169252I-249999J0D01*
G01*
X443906999Y-148169252D01*
G75*
G02*
X443657000Y-147919253I0J249999D01*
G01*
G37*
G36*
G01*
X495364000Y-148491001D02*
X495364000Y-145640999D01*
G75*
G02*
X495613999Y-145391000I249999J0D01*
G01*
X496514001Y-145391000D01*
G75*
G02*
X496764000Y-145640999I0J-249999D01*
G01*
X496764000Y-148491001D01*
G75*
G02*
X496514001Y-148741000I-249999J0D01*
G01*
X495613999Y-148741000D01*
G75*
G02*
X495364000Y-148491001I0J249999D01*
G01*
G37*
G36*
G01*
X489264000Y-148491001D02*
X489264000Y-145640999D01*
G75*
G02*
X489513999Y-145391000I249999J0D01*
G01*
X490414001Y-145391000D01*
G75*
G02*
X490664000Y-145640999I0J-249999D01*
G01*
X490664000Y-148491001D01*
G75*
G02*
X490414001Y-148741000I-249999J0D01*
G01*
X489513999Y-148741000D01*
G75*
G02*
X489264000Y-148491001I0J249999D01*
G01*
G37*
G36*
G01*
X541211000Y-148364001D02*
X541211000Y-145513999D01*
G75*
G02*
X541460999Y-145264000I249999J0D01*
G01*
X542361001Y-145264000D01*
G75*
G02*
X542611000Y-145513999I0J-249999D01*
G01*
X542611000Y-148364001D01*
G75*
G02*
X542361001Y-148614000I-249999J0D01*
G01*
X541460999Y-148614000D01*
G75*
G02*
X541211000Y-148364001I0J249999D01*
G01*
G37*
G36*
G01*
X535111000Y-148364001D02*
X535111000Y-145513999D01*
G75*
G02*
X535360999Y-145264000I249999J0D01*
G01*
X536261001Y-145264000D01*
G75*
G02*
X536511000Y-145513999I0J-249999D01*
G01*
X536511000Y-148364001D01*
G75*
G02*
X536261001Y-148614000I-249999J0D01*
G01*
X535360999Y-148614000D01*
G75*
G02*
X535111000Y-148364001I0J249999D01*
G01*
G37*
G36*
G01*
X420684000Y-147475001D02*
X420684000Y-144624999D01*
G75*
G02*
X420933999Y-144375000I249999J0D01*
G01*
X421834001Y-144375000D01*
G75*
G02*
X422084000Y-144624999I0J-249999D01*
G01*
X422084000Y-147475001D01*
G75*
G02*
X421834001Y-147725000I-249999J0D01*
G01*
X420933999Y-147725000D01*
G75*
G02*
X420684000Y-147475001I0J249999D01*
G01*
G37*
G36*
G01*
X426784000Y-147475001D02*
X426784000Y-144624999D01*
G75*
G02*
X427033999Y-144375000I249999J0D01*
G01*
X427934001Y-144375000D01*
G75*
G02*
X428184000Y-144624999I0J-249999D01*
G01*
X428184000Y-147475001D01*
G75*
G02*
X427934001Y-147725000I-249999J0D01*
G01*
X427033999Y-147725000D01*
G75*
G02*
X426784000Y-147475001I0J249999D01*
G01*
G37*
G36*
G01*
X472457557Y-148491001D02*
X472457557Y-145640999D01*
G75*
G02*
X472707556Y-145391000I249999J0D01*
G01*
X473607558Y-145391000D01*
G75*
G02*
X473857557Y-145640999I0J-249999D01*
G01*
X473857557Y-148491001D01*
G75*
G02*
X473607558Y-148741000I-249999J0D01*
G01*
X472707556Y-148741000D01*
G75*
G02*
X472457557Y-148491001I0J249999D01*
G01*
G37*
G36*
G01*
X466357557Y-148491001D02*
X466357557Y-145640999D01*
G75*
G02*
X466607556Y-145391000I249999J0D01*
G01*
X467507558Y-145391000D01*
G75*
G02*
X467757557Y-145640999I0J-249999D01*
G01*
X467757557Y-148491001D01*
G75*
G02*
X467507558Y-148741000I-249999J0D01*
G01*
X466607556Y-148741000D01*
G75*
G02*
X466357557Y-148491001I0J249999D01*
G01*
G37*
G36*
G01*
X512634000Y-148491001D02*
X512634000Y-145640999D01*
G75*
G02*
X512883999Y-145391000I249999J0D01*
G01*
X513784001Y-145391000D01*
G75*
G02*
X514034000Y-145640999I0J-249999D01*
G01*
X514034000Y-148491001D01*
G75*
G02*
X513784001Y-148741000I-249999J0D01*
G01*
X512883999Y-148741000D01*
G75*
G02*
X512634000Y-148491001I0J249999D01*
G01*
G37*
G36*
G01*
X518734000Y-148491001D02*
X518734000Y-145640999D01*
G75*
G02*
X518983999Y-145391000I249999J0D01*
G01*
X519884001Y-145391000D01*
G75*
G02*
X520134000Y-145640999I0J-249999D01*
G01*
X520134000Y-148491001D01*
G75*
G02*
X519884001Y-148741000I-249999J0D01*
G01*
X518983999Y-148741000D01*
G75*
G02*
X518734000Y-148491001I0J249999D01*
G01*
G37*
G36*
G01*
X373568000Y-27848499D02*
X373568000Y-30698501D01*
G75*
G02*
X373318001Y-30948500I-249999J0D01*
G01*
X372417999Y-30948500D01*
G75*
G02*
X372168000Y-30698501I0J249999D01*
G01*
X372168000Y-27848499D01*
G75*
G02*
X372417999Y-27598500I249999J0D01*
G01*
X373318001Y-27598500D01*
G75*
G02*
X373568000Y-27848499I0J-249999D01*
G01*
G37*
G36*
G01*
X379668000Y-27848499D02*
X379668000Y-30698501D01*
G75*
G02*
X379418001Y-30948500I-249999J0D01*
G01*
X378517999Y-30948500D01*
G75*
G02*
X378268000Y-30698501I0J249999D01*
G01*
X378268000Y-27848499D01*
G75*
G02*
X378517999Y-27598500I249999J0D01*
G01*
X379418001Y-27598500D01*
G75*
G02*
X379668000Y-27848499I0J-249999D01*
G01*
G37*
G36*
G01*
X374967000Y-87855999D02*
X374967000Y-90706001D01*
G75*
G02*
X374717001Y-90956000I-249999J0D01*
G01*
X373816999Y-90956000D01*
G75*
G02*
X373567000Y-90706001I0J249999D01*
G01*
X373567000Y-87855999D01*
G75*
G02*
X373816999Y-87606000I249999J0D01*
G01*
X374717001Y-87606000D01*
G75*
G02*
X374967000Y-87855999I0J-249999D01*
G01*
G37*
G36*
G01*
X381067000Y-87855999D02*
X381067000Y-90706001D01*
G75*
G02*
X380817001Y-90956000I-249999J0D01*
G01*
X379916999Y-90956000D01*
G75*
G02*
X379667000Y-90706001I0J249999D01*
G01*
X379667000Y-87855999D01*
G75*
G02*
X379916999Y-87606000I249999J0D01*
G01*
X380817001Y-87606000D01*
G75*
G02*
X381067000Y-87855999I0J-249999D01*
G01*
G37*
G36*
G01*
X503622000Y-112366999D02*
X503622000Y-115217001D01*
G75*
G02*
X503372001Y-115467000I-249999J0D01*
G01*
X502471999Y-115467000D01*
G75*
G02*
X502222000Y-115217001I0J249999D01*
G01*
X502222000Y-112366999D01*
G75*
G02*
X502471999Y-112117000I249999J0D01*
G01*
X503372001Y-112117000D01*
G75*
G02*
X503622000Y-112366999I0J-249999D01*
G01*
G37*
G36*
G01*
X497522000Y-112366999D02*
X497522000Y-115217001D01*
G75*
G02*
X497272001Y-115467000I-249999J0D01*
G01*
X496371999Y-115467000D01*
G75*
G02*
X496122000Y-115217001I0J249999D01*
G01*
X496122000Y-112366999D01*
G75*
G02*
X496371999Y-112117000I249999J0D01*
G01*
X497272001Y-112117000D01*
G75*
G02*
X497522000Y-112366999I0J-249999D01*
G01*
G37*
G36*
G01*
X476438000Y-111858999D02*
X476438000Y-114709001D01*
G75*
G02*
X476188001Y-114959000I-249999J0D01*
G01*
X475287999Y-114959000D01*
G75*
G02*
X475038000Y-114709001I0J249999D01*
G01*
X475038000Y-111858999D01*
G75*
G02*
X475287999Y-111609000I249999J0D01*
G01*
X476188001Y-111609000D01*
G75*
G02*
X476438000Y-111858999I0J-249999D01*
G01*
G37*
G36*
G01*
X482538000Y-111858999D02*
X482538000Y-114709001D01*
G75*
G02*
X482288001Y-114959000I-249999J0D01*
G01*
X481387999Y-114959000D01*
G75*
G02*
X481138000Y-114709001I0J249999D01*
G01*
X481138000Y-111858999D01*
G75*
G02*
X481387999Y-111609000I249999J0D01*
G01*
X482288001Y-111609000D01*
G75*
G02*
X482538000Y-111858999I0J-249999D01*
G01*
G37*
G36*
G01*
X380938000Y-78203999D02*
X380938000Y-81054001D01*
G75*
G02*
X380688001Y-81304000I-249999J0D01*
G01*
X379787999Y-81304000D01*
G75*
G02*
X379538000Y-81054001I0J249999D01*
G01*
X379538000Y-78203999D01*
G75*
G02*
X379787999Y-77954000I249999J0D01*
G01*
X380688001Y-77954000D01*
G75*
G02*
X380938000Y-78203999I0J-249999D01*
G01*
G37*
G36*
G01*
X374838000Y-78203999D02*
X374838000Y-81054001D01*
G75*
G02*
X374588001Y-81304000I-249999J0D01*
G01*
X373687999Y-81304000D01*
G75*
G02*
X373438000Y-81054001I0J249999D01*
G01*
X373438000Y-78203999D01*
G75*
G02*
X373687999Y-77954000I249999J0D01*
G01*
X374588001Y-77954000D01*
G75*
G02*
X374838000Y-78203999I0J-249999D01*
G01*
G37*
G36*
G01*
X437201000Y-113763999D02*
X437201000Y-116614001D01*
G75*
G02*
X436951001Y-116864000I-249999J0D01*
G01*
X436050999Y-116864000D01*
G75*
G02*
X435801000Y-116614001I0J249999D01*
G01*
X435801000Y-113763999D01*
G75*
G02*
X436050999Y-113514000I249999J0D01*
G01*
X436951001Y-113514000D01*
G75*
G02*
X437201000Y-113763999I0J-249999D01*
G01*
G37*
G36*
G01*
X431101000Y-113763999D02*
X431101000Y-116614001D01*
G75*
G02*
X430851001Y-116864000I-249999J0D01*
G01*
X429950999Y-116864000D01*
G75*
G02*
X429701000Y-116614001I0J249999D01*
G01*
X429701000Y-113763999D01*
G75*
G02*
X429950999Y-113514000I249999J0D01*
G01*
X430851001Y-113514000D01*
G75*
G02*
X431101000Y-113763999I0J-249999D01*
G01*
G37*
G36*
G01*
X406336000Y-115033999D02*
X406336000Y-117884001D01*
G75*
G02*
X406086001Y-118134000I-249999J0D01*
G01*
X405185999Y-118134000D01*
G75*
G02*
X404936000Y-117884001I0J249999D01*
G01*
X404936000Y-115033999D01*
G75*
G02*
X405185999Y-114784000I249999J0D01*
G01*
X406086001Y-114784000D01*
G75*
G02*
X406336000Y-115033999I0J-249999D01*
G01*
G37*
G36*
G01*
X412436000Y-115033999D02*
X412436000Y-117884001D01*
G75*
G02*
X412186001Y-118134000I-249999J0D01*
G01*
X411285999Y-118134000D01*
G75*
G02*
X411036000Y-117884001I0J249999D01*
G01*
X411036000Y-115033999D01*
G75*
G02*
X411285999Y-114784000I249999J0D01*
G01*
X412186001Y-114784000D01*
G75*
G02*
X412436000Y-115033999I0J-249999D01*
G01*
G37*
G36*
G01*
X459665300Y-113230599D02*
X459665300Y-116080601D01*
G75*
G02*
X459415301Y-116330600I-249999J0D01*
G01*
X458515299Y-116330600D01*
G75*
G02*
X458265300Y-116080601I0J249999D01*
G01*
X458265300Y-113230599D01*
G75*
G02*
X458515299Y-112980600I249999J0D01*
G01*
X459415301Y-112980600D01*
G75*
G02*
X459665300Y-113230599I0J-249999D01*
G01*
G37*
G36*
G01*
X453565300Y-113230599D02*
X453565300Y-116080601D01*
G75*
G02*
X453315301Y-116330600I-249999J0D01*
G01*
X452415299Y-116330600D01*
G75*
G02*
X452165300Y-116080601I0J249999D01*
G01*
X452165300Y-113230599D01*
G75*
G02*
X452415299Y-112980600I249999J0D01*
G01*
X453315301Y-112980600D01*
G75*
G02*
X453565300Y-113230599I0J-249999D01*
G01*
G37*
G36*
G01*
X381956000Y-58137999D02*
X381956000Y-60988001D01*
G75*
G02*
X381706001Y-61238000I-249999J0D01*
G01*
X380805999Y-61238000D01*
G75*
G02*
X380556000Y-60988001I0J249999D01*
G01*
X380556000Y-58137999D01*
G75*
G02*
X380805999Y-57888000I249999J0D01*
G01*
X381706001Y-57888000D01*
G75*
G02*
X381956000Y-58137999I0J-249999D01*
G01*
G37*
G36*
G01*
X375856000Y-58137999D02*
X375856000Y-60988001D01*
G75*
G02*
X375606001Y-61238000I-249999J0D01*
G01*
X374705999Y-61238000D01*
G75*
G02*
X374456000Y-60988001I0J249999D01*
G01*
X374456000Y-58137999D01*
G75*
G02*
X374705999Y-57888000I249999J0D01*
G01*
X375606001Y-57888000D01*
G75*
G02*
X375856000Y-58137999I0J-249999D01*
G01*
G37*
G36*
G01*
X416244000Y-84426999D02*
X416244000Y-87277001D01*
G75*
G02*
X415994001Y-87527000I-249999J0D01*
G01*
X415093999Y-87527000D01*
G75*
G02*
X414844000Y-87277001I0J249999D01*
G01*
X414844000Y-84426999D01*
G75*
G02*
X415093999Y-84177000I249999J0D01*
G01*
X415994001Y-84177000D01*
G75*
G02*
X416244000Y-84426999I0J-249999D01*
G01*
G37*
G36*
G01*
X410144000Y-84426999D02*
X410144000Y-87277001D01*
G75*
G02*
X409894001Y-87527000I-249999J0D01*
G01*
X408993999Y-87527000D01*
G75*
G02*
X408744000Y-87277001I0J249999D01*
G01*
X408744000Y-84426999D01*
G75*
G02*
X408993999Y-84177000I249999J0D01*
G01*
X409894001Y-84177000D01*
G75*
G02*
X410144000Y-84426999I0J-249999D01*
G01*
G37*
G36*
G01*
X375096000Y-102079999D02*
X375096000Y-104930001D01*
G75*
G02*
X374846001Y-105180000I-249999J0D01*
G01*
X373945999Y-105180000D01*
G75*
G02*
X373696000Y-104930001I0J249999D01*
G01*
X373696000Y-102079999D01*
G75*
G02*
X373945999Y-101830000I249999J0D01*
G01*
X374846001Y-101830000D01*
G75*
G02*
X375096000Y-102079999I0J-249999D01*
G01*
G37*
G36*
G01*
X381196000Y-102079999D02*
X381196000Y-104930001D01*
G75*
G02*
X380946001Y-105180000I-249999J0D01*
G01*
X380045999Y-105180000D01*
G75*
G02*
X379796000Y-104930001I0J249999D01*
G01*
X379796000Y-102079999D01*
G75*
G02*
X380045999Y-101830000I249999J0D01*
G01*
X380946001Y-101830000D01*
G75*
G02*
X381196000Y-102079999I0J-249999D01*
G01*
G37*
G36*
G01*
X409546999Y-60180000D02*
X412397001Y-60180000D01*
G75*
G02*
X412647000Y-60429999I0J-249999D01*
G01*
X412647000Y-61330001D01*
G75*
G02*
X412397001Y-61580000I-249999J0D01*
G01*
X409546999Y-61580000D01*
G75*
G02*
X409297000Y-61330001I0J249999D01*
G01*
X409297000Y-60429999D01*
G75*
G02*
X409546999Y-60180000I249999J0D01*
G01*
G37*
G36*
G01*
X409546999Y-54080000D02*
X412397001Y-54080000D01*
G75*
G02*
X412647000Y-54329999I0J-249999D01*
G01*
X412647000Y-55230001D01*
G75*
G02*
X412397001Y-55480000I-249999J0D01*
G01*
X409546999Y-55480000D01*
G75*
G02*
X409297000Y-55230001I0J249999D01*
G01*
X409297000Y-54329999D01*
G75*
G02*
X409546999Y-54080000I249999J0D01*
G01*
G37*
G36*
G01*
X379860500Y-38643499D02*
X379860500Y-41493501D01*
G75*
G02*
X379610501Y-41743500I-249999J0D01*
G01*
X378710499Y-41743500D01*
G75*
G02*
X378460500Y-41493501I0J249999D01*
G01*
X378460500Y-38643499D01*
G75*
G02*
X378710499Y-38393500I249999J0D01*
G01*
X379610501Y-38393500D01*
G75*
G02*
X379860500Y-38643499I0J-249999D01*
G01*
G37*
G36*
G01*
X373760500Y-38643499D02*
X373760500Y-41493501D01*
G75*
G02*
X373510501Y-41743500I-249999J0D01*
G01*
X372610499Y-41743500D01*
G75*
G02*
X372360500Y-41493501I0J249999D01*
G01*
X372360500Y-38643499D01*
G75*
G02*
X372610499Y-38393500I249999J0D01*
G01*
X373510501Y-38393500D01*
G75*
G02*
X373760500Y-38643499I0J-249999D01*
G01*
G37*
M02*
