G04 #@! TF.GenerationSoftware,KiCad,Pcbnew,(5.1.4)-1*
G04 #@! TF.CreationDate,2019-12-12T22:39:38-06:00*
G04 #@! TF.ProjectId,PowerBoard_Hardware,506f7765-7242-46f6-9172-645f48617264,rev?*
G04 #@! TF.SameCoordinates,Original*
G04 #@! TF.FileFunction,Copper,L2,Bot*
G04 #@! TF.FilePolarity,Positive*
%FSLAX46Y46*%
G04 Gerber Fmt 4.6, Leading zero omitted, Abs format (unit mm)*
G04 Created by KiCad (PCBNEW (5.1.4)-1) date 2019-12-12 22:39:38*
%MOMM*%
%LPD*%
G04 APERTURE LIST*
%ADD10C,5.080000*%
%ADD11C,2.819400*%
%ADD12C,18.288000*%
%ADD13C,1.524000*%
%ADD14C,2.400000*%
%ADD15R,2.400000X2.400000*%
%ADD16C,1.600000*%
%ADD17R,1.600000X1.600000*%
%ADD18O,3.200000X3.200000*%
%ADD19R,3.200000X3.200000*%
%ADD20R,1.000000X1.000000*%
%ADD21O,1.000000X1.000000*%
%ADD22C,0.800000*%
%ADD23C,0.762000*%
%ADD24C,0.254000*%
G04 APERTURE END LIST*
D10*
X122555000Y-45212000D03*
X114681000Y-45212000D03*
D11*
X188341000Y-106172000D03*
X184912000Y-106172000D03*
X184912000Y-119634000D03*
X188341000Y-119634000D03*
X188341000Y-85598000D03*
X184912000Y-85598000D03*
X184912000Y-99060000D03*
X188341000Y-99060000D03*
D10*
X122555000Y-86106000D03*
X114681000Y-86106000D03*
X122555000Y-128270000D03*
X114681000Y-128270000D03*
X114681000Y-65532000D03*
X122555000Y-65532000D03*
D11*
X146685000Y-65024000D03*
X150114000Y-65024000D03*
X150114000Y-78486000D03*
X146685000Y-78486000D03*
X146685000Y-44450000D03*
X150114000Y-44450000D03*
X150114000Y-57912000D03*
X146685000Y-57912000D03*
X146685000Y-85471000D03*
X150114000Y-85471000D03*
X150114000Y-98933000D03*
X146685000Y-98933000D03*
X188341000Y-57912000D03*
X184912000Y-57912000D03*
X184912000Y-44450000D03*
X188341000Y-44450000D03*
X188341000Y-65151000D03*
X184912000Y-65151000D03*
X184912000Y-78613000D03*
X188341000Y-78613000D03*
D12*
X177546000Y-156845000D03*
X142621000Y-156972000D03*
D13*
X175895000Y-62230000D03*
X173355000Y-62230000D03*
X170815000Y-62230000D03*
D14*
X157306000Y-120015000D03*
D15*
X162306000Y-120015000D03*
D16*
X161290000Y-67350000D03*
D17*
X161290000Y-69850000D03*
D16*
X173355000Y-67350000D03*
D17*
X173355000Y-69850000D03*
D15*
X162306000Y-96520000D03*
D14*
X157306000Y-96520000D03*
X177466000Y-108585000D03*
D15*
X172466000Y-108585000D03*
X172466000Y-132080000D03*
D14*
X177466000Y-132080000D03*
D17*
X165100000Y-42545000D03*
D16*
X167600000Y-42545000D03*
X151638000Y-37425000D03*
D17*
X151638000Y-34925000D03*
D10*
X212471000Y-98425000D03*
X220345000Y-98425000D03*
X220345000Y-118999000D03*
X212471000Y-118999000D03*
D18*
X163830000Y-78359000D03*
D19*
X163830000Y-83439000D03*
X170815000Y-83439000D03*
D18*
X170815000Y-78359000D03*
D13*
X163830000Y-62230000D03*
X161290000Y-62230000D03*
X158750000Y-62230000D03*
X158750000Y-34925000D03*
X161290000Y-34925000D03*
D10*
X220345000Y-57150000D03*
X212471000Y-57150000D03*
X220345000Y-77978000D03*
X212471000Y-77978000D03*
X122555000Y-106934000D03*
X114681000Y-106934000D03*
X220345000Y-140462000D03*
X212471000Y-140462000D03*
D11*
X146685000Y-106299000D03*
X150114000Y-106299000D03*
X150114000Y-119761000D03*
X146685000Y-119761000D03*
X146685000Y-141097000D03*
X150114000Y-141097000D03*
X150114000Y-127635000D03*
X146685000Y-127635000D03*
X188341000Y-127508000D03*
X184912000Y-127508000D03*
X184912000Y-140970000D03*
X188341000Y-140970000D03*
D20*
X115570000Y-37465000D03*
D21*
X115570000Y-36195000D03*
X116840000Y-37465000D03*
X116840000Y-36195000D03*
X118110000Y-37465000D03*
X118110000Y-36195000D03*
X119380000Y-37465000D03*
X119380000Y-36195000D03*
X120650000Y-37465000D03*
X120650000Y-36195000D03*
X182880000Y-36195000D03*
X182880000Y-37465000D03*
X181610000Y-36195000D03*
X181610000Y-37465000D03*
X180340000Y-36195000D03*
X180340000Y-37465000D03*
X179070000Y-36195000D03*
X179070000Y-37465000D03*
X177800000Y-36195000D03*
D20*
X177800000Y-37465000D03*
D22*
X167386000Y-58801000D03*
X167386000Y-55245000D03*
X167386000Y-51689000D03*
X167386000Y-48260000D03*
X143891000Y-106172000D03*
X112206000Y-117791000D03*
X112457000Y-139000000D03*
X112206000Y-96836000D03*
X143863000Y-85725000D03*
X143863000Y-65024000D03*
X112203000Y-76389000D03*
X143891000Y-44196000D03*
X112330000Y-56069000D03*
X191290000Y-58166000D03*
X224663000Y-46355000D03*
X224728000Y-67375000D03*
X191403000Y-79248000D03*
X191290000Y-99568000D03*
X224220000Y-87695000D03*
X191290000Y-120396000D03*
X224728000Y-108015000D03*
X225363000Y-130240000D03*
X191290000Y-141732000D03*
X143863000Y-128016000D03*
X138430000Y-143510000D03*
X123825000Y-142240000D03*
X138430000Y-122301000D03*
X138430000Y-80772000D03*
X138430000Y-60325000D03*
X196850000Y-43180000D03*
X196850000Y-62230000D03*
X196850000Y-83185000D03*
X196850000Y-104140000D03*
X196850000Y-125095000D03*
X212725000Y-43815000D03*
X212725000Y-64770000D03*
X212725000Y-85090000D03*
X212725000Y-105410000D03*
X212725000Y-127635000D03*
X123952000Y-120650000D03*
X123825000Y-99695000D03*
X123825000Y-79375000D03*
X123825000Y-59055000D03*
X180975000Y-48260000D03*
X180975000Y-51689000D03*
X138430000Y-101473000D03*
X140335000Y-41910000D03*
X140335000Y-62865000D03*
X140335000Y-83820000D03*
X140335000Y-104140000D03*
X194945000Y-81280000D03*
X194945000Y-101600000D03*
X194945000Y-122555000D03*
X194945000Y-60325000D03*
X140335000Y-125730000D03*
X194945000Y-143510000D03*
D23*
X170815000Y-62230000D02*
X168910000Y-60325000D01*
X170815000Y-62230000D02*
X172720000Y-60325000D01*
X140970000Y-60325000D02*
X140335000Y-60960000D01*
X168910000Y-60325000D02*
X140970000Y-60325000D01*
X140970000Y-60325000D02*
X140335000Y-59690000D01*
X140335000Y-59690000D02*
X140335000Y-41910000D01*
X172720000Y-60325000D02*
X194310000Y-60325000D01*
X194310000Y-60325000D02*
X194945000Y-60325000D01*
X194945000Y-60325000D02*
X194945000Y-60325000D01*
X140335000Y-125730000D02*
X140335000Y-102870000D01*
X140335000Y-104140000D02*
X140335000Y-102870000D01*
X140335000Y-102870000D02*
X140335000Y-60960000D01*
X194945000Y-60325000D02*
X194945000Y-60960000D01*
X194945000Y-143510000D02*
X194945000Y-122555000D01*
X194945000Y-122555000D02*
X194945000Y-101600000D01*
X194945000Y-101600000D02*
X194945000Y-81280000D01*
X194945000Y-81280000D02*
X194945000Y-60325000D01*
D24*
G36*
X235204891Y-31205515D02*
G01*
X235816565Y-31390190D01*
X236380710Y-31690151D01*
X236875856Y-32093982D01*
X237283133Y-32586297D01*
X237587026Y-33148336D01*
X237775969Y-33758709D01*
X237846001Y-34425022D01*
X237846000Y-166210721D01*
X237780485Y-166878892D01*
X237595812Y-167490561D01*
X237295848Y-168054711D01*
X236892018Y-168549855D01*
X236399703Y-168957133D01*
X235837664Y-169261026D01*
X235227292Y-169449969D01*
X234560978Y-169520001D01*
X100605619Y-169519998D01*
X99924651Y-169475336D01*
X99306955Y-169310376D01*
X98733071Y-169028582D01*
X98224843Y-168640682D01*
X97801644Y-168161460D01*
X97479584Y-167609161D01*
X97270932Y-167004828D01*
X97180825Y-166351066D01*
X97180000Y-166114840D01*
X97180000Y-165964240D01*
X98419920Y-165964240D01*
X98419920Y-166379520D01*
X98500937Y-166786819D01*
X98659857Y-167170487D01*
X98890574Y-167515779D01*
X99184221Y-167809426D01*
X99529513Y-168040143D01*
X99913181Y-168199063D01*
X100320480Y-168280080D01*
X100735760Y-168280080D01*
X101143059Y-168199063D01*
X101526727Y-168040143D01*
X101872019Y-167809426D01*
X102165666Y-167515779D01*
X102396383Y-167170487D01*
X102555303Y-166786819D01*
X102636320Y-166379520D01*
X102636320Y-165964240D01*
X102555303Y-165556941D01*
X102396383Y-165173273D01*
X102165666Y-164827981D01*
X101872019Y-164534334D01*
X101526727Y-164303617D01*
X101143059Y-164144697D01*
X100735760Y-164063680D01*
X100320480Y-164063680D01*
X99913181Y-164144697D01*
X99529513Y-164303617D01*
X99184221Y-164534334D01*
X98890574Y-164827981D01*
X98659857Y-165173273D01*
X98500937Y-165556941D01*
X98419920Y-165964240D01*
X97180000Y-165964240D01*
X97180000Y-155881853D01*
X167767000Y-155881853D01*
X167767000Y-157808147D01*
X168142802Y-159697429D01*
X168879963Y-161477093D01*
X169950155Y-163078749D01*
X171312251Y-164440845D01*
X172913907Y-165511037D01*
X174693571Y-166248198D01*
X176582853Y-166624000D01*
X178509147Y-166624000D01*
X180398429Y-166248198D01*
X181083964Y-165964240D01*
X232389680Y-165964240D01*
X232389680Y-166379520D01*
X232470697Y-166786819D01*
X232629617Y-167170487D01*
X232860334Y-167515779D01*
X233153981Y-167809426D01*
X233499273Y-168040143D01*
X233882941Y-168199063D01*
X234290240Y-168280080D01*
X234705520Y-168280080D01*
X235112819Y-168199063D01*
X235496487Y-168040143D01*
X235841779Y-167809426D01*
X236135426Y-167515779D01*
X236366143Y-167170487D01*
X236525063Y-166786819D01*
X236606080Y-166379520D01*
X236606080Y-165964240D01*
X236525063Y-165556941D01*
X236366143Y-165173273D01*
X236135426Y-164827981D01*
X235841779Y-164534334D01*
X235496487Y-164303617D01*
X235112819Y-164144697D01*
X234705520Y-164063680D01*
X234290240Y-164063680D01*
X233882941Y-164144697D01*
X233499273Y-164303617D01*
X233153981Y-164534334D01*
X232860334Y-164827981D01*
X232629617Y-165173273D01*
X232470697Y-165556941D01*
X232389680Y-165964240D01*
X181083964Y-165964240D01*
X182178093Y-165511037D01*
X183779749Y-164440845D01*
X185141845Y-163078749D01*
X186212037Y-161477093D01*
X186949198Y-159697429D01*
X187325000Y-157808147D01*
X187325000Y-155881853D01*
X186949198Y-153992571D01*
X186212037Y-152212907D01*
X185141845Y-150611251D01*
X183779749Y-149249155D01*
X182178093Y-148178963D01*
X180398429Y-147441802D01*
X178509147Y-147066000D01*
X176582853Y-147066000D01*
X174693571Y-147441802D01*
X172913907Y-148178963D01*
X171312251Y-149249155D01*
X169950155Y-150611251D01*
X168879963Y-152212907D01*
X168142802Y-153992571D01*
X167767000Y-155881853D01*
X97180000Y-155881853D01*
X97180000Y-140895615D01*
X144640300Y-140895615D01*
X144640300Y-141298385D01*
X144718877Y-141693417D01*
X144873011Y-142065528D01*
X145096778Y-142400420D01*
X145381580Y-142685222D01*
X145716472Y-142908989D01*
X146088583Y-143063123D01*
X146483615Y-143141700D01*
X146886385Y-143141700D01*
X147281417Y-143063123D01*
X147653528Y-142908989D01*
X147988420Y-142685222D01*
X148273222Y-142400420D01*
X148399500Y-142211431D01*
X148525778Y-142400420D01*
X148810580Y-142685222D01*
X149145472Y-142908989D01*
X149517583Y-143063123D01*
X149912615Y-143141700D01*
X150315385Y-143141700D01*
X150710417Y-143063123D01*
X151082528Y-142908989D01*
X151417420Y-142685222D01*
X151702222Y-142400420D01*
X151925989Y-142065528D01*
X152080123Y-141693417D01*
X152158700Y-141298385D01*
X152158700Y-140895615D01*
X152133439Y-140768615D01*
X182867300Y-140768615D01*
X182867300Y-141171385D01*
X182945877Y-141566417D01*
X183100011Y-141938528D01*
X183323778Y-142273420D01*
X183608580Y-142558222D01*
X183943472Y-142781989D01*
X184315583Y-142936123D01*
X184710615Y-143014700D01*
X185113385Y-143014700D01*
X185508417Y-142936123D01*
X185880528Y-142781989D01*
X186215420Y-142558222D01*
X186500222Y-142273420D01*
X186626500Y-142084431D01*
X186752778Y-142273420D01*
X187037580Y-142558222D01*
X187372472Y-142781989D01*
X187744583Y-142936123D01*
X188139615Y-143014700D01*
X188542385Y-143014700D01*
X188937417Y-142936123D01*
X189309528Y-142781989D01*
X189644420Y-142558222D01*
X189929222Y-142273420D01*
X190152989Y-141938528D01*
X190307123Y-141566417D01*
X190385700Y-141171385D01*
X190385700Y-140768615D01*
X190307123Y-140373583D01*
X190152989Y-140001472D01*
X189929222Y-139666580D01*
X189644420Y-139381778D01*
X189309528Y-139158011D01*
X188937417Y-139003877D01*
X188542385Y-138925300D01*
X188139615Y-138925300D01*
X187744583Y-139003877D01*
X187372472Y-139158011D01*
X187037580Y-139381778D01*
X186752778Y-139666580D01*
X186626500Y-139855569D01*
X186500222Y-139666580D01*
X186215420Y-139381778D01*
X185880528Y-139158011D01*
X185508417Y-139003877D01*
X185113385Y-138925300D01*
X184710615Y-138925300D01*
X184315583Y-139003877D01*
X183943472Y-139158011D01*
X183608580Y-139381778D01*
X183323778Y-139666580D01*
X183100011Y-140001472D01*
X182945877Y-140373583D01*
X182867300Y-140768615D01*
X152133439Y-140768615D01*
X152080123Y-140500583D01*
X151925989Y-140128472D01*
X151702222Y-139793580D01*
X151417420Y-139508778D01*
X151082528Y-139285011D01*
X150710417Y-139130877D01*
X150315385Y-139052300D01*
X149912615Y-139052300D01*
X149517583Y-139130877D01*
X149145472Y-139285011D01*
X148810580Y-139508778D01*
X148525778Y-139793580D01*
X148399500Y-139982569D01*
X148273222Y-139793580D01*
X147988420Y-139508778D01*
X147653528Y-139285011D01*
X147281417Y-139130877D01*
X146886385Y-139052300D01*
X146483615Y-139052300D01*
X146088583Y-139130877D01*
X145716472Y-139285011D01*
X145381580Y-139508778D01*
X145096778Y-139793580D01*
X144873011Y-140128472D01*
X144718877Y-140500583D01*
X144640300Y-140895615D01*
X97180000Y-140895615D01*
X97180000Y-127957290D01*
X111506000Y-127957290D01*
X111506000Y-128582710D01*
X111628014Y-129196113D01*
X111867352Y-129773926D01*
X112214817Y-130293944D01*
X112657056Y-130736183D01*
X113177074Y-131083648D01*
X113754887Y-131322986D01*
X114368290Y-131445000D01*
X114993710Y-131445000D01*
X115607113Y-131322986D01*
X116184926Y-131083648D01*
X116489706Y-130880000D01*
X170627928Y-130880000D01*
X170627928Y-133280000D01*
X170640188Y-133404482D01*
X170676498Y-133524180D01*
X170735463Y-133634494D01*
X170814815Y-133731185D01*
X170911506Y-133810537D01*
X171021820Y-133869502D01*
X171141518Y-133905812D01*
X171266000Y-133918072D01*
X173666000Y-133918072D01*
X173790482Y-133905812D01*
X173910180Y-133869502D01*
X174020494Y-133810537D01*
X174117185Y-133731185D01*
X174196537Y-133634494D01*
X174255502Y-133524180D01*
X174291812Y-133404482D01*
X174304072Y-133280000D01*
X174304072Y-131899268D01*
X175631000Y-131899268D01*
X175631000Y-132260732D01*
X175701518Y-132615250D01*
X175839844Y-132949199D01*
X176040662Y-133249744D01*
X176296256Y-133505338D01*
X176596801Y-133706156D01*
X176930750Y-133844482D01*
X177285268Y-133915000D01*
X177646732Y-133915000D01*
X178001250Y-133844482D01*
X178335199Y-133706156D01*
X178635744Y-133505338D01*
X178891338Y-133249744D01*
X179092156Y-132949199D01*
X179230482Y-132615250D01*
X179301000Y-132260732D01*
X179301000Y-131899268D01*
X179230482Y-131544750D01*
X179092156Y-131210801D01*
X178891338Y-130910256D01*
X178635744Y-130654662D01*
X178335199Y-130453844D01*
X178001250Y-130315518D01*
X177646732Y-130245000D01*
X177285268Y-130245000D01*
X176930750Y-130315518D01*
X176596801Y-130453844D01*
X176296256Y-130654662D01*
X176040662Y-130910256D01*
X175839844Y-131210801D01*
X175701518Y-131544750D01*
X175631000Y-131899268D01*
X174304072Y-131899268D01*
X174304072Y-130880000D01*
X174291812Y-130755518D01*
X174255502Y-130635820D01*
X174196537Y-130525506D01*
X174117185Y-130428815D01*
X174020494Y-130349463D01*
X173910180Y-130290498D01*
X173790482Y-130254188D01*
X173666000Y-130241928D01*
X171266000Y-130241928D01*
X171141518Y-130254188D01*
X171021820Y-130290498D01*
X170911506Y-130349463D01*
X170814815Y-130428815D01*
X170735463Y-130525506D01*
X170676498Y-130635820D01*
X170640188Y-130755518D01*
X170627928Y-130880000D01*
X116489706Y-130880000D01*
X116704944Y-130736183D01*
X117147183Y-130293944D01*
X117494648Y-129773926D01*
X117733986Y-129196113D01*
X117856000Y-128582710D01*
X117856000Y-127957290D01*
X117751835Y-127433615D01*
X144640300Y-127433615D01*
X144640300Y-127836385D01*
X144718877Y-128231417D01*
X144873011Y-128603528D01*
X145096778Y-128938420D01*
X145381580Y-129223222D01*
X145716472Y-129446989D01*
X146088583Y-129601123D01*
X146483615Y-129679700D01*
X146886385Y-129679700D01*
X147281417Y-129601123D01*
X147653528Y-129446989D01*
X147988420Y-129223222D01*
X148273222Y-128938420D01*
X148399500Y-128749431D01*
X148525778Y-128938420D01*
X148810580Y-129223222D01*
X149145472Y-129446989D01*
X149517583Y-129601123D01*
X149912615Y-129679700D01*
X150315385Y-129679700D01*
X150710417Y-129601123D01*
X151082528Y-129446989D01*
X151417420Y-129223222D01*
X151702222Y-128938420D01*
X151925989Y-128603528D01*
X152080123Y-128231417D01*
X152158700Y-127836385D01*
X152158700Y-127433615D01*
X152133439Y-127306615D01*
X182867300Y-127306615D01*
X182867300Y-127709385D01*
X182945877Y-128104417D01*
X183100011Y-128476528D01*
X183323778Y-128811420D01*
X183608580Y-129096222D01*
X183943472Y-129319989D01*
X184315583Y-129474123D01*
X184710615Y-129552700D01*
X185113385Y-129552700D01*
X185508417Y-129474123D01*
X185880528Y-129319989D01*
X186215420Y-129096222D01*
X186500222Y-128811420D01*
X186626500Y-128622431D01*
X186752778Y-128811420D01*
X187037580Y-129096222D01*
X187372472Y-129319989D01*
X187744583Y-129474123D01*
X188139615Y-129552700D01*
X188542385Y-129552700D01*
X188937417Y-129474123D01*
X189309528Y-129319989D01*
X189644420Y-129096222D01*
X189929222Y-128811420D01*
X190152989Y-128476528D01*
X190307123Y-128104417D01*
X190385700Y-127709385D01*
X190385700Y-127306615D01*
X190307123Y-126911583D01*
X190152989Y-126539472D01*
X189929222Y-126204580D01*
X189644420Y-125919778D01*
X189309528Y-125696011D01*
X188937417Y-125541877D01*
X188542385Y-125463300D01*
X188139615Y-125463300D01*
X187744583Y-125541877D01*
X187372472Y-125696011D01*
X187037580Y-125919778D01*
X186752778Y-126204580D01*
X186626500Y-126393569D01*
X186500222Y-126204580D01*
X186215420Y-125919778D01*
X185880528Y-125696011D01*
X185508417Y-125541877D01*
X185113385Y-125463300D01*
X184710615Y-125463300D01*
X184315583Y-125541877D01*
X183943472Y-125696011D01*
X183608580Y-125919778D01*
X183323778Y-126204580D01*
X183100011Y-126539472D01*
X182945877Y-126911583D01*
X182867300Y-127306615D01*
X152133439Y-127306615D01*
X152080123Y-127038583D01*
X151925989Y-126666472D01*
X151702222Y-126331580D01*
X151417420Y-126046778D01*
X151082528Y-125823011D01*
X150710417Y-125668877D01*
X150315385Y-125590300D01*
X149912615Y-125590300D01*
X149517583Y-125668877D01*
X149145472Y-125823011D01*
X148810580Y-126046778D01*
X148525778Y-126331580D01*
X148399500Y-126520569D01*
X148273222Y-126331580D01*
X147988420Y-126046778D01*
X147653528Y-125823011D01*
X147281417Y-125668877D01*
X146886385Y-125590300D01*
X146483615Y-125590300D01*
X146088583Y-125668877D01*
X145716472Y-125823011D01*
X145381580Y-126046778D01*
X145096778Y-126331580D01*
X144873011Y-126666472D01*
X144718877Y-127038583D01*
X144640300Y-127433615D01*
X117751835Y-127433615D01*
X117733986Y-127343887D01*
X117494648Y-126766074D01*
X117147183Y-126246056D01*
X116704944Y-125803817D01*
X116184926Y-125456352D01*
X115607113Y-125217014D01*
X114993710Y-125095000D01*
X114368290Y-125095000D01*
X113754887Y-125217014D01*
X113177074Y-125456352D01*
X112657056Y-125803817D01*
X112214817Y-126246056D01*
X111867352Y-126766074D01*
X111628014Y-127343887D01*
X111506000Y-127957290D01*
X97180000Y-127957290D01*
X97180000Y-119172360D01*
X98856800Y-119172360D01*
X98856800Y-119587640D01*
X98937817Y-119994939D01*
X99096737Y-120378607D01*
X99327454Y-120723899D01*
X99621101Y-121017546D01*
X99966393Y-121248263D01*
X100350061Y-121407183D01*
X100757360Y-121488200D01*
X101172640Y-121488200D01*
X101579939Y-121407183D01*
X101963607Y-121248263D01*
X102308899Y-121017546D01*
X102602546Y-120723899D01*
X102833263Y-120378607D01*
X102992183Y-119994939D01*
X103073200Y-119587640D01*
X103073200Y-119172360D01*
X102992183Y-118765061D01*
X102833263Y-118381393D01*
X102602546Y-118036101D01*
X102308899Y-117742454D01*
X101963607Y-117511737D01*
X101579939Y-117352817D01*
X101172640Y-117271800D01*
X100757360Y-117271800D01*
X100350061Y-117352817D01*
X99966393Y-117511737D01*
X99621101Y-117742454D01*
X99327454Y-118036101D01*
X99096737Y-118381393D01*
X98937817Y-118765061D01*
X98856800Y-119172360D01*
X97180000Y-119172360D01*
X97180000Y-106621290D01*
X111506000Y-106621290D01*
X111506000Y-107246710D01*
X111628014Y-107860113D01*
X111867352Y-108437926D01*
X112214817Y-108957944D01*
X112657056Y-109400183D01*
X113177074Y-109747648D01*
X113754887Y-109986986D01*
X114368290Y-110109000D01*
X114993710Y-110109000D01*
X115607113Y-109986986D01*
X116184926Y-109747648D01*
X116704944Y-109400183D01*
X117147183Y-108957944D01*
X117494648Y-108437926D01*
X117733986Y-107860113D01*
X117856000Y-107246710D01*
X117856000Y-106621290D01*
X117733986Y-106007887D01*
X117494648Y-105430074D01*
X117147183Y-104910056D01*
X116704944Y-104467817D01*
X116184926Y-104120352D01*
X115607113Y-103881014D01*
X114993710Y-103759000D01*
X114368290Y-103759000D01*
X113754887Y-103881014D01*
X113177074Y-104120352D01*
X112657056Y-104467817D01*
X112214817Y-104910056D01*
X111867352Y-105430074D01*
X111628014Y-106007887D01*
X111506000Y-106621290D01*
X97180000Y-106621290D01*
X97180000Y-85793290D01*
X111506000Y-85793290D01*
X111506000Y-86418710D01*
X111628014Y-87032113D01*
X111867352Y-87609926D01*
X112214817Y-88129944D01*
X112657056Y-88572183D01*
X113177074Y-88919648D01*
X113754887Y-89158986D01*
X114368290Y-89281000D01*
X114993710Y-89281000D01*
X115607113Y-89158986D01*
X116184926Y-88919648D01*
X116704944Y-88572183D01*
X117147183Y-88129944D01*
X117494648Y-87609926D01*
X117733986Y-87032113D01*
X117856000Y-86418710D01*
X117856000Y-85793290D01*
X117733986Y-85179887D01*
X117494648Y-84602074D01*
X117147183Y-84082056D01*
X116704944Y-83639817D01*
X116184926Y-83292352D01*
X115607113Y-83053014D01*
X114993710Y-82931000D01*
X114368290Y-82931000D01*
X113754887Y-83053014D01*
X113177074Y-83292352D01*
X112657056Y-83639817D01*
X112214817Y-84082056D01*
X111867352Y-84602074D01*
X111628014Y-85179887D01*
X111506000Y-85793290D01*
X97180000Y-85793290D01*
X97180000Y-65219290D01*
X111506000Y-65219290D01*
X111506000Y-65844710D01*
X111628014Y-66458113D01*
X111867352Y-67035926D01*
X112214817Y-67555944D01*
X112657056Y-67998183D01*
X113177074Y-68345648D01*
X113754887Y-68584986D01*
X114368290Y-68707000D01*
X114993710Y-68707000D01*
X115607113Y-68584986D01*
X116184926Y-68345648D01*
X116704944Y-67998183D01*
X117147183Y-67555944D01*
X117494648Y-67035926D01*
X117733986Y-66458113D01*
X117856000Y-65844710D01*
X117856000Y-65219290D01*
X117733986Y-64605887D01*
X117494648Y-64028074D01*
X117147183Y-63508056D01*
X116704944Y-63065817D01*
X116184926Y-62718352D01*
X115607113Y-62479014D01*
X114993710Y-62357000D01*
X114368290Y-62357000D01*
X113754887Y-62479014D01*
X113177074Y-62718352D01*
X112657056Y-63065817D01*
X112214817Y-63508056D01*
X111867352Y-64028074D01*
X111628014Y-64605887D01*
X111506000Y-65219290D01*
X97180000Y-65219290D01*
X97180000Y-56942360D01*
X98856800Y-56942360D01*
X98856800Y-57357640D01*
X98937817Y-57764939D01*
X99096737Y-58148607D01*
X99327454Y-58493899D01*
X99621101Y-58787546D01*
X99966393Y-59018263D01*
X100350061Y-59177183D01*
X100757360Y-59258200D01*
X101172640Y-59258200D01*
X101579939Y-59177183D01*
X101963607Y-59018263D01*
X102308899Y-58787546D01*
X102602546Y-58493899D01*
X102833263Y-58148607D01*
X102992183Y-57764939D01*
X103073200Y-57357640D01*
X103073200Y-56942360D01*
X102992183Y-56535061D01*
X102833263Y-56151393D01*
X102602546Y-55806101D01*
X102308899Y-55512454D01*
X101963607Y-55281737D01*
X101579939Y-55122817D01*
X101172640Y-55041800D01*
X100757360Y-55041800D01*
X100350061Y-55122817D01*
X99966393Y-55281737D01*
X99621101Y-55512454D01*
X99327454Y-55806101D01*
X99096737Y-56151393D01*
X98937817Y-56535061D01*
X98856800Y-56942360D01*
X97180000Y-56942360D01*
X97180000Y-44899290D01*
X111506000Y-44899290D01*
X111506000Y-45524710D01*
X111628014Y-46138113D01*
X111867352Y-46715926D01*
X112214817Y-47235944D01*
X112657056Y-47678183D01*
X113177074Y-48025648D01*
X113754887Y-48264986D01*
X114368290Y-48387000D01*
X114993710Y-48387000D01*
X115607113Y-48264986D01*
X116184926Y-48025648D01*
X116704944Y-47678183D01*
X117147183Y-47235944D01*
X117494648Y-46715926D01*
X117733986Y-46138113D01*
X117856000Y-45524710D01*
X117856000Y-44899290D01*
X117733986Y-44285887D01*
X117494648Y-43708074D01*
X117147183Y-43188056D01*
X116704944Y-42745817D01*
X116184926Y-42398352D01*
X115607113Y-42159014D01*
X114993710Y-42037000D01*
X114368290Y-42037000D01*
X113754887Y-42159014D01*
X113177074Y-42398352D01*
X112657056Y-42745817D01*
X112214817Y-43188056D01*
X111867352Y-43708074D01*
X111628014Y-44285887D01*
X111506000Y-44899290D01*
X97180000Y-44899290D01*
X97180000Y-41808061D01*
X139300000Y-41808061D01*
X139300000Y-42011939D01*
X139319001Y-42107464D01*
X139319000Y-59640098D01*
X139314085Y-59690000D01*
X139319000Y-59739901D01*
X139333702Y-59889170D01*
X139391798Y-60080686D01*
X139486140Y-60257190D01*
X139541791Y-60325001D01*
X139486141Y-60392810D01*
X139467899Y-60426939D01*
X139391799Y-60569313D01*
X139333702Y-60760830D01*
X139314085Y-60960000D01*
X139319001Y-61009912D01*
X139319001Y-62667536D01*
X139300000Y-62763061D01*
X139300000Y-62966939D01*
X139319001Y-63062464D01*
X139319000Y-83622538D01*
X139300000Y-83718061D01*
X139300000Y-83921939D01*
X139319000Y-84017461D01*
X139319000Y-102919901D01*
X139319001Y-102919910D01*
X139319000Y-103942540D01*
X139300000Y-104038061D01*
X139300000Y-104241939D01*
X139319001Y-104337464D01*
X139319000Y-125532541D01*
X139300000Y-125628061D01*
X139300000Y-125831939D01*
X139339774Y-126031898D01*
X139417795Y-126220256D01*
X139531063Y-126389774D01*
X139675226Y-126533937D01*
X139844744Y-126647205D01*
X140033102Y-126725226D01*
X140233061Y-126765000D01*
X140436939Y-126765000D01*
X140636898Y-126725226D01*
X140825256Y-126647205D01*
X140994774Y-126533937D01*
X141138937Y-126389774D01*
X141252205Y-126220256D01*
X141330226Y-126031898D01*
X141370000Y-125831939D01*
X141370000Y-125628061D01*
X141351000Y-125532541D01*
X141351000Y-119559615D01*
X144640300Y-119559615D01*
X144640300Y-119962385D01*
X144718877Y-120357417D01*
X144873011Y-120729528D01*
X145096778Y-121064420D01*
X145381580Y-121349222D01*
X145716472Y-121572989D01*
X146088583Y-121727123D01*
X146483615Y-121805700D01*
X146886385Y-121805700D01*
X147281417Y-121727123D01*
X147653528Y-121572989D01*
X147988420Y-121349222D01*
X148273222Y-121064420D01*
X148399500Y-120875431D01*
X148525778Y-121064420D01*
X148810580Y-121349222D01*
X149145472Y-121572989D01*
X149517583Y-121727123D01*
X149912615Y-121805700D01*
X150315385Y-121805700D01*
X150710417Y-121727123D01*
X151082528Y-121572989D01*
X151417420Y-121349222D01*
X151702222Y-121064420D01*
X151925989Y-120729528D01*
X152080123Y-120357417D01*
X152158700Y-119962385D01*
X152158700Y-119834268D01*
X155471000Y-119834268D01*
X155471000Y-120195732D01*
X155541518Y-120550250D01*
X155679844Y-120884199D01*
X155880662Y-121184744D01*
X156136256Y-121440338D01*
X156436801Y-121641156D01*
X156770750Y-121779482D01*
X157125268Y-121850000D01*
X157486732Y-121850000D01*
X157841250Y-121779482D01*
X158175199Y-121641156D01*
X158475744Y-121440338D01*
X158731338Y-121184744D01*
X158932156Y-120884199D01*
X159070482Y-120550250D01*
X159141000Y-120195732D01*
X159141000Y-119834268D01*
X159070482Y-119479750D01*
X158932156Y-119145801D01*
X158731338Y-118845256D01*
X158701082Y-118815000D01*
X160467928Y-118815000D01*
X160467928Y-121215000D01*
X160480188Y-121339482D01*
X160516498Y-121459180D01*
X160575463Y-121569494D01*
X160654815Y-121666185D01*
X160751506Y-121745537D01*
X160861820Y-121804502D01*
X160981518Y-121840812D01*
X161106000Y-121853072D01*
X163506000Y-121853072D01*
X163630482Y-121840812D01*
X163750180Y-121804502D01*
X163860494Y-121745537D01*
X163957185Y-121666185D01*
X164036537Y-121569494D01*
X164095502Y-121459180D01*
X164131812Y-121339482D01*
X164144072Y-121215000D01*
X164144072Y-119432615D01*
X182867300Y-119432615D01*
X182867300Y-119835385D01*
X182945877Y-120230417D01*
X183100011Y-120602528D01*
X183323778Y-120937420D01*
X183608580Y-121222222D01*
X183943472Y-121445989D01*
X184315583Y-121600123D01*
X184710615Y-121678700D01*
X185113385Y-121678700D01*
X185508417Y-121600123D01*
X185880528Y-121445989D01*
X186215420Y-121222222D01*
X186500222Y-120937420D01*
X186626500Y-120748431D01*
X186752778Y-120937420D01*
X187037580Y-121222222D01*
X187372472Y-121445989D01*
X187744583Y-121600123D01*
X188139615Y-121678700D01*
X188542385Y-121678700D01*
X188937417Y-121600123D01*
X189309528Y-121445989D01*
X189644420Y-121222222D01*
X189929222Y-120937420D01*
X190152989Y-120602528D01*
X190307123Y-120230417D01*
X190385700Y-119835385D01*
X190385700Y-119432615D01*
X190307123Y-119037583D01*
X190152989Y-118665472D01*
X189929222Y-118330580D01*
X189644420Y-118045778D01*
X189309528Y-117822011D01*
X188937417Y-117667877D01*
X188542385Y-117589300D01*
X188139615Y-117589300D01*
X187744583Y-117667877D01*
X187372472Y-117822011D01*
X187037580Y-118045778D01*
X186752778Y-118330580D01*
X186626500Y-118519569D01*
X186500222Y-118330580D01*
X186215420Y-118045778D01*
X185880528Y-117822011D01*
X185508417Y-117667877D01*
X185113385Y-117589300D01*
X184710615Y-117589300D01*
X184315583Y-117667877D01*
X183943472Y-117822011D01*
X183608580Y-118045778D01*
X183323778Y-118330580D01*
X183100011Y-118665472D01*
X182945877Y-119037583D01*
X182867300Y-119432615D01*
X164144072Y-119432615D01*
X164144072Y-118815000D01*
X164131812Y-118690518D01*
X164095502Y-118570820D01*
X164036537Y-118460506D01*
X163957185Y-118363815D01*
X163860494Y-118284463D01*
X163750180Y-118225498D01*
X163630482Y-118189188D01*
X163506000Y-118176928D01*
X161106000Y-118176928D01*
X160981518Y-118189188D01*
X160861820Y-118225498D01*
X160751506Y-118284463D01*
X160654815Y-118363815D01*
X160575463Y-118460506D01*
X160516498Y-118570820D01*
X160480188Y-118690518D01*
X160467928Y-118815000D01*
X158701082Y-118815000D01*
X158475744Y-118589662D01*
X158175199Y-118388844D01*
X157841250Y-118250518D01*
X157486732Y-118180000D01*
X157125268Y-118180000D01*
X156770750Y-118250518D01*
X156436801Y-118388844D01*
X156136256Y-118589662D01*
X155880662Y-118845256D01*
X155679844Y-119145801D01*
X155541518Y-119479750D01*
X155471000Y-119834268D01*
X152158700Y-119834268D01*
X152158700Y-119559615D01*
X152080123Y-119164583D01*
X151925989Y-118792472D01*
X151702222Y-118457580D01*
X151417420Y-118172778D01*
X151082528Y-117949011D01*
X150710417Y-117794877D01*
X150315385Y-117716300D01*
X149912615Y-117716300D01*
X149517583Y-117794877D01*
X149145472Y-117949011D01*
X148810580Y-118172778D01*
X148525778Y-118457580D01*
X148399500Y-118646569D01*
X148273222Y-118457580D01*
X147988420Y-118172778D01*
X147653528Y-117949011D01*
X147281417Y-117794877D01*
X146886385Y-117716300D01*
X146483615Y-117716300D01*
X146088583Y-117794877D01*
X145716472Y-117949011D01*
X145381580Y-118172778D01*
X145096778Y-118457580D01*
X144873011Y-118792472D01*
X144718877Y-119164583D01*
X144640300Y-119559615D01*
X141351000Y-119559615D01*
X141351000Y-106097615D01*
X144640300Y-106097615D01*
X144640300Y-106500385D01*
X144718877Y-106895417D01*
X144873011Y-107267528D01*
X145096778Y-107602420D01*
X145381580Y-107887222D01*
X145716472Y-108110989D01*
X146088583Y-108265123D01*
X146483615Y-108343700D01*
X146886385Y-108343700D01*
X147281417Y-108265123D01*
X147653528Y-108110989D01*
X147988420Y-107887222D01*
X148273222Y-107602420D01*
X148399500Y-107413431D01*
X148525778Y-107602420D01*
X148810580Y-107887222D01*
X149145472Y-108110989D01*
X149517583Y-108265123D01*
X149912615Y-108343700D01*
X150315385Y-108343700D01*
X150710417Y-108265123D01*
X151082528Y-108110989D01*
X151417420Y-107887222D01*
X151702222Y-107602420D01*
X151847496Y-107385000D01*
X170627928Y-107385000D01*
X170627928Y-109785000D01*
X170640188Y-109909482D01*
X170676498Y-110029180D01*
X170735463Y-110139494D01*
X170814815Y-110236185D01*
X170911506Y-110315537D01*
X171021820Y-110374502D01*
X171141518Y-110410812D01*
X171266000Y-110423072D01*
X173666000Y-110423072D01*
X173790482Y-110410812D01*
X173910180Y-110374502D01*
X174020494Y-110315537D01*
X174117185Y-110236185D01*
X174196537Y-110139494D01*
X174255502Y-110029180D01*
X174291812Y-109909482D01*
X174304072Y-109785000D01*
X174304072Y-108404268D01*
X175631000Y-108404268D01*
X175631000Y-108765732D01*
X175701518Y-109120250D01*
X175839844Y-109454199D01*
X176040662Y-109754744D01*
X176296256Y-110010338D01*
X176596801Y-110211156D01*
X176930750Y-110349482D01*
X177285268Y-110420000D01*
X177646732Y-110420000D01*
X178001250Y-110349482D01*
X178335199Y-110211156D01*
X178635744Y-110010338D01*
X178891338Y-109754744D01*
X179092156Y-109454199D01*
X179230482Y-109120250D01*
X179301000Y-108765732D01*
X179301000Y-108404268D01*
X179230482Y-108049750D01*
X179092156Y-107715801D01*
X178891338Y-107415256D01*
X178635744Y-107159662D01*
X178335199Y-106958844D01*
X178001250Y-106820518D01*
X177646732Y-106750000D01*
X177285268Y-106750000D01*
X176930750Y-106820518D01*
X176596801Y-106958844D01*
X176296256Y-107159662D01*
X176040662Y-107415256D01*
X175839844Y-107715801D01*
X175701518Y-108049750D01*
X175631000Y-108404268D01*
X174304072Y-108404268D01*
X174304072Y-107385000D01*
X174291812Y-107260518D01*
X174255502Y-107140820D01*
X174196537Y-107030506D01*
X174117185Y-106933815D01*
X174020494Y-106854463D01*
X173910180Y-106795498D01*
X173790482Y-106759188D01*
X173666000Y-106746928D01*
X171266000Y-106746928D01*
X171141518Y-106759188D01*
X171021820Y-106795498D01*
X170911506Y-106854463D01*
X170814815Y-106933815D01*
X170735463Y-107030506D01*
X170676498Y-107140820D01*
X170640188Y-107260518D01*
X170627928Y-107385000D01*
X151847496Y-107385000D01*
X151925989Y-107267528D01*
X152080123Y-106895417D01*
X152158700Y-106500385D01*
X152158700Y-106097615D01*
X152133439Y-105970615D01*
X182867300Y-105970615D01*
X182867300Y-106373385D01*
X182945877Y-106768417D01*
X183100011Y-107140528D01*
X183323778Y-107475420D01*
X183608580Y-107760222D01*
X183943472Y-107983989D01*
X184315583Y-108138123D01*
X184710615Y-108216700D01*
X185113385Y-108216700D01*
X185508417Y-108138123D01*
X185880528Y-107983989D01*
X186215420Y-107760222D01*
X186500222Y-107475420D01*
X186626500Y-107286431D01*
X186752778Y-107475420D01*
X187037580Y-107760222D01*
X187372472Y-107983989D01*
X187744583Y-108138123D01*
X188139615Y-108216700D01*
X188542385Y-108216700D01*
X188937417Y-108138123D01*
X189309528Y-107983989D01*
X189644420Y-107760222D01*
X189929222Y-107475420D01*
X190152989Y-107140528D01*
X190307123Y-106768417D01*
X190385700Y-106373385D01*
X190385700Y-105970615D01*
X190307123Y-105575583D01*
X190152989Y-105203472D01*
X189929222Y-104868580D01*
X189644420Y-104583778D01*
X189309528Y-104360011D01*
X188937417Y-104205877D01*
X188542385Y-104127300D01*
X188139615Y-104127300D01*
X187744583Y-104205877D01*
X187372472Y-104360011D01*
X187037580Y-104583778D01*
X186752778Y-104868580D01*
X186626500Y-105057569D01*
X186500222Y-104868580D01*
X186215420Y-104583778D01*
X185880528Y-104360011D01*
X185508417Y-104205877D01*
X185113385Y-104127300D01*
X184710615Y-104127300D01*
X184315583Y-104205877D01*
X183943472Y-104360011D01*
X183608580Y-104583778D01*
X183323778Y-104868580D01*
X183100011Y-105203472D01*
X182945877Y-105575583D01*
X182867300Y-105970615D01*
X152133439Y-105970615D01*
X152080123Y-105702583D01*
X151925989Y-105330472D01*
X151702222Y-104995580D01*
X151417420Y-104710778D01*
X151082528Y-104487011D01*
X150710417Y-104332877D01*
X150315385Y-104254300D01*
X149912615Y-104254300D01*
X149517583Y-104332877D01*
X149145472Y-104487011D01*
X148810580Y-104710778D01*
X148525778Y-104995580D01*
X148399500Y-105184569D01*
X148273222Y-104995580D01*
X147988420Y-104710778D01*
X147653528Y-104487011D01*
X147281417Y-104332877D01*
X146886385Y-104254300D01*
X146483615Y-104254300D01*
X146088583Y-104332877D01*
X145716472Y-104487011D01*
X145381580Y-104710778D01*
X145096778Y-104995580D01*
X144873011Y-105330472D01*
X144718877Y-105702583D01*
X144640300Y-106097615D01*
X141351000Y-106097615D01*
X141351000Y-104337459D01*
X141370000Y-104241939D01*
X141370000Y-104038061D01*
X141351000Y-103942541D01*
X141351000Y-98731615D01*
X144640300Y-98731615D01*
X144640300Y-99134385D01*
X144718877Y-99529417D01*
X144873011Y-99901528D01*
X145096778Y-100236420D01*
X145381580Y-100521222D01*
X145716472Y-100744989D01*
X146088583Y-100899123D01*
X146483615Y-100977700D01*
X146886385Y-100977700D01*
X147281417Y-100899123D01*
X147653528Y-100744989D01*
X147988420Y-100521222D01*
X148273222Y-100236420D01*
X148399500Y-100047431D01*
X148525778Y-100236420D01*
X148810580Y-100521222D01*
X149145472Y-100744989D01*
X149517583Y-100899123D01*
X149912615Y-100977700D01*
X150315385Y-100977700D01*
X150710417Y-100899123D01*
X151082528Y-100744989D01*
X151417420Y-100521222D01*
X151702222Y-100236420D01*
X151925989Y-99901528D01*
X152080123Y-99529417D01*
X152158700Y-99134385D01*
X152158700Y-98858615D01*
X182867300Y-98858615D01*
X182867300Y-99261385D01*
X182945877Y-99656417D01*
X183100011Y-100028528D01*
X183323778Y-100363420D01*
X183608580Y-100648222D01*
X183943472Y-100871989D01*
X184315583Y-101026123D01*
X184710615Y-101104700D01*
X185113385Y-101104700D01*
X185508417Y-101026123D01*
X185880528Y-100871989D01*
X186215420Y-100648222D01*
X186500222Y-100363420D01*
X186626500Y-100174431D01*
X186752778Y-100363420D01*
X187037580Y-100648222D01*
X187372472Y-100871989D01*
X187744583Y-101026123D01*
X188139615Y-101104700D01*
X188542385Y-101104700D01*
X188937417Y-101026123D01*
X189309528Y-100871989D01*
X189644420Y-100648222D01*
X189929222Y-100363420D01*
X190152989Y-100028528D01*
X190307123Y-99656417D01*
X190385700Y-99261385D01*
X190385700Y-98858615D01*
X190307123Y-98463583D01*
X190152989Y-98091472D01*
X189929222Y-97756580D01*
X189644420Y-97471778D01*
X189309528Y-97248011D01*
X188937417Y-97093877D01*
X188542385Y-97015300D01*
X188139615Y-97015300D01*
X187744583Y-97093877D01*
X187372472Y-97248011D01*
X187037580Y-97471778D01*
X186752778Y-97756580D01*
X186626500Y-97945569D01*
X186500222Y-97756580D01*
X186215420Y-97471778D01*
X185880528Y-97248011D01*
X185508417Y-97093877D01*
X185113385Y-97015300D01*
X184710615Y-97015300D01*
X184315583Y-97093877D01*
X183943472Y-97248011D01*
X183608580Y-97471778D01*
X183323778Y-97756580D01*
X183100011Y-98091472D01*
X182945877Y-98463583D01*
X182867300Y-98858615D01*
X152158700Y-98858615D01*
X152158700Y-98731615D01*
X152080123Y-98336583D01*
X151925989Y-97964472D01*
X151702222Y-97629580D01*
X151417420Y-97344778D01*
X151082528Y-97121011D01*
X150710417Y-96966877D01*
X150315385Y-96888300D01*
X149912615Y-96888300D01*
X149517583Y-96966877D01*
X149145472Y-97121011D01*
X148810580Y-97344778D01*
X148525778Y-97629580D01*
X148399500Y-97818569D01*
X148273222Y-97629580D01*
X147988420Y-97344778D01*
X147653528Y-97121011D01*
X147281417Y-96966877D01*
X146886385Y-96888300D01*
X146483615Y-96888300D01*
X146088583Y-96966877D01*
X145716472Y-97121011D01*
X145381580Y-97344778D01*
X145096778Y-97629580D01*
X144873011Y-97964472D01*
X144718877Y-98336583D01*
X144640300Y-98731615D01*
X141351000Y-98731615D01*
X141351000Y-96339268D01*
X155471000Y-96339268D01*
X155471000Y-96700732D01*
X155541518Y-97055250D01*
X155679844Y-97389199D01*
X155880662Y-97689744D01*
X156136256Y-97945338D01*
X156436801Y-98146156D01*
X156770750Y-98284482D01*
X157125268Y-98355000D01*
X157486732Y-98355000D01*
X157841250Y-98284482D01*
X158175199Y-98146156D01*
X158475744Y-97945338D01*
X158731338Y-97689744D01*
X158932156Y-97389199D01*
X159070482Y-97055250D01*
X159141000Y-96700732D01*
X159141000Y-96339268D01*
X159070482Y-95984750D01*
X158932156Y-95650801D01*
X158731338Y-95350256D01*
X158701082Y-95320000D01*
X160467928Y-95320000D01*
X160467928Y-97720000D01*
X160480188Y-97844482D01*
X160516498Y-97964180D01*
X160575463Y-98074494D01*
X160654815Y-98171185D01*
X160751506Y-98250537D01*
X160861820Y-98309502D01*
X160981518Y-98345812D01*
X161106000Y-98358072D01*
X163506000Y-98358072D01*
X163630482Y-98345812D01*
X163750180Y-98309502D01*
X163860494Y-98250537D01*
X163957185Y-98171185D01*
X164036537Y-98074494D01*
X164095502Y-97964180D01*
X164131812Y-97844482D01*
X164144072Y-97720000D01*
X164144072Y-95320000D01*
X164131812Y-95195518D01*
X164095502Y-95075820D01*
X164036537Y-94965506D01*
X163957185Y-94868815D01*
X163860494Y-94789463D01*
X163750180Y-94730498D01*
X163630482Y-94694188D01*
X163506000Y-94681928D01*
X161106000Y-94681928D01*
X160981518Y-94694188D01*
X160861820Y-94730498D01*
X160751506Y-94789463D01*
X160654815Y-94868815D01*
X160575463Y-94965506D01*
X160516498Y-95075820D01*
X160480188Y-95195518D01*
X160467928Y-95320000D01*
X158701082Y-95320000D01*
X158475744Y-95094662D01*
X158175199Y-94893844D01*
X157841250Y-94755518D01*
X157486732Y-94685000D01*
X157125268Y-94685000D01*
X156770750Y-94755518D01*
X156436801Y-94893844D01*
X156136256Y-95094662D01*
X155880662Y-95350256D01*
X155679844Y-95650801D01*
X155541518Y-95984750D01*
X155471000Y-96339268D01*
X141351000Y-96339268D01*
X141351000Y-85269615D01*
X144640300Y-85269615D01*
X144640300Y-85672385D01*
X144718877Y-86067417D01*
X144873011Y-86439528D01*
X145096778Y-86774420D01*
X145381580Y-87059222D01*
X145716472Y-87282989D01*
X146088583Y-87437123D01*
X146483615Y-87515700D01*
X146886385Y-87515700D01*
X147281417Y-87437123D01*
X147653528Y-87282989D01*
X147988420Y-87059222D01*
X148273222Y-86774420D01*
X148399500Y-86585431D01*
X148525778Y-86774420D01*
X148810580Y-87059222D01*
X149145472Y-87282989D01*
X149517583Y-87437123D01*
X149912615Y-87515700D01*
X150315385Y-87515700D01*
X150710417Y-87437123D01*
X151082528Y-87282989D01*
X151417420Y-87059222D01*
X151702222Y-86774420D01*
X151925989Y-86439528D01*
X152080123Y-86067417D01*
X152158700Y-85672385D01*
X152158700Y-85269615D01*
X152080123Y-84874583D01*
X151925989Y-84502472D01*
X151702222Y-84167580D01*
X151417420Y-83882778D01*
X151082528Y-83659011D01*
X150710417Y-83504877D01*
X150315385Y-83426300D01*
X149912615Y-83426300D01*
X149517583Y-83504877D01*
X149145472Y-83659011D01*
X148810580Y-83882778D01*
X148525778Y-84167580D01*
X148399500Y-84356569D01*
X148273222Y-84167580D01*
X147988420Y-83882778D01*
X147653528Y-83659011D01*
X147281417Y-83504877D01*
X146886385Y-83426300D01*
X146483615Y-83426300D01*
X146088583Y-83504877D01*
X145716472Y-83659011D01*
X145381580Y-83882778D01*
X145096778Y-84167580D01*
X144873011Y-84502472D01*
X144718877Y-84874583D01*
X144640300Y-85269615D01*
X141351000Y-85269615D01*
X141351000Y-84017459D01*
X141370000Y-83921939D01*
X141370000Y-83718061D01*
X141351000Y-83622541D01*
X141351000Y-81839000D01*
X161591928Y-81839000D01*
X161591928Y-85039000D01*
X161604188Y-85163482D01*
X161640498Y-85283180D01*
X161699463Y-85393494D01*
X161778815Y-85490185D01*
X161875506Y-85569537D01*
X161985820Y-85628502D01*
X162105518Y-85664812D01*
X162230000Y-85677072D01*
X165430000Y-85677072D01*
X165554482Y-85664812D01*
X165674180Y-85628502D01*
X165784494Y-85569537D01*
X165881185Y-85490185D01*
X165960537Y-85393494D01*
X166019502Y-85283180D01*
X166055812Y-85163482D01*
X166068072Y-85039000D01*
X166068072Y-81839000D01*
X168576928Y-81839000D01*
X168576928Y-85039000D01*
X168589188Y-85163482D01*
X168625498Y-85283180D01*
X168684463Y-85393494D01*
X168763815Y-85490185D01*
X168860506Y-85569537D01*
X168970820Y-85628502D01*
X169090518Y-85664812D01*
X169215000Y-85677072D01*
X172415000Y-85677072D01*
X172539482Y-85664812D01*
X172659180Y-85628502D01*
X172769494Y-85569537D01*
X172866185Y-85490185D01*
X172942975Y-85396615D01*
X182867300Y-85396615D01*
X182867300Y-85799385D01*
X182945877Y-86194417D01*
X183100011Y-86566528D01*
X183323778Y-86901420D01*
X183608580Y-87186222D01*
X183943472Y-87409989D01*
X184315583Y-87564123D01*
X184710615Y-87642700D01*
X185113385Y-87642700D01*
X185508417Y-87564123D01*
X185880528Y-87409989D01*
X186215420Y-87186222D01*
X186500222Y-86901420D01*
X186626500Y-86712431D01*
X186752778Y-86901420D01*
X187037580Y-87186222D01*
X187372472Y-87409989D01*
X187744583Y-87564123D01*
X188139615Y-87642700D01*
X188542385Y-87642700D01*
X188937417Y-87564123D01*
X189309528Y-87409989D01*
X189644420Y-87186222D01*
X189929222Y-86901420D01*
X190152989Y-86566528D01*
X190307123Y-86194417D01*
X190385700Y-85799385D01*
X190385700Y-85396615D01*
X190307123Y-85001583D01*
X190152989Y-84629472D01*
X189929222Y-84294580D01*
X189644420Y-84009778D01*
X189309528Y-83786011D01*
X188937417Y-83631877D01*
X188542385Y-83553300D01*
X188139615Y-83553300D01*
X187744583Y-83631877D01*
X187372472Y-83786011D01*
X187037580Y-84009778D01*
X186752778Y-84294580D01*
X186626500Y-84483569D01*
X186500222Y-84294580D01*
X186215420Y-84009778D01*
X185880528Y-83786011D01*
X185508417Y-83631877D01*
X185113385Y-83553300D01*
X184710615Y-83553300D01*
X184315583Y-83631877D01*
X183943472Y-83786011D01*
X183608580Y-84009778D01*
X183323778Y-84294580D01*
X183100011Y-84629472D01*
X182945877Y-85001583D01*
X182867300Y-85396615D01*
X172942975Y-85396615D01*
X172945537Y-85393494D01*
X173004502Y-85283180D01*
X173040812Y-85163482D01*
X173053072Y-85039000D01*
X173053072Y-81839000D01*
X173040812Y-81714518D01*
X173004502Y-81594820D01*
X172945537Y-81484506D01*
X172866185Y-81387815D01*
X172769494Y-81308463D01*
X172659180Y-81249498D01*
X172539482Y-81213188D01*
X172415000Y-81200928D01*
X169215000Y-81200928D01*
X169090518Y-81213188D01*
X168970820Y-81249498D01*
X168860506Y-81308463D01*
X168763815Y-81387815D01*
X168684463Y-81484506D01*
X168625498Y-81594820D01*
X168589188Y-81714518D01*
X168576928Y-81839000D01*
X166068072Y-81839000D01*
X166055812Y-81714518D01*
X166019502Y-81594820D01*
X165960537Y-81484506D01*
X165881185Y-81387815D01*
X165784494Y-81308463D01*
X165674180Y-81249498D01*
X165554482Y-81213188D01*
X165430000Y-81200928D01*
X162230000Y-81200928D01*
X162105518Y-81213188D01*
X161985820Y-81249498D01*
X161875506Y-81308463D01*
X161778815Y-81387815D01*
X161699463Y-81484506D01*
X161640498Y-81594820D01*
X161604188Y-81714518D01*
X161591928Y-81839000D01*
X141351000Y-81839000D01*
X141351000Y-78284615D01*
X144640300Y-78284615D01*
X144640300Y-78687385D01*
X144718877Y-79082417D01*
X144873011Y-79454528D01*
X145096778Y-79789420D01*
X145381580Y-80074222D01*
X145716472Y-80297989D01*
X146088583Y-80452123D01*
X146483615Y-80530700D01*
X146886385Y-80530700D01*
X147281417Y-80452123D01*
X147653528Y-80297989D01*
X147988420Y-80074222D01*
X148273222Y-79789420D01*
X148399500Y-79600431D01*
X148525778Y-79789420D01*
X148810580Y-80074222D01*
X149145472Y-80297989D01*
X149517583Y-80452123D01*
X149912615Y-80530700D01*
X150315385Y-80530700D01*
X150710417Y-80452123D01*
X151082528Y-80297989D01*
X151417420Y-80074222D01*
X151702222Y-79789420D01*
X151925989Y-79454528D01*
X152080123Y-79082417D01*
X152158700Y-78687385D01*
X152158700Y-78359000D01*
X161584186Y-78359000D01*
X161627339Y-78797137D01*
X161755138Y-79218436D01*
X161962674Y-79606707D01*
X162241970Y-79947030D01*
X162582293Y-80226326D01*
X162970564Y-80433862D01*
X163391863Y-80561661D01*
X163720204Y-80594000D01*
X163939796Y-80594000D01*
X164268137Y-80561661D01*
X164689436Y-80433862D01*
X165077707Y-80226326D01*
X165418030Y-79947030D01*
X165697326Y-79606707D01*
X165904862Y-79218436D01*
X166032661Y-78797137D01*
X166075814Y-78359000D01*
X168569186Y-78359000D01*
X168612339Y-78797137D01*
X168740138Y-79218436D01*
X168947674Y-79606707D01*
X169226970Y-79947030D01*
X169567293Y-80226326D01*
X169955564Y-80433862D01*
X170376863Y-80561661D01*
X170705204Y-80594000D01*
X170924796Y-80594000D01*
X171253137Y-80561661D01*
X171674436Y-80433862D01*
X172062707Y-80226326D01*
X172403030Y-79947030D01*
X172682326Y-79606707D01*
X172889862Y-79218436D01*
X173017661Y-78797137D01*
X173055631Y-78411615D01*
X182867300Y-78411615D01*
X182867300Y-78814385D01*
X182945877Y-79209417D01*
X183100011Y-79581528D01*
X183323778Y-79916420D01*
X183608580Y-80201222D01*
X183943472Y-80424989D01*
X184315583Y-80579123D01*
X184710615Y-80657700D01*
X185113385Y-80657700D01*
X185508417Y-80579123D01*
X185880528Y-80424989D01*
X186215420Y-80201222D01*
X186500222Y-79916420D01*
X186626500Y-79727431D01*
X186752778Y-79916420D01*
X187037580Y-80201222D01*
X187372472Y-80424989D01*
X187744583Y-80579123D01*
X188139615Y-80657700D01*
X188542385Y-80657700D01*
X188937417Y-80579123D01*
X189309528Y-80424989D01*
X189644420Y-80201222D01*
X189929222Y-79916420D01*
X190152989Y-79581528D01*
X190307123Y-79209417D01*
X190385700Y-78814385D01*
X190385700Y-78411615D01*
X190307123Y-78016583D01*
X190152989Y-77644472D01*
X189929222Y-77309580D01*
X189644420Y-77024778D01*
X189309528Y-76801011D01*
X188937417Y-76646877D01*
X188542385Y-76568300D01*
X188139615Y-76568300D01*
X187744583Y-76646877D01*
X187372472Y-76801011D01*
X187037580Y-77024778D01*
X186752778Y-77309580D01*
X186626500Y-77498569D01*
X186500222Y-77309580D01*
X186215420Y-77024778D01*
X185880528Y-76801011D01*
X185508417Y-76646877D01*
X185113385Y-76568300D01*
X184710615Y-76568300D01*
X184315583Y-76646877D01*
X183943472Y-76801011D01*
X183608580Y-77024778D01*
X183323778Y-77309580D01*
X183100011Y-77644472D01*
X182945877Y-78016583D01*
X182867300Y-78411615D01*
X173055631Y-78411615D01*
X173060814Y-78359000D01*
X173017661Y-77920863D01*
X172889862Y-77499564D01*
X172682326Y-77111293D01*
X172403030Y-76770970D01*
X172062707Y-76491674D01*
X171674436Y-76284138D01*
X171253137Y-76156339D01*
X170924796Y-76124000D01*
X170705204Y-76124000D01*
X170376863Y-76156339D01*
X169955564Y-76284138D01*
X169567293Y-76491674D01*
X169226970Y-76770970D01*
X168947674Y-77111293D01*
X168740138Y-77499564D01*
X168612339Y-77920863D01*
X168569186Y-78359000D01*
X166075814Y-78359000D01*
X166032661Y-77920863D01*
X165904862Y-77499564D01*
X165697326Y-77111293D01*
X165418030Y-76770970D01*
X165077707Y-76491674D01*
X164689436Y-76284138D01*
X164268137Y-76156339D01*
X163939796Y-76124000D01*
X163720204Y-76124000D01*
X163391863Y-76156339D01*
X162970564Y-76284138D01*
X162582293Y-76491674D01*
X162241970Y-76770970D01*
X161962674Y-77111293D01*
X161755138Y-77499564D01*
X161627339Y-77920863D01*
X161584186Y-78359000D01*
X152158700Y-78359000D01*
X152158700Y-78284615D01*
X152080123Y-77889583D01*
X151925989Y-77517472D01*
X151702222Y-77182580D01*
X151417420Y-76897778D01*
X151082528Y-76674011D01*
X150710417Y-76519877D01*
X150315385Y-76441300D01*
X149912615Y-76441300D01*
X149517583Y-76519877D01*
X149145472Y-76674011D01*
X148810580Y-76897778D01*
X148525778Y-77182580D01*
X148399500Y-77371569D01*
X148273222Y-77182580D01*
X147988420Y-76897778D01*
X147653528Y-76674011D01*
X147281417Y-76519877D01*
X146886385Y-76441300D01*
X146483615Y-76441300D01*
X146088583Y-76519877D01*
X145716472Y-76674011D01*
X145381580Y-76897778D01*
X145096778Y-77182580D01*
X144873011Y-77517472D01*
X144718877Y-77889583D01*
X144640300Y-78284615D01*
X141351000Y-78284615D01*
X141351000Y-69050000D01*
X159851928Y-69050000D01*
X159851928Y-70650000D01*
X159864188Y-70774482D01*
X159900498Y-70894180D01*
X159959463Y-71004494D01*
X160038815Y-71101185D01*
X160135506Y-71180537D01*
X160245820Y-71239502D01*
X160365518Y-71275812D01*
X160490000Y-71288072D01*
X162090000Y-71288072D01*
X162214482Y-71275812D01*
X162334180Y-71239502D01*
X162444494Y-71180537D01*
X162541185Y-71101185D01*
X162620537Y-71004494D01*
X162679502Y-70894180D01*
X162715812Y-70774482D01*
X162728072Y-70650000D01*
X162728072Y-69050000D01*
X171916928Y-69050000D01*
X171916928Y-70650000D01*
X171929188Y-70774482D01*
X171965498Y-70894180D01*
X172024463Y-71004494D01*
X172103815Y-71101185D01*
X172200506Y-71180537D01*
X172310820Y-71239502D01*
X172430518Y-71275812D01*
X172555000Y-71288072D01*
X174155000Y-71288072D01*
X174279482Y-71275812D01*
X174399180Y-71239502D01*
X174509494Y-71180537D01*
X174606185Y-71101185D01*
X174685537Y-71004494D01*
X174744502Y-70894180D01*
X174780812Y-70774482D01*
X174793072Y-70650000D01*
X174793072Y-69050000D01*
X174780812Y-68925518D01*
X174744502Y-68805820D01*
X174685537Y-68695506D01*
X174606185Y-68598815D01*
X174509494Y-68519463D01*
X174399180Y-68460498D01*
X174279482Y-68424188D01*
X174155000Y-68411928D01*
X172555000Y-68411928D01*
X172430518Y-68424188D01*
X172310820Y-68460498D01*
X172200506Y-68519463D01*
X172103815Y-68598815D01*
X172024463Y-68695506D01*
X171965498Y-68805820D01*
X171929188Y-68925518D01*
X171916928Y-69050000D01*
X162728072Y-69050000D01*
X162715812Y-68925518D01*
X162679502Y-68805820D01*
X162620537Y-68695506D01*
X162541185Y-68598815D01*
X162444494Y-68519463D01*
X162334180Y-68460498D01*
X162214482Y-68424188D01*
X162090000Y-68411928D01*
X160490000Y-68411928D01*
X160365518Y-68424188D01*
X160245820Y-68460498D01*
X160135506Y-68519463D01*
X160038815Y-68598815D01*
X159959463Y-68695506D01*
X159900498Y-68805820D01*
X159864188Y-68925518D01*
X159851928Y-69050000D01*
X141351000Y-69050000D01*
X141351000Y-64822615D01*
X144640300Y-64822615D01*
X144640300Y-65225385D01*
X144718877Y-65620417D01*
X144873011Y-65992528D01*
X145096778Y-66327420D01*
X145381580Y-66612222D01*
X145716472Y-66835989D01*
X146088583Y-66990123D01*
X146483615Y-67068700D01*
X146886385Y-67068700D01*
X147281417Y-66990123D01*
X147653528Y-66835989D01*
X147988420Y-66612222D01*
X148273222Y-66327420D01*
X148399500Y-66138431D01*
X148525778Y-66327420D01*
X148810580Y-66612222D01*
X149145472Y-66835989D01*
X149517583Y-66990123D01*
X149912615Y-67068700D01*
X150315385Y-67068700D01*
X150710417Y-66990123D01*
X151082528Y-66835989D01*
X151417420Y-66612222D01*
X151702222Y-66327420D01*
X151925989Y-65992528D01*
X152080123Y-65620417D01*
X152158700Y-65225385D01*
X152158700Y-64949615D01*
X182867300Y-64949615D01*
X182867300Y-65352385D01*
X182945877Y-65747417D01*
X183100011Y-66119528D01*
X183323778Y-66454420D01*
X183608580Y-66739222D01*
X183943472Y-66962989D01*
X184315583Y-67117123D01*
X184710615Y-67195700D01*
X185113385Y-67195700D01*
X185508417Y-67117123D01*
X185880528Y-66962989D01*
X186215420Y-66739222D01*
X186500222Y-66454420D01*
X186626500Y-66265431D01*
X186752778Y-66454420D01*
X187037580Y-66739222D01*
X187372472Y-66962989D01*
X187744583Y-67117123D01*
X188139615Y-67195700D01*
X188542385Y-67195700D01*
X188937417Y-67117123D01*
X189309528Y-66962989D01*
X189644420Y-66739222D01*
X189929222Y-66454420D01*
X190152989Y-66119528D01*
X190307123Y-65747417D01*
X190385700Y-65352385D01*
X190385700Y-64949615D01*
X190307123Y-64554583D01*
X190152989Y-64182472D01*
X189929222Y-63847580D01*
X189644420Y-63562778D01*
X189309528Y-63339011D01*
X188937417Y-63184877D01*
X188542385Y-63106300D01*
X188139615Y-63106300D01*
X187744583Y-63184877D01*
X187372472Y-63339011D01*
X187037580Y-63562778D01*
X186752778Y-63847580D01*
X186626500Y-64036569D01*
X186500222Y-63847580D01*
X186215420Y-63562778D01*
X185880528Y-63339011D01*
X185508417Y-63184877D01*
X185113385Y-63106300D01*
X184710615Y-63106300D01*
X184315583Y-63184877D01*
X183943472Y-63339011D01*
X183608580Y-63562778D01*
X183323778Y-63847580D01*
X183100011Y-64182472D01*
X182945877Y-64554583D01*
X182867300Y-64949615D01*
X152158700Y-64949615D01*
X152158700Y-64822615D01*
X152080123Y-64427583D01*
X151925989Y-64055472D01*
X151702222Y-63720580D01*
X151417420Y-63435778D01*
X151082528Y-63212011D01*
X150710417Y-63057877D01*
X150315385Y-62979300D01*
X149912615Y-62979300D01*
X149517583Y-63057877D01*
X149145472Y-63212011D01*
X148810580Y-63435778D01*
X148525778Y-63720580D01*
X148399500Y-63909569D01*
X148273222Y-63720580D01*
X147988420Y-63435778D01*
X147653528Y-63212011D01*
X147281417Y-63057877D01*
X146886385Y-62979300D01*
X146483615Y-62979300D01*
X146088583Y-63057877D01*
X145716472Y-63212011D01*
X145381580Y-63435778D01*
X145096778Y-63720580D01*
X144873011Y-64055472D01*
X144718877Y-64427583D01*
X144640300Y-64822615D01*
X141351000Y-64822615D01*
X141351000Y-63062459D01*
X141370000Y-62966939D01*
X141370000Y-62763061D01*
X141351000Y-62667541D01*
X141351000Y-61380840D01*
X141390840Y-61341000D01*
X157663854Y-61341000D01*
X157511995Y-61568273D01*
X157406686Y-61822510D01*
X157353000Y-62092408D01*
X157353000Y-62367592D01*
X157406686Y-62637490D01*
X157511995Y-62891727D01*
X157664880Y-63120535D01*
X157859465Y-63315120D01*
X158088273Y-63468005D01*
X158342510Y-63573314D01*
X158612408Y-63627000D01*
X158887592Y-63627000D01*
X159157490Y-63573314D01*
X159411727Y-63468005D01*
X159640535Y-63315120D01*
X159835120Y-63120535D01*
X159988005Y-62891727D01*
X160093314Y-62637490D01*
X160147000Y-62367592D01*
X160147000Y-62092408D01*
X160093314Y-61822510D01*
X159988005Y-61568273D01*
X159836146Y-61341000D01*
X162743854Y-61341000D01*
X162591995Y-61568273D01*
X162486686Y-61822510D01*
X162433000Y-62092408D01*
X162433000Y-62367592D01*
X162486686Y-62637490D01*
X162591995Y-62891727D01*
X162744880Y-63120535D01*
X162939465Y-63315120D01*
X163168273Y-63468005D01*
X163422510Y-63573314D01*
X163692408Y-63627000D01*
X163967592Y-63627000D01*
X164237490Y-63573314D01*
X164491727Y-63468005D01*
X164720535Y-63315120D01*
X164915120Y-63120535D01*
X165068005Y-62891727D01*
X165173314Y-62637490D01*
X165227000Y-62367592D01*
X165227000Y-62092408D01*
X165173314Y-61822510D01*
X165068005Y-61568273D01*
X164916146Y-61341000D01*
X168489160Y-61341000D01*
X169418000Y-62269841D01*
X169418000Y-62367592D01*
X169471686Y-62637490D01*
X169576995Y-62891727D01*
X169729880Y-63120535D01*
X169924465Y-63315120D01*
X170153273Y-63468005D01*
X170407510Y-63573314D01*
X170677408Y-63627000D01*
X170952592Y-63627000D01*
X171222490Y-63573314D01*
X171476727Y-63468005D01*
X171705535Y-63315120D01*
X171900120Y-63120535D01*
X172053005Y-62891727D01*
X172158314Y-62637490D01*
X172212000Y-62367592D01*
X172212000Y-62269840D01*
X173140841Y-61341000D01*
X174808854Y-61341000D01*
X174656995Y-61568273D01*
X174551686Y-61822510D01*
X174498000Y-62092408D01*
X174498000Y-62367592D01*
X174551686Y-62637490D01*
X174656995Y-62891727D01*
X174809880Y-63120535D01*
X175004465Y-63315120D01*
X175233273Y-63468005D01*
X175487510Y-63573314D01*
X175757408Y-63627000D01*
X176032592Y-63627000D01*
X176302490Y-63573314D01*
X176556727Y-63468005D01*
X176785535Y-63315120D01*
X176980120Y-63120535D01*
X177133005Y-62891727D01*
X177238314Y-62637490D01*
X177292000Y-62367592D01*
X177292000Y-62092408D01*
X177238314Y-61822510D01*
X177133005Y-61568273D01*
X176981146Y-61341000D01*
X193929001Y-61341000D01*
X193929000Y-81082541D01*
X193910000Y-81178061D01*
X193910000Y-81381939D01*
X193929001Y-81477464D01*
X193929000Y-101402541D01*
X193910000Y-101498061D01*
X193910000Y-101701939D01*
X193929001Y-101797464D01*
X193929000Y-122357541D01*
X193910000Y-122453061D01*
X193910000Y-122656939D01*
X193929001Y-122752464D01*
X193929000Y-143312541D01*
X193910000Y-143408061D01*
X193910000Y-143611939D01*
X193949774Y-143811898D01*
X194027795Y-144000256D01*
X194141063Y-144169774D01*
X194285226Y-144313937D01*
X194454744Y-144427205D01*
X194643102Y-144505226D01*
X194843061Y-144545000D01*
X195046939Y-144545000D01*
X195246898Y-144505226D01*
X195435256Y-144427205D01*
X195604774Y-144313937D01*
X195748937Y-144169774D01*
X195862205Y-144000256D01*
X195940226Y-143811898D01*
X195980000Y-143611939D01*
X195980000Y-143408061D01*
X195961000Y-143312541D01*
X195961000Y-140149290D01*
X217170000Y-140149290D01*
X217170000Y-140774710D01*
X217292014Y-141388113D01*
X217531352Y-141965926D01*
X217878817Y-142485944D01*
X218321056Y-142928183D01*
X218841074Y-143275648D01*
X219418887Y-143514986D01*
X220032290Y-143637000D01*
X220657710Y-143637000D01*
X221271113Y-143514986D01*
X221848926Y-143275648D01*
X222368944Y-142928183D01*
X222811183Y-142485944D01*
X223158648Y-141965926D01*
X223397986Y-141388113D01*
X223520000Y-140774710D01*
X223520000Y-140149290D01*
X223397986Y-139535887D01*
X223158648Y-138958074D01*
X222811183Y-138438056D01*
X222368944Y-137995817D01*
X221848926Y-137648352D01*
X221271113Y-137409014D01*
X220657710Y-137287000D01*
X220032290Y-137287000D01*
X219418887Y-137409014D01*
X218841074Y-137648352D01*
X218321056Y-137995817D01*
X217878817Y-138438056D01*
X217531352Y-138958074D01*
X217292014Y-139535887D01*
X217170000Y-140149290D01*
X195961000Y-140149290D01*
X195961000Y-122752459D01*
X195980000Y-122656939D01*
X195980000Y-122453061D01*
X195961000Y-122357541D01*
X195961000Y-118686290D01*
X217170000Y-118686290D01*
X217170000Y-119311710D01*
X217292014Y-119925113D01*
X217531352Y-120502926D01*
X217878817Y-121022944D01*
X218321056Y-121465183D01*
X218841074Y-121812648D01*
X219418887Y-122051986D01*
X220032290Y-122174000D01*
X220657710Y-122174000D01*
X221271113Y-122051986D01*
X221848926Y-121812648D01*
X222368944Y-121465183D01*
X222811183Y-121022944D01*
X223158648Y-120502926D01*
X223397986Y-119925113D01*
X223520000Y-119311710D01*
X223520000Y-118686290D01*
X223397986Y-118072887D01*
X223158648Y-117495074D01*
X222811183Y-116975056D01*
X222368944Y-116532817D01*
X221848926Y-116185352D01*
X221271113Y-115946014D01*
X220657710Y-115824000D01*
X220032290Y-115824000D01*
X219418887Y-115946014D01*
X218841074Y-116185352D01*
X218321056Y-116532817D01*
X217878817Y-116975056D01*
X217531352Y-117495074D01*
X217292014Y-118072887D01*
X217170000Y-118686290D01*
X195961000Y-118686290D01*
X195961000Y-106472360D01*
X232206800Y-106472360D01*
X232206800Y-106887640D01*
X232287817Y-107294939D01*
X232446737Y-107678607D01*
X232677454Y-108023899D01*
X232971101Y-108317546D01*
X233316393Y-108548263D01*
X233700061Y-108707183D01*
X234107360Y-108788200D01*
X234522640Y-108788200D01*
X234929939Y-108707183D01*
X235313607Y-108548263D01*
X235658899Y-108317546D01*
X235952546Y-108023899D01*
X236183263Y-107678607D01*
X236342183Y-107294939D01*
X236423200Y-106887640D01*
X236423200Y-106472360D01*
X236342183Y-106065061D01*
X236183263Y-105681393D01*
X235952546Y-105336101D01*
X235658899Y-105042454D01*
X235313607Y-104811737D01*
X234929939Y-104652817D01*
X234522640Y-104571800D01*
X234107360Y-104571800D01*
X233700061Y-104652817D01*
X233316393Y-104811737D01*
X232971101Y-105042454D01*
X232677454Y-105336101D01*
X232446737Y-105681393D01*
X232287817Y-106065061D01*
X232206800Y-106472360D01*
X195961000Y-106472360D01*
X195961000Y-101797459D01*
X195980000Y-101701939D01*
X195980000Y-101498061D01*
X195961000Y-101402541D01*
X195961000Y-98112290D01*
X217170000Y-98112290D01*
X217170000Y-98737710D01*
X217292014Y-99351113D01*
X217531352Y-99928926D01*
X217878817Y-100448944D01*
X218321056Y-100891183D01*
X218841074Y-101238648D01*
X219418887Y-101477986D01*
X220032290Y-101600000D01*
X220657710Y-101600000D01*
X221271113Y-101477986D01*
X221848926Y-101238648D01*
X222368944Y-100891183D01*
X222811183Y-100448944D01*
X223158648Y-99928926D01*
X223397986Y-99351113D01*
X223520000Y-98737710D01*
X223520000Y-98112290D01*
X223397986Y-97498887D01*
X223158648Y-96921074D01*
X222811183Y-96401056D01*
X222368944Y-95958817D01*
X221848926Y-95611352D01*
X221271113Y-95372014D01*
X220657710Y-95250000D01*
X220032290Y-95250000D01*
X219418887Y-95372014D01*
X218841074Y-95611352D01*
X218321056Y-95958817D01*
X217878817Y-96401056D01*
X217531352Y-96921074D01*
X217292014Y-97498887D01*
X217170000Y-98112290D01*
X195961000Y-98112290D01*
X195961000Y-81477459D01*
X195980000Y-81381939D01*
X195980000Y-81178061D01*
X195961000Y-81082541D01*
X195961000Y-77665290D01*
X217170000Y-77665290D01*
X217170000Y-78290710D01*
X217292014Y-78904113D01*
X217531352Y-79481926D01*
X217878817Y-80001944D01*
X218321056Y-80444183D01*
X218841074Y-80791648D01*
X219418887Y-81030986D01*
X220032290Y-81153000D01*
X220657710Y-81153000D01*
X221271113Y-81030986D01*
X221848926Y-80791648D01*
X222368944Y-80444183D01*
X222811183Y-80001944D01*
X223158648Y-79481926D01*
X223397986Y-78904113D01*
X223520000Y-78290710D01*
X223520000Y-77665290D01*
X223397986Y-77051887D01*
X223158648Y-76474074D01*
X222811183Y-75954056D01*
X222368944Y-75511817D01*
X221848926Y-75164352D01*
X221271113Y-74925014D01*
X220657710Y-74803000D01*
X220032290Y-74803000D01*
X219418887Y-74925014D01*
X218841074Y-75164352D01*
X218321056Y-75511817D01*
X217878817Y-75954056D01*
X217531352Y-76474074D01*
X217292014Y-77051887D01*
X217170000Y-77665290D01*
X195961000Y-77665290D01*
X195961000Y-65197360D01*
X232206800Y-65197360D01*
X232206800Y-65612640D01*
X232287817Y-66019939D01*
X232446737Y-66403607D01*
X232677454Y-66748899D01*
X232971101Y-67042546D01*
X233316393Y-67273263D01*
X233700061Y-67432183D01*
X234107360Y-67513200D01*
X234522640Y-67513200D01*
X234929939Y-67432183D01*
X235313607Y-67273263D01*
X235658899Y-67042546D01*
X235952546Y-66748899D01*
X236183263Y-66403607D01*
X236342183Y-66019939D01*
X236423200Y-65612640D01*
X236423200Y-65197360D01*
X236342183Y-64790061D01*
X236183263Y-64406393D01*
X235952546Y-64061101D01*
X235658899Y-63767454D01*
X235313607Y-63536737D01*
X234929939Y-63377817D01*
X234522640Y-63296800D01*
X234107360Y-63296800D01*
X233700061Y-63377817D01*
X233316393Y-63536737D01*
X232971101Y-63767454D01*
X232677454Y-64061101D01*
X232446737Y-64406393D01*
X232287817Y-64790061D01*
X232206800Y-65197360D01*
X195961000Y-65197360D01*
X195961000Y-60522459D01*
X195980000Y-60426939D01*
X195980000Y-60223061D01*
X195940226Y-60023102D01*
X195862205Y-59834744D01*
X195748937Y-59665226D01*
X195604774Y-59521063D01*
X195435256Y-59407795D01*
X195246898Y-59329774D01*
X195046939Y-59290000D01*
X194843061Y-59290000D01*
X194747541Y-59309000D01*
X189835642Y-59309000D01*
X189929222Y-59215420D01*
X190152989Y-58880528D01*
X190307123Y-58508417D01*
X190385700Y-58113385D01*
X190385700Y-57710615D01*
X190307123Y-57315583D01*
X190152989Y-56943472D01*
X190082041Y-56837290D01*
X217170000Y-56837290D01*
X217170000Y-57462710D01*
X217292014Y-58076113D01*
X217531352Y-58653926D01*
X217878817Y-59173944D01*
X218321056Y-59616183D01*
X218841074Y-59963648D01*
X219418887Y-60202986D01*
X220032290Y-60325000D01*
X220657710Y-60325000D01*
X221271113Y-60202986D01*
X221848926Y-59963648D01*
X222368944Y-59616183D01*
X222811183Y-59173944D01*
X223158648Y-58653926D01*
X223397986Y-58076113D01*
X223520000Y-57462710D01*
X223520000Y-56837290D01*
X223397986Y-56223887D01*
X223158648Y-55646074D01*
X222811183Y-55126056D01*
X222368944Y-54683817D01*
X221848926Y-54336352D01*
X221271113Y-54097014D01*
X220657710Y-53975000D01*
X220032290Y-53975000D01*
X219418887Y-54097014D01*
X218841074Y-54336352D01*
X218321056Y-54683817D01*
X217878817Y-55126056D01*
X217531352Y-55646074D01*
X217292014Y-56223887D01*
X217170000Y-56837290D01*
X190082041Y-56837290D01*
X189929222Y-56608580D01*
X189644420Y-56323778D01*
X189309528Y-56100011D01*
X188937417Y-55945877D01*
X188542385Y-55867300D01*
X188139615Y-55867300D01*
X187744583Y-55945877D01*
X187372472Y-56100011D01*
X187037580Y-56323778D01*
X186752778Y-56608580D01*
X186626500Y-56797569D01*
X186500222Y-56608580D01*
X186215420Y-56323778D01*
X185880528Y-56100011D01*
X185508417Y-55945877D01*
X185113385Y-55867300D01*
X184710615Y-55867300D01*
X184315583Y-55945877D01*
X183943472Y-56100011D01*
X183608580Y-56323778D01*
X183323778Y-56608580D01*
X183100011Y-56943472D01*
X182945877Y-57315583D01*
X182867300Y-57710615D01*
X182867300Y-58113385D01*
X182945877Y-58508417D01*
X183100011Y-58880528D01*
X183323778Y-59215420D01*
X183417358Y-59309000D01*
X172769902Y-59309000D01*
X172720000Y-59304085D01*
X172670098Y-59309000D01*
X172520829Y-59323702D01*
X172329313Y-59381798D01*
X172152810Y-59476140D01*
X171998104Y-59603104D01*
X171966293Y-59641866D01*
X170815000Y-60793159D01*
X169663712Y-59641872D01*
X169631896Y-59603104D01*
X169477190Y-59476140D01*
X169300687Y-59381798D01*
X169109171Y-59323702D01*
X168959902Y-59309000D01*
X168910000Y-59304085D01*
X168860098Y-59309000D01*
X151608642Y-59309000D01*
X151702222Y-59215420D01*
X151925989Y-58880528D01*
X152080123Y-58508417D01*
X152158700Y-58113385D01*
X152158700Y-57710615D01*
X152080123Y-57315583D01*
X151925989Y-56943472D01*
X151702222Y-56608580D01*
X151417420Y-56323778D01*
X151082528Y-56100011D01*
X150710417Y-55945877D01*
X150315385Y-55867300D01*
X149912615Y-55867300D01*
X149517583Y-55945877D01*
X149145472Y-56100011D01*
X148810580Y-56323778D01*
X148525778Y-56608580D01*
X148399500Y-56797569D01*
X148273222Y-56608580D01*
X147988420Y-56323778D01*
X147653528Y-56100011D01*
X147281417Y-55945877D01*
X146886385Y-55867300D01*
X146483615Y-55867300D01*
X146088583Y-55945877D01*
X145716472Y-56100011D01*
X145381580Y-56323778D01*
X145096778Y-56608580D01*
X144873011Y-56943472D01*
X144718877Y-57315583D01*
X144640300Y-57710615D01*
X144640300Y-58113385D01*
X144718877Y-58508417D01*
X144873011Y-58880528D01*
X145096778Y-59215420D01*
X145190358Y-59309000D01*
X141390840Y-59309000D01*
X141351000Y-59269160D01*
X141351000Y-44248615D01*
X144640300Y-44248615D01*
X144640300Y-44651385D01*
X144718877Y-45046417D01*
X144873011Y-45418528D01*
X145096778Y-45753420D01*
X145381580Y-46038222D01*
X145716472Y-46261989D01*
X146088583Y-46416123D01*
X146483615Y-46494700D01*
X146886385Y-46494700D01*
X147281417Y-46416123D01*
X147653528Y-46261989D01*
X147988420Y-46038222D01*
X148273222Y-45753420D01*
X148399500Y-45564431D01*
X148525778Y-45753420D01*
X148810580Y-46038222D01*
X149145472Y-46261989D01*
X149517583Y-46416123D01*
X149912615Y-46494700D01*
X150315385Y-46494700D01*
X150710417Y-46416123D01*
X151082528Y-46261989D01*
X151417420Y-46038222D01*
X151702222Y-45753420D01*
X151925989Y-45418528D01*
X152080123Y-45046417D01*
X152158700Y-44651385D01*
X152158700Y-44248615D01*
X182867300Y-44248615D01*
X182867300Y-44651385D01*
X182945877Y-45046417D01*
X183100011Y-45418528D01*
X183323778Y-45753420D01*
X183608580Y-46038222D01*
X183943472Y-46261989D01*
X184315583Y-46416123D01*
X184710615Y-46494700D01*
X185113385Y-46494700D01*
X185508417Y-46416123D01*
X185880528Y-46261989D01*
X186215420Y-46038222D01*
X186500222Y-45753420D01*
X186626500Y-45564431D01*
X186752778Y-45753420D01*
X187037580Y-46038222D01*
X187372472Y-46261989D01*
X187744583Y-46416123D01*
X188139615Y-46494700D01*
X188542385Y-46494700D01*
X188937417Y-46416123D01*
X189309528Y-46261989D01*
X189644420Y-46038222D01*
X189929222Y-45753420D01*
X190152989Y-45418528D01*
X190307123Y-45046417D01*
X190385700Y-44651385D01*
X190385700Y-44248615D01*
X190307123Y-43853583D01*
X190152989Y-43481472D01*
X189929222Y-43146580D01*
X189644420Y-42861778D01*
X189309528Y-42638011D01*
X188937417Y-42483877D01*
X188542385Y-42405300D01*
X188139615Y-42405300D01*
X187744583Y-42483877D01*
X187372472Y-42638011D01*
X187037580Y-42861778D01*
X186752778Y-43146580D01*
X186626500Y-43335569D01*
X186500222Y-43146580D01*
X186215420Y-42861778D01*
X185880528Y-42638011D01*
X185508417Y-42483877D01*
X185113385Y-42405300D01*
X184710615Y-42405300D01*
X184315583Y-42483877D01*
X183943472Y-42638011D01*
X183608580Y-42861778D01*
X183323778Y-43146580D01*
X183100011Y-43481472D01*
X182945877Y-43853583D01*
X182867300Y-44248615D01*
X152158700Y-44248615D01*
X152080123Y-43853583D01*
X151925989Y-43481472D01*
X151702222Y-43146580D01*
X151417420Y-42861778D01*
X151082528Y-42638011D01*
X150710417Y-42483877D01*
X150315385Y-42405300D01*
X149912615Y-42405300D01*
X149517583Y-42483877D01*
X149145472Y-42638011D01*
X148810580Y-42861778D01*
X148525778Y-43146580D01*
X148399500Y-43335569D01*
X148273222Y-43146580D01*
X147988420Y-42861778D01*
X147653528Y-42638011D01*
X147281417Y-42483877D01*
X146886385Y-42405300D01*
X146483615Y-42405300D01*
X146088583Y-42483877D01*
X145716472Y-42638011D01*
X145381580Y-42861778D01*
X145096778Y-43146580D01*
X144873011Y-43481472D01*
X144718877Y-43853583D01*
X144640300Y-44248615D01*
X141351000Y-44248615D01*
X141351000Y-42107459D01*
X141370000Y-42011939D01*
X141370000Y-41808061D01*
X141357457Y-41745000D01*
X163661928Y-41745000D01*
X163661928Y-43345000D01*
X163674188Y-43469482D01*
X163710498Y-43589180D01*
X163769463Y-43699494D01*
X163848815Y-43796185D01*
X163945506Y-43875537D01*
X164055820Y-43934502D01*
X164175518Y-43970812D01*
X164300000Y-43983072D01*
X165900000Y-43983072D01*
X166024482Y-43970812D01*
X166144180Y-43934502D01*
X166254494Y-43875537D01*
X166351185Y-43796185D01*
X166430537Y-43699494D01*
X166489502Y-43589180D01*
X166525812Y-43469482D01*
X166538072Y-43345000D01*
X166538072Y-41745000D01*
X166525812Y-41620518D01*
X166489502Y-41500820D01*
X166430537Y-41390506D01*
X166351185Y-41293815D01*
X166254494Y-41214463D01*
X166144180Y-41155498D01*
X166024482Y-41119188D01*
X165900000Y-41106928D01*
X164300000Y-41106928D01*
X164175518Y-41119188D01*
X164055820Y-41155498D01*
X163945506Y-41214463D01*
X163848815Y-41293815D01*
X163769463Y-41390506D01*
X163710498Y-41500820D01*
X163674188Y-41620518D01*
X163661928Y-41745000D01*
X141357457Y-41745000D01*
X141330226Y-41608102D01*
X141252205Y-41419744D01*
X141138937Y-41250226D01*
X140994774Y-41106063D01*
X140825256Y-40992795D01*
X140636898Y-40914774D01*
X140436939Y-40875000D01*
X140233061Y-40875000D01*
X140033102Y-40914774D01*
X139844744Y-40992795D01*
X139675226Y-41106063D01*
X139531063Y-41250226D01*
X139417795Y-41419744D01*
X139339774Y-41608102D01*
X139300000Y-41808061D01*
X97180000Y-41808061D01*
X97180000Y-34576279D01*
X97209003Y-34280480D01*
X98419920Y-34280480D01*
X98419920Y-34695760D01*
X98500937Y-35103059D01*
X98659857Y-35486727D01*
X98890574Y-35832019D01*
X99184221Y-36125666D01*
X99529513Y-36356383D01*
X99913181Y-36515303D01*
X100320480Y-36596320D01*
X100735760Y-36596320D01*
X101143059Y-36515303D01*
X101526727Y-36356383D01*
X101768253Y-36195000D01*
X114429509Y-36195000D01*
X114451423Y-36417499D01*
X114516324Y-36631447D01*
X114522297Y-36642621D01*
X114480498Y-36720820D01*
X114444188Y-36840518D01*
X114431928Y-36965000D01*
X114431928Y-37965000D01*
X114444188Y-38089482D01*
X114480498Y-38209180D01*
X114539463Y-38319494D01*
X114618815Y-38416185D01*
X114715506Y-38495537D01*
X114825820Y-38554502D01*
X114945518Y-38590812D01*
X115070000Y-38603072D01*
X116070000Y-38603072D01*
X116194482Y-38590812D01*
X116314180Y-38554502D01*
X116392379Y-38512703D01*
X116403553Y-38518676D01*
X116617501Y-38583577D01*
X116784248Y-38600000D01*
X116895752Y-38600000D01*
X117062499Y-38583577D01*
X117276447Y-38518676D01*
X117473623Y-38413284D01*
X117475000Y-38412154D01*
X117476377Y-38413284D01*
X117673553Y-38518676D01*
X117887501Y-38583577D01*
X118054248Y-38600000D01*
X118165752Y-38600000D01*
X118332499Y-38583577D01*
X118546447Y-38518676D01*
X118743623Y-38413284D01*
X118745000Y-38412154D01*
X118746377Y-38413284D01*
X118943553Y-38518676D01*
X119157501Y-38583577D01*
X119324248Y-38600000D01*
X119435752Y-38600000D01*
X119602499Y-38583577D01*
X119816447Y-38518676D01*
X120013623Y-38413284D01*
X120015000Y-38412154D01*
X120016377Y-38413284D01*
X120213553Y-38518676D01*
X120427501Y-38583577D01*
X120594248Y-38600000D01*
X120705752Y-38600000D01*
X120872499Y-38583577D01*
X121086447Y-38518676D01*
X121283623Y-38413284D01*
X121456449Y-38271449D01*
X121598284Y-38098623D01*
X121703676Y-37901447D01*
X121768577Y-37687499D01*
X121790491Y-37465000D01*
X121768577Y-37242501D01*
X121703676Y-37028553D01*
X121598284Y-36831377D01*
X121597154Y-36830000D01*
X121598284Y-36828623D01*
X121703676Y-36631447D01*
X121768577Y-36417499D01*
X121790491Y-36195000D01*
X121768577Y-35972501D01*
X121703676Y-35758553D01*
X121598284Y-35561377D01*
X121456449Y-35388551D01*
X121283623Y-35246716D01*
X121086447Y-35141324D01*
X120872499Y-35076423D01*
X120705752Y-35060000D01*
X120594248Y-35060000D01*
X120427501Y-35076423D01*
X120213553Y-35141324D01*
X120016377Y-35246716D01*
X120015000Y-35247846D01*
X120013623Y-35246716D01*
X119816447Y-35141324D01*
X119602499Y-35076423D01*
X119435752Y-35060000D01*
X119324248Y-35060000D01*
X119157501Y-35076423D01*
X118943553Y-35141324D01*
X118746377Y-35246716D01*
X118745000Y-35247846D01*
X118743623Y-35246716D01*
X118546447Y-35141324D01*
X118332499Y-35076423D01*
X118165752Y-35060000D01*
X118054248Y-35060000D01*
X117887501Y-35076423D01*
X117673553Y-35141324D01*
X117476377Y-35246716D01*
X117475000Y-35247846D01*
X117473623Y-35246716D01*
X117276447Y-35141324D01*
X117062499Y-35076423D01*
X116895752Y-35060000D01*
X116784248Y-35060000D01*
X116617501Y-35076423D01*
X116403553Y-35141324D01*
X116206377Y-35246716D01*
X116205000Y-35247846D01*
X116203623Y-35246716D01*
X116006447Y-35141324D01*
X115792499Y-35076423D01*
X115625752Y-35060000D01*
X115514248Y-35060000D01*
X115347501Y-35076423D01*
X115133553Y-35141324D01*
X114936377Y-35246716D01*
X114763551Y-35388551D01*
X114621716Y-35561377D01*
X114516324Y-35758553D01*
X114451423Y-35972501D01*
X114429509Y-36195000D01*
X101768253Y-36195000D01*
X101872019Y-36125666D01*
X102165666Y-35832019D01*
X102396383Y-35486727D01*
X102555303Y-35103059D01*
X102636320Y-34695760D01*
X102636320Y-34280480D01*
X102605394Y-34125000D01*
X150199928Y-34125000D01*
X150199928Y-35725000D01*
X150212188Y-35849482D01*
X150248498Y-35969180D01*
X150307463Y-36079494D01*
X150386815Y-36176185D01*
X150483506Y-36255537D01*
X150593820Y-36314502D01*
X150713518Y-36350812D01*
X150838000Y-36363072D01*
X152438000Y-36363072D01*
X152562482Y-36350812D01*
X152682180Y-36314502D01*
X152792494Y-36255537D01*
X152889185Y-36176185D01*
X152968537Y-36079494D01*
X153027502Y-35969180D01*
X153063812Y-35849482D01*
X153076072Y-35725000D01*
X153076072Y-34787408D01*
X157353000Y-34787408D01*
X157353000Y-35062592D01*
X157406686Y-35332490D01*
X157511995Y-35586727D01*
X157664880Y-35815535D01*
X157859465Y-36010120D01*
X158088273Y-36163005D01*
X158342510Y-36268314D01*
X158612408Y-36322000D01*
X158887592Y-36322000D01*
X159157490Y-36268314D01*
X159334484Y-36195000D01*
X176659509Y-36195000D01*
X176681423Y-36417499D01*
X176746324Y-36631447D01*
X176752297Y-36642621D01*
X176710498Y-36720820D01*
X176674188Y-36840518D01*
X176661928Y-36965000D01*
X176661928Y-37965000D01*
X176674188Y-38089482D01*
X176710498Y-38209180D01*
X176769463Y-38319494D01*
X176848815Y-38416185D01*
X176945506Y-38495537D01*
X177055820Y-38554502D01*
X177175518Y-38590812D01*
X177300000Y-38603072D01*
X178300000Y-38603072D01*
X178424482Y-38590812D01*
X178544180Y-38554502D01*
X178622379Y-38512703D01*
X178633553Y-38518676D01*
X178847501Y-38583577D01*
X179014248Y-38600000D01*
X179125752Y-38600000D01*
X179292499Y-38583577D01*
X179506447Y-38518676D01*
X179703623Y-38413284D01*
X179705000Y-38412154D01*
X179706377Y-38413284D01*
X179903553Y-38518676D01*
X180117501Y-38583577D01*
X180284248Y-38600000D01*
X180395752Y-38600000D01*
X180562499Y-38583577D01*
X180776447Y-38518676D01*
X180973623Y-38413284D01*
X180975000Y-38412154D01*
X180976377Y-38413284D01*
X181173553Y-38518676D01*
X181387501Y-38583577D01*
X181554248Y-38600000D01*
X181665752Y-38600000D01*
X181832499Y-38583577D01*
X182046447Y-38518676D01*
X182243623Y-38413284D01*
X182245000Y-38412154D01*
X182246377Y-38413284D01*
X182443553Y-38518676D01*
X182657501Y-38583577D01*
X182824248Y-38600000D01*
X182935752Y-38600000D01*
X183102499Y-38583577D01*
X183316447Y-38518676D01*
X183513623Y-38413284D01*
X183686449Y-38271449D01*
X183828284Y-38098623D01*
X183933676Y-37901447D01*
X183998577Y-37687499D01*
X184020491Y-37465000D01*
X183998577Y-37242501D01*
X183933676Y-37028553D01*
X183828284Y-36831377D01*
X183827154Y-36830000D01*
X183828284Y-36828623D01*
X183933676Y-36631447D01*
X183998577Y-36417499D01*
X184020491Y-36195000D01*
X183998577Y-35972501D01*
X183933676Y-35758553D01*
X183828284Y-35561377D01*
X183686449Y-35388551D01*
X183513623Y-35246716D01*
X183316447Y-35141324D01*
X183102499Y-35076423D01*
X182935752Y-35060000D01*
X182824248Y-35060000D01*
X182657501Y-35076423D01*
X182443553Y-35141324D01*
X182246377Y-35246716D01*
X182245000Y-35247846D01*
X182243623Y-35246716D01*
X182046447Y-35141324D01*
X181832499Y-35076423D01*
X181665752Y-35060000D01*
X181554248Y-35060000D01*
X181387501Y-35076423D01*
X181173553Y-35141324D01*
X180976377Y-35246716D01*
X180975000Y-35247846D01*
X180973623Y-35246716D01*
X180776447Y-35141324D01*
X180562499Y-35076423D01*
X180395752Y-35060000D01*
X180284248Y-35060000D01*
X180117501Y-35076423D01*
X179903553Y-35141324D01*
X179706377Y-35246716D01*
X179705000Y-35247846D01*
X179703623Y-35246716D01*
X179506447Y-35141324D01*
X179292499Y-35076423D01*
X179125752Y-35060000D01*
X179014248Y-35060000D01*
X178847501Y-35076423D01*
X178633553Y-35141324D01*
X178436377Y-35246716D01*
X178435000Y-35247846D01*
X178433623Y-35246716D01*
X178236447Y-35141324D01*
X178022499Y-35076423D01*
X177855752Y-35060000D01*
X177744248Y-35060000D01*
X177577501Y-35076423D01*
X177363553Y-35141324D01*
X177166377Y-35246716D01*
X176993551Y-35388551D01*
X176851716Y-35561377D01*
X176746324Y-35758553D01*
X176681423Y-35972501D01*
X176659509Y-36195000D01*
X159334484Y-36195000D01*
X159411727Y-36163005D01*
X159640535Y-36010120D01*
X159835120Y-35815535D01*
X159988005Y-35586727D01*
X160093314Y-35332490D01*
X160147000Y-35062592D01*
X160147000Y-34787408D01*
X160093314Y-34517510D01*
X159995133Y-34280480D01*
X232389680Y-34280480D01*
X232389680Y-34695760D01*
X232470697Y-35103059D01*
X232629617Y-35486727D01*
X232860334Y-35832019D01*
X233153981Y-36125666D01*
X233499273Y-36356383D01*
X233882941Y-36515303D01*
X234290240Y-36596320D01*
X234705520Y-36596320D01*
X235112819Y-36515303D01*
X235496487Y-36356383D01*
X235841779Y-36125666D01*
X236135426Y-35832019D01*
X236366143Y-35486727D01*
X236525063Y-35103059D01*
X236606080Y-34695760D01*
X236606080Y-34280480D01*
X236525063Y-33873181D01*
X236366143Y-33489513D01*
X236135426Y-33144221D01*
X235841779Y-32850574D01*
X235496487Y-32619857D01*
X235112819Y-32460937D01*
X234705520Y-32379920D01*
X234290240Y-32379920D01*
X233882941Y-32460937D01*
X233499273Y-32619857D01*
X233153981Y-32850574D01*
X232860334Y-33144221D01*
X232629617Y-33489513D01*
X232470697Y-33873181D01*
X232389680Y-34280480D01*
X159995133Y-34280480D01*
X159988005Y-34263273D01*
X159835120Y-34034465D01*
X159640535Y-33839880D01*
X159411727Y-33686995D01*
X159157490Y-33581686D01*
X158887592Y-33528000D01*
X158612408Y-33528000D01*
X158342510Y-33581686D01*
X158088273Y-33686995D01*
X157859465Y-33839880D01*
X157664880Y-34034465D01*
X157511995Y-34263273D01*
X157406686Y-34517510D01*
X157353000Y-34787408D01*
X153076072Y-34787408D01*
X153076072Y-34125000D01*
X153063812Y-34000518D01*
X153027502Y-33880820D01*
X152968537Y-33770506D01*
X152889185Y-33673815D01*
X152792494Y-33594463D01*
X152682180Y-33535498D01*
X152562482Y-33499188D01*
X152438000Y-33486928D01*
X150838000Y-33486928D01*
X150713518Y-33499188D01*
X150593820Y-33535498D01*
X150483506Y-33594463D01*
X150386815Y-33673815D01*
X150307463Y-33770506D01*
X150248498Y-33880820D01*
X150212188Y-34000518D01*
X150199928Y-34125000D01*
X102605394Y-34125000D01*
X102555303Y-33873181D01*
X102396383Y-33489513D01*
X102165666Y-33144221D01*
X101872019Y-32850574D01*
X101526727Y-32619857D01*
X101143059Y-32460937D01*
X100735760Y-32379920D01*
X100320480Y-32379920D01*
X99913181Y-32460937D01*
X99529513Y-32619857D01*
X99184221Y-32850574D01*
X98890574Y-33144221D01*
X98659857Y-33489513D01*
X98500937Y-33873181D01*
X98419920Y-34280480D01*
X97209003Y-34280480D01*
X97247933Y-33883442D01*
X97439772Y-33248040D01*
X97751373Y-32662006D01*
X98170870Y-32147653D01*
X98682275Y-31724581D01*
X99266123Y-31408896D01*
X99900170Y-31212625D01*
X100591155Y-31140000D01*
X234536721Y-31140000D01*
X235204891Y-31205515D01*
X235204891Y-31205515D01*
G37*
X235204891Y-31205515D02*
X235816565Y-31390190D01*
X236380710Y-31690151D01*
X236875856Y-32093982D01*
X237283133Y-32586297D01*
X237587026Y-33148336D01*
X237775969Y-33758709D01*
X237846001Y-34425022D01*
X237846000Y-166210721D01*
X237780485Y-166878892D01*
X237595812Y-167490561D01*
X237295848Y-168054711D01*
X236892018Y-168549855D01*
X236399703Y-168957133D01*
X235837664Y-169261026D01*
X235227292Y-169449969D01*
X234560978Y-169520001D01*
X100605619Y-169519998D01*
X99924651Y-169475336D01*
X99306955Y-169310376D01*
X98733071Y-169028582D01*
X98224843Y-168640682D01*
X97801644Y-168161460D01*
X97479584Y-167609161D01*
X97270932Y-167004828D01*
X97180825Y-166351066D01*
X97180000Y-166114840D01*
X97180000Y-165964240D01*
X98419920Y-165964240D01*
X98419920Y-166379520D01*
X98500937Y-166786819D01*
X98659857Y-167170487D01*
X98890574Y-167515779D01*
X99184221Y-167809426D01*
X99529513Y-168040143D01*
X99913181Y-168199063D01*
X100320480Y-168280080D01*
X100735760Y-168280080D01*
X101143059Y-168199063D01*
X101526727Y-168040143D01*
X101872019Y-167809426D01*
X102165666Y-167515779D01*
X102396383Y-167170487D01*
X102555303Y-166786819D01*
X102636320Y-166379520D01*
X102636320Y-165964240D01*
X102555303Y-165556941D01*
X102396383Y-165173273D01*
X102165666Y-164827981D01*
X101872019Y-164534334D01*
X101526727Y-164303617D01*
X101143059Y-164144697D01*
X100735760Y-164063680D01*
X100320480Y-164063680D01*
X99913181Y-164144697D01*
X99529513Y-164303617D01*
X99184221Y-164534334D01*
X98890574Y-164827981D01*
X98659857Y-165173273D01*
X98500937Y-165556941D01*
X98419920Y-165964240D01*
X97180000Y-165964240D01*
X97180000Y-155881853D01*
X167767000Y-155881853D01*
X167767000Y-157808147D01*
X168142802Y-159697429D01*
X168879963Y-161477093D01*
X169950155Y-163078749D01*
X171312251Y-164440845D01*
X172913907Y-165511037D01*
X174693571Y-166248198D01*
X176582853Y-166624000D01*
X178509147Y-166624000D01*
X180398429Y-166248198D01*
X181083964Y-165964240D01*
X232389680Y-165964240D01*
X232389680Y-166379520D01*
X232470697Y-166786819D01*
X232629617Y-167170487D01*
X232860334Y-167515779D01*
X233153981Y-167809426D01*
X233499273Y-168040143D01*
X233882941Y-168199063D01*
X234290240Y-168280080D01*
X234705520Y-168280080D01*
X235112819Y-168199063D01*
X235496487Y-168040143D01*
X235841779Y-167809426D01*
X236135426Y-167515779D01*
X236366143Y-167170487D01*
X236525063Y-166786819D01*
X236606080Y-166379520D01*
X236606080Y-165964240D01*
X236525063Y-165556941D01*
X236366143Y-165173273D01*
X236135426Y-164827981D01*
X235841779Y-164534334D01*
X235496487Y-164303617D01*
X235112819Y-164144697D01*
X234705520Y-164063680D01*
X234290240Y-164063680D01*
X233882941Y-164144697D01*
X233499273Y-164303617D01*
X233153981Y-164534334D01*
X232860334Y-164827981D01*
X232629617Y-165173273D01*
X232470697Y-165556941D01*
X232389680Y-165964240D01*
X181083964Y-165964240D01*
X182178093Y-165511037D01*
X183779749Y-164440845D01*
X185141845Y-163078749D01*
X186212037Y-161477093D01*
X186949198Y-159697429D01*
X187325000Y-157808147D01*
X187325000Y-155881853D01*
X186949198Y-153992571D01*
X186212037Y-152212907D01*
X185141845Y-150611251D01*
X183779749Y-149249155D01*
X182178093Y-148178963D01*
X180398429Y-147441802D01*
X178509147Y-147066000D01*
X176582853Y-147066000D01*
X174693571Y-147441802D01*
X172913907Y-148178963D01*
X171312251Y-149249155D01*
X169950155Y-150611251D01*
X168879963Y-152212907D01*
X168142802Y-153992571D01*
X167767000Y-155881853D01*
X97180000Y-155881853D01*
X97180000Y-140895615D01*
X144640300Y-140895615D01*
X144640300Y-141298385D01*
X144718877Y-141693417D01*
X144873011Y-142065528D01*
X145096778Y-142400420D01*
X145381580Y-142685222D01*
X145716472Y-142908989D01*
X146088583Y-143063123D01*
X146483615Y-143141700D01*
X146886385Y-143141700D01*
X147281417Y-143063123D01*
X147653528Y-142908989D01*
X147988420Y-142685222D01*
X148273222Y-142400420D01*
X148399500Y-142211431D01*
X148525778Y-142400420D01*
X148810580Y-142685222D01*
X149145472Y-142908989D01*
X149517583Y-143063123D01*
X149912615Y-143141700D01*
X150315385Y-143141700D01*
X150710417Y-143063123D01*
X151082528Y-142908989D01*
X151417420Y-142685222D01*
X151702222Y-142400420D01*
X151925989Y-142065528D01*
X152080123Y-141693417D01*
X152158700Y-141298385D01*
X152158700Y-140895615D01*
X152133439Y-140768615D01*
X182867300Y-140768615D01*
X182867300Y-141171385D01*
X182945877Y-141566417D01*
X183100011Y-141938528D01*
X183323778Y-142273420D01*
X183608580Y-142558222D01*
X183943472Y-142781989D01*
X184315583Y-142936123D01*
X184710615Y-143014700D01*
X185113385Y-143014700D01*
X185508417Y-142936123D01*
X185880528Y-142781989D01*
X186215420Y-142558222D01*
X186500222Y-142273420D01*
X186626500Y-142084431D01*
X186752778Y-142273420D01*
X187037580Y-142558222D01*
X187372472Y-142781989D01*
X187744583Y-142936123D01*
X188139615Y-143014700D01*
X188542385Y-143014700D01*
X188937417Y-142936123D01*
X189309528Y-142781989D01*
X189644420Y-142558222D01*
X189929222Y-142273420D01*
X190152989Y-141938528D01*
X190307123Y-141566417D01*
X190385700Y-141171385D01*
X190385700Y-140768615D01*
X190307123Y-140373583D01*
X190152989Y-140001472D01*
X189929222Y-139666580D01*
X189644420Y-139381778D01*
X189309528Y-139158011D01*
X188937417Y-139003877D01*
X188542385Y-138925300D01*
X188139615Y-138925300D01*
X187744583Y-139003877D01*
X187372472Y-139158011D01*
X187037580Y-139381778D01*
X186752778Y-139666580D01*
X186626500Y-139855569D01*
X186500222Y-139666580D01*
X186215420Y-139381778D01*
X185880528Y-139158011D01*
X185508417Y-139003877D01*
X185113385Y-138925300D01*
X184710615Y-138925300D01*
X184315583Y-139003877D01*
X183943472Y-139158011D01*
X183608580Y-139381778D01*
X183323778Y-139666580D01*
X183100011Y-140001472D01*
X182945877Y-140373583D01*
X182867300Y-140768615D01*
X152133439Y-140768615D01*
X152080123Y-140500583D01*
X151925989Y-140128472D01*
X151702222Y-139793580D01*
X151417420Y-139508778D01*
X151082528Y-139285011D01*
X150710417Y-139130877D01*
X150315385Y-139052300D01*
X149912615Y-139052300D01*
X149517583Y-139130877D01*
X149145472Y-139285011D01*
X148810580Y-139508778D01*
X148525778Y-139793580D01*
X148399500Y-139982569D01*
X148273222Y-139793580D01*
X147988420Y-139508778D01*
X147653528Y-139285011D01*
X147281417Y-139130877D01*
X146886385Y-139052300D01*
X146483615Y-139052300D01*
X146088583Y-139130877D01*
X145716472Y-139285011D01*
X145381580Y-139508778D01*
X145096778Y-139793580D01*
X144873011Y-140128472D01*
X144718877Y-140500583D01*
X144640300Y-140895615D01*
X97180000Y-140895615D01*
X97180000Y-127957290D01*
X111506000Y-127957290D01*
X111506000Y-128582710D01*
X111628014Y-129196113D01*
X111867352Y-129773926D01*
X112214817Y-130293944D01*
X112657056Y-130736183D01*
X113177074Y-131083648D01*
X113754887Y-131322986D01*
X114368290Y-131445000D01*
X114993710Y-131445000D01*
X115607113Y-131322986D01*
X116184926Y-131083648D01*
X116489706Y-130880000D01*
X170627928Y-130880000D01*
X170627928Y-133280000D01*
X170640188Y-133404482D01*
X170676498Y-133524180D01*
X170735463Y-133634494D01*
X170814815Y-133731185D01*
X170911506Y-133810537D01*
X171021820Y-133869502D01*
X171141518Y-133905812D01*
X171266000Y-133918072D01*
X173666000Y-133918072D01*
X173790482Y-133905812D01*
X173910180Y-133869502D01*
X174020494Y-133810537D01*
X174117185Y-133731185D01*
X174196537Y-133634494D01*
X174255502Y-133524180D01*
X174291812Y-133404482D01*
X174304072Y-133280000D01*
X174304072Y-131899268D01*
X175631000Y-131899268D01*
X175631000Y-132260732D01*
X175701518Y-132615250D01*
X175839844Y-132949199D01*
X176040662Y-133249744D01*
X176296256Y-133505338D01*
X176596801Y-133706156D01*
X176930750Y-133844482D01*
X177285268Y-133915000D01*
X177646732Y-133915000D01*
X178001250Y-133844482D01*
X178335199Y-133706156D01*
X178635744Y-133505338D01*
X178891338Y-133249744D01*
X179092156Y-132949199D01*
X179230482Y-132615250D01*
X179301000Y-132260732D01*
X179301000Y-131899268D01*
X179230482Y-131544750D01*
X179092156Y-131210801D01*
X178891338Y-130910256D01*
X178635744Y-130654662D01*
X178335199Y-130453844D01*
X178001250Y-130315518D01*
X177646732Y-130245000D01*
X177285268Y-130245000D01*
X176930750Y-130315518D01*
X176596801Y-130453844D01*
X176296256Y-130654662D01*
X176040662Y-130910256D01*
X175839844Y-131210801D01*
X175701518Y-131544750D01*
X175631000Y-131899268D01*
X174304072Y-131899268D01*
X174304072Y-130880000D01*
X174291812Y-130755518D01*
X174255502Y-130635820D01*
X174196537Y-130525506D01*
X174117185Y-130428815D01*
X174020494Y-130349463D01*
X173910180Y-130290498D01*
X173790482Y-130254188D01*
X173666000Y-130241928D01*
X171266000Y-130241928D01*
X171141518Y-130254188D01*
X171021820Y-130290498D01*
X170911506Y-130349463D01*
X170814815Y-130428815D01*
X170735463Y-130525506D01*
X170676498Y-130635820D01*
X170640188Y-130755518D01*
X170627928Y-130880000D01*
X116489706Y-130880000D01*
X116704944Y-130736183D01*
X117147183Y-130293944D01*
X117494648Y-129773926D01*
X117733986Y-129196113D01*
X117856000Y-128582710D01*
X117856000Y-127957290D01*
X117751835Y-127433615D01*
X144640300Y-127433615D01*
X144640300Y-127836385D01*
X144718877Y-128231417D01*
X144873011Y-128603528D01*
X145096778Y-128938420D01*
X145381580Y-129223222D01*
X145716472Y-129446989D01*
X146088583Y-129601123D01*
X146483615Y-129679700D01*
X146886385Y-129679700D01*
X147281417Y-129601123D01*
X147653528Y-129446989D01*
X147988420Y-129223222D01*
X148273222Y-128938420D01*
X148399500Y-128749431D01*
X148525778Y-128938420D01*
X148810580Y-129223222D01*
X149145472Y-129446989D01*
X149517583Y-129601123D01*
X149912615Y-129679700D01*
X150315385Y-129679700D01*
X150710417Y-129601123D01*
X151082528Y-129446989D01*
X151417420Y-129223222D01*
X151702222Y-128938420D01*
X151925989Y-128603528D01*
X152080123Y-128231417D01*
X152158700Y-127836385D01*
X152158700Y-127433615D01*
X152133439Y-127306615D01*
X182867300Y-127306615D01*
X182867300Y-127709385D01*
X182945877Y-128104417D01*
X183100011Y-128476528D01*
X183323778Y-128811420D01*
X183608580Y-129096222D01*
X183943472Y-129319989D01*
X184315583Y-129474123D01*
X184710615Y-129552700D01*
X185113385Y-129552700D01*
X185508417Y-129474123D01*
X185880528Y-129319989D01*
X186215420Y-129096222D01*
X186500222Y-128811420D01*
X186626500Y-128622431D01*
X186752778Y-128811420D01*
X187037580Y-129096222D01*
X187372472Y-129319989D01*
X187744583Y-129474123D01*
X188139615Y-129552700D01*
X188542385Y-129552700D01*
X188937417Y-129474123D01*
X189309528Y-129319989D01*
X189644420Y-129096222D01*
X189929222Y-128811420D01*
X190152989Y-128476528D01*
X190307123Y-128104417D01*
X190385700Y-127709385D01*
X190385700Y-127306615D01*
X190307123Y-126911583D01*
X190152989Y-126539472D01*
X189929222Y-126204580D01*
X189644420Y-125919778D01*
X189309528Y-125696011D01*
X188937417Y-125541877D01*
X188542385Y-125463300D01*
X188139615Y-125463300D01*
X187744583Y-125541877D01*
X187372472Y-125696011D01*
X187037580Y-125919778D01*
X186752778Y-126204580D01*
X186626500Y-126393569D01*
X186500222Y-126204580D01*
X186215420Y-125919778D01*
X185880528Y-125696011D01*
X185508417Y-125541877D01*
X185113385Y-125463300D01*
X184710615Y-125463300D01*
X184315583Y-125541877D01*
X183943472Y-125696011D01*
X183608580Y-125919778D01*
X183323778Y-126204580D01*
X183100011Y-126539472D01*
X182945877Y-126911583D01*
X182867300Y-127306615D01*
X152133439Y-127306615D01*
X152080123Y-127038583D01*
X151925989Y-126666472D01*
X151702222Y-126331580D01*
X151417420Y-126046778D01*
X151082528Y-125823011D01*
X150710417Y-125668877D01*
X150315385Y-125590300D01*
X149912615Y-125590300D01*
X149517583Y-125668877D01*
X149145472Y-125823011D01*
X148810580Y-126046778D01*
X148525778Y-126331580D01*
X148399500Y-126520569D01*
X148273222Y-126331580D01*
X147988420Y-126046778D01*
X147653528Y-125823011D01*
X147281417Y-125668877D01*
X146886385Y-125590300D01*
X146483615Y-125590300D01*
X146088583Y-125668877D01*
X145716472Y-125823011D01*
X145381580Y-126046778D01*
X145096778Y-126331580D01*
X144873011Y-126666472D01*
X144718877Y-127038583D01*
X144640300Y-127433615D01*
X117751835Y-127433615D01*
X117733986Y-127343887D01*
X117494648Y-126766074D01*
X117147183Y-126246056D01*
X116704944Y-125803817D01*
X116184926Y-125456352D01*
X115607113Y-125217014D01*
X114993710Y-125095000D01*
X114368290Y-125095000D01*
X113754887Y-125217014D01*
X113177074Y-125456352D01*
X112657056Y-125803817D01*
X112214817Y-126246056D01*
X111867352Y-126766074D01*
X111628014Y-127343887D01*
X111506000Y-127957290D01*
X97180000Y-127957290D01*
X97180000Y-119172360D01*
X98856800Y-119172360D01*
X98856800Y-119587640D01*
X98937817Y-119994939D01*
X99096737Y-120378607D01*
X99327454Y-120723899D01*
X99621101Y-121017546D01*
X99966393Y-121248263D01*
X100350061Y-121407183D01*
X100757360Y-121488200D01*
X101172640Y-121488200D01*
X101579939Y-121407183D01*
X101963607Y-121248263D01*
X102308899Y-121017546D01*
X102602546Y-120723899D01*
X102833263Y-120378607D01*
X102992183Y-119994939D01*
X103073200Y-119587640D01*
X103073200Y-119172360D01*
X102992183Y-118765061D01*
X102833263Y-118381393D01*
X102602546Y-118036101D01*
X102308899Y-117742454D01*
X101963607Y-117511737D01*
X101579939Y-117352817D01*
X101172640Y-117271800D01*
X100757360Y-117271800D01*
X100350061Y-117352817D01*
X99966393Y-117511737D01*
X99621101Y-117742454D01*
X99327454Y-118036101D01*
X99096737Y-118381393D01*
X98937817Y-118765061D01*
X98856800Y-119172360D01*
X97180000Y-119172360D01*
X97180000Y-106621290D01*
X111506000Y-106621290D01*
X111506000Y-107246710D01*
X111628014Y-107860113D01*
X111867352Y-108437926D01*
X112214817Y-108957944D01*
X112657056Y-109400183D01*
X113177074Y-109747648D01*
X113754887Y-109986986D01*
X114368290Y-110109000D01*
X114993710Y-110109000D01*
X115607113Y-109986986D01*
X116184926Y-109747648D01*
X116704944Y-109400183D01*
X117147183Y-108957944D01*
X117494648Y-108437926D01*
X117733986Y-107860113D01*
X117856000Y-107246710D01*
X117856000Y-106621290D01*
X117733986Y-106007887D01*
X117494648Y-105430074D01*
X117147183Y-104910056D01*
X116704944Y-104467817D01*
X116184926Y-104120352D01*
X115607113Y-103881014D01*
X114993710Y-103759000D01*
X114368290Y-103759000D01*
X113754887Y-103881014D01*
X113177074Y-104120352D01*
X112657056Y-104467817D01*
X112214817Y-104910056D01*
X111867352Y-105430074D01*
X111628014Y-106007887D01*
X111506000Y-106621290D01*
X97180000Y-106621290D01*
X97180000Y-85793290D01*
X111506000Y-85793290D01*
X111506000Y-86418710D01*
X111628014Y-87032113D01*
X111867352Y-87609926D01*
X112214817Y-88129944D01*
X112657056Y-88572183D01*
X113177074Y-88919648D01*
X113754887Y-89158986D01*
X114368290Y-89281000D01*
X114993710Y-89281000D01*
X115607113Y-89158986D01*
X116184926Y-88919648D01*
X116704944Y-88572183D01*
X117147183Y-88129944D01*
X117494648Y-87609926D01*
X117733986Y-87032113D01*
X117856000Y-86418710D01*
X117856000Y-85793290D01*
X117733986Y-85179887D01*
X117494648Y-84602074D01*
X117147183Y-84082056D01*
X116704944Y-83639817D01*
X116184926Y-83292352D01*
X115607113Y-83053014D01*
X114993710Y-82931000D01*
X114368290Y-82931000D01*
X113754887Y-83053014D01*
X113177074Y-83292352D01*
X112657056Y-83639817D01*
X112214817Y-84082056D01*
X111867352Y-84602074D01*
X111628014Y-85179887D01*
X111506000Y-85793290D01*
X97180000Y-85793290D01*
X97180000Y-65219290D01*
X111506000Y-65219290D01*
X111506000Y-65844710D01*
X111628014Y-66458113D01*
X111867352Y-67035926D01*
X112214817Y-67555944D01*
X112657056Y-67998183D01*
X113177074Y-68345648D01*
X113754887Y-68584986D01*
X114368290Y-68707000D01*
X114993710Y-68707000D01*
X115607113Y-68584986D01*
X116184926Y-68345648D01*
X116704944Y-67998183D01*
X117147183Y-67555944D01*
X117494648Y-67035926D01*
X117733986Y-66458113D01*
X117856000Y-65844710D01*
X117856000Y-65219290D01*
X117733986Y-64605887D01*
X117494648Y-64028074D01*
X117147183Y-63508056D01*
X116704944Y-63065817D01*
X116184926Y-62718352D01*
X115607113Y-62479014D01*
X114993710Y-62357000D01*
X114368290Y-62357000D01*
X113754887Y-62479014D01*
X113177074Y-62718352D01*
X112657056Y-63065817D01*
X112214817Y-63508056D01*
X111867352Y-64028074D01*
X111628014Y-64605887D01*
X111506000Y-65219290D01*
X97180000Y-65219290D01*
X97180000Y-56942360D01*
X98856800Y-56942360D01*
X98856800Y-57357640D01*
X98937817Y-57764939D01*
X99096737Y-58148607D01*
X99327454Y-58493899D01*
X99621101Y-58787546D01*
X99966393Y-59018263D01*
X100350061Y-59177183D01*
X100757360Y-59258200D01*
X101172640Y-59258200D01*
X101579939Y-59177183D01*
X101963607Y-59018263D01*
X102308899Y-58787546D01*
X102602546Y-58493899D01*
X102833263Y-58148607D01*
X102992183Y-57764939D01*
X103073200Y-57357640D01*
X103073200Y-56942360D01*
X102992183Y-56535061D01*
X102833263Y-56151393D01*
X102602546Y-55806101D01*
X102308899Y-55512454D01*
X101963607Y-55281737D01*
X101579939Y-55122817D01*
X101172640Y-55041800D01*
X100757360Y-55041800D01*
X100350061Y-55122817D01*
X99966393Y-55281737D01*
X99621101Y-55512454D01*
X99327454Y-55806101D01*
X99096737Y-56151393D01*
X98937817Y-56535061D01*
X98856800Y-56942360D01*
X97180000Y-56942360D01*
X97180000Y-44899290D01*
X111506000Y-44899290D01*
X111506000Y-45524710D01*
X111628014Y-46138113D01*
X111867352Y-46715926D01*
X112214817Y-47235944D01*
X112657056Y-47678183D01*
X113177074Y-48025648D01*
X113754887Y-48264986D01*
X114368290Y-48387000D01*
X114993710Y-48387000D01*
X115607113Y-48264986D01*
X116184926Y-48025648D01*
X116704944Y-47678183D01*
X117147183Y-47235944D01*
X117494648Y-46715926D01*
X117733986Y-46138113D01*
X117856000Y-45524710D01*
X117856000Y-44899290D01*
X117733986Y-44285887D01*
X117494648Y-43708074D01*
X117147183Y-43188056D01*
X116704944Y-42745817D01*
X116184926Y-42398352D01*
X115607113Y-42159014D01*
X114993710Y-42037000D01*
X114368290Y-42037000D01*
X113754887Y-42159014D01*
X113177074Y-42398352D01*
X112657056Y-42745817D01*
X112214817Y-43188056D01*
X111867352Y-43708074D01*
X111628014Y-44285887D01*
X111506000Y-44899290D01*
X97180000Y-44899290D01*
X97180000Y-41808061D01*
X139300000Y-41808061D01*
X139300000Y-42011939D01*
X139319001Y-42107464D01*
X139319000Y-59640098D01*
X139314085Y-59690000D01*
X139319000Y-59739901D01*
X139333702Y-59889170D01*
X139391798Y-60080686D01*
X139486140Y-60257190D01*
X139541791Y-60325001D01*
X139486141Y-60392810D01*
X139467899Y-60426939D01*
X139391799Y-60569313D01*
X139333702Y-60760830D01*
X139314085Y-60960000D01*
X139319001Y-61009912D01*
X139319001Y-62667536D01*
X139300000Y-62763061D01*
X139300000Y-62966939D01*
X139319001Y-63062464D01*
X139319000Y-83622538D01*
X139300000Y-83718061D01*
X139300000Y-83921939D01*
X139319000Y-84017461D01*
X139319000Y-102919901D01*
X139319001Y-102919910D01*
X139319000Y-103942540D01*
X139300000Y-104038061D01*
X139300000Y-104241939D01*
X139319001Y-104337464D01*
X139319000Y-125532541D01*
X139300000Y-125628061D01*
X139300000Y-125831939D01*
X139339774Y-126031898D01*
X139417795Y-126220256D01*
X139531063Y-126389774D01*
X139675226Y-126533937D01*
X139844744Y-126647205D01*
X140033102Y-126725226D01*
X140233061Y-126765000D01*
X140436939Y-126765000D01*
X140636898Y-126725226D01*
X140825256Y-126647205D01*
X140994774Y-126533937D01*
X141138937Y-126389774D01*
X141252205Y-126220256D01*
X141330226Y-126031898D01*
X141370000Y-125831939D01*
X141370000Y-125628061D01*
X141351000Y-125532541D01*
X141351000Y-119559615D01*
X144640300Y-119559615D01*
X144640300Y-119962385D01*
X144718877Y-120357417D01*
X144873011Y-120729528D01*
X145096778Y-121064420D01*
X145381580Y-121349222D01*
X145716472Y-121572989D01*
X146088583Y-121727123D01*
X146483615Y-121805700D01*
X146886385Y-121805700D01*
X147281417Y-121727123D01*
X147653528Y-121572989D01*
X147988420Y-121349222D01*
X148273222Y-121064420D01*
X148399500Y-120875431D01*
X148525778Y-121064420D01*
X148810580Y-121349222D01*
X149145472Y-121572989D01*
X149517583Y-121727123D01*
X149912615Y-121805700D01*
X150315385Y-121805700D01*
X150710417Y-121727123D01*
X151082528Y-121572989D01*
X151417420Y-121349222D01*
X151702222Y-121064420D01*
X151925989Y-120729528D01*
X152080123Y-120357417D01*
X152158700Y-119962385D01*
X152158700Y-119834268D01*
X155471000Y-119834268D01*
X155471000Y-120195732D01*
X155541518Y-120550250D01*
X155679844Y-120884199D01*
X155880662Y-121184744D01*
X156136256Y-121440338D01*
X156436801Y-121641156D01*
X156770750Y-121779482D01*
X157125268Y-121850000D01*
X157486732Y-121850000D01*
X157841250Y-121779482D01*
X158175199Y-121641156D01*
X158475744Y-121440338D01*
X158731338Y-121184744D01*
X158932156Y-120884199D01*
X159070482Y-120550250D01*
X159141000Y-120195732D01*
X159141000Y-119834268D01*
X159070482Y-119479750D01*
X158932156Y-119145801D01*
X158731338Y-118845256D01*
X158701082Y-118815000D01*
X160467928Y-118815000D01*
X160467928Y-121215000D01*
X160480188Y-121339482D01*
X160516498Y-121459180D01*
X160575463Y-121569494D01*
X160654815Y-121666185D01*
X160751506Y-121745537D01*
X160861820Y-121804502D01*
X160981518Y-121840812D01*
X161106000Y-121853072D01*
X163506000Y-121853072D01*
X163630482Y-121840812D01*
X163750180Y-121804502D01*
X163860494Y-121745537D01*
X163957185Y-121666185D01*
X164036537Y-121569494D01*
X164095502Y-121459180D01*
X164131812Y-121339482D01*
X164144072Y-121215000D01*
X164144072Y-119432615D01*
X182867300Y-119432615D01*
X182867300Y-119835385D01*
X182945877Y-120230417D01*
X183100011Y-120602528D01*
X183323778Y-120937420D01*
X183608580Y-121222222D01*
X183943472Y-121445989D01*
X184315583Y-121600123D01*
X184710615Y-121678700D01*
X185113385Y-121678700D01*
X185508417Y-121600123D01*
X185880528Y-121445989D01*
X186215420Y-121222222D01*
X186500222Y-120937420D01*
X186626500Y-120748431D01*
X186752778Y-120937420D01*
X187037580Y-121222222D01*
X187372472Y-121445989D01*
X187744583Y-121600123D01*
X188139615Y-121678700D01*
X188542385Y-121678700D01*
X188937417Y-121600123D01*
X189309528Y-121445989D01*
X189644420Y-121222222D01*
X189929222Y-120937420D01*
X190152989Y-120602528D01*
X190307123Y-120230417D01*
X190385700Y-119835385D01*
X190385700Y-119432615D01*
X190307123Y-119037583D01*
X190152989Y-118665472D01*
X189929222Y-118330580D01*
X189644420Y-118045778D01*
X189309528Y-117822011D01*
X188937417Y-117667877D01*
X188542385Y-117589300D01*
X188139615Y-117589300D01*
X187744583Y-117667877D01*
X187372472Y-117822011D01*
X187037580Y-118045778D01*
X186752778Y-118330580D01*
X186626500Y-118519569D01*
X186500222Y-118330580D01*
X186215420Y-118045778D01*
X185880528Y-117822011D01*
X185508417Y-117667877D01*
X185113385Y-117589300D01*
X184710615Y-117589300D01*
X184315583Y-117667877D01*
X183943472Y-117822011D01*
X183608580Y-118045778D01*
X183323778Y-118330580D01*
X183100011Y-118665472D01*
X182945877Y-119037583D01*
X182867300Y-119432615D01*
X164144072Y-119432615D01*
X164144072Y-118815000D01*
X164131812Y-118690518D01*
X164095502Y-118570820D01*
X164036537Y-118460506D01*
X163957185Y-118363815D01*
X163860494Y-118284463D01*
X163750180Y-118225498D01*
X163630482Y-118189188D01*
X163506000Y-118176928D01*
X161106000Y-118176928D01*
X160981518Y-118189188D01*
X160861820Y-118225498D01*
X160751506Y-118284463D01*
X160654815Y-118363815D01*
X160575463Y-118460506D01*
X160516498Y-118570820D01*
X160480188Y-118690518D01*
X160467928Y-118815000D01*
X158701082Y-118815000D01*
X158475744Y-118589662D01*
X158175199Y-118388844D01*
X157841250Y-118250518D01*
X157486732Y-118180000D01*
X157125268Y-118180000D01*
X156770750Y-118250518D01*
X156436801Y-118388844D01*
X156136256Y-118589662D01*
X155880662Y-118845256D01*
X155679844Y-119145801D01*
X155541518Y-119479750D01*
X155471000Y-119834268D01*
X152158700Y-119834268D01*
X152158700Y-119559615D01*
X152080123Y-119164583D01*
X151925989Y-118792472D01*
X151702222Y-118457580D01*
X151417420Y-118172778D01*
X151082528Y-117949011D01*
X150710417Y-117794877D01*
X150315385Y-117716300D01*
X149912615Y-117716300D01*
X149517583Y-117794877D01*
X149145472Y-117949011D01*
X148810580Y-118172778D01*
X148525778Y-118457580D01*
X148399500Y-118646569D01*
X148273222Y-118457580D01*
X147988420Y-118172778D01*
X147653528Y-117949011D01*
X147281417Y-117794877D01*
X146886385Y-117716300D01*
X146483615Y-117716300D01*
X146088583Y-117794877D01*
X145716472Y-117949011D01*
X145381580Y-118172778D01*
X145096778Y-118457580D01*
X144873011Y-118792472D01*
X144718877Y-119164583D01*
X144640300Y-119559615D01*
X141351000Y-119559615D01*
X141351000Y-106097615D01*
X144640300Y-106097615D01*
X144640300Y-106500385D01*
X144718877Y-106895417D01*
X144873011Y-107267528D01*
X145096778Y-107602420D01*
X145381580Y-107887222D01*
X145716472Y-108110989D01*
X146088583Y-108265123D01*
X146483615Y-108343700D01*
X146886385Y-108343700D01*
X147281417Y-108265123D01*
X147653528Y-108110989D01*
X147988420Y-107887222D01*
X148273222Y-107602420D01*
X148399500Y-107413431D01*
X148525778Y-107602420D01*
X148810580Y-107887222D01*
X149145472Y-108110989D01*
X149517583Y-108265123D01*
X149912615Y-108343700D01*
X150315385Y-108343700D01*
X150710417Y-108265123D01*
X151082528Y-108110989D01*
X151417420Y-107887222D01*
X151702222Y-107602420D01*
X151847496Y-107385000D01*
X170627928Y-107385000D01*
X170627928Y-109785000D01*
X170640188Y-109909482D01*
X170676498Y-110029180D01*
X170735463Y-110139494D01*
X170814815Y-110236185D01*
X170911506Y-110315537D01*
X171021820Y-110374502D01*
X171141518Y-110410812D01*
X171266000Y-110423072D01*
X173666000Y-110423072D01*
X173790482Y-110410812D01*
X173910180Y-110374502D01*
X174020494Y-110315537D01*
X174117185Y-110236185D01*
X174196537Y-110139494D01*
X174255502Y-110029180D01*
X174291812Y-109909482D01*
X174304072Y-109785000D01*
X174304072Y-108404268D01*
X175631000Y-108404268D01*
X175631000Y-108765732D01*
X175701518Y-109120250D01*
X175839844Y-109454199D01*
X176040662Y-109754744D01*
X176296256Y-110010338D01*
X176596801Y-110211156D01*
X176930750Y-110349482D01*
X177285268Y-110420000D01*
X177646732Y-110420000D01*
X178001250Y-110349482D01*
X178335199Y-110211156D01*
X178635744Y-110010338D01*
X178891338Y-109754744D01*
X179092156Y-109454199D01*
X179230482Y-109120250D01*
X179301000Y-108765732D01*
X179301000Y-108404268D01*
X179230482Y-108049750D01*
X179092156Y-107715801D01*
X178891338Y-107415256D01*
X178635744Y-107159662D01*
X178335199Y-106958844D01*
X178001250Y-106820518D01*
X177646732Y-106750000D01*
X177285268Y-106750000D01*
X176930750Y-106820518D01*
X176596801Y-106958844D01*
X176296256Y-107159662D01*
X176040662Y-107415256D01*
X175839844Y-107715801D01*
X175701518Y-108049750D01*
X175631000Y-108404268D01*
X174304072Y-108404268D01*
X174304072Y-107385000D01*
X174291812Y-107260518D01*
X174255502Y-107140820D01*
X174196537Y-107030506D01*
X174117185Y-106933815D01*
X174020494Y-106854463D01*
X173910180Y-106795498D01*
X173790482Y-106759188D01*
X173666000Y-106746928D01*
X171266000Y-106746928D01*
X171141518Y-106759188D01*
X171021820Y-106795498D01*
X170911506Y-106854463D01*
X170814815Y-106933815D01*
X170735463Y-107030506D01*
X170676498Y-107140820D01*
X170640188Y-107260518D01*
X170627928Y-107385000D01*
X151847496Y-107385000D01*
X151925989Y-107267528D01*
X152080123Y-106895417D01*
X152158700Y-106500385D01*
X152158700Y-106097615D01*
X152133439Y-105970615D01*
X182867300Y-105970615D01*
X182867300Y-106373385D01*
X182945877Y-106768417D01*
X183100011Y-107140528D01*
X183323778Y-107475420D01*
X183608580Y-107760222D01*
X183943472Y-107983989D01*
X184315583Y-108138123D01*
X184710615Y-108216700D01*
X185113385Y-108216700D01*
X185508417Y-108138123D01*
X185880528Y-107983989D01*
X186215420Y-107760222D01*
X186500222Y-107475420D01*
X186626500Y-107286431D01*
X186752778Y-107475420D01*
X187037580Y-107760222D01*
X187372472Y-107983989D01*
X187744583Y-108138123D01*
X188139615Y-108216700D01*
X188542385Y-108216700D01*
X188937417Y-108138123D01*
X189309528Y-107983989D01*
X189644420Y-107760222D01*
X189929222Y-107475420D01*
X190152989Y-107140528D01*
X190307123Y-106768417D01*
X190385700Y-106373385D01*
X190385700Y-105970615D01*
X190307123Y-105575583D01*
X190152989Y-105203472D01*
X189929222Y-104868580D01*
X189644420Y-104583778D01*
X189309528Y-104360011D01*
X188937417Y-104205877D01*
X188542385Y-104127300D01*
X188139615Y-104127300D01*
X187744583Y-104205877D01*
X187372472Y-104360011D01*
X187037580Y-104583778D01*
X186752778Y-104868580D01*
X186626500Y-105057569D01*
X186500222Y-104868580D01*
X186215420Y-104583778D01*
X185880528Y-104360011D01*
X185508417Y-104205877D01*
X185113385Y-104127300D01*
X184710615Y-104127300D01*
X184315583Y-104205877D01*
X183943472Y-104360011D01*
X183608580Y-104583778D01*
X183323778Y-104868580D01*
X183100011Y-105203472D01*
X182945877Y-105575583D01*
X182867300Y-105970615D01*
X152133439Y-105970615D01*
X152080123Y-105702583D01*
X151925989Y-105330472D01*
X151702222Y-104995580D01*
X151417420Y-104710778D01*
X151082528Y-104487011D01*
X150710417Y-104332877D01*
X150315385Y-104254300D01*
X149912615Y-104254300D01*
X149517583Y-104332877D01*
X149145472Y-104487011D01*
X148810580Y-104710778D01*
X148525778Y-104995580D01*
X148399500Y-105184569D01*
X148273222Y-104995580D01*
X147988420Y-104710778D01*
X147653528Y-104487011D01*
X147281417Y-104332877D01*
X146886385Y-104254300D01*
X146483615Y-104254300D01*
X146088583Y-104332877D01*
X145716472Y-104487011D01*
X145381580Y-104710778D01*
X145096778Y-104995580D01*
X144873011Y-105330472D01*
X144718877Y-105702583D01*
X144640300Y-106097615D01*
X141351000Y-106097615D01*
X141351000Y-104337459D01*
X141370000Y-104241939D01*
X141370000Y-104038061D01*
X141351000Y-103942541D01*
X141351000Y-98731615D01*
X144640300Y-98731615D01*
X144640300Y-99134385D01*
X144718877Y-99529417D01*
X144873011Y-99901528D01*
X145096778Y-100236420D01*
X145381580Y-100521222D01*
X145716472Y-100744989D01*
X146088583Y-100899123D01*
X146483615Y-100977700D01*
X146886385Y-100977700D01*
X147281417Y-100899123D01*
X147653528Y-100744989D01*
X147988420Y-100521222D01*
X148273222Y-100236420D01*
X148399500Y-100047431D01*
X148525778Y-100236420D01*
X148810580Y-100521222D01*
X149145472Y-100744989D01*
X149517583Y-100899123D01*
X149912615Y-100977700D01*
X150315385Y-100977700D01*
X150710417Y-100899123D01*
X151082528Y-100744989D01*
X151417420Y-100521222D01*
X151702222Y-100236420D01*
X151925989Y-99901528D01*
X152080123Y-99529417D01*
X152158700Y-99134385D01*
X152158700Y-98858615D01*
X182867300Y-98858615D01*
X182867300Y-99261385D01*
X182945877Y-99656417D01*
X183100011Y-100028528D01*
X183323778Y-100363420D01*
X183608580Y-100648222D01*
X183943472Y-100871989D01*
X184315583Y-101026123D01*
X184710615Y-101104700D01*
X185113385Y-101104700D01*
X185508417Y-101026123D01*
X185880528Y-100871989D01*
X186215420Y-100648222D01*
X186500222Y-100363420D01*
X186626500Y-100174431D01*
X186752778Y-100363420D01*
X187037580Y-100648222D01*
X187372472Y-100871989D01*
X187744583Y-101026123D01*
X188139615Y-101104700D01*
X188542385Y-101104700D01*
X188937417Y-101026123D01*
X189309528Y-100871989D01*
X189644420Y-100648222D01*
X189929222Y-100363420D01*
X190152989Y-100028528D01*
X190307123Y-99656417D01*
X190385700Y-99261385D01*
X190385700Y-98858615D01*
X190307123Y-98463583D01*
X190152989Y-98091472D01*
X189929222Y-97756580D01*
X189644420Y-97471778D01*
X189309528Y-97248011D01*
X188937417Y-97093877D01*
X188542385Y-97015300D01*
X188139615Y-97015300D01*
X187744583Y-97093877D01*
X187372472Y-97248011D01*
X187037580Y-97471778D01*
X186752778Y-97756580D01*
X186626500Y-97945569D01*
X186500222Y-97756580D01*
X186215420Y-97471778D01*
X185880528Y-97248011D01*
X185508417Y-97093877D01*
X185113385Y-97015300D01*
X184710615Y-97015300D01*
X184315583Y-97093877D01*
X183943472Y-97248011D01*
X183608580Y-97471778D01*
X183323778Y-97756580D01*
X183100011Y-98091472D01*
X182945877Y-98463583D01*
X182867300Y-98858615D01*
X152158700Y-98858615D01*
X152158700Y-98731615D01*
X152080123Y-98336583D01*
X151925989Y-97964472D01*
X151702222Y-97629580D01*
X151417420Y-97344778D01*
X151082528Y-97121011D01*
X150710417Y-96966877D01*
X150315385Y-96888300D01*
X149912615Y-96888300D01*
X149517583Y-96966877D01*
X149145472Y-97121011D01*
X148810580Y-97344778D01*
X148525778Y-97629580D01*
X148399500Y-97818569D01*
X148273222Y-97629580D01*
X147988420Y-97344778D01*
X147653528Y-97121011D01*
X147281417Y-96966877D01*
X146886385Y-96888300D01*
X146483615Y-96888300D01*
X146088583Y-96966877D01*
X145716472Y-97121011D01*
X145381580Y-97344778D01*
X145096778Y-97629580D01*
X144873011Y-97964472D01*
X144718877Y-98336583D01*
X144640300Y-98731615D01*
X141351000Y-98731615D01*
X141351000Y-96339268D01*
X155471000Y-96339268D01*
X155471000Y-96700732D01*
X155541518Y-97055250D01*
X155679844Y-97389199D01*
X155880662Y-97689744D01*
X156136256Y-97945338D01*
X156436801Y-98146156D01*
X156770750Y-98284482D01*
X157125268Y-98355000D01*
X157486732Y-98355000D01*
X157841250Y-98284482D01*
X158175199Y-98146156D01*
X158475744Y-97945338D01*
X158731338Y-97689744D01*
X158932156Y-97389199D01*
X159070482Y-97055250D01*
X159141000Y-96700732D01*
X159141000Y-96339268D01*
X159070482Y-95984750D01*
X158932156Y-95650801D01*
X158731338Y-95350256D01*
X158701082Y-95320000D01*
X160467928Y-95320000D01*
X160467928Y-97720000D01*
X160480188Y-97844482D01*
X160516498Y-97964180D01*
X160575463Y-98074494D01*
X160654815Y-98171185D01*
X160751506Y-98250537D01*
X160861820Y-98309502D01*
X160981518Y-98345812D01*
X161106000Y-98358072D01*
X163506000Y-98358072D01*
X163630482Y-98345812D01*
X163750180Y-98309502D01*
X163860494Y-98250537D01*
X163957185Y-98171185D01*
X164036537Y-98074494D01*
X164095502Y-97964180D01*
X164131812Y-97844482D01*
X164144072Y-97720000D01*
X164144072Y-95320000D01*
X164131812Y-95195518D01*
X164095502Y-95075820D01*
X164036537Y-94965506D01*
X163957185Y-94868815D01*
X163860494Y-94789463D01*
X163750180Y-94730498D01*
X163630482Y-94694188D01*
X163506000Y-94681928D01*
X161106000Y-94681928D01*
X160981518Y-94694188D01*
X160861820Y-94730498D01*
X160751506Y-94789463D01*
X160654815Y-94868815D01*
X160575463Y-94965506D01*
X160516498Y-95075820D01*
X160480188Y-95195518D01*
X160467928Y-95320000D01*
X158701082Y-95320000D01*
X158475744Y-95094662D01*
X158175199Y-94893844D01*
X157841250Y-94755518D01*
X157486732Y-94685000D01*
X157125268Y-94685000D01*
X156770750Y-94755518D01*
X156436801Y-94893844D01*
X156136256Y-95094662D01*
X155880662Y-95350256D01*
X155679844Y-95650801D01*
X155541518Y-95984750D01*
X155471000Y-96339268D01*
X141351000Y-96339268D01*
X141351000Y-85269615D01*
X144640300Y-85269615D01*
X144640300Y-85672385D01*
X144718877Y-86067417D01*
X144873011Y-86439528D01*
X145096778Y-86774420D01*
X145381580Y-87059222D01*
X145716472Y-87282989D01*
X146088583Y-87437123D01*
X146483615Y-87515700D01*
X146886385Y-87515700D01*
X147281417Y-87437123D01*
X147653528Y-87282989D01*
X147988420Y-87059222D01*
X148273222Y-86774420D01*
X148399500Y-86585431D01*
X148525778Y-86774420D01*
X148810580Y-87059222D01*
X149145472Y-87282989D01*
X149517583Y-87437123D01*
X149912615Y-87515700D01*
X150315385Y-87515700D01*
X150710417Y-87437123D01*
X151082528Y-87282989D01*
X151417420Y-87059222D01*
X151702222Y-86774420D01*
X151925989Y-86439528D01*
X152080123Y-86067417D01*
X152158700Y-85672385D01*
X152158700Y-85269615D01*
X152080123Y-84874583D01*
X151925989Y-84502472D01*
X151702222Y-84167580D01*
X151417420Y-83882778D01*
X151082528Y-83659011D01*
X150710417Y-83504877D01*
X150315385Y-83426300D01*
X149912615Y-83426300D01*
X149517583Y-83504877D01*
X149145472Y-83659011D01*
X148810580Y-83882778D01*
X148525778Y-84167580D01*
X148399500Y-84356569D01*
X148273222Y-84167580D01*
X147988420Y-83882778D01*
X147653528Y-83659011D01*
X147281417Y-83504877D01*
X146886385Y-83426300D01*
X146483615Y-83426300D01*
X146088583Y-83504877D01*
X145716472Y-83659011D01*
X145381580Y-83882778D01*
X145096778Y-84167580D01*
X144873011Y-84502472D01*
X144718877Y-84874583D01*
X144640300Y-85269615D01*
X141351000Y-85269615D01*
X141351000Y-84017459D01*
X141370000Y-83921939D01*
X141370000Y-83718061D01*
X141351000Y-83622541D01*
X141351000Y-81839000D01*
X161591928Y-81839000D01*
X161591928Y-85039000D01*
X161604188Y-85163482D01*
X161640498Y-85283180D01*
X161699463Y-85393494D01*
X161778815Y-85490185D01*
X161875506Y-85569537D01*
X161985820Y-85628502D01*
X162105518Y-85664812D01*
X162230000Y-85677072D01*
X165430000Y-85677072D01*
X165554482Y-85664812D01*
X165674180Y-85628502D01*
X165784494Y-85569537D01*
X165881185Y-85490185D01*
X165960537Y-85393494D01*
X166019502Y-85283180D01*
X166055812Y-85163482D01*
X166068072Y-85039000D01*
X166068072Y-81839000D01*
X168576928Y-81839000D01*
X168576928Y-85039000D01*
X168589188Y-85163482D01*
X168625498Y-85283180D01*
X168684463Y-85393494D01*
X168763815Y-85490185D01*
X168860506Y-85569537D01*
X168970820Y-85628502D01*
X169090518Y-85664812D01*
X169215000Y-85677072D01*
X172415000Y-85677072D01*
X172539482Y-85664812D01*
X172659180Y-85628502D01*
X172769494Y-85569537D01*
X172866185Y-85490185D01*
X172942975Y-85396615D01*
X182867300Y-85396615D01*
X182867300Y-85799385D01*
X182945877Y-86194417D01*
X183100011Y-86566528D01*
X183323778Y-86901420D01*
X183608580Y-87186222D01*
X183943472Y-87409989D01*
X184315583Y-87564123D01*
X184710615Y-87642700D01*
X185113385Y-87642700D01*
X185508417Y-87564123D01*
X185880528Y-87409989D01*
X186215420Y-87186222D01*
X186500222Y-86901420D01*
X186626500Y-86712431D01*
X186752778Y-86901420D01*
X187037580Y-87186222D01*
X187372472Y-87409989D01*
X187744583Y-87564123D01*
X188139615Y-87642700D01*
X188542385Y-87642700D01*
X188937417Y-87564123D01*
X189309528Y-87409989D01*
X189644420Y-87186222D01*
X189929222Y-86901420D01*
X190152989Y-86566528D01*
X190307123Y-86194417D01*
X190385700Y-85799385D01*
X190385700Y-85396615D01*
X190307123Y-85001583D01*
X190152989Y-84629472D01*
X189929222Y-84294580D01*
X189644420Y-84009778D01*
X189309528Y-83786011D01*
X188937417Y-83631877D01*
X188542385Y-83553300D01*
X188139615Y-83553300D01*
X187744583Y-83631877D01*
X187372472Y-83786011D01*
X187037580Y-84009778D01*
X186752778Y-84294580D01*
X186626500Y-84483569D01*
X186500222Y-84294580D01*
X186215420Y-84009778D01*
X185880528Y-83786011D01*
X185508417Y-83631877D01*
X185113385Y-83553300D01*
X184710615Y-83553300D01*
X184315583Y-83631877D01*
X183943472Y-83786011D01*
X183608580Y-84009778D01*
X183323778Y-84294580D01*
X183100011Y-84629472D01*
X182945877Y-85001583D01*
X182867300Y-85396615D01*
X172942975Y-85396615D01*
X172945537Y-85393494D01*
X173004502Y-85283180D01*
X173040812Y-85163482D01*
X173053072Y-85039000D01*
X173053072Y-81839000D01*
X173040812Y-81714518D01*
X173004502Y-81594820D01*
X172945537Y-81484506D01*
X172866185Y-81387815D01*
X172769494Y-81308463D01*
X172659180Y-81249498D01*
X172539482Y-81213188D01*
X172415000Y-81200928D01*
X169215000Y-81200928D01*
X169090518Y-81213188D01*
X168970820Y-81249498D01*
X168860506Y-81308463D01*
X168763815Y-81387815D01*
X168684463Y-81484506D01*
X168625498Y-81594820D01*
X168589188Y-81714518D01*
X168576928Y-81839000D01*
X166068072Y-81839000D01*
X166055812Y-81714518D01*
X166019502Y-81594820D01*
X165960537Y-81484506D01*
X165881185Y-81387815D01*
X165784494Y-81308463D01*
X165674180Y-81249498D01*
X165554482Y-81213188D01*
X165430000Y-81200928D01*
X162230000Y-81200928D01*
X162105518Y-81213188D01*
X161985820Y-81249498D01*
X161875506Y-81308463D01*
X161778815Y-81387815D01*
X161699463Y-81484506D01*
X161640498Y-81594820D01*
X161604188Y-81714518D01*
X161591928Y-81839000D01*
X141351000Y-81839000D01*
X141351000Y-78284615D01*
X144640300Y-78284615D01*
X144640300Y-78687385D01*
X144718877Y-79082417D01*
X144873011Y-79454528D01*
X145096778Y-79789420D01*
X145381580Y-80074222D01*
X145716472Y-80297989D01*
X146088583Y-80452123D01*
X146483615Y-80530700D01*
X146886385Y-80530700D01*
X147281417Y-80452123D01*
X147653528Y-80297989D01*
X147988420Y-80074222D01*
X148273222Y-79789420D01*
X148399500Y-79600431D01*
X148525778Y-79789420D01*
X148810580Y-80074222D01*
X149145472Y-80297989D01*
X149517583Y-80452123D01*
X149912615Y-80530700D01*
X150315385Y-80530700D01*
X150710417Y-80452123D01*
X151082528Y-80297989D01*
X151417420Y-80074222D01*
X151702222Y-79789420D01*
X151925989Y-79454528D01*
X152080123Y-79082417D01*
X152158700Y-78687385D01*
X152158700Y-78359000D01*
X161584186Y-78359000D01*
X161627339Y-78797137D01*
X161755138Y-79218436D01*
X161962674Y-79606707D01*
X162241970Y-79947030D01*
X162582293Y-80226326D01*
X162970564Y-80433862D01*
X163391863Y-80561661D01*
X163720204Y-80594000D01*
X163939796Y-80594000D01*
X164268137Y-80561661D01*
X164689436Y-80433862D01*
X165077707Y-80226326D01*
X165418030Y-79947030D01*
X165697326Y-79606707D01*
X165904862Y-79218436D01*
X166032661Y-78797137D01*
X166075814Y-78359000D01*
X168569186Y-78359000D01*
X168612339Y-78797137D01*
X168740138Y-79218436D01*
X168947674Y-79606707D01*
X169226970Y-79947030D01*
X169567293Y-80226326D01*
X169955564Y-80433862D01*
X170376863Y-80561661D01*
X170705204Y-80594000D01*
X170924796Y-80594000D01*
X171253137Y-80561661D01*
X171674436Y-80433862D01*
X172062707Y-80226326D01*
X172403030Y-79947030D01*
X172682326Y-79606707D01*
X172889862Y-79218436D01*
X173017661Y-78797137D01*
X173055631Y-78411615D01*
X182867300Y-78411615D01*
X182867300Y-78814385D01*
X182945877Y-79209417D01*
X183100011Y-79581528D01*
X183323778Y-79916420D01*
X183608580Y-80201222D01*
X183943472Y-80424989D01*
X184315583Y-80579123D01*
X184710615Y-80657700D01*
X185113385Y-80657700D01*
X185508417Y-80579123D01*
X185880528Y-80424989D01*
X186215420Y-80201222D01*
X186500222Y-79916420D01*
X186626500Y-79727431D01*
X186752778Y-79916420D01*
X187037580Y-80201222D01*
X187372472Y-80424989D01*
X187744583Y-80579123D01*
X188139615Y-80657700D01*
X188542385Y-80657700D01*
X188937417Y-80579123D01*
X189309528Y-80424989D01*
X189644420Y-80201222D01*
X189929222Y-79916420D01*
X190152989Y-79581528D01*
X190307123Y-79209417D01*
X190385700Y-78814385D01*
X190385700Y-78411615D01*
X190307123Y-78016583D01*
X190152989Y-77644472D01*
X189929222Y-77309580D01*
X189644420Y-77024778D01*
X189309528Y-76801011D01*
X188937417Y-76646877D01*
X188542385Y-76568300D01*
X188139615Y-76568300D01*
X187744583Y-76646877D01*
X187372472Y-76801011D01*
X187037580Y-77024778D01*
X186752778Y-77309580D01*
X186626500Y-77498569D01*
X186500222Y-77309580D01*
X186215420Y-77024778D01*
X185880528Y-76801011D01*
X185508417Y-76646877D01*
X185113385Y-76568300D01*
X184710615Y-76568300D01*
X184315583Y-76646877D01*
X183943472Y-76801011D01*
X183608580Y-77024778D01*
X183323778Y-77309580D01*
X183100011Y-77644472D01*
X182945877Y-78016583D01*
X182867300Y-78411615D01*
X173055631Y-78411615D01*
X173060814Y-78359000D01*
X173017661Y-77920863D01*
X172889862Y-77499564D01*
X172682326Y-77111293D01*
X172403030Y-76770970D01*
X172062707Y-76491674D01*
X171674436Y-76284138D01*
X171253137Y-76156339D01*
X170924796Y-76124000D01*
X170705204Y-76124000D01*
X170376863Y-76156339D01*
X169955564Y-76284138D01*
X169567293Y-76491674D01*
X169226970Y-76770970D01*
X168947674Y-77111293D01*
X168740138Y-77499564D01*
X168612339Y-77920863D01*
X168569186Y-78359000D01*
X166075814Y-78359000D01*
X166032661Y-77920863D01*
X165904862Y-77499564D01*
X165697326Y-77111293D01*
X165418030Y-76770970D01*
X165077707Y-76491674D01*
X164689436Y-76284138D01*
X164268137Y-76156339D01*
X163939796Y-76124000D01*
X163720204Y-76124000D01*
X163391863Y-76156339D01*
X162970564Y-76284138D01*
X162582293Y-76491674D01*
X162241970Y-76770970D01*
X161962674Y-77111293D01*
X161755138Y-77499564D01*
X161627339Y-77920863D01*
X161584186Y-78359000D01*
X152158700Y-78359000D01*
X152158700Y-78284615D01*
X152080123Y-77889583D01*
X151925989Y-77517472D01*
X151702222Y-77182580D01*
X151417420Y-76897778D01*
X151082528Y-76674011D01*
X150710417Y-76519877D01*
X150315385Y-76441300D01*
X149912615Y-76441300D01*
X149517583Y-76519877D01*
X149145472Y-76674011D01*
X148810580Y-76897778D01*
X148525778Y-77182580D01*
X148399500Y-77371569D01*
X148273222Y-77182580D01*
X147988420Y-76897778D01*
X147653528Y-76674011D01*
X147281417Y-76519877D01*
X146886385Y-76441300D01*
X146483615Y-76441300D01*
X146088583Y-76519877D01*
X145716472Y-76674011D01*
X145381580Y-76897778D01*
X145096778Y-77182580D01*
X144873011Y-77517472D01*
X144718877Y-77889583D01*
X144640300Y-78284615D01*
X141351000Y-78284615D01*
X141351000Y-69050000D01*
X159851928Y-69050000D01*
X159851928Y-70650000D01*
X159864188Y-70774482D01*
X159900498Y-70894180D01*
X159959463Y-71004494D01*
X160038815Y-71101185D01*
X160135506Y-71180537D01*
X160245820Y-71239502D01*
X160365518Y-71275812D01*
X160490000Y-71288072D01*
X162090000Y-71288072D01*
X162214482Y-71275812D01*
X162334180Y-71239502D01*
X162444494Y-71180537D01*
X162541185Y-71101185D01*
X162620537Y-71004494D01*
X162679502Y-70894180D01*
X162715812Y-70774482D01*
X162728072Y-70650000D01*
X162728072Y-69050000D01*
X171916928Y-69050000D01*
X171916928Y-70650000D01*
X171929188Y-70774482D01*
X171965498Y-70894180D01*
X172024463Y-71004494D01*
X172103815Y-71101185D01*
X172200506Y-71180537D01*
X172310820Y-71239502D01*
X172430518Y-71275812D01*
X172555000Y-71288072D01*
X174155000Y-71288072D01*
X174279482Y-71275812D01*
X174399180Y-71239502D01*
X174509494Y-71180537D01*
X174606185Y-71101185D01*
X174685537Y-71004494D01*
X174744502Y-70894180D01*
X174780812Y-70774482D01*
X174793072Y-70650000D01*
X174793072Y-69050000D01*
X174780812Y-68925518D01*
X174744502Y-68805820D01*
X174685537Y-68695506D01*
X174606185Y-68598815D01*
X174509494Y-68519463D01*
X174399180Y-68460498D01*
X174279482Y-68424188D01*
X174155000Y-68411928D01*
X172555000Y-68411928D01*
X172430518Y-68424188D01*
X172310820Y-68460498D01*
X172200506Y-68519463D01*
X172103815Y-68598815D01*
X172024463Y-68695506D01*
X171965498Y-68805820D01*
X171929188Y-68925518D01*
X171916928Y-69050000D01*
X162728072Y-69050000D01*
X162715812Y-68925518D01*
X162679502Y-68805820D01*
X162620537Y-68695506D01*
X162541185Y-68598815D01*
X162444494Y-68519463D01*
X162334180Y-68460498D01*
X162214482Y-68424188D01*
X162090000Y-68411928D01*
X160490000Y-68411928D01*
X160365518Y-68424188D01*
X160245820Y-68460498D01*
X160135506Y-68519463D01*
X160038815Y-68598815D01*
X159959463Y-68695506D01*
X159900498Y-68805820D01*
X159864188Y-68925518D01*
X159851928Y-69050000D01*
X141351000Y-69050000D01*
X141351000Y-64822615D01*
X144640300Y-64822615D01*
X144640300Y-65225385D01*
X144718877Y-65620417D01*
X144873011Y-65992528D01*
X145096778Y-66327420D01*
X145381580Y-66612222D01*
X145716472Y-66835989D01*
X146088583Y-66990123D01*
X146483615Y-67068700D01*
X146886385Y-67068700D01*
X147281417Y-66990123D01*
X147653528Y-66835989D01*
X147988420Y-66612222D01*
X148273222Y-66327420D01*
X148399500Y-66138431D01*
X148525778Y-66327420D01*
X148810580Y-66612222D01*
X149145472Y-66835989D01*
X149517583Y-66990123D01*
X149912615Y-67068700D01*
X150315385Y-67068700D01*
X150710417Y-66990123D01*
X151082528Y-66835989D01*
X151417420Y-66612222D01*
X151702222Y-66327420D01*
X151925989Y-65992528D01*
X152080123Y-65620417D01*
X152158700Y-65225385D01*
X152158700Y-64949615D01*
X182867300Y-64949615D01*
X182867300Y-65352385D01*
X182945877Y-65747417D01*
X183100011Y-66119528D01*
X183323778Y-66454420D01*
X183608580Y-66739222D01*
X183943472Y-66962989D01*
X184315583Y-67117123D01*
X184710615Y-67195700D01*
X185113385Y-67195700D01*
X185508417Y-67117123D01*
X185880528Y-66962989D01*
X186215420Y-66739222D01*
X186500222Y-66454420D01*
X186626500Y-66265431D01*
X186752778Y-66454420D01*
X187037580Y-66739222D01*
X187372472Y-66962989D01*
X187744583Y-67117123D01*
X188139615Y-67195700D01*
X188542385Y-67195700D01*
X188937417Y-67117123D01*
X189309528Y-66962989D01*
X189644420Y-66739222D01*
X189929222Y-66454420D01*
X190152989Y-66119528D01*
X190307123Y-65747417D01*
X190385700Y-65352385D01*
X190385700Y-64949615D01*
X190307123Y-64554583D01*
X190152989Y-64182472D01*
X189929222Y-63847580D01*
X189644420Y-63562778D01*
X189309528Y-63339011D01*
X188937417Y-63184877D01*
X188542385Y-63106300D01*
X188139615Y-63106300D01*
X187744583Y-63184877D01*
X187372472Y-63339011D01*
X187037580Y-63562778D01*
X186752778Y-63847580D01*
X186626500Y-64036569D01*
X186500222Y-63847580D01*
X186215420Y-63562778D01*
X185880528Y-63339011D01*
X185508417Y-63184877D01*
X185113385Y-63106300D01*
X184710615Y-63106300D01*
X184315583Y-63184877D01*
X183943472Y-63339011D01*
X183608580Y-63562778D01*
X183323778Y-63847580D01*
X183100011Y-64182472D01*
X182945877Y-64554583D01*
X182867300Y-64949615D01*
X152158700Y-64949615D01*
X152158700Y-64822615D01*
X152080123Y-64427583D01*
X151925989Y-64055472D01*
X151702222Y-63720580D01*
X151417420Y-63435778D01*
X151082528Y-63212011D01*
X150710417Y-63057877D01*
X150315385Y-62979300D01*
X149912615Y-62979300D01*
X149517583Y-63057877D01*
X149145472Y-63212011D01*
X148810580Y-63435778D01*
X148525778Y-63720580D01*
X148399500Y-63909569D01*
X148273222Y-63720580D01*
X147988420Y-63435778D01*
X147653528Y-63212011D01*
X147281417Y-63057877D01*
X146886385Y-62979300D01*
X146483615Y-62979300D01*
X146088583Y-63057877D01*
X145716472Y-63212011D01*
X145381580Y-63435778D01*
X145096778Y-63720580D01*
X144873011Y-64055472D01*
X144718877Y-64427583D01*
X144640300Y-64822615D01*
X141351000Y-64822615D01*
X141351000Y-63062459D01*
X141370000Y-62966939D01*
X141370000Y-62763061D01*
X141351000Y-62667541D01*
X141351000Y-61380840D01*
X141390840Y-61341000D01*
X157663854Y-61341000D01*
X157511995Y-61568273D01*
X157406686Y-61822510D01*
X157353000Y-62092408D01*
X157353000Y-62367592D01*
X157406686Y-62637490D01*
X157511995Y-62891727D01*
X157664880Y-63120535D01*
X157859465Y-63315120D01*
X158088273Y-63468005D01*
X158342510Y-63573314D01*
X158612408Y-63627000D01*
X158887592Y-63627000D01*
X159157490Y-63573314D01*
X159411727Y-63468005D01*
X159640535Y-63315120D01*
X159835120Y-63120535D01*
X159988005Y-62891727D01*
X160093314Y-62637490D01*
X160147000Y-62367592D01*
X160147000Y-62092408D01*
X160093314Y-61822510D01*
X159988005Y-61568273D01*
X159836146Y-61341000D01*
X162743854Y-61341000D01*
X162591995Y-61568273D01*
X162486686Y-61822510D01*
X162433000Y-62092408D01*
X162433000Y-62367592D01*
X162486686Y-62637490D01*
X162591995Y-62891727D01*
X162744880Y-63120535D01*
X162939465Y-63315120D01*
X163168273Y-63468005D01*
X163422510Y-63573314D01*
X163692408Y-63627000D01*
X163967592Y-63627000D01*
X164237490Y-63573314D01*
X164491727Y-63468005D01*
X164720535Y-63315120D01*
X164915120Y-63120535D01*
X165068005Y-62891727D01*
X165173314Y-62637490D01*
X165227000Y-62367592D01*
X165227000Y-62092408D01*
X165173314Y-61822510D01*
X165068005Y-61568273D01*
X164916146Y-61341000D01*
X168489160Y-61341000D01*
X169418000Y-62269841D01*
X169418000Y-62367592D01*
X169471686Y-62637490D01*
X169576995Y-62891727D01*
X169729880Y-63120535D01*
X169924465Y-63315120D01*
X170153273Y-63468005D01*
X170407510Y-63573314D01*
X170677408Y-63627000D01*
X170952592Y-63627000D01*
X171222490Y-63573314D01*
X171476727Y-63468005D01*
X171705535Y-63315120D01*
X171900120Y-63120535D01*
X172053005Y-62891727D01*
X172158314Y-62637490D01*
X172212000Y-62367592D01*
X172212000Y-62269840D01*
X173140841Y-61341000D01*
X174808854Y-61341000D01*
X174656995Y-61568273D01*
X174551686Y-61822510D01*
X174498000Y-62092408D01*
X174498000Y-62367592D01*
X174551686Y-62637490D01*
X174656995Y-62891727D01*
X174809880Y-63120535D01*
X175004465Y-63315120D01*
X175233273Y-63468005D01*
X175487510Y-63573314D01*
X175757408Y-63627000D01*
X176032592Y-63627000D01*
X176302490Y-63573314D01*
X176556727Y-63468005D01*
X176785535Y-63315120D01*
X176980120Y-63120535D01*
X177133005Y-62891727D01*
X177238314Y-62637490D01*
X177292000Y-62367592D01*
X177292000Y-62092408D01*
X177238314Y-61822510D01*
X177133005Y-61568273D01*
X176981146Y-61341000D01*
X193929001Y-61341000D01*
X193929000Y-81082541D01*
X193910000Y-81178061D01*
X193910000Y-81381939D01*
X193929001Y-81477464D01*
X193929000Y-101402541D01*
X193910000Y-101498061D01*
X193910000Y-101701939D01*
X193929001Y-101797464D01*
X193929000Y-122357541D01*
X193910000Y-122453061D01*
X193910000Y-122656939D01*
X193929001Y-122752464D01*
X193929000Y-143312541D01*
X193910000Y-143408061D01*
X193910000Y-143611939D01*
X193949774Y-143811898D01*
X194027795Y-144000256D01*
X194141063Y-144169774D01*
X194285226Y-144313937D01*
X194454744Y-144427205D01*
X194643102Y-144505226D01*
X194843061Y-144545000D01*
X195046939Y-144545000D01*
X195246898Y-144505226D01*
X195435256Y-144427205D01*
X195604774Y-144313937D01*
X195748937Y-144169774D01*
X195862205Y-144000256D01*
X195940226Y-143811898D01*
X195980000Y-143611939D01*
X195980000Y-143408061D01*
X195961000Y-143312541D01*
X195961000Y-140149290D01*
X217170000Y-140149290D01*
X217170000Y-140774710D01*
X217292014Y-141388113D01*
X217531352Y-141965926D01*
X217878817Y-142485944D01*
X218321056Y-142928183D01*
X218841074Y-143275648D01*
X219418887Y-143514986D01*
X220032290Y-143637000D01*
X220657710Y-143637000D01*
X221271113Y-143514986D01*
X221848926Y-143275648D01*
X222368944Y-142928183D01*
X222811183Y-142485944D01*
X223158648Y-141965926D01*
X223397986Y-141388113D01*
X223520000Y-140774710D01*
X223520000Y-140149290D01*
X223397986Y-139535887D01*
X223158648Y-138958074D01*
X222811183Y-138438056D01*
X222368944Y-137995817D01*
X221848926Y-137648352D01*
X221271113Y-137409014D01*
X220657710Y-137287000D01*
X220032290Y-137287000D01*
X219418887Y-137409014D01*
X218841074Y-137648352D01*
X218321056Y-137995817D01*
X217878817Y-138438056D01*
X217531352Y-138958074D01*
X217292014Y-139535887D01*
X217170000Y-140149290D01*
X195961000Y-140149290D01*
X195961000Y-122752459D01*
X195980000Y-122656939D01*
X195980000Y-122453061D01*
X195961000Y-122357541D01*
X195961000Y-118686290D01*
X217170000Y-118686290D01*
X217170000Y-119311710D01*
X217292014Y-119925113D01*
X217531352Y-120502926D01*
X217878817Y-121022944D01*
X218321056Y-121465183D01*
X218841074Y-121812648D01*
X219418887Y-122051986D01*
X220032290Y-122174000D01*
X220657710Y-122174000D01*
X221271113Y-122051986D01*
X221848926Y-121812648D01*
X222368944Y-121465183D01*
X222811183Y-121022944D01*
X223158648Y-120502926D01*
X223397986Y-119925113D01*
X223520000Y-119311710D01*
X223520000Y-118686290D01*
X223397986Y-118072887D01*
X223158648Y-117495074D01*
X222811183Y-116975056D01*
X222368944Y-116532817D01*
X221848926Y-116185352D01*
X221271113Y-115946014D01*
X220657710Y-115824000D01*
X220032290Y-115824000D01*
X219418887Y-115946014D01*
X218841074Y-116185352D01*
X218321056Y-116532817D01*
X217878817Y-116975056D01*
X217531352Y-117495074D01*
X217292014Y-118072887D01*
X217170000Y-118686290D01*
X195961000Y-118686290D01*
X195961000Y-106472360D01*
X232206800Y-106472360D01*
X232206800Y-106887640D01*
X232287817Y-107294939D01*
X232446737Y-107678607D01*
X232677454Y-108023899D01*
X232971101Y-108317546D01*
X233316393Y-108548263D01*
X233700061Y-108707183D01*
X234107360Y-108788200D01*
X234522640Y-108788200D01*
X234929939Y-108707183D01*
X235313607Y-108548263D01*
X235658899Y-108317546D01*
X235952546Y-108023899D01*
X236183263Y-107678607D01*
X236342183Y-107294939D01*
X236423200Y-106887640D01*
X236423200Y-106472360D01*
X236342183Y-106065061D01*
X236183263Y-105681393D01*
X235952546Y-105336101D01*
X235658899Y-105042454D01*
X235313607Y-104811737D01*
X234929939Y-104652817D01*
X234522640Y-104571800D01*
X234107360Y-104571800D01*
X233700061Y-104652817D01*
X233316393Y-104811737D01*
X232971101Y-105042454D01*
X232677454Y-105336101D01*
X232446737Y-105681393D01*
X232287817Y-106065061D01*
X232206800Y-106472360D01*
X195961000Y-106472360D01*
X195961000Y-101797459D01*
X195980000Y-101701939D01*
X195980000Y-101498061D01*
X195961000Y-101402541D01*
X195961000Y-98112290D01*
X217170000Y-98112290D01*
X217170000Y-98737710D01*
X217292014Y-99351113D01*
X217531352Y-99928926D01*
X217878817Y-100448944D01*
X218321056Y-100891183D01*
X218841074Y-101238648D01*
X219418887Y-101477986D01*
X220032290Y-101600000D01*
X220657710Y-101600000D01*
X221271113Y-101477986D01*
X221848926Y-101238648D01*
X222368944Y-100891183D01*
X222811183Y-100448944D01*
X223158648Y-99928926D01*
X223397986Y-99351113D01*
X223520000Y-98737710D01*
X223520000Y-98112290D01*
X223397986Y-97498887D01*
X223158648Y-96921074D01*
X222811183Y-96401056D01*
X222368944Y-95958817D01*
X221848926Y-95611352D01*
X221271113Y-95372014D01*
X220657710Y-95250000D01*
X220032290Y-95250000D01*
X219418887Y-95372014D01*
X218841074Y-95611352D01*
X218321056Y-95958817D01*
X217878817Y-96401056D01*
X217531352Y-96921074D01*
X217292014Y-97498887D01*
X217170000Y-98112290D01*
X195961000Y-98112290D01*
X195961000Y-81477459D01*
X195980000Y-81381939D01*
X195980000Y-81178061D01*
X195961000Y-81082541D01*
X195961000Y-77665290D01*
X217170000Y-77665290D01*
X217170000Y-78290710D01*
X217292014Y-78904113D01*
X217531352Y-79481926D01*
X217878817Y-80001944D01*
X218321056Y-80444183D01*
X218841074Y-80791648D01*
X219418887Y-81030986D01*
X220032290Y-81153000D01*
X220657710Y-81153000D01*
X221271113Y-81030986D01*
X221848926Y-80791648D01*
X222368944Y-80444183D01*
X222811183Y-80001944D01*
X223158648Y-79481926D01*
X223397986Y-78904113D01*
X223520000Y-78290710D01*
X223520000Y-77665290D01*
X223397986Y-77051887D01*
X223158648Y-76474074D01*
X222811183Y-75954056D01*
X222368944Y-75511817D01*
X221848926Y-75164352D01*
X221271113Y-74925014D01*
X220657710Y-74803000D01*
X220032290Y-74803000D01*
X219418887Y-74925014D01*
X218841074Y-75164352D01*
X218321056Y-75511817D01*
X217878817Y-75954056D01*
X217531352Y-76474074D01*
X217292014Y-77051887D01*
X217170000Y-77665290D01*
X195961000Y-77665290D01*
X195961000Y-65197360D01*
X232206800Y-65197360D01*
X232206800Y-65612640D01*
X232287817Y-66019939D01*
X232446737Y-66403607D01*
X232677454Y-66748899D01*
X232971101Y-67042546D01*
X233316393Y-67273263D01*
X233700061Y-67432183D01*
X234107360Y-67513200D01*
X234522640Y-67513200D01*
X234929939Y-67432183D01*
X235313607Y-67273263D01*
X235658899Y-67042546D01*
X235952546Y-66748899D01*
X236183263Y-66403607D01*
X236342183Y-66019939D01*
X236423200Y-65612640D01*
X236423200Y-65197360D01*
X236342183Y-64790061D01*
X236183263Y-64406393D01*
X235952546Y-64061101D01*
X235658899Y-63767454D01*
X235313607Y-63536737D01*
X234929939Y-63377817D01*
X234522640Y-63296800D01*
X234107360Y-63296800D01*
X233700061Y-63377817D01*
X233316393Y-63536737D01*
X232971101Y-63767454D01*
X232677454Y-64061101D01*
X232446737Y-64406393D01*
X232287817Y-64790061D01*
X232206800Y-65197360D01*
X195961000Y-65197360D01*
X195961000Y-60522459D01*
X195980000Y-60426939D01*
X195980000Y-60223061D01*
X195940226Y-60023102D01*
X195862205Y-59834744D01*
X195748937Y-59665226D01*
X195604774Y-59521063D01*
X195435256Y-59407795D01*
X195246898Y-59329774D01*
X195046939Y-59290000D01*
X194843061Y-59290000D01*
X194747541Y-59309000D01*
X189835642Y-59309000D01*
X189929222Y-59215420D01*
X190152989Y-58880528D01*
X190307123Y-58508417D01*
X190385700Y-58113385D01*
X190385700Y-57710615D01*
X190307123Y-57315583D01*
X190152989Y-56943472D01*
X190082041Y-56837290D01*
X217170000Y-56837290D01*
X217170000Y-57462710D01*
X217292014Y-58076113D01*
X217531352Y-58653926D01*
X217878817Y-59173944D01*
X218321056Y-59616183D01*
X218841074Y-59963648D01*
X219418887Y-60202986D01*
X220032290Y-60325000D01*
X220657710Y-60325000D01*
X221271113Y-60202986D01*
X221848926Y-59963648D01*
X222368944Y-59616183D01*
X222811183Y-59173944D01*
X223158648Y-58653926D01*
X223397986Y-58076113D01*
X223520000Y-57462710D01*
X223520000Y-56837290D01*
X223397986Y-56223887D01*
X223158648Y-55646074D01*
X222811183Y-55126056D01*
X222368944Y-54683817D01*
X221848926Y-54336352D01*
X221271113Y-54097014D01*
X220657710Y-53975000D01*
X220032290Y-53975000D01*
X219418887Y-54097014D01*
X218841074Y-54336352D01*
X218321056Y-54683817D01*
X217878817Y-55126056D01*
X217531352Y-55646074D01*
X217292014Y-56223887D01*
X217170000Y-56837290D01*
X190082041Y-56837290D01*
X189929222Y-56608580D01*
X189644420Y-56323778D01*
X189309528Y-56100011D01*
X188937417Y-55945877D01*
X188542385Y-55867300D01*
X188139615Y-55867300D01*
X187744583Y-55945877D01*
X187372472Y-56100011D01*
X187037580Y-56323778D01*
X186752778Y-56608580D01*
X186626500Y-56797569D01*
X186500222Y-56608580D01*
X186215420Y-56323778D01*
X185880528Y-56100011D01*
X185508417Y-55945877D01*
X185113385Y-55867300D01*
X184710615Y-55867300D01*
X184315583Y-55945877D01*
X183943472Y-56100011D01*
X183608580Y-56323778D01*
X183323778Y-56608580D01*
X183100011Y-56943472D01*
X182945877Y-57315583D01*
X182867300Y-57710615D01*
X182867300Y-58113385D01*
X182945877Y-58508417D01*
X183100011Y-58880528D01*
X183323778Y-59215420D01*
X183417358Y-59309000D01*
X172769902Y-59309000D01*
X172720000Y-59304085D01*
X172670098Y-59309000D01*
X172520829Y-59323702D01*
X172329313Y-59381798D01*
X172152810Y-59476140D01*
X171998104Y-59603104D01*
X171966293Y-59641866D01*
X170815000Y-60793159D01*
X169663712Y-59641872D01*
X169631896Y-59603104D01*
X169477190Y-59476140D01*
X169300687Y-59381798D01*
X169109171Y-59323702D01*
X168959902Y-59309000D01*
X168910000Y-59304085D01*
X168860098Y-59309000D01*
X151608642Y-59309000D01*
X151702222Y-59215420D01*
X151925989Y-58880528D01*
X152080123Y-58508417D01*
X152158700Y-58113385D01*
X152158700Y-57710615D01*
X152080123Y-57315583D01*
X151925989Y-56943472D01*
X151702222Y-56608580D01*
X151417420Y-56323778D01*
X151082528Y-56100011D01*
X150710417Y-55945877D01*
X150315385Y-55867300D01*
X149912615Y-55867300D01*
X149517583Y-55945877D01*
X149145472Y-56100011D01*
X148810580Y-56323778D01*
X148525778Y-56608580D01*
X148399500Y-56797569D01*
X148273222Y-56608580D01*
X147988420Y-56323778D01*
X147653528Y-56100011D01*
X147281417Y-55945877D01*
X146886385Y-55867300D01*
X146483615Y-55867300D01*
X146088583Y-55945877D01*
X145716472Y-56100011D01*
X145381580Y-56323778D01*
X145096778Y-56608580D01*
X144873011Y-56943472D01*
X144718877Y-57315583D01*
X144640300Y-57710615D01*
X144640300Y-58113385D01*
X144718877Y-58508417D01*
X144873011Y-58880528D01*
X145096778Y-59215420D01*
X145190358Y-59309000D01*
X141390840Y-59309000D01*
X141351000Y-59269160D01*
X141351000Y-44248615D01*
X144640300Y-44248615D01*
X144640300Y-44651385D01*
X144718877Y-45046417D01*
X144873011Y-45418528D01*
X145096778Y-45753420D01*
X145381580Y-46038222D01*
X145716472Y-46261989D01*
X146088583Y-46416123D01*
X146483615Y-46494700D01*
X146886385Y-46494700D01*
X147281417Y-46416123D01*
X147653528Y-46261989D01*
X147988420Y-46038222D01*
X148273222Y-45753420D01*
X148399500Y-45564431D01*
X148525778Y-45753420D01*
X148810580Y-46038222D01*
X149145472Y-46261989D01*
X149517583Y-46416123D01*
X149912615Y-46494700D01*
X150315385Y-46494700D01*
X150710417Y-46416123D01*
X151082528Y-46261989D01*
X151417420Y-46038222D01*
X151702222Y-45753420D01*
X151925989Y-45418528D01*
X152080123Y-45046417D01*
X152158700Y-44651385D01*
X152158700Y-44248615D01*
X182867300Y-44248615D01*
X182867300Y-44651385D01*
X182945877Y-45046417D01*
X183100011Y-45418528D01*
X183323778Y-45753420D01*
X183608580Y-46038222D01*
X183943472Y-46261989D01*
X184315583Y-46416123D01*
X184710615Y-46494700D01*
X185113385Y-46494700D01*
X185508417Y-46416123D01*
X185880528Y-46261989D01*
X186215420Y-46038222D01*
X186500222Y-45753420D01*
X186626500Y-45564431D01*
X186752778Y-45753420D01*
X187037580Y-46038222D01*
X187372472Y-46261989D01*
X187744583Y-46416123D01*
X188139615Y-46494700D01*
X188542385Y-46494700D01*
X188937417Y-46416123D01*
X189309528Y-46261989D01*
X189644420Y-46038222D01*
X189929222Y-45753420D01*
X190152989Y-45418528D01*
X190307123Y-45046417D01*
X190385700Y-44651385D01*
X190385700Y-44248615D01*
X190307123Y-43853583D01*
X190152989Y-43481472D01*
X189929222Y-43146580D01*
X189644420Y-42861778D01*
X189309528Y-42638011D01*
X188937417Y-42483877D01*
X188542385Y-42405300D01*
X188139615Y-42405300D01*
X187744583Y-42483877D01*
X187372472Y-42638011D01*
X187037580Y-42861778D01*
X186752778Y-43146580D01*
X186626500Y-43335569D01*
X186500222Y-43146580D01*
X186215420Y-42861778D01*
X185880528Y-42638011D01*
X185508417Y-42483877D01*
X185113385Y-42405300D01*
X184710615Y-42405300D01*
X184315583Y-42483877D01*
X183943472Y-42638011D01*
X183608580Y-42861778D01*
X183323778Y-43146580D01*
X183100011Y-43481472D01*
X182945877Y-43853583D01*
X182867300Y-44248615D01*
X152158700Y-44248615D01*
X152080123Y-43853583D01*
X151925989Y-43481472D01*
X151702222Y-43146580D01*
X151417420Y-42861778D01*
X151082528Y-42638011D01*
X150710417Y-42483877D01*
X150315385Y-42405300D01*
X149912615Y-42405300D01*
X149517583Y-42483877D01*
X149145472Y-42638011D01*
X148810580Y-42861778D01*
X148525778Y-43146580D01*
X148399500Y-43335569D01*
X148273222Y-43146580D01*
X147988420Y-42861778D01*
X147653528Y-42638011D01*
X147281417Y-42483877D01*
X146886385Y-42405300D01*
X146483615Y-42405300D01*
X146088583Y-42483877D01*
X145716472Y-42638011D01*
X145381580Y-42861778D01*
X145096778Y-43146580D01*
X144873011Y-43481472D01*
X144718877Y-43853583D01*
X144640300Y-44248615D01*
X141351000Y-44248615D01*
X141351000Y-42107459D01*
X141370000Y-42011939D01*
X141370000Y-41808061D01*
X141357457Y-41745000D01*
X163661928Y-41745000D01*
X163661928Y-43345000D01*
X163674188Y-43469482D01*
X163710498Y-43589180D01*
X163769463Y-43699494D01*
X163848815Y-43796185D01*
X163945506Y-43875537D01*
X164055820Y-43934502D01*
X164175518Y-43970812D01*
X164300000Y-43983072D01*
X165900000Y-43983072D01*
X166024482Y-43970812D01*
X166144180Y-43934502D01*
X166254494Y-43875537D01*
X166351185Y-43796185D01*
X166430537Y-43699494D01*
X166489502Y-43589180D01*
X166525812Y-43469482D01*
X166538072Y-43345000D01*
X166538072Y-41745000D01*
X166525812Y-41620518D01*
X166489502Y-41500820D01*
X166430537Y-41390506D01*
X166351185Y-41293815D01*
X166254494Y-41214463D01*
X166144180Y-41155498D01*
X166024482Y-41119188D01*
X165900000Y-41106928D01*
X164300000Y-41106928D01*
X164175518Y-41119188D01*
X164055820Y-41155498D01*
X163945506Y-41214463D01*
X163848815Y-41293815D01*
X163769463Y-41390506D01*
X163710498Y-41500820D01*
X163674188Y-41620518D01*
X163661928Y-41745000D01*
X141357457Y-41745000D01*
X141330226Y-41608102D01*
X141252205Y-41419744D01*
X141138937Y-41250226D01*
X140994774Y-41106063D01*
X140825256Y-40992795D01*
X140636898Y-40914774D01*
X140436939Y-40875000D01*
X140233061Y-40875000D01*
X140033102Y-40914774D01*
X139844744Y-40992795D01*
X139675226Y-41106063D01*
X139531063Y-41250226D01*
X139417795Y-41419744D01*
X139339774Y-41608102D01*
X139300000Y-41808061D01*
X97180000Y-41808061D01*
X97180000Y-34576279D01*
X97209003Y-34280480D01*
X98419920Y-34280480D01*
X98419920Y-34695760D01*
X98500937Y-35103059D01*
X98659857Y-35486727D01*
X98890574Y-35832019D01*
X99184221Y-36125666D01*
X99529513Y-36356383D01*
X99913181Y-36515303D01*
X100320480Y-36596320D01*
X100735760Y-36596320D01*
X101143059Y-36515303D01*
X101526727Y-36356383D01*
X101768253Y-36195000D01*
X114429509Y-36195000D01*
X114451423Y-36417499D01*
X114516324Y-36631447D01*
X114522297Y-36642621D01*
X114480498Y-36720820D01*
X114444188Y-36840518D01*
X114431928Y-36965000D01*
X114431928Y-37965000D01*
X114444188Y-38089482D01*
X114480498Y-38209180D01*
X114539463Y-38319494D01*
X114618815Y-38416185D01*
X114715506Y-38495537D01*
X114825820Y-38554502D01*
X114945518Y-38590812D01*
X115070000Y-38603072D01*
X116070000Y-38603072D01*
X116194482Y-38590812D01*
X116314180Y-38554502D01*
X116392379Y-38512703D01*
X116403553Y-38518676D01*
X116617501Y-38583577D01*
X116784248Y-38600000D01*
X116895752Y-38600000D01*
X117062499Y-38583577D01*
X117276447Y-38518676D01*
X117473623Y-38413284D01*
X117475000Y-38412154D01*
X117476377Y-38413284D01*
X117673553Y-38518676D01*
X117887501Y-38583577D01*
X118054248Y-38600000D01*
X118165752Y-38600000D01*
X118332499Y-38583577D01*
X118546447Y-38518676D01*
X118743623Y-38413284D01*
X118745000Y-38412154D01*
X118746377Y-38413284D01*
X118943553Y-38518676D01*
X119157501Y-38583577D01*
X119324248Y-38600000D01*
X119435752Y-38600000D01*
X119602499Y-38583577D01*
X119816447Y-38518676D01*
X120013623Y-38413284D01*
X120015000Y-38412154D01*
X120016377Y-38413284D01*
X120213553Y-38518676D01*
X120427501Y-38583577D01*
X120594248Y-38600000D01*
X120705752Y-38600000D01*
X120872499Y-38583577D01*
X121086447Y-38518676D01*
X121283623Y-38413284D01*
X121456449Y-38271449D01*
X121598284Y-38098623D01*
X121703676Y-37901447D01*
X121768577Y-37687499D01*
X121790491Y-37465000D01*
X121768577Y-37242501D01*
X121703676Y-37028553D01*
X121598284Y-36831377D01*
X121597154Y-36830000D01*
X121598284Y-36828623D01*
X121703676Y-36631447D01*
X121768577Y-36417499D01*
X121790491Y-36195000D01*
X121768577Y-35972501D01*
X121703676Y-35758553D01*
X121598284Y-35561377D01*
X121456449Y-35388551D01*
X121283623Y-35246716D01*
X121086447Y-35141324D01*
X120872499Y-35076423D01*
X120705752Y-35060000D01*
X120594248Y-35060000D01*
X120427501Y-35076423D01*
X120213553Y-35141324D01*
X120016377Y-35246716D01*
X120015000Y-35247846D01*
X120013623Y-35246716D01*
X119816447Y-35141324D01*
X119602499Y-35076423D01*
X119435752Y-35060000D01*
X119324248Y-35060000D01*
X119157501Y-35076423D01*
X118943553Y-35141324D01*
X118746377Y-35246716D01*
X118745000Y-35247846D01*
X118743623Y-35246716D01*
X118546447Y-35141324D01*
X118332499Y-35076423D01*
X118165752Y-35060000D01*
X118054248Y-35060000D01*
X117887501Y-35076423D01*
X117673553Y-35141324D01*
X117476377Y-35246716D01*
X117475000Y-35247846D01*
X117473623Y-35246716D01*
X117276447Y-35141324D01*
X117062499Y-35076423D01*
X116895752Y-35060000D01*
X116784248Y-35060000D01*
X116617501Y-35076423D01*
X116403553Y-35141324D01*
X116206377Y-35246716D01*
X116205000Y-35247846D01*
X116203623Y-35246716D01*
X116006447Y-35141324D01*
X115792499Y-35076423D01*
X115625752Y-35060000D01*
X115514248Y-35060000D01*
X115347501Y-35076423D01*
X115133553Y-35141324D01*
X114936377Y-35246716D01*
X114763551Y-35388551D01*
X114621716Y-35561377D01*
X114516324Y-35758553D01*
X114451423Y-35972501D01*
X114429509Y-36195000D01*
X101768253Y-36195000D01*
X101872019Y-36125666D01*
X102165666Y-35832019D01*
X102396383Y-35486727D01*
X102555303Y-35103059D01*
X102636320Y-34695760D01*
X102636320Y-34280480D01*
X102605394Y-34125000D01*
X150199928Y-34125000D01*
X150199928Y-35725000D01*
X150212188Y-35849482D01*
X150248498Y-35969180D01*
X150307463Y-36079494D01*
X150386815Y-36176185D01*
X150483506Y-36255537D01*
X150593820Y-36314502D01*
X150713518Y-36350812D01*
X150838000Y-36363072D01*
X152438000Y-36363072D01*
X152562482Y-36350812D01*
X152682180Y-36314502D01*
X152792494Y-36255537D01*
X152889185Y-36176185D01*
X152968537Y-36079494D01*
X153027502Y-35969180D01*
X153063812Y-35849482D01*
X153076072Y-35725000D01*
X153076072Y-34787408D01*
X157353000Y-34787408D01*
X157353000Y-35062592D01*
X157406686Y-35332490D01*
X157511995Y-35586727D01*
X157664880Y-35815535D01*
X157859465Y-36010120D01*
X158088273Y-36163005D01*
X158342510Y-36268314D01*
X158612408Y-36322000D01*
X158887592Y-36322000D01*
X159157490Y-36268314D01*
X159334484Y-36195000D01*
X176659509Y-36195000D01*
X176681423Y-36417499D01*
X176746324Y-36631447D01*
X176752297Y-36642621D01*
X176710498Y-36720820D01*
X176674188Y-36840518D01*
X176661928Y-36965000D01*
X176661928Y-37965000D01*
X176674188Y-38089482D01*
X176710498Y-38209180D01*
X176769463Y-38319494D01*
X176848815Y-38416185D01*
X176945506Y-38495537D01*
X177055820Y-38554502D01*
X177175518Y-38590812D01*
X177300000Y-38603072D01*
X178300000Y-38603072D01*
X178424482Y-38590812D01*
X178544180Y-38554502D01*
X178622379Y-38512703D01*
X178633553Y-38518676D01*
X178847501Y-38583577D01*
X179014248Y-38600000D01*
X179125752Y-38600000D01*
X179292499Y-38583577D01*
X179506447Y-38518676D01*
X179703623Y-38413284D01*
X179705000Y-38412154D01*
X179706377Y-38413284D01*
X179903553Y-38518676D01*
X180117501Y-38583577D01*
X180284248Y-38600000D01*
X180395752Y-38600000D01*
X180562499Y-38583577D01*
X180776447Y-38518676D01*
X180973623Y-38413284D01*
X180975000Y-38412154D01*
X180976377Y-38413284D01*
X181173553Y-38518676D01*
X181387501Y-38583577D01*
X181554248Y-38600000D01*
X181665752Y-38600000D01*
X181832499Y-38583577D01*
X182046447Y-38518676D01*
X182243623Y-38413284D01*
X182245000Y-38412154D01*
X182246377Y-38413284D01*
X182443553Y-38518676D01*
X182657501Y-38583577D01*
X182824248Y-38600000D01*
X182935752Y-38600000D01*
X183102499Y-38583577D01*
X183316447Y-38518676D01*
X183513623Y-38413284D01*
X183686449Y-38271449D01*
X183828284Y-38098623D01*
X183933676Y-37901447D01*
X183998577Y-37687499D01*
X184020491Y-37465000D01*
X183998577Y-37242501D01*
X183933676Y-37028553D01*
X183828284Y-36831377D01*
X183827154Y-36830000D01*
X183828284Y-36828623D01*
X183933676Y-36631447D01*
X183998577Y-36417499D01*
X184020491Y-36195000D01*
X183998577Y-35972501D01*
X183933676Y-35758553D01*
X183828284Y-35561377D01*
X183686449Y-35388551D01*
X183513623Y-35246716D01*
X183316447Y-35141324D01*
X183102499Y-35076423D01*
X182935752Y-35060000D01*
X182824248Y-35060000D01*
X182657501Y-35076423D01*
X182443553Y-35141324D01*
X182246377Y-35246716D01*
X182245000Y-35247846D01*
X182243623Y-35246716D01*
X182046447Y-35141324D01*
X181832499Y-35076423D01*
X181665752Y-35060000D01*
X181554248Y-35060000D01*
X181387501Y-35076423D01*
X181173553Y-35141324D01*
X180976377Y-35246716D01*
X180975000Y-35247846D01*
X180973623Y-35246716D01*
X180776447Y-35141324D01*
X180562499Y-35076423D01*
X180395752Y-35060000D01*
X180284248Y-35060000D01*
X180117501Y-35076423D01*
X179903553Y-35141324D01*
X179706377Y-35246716D01*
X179705000Y-35247846D01*
X179703623Y-35246716D01*
X179506447Y-35141324D01*
X179292499Y-35076423D01*
X179125752Y-35060000D01*
X179014248Y-35060000D01*
X178847501Y-35076423D01*
X178633553Y-35141324D01*
X178436377Y-35246716D01*
X178435000Y-35247846D01*
X178433623Y-35246716D01*
X178236447Y-35141324D01*
X178022499Y-35076423D01*
X177855752Y-35060000D01*
X177744248Y-35060000D01*
X177577501Y-35076423D01*
X177363553Y-35141324D01*
X177166377Y-35246716D01*
X176993551Y-35388551D01*
X176851716Y-35561377D01*
X176746324Y-35758553D01*
X176681423Y-35972501D01*
X176659509Y-36195000D01*
X159334484Y-36195000D01*
X159411727Y-36163005D01*
X159640535Y-36010120D01*
X159835120Y-35815535D01*
X159988005Y-35586727D01*
X160093314Y-35332490D01*
X160147000Y-35062592D01*
X160147000Y-34787408D01*
X160093314Y-34517510D01*
X159995133Y-34280480D01*
X232389680Y-34280480D01*
X232389680Y-34695760D01*
X232470697Y-35103059D01*
X232629617Y-35486727D01*
X232860334Y-35832019D01*
X233153981Y-36125666D01*
X233499273Y-36356383D01*
X233882941Y-36515303D01*
X234290240Y-36596320D01*
X234705520Y-36596320D01*
X235112819Y-36515303D01*
X235496487Y-36356383D01*
X235841779Y-36125666D01*
X236135426Y-35832019D01*
X236366143Y-35486727D01*
X236525063Y-35103059D01*
X236606080Y-34695760D01*
X236606080Y-34280480D01*
X236525063Y-33873181D01*
X236366143Y-33489513D01*
X236135426Y-33144221D01*
X235841779Y-32850574D01*
X235496487Y-32619857D01*
X235112819Y-32460937D01*
X234705520Y-32379920D01*
X234290240Y-32379920D01*
X233882941Y-32460937D01*
X233499273Y-32619857D01*
X233153981Y-32850574D01*
X232860334Y-33144221D01*
X232629617Y-33489513D01*
X232470697Y-33873181D01*
X232389680Y-34280480D01*
X159995133Y-34280480D01*
X159988005Y-34263273D01*
X159835120Y-34034465D01*
X159640535Y-33839880D01*
X159411727Y-33686995D01*
X159157490Y-33581686D01*
X158887592Y-33528000D01*
X158612408Y-33528000D01*
X158342510Y-33581686D01*
X158088273Y-33686995D01*
X157859465Y-33839880D01*
X157664880Y-34034465D01*
X157511995Y-34263273D01*
X157406686Y-34517510D01*
X157353000Y-34787408D01*
X153076072Y-34787408D01*
X153076072Y-34125000D01*
X153063812Y-34000518D01*
X153027502Y-33880820D01*
X152968537Y-33770506D01*
X152889185Y-33673815D01*
X152792494Y-33594463D01*
X152682180Y-33535498D01*
X152562482Y-33499188D01*
X152438000Y-33486928D01*
X150838000Y-33486928D01*
X150713518Y-33499188D01*
X150593820Y-33535498D01*
X150483506Y-33594463D01*
X150386815Y-33673815D01*
X150307463Y-33770506D01*
X150248498Y-33880820D01*
X150212188Y-34000518D01*
X150199928Y-34125000D01*
X102605394Y-34125000D01*
X102555303Y-33873181D01*
X102396383Y-33489513D01*
X102165666Y-33144221D01*
X101872019Y-32850574D01*
X101526727Y-32619857D01*
X101143059Y-32460937D01*
X100735760Y-32379920D01*
X100320480Y-32379920D01*
X99913181Y-32460937D01*
X99529513Y-32619857D01*
X99184221Y-32850574D01*
X98890574Y-33144221D01*
X98659857Y-33489513D01*
X98500937Y-33873181D01*
X98419920Y-34280480D01*
X97209003Y-34280480D01*
X97247933Y-33883442D01*
X97439772Y-33248040D01*
X97751373Y-32662006D01*
X98170870Y-32147653D01*
X98682275Y-31724581D01*
X99266123Y-31408896D01*
X99900170Y-31212625D01*
X100591155Y-31140000D01*
X234536721Y-31140000D01*
X235204891Y-31205515D01*
M02*
