M48
; DRILL file {KiCad (5.1.4)-1} date 12-Dec-19 22:39:40
; FORMAT={-:-/ absolute / inch / decimal}
; #@! TF.CreationDate,2019-12-12T22:39:40-06:00
; #@! TF.GenerationSoftware,Kicad,Pcbnew,(5.1.4)-1
; #@! TF.FileFunction,Plated,1,2,PTH
FMAT,2
INCH
T1C0.0157
T2C0.0256
T3C0.0315
T4C0.0350
T5C0.0354
T6C0.0472
T7C0.0630
T8C0.0660
T9C0.1598
T10C0.3600
%
G90
G05
T1
X4.4174Y-3.0074
X4.4176Y-3.8124
X4.4176Y-4.6374
X4.4224Y-2.2074
X4.4274Y-5.4724
X4.875Y-2.325
X4.875Y-3.125
X4.875Y-3.925
X4.875Y-5.6
X4.88Y-4.75
X5.45Y-2.375
X5.45Y-3.18
X5.45Y-3.995
X5.45Y-4.815
X5.45Y-5.65
X5.525Y-1.65
X5.525Y-2.475
X5.525Y-3.3
X5.525Y-4.1
X5.525Y-4.95
X5.6639Y-2.56
X5.6639Y-3.375
X5.6639Y-5.04
X5.665Y-1.74
X5.665Y-4.18
X6.59Y-1.9
X6.59Y-2.035
X6.59Y-2.175
X6.59Y-2.315
X7.125Y-1.9
X7.125Y-2.035
X7.5311Y-2.29
X7.5311Y-3.92
X7.5311Y-4.74
X7.5311Y-5.58
X7.5356Y-3.12
X7.675Y-2.375
X7.675Y-3.2
X7.675Y-4.0
X7.675Y-4.825
X7.675Y-5.65
X7.75Y-1.7
X7.75Y-2.45
X7.75Y-3.275
X7.75Y-4.1
X7.75Y-4.925
X8.375Y-1.725
X8.375Y-2.55
X8.375Y-3.35
X8.375Y-4.15
X8.375Y-5.025
X8.8276Y-3.4526
X8.845Y-1.825
X8.8476Y-2.6526
X8.8476Y-4.2526
X8.8726Y-5.1276
T2
X7.0Y-1.425
X7.0Y-1.475
X7.05Y-1.425
X7.05Y-1.475
X7.1Y-1.425
X7.1Y-1.475
X7.15Y-1.425
X7.15Y-1.475
X7.2Y-1.425
X7.2Y-1.475
X4.55Y-1.425
X4.55Y-1.475
X4.6Y-1.425
X4.6Y-1.475
X4.65Y-1.425
X4.65Y-1.475
X4.7Y-1.425
X4.7Y-1.475
X4.75Y-1.425
X4.75Y-1.475
T3
X6.5Y-1.675
X6.5984Y-1.675
X6.35Y-2.6516
X6.35Y-2.75
X5.97Y-1.375
X5.97Y-1.4734
X6.825Y-2.6516
X6.825Y-2.75
T4
X6.725Y-2.45
X6.825Y-2.45
X6.925Y-2.45
X6.25Y-2.45
X6.35Y-2.45
X6.45Y-2.45
T5
X6.25Y-1.375
X6.35Y-1.375
T6
X6.79Y-4.275
X6.9869Y-4.275
X6.1931Y-4.725
X6.39Y-4.725
X6.79Y-5.2
X6.9869Y-5.2
X6.1931Y-3.8
X6.39Y-3.8
T7
X6.45Y-3.085
X6.45Y-3.285
X6.725Y-3.085
X6.725Y-3.285
T8
X5.775Y-4.185
X5.775Y-4.715
X5.91Y-4.185
X5.91Y-4.715
X5.775Y-1.75
X5.775Y-2.28
X5.91Y-1.75
X5.91Y-2.28
X7.28Y-5.02
X7.28Y-5.55
X7.415Y-5.02
X7.415Y-5.55
X5.775Y-5.025
X5.775Y-5.555
X5.91Y-5.025
X5.91Y-5.555
X5.775Y-3.365
X5.775Y-3.895
X5.91Y-3.365
X5.91Y-3.895
X7.28Y-4.18
X7.28Y-4.71
X7.415Y-4.18
X7.415Y-4.71
X5.775Y-2.56
X5.775Y-3.09
X5.91Y-2.56
X5.91Y-3.09
X7.28Y-2.565
X7.28Y-3.095
X7.415Y-2.565
X7.415Y-3.095
X7.28Y-3.37
X7.28Y-3.9
X7.415Y-3.37
X7.415Y-3.9
X7.28Y-1.75
X7.28Y-2.28
X7.415Y-1.75
X7.415Y-2.28
T9
X8.365Y-3.875
X8.675Y-3.875
X4.515Y-3.39
X4.825Y-3.39
X8.365Y-2.25
X8.675Y-2.25
X4.515Y-2.58
X4.825Y-2.58
X4.515Y-1.78
X4.825Y-1.78
X8.365Y-5.53
X8.675Y-5.53
X4.515Y-4.21
X4.825Y-4.21
X8.365Y-4.685
X8.675Y-4.685
X8.365Y-3.07
X8.675Y-3.07
X4.515Y-5.05
X4.825Y-5.05
T10
X5.615Y-6.18
X6.99Y-6.175
T0
M30
