M48
; DRILL file {KiCad (5.1.4)-1} date 22-Nov-19 18:45:45
; FORMAT={-:-/ absolute / inch / decimal}
; #@! TF.CreationDate,2019-11-22T18:45:45-06:00
; #@! TF.GenerationSoftware,Kicad,Pcbnew,(5.1.4)-1
; #@! TF.FileFunction,Plated,1,2,PTH
FMAT,2
INCH
T1C0.0157
T2C0.0315
T3C0.0350
T4C0.0354
T5C0.0472
T6C0.0630
T7C0.0660
T8C0.1598
T9C0.3600
%
G90
G05
T1
X4.97Y-1.765
X4.975Y-2.8
X4.9756Y-3.81
X5.1Y-2.3
X5.1Y-3.33
X5.22Y-2.38
X5.25Y-3.42
X5.67Y-3.42
X5.67Y-4.46
X5.675Y-2.39
X5.75Y-1.715
X5.75Y-2.725
X5.75Y-3.75
X6.59Y-1.9
X6.59Y-2.035
X6.59Y-2.175
X6.59Y-2.315
X7.07Y-1.9
X7.07Y-2.035
X7.07Y-2.15
X7.15Y-2.375
X7.15Y-3.17
X7.15Y-3.95
X7.15Y-4.725
X7.275Y-1.68
X7.275Y-2.49
X7.275Y-4.04
X7.28Y-3.27
X7.695Y-2.46
X7.695Y-2.52
X7.695Y-3.28
X7.705Y-1.65
X7.705Y-1.71
X7.705Y-4.07
X7.835Y-1.76
X7.835Y-2.56
X7.97Y-4.66
X7.9744Y-3.87
X7.975Y-2.28
X7.975Y-3.09
X8.125Y-2.22
X8.125Y-2.31
X8.135Y-3.02
X8.135Y-3.1
T2
X6.785Y-2.6516
X6.785Y-2.75
X6.275Y-2.6516
X6.275Y-2.75
X6.195Y-1.375
X6.195Y-1.4734
X6.725Y-1.675
X6.8234Y-1.675
T3
X6.725Y-2.45
X6.825Y-2.45
X6.925Y-2.45
X6.25Y-2.45
X6.35Y-2.45
X6.45Y-2.45
T4
X8.26Y-1.36
X8.36Y-1.36
X8.46Y-1.36
X8.56Y-1.36
X8.66Y-1.36
X8.76Y-1.36
X8.86Y-1.36
X8.96Y-1.36
X6.475Y-1.375
X6.575Y-1.375
X4.185Y-1.36
X4.285Y-1.36
X4.385Y-1.36
X4.485Y-1.36
X4.585Y-1.36
X4.685Y-1.36
X4.785Y-1.36
T5
X6.625Y-4.575
X6.8219Y-4.575
X7.5Y-5.0281
X7.5Y-5.225
X6.625Y-4.0
X6.8219Y-4.0
X6.925Y-5.0281
X6.925Y-5.225
T6
X6.625Y-3.3
X6.825Y-3.3
X6.625Y-3.575
X6.825Y-3.575
T7
X8.28Y-4.08
X8.28Y-4.215
X8.81Y-4.08
X8.81Y-4.215
X8.275Y-1.71
X8.275Y-1.845
X8.805Y-1.71
X8.805Y-1.845
X4.04Y-2.225
X4.04Y-2.36
X4.57Y-2.225
X4.57Y-2.36
X4.105Y-3.265
X4.105Y-3.4
X4.635Y-3.265
X4.635Y-3.4
X8.275Y-2.49
X8.275Y-2.625
X8.805Y-2.49
X8.805Y-2.625
X4.035Y-4.295
X4.035Y-4.43
X4.565Y-4.295
X4.565Y-4.43
X8.28Y-3.28
X8.28Y-3.415
X8.81Y-3.28
X8.81Y-3.415
T8
X8.395Y-2.94
X8.705Y-2.94
X4.41Y-2.7
X4.72Y-2.7
X8.4Y-4.5
X8.71Y-4.5
X4.41Y-3.75
X4.72Y-3.75
X4.415Y-1.75
X4.725Y-1.75
X8.405Y-3.73
X8.715Y-3.73
X8.395Y-2.125
X8.705Y-2.125
T9
X5.525Y-5.25
X8.35Y-5.225
T0
M30
